<svg width="320" height="320" viewBox="0 0 320 320" fill="none" xmlns="http://www.w3.org/2000/svg">
<g clip-path="url(#clip0_1428_2272)">
<rect width="320" height="320" fill="#DCFFE0"/>
<path d="M85.0348 77.5122C84.7819 74.8566 86.7297 72.4991 89.385 72.2461L217.605 60.0356C220.26 59.7829 222.618 61.7305 222.871 64.3861L238.744 231.071C238.997 233.727 237.049 236.085 234.394 236.338L106.174 248.548C103.519 248.801 101.161 246.853 100.908 244.198L85.0348 77.5122Z" fill="#DCCDB3"/>
<path fill-rule="evenodd" clip-rule="evenodd" d="M83.0313 77.702C82.6729 73.94 85.4323 70.6 89.1942 70.2418L217.414 58.0313C221.176 57.6731 224.516 60.4322 224.874 64.1942L240.748 230.88C241.106 234.642 238.347 237.982 234.585 238.34L106.365 250.551C102.603 250.909 99.2629 248.149 98.9047 244.387L83.0313 77.702ZM89.5757 74.2486C88.0268 74.396 86.8907 75.7713 87.0381 77.3205L102.911 244.006C103.059 245.555 104.434 246.691 105.983 246.543L234.203 234.333C235.752 234.186 236.888 232.81 236.741 231.261L220.867 64.5759C220.72 63.0267 219.344 61.8906 217.795 62.0381L89.5757 74.2486Z" fill="#3C1F1B"/>
<path d="M112.316 87.7181C112.316 85.0505 114.479 82.888 117.146 82.888H245.946C248.614 82.888 250.776 85.0505 250.776 87.7181V255.158C250.776 257.825 248.614 259.987 245.946 259.987H117.146C114.479 259.987 112.316 257.825 112.316 255.158V87.7181Z" fill="white"/>
<path fill-rule="evenodd" clip-rule="evenodd" d="M110.305 87.7181C110.305 83.9392 113.368 80.8756 117.147 80.8756H245.947C249.726 80.8756 252.789 83.9392 252.789 87.7181V255.158C252.789 258.936 249.726 262 245.947 262H117.147C113.368 262 110.305 258.936 110.305 255.158V87.7181ZM117.147 84.9006C115.591 84.9006 114.33 86.162 114.33 87.7181V255.158C114.33 256.714 115.591 257.975 117.147 257.975H245.947C247.503 257.975 248.764 256.714 248.764 255.158V87.7181C248.764 86.162 247.503 84.9006 245.947 84.9006H117.147Z" fill="#3C1F1B"/>
<path d="M234.452 187.494H179.35C177.219 187.494 175.491 189.221 175.491 191.352V227.608C175.491 229.739 177.219 231.466 179.35 231.466H234.452C236.583 231.466 238.311 229.739 238.311 227.608V191.352C238.311 189.221 236.583 187.494 234.452 187.494Z" fill="white"/>
<g clip-path="url(#clip1_1428_2272)">
<path d="M215.606 178.306C211.854 176.577 207.901 175.321 203.839 174.567C203.077 149.806 194.706 143.685 186.327 143.685C180.505 143.694 174.84 146.776 171.749 148.457C170.978 148.878 170.392 149.202 170.12 149.333C168.317 150.007 165.742 149.613 163.046 149.202C161.133 148.847 159.194 148.648 157.249 148.606C150.043 148.667 143.617 152.651 143.144 174.593C139.088 175.345 135.141 176.598 131.394 178.323C127.935 180.074 126 182.176 126 184.584C126 188.506 131.621 191.825 140.701 194.022C149.133 196.054 160.725 197.314 173.5 197.314C186.275 197.314 197.876 196.054 206.299 194.022C215.379 191.833 221 188.506 221 184.584C221 182.167 219.03 180.048 215.606 178.306ZM157.276 151.907C159.038 151.953 160.794 152.135 162.529 152.45C165.646 152.932 168.658 153.387 171.285 152.397C171.991 152.094 172.678 151.749 173.342 151.364C176.153 149.832 181.319 146.986 186.31 146.986C193.446 146.986 200.564 153.115 200.564 178.323C200.564 179.374 197.832 180.556 193.419 181.615C186.876 183.032 180.194 183.708 173.5 183.629C166.804 183.72 160.119 183.056 153.572 181.65C149.194 180.582 146.427 179.4 146.427 178.358V178.201C146.27 155.873 151.435 151.96 157.276 151.907ZM205.52 190.783C197.359 192.753 186.038 193.97 173.5 193.97C160.962 193.97 149.641 192.753 141.48 190.783C133.976 188.97 129.327 186.755 129.327 184.566C129.327 183.55 130.606 182.421 132.882 181.274C136.15 179.771 139.586 178.665 143.118 177.982V178.35C143.118 181.134 146.821 183.419 152.801 184.864C159.6 186.338 166.544 187.04 173.5 186.956C180.459 187.043 187.405 186.344 194.207 184.873C200.196 183.428 203.891 181.143 203.891 178.358V177.991C207.417 178.675 210.847 179.781 214.109 181.283C216.394 182.43 217.673 183.559 217.673 184.584C217.673 186.755 213.032 188.97 205.52 190.783Z" fill="#3C1F1B"/>
</g>
<g style="mix-blend-mode:hue">
<rect width="320" height="320" fill="#00BF13"/>
</g>
</g>
<defs>
<clipPath id="clip0_1428_2272">
<rect width="320" height="320" fill="white"/>
</clipPath>
<clipPath id="clip1_1428_2272">
<rect width="95" height="95" fill="white" transform="translate(126 123)"/>
</clipPath>
</defs>
</svg>
