<svg width="320" height="320" viewBox="0 0 320 320" fill="none" xmlns="http://www.w3.org/2000/svg">
<g clip-path="url(#clip0_1423_7174)">
<rect width="320" height="320" fill="#DCFFE0"/>
<g clip-path="url(#clip1_1423_7174)">
<path fill-rule="evenodd" clip-rule="evenodd" d="M77.8865 171.687C72.6348 179.415 71.4398 185.704 62.789 193.706C58.1616 197.985 55.205 199.237 55.2381 201.887C55.3081 206.951 66.2615 210.868 81.0315 215.097C106.791 222.47 119.671 226.157 138.911 227.68C162.035 229.51 179.497 227.365 191.755 225.793C208.316 223.727 224.576 219.715 240.197 213.839C245.666 211.772 265.635 204.222 264.732 198.742C264.314 196.202 259.841 196.677 252.15 191.82C244.218 186.812 239.705 180.456 237.053 176.722C231.917 169.493 230.679 164.498 228.873 160.996C220.278 144.302 189.497 143.121 163.446 142.12C139.222 141.19 121.595 140.515 103.051 150.929C94.7776 155.572 85.1764 160.965 77.8865 171.687Z" fill="#331815" stroke="#3C1F1B" stroke-width="0.7268" stroke-miterlimit="2.6131"/>
<path fill-rule="evenodd" clip-rule="evenodd" d="M74.9899 179.127C77.9134 184.45 87.2948 186.093 105.925 189.241C118.716 191.432 131.631 192.823 144.595 193.405C161.289 194.065 173.65 194.556 189.808 192.215C212.082 188.99 229.097 186.524 234.426 174.962C236.133 171.259 233.777 161.524 229.074 142.244C224.116 121.924 221.918 117.738 219.422 114.186C212.461 104.283 203.391 99.6031 199.701 97.7499C196.556 96.1739 188.832 92.6649 154.712 92.2695C128.714 91.9689 122.475 93.8788 118.935 95.1672C113.784 97.0441 103.527 100.784 95.9254 110.429C89.8002 118.2 91.1383 122.533 85.5952 141.186C77.8507 167.244 71.2331 172.286 74.9899 179.127Z" fill="#6A443F" stroke="#3C1F1B" stroke-width="0.7268" stroke-miterlimit="2.6131"/>
<path fill-rule="evenodd" clip-rule="evenodd" d="M113.041 196.049C101.914 194.828 96.3508 194.215 91.1683 191.452C86.5151 188.97 82.7983 185.604 76.8298 185.939C74.9199 186.046 72.1191 186.568 72.0491 187.411C71.9552 188.568 77.0504 189.846 79.0343 190.351C100.953 195.955 101.248 198.959 118.186 201.746C131.956 204.011 142.551 203.8 151.272 203.583C164.299 203.258 160.542 202.127 191.344 199.17C191.344 199.17 201.655 198.18 217.997 194.573C223.266 193.41 217.418 194.486 232.701 188.508C234.259 187.899 236.608 186.993 236.929 185.199C237.005 184.311 236.772 183.424 236.27 182.687C235.768 181.951 235.027 181.41 234.173 181.155C231.76 180.676 230.127 184.326 226.451 187.588C222.293 191.278 217.977 192.295 210.643 194.021C205.003 195.349 203.902 194.821 192.632 195.858C179.274 197.089 179.886 197.919 171.86 198.247C167.792 198.414 167.959 198.186 151.272 197.511C144.959 197.256 139.409 197.062 131.053 196.775C115.697 196.253 115.573 196.326 113.041 196.049Z" fill="#55322D"/>
<path fill-rule="evenodd" clip-rule="evenodd" d="M98.1531 203.034C88.6592 201.114 83.9116 200.154 81.6102 198.99C77.5927 196.959 74.6217 194.473 69.4795 194.392C67.0772 194.356 63.5346 194.834 63.2307 196.229C63.1165 196.748 63.311 198.015 68.1917 200.642C81.3323 207.711 100.542 209.832 100.542 209.832C125.332 212.572 121.16 214.836 136.937 215.529C142.778 215.787 140.945 215.369 171.492 213.876C191.451 212.9 193.725 213.007 200.166 211.856C206.405 210.742 213.453 208.477 227.555 203.951C245.228 198.277 248.514 196.35 248.51 194.209C248.507 192.088 245.282 189.843 242.445 189.796C238.989 189.742 236.578 192.964 234.724 194.941C229.508 200.511 223.206 202.104 210.828 205.235C203.257 207.149 204.384 205.506 184.543 207.44C170.76 208.785 169.956 209.601 162.302 209.645C156.347 209.678 156.411 209.187 140.982 207.992C126.395 206.862 126.205 207.293 118.189 206.34C109.424 205.298 102.75 203.964 98.1531 203.034Z" fill="#55322D"/>
<path fill-rule="evenodd" clip-rule="evenodd" d="M137.121 219.761C120.785 218.406 113.389 216.984 113.225 217.74C113.044 218.57 121.665 221.829 131.237 223.621C141.614 225.568 148.097 224.856 171.492 222.701C199.286 220.142 202.277 220.025 210.643 218.473C222.613 216.255 230.523 213.89 238.217 210.567C246.698 206.908 257.874 200.803 257.148 198.805C256.71 197.594 252.043 198.273 250.9 198.438C240.716 199.916 237.079 205.593 228.475 210.015C224.337 212.143 217.993 213.211 205.314 215.345C200.139 216.215 199.848 216.084 182.89 218.102C163.62 220.393 161.957 220.805 156.237 220.858C151.008 220.912 146.378 220.527 137.121 219.761Z" fill="#55322D"/>
<path fill-rule="evenodd" clip-rule="evenodd" d="M184.001 113.303C182.917 115.621 194.712 118.916 201.072 131.151C206.184 140.986 206.495 154.117 201.849 164.521C196.71 176.023 188.029 178.562 189.431 182.369C191.485 187.943 212.752 189.742 221.249 179.265C225.002 174.638 225.053 169.105 225.13 160.64C225.24 152.056 223.381 143.561 219.697 135.807C217.666 131.656 214.625 125.437 208.055 120.288C198.198 112.56 185.104 110.938 184.001 113.303Z" fill="#3C1F1B"/>
<path fill-rule="evenodd" clip-rule="evenodd" d="M120.237 176.719C117.811 176.247 118.082 172.982 113.051 164.933C110.408 160.704 108.752 159.078 109.314 158.322C110.251 157.058 115.192 161.109 123.114 162.347C132.27 163.779 139.025 160.454 139.5 161.771C139.838 162.705 136.328 164.063 130.875 168.382C123.853 173.945 122.719 177.204 120.237 176.719Z" fill="#DCCDB3" stroke="#3C1F1B" stroke-width="0.7268" stroke-miterlimit="2.6131"/>
</g>
<g style="mix-blend-mode:hue">
<rect width="320" height="320" fill="#00BF13"/>
</g>
</g>
<defs>
<clipPath id="clip0_1423_7174">
<rect width="320" height="320" fill="white"/>
</clipPath>
<clipPath id="clip1_1423_7174">
<rect width="210" height="136.62" fill="white" transform="translate(55 92)"/>
</clipPath>
</defs>
</svg>
