<svg width="320" height="320" viewBox="0 0 320 320" fill="none" xmlns="http://www.w3.org/2000/svg">
<rect width="320" height="320" fill="#F2F2EA"/>
<g clip-path="url(#clip0_1423_4301)">
<rect x="108" y="65" width="103" height="189" rx="22" fill="#DCCDB3"/>
<path fill-rule="evenodd" clip-rule="evenodd" d="M125.669 65H193.174C195.461 65.0006 197.726 65.4522 199.838 66.3288C201.95 67.2054 203.868 68.4897 205.482 70.1081V70.1206C207.102 71.7301 208.387 73.6431 209.265 75.7498C210.143 77.8564 210.596 80.1154 210.597 82.3971V236.603C210.596 238.885 210.143 241.144 209.265 243.25C208.388 245.357 207.102 247.27 205.482 248.88V248.892C203.868 250.51 201.95 251.795 199.838 252.671C197.726 253.548 195.461 253.999 193.174 254H125.669C123.382 253.999 121.117 253.548 119.005 252.671C116.893 251.795 114.975 250.51 113.361 248.892V248.88C111.741 247.27 110.456 245.357 109.578 243.25C108.7 241.144 108.248 238.885 108.246 236.603V82.397C108.248 80.1153 108.7 77.8564 109.578 75.7497C110.456 73.6431 111.742 71.7301 113.361 70.1206V70.108C114.975 68.4896 116.893 67.2053 119.005 66.3287C121.117 65.4522 123.382 65.0006 125.669 65ZM193.174 71.537H125.669C124.242 71.5381 122.828 71.8207 121.511 72.3685C120.193 72.9162 118.996 73.7184 117.989 74.729L117.983 74.723C116.972 75.7299 116.17 76.9259 115.623 78.2428C115.075 79.5596 114.793 80.9713 114.793 82.3971V236.603C114.793 238.029 115.075 239.44 115.623 240.757C116.17 242.074 116.972 243.27 117.983 244.277L117.989 244.271C118.996 245.281 120.193 246.084 121.511 246.631C122.828 247.179 124.242 247.462 125.669 247.463H193.174C194.602 247.462 196.015 247.179 197.333 246.631C198.651 246.084 199.847 245.281 200.854 244.271L200.86 244.277C201.871 243.27 202.673 242.074 203.221 240.757C203.768 239.44 204.05 238.029 204.05 236.603V82.397C204.05 80.9713 203.768 79.5596 203.221 78.2428C202.673 76.926 201.871 75.7299 200.86 74.723L200.854 74.729C199.847 73.7184 198.651 72.9162 197.333 72.3684C196.015 71.8207 194.602 71.5381 193.174 71.537Z" fill="#3C1F1B"/>
<path fill-rule="evenodd" clip-rule="evenodd" d="M96.6816 168.116V128.054C96.6816 122.447 101.883 119.076 107.121 119.076H211.879C217.117 119.076 222.318 122.447 222.318 128.054V168.116C222.318 175.639 209.533 178.199 209.533 167.818V143.416C209.344 138.02 207.294 135.927 202.055 135.927H116.945C111.706 135.927 109.655 138.02 109.467 143.416V167.818C109.467 178.199 96.6816 175.639 96.6816 168.116Z" fill="#E5E4E1" stroke="#3C1F1B" stroke-width="0.5" stroke-miterlimit="2.6131"/>
<path fill-rule="evenodd" clip-rule="evenodd" d="M159.939 171.987C161.608 171.986 163.239 171.492 164.627 170.566C166.014 169.64 167.096 168.324 167.734 166.785C168.373 165.245 168.54 163.551 168.214 161.917C167.889 160.282 167.085 158.781 165.905 157.603C164.724 156.425 163.221 155.622 161.584 155.297C159.947 154.972 158.25 155.139 156.708 155.777C155.166 156.415 153.849 157.495 152.921 158.88C151.994 160.266 151.499 161.895 151.5 163.561C151.504 165.795 152.394 167.935 153.976 169.515C155.558 171.094 157.702 171.983 159.939 171.987Z" fill="#3C1F1B"/>
<path fill-rule="evenodd" clip-rule="evenodd" d="M159.939 230.453C161.608 230.453 163.239 229.959 164.627 229.033C166.015 228.107 167.096 226.791 167.735 225.251C168.373 223.712 168.54 222.017 168.215 220.383C167.889 218.749 167.085 217.247 165.905 216.069C164.725 214.891 163.221 214.088 161.584 213.763C159.947 213.438 158.25 213.605 156.709 214.243C155.167 214.881 153.849 215.961 152.922 217.346C151.994 218.732 151.499 220.361 151.5 222.028C151.504 224.261 152.394 226.401 153.976 227.981C155.558 229.56 157.702 230.449 159.939 230.453Z" fill="#3C1F1B"/>
<path fill-rule="evenodd" clip-rule="evenodd" d="M159.939 103.99C161.608 103.99 163.239 103.495 164.627 102.569C166.015 101.643 167.096 100.328 167.735 98.7879C168.373 97.2483 168.54 95.5541 168.215 93.9197C167.889 92.2853 167.085 90.7841 165.905 89.6058C164.725 88.4275 163.221 87.6252 161.584 87.3002C159.947 86.9752 158.25 87.1421 156.708 87.7799C155.166 88.4178 153.849 89.4978 152.921 90.8834C151.994 92.2691 151.499 93.8981 151.5 95.5646C151.504 97.7979 152.394 99.9385 153.976 101.518C155.558 103.097 157.702 103.986 159.939 103.99Z" fill="#3C1F1B"/>
<path fill-rule="evenodd" clip-rule="evenodd" d="M159.938 125.519C161.44 125.523 162.879 126.121 163.941 127.181C165.003 128.241 165.601 129.678 165.606 131.178V158.114C165.601 159.613 165.003 161.05 163.941 162.111C162.879 163.171 161.44 163.769 159.938 163.773C158.436 163.769 156.996 163.171 155.934 162.111C154.872 161.05 154.274 159.613 154.27 158.114V131.178C154.274 129.678 154.872 128.241 155.934 127.181C156.996 126.121 158.436 125.523 159.938 125.519Z" fill="#E5E4E1" stroke="#3C1F1B" stroke-width="0.5" stroke-miterlimit="2.6131"/>
</g>
<defs>
<clipPath id="clip0_1423_4301">
<rect width="127" height="189" fill="white" transform="translate(96 65)"/>
</clipPath>
</defs>
</svg>
