<svg width="320" height="320" viewBox="0 0 320 320" fill="none" xmlns="http://www.w3.org/2000/svg">
<rect width="320" height="320" fill="#F2F2EA"/>
<g clip-path="url(#clip0_1423_4330)">
<path d="M202.816 65.587H117.44V253.413H202.816V65.587Z" fill="#8B735A" stroke="#3C1F1B" stroke-width="2.0001" stroke-miterlimit="2.6131"/>
<path fill-rule="evenodd" clip-rule="evenodd" d="M193.746 76.4775C194.024 76.4775 194.297 76.3948 194.529 76.2399C194.76 76.0849 194.941 75.8648 195.048 75.6072C195.154 75.3496 195.182 75.0662 195.128 74.7928C195.073 74.5195 194.939 74.2683 194.742 74.0713C194.545 73.8742 194.294 73.74 194.02 73.6857C193.747 73.6313 193.463 73.6593 193.206 73.766C192.948 73.8727 192.728 74.0534 192.573 74.2853C192.418 74.5171 192.336 74.7896 192.336 75.0684C192.337 75.442 192.485 75.8 192.75 76.0642C193.014 76.3283 193.372 76.4769 193.746 76.4775Z" fill="#3C1F1B"/>
<path fill-rule="evenodd" clip-rule="evenodd" d="M193.746 86.1155C194.024 86.1155 194.297 86.0328 194.529 85.8779C194.76 85.7229 194.941 85.5028 195.048 85.2452C195.154 84.9876 195.182 84.7042 195.128 84.4308C195.073 84.1575 194.939 83.9063 194.742 83.7093C194.545 83.5122 194.294 83.378 194.02 83.3237C193.747 83.2693 193.463 83.2973 193.206 83.404C192.948 83.5108 192.728 83.6914 192.573 83.9233C192.418 84.1551 192.336 84.4276 192.336 84.7064C192.337 85.08 192.485 85.4381 192.75 85.7022C193.014 85.9663 193.372 86.115 193.746 86.1155Z" fill="#3C1F1B"/>
<path fill-rule="evenodd" clip-rule="evenodd" d="M193.746 95.7537C194.024 95.7536 194.297 95.6709 194.529 95.516C194.76 95.3611 194.941 95.1409 195.048 94.8834C195.154 94.6258 195.182 94.3424 195.128 94.069C195.073 93.7956 194.939 93.5445 194.742 93.3474C194.545 93.1503 194.294 93.0161 194.02 92.9618C193.747 92.9075 193.463 92.9354 193.206 93.0421C192.948 93.1488 192.728 93.3295 192.573 93.5613C192.419 93.7931 192.336 94.0656 192.336 94.3443C192.337 94.718 192.485 95.0761 192.75 95.3402C193.014 95.6044 193.372 95.753 193.746 95.7537Z" fill="#3C1F1B"/>
<path fill-rule="evenodd" clip-rule="evenodd" d="M193.746 105.392C194.024 105.392 194.297 105.309 194.529 105.154C194.76 104.999 194.941 104.779 195.048 104.521C195.154 104.264 195.182 103.98 195.128 103.707C195.073 103.434 194.939 103.183 194.742 102.985C194.545 102.788 194.294 102.654 194.02 102.6C193.747 102.545 193.463 102.573 193.206 102.68C192.948 102.787 192.728 102.967 192.573 103.199C192.419 103.431 192.336 103.704 192.336 103.982C192.337 104.356 192.485 104.714 192.75 104.978C193.014 105.242 193.372 105.391 193.746 105.392Z" fill="#3C1F1B"/>
<path fill-rule="evenodd" clip-rule="evenodd" d="M193.746 115.03C194.024 115.03 194.297 114.947 194.529 114.792C194.76 114.637 194.941 114.417 195.048 114.159C195.154 113.902 195.182 113.618 195.128 113.345C195.073 113.072 194.939 112.82 194.742 112.623C194.545 112.426 194.294 112.292 194.02 112.238C193.747 112.183 193.463 112.211 193.206 112.318C192.948 112.425 192.728 112.606 192.573 112.837C192.418 113.069 192.336 113.342 192.336 113.62C192.337 113.994 192.485 114.352 192.75 114.616C193.014 114.88 193.372 115.029 193.746 115.03Z" fill="#3C1F1B"/>
<path fill-rule="evenodd" clip-rule="evenodd" d="M193.746 124.668C194.024 124.668 194.297 124.585 194.529 124.43C194.76 124.275 194.941 124.055 195.048 123.797C195.154 123.54 195.182 123.256 195.128 122.983C195.073 122.71 194.939 122.458 194.742 122.261C194.545 122.064 194.294 121.93 194.02 121.876C193.747 121.821 193.463 121.849 193.206 121.956C192.948 122.063 192.728 122.244 192.573 122.475C192.418 122.707 192.336 122.98 192.336 123.258C192.337 123.632 192.485 123.99 192.75 124.254C193.014 124.518 193.372 124.667 193.746 124.668Z" fill="#3C1F1B"/>
<path fill-rule="evenodd" clip-rule="evenodd" d="M193.746 134.306C194.024 134.306 194.297 134.223 194.529 134.068C194.76 133.913 194.941 133.693 195.048 133.435C195.154 133.178 195.182 132.895 195.128 132.621C195.073 132.348 194.939 132.097 194.742 131.9C194.545 131.702 194.294 131.568 194.02 131.514C193.747 131.46 193.463 131.488 193.206 131.594C192.948 131.701 192.728 131.882 192.573 132.113C192.419 132.345 192.336 132.618 192.336 132.896C192.337 133.27 192.485 133.628 192.75 133.892C193.014 134.157 193.372 134.305 193.746 134.306Z" fill="#3C1F1B"/>
<path fill-rule="evenodd" clip-rule="evenodd" d="M193.746 143.944C194.024 143.944 194.297 143.861 194.529 143.706C194.76 143.551 194.941 143.331 195.048 143.073C195.154 142.816 195.182 142.533 195.128 142.259C195.073 141.986 194.939 141.735 194.742 141.538C194.545 141.34 194.294 141.206 194.02 141.152C193.747 141.098 193.463 141.126 193.206 141.232C192.948 141.339 192.728 141.52 192.573 141.751C192.419 141.983 192.336 142.256 192.336 142.534C192.337 142.908 192.485 143.266 192.75 143.53C193.014 143.795 193.372 143.943 193.746 143.944Z" fill="#3C1F1B"/>
<path fill-rule="evenodd" clip-rule="evenodd" d="M193.746 153.582C194.024 153.582 194.297 153.499 194.529 153.344C194.76 153.189 194.941 152.969 195.048 152.712C195.154 152.454 195.182 152.171 195.128 151.897C195.073 151.624 194.939 151.373 194.742 151.176C194.545 150.978 194.294 150.844 194.02 150.79C193.747 150.736 193.463 150.764 193.206 150.87C192.948 150.977 192.728 151.158 192.573 151.39C192.418 151.621 192.336 151.894 192.336 152.173C192.337 152.546 192.485 152.904 192.75 153.168C193.014 153.433 193.372 153.581 193.746 153.582Z" fill="#3C1F1B"/>
<path fill-rule="evenodd" clip-rule="evenodd" d="M193.746 163.22C194.024 163.22 194.297 163.137 194.529 162.982C194.76 162.827 194.941 162.607 195.048 162.35C195.154 162.092 195.182 161.809 195.128 161.535C195.073 161.262 194.939 161.011 194.742 160.814C194.545 160.617 194.294 160.482 194.02 160.428C193.747 160.374 193.464 160.401 193.206 160.508C192.949 160.615 192.728 160.795 192.574 161.027C192.419 161.259 192.336 161.531 192.336 161.81C192.337 162.184 192.485 162.542 192.75 162.806C193.014 163.07 193.372 163.219 193.746 163.22Z" fill="#3C1F1B"/>
<path fill-rule="evenodd" clip-rule="evenodd" d="M193.746 172.858C194.024 172.858 194.297 172.775 194.529 172.62C194.76 172.465 194.941 172.245 195.048 171.988C195.154 171.73 195.182 171.447 195.128 171.173C195.073 170.9 194.939 170.649 194.742 170.452C194.545 170.255 194.294 170.121 194.02 170.066C193.747 170.012 193.464 170.04 193.206 170.146C192.949 170.253 192.728 170.434 192.574 170.665C192.419 170.897 192.336 171.17 192.336 171.448C192.337 171.822 192.485 172.18 192.75 172.444C193.014 172.709 193.372 172.857 193.746 172.858Z" fill="#3C1F1B"/>
<path fill-rule="evenodd" clip-rule="evenodd" d="M193.746 182.496C194.024 182.496 194.297 182.413 194.529 182.258C194.76 182.103 194.941 181.883 195.048 181.626C195.154 181.368 195.182 181.085 195.128 180.811C195.073 180.538 194.939 180.287 194.742 180.09C194.545 179.893 194.294 179.758 194.02 179.704C193.747 179.65 193.464 179.678 193.206 179.784C192.949 179.891 192.728 180.071 192.574 180.303C192.419 180.535 192.336 180.807 192.336 181.086C192.337 181.46 192.485 181.818 192.75 182.082C193.014 182.346 193.372 182.495 193.746 182.496Z" fill="#3C1F1B"/>
<path fill-rule="evenodd" clip-rule="evenodd" d="M193.746 192.134C194.024 192.134 194.297 192.051 194.529 191.896C194.76 191.741 194.941 191.521 195.048 191.264C195.154 191.006 195.182 190.723 195.128 190.449C195.073 190.176 194.939 189.925 194.742 189.728C194.545 189.531 194.294 189.397 194.02 189.342C193.747 189.288 193.464 189.316 193.206 189.422C192.949 189.529 192.728 189.71 192.574 189.941C192.419 190.173 192.336 190.446 192.336 190.724C192.337 191.098 192.485 191.456 192.75 191.72C193.014 191.985 193.372 192.133 193.746 192.134Z" fill="#3C1F1B"/>
<path fill-rule="evenodd" clip-rule="evenodd" d="M193.746 201.772C194.024 201.772 194.297 201.689 194.529 201.534C194.76 201.379 194.941 201.159 195.048 200.902C195.154 200.644 195.182 200.361 195.128 200.087C195.073 199.814 194.939 199.563 194.742 199.366C194.545 199.169 194.294 199.034 194.02 198.98C193.747 198.926 193.464 198.954 193.206 199.06C192.949 199.167 192.728 199.348 192.574 199.579C192.419 199.811 192.336 200.084 192.336 200.362C192.337 200.736 192.485 201.094 192.75 201.358C193.014 201.623 193.372 201.771 193.746 201.772Z" fill="#3C1F1B"/>
<path fill-rule="evenodd" clip-rule="evenodd" d="M193.746 211.41C194.024 211.41 194.297 211.327 194.529 211.172C194.76 211.018 194.941 210.797 195.048 210.54C195.154 210.282 195.182 209.999 195.128 209.726C195.073 209.452 194.939 209.201 194.742 209.004C194.545 208.807 194.294 208.673 194.02 208.618C193.747 208.564 193.464 208.592 193.206 208.698C192.949 208.805 192.728 208.986 192.574 209.217C192.419 209.449 192.336 209.722 192.336 210C192.337 210.374 192.485 210.732 192.75 210.996C193.014 211.261 193.372 211.409 193.746 211.41Z" fill="#3C1F1B"/>
<path fill-rule="evenodd" clip-rule="evenodd" d="M193.746 221.048C194.024 221.048 194.297 220.965 194.529 220.81C194.76 220.655 194.941 220.435 195.048 220.178C195.154 219.92 195.182 219.637 195.128 219.364C195.073 219.09 194.939 218.839 194.742 218.642C194.545 218.445 194.294 218.311 194.02 218.256C193.747 218.202 193.464 218.23 193.206 218.336C192.949 218.443 192.728 218.624 192.574 218.855C192.419 219.087 192.336 219.36 192.336 219.638C192.337 220.012 192.485 220.37 192.75 220.634C193.014 220.899 193.372 221.047 193.746 221.048Z" fill="#3C1F1B"/>
<path fill-rule="evenodd" clip-rule="evenodd" d="M193.746 230.686C194.024 230.686 194.297 230.603 194.529 230.448C194.76 230.294 194.941 230.073 195.048 229.816C195.154 229.558 195.182 229.275 195.128 229.002C195.073 228.728 194.939 228.477 194.742 228.28C194.545 228.083 194.294 227.949 194.02 227.894C193.747 227.84 193.464 227.868 193.206 227.974C192.949 228.081 192.728 228.262 192.574 228.494C192.419 228.725 192.336 228.998 192.336 229.277C192.337 229.65 192.485 230.008 192.75 230.272C193.014 230.537 193.372 230.685 193.746 230.686Z" fill="#3C1F1B"/>
<path fill-rule="evenodd" clip-rule="evenodd" d="M193.746 240.324C194.024 240.324 194.297 240.241 194.529 240.086C194.76 239.931 194.941 239.711 195.048 239.454C195.154 239.196 195.182 238.913 195.128 238.639C195.073 238.366 194.939 238.115 194.742 237.918C194.545 237.721 194.294 237.587 194.02 237.532C193.747 237.478 193.464 237.506 193.206 237.612C192.949 237.719 192.728 237.9 192.574 238.131C192.419 238.363 192.336 238.636 192.336 238.914C192.337 239.288 192.485 239.646 192.75 239.91C193.014 240.175 193.372 240.323 193.746 240.324Z" fill="#3C1F1B"/>
<path fill-rule="evenodd" clip-rule="evenodd" d="M193.746 249.962C194.024 249.962 194.297 249.879 194.529 249.725C194.76 249.57 194.941 249.35 195.048 249.092C195.154 248.834 195.182 248.551 195.128 248.278C195.073 248.004 194.939 247.753 194.742 247.556C194.545 247.359 194.294 247.225 194.02 247.17C193.747 247.116 193.464 247.144 193.206 247.251C192.949 247.357 192.728 247.538 192.574 247.77C192.419 248.001 192.336 248.274 192.336 248.552C192.337 248.926 192.485 249.284 192.75 249.549C193.014 249.813 193.372 249.962 193.746 249.962Z" fill="#3C1F1B"/>
<path fill-rule="evenodd" clip-rule="evenodd" d="M126.652 76.4775C126.931 76.4775 127.204 76.3948 127.435 76.2399C127.667 76.085 127.848 75.8649 127.954 75.6073C128.061 75.3497 128.089 75.0663 128.034 74.7929C127.98 74.5195 127.846 74.2684 127.649 74.0713C127.451 73.8742 127.2 73.74 126.927 73.6857C126.653 73.6313 126.37 73.6593 126.113 73.766C125.855 73.8727 125.635 74.0534 125.48 74.2852C125.325 74.5171 125.243 74.7896 125.243 75.0684C125.243 75.4419 125.392 75.8 125.656 76.0641C125.921 76.3283 126.279 76.4769 126.652 76.4775Z" fill="#3C1F1B"/>
<path fill-rule="evenodd" clip-rule="evenodd" d="M126.652 86.1155C126.931 86.1155 127.204 86.0328 127.435 85.8779C127.667 85.723 127.848 85.5029 127.954 85.2453C128.061 84.9877 128.089 84.7043 128.034 84.4309C127.98 84.1575 127.846 83.9064 127.649 83.7093C127.451 83.5122 127.2 83.378 126.927 83.3237C126.653 83.2693 126.37 83.2973 126.113 83.404C125.855 83.5107 125.635 83.6914 125.48 83.9232C125.325 84.1551 125.243 84.4276 125.243 84.7064C125.243 85.0799 125.392 85.438 125.656 85.7022C125.921 85.9663 126.279 86.1149 126.652 86.1155Z" fill="#3C1F1B"/>
<path fill-rule="evenodd" clip-rule="evenodd" d="M126.652 95.7537C126.931 95.7536 127.204 95.6709 127.435 95.516C127.667 95.3612 127.848 95.141 127.954 94.8835C128.061 94.6259 128.089 94.3425 128.034 94.0691C127.98 93.7957 127.846 93.5446 127.649 93.3475C127.452 93.1504 127.2 93.0162 126.927 92.9618C126.654 92.9075 126.37 92.9354 126.113 93.0421C125.855 93.1488 125.635 93.3295 125.48 93.5613C125.325 93.7931 125.243 94.0656 125.243 94.3443C125.243 94.7179 125.392 95.076 125.656 95.3402C125.921 95.6044 126.279 95.753 126.652 95.7537Z" fill="#3C1F1B"/>
<path fill-rule="evenodd" clip-rule="evenodd" d="M126.652 105.392C126.931 105.392 127.204 105.309 127.435 105.154C127.667 104.999 127.848 104.779 127.954 104.521C128.061 104.264 128.089 103.981 128.034 103.707C127.98 103.434 127.846 103.183 127.649 102.985C127.452 102.788 127.2 102.654 126.927 102.6C126.654 102.545 126.37 102.573 126.113 102.68C125.855 102.787 125.635 102.967 125.48 103.199C125.325 103.431 125.243 103.704 125.243 103.982C125.243 104.356 125.392 104.714 125.656 104.978C125.921 105.242 126.279 105.391 126.652 105.392Z" fill="#3C1F1B"/>
<path fill-rule="evenodd" clip-rule="evenodd" d="M126.652 115.03C126.931 115.03 127.204 114.947 127.435 114.792C127.667 114.637 127.848 114.417 127.954 114.159C128.061 113.902 128.089 113.618 128.034 113.345C127.98 113.072 127.846 112.821 127.649 112.623C127.451 112.426 127.2 112.292 126.927 112.238C126.653 112.183 126.37 112.211 126.113 112.318C125.855 112.425 125.635 112.606 125.48 112.837C125.325 113.069 125.243 113.342 125.243 113.62C125.243 113.994 125.392 114.352 125.656 114.616C125.921 114.88 126.279 115.029 126.652 115.03Z" fill="#3C1F1B"/>
<path fill-rule="evenodd" clip-rule="evenodd" d="M126.652 124.668C126.931 124.668 127.204 124.585 127.435 124.43C127.667 124.275 127.848 124.055 127.954 123.797C128.061 123.54 128.089 123.256 128.034 122.983C127.98 122.71 127.846 122.459 127.649 122.261C127.451 122.064 127.2 121.93 126.927 121.876C126.653 121.821 126.37 121.849 126.113 121.956C125.855 122.063 125.635 122.244 125.48 122.475C125.325 122.707 125.243 122.98 125.243 123.258C125.243 123.632 125.392 123.99 125.656 124.254C125.921 124.518 126.279 124.667 126.652 124.668Z" fill="#3C1F1B"/>
<path fill-rule="evenodd" clip-rule="evenodd" d="M126.652 134.306C126.931 134.306 127.204 134.223 127.435 134.068C127.667 133.913 127.848 133.693 127.954 133.436C128.061 133.178 128.089 132.895 128.034 132.621C127.98 132.348 127.846 132.097 127.649 131.9C127.452 131.703 127.2 131.568 126.927 131.514C126.654 131.46 126.37 131.488 126.113 131.594C125.855 131.701 125.635 131.882 125.48 132.113C125.325 132.345 125.243 132.618 125.243 132.896C125.243 133.27 125.392 133.628 125.656 133.892C125.921 134.156 126.279 134.305 126.652 134.306Z" fill="#3C1F1B"/>
<path fill-rule="evenodd" clip-rule="evenodd" d="M126.652 143.944C126.931 143.944 127.204 143.861 127.435 143.706C127.667 143.551 127.848 143.331 127.954 143.074C128.061 142.816 128.089 142.533 128.034 142.259C127.98 141.986 127.846 141.735 127.649 141.538C127.452 141.341 127.2 141.206 126.927 141.152C126.654 141.098 126.37 141.126 126.113 141.232C125.855 141.339 125.635 141.52 125.48 141.751C125.325 141.983 125.243 142.256 125.243 142.534C125.243 142.908 125.392 143.266 125.656 143.53C125.921 143.794 126.279 143.943 126.652 143.944Z" fill="#3C1F1B"/>
<path fill-rule="evenodd" clip-rule="evenodd" d="M126.652 153.582C126.931 153.582 127.204 153.499 127.435 153.344C127.667 153.189 127.848 152.969 127.954 152.712C128.061 152.454 128.089 152.171 128.034 151.897C127.98 151.624 127.846 151.373 127.649 151.176C127.451 150.979 127.2 150.844 126.927 150.79C126.653 150.736 126.37 150.764 126.113 150.87C125.855 150.977 125.635 151.158 125.48 151.39C125.325 151.621 125.243 151.894 125.243 152.173C125.243 152.546 125.392 152.904 125.656 153.168C125.921 153.433 126.279 153.581 126.652 153.582Z" fill="#3C1F1B"/>
<path fill-rule="evenodd" clip-rule="evenodd" d="M126.652 163.22C126.931 163.22 127.204 163.137 127.435 162.982C127.667 162.827 127.848 162.607 127.954 162.35C128.061 162.092 128.089 161.809 128.034 161.535C127.98 161.262 127.846 161.011 127.649 160.814C127.452 160.617 127.201 160.482 126.927 160.428C126.654 160.374 126.37 160.401 126.113 160.508C125.855 160.615 125.635 160.795 125.48 161.027C125.325 161.259 125.243 161.531 125.243 161.81C125.243 162.184 125.392 162.542 125.656 162.806C125.921 163.07 126.279 163.219 126.652 163.22Z" fill="#3C1F1B"/>
<path fill-rule="evenodd" clip-rule="evenodd" d="M126.652 172.858C126.931 172.858 127.203 172.775 127.435 172.62C127.667 172.466 127.848 172.245 127.954 171.988C128.061 171.73 128.089 171.447 128.034 171.174C127.98 170.9 127.846 170.649 127.649 170.452C127.452 170.255 127.201 170.121 126.927 170.066C126.654 170.012 126.37 170.04 126.113 170.146C125.855 170.253 125.635 170.434 125.48 170.665C125.325 170.897 125.243 171.17 125.243 171.448C125.243 171.822 125.392 172.18 125.656 172.444C125.92 172.708 126.279 172.857 126.652 172.858Z" fill="#3C1F1B"/>
<path fill-rule="evenodd" clip-rule="evenodd" d="M126.652 182.496C126.931 182.496 127.203 182.413 127.435 182.258C127.667 182.103 127.848 181.883 127.954 181.626C128.061 181.368 128.089 181.085 128.034 180.812C127.98 180.538 127.846 180.287 127.649 180.09C127.452 179.893 127.201 179.759 126.927 179.704C126.654 179.65 126.37 179.678 126.113 179.784C125.855 179.891 125.635 180.071 125.48 180.303C125.325 180.535 125.243 180.807 125.243 181.086C125.243 181.46 125.392 181.818 125.656 182.082C125.92 182.346 126.279 182.495 126.652 182.496Z" fill="#3C1F1B"/>
<path fill-rule="evenodd" clip-rule="evenodd" d="M126.652 192.134C126.931 192.134 127.204 192.051 127.435 191.896C127.667 191.741 127.848 191.521 127.954 191.264C128.061 191.006 128.089 190.723 128.034 190.45C127.98 190.176 127.846 189.925 127.649 189.728C127.452 189.531 127.201 189.397 126.927 189.342C126.654 189.288 126.37 189.316 126.113 189.422C125.855 189.529 125.635 189.71 125.48 189.941C125.325 190.173 125.243 190.446 125.243 190.724C125.243 191.098 125.392 191.456 125.656 191.72C125.921 191.985 126.279 192.133 126.652 192.134Z" fill="#3C1F1B"/>
<path fill-rule="evenodd" clip-rule="evenodd" d="M126.652 201.772C126.931 201.772 127.204 201.689 127.435 201.534C127.667 201.379 127.848 201.159 127.954 200.902C128.061 200.644 128.089 200.361 128.034 200.087C127.98 199.814 127.846 199.563 127.649 199.366C127.452 199.169 127.201 199.034 126.927 198.98C126.654 198.926 126.37 198.954 126.113 199.06C125.855 199.167 125.635 199.348 125.48 199.579C125.325 199.811 125.243 200.084 125.243 200.362C125.243 200.736 125.392 201.094 125.656 201.358C125.921 201.622 126.279 201.771 126.652 201.772Z" fill="#3C1F1B"/>
<path fill-rule="evenodd" clip-rule="evenodd" d="M126.652 211.41C126.931 211.41 127.203 211.327 127.435 211.173C127.667 211.018 127.848 210.798 127.954 210.54C128.061 210.282 128.089 209.999 128.034 209.726C127.98 209.452 127.846 209.201 127.649 209.004C127.452 208.807 127.201 208.673 126.927 208.618C126.654 208.564 126.37 208.592 126.113 208.698C125.855 208.805 125.635 208.986 125.48 209.217C125.325 209.449 125.243 209.722 125.243 210C125.243 210.374 125.392 210.732 125.656 210.996C125.92 211.261 126.279 211.409 126.652 211.41Z" fill="#3C1F1B"/>
<path fill-rule="evenodd" clip-rule="evenodd" d="M126.652 221.048C126.931 221.048 127.203 220.965 127.435 220.81C127.667 220.656 127.848 220.435 127.954 220.178C128.061 219.92 128.089 219.637 128.034 219.364C127.98 219.09 127.846 218.839 127.649 218.642C127.452 218.445 127.201 218.311 126.927 218.256C126.654 218.202 126.37 218.23 126.113 218.336C125.855 218.443 125.635 218.624 125.48 218.855C125.325 219.087 125.243 219.36 125.243 219.638C125.243 220.012 125.392 220.37 125.656 220.634C125.92 220.899 126.279 221.047 126.652 221.048Z" fill="#3C1F1B"/>
<path fill-rule="evenodd" clip-rule="evenodd" d="M126.652 230.686C126.931 230.686 127.204 230.603 127.435 230.448C127.667 230.294 127.848 230.073 127.954 229.816C128.061 229.558 128.089 229.275 128.034 229.002C127.98 228.728 127.846 228.477 127.649 228.28C127.452 228.083 127.201 227.949 126.927 227.894C126.654 227.84 126.37 227.868 126.113 227.974C125.855 228.081 125.635 228.262 125.48 228.494C125.325 228.725 125.243 228.998 125.243 229.276C125.243 229.65 125.392 230.008 125.656 230.272C125.921 230.537 126.279 230.685 126.652 230.686Z" fill="#3C1F1B"/>
<path fill-rule="evenodd" clip-rule="evenodd" d="M126.652 240.324C126.931 240.324 127.204 240.241 127.435 240.086C127.667 239.932 127.848 239.711 127.954 239.454C128.061 239.196 128.089 238.913 128.034 238.64C127.98 238.366 127.846 238.115 127.649 237.918C127.452 237.721 127.201 237.587 126.927 237.532C126.654 237.478 126.37 237.506 126.113 237.612C125.855 237.719 125.635 237.9 125.48 238.131C125.325 238.363 125.243 238.636 125.243 238.914C125.243 239.288 125.392 239.646 125.656 239.91C125.921 240.175 126.279 240.323 126.652 240.324Z" fill="#3C1F1B"/>
<path fill-rule="evenodd" clip-rule="evenodd" d="M126.652 249.962C126.931 249.962 127.203 249.88 127.435 249.725C127.667 249.57 127.848 249.35 127.954 249.092C128.061 248.835 128.089 248.551 128.034 248.278C127.98 248.004 127.846 247.753 127.649 247.556C127.452 247.359 127.201 247.225 126.927 247.17C126.654 247.116 126.37 247.144 126.113 247.251C125.855 247.357 125.635 247.538 125.48 247.77C125.325 248.001 125.243 248.274 125.243 248.552C125.243 248.926 125.392 249.284 125.656 249.549C125.92 249.813 126.279 249.962 126.652 249.962Z" fill="#3C1F1B"/>
<path d="M112.746 137.228H207.509C208.612 137.228 209.67 137.666 210.45 138.446C211.23 139.226 211.668 140.284 211.668 141.387V177.613C211.668 178.716 211.23 179.774 210.45 180.554C209.67 181.334 208.612 181.772 207.509 181.772H112.746C112.2 181.772 111.659 181.664 111.154 181.455C110.65 181.246 110.191 180.94 109.805 180.554C109.419 180.168 109.113 179.709 108.904 179.204C108.694 178.7 108.587 178.159 108.587 177.613V141.387C108.587 140.841 108.694 140.3 108.904 139.796C109.113 139.291 109.419 138.833 109.805 138.446C110.191 138.06 110.65 137.754 111.155 137.545C111.659 137.336 112.2 137.228 112.746 137.228Z" fill="#DCCDB3" stroke="#3C1F1B" stroke-width="2.0001" stroke-miterlimit="2.6131"/>
<path fill-rule="evenodd" clip-rule="evenodd" d="M206.52 144.008C206.52 144.268 206.442 144.523 206.297 144.74C206.153 144.957 205.947 145.126 205.706 145.226C205.465 145.325 205.2 145.352 204.944 145.301C204.689 145.25 204.454 145.124 204.269 144.94C204.085 144.756 203.959 144.521 203.909 144.265C203.858 144.009 203.884 143.744 203.984 143.503C204.083 143.263 204.252 143.057 204.469 142.912C204.686 142.767 204.941 142.69 205.202 142.69C205.375 142.69 205.546 142.724 205.706 142.79C205.866 142.856 206.011 142.953 206.134 143.076C206.256 143.198 206.353 143.343 206.419 143.503C206.485 143.663 206.52 143.835 206.52 144.008Z" fill="#3C1F1B"/>
<path fill-rule="evenodd" clip-rule="evenodd" d="M197.505 144.008C197.505 144.268 197.428 144.523 197.283 144.74C197.138 144.957 196.932 145.126 196.691 145.226C196.45 145.325 196.185 145.352 195.93 145.301C195.674 145.25 195.439 145.124 195.255 144.94C195.07 144.756 194.945 144.521 194.894 144.265C194.843 144.009 194.869 143.744 194.969 143.503C195.069 143.263 195.238 143.057 195.455 142.912C195.671 142.767 195.926 142.69 196.187 142.69C196.36 142.69 196.531 142.724 196.691 142.79C196.851 142.856 196.997 142.953 197.119 143.076C197.241 143.198 197.338 143.343 197.405 143.503C197.471 143.663 197.505 143.835 197.505 144.008Z" fill="#3C1F1B"/>
<path fill-rule="evenodd" clip-rule="evenodd" d="M188.49 144.008C188.49 144.268 188.413 144.523 188.268 144.74C188.123 144.957 187.917 145.126 187.676 145.226C187.435 145.326 187.17 145.352 186.915 145.301C186.659 145.25 186.424 145.125 186.24 144.94C186.055 144.756 185.93 144.521 185.879 144.265C185.828 144.009 185.854 143.744 185.954 143.504C186.054 143.263 186.223 143.057 186.439 142.912C186.656 142.767 186.911 142.69 187.172 142.69C187.521 142.69 187.857 142.829 188.104 143.076C188.351 143.323 188.49 143.658 188.49 144.008Z" fill="#3C1F1B"/>
<path fill-rule="evenodd" clip-rule="evenodd" d="M179.475 144.008C179.475 144.268 179.398 144.523 179.253 144.74C179.108 144.957 178.903 145.126 178.662 145.226C178.421 145.326 178.156 145.352 177.9 145.301C177.644 145.25 177.409 145.125 177.225 144.94C177.041 144.756 176.915 144.521 176.864 144.265C176.813 144.009 176.839 143.744 176.939 143.504C177.039 143.263 177.208 143.057 177.425 142.912C177.642 142.767 177.896 142.69 178.157 142.69C178.507 142.69 178.842 142.829 179.089 143.076C179.336 143.323 179.475 143.658 179.475 144.008Z" fill="#3C1F1B"/>
<path fill-rule="evenodd" clip-rule="evenodd" d="M170.461 144.008C170.461 144.268 170.383 144.523 170.239 144.74C170.094 144.957 169.888 145.126 169.647 145.226C169.406 145.326 169.141 145.352 168.885 145.301C168.63 145.25 168.395 145.125 168.21 144.94C168.026 144.756 167.9 144.521 167.85 144.265C167.799 144.009 167.825 143.744 167.925 143.504C168.024 143.263 168.193 143.057 168.41 142.912C168.627 142.767 168.882 142.69 169.143 142.69C169.492 142.69 169.827 142.829 170.074 143.076C170.322 143.323 170.461 143.658 170.461 144.008Z" fill="#3C1F1B"/>
<path fill-rule="evenodd" clip-rule="evenodd" d="M161.445 144.008C161.445 144.268 161.368 144.523 161.223 144.74C161.078 144.957 160.873 145.126 160.632 145.226C160.391 145.325 160.126 145.352 159.87 145.301C159.614 145.25 159.38 145.124 159.195 144.94C159.011 144.756 158.885 144.521 158.834 144.265C158.784 144.009 158.81 143.744 158.909 143.503C159.009 143.263 159.178 143.057 159.395 142.912C159.612 142.767 159.867 142.69 160.127 142.69C160.477 142.69 160.812 142.829 161.059 143.076C161.306 143.323 161.445 143.658 161.445 144.008Z" fill="#3C1F1B"/>
<path fill-rule="evenodd" clip-rule="evenodd" d="M152.431 144.008C152.431 144.268 152.353 144.523 152.209 144.74C152.064 144.957 151.858 145.126 151.617 145.226C151.376 145.325 151.111 145.352 150.855 145.301C150.6 145.25 150.365 145.124 150.181 144.94C149.996 144.756 149.871 144.521 149.82 144.265C149.769 144.009 149.795 143.744 149.895 143.503C149.995 143.263 150.164 143.057 150.38 142.912C150.597 142.767 150.852 142.69 151.113 142.69C151.462 142.69 151.797 142.829 152.045 143.076C152.292 143.323 152.431 143.658 152.431 144.008Z" fill="#3C1F1B"/>
<path fill-rule="evenodd" clip-rule="evenodd" d="M143.416 144.008C143.416 144.268 143.339 144.523 143.194 144.74C143.049 144.957 142.843 145.126 142.602 145.226C142.362 145.325 142.097 145.352 141.841 145.301C141.585 145.25 141.35 145.124 141.166 144.94C140.981 144.756 140.856 144.521 140.805 144.265C140.754 144.009 140.78 143.744 140.88 143.503C140.98 143.263 141.149 143.057 141.366 142.912C141.583 142.767 141.837 142.69 142.098 142.69C142.448 142.69 142.783 142.829 143.03 143.076C143.277 143.323 143.416 143.658 143.416 144.008Z" fill="#3C1F1B"/>
<path fill-rule="evenodd" clip-rule="evenodd" d="M134.401 144.008C134.401 144.268 134.324 144.523 134.179 144.74C134.034 144.957 133.828 145.126 133.587 145.226C133.346 145.325 133.081 145.352 132.826 145.301C132.57 145.25 132.335 145.124 132.151 144.94C131.966 144.756 131.841 144.521 131.79 144.265C131.739 144.009 131.765 143.744 131.865 143.503C131.965 143.263 132.134 143.057 132.351 142.912C132.567 142.767 132.822 142.69 133.083 142.69C133.432 142.69 133.768 142.829 134.015 143.076C134.262 143.323 134.401 143.658 134.401 144.008Z" fill="#3C1F1B"/>
<path fill-rule="evenodd" clip-rule="evenodd" d="M125.386 144.008C125.386 144.268 125.309 144.523 125.164 144.74C125.019 144.957 124.813 145.126 124.573 145.226C124.332 145.325 124.067 145.352 123.811 145.301C123.555 145.25 123.32 145.124 123.136 144.94C122.952 144.756 122.826 144.521 122.775 144.265C122.724 144.009 122.751 143.744 122.85 143.503C122.95 143.263 123.119 143.057 123.336 142.912C123.553 142.767 123.808 142.69 124.068 142.69C124.418 142.69 124.753 142.829 125 143.076C125.247 143.323 125.386 143.658 125.386 144.008Z" fill="#3C1F1B"/>
<path fill-rule="evenodd" clip-rule="evenodd" d="M116.372 144.008C116.372 144.268 116.294 144.523 116.15 144.74C116.005 144.957 115.799 145.126 115.558 145.226C115.317 145.325 115.052 145.352 114.796 145.301C114.541 145.25 114.306 145.124 114.121 144.94C113.937 144.756 113.812 144.521 113.761 144.265C113.71 144.009 113.736 143.744 113.836 143.503C113.936 143.263 114.104 143.057 114.321 142.912C114.538 142.767 114.793 142.69 115.054 142.69C115.403 142.69 115.738 142.829 115.986 143.076C116.233 143.323 116.372 143.658 116.372 144.008Z" fill="#3C1F1B"/>
<path fill-rule="evenodd" clip-rule="evenodd" d="M206.52 175.374C206.52 175.635 206.442 175.89 206.297 176.107C206.153 176.323 205.947 176.492 205.706 176.592C205.465 176.692 205.2 176.718 204.944 176.667C204.689 176.616 204.454 176.491 204.269 176.307C204.085 176.122 203.959 175.887 203.909 175.632C203.858 175.376 203.884 175.111 203.984 174.87C204.083 174.629 204.252 174.423 204.469 174.278C204.686 174.134 204.941 174.056 205.202 174.056C205.375 174.056 205.546 174.09 205.706 174.157C205.866 174.223 206.011 174.32 206.134 174.442C206.256 174.565 206.353 174.71 206.419 174.87C206.485 175.03 206.52 175.201 206.52 175.374Z" fill="#3C1F1B"/>
<path fill-rule="evenodd" clip-rule="evenodd" d="M197.505 175.374C197.505 175.635 197.428 175.89 197.283 176.107C197.138 176.323 196.932 176.492 196.691 176.592C196.45 176.692 196.185 176.718 195.93 176.667C195.674 176.616 195.439 176.491 195.255 176.307C195.07 176.122 194.945 175.887 194.894 175.632C194.843 175.376 194.869 175.111 194.969 174.87C195.069 174.629 195.238 174.423 195.455 174.278C195.671 174.134 195.926 174.056 196.187 174.056C196.36 174.056 196.531 174.09 196.691 174.157C196.851 174.223 196.997 174.32 197.119 174.442C197.241 174.565 197.338 174.71 197.405 174.87C197.471 175.03 197.505 175.201 197.505 175.374Z" fill="#3C1F1B"/>
<path fill-rule="evenodd" clip-rule="evenodd" d="M188.49 175.374C188.49 175.635 188.413 175.89 188.268 176.107C188.123 176.324 187.917 176.493 187.676 176.592C187.435 176.692 187.17 176.718 186.915 176.667C186.659 176.617 186.424 176.491 186.24 176.307C186.055 176.122 185.93 175.887 185.879 175.632C185.828 175.376 185.854 175.111 185.954 174.87C186.054 174.629 186.223 174.423 186.439 174.279C186.656 174.134 186.911 174.056 187.172 174.056C187.521 174.056 187.857 174.195 188.104 174.442C188.351 174.69 188.49 175.025 188.49 175.374Z" fill="#3C1F1B"/>
<path fill-rule="evenodd" clip-rule="evenodd" d="M179.475 175.374C179.475 175.635 179.398 175.89 179.253 176.107C179.108 176.324 178.903 176.493 178.662 176.592C178.421 176.692 178.156 176.718 177.9 176.667C177.644 176.617 177.409 176.491 177.225 176.307C177.041 176.122 176.915 175.887 176.864 175.632C176.813 175.376 176.839 175.111 176.939 174.87C177.039 174.629 177.208 174.423 177.425 174.278C177.642 174.134 177.896 174.056 178.157 174.056C178.507 174.056 178.842 174.195 179.089 174.442C179.336 174.69 179.475 175.025 179.475 175.374Z" fill="#3C1F1B"/>
<path fill-rule="evenodd" clip-rule="evenodd" d="M170.461 175.374C170.461 175.635 170.383 175.89 170.239 176.107C170.094 176.324 169.888 176.493 169.647 176.592C169.406 176.692 169.141 176.718 168.885 176.667C168.63 176.617 168.395 176.491 168.21 176.307C168.026 176.122 167.9 175.887 167.85 175.632C167.799 175.376 167.825 175.111 167.925 174.87C168.024 174.629 168.193 174.423 168.41 174.278C168.627 174.134 168.882 174.056 169.143 174.056C169.492 174.056 169.827 174.195 170.074 174.442C170.322 174.69 170.461 175.025 170.461 175.374Z" fill="#3C1F1B"/>
<path fill-rule="evenodd" clip-rule="evenodd" d="M161.445 175.374C161.445 175.635 161.368 175.89 161.223 176.107C161.078 176.323 160.873 176.492 160.632 176.592C160.391 176.692 160.126 176.718 159.87 176.667C159.614 176.616 159.38 176.491 159.195 176.307C159.011 176.122 158.885 175.887 158.834 175.632C158.784 175.376 158.81 175.111 158.909 174.87C159.009 174.629 159.178 174.423 159.395 174.278C159.612 174.134 159.867 174.056 160.127 174.056C160.477 174.056 160.812 174.195 161.059 174.442C161.306 174.69 161.445 175.025 161.445 175.374Z" fill="#3C1F1B"/>
<path fill-rule="evenodd" clip-rule="evenodd" d="M152.431 175.374C152.431 175.635 152.353 175.89 152.209 176.107C152.064 176.323 151.858 176.492 151.617 176.592C151.376 176.692 151.111 176.718 150.855 176.667C150.6 176.616 150.365 176.491 150.181 176.307C149.996 176.122 149.871 175.887 149.82 175.632C149.769 175.376 149.795 175.111 149.895 174.87C149.995 174.629 150.164 174.423 150.38 174.278C150.597 174.134 150.852 174.056 151.113 174.056C151.462 174.056 151.797 174.195 152.045 174.442C152.292 174.69 152.431 175.025 152.431 175.374Z" fill="#3C1F1B"/>
<path fill-rule="evenodd" clip-rule="evenodd" d="M143.416 175.374C143.416 175.635 143.339 175.89 143.194 176.107C143.049 176.323 142.843 176.492 142.602 176.592C142.362 176.692 142.097 176.718 141.841 176.667C141.585 176.616 141.35 176.491 141.166 176.307C140.981 176.122 140.856 175.887 140.805 175.632C140.754 175.376 140.78 175.111 140.88 174.87C140.98 174.629 141.149 174.423 141.366 174.278C141.583 174.134 141.837 174.056 142.098 174.056C142.448 174.056 142.783 174.195 143.03 174.442C143.277 174.69 143.416 175.025 143.416 175.374Z" fill="#3C1F1B"/>
<path fill-rule="evenodd" clip-rule="evenodd" d="M134.401 175.374C134.401 175.635 134.324 175.89 134.179 176.107C134.034 176.323 133.828 176.492 133.587 176.592C133.346 176.692 133.081 176.718 132.826 176.667C132.57 176.616 132.335 176.491 132.151 176.307C131.966 176.122 131.841 175.887 131.79 175.632C131.739 175.376 131.765 175.111 131.865 174.87C131.965 174.629 132.134 174.423 132.351 174.278C132.567 174.134 132.822 174.056 133.083 174.056C133.432 174.056 133.768 174.195 134.015 174.442C134.262 174.69 134.401 175.025 134.401 175.374Z" fill="#3C1F1B"/>
<path fill-rule="evenodd" clip-rule="evenodd" d="M125.386 175.374C125.386 175.635 125.309 175.89 125.164 176.107C125.019 176.323 124.813 176.492 124.573 176.592C124.332 176.692 124.067 176.718 123.811 176.667C123.555 176.616 123.32 176.491 123.136 176.307C122.952 176.122 122.826 175.887 122.775 175.632C122.724 175.376 122.751 175.111 122.85 174.87C122.95 174.629 123.119 174.423 123.336 174.278C123.553 174.134 123.808 174.056 124.068 174.056C124.418 174.056 124.753 174.195 125 174.442C125.247 174.69 125.386 175.025 125.386 175.374Z" fill="#3C1F1B"/>
<path fill-rule="evenodd" clip-rule="evenodd" d="M116.372 175.374C116.372 175.635 116.294 175.89 116.15 176.107C116.005 176.323 115.799 176.492 115.558 176.592C115.317 176.692 115.052 176.718 114.796 176.667C114.541 176.616 114.306 176.491 114.121 176.307C113.937 176.122 113.812 175.887 113.761 175.632C113.71 175.376 113.736 175.111 113.836 174.87C113.936 174.629 114.104 174.423 114.321 174.278C114.538 174.134 114.793 174.056 115.054 174.056C115.403 174.056 115.738 174.195 115.986 174.442C116.233 174.69 116.372 175.025 116.372 175.374Z" fill="#3C1F1B"/>
<path d="M160.127 137.228V181.772" stroke="#3C1F1B" stroke-width="2.0001" stroke-miterlimit="2.6131"/>
<path fill-rule="evenodd" clip-rule="evenodd" d="M145.465 150.406H160.128H174.79L177.945 153.282V159.5V165.718L174.79 168.594H160.128H145.465L142.311 165.718V159.5V153.282L145.465 150.406Z" fill="#E5E4E1"/>
</g>
<defs>
<clipPath id="clip0_1423_4330">
<rect width="104.255" height="189" fill="white" transform="translate(108 65)"/>
</clipPath>
</defs>
</svg>
