<svg width="400" height="546" viewBox="0 0 400 546" fill="none" xmlns="http://www.w3.org/2000/svg">
<g filter="url(#filter0_dddd_3643_866)">
<path d="M13.625 9.21249C13.625 5.78143 16.4064 3 19.8375 3H380.163C383.594 3 386.375 5.78143 386.375 9.2125V493.788C386.375 497.219 383.594 500 380.163 500H19.8375C16.4064 500 13.625 497.219 13.625 493.788V9.21249Z" fill="white"/>
<path d="M19.8379 3.5H380.162C383.317 3.5 385.875 6.05796 385.875 9.21289V493.787C385.875 496.942 383.317 499.5 380.162 499.5H19.8379C16.683 499.5 14.125 496.942 14.125 493.787V9.21289C14.125 6.05796 16.683 3.5 19.8379 3.5Z" stroke="#EAEAEA"/>
</g>
<path fill-rule="evenodd" clip-rule="evenodd" d="M137.657 462.725H75.9699C74.1335 462.725 72.6448 461.249 72.6448 459.428V341.266C72.6448 337.497 73.2656 333.753 74.4827 330.183L82.4002 306.957C85.0703 299.124 90.6167 293.94 97.0938 291.406L99.2693 247.289C99.3126 246.411 100.043 245.721 100.93 245.721H102.653L102.653 3H110.821L110.821 245.721H112.665C113.549 245.721 114.278 246.407 114.325 247.282L116.7 291.472C123.105 294.03 128.58 299.191 131.227 306.957L139.144 330.183C140.361 333.753 140.982 337.497 140.982 341.266L140.982 459.428C140.982 461.249 139.494 462.725 137.657 462.725ZM106.814 313.625C110.245 313.625 113.026 310.844 113.026 307.413C113.026 303.981 110.245 301.2 106.814 301.2C103.382 301.2 100.601 303.981 100.601 307.413C100.601 310.844 103.382 313.625 106.814 313.625Z" fill="#3C1F1B"/>
<path fill-rule="evenodd" clip-rule="evenodd" d="M262.345 40.275L324.032 40.275C325.869 40.275 327.357 41.751 327.357 43.5717V161.734C327.357 165.503 326.736 169.247 325.519 172.817L317.602 196.043C314.932 203.876 309.385 209.06 302.908 211.594L300.733 255.711C300.689 256.589 299.959 257.279 299.072 257.279H297.349V500H289.181L289.181 257.279H287.337C286.453 257.279 285.724 256.593 285.677 255.718L283.302 211.528C276.897 208.97 271.422 203.809 268.775 196.043L260.858 172.817C259.641 169.247 259.02 165.503 259.02 161.734V43.5717C259.02 41.751 260.508 40.275 262.345 40.275ZM293.189 201.8C296.62 201.8 299.401 199.019 299.401 195.588C299.401 192.156 296.62 189.375 293.189 189.375C289.757 189.375 286.976 192.156 286.976 195.588C286.976 199.019 289.757 201.8 293.189 201.8Z" fill="#3C1F1B"/>
<path fill-rule="evenodd" clip-rule="evenodd" d="M137.657 462.725H75.9699C74.1335 462.725 72.6448 461.249 72.6448 459.428V341.266C72.6448 337.497 73.2656 333.753 74.4827 330.183L82.4002 306.957C85.0703 299.124 90.6167 293.94 97.0938 291.406L99.2693 247.289C99.3126 246.411 100.043 245.721 100.93 245.721H102.653L102.653 3H110.821L110.821 245.721H112.665C113.549 245.721 114.278 246.407 114.325 247.282L116.7 291.472C123.105 294.03 128.58 299.191 131.227 306.957L139.144 330.183C140.361 333.753 140.982 337.497 140.982 341.266L140.982 459.428C140.982 461.249 139.494 462.725 137.657 462.725ZM106.814 313.625C110.245 313.625 113.026 310.844 113.026 307.413C113.026 303.981 110.245 301.2 106.814 301.2C103.382 301.2 100.601 303.981 100.601 307.413C100.601 310.844 103.382 313.625 106.814 313.625Z" stroke="#EAEAEA"/>
<path fill-rule="evenodd" clip-rule="evenodd" d="M262.345 40.275L324.032 40.275C325.869 40.275 327.357 41.751 327.357 43.5717V161.734C327.357 165.503 326.736 169.247 325.519 172.817L317.602 196.043C314.932 203.876 309.385 209.06 302.908 211.594L300.733 255.711C300.689 256.589 299.959 257.279 299.072 257.279H297.349V500H289.181L289.181 257.279H287.337C286.453 257.279 285.724 256.593 285.677 255.718L283.302 211.528C276.897 208.97 271.422 203.809 268.775 196.043L260.858 172.817C259.641 169.247 259.02 165.503 259.02 161.734V43.5717C259.02 41.751 260.508 40.275 262.345 40.275ZM293.189 201.8C296.62 201.8 299.401 199.019 299.401 195.588C299.401 192.156 296.62 189.375 293.189 189.375C289.757 189.375 286.976 192.156 286.976 195.588C286.976 199.019 289.757 201.8 293.189 201.8Z" stroke="#EAEAEA"/>
<path d="M111.424 329.964C111.424 332.383 110.185 333.972 108.21 334.225V332.546C109.682 332.383 110.562 331.517 110.562 329.946C110.562 328.845 110.113 328.051 109.251 328.051C108.299 328.051 107.994 328.827 107.312 330.668C106.719 332.311 106.091 333.719 104.493 333.719C102.984 333.719 102.032 332.329 102.032 330.325C102.032 328.177 103.038 326.805 104.69 326.48V328.177C103.613 328.322 102.876 329.008 102.876 330.398C102.876 331.427 103.325 332.094 104.08 332.094C105.013 332.094 105.39 331.21 105.965 329.585C106.647 327.654 107.294 326.39 108.856 326.39C110.562 326.39 111.424 327.961 111.424 329.964Z" fill="white"/>
<path d="M111.119 338.209H111.047C110.616 337.541 109.987 337.451 108.712 337.451L99.5005 337.451C98.4231 337.451 97.8485 337.577 97.4355 338.118H97.3637L97.0584 335.501L97.1302 335.483C97.6689 335.573 98.0819 335.609 99.5005 335.609L108.712 335.609C109.987 335.609 110.616 335.519 111.047 334.869H111.119V338.209Z" fill="white"/>
<path d="M111.119 342.408H111.047C110.616 341.776 110.005 341.686 108.712 341.686L104.708 341.668C103.361 341.668 102.823 341.74 102.428 342.318H102.356L102.23 339.827L108.712 339.827C109.987 339.827 110.616 339.737 111.047 339.105H111.119V342.408ZM100.129 341.722H98.0999V339.809H100.129V341.722Z" fill="white"/>
<path d="M111.352 349.353C111.352 350.887 110.58 351.988 109.036 351.988C107.402 351.988 106.809 350.707 106.163 348.468C105.678 346.771 105.444 345.923 104.295 345.905C103.343 345.905 102.841 346.519 102.841 347.62C102.841 348.829 103.523 349.93 105.211 349.948L105.211 351.663C103.128 351.519 102.015 349.605 102.015 347.457C102.015 345.598 102.805 344.118 104.977 344.118L108.874 344.118C109.88 344.118 110.275 343.811 110.275 343.269C110.275 343.017 110.203 342.818 110.041 342.619H110.706C111.047 342.98 111.262 343.45 111.262 344.082C111.262 345.075 110.616 345.887 109.036 345.887H108.82C110.185 346.356 111.352 347.511 111.352 349.353ZM108.802 350.201C109.79 350.201 110.203 349.551 110.203 348.775C110.203 347.078 108.694 345.905 106.719 345.905H105.803C106.306 346.194 106.522 346.934 106.881 347.999C107.348 349.443 107.743 350.201 108.802 350.201Z" fill="white"/>
<path d="M111.119 358.231H111.047C110.616 357.599 109.987 357.491 108.712 357.491H104.744C103.397 357.491 102.84 357.599 102.392 358.231H102.338V355.397C102.805 355.614 103.397 355.65 104.744 355.65H104.923C103.649 355.343 102.122 354.151 102.104 351.949H103.702C103.613 354.567 104.923 355.65 106.593 355.65H108.784C110.041 355.65 110.634 355.559 111.065 354.855H111.119V358.231Z" fill="white"/>
<path d="M111.37 366.877C111.37 371.101 108.317 373.556 104.457 373.556C100.093 373.556 97.2919 370.505 97.2919 366.227C97.2919 362.959 98.9439 360.45 101.709 359.746V361.714C99.5185 362.273 98.2256 363.916 98.2256 366.263C98.2256 369.458 100.758 371.462 104.169 371.462C107.455 371.462 110.077 369.711 110.077 366.335C110.077 363.447 108.156 361.696 105.193 361.335L105.211 367.238L104.313 367.256L104.295 359.548L111.226 359.548V360.486L107.725 361.154V361.281C109.915 362.147 111.37 364.079 111.37 366.877Z" fill="white"/>
<path d="M111.28 376.539C111.28 377.983 110.58 379.121 108.281 379.121H103.2V380.98H102.338V379.121H100.003L98.6925 377.406V377.279H102.338L102.338 374.373H103.2V377.279H108.246C109.736 377.279 110.131 376.702 110.131 375.871C110.131 375.077 109.682 374.427 108.838 373.994L109.503 373.795C110.616 374.301 111.28 375.312 111.28 376.539Z" fill="white"/>
<path d="M111.119 384.548H111.047C110.616 383.916 110.005 383.826 108.712 383.826L104.708 383.808C103.361 383.808 102.823 383.88 102.428 384.458H102.356L102.23 381.967H108.712C109.987 381.967 110.616 381.876 111.047 381.244H111.119V384.548ZM100.129 383.862H98.0999V381.948H100.129V383.862Z" fill="white"/>
<path d="M115.644 391.556C115.644 393.469 115.123 395.003 113.83 395.003C112.986 395.003 112.25 394.227 111.837 392.855V392.873C111.873 394.372 111.244 395.328 110.167 395.328C109.233 395.328 108.479 394.462 107.958 393.216C107.365 393.866 106.539 394.281 105.48 394.281C103.325 394.281 102.068 392.585 102.068 390.418C102.068 389.209 102.445 388.144 103.164 387.44C101.763 387.313 100.775 386.357 100.757 385.021H102.32C102.32 386.248 102.787 386.934 103.666 387.025C104.151 386.7 104.78 386.519 105.48 386.519C107.653 386.519 108.892 388.216 108.892 390.4C108.892 391.231 108.712 391.989 108.353 392.621C108.73 393.487 109.143 393.993 109.718 393.993C110.167 393.993 110.418 393.632 110.418 392.567C110.418 390.924 109.951 388.92 109.951 387.476C109.951 385.996 110.526 385.147 111.675 385.147C114.099 385.147 115.644 388.505 115.644 391.556ZM113.668 393.595C114.476 393.595 114.818 392.765 114.818 391.465C114.818 388.794 113.758 386.7 112.304 386.7C111.693 386.7 111.46 387.133 111.46 388.036C111.46 390.003 112.16 393.595 113.668 393.595ZM105.48 392.476C107.078 392.476 108.084 391.7 108.084 390.418C108.084 389.101 107.078 388.324 105.48 388.324C103.882 388.324 102.876 389.119 102.876 390.418C102.876 391.7 103.882 392.476 105.48 392.476Z" fill="white"/>
<path d="M111.424 400.126C111.424 402.689 109.7 404.53 106.809 404.53C103.9 404.53 102.032 402.599 102.032 400.035C102.032 397.4 103.81 395.793 106.306 395.757V402.725H106.504C108.659 402.725 110.275 401.768 110.275 399.765C110.275 398.068 109.161 397.129 107.743 396.768V395.757C109.772 396.154 111.424 397.58 111.424 400.126ZM105.462 402.635V397.562C103.954 397.707 102.858 398.537 102.858 400.035C102.858 401.461 103.882 402.364 105.462 402.635Z" fill="white"/>
<path d="M111.119 413.766H111.047C110.616 413.062 109.987 412.972 108.712 412.972H99.9315C98.5847 412.972 98.0281 413.062 97.5791 413.766H97.5253L97.5253 410.174H97.5791C98.0281 410.86 98.5847 410.95 99.9315 410.95H110.185V409.091C110.185 407.773 109.862 406.365 109.359 404.65H111.119V413.766Z" fill="white"/>
<path d="M95.7461 431.752L95.7461 426.667C95.7461 426.442 95.8335 426.225 95.9898 426.064L101.258 420.625C101.597 420.275 102.156 420.276 102.492 420.627L112.894 431.456C112.978 431.544 113.04 431.645 113.081 431.752H95.7461Z" fill="white"/>
<path d="M113.049 432.434C113.01 432.514 112.959 432.589 112.894 432.656L111.443 434.167H95.7461L95.7461 432.434H113.049Z" fill="white"/>
<path d="M95.7461 434.849H110.788L109.123 436.581H95.7461L95.7461 434.849Z" fill="white"/>
<path d="M95.7461 437.263H108.468L106.803 438.996H96.9106L95.9898 438.045C95.8335 437.884 95.7461 437.668 95.7461 437.443L95.7461 437.263Z" fill="white"/>
<path d="M97.5713 439.678L106.148 439.678L104.483 441.411H99.2494L97.5713 439.678Z" fill="white"/>
<path d="M99.9101 442.093H103.828L102.492 443.482C102.156 443.833 101.597 443.834 101.259 443.485L99.9101 442.093Z" fill="white"/>
<path d="M111.424 329.964C111.424 332.383 110.185 333.972 108.21 334.225V332.546C109.682 332.383 110.562 331.517 110.562 329.946C110.562 328.845 110.113 328.051 109.251 328.051C108.299 328.051 107.994 328.827 107.312 330.668C106.719 332.311 106.091 333.719 104.493 333.719C102.984 333.719 102.032 332.329 102.032 330.325C102.032 328.177 103.038 326.805 104.69 326.48V328.177C103.613 328.322 102.876 329.008 102.876 330.398C102.876 331.427 103.325 332.094 104.08 332.094C105.013 332.094 105.39 331.21 105.965 329.585C106.647 327.654 107.294 326.39 108.856 326.39C110.562 326.39 111.424 327.961 111.424 329.964Z" stroke="#EAEAEA" stroke-linecap="round"/>
<path d="M111.119 338.209H111.047C110.616 337.541 109.987 337.451 108.712 337.451L99.5005 337.451C98.4231 337.451 97.8485 337.577 97.4355 338.118H97.3637L97.0584 335.501L97.1302 335.483C97.6689 335.573 98.0819 335.609 99.5005 335.609L108.712 335.609C109.987 335.609 110.616 335.519 111.047 334.869H111.119V338.209Z" stroke="#EAEAEA" stroke-linecap="round"/>
<path d="M111.119 342.408H111.047C110.616 341.776 110.005 341.686 108.712 341.686L104.708 341.668C103.361 341.668 102.823 341.74 102.428 342.318H102.356L102.23 339.827L108.712 339.827C109.987 339.827 110.616 339.737 111.047 339.105H111.119V342.408ZM100.129 341.722H98.0999V339.809H100.129V341.722Z" stroke="#EAEAEA" stroke-linecap="round"/>
<path d="M111.352 349.353C111.352 350.887 110.58 351.988 109.036 351.988C107.402 351.988 106.809 350.707 106.163 348.468C105.678 346.771 105.444 345.923 104.295 345.905C103.343 345.905 102.841 346.519 102.841 347.62C102.841 348.829 103.523 349.93 105.211 349.948L105.211 351.663C103.128 351.519 102.015 349.605 102.015 347.457C102.015 345.598 102.805 344.118 104.977 344.118L108.874 344.118C109.88 344.118 110.275 343.811 110.275 343.269C110.275 343.017 110.203 342.818 110.041 342.619H110.706C111.047 342.98 111.262 343.45 111.262 344.082C111.262 345.075 110.616 345.887 109.036 345.887H108.82C110.185 346.356 111.352 347.511 111.352 349.353ZM108.802 350.201C109.79 350.201 110.203 349.551 110.203 348.775C110.203 347.078 108.694 345.905 106.719 345.905H105.803C106.306 346.194 106.522 346.934 106.881 347.999C107.348 349.443 107.743 350.201 108.802 350.201Z" stroke="#EAEAEA" stroke-linecap="round"/>
<path d="M111.119 358.231H111.047C110.616 357.599 109.987 357.491 108.712 357.491H104.744C103.397 357.491 102.84 357.599 102.392 358.231H102.338V355.397C102.805 355.614 103.397 355.65 104.744 355.65H104.923C103.649 355.343 102.122 354.151 102.104 351.949H103.702C103.613 354.567 104.923 355.65 106.593 355.65H108.784C110.041 355.65 110.634 355.559 111.065 354.855H111.119V358.231Z" stroke="#EAEAEA" stroke-linecap="round"/>
<path d="M111.37 366.877C111.37 371.101 108.317 373.556 104.457 373.556C100.093 373.556 97.2919 370.505 97.2919 366.227C97.2919 362.959 98.9439 360.45 101.709 359.746V361.714C99.5185 362.273 98.2256 363.916 98.2256 366.263C98.2256 369.458 100.758 371.462 104.169 371.462C107.455 371.462 110.077 369.711 110.077 366.335C110.077 363.447 108.156 361.696 105.193 361.335L105.211 367.238L104.313 367.256L104.295 359.548L111.226 359.548V360.486L107.725 361.154V361.281C109.915 362.147 111.37 364.079 111.37 366.877Z" stroke="#EAEAEA" stroke-linecap="round"/>
<path d="M111.28 376.539C111.28 377.983 110.58 379.121 108.281 379.121H103.2V380.98H102.338V379.121H100.003L98.6925 377.406V377.279H102.338L102.338 374.373H103.2V377.279H108.246C109.736 377.279 110.131 376.702 110.131 375.871C110.131 375.077 109.682 374.427 108.838 373.994L109.503 373.795C110.616 374.301 111.28 375.312 111.28 376.539Z" stroke="#EAEAEA" stroke-linecap="round"/>
<path d="M111.119 384.548H111.047C110.616 383.916 110.005 383.826 108.712 383.826L104.708 383.808C103.361 383.808 102.823 383.88 102.428 384.458H102.356L102.23 381.967H108.712C109.987 381.967 110.616 381.876 111.047 381.244H111.119V384.548ZM100.129 383.862H98.0999V381.948H100.129V383.862Z" stroke="#EAEAEA" stroke-linecap="round"/>
<path d="M115.644 391.556C115.644 393.469 115.123 395.003 113.83 395.003C112.986 395.003 112.25 394.227 111.837 392.855V392.873C111.873 394.372 111.244 395.328 110.167 395.328C109.233 395.328 108.479 394.462 107.958 393.216C107.365 393.866 106.539 394.281 105.48 394.281C103.325 394.281 102.068 392.585 102.068 390.418C102.068 389.209 102.445 388.144 103.164 387.44C101.763 387.313 100.775 386.357 100.757 385.021H102.32C102.32 386.248 102.787 386.934 103.666 387.025C104.151 386.7 104.78 386.519 105.48 386.519C107.653 386.519 108.892 388.216 108.892 390.4C108.892 391.231 108.712 391.989 108.353 392.621C108.73 393.487 109.143 393.993 109.718 393.993C110.167 393.993 110.418 393.632 110.418 392.567C110.418 390.924 109.951 388.92 109.951 387.476C109.951 385.996 110.526 385.147 111.675 385.147C114.099 385.147 115.644 388.505 115.644 391.556ZM113.668 393.595C114.476 393.595 114.818 392.765 114.818 391.465C114.818 388.794 113.758 386.7 112.304 386.7C111.693 386.7 111.46 387.133 111.46 388.036C111.46 390.003 112.16 393.595 113.668 393.595ZM105.48 392.476C107.078 392.476 108.084 391.7 108.084 390.418C108.084 389.101 107.078 388.324 105.48 388.324C103.882 388.324 102.876 389.119 102.876 390.418C102.876 391.7 103.882 392.476 105.48 392.476Z" stroke="#EAEAEA" stroke-linecap="round"/>
<path d="M111.424 400.126C111.424 402.689 109.7 404.53 106.809 404.53C103.9 404.53 102.032 402.599 102.032 400.035C102.032 397.4 103.81 395.793 106.306 395.757V402.725H106.504C108.659 402.725 110.275 401.768 110.275 399.765C110.275 398.068 109.161 397.129 107.743 396.768V395.757C109.772 396.154 111.424 397.58 111.424 400.126ZM105.462 402.635V397.562C103.954 397.707 102.858 398.537 102.858 400.035C102.858 401.461 103.882 402.364 105.462 402.635Z" stroke="#EAEAEA" stroke-linecap="round"/>
<path d="M111.119 413.766H111.047C110.616 413.062 109.987 412.972 108.712 412.972H99.9315C98.5847 412.972 98.0281 413.062 97.5791 413.766H97.5253L97.5253 410.174H97.5791C98.0281 410.86 98.5847 410.95 99.9315 410.95H110.185V409.091C110.185 407.773 109.862 406.365 109.359 404.65H111.119V413.766Z" stroke="#EAEAEA" stroke-linecap="round"/>
<path d="M95.7461 431.752L95.7461 426.667C95.7461 426.442 95.8335 426.225 95.9898 426.064L101.258 420.625C101.597 420.275 102.156 420.276 102.492 420.627L112.894 431.456C112.978 431.544 113.04 431.645 113.081 431.752H95.7461Z" stroke="#EAEAEA" stroke-linecap="round"/>
<path d="M113.049 432.434C113.01 432.514 112.959 432.589 112.894 432.656L111.443 434.167H95.7461L95.7461 432.434H113.049Z" stroke="#EAEAEA" stroke-linecap="round"/>
<path d="M95.7461 434.849H110.788L109.123 436.581H95.7461L95.7461 434.849Z" stroke="#EAEAEA" stroke-linecap="round"/>
<path d="M95.7461 437.263H108.468L106.803 438.996H96.9106L95.9898 438.045C95.8335 437.884 95.7461 437.668 95.7461 437.443L95.7461 437.263Z" stroke="#EAEAEA" stroke-linecap="round"/>
<path d="M97.5713 439.678L106.148 439.678L104.483 441.411H99.2494L97.5713 439.678Z" stroke="#EAEAEA" stroke-linecap="round"/>
<path d="M99.9101 442.093H103.828L102.492 443.482C102.156 443.833 101.597 443.834 101.259 443.485L99.9101 442.093Z" stroke="#EAEAEA" stroke-linecap="round"/>
<path d="M314.931 98.793L271.443 98.793C270.004 98.793 268.837 97.6267 268.837 96.1875L268.837 52.6992C268.837 51.26 270.004 50.0937 271.443 50.0937L314.931 50.0937C316.37 50.0937 317.537 51.26 317.537 52.6992L317.537 96.1875C317.537 97.6267 316.37 98.793 314.931 98.793ZM308.719 167.131L299.399 167.131C297.96 167.131 296.793 165.964 296.793 164.524L296.793 114.824C296.793 113.385 297.96 112.219 299.399 112.219L308.719 112.219C310.158 112.219 311.324 113.385 311.324 114.824L311.324 164.524C311.324 165.964 310.158 167.131 308.719 167.131ZM280.762 148.493L277.656 148.493C276.217 148.493 275.05 147.326 275.05 145.887L275.05 114.824C275.05 113.385 276.217 112.219 277.656 112.219L280.762 112.219C282.201 112.219 283.368 113.385 283.368 114.824L283.368 145.887C283.368 147.326 282.201 148.493 280.762 148.493Z" fill="white" stroke="#EAEAEA"/>
<path d="M199.501 475.65V493.288H197.395V475.65H199.501ZM199.501 444.588V462.226H197.395V444.588H199.501ZM199.501 413.525V431.163H197.395V413.525H199.501ZM199.501 382.463V400.101H197.395V382.463H199.501ZM199.501 351.4V369.038H197.395V351.4H199.501ZM199.501 320.338V337.976H197.395V320.338H199.501ZM199.501 289.275V306.913H197.395V289.275H199.501ZM199.501 258.213V275.851H197.395V258.213H199.501ZM199.501 227.15V244.788H197.395V227.15H199.501ZM199.501 196.088V213.726H197.395V196.088H199.501ZM199.501 165.025V182.663H197.395V165.025H199.501ZM199.501 133.963V151.601H197.395V133.963H199.501ZM199.501 102.9V120.538H197.395V102.9H199.501ZM199.501 71.8379V89.4756H197.395V71.8379H199.501ZM199.501 40.7754V58.4131H197.395V40.7754H199.501ZM199.501 9.71289V27.3506H197.395V9.71289H199.501Z" fill="#DBDBD8" stroke="#EAEAEA"/>
<defs>
<filter id="filter0_dddd_3643_866" x="0.625" y="0" width="398.75" height="546" filterUnits="userSpaceOnUse" color-interpolation-filters="sRGB">
<feFlood flood-opacity="0" result="BackgroundImageFix"/>
<feColorMatrix in="SourceAlpha" type="matrix" values="0 0 0 0 0 0 0 0 0 0 0 0 0 0 0 0 0 0 127 0" result="hardAlpha"/>
<feOffset dy="2"/>
<feGaussianBlur stdDeviation="2.5"/>
<feColorMatrix type="matrix" values="0 0 0 0 0.423529 0 0 0 0 0.301961 0 0 0 0 0.282353 0 0 0 0.05 0"/>
<feBlend mode="normal" in2="BackgroundImageFix" result="effect1_dropShadow_3643_866"/>
<feColorMatrix in="SourceAlpha" type="matrix" values="0 0 0 0 0 0 0 0 0 0 0 0 0 0 0 0 0 0 127 0" result="hardAlpha"/>
<feOffset dy="8"/>
<feGaussianBlur stdDeviation="4"/>
<feColorMatrix type="matrix" values="0 0 0 0 0.423529 0 0 0 0 0.301961 0 0 0 0 0.282353 0 0 0 0.04 0"/>
<feBlend mode="normal" in2="effect1_dropShadow_3643_866" result="effect2_dropShadow_3643_866"/>
<feColorMatrix in="SourceAlpha" type="matrix" values="0 0 0 0 0 0 0 0 0 0 0 0 0 0 0 0 0 0 127 0" result="hardAlpha"/>
<feOffset dy="19"/>
<feGaussianBlur stdDeviation="5.5"/>
<feColorMatrix type="matrix" values="0 0 0 0 0.423529 0 0 0 0 0.301961 0 0 0 0 0.282353 0 0 0 0.03 0"/>
<feBlend mode="normal" in2="effect2_dropShadow_3643_866" result="effect3_dropShadow_3643_866"/>
<feColorMatrix in="SourceAlpha" type="matrix" values="0 0 0 0 0 0 0 0 0 0 0 0 0 0 0 0 0 0 127 0" result="hardAlpha"/>
<feOffset dy="33"/>
<feGaussianBlur stdDeviation="6.5"/>
<feColorMatrix type="matrix" values="0 0 0 0 0.423529 0 0 0 0 0.301961 0 0 0 0 0.282353 0 0 0 0.01 0"/>
<feBlend mode="normal" in2="effect3_dropShadow_3643_866" result="effect4_dropShadow_3643_866"/>
<feBlend mode="normal" in="SourceGraphic" in2="effect4_dropShadow_3643_866" result="shape"/>
</filter>
</defs>
</svg>
