<svg width="201" height="201" viewBox="0 0 201 201" fill="none" xmlns="http://www.w3.org/2000/svg">
<path d="M102.998 30.2639H144.963C146.821 30.2639 148.606 30.9893 149.937 32.2856L194.825 75.9944C197.708 78.8015 197.698 83.4366 194.804 86.2316L105.441 172.524C104.718 173.222 103.884 173.737 102.998 174.07V30.2639Z" fill="#F0E9E8"/>
<path d="M97.369 173.808C96.7099 173.487 96.0899 173.059 95.535 172.523L83.0715 160.485V30.2639H97.369V173.808Z" fill="#F0E9E8"/>
<path d="M77.4425 30.2639V155.048L63.145 141.238V30.2639H77.4425Z" fill="#F0E9E8"/>
<path d="M57.5161 30.2639V135.801L43.2185 121.991V39.9244L51.0633 32.2856C52.3946 30.9893 54.1793 30.2639 56.0374 30.2639H57.5161Z" fill="#F0E9E8"/>
<path d="M37.5896 45.4054V116.554L23.292 102.745V59.3275L37.5896 45.4054Z" fill="#F0E9E8"/>
<path d="M17.6631 64.8086V97.3079L6.19563 86.2316C3.30172 83.4365 3.29234 78.8019 6.1749 75.9951L17.6631 64.8086Z" fill="#F0E9E8"/>
<path fill-rule="evenodd" clip-rule="evenodd" d="M98.4541 20.6775C98.1555 20.7819 97.8755 20.9534 97.6368 21.192L82.2538 36.5746C81.2481 37.5805 81.4645 39.2657 82.6919 39.985L84.7233 41.1758C85.4929 41.6271 86.4608 41.5615 87.1631 41.0103L93.3013 36.1916L94.1742 61.4725H104.184L105.057 36.1918L111.195 41.0103C111.897 41.5615 112.865 41.6271 113.635 41.1758L115.666 39.985C116.893 39.2657 117.11 37.5805 116.104 36.5746L100.721 21.192C100.4 20.8708 100.003 20.6734 99.5876 20.5954C99.211 20.5225 98.819 20.5499 98.4541 20.6775ZM99.1792 31.5774L99.2138 31.6046H99.1445L99.1792 31.5774Z" fill="url(#paint0_linear_3727_2243)"/>
<path fill-rule="evenodd" clip-rule="evenodd" d="M121.173 44.057C121.041 44.103 120.917 44.1788 120.812 44.2841L114.021 51.0749C113.577 51.519 113.673 52.2629 114.214 52.5805L115.111 53.1062C115.451 53.3054 115.878 53.2765 116.188 53.0331L118.898 50.9058L119.283 61.4921H123.702L124.088 50.9059L126.797 53.0331C127.107 53.2765 127.535 53.3054 127.874 53.1062L128.771 52.5805C129.313 52.2629 129.409 51.519 128.965 51.0749L122.174 44.2841C122.032 44.1423 121.857 44.0551 121.673 44.0207C121.507 43.9885 121.334 44.0006 121.173 44.057ZM121.508 48.8808H121.478L121.493 48.8688L121.508 48.8808Z" fill="url(#paint1_linear_3727_2243)"/>
<foreignObject x="26.5" y="55.5" width="134" height="132"><div xmlns="http://www.w3.org/1999/xhtml" style="backdrop-filter:blur(2.5px);clip-path:url(#bgblur_0_3727_2243_clip_path);height:100%;width:100%"></div></foreignObject><g data-figma-bg-blur-radius="5">
<path d="M102.689 147.313V156.967H131.328C133.617 156.967 135.473 155.109 135.473 152.817V148.386C135.473 147.794 134.998 147.313 134.412 147.313H124.961H102.689Z" fill="#F2F2EA" fill-opacity="0.6"/>
<path d="M91.2903 165.269H50.8775C48.5883 165.269 46.7326 163.41 46.7326 161.118V123.761L36.0589 125.288C33.9009 125.597 32.3504 127.527 32.5115 129.704L36.0584 177.656C36.2298 179.972 38.2651 181.696 40.5742 181.482L88.2061 177.065C90.4829 176.854 92.1589 174.837 91.9519 172.557L91.2903 165.269Z" fill="#F2F2EA" fill-opacity="0.6"/>
<path d="M91.9146 109.234H98.5438C100.833 109.234 102.689 111.092 102.689 113.384V116.272C104.714 116.933 106.805 117.279 108.943 117.279C113.268 117.279 117.399 115.863 121.181 113.291C131.878 106.018 139.798 89.4947 141.499 69.5582C141.609 68.2705 141.693 66.9686 141.75 65.654C141.85 63.3638 139.984 61.5 137.695 61.5H80.1915C77.9023 61.5 76.0369 63.3606 76.1363 65.6508C76.1933 66.9647 76.2771 68.2659 76.3869 69.5529C77.822 86.3812 83.688 100.778 91.9146 109.234Z" fill="#F2F2EA" fill-opacity="0.6"/>
<path d="M102.689 116.272V133.369L123.592 133.369C119.347 130.687 113.572 122.081 121 113.5L121.181 113.291C117.399 115.863 113.268 117.279 108.943 117.279C106.805 117.279 104.714 116.933 102.689 116.272Z" fill="#F2F2EA" fill-opacity="0.6"/>
<path d="M91.9146 109.234H50.8775C48.5883 109.234 46.7326 111.092 46.7326 113.384V123.761V161.118C46.7326 163.41 48.5883 165.269 50.8775 165.269H91.2903H98.5438C100.833 165.269 102.689 163.41 102.689 161.118V156.967V147.313V133.369V116.272V113.384C102.689 111.092 100.833 109.234 98.5438 109.234H91.9146Z" fill="#F2F2EA" fill-opacity="0.6"/>
<path d="M102.689 133.369V147.313H124.961C127.25 147.313 129.106 145.455 129.106 143.163V135.514C129.106 134.329 128.156 133.369 126.984 133.369L123.592 133.369L102.689 133.369Z" fill="#F2F2EA" fill-opacity="0.6"/>
<path d="M50.8775 165.269H98.5438M50.8775 165.269C48.5883 165.269 46.7326 163.41 46.7326 161.118M50.8775 165.269H91.2903M46.7326 161.118V113.384M46.7326 161.118V123.761M102.689 161.118V113.384M102.689 161.118C102.689 163.41 100.833 165.269 98.5438 165.269M102.689 161.118V156.967M98.5438 165.269H91.2903M98.5438 109.234H50.8775M98.5438 109.234C100.833 109.234 102.689 111.092 102.689 113.384M98.5438 109.234H91.9146M102.689 113.384V116.272M50.8775 109.234C48.5883 109.234 46.7326 111.092 46.7326 113.384M50.8775 109.234H91.9146M46.7326 113.384V123.761M91.2903 165.269L91.9519 172.557C92.1589 174.837 90.4829 176.854 88.2061 177.065L40.5742 181.482C38.2651 181.696 36.2298 179.972 36.0584 177.656L32.5115 129.704C32.3504 127.527 33.9009 125.597 36.0589 125.288L46.7326 123.761M123.592 133.369C119.347 130.687 113.572 122.081 121 113.5L121.181 113.291M123.592 133.369L102.689 133.369M123.592 133.369L126.984 133.369C128.156 133.369 129.106 134.329 129.106 135.514V143.163C129.106 145.455 127.25 147.313 124.961 147.313M141.499 69.5582C141.609 68.2705 141.693 66.9686 141.75 65.654C141.85 63.3638 139.985 61.5 137.695 61.5H80.1915C77.9023 61.5 76.0369 63.3606 76.1363 65.6508C76.1933 66.9647 76.2771 68.2659 76.3869 69.5529M141.499 69.5582C141.436 69.5536 141.373 69.5492 141.31 69.545M141.499 69.5582C165.651 71.3213 152.922 103.338 129.637 104.943M141.499 69.5582C139.798 89.4947 131.878 106.018 121.181 113.291M76.5025 69.545C76.4639 69.5475 76.4253 69.5502 76.3869 69.5529M76.3869 69.5529C52.1356 71.2558 64.8664 103.337 88.1756 104.943M76.3869 69.5529C77.822 86.3812 83.688 100.778 91.9146 109.234M102.689 116.272C104.714 116.933 106.805 117.279 108.943 117.279C113.268 117.279 117.399 115.863 121.181 113.291M102.689 116.272V133.369M102.689 133.369V147.313M124.961 147.313H102.689M124.961 147.313H134.412C134.998 147.313 135.473 147.794 135.473 148.386V152.817C135.473 155.109 133.617 156.967 131.328 156.967H102.689M102.689 147.313V156.967" stroke="#6C4D48" stroke-width="2" stroke-linejoin="round"/>
</g>
<foreignObject x="148.351" y="5.82764" width="36.8299" height="36.8298"><div xmlns="http://www.w3.org/1999/xhtml" style="backdrop-filter:blur(2.5px);clip-path:url(#bgblur_1_3727_2243_clip_path);height:100%;width:100%"></div></foreignObject><path data-figma-bg-blur-radius="5" fill-rule="evenodd" clip-rule="evenodd" d="M166.766 11.8276C164.248 17.3044 159.827 21.7252 154.351 24.2426C159.827 26.76 164.248 31.1808 166.766 36.6576C169.283 31.1808 173.704 26.76 179.181 24.2426C173.704 21.7252 169.283 17.3044 166.766 11.8276Z" fill="url(#paint2_linear_3727_2243)" fill-opacity="0.4" stroke="url(#paint3_linear_3727_2243)" stroke-width="2" stroke-linejoin="round"/>
<foreignObject x="34.8022" y="44.0718" width="23.4202" height="23.4202"><div xmlns="http://www.w3.org/1999/xhtml" style="backdrop-filter:blur(2.5px);clip-path:url(#bgblur_2_3727_2243_clip_path);height:100%;width:100%"></div></foreignObject><path data-figma-bg-blur-radius="5" fill-rule="evenodd" clip-rule="evenodd" d="M46.5123 50.0718C45.3545 52.5908 43.3212 54.624 40.8022 55.7819C43.3212 56.9397 45.3545 58.973 46.5123 61.4919C47.6702 58.973 49.7034 56.9397 52.2224 55.7819C49.7034 54.624 47.6702 52.5908 46.5123 50.0718Z" fill="url(#paint4_linear_3727_2243)" fill-opacity="0.4" stroke="url(#paint5_linear_3727_2243)" stroke-width="2" stroke-linejoin="round"/>
<foreignObject x="163.662" y="109.656" width="21.5184" height="21.5183"><div xmlns="http://www.w3.org/1999/xhtml" style="backdrop-filter:blur(2.5px);clip-path:url(#bgblur_3_3727_2243_clip_path);height:100%;width:100%"></div></foreignObject><path data-figma-bg-blur-radius="5" fill-rule="evenodd" clip-rule="evenodd" d="M174.421 115.656C173.456 117.756 171.762 119.45 169.662 120.415C171.762 121.38 173.456 123.075 174.421 125.174C175.386 123.075 177.081 121.38 179.181 120.415C177.081 119.45 175.386 117.756 174.421 115.656Z" fill="url(#paint6_linear_3727_2243)" fill-opacity="0.4" stroke="url(#paint7_linear_3727_2243)" stroke-width="2" stroke-linejoin="round"/>
<foreignObject x="139.644" y="114.265" width="30.2915" height="30.2915"><div xmlns="http://www.w3.org/1999/xhtml" style="backdrop-filter:blur(2.5px);clip-path:url(#bgblur_4_3727_2243_clip_path);height:100%;width:100%"></div></foreignObject><path data-figma-bg-blur-radius="5" fill-rule="evenodd" clip-rule="evenodd" d="M154.789 120.265C152.935 124.3 149.678 127.556 145.644 129.411C149.678 131.265 152.935 134.522 154.789 138.556C156.644 134.522 159.9 131.265 163.935 129.411C159.9 127.556 156.644 124.3 154.789 120.265Z" fill="url(#paint8_linear_3727_2243)" fill-opacity="0.4" stroke="url(#paint9_linear_3727_2243)" stroke-width="2" stroke-linejoin="round"/>
<foreignObject x="49.8872" y="118.971" width="49.9277" height="39.1709"><div xmlns="http://www.w3.org/1999/xhtml" style="backdrop-filter:blur(2.5px);clip-path:url(#bgblur_5_3727_2243_clip_path);height:100%;width:100%"></div></foreignObject><g data-figma-bg-blur-radius="5">
<path d="M75.368 123.971H84.0514C84.4359 123.971 84.8052 124.118 85.0807 124.381L94.3689 133.248C94.9654 133.817 94.9634 134.757 94.3644 135.324L75.8735 152.828C75.7239 152.97 75.5514 153.075 75.368 153.142V123.971Z" fill="url(#paint10_linear_3727_2243)"/>
<path d="M74.2032 153.089C74.0669 153.024 73.9385 152.937 73.8237 152.828L71.2448 150.386V123.971H74.2032V153.089Z" fill="url(#paint11_linear_3727_2243)"/>
<path d="M70.08 123.971V149.283L67.1216 146.482V123.971H70.08Z" fill="url(#paint12_linear_3727_2243)"/>
<path d="M65.9568 123.971V145.379L62.9984 142.578V125.931L64.6216 124.381C64.8971 124.118 65.2664 123.971 65.6509 123.971H65.9568Z" fill="url(#paint13_linear_3727_2243)"/>
<path d="M61.8336 127.043V141.475L58.8752 138.674V129.867L61.8336 127.043Z" fill="url(#paint14_linear_3727_2243)"/>
<path d="M57.7104 130.979V137.571L55.3376 135.324C54.7388 134.757 54.7368 133.817 55.3333 133.248L57.7104 130.979Z" fill="url(#paint15_linear_3727_2243)"/>
</g>
<defs>
<clipPath id="bgblur_0_3727_2243_clip_path" transform="translate(-26.5 -55.5)"><path d="M102.689 147.313V156.967H131.328C133.617 156.967 135.473 155.109 135.473 152.817V148.386C135.473 147.794 134.998 147.313 134.412 147.313H124.961H102.689Z"/>
<path d="M91.2903 165.269H50.8775C48.5883 165.269 46.7326 163.41 46.7326 161.118V123.761L36.0589 125.288C33.9009 125.597 32.3504 127.527 32.5115 129.704L36.0584 177.656C36.2298 179.972 38.2651 181.696 40.5742 181.482L88.2061 177.065C90.4829 176.854 92.1589 174.837 91.9519 172.557L91.2903 165.269Z"/>
<path d="M91.9146 109.234H98.5438C100.833 109.234 102.689 111.092 102.689 113.384V116.272C104.714 116.933 106.805 117.279 108.943 117.279C113.268 117.279 117.399 115.863 121.181 113.291C131.878 106.018 139.798 89.4947 141.499 69.5582C141.609 68.2705 141.693 66.9686 141.75 65.654C141.85 63.3638 139.984 61.5 137.695 61.5H80.1915C77.9023 61.5 76.0369 63.3606 76.1363 65.6508C76.1933 66.9647 76.2771 68.2659 76.3869 69.5529C77.822 86.3812 83.688 100.778 91.9146 109.234Z"/>
<path d="M102.689 116.272V133.369L123.592 133.369C119.347 130.687 113.572 122.081 121 113.5L121.181 113.291C117.399 115.863 113.268 117.279 108.943 117.279C106.805 117.279 104.714 116.933 102.689 116.272Z"/>
<path d="M91.9146 109.234H50.8775C48.5883 109.234 46.7326 111.092 46.7326 113.384V123.761V161.118C46.7326 163.41 48.5883 165.269 50.8775 165.269H91.2903H98.5438C100.833 165.269 102.689 163.41 102.689 161.118V156.967V147.313V133.369V116.272V113.384C102.689 111.092 100.833 109.234 98.5438 109.234H91.9146Z"/>
<path d="M102.689 133.369V147.313H124.961C127.25 147.313 129.106 145.455 129.106 143.163V135.514C129.106 134.329 128.156 133.369 126.984 133.369L123.592 133.369L102.689 133.369Z"/>
</clipPath><clipPath id="bgblur_1_3727_2243_clip_path" transform="translate(-148.351 -5.82764)"><path fill-rule="evenodd" clip-rule="evenodd" d="M166.766 11.8276C164.248 17.3044 159.827 21.7252 154.351 24.2426C159.827 26.76 164.248 31.1808 166.766 36.6576C169.283 31.1808 173.704 26.76 179.181 24.2426C173.704 21.7252 169.283 17.3044 166.766 11.8276Z"/>
</clipPath><clipPath id="bgblur_2_3727_2243_clip_path" transform="translate(-34.8022 -44.0718)"><path fill-rule="evenodd" clip-rule="evenodd" d="M46.5123 50.0718C45.3545 52.5908 43.3212 54.624 40.8022 55.7819C43.3212 56.9397 45.3545 58.973 46.5123 61.4919C47.6702 58.973 49.7034 56.9397 52.2224 55.7819C49.7034 54.624 47.6702 52.5908 46.5123 50.0718Z"/>
</clipPath><clipPath id="bgblur_3_3727_2243_clip_path" transform="translate(-163.662 -109.656)"><path fill-rule="evenodd" clip-rule="evenodd" d="M174.421 115.656C173.456 117.756 171.762 119.45 169.662 120.415C171.762 121.38 173.456 123.075 174.421 125.174C175.386 123.075 177.081 121.38 179.181 120.415C177.081 119.45 175.386 117.756 174.421 115.656Z"/>
</clipPath><clipPath id="bgblur_4_3727_2243_clip_path" transform="translate(-139.644 -114.265)"><path fill-rule="evenodd" clip-rule="evenodd" d="M154.789 120.265C152.935 124.3 149.678 127.556 145.644 129.411C149.678 131.265 152.935 134.522 154.789 138.556C156.644 134.522 159.9 131.265 163.935 129.411C159.9 127.556 156.644 124.3 154.789 120.265Z"/>
</clipPath><clipPath id="bgblur_5_3727_2243_clip_path" transform="translate(-49.8872 -118.971)"><path d="M75.368 123.971H84.0514C84.4359 123.971 84.8052 124.118 85.0807 124.381L94.3689 133.248C94.9654 133.817 94.9634 134.757 94.3644 135.324L75.8735 152.828C75.7239 152.97 75.5514 153.075 75.368 153.142V123.971Z"/>
<path d="M74.2032 153.089C74.0669 153.024 73.9385 152.937 73.8237 152.828L71.2448 150.386V123.971H74.2032V153.089Z"/>
<path d="M70.08 123.971V149.283L67.1216 146.482V123.971H70.08Z"/>
<path d="M65.9568 123.971V145.379L62.9984 142.578V125.931L64.6216 124.381C64.8971 124.118 65.2664 123.971 65.6509 123.971H65.9568Z"/>
<path d="M61.8336 127.043V141.475L58.8752 138.674V129.867L61.8336 127.043Z"/>
<path d="M57.7104 130.979V137.571L55.3376 135.324C54.7388 134.757 54.7368 133.817 55.3333 133.248L57.7104 130.979Z"/>
</clipPath><linearGradient id="paint0_linear_3727_2243" x1="81.6176" y1="61.4921" x2="131.34" y2="58.7667" gradientUnits="userSpaceOnUse">
<stop stop-color="#FF8452"/>
<stop offset="1" stop-color="#E64508"/>
</linearGradient>
<linearGradient id="paint1_linear_3727_2243" x1="81.6176" y1="61.4921" x2="131.34" y2="58.7667" gradientUnits="userSpaceOnUse">
<stop stop-color="#FF8452"/>
<stop offset="1" stop-color="#E64508"/>
</linearGradient>
<linearGradient id="paint2_linear_3727_2243" x1="154.351" y1="36.6576" x2="180.293" y2="35.4354" gradientUnits="userSpaceOnUse">
<stop stop-color="#FF8452"/>
<stop offset="1" stop-color="#E64508"/>
</linearGradient>
<linearGradient id="paint3_linear_3727_2243" x1="154.351" y1="36.6576" x2="180.293" y2="35.4354" gradientUnits="userSpaceOnUse">
<stop stop-color="#FF8452"/>
<stop offset="1" stop-color="#E64508"/>
</linearGradient>
<linearGradient id="paint4_linear_3727_2243" x1="40.8022" y1="61.4919" x2="52.734" y2="60.9298" gradientUnits="userSpaceOnUse">
<stop stop-color="#FF8452"/>
<stop offset="1" stop-color="#E64508"/>
</linearGradient>
<linearGradient id="paint5_linear_3727_2243" x1="40.8022" y1="61.4919" x2="52.734" y2="60.9298" gradientUnits="userSpaceOnUse">
<stop stop-color="#FF8452"/>
<stop offset="1" stop-color="#E64508"/>
</linearGradient>
<linearGradient id="paint6_linear_3727_2243" x1="169.662" y1="125.174" x2="179.607" y2="124.706" gradientUnits="userSpaceOnUse">
<stop stop-color="#FF8452"/>
<stop offset="1" stop-color="#E64508"/>
</linearGradient>
<linearGradient id="paint7_linear_3727_2243" x1="169.662" y1="125.174" x2="179.607" y2="124.706" gradientUnits="userSpaceOnUse">
<stop stop-color="#FF8452"/>
<stop offset="1" stop-color="#E64508"/>
</linearGradient>
<linearGradient id="paint8_linear_3727_2243" x1="145.644" y1="138.556" x2="164.754" y2="137.656" gradientUnits="userSpaceOnUse">
<stop stop-color="#FF8452"/>
<stop offset="1" stop-color="#E64508"/>
</linearGradient>
<linearGradient id="paint9_linear_3727_2243" x1="145.644" y1="138.556" x2="164.754" y2="137.656" gradientUnits="userSpaceOnUse">
<stop stop-color="#FF8452"/>
<stop offset="1" stop-color="#E64508"/>
</linearGradient>
<linearGradient id="paint10_linear_3727_2243" x1="54.8872" y1="153.142" x2="96.5229" y2="150.457" gradientUnits="userSpaceOnUse">
<stop stop-color="#FF8452"/>
<stop offset="1" stop-color="#E64508"/>
</linearGradient>
<linearGradient id="paint11_linear_3727_2243" x1="54.8872" y1="153.142" x2="96.5229" y2="150.457" gradientUnits="userSpaceOnUse">
<stop stop-color="#FF8452"/>
<stop offset="1" stop-color="#E64508"/>
</linearGradient>
<linearGradient id="paint12_linear_3727_2243" x1="54.8872" y1="153.142" x2="96.5229" y2="150.457" gradientUnits="userSpaceOnUse">
<stop stop-color="#FF8452"/>
<stop offset="1" stop-color="#E64508"/>
</linearGradient>
<linearGradient id="paint13_linear_3727_2243" x1="54.8872" y1="153.142" x2="96.5229" y2="150.457" gradientUnits="userSpaceOnUse">
<stop stop-color="#FF8452"/>
<stop offset="1" stop-color="#E64508"/>
</linearGradient>
<linearGradient id="paint14_linear_3727_2243" x1="54.8872" y1="153.142" x2="96.5229" y2="150.457" gradientUnits="userSpaceOnUse">
<stop stop-color="#FF8452"/>
<stop offset="1" stop-color="#E64508"/>
</linearGradient>
<linearGradient id="paint15_linear_3727_2243" x1="54.8872" y1="153.142" x2="96.5229" y2="150.457" gradientUnits="userSpaceOnUse">
<stop stop-color="#FF8452"/>
<stop offset="1" stop-color="#E64508"/>
</linearGradient>
</defs>
</svg>
