<svg width="85" height="90" viewBox="0 0 85 90" fill="none" xmlns="http://www.w3.org/2000/svg">
<path fill-rule="evenodd" clip-rule="evenodd" d="M28.4097 46.9673L42.5008 61.0602L14.7292 88.8336C14.0652 89.4976 13.0901 89.6566 12.2478 89.239C11.4004 88.8179 10.9408 87.9407 11.0683 87.0093L12.0731 79.8327C12.1675 79.1389 11.9543 78.4994 11.458 78.0101C10.967 77.5156 10.3292 77.3024 9.63547 77.3968L2.45885 78.4015C1.52748 78.5308 0.650276 78.0695 0.22915 77.222C-0.186734 76.3798 -0.02772 75.4047 0.634549 74.7407L28.4097 46.9673ZM56.5937 46.9673L42.5008 61.0602L70.2689 88.8336C70.9382 89.4976 71.908 89.6566 72.7555 89.239C73.5977 88.8179 74.059 87.9407 73.9297 87.0093L72.9285 79.8327C72.8289 79.1389 73.042 78.4994 73.5383 78.0101C74.0328 77.5156 74.6671 77.3024 75.3609 77.3968L82.5375 78.4015C83.4741 78.5308 84.3461 78.0695 84.7672 77.222C85.1883 76.3798 85.0293 75.4047 84.3618 74.7407L56.5937 46.9673Z" fill="#494949"/>
<path fill-rule="evenodd" clip-rule="evenodd" d="M46.364 1.47168L49.8361 4.96301C51.2428 6.38016 53.2296 6.81526 55.0958 6.1163L58.0088 5.02591C59.3718 4.52091 60.7382 4.59954 62.0313 5.2688C63.3244 5.93806 64.1806 7.00748 64.5528 8.41414L65.811 13.1741C66.3212 15.1015 67.8222 16.4732 69.7933 16.8052L72.8548 17.3207C74.2912 17.5583 75.4357 18.3167 76.2186 19.5399C77.0066 20.7631 77.2146 22.1156 76.8336 23.5223L75.5406 28.2717C75.0198 30.1991 75.6349 32.1353 77.1744 33.4091L79.5718 35.3854C80.6919 36.3116 81.3053 37.5348 81.3699 38.9921C81.4398 40.4442 80.9383 41.7216 79.9091 42.7473L76.4178 46.2141C75.0006 47.6208 74.5655 49.6076 75.2645 51.4791L76.3496 54.3868C76.8599 55.7533 76.7812 57.1215 76.112 58.4093C75.4427 59.7024 74.3733 60.5586 72.9666 60.9308L68.2067 62.189C66.274 62.6992 64.9076 64.2055 64.5756 66.1713L64.0601 69.238C63.8224 70.6692 63.064 71.8137 61.8409 72.6018C60.6177 73.3847 59.2599 73.5926 57.8585 73.2117L53.109 71.9238C51.1816 71.3996 49.2403 72.0129 47.9716 73.5541L45.9953 75.9516C45.0692 77.0717 43.8408 77.685 42.3887 77.7549C40.9366 77.8196 39.6592 77.3233 38.6335 76.2941L35.1666 72.7975C33.7547 71.3804 31.7731 70.9453 29.9017 71.6442L26.9887 72.7346C25.6257 73.2449 24.2593 73.161 22.9662 72.4917C21.6731 71.8225 20.8221 70.7531 20.4447 69.3464L19.1865 64.5864C18.6763 62.659 17.1753 61.2873 15.2094 60.9553L12.1427 60.4451C10.7063 60.2022 9.56703 59.449 8.77895 58.2206C7.99611 56.9974 7.78817 55.6449 8.1691 54.2383L9.45695 49.4888C9.98117 47.5614 9.36783 45.6253 7.82661 44.3514L5.42916 42.3751C4.30558 41.449 3.69573 40.2258 3.62583 38.7684C3.56118 37.3163 4.05744 36.039 5.08667 35.0132L8.578 31.5464C9.99515 30.1397 10.4303 28.1529 9.73129 26.2814L8.64615 23.3737C8.1359 22.0073 8.21978 20.639 8.88904 19.3512C9.5583 18.0581 10.6225 17.2019 12.0291 16.8297L16.7891 15.5715C18.7217 15.0613 20.0934 13.555 20.4202 11.5892L20.9357 8.52248C21.1786 7.09135 21.9317 5.9468 23.1549 5.15872C24.3833 4.37588 25.7358 4.16793 27.1373 4.54887L31.892 5.84195C33.8194 6.36268 35.7555 5.74759 37.0241 4.20812L39.0057 1.81068C39.9318 0.690585 41.155 0.0772435 42.6071 0.00734704C44.0662 -0.0590546 45.34 0.43721 46.364 1.47168Z" fill="#CDAB71"/>
<path fill-rule="evenodd" clip-rule="evenodd" d="M42.5007 62.8478C55.7007 62.8478 66.4647 52.0785 66.4647 38.8786C66.4647 25.6786 55.7024 14.9146 42.5007 14.9146C29.3008 14.9146 18.5315 25.6786 18.5315 38.8786C18.5315 52.0785 29.3008 62.8478 42.5007 62.8478Z" fill="#F4F4F4"/>
<path fill-rule="evenodd" clip-rule="evenodd" d="M42.5011 57.7314C52.8825 57.7314 61.354 49.2617 61.354 38.8785C61.354 28.4954 52.8843 20.0275 42.5011 20.0275C32.1145 20.0275 23.6431 28.4972 23.6431 38.8803C23.6431 49.2634 32.1145 57.7314 42.5011 57.7314Z" fill="#CDAB71"/>
<path fill-rule="evenodd" clip-rule="evenodd" d="M43.6504 28.4675L45.5866 34.4716C45.7543 34.9819 46.2051 35.3139 46.7398 35.3086L53.0497 35.2981C53.5792 35.2981 54.0353 35.6249 54.203 36.1351C54.3673 36.6401 54.1926 37.1749 53.7575 37.4876L48.6498 41.1869C48.2147 41.4997 48.0399 42.0344 48.2094 42.5447L50.1718 48.5383C50.336 49.0433 50.1613 49.578 49.7314 49.896C49.2998 50.2088 48.7406 50.2088 48.3055 49.8908L43.2136 46.1758C42.7785 45.8595 42.2175 45.8595 41.7877 46.1758L36.6905 49.8908C36.2589 50.2071 35.6997 50.2071 35.2646 49.896C34.833 49.5797 34.66 49.0433 34.8295 48.5383L36.7918 42.5447C36.9561 42.0344 36.7813 41.4997 36.3515 41.1869L31.2403 37.4876C30.8087 37.1749 30.6357 36.6401 30.8 36.1351C30.9642 35.6249 31.4185 35.2981 31.9532 35.2981L38.2579 35.3086C38.7926 35.3139 39.2487 34.9819 39.4112 34.4716L41.3473 28.4675C41.5116 27.9625 41.9659 27.6305 42.5006 27.6305C43.0353 27.6305 43.4879 27.9625 43.6504 28.4675Z" fill="#F4F4F4"/>
<path fill-rule="evenodd" clip-rule="evenodd" d="M44.4139 77.2325C43.8041 77.54 43.1261 77.7183 42.3887 77.7532C40.9366 77.8179 39.6592 77.3216 38.6335 76.2924L35.1666 72.7958C34.7699 72.4044 34.3348 72.0829 33.8683 71.8452L34.4082 71.6425C36.2797 70.9436 38.2665 71.3804 39.6732 72.7958L43.14 76.2924C43.5315 76.6821 43.9578 76.9949 44.4139 77.2325ZM27.5427 72.5215L26.9887 72.7294C25.6257 73.2397 24.2593 73.1558 22.9662 72.4865C21.6731 71.8173 20.8221 70.7478 20.4447 69.3412L19.1865 64.5812C18.6763 62.6538 17.1753 61.2821 15.2094 60.9501L12.1427 60.4399C10.7063 60.197 9.56703 59.4438 8.77895 58.2154C7.99611 56.9922 7.78817 55.6397 8.1691 54.2331L9.45695 49.4836C9.98117 47.5562 9.36259 45.6201 7.82661 44.3462L5.42916 42.3699C4.30558 41.4438 3.69573 40.2206 3.62583 38.7632C3.56118 37.3111 4.05744 36.0338 5.08667 35.008L8.578 31.5412C9.99515 30.1345 10.4303 28.1477 9.73129 26.2762L8.64615 23.3685C8.1359 22.0021 8.21978 20.6338 8.88904 19.346C9.5583 18.0529 10.6225 17.1967 12.0291 16.8245L16.7891 15.5663C18.7217 15.0561 20.0934 13.5498 20.4202 11.584L20.9357 8.51728C21.1786 7.08615 21.9317 5.9416 23.1549 5.15876C24.3833 4.37067 25.7358 4.16273 27.1373 4.54541L28.2276 4.84247C28.0389 4.93159 27.8519 5.03993 27.6685 5.15876C26.4453 5.9416 25.6869 7.08615 25.4493 8.51728L24.9338 11.584C24.6018 13.5498 23.2353 15.0561 21.3026 15.5663L16.5427 16.8245C15.136 17.1967 14.0666 18.0529 13.3974 19.346C12.7281 20.6338 12.6495 22.0003 13.1545 23.3685L14.2449 26.2762C14.9438 28.1495 14.507 30.1345 13.0916 31.5412L9.60023 35.008C8.56577 36.0338 8.0695 37.3111 8.13416 38.7632C8.20405 40.2188 8.81739 41.4438 9.93748 42.3699L12.3349 44.3462C13.8762 45.6183 14.4895 47.5562 13.9688 49.4836L12.6757 54.2331C12.2947 55.6397 12.5027 56.9922 13.2908 58.2154C14.0736 59.4438 15.2182 60.197 16.6493 60.4399L19.716 60.9501C21.6871 61.2821 23.1881 62.6538 23.6983 64.5812L24.9565 69.3412C25.3287 70.7478 26.1849 71.8173 27.478 72.4865C27.4972 72.497 27.5217 72.511 27.5427 72.5215ZM35.3344 5.54843C35.9687 5.24088 36.5471 4.79005 37.0276 4.20642L39.0092 1.80897C39.9353 0.688877 41.1585 0.0755358 42.6106 0.00563933C43.5122 -0.0345511 44.344 0.14019 45.0919 0.526368C44.503 0.82867 43.9718 1.26028 43.5175 1.80897L41.5394 4.20642C40.2673 5.74763 38.3294 6.36098 36.402 5.84025L35.3344 5.54843Z" fill="#A78855"/>
<path fill-rule="evenodd" clip-rule="evenodd" d="M17.1206 61.684L4.06395 74.7406C3.39993 75.4047 3.24092 76.3797 3.65855 77.222C3.85251 77.6082 4.13384 77.9105 4.47634 78.1184L2.45982 78.4015C1.52845 78.5308 0.651252 78.0695 0.230126 77.222C-0.185758 76.3797 -0.0267435 75.4047 0.635525 74.7406L14.5344 60.8417L15.2089 60.9501C15.9114 61.0689 16.5562 61.3223 17.1206 61.684ZM14.9259 88.6343L14.7284 88.8318C14.0644 89.4958 13.0893 89.6548 12.2471 89.2372C11.3996 88.816 10.94 87.9389 11.0676 87.0075L12.0723 79.8309C12.1667 79.1371 11.9535 78.4976 11.4572 78.0083C11.3279 77.879 11.1899 77.7654 11.0466 77.6763L13.0631 77.3932C13.7568 77.2989 14.3964 77.512 14.8857 78.0066C15.3802 78.4976 15.5934 79.1354 15.5008 79.8291L14.496 87.0057C14.4104 87.6086 14.5746 88.1887 14.9259 88.6343ZM53.4528 72.0164L70.2699 88.8335C70.9391 89.4975 71.9089 89.6566 72.7564 89.2389C73.0535 89.0852 73.3069 88.8825 73.4991 88.6343L58.1446 73.2798C58.0502 73.2606 57.9506 73.2344 57.858 73.2099L53.4528 72.0164ZM77.3818 77.678L82.5385 78.4015C83.0487 78.4714 83.5397 78.3665 83.9504 78.1184L78.7885 77.395C78.2783 77.3268 77.7925 77.4247 77.3818 77.678Z" fill="#1C1D21"/>
</svg>
