<svg width="116" height="652" viewBox="0 0 116 652" fill="none" xmlns="http://www.w3.org/2000/svg">
<g clip-path="url(#clip0_58_269)">
<g opacity="0.8">
<mask id="path-1-inside-1_58_269" fill="white">
<path d="M-31.3533 223.924L-32.3039 237.242C-32.3622 238.155 -32.2272 239.069 -31.9077 239.926C-31.5882 240.782 -31.0914 241.562 -30.4501 242.213L-16.3688 256.303C-15.7121 256.96 -14.9231 257.47 -14.0543 257.798C-13.1855 258.126 -12.257 258.265 -11.3303 258.206L1.90748 257.231C2.74988 257.172 3.54505 256.82 4.15504 256.236C4.76503 255.651 5.15127 254.872 5.24659 254.032L6.10218 246.303C6.16406 245.777 6.1088 245.245 5.94032 244.743C5.77183 244.241 5.49436 243.783 5.12782 243.402C4.58061 242.854 3.87278 242.496 3.10768 242.379L14.4561 231.023C15.264 230.208 15.7164 229.107 15.7141 227.959C15.7119 226.811 15.2553 225.711 14.4442 224.899L1.01612 211.463C0.617397 211.051 0.141066 210.723 -0.385611 210.497C-0.912287 210.272 -1.47865 210.153 -2.0515 210.149C-2.62436 210.145 -3.19231 210.254 -3.7224 210.472C-4.2525 210.689 -4.73412 211.01 -5.13915 211.415L-16.6894 222.973C-16.7972 222.261 -17.1304 221.603 -17.6401 221.094C-17.9852 220.736 -18.4015 220.455 -18.8621 220.269C-19.3226 220.083 -19.8173 219.995 -20.3138 220.012L-28.1092 220.678C-28.9467 220.747 -29.7325 221.111 -30.3267 221.705C-30.9208 222.3 -31.2846 223.086 -31.3533 223.924ZM-25.1028 242.807C-23.9738 242.035 -22.6104 241.681 -21.2486 241.808C-19.8869 241.935 -18.6124 242.534 -17.6454 243.502C-16.6783 244.47 -16.0795 245.745 -15.9527 247.108C-15.8259 248.471 -16.1793 249.835 -16.9512 250.964L-25.1028 242.807Z"/>
<path d="M-23.2558 285.091C-24.8137 286.65 -24.8137 289.177 -23.2558 290.736C-23.2521 290.74 -23.2479 290.743 -23.2441 290.747C-23.249 290.745 -23.2538 290.742 -23.2588 290.74C-25.2932 289.894 -27.6276 290.859 -28.473 292.895C-29.3184 294.93 -28.3547 297.266 -26.3203 298.112C-26.2731 298.132 -26.2256 298.15 -26.1781 298.167C-26.2287 298.165 -26.2792 298.163 -26.3302 298.163C-28.5332 298.163 -30.3193 299.95 -30.3193 302.155C-30.3193 304.359 -28.5333 306.147 -26.3302 306.147C-24.1272 306.147 -22.3414 304.359 -22.3414 302.155C-22.3414 300.443 -23.4193 298.983 -24.9329 298.416C-23.3178 298.474 -21.7624 297.539 -21.1057 295.958C-20.4655 294.416 -20.8637 292.703 -21.9779 291.595C-20.5287 292.202 -18.7942 291.916 -17.6145 290.736C-16.4044 289.525 -16.1349 287.73 -16.8048 286.258C-15.7036 287.442 -13.9436 287.882 -12.3618 287.228C-10.8197 286.591 -9.89048 285.098 -9.89501 283.526C-9.29956 284.981 -7.87118 286.006 -6.20287 286.006C-4.49159 286.006 -3.03258 284.927 -2.46618 283.413C-2.524 285.029 -1.59032 286.585 -0.00999832 287.242C1.53069 287.883 3.24283 287.484 4.3506 286.37C3.74349 287.82 4.02892 289.555 5.20863 290.736C6.41871 291.947 8.21268 292.217 9.68348 291.546C8.50051 292.648 8.06105 294.409 8.71412 295.992C9.35081 297.535 10.8431 298.465 12.4142 298.46C10.9602 299.056 9.93549 300.486 9.93556 302.155C9.93556 303.867 11.0136 305.328 12.5272 305.894C10.9121 305.836 9.35694 306.771 8.70021 308.352C8.05999 309.894 8.45787 311.607 9.57203 312.716C8.12294 312.108 6.38834 312.394 5.20863 313.574C3.99854 314.785 3.7292 316.58 4.39906 318.052C3.29789 316.868 1.53785 316.429 -0.0439339 317.082C-1.58602 317.719 -2.51526 319.212 -2.51073 320.785C-3.10618 319.33 -4.53449 318.304 -6.20287 318.304C-8.40588 318.304 -10.1918 320.091 -10.1918 322.296C-10.1918 324.5 -8.40595 326.287 -6.20287 326.287C-3.99979 326.288 -2.21398 324.5 -2.21398 322.296C-2.21398 322.291 -2.21428 322.285 -2.21435 322.28C-2.21235 322.285 -2.21067 322.29 -2.20861 322.295C-1.36789 324.332 0.964529 325.302 3.00074 324.461C5.03703 323.62 6.00613 321.286 5.16542 319.248C5.1459 319.201 5.12482 319.155 5.10377 319.109C5.13821 319.146 5.17253 319.183 5.20863 319.219C6.7663 320.778 9.29213 320.778 10.8499 319.219C12.4076 317.66 12.4076 315.133 10.8499 313.574C10.8461 313.57 10.8423 313.567 10.8385 313.563C10.8434 313.565 10.8481 313.568 10.853 313.57C12.8875 314.416 15.222 313.451 16.0673 311.415C16.9126 309.38 15.9487 307.044 13.9143 306.198C13.8672 306.178 13.8196 306.16 13.7721 306.143C13.8227 306.145 13.8734 306.147 13.9244 306.147C16.1275 306.147 17.9134 304.36 17.9135 302.155C17.9135 299.95 16.1275 298.163 13.9244 298.163C13.9191 298.163 13.914 298.164 13.9086 298.164C13.9135 298.162 13.9186 298.16 13.9236 298.158C15.9599 297.317 16.9291 294.983 16.0883 292.945C15.2476 290.908 12.915 289.938 10.8788 290.779C10.8316 290.799 10.7856 290.82 10.7395 290.841C10.7767 290.806 10.8139 290.772 10.85 290.736C12.4078 289.177 12.4077 286.65 10.85 285.091C9.29225 283.532 6.76661 283.532 5.20887 285.091C5.20508 285.095 5.2015 285.099 5.19777 285.102C5.19983 285.098 5.20229 285.093 5.20436 285.088C6.04974 283.052 5.08575 280.716 3.0514 279.87C1.01699 279.024 -1.31752 279.989 -2.16283 282.024C-2.18242 282.072 -2.19999 282.119 -2.21764 282.167C-2.21578 282.116 -2.21391 282.065 -2.21398 282.014C-2.21398 279.81 -3.99979 278.023 -6.20287 278.023C-8.40588 278.023 -10.1918 279.81 -10.1918 282.014C-10.1918 282.02 -10.1914 282.025 -10.1914 282.03C-10.1934 282.025 -10.1951 282.02 -10.1971 282.015C-11.0379 279.978 -13.3702 279.008 -15.4065 279.849C-17.4428 280.69 -18.412 283.024 -17.5713 285.062C-17.5518 285.109 -17.5306 285.155 -17.5095 285.201C-17.544 285.164 -17.5783 285.127 -17.6145 285.091C-19.1724 283.532 -21.698 283.532 -23.2558 285.091Z"/>
<path d="M-18.3107 314.271C-19.484 313.097 -21.3865 313.097 -22.5598 314.271C-23.7332 315.445 -23.7332 317.348 -22.5598 318.523C-21.3865 319.697 -19.484 319.697 -18.3107 318.523C-17.1373 317.348 -17.1373 315.445 -18.3107 314.271Z"/>
<path d="M-12.536 319.782C-13.4044 319.47 -14.2484 319.094 -15.0609 318.657C-15.4338 319.549 -16.0236 320.333 -16.7767 320.939C-15.5779 321.616 -14.3166 322.175 -13.0104 322.609C-13.0153 322.505 -13.0178 322.4 -13.0179 322.296C-13.0183 321.435 -12.8547 320.582 -12.536 319.782ZM-23.818 308.492C-24.6173 308.811 -25.4698 308.975 -26.3303 308.975C-26.435 308.974 -26.5399 308.972 -26.6445 308.967C-26.2107 310.274 -25.6516 311.536 -24.9751 312.736C-24.8457 312.575 -24.7072 312.42 -24.5582 312.271C-24.0242 311.736 -23.3907 311.311 -22.6936 311.019C-23.1306 310.206 -23.5066 309.361 -23.818 308.492Z"/>
<path d="M59.9575 415.362L35.0532 428.308C34.6484 428.518 34.3276 428.86 34.1448 429.278C33.9619 429.696 33.928 430.164 34.0485 430.605L35.6227 436.404L31.9523 437.402C27.0455 438.736 24.2442 444.157 25.6901 449.483L26.7396 453.349C28.1855 458.675 33.3431 461.933 38.2499 460.599L41.9205 459.601L43.4949 465.4C43.6135 465.841 43.8797 466.227 44.2488 466.495C44.6179 466.763 45.0677 466.896 45.5231 466.873L73.5501 465.429L73.5599 465.426C73.926 465.408 74.2879 465.341 74.6362 465.227C76.0716 464.724 77.2639 463.696 77.9738 462.35C78.6836 461.004 78.8586 459.439 78.4639 457.97L67.9677 419.308C67.5649 417.84 66.6226 416.579 65.3297 415.778C64.0368 414.976 62.489 414.693 60.9965 414.986C60.6352 415.065 60.2859 415.192 59.9575 415.362ZM37.2004 456.733C34.4283 457.486 31.4718 455.498 30.6033 452.299L29.5536 448.432C28.685 445.233 30.2298 442.021 33.002 441.268L36.6724 440.27L40.8709 455.735L37.2004 456.733Z"/>
<path d="M-2.71557 476.066C-2.82376 475.544 -3.03903 475.05 -3.34777 474.615C-3.65651 474.18 -4.052 473.814 -4.50927 473.54L-6.99193 472.111C-6.71682 474.094 -6.46074 476.071 -6.27904 477.728L-3.42284 478.37C-3.26871 478.419 -3.13688 478.52 -3.05028 478.657C-2.96369 478.794 -2.928 478.957 -2.94945 479.117C-2.96487 479.199 -2.99682 479.276 -3.04345 479.345C-3.09008 479.413 -3.15034 479.472 -3.22045 479.516C-3.29056 479.56 -3.36908 479.59 -3.45104 479.603C-3.533 479.615 -3.61679 479.611 -3.69701 479.59L-6.14501 479.039C-6.05606 479.833 -6.01416 480.633 -6.01964 481.432C-6.02728 481.616 -6.04121 481.829 -6.05651 482.045L-3.51317 482.617C-3.35522 482.66 -3.21903 482.76 -3.13158 482.899C-3.04414 483.037 -3.01175 483.204 -3.04076 483.365C-3.05721 483.446 -3.08986 483.523 -3.13671 483.591C-3.18356 483.659 -3.24371 483.717 -3.31347 483.761C-3.38323 483.805 -3.4612 483.835 -3.54272 483.848C-3.62423 483.862 -3.70749 483.858 -3.78771 483.839L-6.16491 483.305C-6.2372 484.042 -6.31761 484.778 -6.40612 485.514C-6.43034 485.712 -6.46888 485.909 -6.50146 486.107L-4.21874 486.619C-4.06203 486.664 -3.92724 486.765 -3.83996 486.903C-3.75268 487.041 -3.71887 487.206 -3.74511 487.367C-3.78346 487.528 -3.88305 487.667 -4.0227 487.755C-4.16234 487.844 -4.33095 487.874 -4.49254 487.84L-6.7528 487.332C-6.97165 488.223 -7.27237 489.091 -7.65111 489.926L-5.29626 490.456C-5.13709 490.497 -4.99935 490.597 -4.91137 490.736C-4.82339 490.875 -4.79167 491.042 -4.82262 491.204C-4.84044 491.284 -4.87386 491.36 -4.92113 491.427C-4.96841 491.494 -5.02878 491.552 -5.09826 491.595C-5.16773 491.639 -5.24515 491.669 -5.32616 491.683C-5.40717 491.697 -5.48995 491.695 -5.57006 491.676L-8.24242 491.075C-8.78491 492.034 -9.43776 492.925 -10.1879 493.732C-11.1693 494.78 -11.4741 495.435 -11.2378 495.993C-10.444 497.263 -9.20502 498.191 -7.7633 498.595C-7.09485 498.781 -6.39027 498.796 -5.71459 498.638C-4.82621 496.903 -0.201948 487.122 -2.71557 476.066ZM-8.92846 461.498C-8.49718 461.411 -8.05207 461.421 -7.62499 461.526C-5.45714 462.544 -3.51881 463.991 -1.92797 465.782C-0.337123 467.573 0.873012 469.668 1.62867 471.942C4.1149 479.093 6.45459 479.823 8.49366 479.453C3.515 467.486 -1.10015 460.269 -8.77709 457.168C-9.13866 457.828 -9.34066 458.563 -9.36693 459.315C-9.39321 460.067 -9.24309 460.815 -8.92846 461.498Z"/>
<path d="M10.3817 484.148C9.90624 482.926 9.4383 481.76 8.97328 480.62C5.25164 481.393 2.75945 478.951 0.451794 472.353C-0.234653 470.264 -1.33532 468.335 -2.78454 466.682C-4.23375 465.029 -6.00157 463.685 -7.98205 462.732L-8.3861 462.737C-8.1931 463.957 -7.69876 467.123 -7.21044 470.546L-3.88769 472.456C-2.94691 473.006 -2.21288 473.85 -1.79857 474.858C-1.67091 475.159 -1.57036 475.47 -1.49804 475.789C0.0532801 483.357 -0.866508 491.224 -4.12182 498.23C-2.94307 498.606 -1.87229 499.262 -0.99999 500.14C-0.127688 501.018 0.52055 502.093 0.889782 503.275C1.30744 504.415 1.48925 505.628 1.42445 506.841C1.35965 508.054 1.04949 509.241 0.512707 510.33C0.404493 510.56 0.367366 510.817 0.405895 511.068C0.444425 511.319 0.557013 511.553 0.729137 511.739C0.901361 511.925 1.12538 512.054 1.37208 512.11C1.61878 512.167 1.87673 512.147 2.11232 512.055C3.72855 511.38 5.42415 510.914 7.15821 510.669C9.33634 510.366 11.4731 509.816 13.5271 509.031C14.0194 506.622 15.4252 497.108 10.3817 484.148Z"/>
<path d="M-6.22106 454.886L-7.93566 456.179C-0.296661 459.43 4.37416 466.51 9.26161 478.053C10.0134 479.828 10.7692 481.706 11.5433 483.695C16.4872 496.401 15.4354 505.711 14.841 508.838L20.7883 509.654C20.9344 509.674 21.0827 509.641 21.2069 509.562C21.3786 509.453 25.3868 506.789 22.5106 498.343C21.3825 495.039 18.469 487.198 15.1633 479.391C11.7211 471.261 7.86096 463.167 5.17042 460.266C2.57961 457.273 -0.950278 455.249 -4.84069 454.527C-5.08308 454.492 -5.32987 454.505 -5.56688 454.567C-5.8039 454.629 -6.02633 454.737 -6.22106 454.886Z"/>
<path d="M20.131 392.611C23.5479 394.63 27.5479 395.429 31.4776 394.879C35.4072 394.329 39.0344 392.462 41.7667 389.583L41.9362 393.859C41.9794 394.948 41.6159 396.014 40.9165 396.849C40.2171 397.684 39.2319 398.229 38.153 398.377L26.0172 400.076C24.9391 400.23 23.8424 399.976 22.9408 399.365C22.0392 398.754 21.3974 397.828 21.1404 396.769L20.131 392.611ZM16.3274 365.396L16.158 361.12C16.1147 360.032 16.4782 358.965 17.1776 358.13C17.877 357.295 18.8622 356.75 19.9412 356.602L32.0768 354.903C33.155 354.75 34.2517 355.003 35.1533 355.614C36.0549 356.226 36.6968 357.151 36.9537 358.21L37.963 362.368C34.5461 360.35 30.5463 359.55 26.6166 360.1C22.6869 360.65 19.0598 362.517 16.3274 365.396Z"/>
<path d="M20.9229 389.646C23.9301 391.56 27.5204 392.341 31.0505 391.848C34.5807 391.355 37.8202 389.621 40.1887 386.955C42.6975 383.998 43.9296 380.165 43.6141 376.299C43.2987 372.433 41.4613 368.851 38.5064 366.341C35.5514 363.83 31.721 362.597 27.8576 362.913C23.9941 363.229 20.4141 365.067 17.9053 368.024C16.5936 369.605 15.6259 371.442 15.0641 373.418C14.5023 375.394 14.3587 377.466 14.6426 379.501C14.9264 381.536 15.6316 383.49 16.7128 385.236C17.7939 386.983 19.2287 388.485 20.9229 389.646ZM22.9279 372.869C23.1615 372.559 23.5083 372.355 23.8923 372.301C24.2763 372.248 24.6662 372.349 24.9757 372.582L29.9276 376.322C30.2356 376.557 30.4395 376.903 30.4953 377.287L31.5079 384.533C31.5617 384.917 31.4605 385.307 31.2269 385.617C30.9933 385.927 30.6463 386.131 30.2622 386.184C29.8781 386.238 29.4885 386.137 29.179 385.903C28.8694 385.67 28.6653 385.322 28.6116 384.938L27.6828 378.292L23.2144 374.918C22.9049 374.684 22.7009 374.337 22.6472 373.953C22.5935 373.569 22.6944 373.179 22.9279 372.869Z"/>
<path d="M63.854 373.978L68.1709 386.612C68.473 387.474 68.9537 388.264 69.5818 388.928C70.2099 389.592 70.971 390.115 71.8154 390.465L90.2745 397.942C91.1353 398.29 92.0603 398.452 92.9882 398.415C93.916 398.377 94.8252 398.143 95.6554 397.727L107.464 391.661C108.217 391.278 108.812 390.644 109.146 389.868C109.48 389.092 109.531 388.223 109.292 387.413L107.066 379.962C106.918 379.454 106.66 378.985 106.309 378.589C105.958 378.192 105.524 377.879 105.038 377.671C104.321 377.38 103.529 377.326 102.779 377.518L108.801 362.632C109.228 361.566 109.215 360.375 108.765 359.319C108.316 358.263 107.466 357.428 106.403 356.998L88.8007 349.867C88.2731 349.644 87.7063 349.528 87.1334 349.526C86.5606 349.524 85.9931 349.636 85.4639 349.855C84.9347 350.075 84.4544 350.398 84.051 350.805C83.6477 351.212 83.3293 351.695 83.1144 352.226L76.9851 367.378C76.6084 366.764 76.0448 366.288 75.3773 366.019C74.9202 365.824 74.4273 365.728 73.9305 365.736C73.4338 365.744 72.9441 365.857 72.4935 366.066L65.5756 369.722C64.8313 370.113 64.2496 370.755 63.9343 371.534C63.6191 372.313 63.5906 373.179 63.854 373.978ZM76.971 388.924C77.7094 387.773 78.8267 386.915 80.13 386.5C81.4333 386.086 82.8407 386.14 84.1084 386.653C85.3761 387.167 86.4245 388.107 87.0725 389.313C87.7205 390.518 87.9273 391.912 87.657 393.253L76.971 388.924Z"/>
<path d="M53.6773 286.302C53.6729 285.768 53.558 285.242 53.34 284.755C53.1219 284.268 52.8054 283.832 52.4103 283.474L50.2539 281.588C50.1372 283.587 50.0031 285.575 49.8583 287.235L52.5344 288.423C52.676 288.501 52.7856 288.626 52.8439 288.777C52.9022 288.928 52.9053 289.095 52.853 289.248C52.822 289.325 52.7756 289.395 52.7164 289.453C52.6573 289.511 52.5869 289.557 52.5095 289.587C52.4321 289.616 52.3493 289.63 52.2665 289.626C52.1836 289.623 52.1024 289.602 52.0278 289.566L49.7343 288.547C49.6666 289.344 49.552 290.136 49.3908 290.919C49.3475 291.098 49.2921 291.304 49.2349 291.513L51.6179 292.571C51.7645 292.644 51.8785 292.769 51.9373 292.922C51.996 293.075 51.9953 293.244 51.9354 293.396C51.9035 293.473 51.8567 293.542 51.7975 293.599C51.7383 293.657 51.668 293.702 51.591 293.732C51.5139 293.761 51.4317 293.775 51.3491 293.773C51.2666 293.77 51.1853 293.75 51.1105 293.715L48.8832 292.728C48.6686 293.437 48.4461 294.143 48.216 294.847C48.1535 295.037 48.0773 295.222 48.0067 295.41L50.146 296.359C50.2909 296.433 50.4033 296.559 50.462 296.711C50.5208 296.863 50.5219 297.031 50.4647 297.184C50.3958 297.334 50.2708 297.452 50.1166 297.511C49.9624 297.57 49.7911 297.567 49.6393 297.502L47.5214 296.563C47.1331 297.394 46.6688 298.187 46.1345 298.932L48.3411 299.911C48.4892 299.982 48.6047 300.107 48.6639 300.261C48.7232 300.414 48.7216 300.584 48.6598 300.737C48.6267 300.812 48.579 300.88 48.5195 300.937C48.4601 300.994 48.3899 301.038 48.3132 301.067C48.2365 301.097 48.1548 301.111 48.0726 301.109C47.9905 301.107 47.9096 301.088 47.8346 301.054L45.3308 299.943C44.6119 300.778 43.7976 301.525 42.9048 302.169C41.7378 303.006 41.3112 303.589 41.4342 304.182C41.9651 305.583 42.9996 306.735 44.335 307.412C44.9542 307.726 45.6424 307.878 46.3359 307.854C47.5455 306.326 53.9875 297.635 53.6773 286.302ZM50.4235 270.8C50.8634 270.799 51.2982 270.896 51.6964 271.083C53.6244 272.504 55.2432 274.302 56.4545 276.369C57.6657 278.435 58.4441 280.727 58.7421 283.104C59.7866 290.603 61.939 291.776 64.011 291.811C61.4606 279.102 58.3407 271.123 51.4158 266.583C50.9326 267.16 50.5912 267.841 50.4188 268.574C50.2465 269.306 50.2481 270.069 50.4235 270.8Z"/>
<path d="M64.9475 296.784C64.7194 295.493 64.4877 294.258 64.2538 293.05C60.4529 293.082 58.4847 290.2 57.5076 283.278C57.2415 281.095 56.5378 278.988 55.4387 277.084C54.3396 275.18 52.8677 273.517 51.1111 272.195L50.7139 272.121C50.6654 273.355 50.5331 276.557 50.3447 280.01L53.2312 282.532C54.0467 283.255 54.6022 284.226 54.812 285.296C54.8786 285.615 54.9167 285.94 54.9255 286.267C54.9717 293.993 52.5359 301.529 47.9775 307.765C49.0602 308.364 49.9828 309.216 50.6671 310.247C51.3515 311.279 51.7775 312.46 51.9093 313.691C52.0967 314.891 52.0387 316.117 51.7388 317.293C51.4388 318.47 50.9032 319.574 50.1644 320.537C50.0135 320.741 49.9269 320.986 49.9158 321.24C49.9046 321.493 49.9695 321.745 50.1019 321.962C50.2347 322.177 50.4292 322.348 50.6602 322.451C50.8911 322.555 51.1478 322.586 51.3969 322.541C53.1136 322.195 54.8676 322.069 56.6162 322.167C58.8115 322.295 61.0143 322.173 63.182 321.803C64.1344 319.537 67.3677 310.48 64.9475 296.784Z"/>
<path d="M54.3679 264.843L52.4341 265.777C59.2926 270.457 62.4937 278.312 65.0371 290.588C65.4283 292.476 65.8036 294.466 66.1753 296.567C68.5474 309.994 65.7008 318.92 64.5083 321.871L70.1824 323.832C70.3217 323.88 70.4735 323.877 70.6108 323.823C70.8005 323.75 75.2509 321.919 74.0764 313.074C73.614 309.614 72.2847 301.355 70.5645 293.052C68.7731 284.407 66.5648 275.715 64.4916 272.344C62.5339 268.903 59.4664 266.229 55.7916 264.761C55.5607 264.679 55.3159 264.645 55.0714 264.659C54.8269 264.673 54.5879 264.736 54.3679 264.843Z"/>
<path d="M93.7301 263.621C93.5754 263.742 93.3838 263.805 93.1878 263.801C92.9917 263.797 92.803 263.726 92.6536 263.599C86.7584 258.647 83.259 253.549 80.3818 249.954C72.687 240.34 69.9393 229.139 63.066 229.612C59.5968 229.85 55.64 231.763 54.4806 235.101C54.4027 235.316 54.2522 235.497 54.0548 235.614C53.8575 235.73 53.6259 235.773 53.3999 235.737C49.937 235.198 46.5097 234.409 43.0288 234C39.4959 233.587 38.6273 232.684 38.5348 231.714C38.4928 231.27 40.7146 230.159 42.7346 229.176C48.8034 226.49 55.0308 224.177 61.3818 222.251C68.0102 220.444 70.737 222.342 73.6831 226.256C78.4452 232.582 77.9527 234.496 82.5054 239.105C84.9959 241.628 86.4025 241.986 88.0199 242.326C88.4128 242.41 88.8187 242.412 89.2127 242.333C89.6066 242.254 89.9802 242.095 90.3103 241.866C91.216 241.207 91.1938 239.929 90.9291 238.55L86.3043 217.48C86.2963 217.443 86.2955 217.405 86.3024 217.367C86.3092 217.33 86.3234 217.295 86.3441 217.263C86.3648 217.231 86.3918 217.204 86.4231 217.183C86.4544 217.162 86.4895 217.147 86.5266 217.14L87.8617 216.871C87.9336 216.856 88.0083 216.869 88.0704 216.909C88.1326 216.948 88.1769 217.009 88.1941 217.081C89.5424 223.253 93.5611 239.097 96.0946 244.454C99.6495 251.969 98.8469 254.12 98.2631 256.498C97.5569 259.296 95.9679 261.794 93.7312 263.622L93.7301 263.621Z"/>
<path d="M12.1268 197.036L13.9364 207.678C14.1558 208.968 15.38 209.836 16.6705 209.617L58.1309 202.557C59.4209 202.337 60.2898 201.115 60.0701 199.823L58.3369 189.63C54.3068 192.638 46.3389 197.55 35.3655 199.418C23.7252 201.4 15.7697 198.746 12.1268 197.036ZM53.6414 176.164L12.1817 183.223C10.892 183.443 10.023 184.667 10.2426 185.959L11.6265 194.097C13.4957 195.179 21.7503 199.332 34.9663 197.082C46.3426 195.145 54.4763 189.647 57.8828 186.971L56.3749 178.104C56.1564 176.813 54.9332 175.944 53.6414 176.164ZM39.6249 194.434L31.449 195.826L30.7288 191.59L38.9045 190.198L39.6249 194.434Z"/>
<path d="M93.625 509.585C94.1489 509.486 94.6468 509.281 95.0872 508.98C95.5275 508.68 95.9009 508.291 96.1835 507.839L97.6592 505.382C95.6725 505.619 93.6931 505.837 92.0341 505.987L91.3374 508.832C91.2854 508.986 91.181 509.116 91.0427 509.2C90.9045 509.284 90.741 509.316 90.5812 509.292C90.5 509.275 90.4233 509.241 90.3556 509.193C90.2879 509.145 90.2307 509.084 90.1878 509.013C90.1448 508.942 90.1171 508.863 90.106 508.78C90.0949 508.698 90.1007 508.615 90.1233 508.535L90.7213 506.096C89.9257 506.17 89.1263 506.196 88.3275 506.175C88.1444 506.164 87.9317 506.146 87.7157 506.127L87.0955 508.66C87.0495 508.817 86.9463 508.952 86.8063 509.036C86.6662 509.121 86.4995 509.15 86.339 509.118C86.2584 509.1 86.1823 509.066 86.1152 509.018C86.0481 508.97 85.9915 508.909 85.9486 508.838C85.9057 508.767 85.8776 508.689 85.8659 508.607C85.8541 508.525 85.8588 508.442 85.88 508.362L86.4594 505.994C85.7243 505.907 84.9901 505.813 84.2571 505.71C84.0592 505.682 83.8635 505.639 83.6663 505.603L83.1099 507.877C83.0619 508.033 82.9586 508.166 82.8192 508.251C82.6799 508.335 82.5142 508.366 82.3539 508.336C82.194 508.295 82.0565 508.193 81.971 508.051C81.8854 507.91 81.8586 507.74 81.896 507.579L82.4467 505.328C81.561 505.092 80.699 504.774 79.8718 504.379L79.2972 506.725C79.2533 506.883 79.1506 507.019 79.0101 507.105C78.8697 507.19 78.702 507.218 78.5413 507.184C78.4614 507.165 78.3861 507.13 78.3198 507.081C78.2535 507.033 78.1976 506.972 78.155 506.901C78.1125 506.831 78.0841 506.753 78.0718 506.671C78.0595 506.59 78.0636 506.507 78.0835 506.427L78.7354 503.765C77.7881 503.204 76.9101 502.534 76.119 501.768C75.0901 500.765 74.4416 500.448 73.8794 500.674C72.595 501.443 71.6441 502.665 71.213 504.1C71.0137 504.765 70.9853 505.47 71.1305 506.149C72.8472 507.071 82.5304 511.886 93.625 509.585ZM108.301 503.65C108.38 504.083 108.361 504.528 108.247 504.953C107.189 507.102 105.705 509.014 103.885 510.571C102.066 512.128 99.9482 513.298 97.6621 514.01C90.4693 516.36 89.6949 518.687 90.0253 520.734C102.078 515.984 109.377 511.505 112.624 503.885C111.972 503.51 111.241 503.294 110.49 503.253C109.74 503.212 108.99 503.348 108.301 503.65Z"/>
<path d="M85.2974 522.532C86.5276 522.08 87.7015 521.634 88.8494 521.191C88.1486 517.453 90.6371 515.006 97.2741 512.825C99.3746 512.179 101.323 511.115 103.003 509.697C104.683 508.278 106.059 506.536 107.05 504.573L107.053 504.168C105.83 504.338 102.657 504.771 99.2274 505.194L97.2547 508.481C96.6872 509.412 95.8298 510.13 94.8145 510.525C94.5116 510.647 94.1984 510.742 93.8788 510.808C86.2869 512.214 78.4445 511.142 71.5076 507.75C71.1085 508.922 70.4332 509.981 69.5389 510.836C68.6447 511.692 67.5578 512.32 66.3699 512.667C65.2226 513.062 64.0068 513.221 62.7964 513.133C61.586 513.045 60.406 512.711 59.3281 512.153C59.1007 512.041 58.8449 511.998 58.5933 512.032C58.3417 512.066 58.1057 512.174 57.9159 512.342C57.7272 512.511 57.5938 512.733 57.5327 512.979C57.4717 513.224 57.4861 513.483 57.5739 513.72C58.217 515.35 58.6497 517.056 58.8615 518.795C59.1219 520.98 59.6299 523.129 60.3754 525.199C62.7725 525.738 72.2506 527.328 85.2974 522.532Z"/>
<path d="M114.855 506.486L113.597 504.746C110.201 512.325 103.037 516.862 91.4091 521.529C89.6205 522.247 87.7295 522.967 85.728 523.703C72.9374 528.404 63.6549 527.172 60.5425 526.517L59.6122 532.452C59.5896 532.597 59.6194 532.746 59.6962 532.872C59.8021 533.046 62.3864 537.108 70.8806 534.393C74.2034 533.328 82.0937 530.564 89.9581 527.408C98.1477 524.121 106.309 520.415 109.26 517.779C112.3 515.245 114.39 511.752 115.188 507.874C115.227 507.632 115.218 507.385 115.161 507.147C115.104 506.908 115 506.683 114.855 506.486Z"/>
<path d="M41.3776 87.8757C43.0493 84.2747 43.4514 80.2129 42.5183 76.3537C41.5853 72.4945 39.3723 69.0659 36.2405 66.6278L40.476 66.039C41.5546 65.889 42.6506 66.1462 43.5501 66.7606C44.4495 67.375 45.0882 68.3025 45.3416 69.3624L48.223 81.2804C48.4819 82.339 48.3376 83.4561 47.8182 84.414C47.2989 85.3719 46.4416 86.1019 45.4137 86.4619L41.3776 87.8757ZM14.686 94.3374L10.4506 94.9263C9.37189 95.0763 8.27596 94.819 7.37648 94.2046C6.47699 93.5902 5.83845 92.6627 5.58509 91.6028L2.7035 79.6847C2.44468 78.6261 2.58918 77.5091 3.10853 76.5512C3.62788 75.5933 4.4849 74.8632 5.51283 74.5033L9.54908 73.0896C7.87735 76.6905 7.47504 80.7523 8.40809 84.6115C9.34114 88.4707 11.5543 91.8993 14.686 94.3374Z"/>
<path d="M38.3507 87.3784C39.9595 84.1956 40.3833 80.5436 39.5462 77.0766C38.709 73.6096 36.6658 70.5542 33.7822 68.4575C30.5951 66.2497 26.6619 65.3992 22.8482 66.0933C19.0344 66.7873 15.6524 68.9689 13.4461 72.1582C11.2398 75.3474 10.3901 79.2831 11.0836 83.0994C11.7772 86.9157 13.9573 90.3 17.1444 92.5078C18.8454 93.6587 20.7675 94.4418 22.7881 94.8071C24.8087 95.1723 26.8834 95.1118 28.8793 94.6292C30.8751 94.1466 32.7483 93.2525 34.3793 92.0043C36.0102 90.756 37.3626 89.1796 38.3507 87.3784ZM21.4694 87.0303C21.1384 86.8281 20.9012 86.5026 20.8101 86.1255C20.7189 85.7484 20.7811 85.3504 20.983 85.0192L24.2153 79.7204C24.4189 79.3906 24.7435 79.1536 25.1195 79.0604L32.2257 77.34C32.6027 77.2487 33.0005 77.3111 33.3316 77.5133C33.6626 77.7154 33.8997 78.0409 33.9909 78.4181C34.082 78.7953 34.0198 79.1933 33.8178 79.5245C33.6157 79.8558 33.2904 80.0932 32.9135 80.1845L26.3956 81.7623L23.479 86.5437C23.277 86.8748 22.9517 87.1121 22.5748 87.2034C22.198 87.2946 21.8004 87.2324 21.4694 87.0303Z"/>
<path d="M19.6947 48.1179L31.8347 42.5778C32.6631 42.1922 33.4008 41.6359 33.9994 40.9452C34.598 40.2545 35.0441 39.4451 35.3084 38.5699L40.9308 19.4532C41.1929 18.5618 41.2623 17.6248 41.1343 16.7045C41.0062 15.7842 40.6839 14.9017 40.1884 14.1159L32.996 2.95247C32.5412 2.24045 31.8516 1.71031 31.0469 1.45412C30.2422 1.19792 29.3734 1.23186 28.5911 1.55003L21.3998 4.49824C20.909 4.69549 20.4679 4.99911 20.1084 5.38728C19.7489 5.77546 19.48 6.23854 19.3207 6.74321C19.1021 7.48613 19.1265 8.27947 19.3904 9.00751L3.9944 4.47337C2.89281 4.15359 1.70936 4.28359 0.703381 4.83498C-0.302599 5.38636 -1.04908 6.31418 -1.37292 7.41525L-6.73461 25.6447C-6.90489 26.192 -6.96451 26.7677 -6.91027 27.3384C-6.85603 27.9091 -6.68891 28.4633 -6.41857 28.9687C-6.14823 29.4741 -5.78003 29.9207 -5.33556 30.2823C-4.8911 30.644 -4.37917 30.9136 -3.82958 31.0754L11.8403 35.6903C11.2673 36.1257 10.8491 36.7337 10.6471 37.4249C10.4984 37.8992 10.451 38.3996 10.5079 38.8935C10.5649 39.3874 10.7248 39.8638 10.9776 40.2918L15.2935 46.8217C15.7547 47.5245 16.4502 48.0406 17.2562 48.278C18.0623 48.5154 18.9266 48.4587 19.6947 48.1179ZM33.2703 33.5873C32.0521 32.9651 31.0896 31.9365 30.5491 30.6794C30.0085 29.4223 29.9241 28.0157 30.3102 26.7028C30.6963 25.39 31.5287 24.2534 32.6636 23.4897C33.7985 22.726 35.1644 22.3832 36.5252 22.5205L33.2703 33.5873Z"/>
<path d="M50.4823 147.361C51.2482 145.018 51.3712 144.097 50.8071 143.589C48.8569 141.83 43.7533 137.913 38.7791 135.624C35.6726 134.191 34.0005 133.436 33.141 132.809C32.2815 132.183 31.0513 130.823 28.7349 128.303C25.031 124.268 19.7413 120.609 17.4685 119.291C16.8152 118.911 15.9738 119.309 13.9805 120.757C12.2353 122.023 12.7644 123.289 11.2374 127.088C8.84647 133.039 13.825 138.248 18.5852 140.127C23.76 142.173 27.3373 136.877 28.257 136.252C29.175 135.624 29.9626 135.366 30.8234 135.994C31.6866 136.623 31.6816 137.451 31.366 138.518C31.0538 139.586 27.1124 144.619 30.6456 148.917C33.8953 152.874 40.3754 156.018 45.3032 151.917C48.4496 149.298 49.8146 149.413 50.4823 147.361ZM24.2758 121.243C28.1632 120.436 30.9945 119.875 32.6765 120.558C33.4048 120.854 34.4482 122.295 34.7699 122.98C35.6326 124.813 37.9108 124.234 37.1381 122.206C36.2846 119.963 34.3011 118.382 32.2267 118.362C29.92 118.341 24.2108 118.576 20.7985 118.728C21.9863 119.526 23.1461 120.365 24.2758 121.243ZM41.991 128.243C42.7417 128.34 44.4311 128.892 44.9375 129.495C46.1015 130.887 46.4359 133.756 46.8619 137.705C48.0447 138.511 49.1992 139.358 50.3232 140.245C49.4205 136.948 47.8932 131.438 47.1653 129.248C46.51 127.278 44.3978 125.874 42.0023 125.75C39.834 125.636 39.985 127.983 41.991 128.243Z"/>
<path d="M41.6395 634.428L30.5995 608.609C30.4204 608.19 30.103 607.844 29.7001 607.631C29.2972 607.417 28.8332 607.348 28.3856 607.435L22.4888 608.573L21.7687 604.836C20.8061 599.84 15.6125 596.639 10.1972 597.684L6.26588 598.443C0.850585 599.487 -2.78147 604.391 -1.81884 609.387L-1.09887 613.124L-6.99572 614.261C-7.44367 614.347 -7.84866 614.584 -8.1433 614.932C-8.43794 615.28 -8.60432 615.719 -8.61461 616.175L-9.27025 644.25L-9.26842 644.26C-9.27762 644.627 -9.23784 644.993 -9.15026 645.349C-8.75594 646.819 -7.82073 648.086 -6.53246 648.895C-5.24419 649.704 -3.69802 649.995 -2.20385 649.711L37.1087 642.126C38.6012 641.834 39.9283 640.988 40.8236 639.758C41.719 638.528 42.1164 637.004 41.9363 635.493C41.8843 635.127 41.7846 634.769 41.6395 634.428ZM2.11244 608.628C1.56859 605.806 3.77083 603.004 7.02394 602.376L10.9551 601.618C14.2082 600.99 17.2934 602.772 17.8373 605.594L18.5575 609.331L2.83253 612.365L2.11244 608.628Z"/>
<path d="M32.1722 561.331C32.691 561.453 33.2294 561.467 33.7537 561.37C34.2779 561.274 34.7764 561.069 35.2178 560.77L37.561 559.122C35.6486 558.534 33.7503 557.932 32.1727 557.397L30.3845 559.716C30.275 559.835 30.127 559.912 29.9666 559.933C29.8062 559.953 29.6437 559.917 29.5075 559.83C29.4401 559.781 29.3835 559.72 29.3411 559.648C29.2986 559.577 29.2712 559.498 29.2606 559.415C29.2501 559.333 29.2567 559.249 29.2798 559.17C29.3029 559.09 29.3421 559.016 29.395 558.952L30.9282 556.964C30.1709 556.71 29.4293 556.41 28.7074 556.067C28.5445 555.983 28.3575 555.88 28.1679 555.775L26.5757 557.84C26.4701 557.965 26.3213 558.046 26.1589 558.067C25.9966 558.088 25.8323 558.047 25.6985 557.953C25.6321 557.904 25.5764 557.842 25.5346 557.77C25.4927 557.699 25.4655 557.62 25.4548 557.538C25.4442 557.456 25.4503 557.373 25.4727 557.293C25.495 557.214 25.5333 557.14 25.585 557.075L27.0725 555.144C26.4354 554.768 25.8024 554.384 25.1737 553.993C25.0041 553.887 24.8423 553.769 24.6766 553.656L23.2479 555.51C23.141 555.633 22.9927 555.712 22.8311 555.733C22.6694 555.754 22.5056 555.715 22.3709 555.623C22.2414 555.521 22.1571 555.371 22.1361 555.208C22.1151 555.044 22.1591 554.878 22.2584 554.746L23.6727 552.91C22.9584 552.335 22.2988 551.696 21.7023 550.999L20.2278 552.912C20.1235 553.039 19.9747 553.121 19.8118 553.143C19.6488 553.164 19.4839 553.122 19.3507 553.025C19.2855 552.975 19.2308 552.913 19.1898 552.842C19.1489 552.77 19.1225 552.692 19.1121 552.61C19.1016 552.529 19.1073 552.446 19.1289 552.366C19.1506 552.287 19.1877 552.213 19.2382 552.148L20.9115 549.978C20.2724 549.081 19.7405 548.112 19.327 547.091C18.7917 545.758 18.3272 545.205 17.7218 545.184C16.236 545.367 14.8722 546.099 13.8976 547.236C13.4462 547.764 13.1353 548.397 12.9933 549.076C14.1899 550.615 21.0963 558.941 32.1722 561.331ZM47.9928 561.849C47.8894 562.277 47.6925 562.676 47.4164 563.019C45.5794 564.556 43.4491 565.702 41.1552 566.389C38.8613 567.075 36.4516 567.288 34.0731 567.013C26.5456 566.247 24.8963 568.061 24.3703 570.067C37.3126 570.606 45.7991 569.468 51.8508 563.815C51.406 563.208 50.8254 562.715 50.1554 562.373C49.4854 562.032 48.7447 561.852 47.9928 561.849Z"/>
<path d="M19.3195 569.796C20.6273 569.881 21.8811 569.949 23.11 570.009C23.9816 566.307 27.2464 565.078 34.1978 565.772C36.38 566.032 38.5924 565.848 40.702 565.232C42.8117 564.616 44.7754 563.58 46.4753 562.186L46.6417 561.818C45.4551 561.477 42.3784 560.588 39.0712 559.585L35.9374 561.792C35.0421 562.413 33.9674 562.723 32.8792 562.673C32.5529 562.661 32.2285 562.621 31.9094 562.552C24.3986 560.762 17.6612 556.605 12.6903 550.693C11.8513 551.603 10.8055 552.298 9.64161 552.718C8.47769 553.138 7.22962 553.272 6.00319 553.108C4.79393 553.005 3.61835 552.658 2.54725 552.087C1.47616 551.516 0.531957 550.733 -0.227894 549.786C-0.390305 549.591 -0.607259 549.449 -0.850943 549.378C-1.09463 549.306 -1.35389 549.31 -1.59569 549.387C-1.83648 549.465 -2.04826 549.613 -2.20348 549.813C-2.3587 550.013 -2.45013 550.255 -2.46593 550.508C-2.53727 552.259 -2.83152 553.994 -3.34167 555.67C-3.98745 557.774 -4.39216 559.944 -4.54796 562.139C-2.57413 563.603 5.44941 568.896 19.3195 569.796Z"/>
<path d="M52.8388 567.097L52.3916 564.996C46.2198 570.552 37.8342 571.798 25.3137 571.355C23.3879 571.287 21.3674 571.179 19.2395 571.041C5.642 570.159 -2.34748 565.272 -4.92846 563.412L-8.18004 568.462C-8.25963 568.586 -8.29273 568.734 -8.27343 568.88C-8.24688 569.082 -7.52687 573.843 1.33839 574.802C4.80756 575.174 13.1404 575.843 21.6087 576.143C30.4269 576.454 39.3889 576.372 43.1536 575.157C46.9588 574.071 50.2827 571.724 52.5808 568.501C52.7148 568.296 52.8066 568.066 52.8508 567.825C52.8951 567.584 52.8911 567.337 52.8388 567.097Z"/>
<path d="M44.678 605.649C44.5977 605.47 44.5814 605.269 44.6318 605.079C44.6822 604.89 44.7961 604.723 44.9546 604.608C51.1624 600.054 56.9417 597.863 61.1154 595.92C72.2758 590.723 83.8008 590.712 84.9745 583.919C85.5671 580.49 84.6496 576.19 81.6841 574.27C81.4938 574.143 81.3539 573.954 81.2881 573.734C81.2223 573.515 81.235 573.279 81.324 573.068C82.669 569.83 84.2495 566.687 85.4729 563.4C86.7131 560.064 87.7958 559.434 88.7593 559.574C89.2 559.639 89.7508 562.063 90.2257 564.26C91.3919 570.797 92.1581 577.399 92.5201 584.03C92.7 590.902 90.2101 593.102 85.7111 595.036C78.4392 598.163 76.698 597.23 71.1423 600.561C68.102 602.382 67.4199 603.664 66.7056 605.156C66.5311 605.518 66.4326 605.912 66.4159 606.314C66.3992 606.716 66.4649 607.116 66.6088 607.492C67.0337 608.528 68.2798 608.811 69.6808 608.881L91.2333 609.389C91.271 609.389 91.3081 609.398 91.3425 609.413C91.377 609.429 91.4082 609.451 91.434 609.479C91.4598 609.506 91.4797 609.539 91.4928 609.574C91.5059 609.61 91.512 609.648 91.5104 609.685L91.4537 611.047C91.4515 611.12 91.4209 611.19 91.3682 611.241C91.3155 611.292 91.2451 611.321 91.1718 611.32C84.8601 611.165 68.5253 611.309 62.7229 612.499C54.5833 614.17 52.6856 612.879 50.5164 611.747C47.9677 610.396 45.9204 608.259 44.677 605.65L44.678 605.649Z"/>
</mask>
<path d="M-31.3533 223.924L-32.3039 237.242C-32.3622 238.155 -32.2272 239.069 -31.9077 239.926C-31.5882 240.782 -31.0914 241.562 -30.4501 242.213L-16.3688 256.303C-15.7121 256.96 -14.9231 257.47 -14.0543 257.798C-13.1855 258.126 -12.257 258.265 -11.3303 258.206L1.90748 257.231C2.74988 257.172 3.54505 256.82 4.15504 256.236C4.76503 255.651 5.15127 254.872 5.24659 254.032L6.10218 246.303C6.16406 245.777 6.1088 245.245 5.94032 244.743C5.77183 244.241 5.49436 243.783 5.12782 243.402C4.58061 242.854 3.87278 242.496 3.10768 242.379L14.4561 231.023C15.264 230.208 15.7164 229.107 15.7141 227.959C15.7119 226.811 15.2553 225.711 14.4442 224.899L1.01612 211.463C0.617397 211.051 0.141066 210.723 -0.385611 210.497C-0.912287 210.272 -1.47865 210.153 -2.0515 210.149C-2.62436 210.145 -3.19231 210.254 -3.7224 210.472C-4.2525 210.689 -4.73412 211.01 -5.13915 211.415L-16.6894 222.973C-16.7972 222.261 -17.1304 221.603 -17.6401 221.094C-17.9852 220.736 -18.4015 220.455 -18.8621 220.269C-19.3226 220.083 -19.8173 219.995 -20.3138 220.012L-28.1092 220.678C-28.9467 220.747 -29.7325 221.111 -30.3267 221.705C-30.9208 222.3 -31.2846 223.086 -31.3533 223.924ZM-25.1028 242.807C-23.9738 242.035 -22.6104 241.681 -21.2486 241.808C-19.8869 241.935 -18.6124 242.534 -17.6454 243.502C-16.6783 244.47 -16.0795 245.745 -15.9527 247.108C-15.8259 248.471 -16.1793 249.835 -16.9512 250.964L-25.1028 242.807Z" stroke="url(#paint0_linear_58_269)" stroke-width="2" mask="url(#path-1-inside-1_58_269)"/>
<path d="M-23.2558 285.091C-24.8137 286.65 -24.8137 289.177 -23.2558 290.736C-23.2521 290.74 -23.2479 290.743 -23.2441 290.747C-23.249 290.745 -23.2538 290.742 -23.2588 290.74C-25.2932 289.894 -27.6276 290.859 -28.473 292.895C-29.3184 294.93 -28.3547 297.266 -26.3203 298.112C-26.2731 298.132 -26.2256 298.15 -26.1781 298.167C-26.2287 298.165 -26.2792 298.163 -26.3302 298.163C-28.5332 298.163 -30.3193 299.95 -30.3193 302.155C-30.3193 304.359 -28.5333 306.147 -26.3302 306.147C-24.1272 306.147 -22.3414 304.359 -22.3414 302.155C-22.3414 300.443 -23.4193 298.983 -24.9329 298.416C-23.3178 298.474 -21.7624 297.539 -21.1057 295.958C-20.4655 294.416 -20.8637 292.703 -21.9779 291.595C-20.5287 292.202 -18.7942 291.916 -17.6145 290.736C-16.4044 289.525 -16.1349 287.73 -16.8048 286.258C-15.7036 287.442 -13.9436 287.882 -12.3618 287.228C-10.8197 286.591 -9.89048 285.098 -9.89501 283.526C-9.29956 284.981 -7.87118 286.006 -6.20287 286.006C-4.49159 286.006 -3.03258 284.927 -2.46618 283.413C-2.524 285.029 -1.59032 286.585 -0.00999832 287.242C1.53069 287.883 3.24283 287.484 4.3506 286.37C3.74349 287.82 4.02892 289.555 5.20863 290.736C6.41871 291.947 8.21268 292.217 9.68348 291.546C8.50051 292.648 8.06105 294.409 8.71412 295.992C9.35081 297.535 10.8431 298.465 12.4142 298.46C10.9602 299.056 9.93549 300.486 9.93556 302.155C9.93556 303.867 11.0136 305.328 12.5272 305.894C10.9121 305.836 9.35694 306.771 8.70021 308.352C8.05999 309.894 8.45787 311.607 9.57203 312.716C8.12294 312.108 6.38834 312.394 5.20863 313.574C3.99854 314.785 3.7292 316.58 4.39906 318.052C3.29789 316.868 1.53785 316.429 -0.0439339 317.082C-1.58602 317.719 -2.51526 319.212 -2.51073 320.785C-3.10618 319.33 -4.53449 318.304 -6.20287 318.304C-8.40588 318.304 -10.1918 320.091 -10.1918 322.296C-10.1918 324.5 -8.40595 326.287 -6.20287 326.287C-3.99979 326.288 -2.21398 324.5 -2.21398 322.296C-2.21398 322.291 -2.21428 322.285 -2.21435 322.28C-2.21235 322.285 -2.21067 322.29 -2.20861 322.295C-1.36789 324.332 0.964529 325.302 3.00074 324.461C5.03703 323.62 6.00613 321.286 5.16542 319.248C5.1459 319.201 5.12482 319.155 5.10377 319.109C5.13821 319.146 5.17253 319.183 5.20863 319.219C6.7663 320.778 9.29213 320.778 10.8499 319.219C12.4076 317.66 12.4076 315.133 10.8499 313.574C10.8461 313.57 10.8423 313.567 10.8385 313.563C10.8434 313.565 10.8481 313.568 10.853 313.57C12.8875 314.416 15.222 313.451 16.0673 311.415C16.9126 309.38 15.9487 307.044 13.9143 306.198C13.8672 306.178 13.8196 306.16 13.7721 306.143C13.8227 306.145 13.8734 306.147 13.9244 306.147C16.1275 306.147 17.9134 304.36 17.9135 302.155C17.9135 299.95 16.1275 298.163 13.9244 298.163C13.9191 298.163 13.914 298.164 13.9086 298.164C13.9135 298.162 13.9186 298.16 13.9236 298.158C15.9599 297.317 16.9291 294.983 16.0883 292.945C15.2476 290.908 12.915 289.938 10.8788 290.779C10.8316 290.799 10.7856 290.82 10.7395 290.841C10.7767 290.806 10.8139 290.772 10.85 290.736C12.4078 289.177 12.4077 286.65 10.85 285.091C9.29225 283.532 6.76661 283.532 5.20887 285.091C5.20508 285.095 5.2015 285.099 5.19777 285.102C5.19983 285.098 5.20229 285.093 5.20436 285.088C6.04974 283.052 5.08575 280.716 3.0514 279.87C1.01699 279.024 -1.31752 279.989 -2.16283 282.024C-2.18242 282.072 -2.19999 282.119 -2.21764 282.167C-2.21578 282.116 -2.21391 282.065 -2.21398 282.014C-2.21398 279.81 -3.99979 278.023 -6.20287 278.023C-8.40588 278.023 -10.1918 279.81 -10.1918 282.014C-10.1918 282.02 -10.1914 282.025 -10.1914 282.03C-10.1934 282.025 -10.1951 282.02 -10.1971 282.015C-11.0379 279.978 -13.3702 279.008 -15.4065 279.849C-17.4428 280.69 -18.412 283.024 -17.5713 285.062C-17.5518 285.109 -17.5306 285.155 -17.5095 285.201C-17.544 285.164 -17.5783 285.127 -17.6145 285.091C-19.1724 283.532 -21.698 283.532 -23.2558 285.091Z" stroke="url(#paint1_linear_58_269)" stroke-width="2" mask="url(#path-1-inside-1_58_269)"/>
<path d="M-18.3107 314.271C-19.484 313.097 -21.3865 313.097 -22.5598 314.271C-23.7332 315.445 -23.7332 317.348 -22.5598 318.523C-21.3865 319.697 -19.484 319.697 -18.3107 318.523C-17.1373 317.348 -17.1373 315.445 -18.3107 314.271Z" stroke="url(#paint2_linear_58_269)" stroke-width="2" mask="url(#path-1-inside-1_58_269)"/>
<path d="M-12.536 319.782C-13.4044 319.47 -14.2484 319.094 -15.0609 318.657C-15.4338 319.549 -16.0236 320.333 -16.7767 320.939C-15.5779 321.616 -14.3166 322.175 -13.0104 322.609C-13.0153 322.505 -13.0178 322.4 -13.0179 322.296C-13.0183 321.435 -12.8547 320.582 -12.536 319.782ZM-23.818 308.492C-24.6173 308.811 -25.4698 308.975 -26.3303 308.975C-26.435 308.974 -26.5399 308.972 -26.6445 308.967C-26.2107 310.274 -25.6516 311.536 -24.9751 312.736C-24.8457 312.575 -24.7072 312.42 -24.5582 312.271C-24.0242 311.736 -23.3907 311.311 -22.6936 311.019C-23.1306 310.206 -23.5066 309.361 -23.818 308.492Z" stroke="url(#paint3_linear_58_269)" stroke-width="2" mask="url(#path-1-inside-1_58_269)"/>
<path d="M59.9575 415.362L35.0532 428.308C34.6484 428.518 34.3276 428.86 34.1448 429.278C33.9619 429.696 33.928 430.164 34.0485 430.605L35.6227 436.404L31.9523 437.402C27.0455 438.736 24.2442 444.157 25.6901 449.483L26.7396 453.349C28.1855 458.675 33.3431 461.933 38.2499 460.599L41.9205 459.601L43.4949 465.4C43.6135 465.841 43.8797 466.227 44.2488 466.495C44.6179 466.763 45.0677 466.896 45.5231 466.873L73.5501 465.429L73.5599 465.426C73.926 465.408 74.2879 465.341 74.6362 465.227C76.0716 464.724 77.2639 463.696 77.9738 462.35C78.6836 461.004 78.8586 459.439 78.4639 457.97L67.9677 419.308C67.5649 417.84 66.6226 416.579 65.3297 415.778C64.0368 414.976 62.489 414.693 60.9965 414.986C60.6352 415.065 60.2859 415.192 59.9575 415.362ZM37.2004 456.733C34.4283 457.486 31.4718 455.498 30.6033 452.299L29.5536 448.432C28.685 445.233 30.2298 442.021 33.002 441.268L36.6724 440.27L40.8709 455.735L37.2004 456.733Z" stroke="url(#paint4_linear_58_269)" stroke-width="2" mask="url(#path-1-inside-1_58_269)"/>
<path d="M-2.71557 476.066C-2.82376 475.544 -3.03903 475.05 -3.34777 474.615C-3.65651 474.18 -4.052 473.814 -4.50927 473.54L-6.99193 472.111C-6.71682 474.094 -6.46074 476.071 -6.27904 477.728L-3.42284 478.37C-3.26871 478.419 -3.13688 478.52 -3.05028 478.657C-2.96369 478.794 -2.928 478.957 -2.94945 479.117C-2.96487 479.199 -2.99682 479.276 -3.04345 479.345C-3.09008 479.413 -3.15034 479.472 -3.22045 479.516C-3.29056 479.56 -3.36908 479.59 -3.45104 479.603C-3.533 479.615 -3.61679 479.611 -3.69701 479.59L-6.14501 479.039C-6.05606 479.833 -6.01416 480.633 -6.01964 481.432C-6.02728 481.616 -6.04121 481.829 -6.05651 482.045L-3.51317 482.617C-3.35522 482.66 -3.21903 482.76 -3.13158 482.899C-3.04414 483.037 -3.01175 483.204 -3.04076 483.365C-3.05721 483.446 -3.08986 483.523 -3.13671 483.591C-3.18356 483.659 -3.24371 483.717 -3.31347 483.761C-3.38323 483.805 -3.4612 483.835 -3.54272 483.848C-3.62423 483.862 -3.70749 483.858 -3.78771 483.839L-6.16491 483.305C-6.2372 484.042 -6.31761 484.778 -6.40612 485.514C-6.43034 485.712 -6.46888 485.909 -6.50146 486.107L-4.21874 486.619C-4.06203 486.664 -3.92724 486.765 -3.83996 486.903C-3.75268 487.041 -3.71887 487.206 -3.74511 487.367C-3.78346 487.528 -3.88305 487.667 -4.0227 487.755C-4.16234 487.844 -4.33095 487.874 -4.49254 487.84L-6.7528 487.332C-6.97165 488.223 -7.27237 489.091 -7.65111 489.926L-5.29626 490.456C-5.13709 490.497 -4.99935 490.597 -4.91137 490.736C-4.82339 490.875 -4.79167 491.042 -4.82262 491.204C-4.84044 491.284 -4.87386 491.36 -4.92113 491.427C-4.96841 491.494 -5.02878 491.552 -5.09826 491.595C-5.16773 491.639 -5.24515 491.669 -5.32616 491.683C-5.40717 491.697 -5.48995 491.695 -5.57006 491.676L-8.24242 491.075C-8.78491 492.034 -9.43776 492.925 -10.1879 493.732C-11.1693 494.78 -11.4741 495.435 -11.2378 495.993C-10.444 497.263 -9.20502 498.191 -7.7633 498.595C-7.09485 498.781 -6.39027 498.796 -5.71459 498.638C-4.82621 496.903 -0.201948 487.122 -2.71557 476.066ZM-8.92846 461.498C-8.49718 461.411 -8.05207 461.421 -7.62499 461.526C-5.45714 462.544 -3.51881 463.991 -1.92797 465.782C-0.337123 467.573 0.873012 469.668 1.62867 471.942C4.1149 479.093 6.45459 479.823 8.49366 479.453C3.515 467.486 -1.10015 460.269 -8.77709 457.168C-9.13866 457.828 -9.34066 458.563 -9.36693 459.315C-9.39321 460.067 -9.24309 460.815 -8.92846 461.498Z" stroke="url(#paint5_linear_58_269)" stroke-width="2" mask="url(#path-1-inside-1_58_269)"/>
<path d="M10.3817 484.148C9.90624 482.926 9.4383 481.76 8.97328 480.62C5.25164 481.393 2.75945 478.951 0.451794 472.353C-0.234653 470.264 -1.33532 468.335 -2.78454 466.682C-4.23375 465.029 -6.00157 463.685 -7.98205 462.732L-8.3861 462.737C-8.1931 463.957 -7.69876 467.123 -7.21044 470.546L-3.88769 472.456C-2.94691 473.006 -2.21288 473.85 -1.79857 474.858C-1.67091 475.159 -1.57036 475.47 -1.49804 475.789C0.0532801 483.357 -0.866508 491.224 -4.12182 498.23C-2.94307 498.606 -1.87229 499.262 -0.99999 500.14C-0.127688 501.018 0.52055 502.093 0.889782 503.275C1.30744 504.415 1.48925 505.628 1.42445 506.841C1.35965 508.054 1.04949 509.241 0.512707 510.33C0.404493 510.56 0.367366 510.817 0.405895 511.068C0.444425 511.319 0.557013 511.553 0.729137 511.739C0.901361 511.925 1.12538 512.054 1.37208 512.11C1.61878 512.167 1.87673 512.147 2.11232 512.055C3.72855 511.38 5.42415 510.914 7.15821 510.669C9.33634 510.366 11.4731 509.816 13.5271 509.031C14.0194 506.622 15.4252 497.108 10.3817 484.148Z" stroke="url(#paint6_linear_58_269)" stroke-width="2" mask="url(#path-1-inside-1_58_269)"/>
<path d="M-6.22106 454.886L-7.93566 456.179C-0.296661 459.43 4.37416 466.51 9.26161 478.053C10.0134 479.828 10.7692 481.706 11.5433 483.695C16.4872 496.401 15.4354 505.711 14.841 508.838L20.7883 509.654C20.9344 509.674 21.0827 509.641 21.2069 509.562C21.3786 509.453 25.3868 506.789 22.5106 498.343C21.3825 495.039 18.469 487.198 15.1633 479.391C11.7211 471.261 7.86096 463.167 5.17042 460.266C2.57961 457.273 -0.950278 455.249 -4.84069 454.527C-5.08308 454.492 -5.32987 454.505 -5.56688 454.567C-5.8039 454.629 -6.02633 454.737 -6.22106 454.886Z" stroke="url(#paint7_linear_58_269)" stroke-width="2" mask="url(#path-1-inside-1_58_269)"/>
<path d="M20.131 392.611C23.5479 394.63 27.5479 395.429 31.4776 394.879C35.4072 394.329 39.0344 392.462 41.7667 389.583L41.9362 393.859C41.9794 394.948 41.6159 396.014 40.9165 396.849C40.2171 397.684 39.2319 398.229 38.153 398.377L26.0172 400.076C24.9391 400.23 23.8424 399.976 22.9408 399.365C22.0392 398.754 21.3974 397.828 21.1404 396.769L20.131 392.611ZM16.3274 365.396L16.158 361.12C16.1147 360.032 16.4782 358.965 17.1776 358.13C17.877 357.295 18.8622 356.75 19.9412 356.602L32.0768 354.903C33.155 354.75 34.2517 355.003 35.1533 355.614C36.0549 356.226 36.6968 357.151 36.9537 358.21L37.963 362.368C34.5461 360.35 30.5463 359.55 26.6166 360.1C22.6869 360.65 19.0598 362.517 16.3274 365.396Z" stroke="url(#paint8_linear_58_269)" stroke-width="2" mask="url(#path-1-inside-1_58_269)"/>
<path d="M20.9229 389.646C23.9301 391.56 27.5204 392.341 31.0505 391.848C34.5807 391.355 37.8202 389.621 40.1887 386.955C42.6975 383.998 43.9296 380.165 43.6141 376.299C43.2987 372.433 41.4613 368.851 38.5064 366.341C35.5514 363.83 31.721 362.597 27.8576 362.913C23.9941 363.229 20.4141 365.067 17.9053 368.024C16.5936 369.605 15.6259 371.442 15.0641 373.418C14.5023 375.394 14.3587 377.466 14.6426 379.501C14.9264 381.536 15.6316 383.49 16.7128 385.236C17.7939 386.983 19.2287 388.485 20.9229 389.646ZM22.9279 372.869C23.1615 372.559 23.5083 372.355 23.8923 372.301C24.2763 372.248 24.6662 372.349 24.9757 372.582L29.9276 376.322C30.2356 376.557 30.4395 376.903 30.4953 377.287L31.5079 384.533C31.5617 384.917 31.4605 385.307 31.2269 385.617C30.9933 385.927 30.6463 386.131 30.2622 386.184C29.8781 386.238 29.4885 386.137 29.179 385.903C28.8694 385.67 28.6653 385.322 28.6116 384.938L27.6828 378.292L23.2144 374.918C22.9049 374.684 22.7009 374.337 22.6472 373.953C22.5935 373.569 22.6944 373.179 22.9279 372.869Z" stroke="url(#paint9_linear_58_269)" stroke-width="2" mask="url(#path-1-inside-1_58_269)"/>
<path d="M63.854 373.978L68.1709 386.612C68.473 387.474 68.9537 388.264 69.5818 388.928C70.2099 389.592 70.971 390.115 71.8154 390.465L90.2745 397.942C91.1353 398.29 92.0603 398.452 92.9882 398.415C93.916 398.377 94.8252 398.143 95.6554 397.727L107.464 391.661C108.217 391.278 108.812 390.644 109.146 389.868C109.48 389.092 109.531 388.223 109.292 387.413L107.066 379.962C106.918 379.454 106.66 378.985 106.309 378.589C105.958 378.192 105.524 377.879 105.038 377.671C104.321 377.38 103.529 377.326 102.779 377.518L108.801 362.632C109.228 361.566 109.215 360.375 108.765 359.319C108.316 358.263 107.466 357.428 106.403 356.998L88.8007 349.867C88.2731 349.644 87.7063 349.528 87.1334 349.526C86.5606 349.524 85.9931 349.636 85.4639 349.855C84.9347 350.075 84.4544 350.398 84.051 350.805C83.6477 351.212 83.3293 351.695 83.1144 352.226L76.9851 367.378C76.6084 366.764 76.0448 366.288 75.3773 366.019C74.9202 365.824 74.4273 365.728 73.9305 365.736C73.4338 365.744 72.9441 365.857 72.4935 366.066L65.5756 369.722C64.8313 370.113 64.2496 370.755 63.9343 371.534C63.6191 372.313 63.5906 373.179 63.854 373.978ZM76.971 388.924C77.7094 387.773 78.8267 386.915 80.13 386.5C81.4333 386.086 82.8407 386.14 84.1084 386.653C85.3761 387.167 86.4245 388.107 87.0725 389.313C87.7205 390.518 87.9273 391.912 87.657 393.253L76.971 388.924Z" stroke="url(#paint10_linear_58_269)" stroke-width="2" mask="url(#path-1-inside-1_58_269)"/>
<path d="M53.6773 286.302C53.6729 285.768 53.558 285.242 53.34 284.755C53.1219 284.268 52.8054 283.832 52.4103 283.474L50.2539 281.588C50.1372 283.587 50.0031 285.575 49.8583 287.235L52.5344 288.423C52.676 288.501 52.7856 288.626 52.8439 288.777C52.9022 288.928 52.9053 289.095 52.853 289.248C52.822 289.325 52.7756 289.395 52.7164 289.453C52.6573 289.511 52.5869 289.557 52.5095 289.587C52.4321 289.616 52.3493 289.63 52.2665 289.626C52.1836 289.623 52.1024 289.602 52.0278 289.566L49.7343 288.547C49.6666 289.344 49.552 290.136 49.3908 290.919C49.3475 291.098 49.2921 291.304 49.2349 291.513L51.6179 292.571C51.7645 292.644 51.8785 292.769 51.9373 292.922C51.996 293.075 51.9953 293.244 51.9354 293.396C51.9035 293.473 51.8567 293.542 51.7975 293.599C51.7383 293.657 51.668 293.702 51.591 293.732C51.5139 293.761 51.4317 293.775 51.3491 293.773C51.2666 293.77 51.1853 293.75 51.1105 293.715L48.8832 292.728C48.6686 293.437 48.4461 294.143 48.216 294.847C48.1535 295.037 48.0773 295.222 48.0067 295.41L50.146 296.359C50.2909 296.433 50.4033 296.559 50.462 296.711C50.5208 296.863 50.5219 297.031 50.4647 297.184C50.3958 297.334 50.2708 297.452 50.1166 297.511C49.9624 297.57 49.7911 297.567 49.6393 297.502L47.5214 296.563C47.1331 297.394 46.6688 298.187 46.1345 298.932L48.3411 299.911C48.4892 299.982 48.6047 300.107 48.6639 300.261C48.7232 300.414 48.7216 300.584 48.6598 300.737C48.6267 300.812 48.579 300.88 48.5195 300.937C48.4601 300.994 48.3899 301.038 48.3132 301.067C48.2365 301.097 48.1548 301.111 48.0726 301.109C47.9905 301.107 47.9096 301.088 47.8346 301.054L45.3308 299.943C44.6119 300.778 43.7976 301.525 42.9048 302.169C41.7378 303.006 41.3112 303.589 41.4342 304.182C41.9651 305.583 42.9996 306.735 44.335 307.412C44.9542 307.726 45.6424 307.878 46.3359 307.854C47.5455 306.326 53.9875 297.635 53.6773 286.302ZM50.4235 270.8C50.8634 270.799 51.2982 270.896 51.6964 271.083C53.6244 272.504 55.2432 274.302 56.4545 276.369C57.6657 278.435 58.4441 280.727 58.7421 283.104C59.7866 290.603 61.939 291.776 64.011 291.811C61.4606 279.102 58.3407 271.123 51.4158 266.583C50.9326 267.16 50.5912 267.841 50.4188 268.574C50.2465 269.306 50.2481 270.069 50.4235 270.8Z" stroke="url(#paint11_linear_58_269)" stroke-width="2" mask="url(#path-1-inside-1_58_269)"/>
<path d="M64.9475 296.784C64.7194 295.493 64.4877 294.258 64.2538 293.05C60.4529 293.082 58.4847 290.2 57.5076 283.278C57.2415 281.095 56.5378 278.988 55.4387 277.084C54.3396 275.18 52.8677 273.517 51.1111 272.195L50.7139 272.121C50.6654 273.355 50.5331 276.557 50.3447 280.01L53.2312 282.532C54.0467 283.255 54.6022 284.226 54.812 285.296C54.8786 285.615 54.9167 285.94 54.9255 286.267C54.9717 293.993 52.5359 301.529 47.9775 307.765C49.0602 308.364 49.9828 309.216 50.6671 310.247C51.3515 311.279 51.7775 312.46 51.9093 313.691C52.0967 314.891 52.0387 316.117 51.7388 317.293C51.4388 318.47 50.9032 319.574 50.1644 320.537C50.0135 320.741 49.9269 320.986 49.9158 321.24C49.9046 321.493 49.9695 321.745 50.1019 321.962C50.2347 322.177 50.4292 322.348 50.6602 322.451C50.8911 322.555 51.1478 322.586 51.3969 322.541C53.1136 322.195 54.8676 322.069 56.6162 322.167C58.8115 322.295 61.0143 322.173 63.182 321.803C64.1344 319.537 67.3677 310.48 64.9475 296.784Z" stroke="url(#paint12_linear_58_269)" stroke-width="2" mask="url(#path-1-inside-1_58_269)"/>
<path d="M54.3679 264.843L52.4341 265.777C59.2926 270.457 62.4937 278.312 65.0371 290.588C65.4283 292.476 65.8036 294.466 66.1753 296.567C68.5474 309.994 65.7008 318.92 64.5083 321.871L70.1824 323.832C70.3217 323.88 70.4735 323.877 70.6108 323.823C70.8005 323.75 75.2509 321.919 74.0764 313.074C73.614 309.614 72.2847 301.355 70.5645 293.052C68.7731 284.407 66.5648 275.715 64.4916 272.344C62.5339 268.903 59.4664 266.229 55.7916 264.761C55.5607 264.679 55.3159 264.645 55.0714 264.659C54.8269 264.673 54.5879 264.736 54.3679 264.843Z" stroke="url(#paint13_linear_58_269)" stroke-width="2" mask="url(#path-1-inside-1_58_269)"/>
<path d="M93.7301 263.621C93.5754 263.742 93.3838 263.805 93.1878 263.801C92.9917 263.797 92.803 263.726 92.6536 263.599C86.7584 258.647 83.259 253.549 80.3818 249.954C72.687 240.34 69.9393 229.139 63.066 229.612C59.5968 229.85 55.64 231.763 54.4806 235.101C54.4027 235.316 54.2522 235.497 54.0548 235.614C53.8575 235.73 53.6259 235.773 53.3999 235.737C49.937 235.198 46.5097 234.409 43.0288 234C39.4959 233.587 38.6273 232.684 38.5348 231.714C38.4928 231.27 40.7146 230.159 42.7346 229.176C48.8034 226.49 55.0308 224.177 61.3818 222.251C68.0102 220.444 70.737 222.342 73.6831 226.256C78.4452 232.582 77.9527 234.496 82.5054 239.105C84.9959 241.628 86.4025 241.986 88.0199 242.326C88.4128 242.41 88.8187 242.412 89.2127 242.333C89.6066 242.254 89.9802 242.095 90.3103 241.866C91.216 241.207 91.1938 239.929 90.9291 238.55L86.3043 217.48C86.2963 217.443 86.2955 217.405 86.3024 217.367C86.3092 217.33 86.3234 217.295 86.3441 217.263C86.3648 217.231 86.3918 217.204 86.4231 217.183C86.4544 217.162 86.4895 217.147 86.5266 217.14L87.8617 216.871C87.9336 216.856 88.0083 216.869 88.0704 216.909C88.1326 216.948 88.1769 217.009 88.1941 217.081C89.5424 223.253 93.5611 239.097 96.0946 244.454C99.6495 251.969 98.8469 254.12 98.2631 256.498C97.5569 259.296 95.9679 261.794 93.7312 263.622L93.7301 263.621Z" stroke="url(#paint14_linear_58_269)" stroke-width="2" mask="url(#path-1-inside-1_58_269)"/>
<path d="M12.1268 197.036L13.9364 207.678C14.1558 208.968 15.38 209.836 16.6705 209.617L58.1309 202.557C59.4209 202.337 60.2898 201.115 60.0701 199.823L58.3369 189.63C54.3068 192.638 46.3389 197.55 35.3655 199.418C23.7252 201.4 15.7697 198.746 12.1268 197.036ZM53.6414 176.164L12.1817 183.223C10.892 183.443 10.023 184.667 10.2426 185.959L11.6265 194.097C13.4957 195.179 21.7503 199.332 34.9663 197.082C46.3426 195.145 54.4763 189.647 57.8828 186.971L56.3749 178.104C56.1564 176.813 54.9332 175.944 53.6414 176.164ZM39.6249 194.434L31.449 195.826L30.7288 191.59L38.9045 190.198L39.6249 194.434Z" stroke="url(#paint15_linear_58_269)" stroke-width="2" mask="url(#path-1-inside-1_58_269)"/>
<path d="M93.625 509.585C94.1489 509.486 94.6468 509.281 95.0872 508.98C95.5275 508.68 95.9009 508.291 96.1835 507.839L97.6592 505.382C95.6725 505.619 93.6931 505.837 92.0341 505.987L91.3374 508.832C91.2854 508.986 91.181 509.116 91.0427 509.2C90.9045 509.284 90.741 509.316 90.5812 509.292C90.5 509.275 90.4233 509.241 90.3556 509.193C90.2879 509.145 90.2307 509.084 90.1878 509.013C90.1448 508.942 90.1171 508.863 90.106 508.78C90.0949 508.698 90.1007 508.615 90.1233 508.535L90.7213 506.096C89.9257 506.17 89.1263 506.196 88.3275 506.175C88.1444 506.164 87.9317 506.146 87.7157 506.127L87.0955 508.66C87.0495 508.817 86.9463 508.952 86.8063 509.036C86.6662 509.121 86.4995 509.15 86.339 509.118C86.2584 509.1 86.1823 509.066 86.1152 509.018C86.0481 508.97 85.9915 508.909 85.9486 508.838C85.9057 508.767 85.8776 508.689 85.8659 508.607C85.8541 508.525 85.8588 508.442 85.88 508.362L86.4594 505.994C85.7243 505.907 84.9901 505.813 84.2571 505.71C84.0592 505.682 83.8635 505.639 83.6663 505.603L83.1099 507.877C83.0619 508.033 82.9586 508.166 82.8192 508.251C82.6799 508.335 82.5142 508.366 82.3539 508.336C82.194 508.295 82.0565 508.193 81.971 508.051C81.8854 507.91 81.8586 507.74 81.896 507.579L82.4467 505.328C81.561 505.092 80.699 504.774 79.8718 504.379L79.2972 506.725C79.2533 506.883 79.1506 507.019 79.0101 507.105C78.8697 507.19 78.702 507.218 78.5413 507.184C78.4614 507.165 78.3861 507.13 78.3198 507.081C78.2535 507.033 78.1976 506.972 78.155 506.901C78.1125 506.831 78.0841 506.753 78.0718 506.671C78.0595 506.59 78.0636 506.507 78.0835 506.427L78.7354 503.765C77.7881 503.204 76.9101 502.534 76.119 501.768C75.0901 500.765 74.4416 500.448 73.8794 500.674C72.595 501.443 71.6441 502.665 71.213 504.1C71.0137 504.765 70.9853 505.47 71.1305 506.149C72.8472 507.071 82.5304 511.886 93.625 509.585ZM108.301 503.65C108.38 504.083 108.361 504.528 108.247 504.953C107.189 507.102 105.705 509.014 103.885 510.571C102.066 512.128 99.9482 513.298 97.6621 514.01C90.4693 516.36 89.6949 518.687 90.0253 520.734C102.078 515.984 109.377 511.505 112.624 503.885C111.972 503.51 111.241 503.294 110.49 503.253C109.74 503.212 108.99 503.348 108.301 503.65Z" stroke="url(#paint16_linear_58_269)" stroke-width="2" mask="url(#path-1-inside-1_58_269)"/>
<path d="M85.2974 522.532C86.5276 522.08 87.7015 521.634 88.8494 521.191C88.1486 517.453 90.6371 515.006 97.2741 512.825C99.3746 512.179 101.323 511.115 103.003 509.697C104.683 508.278 106.059 506.536 107.05 504.573L107.053 504.168C105.83 504.338 102.657 504.771 99.2274 505.194L97.2547 508.481C96.6872 509.412 95.8298 510.13 94.8145 510.525C94.5116 510.647 94.1984 510.742 93.8788 510.808C86.2869 512.214 78.4445 511.142 71.5076 507.75C71.1085 508.922 70.4332 509.981 69.5389 510.836C68.6447 511.692 67.5578 512.32 66.3699 512.667C65.2226 513.062 64.0068 513.221 62.7964 513.133C61.586 513.045 60.406 512.711 59.3281 512.153C59.1007 512.041 58.8449 511.998 58.5933 512.032C58.3417 512.066 58.1057 512.174 57.9159 512.342C57.7272 512.511 57.5938 512.733 57.5327 512.979C57.4717 513.224 57.4861 513.483 57.5739 513.72C58.217 515.35 58.6497 517.056 58.8615 518.795C59.1219 520.98 59.6299 523.129 60.3754 525.199C62.7725 525.738 72.2506 527.328 85.2974 522.532Z" stroke="url(#paint17_linear_58_269)" stroke-width="2" mask="url(#path-1-inside-1_58_269)"/>
<path d="M114.855 506.486L113.597 504.746C110.201 512.325 103.037 516.862 91.4091 521.529C89.6205 522.247 87.7295 522.967 85.728 523.703C72.9374 528.404 63.6549 527.172 60.5425 526.517L59.6122 532.452C59.5896 532.597 59.6194 532.746 59.6962 532.872C59.8021 533.046 62.3864 537.108 70.8806 534.393C74.2034 533.328 82.0937 530.564 89.9581 527.408C98.1477 524.121 106.309 520.415 109.26 517.779C112.3 515.245 114.39 511.752 115.188 507.874C115.227 507.632 115.218 507.385 115.161 507.147C115.104 506.908 115 506.683 114.855 506.486Z" stroke="url(#paint18_linear_58_269)" stroke-width="2" mask="url(#path-1-inside-1_58_269)"/>
<path d="M41.3776 87.8757C43.0493 84.2747 43.4514 80.2129 42.5183 76.3537C41.5853 72.4945 39.3723 69.0659 36.2405 66.6278L40.476 66.039C41.5546 65.889 42.6506 66.1462 43.5501 66.7606C44.4495 67.375 45.0882 68.3025 45.3416 69.3624L48.223 81.2804C48.4819 82.339 48.3376 83.4561 47.8182 84.414C47.2989 85.3719 46.4416 86.1019 45.4137 86.4619L41.3776 87.8757ZM14.686 94.3374L10.4506 94.9263C9.37189 95.0763 8.27596 94.819 7.37648 94.2046C6.47699 93.5902 5.83845 92.6627 5.58509 91.6028L2.7035 79.6847C2.44468 78.6261 2.58918 77.5091 3.10853 76.5512C3.62788 75.5933 4.4849 74.8632 5.51283 74.5033L9.54908 73.0896C7.87735 76.6905 7.47504 80.7523 8.40809 84.6115C9.34114 88.4707 11.5543 91.8993 14.686 94.3374Z" stroke="url(#paint19_linear_58_269)" stroke-width="2" mask="url(#path-1-inside-1_58_269)"/>
<path d="M38.3507 87.3784C39.9595 84.1956 40.3833 80.5436 39.5462 77.0766C38.709 73.6096 36.6658 70.5542 33.7822 68.4575C30.5951 66.2497 26.6619 65.3992 22.8482 66.0933C19.0344 66.7873 15.6524 68.9689 13.4461 72.1582C11.2398 75.3474 10.3901 79.2831 11.0836 83.0994C11.7772 86.9157 13.9573 90.3 17.1444 92.5078C18.8454 93.6587 20.7675 94.4418 22.7881 94.8071C24.8087 95.1723 26.8834 95.1118 28.8793 94.6292C30.8751 94.1466 32.7483 93.2525 34.3793 92.0043C36.0102 90.756 37.3626 89.1796 38.3507 87.3784ZM21.4694 87.0303C21.1384 86.8281 20.9012 86.5026 20.8101 86.1255C20.7189 85.7484 20.7811 85.3504 20.983 85.0192L24.2153 79.7204C24.4189 79.3906 24.7435 79.1536 25.1195 79.0604L32.2257 77.34C32.6027 77.2487 33.0005 77.3111 33.3316 77.5133C33.6626 77.7154 33.8997 78.0409 33.9909 78.4181C34.082 78.7953 34.0198 79.1933 33.8178 79.5245C33.6157 79.8558 33.2904 80.0932 32.9135 80.1845L26.3956 81.7623L23.479 86.5437C23.277 86.8748 22.9517 87.1121 22.5748 87.2034C22.198 87.2946 21.8004 87.2324 21.4694 87.0303Z" stroke="url(#paint20_linear_58_269)" stroke-width="2" mask="url(#path-1-inside-1_58_269)"/>
<path d="M19.6947 48.1179L31.8347 42.5778C32.6631 42.1922 33.4008 41.6359 33.9994 40.9452C34.598 40.2545 35.0441 39.4451 35.3084 38.5699L40.9308 19.4532C41.1929 18.5618 41.2623 17.6248 41.1343 16.7045C41.0062 15.7842 40.6839 14.9017 40.1884 14.1159L32.996 2.95247C32.5412 2.24045 31.8516 1.71031 31.0469 1.45412C30.2422 1.19792 29.3734 1.23186 28.5911 1.55003L21.3998 4.49824C20.909 4.69549 20.4679 4.99911 20.1084 5.38728C19.7489 5.77546 19.48 6.23854 19.3207 6.74321C19.1021 7.48613 19.1265 8.27947 19.3904 9.00751L3.9944 4.47337C2.89281 4.15359 1.70936 4.28359 0.703381 4.83498C-0.302599 5.38636 -1.04908 6.31418 -1.37292 7.41525L-6.73461 25.6447C-6.90489 26.192 -6.96451 26.7677 -6.91027 27.3384C-6.85603 27.9091 -6.68891 28.4633 -6.41857 28.9687C-6.14823 29.4741 -5.78003 29.9207 -5.33556 30.2823C-4.8911 30.644 -4.37917 30.9136 -3.82958 31.0754L11.8403 35.6903C11.2673 36.1257 10.8491 36.7337 10.6471 37.4249C10.4984 37.8992 10.451 38.3996 10.5079 38.8935C10.5649 39.3874 10.7248 39.8638 10.9776 40.2918L15.2935 46.8217C15.7547 47.5245 16.4502 48.0406 17.2562 48.278C18.0623 48.5154 18.9266 48.4587 19.6947 48.1179ZM33.2703 33.5873C32.0521 32.9651 31.0896 31.9365 30.5491 30.6794C30.0085 29.4223 29.9241 28.0157 30.3102 26.7028C30.6963 25.39 31.5287 24.2534 32.6636 23.4897C33.7985 22.726 35.1644 22.3832 36.5252 22.5205L33.2703 33.5873Z" stroke="url(#paint21_linear_58_269)" stroke-width="2" mask="url(#path-1-inside-1_58_269)"/>
<path d="M50.4823 147.361C51.2482 145.018 51.3712 144.097 50.8071 143.589C48.8569 141.83 43.7533 137.913 38.7791 135.624C35.6726 134.191 34.0005 133.436 33.141 132.809C32.2815 132.183 31.0513 130.823 28.7349 128.303C25.031 124.268 19.7413 120.609 17.4685 119.291C16.8152 118.911 15.9738 119.309 13.9805 120.757C12.2353 122.023 12.7644 123.289 11.2374 127.088C8.84647 133.039 13.825 138.248 18.5852 140.127C23.76 142.173 27.3373 136.877 28.257 136.252C29.175 135.624 29.9626 135.366 30.8234 135.994C31.6866 136.623 31.6816 137.451 31.366 138.518C31.0538 139.586 27.1124 144.619 30.6456 148.917C33.8953 152.874 40.3754 156.018 45.3032 151.917C48.4496 149.298 49.8146 149.413 50.4823 147.361ZM24.2758 121.243C28.1632 120.436 30.9945 119.875 32.6765 120.558C33.4048 120.854 34.4482 122.295 34.7699 122.98C35.6326 124.813 37.9108 124.234 37.1381 122.206C36.2846 119.963 34.3011 118.382 32.2267 118.362C29.92 118.341 24.2108 118.576 20.7985 118.728C21.9863 119.526 23.1461 120.365 24.2758 121.243ZM41.991 128.243C42.7417 128.34 44.4311 128.892 44.9375 129.495C46.1015 130.887 46.4359 133.756 46.8619 137.705C48.0447 138.511 49.1992 139.358 50.3232 140.245C49.4205 136.948 47.8932 131.438 47.1653 129.248C46.51 127.278 44.3978 125.874 42.0023 125.75C39.834 125.636 39.985 127.983 41.991 128.243Z" stroke="url(#paint22_linear_58_269)" stroke-width="2" mask="url(#path-1-inside-1_58_269)"/>
<path d="M41.6395 634.428L30.5995 608.609C30.4204 608.19 30.103 607.844 29.7001 607.631C29.2972 607.417 28.8332 607.348 28.3856 607.435L22.4888 608.573L21.7687 604.836C20.8061 599.84 15.6125 596.639 10.1972 597.684L6.26588 598.443C0.850585 599.487 -2.78147 604.391 -1.81884 609.387L-1.09887 613.124L-6.99572 614.261C-7.44367 614.347 -7.84866 614.584 -8.1433 614.932C-8.43794 615.28 -8.60432 615.719 -8.61461 616.175L-9.27025 644.25L-9.26842 644.26C-9.27762 644.627 -9.23784 644.993 -9.15026 645.349C-8.75594 646.819 -7.82073 648.086 -6.53246 648.895C-5.24419 649.704 -3.69802 649.995 -2.20385 649.711L37.1087 642.126C38.6012 641.834 39.9283 640.988 40.8236 639.758C41.719 638.528 42.1164 637.004 41.9363 635.493C41.8843 635.127 41.7846 634.769 41.6395 634.428ZM2.11244 608.628C1.56859 605.806 3.77083 603.004 7.02394 602.376L10.9551 601.618C14.2082 600.99 17.2934 602.772 17.8373 605.594L18.5575 609.331L2.83253 612.365L2.11244 608.628Z" stroke="url(#paint23_linear_58_269)" stroke-width="2" mask="url(#path-1-inside-1_58_269)"/>
<path d="M32.1722 561.331C32.691 561.453 33.2294 561.467 33.7537 561.37C34.2779 561.274 34.7764 561.069 35.2178 560.77L37.561 559.122C35.6486 558.534 33.7503 557.932 32.1727 557.397L30.3845 559.716C30.275 559.835 30.127 559.912 29.9666 559.933C29.8062 559.953 29.6437 559.917 29.5075 559.83C29.4401 559.781 29.3835 559.72 29.3411 559.648C29.2986 559.577 29.2712 559.498 29.2606 559.415C29.2501 559.333 29.2567 559.249 29.2798 559.17C29.3029 559.09 29.3421 559.016 29.395 558.952L30.9282 556.964C30.1709 556.71 29.4293 556.41 28.7074 556.067C28.5445 555.983 28.3575 555.88 28.1679 555.775L26.5757 557.84C26.4701 557.965 26.3213 558.046 26.1589 558.067C25.9966 558.088 25.8323 558.047 25.6985 557.953C25.6321 557.904 25.5764 557.842 25.5346 557.77C25.4927 557.699 25.4655 557.62 25.4548 557.538C25.4442 557.456 25.4503 557.373 25.4727 557.293C25.495 557.214 25.5333 557.14 25.585 557.075L27.0725 555.144C26.4354 554.768 25.8024 554.384 25.1737 553.993C25.0041 553.887 24.8423 553.769 24.6766 553.656L23.2479 555.51C23.141 555.633 22.9927 555.712 22.8311 555.733C22.6694 555.754 22.5056 555.715 22.3709 555.623C22.2414 555.521 22.1571 555.371 22.1361 555.208C22.1151 555.044 22.1591 554.878 22.2584 554.746L23.6727 552.91C22.9584 552.335 22.2988 551.696 21.7023 550.999L20.2278 552.912C20.1235 553.039 19.9747 553.121 19.8118 553.143C19.6488 553.164 19.4839 553.122 19.3507 553.025C19.2855 552.975 19.2308 552.913 19.1898 552.842C19.1489 552.77 19.1225 552.692 19.1121 552.61C19.1016 552.529 19.1073 552.446 19.1289 552.366C19.1506 552.287 19.1877 552.213 19.2382 552.148L20.9115 549.978C20.2724 549.081 19.7405 548.112 19.327 547.091C18.7917 545.758 18.3272 545.205 17.7218 545.184C16.236 545.367 14.8722 546.099 13.8976 547.236C13.4462 547.764 13.1353 548.397 12.9933 549.076C14.1899 550.615 21.0963 558.941 32.1722 561.331ZM47.9928 561.849C47.8894 562.277 47.6925 562.676 47.4164 563.019C45.5794 564.556 43.4491 565.702 41.1552 566.389C38.8613 567.075 36.4516 567.288 34.0731 567.013C26.5456 566.247 24.8963 568.061 24.3703 570.067C37.3126 570.606 45.7991 569.468 51.8508 563.815C51.406 563.208 50.8254 562.715 50.1554 562.373C49.4854 562.032 48.7447 561.852 47.9928 561.849Z" stroke="url(#paint24_linear_58_269)" stroke-width="2" mask="url(#path-1-inside-1_58_269)"/>
<path d="M19.3195 569.796C20.6273 569.881 21.8811 569.949 23.11 570.009C23.9816 566.307 27.2464 565.078 34.1978 565.772C36.38 566.032 38.5924 565.848 40.702 565.232C42.8117 564.616 44.7754 563.58 46.4753 562.186L46.6417 561.818C45.4551 561.477 42.3784 560.588 39.0712 559.585L35.9374 561.792C35.0421 562.413 33.9674 562.723 32.8792 562.673C32.5529 562.661 32.2285 562.621 31.9094 562.552C24.3986 560.762 17.6612 556.605 12.6903 550.693C11.8513 551.603 10.8055 552.298 9.64161 552.718C8.47769 553.138 7.22962 553.272 6.00319 553.108C4.79393 553.005 3.61835 552.658 2.54725 552.087C1.47616 551.516 0.531957 550.733 -0.227894 549.786C-0.390305 549.591 -0.607259 549.449 -0.850943 549.378C-1.09463 549.306 -1.35389 549.31 -1.59569 549.387C-1.83648 549.465 -2.04826 549.613 -2.20348 549.813C-2.3587 550.013 -2.45013 550.255 -2.46593 550.508C-2.53727 552.259 -2.83152 553.994 -3.34167 555.67C-3.98745 557.774 -4.39216 559.944 -4.54796 562.139C-2.57413 563.603 5.44941 568.896 19.3195 569.796Z" stroke="url(#paint25_linear_58_269)" stroke-width="2" mask="url(#path-1-inside-1_58_269)"/>
<path d="M52.8388 567.097L52.3916 564.996C46.2198 570.552 37.8342 571.798 25.3137 571.355C23.3879 571.287 21.3674 571.179 19.2395 571.041C5.642 570.159 -2.34748 565.272 -4.92846 563.412L-8.18004 568.462C-8.25963 568.586 -8.29273 568.734 -8.27343 568.88C-8.24688 569.082 -7.52687 573.843 1.33839 574.802C4.80756 575.174 13.1404 575.843 21.6087 576.143C30.4269 576.454 39.3889 576.372 43.1536 575.157C46.9588 574.071 50.2827 571.724 52.5808 568.501C52.7148 568.296 52.8066 568.066 52.8508 567.825C52.8951 567.584 52.8911 567.337 52.8388 567.097Z" stroke="url(#paint26_linear_58_269)" stroke-width="2" mask="url(#path-1-inside-1_58_269)"/>
<path d="M44.678 605.649C44.5977 605.47 44.5814 605.269 44.6318 605.079C44.6822 604.89 44.7961 604.723 44.9546 604.608C51.1624 600.054 56.9417 597.863 61.1154 595.92C72.2758 590.723 83.8008 590.712 84.9745 583.919C85.5671 580.49 84.6496 576.19 81.6841 574.27C81.4938 574.143 81.3539 573.954 81.2881 573.734C81.2223 573.515 81.235 573.279 81.324 573.068C82.669 569.83 84.2495 566.687 85.4729 563.4C86.7131 560.064 87.7958 559.434 88.7593 559.574C89.2 559.639 89.7508 562.063 90.2257 564.26C91.3919 570.797 92.1581 577.399 92.5201 584.03C92.7 590.902 90.2101 593.102 85.7111 595.036C78.4392 598.163 76.698 597.23 71.1423 600.561C68.102 602.382 67.4199 603.664 66.7056 605.156C66.5311 605.518 66.4326 605.912 66.4159 606.314C66.3992 606.716 66.4649 607.116 66.6088 607.492C67.0337 608.528 68.2798 608.811 69.6808 608.881L91.2333 609.389C91.271 609.389 91.3081 609.398 91.3425 609.413C91.377 609.429 91.4082 609.451 91.434 609.479C91.4598 609.506 91.4797 609.539 91.4928 609.574C91.5059 609.61 91.512 609.648 91.5104 609.685L91.4537 611.047C91.4515 611.12 91.4209 611.19 91.3682 611.241C91.3155 611.292 91.2451 611.321 91.1718 611.32C84.8601 611.165 68.5253 611.309 62.7229 612.499C54.5833 614.17 52.6856 612.879 50.5164 611.747C47.9677 610.396 45.9204 608.259 44.677 605.65L44.678 605.649Z" stroke="url(#paint27_linear_58_269)" stroke-width="2" mask="url(#path-1-inside-1_58_269)"/>
</g>
</g>
<defs>
<linearGradient id="paint0_linear_58_269" x1="-1468" y1="387.021" x2="2642.79" y2="387.021" gradientUnits="userSpaceOnUse">
<stop offset="0.03" stop-color="#CBAD73" stop-opacity="0"/>
<stop offset="0.09" stop-color="#8B1C3E" stop-opacity="0.37"/>
<stop offset="0.175" stop-color="#CBAD73" stop-opacity="0.54"/>
<stop offset="0.515" stop-color="#E6B962" stop-opacity="0.25"/>
<stop offset="0.705" stop-color="#957F56" stop-opacity="0.28"/>
<stop offset="0.755" stop-color="#8B1C3E" stop-opacity="0.37"/>
<stop offset="0.825" stop-color="#CBAD73"/>
<stop offset="0.905" stop-color="#E6B962" stop-opacity="0"/>
</linearGradient>
<linearGradient id="paint1_linear_58_269" x1="-1468" y1="387.021" x2="2642.79" y2="387.021" gradientUnits="userSpaceOnUse">
<stop offset="0.03" stop-color="#CBAD73" stop-opacity="0"/>
<stop offset="0.09" stop-color="#8B1C3E" stop-opacity="0.37"/>
<stop offset="0.175" stop-color="#CBAD73" stop-opacity="0.54"/>
<stop offset="0.515" stop-color="#E6B962" stop-opacity="0.25"/>
<stop offset="0.705" stop-color="#957F56" stop-opacity="0.28"/>
<stop offset="0.755" stop-color="#8B1C3E" stop-opacity="0.37"/>
<stop offset="0.825" stop-color="#CBAD73"/>
<stop offset="0.905" stop-color="#E6B962" stop-opacity="0"/>
</linearGradient>
<linearGradient id="paint2_linear_58_269" x1="-1468" y1="387.021" x2="2642.79" y2="387.021" gradientUnits="userSpaceOnUse">
<stop offset="0.03" stop-color="#CBAD73" stop-opacity="0"/>
<stop offset="0.09" stop-color="#8B1C3E" stop-opacity="0.37"/>
<stop offset="0.175" stop-color="#CBAD73" stop-opacity="0.54"/>
<stop offset="0.515" stop-color="#E6B962" stop-opacity="0.25"/>
<stop offset="0.705" stop-color="#957F56" stop-opacity="0.28"/>
<stop offset="0.755" stop-color="#8B1C3E" stop-opacity="0.37"/>
<stop offset="0.825" stop-color="#CBAD73"/>
<stop offset="0.905" stop-color="#E6B962" stop-opacity="0"/>
</linearGradient>
<linearGradient id="paint3_linear_58_269" x1="-1468" y1="387.021" x2="2642.79" y2="387.021" gradientUnits="userSpaceOnUse">
<stop offset="0.03" stop-color="#CBAD73" stop-opacity="0"/>
<stop offset="0.09" stop-color="#8B1C3E" stop-opacity="0.37"/>
<stop offset="0.175" stop-color="#CBAD73" stop-opacity="0.54"/>
<stop offset="0.515" stop-color="#E6B962" stop-opacity="0.25"/>
<stop offset="0.705" stop-color="#957F56" stop-opacity="0.28"/>
<stop offset="0.755" stop-color="#8B1C3E" stop-opacity="0.37"/>
<stop offset="0.825" stop-color="#CBAD73"/>
<stop offset="0.905" stop-color="#E6B962" stop-opacity="0"/>
</linearGradient>
<linearGradient id="paint4_linear_58_269" x1="-1468" y1="387.021" x2="2642.79" y2="387.021" gradientUnits="userSpaceOnUse">
<stop offset="0.03" stop-color="#CBAD73" stop-opacity="0"/>
<stop offset="0.09" stop-color="#8B1C3E" stop-opacity="0.37"/>
<stop offset="0.175" stop-color="#CBAD73" stop-opacity="0.54"/>
<stop offset="0.515" stop-color="#E6B962" stop-opacity="0.25"/>
<stop offset="0.705" stop-color="#957F56" stop-opacity="0.28"/>
<stop offset="0.755" stop-color="#8B1C3E" stop-opacity="0.37"/>
<stop offset="0.825" stop-color="#CBAD73"/>
<stop offset="0.905" stop-color="#E6B962" stop-opacity="0"/>
</linearGradient>
<linearGradient id="paint5_linear_58_269" x1="-1468" y1="387.021" x2="2642.79" y2="387.021" gradientUnits="userSpaceOnUse">
<stop offset="0.03" stop-color="#CBAD73" stop-opacity="0"/>
<stop offset="0.09" stop-color="#8B1C3E" stop-opacity="0.37"/>
<stop offset="0.175" stop-color="#CBAD73" stop-opacity="0.54"/>
<stop offset="0.515" stop-color="#E6B962" stop-opacity="0.25"/>
<stop offset="0.705" stop-color="#957F56" stop-opacity="0.28"/>
<stop offset="0.755" stop-color="#8B1C3E" stop-opacity="0.37"/>
<stop offset="0.825" stop-color="#CBAD73"/>
<stop offset="0.905" stop-color="#E6B962" stop-opacity="0"/>
</linearGradient>
<linearGradient id="paint6_linear_58_269" x1="-1468" y1="387.021" x2="2642.79" y2="387.021" gradientUnits="userSpaceOnUse">
<stop offset="0.03" stop-color="#CBAD73" stop-opacity="0"/>
<stop offset="0.09" stop-color="#8B1C3E" stop-opacity="0.37"/>
<stop offset="0.175" stop-color="#CBAD73" stop-opacity="0.54"/>
<stop offset="0.515" stop-color="#E6B962" stop-opacity="0.25"/>
<stop offset="0.705" stop-color="#957F56" stop-opacity="0.28"/>
<stop offset="0.755" stop-color="#8B1C3E" stop-opacity="0.37"/>
<stop offset="0.825" stop-color="#CBAD73"/>
<stop offset="0.905" stop-color="#E6B962" stop-opacity="0"/>
</linearGradient>
<linearGradient id="paint7_linear_58_269" x1="-1468" y1="387.021" x2="2642.79" y2="387.021" gradientUnits="userSpaceOnUse">
<stop offset="0.03" stop-color="#CBAD73" stop-opacity="0"/>
<stop offset="0.09" stop-color="#8B1C3E" stop-opacity="0.37"/>
<stop offset="0.175" stop-color="#CBAD73" stop-opacity="0.54"/>
<stop offset="0.515" stop-color="#E6B962" stop-opacity="0.25"/>
<stop offset="0.705" stop-color="#957F56" stop-opacity="0.28"/>
<stop offset="0.755" stop-color="#8B1C3E" stop-opacity="0.37"/>
<stop offset="0.825" stop-color="#CBAD73"/>
<stop offset="0.905" stop-color="#E6B962" stop-opacity="0"/>
</linearGradient>
<linearGradient id="paint8_linear_58_269" x1="-1468" y1="387.021" x2="2642.79" y2="387.021" gradientUnits="userSpaceOnUse">
<stop offset="0.03" stop-color="#CBAD73" stop-opacity="0"/>
<stop offset="0.09" stop-color="#8B1C3E" stop-opacity="0.37"/>
<stop offset="0.175" stop-color="#CBAD73" stop-opacity="0.54"/>
<stop offset="0.515" stop-color="#E6B962" stop-opacity="0.25"/>
<stop offset="0.705" stop-color="#957F56" stop-opacity="0.28"/>
<stop offset="0.755" stop-color="#8B1C3E" stop-opacity="0.37"/>
<stop offset="0.825" stop-color="#CBAD73"/>
<stop offset="0.905" stop-color="#E6B962" stop-opacity="0"/>
</linearGradient>
<linearGradient id="paint9_linear_58_269" x1="-1468" y1="387.021" x2="2642.79" y2="387.021" gradientUnits="userSpaceOnUse">
<stop offset="0.03" stop-color="#CBAD73" stop-opacity="0"/>
<stop offset="0.09" stop-color="#8B1C3E" stop-opacity="0.37"/>
<stop offset="0.175" stop-color="#CBAD73" stop-opacity="0.54"/>
<stop offset="0.515" stop-color="#E6B962" stop-opacity="0.25"/>
<stop offset="0.705" stop-color="#957F56" stop-opacity="0.28"/>
<stop offset="0.755" stop-color="#8B1C3E" stop-opacity="0.37"/>
<stop offset="0.825" stop-color="#CBAD73"/>
<stop offset="0.905" stop-color="#E6B962" stop-opacity="0"/>
</linearGradient>
<linearGradient id="paint10_linear_58_269" x1="-1468" y1="387.021" x2="2642.79" y2="387.021" gradientUnits="userSpaceOnUse">
<stop offset="0.03" stop-color="#CBAD73" stop-opacity="0"/>
<stop offset="0.09" stop-color="#8B1C3E" stop-opacity="0.37"/>
<stop offset="0.175" stop-color="#CBAD73" stop-opacity="0.54"/>
<stop offset="0.515" stop-color="#E6B962" stop-opacity="0.25"/>
<stop offset="0.705" stop-color="#957F56" stop-opacity="0.28"/>
<stop offset="0.755" stop-color="#8B1C3E" stop-opacity="0.37"/>
<stop offset="0.825" stop-color="#CBAD73"/>
<stop offset="0.905" stop-color="#E6B962" stop-opacity="0"/>
</linearGradient>
<linearGradient id="paint11_linear_58_269" x1="-1468" y1="387.021" x2="2642.79" y2="387.021" gradientUnits="userSpaceOnUse">
<stop offset="0.03" stop-color="#CBAD73" stop-opacity="0"/>
<stop offset="0.09" stop-color="#8B1C3E" stop-opacity="0.37"/>
<stop offset="0.175" stop-color="#CBAD73" stop-opacity="0.54"/>
<stop offset="0.515" stop-color="#E6B962" stop-opacity="0.25"/>
<stop offset="0.705" stop-color="#957F56" stop-opacity="0.28"/>
<stop offset="0.755" stop-color="#8B1C3E" stop-opacity="0.37"/>
<stop offset="0.825" stop-color="#CBAD73"/>
<stop offset="0.905" stop-color="#E6B962" stop-opacity="0"/>
</linearGradient>
<linearGradient id="paint12_linear_58_269" x1="-1468" y1="387.021" x2="2642.79" y2="387.021" gradientUnits="userSpaceOnUse">
<stop offset="0.03" stop-color="#CBAD73" stop-opacity="0"/>
<stop offset="0.09" stop-color="#8B1C3E" stop-opacity="0.37"/>
<stop offset="0.175" stop-color="#CBAD73" stop-opacity="0.54"/>
<stop offset="0.515" stop-color="#E6B962" stop-opacity="0.25"/>
<stop offset="0.705" stop-color="#957F56" stop-opacity="0.28"/>
<stop offset="0.755" stop-color="#8B1C3E" stop-opacity="0.37"/>
<stop offset="0.825" stop-color="#CBAD73"/>
<stop offset="0.905" stop-color="#E6B962" stop-opacity="0"/>
</linearGradient>
<linearGradient id="paint13_linear_58_269" x1="-1468" y1="387.021" x2="2642.79" y2="387.021" gradientUnits="userSpaceOnUse">
<stop offset="0.03" stop-color="#CBAD73" stop-opacity="0"/>
<stop offset="0.09" stop-color="#8B1C3E" stop-opacity="0.37"/>
<stop offset="0.175" stop-color="#CBAD73" stop-opacity="0.54"/>
<stop offset="0.515" stop-color="#E6B962" stop-opacity="0.25"/>
<stop offset="0.705" stop-color="#957F56" stop-opacity="0.28"/>
<stop offset="0.755" stop-color="#8B1C3E" stop-opacity="0.37"/>
<stop offset="0.825" stop-color="#CBAD73"/>
<stop offset="0.905" stop-color="#E6B962" stop-opacity="0"/>
</linearGradient>
<linearGradient id="paint14_linear_58_269" x1="-1468" y1="387.021" x2="2642.79" y2="387.021" gradientUnits="userSpaceOnUse">
<stop offset="0.03" stop-color="#CBAD73" stop-opacity="0"/>
<stop offset="0.09" stop-color="#8B1C3E" stop-opacity="0.37"/>
<stop offset="0.175" stop-color="#CBAD73" stop-opacity="0.54"/>
<stop offset="0.515" stop-color="#E6B962" stop-opacity="0.25"/>
<stop offset="0.705" stop-color="#957F56" stop-opacity="0.28"/>
<stop offset="0.755" stop-color="#8B1C3E" stop-opacity="0.37"/>
<stop offset="0.825" stop-color="#CBAD73"/>
<stop offset="0.905" stop-color="#E6B962" stop-opacity="0"/>
</linearGradient>
<linearGradient id="paint15_linear_58_269" x1="-1468" y1="387.021" x2="2642.79" y2="387.021" gradientUnits="userSpaceOnUse">
<stop offset="0.03" stop-color="#CBAD73" stop-opacity="0"/>
<stop offset="0.09" stop-color="#8B1C3E" stop-opacity="0.37"/>
<stop offset="0.175" stop-color="#CBAD73" stop-opacity="0.54"/>
<stop offset="0.515" stop-color="#E6B962" stop-opacity="0.25"/>
<stop offset="0.705" stop-color="#957F56" stop-opacity="0.28"/>
<stop offset="0.755" stop-color="#8B1C3E" stop-opacity="0.37"/>
<stop offset="0.825" stop-color="#CBAD73"/>
<stop offset="0.905" stop-color="#E6B962" stop-opacity="0"/>
</linearGradient>
<linearGradient id="paint16_linear_58_269" x1="-1468" y1="387.021" x2="2642.79" y2="387.021" gradientUnits="userSpaceOnUse">
<stop offset="0.03" stop-color="#CBAD73" stop-opacity="0"/>
<stop offset="0.09" stop-color="#8B1C3E" stop-opacity="0.37"/>
<stop offset="0.175" stop-color="#CBAD73" stop-opacity="0.54"/>
<stop offset="0.515" stop-color="#E6B962" stop-opacity="0.25"/>
<stop offset="0.705" stop-color="#957F56" stop-opacity="0.28"/>
<stop offset="0.755" stop-color="#8B1C3E" stop-opacity="0.37"/>
<stop offset="0.825" stop-color="#CBAD73"/>
<stop offset="0.905" stop-color="#E6B962" stop-opacity="0"/>
</linearGradient>
<linearGradient id="paint17_linear_58_269" x1="-1468" y1="387.021" x2="2642.79" y2="387.021" gradientUnits="userSpaceOnUse">
<stop offset="0.03" stop-color="#CBAD73" stop-opacity="0"/>
<stop offset="0.09" stop-color="#8B1C3E" stop-opacity="0.37"/>
<stop offset="0.175" stop-color="#CBAD73" stop-opacity="0.54"/>
<stop offset="0.515" stop-color="#E6B962" stop-opacity="0.25"/>
<stop offset="0.705" stop-color="#957F56" stop-opacity="0.28"/>
<stop offset="0.755" stop-color="#8B1C3E" stop-opacity="0.37"/>
<stop offset="0.825" stop-color="#CBAD73"/>
<stop offset="0.905" stop-color="#E6B962" stop-opacity="0"/>
</linearGradient>
<linearGradient id="paint18_linear_58_269" x1="-1468" y1="387.021" x2="2642.79" y2="387.021" gradientUnits="userSpaceOnUse">
<stop offset="0.03" stop-color="#CBAD73" stop-opacity="0"/>
<stop offset="0.09" stop-color="#8B1C3E" stop-opacity="0.37"/>
<stop offset="0.175" stop-color="#CBAD73" stop-opacity="0.54"/>
<stop offset="0.515" stop-color="#E6B962" stop-opacity="0.25"/>
<stop offset="0.705" stop-color="#957F56" stop-opacity="0.28"/>
<stop offset="0.755" stop-color="#8B1C3E" stop-opacity="0.37"/>
<stop offset="0.825" stop-color="#CBAD73"/>
<stop offset="0.905" stop-color="#E6B962" stop-opacity="0"/>
</linearGradient>
<linearGradient id="paint19_linear_58_269" x1="-1468" y1="387.021" x2="2642.79" y2="387.021" gradientUnits="userSpaceOnUse">
<stop offset="0.03" stop-color="#CBAD73" stop-opacity="0"/>
<stop offset="0.09" stop-color="#8B1C3E" stop-opacity="0.37"/>
<stop offset="0.175" stop-color="#CBAD73" stop-opacity="0.54"/>
<stop offset="0.515" stop-color="#E6B962" stop-opacity="0.25"/>
<stop offset="0.705" stop-color="#957F56" stop-opacity="0.28"/>
<stop offset="0.755" stop-color="#8B1C3E" stop-opacity="0.37"/>
<stop offset="0.825" stop-color="#CBAD73"/>
<stop offset="0.905" stop-color="#E6B962" stop-opacity="0"/>
</linearGradient>
<linearGradient id="paint20_linear_58_269" x1="-1468" y1="387.021" x2="2642.79" y2="387.021" gradientUnits="userSpaceOnUse">
<stop offset="0.03" stop-color="#CBAD73" stop-opacity="0"/>
<stop offset="0.09" stop-color="#8B1C3E" stop-opacity="0.37"/>
<stop offset="0.175" stop-color="#CBAD73" stop-opacity="0.54"/>
<stop offset="0.515" stop-color="#E6B962" stop-opacity="0.25"/>
<stop offset="0.705" stop-color="#957F56" stop-opacity="0.28"/>
<stop offset="0.755" stop-color="#8B1C3E" stop-opacity="0.37"/>
<stop offset="0.825" stop-color="#CBAD73"/>
<stop offset="0.905" stop-color="#E6B962" stop-opacity="0"/>
</linearGradient>
<linearGradient id="paint21_linear_58_269" x1="-1468" y1="387.021" x2="2642.79" y2="387.021" gradientUnits="userSpaceOnUse">
<stop offset="0.03" stop-color="#CBAD73" stop-opacity="0"/>
<stop offset="0.09" stop-color="#8B1C3E" stop-opacity="0.37"/>
<stop offset="0.175" stop-color="#CBAD73" stop-opacity="0.54"/>
<stop offset="0.515" stop-color="#E6B962" stop-opacity="0.25"/>
<stop offset="0.705" stop-color="#957F56" stop-opacity="0.28"/>
<stop offset="0.755" stop-color="#8B1C3E" stop-opacity="0.37"/>
<stop offset="0.825" stop-color="#CBAD73"/>
<stop offset="0.905" stop-color="#E6B962" stop-opacity="0"/>
</linearGradient>
<linearGradient id="paint22_linear_58_269" x1="-1468" y1="387.021" x2="2642.79" y2="387.021" gradientUnits="userSpaceOnUse">
<stop offset="0.03" stop-color="#CBAD73" stop-opacity="0"/>
<stop offset="0.09" stop-color="#8B1C3E" stop-opacity="0.37"/>
<stop offset="0.175" stop-color="#CBAD73" stop-opacity="0.54"/>
<stop offset="0.515" stop-color="#E6B962" stop-opacity="0.25"/>
<stop offset="0.705" stop-color="#957F56" stop-opacity="0.28"/>
<stop offset="0.755" stop-color="#8B1C3E" stop-opacity="0.37"/>
<stop offset="0.825" stop-color="#CBAD73"/>
<stop offset="0.905" stop-color="#E6B962" stop-opacity="0"/>
</linearGradient>
<linearGradient id="paint23_linear_58_269" x1="-1468" y1="387.021" x2="2642.79" y2="387.021" gradientUnits="userSpaceOnUse">
<stop offset="0.03" stop-color="#CBAD73" stop-opacity="0"/>
<stop offset="0.09" stop-color="#8B1C3E" stop-opacity="0.37"/>
<stop offset="0.175" stop-color="#CBAD73" stop-opacity="0.54"/>
<stop offset="0.515" stop-color="#E6B962" stop-opacity="0.25"/>
<stop offset="0.705" stop-color="#957F56" stop-opacity="0.28"/>
<stop offset="0.755" stop-color="#8B1C3E" stop-opacity="0.37"/>
<stop offset="0.825" stop-color="#CBAD73"/>
<stop offset="0.905" stop-color="#E6B962" stop-opacity="0"/>
</linearGradient>
<linearGradient id="paint24_linear_58_269" x1="-1468" y1="387.021" x2="2642.79" y2="387.021" gradientUnits="userSpaceOnUse">
<stop offset="0.03" stop-color="#CBAD73" stop-opacity="0"/>
<stop offset="0.09" stop-color="#8B1C3E" stop-opacity="0.37"/>
<stop offset="0.175" stop-color="#CBAD73" stop-opacity="0.54"/>
<stop offset="0.515" stop-color="#E6B962" stop-opacity="0.25"/>
<stop offset="0.705" stop-color="#957F56" stop-opacity="0.28"/>
<stop offset="0.755" stop-color="#8B1C3E" stop-opacity="0.37"/>
<stop offset="0.825" stop-color="#CBAD73"/>
<stop offset="0.905" stop-color="#E6B962" stop-opacity="0"/>
</linearGradient>
<linearGradient id="paint25_linear_58_269" x1="-1468" y1="387.021" x2="2642.79" y2="387.021" gradientUnits="userSpaceOnUse">
<stop offset="0.03" stop-color="#CBAD73" stop-opacity="0"/>
<stop offset="0.09" stop-color="#8B1C3E" stop-opacity="0.37"/>
<stop offset="0.175" stop-color="#CBAD73" stop-opacity="0.54"/>
<stop offset="0.515" stop-color="#E6B962" stop-opacity="0.25"/>
<stop offset="0.705" stop-color="#957F56" stop-opacity="0.28"/>
<stop offset="0.755" stop-color="#8B1C3E" stop-opacity="0.37"/>
<stop offset="0.825" stop-color="#CBAD73"/>
<stop offset="0.905" stop-color="#E6B962" stop-opacity="0"/>
</linearGradient>
<linearGradient id="paint26_linear_58_269" x1="-1468" y1="387.021" x2="2642.79" y2="387.021" gradientUnits="userSpaceOnUse">
<stop offset="0.03" stop-color="#CBAD73" stop-opacity="0"/>
<stop offset="0.09" stop-color="#8B1C3E" stop-opacity="0.37"/>
<stop offset="0.175" stop-color="#CBAD73" stop-opacity="0.54"/>
<stop offset="0.515" stop-color="#E6B962" stop-opacity="0.25"/>
<stop offset="0.705" stop-color="#957F56" stop-opacity="0.28"/>
<stop offset="0.755" stop-color="#8B1C3E" stop-opacity="0.37"/>
<stop offset="0.825" stop-color="#CBAD73"/>
<stop offset="0.905" stop-color="#E6B962" stop-opacity="0"/>
</linearGradient>
<linearGradient id="paint27_linear_58_269" x1="-1468" y1="387.021" x2="2642.79" y2="387.021" gradientUnits="userSpaceOnUse">
<stop offset="0.03" stop-color="#CBAD73" stop-opacity="0"/>
<stop offset="0.09" stop-color="#8B1C3E" stop-opacity="0.37"/>
<stop offset="0.175" stop-color="#CBAD73" stop-opacity="0.54"/>
<stop offset="0.515" stop-color="#E6B962" stop-opacity="0.25"/>
<stop offset="0.705" stop-color="#957F56" stop-opacity="0.28"/>
<stop offset="0.755" stop-color="#8B1C3E" stop-opacity="0.37"/>
<stop offset="0.825" stop-color="#CBAD73"/>
<stop offset="0.905" stop-color="#E6B962" stop-opacity="0"/>
</linearGradient>
<clipPath id="clip0_58_269">
<rect width="116" height="652" fill="white"/>
</clipPath>
</defs>
</svg>
