<svg width="138" height="654" viewBox="0 0 138 654" fill="none" xmlns="http://www.w3.org/2000/svg">
<g clip-path="url(#clip0_58_345)">
<g opacity="0.8">
<mask id="path-1-inside-1_58_345" fill="white">
<path d="M169.305 386.889L164.989 374.257C164.687 373.395 164.206 372.606 163.578 371.942C162.95 371.278 162.189 370.754 161.345 370.405L142.887 362.929C142.027 362.581 141.102 362.419 140.174 362.457C139.246 362.494 138.337 362.728 137.507 363.144L125.7 369.209C124.947 369.591 124.352 370.226 124.018 371.002C123.684 371.778 123.633 372.646 123.872 373.457L126.097 380.906C126.245 381.414 126.504 381.883 126.855 382.279C127.205 382.675 127.639 382.989 128.126 383.197C128.843 383.487 129.634 383.541 130.384 383.35L124.363 398.233C123.936 399.299 123.949 400.49 124.399 401.545C124.848 402.601 125.698 403.436 126.761 403.866L144.361 410.995C144.889 411.219 145.455 411.335 146.028 411.337C146.601 411.339 147.169 411.227 147.698 411.007C148.227 410.788 148.707 410.465 149.11 410.058C149.514 409.651 149.832 409.168 150.047 408.637L156.176 393.488C156.553 394.101 157.116 394.578 157.783 394.847C158.24 395.041 158.733 395.138 159.23 395.13C159.727 395.121 160.216 395.009 160.667 394.799L167.584 391.144C168.328 390.754 168.91 390.112 169.225 389.332C169.54 388.553 169.569 387.687 169.305 386.889ZM156.19 371.945C155.451 373.097 154.334 373.954 153.031 374.369C151.728 374.783 150.321 374.729 149.053 374.216C147.785 373.702 146.737 372.762 146.089 371.557C145.441 370.352 145.235 368.958 145.505 367.617L156.19 371.945Z"/>
<path d="M140.734 325.981C141.561 323.938 140.575 321.611 138.534 320.784C138.529 320.782 138.524 320.78 138.519 320.778C138.524 320.778 138.529 320.779 138.534 320.779C140.737 320.763 142.511 318.964 142.495 316.76C142.48 314.556 140.682 312.782 138.479 312.797C138.428 312.797 138.378 312.8 138.327 312.802C138.374 312.784 138.422 312.766 138.469 312.746C140.497 311.886 141.445 309.544 140.585 307.514C139.726 305.485 137.385 304.537 135.357 305.397C133.329 306.256 132.381 308.599 133.24 310.628C133.908 312.205 135.469 313.128 137.084 313.059C135.574 313.636 134.507 315.103 134.518 316.815C134.53 318.485 135.564 319.907 137.022 320.492C135.451 320.499 133.966 321.439 133.34 322.986C132.698 324.573 133.149 326.331 134.34 327.424C132.864 326.764 131.073 327.046 129.871 328.265C128.7 329.454 128.426 331.191 129.043 332.637C127.928 331.53 126.213 331.143 124.677 331.794C123.102 332.462 122.179 334.025 122.248 335.64C121.671 334.13 120.205 333.061 118.494 333.073C116.825 333.085 115.404 334.12 114.819 335.579C114.813 334.007 113.873 332.52 112.327 331.894C110.741 331.251 108.984 331.703 107.891 332.894C108.551 331.418 108.269 329.625 107.051 328.423C105.863 327.251 104.127 326.977 102.682 327.595C103.788 326.479 104.175 324.763 103.524 323.226C102.856 321.65 101.295 320.726 99.6804 320.795C101.19 320.218 102.257 318.751 102.246 317.039C102.234 315.37 101.2 313.948 99.7418 313.362C101.313 313.356 102.799 312.416 103.424 310.869C104.067 309.282 103.615 307.524 102.424 306.43C103.9 307.09 105.691 306.808 106.893 305.589C108.064 304.401 108.338 302.663 107.721 301.218C108.836 302.325 110.551 302.711 112.087 302.06C114.115 301.2 115.063 298.858 114.204 296.828C113.344 294.799 111.003 293.851 108.975 294.711C106.947 295.57 105.999 297.913 106.858 299.942C106.861 299.947 106.863 299.952 106.865 299.957C106.861 299.953 106.858 299.949 106.854 299.945C105.285 298.398 102.76 298.415 101.213 299.984C99.6666 301.554 99.6842 304.08 101.253 305.628C101.289 305.664 101.326 305.698 101.364 305.733C101.317 305.712 101.271 305.691 101.224 305.672C99.1819 304.845 96.8567 305.831 96.0302 307.874C95.2036 309.917 96.1888 312.243 98.2306 313.07C98.2356 313.072 98.2406 313.074 98.2456 313.076C98.2403 313.076 98.2348 313.076 98.2295 313.076C96.0267 313.091 94.2535 314.89 94.2688 317.094C94.2841 319.298 96.082 321.073 98.2847 321.057C98.3358 321.057 98.3863 321.055 98.4369 321.052C98.3896 321.07 98.3424 321.088 98.2953 321.108C96.2671 321.968 95.3195 324.31 96.1788 326.34C97.0381 328.369 99.3791 329.318 101.407 328.458C101.412 328.456 101.417 328.453 101.422 328.451C101.418 328.455 101.414 328.459 101.41 328.462C99.8636 330.032 99.8812 332.559 101.45 334.106C103.018 335.654 105.543 335.636 107.09 334.067C107.126 334.031 107.16 333.993 107.194 333.956C107.173 334.002 107.153 334.048 107.133 334.096C106.307 336.139 107.292 338.465 109.334 339.292C111.376 340.119 113.701 339.134 114.528 337.091C114.53 337.086 114.531 337.081 114.533 337.076C114.533 337.081 114.533 337.086 114.533 337.092C114.548 339.296 116.346 341.07 118.549 341.055C120.752 341.04 122.525 339.241 122.51 337.037C122.509 336.985 122.507 336.935 122.505 336.884C122.523 336.931 122.541 336.979 122.561 337.026C123.42 339.055 125.761 340.004 127.789 339.144C129.817 338.284 130.765 335.942 129.906 333.912C129.904 333.907 129.901 333.902 129.899 333.898C129.903 333.901 129.906 333.905 129.91 333.909C131.479 335.457 134.004 335.439 135.551 333.87C137.098 332.301 137.08 329.774 135.512 328.226C135.475 328.19 135.438 328.156 135.4 328.122C135.447 328.143 135.493 328.163 135.54 328.183C137.582 329.01 139.908 328.024 140.734 325.981Z"/>
<path d="M124.807 301.048C126.344 301.671 128.096 300.928 128.718 299.389C129.341 297.85 128.599 296.098 127.061 295.475C125.523 294.852 123.772 295.594 123.149 297.133C122.527 298.672 123.269 300.425 124.807 301.048Z"/>
<path d="M117.342 298.228C118.263 298.176 119.186 298.193 120.105 298.278C120.1 297.311 120.338 296.359 120.795 295.507C119.427 295.352 118.048 295.33 116.676 295.44C116.721 295.534 116.765 295.629 116.805 295.726C117.141 296.518 117.323 297.367 117.342 298.228ZM132.129 304.218C132.741 303.612 133.462 303.129 134.255 302.793C134.351 302.752 134.448 302.714 134.547 302.678C133.638 301.644 132.631 300.7 131.54 299.859C131.484 300.058 131.417 300.255 131.338 300.45C131.055 301.151 130.637 301.79 130.109 302.331C130.829 302.909 131.504 303.539 132.129 304.218Z"/>
<path d="M1.49566 576.349C1.55781 576.163 1.68223 576.004 1.84774 575.898C2.01326 575.793 2.2099 575.748 2.40444 575.771C10.0528 576.632 15.7856 578.94 20.1699 580.342C31.8945 584.089 40.3752 591.896 45.8388 587.698C48.5966 585.579 50.8345 581.796 49.9543 578.373C49.9003 578.151 49.9255 577.917 50.0257 577.711C50.1259 577.505 50.2949 577.341 50.5033 577.246C53.6851 575.777 56.9764 574.538 60.1016 572.951C63.2726 571.34 64.4952 571.611 65.1085 572.367C65.3888 572.713 64.1524 574.869 63.0136 576.806C59.4439 582.403 55.5358 587.776 51.3113 592.896C46.7895 598.07 43.4689 597.999 38.8512 596.37C31.3874 593.738 30.7395 591.871 24.3992 590.553C20.9301 589.831 19.5601 590.311 18.0249 590.923C17.6515 591.071 17.3122 591.293 17.0279 591.577C16.7436 591.861 16.5203 592.201 16.3719 592.574C15.9821 593.624 16.7073 594.677 17.6899 595.678L33.1914 610.666C33.2185 610.692 33.2402 610.724 33.255 610.759C33.2698 610.793 33.2777 610.831 33.278 610.869C33.2782 610.906 33.2709 610.944 33.2565 610.979C33.2421 611.014 33.2208 611.046 33.1941 611.072L32.2308 612.035C32.1794 612.087 32.1096 612.118 32.0362 612.12C31.9629 612.121 31.8918 612.095 31.8381 612.045C27.3027 607.651 15.1957 596.68 10.1235 593.621C3.00762 589.33 2.48688 587.094 1.65872 584.791C0.699827 582.069 0.64227 579.109 1.49453 576.349H1.49566Z"/>
<path d="M96.2378 615.089C94.6891 613.173 93.983 612.569 93.2507 612.766C90.7152 613.448 84.6565 615.606 80.0326 618.539C77.1431 620.369 75.6004 621.363 74.6079 621.744C73.6154 622.126 71.8062 622.42 68.4335 622.996C63.0361 623.913 57.093 626.367 54.7517 627.56C54.0782 627.902 53.9546 628.825 54.0859 631.286C54.1994 633.439 55.5489 633.683 57.9055 637.03C61.5972 642.272 68.6721 640.922 72.8351 637.945C77.3636 634.711 74.8654 628.829 74.8412 627.717C74.8134 626.605 75.0251 625.803 76.0191 625.421C77.016 625.038 77.7082 625.492 78.4315 626.337C79.1573 627.18 81.2366 633.225 86.7623 632.594C91.8473 632.015 98.0059 628.282 97.2438 621.914C96.7572 617.849 97.5956 616.765 96.2378 615.089ZM60.0889 622.904C61.5249 619.201 62.5926 616.518 64.0801 615.477C64.7236 615.026 66.4998 614.933 67.2486 615.035C69.2549 615.306 70.0079 613.079 67.8869 612.625C65.5415 612.123 63.1377 612.93 61.9936 614.661C60.722 616.587 57.8168 621.509 56.0893 624.457C57.404 623.893 58.7382 623.375 60.0889 622.904ZM75.5873 611.83C76.0771 611.253 77.4582 610.134 78.2389 610.036C80.0396 609.816 82.6274 611.094 86.1709 612.882C87.49 612.327 88.8278 611.818 90.1822 611.355C86.9268 610.322 81.4758 608.61 79.243 608.031C77.2349 607.511 74.9089 608.522 73.5025 610.466C72.2289 612.225 74.2793 613.374 75.5873 611.83Z"/>
<path d="M110.777 501.107L133.216 484.247C133.581 483.974 133.841 483.583 133.953 483.141C134.065 482.698 134.022 482.231 133.831 481.817L131.326 476.356L134.783 474.769C139.403 472.647 141.277 466.84 138.977 461.825L137.307 458.184C135.007 453.169 129.385 450.803 124.764 452.925L121.308 454.512L118.803 449.052C118.614 448.637 118.288 448.299 117.88 448.095C117.472 447.892 117.006 447.834 116.561 447.933L89.1544 453.961L89.1453 453.966C88.7873 454.044 88.4415 454.169 88.1166 454.339C86.7835 455.071 85.7761 456.28 85.2968 457.725C84.8175 459.169 84.9015 460.741 85.532 462.125L102.229 498.531C102.867 499.912 104.003 501.001 105.41 501.579C106.817 502.157 108.39 502.182 109.814 501.648C110.157 501.511 110.481 501.329 110.777 501.107ZM126.434 456.566C129.045 455.367 132.287 456.842 133.668 459.855L135.338 463.495C136.72 466.508 135.723 469.929 133.113 471.128L129.656 472.715L122.977 458.153L126.434 456.566Z"/>
<path d="M139.432 497.227C139.587 497.106 139.778 497.043 139.975 497.047C140.171 497.051 140.359 497.122 140.509 497.249C146.403 502.201 149.903 507.297 152.779 510.892C160.473 520.504 163.221 531.703 170.093 531.231C173.562 530.992 177.518 529.08 178.678 525.742C178.756 525.527 178.906 525.346 179.104 525.23C179.301 525.114 179.533 525.07 179.758 525.107C183.221 525.645 186.648 526.434 190.128 526.843C193.661 527.256 194.53 528.159 194.622 529.129C194.664 529.572 192.442 530.683 190.423 531.666C184.354 534.352 178.128 536.664 171.777 538.59C165.15 540.397 162.423 538.499 159.477 534.586C154.716 528.261 155.208 526.347 150.656 521.739C148.166 519.216 146.759 518.858 145.142 518.518C144.749 518.434 144.343 518.432 143.949 518.511C143.555 518.59 143.182 518.749 142.852 518.978C141.946 519.637 141.968 520.915 142.233 522.294L146.857 543.361C146.866 543.397 146.866 543.436 146.859 543.473C146.853 543.51 146.838 543.545 146.818 543.577C146.797 543.609 146.77 543.636 146.739 543.657C146.707 543.678 146.672 543.693 146.635 543.7L145.3 543.969C145.228 543.984 145.153 543.971 145.091 543.932C145.029 543.893 144.985 543.831 144.968 543.759C143.62 537.588 139.601 521.747 137.068 516.391C133.514 508.877 134.316 506.726 134.9 504.349C135.606 501.551 137.195 499.054 139.431 497.226L139.432 497.227Z"/>
<path d="M144.01 571.086C142.396 567.459 139.6 564.488 136.08 562.656C132.56 560.824 128.524 560.241 124.63 561.001L126.969 557.42C127.564 556.508 128.478 555.851 129.532 555.576C130.586 555.301 131.704 555.429 132.669 555.934L143.539 561.59C144.507 562.09 145.253 562.933 145.634 563.954C146.014 564.975 146.001 566.101 145.596 567.113L144.01 571.086ZM131.341 595.462L129.002 599.043C128.406 599.955 127.492 600.613 126.438 600.887C125.385 601.162 124.266 601.035 123.301 600.529L112.431 594.873C111.464 594.373 110.717 593.53 110.337 592.509C109.956 591.488 109.97 590.362 110.374 589.35L111.961 585.377C113.575 589.004 116.37 591.975 119.89 593.807C123.41 595.639 127.447 596.222 131.341 595.462Z"/>
<path d="M141.646 573.042C140.306 569.738 137.833 567.019 134.672 565.373C131.51 563.726 127.867 563.26 124.393 564.057C120.636 565.011 117.411 567.418 115.428 570.751C113.445 574.083 112.867 578.067 113.819 581.826C114.772 585.585 117.178 588.812 120.509 590.796C123.839 592.78 127.821 593.359 131.577 592.406C133.562 591.879 135.415 590.944 137.018 589.66C138.62 588.376 139.938 586.771 140.885 584.949C141.833 583.127 142.39 581.126 142.522 579.076C142.653 577.026 142.354 574.971 141.646 573.042ZM130.293 585.545C129.923 585.662 129.522 585.627 129.179 585.448C128.835 585.269 128.576 584.961 128.459 584.591L126.591 578.672C126.476 578.302 126.511 577.901 126.688 577.557L130.061 571.067C130.24 570.722 130.548 570.463 130.918 570.347C131.288 570.23 131.689 570.265 132.033 570.444C132.377 570.623 132.635 570.931 132.752 571.301C132.869 571.671 132.834 572.072 132.655 572.417L129.562 578.369L131.247 583.71C131.364 584.08 131.329 584.481 131.15 584.825C130.971 585.169 130.663 585.428 130.293 585.545Z"/>
<path d="M113.724 542.562L107.394 530.811C106.954 530.01 106.35 529.311 105.622 528.759C104.893 528.207 104.057 527.816 103.167 527.61L83.7332 523.268C82.827 523.066 81.8882 523.059 80.9791 523.248C80.0701 523.437 79.2117 523.818 78.4612 524.365L67.8092 532.287C67.1296 532.788 66.6468 533.512 66.4449 534.332C66.243 535.153 66.3344 536.018 66.7036 536.778L70.1213 543.76C70.3506 544.237 70.6827 544.657 71.0937 544.99C71.5046 545.323 71.9841 545.561 72.4978 545.687C73.2531 545.855 74.0425 545.778 74.7508 545.466L71.2538 561.137C71.0083 562.258 71.2167 563.431 71.8333 564.399C72.4499 565.366 73.4246 566.05 74.5439 566.3L93.0755 570.44C93.6325 570.574 94.2106 570.595 94.7759 570.503C95.3413 570.411 95.8827 570.207 96.3686 569.904C96.8545 569.6 97.2755 569.203 97.6065 568.735C97.9376 568.268 98.1721 567.739 98.2968 567.179L101.856 551.229C102.328 551.772 102.962 552.15 103.665 552.305C104.148 552.422 104.65 552.436 105.138 552.347C105.627 552.257 106.091 552.065 106.501 551.785L112.725 547.042C113.395 546.535 113.863 545.806 114.046 544.986C114.229 544.165 114.115 543.306 113.724 542.562ZM98.3344 529.976C97.7951 531.234 96.8336 532.263 95.6162 532.886C94.3988 533.509 93.0019 533.687 91.6673 533.389C90.3327 533.091 89.1442 532.335 88.3073 531.253C87.4704 530.171 87.0378 528.83 87.0842 527.463L98.3344 529.976Z"/>
<path d="M53.402 221.099L39.6488 245.573C39.425 245.971 39.3442 246.433 39.4199 246.883C39.4957 247.333 39.7233 247.743 40.0649 248.046L44.5553 252.035L42.0303 254.88C38.6548 258.685 39.2776 264.755 43.4013 268.418L46.3947 271.078C50.5184 274.741 56.6164 274.641 59.9919 270.837L62.5169 267.991L67.0075 271.981C67.3479 272.284 67.7818 272.462 68.2372 272.484C68.6927 272.506 69.1421 272.371 69.5101 272.101L92.1693 255.539L92.1758 255.531C92.4721 255.316 92.7384 255.061 92.9675 254.775C93.8929 253.568 94.328 252.055 94.1854 250.54C94.0429 249.025 93.3334 247.62 92.1989 246.606L62.2629 220.012C61.1229 219.005 59.6447 218.466 58.1244 218.504C56.6041 218.542 55.1544 219.153 54.0657 220.215C53.8069 220.48 53.5836 220.777 53.402 221.099ZM56.9983 268.178C55.0912 270.327 51.53 270.283 49.0528 268.082L46.0591 265.423C43.5819 263.222 43.1171 259.689 45.0241 257.54L47.5489 254.694L59.5234 265.332L56.9983 268.178Z"/>
<path d="M139.537 251.306C139.014 251.404 138.516 251.61 138.075 251.91C137.635 252.21 137.262 252.599 136.979 253.051L135.504 255.507C137.49 255.27 139.47 255.052 141.128 254.902L141.825 252.058C141.877 251.904 141.981 251.774 142.119 251.69C142.258 251.606 142.421 251.574 142.581 251.598C142.662 251.615 142.739 251.649 142.806 251.697C142.874 251.745 142.931 251.806 142.974 251.877C143.017 251.948 143.045 252.027 143.056 252.11C143.067 252.192 143.061 252.275 143.039 252.355L142.441 254.793C143.237 254.72 144.036 254.693 144.835 254.714C145.018 254.725 145.23 254.743 145.446 254.763L146.066 252.23C146.112 252.073 146.215 251.938 146.355 251.854C146.495 251.769 146.662 251.74 146.823 251.772C146.903 251.79 146.979 251.824 147.047 251.872C147.114 251.92 147.17 251.981 147.213 252.052C147.256 252.123 147.284 252.201 147.296 252.283C147.308 252.365 147.303 252.448 147.282 252.528L146.702 254.896C147.437 254.982 148.171 255.077 148.904 255.179C149.102 255.208 149.298 255.25 149.495 255.286L150.052 253.013C150.099 252.857 150.203 252.724 150.342 252.639C150.481 252.555 150.647 252.524 150.808 252.553C150.967 252.595 151.105 252.697 151.19 252.839C151.276 252.98 151.303 253.149 151.265 253.31L150.715 255.561C151.6 255.798 152.462 256.115 153.289 256.51L153.864 254.165C153.908 254.006 154.01 253.87 154.151 253.785C154.291 253.7 154.459 253.671 154.62 253.705C154.699 253.725 154.775 253.76 154.841 253.808C154.907 253.857 154.963 253.918 155.006 253.988C155.049 254.059 155.077 254.137 155.089 254.218C155.101 254.299 155.097 254.382 155.077 254.462L154.426 257.124C155.373 257.685 156.251 258.355 157.042 259.121C158.07 260.123 158.719 260.441 159.281 260.215C160.565 259.446 161.516 258.224 161.947 256.789C162.146 256.124 162.175 255.42 162.03 254.741C160.313 253.819 150.631 249.004 139.537 251.306ZM124.863 257.239C124.784 256.806 124.803 256.361 124.917 255.936C125.975 253.787 127.459 251.876 129.278 250.319C131.098 248.763 133.215 247.593 135.501 246.881C142.693 244.531 143.467 242.205 143.137 240.158C131.086 244.908 123.787 249.385 120.54 257.005C121.192 257.379 121.923 257.595 122.674 257.636C123.424 257.677 124.174 257.541 124.863 257.239Z"/>
<path d="M147.864 238.36C146.634 238.812 145.46 239.258 144.313 239.701C145.013 243.439 142.525 245.884 135.889 248.066C133.789 248.712 131.84 249.776 130.16 251.194C128.481 252.611 127.105 254.354 126.114 256.316L126.111 256.721C127.334 256.551 130.506 256.118 133.936 255.695L135.908 252.409C136.476 251.478 137.333 250.76 138.348 250.365C138.651 250.243 138.964 250.149 139.284 250.082C146.875 248.677 154.716 249.748 161.653 253.14C162.052 251.968 162.727 250.909 163.621 250.054C164.515 249.198 165.602 248.571 166.79 248.224C167.937 247.828 169.153 247.67 170.363 247.758C171.573 247.846 172.753 248.179 173.831 248.737C174.058 248.85 174.314 248.892 174.566 248.858C174.817 248.825 175.053 248.717 175.243 248.548C175.431 248.379 175.565 248.158 175.626 247.912C175.687 247.666 175.673 247.408 175.585 247.171C174.942 245.541 174.509 243.836 174.297 242.096C174.037 239.912 173.529 237.764 172.784 235.694C170.387 235.155 160.91 233.565 147.864 238.36Z"/>
<path d="M118.309 254.404L119.568 256.144C122.964 248.565 130.127 244.029 141.753 239.363C143.542 238.645 145.432 237.925 147.434 237.189C160.223 232.489 169.504 233.721 172.616 234.376L173.547 228.442C173.569 228.297 173.54 228.148 173.463 228.022C173.357 227.848 170.773 223.787 162.28 226.501C158.957 227.566 151.068 230.329 143.204 233.485C135.015 236.772 126.855 240.477 123.904 243.113C120.864 245.646 118.775 249.138 117.977 253.016C117.938 253.258 117.947 253.505 118.004 253.743C118.061 253.982 118.165 254.206 118.309 254.404Z"/>
<path d="M107.657 368.449C107.601 368.637 107.482 368.8 107.32 368.911C107.159 369.022 106.964 369.074 106.768 369.058C99.0948 368.464 93.285 366.357 88.8545 365.109C77.0066 361.773 68.2592 354.267 62.9452 358.653C60.2629 360.867 58.1579 364.726 59.1567 368.116C59.2185 368.336 59.2013 368.571 59.1083 368.78C59.0153 368.989 58.8526 369.16 58.6477 369.262C55.5189 370.84 52.2729 372.194 49.2048 373.888C46.0918 375.609 44.8605 375.381 44.2212 374.647C43.929 374.31 45.0895 372.113 46.1601 370.137C49.5327 364.42 53.2511 358.913 57.2947 353.649C61.6336 348.32 64.9544 348.276 69.6261 349.742C77.1771 352.113 77.8896 353.956 84.2721 355.052C87.7642 355.653 89.1167 355.126 90.6296 354.46C90.9977 354.3 91.3291 354.065 91.6033 353.771C91.8776 353.477 92.0887 353.131 92.224 352.752C92.577 351.689 91.8158 350.663 90.7989 349.696L74.7846 335.258C74.7566 335.232 74.7338 335.202 74.7178 335.168C74.7018 335.133 74.6928 335.096 74.6912 335.059C74.6896 335.021 74.6955 334.983 74.7087 334.948C74.7219 334.912 74.7419 334.88 74.7677 334.852L75.6972 333.856C75.7467 333.802 75.8153 333.769 75.8885 333.765C75.9618 333.761 76.0337 333.785 76.0892 333.833C80.7748 338.066 93.2567 348.608 98.4324 351.488C105.693 355.529 106.292 357.745 107.2 360.018C108.253 362.704 108.413 365.66 107.658 368.449H107.657Z"/>
<path d="M65.0183 415.255C66.6766 417.077 67.4168 417.639 68.1363 417.399C70.6275 416.569 76.5493 414.06 80.9935 410.861C83.7709 408.865 85.2527 407.782 86.2212 407.343C87.1897 406.904 88.9783 406.505 92.3115 405.732C97.6459 404.5 103.435 401.701 105.703 400.374C106.355 399.993 106.424 399.064 106.149 396.615C105.91 394.472 104.548 394.308 102 391.105C98.0075 386.088 91.0239 387.851 87.0423 391.066C82.7109 394.56 85.5492 400.286 85.6385 401.395C85.7313 402.503 85.5671 403.316 84.5972 403.755C83.6244 404.196 82.9066 403.783 82.135 402.982C81.3612 402.184 78.9315 396.271 73.4522 397.225C68.4099 398.101 62.4803 402.189 63.6139 408.501C64.3377 412.531 63.5648 413.662 65.0183 415.255ZM100.648 405.335C99.4309 409.116 98.5218 411.856 97.0978 412.983C96.4819 413.471 94.7141 413.668 93.9607 413.61C91.9419 413.456 91.3206 415.724 93.4646 416.053C95.8353 416.417 98.1878 415.47 99.2286 413.675C100.385 411.678 102.997 406.594 104.549 403.549C103.27 404.19 101.968 404.785 100.648 405.335ZM85.8239 417.298C85.3688 417.903 84.0557 419.101 83.282 419.244C81.4974 419.57 78.839 418.446 75.1969 416.869C73.9125 417.5 72.6068 418.087 71.2817 418.627C74.5921 419.468 80.1343 420.857 82.3971 421.304C84.4323 421.706 86.6948 420.561 87.985 418.537C89.1535 416.707 87.0393 415.68 85.8239 417.298Z"/>
<path d="M31.5894 294.463C30.6981 296.76 30.5255 297.674 31.0612 298.211C32.9133 300.073 37.7973 304.259 42.64 306.815C45.6641 308.413 47.2927 309.257 48.117 309.929C48.9413 310.601 50.0961 312.025 52.2726 314.667C55.7526 318.896 60.8361 322.834 63.0341 324.274C63.6659 324.688 64.5275 324.337 66.596 322.999C68.4069 321.829 67.947 320.537 69.6769 316.826C72.3858 311.015 67.6966 305.545 63.0455 303.411C57.9894 301.088 54.1315 306.182 53.1795 306.756C52.229 307.334 51.4286 307.548 50.6031 306.876C49.7752 306.201 49.8249 305.374 50.1977 304.326C50.5671 303.277 54.7742 298.465 51.4789 293.983C48.4482 289.856 42.1485 286.367 37.0067 290.195C33.7237 292.639 32.3669 292.451 31.5894 294.463ZM56.343 321.956C52.4181 322.552 49.5609 322.959 47.9185 322.185C47.2073 321.851 46.2437 320.355 45.9595 319.655C45.1973 317.778 42.8912 318.232 43.5531 320.299C44.284 322.585 46.1789 324.27 48.2489 324.402C50.5509 324.548 56.2639 324.622 59.6791 324.656C58.5362 323.795 57.4235 322.895 56.343 321.956ZM39.034 314.009C38.2897 313.872 36.6329 313.229 36.1598 312.6C35.0729 311.147 34.8941 308.265 34.6822 304.299C33.5448 303.43 32.4381 302.522 31.3638 301.576C32.0869 304.916 33.314 310.499 33.9224 312.726C34.4702 314.728 36.503 316.244 38.8881 316.498C41.0468 316.729 41.0229 314.377 39.034 314.009Z"/>
<path d="M144.423 2.39704C144.588 2.50163 144.714 2.6602 144.776 2.84608C144.839 3.03195 144.836 3.23381 144.768 3.41749C142.115 10.647 138.514 15.6709 136.112 19.5995C129.689 30.1056 120.096 36.4948 122.875 42.8022C124.277 45.9859 127.418 49.0595 130.95 49.0168C131.178 49.017 131.4 49.0973 131.576 49.2436C131.752 49.3899 131.872 49.593 131.914 49.818C132.584 53.2595 133.006 56.7526 133.804 60.167C134.616 63.6319 134.062 64.7559 133.182 65.1723C132.779 65.3626 130.98 63.6491 129.37 62.0822C124.785 57.2836 120.496 52.209 116.528 46.887C112.579 41.2632 113.437 38.0527 116.115 33.9512C120.443 27.3216 122.408 27.1351 125.194 21.2855C126.719 18.0852 126.579 16.6398 126.349 15.0023C126.294 14.6042 126.158 14.2214 125.95 13.8776C125.742 13.5338 125.466 13.2362 125.138 13.0033C124.211 12.3749 123.017 12.8298 121.812 13.5471L103.58 25.0551C103.548 25.0752 103.512 25.0888 103.475 25.095C103.438 25.1012 103.4 25.0998 103.363 25.0911C103.326 25.0823 103.292 25.0663 103.261 25.044C103.23 25.0217 103.205 24.9936 103.185 24.9613L102.479 23.7962C102.441 23.7338 102.428 23.6587 102.444 23.587C102.459 23.5153 102.502 23.4525 102.563 23.4121C107.906 20.0473 121.431 10.885 125.606 6.68146C131.462 0.783999 133.756 0.808642 136.189 0.550635C139.058 0.264861 141.946 0.911812 144.423 2.39576L144.423 2.39704Z"/>
<path d="M115.689 142.167C119.593 141.459 123.142 139.448 125.756 136.461C128.37 133.475 129.895 129.69 130.081 125.724L133.003 128.849C133.747 129.644 134.168 130.689 134.184 131.778C134.201 132.867 133.812 133.924 133.092 134.742L125.019 143.964C124.304 144.786 123.308 145.311 122.227 145.439C121.145 145.566 120.056 145.286 119.169 144.652L115.689 142.167ZM95.0333 124.064L92.1118 120.94C91.3678 120.145 90.9464 119.1 90.9299 118.011C90.9134 116.921 91.303 115.865 92.0226 115.047L100.095 105.824C100.811 105.003 101.806 104.477 102.888 104.35C103.969 104.223 105.059 104.503 105.945 105.136L109.426 107.622C105.522 108.33 101.973 110.341 99.3586 113.327C96.7446 116.314 95.2199 120.099 95.0333 124.064Z"/>
<path d="M114.351 139.405C117.877 138.887 121.104 137.129 123.453 134.447C125.802 131.766 127.12 128.334 127.171 124.768C127.138 120.89 125.566 117.184 122.802 114.466C120.038 111.747 116.307 110.239 112.432 110.272C108.556 110.305 104.852 111.878 102.135 114.644C99.4181 117.41 97.9103 121.142 97.9436 125.02C97.9838 127.074 98.4517 129.097 99.3176 130.96C100.184 132.822 101.428 134.484 102.973 135.838C104.517 137.192 106.326 138.208 108.285 138.823C110.244 139.437 112.311 139.635 114.351 139.405ZM104.909 125.401C104.883 125.014 105.013 124.632 105.268 124.341C105.524 124.049 105.884 123.87 106.271 123.845L112.461 123.435C112.847 123.411 113.228 123.54 113.521 123.794L119.02 128.613C119.312 128.869 119.49 129.23 119.516 129.617C119.541 130.005 119.412 130.386 119.157 130.678C118.901 130.97 118.54 131.148 118.153 131.174C117.766 131.199 117.385 131.07 117.093 130.814L112.049 126.394L106.464 126.764C106.077 126.789 105.696 126.66 105.405 126.405C105.113 126.149 104.935 125.788 104.909 125.401Z"/>
<path d="M104.472 218.756L115.231 219.524C116.536 219.617 117.669 218.633 117.763 217.327L120.755 175.356C120.848 174.051 119.867 172.916 118.561 172.823L108.257 172.087C110.219 176.718 113.095 185.628 112.303 196.736C111.463 208.52 106.997 215.621 104.472 218.756ZM94.0704 173.453L91.0781 215.423C90.9851 216.728 91.9671 217.864 93.2727 217.957L101.501 218.544C102.995 216.984 108.986 209.948 109.94 196.569C110.761 185.053 107.356 175.843 105.567 171.897L96.6023 171.257C95.2976 171.163 94.1637 172.146 94.0704 173.453ZM108.476 191.413L107.886 199.69L103.603 199.384L104.193 191.108L108.476 191.413Z"/>
<path d="M150.572 119.504L163.483 116.141C164.366 115.904 165.188 115.483 165.897 114.906C166.605 114.329 167.184 113.609 167.595 112.793L176.425 94.9346C176.836 94.1019 177.066 93.191 177.099 92.2626C177.131 91.3341 176.965 90.4094 176.612 89.55L171.451 77.3153C171.126 76.5357 170.538 75.8947 169.789 75.5036C169.041 75.1125 168.179 74.9962 167.354 75.1746L159.764 76.8383C159.246 76.9479 158.76 77.1708 158.339 77.4912C157.918 77.8115 157.573 78.2211 157.329 78.6907C156.986 79.3847 156.873 80.1703 157.008 80.9328L142.625 73.8124C141.595 73.3076 140.407 73.2316 139.321 73.6012C138.235 73.9708 137.34 74.7558 136.832 75.7844L128.411 92.8135C128.149 93.3232 127.991 93.8799 127.946 94.4513C127.902 95.0227 127.971 95.5973 128.15 96.1417C128.329 96.686 128.615 97.1893 128.99 97.6222C129.366 98.055 129.824 98.4088 130.337 98.6629L144.977 105.91C144.337 106.24 143.82 106.767 143.502 107.412C143.274 107.854 143.141 108.339 143.112 108.835C143.083 109.331 143.159 109.828 143.334 110.293L146.461 117.468C146.794 118.24 147.39 118.868 148.143 119.241C148.896 119.614 149.757 119.707 150.572 119.504ZM166.446 107.534C165.353 106.711 164.582 105.532 164.266 104.201C163.95 102.87 164.109 101.47 164.716 100.243C165.322 99.0168 166.338 98.041 167.587 97.4845C168.836 96.9281 170.241 96.826 171.557 97.1959L166.446 107.534Z"/>
</mask>
<path d="M169.305 386.889L164.989 374.257C164.687 373.395 164.206 372.606 163.578 371.942C162.95 371.278 162.189 370.754 161.345 370.405L142.887 362.929C142.027 362.581 141.102 362.419 140.174 362.457C139.246 362.494 138.337 362.728 137.507 363.144L125.7 369.209C124.947 369.591 124.352 370.226 124.018 371.002C123.684 371.778 123.633 372.646 123.872 373.457L126.097 380.906C126.245 381.414 126.504 381.883 126.855 382.279C127.205 382.675 127.639 382.989 128.126 383.197C128.843 383.487 129.634 383.541 130.384 383.35L124.363 398.233C123.936 399.299 123.949 400.49 124.399 401.545C124.848 402.601 125.698 403.436 126.761 403.866L144.361 410.995C144.889 411.219 145.455 411.335 146.028 411.337C146.601 411.339 147.169 411.227 147.698 411.007C148.227 410.788 148.707 410.465 149.11 410.058C149.514 409.651 149.832 409.168 150.047 408.637L156.176 393.488C156.553 394.101 157.116 394.578 157.783 394.847C158.24 395.041 158.733 395.138 159.23 395.13C159.727 395.121 160.216 395.009 160.667 394.799L167.584 391.144C168.328 390.754 168.91 390.112 169.225 389.332C169.54 388.553 169.569 387.687 169.305 386.889ZM156.19 371.945C155.451 373.097 154.334 373.954 153.031 374.369C151.728 374.783 150.321 374.729 149.053 374.216C147.785 373.702 146.737 372.762 146.089 371.557C145.441 370.352 145.235 368.958 145.505 367.617L156.19 371.945Z" stroke="url(#paint0_linear_58_345)" stroke-width="2" mask="url(#path-1-inside-1_58_345)"/>
<path d="M140.734 325.981C141.561 323.938 140.575 321.611 138.534 320.784C138.529 320.782 138.524 320.78 138.519 320.778C138.524 320.778 138.529 320.779 138.534 320.779C140.737 320.763 142.511 318.964 142.495 316.76C142.48 314.556 140.682 312.782 138.479 312.797C138.428 312.797 138.378 312.8 138.327 312.802C138.374 312.784 138.422 312.766 138.469 312.746C140.497 311.886 141.445 309.544 140.585 307.514C139.726 305.485 137.385 304.537 135.357 305.397C133.329 306.256 132.381 308.599 133.24 310.628C133.908 312.205 135.469 313.128 137.084 313.059C135.574 313.636 134.507 315.103 134.518 316.815C134.53 318.485 135.564 319.907 137.022 320.492C135.451 320.499 133.966 321.439 133.34 322.986C132.698 324.573 133.149 326.331 134.34 327.424C132.864 326.764 131.073 327.046 129.871 328.265C128.7 329.454 128.426 331.191 129.043 332.637C127.928 331.53 126.213 331.143 124.677 331.794C123.102 332.462 122.179 334.025 122.248 335.64C121.671 334.13 120.205 333.061 118.494 333.073C116.825 333.085 115.404 334.12 114.819 335.579C114.813 334.007 113.873 332.52 112.327 331.894C110.741 331.251 108.984 331.703 107.891 332.894C108.551 331.418 108.269 329.625 107.051 328.423C105.863 327.251 104.127 326.977 102.682 327.595C103.788 326.479 104.175 324.763 103.524 323.226C102.856 321.65 101.295 320.726 99.6804 320.795C101.19 320.218 102.257 318.751 102.246 317.039C102.234 315.37 101.2 313.948 99.7418 313.362C101.313 313.356 102.799 312.416 103.424 310.869C104.067 309.282 103.615 307.524 102.424 306.43C103.9 307.09 105.691 306.808 106.893 305.589C108.064 304.401 108.338 302.663 107.721 301.218C108.836 302.325 110.551 302.711 112.087 302.06C114.115 301.2 115.063 298.858 114.204 296.828C113.344 294.799 111.003 293.851 108.975 294.711C106.947 295.57 105.999 297.913 106.858 299.942C106.861 299.947 106.863 299.952 106.865 299.957C106.861 299.953 106.858 299.949 106.854 299.945C105.285 298.398 102.76 298.415 101.213 299.984C99.6666 301.554 99.6842 304.08 101.253 305.628C101.289 305.664 101.326 305.698 101.364 305.733C101.317 305.712 101.271 305.691 101.224 305.672C99.1819 304.845 96.8567 305.831 96.0302 307.874C95.2036 309.917 96.1888 312.243 98.2306 313.07C98.2356 313.072 98.2406 313.074 98.2456 313.076C98.2403 313.076 98.2348 313.076 98.2295 313.076C96.0267 313.091 94.2535 314.89 94.2688 317.094C94.2841 319.298 96.082 321.073 98.2847 321.057C98.3358 321.057 98.3863 321.055 98.4369 321.052C98.3896 321.07 98.3424 321.088 98.2953 321.108C96.2671 321.968 95.3195 324.31 96.1788 326.34C97.0381 328.369 99.3791 329.318 101.407 328.458C101.412 328.456 101.417 328.453 101.422 328.451C101.418 328.455 101.414 328.459 101.41 328.462C99.8636 330.032 99.8812 332.559 101.45 334.106C103.018 335.654 105.543 335.636 107.09 334.067C107.126 334.031 107.16 333.993 107.194 333.956C107.173 334.002 107.153 334.048 107.133 334.096C106.307 336.139 107.292 338.465 109.334 339.292C111.376 340.119 113.701 339.134 114.528 337.091C114.53 337.086 114.531 337.081 114.533 337.076C114.533 337.081 114.533 337.086 114.533 337.092C114.548 339.296 116.346 341.07 118.549 341.055C120.752 341.04 122.525 339.241 122.51 337.037C122.509 336.985 122.507 336.935 122.505 336.884C122.523 336.931 122.541 336.979 122.561 337.026C123.42 339.055 125.761 340.004 127.789 339.144C129.817 338.284 130.765 335.942 129.906 333.912C129.904 333.907 129.901 333.902 129.899 333.898C129.903 333.901 129.906 333.905 129.91 333.909C131.479 335.457 134.004 335.439 135.551 333.87C137.098 332.301 137.08 329.774 135.512 328.226C135.475 328.19 135.438 328.156 135.4 328.122C135.447 328.143 135.493 328.163 135.54 328.183C137.582 329.01 139.908 328.024 140.734 325.981Z" stroke="url(#paint1_linear_58_345)" stroke-width="2" mask="url(#path-1-inside-1_58_345)"/>
<path d="M124.807 301.048C126.344 301.671 128.096 300.928 128.718 299.389C129.341 297.85 128.599 296.098 127.061 295.475C125.523 294.852 123.772 295.594 123.149 297.133C122.527 298.672 123.269 300.425 124.807 301.048Z" stroke="url(#paint2_linear_58_345)" stroke-width="2" mask="url(#path-1-inside-1_58_345)"/>
<path d="M117.342 298.228C118.263 298.176 119.186 298.193 120.105 298.278C120.1 297.311 120.338 296.359 120.795 295.507C119.427 295.352 118.048 295.33 116.676 295.44C116.721 295.534 116.765 295.629 116.805 295.726C117.141 296.518 117.323 297.367 117.342 298.228ZM132.129 304.218C132.741 303.612 133.462 303.129 134.255 302.793C134.351 302.752 134.448 302.714 134.547 302.678C133.638 301.644 132.631 300.7 131.54 299.859C131.484 300.058 131.417 300.255 131.338 300.45C131.055 301.151 130.637 301.79 130.109 302.331C130.829 302.909 131.504 303.539 132.129 304.218Z" stroke="url(#paint3_linear_58_345)" stroke-width="2" mask="url(#path-1-inside-1_58_345)"/>
<path d="M1.49566 576.349C1.55781 576.163 1.68223 576.004 1.84774 575.898C2.01326 575.793 2.2099 575.748 2.40444 575.771C10.0528 576.632 15.7856 578.94 20.1699 580.342C31.8945 584.089 40.3752 591.896 45.8388 587.698C48.5966 585.579 50.8345 581.796 49.9543 578.373C49.9003 578.151 49.9255 577.917 50.0257 577.711C50.1259 577.505 50.2949 577.341 50.5033 577.246C53.6851 575.777 56.9764 574.538 60.1016 572.951C63.2726 571.34 64.4952 571.611 65.1085 572.367C65.3888 572.713 64.1524 574.869 63.0136 576.806C59.4439 582.403 55.5358 587.776 51.3113 592.896C46.7895 598.07 43.4689 597.999 38.8512 596.37C31.3874 593.738 30.7395 591.871 24.3992 590.553C20.9301 589.831 19.5601 590.311 18.0249 590.923C17.6515 591.071 17.3122 591.293 17.0279 591.577C16.7436 591.861 16.5203 592.201 16.3719 592.574C15.9821 593.624 16.7073 594.677 17.6899 595.678L33.1914 610.666C33.2185 610.692 33.2402 610.724 33.255 610.759C33.2698 610.793 33.2777 610.831 33.278 610.869C33.2782 610.906 33.2709 610.944 33.2565 610.979C33.2421 611.014 33.2208 611.046 33.1941 611.072L32.2308 612.035C32.1794 612.087 32.1096 612.118 32.0362 612.12C31.9629 612.121 31.8918 612.095 31.8381 612.045C27.3027 607.651 15.1957 596.68 10.1235 593.621C3.00762 589.33 2.48688 587.094 1.65872 584.791C0.699827 582.069 0.64227 579.109 1.49453 576.349H1.49566Z" stroke="url(#paint4_linear_58_345)" stroke-width="2" mask="url(#path-1-inside-1_58_345)"/>
<path d="M96.2378 615.089C94.6891 613.173 93.983 612.569 93.2507 612.766C90.7152 613.448 84.6565 615.606 80.0326 618.539C77.1431 620.369 75.6004 621.363 74.6079 621.744C73.6154 622.126 71.8062 622.42 68.4335 622.996C63.0361 623.913 57.093 626.367 54.7517 627.56C54.0782 627.902 53.9546 628.825 54.0859 631.286C54.1994 633.439 55.5489 633.683 57.9055 637.03C61.5972 642.272 68.6721 640.922 72.8351 637.945C77.3636 634.711 74.8654 628.829 74.8412 627.717C74.8134 626.605 75.0251 625.803 76.0191 625.421C77.016 625.038 77.7082 625.492 78.4315 626.337C79.1573 627.18 81.2366 633.225 86.7623 632.594C91.8473 632.015 98.0059 628.282 97.2438 621.914C96.7572 617.849 97.5956 616.765 96.2378 615.089ZM60.0889 622.904C61.5249 619.201 62.5926 616.518 64.0801 615.477C64.7236 615.026 66.4998 614.933 67.2486 615.035C69.2549 615.306 70.0079 613.079 67.8869 612.625C65.5415 612.123 63.1377 612.93 61.9936 614.661C60.722 616.587 57.8168 621.509 56.0893 624.457C57.404 623.893 58.7382 623.375 60.0889 622.904ZM75.5873 611.83C76.0771 611.253 77.4582 610.134 78.2389 610.036C80.0396 609.816 82.6274 611.094 86.1709 612.882C87.49 612.327 88.8278 611.818 90.1822 611.355C86.9268 610.322 81.4758 608.61 79.243 608.031C77.2349 607.511 74.9089 608.522 73.5025 610.466C72.2289 612.225 74.2793 613.374 75.5873 611.83Z" stroke="url(#paint5_linear_58_345)" stroke-width="2" mask="url(#path-1-inside-1_58_345)"/>
<path d="M110.777 501.107L133.216 484.247C133.581 483.974 133.841 483.583 133.953 483.141C134.065 482.698 134.022 482.231 133.831 481.817L131.326 476.356L134.783 474.769C139.403 472.647 141.277 466.84 138.977 461.825L137.307 458.184C135.007 453.169 129.385 450.803 124.764 452.925L121.308 454.512L118.803 449.052C118.614 448.637 118.288 448.299 117.88 448.095C117.472 447.892 117.006 447.834 116.561 447.933L89.1544 453.961L89.1453 453.966C88.7873 454.044 88.4415 454.169 88.1166 454.339C86.7835 455.071 85.7761 456.28 85.2968 457.725C84.8175 459.169 84.9015 460.741 85.532 462.125L102.229 498.531C102.867 499.912 104.003 501.001 105.41 501.579C106.817 502.157 108.39 502.182 109.814 501.648C110.157 501.511 110.481 501.329 110.777 501.107ZM126.434 456.566C129.045 455.367 132.287 456.842 133.668 459.855L135.338 463.495C136.72 466.508 135.723 469.929 133.113 471.128L129.656 472.715L122.977 458.153L126.434 456.566Z" stroke="url(#paint6_linear_58_345)" stroke-width="2" mask="url(#path-1-inside-1_58_345)"/>
<path d="M139.432 497.227C139.587 497.106 139.778 497.043 139.975 497.047C140.171 497.051 140.359 497.122 140.509 497.249C146.403 502.201 149.903 507.297 152.779 510.892C160.473 520.504 163.221 531.703 170.093 531.231C173.562 530.992 177.518 529.08 178.678 525.742C178.756 525.527 178.906 525.346 179.104 525.23C179.301 525.114 179.533 525.07 179.758 525.107C183.221 525.645 186.648 526.434 190.128 526.843C193.661 527.256 194.53 528.159 194.622 529.129C194.664 529.572 192.442 530.683 190.423 531.666C184.354 534.352 178.128 536.664 171.777 538.59C165.15 540.397 162.423 538.499 159.477 534.586C154.716 528.261 155.208 526.347 150.656 521.739C148.166 519.216 146.759 518.858 145.142 518.518C144.749 518.434 144.343 518.432 143.949 518.511C143.555 518.59 143.182 518.749 142.852 518.978C141.946 519.637 141.968 520.915 142.233 522.294L146.857 543.361C146.866 543.397 146.866 543.436 146.859 543.473C146.853 543.51 146.838 543.545 146.818 543.577C146.797 543.609 146.77 543.636 146.739 543.657C146.707 543.678 146.672 543.693 146.635 543.7L145.3 543.969C145.228 543.984 145.153 543.971 145.091 543.932C145.029 543.893 144.985 543.831 144.968 543.759C143.62 537.588 139.601 521.747 137.068 516.391C133.514 508.877 134.316 506.726 134.9 504.349C135.606 501.551 137.195 499.054 139.431 497.226L139.432 497.227Z" stroke="url(#paint7_linear_58_345)" stroke-width="2" mask="url(#path-1-inside-1_58_345)"/>
<path d="M144.01 571.086C142.396 567.459 139.6 564.488 136.08 562.656C132.56 560.824 128.524 560.241 124.63 561.001L126.969 557.42C127.564 556.508 128.478 555.851 129.532 555.576C130.586 555.301 131.704 555.429 132.669 555.934L143.539 561.59C144.507 562.09 145.253 562.933 145.634 563.954C146.014 564.975 146.001 566.101 145.596 567.113L144.01 571.086ZM131.341 595.462L129.002 599.043C128.406 599.955 127.492 600.613 126.438 600.887C125.385 601.162 124.266 601.035 123.301 600.529L112.431 594.873C111.464 594.373 110.717 593.53 110.337 592.509C109.956 591.488 109.97 590.362 110.374 589.35L111.961 585.377C113.575 589.004 116.37 591.975 119.89 593.807C123.41 595.639 127.447 596.222 131.341 595.462Z" stroke="url(#paint8_linear_58_345)" stroke-width="2" mask="url(#path-1-inside-1_58_345)"/>
<path d="M141.646 573.042C140.306 569.738 137.833 567.019 134.672 565.373C131.51 563.726 127.867 563.26 124.393 564.057C120.636 565.011 117.411 567.418 115.428 570.751C113.445 574.083 112.867 578.067 113.819 581.826C114.772 585.585 117.178 588.812 120.509 590.796C123.839 592.78 127.821 593.359 131.577 592.406C133.562 591.879 135.415 590.944 137.018 589.66C138.62 588.376 139.938 586.771 140.885 584.949C141.833 583.127 142.39 581.126 142.522 579.076C142.653 577.026 142.354 574.971 141.646 573.042ZM130.293 585.545C129.923 585.662 129.522 585.627 129.179 585.448C128.835 585.269 128.576 584.961 128.459 584.591L126.591 578.672C126.476 578.302 126.511 577.901 126.688 577.557L130.061 571.067C130.24 570.722 130.548 570.463 130.918 570.347C131.288 570.23 131.689 570.265 132.033 570.444C132.377 570.623 132.635 570.931 132.752 571.301C132.869 571.671 132.834 572.072 132.655 572.417L129.562 578.369L131.247 583.71C131.364 584.08 131.329 584.481 131.15 584.825C130.971 585.169 130.663 585.428 130.293 585.545Z" stroke="url(#paint9_linear_58_345)" stroke-width="2" mask="url(#path-1-inside-1_58_345)"/>
<path d="M113.724 542.562L107.394 530.811C106.954 530.01 106.35 529.311 105.622 528.759C104.893 528.207 104.057 527.816 103.167 527.61L83.7332 523.268C82.827 523.066 81.8882 523.059 80.9791 523.248C80.0701 523.437 79.2117 523.818 78.4612 524.365L67.8092 532.287C67.1296 532.788 66.6468 533.512 66.4449 534.332C66.243 535.153 66.3344 536.018 66.7036 536.778L70.1213 543.76C70.3506 544.237 70.6827 544.657 71.0937 544.99C71.5046 545.323 71.9841 545.561 72.4978 545.687C73.2531 545.855 74.0425 545.778 74.7508 545.466L71.2538 561.137C71.0083 562.258 71.2167 563.431 71.8333 564.399C72.4499 565.366 73.4246 566.05 74.5439 566.3L93.0755 570.44C93.6325 570.574 94.2106 570.595 94.7759 570.503C95.3413 570.411 95.8827 570.207 96.3686 569.904C96.8545 569.6 97.2755 569.203 97.6065 568.735C97.9376 568.268 98.1721 567.739 98.2968 567.179L101.856 551.229C102.328 551.772 102.962 552.15 103.665 552.305C104.148 552.422 104.65 552.436 105.138 552.347C105.627 552.257 106.091 552.065 106.501 551.785L112.725 547.042C113.395 546.535 113.863 545.806 114.046 544.986C114.229 544.165 114.115 543.306 113.724 542.562ZM98.3344 529.976C97.7951 531.234 96.8336 532.263 95.6162 532.886C94.3988 533.509 93.0019 533.687 91.6673 533.389C90.3327 533.091 89.1442 532.335 88.3073 531.253C87.4704 530.171 87.0378 528.83 87.0842 527.463L98.3344 529.976Z" stroke="url(#paint10_linear_58_345)" stroke-width="2" mask="url(#path-1-inside-1_58_345)"/>
<path d="M53.402 221.099L39.6488 245.573C39.425 245.971 39.3442 246.433 39.4199 246.883C39.4957 247.333 39.7233 247.743 40.0649 248.046L44.5553 252.035L42.0303 254.88C38.6548 258.685 39.2776 264.755 43.4013 268.418L46.3947 271.078C50.5184 274.741 56.6164 274.641 59.9919 270.837L62.5169 267.991L67.0075 271.981C67.3479 272.284 67.7818 272.462 68.2372 272.484C68.6927 272.506 69.1421 272.371 69.5101 272.101L92.1693 255.539L92.1758 255.531C92.4721 255.316 92.7384 255.061 92.9675 254.775C93.8929 253.568 94.328 252.055 94.1854 250.54C94.0429 249.025 93.3334 247.62 92.1989 246.606L62.2629 220.012C61.1229 219.005 59.6447 218.466 58.1244 218.504C56.6041 218.542 55.1544 219.153 54.0657 220.215C53.8069 220.48 53.5836 220.777 53.402 221.099ZM56.9983 268.178C55.0912 270.327 51.53 270.283 49.0528 268.082L46.0591 265.423C43.5819 263.222 43.1171 259.689 45.0241 257.54L47.5489 254.694L59.5234 265.332L56.9983 268.178Z" stroke="url(#paint11_linear_58_345)" stroke-width="2" mask="url(#path-1-inside-1_58_345)"/>
<path d="M139.537 251.306C139.014 251.404 138.516 251.61 138.075 251.91C137.635 252.21 137.262 252.599 136.979 253.051L135.504 255.507C137.49 255.27 139.47 255.052 141.128 254.902L141.825 252.058C141.877 251.904 141.981 251.774 142.119 251.69C142.258 251.606 142.421 251.574 142.581 251.598C142.662 251.615 142.739 251.649 142.806 251.697C142.874 251.745 142.931 251.806 142.974 251.877C143.017 251.948 143.045 252.027 143.056 252.11C143.067 252.192 143.061 252.275 143.039 252.355L142.441 254.793C143.237 254.72 144.036 254.693 144.835 254.714C145.018 254.725 145.23 254.743 145.446 254.763L146.066 252.23C146.112 252.073 146.215 251.938 146.355 251.854C146.495 251.769 146.662 251.74 146.823 251.772C146.903 251.79 146.979 251.824 147.047 251.872C147.114 251.92 147.17 251.981 147.213 252.052C147.256 252.123 147.284 252.201 147.296 252.283C147.308 252.365 147.303 252.448 147.282 252.528L146.702 254.896C147.437 254.982 148.171 255.077 148.904 255.179C149.102 255.208 149.298 255.25 149.495 255.286L150.052 253.013C150.099 252.857 150.203 252.724 150.342 252.639C150.481 252.555 150.647 252.524 150.808 252.553C150.967 252.595 151.105 252.697 151.19 252.839C151.276 252.98 151.303 253.149 151.265 253.31L150.715 255.561C151.6 255.798 152.462 256.115 153.289 256.51L153.864 254.165C153.908 254.006 154.01 253.87 154.151 253.785C154.291 253.7 154.459 253.671 154.62 253.705C154.699 253.725 154.775 253.76 154.841 253.808C154.907 253.857 154.963 253.918 155.006 253.988C155.049 254.059 155.077 254.137 155.089 254.218C155.101 254.299 155.097 254.382 155.077 254.462L154.426 257.124C155.373 257.685 156.251 258.355 157.042 259.121C158.07 260.123 158.719 260.441 159.281 260.215C160.565 259.446 161.516 258.224 161.947 256.789C162.146 256.124 162.175 255.42 162.03 254.741C160.313 253.819 150.631 249.004 139.537 251.306ZM124.863 257.239C124.784 256.806 124.803 256.361 124.917 255.936C125.975 253.787 127.459 251.876 129.278 250.319C131.098 248.763 133.215 247.593 135.501 246.881C142.693 244.531 143.467 242.205 143.137 240.158C131.086 244.908 123.787 249.385 120.54 257.005C121.192 257.379 121.923 257.595 122.674 257.636C123.424 257.677 124.174 257.541 124.863 257.239Z" stroke="url(#paint12_linear_58_345)" stroke-width="2" mask="url(#path-1-inside-1_58_345)"/>
<path d="M147.864 238.36C146.634 238.812 145.46 239.258 144.313 239.701C145.013 243.439 142.525 245.884 135.889 248.066C133.789 248.712 131.84 249.776 130.16 251.194C128.481 252.611 127.105 254.354 126.114 256.316L126.111 256.721C127.334 256.551 130.506 256.118 133.936 255.695L135.908 252.409C136.476 251.478 137.333 250.76 138.348 250.365C138.651 250.243 138.964 250.149 139.284 250.082C146.875 248.677 154.716 249.748 161.653 253.14C162.052 251.968 162.727 250.909 163.621 250.054C164.515 249.198 165.602 248.571 166.79 248.224C167.937 247.828 169.153 247.67 170.363 247.758C171.573 247.846 172.753 248.179 173.831 248.737C174.058 248.85 174.314 248.892 174.566 248.858C174.817 248.825 175.053 248.717 175.243 248.548C175.431 248.379 175.565 248.158 175.626 247.912C175.687 247.666 175.673 247.408 175.585 247.171C174.942 245.541 174.509 243.836 174.297 242.096C174.037 239.912 173.529 237.764 172.784 235.694C170.387 235.155 160.91 233.565 147.864 238.36Z" stroke="url(#paint13_linear_58_345)" stroke-width="2" mask="url(#path-1-inside-1_58_345)"/>
<path d="M118.309 254.404L119.568 256.144C122.964 248.565 130.127 244.029 141.753 239.363C143.542 238.645 145.432 237.925 147.434 237.189C160.223 232.489 169.504 233.721 172.616 234.376L173.547 228.442C173.569 228.297 173.54 228.148 173.463 228.022C173.357 227.848 170.773 223.787 162.28 226.501C158.957 227.566 151.068 230.329 143.204 233.485C135.015 236.772 126.855 240.477 123.904 243.113C120.864 245.646 118.775 249.138 117.977 253.016C117.938 253.258 117.947 253.505 118.004 253.743C118.061 253.982 118.165 254.206 118.309 254.404Z" stroke="url(#paint14_linear_58_345)" stroke-width="2" mask="url(#path-1-inside-1_58_345)"/>
<path d="M107.657 368.449C107.601 368.637 107.482 368.8 107.32 368.911C107.159 369.022 106.964 369.074 106.768 369.058C99.0948 368.464 93.285 366.357 88.8545 365.109C77.0066 361.773 68.2592 354.267 62.9452 358.653C60.2629 360.867 58.1579 364.726 59.1567 368.116C59.2185 368.336 59.2013 368.571 59.1083 368.78C59.0153 368.989 58.8526 369.16 58.6477 369.262C55.5189 370.84 52.2729 372.194 49.2048 373.888C46.0918 375.609 44.8605 375.381 44.2212 374.647C43.929 374.31 45.0895 372.113 46.1601 370.137C49.5327 364.42 53.2511 358.913 57.2947 353.649C61.6336 348.32 64.9544 348.276 69.6261 349.742C77.1771 352.113 77.8896 353.956 84.2721 355.052C87.7642 355.653 89.1167 355.126 90.6296 354.46C90.9977 354.3 91.3291 354.065 91.6033 353.771C91.8776 353.477 92.0887 353.131 92.224 352.752C92.577 351.689 91.8158 350.663 90.7989 349.696L74.7846 335.258C74.7566 335.232 74.7338 335.202 74.7178 335.168C74.7018 335.133 74.6928 335.096 74.6912 335.059C74.6896 335.021 74.6955 334.983 74.7087 334.948C74.7219 334.912 74.7419 334.88 74.7677 334.852L75.6972 333.856C75.7467 333.802 75.8153 333.769 75.8885 333.765C75.9618 333.761 76.0337 333.785 76.0892 333.833C80.7748 338.066 93.2567 348.608 98.4324 351.488C105.693 355.529 106.292 357.745 107.2 360.018C108.253 362.704 108.413 365.66 107.658 368.449H107.657Z" stroke="url(#paint15_linear_58_345)" stroke-width="2" mask="url(#path-1-inside-1_58_345)"/>
<path d="M65.0183 415.255C66.6766 417.077 67.4168 417.639 68.1363 417.399C70.6275 416.569 76.5493 414.06 80.9935 410.861C83.7709 408.865 85.2527 407.782 86.2212 407.343C87.1897 406.904 88.9783 406.505 92.3115 405.732C97.6459 404.5 103.435 401.701 105.703 400.374C106.355 399.993 106.424 399.064 106.149 396.615C105.91 394.472 104.548 394.308 102 391.105C98.0075 386.088 91.0239 387.851 87.0423 391.066C82.7109 394.56 85.5492 400.286 85.6385 401.395C85.7313 402.503 85.5671 403.316 84.5972 403.755C83.6244 404.196 82.9066 403.783 82.135 402.982C81.3612 402.184 78.9315 396.271 73.4522 397.225C68.4099 398.101 62.4803 402.189 63.6139 408.501C64.3377 412.531 63.5648 413.662 65.0183 415.255ZM100.648 405.335C99.4309 409.116 98.5218 411.856 97.0978 412.983C96.4819 413.471 94.7141 413.668 93.9607 413.61C91.9419 413.456 91.3206 415.724 93.4646 416.053C95.8353 416.417 98.1878 415.47 99.2286 413.675C100.385 411.678 102.997 406.594 104.549 403.549C103.27 404.19 101.968 404.785 100.648 405.335ZM85.8239 417.298C85.3688 417.903 84.0557 419.101 83.282 419.244C81.4974 419.57 78.839 418.446 75.1969 416.869C73.9125 417.5 72.6068 418.087 71.2817 418.627C74.5921 419.468 80.1343 420.857 82.3971 421.304C84.4323 421.706 86.6948 420.561 87.985 418.537C89.1535 416.707 87.0393 415.68 85.8239 417.298Z" stroke="url(#paint16_linear_58_345)" stroke-width="2" mask="url(#path-1-inside-1_58_345)"/>
<path d="M31.5894 294.463C30.6981 296.76 30.5255 297.674 31.0612 298.211C32.9133 300.073 37.7973 304.259 42.64 306.815C45.6641 308.413 47.2927 309.257 48.117 309.929C48.9413 310.601 50.0961 312.025 52.2726 314.667C55.7526 318.896 60.8361 322.834 63.0341 324.274C63.6659 324.688 64.5275 324.337 66.596 322.999C68.4069 321.829 67.947 320.537 69.6769 316.826C72.3858 311.015 67.6966 305.545 63.0455 303.411C57.9894 301.088 54.1315 306.182 53.1795 306.756C52.229 307.334 51.4286 307.548 50.6031 306.876C49.7752 306.201 49.8249 305.374 50.1977 304.326C50.5671 303.277 54.7742 298.465 51.4789 293.983C48.4482 289.856 42.1485 286.367 37.0067 290.195C33.7237 292.639 32.3669 292.451 31.5894 294.463ZM56.343 321.956C52.4181 322.552 49.5609 322.959 47.9185 322.185C47.2073 321.851 46.2437 320.355 45.9595 319.655C45.1973 317.778 42.8912 318.232 43.5531 320.299C44.284 322.585 46.1789 324.27 48.2489 324.402C50.5509 324.548 56.2639 324.622 59.6791 324.656C58.5362 323.795 57.4235 322.895 56.343 321.956ZM39.034 314.009C38.2897 313.872 36.6329 313.229 36.1598 312.6C35.0729 311.147 34.8941 308.265 34.6822 304.299C33.5448 303.43 32.4381 302.522 31.3638 301.576C32.0869 304.916 33.314 310.499 33.9224 312.726C34.4702 314.728 36.503 316.244 38.8881 316.498C41.0468 316.729 41.0229 314.377 39.034 314.009Z" stroke="url(#paint17_linear_58_345)" stroke-width="2" mask="url(#path-1-inside-1_58_345)"/>
<path d="M144.423 2.39704C144.588 2.50163 144.714 2.6602 144.776 2.84608C144.839 3.03195 144.836 3.23381 144.768 3.41749C142.115 10.647 138.514 15.6709 136.112 19.5995C129.689 30.1056 120.096 36.4948 122.875 42.8022C124.277 45.9859 127.418 49.0595 130.95 49.0168C131.178 49.017 131.4 49.0973 131.576 49.2436C131.752 49.3899 131.872 49.593 131.914 49.818C132.584 53.2595 133.006 56.7526 133.804 60.167C134.616 63.6319 134.062 64.7559 133.182 65.1723C132.779 65.3626 130.98 63.6491 129.37 62.0822C124.785 57.2836 120.496 52.209 116.528 46.887C112.579 41.2632 113.437 38.0527 116.115 33.9512C120.443 27.3216 122.408 27.1351 125.194 21.2855C126.719 18.0852 126.579 16.6398 126.349 15.0023C126.294 14.6042 126.158 14.2214 125.95 13.8776C125.742 13.5338 125.466 13.2362 125.138 13.0033C124.211 12.3749 123.017 12.8298 121.812 13.5471L103.58 25.0551C103.548 25.0752 103.512 25.0888 103.475 25.095C103.438 25.1012 103.4 25.0998 103.363 25.0911C103.326 25.0823 103.292 25.0663 103.261 25.044C103.23 25.0217 103.205 24.9936 103.185 24.9613L102.479 23.7962C102.441 23.7338 102.428 23.6587 102.444 23.587C102.459 23.5153 102.502 23.4525 102.563 23.4121C107.906 20.0473 121.431 10.885 125.606 6.68146C131.462 0.783999 133.756 0.808642 136.189 0.550635C139.058 0.264861 141.946 0.911812 144.423 2.39576L144.423 2.39704Z" stroke="url(#paint18_linear_58_345)" stroke-width="2" mask="url(#path-1-inside-1_58_345)"/>
<path d="M115.689 142.167C119.593 141.459 123.142 139.448 125.756 136.461C128.37 133.475 129.895 129.69 130.081 125.724L133.003 128.849C133.747 129.644 134.168 130.689 134.184 131.778C134.201 132.867 133.812 133.924 133.092 134.742L125.019 143.964C124.304 144.786 123.308 145.311 122.227 145.439C121.145 145.566 120.056 145.286 119.169 144.652L115.689 142.167ZM95.0333 124.064L92.1118 120.94C91.3678 120.145 90.9464 119.1 90.9299 118.011C90.9134 116.921 91.303 115.865 92.0226 115.047L100.095 105.824C100.811 105.003 101.806 104.477 102.888 104.35C103.969 104.223 105.059 104.503 105.945 105.136L109.426 107.622C105.522 108.33 101.973 110.341 99.3586 113.327C96.7446 116.314 95.2199 120.099 95.0333 124.064Z" stroke="url(#paint19_linear_58_345)" stroke-width="2" mask="url(#path-1-inside-1_58_345)"/>
<path d="M114.351 139.405C117.877 138.887 121.104 137.129 123.453 134.447C125.802 131.766 127.12 128.334 127.171 124.768C127.138 120.89 125.566 117.184 122.802 114.466C120.038 111.747 116.307 110.239 112.432 110.272C108.556 110.305 104.852 111.878 102.135 114.644C99.4181 117.41 97.9103 121.142 97.9436 125.02C97.9838 127.074 98.4517 129.097 99.3176 130.96C100.184 132.822 101.428 134.484 102.973 135.838C104.517 137.192 106.326 138.208 108.285 138.823C110.244 139.437 112.311 139.635 114.351 139.405ZM104.909 125.401C104.883 125.014 105.013 124.632 105.268 124.341C105.524 124.049 105.884 123.87 106.271 123.845L112.461 123.435C112.847 123.411 113.228 123.54 113.521 123.794L119.02 128.613C119.312 128.869 119.49 129.23 119.516 129.617C119.541 130.005 119.412 130.386 119.157 130.678C118.901 130.97 118.54 131.148 118.153 131.174C117.766 131.199 117.385 131.07 117.093 130.814L112.049 126.394L106.464 126.764C106.077 126.789 105.696 126.66 105.405 126.405C105.113 126.149 104.935 125.788 104.909 125.401Z" stroke="url(#paint20_linear_58_345)" stroke-width="2" mask="url(#path-1-inside-1_58_345)"/>
<path d="M104.472 218.756L115.231 219.524C116.536 219.617 117.669 218.633 117.763 217.327L120.755 175.356C120.848 174.051 119.867 172.916 118.561 172.823L108.257 172.087C110.219 176.718 113.095 185.628 112.303 196.736C111.463 208.52 106.997 215.621 104.472 218.756ZM94.0704 173.453L91.0781 215.423C90.9851 216.728 91.9671 217.864 93.2727 217.957L101.501 218.544C102.995 216.984 108.986 209.948 109.94 196.569C110.761 185.053 107.356 175.843 105.567 171.897L96.6023 171.257C95.2976 171.163 94.1637 172.146 94.0704 173.453ZM108.476 191.413L107.886 199.69L103.603 199.384L104.193 191.108L108.476 191.413Z" stroke="url(#paint21_linear_58_345)" stroke-width="2" mask="url(#path-1-inside-1_58_345)"/>
<path d="M150.572 119.504L163.483 116.141C164.366 115.904 165.188 115.483 165.897 114.906C166.605 114.329 167.184 113.609 167.595 112.793L176.425 94.9346C176.836 94.1019 177.066 93.191 177.099 92.2626C177.131 91.3341 176.965 90.4094 176.612 89.55L171.451 77.3153C171.126 76.5357 170.538 75.8947 169.789 75.5036C169.041 75.1125 168.179 74.9962 167.354 75.1746L159.764 76.8383C159.246 76.9479 158.76 77.1708 158.339 77.4912C157.918 77.8115 157.573 78.2211 157.329 78.6907C156.986 79.3847 156.873 80.1703 157.008 80.9328L142.625 73.8124C141.595 73.3076 140.407 73.2316 139.321 73.6012C138.235 73.9708 137.34 74.7558 136.832 75.7844L128.411 92.8135C128.149 93.3232 127.991 93.8799 127.946 94.4513C127.902 95.0227 127.971 95.5973 128.15 96.1417C128.329 96.686 128.615 97.1893 128.99 97.6222C129.366 98.055 129.824 98.4088 130.337 98.6629L144.977 105.91C144.337 106.24 143.82 106.767 143.502 107.412C143.274 107.854 143.141 108.339 143.112 108.835C143.083 109.331 143.159 109.828 143.334 110.293L146.461 117.468C146.794 118.24 147.39 118.868 148.143 119.241C148.896 119.614 149.757 119.707 150.572 119.504ZM166.446 107.534C165.353 106.711 164.582 105.532 164.266 104.201C163.95 102.87 164.109 101.47 164.716 100.243C165.322 99.0168 166.338 98.041 167.587 97.4845C168.836 96.9281 170.241 96.826 171.557 97.1959L166.446 107.534Z" stroke="url(#paint22_linear_58_345)" stroke-width="2" mask="url(#path-1-inside-1_58_345)"/>
</g>
</g>
<defs>
<linearGradient id="paint0_linear_58_345" x1="-2409.36" y1="370.891" x2="1701" y2="370.891" gradientUnits="userSpaceOnUse">
<stop offset="0.03" stop-color="#CBAD73" stop-opacity="0"/>
<stop offset="0.09" stop-color="#8B1C3E" stop-opacity="0.37"/>
<stop offset="0.0901" stop-color="#CBAD73" stop-opacity="0.76"/>
<stop offset="0.415" stop-color="#E6B962" stop-opacity="0.25"/>
<stop offset="0.705" stop-color="#957F56" stop-opacity="0.28"/>
<stop offset="0.755" stop-color="#8B1C3E" stop-opacity="0.37"/>
<stop offset="0.825" stop-color="#CBAD73"/>
<stop offset="0.905" stop-color="#E6B962" stop-opacity="0"/>
</linearGradient>
<linearGradient id="paint1_linear_58_345" x1="-2409.36" y1="370.891" x2="1701" y2="370.891" gradientUnits="userSpaceOnUse">
<stop offset="0.03" stop-color="#CBAD73" stop-opacity="0"/>
<stop offset="0.09" stop-color="#8B1C3E" stop-opacity="0.37"/>
<stop offset="0.0901" stop-color="#CBAD73" stop-opacity="0.76"/>
<stop offset="0.415" stop-color="#E6B962" stop-opacity="0.25"/>
<stop offset="0.705" stop-color="#957F56" stop-opacity="0.28"/>
<stop offset="0.755" stop-color="#8B1C3E" stop-opacity="0.37"/>
<stop offset="0.825" stop-color="#CBAD73"/>
<stop offset="0.905" stop-color="#E6B962" stop-opacity="0"/>
</linearGradient>
<linearGradient id="paint2_linear_58_345" x1="-2409.36" y1="370.891" x2="1701" y2="370.891" gradientUnits="userSpaceOnUse">
<stop offset="0.03" stop-color="#CBAD73" stop-opacity="0"/>
<stop offset="0.09" stop-color="#8B1C3E" stop-opacity="0.37"/>
<stop offset="0.0901" stop-color="#CBAD73" stop-opacity="0.76"/>
<stop offset="0.415" stop-color="#E6B962" stop-opacity="0.25"/>
<stop offset="0.705" stop-color="#957F56" stop-opacity="0.28"/>
<stop offset="0.755" stop-color="#8B1C3E" stop-opacity="0.37"/>
<stop offset="0.825" stop-color="#CBAD73"/>
<stop offset="0.905" stop-color="#E6B962" stop-opacity="0"/>
</linearGradient>
<linearGradient id="paint3_linear_58_345" x1="-2409.36" y1="370.891" x2="1701" y2="370.891" gradientUnits="userSpaceOnUse">
<stop offset="0.03" stop-color="#CBAD73" stop-opacity="0"/>
<stop offset="0.09" stop-color="#8B1C3E" stop-opacity="0.37"/>
<stop offset="0.0901" stop-color="#CBAD73" stop-opacity="0.76"/>
<stop offset="0.415" stop-color="#E6B962" stop-opacity="0.25"/>
<stop offset="0.705" stop-color="#957F56" stop-opacity="0.28"/>
<stop offset="0.755" stop-color="#8B1C3E" stop-opacity="0.37"/>
<stop offset="0.825" stop-color="#CBAD73"/>
<stop offset="0.905" stop-color="#E6B962" stop-opacity="0"/>
</linearGradient>
<linearGradient id="paint4_linear_58_345" x1="-2409.36" y1="370.891" x2="1701" y2="370.891" gradientUnits="userSpaceOnUse">
<stop offset="0.03" stop-color="#CBAD73" stop-opacity="0"/>
<stop offset="0.09" stop-color="#8B1C3E" stop-opacity="0.37"/>
<stop offset="0.0901" stop-color="#CBAD73" stop-opacity="0.76"/>
<stop offset="0.415" stop-color="#E6B962" stop-opacity="0.25"/>
<stop offset="0.705" stop-color="#957F56" stop-opacity="0.28"/>
<stop offset="0.755" stop-color="#8B1C3E" stop-opacity="0.37"/>
<stop offset="0.825" stop-color="#CBAD73"/>
<stop offset="0.905" stop-color="#E6B962" stop-opacity="0"/>
</linearGradient>
<linearGradient id="paint5_linear_58_345" x1="-2409.36" y1="370.891" x2="1701" y2="370.891" gradientUnits="userSpaceOnUse">
<stop offset="0.03" stop-color="#CBAD73" stop-opacity="0"/>
<stop offset="0.09" stop-color="#8B1C3E" stop-opacity="0.37"/>
<stop offset="0.0901" stop-color="#CBAD73" stop-opacity="0.76"/>
<stop offset="0.415" stop-color="#E6B962" stop-opacity="0.25"/>
<stop offset="0.705" stop-color="#957F56" stop-opacity="0.28"/>
<stop offset="0.755" stop-color="#8B1C3E" stop-opacity="0.37"/>
<stop offset="0.825" stop-color="#CBAD73"/>
<stop offset="0.905" stop-color="#E6B962" stop-opacity="0"/>
</linearGradient>
<linearGradient id="paint6_linear_58_345" x1="-2409.36" y1="370.891" x2="1701" y2="370.891" gradientUnits="userSpaceOnUse">
<stop offset="0.03" stop-color="#CBAD73" stop-opacity="0"/>
<stop offset="0.09" stop-color="#8B1C3E" stop-opacity="0.37"/>
<stop offset="0.0901" stop-color="#CBAD73" stop-opacity="0.76"/>
<stop offset="0.415" stop-color="#E6B962" stop-opacity="0.25"/>
<stop offset="0.705" stop-color="#957F56" stop-opacity="0.28"/>
<stop offset="0.755" stop-color="#8B1C3E" stop-opacity="0.37"/>
<stop offset="0.825" stop-color="#CBAD73"/>
<stop offset="0.905" stop-color="#E6B962" stop-opacity="0"/>
</linearGradient>
<linearGradient id="paint7_linear_58_345" x1="-2409.36" y1="370.891" x2="1701" y2="370.891" gradientUnits="userSpaceOnUse">
<stop offset="0.03" stop-color="#CBAD73" stop-opacity="0"/>
<stop offset="0.09" stop-color="#8B1C3E" stop-opacity="0.37"/>
<stop offset="0.0901" stop-color="#CBAD73" stop-opacity="0.76"/>
<stop offset="0.415" stop-color="#E6B962" stop-opacity="0.25"/>
<stop offset="0.705" stop-color="#957F56" stop-opacity="0.28"/>
<stop offset="0.755" stop-color="#8B1C3E" stop-opacity="0.37"/>
<stop offset="0.825" stop-color="#CBAD73"/>
<stop offset="0.905" stop-color="#E6B962" stop-opacity="0"/>
</linearGradient>
<linearGradient id="paint8_linear_58_345" x1="-2409.36" y1="370.891" x2="1701" y2="370.891" gradientUnits="userSpaceOnUse">
<stop offset="0.03" stop-color="#CBAD73" stop-opacity="0"/>
<stop offset="0.09" stop-color="#8B1C3E" stop-opacity="0.37"/>
<stop offset="0.0901" stop-color="#CBAD73" stop-opacity="0.76"/>
<stop offset="0.415" stop-color="#E6B962" stop-opacity="0.25"/>
<stop offset="0.705" stop-color="#957F56" stop-opacity="0.28"/>
<stop offset="0.755" stop-color="#8B1C3E" stop-opacity="0.37"/>
<stop offset="0.825" stop-color="#CBAD73"/>
<stop offset="0.905" stop-color="#E6B962" stop-opacity="0"/>
</linearGradient>
<linearGradient id="paint9_linear_58_345" x1="-2409.36" y1="370.891" x2="1701" y2="370.891" gradientUnits="userSpaceOnUse">
<stop offset="0.03" stop-color="#CBAD73" stop-opacity="0"/>
<stop offset="0.09" stop-color="#8B1C3E" stop-opacity="0.37"/>
<stop offset="0.0901" stop-color="#CBAD73" stop-opacity="0.76"/>
<stop offset="0.415" stop-color="#E6B962" stop-opacity="0.25"/>
<stop offset="0.705" stop-color="#957F56" stop-opacity="0.28"/>
<stop offset="0.755" stop-color="#8B1C3E" stop-opacity="0.37"/>
<stop offset="0.825" stop-color="#CBAD73"/>
<stop offset="0.905" stop-color="#E6B962" stop-opacity="0"/>
</linearGradient>
<linearGradient id="paint10_linear_58_345" x1="-2409.36" y1="370.891" x2="1701" y2="370.891" gradientUnits="userSpaceOnUse">
<stop offset="0.03" stop-color="#CBAD73" stop-opacity="0"/>
<stop offset="0.09" stop-color="#8B1C3E" stop-opacity="0.37"/>
<stop offset="0.0901" stop-color="#CBAD73" stop-opacity="0.76"/>
<stop offset="0.415" stop-color="#E6B962" stop-opacity="0.25"/>
<stop offset="0.705" stop-color="#957F56" stop-opacity="0.28"/>
<stop offset="0.755" stop-color="#8B1C3E" stop-opacity="0.37"/>
<stop offset="0.825" stop-color="#CBAD73"/>
<stop offset="0.905" stop-color="#E6B962" stop-opacity="0"/>
</linearGradient>
<linearGradient id="paint11_linear_58_345" x1="-2409.36" y1="370.891" x2="1701" y2="370.891" gradientUnits="userSpaceOnUse">
<stop offset="0.03" stop-color="#CBAD73" stop-opacity="0"/>
<stop offset="0.09" stop-color="#8B1C3E" stop-opacity="0.37"/>
<stop offset="0.0901" stop-color="#CBAD73" stop-opacity="0.76"/>
<stop offset="0.415" stop-color="#E6B962" stop-opacity="0.25"/>
<stop offset="0.705" stop-color="#957F56" stop-opacity="0.28"/>
<stop offset="0.755" stop-color="#8B1C3E" stop-opacity="0.37"/>
<stop offset="0.825" stop-color="#CBAD73"/>
<stop offset="0.905" stop-color="#E6B962" stop-opacity="0"/>
</linearGradient>
<linearGradient id="paint12_linear_58_345" x1="-2409.36" y1="370.891" x2="1701" y2="370.891" gradientUnits="userSpaceOnUse">
<stop offset="0.03" stop-color="#CBAD73" stop-opacity="0"/>
<stop offset="0.09" stop-color="#8B1C3E" stop-opacity="0.37"/>
<stop offset="0.0901" stop-color="#CBAD73" stop-opacity="0.76"/>
<stop offset="0.415" stop-color="#E6B962" stop-opacity="0.25"/>
<stop offset="0.705" stop-color="#957F56" stop-opacity="0.28"/>
<stop offset="0.755" stop-color="#8B1C3E" stop-opacity="0.37"/>
<stop offset="0.825" stop-color="#CBAD73"/>
<stop offset="0.905" stop-color="#E6B962" stop-opacity="0"/>
</linearGradient>
<linearGradient id="paint13_linear_58_345" x1="-2409.36" y1="370.891" x2="1701" y2="370.891" gradientUnits="userSpaceOnUse">
<stop offset="0.03" stop-color="#CBAD73" stop-opacity="0"/>
<stop offset="0.09" stop-color="#8B1C3E" stop-opacity="0.37"/>
<stop offset="0.0901" stop-color="#CBAD73" stop-opacity="0.76"/>
<stop offset="0.415" stop-color="#E6B962" stop-opacity="0.25"/>
<stop offset="0.705" stop-color="#957F56" stop-opacity="0.28"/>
<stop offset="0.755" stop-color="#8B1C3E" stop-opacity="0.37"/>
<stop offset="0.825" stop-color="#CBAD73"/>
<stop offset="0.905" stop-color="#E6B962" stop-opacity="0"/>
</linearGradient>
<linearGradient id="paint14_linear_58_345" x1="-2409.36" y1="370.891" x2="1701" y2="370.891" gradientUnits="userSpaceOnUse">
<stop offset="0.03" stop-color="#CBAD73" stop-opacity="0"/>
<stop offset="0.09" stop-color="#8B1C3E" stop-opacity="0.37"/>
<stop offset="0.0901" stop-color="#CBAD73" stop-opacity="0.76"/>
<stop offset="0.415" stop-color="#E6B962" stop-opacity="0.25"/>
<stop offset="0.705" stop-color="#957F56" stop-opacity="0.28"/>
<stop offset="0.755" stop-color="#8B1C3E" stop-opacity="0.37"/>
<stop offset="0.825" stop-color="#CBAD73"/>
<stop offset="0.905" stop-color="#E6B962" stop-opacity="0"/>
</linearGradient>
<linearGradient id="paint15_linear_58_345" x1="-2409.36" y1="370.891" x2="1701" y2="370.891" gradientUnits="userSpaceOnUse">
<stop offset="0.03" stop-color="#CBAD73" stop-opacity="0"/>
<stop offset="0.09" stop-color="#8B1C3E" stop-opacity="0.37"/>
<stop offset="0.0901" stop-color="#CBAD73" stop-opacity="0.76"/>
<stop offset="0.415" stop-color="#E6B962" stop-opacity="0.25"/>
<stop offset="0.705" stop-color="#957F56" stop-opacity="0.28"/>
<stop offset="0.755" stop-color="#8B1C3E" stop-opacity="0.37"/>
<stop offset="0.825" stop-color="#CBAD73"/>
<stop offset="0.905" stop-color="#E6B962" stop-opacity="0"/>
</linearGradient>
<linearGradient id="paint16_linear_58_345" x1="-2409.36" y1="370.891" x2="1701" y2="370.891" gradientUnits="userSpaceOnUse">
<stop offset="0.03" stop-color="#CBAD73" stop-opacity="0"/>
<stop offset="0.09" stop-color="#8B1C3E" stop-opacity="0.37"/>
<stop offset="0.0901" stop-color="#CBAD73" stop-opacity="0.76"/>
<stop offset="0.415" stop-color="#E6B962" stop-opacity="0.25"/>
<stop offset="0.705" stop-color="#957F56" stop-opacity="0.28"/>
<stop offset="0.755" stop-color="#8B1C3E" stop-opacity="0.37"/>
<stop offset="0.825" stop-color="#CBAD73"/>
<stop offset="0.905" stop-color="#E6B962" stop-opacity="0"/>
</linearGradient>
<linearGradient id="paint17_linear_58_345" x1="-2409.36" y1="370.891" x2="1701" y2="370.891" gradientUnits="userSpaceOnUse">
<stop offset="0.03" stop-color="#CBAD73" stop-opacity="0"/>
<stop offset="0.09" stop-color="#8B1C3E" stop-opacity="0.37"/>
<stop offset="0.0901" stop-color="#CBAD73" stop-opacity="0.76"/>
<stop offset="0.415" stop-color="#E6B962" stop-opacity="0.25"/>
<stop offset="0.705" stop-color="#957F56" stop-opacity="0.28"/>
<stop offset="0.755" stop-color="#8B1C3E" stop-opacity="0.37"/>
<stop offset="0.825" stop-color="#CBAD73"/>
<stop offset="0.905" stop-color="#E6B962" stop-opacity="0"/>
</linearGradient>
<linearGradient id="paint18_linear_58_345" x1="-2409.36" y1="370.891" x2="1701" y2="370.891" gradientUnits="userSpaceOnUse">
<stop offset="0.03" stop-color="#CBAD73" stop-opacity="0"/>
<stop offset="0.09" stop-color="#8B1C3E" stop-opacity="0.37"/>
<stop offset="0.0901" stop-color="#CBAD73" stop-opacity="0.76"/>
<stop offset="0.415" stop-color="#E6B962" stop-opacity="0.25"/>
<stop offset="0.705" stop-color="#957F56" stop-opacity="0.28"/>
<stop offset="0.755" stop-color="#8B1C3E" stop-opacity="0.37"/>
<stop offset="0.825" stop-color="#CBAD73"/>
<stop offset="0.905" stop-color="#E6B962" stop-opacity="0"/>
</linearGradient>
<linearGradient id="paint19_linear_58_345" x1="-2409.36" y1="370.891" x2="1701" y2="370.891" gradientUnits="userSpaceOnUse">
<stop offset="0.03" stop-color="#CBAD73" stop-opacity="0"/>
<stop offset="0.09" stop-color="#8B1C3E" stop-opacity="0.37"/>
<stop offset="0.0901" stop-color="#CBAD73" stop-opacity="0.76"/>
<stop offset="0.415" stop-color="#E6B962" stop-opacity="0.25"/>
<stop offset="0.705" stop-color="#957F56" stop-opacity="0.28"/>
<stop offset="0.755" stop-color="#8B1C3E" stop-opacity="0.37"/>
<stop offset="0.825" stop-color="#CBAD73"/>
<stop offset="0.905" stop-color="#E6B962" stop-opacity="0"/>
</linearGradient>
<linearGradient id="paint20_linear_58_345" x1="-2409.36" y1="370.891" x2="1701" y2="370.891" gradientUnits="userSpaceOnUse">
<stop offset="0.03" stop-color="#CBAD73" stop-opacity="0"/>
<stop offset="0.09" stop-color="#8B1C3E" stop-opacity="0.37"/>
<stop offset="0.0901" stop-color="#CBAD73" stop-opacity="0.76"/>
<stop offset="0.415" stop-color="#E6B962" stop-opacity="0.25"/>
<stop offset="0.705" stop-color="#957F56" stop-opacity="0.28"/>
<stop offset="0.755" stop-color="#8B1C3E" stop-opacity="0.37"/>
<stop offset="0.825" stop-color="#CBAD73"/>
<stop offset="0.905" stop-color="#E6B962" stop-opacity="0"/>
</linearGradient>
<linearGradient id="paint21_linear_58_345" x1="-2409.36" y1="370.891" x2="1701" y2="370.891" gradientUnits="userSpaceOnUse">
<stop offset="0.03" stop-color="#CBAD73" stop-opacity="0"/>
<stop offset="0.09" stop-color="#8B1C3E" stop-opacity="0.37"/>
<stop offset="0.0901" stop-color="#CBAD73" stop-opacity="0.76"/>
<stop offset="0.415" stop-color="#E6B962" stop-opacity="0.25"/>
<stop offset="0.705" stop-color="#957F56" stop-opacity="0.28"/>
<stop offset="0.755" stop-color="#8B1C3E" stop-opacity="0.37"/>
<stop offset="0.825" stop-color="#CBAD73"/>
<stop offset="0.905" stop-color="#E6B962" stop-opacity="0"/>
</linearGradient>
<linearGradient id="paint22_linear_58_345" x1="-2409.36" y1="370.891" x2="1701" y2="370.891" gradientUnits="userSpaceOnUse">
<stop offset="0.03" stop-color="#CBAD73" stop-opacity="0"/>
<stop offset="0.09" stop-color="#8B1C3E" stop-opacity="0.37"/>
<stop offset="0.0901" stop-color="#CBAD73" stop-opacity="0.76"/>
<stop offset="0.415" stop-color="#E6B962" stop-opacity="0.25"/>
<stop offset="0.705" stop-color="#957F56" stop-opacity="0.28"/>
<stop offset="0.755" stop-color="#8B1C3E" stop-opacity="0.37"/>
<stop offset="0.825" stop-color="#CBAD73"/>
<stop offset="0.905" stop-color="#E6B962" stop-opacity="0"/>
</linearGradient>
<clipPath id="clip0_58_345">
<rect width="138" height="654" fill="white"/>
</clipPath>
</defs>
</svg>
