<svg width="85" height="83" viewBox="0 0 85 83" fill="none" xmlns="http://www.w3.org/2000/svg">
<path fill-rule="evenodd" clip-rule="evenodd" d="M8.62377 18.5692H63.2243C67.4603 18.5692 70.9245 22.0337 70.9245 26.2676V59.8999C70.9245 64.134 67.4601 67.5994 63.2243 67.5994H8.62377C4.38877 67.5994 0.924316 64.134 0.924316 59.8999V26.2676C0.924316 22.0337 4.38877 18.5692 8.62377 18.5692Z" fill="white"/>
<path fill-rule="evenodd" clip-rule="evenodd" d="M56.0656 82.5014H15.7817C13.93 82.5014 12.4242 80.9954 12.4242 79.1421V75.7063C12.4242 73.8546 13.9302 72.3488 15.7817 72.3488H24.5658V67.5996C24.5657 67.4782 24.5896 67.358 24.6361 67.2459C24.6825 67.1337 24.7506 67.0319 24.8365 66.9461C24.9224 66.8603 25.0243 66.7923 25.1365 66.746C25.2487 66.6996 25.3689 66.6759 25.4902 66.676H46.3579C46.4793 66.6759 46.5994 66.6996 46.7116 66.746C46.8237 66.7923 46.9256 66.8604 47.0113 66.9461C47.0971 67.0319 47.1652 67.1338 47.2115 67.2459C47.2579 67.3581 47.2816 67.4782 47.2815 67.5996V72.3488H56.0656C57.9171 72.3488 59.4231 73.8548 59.4231 75.7063V79.1421C59.4231 80.9954 57.9171 82.5014 56.0656 82.5014Z" fill="black"/>
<path fill-rule="evenodd" clip-rule="evenodd" d="M59.3736 60.8235H12.476C12.3488 60.8236 12.2229 60.7973 12.1064 60.7464C11.9898 60.6955 11.885 60.621 11.7986 60.5276C11.7116 60.4341 11.6451 60.3236 11.603 60.203C11.561 60.0824 11.5444 59.9544 11.5543 59.8271C11.65 58.5858 12.0898 57.2881 12.8583 55.9709C15.8261 50.8891 20.0858 48.5886 27.4028 45.8928C27.5052 45.8554 27.6134 45.836 27.7225 45.8357H44.1258C44.2345 45.8357 44.3433 45.856 44.4448 45.8928C51.7625 48.5886 56.0215 50.8891 58.9891 55.9709C59.7578 57.2879 60.1974 58.5856 60.294 59.8271C60.3036 59.9543 60.2871 60.082 60.2454 60.2025C60.2037 60.323 60.1377 60.4337 60.0516 60.5276C59.9649 60.6209 59.86 60.6952 59.7434 60.7461C59.6267 60.797 59.5009 60.8234 59.3736 60.8235Z" fill="#615260"/>
<path fill-rule="evenodd" clip-rule="evenodd" d="M70.0004 58.9757V26.2676C70.0004 22.5331 66.9608 19.4935 63.2245 19.4935H8.62391C4.88764 19.4935 1.84799 22.533 1.84799 26.2676V58.9757H70.0004ZM0 59.9001V26.2676C0 21.513 3.86913 17.6457 8.62373 17.6457H63.2243C67.9791 17.6457 71.848 21.513 71.848 26.2676V59.8999C71.848 64.6538 67.9791 68.5227 63.2243 68.5227H8.62391C3.86913 68.5229 0 64.6538 0 59.9001Z" fill="#1B1B1B"/>
<path fill-rule="evenodd" clip-rule="evenodd" d="M35.9249 54.9287C35.8845 54.9287 35.8429 54.9269 35.8043 54.9214C30.7527 54.2596 22.563 50.2285 21.599 46.0147C20.6764 41.9907 22.282 36.286 25.6875 31.4841C28.6313 27.3321 32.3252 24.7248 35.8218 24.3312C35.8899 24.3238 35.9585 24.3238 36.0266 24.3312C39.5222 24.7248 43.2162 27.3321 46.1599 31.4841C49.5655 36.2858 51.1708 41.9907 50.2493 46.0147C49.2844 50.2285 41.0947 54.2596 36.0432 54.9214C36.0042 54.9269 35.9637 54.9287 35.9249 54.9287Z" fill="#4E434D"/>
<path fill-rule="evenodd" clip-rule="evenodd" d="M35.9257 51.9335C31.0604 51.9335 27.1039 47.2515 27.1039 41.4969C27.1039 35.7413 31.0604 31.0593 35.9257 31.0593C40.7891 31.0593 44.7468 35.7413 44.7468 41.4969C44.7468 47.2515 40.7891 51.9335 35.9257 51.9335Z" fill="#D9B7A9"/>
<path fill-rule="evenodd" clip-rule="evenodd" d="M35.9252 51.9334C31.6929 51.9334 28.149 48.3904 27.2981 43.6807C30.0033 42.4562 33.1228 41.9124 35.9252 41.9124C38.1664 41.9124 40.6101 42.2607 42.8825 43.0268C42.5872 47.0066 40.3956 50.3526 37.3862 51.7895C36.9051 51.885 36.4157 51.9332 35.9252 51.9334Z" fill="#F1CBBC"/>
<path fill-rule="evenodd" clip-rule="evenodd" d="M49.5471 45.4404C49.3157 45.4408 49.0927 45.3543 48.9221 45.198C45.9083 42.447 41.0486 40.8035 35.9252 40.8035C30.799 40.8035 25.9392 42.4468 22.9255 45.198C22.7981 45.3148 22.6404 45.3935 22.4704 45.4249C22.3004 45.4564 22.125 45.4394 21.9642 45.3759C21.8038 45.313 21.6642 45.2065 21.5611 45.0684C21.458 44.9303 21.3956 44.7662 21.3809 44.5945C20.7266 36.874 27.8813 25.2254 35.8221 24.3314C35.8901 24.324 35.9588 24.324 36.0268 24.3314C43.9667 25.2254 51.1214 36.874 50.468 44.5945C50.4532 44.7663 50.3906 44.9305 50.2873 45.0686C50.1841 45.2067 50.0443 45.3131 49.8837 45.3759C49.7747 45.4203 49.6594 45.4404 49.5471 45.4404Z" fill="#615260"/>
<path fill-rule="evenodd" clip-rule="evenodd" d="M66.7525 43.8092C66.6903 43.8081 66.6283 43.802 66.5671 43.7907C61.9422 42.8442 57.3397 40.0239 53.9434 36.0517C50.4357 31.9477 48.5029 27.0732 48.5029 22.3203V4.57407C48.5033 4.36229 48.5764 4.15707 48.7099 3.99268C48.8434 3.82829 49.0293 3.71469 49.2365 3.67086L66.5616 0.0194036C66.6871 -0.00646786 66.8167 -0.00646786 66.9422 0.0194036L84.2671 3.67086C84.4743 3.71456 84.6602 3.82815 84.7935 3.99259C84.9269 4.15703 84.9997 4.36233 84.9998 4.57407V22.3203C84.9998 27.0732 83.0681 31.9477 79.5613 36.0517C76.1632 40.0239 71.5614 42.8442 66.9376 43.7907C66.8759 43.8009 66.8132 43.8092 66.7525 43.8092Z" fill="#CDAB71"/>
<path fill-rule="evenodd" clip-rule="evenodd" d="M66.7526 43.8092C66.7214 43.8092 66.6903 43.8071 66.6597 43.8038V0.00462687C66.7542 -0.00479388 66.8496 0.000190062 66.9426 0.019409L84.2674 3.67087C84.4746 3.71456 84.6605 3.82815 84.7939 3.99259C84.9273 4.15704 85.0001 4.36233 85.0001 4.57408V22.3203C85.0001 27.0732 83.0684 31.9477 79.5616 36.0517C76.1635 40.0239 71.5617 42.8442 66.9379 43.7907C66.876 43.8009 66.8134 43.8092 66.7526 43.8092Z" fill="#B99559"/>
<path fill-rule="evenodd" clip-rule="evenodd" d="M73.4457 16.0098H71.5979V13.067C71.5979 10.3941 69.4247 8.22 66.7529 8.22C64.081 8.22 61.9061 10.3941 61.9061 13.067V16.0098H60.0581V13.067C60.0581 9.37488 63.0608 6.37219 66.7529 6.37219C70.4432 6.37219 73.4459 9.37488 73.4459 13.067L73.4457 16.0098Z" fill="#D4D7D9"/>
<path fill-rule="evenodd" clip-rule="evenodd" d="M73.0291 16.0098H71.5969V13.067C71.5969 10.3941 69.4237 8.21997 66.7519 8.21997C66.6823 8.21997 66.613 8.22182 66.544 8.22477C66.4748 8.22169 66.4055 8.22009 66.3362 8.21997C63.6642 8.21997 61.4894 10.3941 61.4894 13.067V16.0098H60.0571V13.067C60.0571 9.44451 62.9478 6.48599 66.544 6.37567C70.1386 6.48599 73.0291 9.44451 73.0291 13.067V16.0098Z" fill="white"/>
<path fill-rule="evenodd" clip-rule="evenodd" d="M73.1882 30.2398H60.3165C58.653 30.2398 57.2991 28.8878 57.2991 27.2224V18.1036C57.2991 16.4409 58.653 15.0861 60.3165 15.0861H73.1882C74.8509 15.0861 76.2057 16.4409 76.2057 18.1036V27.2224C76.2057 28.888 74.8509 30.2398 73.1882 30.2398Z" fill="#B6B6B6"/>
<path fill-rule="evenodd" clip-rule="evenodd" d="M73.1882 30.2398H60.3165C58.653 30.2398 57.2991 28.8877 57.2991 27.2223V18.1035C57.2991 17.4492 57.5088 16.8428 57.8645 16.3476C58.3096 16.1013 58.8101 15.9724 59.3187 15.973H72.1904C73.853 15.973 75.2079 17.3278 75.2079 18.9905V28.1093C75.2079 28.7641 74.9983 29.3704 74.643 29.8652C74.1977 30.1115 73.6971 30.2404 73.1882 30.2398ZM66.7525 25.2989C66.8738 25.299 66.9939 25.2752 67.106 25.2288C67.218 25.1825 67.3199 25.1145 67.4057 25.0287C67.4914 24.9429 67.5595 24.8411 67.6059 24.729C67.6522 24.617 67.6761 24.4969 67.676 24.3756V20.9518C67.676 20.4412 67.2621 20.0273 66.7525 20.0273C66.2428 20.0273 65.828 20.4412 65.828 20.9518V24.3756C65.828 24.4969 65.8519 24.6171 65.8984 24.7292C65.9449 24.8413 66.013 24.9431 66.0988 25.0289C66.1847 25.1146 66.2866 25.1826 66.3988 25.229C66.5109 25.2753 66.6311 25.2991 66.7525 25.2989Z" fill="white"/>
</svg>
