<svg width="85" height="86" viewBox="0 0 85 86" fill="none" xmlns="http://www.w3.org/2000/svg">
<path d="M85 36.8746C85 47.9075 76.0491 56.8571 65.0002 56.8571H19.9852C8.95094 56.8571 0 47.9075 0 36.8746C0 26.8382 7.37519 18.5383 17.0064 17.0914C19.2757 7.2875 28.0539 0 38.538 0C49.1524 0 58.0303 7.48945 60.1415 17.482C61.7287 17.0741 63.3614 16.8701 65.0002 16.8748C76.0491 16.8748 85 25.8258 85 36.8746Z" fill="#CDAB71"/>
<path d="M11.1846 25.5109C10.7564 25.5121 10.3391 25.3752 9.99478 25.1205C9.65046 24.8658 9.3974 24.5069 9.27316 24.0971C9.14892 23.6872 9.16011 23.2482 9.30507 22.8452C9.45003 22.4422 9.72105 22.0967 10.0779 21.8598C10.3729 21.6619 10.6745 21.4745 10.9814 21.2952C11.4376 21.0338 11.9786 20.9633 12.4866 21.0991C12.9946 21.2348 13.4283 21.5658 13.6933 22.02C13.9583 22.4741 14.0331 23.0146 13.9015 23.5236C13.7698 24.0326 13.4422 24.469 12.9902 24.7376C12.7511 24.8771 12.5186 25.0233 12.2901 25.1761C11.9499 25.4019 11.5646 25.5109 11.1846 25.5109ZM4.25189 35.9964C3.95922 35.9968 3.67005 35.9327 3.40493 35.8087C3.13982 35.6848 2.90526 35.5039 2.71793 35.279C2.53061 35.0542 2.39511 34.7908 2.32106 34.5077C2.24702 34.2245 2.23624 33.9285 2.28951 33.6407C2.80584 30.8847 3.95367 28.2857 5.64296 26.0477C5.79736 25.8305 5.99374 25.6466 6.22048 25.5066C6.44722 25.3667 6.69971 25.2737 6.96303 25.233C7.22635 25.1924 7.49514 25.2049 7.75352 25.27C8.0119 25.335 8.25462 25.4512 8.46732 25.6116C8.68002 25.7721 8.85839 25.9736 8.99187 26.2042C9.12536 26.4348 9.21125 26.6898 9.24447 26.9541C9.2777 27.2185 9.25758 27.4868 9.1853 27.7433C9.11302 27.9997 8.99006 28.2391 8.82368 28.4472C7.50692 30.1914 6.61197 32.2169 6.20895 34.3648C6.12456 34.8225 5.88266 35.2362 5.52521 35.5342C5.16775 35.8322 4.71727 35.9957 4.25189 35.9964Z" fill="#B99559"/>
<path d="M64.9999 16.8749C63.3231 16.8749 61.7035 17.0781 60.1411 17.482C58.0512 7.59045 49.3261 0.162111 38.8539 0.0133057V56.8585H64.9999C76.0474 56.8585 84.9983 47.9075 84.9983 36.8746C84.9983 25.8258 76.0474 16.8749 64.9999 16.8749Z" fill="#B99559"/>
<path d="M71.8364 32.6536V55.2335H13.1644V32.6443C13.1643 31.8184 13.3268 31.0006 13.6427 30.2376C13.9587 29.4746 14.4219 28.7813 15.0059 28.1973C15.5898 27.6134 16.2831 27.1502 17.0461 26.8342C17.8092 26.5183 18.627 26.3557 19.4528 26.3559H65.5388C66.366 26.355 67.1853 26.5173 67.9498 26.8335C68.7143 27.1497 69.4089 27.6135 69.9938 28.1985C70.5788 28.7835 71.0426 29.4781 71.3588 30.2425C71.675 31.007 71.8373 31.8263 71.8364 32.6536Z" fill="#454545"/>
<path d="M65.5387 26.3559H42.5031V85.0292H64.3828C66.3581 85.0296 68.2528 84.2457 69.6504 82.8498C71.048 81.4539 71.8343 79.5603 71.8364 77.585V32.6536C71.8373 31.8263 71.675 31.007 71.3588 30.2425C71.0426 29.4781 70.5788 28.7835 69.9938 28.1985C69.4088 27.6135 68.7142 27.1497 67.9498 26.8335C67.1853 26.5173 66.366 26.355 65.5387 26.3559Z" fill="#2C2C2C"/>
<path d="M71.8364 44.0664V77.5849C71.8343 79.5602 71.0481 81.4539 69.6504 82.8498C68.2528 84.2457 66.3582 85.0296 64.3829 85.0292H19.4541C18.6281 85.0295 17.81 84.8671 17.0468 84.5511C16.2835 84.2352 15.59 83.7719 15.0059 83.1878C14.4217 82.6036 13.9585 81.9101 13.6425 81.1469C13.3265 80.3836 13.1641 79.5656 13.1644 78.7395V44.0571C13.1643 43.2312 13.3268 42.4133 13.6429 41.6501C13.9589 40.887 14.4222 40.1937 15.0063 39.6097C15.5904 39.0257 16.2839 38.5626 17.0471 38.2467C17.8102 37.9308 18.6282 37.7684 19.4541 37.7687H65.5388C66.366 37.7679 67.1853 37.9302 67.9498 38.2463C68.7143 38.5625 69.4089 39.0264 69.9938 39.6113C70.5788 40.1963 71.0426 40.8909 71.3588 41.6554C71.675 42.4198 71.8373 43.2391 71.8364 44.0664Z" fill="#E8EDF2"/>
<path d="M65.5387 37.7687H42.5031V85.0292H64.3828C66.3581 85.0296 68.2528 84.2457 69.6504 82.8498C71.048 81.4539 71.8343 79.5602 71.8364 77.5849V44.0664C71.8373 43.2391 71.675 42.4198 71.3588 41.6554C71.0426 40.8909 70.5788 40.1963 69.9938 39.6113C69.4088 39.0264 68.7142 38.5625 67.9498 38.2463C67.1853 37.9302 66.366 37.7679 65.5387 37.7687Z" fill="#C4D3E4"/>
<path d="M23.5579 32.2802V32.2895C23.5579 33.2328 22.7873 34.0034 21.8347 34.0034H20.4038C19.4511 34.0034 18.6805 33.2328 18.6805 32.2895V32.2802C18.6805 31.3356 19.4511 30.5663 20.4038 30.5663H21.8347C22.7873 30.5663 23.5579 31.3356 23.5579 32.2802ZM31.3503 32.2802V32.2895C31.3503 33.2328 30.5797 34.0034 29.6271 34.0034H28.1961C27.2435 34.0034 26.4729 33.2328 26.4729 32.2895V32.2802C26.4729 31.3356 27.2435 30.5663 28.1961 30.5663H29.6271C30.5797 30.5663 31.3503 31.3356 31.3503 32.2802ZM39.1427 32.2802V32.2895C39.1427 33.2328 38.3721 34.0034 37.4194 34.0034H35.9898C35.0359 34.0034 34.2653 33.2328 34.2653 32.2895V32.2802C34.2653 31.3356 35.0359 30.5663 35.9898 30.5663H37.4194C38.3734 30.5663 39.1427 31.3356 39.1427 32.2802Z" fill="white"/>
<path d="M32.5354 46.078C32.3896 45.7421 32.1638 45.4469 31.8778 45.2184C31.5567 44.9685 31.1592 44.8371 30.7524 44.8463H30.5319C30.0974 44.8463 29.7174 44.9712 29.4065 45.2184C29.1235 45.4429 28.9016 45.7312 28.7435 46.0873L23.1142 59.3775C22.9762 59.6614 22.9287 59.9808 22.9781 60.2925C23.0275 60.6043 23.1715 60.8934 23.3905 61.1206C23.8821 61.6308 24.7484 61.7278 25.3688 61.3213C25.6266 61.1539 25.8246 60.9227 25.9641 60.6198L27.2581 57.5161H34.0261L35.3282 60.6384C35.4548 60.917 35.6586 61.1535 35.9155 61.3197C36.1725 61.486 36.4717 61.575 36.7777 61.5764C36.982 61.5813 37.1851 61.5447 37.3748 61.4688C37.5645 61.3928 37.7368 61.2792 37.8813 61.1347C38.0258 60.9903 38.1394 60.818 38.2153 60.6283C38.2912 60.4386 38.3278 60.2354 38.3229 60.0312C38.3155 59.8043 38.2631 59.5813 38.1688 59.3748L32.5354 46.078ZM32.7945 54.5785H28.4898L30.6421 49.3969L32.7945 54.5785ZM50.7203 45.7272C49.761 45.2157 48.5228 44.9566 47.04 44.9566H42.0085C41.5794 44.9566 41.1981 45.1174 40.9031 45.4243C40.618 45.7185 40.4604 46.1134 40.4647 46.5231V60.0312C40.4647 60.4563 40.6174 60.835 40.9111 61.1273C41.206 61.4209 41.5847 61.5764 42.0085 61.5764C42.427 61.5764 42.8057 61.4236 43.1086 61.1353C43.4142 60.8403 43.5736 60.459 43.5736 60.0312V55.8593H47.0413C48.5241 55.8593 49.7624 55.6002 50.7216 55.0887C51.7008 54.5666 52.4156 53.8783 52.8488 53.0466C53.2713 52.2348 53.4852 51.3473 53.4852 50.408C53.4852 49.4686 53.2713 48.5811 52.8488 47.7693C52.4156 46.9376 51.7008 46.2494 50.7203 45.7272ZM50.3735 50.408C50.3735 51.1081 50.1304 51.6768 49.6308 52.1471C49.1286 52.6188 48.1906 52.8579 46.8407 52.8579H43.5763V47.958H46.8434C48.1919 47.958 49.1299 48.1971 49.6335 48.6688C50.1317 49.1378 50.3749 49.7078 50.3749 50.4093L50.3735 50.408ZM57.948 45.3047C57.3422 44.7002 56.3204 44.7068 55.7359 45.3127C55.4499 45.607 55.2918 46.0024 55.2961 46.4128V60.0312C55.2961 60.4563 55.4502 60.835 55.7438 61.1273C56.0361 61.4209 56.4161 61.5764 56.8399 61.5764C57.2584 61.5764 57.6384 61.4236 57.94 61.1353C58.2456 60.8403 58.4064 60.459 58.4064 60.0312V46.4128C58.4064 45.9876 58.2483 45.6063 57.948 45.3047Z" fill="#CDAB71"/>
<path d="M58.7015 68.177C58.7015 69.2293 57.8406 70.0902 56.775 70.0902H27.9133C26.8464 70.0902 25.9868 69.2293 25.9868 68.177C25.9868 67.1114 26.8464 66.2505 27.9133 66.2505H56.775C57.8406 66.2505 58.7015 67.1114 58.7015 68.177ZM55.8729 75.1323C55.8748 75.3848 55.8267 75.6352 55.7314 75.869C55.6362 76.1028 55.4955 76.3154 55.3177 76.4946C55.1398 76.6738 54.9283 76.8161 54.6952 76.9131C54.4621 77.0102 54.2121 77.0602 53.9597 77.0602H30.7287C29.6618 77.0602 28.8022 76.1992 28.8022 75.1337C28.8022 74.0814 29.6618 73.2204 30.7287 73.2204H53.9597C55.0265 73.2204 55.8729 74.0801 55.8729 75.1323Z" fill="#C4D3E4"/>
<path d="M55.8729 75.1323C55.8748 75.3848 55.8267 75.6352 55.7315 75.869C55.6362 76.1028 55.4956 76.3154 55.3177 76.4946C55.1399 76.6738 54.9283 76.8161 54.6952 76.9131C54.4621 77.0102 54.2121 77.0602 53.9597 77.0602H42.5494V73.2204H53.9597C55.0265 73.2204 55.8729 74.0801 55.8729 75.1323ZM58.7015 68.177C58.7015 69.2293 57.8406 70.0902 56.775 70.0902H42.5494V66.2505H56.775C57.8406 66.2505 58.7015 67.1114 58.7015 68.177Z" fill="#ABB8C2"/>
<path d="M19.0095 56.772V69.0618C19.0095 70.0317 18.2257 70.8023 17.269 70.8023H17.2558C16.2991 70.8023 15.5153 70.0317 15.5153 69.0618V56.772C15.5153 55.8154 16.2991 55.0316 17.2558 55.0316H17.269C18.2257 55.0316 19.0095 55.8154 19.0095 56.772Z" fill="white"/>
</svg>
