<svg width="85" height="81" viewBox="0 0 85 81" fill="none" xmlns="http://www.w3.org/2000/svg">
<path fill-rule="evenodd" clip-rule="evenodd" d="M9.92721 15.1738L27.8756 10.3613C29.4941 9.92011 31.1542 10.7609 31.7844 12.3157L39.6657 32.0716C39.8415 32.5015 39.9231 32.964 39.9049 33.428C39.8868 33.892 39.7693 34.3468 39.5605 34.7615C39.1186 35.6446 38.4046 36.2118 37.4793 36.4639L14.676 42.5799C13.7515 42.8319 12.8477 42.6851 12.0277 42.1387C11.2084 41.6138 10.725 40.836 10.5774 39.8685L7.53018 18.8098C7.30034 17.1497 8.30942 15.5942 9.92721 15.1738Z" fill="#CDAB71"/>
<path fill-rule="evenodd" clip-rule="evenodd" d="M38.1747 28.3097L39.6672 32.0717C39.843 32.5015 39.9246 32.964 39.9064 33.428C39.8882 33.8921 39.7708 34.3468 39.5619 34.7616C39.12 35.6446 38.406 36.2118 37.4807 36.4639L14.6775 42.5799C13.7529 42.832 12.8491 42.6852 12.0291 42.1387C11.2098 41.6138 10.7264 40.8361 10.5789 39.8685L8.91809 28.3097H38.1747Z" fill="#A9864B"/>
<path fill-rule="evenodd" clip-rule="evenodd" d="M59.5068 2.37421L80.5448 8.02757L73.1261 50.1457L61.6503 48.1068L67.6195 14.1643L55.8294 46.5512L44.8793 42.5579L59.5068 2.37421Z" fill="#494949"/>
<path fill-rule="evenodd" clip-rule="evenodd" d="M76.9711 28.3085L73.1253 50.1449L61.6496 48.106L65.138 28.3085H76.9711ZM62.4703 28.3085L55.8294 46.5505L44.8793 42.5572L50.07 28.3077L62.4703 28.3085Z" fill="#1C1D21"/>
<path fill-rule="evenodd" clip-rule="evenodd" d="M70.0363 5.19055L72.6209 5.88453L71.1076 11.5379C71.0621 11.7076 70.9836 11.8668 70.8766 12.0062C70.7696 12.1456 70.6362 12.2626 70.4839 12.3504C70.3317 12.4383 70.1637 12.4953 69.9894 12.5182C69.8152 12.5411 69.6381 12.5295 69.4683 12.4839L68.1649 12.1266L70.0363 5.19055Z" fill="#C3C3C3"/>
<path fill-rule="evenodd" clip-rule="evenodd" d="M59.2119 3.15254L80.3966 8.82666L81.2582 5.67412L60.0735 0L59.2119 3.15254Z" fill="#1C1D21"/>
<path fill-rule="evenodd" clip-rule="evenodd" d="M49.4803 11.8325L56.5839 4.74969L66.3782 14.5432L59.2953 21.6475L49.4803 11.8325ZM37.5849 11.8325L30.4813 4.74969L20.6879 14.5432L27.7707 21.6475L37.5849 11.8325Z" fill="#F4F4F4"/>
<path fill-rule="evenodd" clip-rule="evenodd" d="M30.4818 4.75011L39.1617 2.45911H48.9981L56.5844 4.75011V35.8551H30.4818V4.75011Z" fill="#DADADA"/>
<path fill-rule="evenodd" clip-rule="evenodd" d="M30.4818 28.3097H56.5844V35.8544H30.4818V28.3097Z" fill="#DADADA"/>
<path fill-rule="evenodd" clip-rule="evenodd" d="M39.1616 2.45911H48.9981V4.75011C48.9981 7.44 46.7909 9.66798 44.0802 9.66798C41.3688 9.66798 39.1616 7.44074 39.1616 4.75011V2.45911Z" fill="#F4F4F4"/>
<path fill-rule="evenodd" clip-rule="evenodd" d="M5.34558 33.3325H42.5028L49.0607 59.5611L42.5028 80.3677H11.4193C8.05623 80.3677 5.34558 77.6355 5.34558 74.2939V33.3325Z" fill="#A78855"/>
<path fill-rule="evenodd" clip-rule="evenodd" d="M79.6605 33.3325H42.5026V80.3677H73.5868C76.9284 80.3677 79.6605 77.6355 79.6605 74.2939V33.3325Z" fill="#CDAB71"/>
<path fill-rule="evenodd" clip-rule="evenodd" d="M5.34603 33.3325H42.5033L36.9759 49.7254C36.1352 52.2269 33.8657 53.8447 31.2173 53.8447H4.06411C2.71917 53.8447 1.56328 53.2568 0.764771 52.1632C-0.0129836 51.0703 -0.202047 49.7884 0.218341 48.5057L5.34603 33.3325Z" fill="#CDAB71"/>
<path fill-rule="evenodd" clip-rule="evenodd" d="M79.6605 33.3325H42.5026L48.0306 49.7254C48.8714 52.2269 51.1201 53.8447 53.7678 53.8447H80.9417C82.2867 53.8447 83.4433 53.2568 84.221 52.1632C85.0196 51.0703 85.2086 49.7884 84.7667 48.5057L79.6605 33.3325Z" fill="#A78855"/>
<path d="M13.1208 22.0741C12.9574 22.074 12.7986 22.02 12.6691 21.9204C12.5396 21.8208 12.4466 21.6811 12.4046 21.5232L9.94606 12.2969C9.6536 11.2159 9.57876 10.0875 9.72589 8.97725C9.87302 7.86702 10.2392 6.79707 10.8031 5.82949C11.3599 4.85726 12.1037 4.00489 12.9915 3.32155C13.8794 2.6382 14.8937 2.1374 15.9761 1.84804C20.5277 0.624694 25.2231 3.32941 26.4472 7.87805L26.7475 9.0065C26.7726 9.1006 26.7788 9.19872 26.766 9.29526C26.7531 9.39179 26.7214 9.48485 26.6726 9.56912C26.6238 9.65339 26.5589 9.72722 26.4815 9.78639C26.4042 9.84557 26.3159 9.88893 26.2218 9.914C26.1277 9.93907 26.0296 9.94536 25.9331 9.93252C25.8365 9.91967 25.7435 9.88793 25.6592 9.83912C25.5749 9.7903 25.5011 9.72537 25.4419 9.64803C25.3827 9.57068 25.3394 9.48244 25.3143 9.38833L25.014 8.26137C24.0027 4.50457 20.1191 2.26917 16.3609 3.28048C15.4665 3.51974 14.6284 3.93367 13.8948 4.49841C13.1612 5.06315 12.5466 5.76753 12.0866 6.57092C11.6205 7.37017 11.3179 8.25402 11.1962 9.17117C11.0746 10.0883 11.1363 11.0205 11.3778 11.9136L13.8371 21.1414C13.8664 21.2512 13.8701 21.3663 13.8478 21.4778C13.8256 21.5892 13.778 21.6941 13.7088 21.7842C13.6396 21.8744 13.5505 21.9474 13.4486 21.9977C13.3466 22.0479 13.2345 22.0741 13.1208 22.0741ZM67.6192 14.9075C67.5053 14.9077 67.3928 14.8816 67.2905 14.8313C67.1883 14.7809 67.099 14.7077 67.0297 14.6172C66.9603 14.5268 66.9127 14.4216 66.8906 14.3098C66.8686 14.198 66.8725 14.0826 66.9023 13.9726L69.1028 5.80132C69.154 5.61137 69.2785 5.44951 69.4489 5.35134C69.6194 5.25318 69.8219 5.22675 70.0118 5.27787C70.2018 5.329 70.3636 5.45349 70.4618 5.62396C70.56 5.79443 70.5864 5.99691 70.5353 6.18686L68.3347 14.3581C68.2458 14.6888 67.9455 14.9075 67.6192 14.9075Z" fill="#524B47"/>
</svg>
