<svg width="320" height="320" viewBox="0 0 320 320" fill="none" xmlns="http://www.w3.org/2000/svg">
<g clip-path="url(#clip0_1426_25157)">
<rect width="320" height="320" fill="#DCFFE0"/>
<g clip-path="url(#clip1_1426_25157)">
<path fill-rule="evenodd" clip-rule="evenodd" d="M265 123.146V119.859C254.019 111.172 249.805 114.536 243.054 121.409L248.562 124.737C244.322 123.839 239.911 124.234 235.898 125.871C237.788 123.328 239.914 120.969 242.248 118.826C243.478 117.759 244.635 116.611 245.712 115.39C248.443 111.903 248.196 113.311 246.052 110.665C249.284 110.512 252.356 109.213 254.717 107H237.195C237.89 107.318 238.753 107.596 240.214 108.283L242.964 109.763C231.546 107.984 227.471 103.479 230.37 119.045C231.575 125.516 230.466 125.137 235.148 126.789C229.84 129.899 229.9 135.022 233.354 141.288C235.917 145.941 239.058 150.433 244.611 150.947C247.389 147.541 249.741 143.809 251.612 139.832C255.335 133.171 256.845 132.666 252.295 127.031C262.106 130.067 259.326 129.073 265 123.146Z" fill="#3C1F1B"/>
<path fill-rule="evenodd" clip-rule="evenodd" d="M158.474 191.211C161.446 193.391 164.894 194.832 168.533 195.416L166.117 197.522C163.27 201.06 165.397 203.372 164.542 206.604C162.965 202.504 161.519 190.129 153.265 197.281C151.7 199.608 154.489 209.214 155.936 213.74H163.002C165.564 211.298 164.72 210.719 166.029 207.393C167.712 209.858 169.817 212.006 172.246 213.74H185.792C186.094 211.966 186.107 210.155 185.828 208.377C185.594 207.66 178.364 198.028 171.757 196.547L176.221 194.243C176.356 189.806 177.068 180.327 175.419 177.048C174.279 175.276 172.8 173.748 171.068 172.551C169.335 171.354 167.382 170.512 165.323 170.073C161.101 174.219 163.191 173.71 161.719 179.58C160.313 185.194 157.922 183.931 158.474 191.211Z" fill="#3C1F1B"/>
<path fill-rule="evenodd" clip-rule="evenodd" d="M186.121 107C185.843 110.603 186.273 114.226 187.386 117.664C188.95 123.475 187.522 125.028 193.492 126.915C195.48 127.227 197.336 128.109 198.834 129.455C201.172 131.044 200.713 132.323 204.339 130.445C206.079 129.544 209.528 123.556 210.341 121.796C211.443 119.829 212.039 117.619 212.077 115.364C212.114 113.11 211.591 110.881 210.555 108.879C210.221 108.306 209.844 107.671 209.428 107H186.121Z" fill="#3C1F1B"/>
<path fill-rule="evenodd" clip-rule="evenodd" d="M201.018 213.74C203.221 210.368 204.585 205.54 208.454 202.17C211.795 199.948 214.322 196.7 215.657 192.915C216.407 190.725 216.556 188.374 216.089 186.107C215.622 183.84 214.556 181.739 213.001 180.025C201.387 168.911 198.518 192.32 194.653 198.031C192.791 200.782 192.504 199.583 190.887 202.965C189.273 206.319 188.906 210.139 189.85 213.74H201.018Z" fill="#3C1F1B"/>
<path fill-rule="evenodd" clip-rule="evenodd" d="M227.746 213.74C225.408 212.673 223.395 211.006 221.911 208.909C219.962 206.273 219.559 203.425 215.824 201.958C213.857 204.174 213.028 208.688 212.918 213.74H227.746Z" fill="#3C1F1B"/>
<path fill-rule="evenodd" clip-rule="evenodd" d="M222.852 174.44C219.503 176.327 219.916 176.599 219.147 185.495C218.826 189.561 219.37 193.648 220.742 197.488C222.476 202.374 230.253 215.519 234.763 211.137C237.174 208.794 239.563 190.39 238.785 186.262C237.747 180.756 228.381 171.324 222.852 174.44Z" fill="#3C1F1B"/>
<path fill-rule="evenodd" clip-rule="evenodd" d="M124.756 213.74C124.473 209.613 121.35 207.594 115.04 205.283C109.785 203.358 108.237 206.369 106.438 209.53C105.749 210.742 104.967 212.192 104.263 213.74H124.756Z" fill="#3C1F1B"/>
<path fill-rule="evenodd" clip-rule="evenodd" d="M159.844 121.502C159.663 115.098 156.275 115.568 157.487 108.783C157.593 108.177 157.748 107.581 157.95 107H146.348C145.52 113.19 140.81 122.378 159.844 121.502Z" fill="#3C1F1B"/>
<path fill-rule="evenodd" clip-rule="evenodd" d="M101.551 213.74C101.966 212.771 102.466 211.84 103.046 210.959C105.127 207.892 107.684 205.799 106.918 200.972C105.067 189.304 87.8804 186.865 81.5728 196.327C78.873 200.377 82.1742 203.181 84.127 205.405C86.0528 207.597 88.0729 210.864 90.2894 213.74H101.551Z" fill="#3C1F1B"/>
<path fill-rule="evenodd" clip-rule="evenodd" d="M116.901 152.547C98.5423 168.222 126.062 180.361 129.037 179.637C134.204 178.38 137.083 168.253 132.139 163.175C128.299 159.23 122.73 153.3 116.901 152.547Z" fill="#3C1F1B"/>
<path fill-rule="evenodd" clip-rule="evenodd" d="M108.116 162.076C110.582 159.709 109.471 159.81 111.18 156.161C112.725 152.863 113.322 153.637 115.142 150.286C114.331 142.96 107.879 135.727 100.156 135.725C95.9792 140.862 93.186 146.984 92.0424 153.507C91.3358 161.582 107.956 162.123 108.116 162.076Z" fill="#3C1F1B"/>
<path fill-rule="evenodd" clip-rule="evenodd" d="M155.645 184.628C161.719 180.235 162.157 159.023 159.961 152.777C155.257 151.284 152.789 151.147 149.352 154.605C138.198 165.827 144.754 170.375 148.063 176.27C150.064 179.838 152.555 183.986 155.645 184.628Z" fill="#3C1F1B"/>
<path fill-rule="evenodd" clip-rule="evenodd" d="M55 159.554V179.709L60.7032 180.474C64.3917 174.338 62.3159 171.15 71.8415 172.171C80.5336 173.103 80.9184 169.662 82.0658 161.756C70.7011 160.265 65.0604 151.248 55 159.554Z" fill="#3C1F1B"/>
<path fill-rule="evenodd" clip-rule="evenodd" d="M118.883 193.842C120.28 191.475 126.768 188.269 125.154 183.59C120.074 178.317 113.989 174.115 107.258 171.233C102.231 173.116 96.1803 180.934 100.633 186.869C108.493 197.344 112.335 194.98 118.883 193.842Z" fill="#3C1F1B"/>
<path fill-rule="evenodd" clip-rule="evenodd" d="M239.792 179.253C241.727 172.449 247.919 158.396 238.902 150.18C234.811 146.453 233.047 149.044 230.626 151.723C227.215 155.497 220.291 161.032 224.984 168.031C229.305 172.521 234.301 176.308 239.792 179.253Z" fill="#3C1F1B"/>
<path fill-rule="evenodd" clip-rule="evenodd" d="M137.359 194.806L131.757 194.719C129.542 200.883 130.876 206.952 131.44 213.342C131.542 213.392 131.767 213.532 132.094 213.74H150.699L146.992 201.622C146.923 201.325 146.87 201.07 146.795 200.787L146.262 199.202C145.525 196.965 140.633 198.985 137.359 194.806Z" fill="#3C1F1B"/>
<path fill-rule="evenodd" clip-rule="evenodd" d="M168.836 213.74C168.091 213.385 167.297 213.035 166.454 212.689C166.058 212.927 165.528 213.296 164.923 213.74H168.836Z" fill="#3C1F1B"/>
<path fill-rule="evenodd" clip-rule="evenodd" d="M152.132 150.384C154.502 146.786 162.163 135.035 162.344 129.784C158.29 127.341 150.115 122.702 143.934 122.99C143.283 128.531 143.317 134.131 144.033 139.664C144.539 147.3 144.802 150.509 152.132 150.384Z" fill="#3C1F1B"/>
<path fill-rule="evenodd" clip-rule="evenodd" d="M189.137 130.911C185.201 137.361 184.917 139.47 184.231 147.88C183.832 152.772 189.005 160.384 194.516 155.353C202.564 148.008 208.889 129.373 189.137 130.911Z" fill="#3C1F1B"/>
<path fill-rule="evenodd" clip-rule="evenodd" d="M137.36 194.806C144.931 195.457 151.094 198.232 154.642 190.949C154.868 187.636 152.213 189.5 147.035 180.16C144.723 175.987 143.143 171.252 138.226 170.526C135.226 173.426 128.742 185.575 136.879 194.299C136.976 194.404 137.21 194.627 137.36 194.806Z" fill="#3C1F1B"/>
<path fill-rule="evenodd" clip-rule="evenodd" d="M182.781 144.173C176.34 140.205 171.281 134.427 166.079 133.827C164.823 135.98 160.97 141.578 160.214 143.363C157.506 149.757 161.725 150.356 165.642 152.869C169.395 155.277 171.705 157.692 176.92 155.176C180.997 153.21 183.116 150.241 182.781 144.173Z" fill="#3C1F1B"/>
<path fill-rule="evenodd" clip-rule="evenodd" d="M66.613 151.112C75.5255 151.563 77.9591 136.773 77.8162 134.132C73.4071 130.79 71.1328 132.269 66.5304 129.078C64.6332 127.763 58.4476 121.75 56.231 128.334C54.7545 132.721 58.7359 137.559 60.2534 140.241C63.1239 145.314 62.1892 148.022 66.613 151.112Z" fill="#3C1F1B"/>
<path fill-rule="evenodd" clip-rule="evenodd" d="M122.785 107.687C126.042 110.088 129.616 110.073 133.171 111.773C137.288 113.742 138.199 116.593 142.574 115.909C143.204 112.982 143.511 109.994 143.487 107H122.87C122.836 107.228 122.807 107.457 122.785 107.687Z" fill="#3C1F1B"/>
<path fill-rule="evenodd" clip-rule="evenodd" d="M167.511 130.839C169.348 132.446 179.784 138.751 183.233 138.191C186.736 133.904 187.226 114.408 181.502 112.843C176.922 111.591 167.326 124.434 167.511 130.839Z" fill="#3C1F1B"/>
<path fill-rule="evenodd" clip-rule="evenodd" d="M116.608 145.52C118.453 145.819 120.343 145.652 122.108 145.035C123.872 144.418 125.454 143.37 126.71 141.986C127.106 136.522 120.419 122.921 117.388 119.82C114.477 119.906 104.794 126.603 106.47 131.439C108.131 133.714 109.992 135.838 112.03 137.783C114.197 140.448 114.894 143.082 116.608 145.52Z" fill="#3C1F1B"/>
<path fill-rule="evenodd" clip-rule="evenodd" d="M122.296 149.318C124.169 153.614 126.763 154.702 129.524 157.08C132.766 159.873 133.774 162.066 138.226 162.972C139.948 162.347 141.473 161.276 142.644 159.867C143.816 158.458 144.591 156.762 144.891 154.955C145.409 150.254 141.532 147.776 139.256 145.389C136.99 143.013 135.105 139.061 130.072 140.943C126.594 142.756 123.847 145.714 122.296 149.318Z" fill="#3C1F1B"/>
<path fill-rule="evenodd" clip-rule="evenodd" d="M261.174 191.865C263.742 179.904 250.312 171.697 246.761 173.764C243.126 178.404 241.812 183.075 245.686 188.988C247.528 191.8 252.567 198.617 255.322 199.835C258.341 196.182 257.056 194.924 261.174 191.865Z" fill="#3C1F1B"/>
<path fill-rule="evenodd" clip-rule="evenodd" d="M76.2908 199.864C79.19 196.519 83.9762 189.919 82.3281 184.977C81.3021 181.9 74.0094 174.012 71.2425 173.578C66.4011 172.82 58.9331 180.525 70.4646 193.876C74.7283 198.811 72.481 198.114 76.2908 199.864Z" fill="#3C1F1B"/>
<path fill-rule="evenodd" clip-rule="evenodd" d="M130.406 136.631C139.54 137.908 141.41 134.39 140.354 125.116C139.507 117.684 136.549 115.606 130.371 113.529C121.836 110.661 119.038 115.701 123.814 122.122C133.113 134.628 126.489 129.186 130.406 136.631Z" fill="#3C1F1B"/>
<path fill-rule="evenodd" clip-rule="evenodd" d="M75.9648 110.592C85.7509 122.901 100.638 117.737 100.486 108.578C100.475 108.039 100.372 107.505 100.182 107H77.7972C76.9375 108.053 76.3128 109.278 75.9648 110.592Z" fill="#3C1F1B"/>
<path fill-rule="evenodd" clip-rule="evenodd" d="M187.245 205.031C189.901 201.539 187.232 201.938 190.104 198.294C190.286 198.063 199.201 192.668 193.659 183.924C191.885 181.87 189.455 180.494 186.782 180.03C177.188 176.982 179.321 183.606 179.684 191.969C179.948 198.05 181.771 204.266 187.245 205.031Z" fill="#3C1F1B"/>
<path fill-rule="evenodd" clip-rule="evenodd" d="M165.859 164.809C168.255 169.214 167.078 166.377 172.778 169.938C182.459 175.988 176.953 176.216 184.535 172.437C188.958 170.231 186.442 173.318 188.759 169.626C190.389 166.046 186.782 154.386 181.143 155.307C177.99 155.822 167.687 162.03 165.859 164.809Z" fill="#3C1F1B"/>
<path fill-rule="evenodd" clip-rule="evenodd" d="M219.516 162.344C222.286 157.95 225.32 153.728 228.601 149.702C235.595 141.711 229.636 136.183 225.607 136.912C224.439 137.123 215.4 142.951 213.624 147.318C211.145 153.413 215.335 161.093 219.516 162.344Z" fill="#3C1F1B"/>
<path fill-rule="evenodd" clip-rule="evenodd" d="M165.323 122.68C167.895 122.123 176.54 113.83 177.187 107H160.964C159.471 112.419 160.522 119.202 165.323 122.68Z" fill="#3C1F1B"/>
<path fill-rule="evenodd" clip-rule="evenodd" d="M70.1362 213.74C69.1362 213.458 68.1675 213.074 67.2449 212.596C63.8758 210.764 63.483 209.126 58.9014 209.271C58.4024 210.733 57.9995 212.226 57.6953 213.74H70.1362Z" fill="#3C1F1B"/>
<path fill-rule="evenodd" clip-rule="evenodd" d="M191.691 159.968C190.992 167.695 194.036 175.414 200.162 176.893C202.458 175.66 204.36 173.804 205.651 171.539C206.941 169.274 207.567 166.691 207.457 164.086C207.201 160.211 203.453 152.978 200.414 151.613C195.432 156.899 200.509 156.164 191.691 159.968Z" fill="#3C1F1B"/>
<path fill-rule="evenodd" clip-rule="evenodd" d="M249.088 213.74C248.114 213.454 247.17 213.072 246.271 212.6C242.926 210.798 242.429 209.15 237.903 209.271C237.432 210.739 237.039 212.231 236.727 213.74H249.088Z" fill="#3C1F1B"/>
<path fill-rule="evenodd" clip-rule="evenodd" d="M81.0352 139.308C77.5742 140.841 74.5831 147.061 74.8187 152.265C75.1116 158.749 80.9697 161.892 85.2975 158.403C87.8635 154.56 89.9876 150.441 91.6294 146.122C92.5144 140.638 84.8559 137.618 81.0352 139.308Z" fill="#3C1F1B"/>
<path fill-rule="evenodd" clip-rule="evenodd" d="M115.413 117.408C117.718 113.546 116.346 113.523 117.478 109.175C117.656 108.424 117.914 107.695 118.249 107H108.971C109.465 108.994 110.116 111.203 110.958 113.659C112.436 117.971 111.442 116.847 115.413 117.408Z" fill="#3C1F1B"/>
<path fill-rule="evenodd" clip-rule="evenodd" d="M58.3818 107C61.5447 108.838 65.047 110.016 68.6773 110.462C70.1002 110.485 71.5097 110.185 72.8004 109.586C74.0911 108.986 75.2294 108.102 76.1301 107H58.3818Z" fill="#3C1F1B"/>
<path fill-rule="evenodd" clip-rule="evenodd" d="M250.071 152.777L248.393 168.659C251.319 171.641 255.266 173.405 259.439 173.596C260.11 170.294 262.547 161.384 261.654 158.48C260.303 154.085 253.507 151.886 250.071 152.777Z" fill="#3C1F1B"/>
<path fill-rule="evenodd" clip-rule="evenodd" d="M258.963 212.964C259.79 206.82 253.627 203.321 247.83 195.509C237.222 181.211 236.586 217.871 258.963 212.964Z" fill="#3C1F1B"/>
<path fill-rule="evenodd" clip-rule="evenodd" d="M79.9386 212.964C80.7456 206.821 74.5948 203.224 68.8058 195.499C58.1298 181.255 57.6497 217.852 79.9386 212.964Z" fill="#3C1F1B"/>
<path fill-rule="evenodd" clip-rule="evenodd" d="M94.6773 178.706C97.778 177.134 104.335 170.523 103.574 164.395C77.3967 151.157 87.3745 174.455 94.6773 178.706Z" fill="#3C1F1B"/>
<path fill-rule="evenodd" clip-rule="evenodd" d="M64.0332 121.409C68.2104 124.857 75.7349 128.947 82.2686 128.058C87.4871 120.292 88.4581 120.415 78.7825 115.8C72.0767 112.601 71.5378 114.948 67.0638 118.768C65.9833 119.564 64.9697 120.447 64.0332 121.409Z" fill="#3C1F1B"/>
<path fill-rule="evenodd" clip-rule="evenodd" d="M82.323 133.796C85.7312 137.183 90.2186 139.268 95.0044 139.687C99.3524 134.55 103.71 130.727 94.9771 125.765C88.0115 121.807 82.074 126.745 82.323 133.796Z" fill="#3C1F1B"/>
<path fill-rule="evenodd" clip-rule="evenodd" d="M207.156 174.49C209.77 176.152 209.533 175.251 211.91 176.316C215.077 177.737 213.627 177.715 216.614 179.443L217.787 177.658C223.459 167.222 221.694 175.347 224.414 169.649C221.617 166.593 220.044 168.219 216.593 164.839C213.416 161.725 214.236 159.613 209.839 159.12C208.013 162.733 209.74 162.448 209.33 166.451C208.88 170.843 207.297 170.079 207.156 174.49Z" fill="#3C1F1B"/>
<path fill-rule="evenodd" clip-rule="evenodd" d="M265 155.373V138.633C257.679 135.982 251.991 138.913 253.276 148.35C256.395 151.809 260.479 154.255 265 155.373Z" fill="#3C1F1B"/>
<path fill-rule="evenodd" clip-rule="evenodd" d="M92.9326 121.46C94.7989 123.629 97.3414 125.107 100.15 125.654C102.958 126.2 105.869 125.785 108.413 124.474C109.338 122.059 109.61 119.443 109.202 116.89C108.794 114.337 107.719 111.937 106.088 109.931C102.851 110.945 102.675 112.55 99.5582 115.467C95.6455 119.13 94.3738 117.583 92.9326 121.46Z" fill="#3C1F1B"/>
<path fill-rule="evenodd" clip-rule="evenodd" d="M118.883 193.842L117.021 196.808C115.237 200.048 115.741 197.459 115.664 202.044C118.819 203.233 123.864 206.714 127.733 205.776L128.545 203.425C128.592 203.148 128.648 202.872 128.686 202.556C128.816 201.445 128.688 199.002 128.662 197.759C128.59 194.354 128.721 191.005 128.759 187.6C124.441 189.374 123.187 191.995 118.883 193.842Z" fill="#3C1F1B"/>
<path fill-rule="evenodd" clip-rule="evenodd" d="M214.123 117.369C217.004 120.344 224.092 127.164 228.413 128.116C228.481 123.809 227.436 111.848 225.322 108.869C222.95 109.385 220.718 110.412 218.784 111.881C216.849 113.349 215.259 115.222 214.123 117.369Z" fill="#3C1F1B"/>
<path fill-rule="evenodd" clip-rule="evenodd" d="M204.5 146.891C208.96 146.903 211.895 143.021 214.279 140.241C215.637 138.658 222.199 131.811 218.081 129.443C211.888 125.882 200.91 140.84 204.5 146.891Z" fill="#3C1F1B"/>
<path fill-rule="evenodd" clip-rule="evenodd" d="M55 186.362V210.957C57.5776 209.917 57.249 209.227 58.1566 205.735C58.7681 203.383 59.3425 200.908 59.8482 198.685C60.8911 194.102 62.8982 189.058 61.1848 184.761C59.0278 182.491 57.1609 184.649 55 186.362Z" fill="#3C1F1B"/>
<path fill-rule="evenodd" clip-rule="evenodd" d="M93.7489 186.319C93.987 179.86 92.0527 182.294 86.9858 174.442C84.9193 171.239 87.0112 172.136 83.0644 171.465C79.9025 176.945 84.2434 190.771 93.7489 186.319Z" fill="#3C1F1B"/>
<path fill-rule="evenodd" clip-rule="evenodd" d="M261.174 191.865C259.849 195.278 257.127 198.68 258.401 203.228C259.018 205.433 259.505 205.598 261.224 207.314C262.276 208.594 263.557 209.669 265 210.484V187.6L263.008 189.827C262.229 190.708 261.841 191.182 261.174 191.865Z" fill="#3C1F1B"/>
<path fill-rule="evenodd" clip-rule="evenodd" d="M55 116.662C58.8069 117.698 59.396 118.978 63.1556 117.782C66.5626 111.664 60.8608 109.191 55 107.995V116.662Z" fill="#3C1F1B"/>
<path fill-rule="evenodd" clip-rule="evenodd" d="M185.394 177.394C189.348 179.036 188.156 176.885 191.632 180.114C194.356 182.646 193.109 183.197 198.237 183.391C197.753 179.806 193.735 175.127 192.912 174.015C192.522 173.393 192.028 172.841 191.452 172.386C187.246 173.273 186.525 173.773 185.394 177.394Z" fill="#3C1F1B"/>
<path fill-rule="evenodd" clip-rule="evenodd" d="M265 116.412V107.675L257.605 107.677C256.888 113.342 260.594 114.943 265 116.412Z" fill="#3C1F1B"/>
</g>
<g style="mix-blend-mode:hue">
<rect width="320" height="320" fill="#00BF13"/>
</g>
</g>
<defs>
<clipPath id="clip0_1426_25157">
<rect width="320" height="320" fill="white"/>
</clipPath>
<clipPath id="clip1_1426_25157">
<rect width="210" height="106.74" fill="white" transform="translate(55 107)"/>
</clipPath>
</defs>
</svg>
