<svg width="320" height="320" viewBox="0 0 320 320" fill="none" xmlns="http://www.w3.org/2000/svg">
<rect width="320" height="320" fill="#F2F2EA"/>
<g clip-path="url(#clip0_1425_11910)">
<path fill-rule="evenodd" clip-rule="evenodd" d="M80.2869 95.987C77.5644 95.4262 70.6054 93.9949 67.1542 97.6641C65.3492 99.5842 65.6554 101.674 66.0348 113.872C66.2499 120.742 66.3557 124.176 66.2973 127.251C66.258 129.36 66.0797 134.623 64.0794 145.448C61.6408 158.651 60.3264 159.36 57.3742 173.952C55.2235 184.588 54.8244 189.633 55.6107 195.381C56.2587 199.45 57.4145 203.423 59.051 207.205C62.001 214.147 65.706 222.869 73.2057 225.042C77.3939 226.256 81.0239 224.925 85.9089 223.137C96.0065 219.44 96.7242 214.58 105.158 211.396C111.637 208.949 112.622 211.284 123.702 209.797C136.562 208.073 138.443 204.499 147.075 203.291C158.754 201.658 160.576 207.465 178.651 211.393C188.081 213.444 208.672 217.919 224.697 207.255C232.177 202.275 237.325 194.884 236.131 193.282C234.044 190.487 215.629 209.29 190.11 208.043C181.062 207.599 169.025 204.505 165.239 203.573C147.326 199.164 146.95 198.324 142.323 198.542C135.175 198.876 136.042 200.88 121.925 203.573C111.542 205.55 109.728 204.725 103.761 207.205C99.8181 208.843 99.7205 209.574 90.9063 213.913C82.24 218.176 80.1478 218.55 78.0524 218.383C72.2543 217.925 68.2893 213.502 67.1541 212.236C61.2919 205.696 61.2888 197.259 61.2863 186.807C61.3278 179.362 62.2664 171.95 64.0819 164.731C66.166 156.36 67.3579 156.463 68.8332 149.081C70.127 142.174 70.5965 135.139 70.2317 128.121C69.8967 121.174 68.9845 118.682 69.3943 111.635C69.7799 104.996 70.0167 101.64 72.1905 99.8995C78.1893 95.0886 92.7118 105.365 93.4513 104.048C93.9311 103.183 88.2812 97.6314 80.2869 95.987Z" fill="#D1C9B7" stroke="#000001" stroke-width="0.7268" stroke-miterlimit="2.6131"/>
<path fill-rule="evenodd" clip-rule="evenodd" d="M222.791 106.9C222.333 105.649 231.889 98.2336 243.753 98.0073C251.228 97.8648 261.22 100.549 261.22 100.549C261.22 100.549 263.907 121.464 264.713 143.107C264.78 144.907 264.777 145.197 264.713 170.738C264.637 200.4 264.632 203.821 261.856 205.674C251.638 212.489 222.975 185.347 223.427 184.711C223.86 184.102 250.96 207.841 259.632 201.226C261.077 200.124 262.149 198.071 259.632 174.55C256.577 145.987 254.337 142.853 257.09 134.533C258.947 129.651 260.019 124.506 260.265 119.288C260.439 114.508 260.55 109.528 257.408 106.584C255.397 104.7 252.679 104.238 244.13 104.771C229.73 105.666 223.148 107.87 222.791 106.9Z" fill="#D1C9B7" stroke="#000001" stroke-width="0.7268" stroke-miterlimit="2.6131"/>
<path d="M89.2133 101.372H239.216C243.118 101.372 246.859 102.922 249.618 105.681C252.376 108.439 253.926 112.181 253.926 116.082V185.16C253.926 189.062 252.376 192.803 249.618 195.562C246.859 198.32 243.118 199.87 239.216 199.87H89.2133C85.312 199.87 81.5705 198.32 78.8118 195.561C76.0532 192.803 74.5034 189.061 74.5034 185.16V116.082C74.5034 112.181 76.0532 108.439 78.8118 105.681C81.5705 102.922 85.312 101.372 89.2133 101.372Z" fill="#3C1F1B" stroke="#000001" stroke-width="0.7268" stroke-miterlimit="2.6131"/>
<path fill-rule="evenodd" clip-rule="evenodd" d="M79.4051 118.44C83.864 125.722 96.6657 130.172 109.651 135.604C124.101 141.651 122.008 141.899 133.356 146.232C145.3 150.791 151.977 153.347 161.148 153.59C168.453 153.782 173.607 152.547 181.176 150.73C199.064 146.437 211.825 139.466 218.779 135.608C222.442 133.573 229.396 128.665 243.301 118.85C250.531 113.747 255.745 110.652 255.154 107.405C254.811 105.521 252.601 103.873 246.162 102.092C237.111 99.6533 227.678 98.9601 218.368 100.05C205.905 101.392 193.302 99.729 180.766 99.6426C154.36 99.4555 154.176 99.0256 139.078 99.2354C112.84 99.5955 119.168 100.815 105.973 100.46C90.7894 100.053 77.8852 98.3178 75.728 103.321C75.0168 104.969 75.5051 107.282 76.1353 110.267C76.8096 113.14 77.9119 115.895 79.4051 118.44Z" fill="#55322D" stroke="#000001" stroke-width="0.7268" stroke-miterlimit="2.6131"/>
<path fill-rule="evenodd" clip-rule="evenodd" d="M104.738 183.645C101.9 183.137 100.482 182.884 99.2962 182.286C94.3911 179.806 93.7609 175.141 89.5509 167.328C87.2851 163.124 82.7288 154.672 80.03 155.317C77.614 155.891 77.5757 163.548 77.5364 171.181C77.4746 183.603 77.441 189.814 81.3893 193.62C82.3238 194.521 84.5818 196.377 99.0676 197.022C112.751 197.63 113.476 196.098 126.04 196.341C138.958 196.592 144.153 198.327 148.933 194.301C151.684 191.982 153.905 188.087 152.787 186.142C151.403 183.73 145.948 186.154 134.201 185.691C127.034 185.406 128.063 184.466 121.054 184.332C115.133 184.212 111.341 184.826 104.738 183.645Z" fill="#331815"/>
<path fill-rule="evenodd" clip-rule="evenodd" d="M133.069 103.635C130.476 103.708 129.433 103.677 118.11 103.409C106.992 103.147 100.644 103.008 92.4998 103.409C86.6122 103.7 82.7982 103.901 82.7533 104.542C82.667 105.773 96.4258 107.817 105.418 108.847C118.733 110.369 132.142 110.899 145.535 110.434C168.665 109.618 166.963 107.005 184.066 107.489C199.555 107.926 202.381 110.108 214.892 108.622C221.647 107.817 228.901 106.221 229.85 108.395C230.416 109.687 228.329 111.355 223.277 118.367C219.869 123.096 218.176 125.48 218.742 126.3C220.068 128.219 229.976 123.284 234.381 121.087C242.444 117.07 247.389 114.528 247.528 110.661C247.631 107.753 244.973 105.485 244.127 104.768C240.059 101.303 234.183 101.655 222.596 102.503C206.016 103.713 205.171 103.87 201.971 103.861C193.148 103.842 193.299 102.642 182.024 101.822C171.376 101.12 160.689 101.271 150.066 102.274C143.581 102.845 140.403 103.428 133.069 103.635Z" fill="#6A443F"/>
<path fill-rule="evenodd" clip-rule="evenodd" d="M168.749 145.518C168.749 144.33 168.396 143.168 167.736 142.18C167.076 141.192 166.138 140.422 165.041 139.968C163.943 139.513 162.735 139.394 161.57 139.626C160.404 139.857 159.334 140.429 158.494 141.27C157.654 142.11 157.081 143.18 156.85 144.345C156.618 145.511 156.737 146.718 157.191 147.816C157.646 148.914 158.416 149.852 159.404 150.512C160.392 151.172 161.553 151.525 162.741 151.525C164.333 151.522 165.86 150.888 166.986 149.762C168.112 148.636 168.746 147.11 168.749 145.518Z" fill="#D8AF5C" stroke="#000001" stroke-width="0.7268" stroke-miterlimit="2.6131"/>
</g>
<defs>
<clipPath id="clip0_1425_11910">
<rect width="210" height="130.748" fill="white" transform="translate(55 95)"/>
</clipPath>
</defs>
</svg>
