<svg width="320" height="320" viewBox="0 0 320 320" fill="none" xmlns="http://www.w3.org/2000/svg">
<g clip-path="url(#clip0_1426_25085)">
<rect width="320" height="320" fill="#DCFFE0"/>
<g clip-path="url(#clip1_1426_25085)">
<path d="M114.441 0H206.412C206.423 0.0618555 206.433 0.123716 206.444 0.185583C206.362 0.281175 206.259 0.356147 206.143 0.404439C205.656 0.524381 205.153 0.564641 204.654 0.523651C175.161 0.526441 145.669 0.526683 116.176 0.524377C115.739 0.545462 115.3 0.524167 114.866 0.460788C114.746 0.433375 114.631 0.384561 114.528 0.316663C114.475 0.28527 114.437 0.234829 114.421 0.175844C114.404 0.116858 114.412 0.0538722 114.441 0Z" fill="#F7F2EE"/>
<path d="M114.441 0L114.41 0.214608C113.974 0.585434 113.455 0.469383 112.954 0.466706C112.511 0.500228 112.066 0.500288 111.623 0.466883C111.121 0.471366 110.6 0.588022 110.165 0.213406C110.131 0.208335 110.099 0.195545 110.07 0.176012C110.102 0.122302 110.12 0.0620345 110.124 0L114.441 0Z" fill="#D3CCCA"/>
<path d="M206.415 0.191081L206.412 0H207.914C207.931 0.0599205 207.948 0.119836 207.965 0.179745C207.934 0.200695 207.899 0.213236 207.862 0.216115C207.658 0.387666 207.4 0.479661 207.134 0.475058C206.868 0.470455 206.612 0.369566 206.415 0.191081Z" fill="#CBC6C3"/>
<path d="M206.415 0.191087L207.862 0.216081C207.96 5.24816 208.058 10.2802 208.156 15.3124C208.271 21.0634 208.391 26.8144 208.515 32.5653C208.61 34.1565 208.874 35.7332 209.3 37.2691C210.168 40.6592 210.815 44.1021 211.236 47.5761C211.577 50.2435 211.73 52.9315 211.694 55.6203C211.676 55.8292 211.723 56.0387 211.829 56.2198C211.935 56.4008 212.094 56.5443 212.286 56.6302C219.023 60.9719 224.489 66.463 227.726 73.9272C229.282 77.459 230.056 81.2855 229.996 85.1446C229.891 90.6548 228.129 96.0057 224.942 100.501C221.512 105.345 217.028 109.347 211.828 112.206C207.707 114.517 203.313 116.3 198.748 117.514C196.747 118.018 194.696 118.294 192.633 118.339C189.416 118.489 186.199 118.641 182.982 118.794C182.857 118.8 182.732 118.8 182.607 118.811C181.915 118.876 181.889 118.906 181.911 119.618C181.927 120.149 181.961 120.68 181.961 121.211C181.96 122.201 181.679 122.501 180.692 122.524C177.441 122.599 174.189 122.661 170.937 122.728C170.781 122.737 170.624 122.738 170.468 122.73C169.965 122.687 169.828 122.936 169.836 123.403C169.863 125.122 169.856 126.842 169.877 128.562C169.885 129.162 169.905 129.17 170.537 129.138C171.444 129.125 172.349 129.065 173.25 128.959C173.791 128.877 174.344 128.942 174.852 129.146C175.36 129.351 175.804 129.688 176.137 130.123C178.516 132.744 180.438 135.747 181.824 139.005C183.852 143.716 185.358 148.635 186.315 153.674C187.555 159.961 188.331 166.331 188.636 172.732C188.932 178.264 188.956 183.794 188.706 189.325C188.34 198.133 187.324 206.901 185.667 215.56C184.213 223.462 182.032 231.212 179.153 238.713C177.376 243.427 175.056 247.918 172.239 252.095C170.89 254.054 169.335 255.863 167.601 257.49C167.44 257.657 167.246 257.788 167.031 257.875C166.817 257.963 166.587 258.005 166.355 258C160.413 257.944 154.47 257.899 148.528 257.864C147.994 257.875 147.473 257.702 147.053 257.373C146.178 256.715 145.413 255.922 144.785 255.025C144.47 254.561 144.083 254.146 143.745 253.698C142.227 251.588 141.027 249.268 140.182 246.81C138.621 242.421 137.483 237.893 136.783 233.287C135.626 225.937 134.975 218.516 134.835 211.077C134.675 205.227 134.799 199.384 135.135 193.548C135.724 181.901 137.338 170.328 139.958 158.965C141.256 153.168 143.09 147.504 145.437 142.047C146.59 139.305 148.088 136.722 149.894 134.36C151.054 132.755 152.596 131.465 154.38 130.606C154.526 130.556 154.649 130.457 154.729 130.326C154.809 130.194 154.841 130.039 154.817 129.887C154.791 127.855 154.79 125.822 154.767 123.79C154.759 123.09 154.742 123.074 154.011 123.087C150.916 123.144 147.82 123.206 144.725 123.274C144.568 123.277 144.412 123.285 144.255 123.282C143.369 123.263 143.072 123.009 143.034 122.107C142.982 120.889 142.989 119.669 142.965 118.45C142.95 117.645 142.945 117.639 142.128 117.629C137.28 117.567 132.432 117.437 127.585 117.475C124.301 117.482 121.032 117.031 117.873 116.134C111.804 114.563 106.1 111.819 101.083 108.057C97.734 105.568 94.9093 102.441 92.7718 98.8557C87.7763 90.2298 87.8123 81.4966 92.4681 72.7682C95.3701 67.3276 99.6616 63.1297 104.697 59.6501C105.88 58.832 107.097 58.0659 108.356 57.3682C108.496 57.3107 108.615 57.211 108.696 57.083C108.777 56.955 108.816 56.8049 108.808 56.6535C108.965 49.3402 109.15 42.0275 109.323 34.7146C109.482 27.9951 109.638 21.2756 109.791 14.556C109.907 9.77498 110.04 4.99428 110.165 0.213412L111.602 0.209284C111.749 0.373769 111.855 0.570055 111.913 0.782704C111.971 0.995353 111.979 1.21856 111.936 1.43478C111.705 5.08387 111.883 8.74519 111.601 12.3924C111.583 12.5791 111.574 12.7667 111.575 12.9544C111.691 17.1752 111.419 21.3903 111.345 25.6077C111.253 30.8543 111.113 36.1017 110.97 41.3478C110.852 45.6564 110.732 49.9652 110.632 54.2745C110.626 54.5245 110.638 54.7748 110.637 55.0248C110.634 55.6289 110.916 55.7218 111.408 55.4724C112.553 54.892 113.735 54.395 114.923 53.9105C115.183 53.8042 115.445 53.6999 115.707 53.5975C117.445 52.9193 117.401 52.9221 117.287 51.0083C116.74 41.8659 115.652 32.7725 114.832 23.6549C114.163 16.2169 113.432 8.78427 112.715 1.35047C112.66 1.15438 112.654 0.947934 112.697 0.748888C112.74 0.549842 112.83 0.364163 112.96 0.207833L114.41 0.214646L114.414 0.208478C114.787 0.755046 114.961 1.41395 114.905 2.07371C115.712 10.9426 116.589 19.805 117.43 28.6706C117.953 34.1767 118.494 39.6814 119.012 45.1878C119.336 48.3561 119.434 51.5435 119.304 54.7257C119.176 57.3471 119.286 59.9773 119.269 62.6035C119.255 64.1686 119.044 65.7257 118.641 67.238C118.355 68.3622 117.875 69.4279 117.223 70.3874C116.642 71.2307 116.647 71.2435 117.668 71.5436C118.308 71.6954 118.966 71.7538 119.622 71.717C127.067 71.7188 134.515 71.8701 141.955 71.68C151.494 71.4364 161.034 71.7523 170.566 71.494C179.98 71.239 189.392 71.4539 198.803 71.3416C199.022 71.3338 199.241 71.3388 199.46 71.3564C201.651 71.4082 203.843 71.3853 206.034 71.3953C206.517 71.3633 206.976 71.1778 207.346 70.8659C207.716 70.554 207.976 70.1321 208.089 69.6617C209.129 66.6734 209.711 63.5447 209.816 60.3821C210.075 55.2903 209.833 50.1854 209.092 45.1412C208.624 42.366 208.052 39.6123 207.374 36.8801C206.891 34.9687 206.652 33.0039 206.661 31.0323C206.709 26.2197 206.485 21.4108 206.411 16.6005C206.365 13.6352 206.411 10.6631 206.257 7.70135C206.15 5.64005 206.086 3.58222 206.097 1.5202C206.024 1.0519 206.135 0.573411 206.406 0.184814L206.415 0.191087Z" fill="#3C1F1B"/>
<path d="M199.427 71.6479C197.958 71.637 196.489 71.6127 195.02 71.6176C187.828 71.6417 180.635 71.6131 173.445 71.7179C164.159 71.8533 154.873 71.7807 145.588 71.906C136.802 72.0246 128.017 72.0161 119.231 72.0827C118.118 72.0615 117.026 71.7774 116.044 71.2535C118.395 68.9453 118.778 65.9904 118.901 62.9811C118.998 60.6091 118.911 58.2302 118.985 55.8568C119.064 53.3262 119.013 50.7991 118.899 48.2737C118.826 46.6544 118.657 45.0388 118.51 43.4235C118.363 41.809 118.187 40.1972 118.03 38.5835C117.658 34.7659 117.289 30.948 116.923 27.1298C116.717 24.9565 116.534 22.7808 116.326 20.6077C115.97 16.8828 115.598 13.1593 115.24 9.43454C115.034 7.29246 114.841 5.1492 114.647 3.006C114.562 2.07408 114.491 1.14098 114.414 0.208438C114.883 0.201512 115.351 0.188523 115.82 0.188507C145.422 0.187545 175.023 0.187217 204.625 0.187523C205.219 0.187523 205.812 0.18662 206.406 0.184814C206.473 3.8051 206.54 7.42537 206.607 11.0456C206.673 14.4475 206.751 17.8491 206.816 21.2509C206.887 24.9651 206.923 28.6801 207.026 32.3933C207.079 33.8272 207.283 35.2516 207.635 36.6425C208.559 40.1714 209.257 43.7557 209.724 47.3736C209.997 49.4138 210.156 51.4678 210.199 53.5258C210.197 55.8989 210.279 58.2735 210.14 60.6445C209.964 63.6975 209.399 66.7156 208.461 69.626C208.394 69.8336 208.313 70.0368 208.233 70.24C208.155 70.5429 207.996 70.8191 207.775 71.0398C207.553 71.2605 207.276 71.4175 206.973 71.4944C205.794 71.5851 204.611 71.6113 203.429 71.5727C203.016 71.5903 202.954 71.3751 203.057 71.0384C203.121 70.8623 203.172 70.682 203.211 70.4986C203.246 70.3284 203.224 70.1516 203.149 69.9949C203.074 69.8383 202.95 69.7105 202.796 69.6309C202.663 69.5446 202.508 69.5005 202.351 69.5044C202.193 69.5083 202.04 69.56 201.912 69.6527C201.763 69.7414 201.647 69.8764 201.581 70.0372C201.516 70.198 201.505 70.3757 201.549 70.5435C201.573 70.6663 201.609 70.7864 201.656 70.9022C201.901 71.4845 201.625 71.5909 201.1 71.5839C200.542 71.5208 199.978 71.5424 199.427 71.6479Z" fill="#8B735A"/>
<path d="M112.96 0.207794C113.101 1.85275 113.199 3.50283 113.398 5.1405C113.5 5.9757 113.561 6.81578 113.65 7.65052C113.97 10.6559 114.193 13.6716 114.468 16.682C114.706 19.2883 114.955 21.8936 115.215 24.4979C115.505 27.4116 115.824 30.3224 116.104 33.237C116.327 35.5636 116.495 37.8956 116.718 40.2222C116.929 42.4236 117.18 44.6211 117.413 46.8204C117.421 46.8824 117.425 46.9449 117.424 47.0074C117.356 48.8211 117.627 50.6228 117.616 52.4345C117.611 53.2848 117.599 53.245 116.786 53.5342C114.931 54.1934 113.116 54.9618 111.352 55.8356C111.078 56.0333 110.759 56.1591 110.424 56.2016C110.376 56.1283 110.315 56.0789 110.315 56.0299C110.33 53.8756 110.28 51.7221 110.422 49.5672C110.528 47.9476 110.458 46.3171 110.519 44.6935C110.639 41.5403 110.608 38.3826 110.742 35.2329C110.844 32.8275 110.763 30.4198 110.911 28.0217C111.074 25.3984 110.948 22.7705 111.109 20.1545C111.258 17.7488 111.14 15.3417 111.285 12.9432C111.445 10.2889 111.346 7.63149 111.485 4.98229C111.569 3.38962 111.599 1.80114 111.602 0.209286C112.055 0.208797 112.508 0.208299 112.96 0.207794Z" fill="#3C1F1B"/>
<path d="M209.15 71.7841C210.493 73.2095 211.597 74.8423 212.419 76.6196C215.274 82.9397 214.342 88.8218 210.169 94.2186C206.971 98.3554 202.65 100.936 197.76 102.608C196.592 102.967 195.379 103.161 194.157 103.187C191.159 103.342 188.158 103.447 185.158 103.577C184.159 103.62 183.159 103.668 182.16 103.731C181.769 103.756 181.62 103.628 181.586 103.215C181.457 101.644 181.399 101.611 179.841 101.637C178.215 101.664 176.589 101.687 174.962 101.707C174.135 101.716 174.131 101.708 174.112 100.901C174.057 98.4636 174.004 96.0258 173.953 93.5878C173.949 93.4003 173.954 93.2121 173.94 93.0253C173.88 92.2328 173.614 91.967 172.839 91.9327C172.558 91.9202 172.276 91.9292 171.995 91.9349C165.553 92.0636 159.111 92.1931 152.67 92.3233C151.452 92.3481 151.214 92.5968 151.239 93.8512C151.287 96.3516 151.351 98.8518 151.398 101.352C151.415 102.202 151.402 102.209 150.525 102.226C148.617 102.262 146.709 102.289 144.802 102.321C144.583 102.325 144.364 102.33 144.145 102.344C142.816 102.429 142.738 102.477 142.656 103.819C142.622 104.36 142.31 104.301 141.964 104.311C139.056 104.39 136.148 104.471 133.241 104.555C131.709 104.599 130.177 104.679 128.645 104.689C124.506 104.632 120.423 103.716 116.656 101.998C112.453 100.306 108.781 97.5177 106.021 93.9235C103.648 90.9462 102.376 87.241 102.418 83.4337C102.46 79.6264 103.815 75.9503 106.253 73.0265C107.336 71.6471 108.581 70.4029 109.961 69.3208C110.476 68.9105 110.477 68.9233 110.936 69.3753C112.44 70.84 114.187 72.0327 116.099 72.9003C117.096 73.3594 118.183 73.5886 119.281 73.5711C134.482 73.4681 149.684 73.3721 164.886 73.2833C173.707 73.228 182.528 73.1698 191.348 73.1089C196.259 73.0745 201.17 73.0318 206.08 72.9809C206.65 73.0442 207.228 72.9684 207.762 72.76C208.297 72.5516 208.773 72.2167 209.15 71.7841Z" fill="#DCFFE0"/>
<path d="M160.556 131.446C162.287 130.707 163.463 131.298 164.403 132.756C165.252 133.993 165.939 135.333 166.445 136.746C166.728 137.574 167.09 138.373 167.527 139.132C167.687 139.475 167.951 139.759 168.283 139.941C168.614 140.123 168.995 140.195 169.37 140.145C171.419 139.957 173.469 139.787 175.519 139.621C176.049 139.578 176.584 139.601 177.112 139.554C178.341 139.444 178.727 138.9 178.357 137.723C177.798 135.994 176.94 134.378 175.822 132.947C175.319 132.193 174.754 131.482 174.133 130.822C174.046 130.74 173.963 130.636 174.063 130.488C174.368 130.391 174.492 130.663 174.658 130.819C176.234 132.341 177.572 134.091 178.629 136.01C181.275 140.871 183.189 146.096 184.311 151.515C184.954 154.281 185.473 157.067 185.902 159.869C186.255 162.178 186.498 164.503 186.722 166.83C187.1 170.749 187.264 174.672 187.333 178.607C187.358 180.04 187.477 181.48 187.419 182.911C187.324 185.214 187.338 187.52 187.23 189.821C187.104 192.499 186.944 195.179 186.667 197.845C186.316 201.221 185.984 204.6 185.44 207.956C185.157 209.706 184.891 211.458 184.57 213.262C182.709 212.563 180.787 212.764 178.91 212.586C176.552 212.362 174.184 212.237 171.819 212.083C171.087 212.076 170.362 212.235 169.699 212.548C169.637 211.761 169.701 210.969 169.888 210.201C170.014 208.807 170.219 207.419 170.377 206.027C170.557 204.449 170.727 202.87 170.889 201.29C170.967 200.515 171.002 199.737 171.08 198.961C171.22 197.565 171.221 196.156 171.328 194.757C171.857 187.831 171.762 180.894 171.64 173.961C171.593 171.255 171.436 168.542 171.158 165.841C171.021 164.509 170.909 163.173 170.78 161.839C170.572 159.698 170.291 157.566 169.968 155.441C169.483 152.141 168.806 148.871 167.941 145.649C167.168 142.621 166.086 139.681 164.714 136.873C163.734 134.786 162.316 132.935 160.556 131.446Z" fill="#D1C9B7"/>
<path d="M142.607 154.925C143.958 157.033 145.235 159.032 146.523 161.024C146.596 161.142 146.642 161.274 146.657 161.411C146.672 161.549 146.656 161.687 146.611 161.818C145.611 166.072 144.825 170.368 144.161 174.685C143.763 177.273 143.419 179.87 143.131 182.476C142.746 185.981 142.417 189.488 142.187 193.006C142.022 195.53 141.922 198.054 141.805 200.579C141.605 204.923 141.606 209.266 141.72 213.607C141.794 216.444 141.924 219.283 142.164 222.116C142.314 223.888 142.421 225.664 142.62 227.431C142.858 229.537 143.146 231.638 143.438 233.738C143.899 237.108 144.577 240.444 145.468 243.727C146.173 246.293 147.269 248.732 149.436 250.49C149.509 250.549 149.579 250.612 149.655 250.667C151.202 251.777 152.628 251.69 153.785 250.075C154.289 249.398 154.74 248.683 155.133 247.937C158.258 241.603 160.795 234.996 162.714 228.198C164.112 223.373 165.265 218.479 166.166 213.536C166.75 210.379 167.219 207.2 167.594 204.007C167.98 200.722 168.293 197.43 168.534 194.134C168.909 188.985 168.913 183.833 168.862 178.678C168.834 175.866 168.653 173.059 168.44 170.259C168.159 166.559 167.738 162.872 167.177 159.198C167.043 158.526 166.858 157.864 166.623 157.22C166.17 155.768 165.656 155.376 164.109 155.359C162.983 155.347 161.856 155.379 160.731 155.35C158.666 155.32 156.622 154.944 154.682 154.235C152.659 153.417 151.004 151.889 150.027 149.938C148.975 147.979 148.342 145.823 148.168 143.607C148.044 142.376 148.241 141.179 148.21 139.967C148.204 139.779 148.249 139.593 148.342 139.429C149.519 137.11 151.09 135.013 152.985 133.233C153.66 132.625 154.441 132.146 155.288 131.819C155.934 131.573 156.63 131.487 157.316 131.568C158.002 131.649 158.659 131.895 159.23 132.284C160.229 132.932 161.091 133.77 161.767 134.751C163.365 137.071 164.604 139.62 165.441 142.31C166.747 146.252 167.717 150.298 168.34 154.404C168.496 155.389 168.736 156.362 168.875 157.349C169.036 158.49 169.139 159.64 169.248 160.787C169.491 163.333 169.778 165.876 169.938 168.428C170.055 170.296 170.147 172.168 170.213 174.043C170.339 177.573 170.418 181.103 170.334 184.634C170.258 187.849 170.135 191.063 169.964 194.276C169.833 196.768 169.655 199.26 169.403 201.743C169.054 205.186 168.663 208.626 168.181 212.056C167.356 218.084 166.208 224.063 164.743 229.967C163.583 234.57 162.129 239.094 160.39 243.511C159.531 245.655 158.506 247.729 157.325 249.714C156.115 251.876 154.428 253.734 152.392 255.146C151.533 255.703 150.515 255.963 149.494 255.886C148.473 255.81 147.505 255.401 146.738 254.722C145.294 253.471 144.121 251.937 143.291 250.215C141.666 246.972 140.441 243.544 139.642 240.005C138.708 236.219 138.01 232.378 137.552 228.505C137.209 225.72 136.923 222.929 136.733 220.127C136.551 217.446 136.466 214.763 136.344 212.081C136.185 208.58 136.206 205.082 136.273 201.584C136.328 198.65 136.432 195.714 136.636 192.786C136.867 189.458 137.129 186.13 137.477 182.809C137.894 178.836 138.436 174.882 139.059 170.94C139.618 167.396 140.325 163.877 141.129 160.38C141.472 158.89 141.858 157.41 142.224 155.926C142.287 155.571 142.417 155.232 142.607 154.925Z" fill="#E5E4E1"/>
<path d="M211.697 58.0443C212.814 58.6851 213.876 59.4164 214.874 60.231C218.758 63.1511 222.05 66.786 224.571 70.9405C226.543 74.1813 227.822 77.7955 228.327 81.5553C229.047 87.1514 227.869 92.8274 224.982 97.6743C221.775 103.235 217.154 107.364 211.678 110.592C207.787 112.863 203.621 114.626 199.281 115.838C197.087 116.46 194.826 116.809 192.547 116.879C189.55 116.979 186.556 117.142 183.561 117.286C183.157 117.305 182.756 117.374 182.352 117.409C182.01 117.439 181.819 117.292 181.826 116.927C181.831 116.646 181.824 116.364 181.818 116.083C181.753 112.928 181.687 109.773 181.622 106.617C181.615 106.305 181.619 105.992 181.616 105.68C181.613 105.37 181.771 105.237 182.075 105.219C182.698 105.183 183.32 105.108 183.943 105.086C186.442 104.996 188.944 104.965 191.44 104.825C193.408 104.803 195.37 104.609 197.304 104.244C199.304 103.731 201.228 102.958 203.028 101.946C205.695 100.553 208.108 98.7199 210.164 96.5238C212.996 93.6064 214.818 89.8573 215.363 85.8273C215.777 82.6771 215.312 79.4737 214.019 76.5716C213.11 74.508 211.872 72.6056 210.353 70.9386C210.153 70.754 210.014 70.513 209.954 70.2474C209.894 69.9818 209.916 69.7043 210.017 69.4516C210.822 66.8568 211.327 64.1783 211.522 61.4686C211.594 60.3798 211.653 59.2903 211.697 58.0443Z" fill="#E5E4E1"/>
<path d="M117.56 54.8897C117.585 55.0447 117.6 55.2012 117.607 55.3581C117.562 57.8526 117.496 60.3468 117.477 62.8415C117.473 63.3892 117.218 63.5938 116.765 63.7735C114.109 64.8014 111.613 66.203 109.352 67.9359C106.064 70.3671 103.535 73.6834 102.059 77.498C100.46 81.6578 100.548 86.2778 102.305 90.3735C104.024 94.3969 106.878 97.8321 110.518 100.259C114.732 103.152 119.541 105.063 124.591 105.849C127.095 106.213 129.634 106.284 132.154 106.058C132.404 106.043 132.654 106.022 132.904 106.025C135.874 106.06 138.838 105.818 141.807 105.804C142.763 105.8 142.762 105.791 142.771 106.778C142.787 108.372 142.8 109.966 142.823 111.56C142.841 112.84 143.003 114.114 142.958 115.397C142.932 116.123 142.942 116.143 142.232 116.141C138.792 116.133 135.35 116.19 131.914 116.068C129.789 115.993 127.666 115.966 125.542 115.965C123.451 115.897 121.375 115.573 119.362 115C113.753 113.679 108.431 111.349 103.656 108.122C99.736 105.519 96.4392 102.083 94.0007 98.0587C91.9217 94.6245 90.7379 90.7231 90.5578 86.7124C90.3612 80.9199 92.1229 75.2303 95.5584 70.5631C99.0375 65.7211 103.549 61.7132 108.767 58.8293C111.259 57.3944 113.863 56.1625 116.553 55.1454C116.786 55.0564 117.02 54.9673 117.259 54.8937C117.358 54.8793 117.46 54.8779 117.56 54.8897Z" fill="#E5E4E1"/>
<path d="M160.442 162.476C159.759 163.785 159.222 164.942 158.74 166.123C157.369 169.61 156.304 173.21 155.556 176.881C154.92 179.805 154.424 182.753 154.016 185.719C153.671 188.221 153.42 190.731 153.144 193.238C153.014 194.415 153.008 195.606 152.907 196.787C152.595 200.43 152.645 204.087 152.474 207.734C152.297 211.515 152.621 215.277 152.597 219.049C152.585 221.103 152.767 223.163 152.945 225.213C153.107 227.076 153.178 228.946 153.432 230.802C153.622 232.191 153.694 233.595 153.864 234.987C154.118 237.059 154.395 239.128 154.697 241.193C154.778 241.815 154.975 242.417 155.279 242.966C155.368 243.113 155.418 243.281 155.426 243.453C155.433 243.625 155.398 243.796 155.322 243.95C154.592 245.677 153.728 247.344 152.738 248.936C152.721 248.962 152.707 248.991 152.689 249.016C151.939 250.051 151.355 250.127 150.359 249.291C149.487 248.526 148.77 247.601 148.248 246.566C147.178 244.41 146.416 242.114 145.985 239.746C145.284 236.516 144.753 233.254 144.342 229.978C144.063 227.753 143.849 225.518 143.675 223.278C143.491 220.916 143.359 218.549 143.22 216.185C143.095 214.066 143.14 211.935 143.137 209.809C143.134 206.933 143.089 204.054 143.186 201.181C143.288 198.158 143.39 195.133 143.688 192.119C143.863 190.351 143.928 188.572 144.111 186.806C144.319 184.791 144.545 182.778 144.787 180.767C145.082 178.291 145.424 175.822 145.812 173.361C146.255 170.529 146.791 167.712 147.388 164.907C147.537 164.205 147.717 163.51 147.839 162.804C147.904 162.429 148.055 162.247 148.445 162.26C150.818 162.335 153.194 162.206 155.568 162.407C156.811 162.512 158.068 162.459 159.319 162.475C159.629 162.479 159.939 162.476 160.442 162.476Z" fill="#D1C9B7"/>
<path d="M156.128 241.262C155.712 239.082 155.471 236.876 155.21 234.675C154.68 230.206 154.322 225.721 154.091 221.228C153.816 215.889 153.748 210.547 153.885 205.201C154.028 196.826 154.833 188.475 156.291 180.227C157.096 175.417 158.412 170.706 160.217 166.176C160.993 164.194 162.044 162.331 163.34 160.643C163.877 159.902 164.552 159.274 165.33 158.792C165.613 159.5 165.782 160.248 165.828 161.009C166.582 166.551 167.052 172.127 167.239 177.717C167.393 182.157 167.34 186.592 167.131 191.025C166.835 197.329 166.182 203.611 165.175 209.841C163.902 217.929 161.95 225.894 159.34 233.653C158.484 236.165 157.589 238.665 156.494 241.086C156.386 241.173 156.337 241.384 156.128 241.262Z" fill="#DCFFE0"/>
<path d="M180.346 116.855C180.346 117.981 180.354 119.106 180.343 120.231C180.335 120.989 180.318 121.007 179.538 121.019C175.882 121.073 172.227 121.17 168.572 121.248C165.135 121.322 161.695 121.288 158.263 121.446C155.544 121.571 152.825 121.487 150.11 121.613C148.581 121.683 147.054 121.758 145.523 121.749C144.656 121.744 144.549 121.675 144.512 120.809C144.468 119.778 144.485 118.746 144.477 117.714C144.464 115.994 144.545 114.268 144.417 112.557C144.226 109.996 144.335 107.436 144.266 104.876C144.241 103.934 144.265 103.959 145.179 103.909C149.266 103.683 153.361 103.868 157.445 103.696C160.759 103.557 164.073 103.652 167.382 103.519C171.25 103.364 175.118 103.256 178.987 103.195C180.05 103.176 180.088 103.219 180.102 104.299C180.127 106.237 180.159 108.176 180.145 110.114C180.129 112.364 180.451 114.603 180.346 116.855Z" fill="#D1C9B7"/>
<path d="M153.256 256.312C153.804 255.86 154.376 255.435 154.895 254.953C156.518 253.389 157.89 251.586 158.965 249.605C161.341 245.242 163.228 240.63 164.593 235.852C165.46 233.017 166.199 230.147 166.867 227.26C167.661 223.83 168.347 220.376 168.879 216.894C169.014 215.936 169.409 215.034 170.02 214.284C170.325 213.946 170.717 213.697 171.153 213.565C171.59 213.434 172.054 213.424 172.495 213.538C174.076 213.719 175.664 213.791 177.251 213.889C179.15 214.007 181.047 214.141 182.945 214.267C183.134 214.268 183.319 214.326 183.474 214.434C183.63 214.542 183.748 214.695 183.814 214.873C184.033 215.326 184.108 215.835 184.029 216.332C183.186 220.297 182.28 224.246 181.161 228.144C180.004 232.263 178.591 236.305 176.931 240.247C175.118 244.743 172.734 248.987 169.838 252.874C168.949 254.004 167.982 255.069 166.945 256.064C166.835 256.195 166.698 256.301 166.544 256.375C166.39 256.45 166.222 256.492 166.051 256.498C161.802 256.49 157.552 256.488 153.302 256.493L153.256 256.312Z" fill="#D1C9B7"/>
<path d="M152.929 97.8896C152.901 96.7386 152.909 95.5871 152.79 94.4404C152.749 94.0453 152.874 93.898 153.301 93.8749C155.238 93.7704 157.176 93.8682 159.111 93.7878C162.951 93.6281 166.793 93.6219 170.635 93.5837C170.914 93.5671 171.192 93.5354 171.468 93.489C172.259 93.3952 172.416 93.5178 172.428 94.317C172.45 95.7541 172.45 97.1915 172.464 98.6287C172.457 99.3749 172.496 100.121 172.581 100.862C172.692 101.682 172.538 101.836 171.674 101.848C170.299 101.867 168.923 101.863 167.548 101.877C163.175 101.918 158.804 102.139 154.43 102.09C154.242 102.087 154.055 102.096 153.869 102.116C152.957 102.218 152.938 102.209 152.931 101.264C152.923 100.139 152.929 99.0144 152.929 97.8896Z" fill="#D1C9B7"/>
<path d="M146.706 143.721C146.934 146.533 147.846 149.247 149.364 151.625C150.834 153.875 153.11 155.476 155.725 156.097C158.311 156.707 160.969 156.958 163.624 156.843C163.936 156.836 164.249 156.833 164.561 156.84C164.639 156.831 164.718 156.853 164.781 156.9C164.844 156.947 164.887 157.017 164.901 157.094C164.914 157.156 164.91 157.219 164.889 157.278C164.867 157.337 164.829 157.388 164.78 157.427C164.708 157.486 164.633 157.542 164.554 157.593C163.483 158.303 162.57 159.228 161.874 160.308C161.724 160.587 161.488 160.81 161.202 160.944C160.916 161.079 160.594 161.118 160.284 161.056C158.452 160.894 156.6 160.976 154.756 160.938C152.727 160.895 150.699 160.812 148.669 160.782C148.469 160.785 148.273 160.732 148.102 160.628C147.931 160.525 147.793 160.374 147.704 160.195C146.38 158.113 145.097 156.001 143.674 153.988C143.434 153.683 143.281 153.318 143.232 152.932C143.182 152.547 143.237 152.155 143.392 151.798C144.229 149.051 145.215 146.352 146.345 143.712C146.368 143.685 146.396 143.665 146.427 143.651C146.459 143.637 146.493 143.63 146.528 143.631C146.562 143.631 146.596 143.64 146.627 143.655C146.658 143.671 146.685 143.693 146.706 143.721Z" fill="#E5E4E1"/>
<path d="M156.278 130.073C156.278 127.849 156.284 125.732 156.273 123.614C156.272 123.22 156.431 123.049 156.818 123.033C157.496 123.005 158.174 122.93 158.853 122.921C161.037 122.889 163.221 122.888 165.405 122.855C166.148 122.843 166.889 122.764 167.632 122.731C168.212 122.705 168.339 122.784 168.321 123.328C168.265 125.045 168.509 126.751 168.48 128.465C168.465 129.321 168.399 129.389 167.492 129.432C165.843 129.51 164.19 129.538 162.547 129.676C160.502 129.848 158.456 129.965 156.278 130.073Z" fill="#D1C9B7"/>
<path d="M176.892 137.993C175.53 138.221 174.155 138.363 172.776 138.419C171.727 138.557 170.662 138.566 169.607 138.662C169.392 138.707 169.168 138.671 168.978 138.562C168.787 138.452 168.644 138.276 168.575 138.067C168.337 137.491 168.034 136.939 167.837 136.35C167.242 134.57 166.346 132.906 165.188 131.429C165.113 131.31 165.048 131.185 164.993 131.056C165.795 130.923 166.605 130.848 167.418 130.833C168.653 130.68 169.906 130.669 171.15 130.583C171.35 130.565 171.552 130.59 171.741 130.657C171.93 130.724 172.103 130.831 172.247 130.97C173.589 132.233 174.735 133.689 175.648 135.291C176.211 136.116 176.631 137.029 176.892 137.993Z" fill="#E5E4E1"/>
<path d="M117.285 65.1122C117.127 66.6376 116.609 68.1039 115.775 69.3908C115.125 70.2671 114.509 70.38 113.64 69.7543C113.071 69.3736 112.543 68.9353 112.063 68.4464C111.837 68.1994 111.754 67.9677 112.084 67.7578C113.726 66.707 115.469 65.8209 117.285 65.1122Z" fill="#3C1F1B"/>
<path d="M199.427 71.6479C200.151 71.524 200.883 71.4578 201.617 71.4496C201.397 70.9823 201.012 70.565 201.199 70.0097C201.284 69.7408 201.456 69.5077 201.688 69.3469C201.91 69.2013 202.172 69.1301 202.437 69.1434C202.702 69.1566 202.956 69.2538 203.162 69.4207C203.709 69.8822 203.715 70.3894 203.141 71.4943C204.446 71.4943 205.71 71.4943 206.973 71.4943C206.906 71.5602 206.825 71.6101 206.737 71.6403C206.648 71.6705 206.553 71.6802 206.46 71.6687C204.116 71.6616 201.771 71.6546 199.427 71.6479Z" fill="#3C1F1B"/>
<path d="M146.705 143.721L146.345 143.712C146.35 143.487 146.441 143.272 146.599 143.113C146.804 143.314 146.715 143.524 146.705 143.721Z" fill="#AC9C75"/>
<path d="M156.128 241.262L156.494 241.086C156.478 241.201 156.449 241.313 156.407 241.421C156.373 241.489 156.251 241.586 156.217 241.569C156.098 241.511 156.1 241.383 156.128 241.262Z" fill="#D4C3AD"/>
<path d="M119.142 8.57387C119.137 8.41084 119.164 8.24835 119.222 8.09599C119.28 7.94364 119.369 7.80452 119.482 7.68684C119.595 7.56917 119.73 7.47534 119.88 7.41089C120.03 7.34645 120.191 7.31269 120.354 7.31162C120.668 7.30698 120.971 7.42543 121.199 7.64166C121.427 7.85789 121.561 8.15473 121.573 8.46871C121.581 8.62894 121.557 8.78915 121.503 8.94011C121.449 9.09108 121.365 9.22982 121.257 9.34837C121.149 9.46691 121.019 9.56292 120.874 9.63087C120.728 9.69882 120.571 9.73737 120.411 9.7443C120.251 9.75123 120.09 9.72641 119.94 9.67126C119.789 9.61611 119.651 9.53172 119.533 9.42294C119.415 9.31417 119.32 9.18316 119.253 9.03744C119.186 8.89173 119.148 8.73418 119.142 8.57387Z" fill="#3C1F1B"/>
<path d="M197.554 9.00532C197.392 9.00763 197.23 8.97761 197.079 8.91701C196.928 8.8564 196.79 8.76642 196.674 8.65226C196.558 8.5381 196.465 8.40203 196.402 8.25193C196.339 8.10183 196.306 7.94068 196.306 7.7778C196.321 7.46675 196.451 7.17231 196.67 6.95079C196.888 6.72927 197.181 6.59622 197.492 6.57707C197.813 6.57005 198.124 6.69059 198.356 6.91232C198.589 7.13404 198.724 7.43887 198.732 7.76007C198.741 8.08126 198.621 8.39265 198.4 8.62604C198.18 8.85943 197.876 8.99581 197.554 9.00532Z" fill="#3C1F1B"/>
<path d="M163.634 35.7624C163.305 35.7599 162.991 35.6285 162.758 35.3964C162.525 35.1644 162.392 34.8502 162.389 34.5215C162.405 34.2093 162.539 33.9148 162.764 33.6979C162.989 33.481 163.288 33.3579 163.601 33.3536C163.913 33.3493 164.216 33.4641 164.447 33.6747C164.678 33.8853 164.82 34.176 164.845 34.4876C164.849 34.8162 164.725 35.1335 164.499 35.3718C164.273 35.61 163.962 35.7502 163.634 35.7624Z" fill="#3C1F1B"/>
<path d="M122.985 27.174C123.297 27.1638 123.601 27.2764 123.831 27.4877C124.062 27.699 124.2 27.9921 124.217 28.3042C124.224 28.4665 124.2 28.6287 124.145 28.7815C124.089 28.9343 124.004 29.0746 123.894 29.1944C123.785 29.3141 123.652 29.411 123.505 29.4793C123.358 29.5476 123.198 29.586 123.036 29.5924C122.707 29.5897 122.393 29.4582 122.161 29.2263C121.928 28.9943 121.796 28.6804 121.792 28.3519C121.798 28.0387 121.926 27.7402 122.149 27.5202C122.372 27.3001 122.672 27.1759 122.985 27.174Z" fill="#3C1F1B"/>
<path d="M203.881 54.2021C204.194 54.1949 204.497 54.3091 204.727 54.5208C204.957 54.7325 205.096 55.0251 205.115 55.3373C205.132 55.6658 205.017 55.9873 204.796 56.2313C204.576 56.4753 204.268 56.6217 203.939 56.6384C203.611 56.6292 203.298 56.4945 203.066 56.2619C202.833 56.0293 202.699 55.7165 202.689 55.3878C202.696 55.0743 202.824 54.7755 203.046 54.5544C203.268 54.3332 203.568 54.2069 203.881 54.2021Z" fill="#3C1F1B"/>
<path d="M198.922 12.827C198.912 13.1389 198.784 13.4353 198.564 13.6567C198.344 13.878 198.049 14.008 197.737 14.0204C197.408 14.0171 197.094 13.8851 196.862 13.6527C196.63 13.4204 196.498 13.1062 196.495 12.7777C196.505 12.4582 196.641 12.1556 196.873 11.9355C197.104 11.7154 197.413 11.5956 197.733 11.6021C198.052 11.6086 198.356 11.7409 198.579 11.9702C198.802 12.1995 198.925 12.5074 198.922 12.827Z" fill="#3C1F1B"/>
<path d="M127.595 63.2984C127.589 63.4612 127.551 63.6212 127.483 63.769C127.414 63.9169 127.317 64.0496 127.197 64.1595C127.077 64.2694 126.936 64.3542 126.783 64.4089C126.629 64.4637 126.467 64.4873 126.304 64.4784C125.993 64.4501 125.704 64.3061 125.494 64.0747C125.284 63.8434 125.168 63.5417 125.17 63.2292C125.174 63.0663 125.212 62.9059 125.281 62.758C125.349 62.6101 125.447 62.4778 125.569 62.3691C125.69 62.2604 125.832 62.1776 125.987 62.1259C126.141 62.0741 126.305 62.0545 126.467 62.0681C126.78 62.0821 127.074 62.2195 127.285 62.4502C127.496 62.6808 127.608 62.9858 127.595 63.2984Z" fill="#3C1F1B"/>
<path d="M203.361 66.6112C203.033 66.6073 202.719 66.4733 202.49 66.2387C202.26 66.004 202.133 65.6879 202.136 65.3595C202.168 65.0489 202.31 64.7599 202.537 64.5446C202.763 64.3293 203.058 64.2018 203.37 64.1848C203.534 64.1871 203.695 64.2226 203.844 64.2889C203.993 64.3553 204.127 64.4513 204.239 64.571C204.35 64.6907 204.436 64.8318 204.491 64.9856C204.546 65.1394 204.569 65.3028 204.56 65.4659C204.56 65.6209 204.529 65.7744 204.468 65.917C204.407 66.0597 204.318 66.1884 204.206 66.2955C204.094 66.4026 203.961 66.4858 203.816 66.5401C203.67 66.5944 203.516 66.6185 203.361 66.6112Z" fill="#3C1F1B"/>
<path d="M202.672 40.7142C202.663 40.8772 202.621 41.0366 202.548 41.1826C202.475 41.3287 202.373 41.4583 202.248 41.5635C202.124 41.6688 201.979 41.7474 201.822 41.7945C201.666 41.8416 201.502 41.8563 201.34 41.8377C201.029 41.806 200.742 41.6549 200.539 41.4163C200.337 41.1776 200.235 40.8698 200.254 40.5575C200.289 40.2309 200.448 39.9302 200.699 39.7178C200.949 39.5054 201.272 39.3977 201.6 39.4168C201.911 39.4535 202.196 39.6088 202.396 39.8504C202.596 40.0921 202.694 40.4015 202.672 40.7142Z" fill="#3C1F1B"/>
<path d="M119.486 13.5608C119.478 13.4063 119.501 13.2518 119.553 13.1062C119.605 12.9606 119.686 12.827 119.791 12.7132C119.896 12.5994 120.022 12.5077 120.163 12.4434C120.304 12.3792 120.456 12.3438 120.61 12.3392C120.773 12.327 120.936 12.3475 121.09 12.3997C121.245 12.4519 121.387 12.5346 121.508 12.643C121.63 12.7513 121.729 12.883 121.798 13.0303C121.868 13.1775 121.907 13.3373 121.914 13.5001C121.903 13.8114 121.781 14.1086 121.57 14.3382C121.36 14.5678 121.074 14.7147 120.765 14.7526C120.437 14.764 120.119 14.6449 119.879 14.4214C119.639 14.198 119.498 13.8884 119.486 13.5608Z" fill="#3C1F1B"/>
<path d="M149.753 35.1656C149.764 35.3201 149.744 35.4752 149.694 35.6217C149.644 35.7683 149.565 35.9032 149.462 36.0186C149.359 36.134 149.233 36.2275 149.093 36.2934C148.953 36.3594 148.801 36.3965 148.646 36.4026C148.318 36.4151 147.997 36.2992 147.753 36.0796C147.508 35.86 147.358 35.5537 147.335 35.2257C147.344 34.8972 147.479 34.5846 147.711 34.3521C147.943 34.1195 148.255 33.9845 148.584 33.9747C148.896 33.979 149.194 34.1066 149.413 34.3296C149.632 34.5525 149.755 34.853 149.753 35.1656Z" fill="#3C1F1B"/>
<path d="M174.867 34.3193C174.873 34.4801 174.846 34.6405 174.789 34.7911C174.732 34.9417 174.646 35.0795 174.536 35.1966C174.425 35.3137 174.293 35.4076 174.146 35.4731C173.999 35.5385 173.84 35.5741 173.679 35.5778C173.518 35.5816 173.358 35.5533 173.208 35.4947C173.059 35.4362 172.922 35.3484 172.806 35.2366C172.69 35.1248 172.598 34.9911 172.534 34.8433C172.47 34.6955 172.436 34.5365 172.435 34.3755C172.435 34.0578 172.56 33.753 172.782 33.5259C173.004 33.2989 173.306 33.1677 173.623 33.1604C173.941 33.153 174.249 33.2701 174.481 33.4866C174.713 33.7032 174.852 34.002 174.867 34.3193Z" fill="#3C1F1B"/>
<path d="M199.153 23.9579C198.842 23.963 198.541 23.8461 198.314 23.6322C198.088 23.4183 197.954 23.1244 197.942 22.8132C197.925 22.6515 197.942 22.4881 197.993 22.3336C198.044 22.1792 198.127 22.0373 198.236 21.9171C198.346 21.797 198.479 21.7014 198.628 21.6366C198.777 21.5718 198.939 21.5392 199.101 21.5411C199.414 21.5334 199.718 21.646 199.951 21.8558C200.184 22.0655 200.327 22.3564 200.352 22.6687C200.354 22.996 200.231 23.3118 200.008 23.5514C199.785 23.7911 199.479 23.9365 199.153 23.9579Z" fill="#3C1F1B"/>
<path d="M123.091 23.5143C123.085 23.6768 123.048 23.8366 122.98 23.9845C122.913 24.1324 122.816 24.2654 122.697 24.376C122.578 24.4865 122.438 24.5724 122.286 24.6286C122.133 24.6848 121.971 24.7103 121.809 24.7035C121.498 24.6725 121.211 24.5283 121 24.2986C120.789 24.0688 120.67 23.7695 120.666 23.4578C120.67 23.2949 120.708 23.1347 120.776 22.9867C120.844 22.8388 120.942 22.7063 121.063 22.5972C121.184 22.4882 121.326 22.4049 121.48 22.3524C121.634 22.2999 121.798 22.2794 121.96 22.292C122.115 22.2972 122.267 22.3331 122.408 22.3975C122.548 22.4619 122.675 22.5536 122.78 22.6673C122.885 22.7809 122.967 22.9143 123.02 23.0597C123.074 23.2051 123.098 23.3596 123.091 23.5143Z" fill="#3C1F1B"/>
<path d="M169.833 34.4067C169.829 34.7194 169.706 35.0187 169.49 35.2447C169.274 35.4706 168.98 35.6064 168.668 35.6247C168.341 35.6155 168.028 35.483 167.794 35.2538C167.56 35.0246 167.421 34.7154 167.404 34.388C167.409 34.2254 167.446 34.0653 167.513 33.9169C167.58 33.7686 167.675 33.635 167.794 33.5239C167.913 33.4128 168.053 33.3263 168.205 33.2695C168.357 33.2127 168.52 33.1867 168.682 33.193C168.994 33.2051 169.289 33.3388 169.505 33.5656C169.72 33.7924 169.838 34.0942 169.833 34.4067Z" fill="#3C1F1B"/>
<path d="M133.509 36.9022C133.181 36.8902 132.871 36.7498 132.645 36.5112C132.42 36.2727 132.297 35.9551 132.303 35.6268C132.32 35.3142 132.457 35.0202 132.687 34.8074C132.916 34.5945 133.22 34.4794 133.533 34.4865C133.695 34.4849 133.857 34.5168 134.006 34.5802C134.156 34.6436 134.292 34.7371 134.404 34.8551C134.516 34.973 134.603 35.1128 134.658 35.2657C134.714 35.4186 134.738 35.5813 134.728 35.7438C134.711 36.056 134.575 36.3499 134.349 36.5652C134.122 36.7806 133.822 36.9011 133.509 36.9022Z" fill="#3C1F1B"/>
<path d="M203.711 51.6008C203.398 51.5995 203.097 51.4766 202.873 51.2579C202.648 51.0392 202.517 50.7419 202.508 50.4286C202.515 50.1002 202.648 49.787 202.879 49.5536C203.11 49.3201 203.422 49.1842 203.75 49.1737C203.913 49.1772 204.073 49.2137 204.222 49.2809C204.371 49.3481 204.504 49.4447 204.614 49.5648C204.724 49.6849 204.809 49.8262 204.864 49.9799C204.918 50.1337 204.94 50.2969 204.93 50.4597C204.926 50.6148 204.89 50.7676 204.827 50.9091C204.763 51.0506 204.672 51.1781 204.558 51.2842C204.445 51.3903 204.312 51.4729 204.166 51.5272C204.021 51.5816 203.866 51.6066 203.711 51.6008Z" fill="#3C1F1B"/>
<path d="M189.913 34.075C189.897 34.3871 189.765 34.6818 189.542 34.9008C189.319 35.1197 189.022 35.2469 188.71 35.257C188.383 35.2402 188.074 35.0996 187.847 34.8637C187.62 34.6278 187.491 34.3143 187.486 33.9867C187.5 33.6663 187.64 33.3642 187.875 33.1465C188.111 32.9288 188.423 32.8132 188.743 32.8249C189.064 32.8365 189.367 32.9745 189.586 33.2088C189.805 33.443 189.922 33.7544 189.913 34.075Z" fill="#3C1F1B"/>
<path d="M125.316 44.4618C125.154 44.4579 124.994 44.4203 124.846 44.3513C124.699 44.2823 124.567 44.1835 124.46 44.0611C124.353 43.9387 124.272 43.7954 124.223 43.6402C124.174 43.485 124.158 43.3214 124.176 43.1596C124.179 43.0045 124.213 42.8517 124.277 42.7102C124.34 42.5688 124.432 42.4417 124.546 42.3367C124.66 42.2316 124.794 42.1508 124.94 42.099C125.086 42.0472 125.242 42.0256 125.396 42.0355C125.708 42.0552 126.002 42.1883 126.222 42.4097C126.443 42.6311 126.575 42.9254 126.593 43.2373C126.573 43.5645 126.43 43.8721 126.194 44.0989C125.957 44.3258 125.644 44.4553 125.316 44.4618Z" fill="#3C1F1B"/>
<path d="M127.034 48.2366C127.033 48.3992 127 48.56 126.937 48.7099C126.874 48.8597 126.782 48.9957 126.666 49.1099C126.551 49.2242 126.414 49.3145 126.263 49.3758C126.112 49.437 125.951 49.4679 125.789 49.4668C125.478 49.4418 125.186 49.3044 124.969 49.0803C124.752 48.8561 124.624 48.5606 124.608 48.2488C124.609 48.0859 124.643 47.9249 124.708 47.7755C124.773 47.6261 124.867 47.4914 124.985 47.3793C125.103 47.2673 125.243 47.1804 125.396 47.1238C125.548 47.0672 125.711 47.042 125.873 47.0499C126.028 47.0495 126.181 47.0802 126.324 47.14C126.467 47.1998 126.596 47.2876 126.704 47.3982C126.812 47.5088 126.897 47.64 126.954 47.784C127.011 47.928 127.038 48.0818 127.034 48.2366Z" fill="#3C1F1B"/>
<path d="M122.481 18.5428C122.468 18.8542 122.336 19.1489 122.112 19.3655C121.888 19.5822 121.589 19.7042 121.278 19.7063C121.115 19.7103 120.953 19.681 120.802 19.62C120.651 19.5591 120.514 19.4679 120.399 19.352C120.285 19.2361 120.195 19.098 120.136 18.9461C120.077 18.7943 120.05 18.632 120.055 18.4692C120.067 18.1567 120.196 17.8602 120.418 17.6393C120.639 17.4185 120.936 17.2898 121.248 17.2791C121.576 17.2934 121.886 17.432 122.115 17.6668C122.344 17.9016 122.475 18.2148 122.481 18.5428Z" fill="#3C1F1B"/>
<path d="M205.068 60.4671C205.047 60.7945 204.9 61.1012 204.658 61.3225C204.416 61.5438 204.098 61.6625 203.77 61.6536C203.459 61.6225 203.171 61.476 202.962 61.2431C202.754 61.0101 202.64 60.7076 202.644 60.395C202.645 60.2321 202.68 60.0712 202.747 59.9227C202.814 59.7742 202.912 59.6414 203.033 59.5329C203.155 59.4245 203.298 59.3427 203.453 59.2928C203.608 59.243 203.772 59.2262 203.934 59.2436C204.246 59.2579 204.539 59.3942 204.751 59.6231C204.964 59.852 205.077 60.1551 205.068 60.4671Z" fill="#3C1F1B"/>
<path d="M197.247 3.97782C197.092 3.98046 196.938 3.95206 196.794 3.8943C196.65 3.83653 196.52 3.75058 196.41 3.64149C196.3 3.5324 196.212 3.40238 196.153 3.25909C196.094 3.1158 196.064 2.96214 196.066 2.80715C196.063 2.6444 196.092 2.48265 196.152 2.33129C196.212 2.17992 196.301 2.04192 196.414 1.92529C196.528 1.80865 196.663 1.7157 196.813 1.65179C196.963 1.58788 197.124 1.5543 197.286 1.55298C197.598 1.57636 197.891 1.71036 198.113 1.93081C198.334 2.15127 198.47 2.44366 198.495 2.75527C198.494 2.91792 198.462 3.07888 198.399 3.22877C198.336 3.37866 198.243 3.51447 198.127 3.62828C198.011 3.74209 197.873 3.83161 197.722 3.89162C197.571 3.95164 197.409 3.98094 197.247 3.97782Z" fill="#3C1F1B"/>
<path d="M199.803 25.8516C199.957 25.8499 200.111 25.879 200.254 25.9371C200.397 25.9952 200.528 26.0813 200.638 26.1902C200.748 26.2991 200.835 26.4288 200.894 26.5717C200.953 26.7146 200.984 26.8679 200.983 27.0226C200.982 27.3503 200.852 27.6642 200.621 27.8972C200.391 28.1302 200.079 28.2638 199.751 28.2693C199.441 28.2486 199.148 28.1152 198.929 27.8943C198.71 27.6733 198.578 27.3799 198.56 27.069C198.558 26.9065 198.589 26.7452 198.651 26.595C198.713 26.4448 198.805 26.3087 198.921 26.1949C199.037 26.0812 199.175 25.9921 199.327 25.9331C199.478 25.8741 199.64 25.8464 199.803 25.8516Z" fill="#3C1F1B"/>
<path d="M199.831 37.1132C199.669 37.1123 199.508 37.0775 199.359 37.011C199.21 36.9446 199.077 36.8479 198.968 36.7271C198.859 36.6063 198.776 36.4641 198.725 36.3095C198.673 36.1549 198.655 35.9913 198.67 35.8292C198.672 35.6743 198.704 35.5213 198.766 35.3793C198.828 35.2373 198.918 35.1092 199.03 35.0026C199.143 34.8961 199.275 34.8132 199.42 34.7589C199.565 34.7047 199.72 34.6802 199.874 34.6869C200.035 34.688 200.193 34.7209 200.341 34.7837C200.489 34.8466 200.622 34.938 200.734 35.0529C200.846 35.1677 200.934 35.3037 200.994 35.4528C201.053 35.602 201.082 35.7614 201.079 35.9218C201.076 36.0822 201.041 36.2405 200.977 36.3874C200.913 36.5344 200.82 36.6671 200.704 36.7779C200.588 36.8887 200.451 36.9754 200.301 37.0329C200.151 37.0905 199.992 37.1177 199.831 37.1132Z" fill="#3C1F1B"/>
<path d="M154.799 34.9248C154.799 35.0854 154.768 35.2444 154.706 35.3927C154.645 35.541 154.555 35.6757 154.441 35.7889C154.327 35.9021 154.192 35.9917 154.043 36.0525C153.895 36.1132 153.735 36.1439 153.575 36.1428C153.414 36.1417 153.256 36.1089 153.108 36.0461C152.96 35.9834 152.826 35.892 152.714 35.7772C152.602 35.6624 152.513 35.5266 152.454 35.3774C152.394 35.2283 152.365 35.0689 152.367 34.9083C152.376 34.5901 152.509 34.288 152.738 34.0668C152.967 33.8456 153.273 33.7229 153.591 33.7251C153.91 33.7272 154.214 33.854 154.44 34.0783C154.666 34.3026 154.795 34.6065 154.799 34.9248Z" fill="#3C1F1B"/>
<path d="M157.404 34.7232C157.399 34.5666 157.426 34.4107 157.484 34.2649C157.541 34.1192 157.628 33.9867 157.738 33.8755C157.848 33.7644 157.98 33.6769 158.125 33.6185C158.271 33.5601 158.427 33.5319 158.583 33.5358C158.739 33.5282 158.896 33.5515 159.043 33.6044C159.19 33.6573 159.325 33.7387 159.441 33.8439C159.557 33.9492 159.651 34.0762 159.717 34.2178C159.784 34.3594 159.822 34.5127 159.829 34.669C159.828 35.0009 159.697 35.3191 159.465 35.5562C159.233 35.7933 158.917 35.9304 158.586 35.9386C158.27 35.9262 157.972 35.7932 157.752 35.567C157.532 35.3408 157.408 35.0387 157.404 34.7232Z" fill="#3C1F1B"/>
<path d="M137.328 35.434C137.33 35.2712 137.365 35.1105 137.433 34.9624C137.5 34.8142 137.598 34.6819 137.72 34.574C137.842 34.4661 137.985 34.3849 138.14 34.3358C138.296 34.2867 138.459 34.2708 138.621 34.289C138.932 34.3024 139.226 34.4385 139.437 34.6675C139.649 34.8966 139.761 35.2 139.75 35.5116C139.731 35.8234 139.597 36.117 139.374 36.3356C139.15 36.5542 138.854 36.6822 138.542 36.6947C138.214 36.6879 137.902 36.5514 137.675 36.3151C137.447 36.0788 137.323 35.762 137.328 35.434Z" fill="#3C1F1B"/>
<path d="M127.481 53.2418C127.479 53.4044 127.444 53.565 127.377 53.7136C127.311 53.8621 127.215 53.9955 127.095 54.1055C126.976 54.2156 126.834 54.2998 126.681 54.3532C126.527 54.4065 126.364 54.4278 126.202 54.4157C125.89 54.4033 125.596 54.2705 125.38 54.0453C125.164 53.82 125.044 53.5198 125.045 53.2078C125.046 53.047 125.079 52.888 125.142 52.74C125.204 52.592 125.296 52.4578 125.41 52.3453C125.525 52.2328 125.661 52.1441 125.81 52.0843C125.96 52.0246 126.119 51.995 126.28 51.9972C126.441 51.9995 126.599 52.0335 126.747 52.0974C126.894 52.1613 127.028 52.2537 127.139 52.3694C127.251 52.4851 127.339 52.6217 127.397 52.7715C127.456 52.9212 127.484 53.081 127.481 53.2418Z" fill="#3C1F1B"/>
<path d="M178.632 32.981C178.795 32.9727 178.958 32.9975 179.111 33.0539C179.265 33.1104 179.405 33.1972 179.523 33.3093C179.642 33.4214 179.737 33.5564 179.802 33.7061C179.867 33.8558 179.901 34.0172 179.902 34.1804C179.886 34.492 179.757 34.7871 179.539 35.011C179.322 35.2349 179.031 35.3726 178.72 35.3986C178.558 35.401 178.397 35.3711 178.247 35.3106C178.097 35.2502 177.96 35.1604 177.845 35.0464C177.73 34.9325 177.638 34.7968 177.576 34.6472C177.514 34.4975 177.482 34.337 177.482 34.1749C177.476 34.0203 177.502 33.866 177.557 33.7215C177.612 33.5769 177.696 33.4449 177.804 33.3335C177.911 33.222 178.04 33.1334 178.182 33.0728C178.324 33.0122 178.477 32.981 178.632 32.981Z" fill="#3C1F1B"/>
<path d="M142.382 35.3922C142.367 35.2299 142.387 35.0664 142.441 34.9127C142.495 34.759 142.582 34.6187 142.695 34.5014C142.808 34.384 142.944 34.2923 143.096 34.2325C143.247 34.1727 143.41 34.1462 143.573 34.1548C143.883 34.164 144.18 34.2875 144.405 34.5017C144.631 34.716 144.769 35.0058 144.794 35.3158C144.78 35.6426 144.645 35.9524 144.415 36.1853C144.186 36.4181 143.878 36.5574 143.552 36.576C143.397 36.576 143.244 36.5453 143.101 36.4857C142.958 36.426 142.828 36.3386 142.719 36.2285C142.611 36.1184 142.525 35.9878 142.467 35.8442C142.409 35.7006 142.38 35.547 142.382 35.3922Z" fill="#3C1F1B"/>
<path d="M193.702 34.7019C193.539 34.7015 193.378 34.668 193.228 34.6035C193.078 34.539 192.943 34.4448 192.831 34.3266C192.719 34.2084 192.631 34.0686 192.575 33.9158C192.518 33.7629 192.493 33.6001 192.5 33.4372C192.505 33.1248 192.633 32.8269 192.856 32.6089C193.08 32.3908 193.381 32.2704 193.693 32.274C194.02 32.2837 194.331 32.4191 194.56 32.652C194.789 32.8849 194.92 33.1974 194.925 33.5244C194.898 33.8355 194.759 34.1263 194.535 34.3428C194.31 34.5593 194.014 34.6869 193.702 34.7019Z" fill="#3C1F1B"/>
<path d="M199.477 31.4788C199.485 31.6387 199.461 31.7987 199.407 31.9494C199.353 32.1001 199.269 32.2385 199.161 32.3567C199.053 32.475 198.923 32.5706 198.778 32.6381C198.633 32.7057 198.475 32.7438 198.315 32.7503C198.156 32.7568 197.996 32.7315 197.846 32.6759C197.696 32.6203 197.558 32.5355 197.441 32.4264C197.323 32.3173 197.229 32.186 197.163 32.0402C197.097 31.8944 197.06 31.7369 197.055 31.5768C197.05 31.2602 197.168 30.9541 197.386 30.7239C197.603 30.4937 197.902 30.3577 198.218 30.3449C198.535 30.3321 198.843 30.4435 199.079 30.6554C199.314 30.8673 199.457 31.1628 199.477 31.4788Z" fill="#3C1F1B"/>
<path d="M203.996 45.4931C203.995 45.8063 203.873 46.1068 203.655 46.3318C203.437 46.5567 203.141 46.6886 202.828 46.6996C202.501 46.6883 202.19 46.5544 201.957 46.3245C201.724 46.0946 201.586 45.7856 201.57 45.4586C201.586 45.1308 201.731 44.8225 201.972 44.6003C202.214 44.3782 202.533 44.2602 202.861 44.2718C203.173 44.2848 203.467 44.4204 203.679 44.6491C203.892 44.8777 204.006 45.181 203.996 45.4931Z" fill="#3C1F1B"/>
<path d="M199.547 17.7199C199.551 17.8799 199.525 18.0392 199.468 18.1887C199.411 18.3383 199.325 18.4751 199.215 18.5913C199.105 18.7075 198.973 18.8009 198.827 18.866C198.681 18.9311 198.523 18.9666 198.363 18.9706C198.203 18.9746 198.044 18.947 197.895 18.8892C197.746 18.8315 197.61 18.7449 197.494 18.6343C197.378 18.5237 197.286 18.3914 197.221 18.2448C197.157 18.0983 197.122 17.9406 197.119 17.7806C197.128 17.4645 197.255 17.1631 197.474 16.9357C197.694 16.7083 197.991 16.5714 198.306 16.5518C198.623 16.5525 198.927 16.6736 199.157 16.8906C199.388 17.1075 199.527 17.404 199.547 17.7199Z" fill="#3C1F1B"/>
<path d="M119.694 4.73329C119.538 4.73096 119.384 4.69717 119.241 4.63394C119.097 4.57072 118.969 4.47934 118.862 4.36526C118.755 4.25117 118.672 4.11671 118.618 3.96988C118.564 3.82305 118.54 3.66685 118.547 3.51059C118.563 3.19635 118.696 2.89948 118.92 2.67867C119.144 2.45787 119.443 2.32922 119.757 2.31815C120.089 2.33666 120.4 2.48224 120.626 2.72456C120.853 2.96689 120.977 3.2873 120.974 3.61906C120.944 3.93349 120.795 4.22447 120.557 4.43185C120.318 4.63923 120.01 4.74715 119.694 4.73329Z" fill="#3C1F1B"/>
<path d="M124.688 37.0978C124.844 37.0903 125 37.1145 125.147 37.1691C125.293 37.2237 125.427 37.3075 125.541 37.4154C125.654 37.5233 125.744 37.6531 125.806 37.7969C125.868 37.9407 125.9 38.0956 125.9 38.2521C125.903 38.4133 125.875 38.5735 125.815 38.7235C125.756 38.8734 125.667 39.01 125.554 39.1252C125.442 39.2404 125.307 39.3319 125.158 39.3944C125.01 39.4569 124.85 39.4891 124.689 39.4891C124.528 39.4892 124.368 39.457 124.22 39.3945C124.071 39.3321 123.936 39.2406 123.824 39.1254C123.711 39.0102 123.622 38.8737 123.563 38.7238C123.503 38.5739 123.474 38.4136 123.478 38.2524C123.477 38.0958 123.508 37.9408 123.57 37.7967C123.631 37.6527 123.721 37.5226 123.834 37.4145C123.947 37.3065 124.082 37.2226 124.228 37.1682C124.375 37.1137 124.531 37.0898 124.688 37.0978Z" fill="#3C1F1B"/>
<path d="M126.457 57.0449C126.773 57.0456 127.076 57.1658 127.306 57.3814C127.537 57.597 127.677 57.892 127.698 58.2068C127.688 58.538 127.552 58.8528 127.318 59.087C127.084 59.3212 126.769 59.4571 126.438 59.4671C126.282 59.4629 126.128 59.4277 125.986 59.3636C125.843 59.2995 125.715 59.2077 125.608 59.0935C125.502 58.9793 125.419 58.8451 125.365 58.6986C125.311 58.5521 125.286 58.3963 125.293 58.2402C125.284 58.0836 125.308 57.927 125.363 57.7802C125.419 57.6334 125.503 57.4996 125.613 57.3872C125.722 57.2749 125.854 57.1865 125.999 57.1276C126.144 57.0687 126.3 57.0405 126.457 57.0449Z" fill="#3C1F1B"/>
<path d="M128.547 36.8134C128.231 36.8226 127.924 36.7108 127.688 36.501C127.452 36.2912 127.305 35.9991 127.277 35.6844C127.271 35.3526 127.396 35.0318 127.625 34.7919C127.855 34.552 128.169 34.4124 128.501 34.4035C128.658 34.401 128.814 34.4302 128.96 34.4895C129.105 34.5487 129.238 34.6366 129.348 34.7481C129.459 34.8596 129.546 34.9923 129.605 35.1382C129.663 35.2842 129.691 35.4404 129.688 35.5976C129.7 35.754 129.679 35.9113 129.627 36.0593C129.575 36.2073 129.493 36.3428 129.385 36.4572C129.278 36.5716 129.148 36.6624 129.004 36.7237C128.859 36.785 128.704 36.8156 128.547 36.8134Z" fill="#3C1F1B"/>
<path d="M123.848 34.5245C123.693 34.5245 123.54 34.4937 123.397 34.434C123.254 34.3743 123.124 34.2869 123.015 34.1767C122.906 34.0666 122.82 33.9359 122.762 33.7923C122.704 33.6487 122.675 33.495 122.677 33.34C122.671 33.1774 122.698 33.0152 122.757 32.8633C122.815 32.7115 122.904 32.5732 123.018 32.4568C123.132 32.3405 123.268 32.2485 123.419 32.1865C123.569 32.1245 123.731 32.0937 123.893 32.0961C124.204 32.1198 124.496 32.253 124.717 32.4721C124.939 32.6912 125.075 32.9819 125.102 33.2922C125.091 33.6195 124.955 33.9303 124.722 34.1598C124.488 34.3893 124.175 34.5199 123.848 34.5245Z" fill="#3C1F1B"/>
<path d="M184.859 34.1379C184.87 34.4519 184.757 34.7577 184.546 34.9897C184.334 35.2218 184.04 35.3615 183.726 35.379C183.396 35.3772 183.079 35.2471 182.842 35.0161C182.606 34.7851 182.469 34.4713 182.459 34.1409C182.47 33.8259 182.603 33.5276 182.831 33.3097C183.059 33.0918 183.362 32.9714 183.677 32.9743C183.833 32.9657 183.989 32.9898 184.135 33.045C184.281 33.1002 184.414 33.1853 184.525 33.2948C184.636 33.4044 184.724 33.536 184.781 33.6812C184.838 33.8264 184.865 33.9819 184.859 34.1379Z" fill="#3C1F1B"/>
<path d="M127.23 68.2417C127.24 68.397 127.219 68.5528 127.168 68.6996C127.116 68.8464 127.036 68.9812 126.93 69.0958C126.825 69.2104 126.698 69.3024 126.556 69.3662C126.414 69.4299 126.26 69.4641 126.105 69.4667C125.942 69.4728 125.778 69.4463 125.625 69.3888C125.472 69.3313 125.332 69.244 125.213 69.1318C125.094 69.0197 124.998 68.885 124.932 68.7355C124.865 68.5861 124.829 68.4249 124.825 68.2613C124.828 68.1057 124.861 67.9522 124.924 67.8097C124.986 67.6671 125.076 67.5384 125.189 67.4311C125.302 67.3237 125.434 67.2397 125.58 67.184C125.725 67.1284 125.88 67.1022 126.036 67.1069C126.191 67.0911 126.348 67.1091 126.496 67.1597C126.644 67.2103 126.78 67.2923 126.893 67.4C127.007 67.5078 127.095 67.6388 127.153 67.7841C127.212 67.9294 127.238 68.0855 127.23 68.2417Z" fill="#3C1F1B"/>
<path d="M152.535 144.785C152.439 142.676 153.122 140.605 154.455 138.967C155.017 138.248 155.8 137.734 156.683 137.503C157.287 137.332 157.929 137.346 158.525 137.545C159.122 137.744 159.644 138.117 160.026 138.616C160.933 139.705 161.455 141.063 161.51 142.48C161.69 144.388 161.293 146.306 160.371 147.986C159.901 148.909 159.191 149.688 158.317 150.243C157.672 150.668 156.896 150.848 156.13 150.751C155.364 150.654 154.658 150.286 154.139 149.714C153.189 148.664 152.625 147.321 152.541 145.907C152.519 145.534 152.517 145.159 152.535 144.785Z" fill="#3C1F1B"/>
<path d="M160.067 143.304C160.113 144.778 159.74 146.235 158.991 147.506C158.616 148.196 158.041 148.758 157.341 149.116C157.015 149.31 156.631 149.385 156.256 149.329C155.881 149.272 155.536 149.087 155.282 148.805C154.887 148.447 154.586 147.998 154.404 147.497C153.934 146.252 153.786 144.909 153.976 143.592C154.166 142.275 154.686 141.028 155.489 139.967C155.62 139.792 155.771 139.632 155.94 139.493C156.157 139.253 156.429 139.07 156.733 138.959C157.036 138.847 157.362 138.811 157.683 138.852C158.004 138.894 158.31 139.013 158.575 139.198C158.84 139.384 159.056 139.631 159.205 139.918C159.835 140.931 160.136 142.114 160.067 143.304Z" fill="#D1C9B7"/>
</g>
<g style="mix-blend-mode:hue">
<rect width="320" height="320" fill="#00BF13"/>
</g>
</g>
<defs>
<clipPath id="clip0_1426_25085">
<rect width="320" height="320" fill="white"/>
</clipPath>
<clipPath id="clip1_1426_25085">
<rect width="141" height="258" fill="white" transform="translate(89)"/>
</clipPath>
</defs>
</svg>
