<svg width="320" height="320" viewBox="0 0 320 320" fill="none" xmlns="http://www.w3.org/2000/svg">
<g clip-path="url(#clip0_1426_25061)">
<rect width="320" height="320" fill="#DCFFE0"/>
<g clip-path="url(#clip1_1426_25061)">
<path fill-rule="evenodd" clip-rule="evenodd" d="M159.999 55C217.99 55 264.998 102.01 264.998 159.999C264.998 217.99 217.989 264.998 159.999 264.998C102.008 264.998 55 217.989 55 159.999C55 102.008 102.01 55 159.999 55ZM159.999 97.6732C194.421 97.6732 222.325 125.577 222.325 159.999C222.325 194.421 194.421 222.325 159.999 222.325C125.577 222.325 97.6732 194.421 97.6732 159.999C97.6732 125.577 125.577 97.6732 159.999 97.6732Z" fill="#DCCDB3"/>
<path d="M133.158 242.196L138.586 238.634L138.68 238.678L139.454 245.124L141.169 245.922L140.183 238.149L146.763 233.893L145.048 233.096L139.663 236.564L139.569 236.52L138.752 230.168L137.037 229.37L138.116 237.187L131.443 241.399L133.158 242.196Z" fill="#3C1F1B"/>
<path d="M147.95 247.751L152.259 242.895L152.361 242.913L154.793 248.933L156.656 249.254L153.674 242.009L158.913 236.182L157.049 235.86L152.758 240.615L152.656 240.597L150.207 234.679L148.343 234.358L151.427 241.621L146.086 247.43L147.95 247.751Z" fill="#3C1F1B"/>
<path d="M162.683 250.445L166.029 244.881L166.132 244.88L169.626 250.352L171.517 250.327L167.257 243.75L171.339 237.062L169.448 237.088L166.101 242.548L165.997 242.549L162.505 237.181L160.614 237.206L164.978 243.781L160.792 250.471L162.683 250.445Z" fill="#3C1F1B"/>
<path d="M177.098 249.256L179.54 243.241L179.643 243.224L183.942 248.088L185.807 247.77L180.579 241.933L183.575 234.693L181.71 235.012L179.25 240.925L179.148 240.942L174.866 236.18L173.001 236.498L178.331 242.317L175.233 249.575L177.098 249.256Z" fill="#3C1F1B"/>
<path d="M191.261 246.592L192.458 240.211L192.555 240.173L197.736 244.085L199.5 243.402L193.216 238.723L194.712 231.031L192.948 231.714L191.713 237.999L191.616 238.036L186.472 234.221L184.708 234.903L191.09 239.546L189.497 247.274L191.261 246.592Z" fill="#3C1F1B"/>
<path d="M204.073 241.893L204.67 235.428L204.763 235.382L210.287 238.794L211.979 237.949L205.285 233.876L206.057 226.079L204.365 226.923L203.722 233.295L203.629 233.342L198.151 230.023L196.459 230.867L203.245 234.894L202.381 242.738L204.073 241.893Z" fill="#3C1F1B"/>
<path fill-rule="evenodd" clip-rule="evenodd" d="M164.172 93.4035C114.127 91.2384 90.1412 123.991 94.982 195.366C93.2098 219.853 87.4798 224.689 77.7775 209.81C42.6876 144.874 92.4558 53.3758 166.888 71.363C186.388 76.0765 180.62 94.1114 164.174 93.4035H164.172Z" fill="#FAF0EC"/>
<path fill-rule="evenodd" clip-rule="evenodd" d="M159.999 96.3497C195.152 96.3497 223.65 124.846 223.65 160.001C223.65 195.154 195.154 223.652 159.999 223.652C124.845 223.652 96.3477 195.156 96.3477 160.001C96.3477 124.847 124.844 96.3497 159.999 96.3497ZM159.999 119.206C182.528 119.206 200.792 137.47 200.792 159.999C200.792 182.528 182.528 200.792 159.999 200.792C137.47 200.792 119.206 182.528 119.206 159.999C119.206 137.47 137.47 119.206 159.999 119.206Z" fill="#3C1F1B"/>
<path fill-rule="evenodd" clip-rule="evenodd" d="M191.423 130.999C212.386 141.923 211.253 162.586 192.431 190.617C187.376 201.043 188.578 204.373 196.053 200.582C224.575 183.465 228.776 132.964 195.513 121.349C186.575 118.23 184.533 127.408 191.423 130.999Z" fill="#210F0D"/>
<path d="M96.7162 95.5107L103.918 97.8127L104.009 97.7343L102.866 90.261L104.541 88.8311L105.861 97.8591L114.57 100.58L112.895 102.01L105.772 99.7995L105.68 99.8779L106.745 107.259L105.07 108.689L103.842 99.5829L95.0411 96.9406L96.7162 95.5107Z" fill="#3C1F1B"/>
<path d="M112.698 84.4424L118.845 88.8428L118.957 88.7964L120.162 81.3327L122.195 80.4857L120.681 89.4834L128.135 94.7449L126.102 95.5919L120.001 91.3029L119.89 91.3493L118.639 98.7016L116.606 99.5486L118.23 90.5045L110.665 85.2895L112.698 84.4424Z" fill="#3C1F1B"/>
<path d="M131.444 77.9039L136.194 83.7858L136.314 83.7708L139.467 76.8996L141.652 76.626L137.792 84.8932L143.571 91.9537L141.386 92.2272L136.651 86.4651L136.531 86.4801L133.363 93.2316L131.177 93.5052L135.157 85.223L129.259 78.1775L131.444 77.9039Z" fill="#3C1F1B"/>
<path d="M149.59 75.6306L153.385 82.1693L153.505 82.1728L157.672 75.8643L159.873 75.928L154.795 83.508L159.427 91.3688L157.225 91.3051L153.427 84.887L153.306 84.8836L149.143 91.0714L146.942 91.0078L152.141 83.4313L147.388 75.567L149.59 75.6306Z" fill="#3C1F1B"/>
<path d="M168.379 76.9968L170.991 84.0917L171.109 84.1159L176.3 78.6197L178.458 79.0618L172.149 85.6533L175.357 94.1947L173.2 93.7527L170.564 86.776L170.446 86.7518L165.279 92.1298L163.121 91.6877L169.548 85.1204L166.221 76.5548L168.379 76.9968Z" fill="#3C1F1B"/>
<path d="M187.676 82.1974L188.8 89.6736L188.911 89.7212L195.105 85.3871L197.129 86.2559L189.619 91.437L191.036 100.45L189.012 99.5816L187.84 92.2163L187.729 92.1687L181.582 96.3919L179.558 95.5231L187.179 90.3896L185.652 81.3285L187.676 82.1974Z" fill="#3C1F1B"/>
</g>
<g style="mix-blend-mode:hue">
<rect width="320" height="320" fill="#00BF13"/>
</g>
</g>
<defs>
<clipPath id="clip0_1426_25061">
<rect width="320" height="320" fill="white"/>
</clipPath>
<clipPath id="clip1_1426_25061">
<rect width="210" height="210" fill="white" transform="translate(55 55)"/>
</clipPath>
</defs>
</svg>
