<svg width="320" height="320" viewBox="0 0 320 320" fill="none" xmlns="http://www.w3.org/2000/svg">
<g clip-path="url(#clip0_1426_25220)">
<rect width="320" height="320" fill="#DCFFE0"/>
<g clip-path="url(#clip1_1426_25220)">
<rect x="55" y="92" width="210" height="136" rx="18" fill="#DCCDB3"/>
<path fill-rule="evenodd" clip-rule="evenodd" d="M70.3506 92H249.649C253.717 92.0116 257.615 93.6326 260.491 96.5089C263.367 99.3852 264.988 103.283 265 107.351V212.197C264.988 216.265 263.367 220.163 260.491 223.039C257.615 225.915 253.717 227.536 249.649 227.548H70.3506C66.283 227.536 62.3852 225.915 59.5089 223.039C56.6326 220.163 55.0116 216.265 55 212.197V107.351C55.0116 103.283 56.6326 99.3852 59.5089 96.5089C62.3852 93.6326 66.283 92.0116 70.3506 92ZM61.6038 112.034H259.932V109.568C259.924 106.783 258.814 104.115 256.845 102.146C254.876 100.177 252.208 99.0667 249.423 99.0586H72.1126C69.328 99.0668 66.6598 100.177 64.6907 102.146C62.7217 104.115 61.6119 106.783 61.6038 109.568V112.034ZM259.932 144.501H61.6038V209.98C61.6119 212.765 62.7217 215.433 64.6907 217.402C66.6598 219.371 69.328 220.481 72.1126 220.489H249.423C252.208 220.481 254.876 219.371 256.845 217.402C258.814 215.433 259.924 212.765 259.932 209.98V144.501Z" fill="#3C1F1B"/>
<path d="M74.6824 155.949V170H72.5556V158.076H72.4732L69.1114 160.271V158.241L72.6173 155.949H74.6824ZM79.8623 170H77.612L82.6684 155.949H85.1177L90.1741 170H87.9237L83.9513 158.501H83.8416L79.8623 170ZM80.2397 164.498H87.5395V166.281H80.2397V164.498ZM93.3901 170H91.1397L96.1962 155.949H98.6455L103.702 170H101.452L97.4791 158.501H97.3694L93.3901 170ZM93.7674 164.498H101.067V166.281H93.7674V164.498ZM110.209 155.949V170H108.082V158.076H108L104.638 160.271V158.241L108.144 155.949H110.209ZM119.341 155.949V170H117.214V158.076H117.132L113.77 160.271V158.241L117.276 155.949H119.341ZM124.521 170H122.271L127.327 155.949H129.776L134.833 170H132.582L128.61 158.501H128.5L124.521 170ZM124.898 164.498H132.198V166.281H124.898V164.498ZM148.275 170H146.024L151.081 155.949H153.53L158.587 170H156.336L152.364 158.501H152.254L148.275 170ZM148.652 164.498H155.952V166.281H148.652V164.498ZM161.803 170H159.552L164.609 155.949H167.058L172.114 170H169.864L165.892 158.501H165.782L161.803 170ZM162.18 164.498H169.48V166.281H162.18V164.498ZM175.33 170H173.08L178.136 155.949H180.586L185.642 170H183.392L179.419 158.501H179.31L175.33 170ZM175.708 164.498H183.008V166.281H175.708V164.498ZM188.858 170H186.608L191.664 155.949H194.113L199.17 170H196.919L192.947 158.501H192.837L188.858 170ZM189.235 164.498H196.535V166.281H189.235V164.498ZM216.564 155.949V170H214.437V158.076H214.354L210.993 160.271V158.241L214.499 155.949H216.564ZM221.744 170H219.493L224.55 155.949H226.999L232.055 170H229.805L225.833 158.501H225.723L221.744 170ZM222.121 164.498H229.421V166.281H222.121V164.498ZM238.563 155.949V170H236.436V158.076H236.354L232.992 160.271V158.241L236.498 155.949H238.563ZM247.695 155.949V170H245.568V158.076H245.485L242.124 160.271V158.241L245.629 155.949H247.695Z" fill="#3C1F1B"/>
<path d="M72.7599 203.728H71.6814L74.8005 195.233H75.8624L78.9814 203.728H77.903L75.3646 196.577H75.2983L72.7599 203.728ZM73.158 200.409H77.5049V201.322H73.158V200.409ZM82.0466 203.877C81.6429 203.877 81.2765 203.801 80.9475 203.649C80.6184 203.494 80.3571 203.271 80.1636 202.981C79.97 202.688 79.8732 202.334 79.8732 201.919C79.8732 201.554 79.9451 201.258 80.0889 201.032C80.2327 200.802 80.4249 200.622 80.6654 200.492C80.906 200.362 81.1714 200.266 81.4618 200.202C81.7549 200.136 82.0494 200.083 82.3453 200.044C82.7324 199.995 83.0462 199.957 83.2868 199.932C83.5301 199.905 83.7071 199.859 83.8177 199.795C83.9311 199.732 83.9878 199.621 83.9878 199.464V199.43C83.9878 199.021 83.8758 198.703 83.6518 198.477C83.4306 198.25 83.0946 198.136 82.6439 198.136C82.1766 198.136 81.8102 198.239 81.5447 198.443C81.2793 198.648 81.0926 198.866 80.9848 199.099L80.0557 198.767C80.2216 198.38 80.4428 198.078 80.7193 197.863C80.9986 197.644 81.3028 197.492 81.6318 197.406C81.9637 197.318 82.29 197.274 82.6107 197.274C82.8153 197.274 83.0504 197.299 83.3158 197.348C83.584 197.395 83.8426 197.493 84.0914 197.643C84.3431 197.792 84.5518 198.017 84.7178 198.319C84.8837 198.62 84.9666 199.024 84.9666 199.53V203.728H83.9878V202.865H83.938C83.8716 203.003 83.761 203.151 83.6062 203.309C83.4513 203.466 83.2453 203.6 82.9882 203.711C82.731 203.822 82.4171 203.877 82.0466 203.877ZM82.1959 202.998C82.5831 202.998 82.9093 202.921 83.1748 202.769C83.443 202.617 83.6449 202.421 83.7804 202.18C83.9186 201.94 83.9878 201.687 83.9878 201.421V200.525C83.9463 200.575 83.855 200.621 83.714 200.662C83.5757 200.701 83.4154 200.736 83.2329 200.766C83.0531 200.794 82.8775 200.819 82.7061 200.841C82.5374 200.86 82.4006 200.877 82.2955 200.89C82.0411 200.924 81.8033 200.978 81.5821 201.052C81.3636 201.124 81.1867 201.233 81.0512 201.38C80.9184 201.524 80.8521 201.72 80.8521 201.969C80.8521 202.309 80.9779 202.566 81.2295 202.74C81.4839 202.912 81.8061 202.998 82.1959 202.998ZM88.628 203.877C88.2243 203.877 87.8579 203.801 87.5289 203.649C87.1998 203.494 86.9385 203.271 86.745 202.981C86.5514 202.688 86.4546 202.334 86.4546 201.919C86.4546 201.554 86.5265 201.258 86.6703 201.032C86.8141 200.802 87.0063 200.622 87.2468 200.492C87.4874 200.362 87.7529 200.266 88.0432 200.202C88.3363 200.136 88.6308 200.083 88.9267 200.044C89.3138 199.995 89.6276 199.957 89.8682 199.932C90.1115 199.905 90.2885 199.859 90.3991 199.795C90.5125 199.732 90.5692 199.621 90.5692 199.464V199.43C90.5692 199.021 90.4572 198.703 90.2332 198.477C90.012 198.25 89.676 198.136 89.2253 198.136C88.758 198.136 88.3916 198.239 88.1262 198.443C87.8607 198.648 87.674 198.866 87.5662 199.099L86.6371 198.767C86.803 198.38 87.0242 198.078 87.3008 197.863C87.58 197.644 87.8842 197.492 88.2133 197.406C88.5451 197.318 88.8714 197.274 89.1921 197.274C89.3967 197.274 89.6318 197.299 89.8972 197.348C90.1654 197.395 90.424 197.493 90.6729 197.643C90.9245 197.792 91.1333 198.017 91.2992 198.319C91.4651 198.62 91.548 199.024 91.548 199.53V203.728H90.5692V202.865H90.5194C90.453 203.003 90.3424 203.151 90.1876 203.309C90.0327 203.466 89.8267 203.6 89.5696 203.711C89.3124 203.822 88.9986 203.877 88.628 203.877ZM88.7773 202.998C89.1645 202.998 89.4908 202.921 89.7562 202.769C90.0244 202.617 90.2263 202.421 90.3618 202.18C90.5 201.94 90.5692 201.687 90.5692 201.421V200.525C90.5277 200.575 90.4364 200.621 90.2954 200.662C90.1572 200.701 89.9968 200.736 89.8143 200.766C89.6345 200.794 89.459 200.819 89.2875 200.841C89.1188 200.86 88.982 200.877 88.8769 200.89C88.6225 200.924 88.3847 200.978 88.1635 201.052C87.945 201.124 87.7681 201.233 87.6326 201.38C87.4998 201.524 87.4335 201.72 87.4335 201.969C87.4335 202.309 87.5593 202.566 87.8109 202.74C88.0653 202.912 88.3875 202.998 88.7773 202.998ZM95.2094 203.877C94.8057 203.877 94.4393 203.801 94.1103 203.649C93.7812 203.494 93.5199 203.271 93.3264 202.981C93.1328 202.688 93.036 202.334 93.036 201.919C93.036 201.554 93.1079 201.258 93.2517 201.032C93.3955 200.802 93.5877 200.622 93.8282 200.492C94.0688 200.362 94.3343 200.266 94.6246 200.202C94.9177 200.136 95.2122 200.083 95.5081 200.044C95.8952 199.995 96.209 199.957 96.4496 199.932C96.6929 199.905 96.8699 199.859 96.9805 199.795C97.0939 199.732 97.1506 199.621 97.1506 199.464V199.43C97.1506 199.021 97.0386 198.703 96.8146 198.477C96.5934 198.25 96.2574 198.136 95.8067 198.136C95.3394 198.136 94.973 198.239 94.7076 198.443C94.4421 198.648 94.2555 198.866 94.1476 199.099L93.2185 198.767C93.3844 198.38 93.6056 198.078 93.8822 197.863C94.1614 197.644 94.4656 197.492 94.7947 197.406C95.1265 197.318 95.4528 197.274 95.7735 197.274C95.9781 197.274 96.2132 197.299 96.4786 197.348C96.7469 197.395 97.0054 197.493 97.2543 197.643C97.5059 197.792 97.7147 198.017 97.8806 198.319C98.0465 198.62 98.1294 199.024 98.1294 199.53V203.728H97.1506V202.865H97.1008C97.0344 203.003 96.9238 203.151 96.769 203.309C96.6141 203.466 96.4081 203.6 96.151 203.711C95.8938 203.822 95.58 203.877 95.2094 203.877ZM95.3588 202.998C95.7459 202.998 96.0722 202.921 96.3376 202.769C96.6058 202.617 96.8077 202.421 96.9432 202.18C97.0814 201.94 97.1506 201.687 97.1506 201.421V200.525C97.1091 200.575 97.0178 200.621 96.8768 200.662C96.7386 200.701 96.5782 200.736 96.3957 200.766C96.2159 200.794 96.0404 200.819 95.8689 200.841C95.7002 200.86 95.5634 200.877 95.4583 200.89C95.2039 200.924 94.9661 200.978 94.7449 201.052C94.5264 201.124 94.3495 201.233 94.214 201.38C94.0813 201.524 94.0149 201.72 94.0149 201.969C94.0149 202.309 94.1407 202.566 94.3923 202.74C94.6467 202.912 94.9689 202.998 95.3588 202.998ZM101.791 203.877C101.387 203.877 101.021 203.801 100.692 203.649C100.363 203.494 100.101 203.271 99.9078 202.981C99.7142 202.688 99.6174 202.334 99.6174 201.919C99.6174 201.554 99.6893 201.258 99.8331 201.032C99.9769 200.802 100.169 200.622 100.41 200.492C100.65 200.362 100.916 200.266 101.206 200.202C101.499 200.136 101.794 200.083 102.089 200.044C102.477 199.995 102.79 199.957 103.031 199.932C103.274 199.905 103.451 199.859 103.562 199.795C103.675 199.732 103.732 199.621 103.732 199.464V199.43C103.732 199.021 103.62 198.703 103.396 198.477C103.175 198.25 102.839 198.136 102.388 198.136C101.921 198.136 101.554 198.239 101.289 198.443C101.024 198.648 100.837 198.866 100.729 199.099L99.7999 198.767C99.9658 198.38 100.187 198.078 100.464 197.863C100.743 197.644 101.047 197.492 101.376 197.406C101.708 197.318 102.034 197.274 102.355 197.274C102.56 197.274 102.795 197.299 103.06 197.348C103.328 197.395 103.587 197.493 103.836 197.643C104.087 197.792 104.296 198.017 104.462 198.319C104.628 198.62 104.711 199.024 104.711 199.53V203.728H103.732V202.865H103.682C103.616 203.003 103.505 203.151 103.35 203.309C103.196 203.466 102.99 203.6 102.732 203.711C102.475 203.822 102.161 203.877 101.791 203.877ZM101.94 202.998C102.327 202.998 102.654 202.921 102.919 202.769C103.187 202.617 103.389 202.421 103.525 202.18C103.663 201.94 103.732 201.687 103.732 201.421V200.525C103.69 200.575 103.599 200.621 103.458 200.662C103.32 200.701 103.16 200.736 102.977 200.766C102.797 200.794 102.622 200.819 102.45 200.841C102.282 200.86 102.145 200.877 102.04 200.89C101.785 200.924 101.548 200.978 101.326 201.052C101.108 201.124 100.931 201.233 100.795 201.38C100.663 201.524 100.596 201.72 100.596 201.969C100.596 202.309 100.722 202.566 100.974 202.74C101.228 202.912 101.55 202.998 101.94 202.998ZM108.372 203.877C107.969 203.877 107.602 203.801 107.273 203.649C106.944 203.494 106.683 203.271 106.489 202.981C106.296 202.688 106.199 202.334 106.199 201.919C106.199 201.554 106.271 201.258 106.415 201.032C106.558 200.802 106.75 200.622 106.991 200.492C107.232 200.362 107.497 200.266 107.787 200.202C108.081 200.136 108.375 200.083 108.671 200.044C109.058 199.995 109.372 199.957 109.612 199.932C109.856 199.905 110.033 199.859 110.143 199.795C110.257 199.732 110.313 199.621 110.313 199.464V199.43C110.313 199.021 110.201 198.703 109.977 198.477C109.756 198.25 109.42 198.136 108.97 198.136C108.502 198.136 108.136 198.239 107.87 198.443C107.605 198.648 107.418 198.866 107.31 199.099L106.381 198.767C106.547 198.38 106.768 198.078 107.045 197.863C107.324 197.644 107.628 197.492 107.957 197.406C108.289 197.318 108.616 197.274 108.936 197.274C109.141 197.274 109.376 197.299 109.641 197.348C109.91 197.395 110.168 197.493 110.417 197.643C110.669 197.792 110.877 198.017 111.043 198.319C111.209 198.62 111.292 199.024 111.292 199.53V203.728H110.313V202.865H110.264C110.197 203.003 110.087 203.151 109.932 203.309C109.777 203.466 109.571 203.6 109.314 203.711C109.057 203.822 108.743 203.877 108.372 203.877ZM108.522 202.998C108.909 202.998 109.235 202.921 109.5 202.769C109.769 202.617 109.971 202.421 110.106 202.18C110.244 201.94 110.313 201.687 110.313 201.421V200.525C110.272 200.575 110.181 200.621 110.04 200.662C109.901 200.701 109.741 200.736 109.558 200.766C109.379 200.794 109.203 200.819 109.032 200.841C108.863 200.86 108.726 200.877 108.621 200.89C108.367 200.924 108.129 200.978 107.908 201.052C107.689 201.124 107.512 201.233 107.377 201.38C107.244 201.524 107.178 201.72 107.178 201.969C107.178 202.309 107.304 202.566 107.555 202.74C107.81 202.912 108.132 202.998 108.522 202.998ZM114.954 203.877C114.55 203.877 114.184 203.801 113.855 203.649C113.525 203.494 113.264 203.271 113.071 202.981C112.877 202.688 112.78 202.334 112.78 201.919C112.78 201.554 112.852 201.258 112.996 201.032C113.14 200.802 113.332 200.622 113.572 200.492C113.813 200.362 114.078 200.266 114.369 200.202C114.662 200.136 114.956 200.083 115.252 200.044C115.639 199.995 115.953 199.957 116.194 199.932C116.437 199.905 116.614 199.859 116.725 199.795C116.838 199.732 116.895 199.621 116.895 199.464V199.43C116.895 199.021 116.783 198.703 116.559 198.477C116.338 198.25 116.002 198.136 115.551 198.136C115.084 198.136 114.717 198.239 114.452 198.443C114.186 198.648 114 198.866 113.892 199.099L112.963 198.767C113.129 198.38 113.35 198.078 113.626 197.863C113.906 197.644 114.21 197.492 114.539 197.406C114.871 197.318 115.197 197.274 115.518 197.274C115.722 197.274 115.957 197.299 116.223 197.348C116.491 197.395 116.75 197.493 116.998 197.643C117.25 197.792 117.459 198.017 117.625 198.319C117.791 198.62 117.874 199.024 117.874 199.53V203.728H116.895V202.865H116.845C116.779 203.003 116.668 203.151 116.513 203.309C116.358 203.466 116.152 203.6 115.895 203.711C115.638 203.822 115.324 203.877 114.954 203.877ZM115.103 202.998C115.49 202.998 115.816 202.921 116.082 202.769C116.35 202.617 116.552 202.421 116.687 202.18C116.826 201.94 116.895 201.687 116.895 201.421V200.525C116.853 200.575 116.762 200.621 116.621 200.662C116.483 200.701 116.322 200.736 116.14 200.766C115.96 200.794 115.785 200.819 115.613 200.841C115.444 200.86 115.308 200.877 115.203 200.89C114.948 200.924 114.71 200.978 114.489 201.052C114.271 201.124 114.094 201.233 113.958 201.38C113.825 201.524 113.759 201.72 113.759 201.969C113.759 202.309 113.885 202.566 114.137 202.74C114.391 202.912 114.713 202.998 115.103 202.998ZM121.535 203.877C121.131 203.877 120.765 203.801 120.436 203.649C120.107 203.494 119.846 203.271 119.652 202.981C119.458 202.688 119.362 202.334 119.362 201.919C119.362 201.554 119.434 201.258 119.577 201.032C119.721 200.802 119.913 200.622 120.154 200.492C120.394 200.362 120.66 200.266 120.95 200.202C121.243 200.136 121.538 200.083 121.834 200.044C122.221 199.995 122.535 199.957 122.775 199.932C123.019 199.905 123.196 199.859 123.306 199.795C123.42 199.732 123.476 199.621 123.476 199.464V199.43C123.476 199.021 123.364 198.703 123.14 198.477C122.919 198.25 122.583 198.136 122.132 198.136C121.665 198.136 121.299 198.239 121.033 198.443C120.768 198.648 120.581 198.866 120.473 199.099L119.544 198.767C119.71 198.38 119.931 198.078 120.208 197.863C120.487 197.644 120.791 197.492 121.12 197.406C121.452 197.318 121.778 197.274 122.099 197.274C122.304 197.274 122.539 197.299 122.804 197.348C123.072 197.395 123.331 197.493 123.58 197.643C123.832 197.792 124.04 198.017 124.206 198.319C124.372 198.62 124.455 199.024 124.455 199.53V203.728H123.476V202.865H123.426C123.36 203.003 123.249 203.151 123.095 203.309C122.94 203.466 122.734 203.6 122.477 203.711C122.219 203.822 121.906 203.877 121.535 203.877ZM121.684 202.998C122.071 202.998 122.398 202.921 122.663 202.769C122.931 202.617 123.133 202.421 123.269 202.18C123.407 201.94 123.476 201.687 123.476 201.421V200.525C123.435 200.575 123.343 200.621 123.202 200.662C123.064 200.701 122.904 200.736 122.721 200.766C122.542 200.794 122.366 200.819 122.195 200.841C122.026 200.86 121.889 200.877 121.784 200.89C121.53 200.924 121.292 200.978 121.071 201.052C120.852 201.124 120.675 201.233 120.54 201.38C120.407 201.524 120.341 201.72 120.341 201.969C120.341 202.309 120.466 202.566 120.718 202.74C120.972 202.912 121.294 202.998 121.684 202.998ZM128.116 203.877C127.713 203.877 127.346 203.801 127.017 203.649C126.688 203.494 126.427 203.271 126.233 202.981C126.04 202.688 125.943 202.334 125.943 201.919C125.943 201.554 126.015 201.258 126.159 201.032C126.303 200.802 126.495 200.622 126.735 200.492C126.976 200.362 127.241 200.266 127.532 200.202C127.825 200.136 128.119 200.083 128.415 200.044C128.802 199.995 129.116 199.957 129.357 199.932C129.6 199.905 129.777 199.859 129.888 199.795C130.001 199.732 130.058 199.621 130.058 199.464V199.43C130.058 199.021 129.946 198.703 129.722 198.477C129.5 198.25 129.164 198.136 128.714 198.136C128.246 198.136 127.88 198.239 127.615 198.443C127.349 198.648 127.162 198.866 127.055 199.099L126.126 198.767C126.291 198.38 126.513 198.078 126.789 197.863C127.068 197.644 127.373 197.492 127.702 197.406C128.034 197.318 128.36 197.274 128.681 197.274C128.885 197.274 129.12 197.299 129.386 197.348C129.654 197.395 129.912 197.493 130.161 197.643C130.413 197.792 130.622 198.017 130.788 198.319C130.954 198.62 131.036 199.024 131.036 199.53V203.728H130.058V202.865H130.008C129.941 203.003 129.831 203.151 129.676 203.309C129.521 203.466 129.315 203.6 129.058 203.711C128.801 203.822 128.487 203.877 128.116 203.877ZM128.266 202.998C128.653 202.998 128.979 202.921 129.245 202.769C129.513 202.617 129.715 202.421 129.85 202.18C129.988 201.94 130.058 201.687 130.058 201.421V200.525C130.016 200.575 129.925 200.621 129.784 200.662C129.646 200.701 129.485 200.736 129.303 200.766C129.123 200.794 128.947 200.819 128.776 200.841C128.607 200.86 128.47 200.877 128.365 200.89C128.111 200.924 127.873 200.978 127.652 201.052C127.433 201.124 127.257 201.233 127.121 201.38C126.988 201.524 126.922 201.72 126.922 201.969C126.922 202.309 127.048 202.566 127.299 202.74C127.554 202.912 127.876 202.998 128.266 202.998ZM134.698 203.877C134.294 203.877 133.928 203.801 133.599 203.649C133.27 203.494 133.008 203.271 132.815 202.981C132.621 202.688 132.524 202.334 132.524 201.919C132.524 201.554 132.596 201.258 132.74 201.032C132.884 200.802 133.076 200.622 133.317 200.492C133.557 200.362 133.823 200.266 134.113 200.202C134.406 200.136 134.701 200.083 134.997 200.044C135.384 199.995 135.697 199.957 135.938 199.932C136.181 199.905 136.358 199.859 136.469 199.795C136.582 199.732 136.639 199.621 136.639 199.464V199.43C136.639 199.021 136.527 198.703 136.303 198.477C136.082 198.25 135.746 198.136 135.295 198.136C134.828 198.136 134.461 198.239 134.196 198.443C133.931 198.648 133.744 198.866 133.636 199.099L132.707 198.767C132.873 198.38 133.094 198.078 133.371 197.863C133.65 197.644 133.954 197.492 134.283 197.406C134.615 197.318 134.941 197.274 135.262 197.274C135.467 197.274 135.702 197.299 135.967 197.348C136.235 197.395 136.494 197.493 136.743 197.643C136.994 197.792 137.203 198.017 137.369 198.319C137.535 198.62 137.618 199.024 137.618 199.53V203.728H136.639V202.865H136.589C136.523 203.003 136.412 203.151 136.257 203.309C136.103 203.466 135.897 203.6 135.639 203.711C135.382 203.822 135.068 203.877 134.698 203.877ZM134.847 202.998C135.234 202.998 135.561 202.921 135.826 202.769C136.094 202.617 136.296 202.421 136.432 202.18C136.57 201.94 136.639 201.687 136.639 201.421V200.525C136.598 200.575 136.506 200.621 136.365 200.662C136.227 200.701 136.067 200.736 135.884 200.766C135.704 200.794 135.529 200.819 135.357 200.841C135.189 200.86 135.052 200.877 134.947 200.89C134.692 200.924 134.455 200.978 134.233 201.052C134.015 201.124 133.838 201.233 133.702 201.38C133.57 201.524 133.503 201.72 133.503 201.969C133.503 202.309 133.629 202.566 133.881 202.74C134.135 202.912 134.457 202.998 134.847 202.998ZM141.279 203.877C140.876 203.877 140.509 203.801 140.18 203.649C139.851 203.494 139.59 203.271 139.396 202.981C139.203 202.688 139.106 202.334 139.106 201.919C139.106 201.554 139.178 201.258 139.322 201.032C139.465 200.802 139.658 200.622 139.898 200.492C140.139 200.362 140.404 200.266 140.694 200.202C140.988 200.136 141.282 200.083 141.578 200.044C141.965 199.995 142.279 199.957 142.519 199.932C142.763 199.905 142.94 199.859 143.05 199.795C143.164 199.732 143.22 199.621 143.22 199.464V199.43C143.22 199.021 143.108 198.703 142.884 198.477C142.663 198.25 142.327 198.136 141.877 198.136C141.409 198.136 141.043 198.239 140.777 198.443C140.512 198.648 140.325 198.866 140.217 199.099L139.288 198.767C139.454 198.38 139.675 198.078 139.952 197.863C140.231 197.644 140.535 197.492 140.865 197.406C141.196 197.318 141.523 197.274 141.843 197.274C142.048 197.274 142.283 197.299 142.548 197.348C142.817 197.395 143.075 197.493 143.324 197.643C143.576 197.792 143.785 198.017 143.95 198.319C144.116 198.62 144.199 199.024 144.199 199.53V203.728H143.22V202.865H143.171C143.104 203.003 142.994 203.151 142.839 203.309C142.684 203.466 142.478 203.6 142.221 203.711C141.964 203.822 141.65 203.877 141.279 203.877ZM141.429 202.998C141.816 202.998 142.142 202.921 142.407 202.769C142.676 202.617 142.878 202.421 143.013 202.18C143.151 201.94 143.22 201.687 143.22 201.421V200.525C143.179 200.575 143.088 200.621 142.947 200.662C142.808 200.701 142.648 200.736 142.466 200.766C142.286 200.794 142.11 200.819 141.939 200.841C141.77 200.86 141.633 200.877 141.528 200.89C141.274 200.924 141.036 200.978 140.815 201.052C140.596 201.124 140.419 201.233 140.284 201.38C140.151 201.524 140.085 201.72 140.085 201.969C140.085 202.309 140.211 202.566 140.462 202.74C140.717 202.912 141.039 202.998 141.429 202.998Z" fill="#3C1F1B"/>
<path d="M74.1535 193.676C73.7498 193.676 73.3834 193.6 73.0543 193.448C72.7253 193.293 72.464 193.071 72.2704 192.78C72.0769 192.487 71.9801 192.133 71.9801 191.719C71.9801 191.354 72.052 191.058 72.1958 190.831C72.3396 190.601 72.5317 190.422 72.7723 190.292C73.0129 190.162 73.2783 190.065 73.5687 190.001C73.8618 189.935 74.1563 189.882 74.4521 189.844C74.8393 189.794 75.1531 189.757 75.3937 189.732C75.637 189.704 75.814 189.658 75.9246 189.595C76.0379 189.531 76.0946 189.421 76.0946 189.263V189.23C76.0946 188.821 75.9826 188.503 75.7587 188.276C75.5375 188.049 75.2015 187.936 74.7508 187.936C74.2835 187.936 73.9171 188.038 73.6516 188.243C73.3862 188.447 73.1995 188.666 73.0917 188.898L72.1626 188.566C72.3285 188.179 72.5497 187.878 72.8262 187.662C73.1055 187.444 73.4097 187.292 73.7387 187.206C74.0705 187.117 74.3968 187.073 74.7176 187.073C74.9222 187.073 75.1572 187.098 75.4227 187.148C75.6909 187.195 75.9495 187.293 76.1983 187.442C76.45 187.592 76.6587 187.817 76.8246 188.118C76.9905 188.42 77.0735 188.823 77.0735 189.329V193.527H76.0946V192.664H76.0449C75.9785 192.802 75.8679 192.95 75.713 193.108C75.5582 193.266 75.3522 193.4 75.095 193.51C74.8379 193.621 74.524 193.676 74.1535 193.676ZM74.3028 192.797C74.6899 192.797 75.0162 192.721 75.2817 192.569C75.5499 192.417 75.7518 192.22 75.8872 191.98C76.0255 191.739 76.0946 191.486 76.0946 191.221V190.325C76.0532 190.375 75.9619 190.42 75.8209 190.462C75.6826 190.5 75.5222 190.535 75.3397 190.565C75.16 190.593 74.9844 190.618 74.813 190.64C74.6443 190.659 74.5074 190.676 74.4024 190.69C74.148 190.723 73.9102 190.777 73.6889 190.852C73.4705 190.924 73.2935 191.033 73.158 191.179C73.0253 191.323 72.9589 191.519 72.9589 191.768C72.9589 192.108 73.0848 192.366 73.3364 192.54C73.5908 192.711 73.9129 192.797 74.3028 192.797ZM80.7349 193.676C80.3312 193.676 79.9648 193.6 79.6358 193.448C79.3067 193.293 79.0454 193.071 78.8518 192.78C78.6583 192.487 78.5615 192.133 78.5615 191.719C78.5615 191.354 78.6334 191.058 78.7772 190.831C78.921 190.601 79.1131 190.422 79.3537 190.292C79.5943 190.162 79.8597 190.065 80.1501 190.001C80.4432 189.935 80.7377 189.882 81.0335 189.844C81.4207 189.794 81.7345 189.757 81.9751 189.732C82.2184 189.704 82.3954 189.658 82.506 189.595C82.6194 189.531 82.676 189.421 82.676 189.263V189.23C82.676 188.821 82.564 188.503 82.3401 188.276C82.1189 188.049 81.7829 187.936 81.3322 187.936C80.8649 187.936 80.4985 188.038 80.233 188.243C79.9676 188.447 79.7809 188.666 79.6731 188.898L78.744 188.566C78.9099 188.179 79.1311 187.878 79.4076 187.662C79.6869 187.444 79.9911 187.292 80.3201 187.206C80.6519 187.117 80.9782 187.073 81.299 187.073C81.5036 187.073 81.7387 187.098 82.0041 187.148C82.2723 187.195 82.5309 187.293 82.7797 187.442C83.0314 187.592 83.2401 187.817 83.406 188.118C83.5719 188.42 83.6549 188.823 83.6549 189.329V193.527H82.676V192.664H82.6263C82.5599 192.802 82.4493 192.95 82.2944 193.108C82.1396 193.266 81.9336 193.4 81.6764 193.51C81.4193 193.621 81.1054 193.676 80.7349 193.676ZM80.8842 192.797C81.2713 192.797 81.5976 192.721 81.8631 192.569C82.1313 192.417 82.3332 192.22 82.4687 191.98C82.6069 191.739 82.676 191.486 82.676 191.221V190.325C82.6346 190.375 82.5433 190.42 82.4023 190.462C82.264 190.5 82.1037 190.535 81.9212 190.565C81.7414 190.593 81.5658 190.618 81.3944 190.64C81.2257 190.659 81.0888 190.676 80.9838 190.69C80.7294 190.723 80.4916 190.777 80.2704 190.852C80.0519 190.924 79.8749 191.033 79.7394 191.179C79.6067 191.323 79.5404 191.519 79.5404 191.768C79.5404 192.108 79.6662 192.366 79.9178 192.54C80.1722 192.711 80.4943 192.797 80.8842 192.797ZM87.3163 193.676C86.9126 193.676 86.5462 193.6 86.2172 193.448C85.8881 193.293 85.6268 193.071 85.4332 192.78C85.2397 192.487 85.1429 192.133 85.1429 191.719C85.1429 191.354 85.2148 191.058 85.3586 190.831C85.5024 190.601 85.6945 190.422 85.9351 190.292C86.1757 190.162 86.4411 190.065 86.7315 190.001C87.0246 189.935 87.3191 189.882 87.6149 189.844C88.0021 189.794 88.3159 189.757 88.5565 189.732C88.7998 189.704 88.9768 189.658 89.0874 189.595C89.2008 189.531 89.2574 189.421 89.2574 189.263V189.23C89.2574 188.821 89.1455 188.503 88.9215 188.276C88.7003 188.049 88.3643 187.936 87.9136 187.936C87.4463 187.936 87.0799 188.038 86.8144 188.243C86.549 188.447 86.3623 188.666 86.2545 188.898L85.3254 188.566C85.4913 188.179 85.7125 187.878 85.989 187.662C86.2683 187.444 86.5725 187.292 86.9015 187.206C87.2334 187.117 87.5596 187.073 87.8804 187.073C88.085 187.073 88.3201 187.098 88.5855 187.148C88.8537 187.195 89.1123 187.293 89.3611 187.442C89.6128 187.592 89.8215 187.817 89.9874 188.118C90.1534 188.42 90.2363 188.823 90.2363 189.329V193.527H89.2574V192.664H89.2077C89.1413 192.802 89.0307 192.95 88.8759 193.108C88.721 193.266 88.515 193.4 88.2578 193.51C88.0007 193.621 87.6868 193.676 87.3163 193.676ZM87.4656 192.797C87.8527 192.797 88.179 192.721 88.4445 192.569C88.7127 192.417 88.9146 192.22 89.0501 191.98C89.1883 191.739 89.2574 191.486 89.2574 191.221V190.325C89.216 190.375 89.1247 190.42 88.9837 190.462C88.8454 190.5 88.6851 190.535 88.5026 190.565C88.3228 190.593 88.1472 190.618 87.9758 190.64C87.8071 190.659 87.6702 190.676 87.5652 190.69C87.3108 190.723 87.073 190.777 86.8518 190.852C86.6333 190.924 86.4563 191.033 86.3209 191.179C86.1881 191.323 86.1218 191.519 86.1218 191.768C86.1218 192.108 86.2476 192.366 86.4992 192.54C86.7536 192.711 87.0757 192.797 87.4656 192.797ZM93.8977 193.676C93.494 193.676 93.1276 193.6 92.7986 193.448C92.4695 193.293 92.2082 193.071 92.0146 192.78C91.8211 192.487 91.7243 192.133 91.7243 191.719C91.7243 191.354 91.7962 191.058 91.94 190.831C92.0838 190.601 92.276 190.422 92.5165 190.292C92.7571 190.162 93.0225 190.065 93.3129 190.001C93.606 189.935 93.9005 189.882 94.1964 189.844C94.5835 189.794 94.8973 189.757 95.1379 189.732C95.3812 189.704 95.5582 189.658 95.6688 189.595C95.7822 189.531 95.8389 189.421 95.8389 189.263V189.23C95.8389 188.821 95.7269 188.503 95.5029 188.276C95.2817 188.049 94.9457 187.936 94.495 187.936C94.0277 187.936 93.6613 188.038 93.3958 188.243C93.1304 188.447 92.9437 188.666 92.8359 188.898L91.9068 188.566C92.0727 188.179 92.2939 187.878 92.5704 187.662C92.8497 187.444 93.1539 187.292 93.4829 187.206C93.8148 187.117 94.141 187.073 94.4618 187.073C94.6664 187.073 94.9015 187.098 95.1669 187.148C95.4351 187.195 95.6937 187.293 95.9425 187.442C96.1942 187.592 96.4029 187.817 96.5689 188.118C96.7348 188.42 96.8177 188.823 96.8177 189.329V193.527H95.8389V192.664H95.7891C95.7227 192.802 95.6121 192.95 95.4573 193.108C95.3024 193.266 95.0964 193.4 94.8392 193.51C94.5821 193.621 94.2682 193.676 93.8977 193.676ZM94.047 192.797C94.4342 192.797 94.7604 192.721 95.0259 192.569C95.2941 192.417 95.496 192.22 95.6315 191.98C95.7697 191.739 95.8389 191.486 95.8389 191.221V190.325C95.7974 190.375 95.7061 190.42 95.5651 190.462C95.4268 190.5 95.2665 190.535 95.084 190.565C94.9042 190.593 94.7286 190.618 94.5572 190.64C94.3885 190.659 94.2517 190.676 94.1466 190.69C93.8922 190.723 93.6544 190.777 93.4332 190.852C93.2147 190.924 93.0378 191.033 92.9023 191.179C92.7695 191.323 92.7032 191.519 92.7032 191.768C92.7032 192.108 92.829 192.366 93.0806 192.54C93.335 192.711 93.6571 192.797 94.047 192.797ZM100.479 193.676C100.075 193.676 99.709 193.6 99.38 193.448C99.0509 193.293 98.7896 193.071 98.5961 192.78C98.4025 192.487 98.3057 192.133 98.3057 191.719C98.3057 191.354 98.3776 191.058 98.5214 190.831C98.6652 190.601 98.8574 190.422 99.0979 190.292C99.3385 190.162 99.604 190.065 99.8943 190.001C100.187 189.935 100.482 189.882 100.778 189.844C101.165 189.794 101.479 189.757 101.719 189.732C101.963 189.704 102.14 189.658 102.25 189.595C102.364 189.531 102.42 189.421 102.42 189.263V189.23C102.42 188.821 102.308 188.503 102.084 188.276C101.863 188.049 101.527 187.936 101.076 187.936C100.609 187.936 100.243 188.038 99.9772 188.243C99.7118 188.447 99.5251 188.666 99.4173 188.898L98.4882 188.566C98.6541 188.179 98.8753 187.878 99.1518 187.662C99.4311 187.444 99.7353 187.292 100.064 187.206C100.396 187.117 100.722 187.073 101.043 187.073C101.248 187.073 101.483 187.098 101.748 187.148C102.017 187.195 102.275 187.293 102.524 187.442C102.776 187.592 102.984 187.817 103.15 188.118C103.316 188.42 103.399 188.823 103.399 189.329V193.527H102.42V192.664H102.37C102.304 192.802 102.194 192.95 102.039 193.108C101.884 193.266 101.678 193.4 101.421 193.51C101.163 193.621 100.85 193.676 100.479 193.676ZM100.628 192.797C101.016 192.797 101.342 192.721 101.607 192.569C101.876 192.417 102.077 192.22 102.213 191.98C102.351 191.739 102.42 191.486 102.42 191.221V190.325C102.379 190.375 102.288 190.42 102.147 190.462C102.008 190.5 101.848 190.535 101.665 190.565C101.486 190.593 101.31 190.618 101.139 190.64C100.97 190.659 100.833 190.676 100.728 190.69C100.474 190.723 100.236 190.777 100.015 190.852C99.7961 190.924 99.6192 191.033 99.4837 191.179C99.3509 191.323 99.2846 191.519 99.2846 191.768C99.2846 192.108 99.4104 192.366 99.662 192.54C99.9164 192.711 100.239 192.797 100.628 192.797ZM110.346 193.676C109.942 193.676 109.575 193.6 109.246 193.448C108.917 193.293 108.656 193.071 108.462 192.78C108.269 192.487 108.172 192.133 108.172 191.719C108.172 191.354 108.244 191.058 108.388 190.831C108.532 190.601 108.724 190.422 108.964 190.292C109.205 190.162 109.47 190.065 109.761 190.001C110.054 189.935 110.348 189.882 110.644 189.844C111.031 189.794 111.345 189.757 111.586 189.732C111.829 189.704 112.006 189.658 112.117 189.595C112.23 189.531 112.287 189.421 112.287 189.263V189.23C112.287 188.821 112.175 188.503 111.951 188.276C111.729 188.049 111.394 187.936 110.943 187.936C110.475 187.936 110.109 188.038 109.844 188.243C109.578 188.447 109.392 188.666 109.284 188.898L108.355 188.566C108.521 188.179 108.742 187.878 109.018 187.662C109.298 187.444 109.602 187.292 109.931 187.206C110.263 187.117 110.589 187.073 110.91 187.073C111.114 187.073 111.349 187.098 111.615 187.148C111.883 187.195 112.141 187.293 112.39 187.442C112.642 187.592 112.851 187.817 113.017 188.118C113.183 188.42 113.266 188.823 113.266 189.329V193.527H112.287V192.664H112.237C112.171 192.802 112.06 192.95 111.905 193.108C111.75 193.266 111.544 193.4 111.287 193.51C111.03 193.621 110.716 193.676 110.346 193.676ZM110.495 192.797C110.882 192.797 111.208 192.721 111.474 192.569C111.742 192.417 111.944 192.22 112.079 191.98C112.218 191.739 112.287 191.486 112.287 191.221V190.325C112.245 190.375 112.154 190.42 112.013 190.462C111.875 190.5 111.714 190.535 111.532 190.565C111.352 190.593 111.176 190.618 111.005 190.64C110.836 190.659 110.699 190.676 110.594 190.69C110.34 190.723 110.102 190.777 109.881 190.852C109.663 190.924 109.486 191.033 109.35 191.179C109.217 191.323 109.151 191.519 109.151 191.768C109.151 192.108 109.277 192.366 109.528 192.54C109.783 192.711 110.105 192.797 110.495 192.797ZM116.927 193.676C116.523 193.676 116.157 193.6 115.828 193.448C115.499 193.293 115.237 193.071 115.044 192.78C114.85 192.487 114.754 192.133 114.754 191.719C114.754 191.354 114.825 191.058 114.969 190.831C115.113 190.601 115.305 190.422 115.546 190.292C115.786 190.162 116.052 190.065 116.342 190.001C116.635 189.935 116.93 189.882 117.226 189.844C117.613 189.794 117.927 189.757 118.167 189.732C118.41 189.704 118.587 189.658 118.698 189.595C118.811 189.531 118.868 189.421 118.868 189.263V189.23C118.868 188.821 118.756 188.503 118.532 188.276C118.311 188.049 117.975 187.936 117.524 187.936C117.057 187.936 116.691 188.038 116.425 188.243C116.16 188.447 115.973 188.666 115.865 188.898L114.936 188.566C115.102 188.179 115.323 187.878 115.6 187.662C115.879 187.444 116.183 187.292 116.512 187.206C116.844 187.117 117.17 187.073 117.491 187.073C117.696 187.073 117.931 187.098 118.196 187.148C118.464 187.195 118.723 187.293 118.972 187.442C119.223 187.592 119.432 187.817 119.598 188.118C119.764 188.42 119.847 188.823 119.847 189.329V193.527H118.868V192.664H118.818C118.752 192.802 118.641 192.95 118.486 193.108C118.332 193.266 118.126 193.4 117.868 193.51C117.611 193.621 117.297 193.676 116.927 193.676ZM117.076 192.797C117.463 192.797 117.79 192.721 118.055 192.569C118.323 192.417 118.525 192.22 118.661 191.98C118.799 191.739 118.868 191.486 118.868 191.221V190.325C118.827 190.375 118.735 190.42 118.594 190.462C118.456 190.5 118.296 190.535 118.113 190.565C117.933 190.593 117.758 190.618 117.586 190.64C117.418 190.659 117.281 190.676 117.176 190.69C116.921 190.723 116.684 190.777 116.462 190.852C116.244 190.924 116.067 191.033 115.931 191.179C115.799 191.323 115.732 191.519 115.732 191.768C115.732 192.108 115.858 192.366 116.11 192.54C116.364 192.711 116.686 192.797 117.076 192.797ZM123.508 193.676C123.105 193.676 122.738 193.6 122.409 193.448C122.08 193.293 121.819 193.071 121.625 192.78C121.432 192.487 121.335 192.133 121.335 191.719C121.335 191.354 121.407 191.058 121.551 190.831C121.694 190.601 121.887 190.422 122.127 190.292C122.368 190.162 122.633 190.065 122.924 190.001C123.217 189.935 123.511 189.882 123.807 189.844C124.194 189.794 124.508 189.757 124.749 189.732C124.992 189.704 125.169 189.658 125.279 189.595C125.393 189.531 125.449 189.421 125.449 189.263V189.23C125.449 188.821 125.337 188.503 125.114 188.276C124.892 188.049 124.556 187.936 124.106 187.936C123.638 187.936 123.272 188.038 123.006 188.243C122.741 188.447 122.554 188.666 122.447 188.898L121.517 188.566C121.683 188.179 121.905 187.878 122.181 187.662C122.46 187.444 122.765 187.292 123.094 187.206C123.425 187.117 123.752 187.073 124.072 187.073C124.277 187.073 124.512 187.098 124.778 187.148C125.046 187.195 125.304 187.293 125.553 187.442C125.805 187.592 126.014 187.817 126.179 188.118C126.345 188.42 126.428 188.823 126.428 189.329V193.527H125.449V192.664H125.4C125.333 192.802 125.223 192.95 125.068 193.108C124.913 193.266 124.707 193.4 124.45 193.51C124.193 193.621 123.879 193.676 123.508 193.676ZM123.658 192.797C124.045 192.797 124.371 192.721 124.637 192.569C124.905 192.417 125.107 192.22 125.242 191.98C125.38 191.739 125.449 191.486 125.449 191.221V190.325C125.408 190.375 125.317 190.42 125.176 190.462C125.037 190.5 124.877 190.535 124.695 190.565C124.515 190.593 124.339 190.618 124.168 190.64C123.999 190.659 123.862 190.676 123.757 190.69C123.503 190.723 123.265 190.777 123.044 190.852C122.825 190.924 122.648 191.033 122.513 191.179C122.38 191.323 122.314 191.519 122.314 191.768C122.314 192.108 122.44 192.366 122.691 192.54C122.946 192.711 123.268 192.797 123.658 192.797ZM133.375 193.676C132.971 193.676 132.605 193.6 132.276 193.448C131.947 193.293 131.685 193.071 131.492 192.78C131.298 192.487 131.201 192.133 131.201 191.719C131.201 191.354 131.273 191.058 131.417 190.831C131.561 190.601 131.753 190.422 131.994 190.292C132.234 190.162 132.5 190.065 132.79 190.001C133.083 189.935 133.378 189.882 133.673 189.844C134.061 189.794 134.374 189.757 134.615 189.732C134.858 189.704 135.035 189.658 135.146 189.595C135.259 189.531 135.316 189.421 135.316 189.263V189.23C135.316 188.821 135.204 188.503 134.98 188.276C134.759 188.049 134.423 187.936 133.972 187.936C133.505 187.936 133.138 188.038 132.873 188.243C132.607 188.447 132.421 188.666 132.313 188.898L131.384 188.566C131.55 188.179 131.771 187.878 132.047 187.662C132.327 187.444 132.631 187.292 132.96 187.206C133.292 187.117 133.618 187.073 133.939 187.073C134.143 187.073 134.378 187.098 134.644 187.148C134.912 187.195 135.171 187.293 135.42 187.442C135.671 187.592 135.88 187.817 136.046 188.118C136.212 188.42 136.295 188.823 136.295 189.329V193.527H135.316V192.664H135.266C135.2 192.802 135.089 192.95 134.934 193.108C134.779 193.266 134.573 193.4 134.316 193.51C134.059 193.621 133.745 193.676 133.375 193.676ZM133.524 192.797C133.911 192.797 134.237 192.721 134.503 192.569C134.771 192.417 134.973 192.22 135.108 191.98C135.247 191.739 135.316 191.486 135.316 191.221V190.325C135.274 190.375 135.183 190.42 135.042 190.462C134.904 190.5 134.743 190.535 134.561 190.565C134.381 190.593 134.206 190.618 134.034 190.64C133.866 190.659 133.729 190.676 133.624 190.69C133.369 190.723 133.131 190.777 132.91 190.852C132.692 190.924 132.515 191.033 132.379 191.179C132.247 191.323 132.18 191.519 132.18 191.768C132.18 192.108 132.306 192.366 132.558 192.54C132.812 192.711 133.134 192.797 133.524 192.797ZM139.956 193.676C139.552 193.676 139.186 193.6 138.857 193.448C138.528 193.293 138.267 193.071 138.073 192.78C137.88 192.487 137.783 192.133 137.783 191.719C137.783 191.354 137.855 191.058 137.998 190.831C138.142 190.601 138.334 190.422 138.575 190.292C138.816 190.162 139.081 190.065 139.371 190.001C139.664 189.935 139.959 189.882 140.255 189.844C140.642 189.794 140.956 189.757 141.196 189.732C141.44 189.704 141.617 189.658 141.727 189.595C141.841 189.531 141.897 189.421 141.897 189.263V189.23C141.897 188.821 141.785 188.503 141.561 188.276C141.34 188.049 141.004 187.936 140.553 187.936C140.086 187.936 139.72 188.038 139.454 188.243C139.189 188.447 139.002 188.666 138.894 188.898L137.965 188.566C138.131 188.179 138.352 187.878 138.629 187.662C138.908 187.444 139.212 187.292 139.541 187.206C139.873 187.117 140.199 187.073 140.52 187.073C140.725 187.073 140.96 187.098 141.225 187.148C141.494 187.195 141.752 187.293 142.001 187.442C142.253 187.592 142.461 187.817 142.627 188.118C142.793 188.42 142.876 188.823 142.876 189.329V193.527H141.897V192.664H141.848C141.781 192.802 141.671 192.95 141.516 193.108C141.361 193.266 141.155 193.4 140.898 193.51C140.641 193.621 140.327 193.676 139.956 193.676ZM140.105 192.797C140.493 192.797 140.819 192.721 141.084 192.569C141.353 192.417 141.554 192.22 141.69 191.98C141.828 191.739 141.897 191.486 141.897 191.221V190.325C141.856 190.375 141.765 190.42 141.624 190.462C141.485 190.5 141.325 190.535 141.142 190.565C140.963 190.593 140.787 190.618 140.616 190.64C140.447 190.659 140.31 190.676 140.205 190.69C139.951 190.723 139.713 190.777 139.492 190.852C139.273 190.924 139.096 191.033 138.961 191.179C138.828 191.323 138.762 191.519 138.762 191.768C138.762 192.108 138.887 192.366 139.139 192.54C139.393 192.711 139.716 192.797 140.105 192.797ZM146.538 193.676C146.134 193.676 145.767 193.6 145.438 193.448C145.109 193.293 144.848 193.071 144.654 192.78C144.461 192.487 144.364 192.133 144.364 191.719C144.364 191.354 144.436 191.058 144.58 190.831C144.724 190.601 144.916 190.422 145.156 190.292C145.397 190.162 145.662 190.065 145.953 190.001C146.246 189.935 146.54 189.882 146.836 189.844C147.223 189.794 147.537 189.757 147.778 189.732C148.021 189.704 148.198 189.658 148.309 189.595C148.422 189.531 148.479 189.421 148.479 189.263V189.23C148.479 188.821 148.367 188.503 148.143 188.276C147.922 188.049 147.586 187.936 147.135 187.936C146.668 187.936 146.301 188.038 146.036 188.243C145.77 188.447 145.584 188.666 145.476 188.898L144.547 188.566C144.713 188.179 144.934 187.878 145.21 187.662C145.49 187.444 145.794 187.292 146.123 187.206C146.455 187.117 146.781 187.073 147.102 187.073C147.306 187.073 147.541 187.098 147.807 187.148C148.075 187.195 148.334 187.293 148.582 187.442C148.834 187.592 149.043 187.817 149.209 188.118C149.375 188.42 149.458 188.823 149.458 189.329V193.527H148.479V192.664H148.429C148.363 192.802 148.252 192.95 148.097 193.108C147.942 193.266 147.736 193.4 147.479 193.51C147.222 193.621 146.908 193.676 146.538 193.676ZM146.687 192.797C147.074 192.797 147.4 192.721 147.666 192.569C147.934 192.417 148.136 192.22 148.271 191.98C148.41 191.739 148.479 191.486 148.479 191.221V190.325C148.437 190.375 148.346 190.42 148.205 190.462C148.067 190.5 147.906 190.535 147.724 190.565C147.544 190.593 147.368 190.618 147.197 190.64C147.028 190.659 146.891 190.676 146.786 190.69C146.532 190.723 146.294 190.777 146.073 190.852C145.855 190.924 145.678 191.033 145.542 191.179C145.409 191.323 145.343 191.519 145.343 191.768C145.343 192.108 145.469 192.366 145.72 192.54C145.975 192.711 146.297 192.797 146.687 192.797ZM156.404 193.676C156 193.676 155.634 193.6 155.305 193.448C154.976 193.293 154.714 193.071 154.521 192.78C154.327 192.487 154.231 192.133 154.231 191.719C154.231 191.354 154.302 191.058 154.446 190.831C154.59 190.601 154.782 190.422 155.023 190.292C155.263 190.162 155.529 190.065 155.819 190.001C156.112 189.935 156.407 189.882 156.703 189.844C157.09 189.794 157.404 189.757 157.644 189.732C157.887 189.704 158.064 189.658 158.175 189.595C158.288 189.531 158.345 189.421 158.345 189.263V189.23C158.345 188.821 158.233 188.503 158.009 188.276C157.788 188.049 157.452 187.936 157.001 187.936C156.534 187.936 156.168 188.038 155.902 188.243C155.637 188.447 155.45 188.666 155.342 188.898L154.413 188.566C154.579 188.179 154.8 187.878 155.077 187.662C155.356 187.444 155.66 187.292 155.989 187.206C156.321 187.117 156.647 187.073 156.968 187.073C157.173 187.073 157.408 187.098 157.673 187.148C157.941 187.195 158.2 187.293 158.449 187.442C158.7 187.592 158.909 187.817 159.075 188.118C159.241 188.42 159.324 188.823 159.324 189.329V193.527H158.345V192.664H158.295C158.229 192.802 158.118 192.95 157.964 193.108C157.809 193.266 157.603 193.4 157.346 193.51C157.088 193.621 156.774 193.676 156.404 193.676ZM156.553 192.797C156.94 192.797 157.267 192.721 157.532 192.569C157.8 192.417 158.002 192.22 158.138 191.98C158.276 191.739 158.345 191.486 158.345 191.221V190.325C158.304 190.375 158.212 190.42 158.071 190.462C157.933 190.5 157.773 190.535 157.59 190.565C157.41 190.593 157.235 190.618 157.063 190.64C156.895 190.659 156.758 190.676 156.653 190.69C156.398 190.723 156.161 190.777 155.939 190.852C155.721 190.924 155.544 191.033 155.409 191.179C155.276 191.323 155.209 191.519 155.209 191.768C155.209 192.108 155.335 192.366 155.587 192.54C155.841 192.711 156.163 192.797 156.553 192.797Z" fill="#3C1F1B"/>
<path d="M73.7707 183.149C73.367 183.149 73.0006 183.073 72.6715 182.921C72.3425 182.766 72.0812 182.544 71.8876 182.254C71.6941 181.96 71.5973 181.606 71.5973 181.192C71.5973 180.827 71.6692 180.531 71.813 180.304C71.9567 180.075 72.1489 179.895 72.3895 179.765C72.6301 179.635 72.8955 179.538 73.1859 179.475C73.479 179.408 73.7734 179.356 74.0693 179.317C74.4564 179.267 74.7703 179.23 75.0109 179.205C75.2542 179.177 75.4312 179.132 75.5418 179.068C75.6551 179.004 75.7118 178.894 75.7118 178.736V178.703C75.7118 178.294 75.5998 177.976 75.3759 177.749C75.1546 177.522 74.8187 177.409 74.368 177.409C73.9006 177.409 73.5343 177.511 73.2688 177.716C73.0034 177.921 72.8167 178.139 72.7089 178.371L71.7798 178.039C71.9457 177.652 72.1669 177.351 72.4434 177.135C72.7227 176.917 73.0269 176.765 73.3559 176.679C73.6877 176.59 74.014 176.546 74.3348 176.546C74.5394 176.546 74.7744 176.571 75.0399 176.621C75.3081 176.668 75.5666 176.766 75.8155 176.915C76.0671 177.065 76.2759 177.29 76.4418 177.591C76.6077 177.893 76.6907 178.297 76.6907 178.803V183H75.7118V182.137H75.662C75.5957 182.276 75.4851 182.424 75.3302 182.581C75.1754 182.739 74.9694 182.873 74.7122 182.984C74.4551 183.094 74.1412 183.149 73.7707 183.149ZM73.92 182.27C74.3071 182.27 74.6334 182.194 74.8989 182.042C75.1671 181.89 75.3689 181.694 75.5044 181.453C75.6427 181.212 75.7118 180.959 75.7118 180.694V179.798C75.6703 179.848 75.5791 179.893 75.4381 179.935C75.2998 179.974 75.1394 180.008 74.9569 180.039C74.7772 180.066 74.6016 180.091 74.4302 180.113C74.2615 180.133 74.1246 180.149 74.0195 180.163C73.7652 180.196 73.5273 180.25 73.3061 180.325C73.0877 180.397 72.9107 180.506 72.7752 180.652C72.6425 180.796 72.5761 180.993 72.5761 181.241C72.5761 181.582 72.702 181.839 72.9536 182.013C73.208 182.184 73.5301 182.27 73.92 182.27ZM80.3521 183.149C79.9484 183.149 79.582 183.073 79.2529 182.921C78.9239 182.766 78.6626 182.544 78.469 182.254C78.2755 181.96 78.1787 181.606 78.1787 181.192C78.1787 180.827 78.2506 180.531 78.3944 180.304C78.5381 180.075 78.7303 179.895 78.9709 179.765C79.2115 179.635 79.4769 179.538 79.7673 179.475C80.0604 179.408 80.3549 179.356 80.6507 179.317C81.0378 179.267 81.3517 179.23 81.5923 179.205C81.8356 179.177 82.0126 179.132 82.1232 179.068C82.2365 179.004 82.2932 178.894 82.2932 178.736V178.703C82.2932 178.294 82.1812 177.976 81.9573 177.749C81.736 177.522 81.4001 177.409 80.9494 177.409C80.4821 177.409 80.1157 177.511 79.8502 177.716C79.5848 177.921 79.3981 178.139 79.2903 178.371L78.3612 178.039C78.5271 177.652 78.7483 177.351 79.0248 177.135C79.3041 176.917 79.6083 176.765 79.9373 176.679C80.2691 176.59 80.5954 176.546 80.9162 176.546C81.1208 176.546 81.3558 176.571 81.6213 176.621C81.8895 176.668 82.1481 176.766 82.3969 176.915C82.6485 177.065 82.8573 177.29 83.0232 177.591C83.1891 177.893 83.2721 178.297 83.2721 178.803V183H82.2932V182.137H82.2435C82.1771 182.276 82.0665 182.424 81.9116 182.581C81.7568 182.739 81.5508 182.873 81.2936 182.984C81.0365 183.094 80.7226 183.149 80.3521 183.149ZM80.5014 182.27C80.8885 182.27 81.2148 182.194 81.4803 182.042C81.7485 181.89 81.9503 181.694 82.0858 181.453C82.2241 181.212 82.2932 180.959 82.2932 180.694V179.798C82.2517 179.848 82.1605 179.893 82.0195 179.935C81.8812 179.974 81.7208 180.008 81.5383 180.039C81.3586 180.066 81.183 180.091 81.0116 180.113C80.8429 180.133 80.706 180.149 80.601 180.163C80.3466 180.196 80.1088 180.25 79.8875 180.325C79.6691 180.397 79.4921 180.506 79.3566 180.652C79.2239 180.796 79.1575 180.993 79.1575 181.241C79.1575 181.582 79.2834 181.839 79.535 182.013C79.7894 182.184 80.1115 182.27 80.5014 182.27ZM86.9335 183.149C86.5298 183.149 86.1634 183.073 85.8343 182.921C85.5053 182.766 85.244 182.544 85.0504 182.254C84.8569 181.96 84.7601 181.606 84.7601 181.192C84.7601 180.827 84.832 180.531 84.9758 180.304C85.1196 180.075 85.3117 179.895 85.5523 179.765C85.7929 179.635 86.0583 179.538 86.3487 179.475C86.6418 179.408 86.9363 179.356 87.2321 179.317C87.6193 179.267 87.9331 179.23 88.1737 179.205C88.417 179.177 88.594 179.132 88.7046 179.068C88.8179 179.004 88.8746 178.894 88.8746 178.736V178.703C88.8746 178.294 88.7626 177.976 88.5387 177.749C88.3175 177.522 87.9815 177.409 87.5308 177.409C87.0635 177.409 86.6971 177.511 86.4316 177.716C86.1662 177.921 85.9795 178.139 85.8717 178.371L84.9426 178.039C85.1085 177.652 85.3297 177.351 85.6062 177.135C85.8855 176.917 86.1897 176.765 86.5187 176.679C86.8505 176.59 87.1768 176.546 87.4976 176.546C87.7022 176.546 87.9372 176.571 88.2027 176.621C88.4709 176.668 88.7295 176.766 88.9783 176.915C89.23 177.065 89.4387 177.29 89.6046 177.591C89.7705 177.893 89.8535 178.297 89.8535 178.803V183H88.8746V182.137H88.8249C88.7585 182.276 88.6479 182.424 88.493 182.581C88.3382 182.739 88.1322 182.873 87.875 182.984C87.6179 183.094 87.304 183.149 86.9335 183.149ZM87.0828 182.27C87.4699 182.27 87.7962 182.194 88.0617 182.042C88.3299 181.89 88.5318 181.694 88.6672 181.453C88.8055 181.212 88.8746 180.959 88.8746 180.694V179.798C88.8332 179.848 88.7419 179.893 88.6009 179.935C88.4626 179.974 88.3022 180.008 88.1197 180.039C87.94 180.066 87.7644 180.091 87.593 180.113C87.4243 180.133 87.2874 180.149 87.1824 180.163C86.928 180.196 86.6902 180.25 86.4689 180.325C86.2505 180.397 86.0735 180.506 85.938 180.652C85.8053 180.796 85.7389 180.993 85.7389 181.241C85.7389 181.582 85.8648 181.839 86.1164 182.013C86.3708 182.184 86.6929 182.27 87.0828 182.27ZM93.5149 183.149C93.1112 183.149 92.7448 183.073 92.4158 182.921C92.0867 182.766 91.8254 182.544 91.6318 182.254C91.4383 181.96 91.3415 181.606 91.3415 181.192C91.3415 180.827 91.4134 180.531 91.5572 180.304C91.701 180.075 91.8931 179.895 92.1337 179.765C92.3743 179.635 92.6397 179.538 92.9301 179.475C93.2232 179.408 93.5177 179.356 93.8135 179.317C94.2007 179.267 94.5145 179.23 94.7551 179.205C94.9984 179.177 95.1754 179.132 95.286 179.068C95.3994 179.004 95.456 178.894 95.456 178.736V178.703C95.456 178.294 95.3441 177.976 95.1201 177.749C94.8989 177.522 94.5629 177.409 94.1122 177.409C93.6449 177.409 93.2785 177.511 93.013 177.716C92.7476 177.921 92.5609 178.139 92.4531 178.371L91.524 178.039C91.6899 177.652 91.9111 177.351 92.1876 177.135C92.4669 176.917 92.7711 176.765 93.1001 176.679C93.4319 176.59 93.7582 176.546 94.079 176.546C94.2836 176.546 94.5187 176.571 94.7841 176.621C95.0523 176.668 95.3109 176.766 95.5597 176.915C95.8114 177.065 96.0201 177.29 96.186 177.591C96.3519 177.893 96.4349 178.297 96.4349 178.803V183H95.456V182.137H95.4063C95.3399 182.276 95.2293 182.424 95.0744 182.581C94.9196 182.739 94.7136 182.873 94.4564 182.984C94.1993 183.094 93.8854 183.149 93.5149 183.149ZM93.6642 182.27C94.0513 182.27 94.3776 182.194 94.6431 182.042C94.9113 181.89 95.1132 181.694 95.2487 181.453C95.3869 181.212 95.456 180.959 95.456 180.694V179.798C95.4146 179.848 95.3233 179.893 95.1823 179.935C95.044 179.974 94.8837 180.008 94.7012 180.039C94.5214 180.066 94.3458 180.091 94.1744 180.113C94.0057 180.133 93.8688 180.149 93.7638 180.163C93.5094 180.196 93.2716 180.25 93.0504 180.325C92.8319 180.397 92.6549 180.506 92.5194 180.652C92.3867 180.796 92.3204 180.993 92.3204 181.241C92.3204 181.582 92.4462 181.839 92.6978 182.013C92.9522 182.184 93.2743 182.27 93.6642 182.27ZM103.381 183.149C102.978 183.149 102.611 183.073 102.282 182.921C101.953 182.766 101.692 182.544 101.498 182.254C101.305 181.96 101.208 181.606 101.208 181.192C101.208 180.827 101.28 180.531 101.424 180.304C101.567 180.075 101.76 179.895 102 179.765C102.241 179.635 102.506 179.538 102.796 179.475C103.09 179.408 103.384 179.356 103.68 179.317C104.067 179.267 104.381 179.23 104.621 179.205C104.865 179.177 105.042 179.132 105.152 179.068C105.266 179.004 105.322 178.894 105.322 178.736V178.703C105.322 178.294 105.21 177.976 104.986 177.749C104.765 177.522 104.429 177.409 103.979 177.409C103.511 177.409 103.145 177.511 102.879 177.716C102.614 177.921 102.427 178.139 102.319 178.371L101.39 178.039C101.556 177.652 101.778 177.351 102.054 177.135C102.333 176.917 102.637 176.765 102.967 176.679C103.298 176.59 103.625 176.546 103.945 176.546C104.15 176.546 104.385 176.571 104.651 176.621C104.919 176.668 105.177 176.766 105.426 176.915C105.678 177.065 105.887 177.29 106.052 177.591C106.218 177.893 106.301 178.297 106.301 178.803V183H105.322V182.137H105.273C105.206 182.276 105.096 182.424 104.941 182.581C104.786 182.739 104.58 182.873 104.323 182.984C104.066 183.094 103.752 183.149 103.381 183.149ZM103.531 182.27C103.918 182.27 104.244 182.194 104.509 182.042C104.778 181.89 104.98 181.694 105.115 181.453C105.253 181.212 105.322 180.959 105.322 180.694V179.798C105.281 179.848 105.19 179.893 105.049 179.935C104.91 179.974 104.75 180.008 104.568 180.039C104.388 180.066 104.212 180.091 104.041 180.113C103.872 180.133 103.735 180.149 103.63 180.163C103.376 180.196 103.138 180.25 102.917 180.325C102.698 180.397 102.521 180.506 102.386 180.652C102.253 180.796 102.187 180.993 102.187 181.241C102.187 181.582 102.313 181.839 102.564 182.013C102.819 182.184 103.141 182.27 103.531 182.27ZM109.963 183.149C109.559 183.149 109.193 183.073 108.864 182.921C108.535 182.766 108.273 182.544 108.08 182.254C107.886 181.96 107.789 181.606 107.789 181.192C107.789 180.827 107.861 180.531 108.005 180.304C108.149 180.075 108.341 179.895 108.582 179.765C108.822 179.635 109.088 179.538 109.378 179.475C109.671 179.408 109.965 179.356 110.261 179.317C110.648 179.267 110.962 179.23 111.203 179.205C111.446 179.177 111.623 179.132 111.734 179.068C111.847 179.004 111.904 178.894 111.904 178.736V178.703C111.904 178.294 111.792 177.976 111.568 177.749C111.347 177.522 111.011 177.409 110.56 177.409C110.093 177.409 109.726 177.511 109.461 177.716C109.195 177.921 109.009 178.139 108.901 178.371L107.972 178.039C108.138 177.652 108.359 177.351 108.635 177.135C108.915 176.917 109.219 176.765 109.548 176.679C109.88 176.59 110.206 176.546 110.527 176.546C110.731 176.546 110.966 176.571 111.232 176.621C111.5 176.668 111.759 176.766 112.008 176.915C112.259 177.065 112.468 177.29 112.634 177.591C112.8 177.893 112.883 178.297 112.883 178.803V183H111.904V182.137H111.854C111.788 182.276 111.677 182.424 111.522 182.581C111.367 182.739 111.161 182.873 110.904 182.984C110.647 183.094 110.333 183.149 109.963 183.149ZM110.112 182.27C110.499 182.27 110.825 182.194 111.091 182.042C111.359 181.89 111.561 181.694 111.696 181.453C111.835 181.212 111.904 180.959 111.904 180.694V179.798C111.862 179.848 111.771 179.893 111.63 179.935C111.492 179.974 111.331 180.008 111.149 180.039C110.969 180.066 110.794 180.091 110.622 180.113C110.454 180.133 110.317 180.149 110.212 180.163C109.957 180.196 109.719 180.25 109.498 180.325C109.28 180.397 109.103 180.506 108.967 180.652C108.835 180.796 108.768 180.993 108.768 181.241C108.768 181.582 108.894 181.839 109.146 182.013C109.4 182.184 109.722 182.27 110.112 182.27ZM116.544 183.149C116.14 183.149 115.774 183.073 115.445 182.921C115.116 182.766 114.855 182.544 114.661 182.254C114.467 181.96 114.371 181.606 114.371 181.192C114.371 180.827 114.443 180.531 114.586 180.304C114.73 180.075 114.922 179.895 115.163 179.765C115.403 179.635 115.669 179.538 115.959 179.475C116.252 179.408 116.547 179.356 116.843 179.317C117.23 179.267 117.544 179.23 117.784 179.205C118.028 179.177 118.205 179.132 118.315 179.068C118.429 179.004 118.485 178.894 118.485 178.736V178.703C118.485 178.294 118.373 177.976 118.149 177.749C117.928 177.522 117.592 177.409 117.141 177.409C116.674 177.409 116.308 177.511 116.042 177.716C115.777 177.921 115.59 178.139 115.482 178.371L114.553 178.039C114.719 177.652 114.94 177.351 115.217 177.135C115.496 176.917 115.8 176.765 116.129 176.679C116.461 176.59 116.787 176.546 117.108 176.546C117.313 176.546 117.548 176.571 117.813 176.621C118.082 176.668 118.34 176.766 118.589 176.915C118.841 177.065 119.049 177.29 119.215 177.591C119.381 177.893 119.464 178.297 119.464 178.803V183H118.485V182.137H118.435C118.369 182.276 118.259 182.424 118.104 182.581C117.949 182.739 117.743 182.873 117.486 182.984C117.228 183.094 116.915 183.149 116.544 183.149ZM116.693 182.27C117.081 182.27 117.407 182.194 117.672 182.042C117.941 181.89 118.142 181.694 118.278 181.453C118.416 181.212 118.485 180.959 118.485 180.694V179.798C118.444 179.848 118.353 179.893 118.212 179.935C118.073 179.974 117.913 180.008 117.73 180.039C117.551 180.066 117.375 180.091 117.204 180.113C117.035 180.133 116.898 180.149 116.793 180.163C116.539 180.196 116.301 180.25 116.08 180.325C115.861 180.397 115.684 180.506 115.549 180.652C115.416 180.796 115.35 180.993 115.35 181.241C115.35 181.582 115.475 181.839 115.727 182.013C115.981 182.184 116.304 182.27 116.693 182.27ZM126.411 183.149C126.007 183.149 125.64 183.073 125.311 182.921C124.982 182.766 124.721 182.544 124.527 182.254C124.334 181.96 124.237 181.606 124.237 181.192C124.237 180.827 124.309 180.531 124.453 180.304C124.597 180.075 124.789 179.895 125.029 179.765C125.27 179.635 125.535 179.538 125.826 179.475C126.119 179.408 126.413 179.356 126.709 179.317C127.096 179.267 127.41 179.23 127.651 179.205C127.894 179.177 128.071 179.132 128.182 179.068C128.295 179.004 128.352 178.894 128.352 178.736V178.703C128.352 178.294 128.24 177.976 128.016 177.749C127.794 177.522 127.459 177.409 127.008 177.409C126.54 177.409 126.174 177.511 125.909 177.716C125.643 177.921 125.457 178.139 125.349 178.371L124.42 178.039C124.586 177.652 124.807 177.351 125.083 177.135C125.363 176.917 125.667 176.765 125.996 176.679C126.328 176.59 126.654 176.546 126.975 176.546C127.179 176.546 127.414 176.571 127.68 176.621C127.948 176.668 128.206 176.766 128.455 176.915C128.707 177.065 128.916 177.29 129.082 177.591C129.248 177.893 129.331 178.297 129.331 178.803V183H128.352V182.137H128.302C128.236 182.276 128.125 182.424 127.97 182.581C127.815 182.739 127.609 182.873 127.352 182.984C127.095 183.094 126.781 183.149 126.411 183.149ZM126.56 182.27C126.947 182.27 127.273 182.194 127.539 182.042C127.807 181.89 128.009 181.694 128.144 181.453C128.283 181.212 128.352 180.959 128.352 180.694V179.798C128.31 179.848 128.219 179.893 128.078 179.935C127.94 179.974 127.779 180.008 127.597 180.039C127.417 180.066 127.241 180.091 127.07 180.113C126.901 180.133 126.764 180.149 126.659 180.163C126.405 180.196 126.167 180.25 125.946 180.325C125.728 180.397 125.551 180.506 125.415 180.652C125.282 180.796 125.216 180.993 125.216 181.241C125.216 181.582 125.342 181.839 125.593 182.013C125.848 182.184 126.17 182.27 126.56 182.27ZM136.277 183.149C135.873 183.149 135.507 183.073 135.178 182.921C134.849 182.766 134.587 182.544 134.394 182.254C134.2 181.96 134.104 181.606 134.104 181.192C134.104 180.827 134.175 180.531 134.319 180.304C134.463 180.075 134.655 179.895 134.896 179.765C135.136 179.635 135.402 179.538 135.692 179.475C135.985 179.408 136.28 179.356 136.576 179.317C136.963 179.267 137.277 179.23 137.517 179.205C137.76 179.177 137.937 179.132 138.048 179.068C138.161 179.004 138.218 178.894 138.218 178.736V178.703C138.218 178.294 138.106 177.976 137.882 177.749C137.661 177.522 137.325 177.409 136.874 177.409C136.407 177.409 136.041 177.511 135.775 177.716C135.51 177.921 135.323 178.139 135.215 178.371L134.286 178.039C134.452 177.652 134.673 177.351 134.95 177.135C135.229 176.917 135.533 176.765 135.862 176.679C136.194 176.59 136.52 176.546 136.841 176.546C137.046 176.546 137.281 176.571 137.546 176.621C137.814 176.668 138.073 176.766 138.322 176.915C138.573 177.065 138.782 177.29 138.948 177.591C139.114 177.893 139.197 178.297 139.197 178.803V183H138.218V182.137H138.168C138.102 182.276 137.991 182.424 137.836 182.581C137.682 182.739 137.476 182.873 137.218 182.984C136.961 183.094 136.647 183.149 136.277 183.149ZM136.426 182.27C136.813 182.27 137.14 182.194 137.405 182.042C137.673 181.89 137.875 181.694 138.011 181.453C138.149 181.212 138.218 180.959 138.218 180.694V179.798C138.177 179.848 138.085 179.893 137.944 179.935C137.806 179.974 137.646 180.008 137.463 180.039C137.283 180.066 137.108 180.091 136.936 180.113C136.768 180.133 136.631 180.149 136.526 180.163C136.271 180.196 136.034 180.25 135.812 180.325C135.594 180.397 135.417 180.506 135.281 180.652C135.149 180.796 135.082 180.993 135.082 181.241C135.082 181.582 135.208 181.839 135.46 182.013C135.714 182.184 136.036 182.27 136.426 182.27ZM142.858 183.149C142.455 183.149 142.088 183.073 141.759 182.921C141.43 182.766 141.169 182.544 140.975 182.254C140.782 181.96 140.685 181.606 140.685 181.192C140.685 180.827 140.757 180.531 140.901 180.304C141.044 180.075 141.237 179.895 141.477 179.765C141.718 179.635 141.983 179.538 142.274 179.475C142.567 179.408 142.861 179.356 143.157 179.317C143.544 179.267 143.858 179.23 144.099 179.205C144.342 179.177 144.519 179.132 144.629 179.068C144.743 179.004 144.799 178.894 144.799 178.736V178.703C144.799 178.294 144.687 177.976 144.464 177.749C144.242 177.522 143.906 177.409 143.456 177.409C142.988 177.409 142.622 177.511 142.356 177.716C142.091 177.921 141.904 178.139 141.797 178.371L140.867 178.039C141.033 177.652 141.255 177.351 141.531 177.135C141.81 176.917 142.115 176.765 142.444 176.679C142.775 176.59 143.102 176.546 143.422 176.546C143.627 176.546 143.862 176.571 144.128 176.621C144.396 176.668 144.654 176.766 144.903 176.915C145.155 177.065 145.364 177.29 145.529 177.591C145.695 177.893 145.778 178.297 145.778 178.803V183H144.799V182.137H144.75C144.683 182.276 144.573 182.424 144.418 182.581C144.263 182.739 144.057 182.873 143.8 182.984C143.543 183.094 143.229 183.149 142.858 183.149ZM143.008 182.27C143.395 182.27 143.721 182.194 143.987 182.042C144.255 181.89 144.457 181.694 144.592 181.453C144.73 181.212 144.799 180.959 144.799 180.694V179.798C144.758 179.848 144.667 179.893 144.526 179.935C144.387 179.974 144.227 180.008 144.045 180.039C143.865 180.066 143.689 180.091 143.518 180.113C143.349 180.133 143.212 180.149 143.107 180.163C142.853 180.196 142.615 180.25 142.394 180.325C142.175 180.397 141.998 180.506 141.863 180.652C141.73 180.796 141.664 180.993 141.664 181.241C141.664 181.582 141.79 181.839 142.041 182.013C142.296 182.184 142.618 182.27 143.008 182.27ZM152.725 183.149C152.321 183.149 151.955 183.073 151.626 182.921C151.297 182.766 151.035 182.544 150.842 182.254C150.648 181.96 150.551 181.606 150.551 181.192C150.551 180.827 150.623 180.531 150.767 180.304C150.911 180.075 151.103 179.895 151.344 179.765C151.584 179.635 151.85 179.538 152.14 179.475C152.433 179.408 152.728 179.356 153.023 179.317C153.411 179.267 153.724 179.23 153.965 179.205C154.208 179.177 154.385 179.132 154.496 179.068C154.609 179.004 154.666 178.894 154.666 178.736V178.703C154.666 178.294 154.554 177.976 154.33 177.749C154.109 177.522 153.773 177.409 153.322 177.409C152.855 177.409 152.488 177.511 152.223 177.716C151.957 177.921 151.771 178.139 151.663 178.371L150.734 178.039C150.9 177.652 151.121 177.351 151.397 177.135C151.677 176.917 151.981 176.765 152.31 176.679C152.642 176.59 152.968 176.546 153.289 176.546C153.493 176.546 153.728 176.571 153.994 176.621C154.262 176.668 154.521 176.766 154.77 176.915C155.021 177.065 155.23 177.29 155.396 177.591C155.562 177.893 155.645 178.297 155.645 178.803V183H154.666V182.137H154.616C154.55 182.276 154.439 182.424 154.284 182.581C154.129 182.739 153.923 182.873 153.666 182.984C153.409 183.094 153.095 183.149 152.725 183.149ZM152.874 182.27C153.261 182.27 153.587 182.194 153.853 182.042C154.121 181.89 154.323 181.694 154.458 181.453C154.597 181.212 154.666 180.959 154.666 180.694V179.798C154.624 179.848 154.533 179.893 154.392 179.935C154.254 179.974 154.093 180.008 153.911 180.039C153.731 180.066 153.556 180.091 153.384 180.113C153.216 180.133 153.079 180.149 152.974 180.163C152.719 180.196 152.481 180.25 152.26 180.325C152.042 180.397 151.865 180.506 151.729 180.652C151.597 180.796 151.53 180.993 151.53 181.241C151.53 181.582 151.656 181.839 151.908 182.013C152.162 182.184 152.484 182.27 152.874 182.27ZM159.306 183.149C158.902 183.149 158.536 183.073 158.207 182.921C157.878 182.766 157.617 182.544 157.423 182.254C157.23 181.96 157.133 181.606 157.133 181.192C157.133 180.827 157.205 180.531 157.348 180.304C157.492 180.075 157.684 179.895 157.925 179.765C158.166 179.635 158.431 179.538 158.721 179.475C159.014 179.408 159.309 179.356 159.605 179.317C159.992 179.267 160.306 179.23 160.546 179.205C160.79 179.177 160.967 179.132 161.077 179.068C161.191 179.004 161.247 178.894 161.247 178.736V178.703C161.247 178.294 161.135 177.976 160.911 177.749C160.69 177.522 160.354 177.409 159.903 177.409C159.436 177.409 159.07 177.511 158.804 177.716C158.539 177.921 158.352 178.139 158.244 178.371L157.315 178.039C157.481 177.652 157.702 177.351 157.979 177.135C158.258 176.917 158.562 176.765 158.891 176.679C159.223 176.59 159.549 176.546 159.87 176.546C160.075 176.546 160.31 176.571 160.575 176.621C160.844 176.668 161.102 176.766 161.351 176.915C161.603 177.065 161.811 177.29 161.977 177.591C162.143 177.893 162.226 178.297 162.226 178.803V183H161.247V182.137H161.198C161.131 182.276 161.021 182.424 160.866 182.581C160.711 182.739 160.505 182.873 160.248 182.984C159.991 183.094 159.677 183.149 159.306 183.149ZM159.455 182.27C159.843 182.27 160.169 182.194 160.434 182.042C160.703 181.89 160.904 181.694 161.04 181.453C161.178 181.212 161.247 180.959 161.247 180.694V179.798C161.206 179.848 161.115 179.893 160.974 179.935C160.835 179.974 160.675 180.008 160.492 180.039C160.313 180.066 160.137 180.091 159.966 180.113C159.797 180.133 159.66 180.149 159.555 180.163C159.301 180.196 159.063 180.25 158.842 180.325C158.623 180.397 158.446 180.506 158.311 180.652C158.178 180.796 158.112 180.993 158.112 181.241C158.112 181.582 158.237 181.839 158.489 182.013C158.743 182.184 159.066 182.27 159.455 182.27ZM165.888 183.149C165.484 183.149 165.117 183.073 164.788 182.921C164.459 182.766 164.198 182.544 164.004 182.254C163.811 181.96 163.714 181.606 163.714 181.192C163.714 180.827 163.786 180.531 163.93 180.304C164.074 180.075 164.266 179.895 164.506 179.765C164.747 179.635 165.012 179.538 165.303 179.475C165.596 179.408 165.89 179.356 166.186 179.317C166.573 179.267 166.887 179.23 167.128 179.205C167.371 179.177 167.548 179.132 167.659 179.068C167.772 179.004 167.829 178.894 167.829 178.736V178.703C167.829 178.294 167.717 177.976 167.493 177.749C167.272 177.522 166.936 177.409 166.485 177.409C166.018 177.409 165.651 177.511 165.386 177.716C165.12 177.921 164.934 178.139 164.826 178.371L163.897 178.039C164.063 177.652 164.284 177.351 164.56 177.135C164.84 176.917 165.144 176.765 165.473 176.679C165.805 176.59 166.131 176.546 166.452 176.546C166.656 176.546 166.891 176.571 167.157 176.621C167.425 176.668 167.684 176.766 167.932 176.915C168.184 177.065 168.393 177.29 168.559 177.591C168.725 177.893 168.808 178.297 168.808 178.803V183H167.829V182.137H167.779C167.713 182.276 167.602 182.424 167.447 182.581C167.292 182.739 167.086 182.873 166.829 182.984C166.572 183.094 166.258 183.149 165.888 183.149ZM166.037 182.27C166.424 182.27 166.75 182.194 167.016 182.042C167.284 181.89 167.486 181.694 167.621 181.453C167.76 181.212 167.829 180.959 167.829 180.694V179.798C167.787 179.848 167.696 179.893 167.555 179.935C167.417 179.974 167.256 180.008 167.074 180.039C166.894 180.066 166.718 180.091 166.547 180.113C166.378 180.133 166.242 180.149 166.136 180.163C165.882 180.196 165.644 180.25 165.423 180.325C165.205 180.397 165.028 180.506 164.892 180.652C164.759 180.796 164.693 180.993 164.693 181.241C164.693 181.582 164.819 181.839 165.07 182.013C165.325 182.184 165.647 182.27 166.037 182.27ZM172.469 183.149C172.065 183.149 171.699 183.073 171.37 182.921C171.041 182.766 170.779 182.544 170.586 182.254C170.392 181.96 170.296 181.606 170.296 181.192C170.296 180.827 170.367 180.531 170.511 180.304C170.655 180.075 170.847 179.895 171.088 179.765C171.328 179.635 171.594 179.538 171.884 179.475C172.177 179.408 172.472 179.356 172.768 179.317C173.155 179.267 173.469 179.23 173.709 179.205C173.952 179.177 174.129 179.132 174.24 179.068C174.353 179.004 174.41 178.894 174.41 178.736V178.703C174.41 178.294 174.298 177.976 174.074 177.749C173.853 177.522 173.517 177.409 173.066 177.409C172.599 177.409 172.233 177.511 171.967 177.716C171.702 177.921 171.515 178.139 171.407 178.371L170.478 178.039C170.644 177.652 170.865 177.351 171.142 177.135C171.421 176.917 171.725 176.765 172.054 176.679C172.386 176.59 172.712 176.546 173.033 176.546C173.238 176.546 173.473 176.571 173.738 176.621C174.006 176.668 174.265 176.766 174.514 176.915C174.765 177.065 174.974 177.29 175.14 177.591C175.306 177.893 175.389 178.297 175.389 178.803V183H174.41V182.137H174.36C174.294 182.276 174.183 182.424 174.029 182.581C173.874 182.739 173.668 182.873 173.411 182.984C173.153 183.094 172.84 183.149 172.469 183.149ZM172.618 182.27C173.005 182.27 173.332 182.194 173.597 182.042C173.865 181.89 174.067 181.694 174.203 181.453C174.341 181.212 174.41 180.959 174.41 180.694V179.798C174.369 179.848 174.277 179.893 174.136 179.935C173.998 179.974 173.838 180.008 173.655 180.039C173.475 180.066 173.3 180.091 173.128 180.113C172.96 180.133 172.823 180.149 172.718 180.163C172.463 180.196 172.226 180.25 172.004 180.325C171.786 180.397 171.609 180.506 171.474 180.652C171.341 180.796 171.274 180.993 171.274 181.241C171.274 181.582 171.4 181.839 171.652 182.013C171.906 182.184 172.228 182.27 172.618 182.27ZM179.05 183.149C178.647 183.149 178.28 183.073 177.951 182.921C177.622 182.766 177.361 182.544 177.167 182.254C176.974 181.96 176.877 181.606 176.877 181.192C176.877 180.827 176.949 180.531 177.093 180.304C177.236 180.075 177.429 179.895 177.669 179.765C177.91 179.635 178.175 179.538 178.466 179.475C178.759 179.408 179.053 179.356 179.349 179.317C179.736 179.267 180.05 179.23 180.291 179.205C180.534 179.177 180.711 179.132 180.821 179.068C180.935 179.004 180.992 178.894 180.992 178.736V178.703C180.992 178.294 180.88 177.976 180.656 177.749C180.434 177.522 180.098 177.409 179.648 177.409C179.18 177.409 178.814 177.511 178.549 177.716C178.283 177.921 178.096 178.139 177.989 178.371L177.059 178.039C177.225 177.652 177.447 177.351 177.723 177.135C178.002 176.917 178.307 176.765 178.636 176.679C178.967 176.59 179.294 176.546 179.614 176.546C179.819 176.546 180.054 176.571 180.32 176.621C180.588 176.668 180.846 176.766 181.095 176.915C181.347 177.065 181.556 177.29 181.722 177.591C181.887 177.893 181.97 178.297 181.97 178.803V183H180.992V182.137H180.942C180.875 182.276 180.765 182.424 180.61 182.581C180.455 182.739 180.249 182.873 179.992 182.984C179.735 183.094 179.421 183.149 179.05 183.149ZM179.2 182.27C179.587 182.27 179.913 182.194 180.179 182.042C180.447 181.89 180.649 181.694 180.784 181.453C180.922 181.212 180.992 180.959 180.992 180.694V179.798C180.95 179.848 180.859 179.893 180.718 179.935C180.58 179.974 180.419 180.008 180.237 180.039C180.057 180.066 179.881 180.091 179.71 180.113C179.541 180.133 179.404 180.149 179.299 180.163C179.045 180.196 178.807 180.25 178.586 180.325C178.367 180.397 178.19 180.506 178.055 180.652C177.922 180.796 177.856 180.993 177.856 181.241C177.856 181.582 177.982 181.839 178.233 182.013C178.488 182.184 178.81 182.27 179.2 182.27ZM221.767 183.149C221.363 183.149 220.997 183.073 220.668 182.921C220.339 182.766 220.077 182.544 219.884 182.254C219.69 181.96 219.593 181.606 219.593 181.192C219.593 180.827 219.665 180.531 219.809 180.304C219.953 180.075 220.145 179.895 220.386 179.765C220.626 179.635 220.892 179.538 221.182 179.475C221.475 179.408 221.77 179.356 222.065 179.317C222.453 179.267 222.766 179.23 223.007 179.205C223.25 179.177 223.427 179.132 223.538 179.068C223.651 179.004 223.708 178.894 223.708 178.736V178.703C223.708 178.294 223.596 177.976 223.372 177.749C223.151 177.522 222.815 177.409 222.364 177.409C221.897 177.409 221.53 177.511 221.265 177.716C220.999 177.921 220.813 178.139 220.705 178.371L219.776 178.039C219.942 177.652 220.163 177.351 220.44 177.135C220.719 176.917 221.023 176.765 221.352 176.679C221.684 176.59 222.01 176.546 222.331 176.546C222.535 176.546 222.771 176.571 223.036 176.621C223.304 176.668 223.563 176.766 223.812 176.915C224.063 177.065 224.272 177.29 224.438 177.591C224.604 177.893 224.687 178.297 224.687 178.803V183H223.708V182.137H223.658C223.592 182.276 223.481 182.424 223.326 182.581C223.171 182.739 222.965 182.873 222.708 182.984C222.451 183.094 222.137 183.149 221.767 183.149ZM221.916 182.27C222.303 182.27 222.63 182.194 222.895 182.042C223.163 181.89 223.365 181.694 223.501 181.453C223.639 181.212 223.708 180.959 223.708 180.694V179.798C223.666 179.848 223.575 179.893 223.434 179.935C223.296 179.974 223.136 180.008 222.953 180.039C222.773 180.066 222.598 180.091 222.426 180.113C222.258 180.133 222.121 180.149 222.016 180.163C221.761 180.196 221.523 180.25 221.302 180.325C221.084 180.397 220.907 180.506 220.771 180.652C220.639 180.796 220.572 180.993 220.572 181.241C220.572 181.582 220.698 181.839 220.95 182.013C221.204 182.184 221.526 182.27 221.916 182.27ZM228.348 183.149C227.944 183.149 227.578 183.073 227.249 182.921C226.92 182.766 226.659 182.544 226.465 182.254C226.272 181.96 226.175 181.606 226.175 181.192C226.175 180.827 226.247 180.531 226.39 180.304C226.534 180.075 226.726 179.895 226.967 179.765C227.208 179.635 227.473 179.538 227.763 179.475C228.056 179.408 228.351 179.356 228.647 179.317C229.034 179.267 229.348 179.23 229.588 179.205C229.832 179.177 230.009 179.132 230.119 179.068C230.233 179.004 230.289 178.894 230.289 178.736V178.703C230.289 178.294 230.177 177.976 229.953 177.749C229.732 177.522 229.396 177.409 228.945 177.409C228.478 177.409 228.112 177.511 227.846 177.716C227.581 177.921 227.394 178.139 227.286 178.371L226.357 178.039C226.523 177.652 226.744 177.351 227.021 177.135C227.3 176.917 227.604 176.765 227.933 176.679C228.265 176.59 228.592 176.546 228.912 176.546C229.117 176.546 229.352 176.571 229.617 176.621C229.886 176.668 230.144 176.766 230.393 176.915C230.645 177.065 230.853 177.29 231.019 177.591C231.185 177.893 231.268 178.297 231.268 178.803V183H230.289V182.137H230.24C230.173 182.276 230.063 182.424 229.908 182.581C229.753 182.739 229.547 182.873 229.29 182.984C229.033 183.094 228.719 183.149 228.348 183.149ZM228.497 182.27C228.885 182.27 229.211 182.194 229.476 182.042C229.745 181.89 229.946 181.694 230.082 181.453C230.22 181.212 230.289 180.959 230.289 180.694V179.798C230.248 179.848 230.157 179.893 230.016 179.935C229.877 179.974 229.717 180.008 229.534 180.039C229.355 180.066 229.179 180.091 229.008 180.113C228.839 180.133 228.702 180.149 228.597 180.163C228.343 180.196 228.105 180.25 227.884 180.325C227.665 180.397 227.488 180.506 227.353 180.652C227.22 180.796 227.154 180.993 227.154 181.241C227.154 181.582 227.279 181.839 227.531 182.013C227.785 182.184 228.108 182.27 228.497 182.27ZM234.93 183.149C234.526 183.149 234.16 183.073 233.83 182.921C233.501 182.766 233.24 182.544 233.047 182.254C232.853 181.96 232.756 181.606 232.756 181.192C232.756 180.827 232.828 180.531 232.972 180.304C233.116 180.075 233.308 179.895 233.548 179.765C233.789 179.635 234.054 179.538 234.345 179.475C234.638 179.408 234.932 179.356 235.228 179.317C235.615 179.267 235.929 179.23 236.17 179.205C236.413 179.177 236.59 179.132 236.701 179.068C236.814 179.004 236.871 178.894 236.871 178.736V178.703C236.871 178.294 236.759 177.976 236.535 177.749C236.314 177.522 235.978 177.409 235.527 177.409C235.06 177.409 234.693 177.511 234.428 177.716C234.162 177.921 233.976 178.139 233.868 178.371L232.939 178.039C233.105 177.652 233.326 177.351 233.602 177.135C233.882 176.917 234.186 176.765 234.515 176.679C234.847 176.59 235.173 176.546 235.494 176.546C235.698 176.546 235.933 176.571 236.199 176.621C236.467 176.668 236.726 176.766 236.974 176.915C237.226 177.065 237.435 177.29 237.601 177.591C237.767 177.893 237.85 178.297 237.85 178.803V183H236.871V182.137H236.821C236.755 182.276 236.644 182.424 236.489 182.581C236.334 182.739 236.128 182.873 235.871 182.984C235.614 183.094 235.3 183.149 234.93 183.149ZM235.079 182.27C235.466 182.27 235.792 182.194 236.058 182.042C236.326 181.89 236.528 181.694 236.663 181.453C236.802 181.212 236.871 180.959 236.871 180.694V179.798C236.829 179.848 236.738 179.893 236.597 179.935C236.459 179.974 236.298 180.008 236.116 180.039C235.936 180.066 235.761 180.091 235.589 180.113C235.42 180.133 235.284 180.149 235.178 180.163C234.924 180.196 234.686 180.25 234.465 180.325C234.247 180.397 234.07 180.506 233.934 180.652C233.801 180.796 233.735 180.993 233.735 181.241C233.735 181.582 233.861 181.839 234.112 182.013C234.367 182.184 234.689 182.27 235.079 182.27ZM244.796 183.149C244.392 183.149 244.026 183.073 243.697 182.921C243.368 182.766 243.106 182.544 242.913 182.254C242.719 181.96 242.623 181.606 242.623 181.192C242.623 180.827 242.694 180.531 242.838 180.304C242.982 180.075 243.174 179.895 243.415 179.765C243.655 179.635 243.921 179.538 244.211 179.475C244.504 179.408 244.799 179.356 245.095 179.317C245.482 179.267 245.796 179.23 246.036 179.205C246.28 179.177 246.456 179.132 246.567 179.068C246.68 179.004 246.737 178.894 246.737 178.736V178.703C246.737 178.294 246.625 177.976 246.401 177.749C246.18 177.522 245.844 177.409 245.393 177.409C244.926 177.409 244.56 177.511 244.294 177.716C244.029 177.921 243.842 178.139 243.734 178.371L242.805 178.039C242.971 177.652 243.192 177.351 243.469 177.135C243.748 176.917 244.052 176.765 244.381 176.679C244.713 176.59 245.039 176.546 245.36 176.546C245.565 176.546 245.8 176.571 246.065 176.621C246.333 176.668 246.592 176.766 246.841 176.915C247.092 177.065 247.301 177.29 247.467 177.591C247.633 177.893 247.716 178.297 247.716 178.803V183H246.737V182.137H246.687C246.621 182.276 246.51 182.424 246.356 182.581C246.201 182.739 245.995 182.873 245.738 182.984C245.48 183.094 245.167 183.149 244.796 183.149ZM244.945 182.27C245.332 182.27 245.659 182.194 245.924 182.042C246.192 181.89 246.394 181.694 246.53 181.453C246.668 181.212 246.737 180.959 246.737 180.694V179.798C246.696 179.848 246.604 179.893 246.463 179.935C246.325 179.974 246.165 180.008 245.982 180.039C245.803 180.066 245.627 180.091 245.455 180.113C245.287 180.133 245.15 180.149 245.045 180.163C244.79 180.196 244.553 180.25 244.331 180.325C244.113 180.397 243.936 180.506 243.801 180.652C243.668 180.796 243.601 180.993 243.601 181.241C243.601 181.582 243.727 181.839 243.979 182.013C244.233 182.184 244.555 182.27 244.945 182.27Z" fill="#3C1F1B"/>
</g>
<g style="mix-blend-mode:hue">
<rect width="320" height="320" fill="#00BF13"/>
</g>
</g>
<defs>
<clipPath id="clip0_1426_25220">
<rect width="320" height="320" fill="white"/>
</clipPath>
<clipPath id="clip1_1426_25220">
<rect width="210" height="135.548" fill="white" transform="translate(55 92)"/>
</clipPath>
</defs>
</svg>
