<svg width="320" height="320" viewBox="0 0 320 320" fill="none" xmlns="http://www.w3.org/2000/svg">
<rect width="320" height="320" fill="#F2F2EA"/>
<path d="M77.0348 77.5121C76.7819 74.8565 78.7297 72.499 81.385 72.2461L209.605 60.0356C212.26 59.7829 214.618 61.7305 214.871 64.3861L230.744 231.071C230.997 233.727 229.049 236.085 226.394 236.337L98.1744 248.548C95.5189 248.801 93.1611 246.853 92.9082 244.198L77.0348 77.5121Z" fill="#DCCDB3"/>
<path fill-rule="evenodd" clip-rule="evenodd" d="M75.0313 77.702C74.6729 73.94 77.4323 70.6 81.1942 70.2418L209.414 58.0313C213.176 57.6731 216.516 60.4322 216.874 64.1942L232.748 230.88C233.106 234.642 230.347 237.982 226.585 238.34L98.3651 250.551C94.6031 250.909 91.2629 248.149 90.9047 244.387L75.0313 77.702ZM81.5757 74.2486C80.0268 74.396 78.8907 75.7713 79.0381 77.3205L94.9115 244.006C95.0592 245.555 96.4344 246.691 97.9834 246.543L226.203 234.333C227.752 234.186 228.888 232.81 228.741 231.261L212.867 64.5759C212.72 63.0267 211.344 61.8906 209.795 62.0381L81.5757 74.2486Z" fill="#3C1F1B"/>
<path d="M104.316 87.7181C104.316 85.0505 106.479 82.888 109.146 82.888H237.946C240.614 82.888 242.776 85.0505 242.776 87.7181V255.158C242.776 257.825 240.614 259.987 237.946 259.987H109.146C106.479 259.987 104.316 257.825 104.316 255.158V87.7181Z" fill="white"/>
<path fill-rule="evenodd" clip-rule="evenodd" d="M102.305 87.718C102.305 83.9391 105.368 80.8756 109.147 80.8756H237.947C241.726 80.8756 244.789 83.9391 244.789 87.718V255.158C244.789 258.936 241.726 262 237.947 262H109.147C105.368 262 102.305 258.936 102.305 255.158V87.718ZM109.147 84.9005C107.591 84.9005 106.33 86.162 106.33 87.718V255.158C106.33 256.714 107.591 257.975 109.147 257.975H237.947C239.503 257.975 240.764 256.714 240.764 255.158V87.718C240.764 86.162 239.503 84.9005 237.947 84.9005H109.147Z" fill="#3C1F1B"/>
<path d="M226.452 187.494H171.35C169.219 187.494 167.491 189.221 167.491 191.352V227.608C167.491 229.739 169.219 231.466 171.35 231.466H226.452C228.583 231.466 230.311 229.739 230.311 227.608V191.352C230.311 189.221 228.583 187.494 226.452 187.494Z" fill="white"/>
<path fill-rule="evenodd" clip-rule="evenodd" d="M169.939 170.472C170.473 169.84 171.304 169.423 172.252 169.423C172.288 169.423 172.324 169.424 172.359 169.424C171.835 170.213 171.528 171.154 171.528 172.176C171.528 173.197 171.835 174.138 172.359 174.926C172.324 174.927 172.288 174.928 172.252 174.928C171.304 174.928 170.473 174.511 169.939 173.879L168.137 175.402C169.115 176.559 170.603 177.287 172.252 177.287C173.067 177.287 173.845 177.108 174.543 176.786C175.24 177.108 176.019 177.288 176.833 177.288C178.483 177.288 179.971 176.56 180.949 175.402L179.147 173.879C178.613 174.511 177.782 174.928 176.833 174.928C176.798 174.928 176.762 174.928 176.727 174.926C177.251 174.138 177.558 173.197 177.558 172.175C177.558 171.154 177.251 170.213 176.727 169.425C176.762 169.424 176.798 169.423 176.833 169.423C177.782 169.423 178.613 169.84 179.147 170.472L180.949 168.949C179.971 167.792 178.483 167.064 176.833 167.064C176.019 167.064 175.241 167.243 174.543 167.565C173.845 167.243 173.067 167.063 172.252 167.063C170.603 167.063 169.115 167.791 168.137 168.949L169.939 170.472ZM173.887 172.176C173.887 171.533 174.13 170.926 174.543 170.447C174.956 170.926 175.198 171.533 175.198 172.175C175.198 172.817 174.956 173.425 174.543 173.905C174.13 173.425 173.887 172.818 173.887 172.176Z" fill="#3C1F1B"/>
<path fill-rule="evenodd" clip-rule="evenodd" d="M143.184 157.109C146.902 140.055 159.28 127 174.541 127C189.803 127 202.181 140.055 205.899 157.109H208.024C211.691 157.109 214.663 160.082 214.663 163.748V208.085C214.663 211.752 211.691 214.724 208.024 214.724H140.639C136.972 214.724 134 211.752 134 208.085V163.748C134 160.082 136.972 157.109 140.639 157.109H143.184ZM147.121 157.109C150.784 141.613 161.918 130.841 174.541 130.841C187.165 130.841 198.299 141.613 201.962 157.109H147.121ZM140.639 160.95C139.094 160.95 137.841 162.203 137.841 163.748V171.575C138.328 171.816 138.984 172.132 139.793 172.5C141.721 173.379 144.514 174.555 147.947 175.732C154.826 178.091 164.209 180.43 174.332 180.43C184.454 180.43 193.837 178.091 200.716 175.732C204.15 174.555 206.942 173.379 208.87 172.5C209.68 172.132 210.336 171.816 210.822 171.575V163.748C210.822 162.203 209.569 160.95 208.024 160.95H140.639ZM137.841 208.085V175.831C137.958 175.885 138.077 175.94 138.2 175.996C140.223 176.918 143.132 178.142 146.701 179.366C153.168 181.583 161.857 183.816 171.396 184.21V185.546C171.396 187.283 172.804 188.692 174.541 188.692C176.279 188.692 177.687 187.283 177.687 185.546V184.191C187.061 183.751 195.59 181.551 201.962 179.366C205.531 178.142 208.44 176.918 210.463 175.996C210.539 175.961 210.615 175.927 210.688 175.893L210.822 175.831V208.085C210.822 209.631 209.569 210.883 208.024 210.883H140.639C139.094 210.883 137.841 209.631 137.841 208.085Z" fill="#3C1F1B"/>
</svg>
