<svg width="124" height="39" viewBox="0 0 124 39" fill="none" xmlns="http://www.w3.org/2000/svg">
<g clip-path="url(#clip0_1575_426)">
<path fill-rule="evenodd" clip-rule="evenodd" d="M9.61181 39H12.4963V23.4H9.61181V39ZM20.1855 38.766H22.769V28.9234L33.6437 39V23.634H31.0674V33.3084L20.1855 23.4V38.766ZM39.5416 34.9879C40.9477 36.0969 42.6355 36.738 44.445 36.738C46.2075 36.738 47.4438 36.1237 47.4438 34.7673C47.4438 33.5851 46.6553 33.122 45.2744 32.604L43.0388 31.8179C40.9778 31.0769 39.4103 29.9947 39.4103 27.5072C39.4103 24.8467 41.7832 23.4 44.6207 23.4C46.3591 23.4 47.9435 23.8424 49.1811 24.6261V27.2647C47.8941 26.3018 46.4856 25.6388 44.6761 25.6388C43.1183 25.6388 41.9541 26.2275 41.9541 27.4548C41.9541 28.5638 42.6849 29.0075 43.9718 29.4535L46.4627 30.3383C48.8765 31.1976 49.984 32.5297 49.984 34.721C49.984 37.4778 47.5883 39 44.445 39C42.3791 39 40.6226 38.415 39.5416 37.6764V34.9879ZM56.7137 39H59.5971V23.4H56.7137V39ZM73.1239 36.6393C76.3744 36.6393 78.1116 34.5284 78.1116 31.1963C78.1116 27.8399 76.3732 25.7363 73.1239 25.7363H69.9095V36.6393H73.1239ZM67.285 23.4H73.2202C77.7889 23.4 80.7433 26.4469 80.7433 31.1963C80.7433 35.9495 77.7889 39 73.2202 39H67.285V23.4ZM95.1634 23.4V25.7363H88.1845V29.4901H94.4435V31.7996H88.1833V36.6393H95.1634V39H85.5504V23.4H95.1634ZM105.399 30.4639H108.26C109.954 30.4639 110.909 29.523 110.909 28.0763C110.909 26.6297 109.954 25.6876 108.26 25.6876H105.399V30.4639ZM105.399 32.6698V39H102.853V23.4H108.309C111.419 23.4 113.432 25.0222 113.432 28.0763C113.432 30.6881 112.315 32.1884 109.935 32.5735L115.349 39H112.452L107.211 32.671H105.4L105.399 32.6698ZM8.60416 8.03156C9.73219 7.61353 10.611 6.35944 10.611 4.63491C10.611 1.76109 8.60416 0.271781 5.3934 0.271781H0V16.3142H5.89421C9.10497 16.3142 11.1118 14.7201 11.1118 11.7158C11.1118 10.0169 10.0584 8.52759 8.60416 8.03156ZM2.53297 7.01269V2.62397H5.36932C7.15107 2.62397 8.10334 3.27722 8.10334 4.79212C8.10334 6.30703 7.14986 7.01269 5.36932 7.01269H2.53297ZM2.53297 9.26006H5.84365C7.60132 9.26006 8.55359 10.1473 8.55359 11.611C8.55359 13.0479 7.60012 13.9632 5.84485 13.9632H2.53417V9.25884L2.53297 9.26006ZM22.8798 16.575C26.5673 16.575 29.0509 14.3276 29.0509 9.93891V0.271781H26.4421V9.62447C26.4421 12.7079 25.1877 14.146 22.8798 14.146C20.572 14.146 19.3187 12.7079 19.3187 9.62447V0.271781H16.7099V9.91209C16.7099 14.3276 19.2176 16.575 22.8798 16.575ZM35.1931 15.1637C36.2718 15.9486 38.0283 16.575 40.0845 16.575C43.2206 16.575 45.6031 14.9541 45.6031 12.0291C45.6031 9.70369 44.5004 8.29237 42.0914 7.37831L39.609 6.43744C38.3292 5.96822 37.6021 5.49778 37.6021 4.32169C37.6021 3.01519 38.7554 2.38875 40.3108 2.38875C42.1167 2.38875 43.5216 3.09319 44.8013 4.11328V1.31625C43.5722 0.481406 41.9915 0.0109687 40.2603 0.0109687C37.4263 0.0109687 35.0679 1.55269 35.0679 4.37409C35.0679 7.01269 36.6233 8.16197 38.6796 8.94563L40.9128 9.78169C42.2924 10.3301 43.0701 10.8274 43.0701 12.0815C43.0701 13.5184 41.841 14.1716 40.0845 14.1716C38.2787 14.1716 36.5981 13.4916 35.1931 12.3167V15.1637ZM54.9248 0.271781H52.3172V16.313H54.9248V0.271781ZM62.3672 16.2935H64.8809V5.85731L75.4606 16.5421V0.247406H72.9541V10.5056L62.3672 0V16.2935ZM91.7624 0.275438V2.67759H84.9894V6.53859H91.063V8.91394H84.9894V13.8901H91.7624V16.3178H82.4323V0.275438H91.7624ZM97.836 15.1527C98.9147 15.9376 100.67 16.564 102.727 16.564C105.862 16.564 108.246 14.9443 108.246 12.0181C108.246 9.69272 107.142 8.28263 104.734 7.36734L102.251 6.42769C100.971 5.95725 100.244 5.48681 100.244 4.31072C100.244 3.00422 101.397 2.37778 102.953 2.37778C104.758 2.37778 106.163 3.08344 107.443 4.10231V1.3065C106.214 0.470438 104.633 0 102.902 0C100.068 0 97.7096 1.54172 97.7096 4.36312C97.7096 7.00172 99.265 8.151 101.321 8.93466L103.554 9.77072C104.934 10.3192 105.712 10.8164 105.712 12.0705C105.712 13.5074 104.484 14.1607 102.726 14.1607C100.92 14.1607 99.2397 13.4818 97.836 12.3057V15.1527ZM113.59 15.1527C114.669 15.9376 116.425 16.564 118.481 16.564C121.618 16.564 124 14.9443 124 12.0181C124 9.69272 122.896 8.28263 120.488 7.36734L118.005 6.42769C116.726 5.95725 115.998 5.48681 115.998 4.31072C115.998 3.00422 117.152 2.37778 118.707 2.37778C120.512 2.37778 121.918 3.08344 123.197 4.10231V1.3065C121.969 0.470438 120.388 0 118.657 0C115.822 0 113.465 1.54172 113.465 4.36312C113.465 7.00172 115.02 8.151 117.076 8.93466L119.31 9.77072C120.689 10.3192 121.467 10.8164 121.467 12.0705C121.467 13.5074 120.238 14.1607 118.481 14.1607C116.676 14.1607 114.995 13.4818 113.59 12.3057V15.1527Z" fill="#111111"/>
</g>
<defs>
<clipPath id="clip0_1575_426">
<rect width="124" height="39" fill="white"/>
</clipPath>
</defs>
</svg>
