<svg width="320" height="320" viewBox="0 0 320 320" fill="none" xmlns="http://www.w3.org/2000/svg">
<rect width="320" height="320" fill="#F2F2EA"/>
<path d="M77.0348 77.5122C76.7819 74.8566 78.7297 72.4991 81.385 72.2461L209.605 60.0356C212.26 59.7829 214.618 61.7305 214.871 64.3861L230.744 231.072C230.997 233.727 229.049 236.085 226.394 236.338L98.1744 248.548C95.5189 248.801 93.1611 246.853 92.9082 244.198L77.0348 77.5122Z" fill="#DCCDB3"/>
<path fill-rule="evenodd" clip-rule="evenodd" d="M75.0313 77.702C74.6729 73.94 77.4323 70.6 81.1942 70.2418L209.414 58.0313C213.176 57.6731 216.516 60.4322 216.874 64.1942L232.748 230.88C233.106 234.642 230.347 237.982 226.585 238.34L98.3651 250.551C94.6031 250.909 91.2629 248.149 90.9047 244.387L75.0313 77.702ZM81.5757 74.2486C80.0268 74.396 78.8907 75.7713 79.0381 77.3205L94.9115 244.006C95.0592 245.555 96.4344 246.691 97.9834 246.543L226.203 234.333C227.752 234.186 228.888 232.81 228.741 231.261L212.867 64.5759C212.72 63.0267 211.344 61.8906 209.795 62.0381L81.5757 74.2486Z" fill="#3C1F1B"/>
<path d="M104.316 87.7181C104.316 85.0505 106.479 82.888 109.146 82.888H237.946C240.614 82.888 242.776 85.0505 242.776 87.7181V255.158C242.776 257.825 240.614 259.987 237.946 259.987H109.146C106.479 259.987 104.316 257.825 104.316 255.158V87.7181Z" fill="white"/>
<path fill-rule="evenodd" clip-rule="evenodd" d="M102.305 87.7181C102.305 83.9392 105.368 80.8756 109.147 80.8756H237.947C241.726 80.8756 244.789 83.9392 244.789 87.7181V255.158C244.789 258.936 241.726 262 237.947 262H109.147C105.368 262 102.305 258.936 102.305 255.158V87.7181ZM109.147 84.9006C107.591 84.9006 106.33 86.162 106.33 87.7181V255.158C106.33 256.714 107.591 257.975 109.147 257.975H237.947C239.503 257.975 240.764 256.714 240.764 255.158V87.7181C240.764 86.162 239.503 84.9006 237.947 84.9006H109.147Z" fill="#3C1F1B"/>
<path d="M226.452 187.494H171.35C169.219 187.494 167.491 189.221 167.491 191.352V227.608C167.491 229.739 169.219 231.466 171.35 231.466H226.452C228.583 231.466 230.311 229.739 230.311 227.608V191.352C230.311 189.221 228.583 187.494 226.452 187.494Z" fill="white"/>
<path fill-rule="evenodd" clip-rule="evenodd" d="M185.553 128.64L181.019 124L180.105 124.333C178.568 124.893 175.888 125.189 173.027 125.172C170.181 125.155 167.439 124.832 165.815 124.313L164.929 124.03L160.425 128.64L160.454 128.977H154.227C149.864 128.797 145.718 130.988 142.795 133.042C141.303 134.091 140.068 135.147 139.205 135.942C138.773 136.34 138.432 136.674 138.197 136.912C138.079 137.03 137.988 137.125 137.924 137.192C137.893 137.225 137.868 137.251 137.85 137.27L137.829 137.292L137.823 137.299L137.82 137.302C137.82 137.302 137.82 137.303 138.927 138.34L137.82 137.302L127.214 148.928L127.152 148.993C127.106 149.042 127.039 149.112 126.956 149.2C126.791 149.374 126.563 149.616 126.311 149.884C125.812 150.415 125.205 151.067 124.817 151.506L124 152.427L124.721 153.426L125.948 152.526C124.721 153.426 124.721 153.426 124.721 153.426L124.724 153.431L124.731 153.441L124.757 153.476C124.779 153.505 124.81 153.548 124.851 153.603C124.932 153.713 125.051 153.87 125.203 154.067C125.506 154.462 125.945 155.016 126.489 155.665C127.575 156.959 129.101 158.65 130.84 160.2C132.558 161.73 134.374 163.114 135.753 164.112C136.444 164.612 137.03 165.019 137.444 165.301C137.651 165.442 137.815 165.552 137.929 165.627C137.986 165.665 138.03 165.694 138.061 165.714L138.096 165.737L138.106 165.744L139.052 166.358L148.748 158.114L147.81 213.665C147.779 215.498 149.243 217 151.061 217H194.342C196.138 217 197.594 215.532 197.594 213.721V179.64L197.23 158.114L206.926 166.358L207.869 165.746L207.882 165.737L207.917 165.714C207.948 165.694 207.992 165.665 208.049 165.627C208.163 165.552 208.327 165.442 208.534 165.301C208.948 165.019 209.534 164.612 210.225 164.112C211.604 163.114 213.42 161.73 215.138 160.2C216.829 158.693 218.547 157.041 219.836 155.772C220.482 155.136 221.023 154.594 221.403 154.21C221.593 154.018 221.743 153.865 221.846 153.761L221.916 153.689L221.964 153.64L222.005 153.598L223 152.574L222.053 151.506C221.701 151.109 221.186 150.491 220.747 149.959C220.531 149.695 220.337 149.458 220.197 149.286C220.156 149.235 220.12 149.191 220.089 149.153C220.067 149.126 220.048 149.102 220.032 149.083L219.974 149.011L219.92 148.944L208.131 137.274L208.128 137.27L208.11 137.251C208.095 137.235 208.076 137.215 208.054 137.192C207.99 137.125 207.899 137.03 207.781 136.912C207.546 136.674 207.205 136.34 206.773 135.942C205.91 135.147 204.675 134.091 203.183 133.042C200.26 130.988 196.114 128.797 191.751 128.977H185.524L185.553 128.64ZM154.162 132.038H160.959C162.161 136.617 165.124 140.338 166.709 141.845L167.577 142.671L168.448 142.099V155.276H171.483V140.107L172.989 139.119L174.495 140.107V155.276H177.53V142.099L178.401 142.671L179.269 141.845C180.854 140.338 183.817 136.617 185.019 132.038H191.816L191.85 132.037C195.21 131.888 198.681 133.609 201.448 135.554C202.805 136.507 203.936 137.474 204.726 138.202C205.121 138.565 205.428 138.867 205.635 139.075C205.738 139.179 205.816 139.26 205.866 139.313C205.892 139.34 205.91 139.359 205.922 139.371L205.935 139.385L205.959 139.411L216.525 149.872L204.192 160.031L194.082 151.433L194.559 179.666V213.721C194.559 213.841 194.462 213.939 194.342 213.939H151.061C150.94 213.939 150.842 213.839 150.844 213.717L151.896 151.433L141.825 159.997L130.483 149.865L140.043 139.386L140.045 139.384L140.056 139.371C140.068 139.359 140.086 139.34 140.112 139.313C140.162 139.26 140.24 139.179 140.343 139.075C140.55 138.867 140.857 138.565 141.252 138.202C142.042 137.474 143.173 136.507 144.53 135.554C147.297 133.609 150.768 131.888 154.128 132.037L154.162 132.038ZM170.389 137.173L167.975 138.757C166.45 137.005 164.318 133.817 163.664 130.231C163.636 130.076 163.611 129.92 163.588 129.764L164.579 128.749C164.733 129.263 164.915 129.795 165.125 130.251C166.28 132.758 168.061 135.138 170.389 137.173ZM167.584 128.185C167.546 128.066 167.507 127.942 167.469 127.813C169.163 128.083 171.111 128.222 173.01 128.233C174.876 128.244 176.808 128.132 178.495 127.859C178.451 128.005 178.407 128.145 178.363 128.278C177.278 128.453 175.651 128.538 173.746 128.523C171.732 128.508 169.535 128.383 167.584 128.185ZM180.853 130.251C181.064 129.795 181.245 129.263 181.399 128.749L182.39 129.764C182.368 129.92 182.342 130.076 182.314 130.231C181.66 133.817 179.528 137.005 178.003 138.757L175.589 137.173C177.917 135.138 179.698 132.758 180.853 130.251ZM176.62 131.523C175.654 132.897 174.44 134.203 172.989 135.374C171.496 134.169 170.253 132.821 169.274 131.403C170.752 131.509 172.281 131.573 173.723 131.584C174.719 131.592 175.704 131.574 176.62 131.523ZM207.152 162.547L206.553 162.038L218.587 152.125C218.675 152.231 218.765 152.34 218.856 152.449C218.536 152.77 218.151 153.154 217.717 153.581C216.444 154.834 214.767 156.446 213.129 157.905C211.516 159.342 209.789 160.661 208.456 161.625C207.953 161.989 207.509 162.301 207.152 162.547ZM128.409 152.101L139.481 161.991L138.826 162.547C138.469 162.301 138.025 161.989 137.522 161.625C136.189 160.661 134.462 159.342 132.849 157.905C131.259 156.488 129.836 154.916 128.806 153.688C128.467 153.284 128.172 152.92 127.93 152.614C128.089 152.442 128.252 152.268 128.409 152.101Z" fill="#3C1F1B"/>
</svg>
