<svg width="320" height="320" viewBox="0 0 320 320" fill="none" xmlns="http://www.w3.org/2000/svg">
<rect width="320" height="320" fill="#F2F2EA"/>
<path d="M240.608 66.8109H76.9541V253.526H240.608V66.8109Z" fill="#DCCDB3" stroke="#3C1F1B" stroke-width="6.4" stroke-miterlimit="2.6131"/>
<path d="M55 66.8109H265" stroke="#3C1F1B" stroke-width="6.4" stroke-miterlimit="2.6131"/>
<path d="M89.4382 232.745L90.6063 234.63H90.6417L91.8098 232.745H92.4558L91.0311 235.011L92.4558 237.276H91.8098L90.6417 235.427H90.6063L89.4382 237.276H88.7922L90.2523 235.011L88.7922 232.745H89.4382ZM93.4353 232.745L94.6035 234.63H94.6389L95.807 232.745H96.453L95.0282 235.011L96.453 237.276H95.807L94.6389 235.427H94.6035L93.4353 237.276H92.7893L94.2495 235.011L92.7893 232.745H93.4353ZM97.4325 232.745L98.6007 234.63H98.636L99.8042 232.745H100.45L99.0254 235.011L100.45 237.276H99.8042L98.636 235.427H98.6007L97.4325 237.276H96.7865L98.2467 235.011L96.7865 232.745H97.4325ZM101.43 232.745L102.598 234.63H102.633L103.801 232.745H104.447L103.023 235.011L104.447 237.276H103.801L102.633 235.427H102.598L101.43 237.276H100.784L102.244 235.011L100.784 232.745H101.43ZM105.427 232.745L106.595 234.63H106.63L107.799 232.745H108.445L107.02 235.011L108.445 237.276H107.799L106.63 235.427H106.595L105.427 237.276H104.781L106.241 235.011L104.781 232.745H105.427ZM109.424 232.745L110.592 234.63H110.628L111.796 232.745H112.442L111.017 235.011L112.442 237.276H111.796L110.628 235.427H110.592L109.424 237.276H108.778L110.238 235.011L108.778 232.745H109.424ZM113.421 232.745L114.589 234.63H114.625L115.793 232.745H116.439L115.014 235.011L116.439 237.276H115.793L114.625 235.427H114.589L113.421 237.276H112.775L114.235 235.011L112.775 232.745H113.421ZM117.418 232.745L118.587 234.63H118.622L119.79 232.745H120.436L119.011 235.011L120.436 237.276H119.79L118.622 235.427H118.587L117.418 237.276H116.772L118.233 235.011L116.772 232.745H117.418ZM123.168 232.745L124.336 234.63H124.371L125.539 232.745H126.185L124.761 235.011L126.185 237.276H125.539L124.371 235.427H124.336L123.168 237.276H122.522L123.982 235.011L122.522 232.745H123.168ZM127.165 232.745L128.333 234.63H128.368L129.537 232.745H130.183L128.758 235.011L130.183 237.276H129.537L128.368 235.427H128.333L127.165 237.276H126.519L127.979 235.011L126.519 232.745H127.165ZM132.914 232.745L134.082 234.63H134.118L135.286 232.745H135.932L134.507 235.011L135.932 237.276H135.286L134.118 235.427H134.082L132.914 237.276H132.268L133.728 235.011L132.268 232.745H132.914ZM138.664 232.745L139.832 234.63H139.867L141.035 232.745H141.681L140.257 235.011L141.681 237.276H141.035L139.867 235.427H139.832L138.664 237.276H138.018L139.478 235.011L138.018 232.745H138.664ZM142.661 232.745L143.829 234.63H143.864L145.033 232.745H145.679L144.254 235.011L145.679 237.276H145.033L143.864 235.427H143.829L142.661 237.276H142.015L143.475 235.011L142.015 232.745H142.661ZM148.41 232.745L149.578 234.63H149.614L150.782 232.745H151.428L150.003 235.011L151.428 237.276H150.782L149.614 235.427H149.578L148.41 237.276H147.764L149.224 235.011L147.764 232.745H148.41ZM154.16 232.745L155.328 234.63H155.363L156.531 232.745H157.177L155.752 235.011L157.177 237.276H156.531L155.363 235.427H155.328L154.16 237.276H153.514L154.974 235.011L153.514 232.745H154.16ZM159.909 232.745L161.077 234.63H161.112L162.281 232.745H162.927L161.502 235.011L162.927 237.276H162.281L161.112 235.427H161.077L159.909 237.276H159.263L160.723 235.011L159.263 232.745H159.909ZM163.906 232.745L165.074 234.63H165.11L166.278 232.745H166.924L165.499 235.011L166.924 237.276H166.278L165.11 235.427H165.074L163.906 237.276H163.26L164.72 235.011L163.26 232.745H163.906ZM167.903 232.745L169.071 234.63H169.107L170.275 232.745H170.921L169.496 235.011L170.921 237.276H170.275L169.107 235.427H169.071L167.903 237.276H167.257L168.717 235.011L167.257 232.745H167.903ZM171.9 232.745L173.069 234.63H173.104L174.272 232.745H174.918L173.493 235.011L174.918 237.276H174.272L173.104 235.427H173.069L171.9 237.276H171.254L172.715 235.011L171.254 232.745H171.9ZM175.898 232.745L177.066 234.63H177.101L178.269 232.745H178.915L177.491 235.011L178.915 237.276H178.269L177.101 235.427H177.066L175.898 237.276H175.252L176.712 235.011L175.252 232.745H175.898ZM179.895 232.745L181.063 234.63H181.098L182.266 232.745H182.913L181.488 235.011L182.913 237.276H182.266L181.098 235.427H181.063L179.895 237.276H179.249L180.709 235.011L179.249 232.745H179.895ZM183.892 232.745L185.06 234.63H185.096L186.264 232.745H186.91L185.485 235.011L186.91 237.276H186.264L185.096 235.427H185.06L183.892 237.276H183.246L184.706 235.011L183.246 232.745H183.892ZM187.889 232.745L189.057 234.63H189.093L190.261 232.745H190.907L189.482 235.011L190.907 237.276H190.261L189.093 235.427H189.057L187.889 237.276H187.243L188.703 235.011L187.243 232.745H187.889ZM191.886 232.745L193.055 234.63H193.09L194.258 232.745H194.904L193.479 235.011L194.904 237.276H194.258L193.09 235.427H193.055L191.886 237.276H191.24L192.701 235.011L191.24 232.745H191.886ZM197.636 232.745L198.804 234.63H198.839L200.007 232.745H200.653L199.229 235.011L200.653 237.276H200.007L198.839 235.427H198.804L197.636 237.276H196.99L198.45 235.011L196.99 232.745H197.636ZM201.633 232.745L202.801 234.63H202.836L204.005 232.745H204.651L203.226 235.011L204.651 237.276H204.005L202.836 235.427H202.801L201.633 237.276H200.987L202.447 235.011L200.987 232.745H201.633ZM205.63 232.745L206.798 234.63H206.834L208.002 232.745H208.648L207.223 235.011L208.648 237.276H208.002L206.834 235.427H206.798L205.63 237.276H204.984L206.444 235.011L204.984 232.745H205.63ZM209.627 232.745L210.795 234.63H210.831L211.999 232.745H212.645L211.22 235.011L212.645 237.276H211.999L210.831 235.427H210.795L209.627 237.276H208.981L210.441 235.011L208.981 232.745H209.627Z" fill="#3C1F1B"/>
<path d="M88.8815 219.773L90.0497 221.658H90.0851L91.2532 219.773H91.8992L90.4744 222.038L91.8992 224.304H91.2532L90.0851 222.454H90.0497L88.8815 224.304H88.2355L89.6957 222.038L88.2355 219.773H88.8815ZM92.8787 219.773L94.0468 221.658H94.0822L95.2504 219.773H95.8964L94.4716 222.038L95.8964 224.304H95.2504L94.0822 222.454H94.0468L92.8787 224.304H92.2327L93.6929 222.038L92.2327 219.773H92.8787ZM96.8759 219.773L98.044 221.658H98.0794L99.2475 219.773H99.8935L98.4688 222.038L99.8935 224.304H99.2475L98.0794 222.454H98.044L96.8759 224.304H96.2299L97.69 222.038L96.2299 219.773H96.8759ZM100.873 219.773L102.041 221.658H102.077L103.245 219.773H103.891L102.466 222.038L103.891 224.304H103.245L102.077 222.454H102.041L100.873 224.304H100.227L101.687 222.038L100.227 219.773H100.873ZM104.87 219.773L106.038 221.658H106.074L107.242 219.773H107.888L106.463 222.038L107.888 224.304H107.242L106.074 222.454H106.038L104.87 224.304H104.224L105.684 222.038L104.224 219.773H104.87ZM108.867 219.773L110.036 221.658H110.071L111.239 219.773H111.885L110.46 222.038L111.885 224.304H111.239L110.071 222.454H110.036L108.867 224.304H108.221L109.682 222.038L108.221 219.773H108.867ZM112.865 219.773L114.033 221.658H114.068L115.236 219.773H115.882L114.457 222.038L115.882 224.304H115.236L114.068 222.454H114.033L112.865 224.304H112.219L113.679 222.038L112.219 219.773H112.865ZM116.862 219.773L118.03 221.658H118.065L119.233 219.773H119.879L118.455 222.038L119.879 224.304H119.233L118.065 222.454H118.03L116.862 224.304H116.216L117.676 222.038L116.216 219.773H116.862ZM122.611 219.773L123.779 221.658H123.815L124.983 219.773H125.629L124.204 222.038L125.629 224.304H124.983L123.815 222.454H123.779L122.611 224.304H121.965L123.425 222.038L121.965 219.773H122.611ZM126.608 219.773L127.776 221.658H127.812L128.98 219.773H129.626L128.201 222.038L129.626 224.304H128.98L127.812 222.454H127.776L126.608 224.304H125.962L127.422 222.038L125.962 219.773H126.608ZM132.358 219.773L133.526 221.658H133.561L134.729 219.773H135.375L133.951 222.038L135.375 224.304H134.729L133.561 222.454H133.526L132.358 224.304H131.712L133.172 222.038L131.712 219.773H132.358ZM138.107 219.773L139.275 221.658H139.311L140.479 219.773H141.125L139.7 222.038L141.125 224.304H140.479L139.311 222.454H139.275L138.107 224.304H137.461L138.921 222.038L137.461 219.773H138.107ZM142.104 219.773L143.272 221.658H143.308L144.476 219.773H145.122L143.697 222.038L145.122 224.304H144.476L143.308 222.454H143.272L142.104 224.304H141.458L142.918 222.038L141.458 219.773H142.104ZM147.854 219.773L149.022 221.658H149.057L150.225 219.773H150.871L149.446 222.038L150.871 224.304H150.225L149.057 222.454H149.022L147.854 224.304H147.208L148.668 222.038L147.208 219.773H147.854ZM153.603 219.773L154.771 221.658H154.806L155.975 219.773H156.621L155.196 222.038L156.621 224.304H155.975L154.806 222.454H154.771L153.603 224.304H152.957L154.417 222.038L152.957 219.773H153.603ZM159.352 219.773L160.52 221.658H160.556L161.724 219.773H162.37L160.945 222.038L162.37 224.304H161.724L160.556 222.454H160.52L159.352 224.304H158.706L160.166 222.038L158.706 219.773H159.352ZM163.35 219.773L164.518 221.658H164.553L165.721 219.773H166.367L164.942 222.038L166.367 224.304H165.721L164.553 222.454H164.518L163.35 224.304H162.703L164.164 222.038L162.703 219.773H163.35ZM167.347 219.773L168.515 221.658H168.55L169.718 219.773H170.364L168.94 222.038L170.364 224.304H169.718L168.55 222.454H168.515L167.347 224.304H166.701L168.161 222.038L166.701 219.773H167.347ZM171.344 219.773L172.512 221.658H172.547L173.716 219.773H174.362L172.937 222.038L174.362 224.304H173.716L172.547 222.454H172.512L171.344 224.304H170.698L172.158 222.038L170.698 219.773H171.344ZM175.341 219.773L176.509 221.658H176.545L177.713 219.773H178.359L176.934 222.038L178.359 224.304H177.713L176.545 222.454H176.509L175.341 224.304H174.695L176.155 222.038L174.695 219.773H175.341ZM179.338 219.773L180.506 221.658H180.542L181.71 219.773H182.356L180.931 222.038L182.356 224.304H181.71L180.542 222.454H180.506L179.338 224.304H178.692L180.152 222.038L178.692 219.773H179.338ZM183.335 219.773L184.504 221.658H184.539L185.707 219.773H186.353L184.928 222.038L186.353 224.304H185.707L184.539 222.454H184.504L183.335 224.304H182.689L184.15 222.038L182.689 219.773H183.335ZM187.333 219.773L188.501 221.658H188.536L189.704 219.773H190.35L188.925 222.038L190.35 224.304H189.704L188.536 222.454H188.501L187.333 224.304H186.687L188.147 222.038L186.687 219.773H187.333ZM191.33 219.773L192.498 221.658H192.533L193.701 219.773H194.347L192.923 222.038L194.347 224.304H193.701L192.533 222.454H192.498L191.33 224.304H190.684L192.144 222.038L190.684 219.773H191.33ZM197.079 219.773L198.247 221.658H198.283L199.451 219.773H200.097L198.672 222.038L200.097 224.304H199.451L198.283 222.454H198.247L197.079 224.304H196.433L197.893 222.038L196.433 219.773H197.079ZM201.076 219.773L202.244 221.658H202.28L203.448 219.773H204.094L202.669 222.038L204.094 224.304H203.448L202.28 222.454H202.244L201.076 224.304H200.43L201.89 222.038L200.43 219.773H201.076ZM205.073 219.773L206.242 221.658H206.277L207.445 219.773H208.091L206.666 222.038L208.091 224.304H207.445L206.277 222.454H206.242L205.073 224.304H204.427L205.888 222.038L204.427 219.773H205.073ZM209.071 219.773L210.239 221.658H210.274L211.442 219.773H212.088L210.664 222.038L212.088 224.304H211.442L210.274 222.454H210.239L209.071 224.304H208.425L209.885 222.038L208.425 219.773H209.071Z" fill="#3C1F1B"/>
<path d="M88.8815 207.908L90.0497 209.793H90.0851L91.2532 207.908H91.8992L90.4744 210.173L91.8992 212.439H91.2532L90.0851 210.589H90.0497L88.8815 212.439H88.2355L89.6957 210.173L88.2355 207.908H88.8815ZM92.8787 207.908L94.0468 209.793H94.0822L95.2504 207.908H95.8964L94.4716 210.173L95.8964 212.439H95.2504L94.0822 210.589H94.0468L92.8787 212.439H92.2327L93.6929 210.173L92.2327 207.908H92.8787ZM96.8759 207.908L98.044 209.793H98.0794L99.2475 207.908H99.8935L98.4688 210.173L99.8935 212.439H99.2475L98.0794 210.589H98.044L96.8759 212.439H96.2299L97.69 210.173L96.2299 207.908H96.8759ZM100.873 207.908L102.041 209.793H102.077L103.245 207.908H103.891L102.466 210.173L103.891 212.439H103.245L102.077 210.589H102.041L100.873 212.439H100.227L101.687 210.173L100.227 207.908H100.873ZM104.87 207.908L106.038 209.793H106.074L107.242 207.908H107.888L106.463 210.173L107.888 212.439H107.242L106.074 210.589H106.038L104.87 212.439H104.224L105.684 210.173L104.224 207.908H104.87ZM108.867 207.908L110.036 209.793H110.071L111.239 207.908H111.885L110.46 210.173L111.885 212.439H111.239L110.071 210.589H110.036L108.867 212.439H108.221L109.682 210.173L108.221 207.908H108.867ZM112.865 207.908L114.033 209.793H114.068L115.236 207.908H115.882L114.457 210.173L115.882 212.439H115.236L114.068 210.589H114.033L112.865 212.439H112.219L113.679 210.173L112.219 207.908H112.865ZM116.862 207.908L118.03 209.793H118.065L119.233 207.908H119.879L118.455 210.173L119.879 212.439H119.233L118.065 210.589H118.03L116.862 212.439H116.216L117.676 210.173L116.216 207.908H116.862ZM122.611 207.908L123.779 209.793H123.815L124.983 207.908H125.629L124.204 210.173L125.629 212.439H124.983L123.815 210.589H123.779L122.611 212.439H121.965L123.425 210.173L121.965 207.908H122.611ZM126.608 207.908L127.776 209.793H127.812L128.98 207.908H129.626L128.201 210.173L129.626 212.439H128.98L127.812 210.589H127.776L126.608 212.439H125.962L127.422 210.173L125.962 207.908H126.608ZM132.358 207.908L133.526 209.793H133.561L134.729 207.908H135.375L133.951 210.173L135.375 212.439H134.729L133.561 210.589H133.526L132.358 212.439H131.712L133.172 210.173L131.712 207.908H132.358ZM138.107 207.908L139.275 209.793H139.311L140.479 207.908H141.125L139.7 210.173L141.125 212.439H140.479L139.311 210.589H139.275L138.107 212.439H137.461L138.921 210.173L137.461 207.908H138.107ZM142.104 207.908L143.272 209.793H143.308L144.476 207.908H145.122L143.697 210.173L145.122 212.439H144.476L143.308 210.589H143.272L142.104 212.439H141.458L142.918 210.173L141.458 207.908H142.104ZM147.854 207.908L149.022 209.793H149.057L150.225 207.908H150.871L149.446 210.173L150.871 212.439H150.225L149.057 210.589H149.022L147.854 212.439H147.208L148.668 210.173L147.208 207.908H147.854Z" fill="#3C1F1B"/>
<path d="M88.8815 196.046L90.0497 197.931H90.0851L91.2532 196.046H91.8992L90.4744 198.311L91.8992 200.577H91.2532L90.0851 198.727H90.0497L88.8815 200.577H88.2355L89.6957 198.311L88.2355 196.046H88.8815ZM92.8787 196.046L94.0468 197.931H94.0822L95.2504 196.046H95.8964L94.4716 198.311L95.8964 200.577H95.2504L94.0822 198.727H94.0468L92.8787 200.577H92.2327L93.6929 198.311L92.2327 196.046H92.8787ZM96.8759 196.046L98.044 197.931H98.0794L99.2475 196.046H99.8935L98.4688 198.311L99.8935 200.577H99.2475L98.0794 198.727H98.044L96.8759 200.577H96.2299L97.69 198.311L96.2299 196.046H96.8759ZM100.873 196.046L102.041 197.931H102.077L103.245 196.046H103.891L102.466 198.311L103.891 200.577H103.245L102.077 198.727H102.041L100.873 200.577H100.227L101.687 198.311L100.227 196.046H100.873ZM104.87 196.046L106.038 197.931H106.074L107.242 196.046H107.888L106.463 198.311L107.888 200.577H107.242L106.074 198.727H106.038L104.87 200.577H104.224L105.684 198.311L104.224 196.046H104.87ZM108.867 196.046L110.036 197.931H110.071L111.239 196.046H111.885L110.46 198.311L111.885 200.577H111.239L110.071 198.727H110.036L108.867 200.577H108.221L109.682 198.311L108.221 196.046H108.867ZM112.865 196.046L114.033 197.931H114.068L115.236 196.046H115.882L114.457 198.311L115.882 200.577H115.236L114.068 198.727H114.033L112.865 200.577H112.219L113.679 198.311L112.219 196.046H112.865ZM116.862 196.046L118.03 197.931H118.065L119.233 196.046H119.879L118.455 198.311L119.879 200.577H119.233L118.065 198.727H118.03L116.862 200.577H116.216L117.676 198.311L116.216 196.046H116.862ZM122.611 196.046L123.779 197.931H123.815L124.983 196.046H125.629L124.204 198.311L125.629 200.577H124.983L123.815 198.727H123.779L122.611 200.577H121.965L123.425 198.311L121.965 196.046H122.611ZM126.608 196.046L127.776 197.931H127.812L128.98 196.046H129.626L128.201 198.311L129.626 200.577H128.98L127.812 198.727H127.776L126.608 200.577H125.962L127.422 198.311L125.962 196.046H126.608ZM132.358 196.046L133.526 197.931H133.561L134.729 196.046H135.375L133.951 198.311L135.375 200.577H134.729L133.561 198.727H133.526L132.358 200.577H131.712L133.172 198.311L131.712 196.046H132.358ZM138.107 196.046L139.275 197.931H139.311L140.479 196.046H141.125L139.7 198.311L141.125 200.577H140.479L139.311 198.727H139.275L138.107 200.577H137.461L138.921 198.311L137.461 196.046H138.107ZM142.104 196.046L143.272 197.931H143.308L144.476 196.046H145.122L143.697 198.311L145.122 200.577H144.476L143.308 198.727H143.272L142.104 200.577H141.458L142.918 198.311L141.458 196.046H142.104ZM147.854 196.046L149.022 197.931H149.057L150.225 196.046H150.871L149.446 198.311L150.871 200.577H150.225L149.057 198.727H149.022L147.854 200.577H147.208L148.668 198.311L147.208 196.046H147.854Z" fill="#3C1F1B"/>
<path d="M88.8815 184.181L90.0497 186.066H90.0851L91.2532 184.181H91.8992L90.4744 186.446L91.8992 188.712H91.2532L90.0851 186.862H90.0497L88.8815 188.712H88.2355L89.6957 186.446L88.2355 184.181H88.8815ZM92.8787 184.181L94.0468 186.066H94.0822L95.2504 184.181H95.8964L94.4716 186.446L95.8964 188.712H95.2504L94.0822 186.862H94.0468L92.8787 188.712H92.2327L93.6929 186.446L92.2327 184.181H92.8787ZM96.8759 184.181L98.044 186.066H98.0794L99.2475 184.181H99.8935L98.4688 186.446L99.8935 188.712H99.2475L98.0794 186.862H98.044L96.8759 188.712H96.2299L97.69 186.446L96.2299 184.181H96.8759ZM100.873 184.181L102.041 186.066H102.077L103.245 184.181H103.891L102.466 186.446L103.891 188.712H103.245L102.077 186.862H102.041L100.873 188.712H100.227L101.687 186.446L100.227 184.181H100.873ZM104.87 184.181L106.038 186.066H106.074L107.242 184.181H107.888L106.463 186.446L107.888 188.712H107.242L106.074 186.862H106.038L104.87 188.712H104.224L105.684 186.446L104.224 184.181H104.87ZM108.867 184.181L110.036 186.066H110.071L111.239 184.181H111.885L110.46 186.446L111.885 188.712H111.239L110.071 186.862H110.036L108.867 188.712H108.221L109.682 186.446L108.221 184.181H108.867ZM112.865 184.181L114.033 186.066H114.068L115.236 184.181H115.882L114.457 186.446L115.882 188.712H115.236L114.068 186.862H114.033L112.865 188.712H112.219L113.679 186.446L112.219 184.181H112.865ZM116.862 184.181L118.03 186.066H118.065L119.233 184.181H119.879L118.455 186.446L119.879 188.712H119.233L118.065 186.862H118.03L116.862 188.712H116.216L117.676 186.446L116.216 184.181H116.862ZM122.611 184.181L123.779 186.066H123.815L124.983 184.181H125.629L124.204 186.446L125.629 188.712H124.983L123.815 186.862H123.779L122.611 188.712H121.965L123.425 186.446L121.965 184.181H122.611ZM126.608 184.181L127.776 186.066H127.812L128.98 184.181H129.626L128.201 186.446L129.626 188.712H128.98L127.812 186.862H127.776L126.608 188.712H125.962L127.422 186.446L125.962 184.181H126.608ZM132.358 184.181L133.526 186.066H133.561L134.729 184.181H135.375L133.951 186.446L135.375 188.712H134.729L133.561 186.862H133.526L132.358 188.712H131.712L133.172 186.446L131.712 184.181H132.358ZM138.107 184.181L139.275 186.066H139.311L140.479 184.181H141.125L139.7 186.446L141.125 188.712H140.479L139.311 186.862H139.275L138.107 188.712H137.461L138.921 186.446L137.461 184.181H138.107ZM142.104 184.181L143.272 186.066H143.308L144.476 184.181H145.122L143.697 186.446L145.122 188.712H144.476L143.308 186.862H143.272L142.104 188.712H141.458L142.918 186.446L141.458 184.181H142.104ZM147.854 184.181L149.022 186.066H149.057L150.225 184.181H150.871L149.446 186.446L150.871 188.712H150.225L149.057 186.862H149.022L147.854 188.712H147.208L148.668 186.446L147.208 184.181H147.854Z" fill="#3C1F1B"/>
<path d="M88.8815 171.764L90.0497 173.649H90.0851L91.2532 171.764H91.8992L90.4744 174.029L91.8992 176.295H91.2532L90.0851 174.445H90.0497L88.8815 176.295H88.2355L89.6957 174.029L88.2355 171.764H88.8815ZM92.8787 171.764L94.0468 173.649H94.0822L95.2504 171.764H95.8964L94.4716 174.029L95.8964 176.295H95.2504L94.0822 174.445H94.0468L92.8787 176.295H92.2327L93.6929 174.029L92.2327 171.764H92.8787ZM96.8759 171.764L98.044 173.649H98.0794L99.2475 171.764H99.8935L98.4688 174.029L99.8935 176.295H99.2475L98.0794 174.445H98.044L96.8759 176.295H96.2299L97.69 174.029L96.2299 171.764H96.8759ZM100.873 171.764L102.041 173.649H102.077L103.245 171.764H103.891L102.466 174.029L103.891 176.295H103.245L102.077 174.445H102.041L100.873 176.295H100.227L101.687 174.029L100.227 171.764H100.873ZM104.87 171.764L106.038 173.649H106.074L107.242 171.764H107.888L106.463 174.029L107.888 176.295H107.242L106.074 174.445H106.038L104.87 176.295H104.224L105.684 174.029L104.224 171.764H104.87ZM108.867 171.764L110.036 173.649H110.071L111.239 171.764H111.885L110.46 174.029L111.885 176.295H111.239L110.071 174.445H110.036L108.867 176.295H108.221L109.682 174.029L108.221 171.764H108.867ZM112.865 171.764L114.033 173.649H114.068L115.236 171.764H115.882L114.457 174.029L115.882 176.295H115.236L114.068 174.445H114.033L112.865 176.295H112.219L113.679 174.029L112.219 171.764H112.865ZM116.862 171.764L118.03 173.649H118.065L119.233 171.764H119.879L118.455 174.029L119.879 176.295H119.233L118.065 174.445H118.03L116.862 176.295H116.216L117.676 174.029L116.216 171.764H116.862ZM122.611 171.764L123.779 173.649H123.815L124.983 171.764H125.629L124.204 174.029L125.629 176.295H124.983L123.815 174.445H123.779L122.611 176.295H121.965L123.425 174.029L121.965 171.764H122.611ZM126.608 171.764L127.776 173.649H127.812L128.98 171.764H129.626L128.201 174.029L129.626 176.295H128.98L127.812 174.445H127.776L126.608 176.295H125.962L127.422 174.029L125.962 171.764H126.608ZM132.358 171.764L133.526 173.649H133.561L134.729 171.764H135.375L133.951 174.029L135.375 176.295H134.729L133.561 174.445H133.526L132.358 176.295H131.712L133.172 174.029L131.712 171.764H132.358ZM138.107 171.764L139.275 173.649H139.311L140.479 171.764H141.125L139.7 174.029L141.125 176.295H140.479L139.311 174.445H139.275L138.107 176.295H137.461L138.921 174.029L137.461 171.764H138.107ZM142.104 171.764L143.272 173.649H143.308L144.476 171.764H145.122L143.697 174.029L145.122 176.295H144.476L143.308 174.445H143.272L142.104 176.295H141.458L142.918 174.029L141.458 171.764H142.104ZM147.854 171.764L149.022 173.649H149.057L150.225 171.764H150.871L149.446 174.029L150.871 176.295H150.225L149.057 174.445H149.022L147.854 176.295H147.208L148.668 174.029L147.208 171.764H147.854Z" fill="#3C1F1B"/>
<path d="M197.446 66.8109H122.554V113.195H197.446V66.8109Z" stroke="#3C1F1B" stroke-width="6.4" stroke-miterlimit="2.6131"/>
<path d="M107.4 151.015V129.401H116.054C117.644 129.401 118.97 129.636 120.033 130.108C121.095 130.579 121.894 131.234 122.428 132.071C122.963 132.901 123.231 133.858 123.231 134.942C123.231 135.786 123.062 136.528 122.724 137.168C122.386 137.802 121.922 138.322 121.331 138.73C120.747 139.131 120.078 139.416 119.326 139.585V139.796C120.149 139.832 120.919 140.064 121.637 140.493C122.362 140.922 122.949 141.524 123.399 142.298C123.85 143.065 124.075 143.979 124.075 145.042C124.075 146.189 123.79 147.212 123.22 148.113C122.657 149.006 121.823 149.714 120.719 150.234C119.614 150.755 118.253 151.015 116.634 151.015H107.4ZM111.97 147.279H115.695C116.969 147.279 117.897 147.036 118.481 146.551C119.065 146.058 119.357 145.404 119.357 144.588C119.357 143.99 119.213 143.462 118.925 143.005C118.636 142.547 118.224 142.189 117.69 141.928C117.162 141.668 116.532 141.538 115.801 141.538H111.97V147.279ZM111.97 138.445H115.357C115.984 138.445 116.539 138.336 117.025 138.118C117.517 137.893 117.904 137.577 118.186 137.168C118.474 136.76 118.619 136.271 118.619 135.701C118.619 134.92 118.341 134.291 117.785 133.812C117.236 133.334 116.455 133.095 115.442 133.095H111.97V138.445ZM127.048 151.015V129.401H135.576C137.208 129.401 138.602 129.693 139.755 130.277C140.916 130.854 141.799 131.673 142.405 132.736C143.017 133.791 143.323 135.033 143.323 136.461C143.323 137.897 143.013 139.131 142.394 140.166C141.775 141.193 140.878 141.981 139.703 142.53C138.535 143.079 137.121 143.353 135.46 143.353H129.75V139.68H134.721C135.594 139.68 136.318 139.561 136.895 139.321C137.472 139.082 137.902 138.723 138.183 138.245C138.471 137.766 138.616 137.172 138.616 136.461C138.616 135.744 138.471 135.139 138.183 134.646C137.902 134.154 137.469 133.781 136.885 133.527C136.308 133.267 135.58 133.137 134.7 133.137H131.618V151.015H127.048ZM138.721 141.179L144.093 151.015H139.048L133.792 141.179H138.721ZM150.278 151.015H145.381L152.842 129.401H158.732L166.183 151.015H161.286L155.871 134.34H155.703L150.278 151.015ZM149.972 142.519H161.539V146.087H149.972V142.519ZM186.863 129.401V151.015H182.916L173.512 137.411H173.354V151.015H168.784V129.401H172.795L182.124 142.994H182.314V129.401H186.863ZM198.301 151.015H190.639V129.401H198.364C200.538 129.401 202.41 129.833 203.979 130.699C205.548 131.557 206.755 132.792 207.599 134.403C208.45 136.015 208.876 137.942 208.876 140.187C208.876 142.438 208.45 144.373 207.599 145.992C206.755 147.61 205.541 148.852 203.958 149.717C202.382 150.583 200.496 151.015 198.301 151.015ZM195.209 147.1H198.111C199.462 147.1 200.598 146.861 201.52 146.382C202.449 145.897 203.145 145.147 203.61 144.134C204.081 143.114 204.317 141.798 204.317 140.187C204.317 138.59 204.081 137.285 203.61 136.271C203.145 135.258 202.452 134.512 201.531 134.034C200.609 133.555 199.473 133.316 198.122 133.316H195.209V147.1Z" fill="#3C1F1B"/>
<path d="M142.124 85.8763C142.052 85.1507 141.743 84.587 141.197 84.1852C140.652 83.7834 139.911 83.5825 138.976 83.5825C138.34 83.5825 137.803 83.6725 137.366 83.8524C136.928 84.0263 136.592 84.2691 136.358 84.581C136.13 84.8928 136.016 85.2466 136.016 85.6424C136.004 85.9722 136.073 86.26 136.223 86.5059C136.379 86.7518 136.592 86.9647 136.862 87.1446C137.132 87.3185 137.444 87.4714 137.797 87.6033C138.151 87.7292 138.529 87.8372 138.931 87.9271L140.586 88.3229C141.389 88.5028 142.127 88.7427 142.799 89.0425C143.47 89.3423 144.052 89.7111 144.544 90.1489C145.035 90.5866 145.416 91.1024 145.686 91.696C145.962 92.2897 146.103 92.9703 146.109 93.7379C146.103 94.8653 145.815 95.8427 145.245 96.6703C144.682 97.4918 143.866 98.1305 142.799 98.5862C141.737 99.036 140.457 99.2609 138.958 99.2609C137.47 99.2609 136.175 99.033 135.072 98.5772C133.974 98.1215 133.117 97.4469 132.499 96.5534C131.888 95.6538 131.567 94.5415 131.537 93.2162H135.306C135.348 93.8339 135.525 94.3496 135.836 94.7633C136.154 95.1711 136.577 95.4799 137.105 95.6898C137.638 95.8937 138.241 95.9957 138.913 95.9957C139.572 95.9957 140.145 95.8997 140.631 95.7078C141.122 95.5159 141.503 95.2491 141.773 94.9073C142.043 94.5655 142.178 94.1727 142.178 93.7289C142.178 93.3151 142.055 92.9673 141.809 92.6855C141.569 92.4036 141.215 92.1638 140.748 91.9659C140.286 91.768 139.719 91.5881 139.048 91.4262L137.042 90.9225C135.489 90.5447 134.262 89.954 133.363 89.1504C132.463 88.3469 132.017 87.2645 132.023 85.9032C132.017 84.7879 132.313 83.8134 132.913 82.9799C133.519 82.1463 134.349 81.4957 135.405 81.0279C136.46 80.5602 137.659 80.3263 139.003 80.3263C140.37 80.3263 141.563 80.5602 142.583 81.0279C143.608 81.4957 144.406 82.1463 144.975 82.9799C145.545 83.8134 145.839 84.7789 145.857 85.8763H142.124ZM152.623 80.5782V99H148.729V80.5782H152.623ZM155.63 99V96.6883L164.823 83.7894H155.612V80.5782H169.716V82.8899L160.514 95.7888H169.734V99H155.63ZM172.723 99V80.5782H185.136V83.7894H176.618V88.179H184.497V91.3902H176.618V95.7888H185.172V99H172.723Z" fill="#3C1F1B"/>
</svg>
