<svg width="320" height="320" viewBox="0 0 320 320" fill="none" xmlns="http://www.w3.org/2000/svg">
<g clip-path="url(#clip0_1423_5125)">
<rect width="320" height="320" fill="#DCFFE0"/>
<g clip-path="url(#clip1_1423_5125)">
<path d="M70.7222 54H249.278C253.448 54 257.447 55.6564 260.395 58.6048C263.344 61.5533 265 65.5522 265 69.7219V249.402C265 253.572 263.344 257.571 260.395 260.519C257.447 263.468 253.448 265.124 249.278 265.124H70.7219C66.5522 265.124 62.5533 263.468 59.6048 260.519C56.6564 257.571 55 253.572 55 249.402V69.7222C55 65.5524 56.6564 61.5534 59.6049 58.6049C62.5534 55.6564 66.5524 54 70.7222 54Z" fill="url(#paint0_radial_1423_5125)"/>
<path fill-rule="evenodd" clip-rule="evenodd" d="M221.953 78.7059L79.1443 77.396L76.3354 135.517C75.348 155.954 89.3606 154.883 104.758 154.883H147.994C161.369 154.883 167.112 155.186 167.112 139.254V108.185C167.112 97.2945 177.639 90.8719 187.536 90.8719H210.746C219.145 90.8719 223.371 87.6503 221.953 78.7059Z" fill="#DCCDB3"/>
<path fill-rule="evenodd" clip-rule="evenodd" d="M96.8021 87.4926C105.686 88.5622 114.687 86.9483 122.645 82.8587L94.2995 82.8272C89.2098 82.8194 86.4026 83.7304 85.6665 89.4696L83.3618 104.157C82.7321 108.162 82.9908 112.111 88.0059 112.398L88.4737 96.5825C89.0529 92.4339 91.804 87.0953 96.8021 87.4926Z" fill="#FAF0EC"/>
<path fill-rule="evenodd" clip-rule="evenodd" d="M226.454 118.506V220.376C226.454 232.613 222.648 239.79 209.604 239.79H181.204C174.589 239.79 173.415 232.027 173.415 226.971V186.73C173.558 179.63 177.077 178.691 183.263 178.552L209.977 177.946C221.802 177.68 215.386 133.936 226.454 118.506Z" fill="#DCCDB3"/>
<path fill-rule="evenodd" clip-rule="evenodd" d="M80.8324 247.81C89.7162 246.74 98.7169 248.354 106.676 252.444L78.3298 252.475C73.2401 252.483 70.4329 251.572 69.6968 245.833L67.3921 231.145C66.7623 227.14 67.0211 223.191 72.0362 222.904L72.504 238.72C73.0827 242.868 75.8339 248.207 80.8324 247.81Z" fill="#FAF0EC"/>
<path d="M85.0474 223.347L88.1015 228.426H88.2099L91.2776 223.347H94.1422L89.869 230.282L94.2099 237.216H91.2979L88.2099 232.171H88.1015L85.0135 237.216H82.1151L86.4966 230.282L82.1692 223.347H85.0474ZM98.2138 223.347L101.268 228.426H101.376L104.444 223.347H107.309L103.036 230.282L107.376 237.216H104.464L101.376 232.171H101.268L98.18 237.216H95.2816L99.6631 230.282L95.3357 223.347H98.2138ZM111.38 223.347L114.435 228.426H114.543L117.611 223.347H120.475L116.202 230.282L120.543 237.216H117.631L114.543 232.171H114.435L111.346 237.216H108.448L112.83 230.282L108.502 223.347H111.38ZM124.547 223.347L127.601 228.426H127.709L130.777 223.347H133.642L129.369 230.282L133.709 237.216H130.797L127.709 232.171H127.601L124.513 237.216H121.615L125.996 230.282L121.669 223.347H124.547ZM137.713 223.347L140.768 228.426H140.876L143.944 223.347H146.808L142.535 230.282L146.876 237.216H143.964L140.876 232.171H140.768L137.679 237.216H134.781L139.163 230.282L134.835 223.347H137.713Z" fill="white"/>
</g>
<g style="mix-blend-mode:hue">
<rect width="320" height="320" fill="#00BF13"/>
</g>
</g>
<defs>
<radialGradient id="paint0_radial_1423_5125" cx="0" cy="0" r="1" gradientUnits="userSpaceOnUse" gradientTransform="translate(160 159.562) rotate(-90) scale(105.566 105.006)">
<stop stop-color="#100604"/>
<stop offset="1" stop-color="#3C1F1B"/>
</radialGradient>
<clipPath id="clip0_1423_5125">
<rect width="320" height="320" fill="white"/>
</clipPath>
<clipPath id="clip1_1423_5125">
<rect width="210" height="211.124" fill="white" transform="translate(55 54)"/>
</clipPath>
</defs>
</svg>
