<svg width="320" height="320" viewBox="0 0 320 320" fill="none" xmlns="http://www.w3.org/2000/svg">
<g clip-path="url(#clip0_1423_4574)">
<rect width="320" height="320" fill="#DCFFE0"/>
<g clip-path="url(#clip1_1423_4574)">
<path d="M265 202.979L55 202.979" stroke="#3C1F1B" stroke-width="6.4" stroke-miterlimit="2.6131"/>
<path fill-rule="evenodd" clip-rule="evenodd" d="M230.062 202.979L82.4241 202.979V134.981C82.4372 130.452 84.2423 126.112 87.4449 122.91C90.6476 119.707 94.9875 117.902 99.5167 117.889L212.97 117.889C217.499 117.902 221.839 119.707 225.042 122.91C228.244 126.112 230.049 130.452 230.062 134.981L230.062 202.979Z" fill="#DCCDB3" stroke="#3C1F1B" stroke-width="6.4" stroke-miterlimit="2.6131"/>
<path d="M199.742 172.085L195.713 165.276H195.557L191.509 172.085H186.739L192.835 162.096L186.602 152.107H191.46L195.557 158.926H195.713L199.81 152.107H204.649L198.396 162.096L204.532 172.085H199.742ZM180.105 172.085L176.076 165.276H175.92L171.872 172.085H167.102L173.199 162.096L166.965 152.107H171.823L175.92 158.926H176.076L180.173 152.107H185.012L178.759 162.096L184.895 172.085H180.105ZM160.468 172.085L156.44 165.276H156.284L152.235 172.085H147.465L153.562 162.096L147.328 152.107H152.186L156.284 158.926H156.44L160.537 152.107H165.375L159.122 162.096L165.258 172.085H160.468ZM140.832 172.085L136.803 165.276H136.647L132.598 172.085H127.828L133.925 162.096L127.692 152.107H132.55L136.647 158.926H136.803L140.9 152.107H145.738L139.485 162.096L145.621 172.085H140.832ZM121.195 172.085L117.166 165.276H117.01L112.962 172.085H108.192L114.288 162.096L108.055 152.107H112.913L117.01 158.926H117.166L121.263 152.107H126.102L119.849 162.096L125.985 172.085H121.195Z" fill="#3C1F1B"/>
</g>
<g style="mix-blend-mode:hue">
<rect width="320" height="320" fill="#00BF13"/>
</g>
</g>
<defs>
<clipPath id="clip0_1423_4574">
<rect width="320" height="320" fill="white"/>
</clipPath>
<clipPath id="clip1_1423_4574">
<rect width="210" height="90.8672" fill="white" transform="translate(55 115)"/>
</clipPath>
</defs>
</svg>
