<svg width="320" height="320" viewBox="0 0 320 320" fill="none" xmlns="http://www.w3.org/2000/svg">
<g clip-path="url(#clip0_1425_12074)">
<rect width="320" height="320" fill="#DCFFE0"/>
<path fill-rule="evenodd" clip-rule="evenodd" d="M172.235 0.144601C172.186 0.224239 171.999 0.289398 171.82 0.289398C171.641 0.289398 171.368 0.385108 171.213 0.501959C171.059 0.618954 170.757 0.716692 170.542 0.719153C170.328 0.721759 170.113 0.788945 170.063 0.868583C170.014 0.948221 169.827 1.01338 169.648 1.01338C169.469 1.01338 169.196 1.10909 169.041 1.22594C168.887 1.34294 168.645 1.44067 168.505 1.44314C168.364 1.44574 168.136 1.50424 167.998 1.57316C167.59 1.77689 166.763 2.05461 166.333 2.13266C166.113 2.17247 165.897 2.26283 165.854 2.3332C165.81 2.40371 165.642 2.46134 165.48 2.46134C165.318 2.46134 165.012 2.55242 164.801 2.66377C164.589 2.77497 164.123 2.94525 163.765 3.04227C163.406 3.13913 162.983 3.27047 162.824 3.33432C162.664 3.39818 162.176 3.56252 161.738 3.69964C160.946 3.94753 160.824 3.98894 159.855 4.33863C159.576 4.43926 159.168 4.55423 158.949 4.59419C158.729 4.63401 158.513 4.72437 158.469 4.79474C158.426 4.86525 158.244 4.92288 158.064 4.92288C157.885 4.92288 157.612 5.01859 157.458 5.13544C157.303 5.25244 157.001 5.35018 156.787 5.35264C156.573 5.35524 156.362 5.4149 156.318 5.48542C156.275 5.55579 156.059 5.64614 155.839 5.68596C155.409 5.764 154.582 6.04172 154.174 6.24545C154.036 6.31437 153.799 6.37085 153.648 6.37085C153.496 6.37085 153.186 6.46815 152.958 6.58717C152.73 6.70605 152.433 6.80379 152.298 6.80437C152.163 6.8048 152.013 6.87039 151.964 6.95003C151.915 7.02967 151.743 7.09483 151.581 7.09483C151.42 7.09483 150.821 7.24889 150.251 7.43727C149.68 7.62565 148.919 7.85863 148.561 7.95506C148.203 8.05135 147.725 8.22308 147.5 8.33646C147.274 8.44998 146.936 8.54279 146.748 8.54279C146.56 8.54279 146.366 8.60795 146.317 8.68759C146.268 8.76723 146.07 8.83238 145.879 8.83238C145.687 8.83238 145.316 8.9223 145.055 9.0322C144.331 9.33642 143.577 9.55637 143.259 9.55637C143.101 9.55637 142.902 9.62659 142.816 9.71246C142.671 9.85754 142.32 9.96817 141.032 10.2757C140.455 10.4136 139.631 10.6939 139.26 10.8789C139.122 10.9479 138.849 11.0043 138.653 11.0043C138.458 11.0043 138.257 11.0695 138.208 11.1491C138.159 11.2288 137.943 11.2962 137.729 11.299C137.515 11.3019 137.176 11.3973 136.977 11.5111C136.778 11.6249 136.44 11.7203 136.226 11.7232C136.011 11.726 135.796 11.7935 135.747 11.8731C135.697 11.9527 135.514 12.0183 135.34 12.0188C135.165 12.0194 134.836 12.1171 134.608 12.236C134.38 12.355 134.041 12.4523 133.856 12.4523C133.671 12.4523 133.479 12.5175 133.43 12.5971C133.381 12.6767 133.165 12.7442 132.951 12.747C132.736 12.7498 132.398 12.8453 132.199 12.9591C132 13.0729 131.662 13.1683 131.447 13.1712C131.233 13.174 131.018 13.2414 130.968 13.3211C130.919 13.4007 130.7 13.4659 130.482 13.4659C130.264 13.4659 130.023 13.5273 129.948 13.6024C129.872 13.6774 129.549 13.8041 129.231 13.8837C127.873 14.2234 126.869 14.5413 126.373 14.7884C126.235 14.8574 125.929 14.9138 125.694 14.9138C125.459 14.9138 125.226 14.979 125.176 15.0586C125.127 15.1383 124.944 15.2039 124.77 15.2043C124.595 15.2049 124.266 15.3026 124.038 15.4215C123.81 15.5405 123.471 15.6378 123.286 15.6378C123.101 15.6378 122.909 15.703 122.86 15.7826C122.811 15.8622 122.595 15.9297 122.381 15.9325C122.166 15.9354 121.828 16.0308 121.629 16.1446C121.43 16.2584 121.092 16.3538 120.877 16.3567C120.663 16.3595 120.447 16.427 120.398 16.5066C120.349 16.5862 120.13 16.6514 119.912 16.6514C119.693 16.6514 119.442 16.7244 119.353 16.8136C119.205 16.961 118.706 17.1007 117.502 17.3318C117.263 17.3775 116.939 17.5039 116.782 17.6124C116.625 17.721 116.32 17.8098 116.103 17.8098C115.886 17.8098 115.669 17.8749 115.62 17.9546C115.571 18.0342 115.388 18.1007 115.213 18.1024C115.039 18.1041 114.44 18.2667 113.882 18.4638C113.325 18.6609 112.754 18.8223 112.613 18.8228C112.473 18.823 112.245 18.8794 112.107 18.9477C111.657 19.17 110.376 19.5473 110.071 19.5473C109.907 19.5473 109.732 19.6125 109.683 19.6921C109.634 19.7717 109.451 19.8373 109.277 19.8378C109.102 19.8384 108.773 19.9361 108.545 20.055C108.316 20.174 108.028 20.2713 107.903 20.2713C107.604 20.2713 106.745 20.5393 106.233 20.7926C106.007 20.9041 105.686 20.9953 105.519 20.9953C105.219 20.9953 104.664 21.1488 103.674 21.5055C103.395 21.6059 102.874 21.7657 102.516 21.8606C101.21 22.2061 100.268 22.5054 100.134 22.6177C100.058 22.681 99.8131 22.7328 99.5889 22.7328C99.3649 22.7328 99.0684 22.7889 98.9301 22.8572C98.4808 23.0795 97.1996 23.4568 96.8941 23.4568C96.7304 23.4568 96.556 23.522 96.5068 23.6016C96.4576 23.6813 96.242 23.7487 96.0277 23.7515C95.8134 23.7544 95.4751 23.8498 95.276 23.9636C95.0769 24.0774 94.7387 24.1728 94.5244 24.1757C94.3101 24.1785 94.0945 24.246 94.0452 24.3256C93.996 24.4052 93.7804 24.4727 93.5661 24.4755C93.3518 24.4784 93.0136 24.5738 92.8145 24.6876C92.6154 24.8014 92.2771 24.8968 92.0629 24.8997C91.8485 24.9025 91.6329 24.9699 91.5837 25.0496C91.5345 25.1292 91.3189 25.1967 91.1046 25.1994C90.8903 25.2023 90.552 25.2978 90.3529 25.4116C90.1538 25.5254 89.8156 25.6208 89.6013 25.6237C89.387 25.6264 89.1714 25.6939 89.1222 25.7736C89.0729 25.8532 88.8697 25.9184 88.6703 25.9184C88.285 25.9184 86.9738 26.2837 86.5541 26.508C86.4158 26.5818 86.1101 26.6423 85.8748 26.6423C85.6395 26.6423 85.4067 26.7075 85.3575 26.7871C85.3082 26.8668 85.0926 26.9342 84.8783 26.937C84.664 26.9399 84.3258 27.0353 84.1267 27.1491C83.9276 27.2629 83.5568 27.3584 83.3027 27.3613C83.0485 27.364 82.8004 27.4315 82.7511 27.5111C82.7019 27.5908 82.4863 27.6582 82.272 27.661C82.0577 27.6639 81.7195 27.7593 81.5204 27.8731C81.3213 27.9869 80.9504 28.0823 80.6963 28.0852C80.4422 28.088 80.194 28.1555 80.1448 28.2351C80.0956 28.3147 79.8436 28.3799 79.5847 28.3799C79.326 28.3799 78.9877 28.4756 78.8331 28.5925C78.6786 28.7095 78.3115 28.8072 78.0176 28.8097C77.7237 28.8123 77.4429 28.8794 77.3937 28.9591C77.3444 29.0387 77.12 29.1039 76.8948 29.1039C76.6698 29.1039 76.299 29.2012 76.0708 29.3202C75.8428 29.4391 75.4808 29.5368 75.2665 29.5374C75.0522 29.5378 74.8366 29.6034 74.7873 29.6831C74.7381 29.7627 74.4449 29.8279 74.1357 29.8279C73.8266 29.8279 73.5357 29.8893 73.4894 29.9643C73.4429 30.0393 73.1125 30.1445 72.755 30.1982C72.3975 30.2518 72.0694 30.3533 72.0259 30.4237C71.9823 30.4942 71.7216 30.5518 71.4464 30.5518C71.1713 30.5518 70.8331 30.6093 70.6948 30.6796C70.3525 30.8536 69.2584 31.1416 68.5964 31.2321C68.2973 31.2729 68.0165 31.3647 67.9725 31.436C67.9285 31.5072 67.6845 31.5677 67.4304 31.5705C67.1763 31.5734 66.8054 31.6688 66.6063 31.7826C66.4072 31.8964 66.0861 31.9918 65.8926 31.9947C65.5579 31.9995 65.0341 32.134 64.0724 32.4618C63.6334 32.6116 62.9514 32.7671 61.7486 32.9915C61.3863 33.0591 61.0149 33.1894 60.9232 33.2811C60.8316 33.3728 60.5129 33.4478 60.2149 33.4478C59.9169 33.4478 59.6329 33.5129 59.5837 33.5926C59.5345 33.6722 59.2691 33.7374 58.994 33.7374C58.7188 33.7374 58.3806 33.7948 58.2423 33.8651C57.9106 34.0338 56.8159 34.3231 56.181 34.4099C55.9023 34.448 55.5439 34.5317 55.3846 34.5959C55.2253 34.66 54.8018 34.7905 54.4434 34.8859C53.8118 35.0541 53.427 35.1428 51.9154 35.4678C51.5206 35.5528 51.1328 35.6869 51.0539 35.7658C50.975 35.8447 50.6667 35.9093 50.3687 35.9093C50.0707 35.9093 49.7868 35.9745 49.7376 36.0541C49.6883 36.1337 49.4038 36.1989 49.1051 36.1989C48.8065 36.1989 48.4357 36.2946 48.2811 36.4115C48.1266 36.5285 47.7595 36.6262 47.4656 36.6287C47.1716 36.6313 46.8909 36.6984 46.8416 36.7781C46.7924 36.8577 46.5237 36.9229 46.2443 36.9229C45.9652 36.9229 45.5944 37.0001 45.4203 37.0943C45.2464 37.1887 44.8271 37.319 44.4887 37.3839C43.3791 37.5969 42.6557 37.7637 41.7738 38.0099C41.2959 38.1432 40.6443 38.2857 40.3258 38.3264C40.0072 38.3672 39.6848 38.459 39.6091 38.5304C39.5335 38.6019 39.2933 38.6604 39.0755 38.6604C38.8577 38.6604 38.496 38.7346 38.2719 38.8251C37.8871 38.9804 37.4692 39.0792 36.0181 39.3578C35.6797 39.4226 35.2604 39.553 35.0865 39.6474C34.9124 39.7416 34.5416 39.8188 34.2624 39.8188C33.9831 39.8188 33.7144 39.884 33.6652 39.9636C33.6159 40.0432 33.3677 40.1107 33.1136 40.1135C32.8595 40.1164 32.4887 40.2118 32.2896 40.3256C32.0905 40.4394 31.6871 40.5348 31.3932 40.5377C31.0992 40.5405 30.8227 40.601 30.7786 40.6722C30.7346 40.7435 30.4539 40.8347 30.1547 40.8748C29.4607 40.9679 28.3918 41.2332 28.0181 41.4052C27.8588 41.4785 27.5005 41.5695 27.2217 41.6078C26.3988 41.7203 25.2775 42.0113 25.1294 42.1508C25.0538 42.222 24.7482 42.2803 24.4502 42.2803C24.1522 42.2803 23.8682 42.3455 23.819 42.4251C23.7698 42.5048 23.5216 42.5704 23.2675 42.5708C23.0134 42.5714 22.6188 42.6691 22.3907 42.788C22.1625 42.907 21.7591 43.0043 21.4943 43.0043C21.2293 43.0043 20.9723 43.0695 20.9231 43.1491C20.8738 43.2288 20.6051 43.2939 20.3258 43.2939C20.0466 43.2939 19.6758 43.3711 19.5018 43.4654C19.1831 43.6382 18.3719 43.8247 17.3032 43.9711C16.9846 44.0147 16.6485 44.1113 16.5565 44.1856C16.3902 44.3195 15.3782 44.5447 14.2624 44.696C13.9439 44.7391 13.5965 44.8447 13.4905 44.9304C13.3845 45.0163 12.961 45.1412 12.5494 45.2084C10.9111 45.4754 9.11406 45.8678 8.76018 46.0359C8.60091 46.1115 8.20996 46.2051 7.8914 46.2439C6.79052 46.3778 5.7432 46.615 5.59406 46.7641C5.51167 46.8465 5.13549 46.9138 4.75786 46.9138C4.38024 46.9138 4.03113 46.979 3.9819 47.0586C3.93267 47.1383 3.64351 47.2034 3.33944 47.2034C3.03537 47.2034 2.55262 47.3012 2.26664 47.4206C1.98081 47.5401 1.52963 47.6378 1.26422 47.6378C0.998805 47.6378 0.606407 47.7192 0.391964 47.8188C0.00752942 47.9973 0.00217195 48.0192 0.00115837 49.4285C0 50.8438 0.00304071 50.8562 0.325792 50.7557C0.504905 50.7 1.00402 50.5921 1.43464 50.5161C1.86527 50.4401 2.2762 50.3416 2.34787 50.2973C2.4194 50.2531 2.81629 50.1609 3.22983 50.0923C5.0505 49.7905 5.72858 49.6408 5.85701 49.5126C5.9326 49.4372 6.22132 49.3754 6.49832 49.3754C6.77531 49.3754 7.20217 49.3159 7.44673 49.2432C8.56543 48.9104 9.50458 48.6984 11.2579 48.3828C11.6361 48.3147 12.1292 48.1844 12.3533 48.0932C12.5774 48.002 12.9391 47.9274 13.1569 47.9274C13.3747 47.9274 13.6149 47.8689 13.6905 47.7974C13.7662 47.726 14.0887 47.6342 14.4072 47.5937C15.156 47.4982 16.3543 47.2217 16.724 47.0592C16.8833 46.9891 17.2416 46.9018 17.5204 46.8652C17.7991 46.8284 18.4181 46.69 18.8959 46.5573C19.8222 46.3002 20.6136 46.1172 21.6162 45.9279C21.9575 45.8635 22.3298 45.7533 22.4434 45.6831C22.5571 45.6128 22.9294 45.5026 23.2707 45.4382C23.6121 45.3738 24.1707 45.2684 24.5121 45.2039C24.8534 45.1395 25.2257 45.0293 25.3394 44.9591C25.453 44.8889 25.8253 44.7787 26.1666 44.7142C26.508 44.6498 27.0643 44.5439 27.4027 44.4789C27.7413 44.4141 28.1604 44.2837 28.3343 44.1893C28.5084 44.0951 28.8374 44.0179 29.0656 44.0179C29.2938 44.0179 29.5425 43.9594 29.6181 43.8879C29.6938 43.8165 30.0163 43.726 30.3348 43.6868C30.6534 43.6477 31.305 43.5065 31.7828 43.3731C32.6129 43.1414 32.9224 43.0679 34.5074 42.7257C34.891 42.6428 35.2796 42.529 35.3709 42.4725C35.4622 42.416 35.8163 42.3171 36.1575 42.2527C37.559 41.9881 38.0289 41.8775 38.4167 41.721C38.6408 41.6305 39.0116 41.5564 39.2407 41.5564C39.4698 41.5564 39.6974 41.4912 39.7466 41.4116C39.7958 41.3319 40.0235 41.2668 40.2525 41.2668C40.4816 41.2668 40.8524 41.1926 41.0766 41.1021C41.4643 40.9456 41.9342 40.835 43.3357 40.5704C43.677 40.506 44.031 40.4071 44.1224 40.3506C44.2136 40.2942 44.6022 40.1804 44.9858 40.0974C45.3693 40.0146 45.9439 39.8909 46.2624 39.8226C46.581 39.7542 47.2326 39.5909 47.7104 39.4597C48.5414 39.2315 48.8614 39.1559 50.435 38.8162C50.8186 38.7333 51.2072 38.6195 51.2985 38.563C51.3898 38.5065 51.7439 38.4076 52.0851 38.3432C52.4266 38.2788 52.9852 38.1733 53.3266 38.1089C53.6679 38.0445 54.0402 37.9343 54.1538 37.8641C54.2675 37.7938 54.6398 37.6836 54.9811 37.6192C55.3225 37.5548 55.8788 37.4489 56.2172 37.3839C56.5556 37.319 56.9749 37.1887 57.1488 37.0943C57.3229 37.0001 57.6611 36.9229 57.9005 36.9229C58.1399 36.9229 58.3761 36.8577 58.4253 36.7781C58.4746 36.6984 58.7228 36.631 58.9769 36.6282C59.231 36.6253 59.6018 36.5299 59.8009 36.4161C60 36.3023 60.4034 36.2069 60.6973 36.204C60.9913 36.2012 61.272 36.1337 61.3213 36.0541C61.3705 35.9745 61.5815 35.9093 61.7901 35.9093C61.9988 35.9093 62.3696 35.8463 62.6142 35.7693C63.1099 35.6131 64.4901 35.2402 65.3756 35.0233C65.6941 34.9451 66.2567 34.7868 66.6257 34.6713C66.9948 34.5559 67.4356 34.4613 67.6051 34.4613C67.7747 34.4613 68.0266 34.4039 68.1649 34.3336C68.5072 34.1596 69.6013 33.8716 70.2633 33.7811C70.5625 33.7403 70.8432 33.6485 70.8872 33.5772C70.9313 33.506 71.1632 33.4478 71.4027 33.4478C71.6421 33.4478 71.9803 33.3706 72.1544 33.2763C72.3283 33.1819 72.7312 33.0552 73.0498 32.9946C73.7028 32.8703 74.3897 32.7028 75.6561 32.3589C76.1339 32.229 76.7529 32.0679 77.0317 32.0004C77.3104 31.9331 77.8968 31.7693 78.3348 31.6365C78.7729 31.5037 79.3919 31.3424 79.7104 31.2781C80.029 31.2139 80.648 31.0534 81.086 30.9215C81.9698 30.6555 82.6896 30.4677 83.5225 30.2863C83.8273 30.2198 84.1643 30.1112 84.2715 30.0451C84.3786 29.9789 84.7321 29.8672 85.0567 29.7972C86.0202 29.5894 86.634 29.4311 87.095 29.2718C87.3339 29.1893 87.8226 29.0471 88.181 28.956C89.1749 28.7032 90.392 28.3524 90.7149 28.2257C90.8742 28.1633 91.1674 28.08 91.3665 28.0408C91.5656 28.0015 92.0869 27.8609 92.5249 27.7283C92.9629 27.5957 93.4842 27.4551 93.6833 27.4158C93.8824 27.3766 94.1756 27.2944 94.3348 27.2333C95.0352 26.9641 96.1309 26.6423 96.3472 26.6423C96.477 26.6423 96.6963 26.5853 96.8346 26.5155C96.9729 26.4458 97.4769 26.276 97.9548 26.1382C98.4326 26.0003 98.9733 25.8293 99.1561 25.7582C99.339 25.687 99.6356 25.6288 99.8149 25.6288C99.9944 25.6288 100.203 25.5674 100.279 25.4922C100.354 25.4172 100.677 25.2905 100.995 25.2109C102.401 24.8593 102.612 24.796 102.908 24.6378C103.08 24.5457 103.384 24.4704 103.584 24.4704C103.783 24.4704 103.987 24.4052 104.036 24.3256C104.085 24.246 104.268 24.1805 104.443 24.1802C104.617 24.1798 105.216 24.0183 105.774 23.8213C106.331 23.6242 106.93 23.4616 107.105 23.4599C107.279 23.4581 107.462 23.3917 107.511 23.312C107.561 23.2324 107.758 23.1672 107.949 23.1672C108.141 23.1672 108.512 23.0757 108.773 22.9639C109.035 22.8521 109.542 22.6852 109.9 22.5931C110.259 22.5009 110.748 22.3585 110.986 22.2769C111.225 22.1951 111.633 22.0688 111.891 21.9961C112.15 21.9234 112.574 21.8047 112.833 21.732C113.091 21.6593 113.499 21.5345 113.738 21.4546C113.976 21.3746 114.4 21.2475 114.679 21.1722C115.834 20.8596 116.939 20.5169 117.174 20.3981C117.313 20.3283 117.558 20.2713 117.719 20.2713C117.881 20.2713 118.126 20.2153 118.264 20.1469C118.671 19.9457 119.983 19.5473 120.239 19.5473C120.368 19.5473 120.588 19.4868 120.726 19.4129C120.959 19.2886 121.717 19.0533 123.149 18.6612C123.468 18.574 123.957 18.4204 124.235 18.32C124.514 18.2195 124.97 18.0726 125.249 17.9935C126.741 17.5698 127.519 17.3261 127.745 17.2126C127.883 17.1428 128.102 17.0858 128.232 17.0858C128.488 17.0858 129.799 16.6874 130.206 16.4862C130.344 16.4178 130.617 16.3618 130.813 16.3618C131.008 16.3618 131.205 16.3023 131.25 16.2296C131.295 16.1569 131.592 16.0535 131.91 15.9998C132.227 15.9461 132.524 15.8427 132.569 15.77C132.614 15.6973 132.789 15.6378 132.958 15.6378C133.328 15.6378 134.148 15.3937 134.709 15.1165C134.934 15.0051 135.305 14.9138 135.533 14.9138C135.76 14.9138 135.982 14.8559 136.026 14.785C136.07 14.7142 136.318 14.6247 136.578 14.586C137.052 14.5154 137.847 14.2591 138.315 14.0256C138.453 13.9567 138.681 13.899 138.822 13.8972C138.962 13.8955 139.533 13.7329 140.09 13.5358C140.648 13.3387 141.247 13.1773 141.421 13.1769C141.596 13.1766 141.775 13.1168 141.82 13.0441C141.865 12.9714 142.162 12.868 142.48 12.8143C142.797 12.7606 143.094 12.6572 143.139 12.5845C143.184 12.5118 143.381 12.4523 143.576 12.4523C143.772 12.4523 144.045 12.3952 144.183 12.3255C144.321 12.2558 144.825 12.0854 145.303 11.9467C145.781 11.8081 146.302 11.6462 146.462 11.587C146.741 11.4832 147.944 11.1193 148.995 10.8206C149.274 10.7415 149.73 10.5946 150.009 10.4941C150.288 10.3937 150.809 10.2344 151.167 10.1402C151.526 10.0459 152.003 9.87608 152.229 9.7627C152.454 9.64918 152.765 9.55637 152.919 9.55637C153.073 9.55637 153.312 9.49714 153.45 9.42475C153.588 9.35235 154.288 9.11734 155.005 8.90246C155.721 8.68759 156.421 8.4536 156.559 8.3825C156.697 8.31141 156.907 8.2532 157.025 8.2532C157.143 8.2532 157.453 8.16328 157.715 8.05338C157.976 7.94348 158.451 7.77653 158.769 7.68256C159.088 7.58844 159.576 7.42627 159.855 7.32216C160.134 7.21805 160.623 7.05515 160.941 6.96017C161.26 6.86518 161.748 6.70214 162.027 6.59789C162.306 6.49349 163.088 6.23228 163.765 6.01725C164.442 5.80223 165.126 5.57287 165.285 5.50757C165.444 5.44227 165.9 5.28806 166.299 5.16513C167.285 4.86033 167.992 4.61562 168.258 4.48748C168.38 4.42869 168.689 4.33457 168.944 4.27854C169.199 4.2225 169.446 4.11651 169.491 4.04295C169.536 3.9694 169.729 3.90931 169.919 3.90931C170.108 3.90931 170.304 3.84415 170.353 3.76451C170.402 3.68487 170.589 3.61971 170.768 3.61971C170.947 3.61971 171.22 3.524 171.375 3.40715C171.53 3.29016 171.831 3.19242 172.046 3.18996C172.26 3.18735 172.476 3.12017 172.525 3.04053C172.574 2.96089 172.733 2.89573 172.879 2.89573C173.024 2.89573 173.33 2.79843 173.558 2.67941C173.786 2.56053 174.083 2.46279 174.218 2.46221C174.352 2.46178 174.503 2.39618 174.552 2.31655C174.601 2.23691 174.787 2.17175 174.966 2.17175C175.145 2.17175 175.352 2.11571 175.428 2.04723C175.504 1.97874 175.924 1.80585 176.362 1.66323C176.8 1.5206 177.364 1.316 177.615 1.20856C177.866 1.10127 178.162 1.01338 178.273 1.01338C178.385 1.01338 178.538 0.958502 178.614 0.891316C178.689 0.824131 179.11 0.659642 179.548 0.52585C181.125 0.0435333 180.901 0.00429348 176.552 0.00197674C173.887 0.000673568 172.292 0.0533794 172.235 0.144601ZM164.778 102.537C145.188 103.19 126.254 111.486 112.137 125.603C99.1204 138.62 91.1774 155.421 89.133 174.262C87.8889 185.727 89.297 198.12 93.1171 209.327C96.3517 218.816 101.862 228.645 107.871 235.646C118.534 248.066 131.259 256.559 146.21 261.231C153.563 263.529 160.565 264.647 168.496 264.791C176.066 264.928 181.463 264.315 188.717 262.497C205.226 258.357 219.457 249.457 230.358 236.452C245.407 218.501 251.879 194.283 247.884 170.871C245.021 154.087 237.388 139.043 225.593 126.934C212.392 113.379 195.403 105.026 176.656 102.873C174.068 102.576 168.417 102.416 164.778 102.537ZM0 144.408V146.031L1.66197 146.734C5.60695 148.402 9.77969 151.436 12.4878 154.607C16.2146 158.969 18.6567 164.276 19.5684 169.991C19.8656 171.854 19.8218 177.036 19.4918 179.041C19.0161 181.928 17.9104 185.302 16.5614 187.981C13.4575 194.144 7.67479 199.46 1.23077 202.072L0.0723982 202.542L0.0314208 204.149C-0.00622624 205.628 0.0117285 205.755 0.257158 205.755C0.403837 205.755 0.650281 205.66 0.804923 205.543C0.959421 205.426 1.22874 205.328 1.40322 205.326C1.5777 205.323 1.76072 205.256 1.80995 205.176C1.85919 205.097 1.99776 205.031 2.11779 205.031C2.31891 205.031 5.78881 203.37 6.43562 202.964C6.59055 202.867 7.1444 202.517 7.66639 202.187C12.7571 198.97 16.9111 194.318 19.5413 188.887C20.4699 186.969 20.8507 186.092 20.8507 185.871C20.8507 185.756 20.948 185.475 21.067 185.247C21.1859 185.019 21.2836 184.722 21.2842 184.588C21.2846 184.453 21.3502 184.302 21.4299 184.253C21.5095 184.204 21.5747 184.026 21.5747 183.857C21.5747 183.688 21.6339 183.35 21.7061 183.105C22.3111 181.059 22.3651 180.796 22.5885 178.823C22.6651 178.146 22.7912 177.299 22.8689 176.941C23.061 176.054 23.0571 172.868 22.8626 171.801C22.7756 171.323 22.6493 170.411 22.5823 169.774C22.4368 168.392 22.2661 167.4 22.0215 166.516C21.9223 166.157 21.7719 165.603 21.6872 165.285C21.4607 164.435 21.1514 163.444 21.0091 163.113C20.9406 162.954 20.7008 162.367 20.4762 161.81C19.7618 160.036 17.8718 156.488 17.2557 155.763C17.1367 155.624 16.9684 155.387 16.8817 155.237C16.2139 154.084 13.7701 151.363 11.6561 149.419C10.8024 148.634 7.80453 146.389 7.60963 146.389C7.5549 146.389 7.30266 146.231 7.04912 146.038C6.79558 145.846 5.83891 145.31 4.92308 144.848C3.18595 143.972 3.13195 143.948 1.19457 143.229L0 142.785V144.408ZM1.17937 161.596C0.991855 161.675 0.649701 161.874 0.419186 162.038L0 162.336V164.749V167.162L1.52022 165.647C3.11428 164.058 3.42719 163.53 3.27008 162.692C3.10212 161.797 2.03352 161.237 1.17937 161.596ZM129.544 174.371C129.491 177.098 129.406 182.402 129.353 186.156L129.258 192.982L131.054 193.068C132.042 193.115 135.473 193.193 138.679 193.242L144.507 193.33V191.434V189.538L143.457 189.519C142.88 189.508 140.583 189.459 138.353 189.41L134.299 189.321V186.353C134.299 184.72 134.354 180.24 134.42 176.398L134.542 169.412H132.091H129.639L129.544 174.371ZM153.701 169.715C149.971 170.553 147.3 173.262 146.222 177.303C145.831 178.768 145.67 183.503 145.956 185.122C146.346 187.324 147.328 189.407 148.654 190.839C151.691 194.119 157.13 194.808 161.098 192.416C162.412 191.624 163.792 190.057 164.55 188.495C165.617 186.296 165.847 185.079 165.856 181.574C165.863 178.946 165.826 178.457 165.534 177.303C164.996 175.179 164.201 173.748 162.756 172.301C161.357 170.9 160.338 170.313 158.493 169.846C157.263 169.535 154.805 169.468 153.701 169.715ZM177.52 169.994C173.416 170.476 170.538 173.118 169.402 177.448C169.051 178.785 168.846 182.424 169.001 184.56C169.349 189.367 172.143 192.921 176.362 193.925C180.242 194.847 185.147 193.837 187.553 191.619L188.044 191.166L188.14 188.954C188.192 187.737 188.235 185.622 188.235 184.253V181.765L185.52 181.67C184.027 181.618 181.951 181.575 180.907 181.575L179.01 181.574L178.908 183.187C178.851 184.074 178.86 184.854 178.926 184.921C178.993 184.987 179.99 185.059 181.143 185.082L183.24 185.122L183.28 187.175L183.32 189.228L182.846 189.587C182.061 190.181 180.864 190.447 179.274 190.381C176.537 190.266 175.112 189.104 174.239 186.274C174.015 185.547 173.974 184.921 173.978 182.298C173.984 178.84 174.129 177.916 174.911 176.367C175.773 174.661 176.934 173.899 178.846 173.785C181.432 173.632 182.951 174.81 183.52 177.412L183.607 177.81H185.469C186.493 177.81 187.534 177.85 187.783 177.9C188.219 177.987 188.235 177.973 188.235 177.496C188.235 176.103 187.21 173.669 186.163 172.576C184.716 171.066 182.975 170.291 180.377 170.002C178.861 169.833 178.898 169.833 177.52 169.994ZM200.084 170.441C197.014 170.838 194.377 172.768 192.952 175.661C191.947 177.703 191.696 178.863 191.605 181.884C191.519 184.73 191.67 186.191 192.216 187.796C193.701 192.162 197.031 194.596 201.528 194.604C203.403 194.607 204.789 194.302 206.19 193.579C208.756 192.254 210.469 189.937 211.296 186.673C211.579 185.556 211.615 185.047 211.609 182.226C211.602 179.175 211.585 178.986 211.205 177.744C210.249 174.623 208.65 172.599 206.184 171.388C204.193 170.411 202.435 170.138 200.084 170.441ZM154.309 173.675C152.466 174.332 151.336 176.083 150.873 178.996C150.759 179.71 150.721 181.006 150.765 182.616C150.827 184.85 150.877 185.248 151.226 186.28C151.918 188.328 153.07 189.486 154.763 189.838C156.94 190.29 158.93 189.335 159.932 187.357C160.72 185.803 160.912 184.667 160.924 181.502C160.933 179.131 160.888 178.438 160.675 177.679C160.107 175.654 159.292 174.536 157.909 173.881C157.18 173.536 156.849 173.467 155.946 173.472C155.348 173.476 154.612 173.567 154.309 173.675ZM200.648 174.332C198.838 174.657 197.538 176.122 196.856 178.606C196.479 179.977 196.388 184.193 196.699 185.846C197.132 188.152 198.195 189.735 199.779 190.436C200.675 190.833 202.78 190.76 203.663 190.301C204.441 189.897 205.412 188.823 205.835 187.898C206.527 186.385 206.684 185.343 206.689 182.226C206.694 179.099 206.555 178.23 205.817 176.775C204.873 174.91 202.823 173.942 200.648 174.332Z" fill="#3C1F1B"/>
<g style="mix-blend-mode:hue">
<rect width="320" height="320" fill="#00BF13"/>
</g>
</g>
<defs>
<clipPath id="clip0_1425_12074">
<rect width="320" height="320" fill="white"/>
</clipPath>
</defs>
</svg>
