<svg width="320" height="320" viewBox="0 0 320 320" fill="none" xmlns="http://www.w3.org/2000/svg">
<g clip-path="url(#clip0_1428_979)">
<rect width="320" height="320" fill="#DCFFE0"/>
<g clip-path="url(#clip1_1428_979)">
<path fill-rule="evenodd" clip-rule="evenodd" d="M125.029 59.7553C128.444 57.9474 131.991 61.2779 138.218 63.5245C146.306 66.4435 153.409 65.4705 167.609 63.5245C181.652 61.6025 187.466 58.4624 189.088 60.8892C191.075 63.8602 184.357 71.5595 181.175 75.2064C175.403 81.8258 170.268 87.7087 161.204 89.9022C150.819 92.4163 142.25 88.3989 138.218 86.5103C134.38 84.7136 121.984 78.9033 121.26 69.1751C121.019 65.9132 122.022 61.3468 125.029 59.7553Z" fill="#3C1F1B" stroke="#331815" stroke-width="0.7268" stroke-miterlimit="2.6131"/>
<path fill-rule="evenodd" clip-rule="evenodd" d="M212.077 239.88C204.462 242.703 199.708 240.868 190.598 240.636C180.256 240.368 179.52 242.558 165.727 244.026C152.447 245.442 149.026 243.852 135.581 244.026C115.499 244.29 92.9672 248.238 92.9971 251.188C93.0351 254.805 127.005 257.269 140.854 257.971C159.684 258.929 156.587 257.403 182.682 257.971C210.867 258.585 221.084 260.512 224.511 254.579C227.539 249.338 224.297 239.64 219.612 237.999C217.33 237.198 215.526 238.602 212.077 239.88Z" fill="#3C1F1B" stroke="#331815" stroke-width="0.7268" stroke-miterlimit="2.6131"/>
<path fill-rule="evenodd" clip-rule="evenodd" d="M125.029 59.7553C121.466 58.1531 118.787 60.8882 100.158 71.8148C89.8537 77.8577 86.0468 79.7348 82.4491 85.0036C80.648 87.6398 79.9958 89.5247 77.5504 97.0631C68.0813 126.271 68.9049 125.706 66.6241 130.224C65.1897 133.066 61.89 139.17 57.9565 148.311C55.3963 154.259 54.6484 156.666 55.6941 158.863C57.4296 162.51 62.1372 161.858 71.1452 164.517C85.36 168.71 92.2115 175.894 95.3665 173.121C96.4153 172.201 96.3854 170.774 96.4268 168.523C96.5603 161.656 97.976 154.869 98.3729 148.014C98.9677 137.697 99.7118 138.25 100.448 126.256C100.769 121.06 101.124 112.846 100.849 112.827C100.235 112.781 100.117 153.644 92.6234 194.282C89.8007 209.588 91.4181 225.715 86.9702 240.631C85.9361 244.095 84.57 248.102 86.592 251.184C90.5632 257.235 103.26 253.088 128.042 250.807C151.367 248.663 147.736 251.634 168.364 249.299C191.007 246.735 197.397 242.92 208.308 247.037C211.005 248.056 215.068 249.967 218.483 248.166C221.244 246.709 223.225 243.012 223.758 231.964C224.377 219.103 222.21 213.415 220.368 196.919C219.566 189.742 218.769 182.944 218.712 173.628C218.654 164.262 219.318 151.717 219.402 150.161C219.817 144.529 219.889 138.878 219.616 133.238C219.368 128.762 218.891 124.566 218.86 124.57C218.825 124.573 219.584 129.689 219.73 135.656C219.909 142.913 219.242 153.617 218.246 169.607C218.147 171.209 218.04 173.376 219.398 174.551C221.569 176.427 225.475 174.051 233.93 170.919C241.964 167.939 244.867 167.768 255.408 163.38C262.345 160.492 263.618 159.275 264.077 157.727C265.068 154.384 261.669 151.508 258.423 146.8C253.421 139.536 255.317 137.396 249.003 118.538C245.646 108.516 243.971 103.507 241.465 99.3174C235.273 88.9601 227.155 82.5618 223 79.346C222.042 78.6053 222.527 79.01 209.433 70.6781C195.478 61.7933 192.361 59.6979 189.084 60.8814C185.265 62.2581 186.128 66.3216 181.923 72.1852C176.197 80.1741 164.95 86.1022 153.661 84.9958C152.997 84.9312 140.949 83.5729 133.311 74.0701C127.646 67.0162 129.455 61.7428 125.029 59.7553Z" fill="#6A443F" stroke="#331815" stroke-width="0.7268" stroke-miterlimit="2.6131"/>
<path fill-rule="evenodd" clip-rule="evenodd" d="M102.784 191.131C97.6483 198.57 108.14 206.586 105.453 219.736C103.347 230.037 95.2294 233.345 97.446 239.189C99.3425 244.191 106.812 245.775 108.124 246.057C113.122 247.117 115.792 245.553 122.999 244.53C125.334 244.198 126.135 244.209 139.4 244.149C161.935 244.046 163.183 244 164.191 242.623C168.585 236.61 159.6 217.165 147.408 213.636C143.882 212.618 139.45 212.743 134.441 209.058C131.724 207.059 131.843 206.151 127.955 202.954C122.408 198.391 121.111 199.383 118.039 196.087C113.816 191.566 114.549 187.866 111.554 186.935C108.788 186.076 104.817 188.186 102.784 191.131Z" fill="#55322D"/>
<path fill-rule="evenodd" clip-rule="evenodd" d="M205.378 109.893C200.986 114.429 205.851 121.117 205.759 132.776C205.622 150.199 194.616 154.003 196.607 169.389C197.729 178.054 202.425 186.198 204.996 185.79C208.289 185.267 205.794 171.113 209.574 148.032C213.489 124.139 220.684 111.706 215.678 107.986C213.027 106.017 207.953 107.234 205.378 109.893Z" fill="#55322D"/>
<path fill-rule="evenodd" clip-rule="evenodd" d="M123.758 70.2276C118.685 66.3135 108.437 72.4256 101.258 76.7132C97.8048 78.7742 87.084 85.1678 88.2896 89.6812C89.2626 93.3282 96.897 91.5387 101.258 97.3078C105.454 102.862 101.941 109.221 104.691 110.656C108.338 112.557 118.749 103.579 123.381 91.9664C123.69 91.1798 129.973 75.02 123.758 70.2276Z" fill="#55322D"/>
<path fill-rule="evenodd" clip-rule="evenodd" d="M137.195 130.815C134.536 130.075 136.291 120.48 134.009 119.835C133.468 119.683 131.778 119.774 123.74 135.416C117.796 146.983 117.804 148.715 118.429 149.227C120.402 150.844 129.512 141.166 132.239 143.206C134.338 144.778 130.649 151.791 132.239 152.767C134.799 154.343 146.744 137.655 149.591 139.312C151.532 140.441 147.577 149.116 149.591 150.291C152.311 151.878 162.256 137.675 165.172 139.312C167.429 140.581 163.339 150.172 165.526 151.352C168.197 152.794 176.979 139.88 178.982 141.082C180.542 142.02 176.337 150.543 177.212 150.997C178.665 151.756 192.888 129.347 190.316 127.271C188.699 125.966 181.553 133.582 179.337 131.876C176.967 130.053 182.957 119.633 181.107 118.42C179.096 117.1 170.478 128.408 168.002 126.92C165.858 125.63 170.196 115.845 168.357 114.88C166.358 113.831 159.521 124.49 157.377 123.38C155.676 122.498 158.827 115.178 157.023 114.174C154.912 112.998 146.908 120.961 142.148 126.569C139.953 129.156 138.5 131.177 137.195 130.815Z" fill="#D1C9B7" stroke="#331815" stroke-width="0.7268" stroke-miterlimit="2.6131"/>
</g>
<g style="mix-blend-mode:hue">
<rect width="320" height="320" fill="#00BF13"/>
</g>
</g>
<defs>
<clipPath id="clip0_1428_979">
<rect width="320" height="320" fill="white"/>
</clipPath>
<clipPath id="clip1_1428_979">
<rect width="209.489" height="200" fill="white" transform="translate(55 59)"/>
</clipPath>
</defs>
</svg>
