<svg width="320" height="320" viewBox="0 0 320 320" fill="none" xmlns="http://www.w3.org/2000/svg">
<rect width="320" height="320" fill="#F2F2EA"/>
<path d="M240.606 66.9147H76.9531V253.63H240.606V66.9147Z" fill="#DCCDB3" stroke="#3C1F1B" stroke-width="6.4" stroke-miterlimit="2.6131"/>
<path d="M55 253.629H265" stroke="#3C1F1B" stroke-width="6.4" stroke-miterlimit="2.6131"/>
<path d="M87.6323 85.7782H88.387L90.1616 90.1127H90.2228L91.9974 85.7782H92.7522V91H92.1606V87.0326H92.1096L90.4778 91H89.9067L88.2749 87.0326H88.2239V91H87.6323V85.7782ZM94.2342 91H93.5713L95.4886 85.7782H96.1414L98.0588 91H97.3958L95.8354 86.6043H95.7946L94.2342 91ZM94.479 88.9602H97.1511V89.5212H94.479V88.9602ZM97.9765 86.3391V85.7782H101.893V86.3391H100.251V91H99.6185V86.3391H97.9765ZM102.869 91V85.7782H106.02V86.3391H103.501V88.1035H105.857V88.6645H103.501V90.4391H106.061V91H102.869ZM107.16 91V85.7782H108.924C109.332 85.7782 109.667 85.8479 109.929 85.9873C110.191 86.1249 110.385 86.3145 110.51 86.5558C110.636 86.7972 110.699 87.0717 110.699 87.3794C110.699 87.6871 110.636 87.9599 110.51 88.1979C110.385 88.4358 110.192 88.6228 109.932 88.7588C109.671 88.8931 109.339 88.9602 108.935 88.9602H107.507V88.3891H108.914C109.193 88.3891 109.417 88.3483 109.587 88.2667C109.759 88.1851 109.883 88.0695 109.96 87.9199C110.038 87.7687 110.077 87.5885 110.077 87.3794C110.077 87.1703 110.038 86.9876 109.96 86.8312C109.881 86.6748 109.756 86.5541 109.585 86.4692C109.413 86.3825 109.186 86.3391 108.904 86.3391H107.792V91H107.16ZM109.618 88.6543L110.903 91H110.169L108.904 88.6543H109.618ZM112.385 85.7782V91H111.753V85.7782H112.385ZM113.867 91H113.204L115.121 85.7782H115.774L117.692 91H117.029L115.468 86.6043H115.427L113.867 91ZM114.112 88.9602H116.784V89.5212H114.112V88.9602ZM118.505 91V85.7782H119.137V90.4391H121.565V91H118.505Z" fill="#331815"/>
<path d="M124.869 85.7782L126.215 87.9505H126.256L127.602 85.7782H128.347L126.705 88.3891L128.347 91H127.602L126.256 88.8684H126.215L124.869 91H124.124L125.807 88.3891L124.124 85.7782H124.869ZM129.476 85.7782L130.822 87.9505H130.863L132.209 85.7782H132.954L131.312 88.3891L132.954 91H132.209L130.863 88.8684H130.822L129.476 91H128.731L130.414 88.3891L128.731 85.7782H129.476ZM136.102 85.7782L137.448 87.9505H137.489L138.835 85.7782H139.58L137.938 88.3891L139.58 91H138.835L137.489 88.8684H137.448L136.102 91H135.357L137.04 88.3891L135.357 85.7782H136.102ZM142.728 85.7782L144.074 87.9505H144.115L145.461 85.7782H146.206L144.564 88.3891L146.206 91H145.461L144.115 88.8684H144.074L142.728 91H141.983L143.666 88.3891L141.983 85.7782H142.728ZM147.335 85.7782L148.681 87.9505H148.722L150.068 85.7782H150.812L149.17 88.3891L150.812 91H150.068L148.722 88.8684H148.681L147.335 91H146.59L148.273 88.3891L146.59 85.7782H147.335ZM153.961 85.7782L155.307 87.9505H155.348L156.694 85.7782H157.438L155.796 88.3891L157.438 91H156.694L155.348 88.8684H155.307L153.961 91H153.216L154.899 88.3891L153.216 85.7782H153.961ZM158.567 85.7782L159.914 87.9505H159.954L161.301 85.7782H162.045L160.403 88.3891L162.045 91H161.301L159.954 88.8684H159.914L158.567 91H157.823L159.506 88.3891L157.823 85.7782H158.567ZM163.174 85.7782L164.52 87.9505H164.561L165.907 85.7782H166.652L165.01 88.3891L166.652 91H165.907L164.561 88.8684H164.52L163.174 91H162.43L164.112 88.3891L162.43 85.7782H163.174ZM167.781 85.7782L169.127 87.9505H169.168L170.514 85.7782H171.259L169.617 88.3891L171.259 91H170.514L169.168 88.8684H169.127L167.781 91H167.036L168.719 88.3891L167.036 85.7782H167.781ZM172.387 85.7782L173.734 87.9505H173.774L175.121 85.7782H175.865L174.223 88.3891L175.865 91H175.121L173.774 88.8684H173.734L172.387 91H171.643L173.326 88.3891L171.643 85.7782H172.387ZM176.994 85.7782L178.34 87.9505H178.381L179.727 85.7782H180.472L178.83 88.3891L180.472 91H179.727L178.381 88.8684H178.34L176.994 91H176.25L177.932 88.3891L176.25 85.7782H176.994ZM181.601 85.7782L182.947 87.9505H182.988L184.334 85.7782H185.079L183.437 88.3891L185.079 91H184.334L182.988 88.8684H182.947L181.601 91H180.856L182.539 88.3891L180.856 85.7782H181.601ZM186.208 85.7782L187.554 87.9505H187.595L188.941 85.7782H189.685L188.043 88.3891L189.685 91H188.941L187.595 88.8684H187.554L186.208 91H185.463L187.146 88.3891L185.463 85.7782H186.208ZM192.834 85.7782L194.18 87.9505H194.221L195.567 85.7782H196.311L194.669 88.3891L196.311 91H195.567L194.221 88.8684H194.18L192.834 91H192.089L193.772 88.3891L192.089 85.7782H192.834ZM197.44 85.7782L198.787 87.9505H198.827L200.174 85.7782H200.918L199.276 88.3891L200.918 91H200.174L198.827 88.8684H198.787L197.44 91H196.696L198.379 88.3891L196.696 85.7782H197.44ZM204.066 85.7782L205.413 87.9505H205.453L206.8 85.7782H207.544L205.902 88.3891L207.544 91H206.8L205.453 88.8684H205.413L204.066 91H203.322L205.005 88.3891L203.322 85.7782H204.066ZM210.692 85.7782L212.039 87.9505H212.079L213.426 85.7782H214.17L212.528 88.3891L214.17 91H213.426L212.079 88.8684H212.039L210.692 91H209.948L211.631 88.3891L209.948 85.7782H210.692ZM215.299 85.7782L216.645 87.9505H216.686L218.032 85.7782H218.777L217.135 88.3891L218.777 91H218.032L216.686 88.8684H216.645L215.299 91H214.555L216.237 88.3891L214.555 85.7782H215.299ZM221.925 85.7782L223.271 87.9505H223.312L224.659 85.7782H225.403L223.761 88.3891L225.403 91H224.659L223.312 88.8684H223.271L221.925 91H221.181L222.864 88.3891L221.181 85.7782H221.925ZM228.551 85.7782L229.898 87.9505H229.938L231.285 85.7782H232.029L230.387 88.3891L232.029 91H231.285L229.938 88.8684H229.898L228.551 91H227.807L229.49 88.3891L227.807 85.7782H228.551Z" fill="#3C1F1B"/>
<path d="M89.9383 96.7782L91.2845 98.9505H91.3253L92.6716 96.7782H93.4161L91.7741 99.3891L93.4161 102H92.6716L91.3253 99.8684H91.2845L89.9383 102H89.1938L90.8766 99.3891L89.1938 96.7782H89.9383ZM94.545 96.7782L95.8912 98.9505H95.932L97.2783 96.7782H98.0228L96.3808 99.3891L98.0228 102H97.2783L95.932 99.8684H95.8912L94.545 102H93.8005L95.4833 99.3891L93.8005 96.7782H94.545ZM99.1517 96.7782L100.498 98.9505H100.539L101.885 96.7782H102.63L100.987 99.3891L102.63 102H101.885L100.539 99.8684H100.498L99.1517 102H98.4072L100.09 99.3891L98.4072 96.7782H99.1517ZM103.758 96.7782L105.105 98.9505H105.145L106.492 96.7782H107.236L105.594 99.3891L107.236 102H106.492L105.145 99.8684H105.105L103.758 102H103.014L104.697 99.3891L103.014 96.7782H103.758ZM108.365 96.7782L109.711 98.9505H109.752L111.098 96.7782H111.843L110.201 99.3891L111.843 102H111.098L109.752 99.8684H109.711L108.365 102H107.621L109.303 99.3891L107.621 96.7782H108.365ZM112.972 96.7782L114.318 98.9505H114.359L115.705 96.7782H116.45L114.808 99.3891L116.45 102H115.705L114.359 99.8684H114.318L112.972 102H112.227L113.91 99.3891L112.227 96.7782H112.972ZM117.578 96.7782L118.925 98.9505H118.966L120.312 96.7782H121.056L119.414 99.3891L121.056 102H120.312L118.966 99.8684H118.925L117.578 102H116.834L118.517 99.3891L116.834 96.7782H117.578ZM122.185 96.7782L123.531 98.9505H123.572L124.918 96.7782H125.663L124.021 99.3891L125.663 102H124.918L123.572 99.8684H123.531L122.185 102H121.441L123.123 99.3891L121.441 96.7782H122.185ZM128.811 96.7782L130.158 98.9505H130.198L131.545 96.7782H132.289L130.647 99.3891L132.289 102H131.545L130.198 99.8684H130.158L128.811 102H128.067L129.75 99.3891L128.067 96.7782H128.811ZM133.418 96.7782L134.764 98.9505H134.805L136.151 96.7782H136.896L135.254 99.3891L136.896 102H136.151L134.805 99.8684H134.764L133.418 102H132.673L134.356 99.3891L132.673 96.7782H133.418ZM140.044 96.7782L141.39 98.9505H141.431L142.777 96.7782H143.522L141.88 99.3891L143.522 102H142.777L141.431 99.8684H141.39L140.044 102H139.3L140.982 99.3891L139.3 96.7782H140.044ZM146.67 96.7782L148.016 98.9505H148.057L149.403 96.7782H150.148L148.506 99.3891L150.148 102H149.403L148.057 99.8684H148.016L146.67 102H145.926L147.608 99.3891L145.926 96.7782H146.67ZM151.277 96.7782L152.623 98.9505H152.664L154.01 96.7782H154.755L153.113 99.3891L154.755 102H154.01L152.664 99.8684H152.623L151.277 102H150.532L152.215 99.3891L150.532 96.7782H151.277ZM157.903 96.7782L159.249 98.9505H159.29L160.636 96.7782H161.381L159.739 99.3891L161.381 102H160.636L159.29 99.8684H159.249L157.903 102H157.158L158.841 99.3891L157.158 96.7782H157.903ZM164.529 96.7782L165.875 98.9505H165.916L167.262 96.7782H168.007L166.365 99.3891L168.007 102H167.262L165.916 99.8684H165.875L164.529 102H163.784L165.467 99.3891L163.784 96.7782H164.529ZM171.155 96.7782L172.501 98.9505H172.542L173.888 96.7782H174.633L172.991 99.3891L174.633 102H173.888L172.542 99.8684H172.501L171.155 102H170.411L172.093 99.3891L170.411 96.7782H171.155ZM175.762 96.7782L177.108 98.9505H177.149L178.495 96.7782H179.24L177.598 99.3891L179.24 102H178.495L177.149 99.8684H177.108L175.762 102H175.017L176.7 99.3891L175.017 96.7782H175.762ZM180.368 96.7782L181.715 98.9505H181.755L183.102 96.7782H183.846L182.204 99.3891L183.846 102H183.102L181.755 99.8684H181.715L180.368 102H179.624L181.307 99.3891L179.624 96.7782H180.368ZM184.975 96.7782L186.321 98.9505H186.362L187.708 96.7782H188.453L186.811 99.3891L188.453 102H187.708L186.362 99.8684H186.321L184.975 102H184.231L185.913 99.3891L184.231 96.7782H184.975ZM189.582 96.7782L190.928 98.9505H190.969L192.315 96.7782H193.06L191.418 99.3891L193.06 102H192.315L190.969 99.8684H190.928L189.582 102H188.837L190.52 99.3891L188.837 96.7782H189.582ZM194.189 96.7782L195.535 98.9505H195.576L196.922 96.7782H197.666L196.024 99.3891L197.666 102H196.922L195.576 99.8684H195.535L194.189 102H193.444L195.127 99.3891L193.444 96.7782H194.189ZM198.795 96.7782L200.141 98.9505H200.182L201.529 96.7782H202.273L200.631 99.3891L202.273 102H201.529L200.182 99.8684H200.141L198.795 102H198.051L199.734 99.3891L198.051 96.7782H198.795ZM203.402 96.7782L204.748 98.9505H204.789L206.135 96.7782H206.88L205.238 99.3891L206.88 102H206.135L204.789 99.8684H204.748L203.402 102H202.657L204.34 99.3891L202.657 96.7782H203.402ZM208.009 96.7782L209.355 98.9505H209.396L210.742 96.7782H211.486L209.844 99.3891L211.486 102H210.742L209.396 99.8684H209.355L208.009 102H207.264L208.947 99.3891L207.264 96.7782H208.009ZM214.635 96.7782L215.981 98.9505H216.022L217.368 96.7782H218.113L216.47 99.3891L218.113 102H217.368L216.022 99.8684H215.981L214.635 102H213.89L215.573 99.3891L213.89 96.7782H214.635ZM219.241 96.7782L220.588 98.9505H220.628L221.975 96.7782H222.719L221.077 99.3891L222.719 102H221.975L220.628 99.8684H220.588L219.241 102H218.497L220.18 99.3891L218.497 96.7782H219.241ZM223.848 96.7782L225.194 98.9505H225.235L226.581 96.7782H227.326L225.684 99.3891L227.326 102H226.581L225.235 99.8684H225.194L223.848 102H223.104L224.786 99.3891L223.104 96.7782H223.848ZM228.455 96.7782L229.801 98.9505H229.842L231.188 96.7782H231.933L230.291 99.3891L231.933 102H231.188L229.842 99.8684H229.801L228.455 102H227.71L229.393 99.3891L227.71 96.7782H228.455Z" fill="#3C1F1B"/>
<path d="M88.9383 109.778L90.2845 111.951H90.3253L91.6716 109.778H92.4161L90.7741 112.389L92.4161 115H91.6716L90.3253 112.868H90.2845L88.9383 115H88.1938L89.8766 112.389L88.1938 109.778H88.9383ZM93.545 109.778L94.8912 111.951H94.932L96.2783 109.778H97.0228L95.3808 112.389L97.0228 115H96.2783L94.932 112.868H94.8912L93.545 115H92.8005L94.4833 112.389L92.8005 109.778H93.545ZM98.1517 109.778L99.4979 111.951H99.5387L100.885 109.778H101.63L99.9875 112.389L101.63 115H100.885L99.5387 112.868H99.4979L98.1517 115H97.4072L99.09 112.389L97.4072 109.778H98.1517ZM102.758 109.778L104.105 111.951H104.145L105.492 109.778H106.236L104.594 112.389L106.236 115H105.492L104.145 112.868H104.105L102.758 115H102.014L103.697 112.389L102.014 109.778H102.758ZM107.365 109.778L108.711 111.951H108.752L110.098 109.778H110.843L109.201 112.389L110.843 115H110.098L108.752 112.868H108.711L107.365 115H106.621L108.303 112.389L106.621 109.778H107.365ZM111.972 109.778L113.318 111.951H113.359L114.705 109.778H115.45L113.808 112.389L115.45 115H114.705L113.359 112.868H113.318L111.972 115H111.227L112.91 112.389L111.227 109.778H111.972ZM116.578 109.778L117.925 111.951H117.966L119.312 109.778H120.056L118.414 112.389L120.056 115H119.312L117.966 112.868H117.925L116.578 115H115.834L117.517 112.389L115.834 109.778H116.578ZM121.185 109.778L122.531 111.951H122.572L123.918 109.778H124.663L123.021 112.389L124.663 115H123.918L122.572 112.868H122.531L121.185 115H120.441L122.123 112.389L120.441 109.778H121.185ZM127.811 109.778L129.158 111.951H129.198L130.545 109.778H131.289L129.647 112.389L131.289 115H130.545L129.198 112.868H129.158L127.811 115H127.067L128.75 112.389L127.067 109.778H127.811ZM132.418 109.778L133.764 111.951H133.805L135.151 109.778H135.896L134.254 112.389L135.896 115H135.151L133.805 112.868H133.764L132.418 115H131.673L133.356 112.389L131.673 109.778H132.418ZM139.044 109.778L140.39 111.951H140.431L141.777 109.778H142.522L140.88 112.389L142.522 115H141.777L140.431 112.868H140.39L139.044 115H138.3L139.982 112.389L138.3 109.778H139.044ZM145.67 109.778L147.016 111.951H147.057L148.403 109.778H149.148L147.506 112.389L149.148 115H148.403L147.057 112.868H147.016L145.67 115H144.926L146.608 112.389L144.926 109.778H145.67ZM150.277 109.778L151.623 111.951H151.664L153.01 109.778H153.755L152.113 112.389L153.755 115H153.01L151.664 112.868H151.623L150.277 115H149.532L151.215 112.389L149.532 109.778H150.277ZM156.903 109.778L158.249 111.951H158.29L159.636 109.778H160.381L158.739 112.389L160.381 115H159.636L158.29 112.868H158.249L156.903 115H156.158L157.841 112.389L156.158 109.778H156.903ZM163.529 109.778L164.875 111.951H164.916L166.262 109.778H167.007L165.365 112.389L167.007 115H166.262L164.916 112.868H164.875L163.529 115H162.784L164.467 112.389L162.784 109.778H163.529ZM170.155 109.778L171.501 111.951H171.542L172.888 109.778H173.633L171.991 112.389L173.633 115H172.888L171.542 112.868H171.501L170.155 115H169.411L171.093 112.389L169.411 109.778H170.155ZM174.762 109.778L176.108 111.951H176.149L177.495 109.778H178.24L176.598 112.389L178.24 115H177.495L176.149 112.868H176.108L174.762 115H174.017L175.7 112.389L174.017 109.778H174.762ZM179.368 109.778L180.715 111.951H180.755L182.102 109.778H182.846L181.204 112.389L182.846 115H182.102L180.755 112.868H180.715L179.368 115H178.624L180.307 112.389L178.624 109.778H179.368ZM183.975 109.778L185.321 111.951H185.362L186.708 109.778H187.453L185.811 112.389L187.453 115H186.708L185.362 112.868H185.321L183.975 115H183.231L184.913 112.389L183.231 109.778H183.975ZM188.582 109.778L189.928 111.951H189.969L191.315 109.778H192.06L190.418 112.389L192.06 115H191.315L189.969 112.868H189.928L188.582 115H187.837L189.52 112.389L187.837 109.778H188.582ZM193.189 109.778L194.535 111.951H194.576L195.922 109.778H196.666L195.024 112.389L196.666 115H195.922L194.576 112.868H194.535L193.189 115H192.444L194.127 112.389L192.444 109.778H193.189ZM197.795 109.778L199.141 111.951H199.182L200.529 109.778H201.273L199.631 112.389L201.273 115H200.529L199.182 112.868H199.141L197.795 115H197.051L198.734 112.389L197.051 109.778H197.795ZM202.402 109.778L203.748 111.951H203.789L205.135 109.778H205.88L204.238 112.389L205.88 115H205.135L203.789 112.868H203.748L202.402 115H201.657L203.34 112.389L201.657 109.778H202.402ZM207.009 109.778L208.355 111.951H208.396L209.742 109.778H210.486L208.844 112.389L210.486 115H209.742L208.396 112.868H208.355L207.009 115H206.264L207.947 112.389L206.264 109.778H207.009ZM213.635 109.778L214.981 111.951H215.022L216.368 109.778H217.113L215.47 112.389L217.113 115H216.368L215.022 112.868H214.981L213.635 115H212.89L214.573 112.389L212.89 109.778H213.635ZM218.241 109.778L219.588 111.951H219.628L220.975 109.778H221.719L220.077 112.389L221.719 115H220.975L219.628 112.868H219.588L218.241 115H217.497L219.18 112.389L217.497 109.778H218.241ZM222.848 109.778L224.194 111.951H224.235L225.581 109.778H226.326L224.684 112.389L226.326 115H225.581L224.235 112.868H224.194L222.848 115H222.104L223.786 112.389L222.104 109.778H222.848ZM227.455 109.778L228.801 111.951H228.842L230.188 109.778H230.933L229.291 112.389L230.933 115H230.188L228.842 112.868H228.801L227.455 115H226.71L228.393 112.389L226.71 109.778H227.455Z" fill="#3C1F1B"/>
<path d="M88.9383 121.778L90.2845 123.951H90.3253L91.6716 121.778H92.4161L90.7741 124.389L92.4161 127H91.6716L90.3253 124.868H90.2845L88.9383 127H88.1938L89.8766 124.389L88.1938 121.778H88.9383ZM93.545 121.778L94.8912 123.951H94.932L96.2783 121.778H97.0228L95.3808 124.389L97.0228 127H96.2783L94.932 124.868H94.8912L93.545 127H92.8005L94.4833 124.389L92.8005 121.778H93.545ZM98.1517 121.778L99.4979 123.951H99.5387L100.885 121.778H101.63L99.9875 124.389L101.63 127H100.885L99.5387 124.868H99.4979L98.1517 127H97.4072L99.09 124.389L97.4072 121.778H98.1517ZM102.758 121.778L104.105 123.951H104.145L105.492 121.778H106.236L104.594 124.389L106.236 127H105.492L104.145 124.868H104.105L102.758 127H102.014L103.697 124.389L102.014 121.778H102.758ZM107.365 121.778L108.711 123.951H108.752L110.098 121.778H110.843L109.201 124.389L110.843 127H110.098L108.752 124.868H108.711L107.365 127H106.621L108.303 124.389L106.621 121.778H107.365ZM111.972 121.778L113.318 123.951H113.359L114.705 121.778H115.45L113.808 124.389L115.45 127H114.705L113.359 124.868H113.318L111.972 127H111.227L112.91 124.389L111.227 121.778H111.972ZM116.578 121.778L117.925 123.951H117.966L119.312 121.778H120.056L118.414 124.389L120.056 127H119.312L117.966 124.868H117.925L116.578 127H115.834L117.517 124.389L115.834 121.778H116.578ZM121.185 121.778L122.531 123.951H122.572L123.918 121.778H124.663L123.021 124.389L124.663 127H123.918L122.572 124.868H122.531L121.185 127H120.441L122.123 124.389L120.441 121.778H121.185ZM127.811 121.778L129.158 123.951H129.198L130.545 121.778H131.289L129.647 124.389L131.289 127H130.545L129.198 124.868H129.158L127.811 127H127.067L128.75 124.389L127.067 121.778H127.811ZM132.418 121.778L133.764 123.951H133.805L135.151 121.778H135.896L134.254 124.389L135.896 127H135.151L133.805 124.868H133.764L132.418 127H131.673L133.356 124.389L131.673 121.778H132.418ZM139.044 121.778L140.39 123.951H140.431L141.777 121.778H142.522L140.88 124.389L142.522 127H141.777L140.431 124.868H140.39L139.044 127H138.3L139.982 124.389L138.3 121.778H139.044ZM145.67 121.778L147.016 123.951H147.057L148.403 121.778H149.148L147.506 124.389L149.148 127H148.403L147.057 124.868H147.016L145.67 127H144.926L146.608 124.389L144.926 121.778H145.67ZM150.277 121.778L151.623 123.951H151.664L153.01 121.778H153.755L152.113 124.389L153.755 127H153.01L151.664 124.868H151.623L150.277 127H149.532L151.215 124.389L149.532 121.778H150.277ZM156.903 121.778L158.249 123.951H158.29L159.636 121.778H160.381L158.739 124.389L160.381 127H159.636L158.29 124.868H158.249L156.903 127H156.158L157.841 124.389L156.158 121.778H156.903ZM163.529 121.778L164.875 123.951H164.916L166.262 121.778H167.007L165.365 124.389L167.007 127H166.262L164.916 124.868H164.875L163.529 127H162.784L164.467 124.389L162.784 121.778H163.529ZM170.155 121.778L171.501 123.951H171.542L172.888 121.778H173.633L171.991 124.389L173.633 127H172.888L171.542 124.868H171.501L170.155 127H169.411L171.093 124.389L169.411 121.778H170.155ZM174.762 121.778L176.108 123.951H176.149L177.495 121.778H178.24L176.598 124.389L178.24 127H177.495L176.149 124.868H176.108L174.762 127H174.017L175.7 124.389L174.017 121.778H174.762ZM179.368 121.778L180.715 123.951H180.755L182.102 121.778H182.846L181.204 124.389L182.846 127H182.102L180.755 124.868H180.715L179.368 127H178.624L180.307 124.389L178.624 121.778H179.368ZM183.975 121.778L185.321 123.951H185.362L186.708 121.778H187.453L185.811 124.389L187.453 127H186.708L185.362 124.868H185.321L183.975 127H183.231L184.913 124.389L183.231 121.778H183.975ZM188.582 121.778L189.928 123.951H189.969L191.315 121.778H192.06L190.418 124.389L192.06 127H191.315L189.969 124.868H189.928L188.582 127H187.837L189.52 124.389L187.837 121.778H188.582ZM193.189 121.778L194.535 123.951H194.576L195.922 121.778H196.666L195.024 124.389L196.666 127H195.922L194.576 124.868H194.535L193.189 127H192.444L194.127 124.389L192.444 121.778H193.189ZM197.795 121.778L199.141 123.951H199.182L200.529 121.778H201.273L199.631 124.389L201.273 127H200.529L199.182 124.868H199.141L197.795 127H197.051L198.734 124.389L197.051 121.778H197.795ZM202.402 121.778L203.748 123.951H203.789L205.135 121.778H205.88L204.238 124.389L205.88 127H205.135L203.789 124.868H203.748L202.402 127H201.657L203.34 124.389L201.657 121.778H202.402ZM207.009 121.778L208.355 123.951H208.396L209.742 121.778H210.486L208.844 124.389L210.486 127H209.742L208.396 124.868H208.355L207.009 127H206.264L207.947 124.389L206.264 121.778H207.009ZM213.635 121.778L214.981 123.951H215.022L216.368 121.778H217.113L215.47 124.389L217.113 127H216.368L215.022 124.868H214.981L213.635 127H212.89L214.573 124.389L212.89 121.778H213.635ZM218.241 121.778L219.588 123.951H219.628L220.975 121.778H221.719L220.077 124.389L221.719 127H220.975L219.628 124.868H219.588L218.241 127H217.497L219.18 124.389L217.497 121.778H218.241ZM222.848 121.778L224.194 123.951H224.235L225.581 121.778H226.326L224.684 124.389L226.326 127H225.581L224.235 124.868H224.194L222.848 127H222.104L223.786 124.389L222.104 121.778H222.848ZM227.455 121.778L228.801 123.951H228.842L230.188 121.778H230.933L229.291 124.389L230.933 127H230.188L228.842 124.868H228.801L227.455 127H226.71L228.393 124.389L226.71 121.778H227.455Z" fill="#3C1F1B"/>
<path d="M88.9383 133.778L90.2845 135.951H90.3253L91.6716 133.778H92.4161L90.7741 136.389L92.4161 139H91.6716L90.3253 136.868H90.2845L88.9383 139H88.1938L89.8766 136.389L88.1938 133.778H88.9383ZM93.545 133.778L94.8912 135.951H94.932L96.2783 133.778H97.0228L95.3808 136.389L97.0228 139H96.2783L94.932 136.868H94.8912L93.545 139H92.8005L94.4833 136.389L92.8005 133.778H93.545ZM98.1517 133.778L99.4979 135.951H99.5387L100.885 133.778H101.63L99.9875 136.389L101.63 139H100.885L99.5387 136.868H99.4979L98.1517 139H97.4072L99.09 136.389L97.4072 133.778H98.1517ZM102.758 133.778L104.105 135.951H104.145L105.492 133.778H106.236L104.594 136.389L106.236 139H105.492L104.145 136.868H104.105L102.758 139H102.014L103.697 136.389L102.014 133.778H102.758ZM107.365 133.778L108.711 135.951H108.752L110.098 133.778H110.843L109.201 136.389L110.843 139H110.098L108.752 136.868H108.711L107.365 139H106.621L108.303 136.389L106.621 133.778H107.365ZM111.972 133.778L113.318 135.951H113.359L114.705 133.778H115.45L113.808 136.389L115.45 139H114.705L113.359 136.868H113.318L111.972 139H111.227L112.91 136.389L111.227 133.778H111.972ZM116.578 133.778L117.925 135.951H117.966L119.312 133.778H120.056L118.414 136.389L120.056 139H119.312L117.966 136.868H117.925L116.578 139H115.834L117.517 136.389L115.834 133.778H116.578ZM121.185 133.778L122.531 135.951H122.572L123.918 133.778H124.663L123.021 136.389L124.663 139H123.918L122.572 136.868H122.531L121.185 139H120.441L122.123 136.389L120.441 133.778H121.185ZM127.811 133.778L129.158 135.951H129.198L130.545 133.778H131.289L129.647 136.389L131.289 139H130.545L129.198 136.868H129.158L127.811 139H127.067L128.75 136.389L127.067 133.778H127.811ZM132.418 133.778L133.764 135.951H133.805L135.151 133.778H135.896L134.254 136.389L135.896 139H135.151L133.805 136.868H133.764L132.418 139H131.673L133.356 136.389L131.673 133.778H132.418ZM139.044 133.778L140.39 135.951H140.431L141.777 133.778H142.522L140.88 136.389L142.522 139H141.777L140.431 136.868H140.39L139.044 139H138.3L139.982 136.389L138.3 133.778H139.044ZM145.67 133.778L147.016 135.951H147.057L148.403 133.778H149.148L147.506 136.389L149.148 139H148.403L147.057 136.868H147.016L145.67 139H144.926L146.608 136.389L144.926 133.778H145.67ZM150.277 133.778L151.623 135.951H151.664L153.01 133.778H153.755L152.113 136.389L153.755 139H153.01L151.664 136.868H151.623L150.277 139H149.532L151.215 136.389L149.532 133.778H150.277ZM156.903 133.778L158.249 135.951H158.29L159.636 133.778H160.381L158.739 136.389L160.381 139H159.636L158.29 136.868H158.249L156.903 139H156.158L157.841 136.389L156.158 133.778H156.903ZM163.529 133.778L164.875 135.951H164.916L166.262 133.778H167.007L165.365 136.389L167.007 139H166.262L164.916 136.868H164.875L163.529 139H162.784L164.467 136.389L162.784 133.778H163.529ZM170.155 133.778L171.501 135.951H171.542L172.888 133.778H173.633L171.991 136.389L173.633 139H172.888L171.542 136.868H171.501L170.155 139H169.411L171.093 136.389L169.411 133.778H170.155ZM174.762 133.778L176.108 135.951H176.149L177.495 133.778H178.24L176.598 136.389L178.24 139H177.495L176.149 136.868H176.108L174.762 139H174.017L175.7 136.389L174.017 133.778H174.762ZM179.368 133.778L180.715 135.951H180.755L182.102 133.778H182.846L181.204 136.389L182.846 139H182.102L180.755 136.868H180.715L179.368 139H178.624L180.307 136.389L178.624 133.778H179.368ZM183.975 133.778L185.321 135.951H185.362L186.708 133.778H187.453L185.811 136.389L187.453 139H186.708L185.362 136.868H185.321L183.975 139H183.231L184.913 136.389L183.231 133.778H183.975ZM188.582 133.778L189.928 135.951H189.969L191.315 133.778H192.06L190.418 136.389L192.06 139H191.315L189.969 136.868H189.928L188.582 139H187.837L189.52 136.389L187.837 133.778H188.582ZM193.189 133.778L194.535 135.951H194.576L195.922 133.778H196.666L195.024 136.389L196.666 139H195.922L194.576 136.868H194.535L193.189 139H192.444L194.127 136.389L192.444 133.778H193.189ZM197.795 133.778L199.141 135.951H199.182L200.529 133.778H201.273L199.631 136.389L201.273 139H200.529L199.182 136.868H199.141L197.795 139H197.051L198.734 136.389L197.051 133.778H197.795ZM202.402 133.778L203.748 135.951H203.789L205.135 133.778H205.88L204.238 136.389L205.88 139H205.135L203.789 136.868H203.748L202.402 139H201.657L203.34 136.389L201.657 133.778H202.402ZM207.009 133.778L208.355 135.951H208.396L209.742 133.778H210.486L208.844 136.389L210.486 139H209.742L208.396 136.868H208.355L207.009 139H206.264L207.947 136.389L206.264 133.778H207.009ZM213.635 133.778L214.981 135.951H215.022L216.368 133.778H217.113L215.47 136.389L217.113 139H216.368L215.022 136.868H214.981L213.635 139H212.89L214.573 136.389L212.89 133.778H213.635ZM218.241 133.778L219.588 135.951H219.628L220.975 133.778H221.719L220.077 136.389L221.719 139H220.975L219.628 136.868H219.588L218.241 139H217.497L219.18 136.389L217.497 133.778H218.241ZM222.848 133.778L224.194 135.951H224.235L225.581 133.778H226.326L224.684 136.389L226.326 139H225.581L224.235 136.868H224.194L222.848 139H222.104L223.786 136.389L222.104 133.778H222.848ZM227.455 133.778L228.801 135.951H228.842L230.188 133.778H230.933L229.291 136.389L230.933 139H230.188L228.842 136.868H228.801L227.455 139H226.71L228.393 136.389L226.71 133.778H227.455Z" fill="#3C1F1B"/>
<path d="M88.9383 145.778L90.2845 147.951H90.3253L91.6716 145.778H92.4161L90.7741 148.389L92.4161 151H91.6716L90.3253 148.868H90.2845L88.9383 151H88.1938L89.8766 148.389L88.1938 145.778H88.9383ZM93.545 145.778L94.8912 147.951H94.932L96.2783 145.778H97.0228L95.3808 148.389L97.0228 151H96.2783L94.932 148.868H94.8912L93.545 151H92.8005L94.4833 148.389L92.8005 145.778H93.545ZM98.1517 145.778L99.4979 147.951H99.5387L100.885 145.778H101.63L99.9875 148.389L101.63 151H100.885L99.5387 148.868H99.4979L98.1517 151H97.4072L99.09 148.389L97.4072 145.778H98.1517ZM102.758 145.778L104.105 147.951H104.145L105.492 145.778H106.236L104.594 148.389L106.236 151H105.492L104.145 148.868H104.105L102.758 151H102.014L103.697 148.389L102.014 145.778H102.758ZM107.365 145.778L108.711 147.951H108.752L110.098 145.778H110.843L109.201 148.389L110.843 151H110.098L108.752 148.868H108.711L107.365 151H106.621L108.303 148.389L106.621 145.778H107.365ZM111.972 145.778L113.318 147.951H113.359L114.705 145.778H115.45L113.808 148.389L115.45 151H114.705L113.359 148.868H113.318L111.972 151H111.227L112.91 148.389L111.227 145.778H111.972ZM116.578 145.778L117.925 147.951H117.966L119.312 145.778H120.056L118.414 148.389L120.056 151H119.312L117.966 148.868H117.925L116.578 151H115.834L117.517 148.389L115.834 145.778H116.578ZM121.185 145.778L122.531 147.951H122.572L123.918 145.778H124.663L123.021 148.389L124.663 151H123.918L122.572 148.868H122.531L121.185 151H120.441L122.123 148.389L120.441 145.778H121.185ZM127.811 145.778L129.158 147.951H129.198L130.545 145.778H131.289L129.647 148.389L131.289 151H130.545L129.198 148.868H129.158L127.811 151H127.067L128.75 148.389L127.067 145.778H127.811ZM132.418 145.778L133.764 147.951H133.805L135.151 145.778H135.896L134.254 148.389L135.896 151H135.151L133.805 148.868H133.764L132.418 151H131.673L133.356 148.389L131.673 145.778H132.418ZM139.044 145.778L140.39 147.951H140.431L141.777 145.778H142.522L140.88 148.389L142.522 151H141.777L140.431 148.868H140.39L139.044 151H138.3L139.982 148.389L138.3 145.778H139.044ZM145.67 145.778L147.016 147.951H147.057L148.403 145.778H149.148L147.506 148.389L149.148 151H148.403L147.057 148.868H147.016L145.67 151H144.926L146.608 148.389L144.926 145.778H145.67ZM150.277 145.778L151.623 147.951H151.664L153.01 145.778H153.755L152.113 148.389L153.755 151H153.01L151.664 148.868H151.623L150.277 151H149.532L151.215 148.389L149.532 145.778H150.277ZM156.903 145.778L158.249 147.951H158.29L159.636 145.778H160.381L158.739 148.389L160.381 151H159.636L158.29 148.868H158.249L156.903 151H156.158L157.841 148.389L156.158 145.778H156.903ZM163.529 145.778L164.875 147.951H164.916L166.262 145.778H167.007L165.365 148.389L167.007 151H166.262L164.916 148.868H164.875L163.529 151H162.784L164.467 148.389L162.784 145.778H163.529ZM170.155 145.778L171.501 147.951H171.542L172.888 145.778H173.633L171.991 148.389L173.633 151H172.888L171.542 148.868H171.501L170.155 151H169.411L171.093 148.389L169.411 145.778H170.155ZM174.762 145.778L176.108 147.951H176.149L177.495 145.778H178.24L176.598 148.389L178.24 151H177.495L176.149 148.868H176.108L174.762 151H174.017L175.7 148.389L174.017 145.778H174.762ZM179.368 145.778L180.715 147.951H180.755L182.102 145.778H182.846L181.204 148.389L182.846 151H182.102L180.755 148.868H180.715L179.368 151H178.624L180.307 148.389L178.624 145.778H179.368ZM183.975 145.778L185.321 147.951H185.362L186.708 145.778H187.453L185.811 148.389L187.453 151H186.708L185.362 148.868H185.321L183.975 151H183.231L184.913 148.389L183.231 145.778H183.975ZM188.582 145.778L189.928 147.951H189.969L191.315 145.778H192.06L190.418 148.389L192.06 151H191.315L189.969 148.868H189.928L188.582 151H187.837L189.52 148.389L187.837 145.778H188.582ZM193.189 145.778L194.535 147.951H194.576L195.922 145.778H196.666L195.024 148.389L196.666 151H195.922L194.576 148.868H194.535L193.189 151H192.444L194.127 148.389L192.444 145.778H193.189ZM197.795 145.778L199.141 147.951H199.182L200.529 145.778H201.273L199.631 148.389L201.273 151H200.529L199.182 148.868H199.141L197.795 151H197.051L198.734 148.389L197.051 145.778H197.795ZM202.402 145.778L203.748 147.951H203.789L205.135 145.778H205.88L204.238 148.389L205.88 151H205.135L203.789 148.868H203.748L202.402 151H201.657L203.34 148.389L201.657 145.778H202.402ZM207.009 145.778L208.355 147.951H208.396L209.742 145.778H210.486L208.844 148.389L210.486 151H209.742L208.396 148.868H208.355L207.009 151H206.264L207.947 148.389L206.264 145.778H207.009ZM213.635 145.778L214.981 147.951H215.022L216.368 145.778H217.113L215.47 148.389L217.113 151H216.368L215.022 148.868H214.981L213.635 151H212.89L214.573 148.389L212.89 145.778H213.635ZM218.241 145.778L219.588 147.951H219.628L220.975 145.778H221.719L220.077 148.389L221.719 151H220.975L219.628 148.868H219.588L218.241 151H217.497L219.18 148.389L217.497 145.778H218.241ZM222.848 145.778L224.194 147.951H224.235L225.581 145.778H226.326L224.684 148.389L226.326 151H225.581L224.235 148.868H224.194L222.848 151H222.104L223.786 148.389L222.104 145.778H222.848ZM227.455 145.778L228.801 147.951H228.842L230.188 145.778H230.933L229.291 148.389L230.933 151H230.188L228.842 148.868H228.801L227.455 151H226.71L228.393 148.389L226.71 145.778H227.455Z" fill="#3C1F1B"/>
<path d="M88.9383 159.778L90.2845 161.951H90.3253L91.6716 159.778H92.4161L90.7741 162.389L92.4161 165H91.6716L90.3253 162.868H90.2845L88.9383 165H88.1938L89.8766 162.389L88.1938 159.778H88.9383ZM93.545 159.778L94.8912 161.951H94.932L96.2783 159.778H97.0228L95.3808 162.389L97.0228 165H96.2783L94.932 162.868H94.8912L93.545 165H92.8005L94.4833 162.389L92.8005 159.778H93.545ZM98.1517 159.778L99.4979 161.951H99.5387L100.885 159.778H101.63L99.9875 162.389L101.63 165H100.885L99.5387 162.868H99.4979L98.1517 165H97.4072L99.09 162.389L97.4072 159.778H98.1517ZM102.758 159.778L104.105 161.951H104.145L105.492 159.778H106.236L104.594 162.389L106.236 165H105.492L104.145 162.868H104.105L102.758 165H102.014L103.697 162.389L102.014 159.778H102.758ZM107.365 159.778L108.711 161.951H108.752L110.098 159.778H110.843L109.201 162.389L110.843 165H110.098L108.752 162.868H108.711L107.365 165H106.621L108.303 162.389L106.621 159.778H107.365ZM111.972 159.778L113.318 161.951H113.359L114.705 159.778H115.45L113.808 162.389L115.45 165H114.705L113.359 162.868H113.318L111.972 165H111.227L112.91 162.389L111.227 159.778H111.972ZM116.578 159.778L117.925 161.951H117.966L119.312 159.778H120.056L118.414 162.389L120.056 165H119.312L117.966 162.868H117.925L116.578 165H115.834L117.517 162.389L115.834 159.778H116.578ZM121.185 159.778L122.531 161.951H122.572L123.918 159.778H124.663L123.021 162.389L124.663 165H123.918L122.572 162.868H122.531L121.185 165H120.441L122.123 162.389L120.441 159.778H121.185ZM127.811 159.778L129.158 161.951H129.198L130.545 159.778H131.289L129.647 162.389L131.289 165H130.545L129.198 162.868H129.158L127.811 165H127.067L128.75 162.389L127.067 159.778H127.811ZM132.418 159.778L133.764 161.951H133.805L135.151 159.778H135.896L134.254 162.389L135.896 165H135.151L133.805 162.868H133.764L132.418 165H131.673L133.356 162.389L131.673 159.778H132.418ZM139.044 159.778L140.39 161.951H140.431L141.777 159.778H142.522L140.88 162.389L142.522 165H141.777L140.431 162.868H140.39L139.044 165H138.3L139.982 162.389L138.3 159.778H139.044ZM145.67 159.778L147.016 161.951H147.057L148.403 159.778H149.148L147.506 162.389L149.148 165H148.403L147.057 162.868H147.016L145.67 165H144.926L146.608 162.389L144.926 159.778H145.67ZM150.277 159.778L151.623 161.951H151.664L153.01 159.778H153.755L152.113 162.389L153.755 165H153.01L151.664 162.868H151.623L150.277 165H149.532L151.215 162.389L149.532 159.778H150.277ZM156.903 159.778L158.249 161.951H158.29L159.636 159.778H160.381L158.739 162.389L160.381 165H159.636L158.29 162.868H158.249L156.903 165H156.158L157.841 162.389L156.158 159.778H156.903Z" fill="#3C1F1B"/>
<path d="M88.9383 171.778L90.2845 173.951H90.3253L91.6716 171.778H92.4161L90.7741 174.389L92.4161 177H91.6716L90.3253 174.868H90.2845L88.9383 177H88.1938L89.8766 174.389L88.1938 171.778H88.9383ZM93.545 171.778L94.8912 173.951H94.932L96.2783 171.778H97.0228L95.3808 174.389L97.0228 177H96.2783L94.932 174.868H94.8912L93.545 177H92.8005L94.4833 174.389L92.8005 171.778H93.545ZM98.1517 171.778L99.4979 173.951H99.5387L100.885 171.778H101.63L99.9875 174.389L101.63 177H100.885L99.5387 174.868H99.4979L98.1517 177H97.4072L99.09 174.389L97.4072 171.778H98.1517ZM102.758 171.778L104.105 173.951H104.145L105.492 171.778H106.236L104.594 174.389L106.236 177H105.492L104.145 174.868H104.105L102.758 177H102.014L103.697 174.389L102.014 171.778H102.758ZM107.365 171.778L108.711 173.951H108.752L110.098 171.778H110.843L109.201 174.389L110.843 177H110.098L108.752 174.868H108.711L107.365 177H106.621L108.303 174.389L106.621 171.778H107.365ZM111.972 171.778L113.318 173.951H113.359L114.705 171.778H115.45L113.808 174.389L115.45 177H114.705L113.359 174.868H113.318L111.972 177H111.227L112.91 174.389L111.227 171.778H111.972ZM116.578 171.778L117.925 173.951H117.966L119.312 171.778H120.056L118.414 174.389L120.056 177H119.312L117.966 174.868H117.925L116.578 177H115.834L117.517 174.389L115.834 171.778H116.578ZM121.185 171.778L122.531 173.951H122.572L123.918 171.778H124.663L123.021 174.389L124.663 177H123.918L122.572 174.868H122.531L121.185 177H120.441L122.123 174.389L120.441 171.778H121.185ZM127.811 171.778L129.158 173.951H129.198L130.545 171.778H131.289L129.647 174.389L131.289 177H130.545L129.198 174.868H129.158L127.811 177H127.067L128.75 174.389L127.067 171.778H127.811ZM132.418 171.778L133.764 173.951H133.805L135.151 171.778H135.896L134.254 174.389L135.896 177H135.151L133.805 174.868H133.764L132.418 177H131.673L133.356 174.389L131.673 171.778H132.418ZM139.044 171.778L140.39 173.951H140.431L141.777 171.778H142.522L140.88 174.389L142.522 177H141.777L140.431 174.868H140.39L139.044 177H138.3L139.982 174.389L138.3 171.778H139.044ZM145.67 171.778L147.016 173.951H147.057L148.403 171.778H149.148L147.506 174.389L149.148 177H148.403L147.057 174.868H147.016L145.67 177H144.926L146.608 174.389L144.926 171.778H145.67ZM150.277 171.778L151.623 173.951H151.664L153.01 171.778H153.755L152.113 174.389L153.755 177H153.01L151.664 174.868H151.623L150.277 177H149.532L151.215 174.389L149.532 171.778H150.277Z" fill="#3C1F1B"/>
<path d="M93.3417 204.228L94.478 206.062H94.5124L95.6487 204.228H96.277L94.8912 206.432L96.277 208.636H95.6487L94.5124 206.837H94.478L93.3417 208.636H92.7134L94.1337 206.432L92.7134 204.228H93.3417ZM97.2298 204.228L98.3661 206.062H98.4005L99.5368 204.228H100.165L98.7793 206.432L100.165 208.636H99.5368L98.4005 206.837H98.3661L97.2298 208.636H96.6015L98.0218 206.432L96.6015 204.228H97.2298ZM101.118 204.228L102.254 206.062H102.289L103.425 204.228H104.053L102.667 206.432L104.053 208.636H103.425L102.289 206.837H102.254L101.118 208.636H100.49L101.91 206.432L100.49 204.228H101.118ZM105.006 204.228L106.142 206.062H106.177L107.313 204.228H107.941L106.555 206.432L107.941 208.636H107.313L106.177 206.837H106.142L105.006 208.636H104.378L105.798 206.432L104.378 204.228H105.006ZM108.894 204.228L110.03 206.062H110.065L111.201 204.228H111.829L110.444 206.432L111.829 208.636H111.201L110.065 206.837H110.03L108.894 208.636H108.266L109.686 206.432L108.266 204.228H108.894ZM112.782 204.228L113.919 206.062H113.953L115.089 204.228H115.718L114.332 206.432L115.718 208.636H115.089L113.953 206.837H113.919L112.782 208.636H112.154L113.574 206.432L112.154 204.228H112.782ZM116.67 204.228L117.807 206.062H117.841L118.977 204.228H119.606L118.22 206.432L119.606 208.636H118.977L117.841 206.837H117.807L116.67 208.636H116.042L117.462 206.432L116.042 204.228H116.67ZM123.477 204.228V208.636H122.943V204.788H122.917L121.841 205.502V204.96L122.943 204.228H123.477ZM126.294 204.228V208.636H125.76V204.788H125.734L124.658 205.502V204.96L125.76 204.228H126.294ZM129.601 204.228L130.737 206.062H130.772L131.908 204.228H132.536L131.151 206.432L132.536 208.636H131.908L130.772 206.837H130.737L129.601 208.636H128.973L130.393 206.432L128.973 204.228H129.601ZM133.489 204.228L134.625 206.062H134.66L135.796 204.228H136.425L135.039 206.432L136.425 208.636H135.796L134.66 206.837H134.625L133.489 208.636H132.861L134.281 206.432L132.861 204.228H133.489ZM139.082 204.228L140.218 206.062H140.252L141.389 204.228H142.017L140.631 206.432L142.017 208.636H141.389L140.252 206.837H140.218L139.082 208.636H138.453L139.874 206.432L138.453 204.228H139.082ZM144.674 204.228L145.81 206.062H145.845L146.981 204.228H147.61L146.224 206.432L147.61 208.636H146.981L145.845 206.837H145.81L144.674 208.636H144.046L145.466 206.432L144.046 204.228H144.674ZM148.562 204.228L149.699 206.062H149.733L150.869 204.228H151.498L150.112 206.432L151.498 208.636H150.869L149.733 206.837H149.699L148.562 208.636H147.934L149.354 206.432L147.934 204.228H148.562ZM154.155 204.228L155.291 206.062H155.325L156.462 204.228H157.09L155.704 206.432L157.09 208.636H156.462L155.325 206.837H155.291L154.155 208.636H153.526L154.947 206.432L153.526 204.228H154.155ZM159.747 204.228L160.884 206.062H160.918L162.054 204.228H162.683L161.297 206.432L162.683 208.636H162.054L160.918 206.837H160.884L159.747 208.636H159.119L160.539 206.432L159.119 204.228H159.747Z" fill="#3C1F1B"/>
<path d="M93.3417 216.092L94.478 217.925H94.5124L95.6487 216.092H96.277L94.8912 218.296L96.277 220.499H95.6487L94.5124 218.7H94.478L93.3417 220.499H92.7134L94.1337 218.296L92.7134 216.092H93.3417ZM97.2298 216.092L98.3661 217.925H98.4005L99.5368 216.092H100.165L98.7793 218.296L100.165 220.499H99.5368L98.4005 218.7H98.3661L97.2298 220.499H96.6015L98.0218 218.296L96.6015 216.092H97.2298ZM101.118 216.092L102.254 217.925H102.289L103.425 216.092H104.053L102.667 218.296L104.053 220.499H103.425L102.289 218.7H102.254L101.118 220.499H100.49L101.91 218.296L100.49 216.092H101.118ZM105.006 216.092L106.142 217.925H106.177L107.313 216.092H107.941L106.555 218.296L107.941 220.499H107.313L106.177 218.7H106.142L105.006 220.499H104.378L105.798 218.296L104.378 216.092H105.006ZM108.894 216.092L110.03 217.925H110.065L111.201 216.092H111.829L110.444 218.296L111.829 220.499H111.201L110.065 218.7H110.03L108.894 220.499H108.266L109.686 218.296L108.266 216.092H108.894ZM112.782 216.092L113.919 217.925H113.953L115.089 216.092H115.718L114.332 218.296L115.718 220.499H115.089L113.953 218.7H113.919L112.782 220.499H112.154L113.574 218.296L112.154 216.092H112.782ZM116.67 216.092L117.807 217.925H117.841L118.977 216.092H119.606L118.22 218.296L119.606 220.499H118.977L117.841 218.7H117.807L116.67 220.499H116.042L117.462 218.296L116.042 216.092H116.67ZM120.558 216.092L121.695 217.925H121.729L122.865 216.092H123.494L122.108 218.296L123.494 220.499H122.865L121.729 218.7H121.695L120.558 220.499H119.93L121.35 218.296L119.93 216.092H120.558ZM124.447 216.092L125.583 217.925H125.617L126.754 216.092H127.382L125.996 218.296L127.382 220.499H126.754L125.617 218.7H125.583L124.447 220.499H123.818L125.239 218.296L123.818 216.092H124.447ZM128.335 216.092L129.471 217.925H129.505L130.642 216.092H131.27L129.884 218.296L131.27 220.499H130.642L129.505 218.7H129.471L128.335 220.499H127.706L129.127 218.296L127.706 216.092H128.335ZM132.223 216.092L133.359 217.925H133.393L134.53 216.092H135.158L133.772 218.296L135.158 220.499H134.53L133.393 218.7H133.359L132.223 220.499H131.594L133.015 218.296L131.594 216.092H132.223ZM137.815 216.092L138.952 217.925H138.986L140.122 216.092H140.751L139.365 218.296L140.751 220.499H140.122L138.986 218.7H138.952L137.815 220.499H137.187L138.607 218.296L137.187 216.092H137.815ZM141.703 216.092L142.84 217.925H142.874L144.01 216.092H144.639L143.253 218.296L144.639 220.499H144.01L142.874 218.7H142.84L141.703 220.499H141.075L142.495 218.296L141.075 216.092H141.703ZM145.591 216.092L146.728 217.925H146.762L147.898 216.092H148.527L147.141 218.296L148.527 220.499H147.898L146.762 218.7H146.728L145.591 220.499H144.963L146.383 218.296L144.963 216.092H145.591ZM150.693 216.092V220.499H150.16V216.652H150.134L149.058 217.366V216.824L150.16 216.092H150.693ZM153.51 216.092V220.499H152.977V216.652H152.951L151.875 217.366V216.824L152.977 216.092H153.51ZM156.327 216.092V220.499H155.794V216.652H155.768L154.692 217.366V216.824L155.794 216.092H156.327ZM160.849 216.092V220.499H160.315V216.652H160.289L159.213 217.366V216.824L160.315 216.092H160.849ZM163.665 216.092V220.499H163.132V216.652H163.106L162.03 217.366V216.824L163.132 216.092H163.665ZM166.482 216.092V220.499H165.949V216.652H165.923L164.847 217.366V216.824L165.949 216.092H166.482ZM169.299 216.092V220.499H168.766V216.652H168.74L167.664 217.366V216.824L168.766 216.092H169.299ZM172.116 216.092V220.499H171.583V216.652H171.557L170.481 217.366V216.824L171.583 216.092H172.116ZM173.72 216.092L174.856 217.925H174.89L176.027 216.092H176.655L175.269 218.296L176.655 220.499H176.027L174.89 218.7H174.856L173.72 220.499H173.091L174.512 218.296L173.091 216.092H173.72Z" fill="#3C1F1B"/>
<path d="M93.3417 237.936L94.478 239.77H94.5124L95.6487 237.936H96.277L94.8912 240.14L96.277 242.344H95.6487L94.5124 240.545H94.478L93.3417 242.344H92.7134L94.1337 240.14L92.7134 237.936H93.3417ZM98.9342 237.936L100.07 239.77H100.105L101.241 237.936H101.87L100.484 240.14L101.87 242.344H101.241L100.105 240.545H100.07L98.9342 242.344H98.3058L99.7261 240.14L98.3058 237.936H98.9342ZM104.527 237.936L105.663 239.77H105.697L106.834 237.936H107.462L106.076 240.14L107.462 242.344H106.834L105.697 240.545H105.663L104.527 242.344H103.898L105.319 240.14L103.898 237.936H104.527ZM108.415 237.936L109.551 239.77H109.585L110.722 237.936H111.35L109.964 240.14L111.35 242.344H110.722L109.585 240.545H109.551L108.415 242.344H107.786L109.207 240.14L107.786 237.936H108.415ZM114.007 237.936L115.144 239.77H115.178L116.314 237.936H116.943L115.557 240.14L116.943 242.344H116.314L115.178 240.545H115.144L114.007 242.344H113.379L114.799 240.14L113.379 237.936H114.007ZM119.6 237.936L120.736 239.77H120.77L121.907 237.936H122.535L121.149 240.14L122.535 242.344H121.907L120.77 240.545H120.736L119.6 242.344H118.971L120.392 240.14L118.971 237.936H119.6ZM123.54 239.038L124.331 240.39L125.123 239.038H125.709L124.641 240.691L125.709 242.344H125.123L124.331 241.061L123.54 242.344H122.954L124.004 240.691L122.954 239.038H123.54ZM127.974 237.936V242.344H127.441V238.496H127.415L126.339 239.21V238.668L127.441 237.936H127.974ZM130.791 237.936V242.344H130.257V238.496H130.232L129.156 239.21V238.668L130.257 237.936H130.791ZM134.099 237.936L135.235 239.77H135.269L136.406 237.936H137.034L135.648 240.14L137.034 242.344H136.406L135.269 240.545H135.235L134.099 242.344H133.47L134.891 240.14L133.47 237.936H134.099ZM137.987 237.936L139.123 239.77H139.158L140.294 237.936H140.922L139.536 240.14L140.922 242.344H140.294L139.158 240.545H139.123L137.987 242.344H137.359L138.779 240.14L137.359 237.936H137.987ZM141.875 237.936L143.011 239.77H143.046L144.182 237.936H144.81L143.424 240.14L144.81 242.344H144.182L143.046 240.545H143.011L141.875 242.344H141.247L142.667 240.14L141.247 237.936H141.875ZM145.763 237.936L146.899 239.77H146.934L148.07 237.936H148.698L147.313 240.14L148.698 242.344H148.07L146.934 240.545H146.899L145.763 242.344H145.135L146.555 240.14L145.135 237.936H145.763ZM149.651 237.936L150.787 239.77H150.822L151.958 237.936H152.587L151.201 240.14L152.587 242.344H151.958L150.822 240.545H150.787L149.651 242.344H149.023L150.443 240.14L149.023 237.936H149.651ZM153.539 237.936L154.676 239.77H154.71L155.846 237.936H156.475L155.089 240.14L156.475 242.344H155.846L154.71 240.545H154.676L153.539 242.344H152.911L154.331 240.14L152.911 237.936H153.539ZM157.427 237.936L158.564 239.77H158.598L159.734 237.936H160.363L158.977 240.14L160.363 242.344H159.734L158.598 240.545H158.564L157.427 242.344H156.799L158.219 240.14L156.799 237.936H157.427Z" fill="#3C1F1B"/>
</svg>
