<svg width="320" height="320" viewBox="0 0 320 320" fill="none" xmlns="http://www.w3.org/2000/svg">
<rect width="320" height="320" fill="#F2F2EA"/>
<g clip-path="url(#clip0_1423_4568)">
<path d="M265 202.979L55 202.979" stroke="#3C1F1B" stroke-width="6.4" stroke-miterlimit="2.6131"/>
<path fill-rule="evenodd" clip-rule="evenodd" d="M230.062 202.979L82.4241 202.979V134.981C82.4372 130.452 84.2422 126.112 87.4449 122.91C90.6476 119.707 94.9875 117.902 99.5167 117.889L212.97 117.889C217.499 117.902 221.839 119.707 225.042 122.91C228.244 126.112 230.049 130.452 230.062 134.981L230.062 202.979Z" fill="#DCCDB3" stroke="#3C1F1B" stroke-width="6.4" stroke-miterlimit="2.6131"/>
<path d="M199.741 172.085L195.713 165.276H195.557L191.508 172.085H186.738L192.835 162.096L186.602 152.107H191.459L195.557 158.926H195.713L199.81 152.107H204.648L198.395 162.096L204.531 172.085H199.741ZM180.105 172.085L176.076 165.276H175.92L171.872 172.085H167.101L173.198 162.096L166.965 152.107H171.823L175.92 158.926H176.076L180.173 152.107H185.011L178.759 162.096L184.894 172.085H180.105ZM160.468 172.085L156.439 165.276H156.283L152.235 172.085H147.465L153.561 162.096L147.328 152.107H152.186L156.283 158.926H156.439L160.536 152.107H165.375L159.122 162.096L165.258 172.085H160.468ZM140.831 172.085L136.802 165.276H136.646L132.598 172.085H127.828L133.925 162.096L127.691 152.107H132.549L136.646 158.926H136.802L140.899 152.107H145.738L139.485 162.096L145.621 172.085H140.831ZM121.194 172.085L117.166 165.276H117.01L112.961 172.085H108.191L114.288 162.096L108.054 152.107H112.912L117.01 158.926H117.166L121.263 152.107H126.101L119.848 162.096L125.984 172.085H121.194Z" fill="#3C1F1B"/>
</g>
<defs>
<clipPath id="clip0_1423_4568">
<rect width="210" height="90.8672" fill="white" transform="translate(55 115)"/>
</clipPath>
</defs>
</svg>
