<svg width="320" height="320" viewBox="0 0 320 320" fill="none" xmlns="http://www.w3.org/2000/svg">
<g clip-path="url(#clip0_1425_12070)">
<rect width="320" height="320" fill="#F2F2EA"/>
<path fill-rule="evenodd" clip-rule="evenodd" d="M172.235 0.144845C172.186 0.224483 171.999 0.289642 171.82 0.289642C171.641 0.289642 171.368 0.385352 171.213 0.502203C171.059 0.619198 170.757 0.716936 170.542 0.719397C170.328 0.722004 170.113 0.789189 170.063 0.868827C170.014 0.948465 169.827 1.01362 169.648 1.01362C169.469 1.01362 169.196 1.10933 169.041 1.22618C168.887 1.34318 168.645 1.44092 168.505 1.44338C168.364 1.44599 168.136 1.50448 167.998 1.57341C167.59 1.77713 166.763 2.05485 166.333 2.1329C166.113 2.17272 165.897 2.26307 165.854 2.33344C165.81 2.40396 165.642 2.46159 165.48 2.46159C165.318 2.46159 165.012 2.55266 164.801 2.66401C164.589 2.77522 164.123 2.9455 163.765 3.04251C163.406 3.13938 162.983 3.27071 162.824 3.33456C162.664 3.39842 162.176 3.56276 161.738 3.69989C160.946 3.94778 160.824 3.98919 159.855 4.33887C159.576 4.43951 159.168 4.55447 158.949 4.59444C158.729 4.63426 158.513 4.72461 158.469 4.79498C158.426 4.8655 158.244 4.92313 158.064 4.92313C157.885 4.92313 157.612 5.01884 157.458 5.13569C157.303 5.25268 157.001 5.35042 156.787 5.35288C156.573 5.35549 156.362 5.41514 156.318 5.48566C156.275 5.55603 156.059 5.64638 155.839 5.6862C155.409 5.76425 154.582 6.04197 154.174 6.2457C154.036 6.31462 153.799 6.37109 153.648 6.37109C153.496 6.37109 153.186 6.46839 152.958 6.58742C152.73 6.70629 152.433 6.80403 152.298 6.80461C152.163 6.80504 152.013 6.87064 151.964 6.95027C151.915 7.02991 151.743 7.09507 151.581 7.09507C151.42 7.09507 150.821 7.24914 150.251 7.43752C149.68 7.6259 148.919 7.85887 148.561 7.95531C148.203 8.0516 147.725 8.22332 147.5 8.3367C147.274 8.45022 146.936 8.54304 146.748 8.54304C146.56 8.54304 146.366 8.60819 146.317 8.68783C146.268 8.76747 146.07 8.83263 145.879 8.83263C145.687 8.83263 145.316 8.92255 145.055 9.03245C144.331 9.33666 143.577 9.55661 143.259 9.55661C143.101 9.55661 142.902 9.62684 142.816 9.7127C142.671 9.85779 142.32 9.96841 141.032 10.276C140.455 10.4138 139.631 10.6941 139.26 10.8792C139.122 10.9481 138.849 11.0046 138.653 11.0046C138.458 11.0046 138.257 11.0697 138.208 11.1494C138.159 11.229 137.943 11.2965 137.729 11.2992C137.515 11.3021 137.176 11.3976 136.977 11.5114C136.778 11.6252 136.44 11.7206 136.226 11.7235C136.011 11.7262 135.796 11.7937 135.747 11.8734C135.697 11.953 135.514 12.0186 135.34 12.019C135.165 12.0196 134.836 12.1173 134.608 12.2362C134.38 12.3552 134.041 12.4525 133.856 12.4525C133.671 12.4525 133.479 12.5177 133.43 12.5973C133.381 12.677 133.165 12.7444 132.951 12.7472C132.736 12.7501 132.398 12.8455 132.199 12.9593C132 13.0731 131.662 13.1686 131.447 13.1714C131.233 13.1742 131.018 13.2417 130.968 13.3213C130.919 13.401 130.7 13.4661 130.482 13.4661C130.264 13.4661 130.023 13.5275 129.948 13.6027C129.872 13.6777 129.549 13.8044 129.231 13.884C127.873 14.2237 126.869 14.5415 126.373 14.7887C126.235 14.8576 125.929 14.9141 125.694 14.9141C125.459 14.9141 125.226 14.9792 125.176 15.0589C125.127 15.1385 124.944 15.2041 124.77 15.2045C124.595 15.2051 124.266 15.3029 124.038 15.4217C123.81 15.5408 123.471 15.6381 123.286 15.6381C123.101 15.6381 122.909 15.7032 122.86 15.7829C122.811 15.8625 122.595 15.93 122.381 15.9327C122.166 15.9356 121.828 16.031 121.629 16.1448C121.43 16.2587 121.092 16.3541 120.877 16.357C120.663 16.3597 120.447 16.4272 120.398 16.5068C120.349 16.5865 120.13 16.6516 119.912 16.6516C119.693 16.6516 119.442 16.7246 119.353 16.8138C119.205 16.9612 118.706 17.1009 117.502 17.332C117.263 17.3778 116.939 17.5042 116.782 17.6126C116.625 17.7212 116.32 17.81 116.103 17.81C115.886 17.81 115.669 17.8752 115.62 17.9548C115.571 18.0344 115.388 18.1009 115.213 18.1026C115.039 18.1044 114.44 18.267 113.882 18.464C113.325 18.6611 112.754 18.8226 112.613 18.823C112.473 18.8233 112.245 18.8796 112.107 18.948C111.657 19.1702 110.376 19.5476 110.071 19.5476C109.907 19.5476 109.732 19.6127 109.683 19.6924C109.634 19.772 109.451 19.8376 109.277 19.838C109.102 19.8386 108.773 19.9363 108.545 20.0552C108.316 20.1742 108.028 20.2715 107.903 20.2715C107.604 20.2715 106.745 20.5396 106.233 20.7928C106.007 20.9043 105.686 20.9955 105.519 20.9955C105.219 20.9955 104.664 21.149 103.674 21.5058C103.395 21.6061 102.874 21.766 102.516 21.8608C101.21 22.2063 100.268 22.5056 100.134 22.618C100.058 22.6812 99.8131 22.7331 99.5889 22.7331C99.3649 22.7331 99.0684 22.7891 98.9301 22.8575C98.4808 23.0797 97.1996 23.4571 96.8941 23.4571C96.7304 23.4571 96.556 23.5222 96.5068 23.6019C96.4576 23.6815 96.242 23.749 96.0277 23.7517C95.8134 23.7546 95.4751 23.85 95.276 23.9639C95.0769 24.0777 94.7387 24.1731 94.5244 24.176C94.3101 24.1787 94.0945 24.2462 94.0452 24.3258C93.996 24.4055 93.7804 24.473 93.5661 24.4757C93.3518 24.4786 93.0136 24.574 92.8145 24.6878C92.6154 24.8016 92.2771 24.8971 92.0629 24.9C91.8485 24.9027 91.6329 24.9702 91.5837 25.0498C91.5345 25.1295 91.3189 25.1969 91.1046 25.1997C90.8903 25.2026 90.552 25.298 90.3529 25.4118C90.1538 25.5256 89.8156 25.621 89.6013 25.6239C89.387 25.6267 89.1714 25.6942 89.1222 25.7738C89.0729 25.8534 88.8697 25.9186 88.6703 25.9186C88.285 25.9186 86.9738 26.2839 86.5541 26.5082C86.4158 26.5821 86.1101 26.6426 85.8748 26.6426C85.6395 26.6426 85.4067 26.7077 85.3575 26.7874C85.3082 26.867 85.0926 26.9345 84.8783 26.9372C84.664 26.9401 84.3258 27.0356 84.1267 27.1494C83.9276 27.2632 83.5568 27.3586 83.3027 27.3615C83.0485 27.3642 82.8004 27.4317 82.7511 27.5114C82.7019 27.591 82.4863 27.6585 82.272 27.6612C82.0577 27.6641 81.7195 27.7595 81.5204 27.8734C81.3213 27.9872 80.9504 28.0826 80.6963 28.0855C80.4422 28.0882 80.194 28.1557 80.1448 28.2353C80.0956 28.315 79.8436 28.3801 79.5847 28.3801C79.326 28.3801 78.9877 28.4758 78.8331 28.5927C78.6786 28.7097 78.3115 28.8074 78.0176 28.8099C77.7237 28.8125 77.4429 28.8797 77.3937 28.9593C77.3444 29.039 77.12 29.1041 76.8948 29.1041C76.6698 29.1041 76.299 29.2014 76.0708 29.3204C75.8428 29.4393 75.4808 29.5371 75.2665 29.5376C75.0522 29.5381 74.8366 29.6037 74.7873 29.6833C74.7381 29.7629 74.4449 29.8281 74.1357 29.8281C73.8266 29.8281 73.5357 29.8895 73.4894 29.9645C73.4429 30.0395 73.1125 30.1448 72.755 30.1985C72.3975 30.2521 72.0694 30.3536 72.0259 30.4239C71.9823 30.4945 71.7216 30.5521 71.4464 30.5521C71.1713 30.5521 70.8331 30.6096 70.6948 30.6798C70.3525 30.8538 69.2584 31.1418 68.5964 31.2323C68.2973 31.2732 68.0165 31.365 67.9725 31.4362C67.9285 31.5075 67.6845 31.568 67.4304 31.5707C67.1763 31.5736 66.8054 31.669 66.6063 31.7829C66.4072 31.8967 66.0861 31.9921 65.8926 31.995C65.5579 31.9998 65.0341 32.1343 64.0724 32.4621C63.6334 32.6118 62.9514 32.7673 61.7486 32.9918C61.3863 33.0594 61.0149 33.1897 60.9232 33.2813C60.8316 33.373 60.5129 33.448 60.2149 33.448C59.9169 33.448 59.6329 33.5132 59.5837 33.5928C59.5345 33.6724 59.2691 33.7376 58.994 33.7376C58.7188 33.7376 58.3806 33.7951 58.2423 33.8653C57.9106 34.034 56.8159 34.3233 56.181 34.4102C55.9023 34.4483 55.5439 34.532 55.3846 34.5961C55.2253 34.6602 54.8018 34.7907 54.4434 34.8861C53.8118 35.0544 53.427 35.143 51.9154 35.4681C51.5206 35.5531 51.1328 35.6871 51.0539 35.7661C50.975 35.845 50.6667 35.9095 50.3687 35.9095C50.0707 35.9095 49.7868 35.9747 49.7376 36.0543C49.6883 36.134 49.4038 36.1991 49.1051 36.1991C48.8065 36.1991 48.4357 36.2949 48.2811 36.4117C48.1266 36.5287 47.7595 36.6264 47.4656 36.6289C47.1716 36.6315 46.8909 36.6987 46.8416 36.7783C46.7924 36.858 46.5237 36.9231 46.2443 36.9231C45.9652 36.9231 45.5944 37.0003 45.4203 37.0946C45.2464 37.189 44.8271 37.3193 44.4887 37.3842C43.3791 37.5971 42.6557 37.764 41.7738 38.0101C41.2959 38.1435 40.6443 38.2859 40.3258 38.3266C40.0072 38.3675 39.6848 38.4593 39.6091 38.5307C39.5335 38.6022 39.2933 38.6607 39.0755 38.6607C38.8577 38.6607 38.496 38.7348 38.2719 38.8253C37.8871 38.9807 37.4692 39.0794 36.0181 39.358C35.6797 39.4229 35.2604 39.5532 35.0865 39.6476C34.9124 39.7419 34.5416 39.8191 34.2624 39.8191C33.9831 39.8191 33.7144 39.8842 33.6652 39.9638C33.6159 40.0435 33.3677 40.111 33.1136 40.1137C32.8595 40.1166 32.4887 40.212 32.2896 40.3258C32.0905 40.4396 31.6871 40.5351 31.3932 40.538C31.0992 40.5407 30.8227 40.6012 30.7786 40.6725C30.7346 40.7437 30.4539 40.8349 30.1547 40.8751C29.4607 40.9682 28.3918 41.2334 28.0181 41.4054C27.8588 41.4787 27.5005 41.5698 27.2217 41.608C26.3988 41.7205 25.2775 42.0116 25.1294 42.151C25.0538 42.2222 24.7482 42.2806 24.4502 42.2806C24.1522 42.2806 23.8682 42.3457 23.819 42.4254C23.7698 42.505 23.5216 42.5706 23.2675 42.5711C23.0134 42.5716 22.6188 42.6694 22.3907 42.7882C22.1625 42.9073 21.7591 43.0046 21.4943 43.0046C21.2293 43.0046 20.9723 43.0697 20.9231 43.1494C20.8738 43.229 20.6051 43.2942 20.3258 43.2942C20.0466 43.2942 19.6758 43.3713 19.5018 43.4656C19.1831 43.6385 18.3719 43.825 17.3032 43.9714C16.9846 44.015 16.6485 44.1115 16.5565 44.1858C16.3902 44.3198 15.3782 44.5449 14.2624 44.6962C13.9439 44.7394 13.5965 44.8449 13.4905 44.9307C13.3845 45.0165 12.961 45.1415 12.5494 45.2087C10.9111 45.4757 9.11406 45.8681 8.76018 46.0362C8.60091 46.1118 8.20996 46.2053 7.8914 46.2441C6.79052 46.378 5.7432 46.6152 5.59406 46.7644C5.51167 46.8467 5.13549 46.9141 4.75786 46.9141C4.38024 46.9141 4.03113 46.9792 3.9819 47.0589C3.93267 47.1385 3.64351 47.2037 3.33944 47.2037C3.03537 47.2037 2.55262 47.3014 2.26664 47.4209C1.98081 47.5403 1.52963 47.6381 1.26422 47.6381C0.998805 47.6381 0.606407 47.7194 0.391964 47.819C0.00752942 47.9976 0.00217195 48.0195 0.00115837 49.4288C0 50.844 0.00304071 50.8564 0.325792 50.756C0.504905 50.7002 1.00402 50.5923 1.43464 50.5163C1.86527 50.4403 2.2762 50.3418 2.34787 50.2975C2.4194 50.2534 2.81629 50.1611 3.22983 50.0925C5.0505 49.7907 5.72858 49.641 5.85701 49.5129C5.9326 49.4374 6.22132 49.3756 6.49832 49.3756C6.77531 49.3756 7.20217 49.3161 7.44673 49.2434C8.56543 48.9107 9.50458 48.6987 11.2579 48.383C11.6361 48.315 12.1292 48.1847 12.3533 48.0934C12.5774 48.0022 12.9391 47.9277 13.1569 47.9277C13.3747 47.9277 13.6149 47.8691 13.6905 47.7976C13.7662 47.7262 14.0887 47.6344 14.4072 47.5939C15.156 47.4985 16.3543 47.2219 16.724 47.0594C16.8833 46.9894 17.2416 46.9021 17.5204 46.8654C17.7991 46.8286 18.4181 46.6902 18.8959 46.5576C19.8222 46.3004 20.6136 46.1174 21.6162 45.9282C21.9575 45.8637 22.3298 45.7535 22.4434 45.6833C22.5571 45.6131 22.9294 45.5029 23.2707 45.4385C23.6121 45.374 24.1707 45.2686 24.5121 45.2042C24.8534 45.1397 25.2257 45.0295 25.3394 44.9593C25.453 44.8891 25.8253 44.7789 26.1666 44.7145C26.508 44.65 27.0643 44.5442 27.4027 44.4792C27.7413 44.4143 28.1604 44.284 28.3343 44.1896C28.5084 44.0953 28.8374 44.0181 29.0656 44.0181C29.2938 44.0181 29.5425 43.9596 29.6181 43.8881C29.6938 43.8167 30.0163 43.7262 30.3348 43.687C30.6534 43.6479 31.305 43.5067 31.7828 43.3734C32.6129 43.1417 32.9224 43.0681 34.5074 42.726C34.891 42.643 35.2796 42.5292 35.3709 42.4727C35.4622 42.4163 35.8163 42.3174 36.1575 42.2529C37.559 41.9884 38.0289 41.8778 38.4167 41.7212C38.6408 41.6307 39.0116 41.5566 39.2407 41.5566C39.4698 41.5566 39.6974 41.4915 39.7466 41.4118C39.7958 41.3322 40.0235 41.267 40.2525 41.267C40.4816 41.267 40.8524 41.1929 41.0766 41.1024C41.4643 40.9459 41.9342 40.8352 43.3357 40.5707C43.677 40.5063 44.031 40.4074 44.1224 40.3509C44.2136 40.2944 44.6022 40.1806 44.9858 40.0976C45.3693 40.0148 45.9439 39.8912 46.2624 39.8228C46.581 39.7545 47.2326 39.5911 47.7104 39.46C48.5414 39.2318 48.8614 39.1562 50.435 38.8165C50.8186 38.7335 51.2072 38.6197 51.2985 38.5632C51.3898 38.5068 51.7439 38.4079 52.0851 38.3434C52.4266 38.279 52.9852 38.1736 53.3266 38.1092C53.6679 38.0447 54.0402 37.9345 54.1538 37.8643C54.2675 37.7941 54.6398 37.6839 54.9811 37.6194C55.3225 37.555 55.8788 37.4492 56.2172 37.3842C56.5556 37.3193 56.9749 37.189 57.1488 37.0946C57.3229 37.0003 57.6611 36.9231 57.9005 36.9231C58.1399 36.9231 58.3761 36.858 58.4253 36.7783C58.4746 36.6987 58.7228 36.6312 58.9769 36.6285C59.231 36.6256 59.6018 36.5301 59.8009 36.4163C60 36.3025 60.4034 36.2071 60.6973 36.2042C60.9913 36.2015 61.272 36.134 61.3213 36.0543C61.3705 35.9747 61.5815 35.9095 61.7901 35.9095C61.9988 35.9095 62.3696 35.8466 62.6142 35.7695C63.1099 35.6133 64.4901 35.2404 65.3756 35.0235C65.6941 34.9454 66.2567 34.7871 66.6257 34.6715C66.9948 34.5561 67.4356 34.4616 67.6051 34.4616C67.7747 34.4616 68.0266 34.4041 68.1649 34.3339C68.5072 34.1598 69.6013 33.8718 70.2633 33.7813C70.5625 33.7405 70.8432 33.6487 70.8872 33.5775C70.9313 33.5062 71.1632 33.448 71.4027 33.448C71.6421 33.448 71.9803 33.3708 72.1544 33.2766C72.3283 33.1822 72.7312 33.0555 73.0498 32.9948C73.7028 32.8706 74.3897 32.703 75.6561 32.3591C76.1339 32.2293 76.7529 32.0681 77.0317 32.0006C77.3104 31.9333 77.8968 31.7695 78.3348 31.6368C78.7729 31.504 79.3919 31.3427 79.7104 31.2784C80.029 31.2141 80.648 31.0537 81.086 30.9217C81.9698 30.6558 82.6896 30.468 83.5225 30.2865C83.8273 30.2201 84.1643 30.1115 84.2715 30.0453C84.3786 29.9791 84.7321 29.8675 85.0567 29.7974C86.0202 29.5896 86.634 29.4314 87.095 29.2721C87.3339 29.1896 87.8226 29.0474 88.181 28.9563C89.1749 28.7035 90.392 28.3526 90.7149 28.2259C90.8742 28.1635 91.1674 28.0803 91.3665 28.041C91.5656 28.0018 92.0869 27.8612 92.5249 27.7286C92.9629 27.5959 93.4842 27.4553 93.6833 27.4161C93.8824 27.3768 94.1756 27.2946 94.3348 27.2335C95.0352 26.9643 96.1309 26.6426 96.3472 26.6426C96.477 26.6426 96.6963 26.5855 96.8346 26.5157C96.9729 26.4461 97.4769 26.2762 97.9548 26.1384C98.4326 26.0006 98.9733 25.8295 99.1561 25.7585C99.339 25.6872 99.6356 25.629 99.8149 25.629C99.9944 25.629 100.203 25.5676 100.279 25.4925C100.354 25.4175 100.677 25.2908 100.995 25.2111C102.401 24.8596 102.612 24.7963 102.908 24.638C103.08 24.5459 103.384 24.4706 103.584 24.4706C103.783 24.4706 103.987 24.4055 104.036 24.3258C104.085 24.2462 104.268 24.1808 104.443 24.1805C104.617 24.18 105.216 24.0186 105.774 23.8215C106.331 23.6244 106.93 23.4618 107.105 23.4601C107.279 23.4584 107.462 23.3919 107.511 23.3123C107.561 23.2326 107.758 23.1675 107.949 23.1675C108.141 23.1675 108.512 23.076 108.773 22.9642C109.035 22.8524 109.542 22.6854 109.9 22.5934C110.259 22.5011 110.748 22.3588 110.986 22.2771C111.225 22.1953 111.633 22.069 111.891 21.9964C112.15 21.9237 112.574 21.8049 112.833 21.7322C113.091 21.6596 113.499 21.5347 113.738 21.4548C113.976 21.3749 114.4 21.2478 114.679 21.1725C115.834 20.8598 116.939 20.5171 117.174 20.3984C117.313 20.3286 117.558 20.2715 117.719 20.2715C117.881 20.2715 118.126 20.2155 118.264 20.1472C118.671 19.9459 119.983 19.5476 120.239 19.5476C120.368 19.5476 120.588 19.487 120.726 19.4132C120.959 19.2888 121.717 19.0535 123.149 18.6614C123.468 18.5742 123.957 18.4206 124.235 18.3203C124.514 18.2198 124.97 18.0728 125.249 17.9937C126.741 17.5701 127.519 17.3264 127.745 17.2129C127.883 17.1431 128.102 17.086 128.232 17.086C128.488 17.086 129.799 16.6877 130.206 16.4864C130.344 16.4181 130.617 16.362 130.813 16.362C131.008 16.362 131.205 16.3025 131.25 16.2298C131.295 16.1572 131.592 16.0538 131.91 16C132.227 15.9463 132.524 15.8429 132.569 15.7703C132.614 15.6976 132.789 15.6381 132.958 15.6381C133.328 15.6381 134.148 15.3939 134.709 15.1168C134.934 15.0053 135.305 14.9141 135.533 14.9141C135.76 14.9141 135.982 14.8562 136.026 14.7852C136.07 14.7144 136.318 14.6249 136.578 14.5863C137.052 14.5156 137.847 14.2593 138.315 14.0259C138.453 13.957 138.681 13.8992 138.822 13.8975C138.962 13.8957 139.533 13.7331 140.09 13.536C140.648 13.339 141.247 13.1775 141.421 13.1771C141.596 13.1768 141.775 13.117 141.82 13.0443C141.865 12.9716 142.162 12.8682 142.48 12.8145C142.797 12.7608 143.094 12.6574 143.139 12.5847C143.184 12.512 143.381 12.4525 143.576 12.4525C143.772 12.4525 144.045 12.3955 144.183 12.3257C144.321 12.256 144.825 12.0856 145.303 11.9469C145.781 11.8083 146.302 11.6465 146.462 11.5872C146.741 11.4834 147.944 11.1195 148.995 10.8208C149.274 10.7418 149.73 10.5948 150.009 10.4943C150.288 10.394 150.809 10.2347 151.167 10.1404C151.526 10.0462 152.003 9.87632 152.229 9.76294C152.454 9.64942 152.765 9.55661 152.919 9.55661C153.073 9.55661 153.312 9.49739 153.45 9.42499C153.588 9.35259 154.288 9.11759 155.005 8.90271C155.721 8.68783 156.421 8.45384 156.559 8.38275C156.697 8.31165 156.907 8.25344 157.025 8.25344C157.143 8.25344 157.453 8.16352 157.715 8.05362C157.976 7.94372 158.451 7.77677 158.769 7.6828C159.088 7.58868 159.576 7.42651 159.855 7.3224C160.134 7.21829 160.623 7.0554 160.941 6.96041C161.26 6.86542 161.748 6.70238 162.027 6.59813C162.306 6.49373 163.088 6.23252 163.765 6.0175C164.442 5.80247 165.126 5.57312 165.285 5.50781C165.444 5.44251 165.9 5.2883 166.299 5.16537C167.285 4.86057 167.992 4.61587 168.258 4.48772C168.38 4.42894 168.689 4.33482 168.944 4.27878C169.199 4.22275 169.446 4.11675 169.491 4.0432C169.536 3.96964 169.729 3.90955 169.919 3.90955C170.108 3.90955 170.304 3.84439 170.353 3.76475C170.402 3.68512 170.589 3.61996 170.768 3.61996C170.947 3.61996 171.22 3.52425 171.375 3.4074C171.53 3.2904 171.831 3.19266 172.046 3.1902C172.26 3.1876 172.476 3.12041 172.525 3.04077C172.574 2.96113 172.733 2.89598 172.879 2.89598C173.024 2.89598 173.33 2.79867 173.558 2.67965C173.786 2.56077 174.083 2.46304 174.218 2.46246C174.352 2.46202 174.503 2.39643 174.552 2.31679C174.601 2.23715 174.787 2.17199 174.966 2.17199C175.145 2.17199 175.352 2.11596 175.428 2.04747C175.504 1.97898 175.924 1.80609 176.362 1.66347C176.8 1.52085 177.364 1.31625 177.615 1.20881C177.866 1.10151 178.162 1.01362 178.273 1.01362C178.385 1.01362 178.538 0.958746 178.614 0.89156C178.689 0.824375 179.11 0.659886 179.548 0.526094C181.125 0.0437774 180.901 0.00453762 176.552 0.00222088C173.887 0.000917708 172.292 0.0536236 172.235 0.144845ZM164.778 102.538C145.188 103.19 126.254 111.486 112.137 125.603C99.1204 138.62 91.1774 155.421 89.133 174.262C87.8889 185.727 89.297 198.12 93.1171 209.327C96.3517 218.817 101.862 228.645 107.871 235.646C118.534 248.066 131.259 256.559 146.21 261.231C153.563 263.529 160.565 264.648 168.496 264.791C176.066 264.928 181.463 264.316 188.717 262.497C205.226 258.357 219.457 249.457 230.358 236.453C245.407 218.501 251.879 194.283 247.884 170.872C245.021 154.088 237.388 139.044 225.593 126.934C212.392 113.379 195.403 105.027 176.656 102.873C174.068 102.576 168.417 102.416 164.778 102.538ZM0 144.409V146.032L1.66197 146.734C5.60695 148.402 9.77969 151.437 12.4878 154.607C16.2146 158.97 18.6567 164.276 19.5684 169.991C19.8656 171.855 19.8218 177.037 19.4918 179.041C19.0161 181.929 17.9104 185.302 16.5614 187.981C13.4575 194.145 7.67479 199.46 1.23077 202.073L0.0723982 202.542L0.0314208 204.149C-0.00622624 205.628 0.0117285 205.756 0.257158 205.756C0.403837 205.756 0.650281 205.66 0.804923 205.543C0.959421 205.426 1.22874 205.328 1.40322 205.326C1.5777 205.323 1.76072 205.256 1.80995 205.176C1.85919 205.097 1.99776 205.032 2.11779 205.032C2.31891 205.032 5.78881 203.37 6.43562 202.964C6.59055 202.867 7.1444 202.517 7.66639 202.188C12.7571 198.971 16.9111 194.318 19.5413 188.887C20.4699 186.969 20.8507 186.092 20.8507 185.872C20.8507 185.756 20.948 185.476 21.067 185.247C21.1859 185.019 21.2836 184.722 21.2842 184.588C21.2846 184.453 21.3502 184.303 21.4299 184.253C21.5095 184.204 21.5747 184.026 21.5747 183.857C21.5747 183.688 21.6339 183.35 21.7061 183.105C22.3111 181.059 22.3651 180.797 22.5885 178.824C22.6651 178.147 22.7912 177.3 22.8689 176.941C23.061 176.054 23.0571 172.868 22.8626 171.801C22.7756 171.323 22.6493 170.411 22.5823 169.774C22.4368 168.393 22.2661 167.401 22.0215 166.516C21.9223 166.158 21.7719 165.604 21.6872 165.285C21.4607 164.435 21.1514 163.444 21.0091 163.113C20.9406 162.954 20.7008 162.367 20.4762 161.81C19.7618 160.036 17.8718 156.488 17.2557 155.764C17.1367 155.624 16.9684 155.387 16.8817 155.237C16.2139 154.084 13.7701 151.364 11.6561 149.419C10.8024 148.634 7.80453 146.389 7.60963 146.389C7.5549 146.389 7.30266 146.231 7.04912 146.039C6.79558 145.846 5.83891 145.31 4.92308 144.848C3.18595 143.972 3.13195 143.949 1.19457 143.229L0 142.785V144.409ZM1.17937 161.596C0.991855 161.675 0.649701 161.874 0.419186 162.038L0 162.336V164.749V167.162L1.52022 165.647C3.11428 164.059 3.42719 163.53 3.27008 162.693C3.10212 161.798 2.03352 161.237 1.17937 161.596ZM129.544 174.371C129.491 177.099 129.406 182.402 129.353 186.156L129.258 192.982L131.054 193.068C132.042 193.115 135.473 193.193 138.679 193.242L144.507 193.33V191.434V189.538L143.457 189.519C142.88 189.508 140.583 189.459 138.353 189.41L134.299 189.321V186.353C134.299 184.72 134.354 180.241 134.42 176.398L134.542 169.412H132.091H129.639L129.544 174.371ZM153.701 169.716C149.971 170.553 147.3 173.262 146.222 177.303C145.831 178.769 145.67 183.503 145.956 185.122C146.346 187.324 147.328 189.407 148.654 190.839C151.691 194.119 157.13 194.808 161.098 192.417C162.412 191.625 163.792 190.058 164.55 188.495C165.617 186.296 165.847 185.079 165.856 181.575C165.863 178.946 165.826 178.457 165.534 177.303C164.996 175.179 164.201 173.748 162.756 172.301C161.357 170.901 160.338 170.313 158.493 169.846C157.263 169.535 154.805 169.468 153.701 169.716ZM177.52 169.995C173.416 170.476 170.538 173.118 169.402 177.448C169.051 178.785 168.846 182.424 169.001 184.56C169.349 189.367 172.143 192.921 176.362 193.925C180.242 194.848 185.147 193.837 187.553 191.62L188.044 191.167L188.14 188.954C188.192 187.737 188.235 185.622 188.235 184.253V181.765L185.52 181.67C184.027 181.618 181.951 181.575 180.907 181.575L179.01 181.575L178.908 183.187C178.851 184.074 178.86 184.854 178.926 184.921C178.993 184.987 179.99 185.06 181.143 185.082L183.24 185.122L183.28 187.175L183.32 189.228L182.846 189.588C182.061 190.182 180.864 190.448 179.274 190.381C176.537 190.266 175.112 189.104 174.239 186.274C174.015 185.548 173.974 184.921 173.978 182.299C173.984 178.84 174.129 177.917 174.911 176.368C175.773 174.661 176.934 173.899 178.846 173.786C181.432 173.632 182.951 174.81 183.52 177.412L183.607 177.81H185.469C186.493 177.81 187.534 177.851 187.783 177.9C188.219 177.988 188.235 177.973 188.235 177.496C188.235 176.103 187.21 173.67 186.163 172.577C184.716 171.066 182.975 170.292 180.377 170.002C178.861 169.833 178.898 169.833 177.52 169.995ZM200.084 170.442C197.014 170.838 194.377 172.768 192.952 175.661C191.947 177.703 191.696 178.863 191.605 181.884C191.519 184.73 191.67 186.191 192.216 187.797C193.701 192.162 197.031 194.596 201.528 194.604C203.403 194.607 204.789 194.302 206.19 193.579C208.756 192.255 210.469 189.937 211.296 186.673C211.579 185.556 211.615 185.047 211.609 182.226C211.602 179.175 211.585 178.986 211.205 177.745C210.249 174.623 208.65 172.599 206.184 171.389C204.193 170.411 202.435 170.139 200.084 170.442ZM154.309 173.675C152.466 174.332 151.336 176.083 150.873 178.996C150.759 179.711 150.721 181.007 150.765 182.616C150.827 184.85 150.877 185.248 151.226 186.281C151.918 188.328 153.07 189.487 154.763 189.838C156.94 190.29 158.93 189.335 159.932 187.358C160.72 185.803 160.912 184.667 160.924 181.502C160.933 179.132 160.888 178.438 160.675 177.679C160.107 175.654 159.292 174.536 157.909 173.881C157.18 173.536 156.849 173.467 155.946 173.473C155.348 173.476 154.612 173.567 154.309 173.675ZM200.648 174.333C198.838 174.657 197.538 176.122 196.856 178.606C196.479 179.978 196.388 184.194 196.699 185.846C197.132 188.152 198.195 189.736 199.779 190.437C200.675 190.833 202.78 190.76 203.663 190.301C204.441 189.897 205.412 188.824 205.835 187.899C206.527 186.385 206.684 185.343 206.689 182.226C206.694 179.099 206.555 178.231 205.817 176.775C204.873 174.911 202.823 173.942 200.648 174.333Z" fill="#3C1F1B"/>
</g>
<defs>
<clipPath id="clip0_1425_12070">
<rect width="320" height="320" fill="white"/>
</clipPath>
</defs>
</svg>
