<svg width="320" height="320" viewBox="0 0 320 320" fill="none" xmlns="http://www.w3.org/2000/svg">
<rect width="320" height="320" fill="#F2F2EA"/>
<path fill-rule="evenodd" clip-rule="evenodd" d="M251.531 63.0766L137.383 67.0215C120.802 67.5945 104.996 63.0755 86.2315 64.0211C73.9586 63.1387 68.6663 67.9956 74.0056 78.8067C80.7682 92.5303 85.8276 96.0165 82.1716 113.45L75.0416 204.261C73.6556 221.901 66.642 248.569 91.3791 251.662C136.752 257.733 182.65 258.851 228.265 254.998C257.741 252.666 259.733 246.995 257.468 220.59L249.944 132.883C249.029 114.089 251.949 97.3225 260.156 83.3435C266.211 73.0629 267.053 60.7641 251.531 63.0766Z" fill="#3C1F1B" stroke="#3C1F1B" stroke-width="0.5" stroke-miterlimit="2.6131"/>
<path d="M118.147 98.8266C130.409 99.5542 141.581 97.2563 154.042 99.8185" stroke="#DCCDB3" stroke-width="0.9601" stroke-linecap="round" stroke-linejoin="round"/>
<path d="M182.203 98.6287L209.669 98.8267" stroke="#DCCDB3" stroke-width="0.9601" stroke-linecap="round" stroke-linejoin="round"/>
<path d="M164.454 99.1243H172.784" stroke="#DCCDB3" stroke-width="0.9601" stroke-linecap="round" stroke-linejoin="round"/>
<path d="M223.946 94.5624L238.265 99.8969C242.979 101.652 261.868 102.779 254.288 91.6867" stroke="#DCCDB3" stroke-width="0.9601" stroke-linecap="round" stroke-linejoin="round"/>
<path d="M99.8557 98.0334C75.9918 88.547 70.9673 104.644 56.5234 107.95" stroke="#DCCDB3" stroke-width="0.9601" stroke-linecap="round" stroke-linejoin="round"/>
<path d="M83.2784 95.2827C84.6393 104.876 72.5644 110.553 72.9331 120.195" stroke="#DCCDB3" stroke-width="0.9601" stroke-linecap="round" stroke-linejoin="round"/>
<path d="M129.158 176.449V155.984H133.484V172.882H142.258V176.449H129.158ZM163.133 166.217C163.133 168.448 162.71 170.347 161.864 171.913C161.025 173.478 159.879 174.674 158.427 175.5C156.981 176.32 155.356 176.729 153.55 176.729C151.731 176.729 150.099 176.316 148.654 175.49C147.208 174.664 146.065 173.468 145.226 171.903C144.387 170.337 143.967 168.442 143.967 166.217C143.967 163.985 144.387 162.086 145.226 160.521C146.065 158.955 147.208 157.763 148.654 156.943C150.099 156.117 151.731 155.704 153.55 155.704C155.356 155.704 156.981 156.117 158.427 156.943C159.879 157.763 161.025 158.955 161.864 160.521C162.71 162.086 163.133 163.985 163.133 166.217ZM158.746 166.217C158.746 164.771 158.53 163.552 158.097 162.559C157.671 161.567 157.068 160.814 156.288 160.301C155.509 159.788 154.596 159.531 153.55 159.531C152.504 159.531 151.592 159.788 150.812 160.301C150.033 160.814 149.426 161.567 148.993 162.559C148.567 163.552 148.354 164.771 148.354 166.217C148.354 167.662 148.567 168.882 148.993 169.874C149.426 170.867 150.033 171.62 150.812 172.133C151.592 172.645 152.504 172.902 153.55 172.902C154.596 172.902 155.509 172.645 156.288 172.133C157.068 171.62 157.671 170.867 158.097 169.874C158.53 168.882 158.746 167.662 158.746 166.217ZM179.909 162.599C179.769 162.113 179.573 161.683 179.319 161.31C179.066 160.93 178.756 160.611 178.39 160.351C178.03 160.084 177.617 159.881 177.151 159.741C176.691 159.601 176.182 159.531 175.622 159.531C174.576 159.531 173.657 159.791 172.864 160.311C172.078 160.831 171.465 161.587 171.025 162.579C170.586 163.565 170.366 164.771 170.366 166.197C170.366 167.622 170.582 168.835 171.015 169.834C171.448 170.833 172.061 171.596 172.854 172.123C173.647 172.642 174.583 172.902 175.662 172.902C176.641 172.902 177.477 172.729 178.17 172.382C178.87 172.029 179.403 171.533 179.769 170.893C180.142 170.254 180.329 169.498 180.329 168.625L181.208 168.755H175.932V165.497H184.496V168.075C184.496 169.874 184.116 171.42 183.356 172.712C182.597 173.998 181.551 174.99 180.219 175.69C178.886 176.383 177.361 176.729 175.642 176.729C173.723 176.729 172.038 176.306 170.586 175.46C169.133 174.607 168.001 173.398 167.188 171.833C166.382 170.261 165.979 168.395 165.979 166.237C165.979 164.578 166.219 163.099 166.698 161.8C167.185 160.494 167.864 159.388 168.737 158.482C169.61 157.576 170.626 156.887 171.785 156.414C172.944 155.941 174.2 155.704 175.552 155.704C176.711 155.704 177.79 155.874 178.79 156.214C179.789 156.547 180.675 157.02 181.448 157.633C182.227 158.246 182.863 158.975 183.356 159.821C183.849 160.661 184.166 161.587 184.306 162.599H179.909ZM206.552 166.217C206.552 168.448 206.129 170.347 205.283 171.913C204.444 173.478 203.298 174.674 201.846 175.5C200.4 176.32 198.775 176.729 196.969 176.729C195.151 176.729 193.518 176.316 192.073 175.49C190.627 174.664 189.485 173.468 188.645 171.903C187.806 170.337 187.386 168.442 187.386 166.217C187.386 163.985 187.806 162.086 188.645 160.521C189.485 158.955 190.627 157.763 192.073 156.943C193.518 156.117 195.151 155.704 196.969 155.704C198.775 155.704 200.4 156.117 201.846 156.943C203.298 157.763 204.444 158.955 205.283 160.521C206.129 162.086 206.552 163.985 206.552 166.217ZM202.166 166.217C202.166 164.771 201.949 163.552 201.516 162.559C201.09 161.567 200.487 160.814 199.707 160.301C198.928 159.788 198.015 159.531 196.969 159.531C195.923 159.531 195.011 159.788 194.231 160.301C193.452 160.814 192.846 161.567 192.413 162.559C191.986 163.552 191.773 164.771 191.773 166.217C191.773 167.662 191.986 168.882 192.413 169.874C192.846 170.867 193.452 171.62 194.231 172.133C195.011 172.645 195.923 172.902 196.969 172.902C198.015 172.902 198.928 172.645 199.707 172.133C200.487 171.62 201.09 170.867 201.516 169.874C201.949 168.882 202.166 167.662 202.166 166.217Z" fill="#DCCDB3"/>
</svg>
