<svg width="320" height="320" viewBox="0 0 320 320" fill="none" xmlns="http://www.w3.org/2000/svg">
<rect width="320" height="320" fill="#F2F2EA"/>
<g clip-path="url(#clip0_1423_5043)">
<path fill-rule="evenodd" clip-rule="evenodd" d="M55 104H251.835C255.323 104.01 258.666 105.4 261.133 107.867C263.6 110.334 264.99 113.677 265 117.165V203.155C264.99 206.643 263.6 209.986 261.133 212.452C258.666 214.919 255.323 216.309 251.835 216.32H55V104Z" fill="#3C1F1B"/>
<path fill-rule="evenodd" clip-rule="evenodd" d="M92.249 188.628V190.801H94.4226V192.974H92.249V197.321H96.5956V195.148H107.462V197.321H103.115V199.494H105.289V201.668H109.635V203.841H111.808V199.494H118.328V197.321H113.982V195.148H111.808V190.801H113.982V186.455H111.808V182.108H109.635V179.935H111.808V177.761H109.635V175.589H98.7684V173.415H96.5956V169.069H94.4226V173.415H92.249V166.895H90.076V184.281H83.5557V186.455H90.076V188.628H96.5957V186.455H98.7685V188.628H100.942V184.281H107.462V186.455H109.635V184.281H107.462V182.108H103.115V177.761H96.5957V179.935H92.249V184.281H94.4226V186.455H92.249L92.249 188.628ZM105.289 179.935V177.761H107.462V179.935H105.289ZM98.7684 192.974V190.801H100.942V192.974H98.7684ZM105.289 190.801H109.635V192.974H105.289V190.801H103.115V188.628H105.289V190.801Z" fill="white"/>
<path fill-rule="evenodd" clip-rule="evenodd" d="M72.6895 173.415H87.9026V158.202H72.6895V173.415ZM74.8631 171.242V160.375H85.7295V171.242H74.8631Z" fill="white"/>
<path fill-rule="evenodd" clip-rule="evenodd" d="M103.115 173.415H118.328V158.202H103.115V173.415ZM105.289 171.242V160.375H116.155V171.242H105.289Z" fill="white"/>
<path fill-rule="evenodd" clip-rule="evenodd" d="M72.6895 203.841H87.9026V188.628H72.6895V203.841ZM74.8631 201.668V190.801H85.7295V201.668H74.8631Z" fill="white"/>
<path fill-rule="evenodd" clip-rule="evenodd" d="M92.2492 166.895H94.4228V164.722H96.5958V166.895H98.7686V169.069H100.943V164.722H98.7686V162.548H100.943V158.202H90.0762V162.548H92.2492L92.2492 166.895ZM94.4228 162.548V160.375H96.5958V162.548H94.4228Z" fill="white"/>
<path fill-rule="evenodd" clip-rule="evenodd" d="M83.5571 177.762H79.2104V184.282H74.8638V182.108H72.6904V186.455H81.3838V182.108H87.9038V179.935H83.5571V177.762Z" fill="white"/>
<path d="M113.982 162.549H107.462V169.069H113.982V162.549Z" fill="white"/>
<path d="M83.5559 192.974H77.0361V199.494H83.5559V192.974Z" fill="white"/>
<path d="M83.5559 162.549H77.0361V169.069H83.5559V162.549Z" fill="white"/>
<path fill-rule="evenodd" clip-rule="evenodd" d="M92.2505 197.322H90.0771V203.842H96.5972V201.668H94.4238V199.495H92.2505V197.322Z" fill="white"/>
<path fill-rule="evenodd" clip-rule="evenodd" d="M79.2104 177.762V175.588H72.6904V179.935H74.8638V177.762H79.2104Z" fill="white"/>
<path fill-rule="evenodd" clip-rule="evenodd" d="M113.98 177.762H116.154V182.108H118.327V175.588H113.98V177.762Z" fill="white"/>
<path d="M87.9023 175.589H83.5557V177.761H87.9023V175.589Z" fill="white"/>
<path d="M118.328 188.628H116.155V190.801H118.328V188.628Z" fill="white"/>
<path d="M92.2492 190.801H90.0762V192.974H92.2492V190.801Z" fill="white"/>
<path d="M100.942 171.242H98.7686V173.415H100.942V171.242Z" fill="white"/>
<path d="M113.982 179.935H111.809V182.108H113.982V179.935Z" fill="white"/>
<path d="M105.289 201.668H103.115V203.841H105.289V201.668Z" fill="white"/>
<path d="M118.328 201.668H116.155V203.841H118.328V201.668Z" fill="white"/>
<path d="M100.942 199.494H98.7686V201.668H100.942V199.494Z" fill="white"/>
<path d="M100.942 182.108H98.7686V184.281H100.942V182.108Z" fill="white"/>
<path d="M116.155 192.974H113.981V195.148H116.155V192.974Z" fill="white"/>
<path d="M116.155 184.281H113.981V186.455H116.155V184.281Z" fill="white"/>
<path d="M170.566 137.756C170.454 137.365 170.296 137.02 170.092 136.72C169.889 136.414 169.639 136.157 169.345 135.948C169.055 135.734 168.723 135.571 168.348 135.458C167.979 135.346 167.569 135.289 167.119 135.289C166.278 135.289 165.538 135.498 164.901 135.916C164.269 136.334 163.776 136.942 163.422 137.74C163.068 138.533 162.892 139.503 162.892 140.649C162.892 141.796 163.066 142.771 163.414 143.575C163.762 144.378 164.255 144.992 164.893 145.415C165.53 145.833 166.283 146.042 167.151 146.042C167.938 146.042 168.611 145.903 169.168 145.624C169.731 145.34 170.159 144.941 170.454 144.427C170.754 143.912 170.904 143.304 170.904 142.602L171.611 142.707H167.368V140.087H174.255V142.16C174.255 143.607 173.95 144.85 173.339 145.889C172.728 146.923 171.887 147.721 170.815 148.284C169.744 148.841 168.517 149.12 167.135 149.12C165.592 149.12 164.236 148.779 163.068 148.099C161.901 147.413 160.99 146.441 160.336 145.182C159.688 143.918 159.364 142.417 159.364 140.682C159.364 139.348 159.557 138.158 159.942 137.114C160.334 136.063 160.88 135.174 161.582 134.446C162.284 133.717 163.101 133.162 164.033 132.782C164.965 132.402 165.975 132.211 167.062 132.211C167.995 132.211 168.863 132.348 169.666 132.621C170.47 132.889 171.182 133.27 171.804 133.762C172.431 134.255 172.942 134.842 173.339 135.522C173.735 136.197 173.99 136.942 174.102 137.756H170.566ZM202.747 132.436H206.227V143.125C206.227 144.325 205.94 145.375 205.367 146.275C204.799 147.175 204.004 147.877 202.98 148.38C201.957 148.879 200.765 149.128 199.404 149.128C198.038 149.128 196.843 148.879 195.82 148.38C194.797 147.877 194.001 147.175 193.433 146.275C192.865 145.375 192.582 144.325 192.582 143.125V132.436H196.061V142.827C196.061 143.454 196.198 144.011 196.471 144.499C196.75 144.986 197.141 145.369 197.644 145.648C198.148 145.927 198.735 146.066 199.404 146.066C200.079 146.066 200.666 145.927 201.164 145.648C201.668 145.369 202.056 144.986 202.329 144.499C202.608 144.011 202.747 143.454 202.747 142.827V132.436Z" fill="white"/>
<path d="M180 198.459V189.317H185.946V190.705H181.656V193.187H185.638V194.575H181.656V197.07H185.982V198.459H180ZM197.063 198.584C196.42 198.584 195.849 198.473 195.349 198.253C194.852 198.033 194.459 197.726 194.171 197.334C193.882 196.941 193.729 196.487 193.711 195.972H195.389C195.404 196.219 195.486 196.435 195.635 196.619C195.783 196.801 195.981 196.942 196.228 197.044C196.475 197.145 196.752 197.195 197.059 197.195C197.386 197.195 197.676 197.139 197.929 197.026C198.182 196.91 198.38 196.749 198.523 196.544C198.666 196.338 198.736 196.102 198.733 195.834C198.736 195.557 198.664 195.313 198.518 195.102C198.372 194.891 198.161 194.725 197.884 194.606C197.611 194.487 197.28 194.428 196.893 194.428H196.086V193.151H196.893C197.212 193.151 197.49 193.096 197.728 192.986C197.969 192.876 198.158 192.721 198.295 192.522C198.432 192.319 198.499 192.086 198.496 191.821C198.499 191.562 198.441 191.337 198.322 191.147C198.206 190.953 198.041 190.803 197.826 190.696C197.615 190.589 197.367 190.535 197.081 190.535C196.801 190.535 196.542 190.586 196.304 190.687C196.066 190.788 195.874 190.933 195.728 191.12C195.583 191.305 195.505 191.525 195.496 191.781H193.903C193.915 191.269 194.062 190.82 194.345 190.433C194.63 190.043 195.011 189.739 195.487 189.522C195.964 189.302 196.498 189.192 197.09 189.192C197.7 189.192 198.23 189.306 198.679 189.535C199.131 189.762 199.481 190.067 199.728 190.451C199.975 190.834 200.098 191.258 200.098 191.723C200.101 192.238 199.95 192.669 199.643 193.017C199.34 193.365 198.941 193.593 198.447 193.7V193.772C199.09 193.861 199.582 194.099 199.924 194.486C200.27 194.87 200.441 195.347 200.438 195.919C200.438 196.431 200.292 196.889 200 197.294C199.712 197.695 199.313 198.011 198.804 198.24C198.298 198.469 197.718 198.584 197.063 198.584ZM211.554 198.584C211.116 198.581 210.689 198.505 210.273 198.356C209.856 198.204 209.481 197.959 209.148 197.619C208.814 197.277 208.55 196.823 208.353 196.258C208.157 195.69 208.06 194.986 208.063 194.147C208.063 193.364 208.146 192.666 208.313 192.053C208.48 191.44 208.719 190.922 209.032 190.5C209.344 190.074 209.721 189.75 210.161 189.527C210.604 189.303 211.1 189.192 211.647 189.192C212.222 189.192 212.731 189.305 213.174 189.531C213.62 189.757 213.98 190.067 214.254 190.459C214.528 190.849 214.698 191.29 214.763 191.781H213.134C213.051 191.43 212.879 191.15 212.62 190.942C212.365 190.73 212.04 190.625 211.647 190.625C211.014 190.625 210.525 190.9 210.183 191.45C209.844 192.001 209.673 192.757 209.67 193.718H209.732C209.878 193.456 210.067 193.231 210.299 193.044C210.531 192.857 210.793 192.712 211.085 192.611C211.38 192.507 211.691 192.455 212.018 192.455C212.554 192.455 213.034 192.583 213.46 192.839C213.888 193.095 214.227 193.447 214.477 193.897C214.727 194.343 214.851 194.855 214.848 195.432C214.851 196.033 214.714 196.573 214.437 197.052C214.16 197.529 213.775 197.904 213.281 198.177C212.787 198.451 212.211 198.587 211.554 198.584ZM211.545 197.244C211.869 197.244 212.159 197.166 212.415 197.008C212.671 196.85 212.873 196.637 213.022 196.37C213.171 196.102 213.244 195.801 213.241 195.468C213.244 195.14 213.173 194.844 213.027 194.58C212.884 194.315 212.686 194.105 212.433 193.95C212.18 193.795 211.891 193.718 211.567 193.718C211.326 193.718 211.101 193.764 210.893 193.856C210.685 193.949 210.503 194.077 210.348 194.24C210.194 194.401 210.072 194.588 209.982 194.803C209.896 195.014 209.851 195.24 209.848 195.481C209.851 195.8 209.926 196.093 210.072 196.361C210.217 196.628 210.418 196.843 210.674 197.003C210.93 197.164 211.22 197.244 211.545 197.244ZM225.771 198.584C225.176 198.584 224.643 198.472 224.173 198.249C223.703 198.023 223.329 197.713 223.052 197.32C222.779 196.927 222.633 196.478 222.615 195.972H224.222C224.252 196.347 224.414 196.654 224.708 196.892C225.003 197.127 225.357 197.244 225.771 197.244C226.095 197.244 226.384 197.17 226.637 197.021C226.89 196.872 227.089 196.666 227.235 196.401C227.381 196.136 227.452 195.834 227.449 195.495C227.452 195.149 227.379 194.843 227.23 194.575C227.082 194.307 226.878 194.097 226.619 193.946C226.36 193.791 226.062 193.714 225.726 193.714C225.452 193.711 225.183 193.761 224.918 193.865C224.653 193.969 224.444 194.106 224.289 194.276L222.793 194.03L223.271 189.317H228.574V190.701H224.641L224.378 193.124H224.432C224.601 192.925 224.841 192.76 225.15 192.629C225.46 192.495 225.799 192.428 226.168 192.428C226.722 192.428 227.216 192.559 227.65 192.821C228.085 193.08 228.427 193.437 228.677 193.892C228.927 194.347 229.052 194.868 229.052 195.454C229.052 196.059 228.912 196.597 228.632 197.07C228.355 197.541 227.97 197.911 227.476 198.182C226.985 198.45 226.417 198.584 225.771 198.584Z" fill="white"/>
</g>
<defs>
<clipPath id="clip0_1423_5043">
<rect width="210" height="112.32" fill="white" transform="translate(55 104)"/>
</clipPath>
</defs>
</svg>
