<svg width="320" height="320" viewBox="0 0 320 320" fill="none" xmlns="http://www.w3.org/2000/svg">
<g clip-path="url(#clip0_1423_7552)">
<rect width="320" height="320" fill="#DCFFE0"/>
<g clip-path="url(#clip1_1423_7552)">
<path d="M265 111H77.4541V187.289H265V111Z" fill="#3C1F1B"/>
<path d="M108.636 117.309H231.875C234.076 117.309 236.187 118.187 237.744 119.75C239.3 121.313 240.175 123.433 240.175 125.644V171.446C240.175 173.657 239.3 175.777 237.744 177.34C236.187 178.903 234.076 179.781 231.874 179.781H108.636C106.435 179.781 104.324 178.903 102.767 177.34C101.21 175.777 100.336 173.657 100.336 171.446V125.644C100.336 123.433 101.21 121.313 102.767 119.75C104.324 118.187 106.435 117.309 108.636 117.309Z" fill="#DCCDB3"/>
<path fill-rule="evenodd" clip-rule="evenodd" d="M85.4542 154.927C86.3637 154.926 87.2528 154.655 88.0089 154.148C88.765 153.64 89.3543 152.919 89.7022 152.075C90.0501 151.232 90.1411 150.303 89.9635 149.407C89.7859 148.512 89.3479 147.689 88.7047 147.043C88.0615 146.398 87.2421 145.958 86.35 145.78C85.458 145.602 84.5334 145.693 83.6931 146.043C82.8529 146.392 82.1347 146.984 81.6294 147.744C81.1242 148.503 80.8545 149.396 80.8545 150.309C80.8569 151.533 81.3423 152.706 82.2044 153.572C83.0666 154.437 84.2351 154.924 85.4542 154.927Z" fill="#DCCDB3"/>
<path d="M112.095 131.428H111.475L113.269 126.54H113.88L115.675 131.428H115.054L113.594 127.314H113.555L112.095 131.428ZM112.324 129.519H114.825V130.044H112.324V129.519ZM117.838 126.54V131.428H117.247V127.161H117.218L116.025 127.953V127.352L117.247 126.54H117.838ZM120.962 126.54V131.428H120.37V127.161H120.342L119.149 127.953V127.352L120.37 126.54H120.962ZM125.976 126.54V131.428H125.384V127.161H125.355L124.162 127.953V127.352L125.384 126.54H125.976ZM129.1 126.54V131.428H128.508V127.161H128.479L127.286 127.953V127.352L128.508 126.54H129.1ZM130.792 131.428H130.171L131.966 126.54H132.577L134.371 131.428H133.751L132.29 127.314H132.252L130.792 131.428ZM131.021 129.519H133.522V130.044H131.021V129.519ZM135.333 131.428H134.712L136.507 126.54H137.118L138.912 131.428H138.292L136.831 127.314H136.793L135.333 131.428ZM135.562 129.519H138.063V130.044H135.562V129.519ZM139.874 131.428H139.254L141.048 126.54H141.659L143.454 131.428H142.833L141.373 127.314H141.335L139.874 131.428ZM140.103 129.519H142.604V130.044H140.103V129.519ZM145.617 126.54V131.428H145.026V127.161H144.997L143.804 127.953V127.352L145.026 126.54H145.617Z" fill="#3C1F1B"/>
<path d="M215.707 126.39L216.967 128.423H217.005L218.265 126.39H218.962L217.425 128.833L218.962 131.277H218.265L217.005 129.282H216.967L215.707 131.277H215.01L216.585 128.833L215.01 126.39H215.707ZM220.019 126.39L221.279 128.423H221.317L222.577 126.39H223.274L221.737 128.833L223.274 131.277H222.577L221.317 129.282H221.279L220.019 131.277H219.322L220.897 128.833L219.322 126.39H220.019ZM224.33 126.39L225.59 128.423H225.629L226.889 126.39H227.585L226.049 128.833L227.585 131.277H226.889L225.629 129.282H225.59L224.33 131.277H223.634L225.209 128.833L223.634 126.39H224.33ZM228.642 126.39L229.902 128.423H229.94L231.2 126.39H231.897L230.36 128.833L231.897 131.277H231.2L229.94 129.282H229.902L228.642 131.277H227.945L229.52 128.833L227.945 126.39H228.642Z" fill="#3C1F1B"/>
<path d="M113.484 138.573L113.92 138.683C113.829 139.042 113.664 139.316 113.425 139.505C113.188 139.692 112.898 139.786 112.554 139.786C112.198 139.786 111.909 139.714 111.685 139.57C111.463 139.424 111.293 139.214 111.176 138.94C111.061 138.665 111.003 138.37 111.003 138.055C111.003 137.711 111.068 137.412 111.199 137.157C111.331 136.9 111.518 136.706 111.759 136.574C112.002 136.44 112.27 136.374 112.561 136.374C112.891 136.374 113.168 136.458 113.394 136.626C113.619 136.794 113.775 137.03 113.864 137.335L113.434 137.436C113.358 137.196 113.247 137.021 113.101 136.912C112.955 136.802 112.772 136.747 112.552 136.747C112.298 136.747 112.086 136.808 111.915 136.93C111.745 137.051 111.626 137.215 111.557 137.42C111.488 137.624 111.453 137.835 111.453 138.053C111.453 138.333 111.494 138.579 111.575 138.789C111.657 138.997 111.785 139.154 111.957 139.257C112.13 139.361 112.317 139.412 112.518 139.412C112.763 139.412 112.97 139.342 113.139 139.201C113.309 139.06 113.424 138.85 113.484 138.573ZM114.328 138.123C114.328 137.575 114.475 137.146 114.769 136.837C115.063 136.527 115.443 136.371 115.908 136.371C116.213 136.371 116.487 136.444 116.732 136.59C116.976 136.735 117.162 136.939 117.29 137.2C117.419 137.459 117.484 137.754 117.484 138.084C117.484 138.419 117.416 138.718 117.281 138.982C117.146 139.247 116.955 139.447 116.707 139.583C116.459 139.719 116.192 139.786 115.906 139.786C115.595 139.786 115.317 139.711 115.073 139.561C114.828 139.411 114.643 139.206 114.517 138.946C114.391 138.687 114.328 138.412 114.328 138.123ZM114.778 138.129C114.778 138.527 114.884 138.841 115.098 139.07C115.312 139.298 115.581 139.412 115.903 139.412C116.232 139.412 116.502 139.297 116.714 139.066C116.927 138.835 117.033 138.507 117.033 138.082C117.033 137.813 116.988 137.579 116.896 137.38C116.806 137.179 116.673 137.023 116.498 136.914C116.324 136.803 116.128 136.747 115.91 136.747C115.601 136.747 115.335 136.854 115.111 137.067C114.889 137.278 114.778 137.633 114.778 138.129ZM118.031 139.73V136.43H118.467V139.34H120.092V139.73H118.031ZM120.482 138.123C120.482 137.575 120.629 137.146 120.923 136.837C121.217 136.527 121.597 136.371 122.062 136.371C122.367 136.371 122.641 136.444 122.886 136.59C123.131 136.735 123.317 136.939 123.444 137.2C123.573 137.459 123.638 137.754 123.638 138.084C123.638 138.419 123.57 138.718 123.435 138.982C123.3 139.247 123.109 139.447 122.861 139.583C122.614 139.719 122.346 139.786 122.06 139.786C121.749 139.786 121.472 139.711 121.227 139.561C120.982 139.411 120.797 139.206 120.671 138.946C120.545 138.687 120.482 138.412 120.482 138.123ZM120.932 138.129C120.932 138.527 121.039 138.841 121.252 139.07C121.466 139.298 121.735 139.412 122.058 139.412C122.386 139.412 122.656 139.297 122.868 139.066C123.081 138.835 123.188 138.507 123.188 138.082C123.188 137.813 123.142 137.579 123.05 137.38C122.96 137.179 122.827 137.023 122.652 136.914C122.478 136.803 122.282 136.747 122.064 136.747C121.755 136.747 121.489 136.854 121.265 137.067C121.043 137.278 120.932 137.633 120.932 138.129ZM124.21 139.73V136.43H125.673C125.967 136.43 126.19 136.46 126.343 136.52C126.497 136.578 126.619 136.683 126.71 136.833C126.802 136.983 126.848 137.149 126.848 137.33C126.848 137.564 126.772 137.762 126.62 137.922C126.469 138.083 126.235 138.185 125.918 138.228C126.034 138.284 126.121 138.339 126.181 138.393C126.309 138.51 126.43 138.656 126.544 138.832L127.118 139.73H126.569L126.132 139.043C126.004 138.845 125.899 138.694 125.817 138.589C125.734 138.484 125.66 138.41 125.594 138.368C125.529 138.326 125.463 138.297 125.396 138.28C125.346 138.27 125.265 138.264 125.153 138.264H124.646V139.73H124.21ZM124.646 137.886H125.585C125.784 137.886 125.941 137.866 126.053 137.825C126.166 137.783 126.251 137.717 126.31 137.627C126.368 137.536 126.397 137.437 126.397 137.33C126.397 137.174 126.34 137.046 126.226 136.945C126.114 136.845 125.935 136.795 125.691 136.795H124.646V137.886Z" fill="#3C1F1B"/>
<path d="M158.206 178.396H157.691L159.181 174.338H159.688L161.178 178.396H160.663L159.45 174.98H159.418L158.206 178.396ZM158.396 176.811H160.473V177.247H158.396V176.811ZM161.977 178.396H161.461L162.951 174.338H163.459L164.949 178.396H164.434L163.221 174.98H163.189L161.977 178.396ZM162.167 176.811H164.243V177.247H162.167V176.811ZM166.746 174.338V178.396H166.254V174.853H166.23L165.24 175.511V175.011L166.254 174.338H166.746ZM169.339 174.338V178.396H168.848V174.853H168.824L167.833 175.511V175.011L168.848 174.338H169.339ZM173.503 174.338V178.396H173.011V174.853H172.987L171.997 175.511V175.011L173.011 174.338H173.503ZM176.096 174.338V178.396H175.605V174.853H175.581L174.591 175.511V175.011L175.605 174.338H176.096ZM177.501 178.396H176.986L178.476 174.338H178.984L180.474 178.396H179.959L178.746 174.98H178.714L177.501 178.396ZM177.692 176.811H179.768V177.247H177.692V176.811ZM181.272 178.396H180.757L182.247 174.338H182.754L184.245 178.396H183.729L182.517 174.98H182.485L181.272 178.396ZM181.462 176.811H183.539V177.247H181.462V176.811ZM185.043 178.396H184.528L186.018 174.338H186.525L188.015 178.396H187.5L186.288 174.98H186.256L185.043 178.396ZM185.233 176.811H187.31V177.247H185.233V176.811ZM189.812 174.338V178.396H189.321V174.853H189.297L188.306 175.511V175.011L189.321 174.338H189.812Z" fill="#3C1F1B"/>
<path d="M168.035 148.284H163.604V167.597H168.035V148.284Z" fill="#3C1F1B"/>
<path d="M123.692 148.284H119.885V167.597H123.692V148.284Z" fill="#3C1F1B" stroke="#DCCDB3" stroke-width="0.216" stroke-miterlimit="2.6131"/>
<path d="M143.069 148.284H139.266V167.597H143.069V148.284Z" fill="#3C1F1B"/>
<path d="M111.688 148.284H107.897V167.597H111.688V148.284Z" fill="#3C1F1B"/>
<path d="M150.054 148.284H146.658V167.597H150.054V148.284Z" fill="#3C1F1B"/>
<path d="M135.669 148.284H132.865V167.597H135.669V148.284Z" fill="#3C1F1B"/>
<path d="M160.043 148.284H158.038V167.597H160.043V148.284Z" fill="#3C1F1B"/>
<path d="M129.275 148.284H127.277V167.597H129.275V148.284Z" fill="#3C1F1B"/>
<path d="M116.289 148.284H115.29V167.597H116.289V148.284Z" fill="#3C1F1B"/>
<path d="M154.449 148.284H153.643V167.597H154.449V148.284Z" fill="#3C1F1B"/>
<path d="M132.865 148.284H132.605V167.597H132.865V148.284Z" fill="#3C1F1B"/>
<path d="M107.898 148.284H107.698V167.597H107.898V148.284Z" fill="#3C1F1B"/>
<path d="M150.252 148.284H150.054V167.597H150.252V148.284Z" fill="#3C1F1B"/>
<path d="M127.278 148.284H127.087V167.597H127.278V148.284Z" fill="#3C1F1B"/>
<path d="M232.058 148.284H227.627V167.597H232.058V148.284Z" fill="#3C1F1B"/>
<path d="M187.714 148.284H183.907V167.597H187.714V148.284Z" fill="#3C1F1B"/>
<path d="M207.091 148.284H203.287V167.597H207.091V148.284Z" fill="#3C1F1B"/>
<path d="M175.711 148.284H171.92V167.597H175.711V148.284Z" fill="#3C1F1B"/>
<path d="M214.076 148.284H210.68V167.597H214.076V148.284Z" fill="#3C1F1B"/>
<path d="M199.691 148.284H196.887V167.597H199.691V148.284Z" fill="#3C1F1B"/>
<path d="M224.065 148.284H222.06V167.597H224.065V148.284Z" fill="#3C1F1B"/>
<path d="M193.298 148.284H191.3V167.597H193.298V148.284Z" fill="#3C1F1B"/>
<path d="M180.311 148.284H179.312V167.597H180.311V148.284Z" fill="#3C1F1B"/>
<path d="M218.472 148.284H217.665V167.597H218.472V148.284Z" fill="#3C1F1B"/>
<path d="M196.887 148.284H196.628V167.597H196.887V148.284Z" fill="#3C1F1B"/>
<path d="M171.919 148.284H171.72V167.597H171.919V148.284Z" fill="#3C1F1B"/>
<path d="M214.275 148.284H214.076V167.597H214.275V148.284Z" fill="#3C1F1B"/>
<path d="M191.3 148.284H191.109V167.597H191.3V148.284Z" fill="#3C1F1B"/>
<path fill-rule="evenodd" clip-rule="evenodd" d="M77.4544 183.471C76.5537 186.557 76.4735 186.241 74.9578 189.945C73.6854 192.843 73.0224 195.974 73.0101 199.141C73.0773 201.424 73.1468 204.132 72.3033 205.914C71.0927 208.476 68.8731 209.336 64.6837 206.14C59.0373 201.835 56.1666 196.79 55.2918 191.14C54.4355 185.613 55.5221 179.591 57.7872 173.163C61.1231 163.696 65.4775 157.193 70.7961 153.51C73.5519 151.534 76.7198 150.213 80.0595 149.649C83.3992 149.085 86.8229 149.292 90.071 150.255L89.1006 153.727C86.3591 152.918 83.4704 152.745 80.6526 153.221C77.8348 153.697 75.1615 154.809 72.8344 156.474C68.152 159.717 64.2494 165.634 61.1741 174.362C59.0917 180.271 58.0798 185.728 58.8333 190.59C59.5669 195.328 62.0148 199.59 66.848 203.275C68.3674 204.435 68.9381 204.619 69.0565 204.369C69.5417 203.343 69.4815 201.119 69.4263 199.239C69.4225 195.57 70.1764 191.939 71.6404 188.577C73.2954 184.531 74.9798 180.839 77.4544 177.814L77.4544 183.471Z" fill="#3C1F1B"/>
<path fill-rule="evenodd" clip-rule="evenodd" d="M85.4549 144.981C84.4742 144.981 83.5155 145.273 82.7001 145.82C81.8846 146.367 81.2491 147.144 80.8737 148.054C80.4983 148.964 80.4 149.965 80.5913 150.93C80.7825 151.896 81.2547 152.783 81.9481 153.48C82.6415 154.176 83.5249 154.65 84.4867 154.842C85.4485 155.035 86.4455 154.936 87.3516 154.559C88.2576 154.183 89.032 153.544 89.5769 152.726C90.1218 151.907 90.4126 150.944 90.4127 149.96C90.4101 148.64 89.887 147.375 88.9578 146.442C88.0286 145.509 86.7691 144.984 85.4549 144.981Z" stroke="#3C1F1B" stroke-width="0.5" stroke-miterlimit="2.6131"/>
</g>
<g style="mix-blend-mode:hue">
<rect width="320" height="320" fill="#00BF13"/>
</g>
</g>
<defs>
<clipPath id="clip0_1423_7552">
<rect width="320" height="320" fill="white"/>
</clipPath>
<clipPath id="clip1_1423_7552">
<rect width="210" height="97.2052" fill="white" transform="translate(55 111)"/>
</clipPath>
</defs>
</svg>
