<svg width="320" height="320" viewBox="0 0 320 320" fill="none" xmlns="http://www.w3.org/2000/svg">
<g clip-path="url(#clip0_1428_1003)">
<rect width="320" height="320" fill="#DCFFE0"/>
<path d="M260.836 62.1637H59.1636V257.667H260.836V62.1637Z" fill="#DCCDB3" stroke="#3C1F1B" stroke-width="6.4" stroke-miterlimit="2.6131"/>
<path d="M112.777 98.6383V78.7619H120.735C122.197 78.7619 123.417 78.9787 124.394 79.4122C125.371 79.8457 126.105 80.4474 126.597 81.2174C127.089 81.9809 127.335 82.8608 127.335 83.8572C127.335 84.6336 127.179 85.3162 126.869 85.905C126.558 86.4873 126.131 86.9661 125.588 87.3414C125.051 87.7102 124.436 87.9722 123.744 88.1275V88.3216C124.501 88.354 125.209 88.5675 125.869 88.9622C126.535 89.3568 127.076 89.91 127.49 90.6218C127.904 91.327 128.111 92.1681 128.111 93.1451C128.111 94.1998 127.849 95.1412 127.325 95.9694C126.807 96.7911 126.041 97.4413 125.025 97.9201C124.009 98.3989 122.757 98.6383 121.269 98.6383H112.777ZM116.979 95.2026H120.405C121.576 95.2026 122.43 94.9794 122.967 94.533C123.504 94.0801 123.773 93.4783 123.773 92.7278C123.773 92.1778 123.64 91.6926 123.375 91.272C123.11 90.8515 122.731 90.5215 122.239 90.2821C121.754 90.0427 121.175 89.923 120.502 89.923H116.979V95.2026ZM116.979 87.0793H120.094C120.67 87.0793 121.181 86.9791 121.628 86.7785C122.081 86.5714 122.437 86.2803 122.695 85.905C122.961 85.5297 123.093 85.0801 123.093 84.556C123.093 83.8378 122.838 83.2587 122.327 82.8187C121.822 82.3788 121.104 82.1588 120.172 82.1588H116.979V87.0793ZM130.845 98.6383V78.7619H138.687C140.188 78.7619 141.469 79.0305 142.531 79.5675C143.598 80.098 144.41 80.8518 144.967 81.8288C145.529 82.7993 145.811 83.9413 145.811 85.2548C145.811 86.5747 145.526 87.7102 144.957 88.6613C144.387 89.6059 143.563 90.3306 142.482 90.8353C141.408 91.34 140.107 91.5923 138.581 91.5923H133.33V88.2149H137.901C138.703 88.2149 139.37 88.1049 139.9 87.8849C140.431 87.6649 140.826 87.3349 141.084 86.8949C141.35 86.455 141.482 85.9082 141.482 85.2548C141.482 84.5948 141.35 84.0384 141.084 83.5855C140.826 83.1325 140.428 82.7896 139.891 82.5567C139.36 82.3173 138.691 82.1976 137.882 82.1976H135.048V98.6383H130.845ZM141.579 89.593L146.519 98.6383H141.88L137.047 89.593H141.579ZM152.207 98.6383H147.703L154.565 78.7619H159.981L166.833 98.6383H162.329L157.35 83.304H157.195L152.207 98.6383ZM151.925 90.8256H162.562V94.106H151.925V90.8256ZM185.85 78.7619V98.6383H182.22L173.573 86.1282H173.427V98.6383H169.225V78.7619H172.913L181.492 91.2623H181.667V78.7619H185.85ZM196.368 98.6383H189.322V78.7619H196.426C198.426 78.7619 200.147 79.1599 201.589 79.9557C203.032 80.745 204.142 81.8806 204.918 83.3622C205.701 84.8439 206.093 86.6167 206.093 88.6807C206.093 90.7512 205.701 92.5305 204.918 94.0186C204.142 95.5067 203.026 96.6487 201.57 97.4446C200.121 98.2404 198.387 98.6383 196.368 98.6383ZM193.524 95.0377H196.193C197.436 95.0377 198.481 94.8177 199.328 94.3777C200.182 93.9313 200.823 93.2422 201.25 92.3105C201.683 91.3723 201.9 90.1624 201.9 88.6807C201.9 87.212 201.683 86.0118 201.25 85.0801C200.823 84.1484 200.185 83.4625 199.338 83.0225C198.49 82.5826 197.445 82.3626 196.203 82.3626H193.524V95.0377Z" fill="#3C1F1B"/>
<path d="M143.09 209.386C143.012 208.604 142.679 207.995 142.09 207.562C141.502 207.128 140.702 206.912 139.693 206.912C139.007 206.912 138.428 207.009 137.956 207.203C137.484 207.39 137.121 207.652 136.869 207.989C136.623 208.325 136.5 208.707 136.5 209.134C136.487 209.49 136.562 209.801 136.723 210.066C136.892 210.331 137.121 210.561 137.412 210.755C137.704 210.942 138.04 211.107 138.422 211.25C138.803 211.386 139.211 211.502 139.645 211.599L141.43 212.026C142.297 212.22 143.093 212.479 143.818 212.803C144.543 213.126 145.17 213.524 145.701 213.996C146.231 214.469 146.642 215.025 146.933 215.666C147.231 216.306 147.383 217.041 147.389 217.869C147.383 219.085 147.072 220.14 146.458 221.033C145.85 221.919 144.97 222.608 143.818 223.1C142.673 223.585 141.291 223.828 139.674 223.828C138.069 223.828 136.672 223.582 135.481 223.09C134.297 222.599 133.372 221.871 132.705 220.907C132.045 219.936 131.699 218.736 131.667 217.306H135.733C135.779 217.972 135.97 218.529 136.306 218.975C136.649 219.415 137.105 219.748 137.674 219.975C138.25 220.195 138.901 220.305 139.625 220.305C140.337 220.305 140.955 220.201 141.479 219.994C142.009 219.787 142.42 219.499 142.711 219.13C143.003 218.762 143.148 218.338 143.148 217.859C143.148 217.413 143.016 217.037 142.75 216.733C142.491 216.429 142.11 216.17 141.605 215.957C141.107 215.743 140.495 215.549 139.771 215.375L137.607 214.831C135.931 214.423 134.608 213.786 133.637 212.919C132.667 212.052 132.185 210.884 132.191 209.416C132.185 208.212 132.505 207.161 133.152 206.261C133.805 205.362 134.701 204.66 135.84 204.155C136.979 203.651 138.273 203.398 139.722 203.398C141.197 203.398 142.485 203.651 143.585 204.155C144.691 204.66 145.552 205.362 146.167 206.261C146.781 207.161 147.098 208.202 147.118 209.386H143.09ZM154.418 203.67V223.546H150.216V203.67H154.418ZM157.662 223.546V221.052L167.581 207.135H157.643V203.67H172.861V206.164L162.932 220.082H172.88V223.546H157.662ZM176.105 223.546V203.67H189.498V207.135H180.307V211.871H188.809V215.336H180.307V220.082H189.537V223.546H176.105Z" fill="#3C1F1B"/>
<path d="M95.6446 153.542H98.2785V161.632C98.2785 162.541 98.0616 163.336 97.6276 164.017C97.1978 164.698 96.5955 165.229 95.821 165.611C95.0464 165.988 94.1441 166.176 93.114 166.176C92.0799 166.176 91.1755 165.988 90.4009 165.611C89.6263 165.229 89.0241 164.698 88.5942 164.017C88.1644 163.336 87.9494 162.541 87.9494 161.632V153.542H90.5834V161.407C90.5834 161.882 90.6868 162.304 90.8937 162.673C91.1045 163.042 91.4006 163.332 91.7818 163.542C92.163 163.753 92.6071 163.859 93.114 163.859C93.625 163.859 94.069 163.753 94.4462 163.542C94.8274 163.332 95.1214 163.042 95.3282 162.673C95.5391 162.304 95.6446 161.882 95.6446 161.407V153.542ZM100.446 166V153.542H103.08V159.035H103.244L107.727 153.542H110.884L106.261 159.12L110.939 166H107.788L104.375 160.878L103.08 162.46V166H100.446ZM123.916 153.542H126.55V161.632C126.55 162.541 126.333 163.336 125.899 164.017C125.469 164.698 124.867 165.229 124.092 165.611C123.318 165.988 122.415 166.176 121.385 166.176C120.351 166.176 119.447 165.988 118.672 165.611C117.898 165.229 117.295 164.698 116.865 164.017C116.436 163.336 116.221 162.541 116.221 161.632V153.542H118.855V161.407C118.855 161.882 118.958 162.304 119.165 162.673C119.376 163.042 119.672 163.332 120.053 163.542C120.434 163.753 120.878 163.859 121.385 163.859C121.896 163.859 122.34 163.753 122.717 163.542C123.099 163.332 123.393 163.042 123.599 162.673C123.81 162.304 123.916 161.882 123.916 161.407V153.542ZM135.475 157.125C135.426 156.634 135.218 156.253 134.849 155.981C134.48 155.709 133.979 155.574 133.346 155.574C132.916 155.574 132.553 155.634 132.257 155.756C131.961 155.874 131.734 156.038 131.576 156.249C131.422 156.46 131.345 156.699 131.345 156.967C131.337 157.19 131.383 157.384 131.485 157.551C131.59 157.717 131.734 157.861 131.917 157.982C132.099 158.1 132.31 158.203 132.549 158.293C132.788 158.378 133.044 158.451 133.316 158.512L134.435 158.779C134.978 158.901 135.477 159.063 135.931 159.266C136.386 159.469 136.779 159.718 137.112 160.014C137.444 160.31 137.702 160.659 137.884 161.061C138.071 161.462 138.166 161.922 138.17 162.441C138.166 163.204 137.971 163.865 137.586 164.424C137.205 164.98 136.653 165.412 135.931 165.72C135.214 166.024 134.348 166.176 133.334 166.176C132.328 166.176 131.452 166.022 130.706 165.714C129.964 165.406 129.384 164.95 128.966 164.345C128.553 163.737 128.336 162.985 128.315 162.089H130.864C130.893 162.506 131.012 162.855 131.223 163.135C131.438 163.411 131.724 163.619 132.081 163.761C132.442 163.899 132.849 163.968 133.303 163.968C133.75 163.968 134.137 163.903 134.465 163.774C134.798 163.644 135.055 163.463 135.238 163.232C135.42 163.001 135.512 162.735 135.512 162.435C135.512 162.155 135.429 161.92 135.262 161.73C135.1 161.539 134.861 161.377 134.544 161.243C134.232 161.109 133.849 160.988 133.395 160.878L132.038 160.537C130.988 160.282 130.159 159.882 129.55 159.339C128.942 158.796 128.64 158.064 128.644 157.143C128.64 156.389 128.841 155.73 129.246 155.166C129.656 154.602 130.217 154.162 130.931 153.846C131.645 153.53 132.456 153.371 133.364 153.371C134.289 153.371 135.096 153.53 135.785 153.846C136.479 154.162 137.018 154.602 137.403 155.166C137.789 155.73 137.987 156.383 138 157.125H135.475ZM143.906 166V153.542H152.155V155.713H146.54V158.682H151.608V160.854H146.54V166H143.906ZM153.927 166V153.542H158.842C159.783 153.542 160.586 153.71 161.251 154.047C161.92 154.379 162.429 154.852 162.778 155.464C163.13 156.072 163.307 156.788 163.307 157.611C163.307 158.439 163.128 159.15 162.772 159.747C162.415 160.339 161.898 160.793 161.22 161.109C160.547 161.426 159.732 161.584 158.775 161.584H155.484V159.467H158.349C158.852 159.467 159.27 159.398 159.602 159.26C159.935 159.122 160.182 158.915 160.344 158.639C160.511 158.364 160.594 158.021 160.594 157.611C160.594 157.198 160.511 156.849 160.344 156.565C160.182 156.281 159.933 156.066 159.596 155.92C159.264 155.77 158.844 155.695 158.337 155.695H156.561V166H153.927ZM160.655 160.331L163.751 166H160.843L157.814 160.331H160.655ZM174.121 153.542H176.725V162.228C176.725 163.031 176.544 163.729 176.183 164.321C175.826 164.913 175.33 165.369 174.693 165.69C174.056 166.01 173.316 166.17 172.473 166.17C171.722 166.17 171.041 166.039 170.429 165.775C169.82 165.507 169.338 165.102 168.981 164.558C168.624 164.011 168.448 163.323 168.452 162.496H171.073C171.082 162.825 171.148 163.106 171.274 163.342C171.404 163.573 171.58 163.751 171.803 163.877C172.03 163.999 172.298 164.059 172.606 164.059C172.931 164.059 173.205 163.991 173.428 163.853C173.655 163.711 173.827 163.504 173.945 163.232C174.062 162.96 174.121 162.626 174.121 162.228V153.542ZM178.902 166V153.542H183.818C184.762 153.542 185.567 153.722 186.233 154.083C186.898 154.44 187.405 154.937 187.753 155.574C188.106 156.206 188.283 156.936 188.283 157.763C188.283 158.591 188.104 159.321 187.747 159.953C187.39 160.586 186.873 161.079 186.196 161.432C185.523 161.784 184.708 161.961 183.751 161.961H180.618V159.85H183.325C183.832 159.85 184.249 159.763 184.578 159.588C184.91 159.41 185.158 159.165 185.32 158.852C185.486 158.536 185.569 158.173 185.569 157.763C185.569 157.35 185.486 156.989 185.32 156.681C185.158 156.368 184.91 156.127 184.578 155.957C184.245 155.782 183.824 155.695 183.313 155.695H181.536V166H178.902ZM204.95 157.903H202.286C202.237 157.559 202.138 157.253 201.988 156.985C201.838 156.713 201.645 156.482 201.41 156.291C201.175 156.101 200.903 155.955 200.595 155.853C200.291 155.752 199.96 155.701 199.603 155.701C198.958 155.701 198.397 155.862 197.918 156.182C197.44 156.498 197.069 156.961 196.805 157.569C196.541 158.173 196.41 158.907 196.41 159.771C196.41 160.659 196.541 161.405 196.805 162.009C197.073 162.614 197.446 163.07 197.924 163.378C198.403 163.686 198.956 163.841 199.585 163.841C199.938 163.841 200.264 163.794 200.564 163.701C200.868 163.607 201.138 163.471 201.373 163.293C201.609 163.111 201.803 162.89 201.957 162.63C202.115 162.37 202.225 162.074 202.286 161.742L204.95 161.754C204.881 162.326 204.709 162.877 204.433 163.409C204.161 163.936 203.794 164.408 203.332 164.826C202.874 165.24 202.326 165.568 201.69 165.811C201.057 166.051 200.341 166.17 199.542 166.17C198.431 166.17 197.438 165.919 196.562 165.416C195.69 164.913 195 164.185 194.493 163.232C193.99 162.279 193.739 161.125 193.739 159.771C193.739 158.412 193.995 157.257 194.506 156.304C195.016 155.351 195.71 154.625 196.586 154.126C197.462 153.623 198.447 153.371 199.542 153.371C200.264 153.371 200.933 153.473 201.55 153.676C202.17 153.878 202.72 154.174 203.198 154.564C203.677 154.949 204.066 155.421 204.366 155.981C204.67 156.541 204.865 157.182 204.95 157.903ZM206.839 166V153.542H209.473V158.682H214.82V153.542H217.448V166H214.82V160.854H209.473V166H206.839ZM230.04 153.542V166H227.765L222.345 158.159H222.254V166H219.62V153.542H221.931L227.309 161.377H227.418V153.542H230.04Z" fill="#3C1F1B"/>
<g style="mix-blend-mode:hue">
<rect width="320" height="320" fill="#00BF13"/>
</g>
</g>
<defs>
<clipPath id="clip0_1428_1003">
<rect width="320" height="320" fill="white"/>
</clipPath>
</defs>
</svg>
