<svg width="24" height="24" viewBox="0 0 24 24" fill="none" xmlns="http://www.w3.org/2000/svg">
<path d="M20 18.0001V20.7079C20 21.1842 19.334 21.6216 18.2222 21.9651C17.83 22.0862 17.3824 22.1957 16.8889 22.2911C16.4748 22.3711 16.0285 22.4412 15.5556 22.5C14.4845 22.6331 13.2772 22.7079 12 22.7079C10.7228 22.7079 9.51552 22.6331 8.44444 22.5C7.94848 22.4384 7.48171 22.3643 7.05075 22.2793C6.58107 22.1867 6.15391 22.0813 5.77778 21.9651C4.66596 21.6216 4 21.1842 4 20.7079V18.0001M20 18.0001C20 18.4763 19.334 18.9137 18.2222 19.2572C17.83 19.3784 17.3824 19.4879 16.8889 19.5833C16.4748 19.6633 16.0285 19.7334 15.5556 19.7922C14.4845 19.9252 13.2772 20.0001 12 20.0001C10.7228 20.0001 9.51552 19.9252 8.44444 19.7922C7.97154 19.7334 7.5252 19.6633 7.11111 19.5833C6.61763 19.4879 6.16996 19.3784 5.77778 19.2572C4.66596 18.9137 4 18.4763 4 18.0001M20 18.0001C20 17.1277 17.7661 16.3858 14.6504 16.1124M4 18.0001C4 17.1277 6.23392 16.3858 9.34959 16.1124" stroke="#020202" stroke-width="1.6" stroke-linecap="round" stroke-linejoin="round"/>
<path d="M13.3333 17C14.8061 17 16 13.4183 16 9C16 4.58172 14.8061 1 13.3333 1M13.3333 17L10.6667 17C10.0316 17 9.44841 16.334 8.99042 15.2222C8.82887 14.83 8.68289 14.3824 8.55572 13.8889C8.449 13.4748 8.35553 13.0285 8.27719 12.5556C8.09976 11.4845 8 10.2772 8 9C8 7.72281 8.09977 6.51552 8.27719 5.44444C8.35935 4.94848 8.45816 4.48171 8.57143 4.05074C8.69487 3.58107 8.83548 3.15391 8.99042 2.77778C9.44841 1.66596 10.0316 1 10.6667 1L13.3333 1M13.3333 17C12.6983 17 12.1151 16.334 11.6571 15.2222C11.4955 14.83 11.3496 14.3824 11.2224 13.8889C11.1157 13.4748 11.0222 13.0285 10.9439 12.5556C10.7664 11.4845 10.6667 10.2772 10.6667 9C10.6667 7.72281 10.7664 6.51552 10.9439 5.44444C11.0222 4.97154 11.1157 4.5252 11.2224 4.11111C11.3496 3.61763 11.4955 3.16996 11.6571 2.77778C12.1151 1.66596 12.6983 1 13.3333 1" stroke="#020202" stroke-width="1.6" stroke-linecap="round" stroke-linejoin="round"/>
</svg>
