<svg width="230" height="203" viewBox="0 0 230 203" fill="none" xmlns="http://www.w3.org/2000/svg">
<g filter="url(#filter0_f_115_6797)">
<circle cx="170.954" cy="37.4542" r="5.07116" stroke="#EFD6A6" stroke-width="2.76609"/>
</g>
<circle cx="142.5" cy="67" r="40" fill="#C1A56C"/>
<g filter="url(#filter1_d_115_6797)">
<circle cx="142.5" cy="67" r="32" fill="#D7BA83"/>
</g>
<path fill-rule="evenodd" clip-rule="evenodd" d="M157.576 54.5532C158.655 55.4071 158.812 56.943 157.927 57.9837L139.962 79.1086C139.521 79.6268 138.879 79.947 138.186 79.994C137.493 80.041 136.811 79.8107 136.299 79.3572L127.317 71.392C126.29 70.4811 126.222 68.9391 127.166 67.948C128.11 66.9568 129.709 66.8918 130.736 67.8027L137.751 74.0232L154.021 54.8914C154.906 53.8507 156.497 53.6993 157.576 54.5532Z" fill="#705930"/>
<circle cx="165.5" cy="128" r="40" fill="#C1A56C"/>
<g filter="url(#filter2_d_115_6797)">
<circle cx="165.5" cy="128" r="32" fill="#D7BA83"/>
</g>
<path d="M153.5 116L165.5 128M177.5 140L165.5 128M165.5 128L177.5 116M165.5 128L153.5 140" stroke="#705930" stroke-width="5" stroke-linecap="round" stroke-linejoin="round"/>
<circle cx="104.5" cy="113" r="40" fill="#C1A56C"/>
<g filter="url(#filter3_d_115_6797)">
<circle cx="104.5" cy="113" r="32" fill="#D7BA83"/>
</g>
<path d="M121.5 100.636V109.909H112.227" stroke="#705930" stroke-width="4.2" stroke-linecap="round" stroke-linejoin="round"/>
<path d="M87.5 125.364V116.091H96.7727" stroke="#705930" stroke-width="4.2" stroke-linecap="round" stroke-linejoin="round"/>
<path d="M91.3791 108.364C92.1629 106.149 93.495 104.168 95.2512 102.607C97.0073 101.046 99.1303 99.9559 101.422 99.4374C103.714 98.9189 106.099 98.9894 108.356 99.6422C110.613 100.295 112.668 101.509 114.329 103.171L121.5 109.909M87.5 116.091L94.6709 122.829C96.3319 124.491 98.3868 125.705 100.644 126.358C102.901 127.01 105.286 127.081 107.578 126.562C109.87 126.044 111.993 124.953 113.749 123.392C115.505 121.832 116.837 119.851 117.621 117.636" stroke="#705930" stroke-width="4.2" stroke-linecap="round" stroke-linejoin="round"/>
<path fill-rule="evenodd" clip-rule="evenodd" d="M58.7983 26C59.2149 26 59.5527 26.319 59.5527 26.7125C59.5527 30.2539 62.5924 33.1248 66.3421 33.1248C66.7588 33.1248 67.0965 33.4438 67.0965 33.8373C67.0965 34.2307 66.7588 34.5497 66.3421 34.5497C62.5924 34.5497 59.5527 37.4206 59.5527 40.962C59.5527 41.3555 59.2149 41.6745 58.7983 41.6745C58.3816 41.6745 58.0439 41.3555 58.0439 40.962C58.0439 37.4206 55.0041 34.5497 51.2544 34.5497C50.8378 34.5497 50.5 34.2307 50.5 33.8373C50.5 33.4438 50.8378 33.1248 51.2544 33.1248C55.0041 33.1248 58.0439 30.2539 58.0439 26.7125C58.0439 26.319 58.3816 26 58.7983 26ZM58.7983 29.982C57.9705 31.6827 56.517 33.0555 54.7162 33.8373C56.517 34.619 57.9705 35.9918 58.7983 37.6925C59.626 35.9918 61.0795 34.619 62.8803 33.8373C61.0795 33.0555 59.626 31.6827 58.7983 29.982Z" fill="#BCA371"/>
<path fill-rule="evenodd" clip-rule="evenodd" d="M46.5 48C47.1527 48 47.6818 48.5088 47.6818 49.1364C47.6818 54.7847 52.4439 59.3636 58.3182 59.3636C58.9709 59.3636 59.5 59.8724 59.5 60.5C59.5 61.1276 58.9709 61.6364 58.3182 61.6364C52.4439 61.6364 47.6818 66.2153 47.6818 71.8636C47.6818 72.4912 47.1527 73 46.5 73C45.8473 73 45.3182 72.4912 45.3182 71.8636C45.3182 66.2153 40.5561 61.6364 34.6818 61.6364C34.0291 61.6364 33.5 61.1276 33.5 60.5C33.5 59.8724 34.0291 59.3636 34.6818 59.3636C40.5561 59.3636 45.3182 54.7847 45.3182 49.1364C45.3182 48.5088 45.8473 48 46.5 48ZM46.5 54.3511C45.2033 57.0637 42.9262 59.2532 40.1051 60.5C42.9262 61.7468 45.2033 63.9363 46.5 66.6489C47.7967 63.9363 50.0738 61.7468 52.8949 60.5C50.0738 59.2532 47.7967 57.0637 46.5 54.3511Z" fill="#BCA371"/>
<path fill-rule="evenodd" clip-rule="evenodd" d="M93.4932 174C93.7941 174 94.038 174.225 94.038 174.503C94.038 177.003 96.2334 179.029 98.9415 179.029C99.2425 179.029 99.4864 179.254 99.4864 179.532C99.4864 179.81 99.2425 180.035 98.9415 180.035C96.2334 180.035 94.038 182.062 94.038 184.561C94.038 184.839 93.7941 185.064 93.4932 185.064C93.1923 185.064 92.9484 184.839 92.9484 184.561C92.9484 182.062 90.753 180.035 88.0448 180.035C87.7439 180.035 87.5 179.81 87.5 179.532C87.5 179.254 87.7439 179.029 88.0448 179.029C90.753 179.029 92.9484 177.003 92.9484 174.503C92.9484 174.225 93.1923 174 93.4932 174ZM93.4932 176.811C92.8954 178.011 91.8456 178.98 90.5451 179.532C91.8456 180.084 92.8954 181.053 93.4932 182.254C94.091 181.053 95.1408 180.084 96.4413 179.532C95.1408 178.98 94.091 178.011 93.4932 176.811Z" fill="#BCA371"/>
<path fill-rule="evenodd" clip-rule="evenodd" d="M199 50C199.226 50 199.409 50.1832 199.409 50.4091C199.409 52.4425 201.057 54.0909 203.091 54.0909C203.317 54.0909 203.5 54.2741 203.5 54.5C203.5 54.7259 203.317 54.9091 203.091 54.9091C201.057 54.9091 199.409 56.5575 199.409 58.5909C199.409 58.8168 199.226 59 199 59C198.774 59 198.591 58.8168 198.591 58.5909C198.591 56.5575 196.943 54.9091 194.909 54.9091C194.683 54.9091 194.5 54.7259 194.5 54.5C194.5 54.2741 194.683 54.0909 194.909 54.0909C196.943 54.0909 198.591 52.4425 198.591 50.4091C198.591 50.1832 198.774 50 199 50ZM199 52.2864C198.551 53.2629 197.763 54.0511 196.786 54.5C197.763 54.9489 198.551 55.7371 199 56.7136C199.449 55.7371 200.237 54.9489 201.214 54.5C200.237 54.0511 199.449 53.2629 199 52.2864Z" fill="#BCA371"/>
<g filter="url(#filter4_f_115_6797)">
<path d="M141.117 160C141.117 164.137 137.554 167.617 133 167.617C128.446 167.617 124.883 164.137 124.883 160C124.883 155.863 128.446 152.383 133 152.383C137.554 152.383 141.117 155.863 141.117 160Z" stroke="#EFD6A6" stroke-width="2.76609"/>
</g>
<g filter="url(#filter5_b_115_6797)">
<path d="M108.668 130.256C108.668 145.733 96.121 158.28 80.6436 158.28C65.1661 158.28 52.6192 145.733 52.6192 130.256C52.6192 114.778 65.1661 102.231 80.6436 102.231C96.121 102.231 108.668 114.778 108.668 130.256Z" fill="#F6DFB4" fill-opacity="0.5"/>
</g>
<g filter="url(#filter6_d_115_6797)">
<path d="M54.1403 146.56C55.3283 145.604 57.0666 145.791 58.0229 146.979C58.9791 148.168 58.7912 149.906 57.6032 150.862L46.2761 159.979C45.0881 160.936 43.3498 160.748 42.3936 159.56C41.4373 158.372 41.6252 156.633 42.8132 155.677L54.1403 146.56Z" fill="#D7BA83"/>
</g>
<g filter="url(#filter7_d_115_6797)">
<path d="M113.152 129.882C113.152 148.042 98.4301 162.764 80.2699 162.764C62.1097 162.764 47.3879 148.042 47.3879 129.882C47.3879 111.722 62.1097 97 80.2699 97C98.4301 97 113.152 111.722 113.152 129.882ZM54.7763 129.882C54.7763 143.962 66.1902 155.376 80.2699 155.376C94.3496 155.376 105.763 143.962 105.763 129.882C105.763 115.802 94.3496 104.388 80.2699 104.388C66.1902 104.388 54.7763 115.802 54.7763 129.882Z" fill="url(#paint0_linear_115_6797)"/>
</g>
<g filter="url(#filter8_d_115_6797)">
<path d="M40.381 152.84C42.6316 151.028 45.9246 151.384 47.7362 153.635L49.142 155.381C50.9535 157.632 50.5976 160.925 48.347 162.737L19.5411 185.923C17.2904 187.734 13.9974 187.379 12.1858 185.128L10.7801 183.381C8.96852 181.131 9.32444 177.838 11.5751 176.026L40.381 152.84Z" fill="#BB9D63"/>
</g>
<g filter="url(#filter9_f_115_6797)">
<circle cx="72.1101" cy="86.6101" r="3.2271" stroke="#EFD6A6" stroke-width="2.76609"/>
</g>
<g filter="url(#filter10_f_115_6797)">
<circle cx="111.228" cy="138.952" r="4.14913" fill="#EFD6A6"/>
</g>
<defs>
<filter id="filter0_f_115_6797" x="160.812" y="27.3119" width="20.2846" height="20.2847" filterUnits="userSpaceOnUse" color-interpolation-filters="sRGB">
<feFlood flood-opacity="0" result="BackgroundImageFix"/>
<feBlend mode="normal" in="SourceGraphic" in2="BackgroundImageFix" result="shape"/>
<feGaussianBlur stdDeviation="1.84406" result="effect1_foregroundBlur_115_6797"/>
</filter>
<filter id="filter1_d_115_6797" x="99.4356" y="31.3119" width="86.1287" height="86.1287" filterUnits="userSpaceOnUse" color-interpolation-filters="sRGB">
<feFlood flood-opacity="0" result="BackgroundImageFix"/>
<feColorMatrix in="SourceAlpha" type="matrix" values="0 0 0 0 0 0 0 0 0 0 0 0 0 0 0 0 0 0 127 0" result="hardAlpha"/>
<feOffset dy="7.37624"/>
<feGaussianBlur stdDeviation="5.53218"/>
<feComposite in2="hardAlpha" operator="out"/>
<feColorMatrix type="matrix" values="0 0 0 0 0 0 0 0 0 0 0 0 0 0 0 0 0 0 0.16 0"/>
<feBlend mode="normal" in2="BackgroundImageFix" result="effect1_dropShadow_115_6797"/>
<feBlend mode="normal" in="SourceGraphic" in2="effect1_dropShadow_115_6797" result="shape"/>
</filter>
<filter id="filter2_d_115_6797" x="122.436" y="92.3119" width="86.1287" height="86.1287" filterUnits="userSpaceOnUse" color-interpolation-filters="sRGB">
<feFlood flood-opacity="0" result="BackgroundImageFix"/>
<feColorMatrix in="SourceAlpha" type="matrix" values="0 0 0 0 0 0 0 0 0 0 0 0 0 0 0 0 0 0 127 0" result="hardAlpha"/>
<feOffset dy="7.37624"/>
<feGaussianBlur stdDeviation="5.53218"/>
<feComposite in2="hardAlpha" operator="out"/>
<feColorMatrix type="matrix" values="0 0 0 0 0 0 0 0 0 0 0 0 0 0 0 0 0 0 0.16 0"/>
<feBlend mode="normal" in2="BackgroundImageFix" result="effect1_dropShadow_115_6797"/>
<feBlend mode="normal" in="SourceGraphic" in2="effect1_dropShadow_115_6797" result="shape"/>
</filter>
<filter id="filter3_d_115_6797" x="61.4356" y="77.3119" width="86.1287" height="86.1287" filterUnits="userSpaceOnUse" color-interpolation-filters="sRGB">
<feFlood flood-opacity="0" result="BackgroundImageFix"/>
<feColorMatrix in="SourceAlpha" type="matrix" values="0 0 0 0 0 0 0 0 0 0 0 0 0 0 0 0 0 0 127 0" result="hardAlpha"/>
<feOffset dy="7.37624"/>
<feGaussianBlur stdDeviation="5.53218"/>
<feComposite in2="hardAlpha" operator="out"/>
<feColorMatrix type="matrix" values="0 0 0 0 0 0 0 0 0 0 0 0 0 0 0 0 0 0 0.16 0"/>
<feBlend mode="normal" in2="BackgroundImageFix" result="effect1_dropShadow_115_6797"/>
<feBlend mode="normal" in="SourceGraphic" in2="effect1_dropShadow_115_6797" result="shape"/>
</filter>
<filter id="filter4_f_115_6797" x="120.734" y="148.234" width="24.5322" height="23.5322" filterUnits="userSpaceOnUse" color-interpolation-filters="sRGB">
<feFlood flood-opacity="0" result="BackgroundImageFix"/>
<feBlend mode="normal" in="SourceGraphic" in2="BackgroundImageFix" result="shape"/>
<feGaussianBlur stdDeviation="1.38304" result="effect1_foregroundBlur_115_6797"/>
</filter>
<filter id="filter5_b_115_6797" x="48.8826" y="98.4949" width="63.5219" height="63.522" filterUnits="userSpaceOnUse" color-interpolation-filters="sRGB">
<feFlood flood-opacity="0" result="BackgroundImageFix"/>
<feGaussianBlur in="BackgroundImageFix" stdDeviation="1.86829"/>
<feComposite in2="SourceAlpha" operator="in" result="effect1_backgroundBlur_115_6797"/>
<feBlend mode="normal" in="SourceGraphic" in2="effect1_backgroundBlur_115_6797" result="shape"/>
</filter>
<filter id="filter6_d_115_6797" x="32.8154" y="142.96" width="34.7856" height="32.576" filterUnits="userSpaceOnUse" color-interpolation-filters="sRGB">
<feFlood flood-opacity="0" result="BackgroundImageFix"/>
<feColorMatrix in="SourceAlpha" type="matrix" values="0 0 0 0 0 0 0 0 0 0 0 0 0 0 0 0 0 0 127 0" result="hardAlpha"/>
<feOffset dy="5.97853"/>
<feGaussianBlur stdDeviation="4.4839"/>
<feComposite in2="hardAlpha" operator="out"/>
<feColorMatrix type="matrix" values="0 0 0 0 0 0 0 0 0 0 0 0 0 0 0 0 0 0 0.16 0"/>
<feBlend mode="normal" in2="BackgroundImageFix" result="effect1_dropShadow_115_6797"/>
<feBlend mode="normal" in="SourceGraphic" in2="effect1_dropShadow_115_6797" result="shape"/>
</filter>
<filter id="filter7_d_115_6797" x="38.4201" y="94.0107" width="83.6995" height="83.6995" filterUnits="userSpaceOnUse" color-interpolation-filters="sRGB">
<feFlood flood-opacity="0" result="BackgroundImageFix"/>
<feColorMatrix in="SourceAlpha" type="matrix" values="0 0 0 0 0 0 0 0 0 0 0 0 0 0 0 0 0 0 127 0" result="hardAlpha"/>
<feOffset dy="5.97853"/>
<feGaussianBlur stdDeviation="4.4839"/>
<feComposite in2="hardAlpha" operator="out"/>
<feColorMatrix type="matrix" values="0 0 0 0 0 0 0 0 0 0 0 0 0 0 0 0 0 0 0.16 0"/>
<feBlend mode="normal" in2="BackgroundImageFix" result="effect1_dropShadow_115_6797"/>
<feBlend mode="normal" in="SourceGraphic" in2="effect1_dropShadow_115_6797" result="shape"/>
</filter>
<filter id="filter8_d_115_6797" x="0.655977" y="148.694" width="58.6101" height="53.3314" filterUnits="userSpaceOnUse" color-interpolation-filters="sRGB">
<feFlood flood-opacity="0" result="BackgroundImageFix"/>
<feColorMatrix in="SourceAlpha" type="matrix" values="0 0 0 0 0 0 0 0 0 0 0 0 0 0 0 0 0 0 127 0" result="hardAlpha"/>
<feOffset dy="5.97853"/>
<feGaussianBlur stdDeviation="4.4839"/>
<feComposite in2="hardAlpha" operator="out"/>
<feColorMatrix type="matrix" values="0 0 0 0 0 0 0 0 0 0 0 0 0 0 0 0 0 0 0.16 0"/>
<feBlend mode="normal" in2="BackgroundImageFix" result="effect1_dropShadow_115_6797"/>
<feBlend mode="normal" in="SourceGraphic" in2="effect1_dropShadow_115_6797" result="shape"/>
</filter>
<filter id="filter9_f_115_6797" x="63.8119" y="78.3119" width="16.5965" height="16.5965" filterUnits="userSpaceOnUse" color-interpolation-filters="sRGB">
<feFlood flood-opacity="0" result="BackgroundImageFix"/>
<feBlend mode="normal" in="SourceGraphic" in2="BackgroundImageFix" result="shape"/>
<feGaussianBlur stdDeviation="1.84406" result="effect1_foregroundBlur_115_6797"/>
</filter>
<filter id="filter10_f_115_6797" x="103.391" y="131.115" width="15.6745" height="15.6746" filterUnits="userSpaceOnUse" color-interpolation-filters="sRGB">
<feFlood flood-opacity="0" result="BackgroundImageFix"/>
<feBlend mode="normal" in="SourceGraphic" in2="BackgroundImageFix" result="shape"/>
<feGaussianBlur stdDeviation="1.84406" result="effect1_foregroundBlur_115_6797"/>
</filter>
<linearGradient id="paint0_linear_115_6797" x1="62.3608" y1="162.464" x2="95.5539" y2="97" gradientUnits="userSpaceOnUse">
<stop stop-color="#BFA168"/>
<stop offset="0.555113" stop-color="#836731"/>
<stop offset="1" stop-color="#927235"/>
</linearGradient>
</defs>
</svg>
