<svg width="320" height="320" viewBox="0 0 320 320" fill="none" xmlns="http://www.w3.org/2000/svg">
<g clip-path="url(#clip0_1444_978)">
<rect width="320" height="320" fill="#DCFFE0"/>
<g clip-path="url(#clip1_1444_978)">
<path fill-rule="evenodd" clip-rule="evenodd" d="M227.729 137.352C195.509 138.662 163.972 137.616 131.546 138.314C122.059 138.518 109.935 138.317 101.164 140.544C90.4518 143.263 79.0893 151.662 70.2198 158.005L63.4581 163.346C59.6942 166.501 56.329 171.329 58.905 177.302C60.6447 181.336 63.8943 183.556 68.8264 180.73C72.05 178.604 74.8661 175.924 77.1421 172.816C81.6596 166.354 81.301 164.358 88.6111 160.107C90.0832 159.251 92.2653 158.238 93.9598 157.479C102.804 153.514 110.359 150.763 120.427 153.54C124.746 154.732 127.855 156.628 132.58 157.616C141.95 159.576 153.5 158.528 163.218 158.221C179.95 157.693 207.979 159.492 225.235 160.792C230.019 161.153 235.684 161.351 240.182 162.158C245.083 163.318 250.169 163.486 255.137 162.65C260.52 161.355 261.178 158.429 260.967 152.483C260.797 147.686 260.809 142.14 257.172 139.985C250.553 136.065 236.153 137.008 227.729 137.352Z" fill="#3C1F1B"/>
<path fill-rule="evenodd" clip-rule="evenodd" d="M228.836 139.851C213.502 140.96 183.447 140.432 166.763 140.436C156.477 140.438 146.251 140.552 135.985 140.725C121.377 140.972 106.877 140.029 94.1348 145.608C88.907 147.897 79.9151 154.391 74.9535 157.706C70.2705 160.674 66.0058 164.248 62.2715 168.334C60.9602 169.901 60.328 171.921 60.5138 173.951C60.6995 175.98 61.6879 177.854 63.2623 179.161C67.3897 181.511 74.573 172.333 76.1547 169.77C77.8595 166.442 80.1834 163.465 83.0035 160.996C89.3489 156.434 96.4708 153.046 104.027 150.996C116.855 147.857 122.013 152.078 130.154 154.454C138.922 157.014 149.421 156.291 158.89 155.912C169.195 155.41 179.52 155.486 189.816 156.14L233.647 158.956C240.294 159.431 257.984 164.015 258.485 156.319C258.718 152.757 258.682 144.793 256.587 142.631C252.707 138.627 235.169 139.392 228.836 139.851Z" fill="#684540"/>
<path d="M152.695 152V144H154.387V150.605H157.816V152H152.695ZM165.977 148C165.977 148.872 165.811 149.615 165.48 150.227C165.152 150.839 164.704 151.306 164.137 151.629C163.572 151.949 162.936 152.109 162.23 152.109C161.52 152.109 160.882 151.948 160.316 151.625C159.751 151.302 159.305 150.835 158.977 150.223C158.648 149.611 158.484 148.87 158.484 148C158.484 147.128 158.648 146.385 158.977 145.773C159.305 145.161 159.751 144.695 160.316 144.375C160.882 144.052 161.52 143.891 162.23 143.891C162.936 143.891 163.572 144.052 164.137 144.375C164.704 144.695 165.152 145.161 165.48 145.773C165.811 146.385 165.977 147.128 165.977 148ZM164.262 148C164.262 147.435 164.177 146.958 164.008 146.57C163.841 146.182 163.605 145.888 163.301 145.688C162.996 145.487 162.639 145.387 162.23 145.387C161.822 145.387 161.465 145.487 161.16 145.688C160.855 145.888 160.618 146.182 160.449 146.57C160.283 146.958 160.199 147.435 160.199 148C160.199 148.565 160.283 149.042 160.449 149.43C160.618 149.818 160.855 150.112 161.16 150.312C161.465 150.513 161.822 150.613 162.23 150.613C162.639 150.613 162.996 150.513 163.301 150.312C163.605 150.112 163.841 149.818 164.008 149.43C164.177 149.042 164.262 148.565 164.262 148ZM172.534 146.586C172.479 146.396 172.403 146.228 172.304 146.082C172.205 145.934 172.084 145.809 171.94 145.707C171.8 145.603 171.638 145.523 171.456 145.469C171.276 145.414 171.077 145.387 170.858 145.387C170.45 145.387 170.09 145.488 169.78 145.691C169.473 145.895 169.233 146.19 169.062 146.578C168.89 146.964 168.804 147.435 168.804 147.992C168.804 148.549 168.888 149.023 169.058 149.414C169.227 149.805 169.466 150.103 169.776 150.309C170.086 150.512 170.452 150.613 170.874 150.613C171.257 150.613 171.584 150.546 171.854 150.41C172.128 150.272 172.336 150.078 172.479 149.828C172.625 149.578 172.698 149.283 172.698 148.941L173.042 148.992H170.979V147.719H174.327V148.727C174.327 149.43 174.179 150.034 173.882 150.539C173.585 151.042 173.176 151.43 172.655 151.703C172.134 151.974 171.538 152.109 170.866 152.109C170.116 152.109 169.457 151.944 168.89 151.613C168.322 151.28 167.879 150.807 167.562 150.195C167.246 149.581 167.089 148.852 167.089 148.008C167.089 147.359 167.183 146.781 167.37 146.273C167.56 145.763 167.826 145.331 168.167 144.977C168.508 144.622 168.905 144.353 169.358 144.168C169.812 143.983 170.302 143.891 170.831 143.891C171.284 143.891 171.706 143.957 172.097 144.09C172.487 144.22 172.834 144.405 173.136 144.645C173.44 144.884 173.689 145.169 173.882 145.5C174.075 145.828 174.198 146.19 174.253 146.586H172.534ZM182.949 148C182.949 148.872 182.784 149.615 182.453 150.227C182.125 150.839 181.677 151.306 181.109 151.629C180.544 151.949 179.909 152.109 179.203 152.109C178.492 152.109 177.854 151.948 177.289 151.625C176.724 151.302 176.277 150.835 175.949 150.223C175.621 149.611 175.457 148.87 175.457 148C175.457 147.128 175.621 146.385 175.949 145.773C176.277 145.161 176.724 144.695 177.289 144.375C177.854 144.052 178.492 143.891 179.203 143.891C179.909 143.891 180.544 144.052 181.109 144.375C181.677 144.695 182.125 145.161 182.453 145.773C182.784 146.385 182.949 147.128 182.949 148ZM181.234 148C181.234 147.435 181.15 146.958 180.98 146.57C180.814 146.182 180.578 145.888 180.273 145.688C179.969 145.487 179.612 145.387 179.203 145.387C178.794 145.387 178.438 145.487 178.133 145.688C177.828 145.888 177.591 146.182 177.422 146.57C177.255 146.958 177.172 147.435 177.172 148C177.172 148.565 177.255 149.042 177.422 149.43C177.591 149.818 177.828 150.112 178.133 150.312C178.438 150.513 178.794 150.613 179.203 150.613C179.612 150.613 179.969 150.513 180.273 150.312C180.578 150.112 180.814 149.818 180.98 149.43C181.15 149.042 181.234 148.565 181.234 148ZM211.247 144L212.86 146.727H212.923L214.544 144H216.454L214.013 148L216.509 152H214.563L212.923 149.27H212.86L211.22 152H209.282L211.786 148L209.329 144H211.247ZM219.11 144L220.724 146.727H220.786L222.407 144H224.317L221.876 148L224.372 152H222.427L220.786 149.27H220.724L219.083 152H217.146L219.649 148L217.192 144H219.11ZM226.974 144L228.587 146.727H228.649L230.271 144H232.181L229.739 148L232.235 152H230.29L228.649 149.27H228.587L226.946 152H225.009L227.513 148L225.056 144H226.974ZM234.837 144L236.45 146.727H236.513L238.134 144H240.044L237.603 148L240.099 152H238.153L236.513 149.27H236.45L234.81 152H232.872L235.376 148L232.919 144H234.837Z" fill="#DCCDB3"/>
</g>
<g style="mix-blend-mode:hue">
<rect width="320" height="320" fill="#00BF13"/>
</g>
</g>
<defs>
<clipPath id="clip0_1444_978">
<rect width="320" height="320" fill="white"/>
</clipPath>
<clipPath id="clip1_1444_978">
<rect width="203" height="45" fill="white" transform="translate(58 137)"/>
</clipPath>
</defs>
</svg>
