<svg width="16" height="16" viewBox="0 0 16 16" fill="none" xmlns="http://www.w3.org/2000/svg">
<g clip-path="url(#clip0_1431_859)">
<path d="M8 0.759155C3.8544 0.759155 0.5 4.11385 0.5 8.25916C0.5 12.4048 3.8547 15.7592 8 15.7592C12.1456 15.7592 15.5 12.4045 15.5 8.25916C15.5 4.11356 12.1453 0.759155 8 0.759155ZM8 14.5873C4.50216 14.5873 1.67188 11.7568 1.67188 8.25916C1.67188 4.76131 4.50239 1.93103 8 1.93103C11.4978 1.93103 14.3281 4.76155 14.3281 8.25916C14.3281 11.757 11.4976 14.5873 8 14.5873Z" fill="#3C1F1B"/>
<path d="M8 7.03833C7.67639 7.03833 7.41406 7.30065 7.41406 7.62427V11.3975C7.41406 11.7211 7.67639 11.9834 8 11.9834C8.32361 11.9834 8.58594 11.7211 8.58594 11.3975V7.62427C8.58594 7.30065 8.32361 7.03833 8 7.03833Z" fill="#3C1F1B"/>
<path d="M8 6.32092C8.43687 6.32092 8.79102 5.96677 8.79102 5.52991C8.79102 5.09304 8.43687 4.73889 8 4.73889C7.56313 4.73889 7.20898 5.09304 7.20898 5.52991C7.20898 5.96677 7.56313 6.32092 8 6.32092Z" fill="#3C1F1B"/>
</g>
<defs>
<clipPath id="clip0_1431_859">
<rect width="15" height="15" fill="white" transform="translate(0.5 0.759155)"/>
</clipPath>
</defs>
</svg>
