<svg width="320" height="320" viewBox="0 0 320 320" fill="none" xmlns="http://www.w3.org/2000/svg">
<rect width="320" height="320" fill="#EFE2C1"/>
<path d="M88.3728 226.464L88.3725 226.463C71.0629 207.721 61.5382 183.98 61.5 159.676C61.5001 135.587 70.8343 112.062 87.8752 93.536L87.8758 93.5353C106.821 72.8655 132.315 61.5 159.636 61.5C186.957 61.5 212.528 72.8656 231.627 93.608L231.627 93.6086C248.937 112.351 258.462 136.092 258.5 160.324C258.5 184.413 249.166 207.938 232.087 226.464L232.086 226.464C213.102 247.135 187.646 258.5 160.326 258.5C133.005 258.5 107.434 247.134 88.3728 226.464Z" fill="#CEB57E" stroke="#86766A"/>
<path d="M98.5529 217.178L98.5526 217.178C83.7026 201.194 75.5328 180.948 75.5 160.224C75.5001 139.682 83.5065 119.621 98.1257 103.821L98.1264 103.821C114.379 86.1927 136.25 76.5 159.688 76.5C183.126 76.5 205.062 86.1927 221.447 103.883L221.447 103.883C236.298 119.868 244.467 140.114 244.5 160.777C244.5 181.318 236.494 201.379 221.842 217.178L221.841 217.179C205.555 234.808 183.717 244.5 160.28 244.5C136.841 244.5 114.905 234.807 98.5529 217.178Z" fill="#BD9C52" stroke="#86766A"/>
<path d="M102.188 212.966L102.188 212.966C88.2162 198.027 80.5308 179.107 80.5 159.742C80.5001 140.547 88.0317 121.799 101.786 107.034L101.786 107.033C117.078 90.5588 137.654 81.5 159.706 81.5C181.758 81.5 202.396 90.5588 217.812 107.091L217.812 107.092C231.784 122.031 239.469 140.951 239.5 160.259C239.5 179.453 231.968 198.201 218.184 212.966L218.183 212.967C202.86 229.441 182.315 238.5 160.263 238.5C138.211 238.5 117.572 229.441 102.188 212.966Z" fill="#DBD8DD" stroke="#86766A"/>
<path d="M160.243 233C139.714 233 120.502 224.574 106.186 209.258C93.1867 195.374 86.0286 177.78 86 159.762C86 141.902 93.0149 124.467 105.814 110.742C120.044 95.4261 139.199 87 159.728 87C180.257 87 199.47 95.4261 213.814 110.795C226.813 124.679 233.971 142.273 234 160.238C234 178.098 226.985 195.533 214.158 209.258C199.899 224.574 180.773 233 160.243 233Z" fill="#EDEDED"/>
<path opacity="0.32" d="M158.686 217C143.011 217 128.343 210.478 117.412 198.625C107.487 187.878 102.022 174.261 102 160.315C102 146.493 107.356 132.999 117.128 122.375C127.993 110.522 142.618 104 158.292 104C173.967 104 188.636 110.522 199.588 122.416C209.513 133.163 214.978 146.78 215 160.685C215 174.507 209.644 188.001 199.85 198.625C188.963 210.478 174.36 217 158.686 217Z" fill="#DBD8DD"/>
<path d="M159.178 214C144.197 214 130.177 207.825 119.73 196.6C110.244 186.425 105.021 173.53 105 160.325C105 147.237 110.119 134.459 119.459 124.4C129.843 113.175 143.821 107 158.802 107C173.782 107 187.802 113.175 198.27 124.438C207.756 134.614 212.979 147.509 213 160.675C213 173.763 207.881 186.541 198.521 196.6C188.115 207.825 174.158 214 159.178 214Z" fill="#EDEDED"/>
<path opacity="0.3" d="M160.115 195C150.405 195 141.318 191.018 134.547 183.78C128.399 177.218 125.014 168.903 125 160.387C125 151.947 128.318 143.707 134.371 137.22C141.102 129.982 150.162 126 159.871 126C169.581 126 178.668 129.982 185.453 137.245C191.601 143.807 194.986 152.122 195 160.613C195 169.053 191.682 177.293 185.615 183.78C178.871 191.018 169.825 195 160.115 195Z" fill="#DBD8DD"/>
<path d="M160.109 193C150.954 193 142.386 189.249 136.002 182.43C130.205 176.249 127.013 168.416 127 160.394C127 152.443 130.128 144.681 135.836 138.57C142.182 131.751 150.724 128 159.879 128C169.034 128 177.601 131.751 183.998 138.593C189.795 144.775 192.987 152.608 193 160.606C193 168.557 189.872 176.319 184.151 182.43C177.793 189.249 169.263 193 160.109 193Z" fill="#EDEDED"/>
</svg>
