<svg width="320" height="320" viewBox="0 0 320 320" fill="none" xmlns="http://www.w3.org/2000/svg">
<rect width="320" height="320" fill="#EFE2C1"/>
<mask id="path-1-inside-1_2114_147" fill="white">
<path d="M71 102.309L91.4662 74H228.534L249 102.309L166.926 118"/>
</mask>
<path d="M71 102.309L91.4662 74H228.534L249 102.309L166.926 118" fill="#CEB57E"/>
<path d="M91.4662 74V73H90.9552L90.6558 73.4141L91.4662 74ZM228.534 74L229.345 73.4141L229.045 73H228.534V74ZM249 102.309L249.188 103.291L250.731 102.996L249.81 101.723L249 102.309ZM71.8104 102.895L92.2766 74.5859L90.6558 73.4141L70.1896 101.723L71.8104 102.895ZM91.4662 75H228.534V73H91.4662V75ZM227.724 74.5859L248.19 102.895L249.81 101.723L229.345 73.4141L227.724 74.5859ZM248.812 101.327L166.738 117.018L167.114 118.982L249.188 103.291L248.812 101.327Z" fill="#86766A" mask="url(#path-1-inside-1_2114_147)"/>
<path d="M71.5 102.5H248.5V245.5H71.5V102.5Z" fill="#BD9C52" stroke="#86766A"/>
<path d="M133.986 158V147.091H138.354C139.156 147.091 139.826 147.21 140.362 147.448C140.898 147.686 141.301 148.016 141.571 148.439C141.841 148.858 141.976 149.341 141.976 149.887C141.976 150.314 141.891 150.688 141.72 151.011C141.55 151.331 141.315 151.594 141.017 151.8C140.722 152.002 140.385 152.146 140.005 152.231V152.338C140.42 152.355 140.809 152.473 141.171 152.689C141.537 152.906 141.834 153.21 142.061 153.6C142.288 153.987 142.402 154.449 142.402 154.985C142.402 155.564 142.258 156.081 141.97 156.535C141.686 156.986 141.266 157.343 140.708 157.606C140.151 157.869 139.463 158 138.647 158H133.986ZM136.292 156.114H138.173C138.815 156.114 139.284 155.992 139.579 155.747C139.874 155.498 140.021 155.168 140.021 154.756C140.021 154.454 139.948 154.188 139.803 153.957C139.657 153.726 139.449 153.545 139.179 153.414C138.913 153.282 138.595 153.217 138.226 153.217H136.292V156.114ZM136.292 151.656H138.002C138.318 151.656 138.599 151.601 138.844 151.491C139.092 151.377 139.288 151.217 139.43 151.011C139.575 150.805 139.648 150.559 139.648 150.271C139.648 149.877 139.508 149.559 139.227 149.317C138.95 149.076 138.556 148.955 138.045 148.955H136.292V151.656ZM143.903 158V147.091H148.207C149.031 147.091 149.734 147.238 150.316 147.533C150.902 147.824 151.348 148.238 151.653 148.774C151.962 149.307 152.117 149.934 152.117 150.654C152.117 151.379 151.96 152.002 151.648 152.524C151.335 153.043 150.883 153.44 150.289 153.717C149.7 153.994 148.986 154.133 148.148 154.133H145.266V152.279H147.775C148.216 152.279 148.581 152.219 148.873 152.098C149.164 151.977 149.38 151.796 149.522 151.555C149.668 151.313 149.741 151.013 149.741 150.654C149.741 150.292 149.668 149.987 149.522 149.738C149.38 149.49 149.162 149.301 148.867 149.174C148.576 149.042 148.208 148.977 147.765 148.977H146.209V158H143.903ZM149.794 153.036L152.505 158H149.959L147.307 153.036H149.794ZM155.627 158H153.155L156.921 147.091H159.894L163.654 158H161.183L158.45 149.584H158.365L155.627 158ZM155.472 153.712H161.31V155.512H155.472V153.712ZM174.092 147.091V158H172.1L167.354 151.134H167.274V158H164.967V147.091H166.991L171.7 153.952H171.796V147.091H174.092ZM179.865 158H175.997V147.091H179.897C180.994 147.091 181.939 147.309 182.73 147.746C183.522 148.179 184.131 148.803 184.557 149.616C184.987 150.429 185.202 151.402 185.202 152.535C185.202 153.671 184.987 154.648 184.557 155.464C184.131 156.281 183.519 156.908 182.72 157.345C181.924 157.782 180.973 158 179.865 158ZM178.304 156.024H179.769C180.451 156.024 181.024 155.903 181.489 155.662C181.958 155.417 182.31 155.038 182.544 154.527C182.782 154.012 182.901 153.348 182.901 152.535C182.901 151.729 182.782 151.07 182.544 150.559C182.31 150.047 181.96 149.671 181.495 149.429C181.029 149.188 180.456 149.067 179.774 149.067H178.304V156.024Z" fill="#5E4435"/>
<path d="M151.524 186.182L152.439 187.743L153.353 186.182H154.029L152.796 188.091L154.029 190H153.353L152.439 188.518L151.524 190H150.848L152.061 188.091L150.848 186.182H151.524ZM155.304 186.182L156.219 187.743L157.134 186.182H157.81L156.577 188.091L157.81 190H157.134L156.219 188.518L155.304 190H154.628L155.841 188.091L154.628 186.182H155.304ZM159.084 186.182L159.999 187.743L160.914 186.182H161.59L160.357 188.091L161.59 190H160.914L159.999 188.518L159.084 190H158.408L159.621 188.091L158.408 186.182H159.084ZM162.865 186.182L163.779 187.743L164.694 186.182H165.37L164.137 188.091L165.37 190H164.694L163.779 188.518L162.865 190H162.188L163.402 188.091L162.188 186.182H162.865ZM166.645 186.182L167.56 187.743L168.474 186.182H169.151L167.918 188.091L169.151 190H168.474L167.56 188.518L166.645 190H165.969L167.182 188.091L165.969 186.182H166.645ZM117.423 192.182L118.337 193.743L119.252 192.182H119.928L118.695 194.091L119.928 196H119.252L118.337 194.518L117.423 196H116.747L117.96 194.091L116.747 192.182H117.423ZM121.203 192.182L122.118 193.743L123.032 192.182H123.709L122.476 194.091L123.709 196H123.032L122.118 194.518L121.203 196H120.527L121.74 194.091L120.527 192.182H121.203ZM124.983 192.182L125.898 193.743L126.813 192.182H127.489L126.256 194.091L127.489 196H126.813L125.898 194.518L124.983 196H124.307L125.52 194.091L124.307 192.182H124.983ZM128.763 192.182L129.678 193.743L130.593 192.182H131.269L130.036 194.091L131.269 196H130.593L129.678 194.518L128.763 196H128.087L129.3 194.091L128.087 192.182H128.763ZM132.544 192.182L133.459 193.743L134.373 192.182H135.049L133.816 194.091L135.049 196H134.373L133.459 194.518L132.544 196H131.868L133.081 194.091L131.868 192.182H132.544ZM138.293 192.182L139.208 193.743L140.122 192.182H140.798L139.566 194.091L140.798 196H140.122L139.208 194.518L138.293 196H137.617L138.83 194.091L137.617 192.182H138.293ZM142.073 192.182L142.988 193.743L143.903 192.182H144.579L143.346 194.091L144.579 196H143.903L142.988 194.518L142.073 196H141.397L142.61 194.091L141.397 192.182H142.073ZM145.853 192.182L146.768 193.743L147.683 192.182H148.359L147.126 194.091L148.359 196H147.683L146.768 194.518L145.853 196H145.177L146.39 194.091L145.177 192.182H145.853ZM149.634 192.182L150.548 193.743L151.463 192.182H152.139L150.906 194.091L152.139 196H151.463L150.548 194.518L149.634 196H148.957L150.171 194.091L148.957 192.182H149.634ZM153.414 192.182L154.329 193.743L155.243 192.182H155.92L154.687 194.091L155.92 196H155.243L154.329 194.518L153.414 196H152.738L153.951 194.091L152.738 192.182H153.414ZM157.194 192.182L158.109 193.743L159.024 192.182H159.7L158.467 194.091L159.7 196H159.024L158.109 194.518L157.194 196H156.518L157.731 194.091L156.518 192.182H157.194ZM160.974 192.182L161.889 193.743L162.804 192.182H163.48L162.247 194.091L163.48 196H162.804L161.889 194.518L160.974 196H160.298L161.511 194.091L160.298 192.182H160.974ZM166.723 192.182L167.638 193.743L168.553 192.182H169.229L167.996 194.091L169.229 196H168.553L167.638 194.518L166.723 196H166.047L167.26 194.091L166.047 192.182H166.723ZM170.504 192.182L171.419 193.743L172.333 192.182H173.009L171.776 194.091L173.009 196H172.333L171.419 194.518L170.504 196H169.828L171.041 194.091L169.828 192.182H170.504ZM174.284 192.182L175.199 193.743L176.114 192.182H176.79L175.557 194.091L176.79 196H176.114L175.199 194.518L174.284 196H173.608L174.821 194.091L173.608 192.182H174.284ZM178.064 192.182L178.979 193.743L179.894 192.182H180.57L179.337 194.091L180.57 196H179.894L178.979 194.518L178.064 196H177.388L178.601 194.091L177.388 192.182H178.064ZM181.845 192.182L182.759 193.743L183.674 192.182H184.35L183.117 194.091L184.35 196H183.674L182.759 194.518L181.845 196H181.168L182.381 194.091L181.168 192.182H181.845ZM185.625 192.182L186.54 193.743L187.454 192.182H188.131L186.898 194.091L188.131 196H187.454L186.54 194.518L185.625 196H184.949L186.162 194.091L184.949 192.182H185.625ZM189.405 192.182L190.32 193.743L191.235 192.182H191.911L190.678 194.091L191.911 196H191.235L190.32 194.518L189.405 196H188.729L189.942 194.091L188.729 192.182H189.405ZM193.185 192.182L194.1 193.743L195.015 192.182H195.691L194.458 194.091L195.691 196H195.015L194.1 194.518L193.185 196H192.509L193.722 194.091L192.509 192.182H193.185ZM196.966 192.182L197.88 193.743L198.795 192.182H199.471L198.238 194.091L199.471 196H198.795L197.88 194.518L196.966 196H196.29L197.503 194.091L196.29 192.182H196.966ZM200.746 192.182L201.661 193.743L202.575 192.182H203.252L202.019 194.091L203.252 196H202.575L201.661 194.518L200.746 196H200.07L201.283 194.091L200.07 192.182H200.746ZM121.203 198.182L122.118 199.743L123.032 198.182H123.709L122.476 200.091L123.709 202H123.032L122.118 200.518L121.203 202H120.527L121.74 200.091L120.527 198.182H121.203ZM124.983 198.182L125.898 199.743L126.813 198.182H127.489L126.256 200.091L127.489 202H126.813L125.898 200.518L124.983 202H124.307L125.52 200.091L124.307 198.182H124.983ZM128.763 198.182L129.678 199.743L130.593 198.182H131.269L130.036 200.091L131.269 202H130.593L129.678 200.518L128.763 202H128.087L129.3 200.091L128.087 198.182H128.763ZM132.544 198.182L133.459 199.743L134.373 198.182H135.049L133.816 200.091L135.049 202H134.373L133.459 200.518L132.544 202H131.868L133.081 200.091L131.868 198.182H132.544ZM136.324 198.182L137.239 199.743L138.154 198.182H138.83L137.597 200.091L138.83 202H138.154L137.239 200.518L136.324 202H135.648L136.861 200.091L135.648 198.182H136.324ZM140.104 198.182L141.019 199.743L141.934 198.182H142.61L141.377 200.091L142.61 202H141.934L141.019 200.518L140.104 202H139.428L140.641 200.091L139.428 198.182H140.104ZM143.885 198.182L144.799 199.743L145.714 198.182H146.39L145.157 200.091L146.39 202H145.714L144.799 200.518L143.885 202H143.208L144.422 200.091L143.208 198.182H143.885ZM147.665 198.182L148.58 199.743L149.494 198.182H150.171L148.938 200.091L150.171 202H149.494L148.58 200.518L147.665 202H146.989L148.202 200.091L146.989 198.182H147.665ZM151.445 198.182L152.36 199.743L153.275 198.182H153.951L152.718 200.091L153.951 202H153.275L152.36 200.518L151.445 202H150.769L151.982 200.091L150.769 198.182H151.445ZM155.225 198.182L156.14 199.743L157.055 198.182H157.731L156.498 200.091L157.731 202H157.055L156.14 200.518L155.225 202H154.549L155.762 200.091L154.549 198.182H155.225ZM160.974 198.182L161.889 199.743L162.804 198.182H163.48L162.247 200.091L163.48 202H162.804L161.889 200.518L160.974 202H160.298L161.511 200.091L160.298 198.182H160.974ZM164.755 198.182L165.669 199.743L166.584 198.182H167.26L166.027 200.091L167.26 202H166.584L165.669 200.518L164.755 202H164.079L165.292 200.091L164.079 198.182H164.755ZM168.535 198.182L169.45 199.743L170.365 198.182H171.041L169.808 200.091L171.041 202H170.365L169.45 200.518L168.535 202H167.859L169.072 200.091L167.859 198.182H168.535ZM172.315 198.182L173.23 199.743L174.145 198.182H174.821L173.588 200.091L174.821 202H174.145L173.23 200.518L172.315 202H171.639L172.852 200.091L171.639 198.182H172.315ZM176.096 198.182L177.01 199.743L177.925 198.182H178.601L177.368 200.091L178.601 202H177.925L177.01 200.518L176.096 202H175.419L176.632 200.091L175.419 198.182H176.096ZM181.845 198.182L182.759 199.743L183.674 198.182H184.35L183.117 200.091L184.35 202H183.674L182.759 200.518L181.845 202H181.168L182.381 200.091L181.168 198.182H181.845ZM185.625 198.182L186.54 199.743L187.454 198.182H188.131L186.898 200.091L188.131 202H187.454L186.54 200.518L185.625 202H184.949L186.162 200.091L184.949 198.182H185.625ZM189.405 198.182L190.32 199.743L191.235 198.182H191.911L190.678 200.091L191.911 202H191.235L190.32 200.518L189.405 202H188.729L189.942 200.091L188.729 198.182H189.405ZM193.185 198.182L194.1 199.743L195.015 198.182H195.691L194.458 200.091L195.691 202H195.015L194.1 200.518L193.185 202H192.509L193.722 200.091L192.509 198.182H193.185ZM196.966 198.182L197.88 199.743L198.795 198.182H199.471L198.238 200.091L199.471 202H198.795L197.88 200.518L196.966 202H196.29L197.503 200.091L196.29 198.182H196.966Z" fill="#7C512E"/>
<path d="M137.606 165L139.668 168.328H139.731L141.793 165H142.934L140.418 169L142.934 173H141.793L139.731 169.734H139.668L137.606 173H136.465L139.043 169L136.465 165H137.606ZM147.757 165L149.82 168.328H149.882L151.945 165H153.085L150.57 169L153.085 173H151.945L149.882 169.734H149.82L147.757 173H146.617L149.195 169L146.617 165H147.757ZM157.909 165L159.971 168.328H160.034L162.096 165H163.237L160.721 169L163.237 173H162.096L160.034 169.734H159.971L157.909 173H156.768L159.346 169L156.768 165H157.909ZM168.06 165L170.123 168.328H170.185L172.248 165H173.388L170.873 169L173.388 173H172.248L170.185 169.734H170.123L168.06 173H166.919L169.498 169L166.919 165H168.06ZM178.211 165L180.274 168.328H180.336L182.399 165H183.54L181.024 169L183.54 173H182.399L180.336 169.734H180.274L178.211 173H177.071L179.649 169L177.071 165H178.211Z" fill="#7C512E"/>
<path d="M126.3 226.909L127.613 229.027H127.652L128.965 226.909H129.691L128.09 229.455L129.691 232H128.965L127.652 229.922H127.613L126.3 232H125.574L127.215 229.455L125.574 226.909H126.3ZM130.791 226.909L132.104 229.027H132.144L133.456 226.909H134.182L132.581 229.455L134.182 232H133.456L132.144 229.922H132.104L130.791 232H130.065L131.706 229.455L130.065 226.909H130.791ZM135.282 226.909L136.595 229.027H136.635L137.947 226.909H138.673L137.072 229.455L138.673 232H137.947L136.635 229.922H136.595L135.282 232H134.557L136.197 229.455L134.557 226.909H135.282ZM139.774 226.909L141.086 229.027H141.126L142.438 226.909H143.164L141.563 229.455L143.164 232H142.438L141.126 229.922H141.086L139.774 232H139.048L140.688 229.455L139.048 226.909H139.774ZM146.234 226.909L147.546 229.027H147.586L148.898 226.909H149.624L148.023 229.455L149.624 232H148.898L147.586 229.922H147.546L146.234 232H145.508L147.148 229.455L145.508 226.909H146.234ZM150.725 226.909L152.037 229.027H152.077L153.39 226.909H154.115L152.515 229.455L154.115 232H153.39L152.077 229.922H152.037L150.725 232H149.999L151.64 229.455L149.999 226.909H150.725ZM155.216 226.909L156.529 229.027H156.568L157.881 226.909H158.607L157.006 229.455L158.607 232H157.881L156.568 229.922H156.529L155.216 232H154.49L156.131 229.455L154.49 226.909H155.216ZM161.676 226.909L162.989 229.027H163.028L164.341 226.909H165.067L163.466 229.455L165.067 232H164.341L163.028 229.922H162.989L161.676 232H160.95L162.591 229.455L160.95 226.909H161.676ZM166.167 226.909L167.48 229.027H167.519L168.832 226.909H169.558L167.957 229.455L169.558 232H168.832L167.519 229.922H167.48L166.167 232H165.441L167.082 229.455L165.441 226.909H166.167ZM172.627 226.909L173.94 229.027H173.979L175.292 226.909H176.018L174.417 229.455L176.018 232H175.292L173.979 229.922H173.94L172.627 232H171.901L173.542 229.455L171.901 226.909H172.627ZM179.087 226.909L180.4 229.027H180.439L181.752 226.909H182.478L180.877 229.455L182.478 232H181.752L180.439 229.922H180.4L179.087 232H178.361L180.002 229.455L178.361 226.909H179.087ZM185.547 226.909L186.86 229.027H186.899L188.212 226.909H188.938L187.337 229.455L188.938 232H188.212L186.899 229.922H186.86L185.547 232H184.821L186.462 229.455L184.821 226.909H185.547ZM190.038 226.909L191.351 229.027H191.391L192.703 226.909H193.429L191.828 229.455L193.429 232H192.703L191.391 229.922H191.351L190.038 232H189.312L190.953 229.455L189.312 226.909H190.038Z" fill="#7C512E"/>
<circle cx="160" cy="127" r="7.5" fill="#5E4435" stroke="#5E4435"/>
</svg>
