<svg width="320" height="320" viewBox="0 0 320 320" fill="none" xmlns="http://www.w3.org/2000/svg">
<rect width="320" height="320" fill="#EFE2C1"/>
<path d="M220.726 167.527C234.304 159.643 242.401 149.727 244.894 139.355L246.538 206.283C246.538 206.285 246.538 206.287 246.538 206.29C246.505 218.58 238.411 230.97 222.036 240.478L222.036 240.478C205.567 250.049 183.908 254.849 162.195 254.849C140.482 254.849 118.767 250.049 102.189 240.477C85.4981 230.842 77.282 218.262 77.3127 205.817H77.3128L77.3125 205.803L75.7076 140.446C78.6031 150.408 86.6954 159.919 99.8761 167.528C116.642 177.208 138.547 182.033 160.394 182.033C182.241 182.033 204.084 177.208 220.726 167.527Z" fill="#CEB57E" stroke="#86766A"/>
<path d="M219.67 102.493C236.235 111.816 244.435 123.964 244.5 136.003C244.565 148.04 236.498 160.186 220.043 169.507C203.593 178.826 181.959 183.5 160.269 183.5C138.58 183.5 116.89 178.826 100.33 169.507C83.7652 160.184 75.5654 148.036 75.5004 135.997C75.4354 123.96 83.5024 111.814 99.9566 102.493C116.407 93.1738 138.041 88.5 159.731 88.5C181.42 88.5 203.11 93.1738 219.67 102.493Z" fill="#CBA95E" stroke="#86766A"/>
<path d="M234.347 134.678L234.347 134.681C234.322 144.196 227.393 153.841 213.263 161.286C199.068 168.747 180.387 172.497 161.654 172.5C142.92 172.503 124.188 168.759 109.89 161.285C95.5039 153.748 88.4753 143.964 88.5002 134.313V134.312L88.5001 123.435C90.9943 131.339 98.1274 138.856 109.606 144.859L109.606 144.859C124.083 152.427 142.984 156.191 161.833 156.188C180.681 156.185 199.532 152.415 213.907 144.859L213.908 144.858C225.067 138.969 231.95 131.632 234.442 123.897L234.347 134.678Z" fill="#CEB57E" stroke="#86766A"/>
<path d="M213.42 145.155L213.42 145.155L213.408 145.161C179.934 162.471 138.595 158.97 109.903 145.155C95.5761 138.25 88.5593 129.292 88.5004 120.493C88.4414 111.696 95.3349 102.746 109.571 95.8528L109.571 95.8527C123.798 88.9593 142.505 85.5 161.261 85.5C180.018 85.5 198.77 88.9593 213.088 95.8533C227.428 102.758 234.444 111.711 234.5 120.507C234.555 129.301 227.656 138.252 213.42 145.155Z" fill="#CEB57E" stroke="#86766A"/>
<path d="M115.004 138.123L115.003 138.123C104.246 132.631 98.5233 125.77 98.5 118.904C98.5005 112.102 104.106 105.304 114.695 99.8765L114.695 99.8762C126.434 93.8373 142.27 90.5 159.274 90.5C176.278 90.5 192.162 93.8372 203.996 99.8977L203.997 99.8979C214.754 105.391 220.477 112.252 220.5 119.096C220.499 125.899 214.894 132.696 204.282 138.123L204.281 138.124C192.519 144.163 176.706 147.5 159.702 147.5C142.698 147.5 126.814 144.163 115.004 138.123Z" fill="#EDEDED" stroke="#86766A"/>
<path d="M226.5 119.5C226.5 123.269 224.747 126.899 221.494 130.245C218.239 133.593 213.505 136.632 207.616 139.194C195.839 144.318 179.535 147.5 161.5 147.5C143.465 147.5 127.161 144.318 115.384 139.194C109.495 136.632 104.761 133.593 101.506 130.245C98.2532 126.899 96.5 123.269 96.5 119.5C96.5 115.731 98.2532 112.101 101.506 108.755C104.761 105.407 109.495 102.368 115.384 99.8059C127.161 94.6818 143.465 91.5 161.5 91.5C179.535 91.5 195.839 94.6818 207.616 99.8059C213.505 102.368 218.239 105.407 221.494 108.755C224.747 112.101 226.5 115.731 226.5 119.5Z" fill="#DBD8DD" stroke="#86766A"/>
<path d="M220.5 125C220.5 127.989 218.948 130.891 216.025 133.585C213.101 136.28 208.842 138.73 203.538 140.798C192.932 144.932 178.246 147.5 162 147.5C145.754 147.5 131.068 144.932 120.462 140.798C115.158 138.73 110.899 136.28 107.975 133.585C105.052 130.891 103.5 127.989 103.5 125C103.5 122.011 105.052 119.109 107.975 116.415C110.899 113.72 115.158 111.27 120.462 109.202C131.068 105.068 145.754 102.5 162 102.5C178.246 102.5 192.932 105.068 203.538 109.202C208.842 111.27 213.101 113.72 216.025 116.415C218.948 119.109 220.5 122.011 220.5 125Z" fill="#EDEDED" stroke="#86766A"/>
</svg>
