<svg width="320" height="320" viewBox="0 0 320 320" fill="none" xmlns="http://www.w3.org/2000/svg">
<rect width="320" height="320" fill="#EFE2C1"/>
<g clip-path="url(#clip0_2114_145)">
<mask id="path-1-inside-1_2114_145" fill="white">
<path d="M71.002 114.252L91.4678 71.0005H228.533L248.998 114.252L166.926 138.226"/>
</mask>
<path d="M71.002 114.252L91.4678 71.0005H228.533L248.998 114.252L166.926 138.226" fill="#CEB57E"/>
<path d="M91.4678 71.0005V70.0005H90.8347L90.5639 70.5728L91.4678 71.0005ZM228.533 71.0005L229.437 70.5728L229.166 70.0005H228.533V71.0005ZM248.998 114.252L249.279 115.212L250.404 114.883L249.902 113.824L248.998 114.252ZM71.9059 114.68L92.3717 71.4282L90.5639 70.5728L70.098 113.824L71.9059 114.68ZM91.4678 72.0005H228.533V70.0005H91.4678V72.0005ZM227.629 71.4282L248.095 114.68L249.902 113.824L229.437 70.5728L227.629 71.4282ZM248.718 113.292L166.646 137.266L167.207 139.186L249.279 115.212L248.718 113.292Z" fill="#86766A" mask="url(#path-1-inside-1_2114_145)"/>
<path d="M71.502 114.753H248.498V248.501H71.502V114.753Z" fill="#BD9C52" stroke="#86766A"/>
<path d="M129.083 203H126V227.667H129.083V203ZM130.625 203H132.167V227.667H130.625V203ZM133.708 203H136.792V227.667H133.708V203ZM138.333 203H141.417V227.667H138.333V203ZM144.5 203H142.958V227.667H144.5V203ZM161.459 203H163V227.667H161.459V203ZM149.125 203H146.042V227.667H149.125V203ZM150.667 203H155.292V227.667H150.667V203ZM159.917 203H156.834V227.667H159.917V203Z" fill="#7C512E"/>
<path d="M160.083 203H157V227.667H160.083V203ZM161.625 203H163.167V227.667H161.625V203ZM164.708 203H167.792V227.667H164.708V203ZM169.333 203H172.417V227.667H169.333V203ZM175.5 203H173.958V227.667H175.5V203ZM192.459 203H194V227.667H192.459V203ZM180.125 203H177.042V227.667H180.125V203ZM181.667 203H186.292V227.667H181.667V203ZM190.917 203H187.834V227.667H190.917V203Z" fill="#7C512E"/>
</g>
<path d="M79.1136 121.636L80.1591 123.42L81.2045 121.636H81.9773L80.5682 123.818L81.9773 126H81.2045L80.1591 124.307L79.1136 126H78.3409L79.7273 123.818L78.3409 121.636H79.1136ZM83.4339 121.636L84.4794 123.42L85.5249 121.636H86.2976L84.8885 123.818L86.2976 126H85.5249L84.4794 124.307L83.4339 126H82.6612L84.0476 123.818L82.6612 121.636H83.4339ZM87.7543 121.636L88.7997 123.42L89.8452 121.636H90.6179L89.2088 123.818L90.6179 126H89.8452L88.7997 124.307L87.7543 126H86.9815L88.3679 123.818L86.9815 121.636H87.7543ZM92.0746 121.636L93.12 123.42L94.1655 121.636H94.9382L93.5291 123.818L94.9382 126H94.1655L93.12 124.307L92.0746 126H91.3018L92.6882 123.818L91.3018 121.636H92.0746ZM96.3949 121.636L97.4403 123.42L98.4858 121.636H99.2585L97.8494 123.818L99.2585 126H98.4858L97.4403 124.307L96.3949 126H95.6222L97.0085 123.818L95.6222 121.636H96.3949ZM102.965 121.636L104.011 123.42L105.056 121.636H105.829L104.42 123.818L105.829 126H105.056L104.011 124.307L102.965 126H102.192L103.579 123.818L102.192 121.636H102.965ZM107.286 121.636L108.331 123.42L109.376 121.636H110.149L108.74 123.818L110.149 126H109.376L108.331 124.307L107.286 126H106.513L107.899 123.818L106.513 121.636H107.286ZM111.606 121.636L112.651 123.42L113.697 121.636H114.469L113.06 123.818L114.469 126H113.697L112.651 124.307L111.606 126H110.833L112.219 123.818L110.833 121.636H111.606ZM115.926 121.636L116.972 123.42L118.017 121.636H118.79L117.381 123.818L118.79 126H118.017L116.972 124.307L115.926 126H115.153L116.54 123.818L115.153 121.636H115.926ZM120.246 121.636L121.292 123.42L122.337 121.636H123.11L121.701 123.818L123.11 126H122.337L121.292 124.307L120.246 126H119.474L120.86 123.818L119.474 121.636H120.246ZM124.567 121.636L125.612 123.42L126.658 121.636H127.43L126.021 123.818L127.43 126H126.658L125.612 124.307L124.567 126H123.794L125.18 123.818L123.794 121.636H124.567ZM128.887 121.636L129.933 123.42L130.978 121.636H131.751L130.342 123.818L131.751 126H130.978L129.933 124.307L128.887 126H128.114L129.501 123.818L128.114 121.636H128.887ZM135.457 121.636L136.503 123.42L137.548 121.636H138.321L136.912 123.818L138.321 126H137.548L136.503 124.307L135.457 126H134.685L136.071 123.818L134.685 121.636H135.457ZM139.778 121.636L140.823 123.42L141.869 121.636H142.641L141.232 123.818L142.641 126H141.869L140.823 124.307L139.778 126H139.005L140.391 123.818L139.005 121.636H139.778ZM144.098 121.636L145.143 123.42L146.189 121.636H146.962L145.553 123.818L146.962 126H146.189L145.143 124.307L144.098 126H143.325L144.712 123.818L143.325 121.636H144.098ZM148.418 121.636L149.464 123.42L150.509 121.636H151.282L149.873 123.818L151.282 126H150.509L149.464 124.307L148.418 126H147.646L149.032 123.818L147.646 121.636H148.418ZM152.739 121.636L153.784 123.42L154.83 121.636H155.602L154.193 123.818L155.602 126H154.83L153.784 124.307L152.739 126H151.966L153.352 123.818L151.966 121.636H152.739ZM157.059 121.636L158.104 123.42L159.15 121.636H159.923L158.513 123.818L159.923 126H159.15L158.104 124.307L157.059 126H156.286L157.673 123.818L156.286 121.636H157.059ZM161.379 121.636L162.425 123.42L163.47 121.636H164.243L162.834 123.818L164.243 126H163.47L162.425 124.307L161.379 126H160.607L161.993 123.818L160.607 121.636H161.379ZM165.7 121.636L166.745 123.42L167.79 121.636H168.563L167.154 123.818L168.563 126H167.79L166.745 124.307L165.7 126H164.927L166.313 123.818L164.927 121.636H165.7ZM170.02 121.636L171.065 123.42L172.111 121.636H172.884L171.474 123.818L172.884 126H172.111L171.065 124.307L170.02 126H169.247L170.634 123.818L169.247 121.636H170.02ZM174.34 121.636L175.386 123.42L176.431 121.636H177.204L175.795 123.818L177.204 126H176.431L175.386 124.307L174.34 126H173.567L174.954 123.818L173.567 121.636H174.34ZM180.911 121.636L181.956 123.42L183.001 121.636H183.774L182.365 123.818L183.774 126H183.001L181.956 124.307L180.911 126H180.138L181.524 123.818L180.138 121.636H180.911ZM185.231 121.636L186.276 123.42L187.322 121.636H188.094L186.685 123.818L188.094 126H187.322L186.276 124.307L185.231 126H184.458L185.844 123.818L184.458 121.636H185.231ZM189.551 121.636L190.597 123.42L191.642 121.636H192.415L191.006 123.818L192.415 126H191.642L190.597 124.307L189.551 126H188.778L190.165 123.818L188.778 121.636H189.551ZM193.871 121.636L194.917 123.42L195.962 121.636H196.735L195.326 123.818L196.735 126H195.962L194.917 124.307L193.871 126H193.099L194.485 123.818L193.099 121.636H193.871ZM198.192 121.636L199.237 123.42L200.283 121.636H201.055L199.646 123.818L201.055 126H200.283L199.237 124.307L198.192 126H197.419L198.805 123.818L197.419 121.636H198.192ZM202.512 121.636L203.558 123.42L204.603 121.636H205.376L203.967 123.818L205.376 126H204.603L203.558 124.307L202.512 126H201.739L203.126 123.818L201.739 121.636H202.512ZM206.832 121.636L207.878 123.42L208.923 121.636H209.696L208.287 123.818L209.696 126H208.923L207.878 124.307L206.832 126H206.06L207.446 123.818L206.06 121.636H206.832ZM211.153 121.636L212.198 123.42L213.244 121.636H214.016L212.607 123.818L214.016 126H213.244L212.198 124.307L211.153 126H210.38L211.766 123.818L210.38 121.636H211.153ZM215.473 121.636L216.518 123.42L217.564 121.636H218.337L216.928 123.818L218.337 126H217.564L216.518 124.307L215.473 126H214.7L216.087 123.818L214.7 121.636H215.473ZM222.043 121.636L223.089 123.42L224.134 121.636H224.907L223.498 123.818L224.907 126H224.134L223.089 124.307L222.043 126H221.271L222.657 123.818L221.271 121.636H222.043ZM226.364 121.636L227.409 123.42L228.455 121.636H229.227L227.818 123.818L229.227 126H228.455L227.409 124.307L226.364 126H225.591L226.977 123.818L225.591 121.636H226.364ZM230.684 121.636L231.729 123.42L232.775 121.636H233.548L232.138 123.818L233.548 126H232.775L231.729 124.307L230.684 126H229.911L231.298 123.818L229.911 121.636H230.684ZM235.004 121.636L236.05 123.42L237.095 121.636H237.868L236.459 123.818L237.868 126H237.095L236.05 124.307L235.004 126H234.232L235.618 123.818L234.232 121.636H235.004ZM239.325 121.636L240.37 123.42L241.415 121.636H242.188L240.779 123.818L242.188 126H241.415L240.37 124.307L239.325 126H238.552L239.938 123.818L238.552 121.636H239.325ZM79.1136 129.636L80.1591 131.42L81.2045 129.636H81.9773L80.5682 131.818L81.9773 134H81.2045L80.1591 132.307L79.1136 134H78.3409L79.7273 131.818L78.3409 129.636H79.1136ZM83.4339 129.636L84.4794 131.42L85.5249 129.636H86.2976L84.8885 131.818L86.2976 134H85.5249L84.4794 132.307L83.4339 134H82.6612L84.0476 131.818L82.6612 129.636H83.4339ZM87.7543 129.636L88.7997 131.42L89.8452 129.636H90.6179L89.2088 131.818L90.6179 134H89.8452L88.7997 132.307L87.7543 134H86.9815L88.3679 131.818L86.9815 129.636H87.7543ZM92.0746 129.636L93.12 131.42L94.1655 129.636H94.9382L93.5291 131.818L94.9382 134H94.1655L93.12 132.307L92.0746 134H91.3018L92.6882 131.818L91.3018 129.636H92.0746ZM96.3949 129.636L97.4403 131.42L98.4858 129.636H99.2585L97.8494 131.818L99.2585 134H98.4858L97.4403 132.307L96.3949 134H95.6222L97.0085 131.818L95.6222 129.636H96.3949ZM102.965 129.636L104.011 131.42L105.056 129.636H105.829L104.42 131.818L105.829 134H105.056L104.011 132.307L102.965 134H102.192L103.579 131.818L102.192 129.636H102.965ZM107.286 129.636L108.331 131.42L109.376 129.636H110.149L108.74 131.818L110.149 134H109.376L108.331 132.307L107.286 134H106.513L107.899 131.818L106.513 129.636H107.286ZM111.606 129.636L112.651 131.42L113.697 129.636H114.469L113.06 131.818L114.469 134H113.697L112.651 132.307L111.606 134H110.833L112.219 131.818L110.833 129.636H111.606ZM115.926 129.636L116.972 131.42L118.017 129.636H118.79L117.381 131.818L118.79 134H118.017L116.972 132.307L115.926 134H115.153L116.54 131.818L115.153 129.636H115.926ZM120.246 129.636L121.292 131.42L122.337 129.636H123.11L121.701 131.818L123.11 134H122.337L121.292 132.307L120.246 134H119.474L120.86 131.818L119.474 129.636H120.246ZM124.567 129.636L125.612 131.42L126.658 129.636H127.43L126.021 131.818L127.43 134H126.658L125.612 132.307L124.567 134H123.794L125.18 131.818L123.794 129.636H124.567ZM128.887 129.636L129.933 131.42L130.978 129.636H131.751L130.342 131.818L131.751 134H130.978L129.933 132.307L128.887 134H128.114L129.501 131.818L128.114 129.636H128.887ZM135.457 129.636L136.503 131.42L137.548 129.636H138.321L136.912 131.818L138.321 134H137.548L136.503 132.307L135.457 134H134.685L136.071 131.818L134.685 129.636H135.457ZM139.778 129.636L140.823 131.42L141.869 129.636H142.641L141.232 131.818L142.641 134H141.869L140.823 132.307L139.778 134H139.005L140.391 131.818L139.005 129.636H139.778ZM144.098 129.636L145.143 131.42L146.189 129.636H146.962L145.553 131.818L146.962 134H146.189L145.143 132.307L144.098 134H143.325L144.712 131.818L143.325 129.636H144.098ZM148.418 129.636L149.464 131.42L150.509 129.636H151.282L149.873 131.818L151.282 134H150.509L149.464 132.307L148.418 134H147.646L149.032 131.818L147.646 129.636H148.418ZM152.739 129.636L153.784 131.42L154.83 129.636H155.602L154.193 131.818L155.602 134H154.83L153.784 132.307L152.739 134H151.966L153.352 131.818L151.966 129.636H152.739ZM157.059 129.636L158.104 131.42L159.15 129.636H159.923L158.513 131.818L159.923 134H159.15L158.104 132.307L157.059 134H156.286L157.673 131.818L156.286 129.636H157.059ZM161.379 129.636L162.425 131.42L163.47 129.636H164.243L162.834 131.818L164.243 134H163.47L162.425 132.307L161.379 134H160.607L161.993 131.818L160.607 129.636H161.379ZM165.7 129.636L166.745 131.42L167.79 129.636H168.563L167.154 131.818L168.563 134H167.79L166.745 132.307L165.7 134H164.927L166.313 131.818L164.927 129.636H165.7ZM170.02 129.636L171.065 131.42L172.111 129.636H172.884L171.474 131.818L172.884 134H172.111L171.065 132.307L170.02 134H169.247L170.634 131.818L169.247 129.636H170.02ZM174.34 129.636L175.386 131.42L176.431 129.636H177.204L175.795 131.818L177.204 134H176.431L175.386 132.307L174.34 134H173.567L174.954 131.818L173.567 129.636H174.34ZM180.911 129.636L181.956 131.42L183.001 129.636H183.774L182.365 131.818L183.774 134H183.001L181.956 132.307L180.911 134H180.138L181.524 131.818L180.138 129.636H180.911ZM185.231 129.636L186.276 131.42L187.322 129.636H188.094L186.685 131.818L188.094 134H187.322L186.276 132.307L185.231 134H184.458L185.844 131.818L184.458 129.636H185.231ZM189.551 129.636L190.597 131.42L191.642 129.636H192.415L191.006 131.818L192.415 134H191.642L190.597 132.307L189.551 134H188.778L190.165 131.818L188.778 129.636H189.551ZM193.871 129.636L194.917 131.42L195.962 129.636H196.735L195.326 131.818L196.735 134H195.962L194.917 132.307L193.871 134H193.099L194.485 131.818L193.099 129.636H193.871ZM198.192 129.636L199.237 131.42L200.283 129.636H201.055L199.646 131.818L201.055 134H200.283L199.237 132.307L198.192 134H197.419L198.805 131.818L197.419 129.636H198.192ZM202.512 129.636L203.558 131.42L204.603 129.636H205.376L203.967 131.818L205.376 134H204.603L203.558 132.307L202.512 134H201.739L203.126 131.818L201.739 129.636H202.512ZM206.832 129.636L207.878 131.42L208.923 129.636H209.696L208.287 131.818L209.696 134H208.923L207.878 132.307L206.832 134H206.06L207.446 131.818L206.06 129.636H206.832ZM211.153 129.636L212.198 131.42L213.244 129.636H214.016L212.607 131.818L214.016 134H213.244L212.198 132.307L211.153 134H210.38L211.766 131.818L210.38 129.636H211.153ZM215.473 129.636L216.518 131.42L217.564 129.636H218.337L216.928 131.818L218.337 134H217.564L216.518 132.307L215.473 134H214.7L216.087 131.818L214.7 129.636H215.473ZM222.043 129.636L223.089 131.42L224.134 129.636H224.907L223.498 131.818L224.907 134H224.134L223.089 132.307L222.043 134H221.271L222.657 131.818L221.271 129.636H222.043ZM226.364 129.636L227.409 131.42L228.455 129.636H229.227L227.818 131.818L229.227 134H228.455L227.409 132.307L226.364 134H225.591L226.977 131.818L225.591 129.636H226.364ZM230.684 129.636L231.729 131.42L232.775 129.636H233.548L232.138 131.818L233.548 134H232.775L231.729 132.307L230.684 134H229.911L231.298 131.818L229.911 129.636H230.684ZM235.004 129.636L236.05 131.42L237.095 129.636H237.868L236.459 131.818L237.868 134H237.095L236.05 132.307L235.004 134H234.232L235.618 131.818L234.232 129.636H235.004ZM239.325 129.636L240.37 131.42L241.415 129.636H242.188L240.779 131.818L242.188 134H241.415L240.37 132.307L239.325 134H238.552L239.938 131.818L238.552 129.636H239.325ZM79.1136 137.636L80.1591 139.42L81.2045 137.636H81.9773L80.5682 139.818L81.9773 142H81.2045L80.1591 140.307L79.1136 142H78.3409L79.7273 139.818L78.3409 137.636H79.1136ZM83.4339 137.636L84.4794 139.42L85.5249 137.636H86.2976L84.8885 139.818L86.2976 142H85.5249L84.4794 140.307L83.4339 142H82.6612L84.0476 139.818L82.6612 137.636H83.4339ZM87.7543 137.636L88.7997 139.42L89.8452 137.636H90.6179L89.2088 139.818L90.6179 142H89.8452L88.7997 140.307L87.7543 142H86.9815L88.3679 139.818L86.9815 137.636H87.7543ZM92.0746 137.636L93.12 139.42L94.1655 137.636H94.9382L93.5291 139.818L94.9382 142H94.1655L93.12 140.307L92.0746 142H91.3018L92.6882 139.818L91.3018 137.636H92.0746ZM96.3949 137.636L97.4403 139.42L98.4858 137.636H99.2585L97.8494 139.818L99.2585 142H98.4858L97.4403 140.307L96.3949 142H95.6222L97.0085 139.818L95.6222 137.636H96.3949ZM102.965 137.636L104.011 139.42L105.056 137.636H105.829L104.42 139.818L105.829 142H105.056L104.011 140.307L102.965 142H102.192L103.579 139.818L102.192 137.636H102.965ZM107.286 137.636L108.331 139.42L109.376 137.636H110.149L108.74 139.818L110.149 142H109.376L108.331 140.307L107.286 142H106.513L107.899 139.818L106.513 137.636H107.286ZM111.606 137.636L112.651 139.42L113.697 137.636H114.469L113.06 139.818L114.469 142H113.697L112.651 140.307L111.606 142H110.833L112.219 139.818L110.833 137.636H111.606ZM115.926 137.636L116.972 139.42L118.017 137.636H118.79L117.381 139.818L118.79 142H118.017L116.972 140.307L115.926 142H115.153L116.54 139.818L115.153 137.636H115.926ZM120.246 137.636L121.292 139.42L122.337 137.636H123.11L121.701 139.818L123.11 142H122.337L121.292 140.307L120.246 142H119.474L120.86 139.818L119.474 137.636H120.246ZM124.567 137.636L125.612 139.42L126.658 137.636H127.43L126.021 139.818L127.43 142H126.658L125.612 140.307L124.567 142H123.794L125.18 139.818L123.794 137.636H124.567ZM128.887 137.636L129.933 139.42L130.978 137.636H131.751L130.342 139.818L131.751 142H130.978L129.933 140.307L128.887 142H128.114L129.501 139.818L128.114 137.636H128.887ZM135.457 137.636L136.503 139.42L137.548 137.636H138.321L136.912 139.818L138.321 142H137.548L136.503 140.307L135.457 142H134.685L136.071 139.818L134.685 137.636H135.457ZM139.778 137.636L140.823 139.42L141.869 137.636H142.641L141.232 139.818L142.641 142H141.869L140.823 140.307L139.778 142H139.005L140.391 139.818L139.005 137.636H139.778ZM144.098 137.636L145.143 139.42L146.189 137.636H146.962L145.553 139.818L146.962 142H146.189L145.143 140.307L144.098 142H143.325L144.712 139.818L143.325 137.636H144.098ZM148.418 137.636L149.464 139.42L150.509 137.636H151.282L149.873 139.818L151.282 142H150.509L149.464 140.307L148.418 142H147.646L149.032 139.818L147.646 137.636H148.418ZM152.739 137.636L153.784 139.42L154.83 137.636H155.602L154.193 139.818L155.602 142H154.83L153.784 140.307L152.739 142H151.966L153.352 139.818L151.966 137.636H152.739ZM157.059 137.636L158.104 139.42L159.15 137.636H159.923L158.513 139.818L159.923 142H159.15L158.104 140.307L157.059 142H156.286L157.673 139.818L156.286 137.636H157.059ZM161.379 137.636L162.425 139.42L163.47 137.636H164.243L162.834 139.818L164.243 142H163.47L162.425 140.307L161.379 142H160.607L161.993 139.818L160.607 137.636H161.379ZM165.7 137.636L166.745 139.42L167.79 137.636H168.563L167.154 139.818L168.563 142H167.79L166.745 140.307L165.7 142H164.927L166.313 139.818L164.927 137.636H165.7ZM170.02 137.636L171.065 139.42L172.111 137.636H172.884L171.474 139.818L172.884 142H172.111L171.065 140.307L170.02 142H169.247L170.634 139.818L169.247 137.636H170.02ZM174.34 137.636L175.386 139.42L176.431 137.636H177.204L175.795 139.818L177.204 142H176.431L175.386 140.307L174.34 142H173.567L174.954 139.818L173.567 137.636H174.34ZM180.911 137.636L181.956 139.42L183.001 137.636H183.774L182.365 139.818L183.774 142H183.001L181.956 140.307L180.911 142H180.138L181.524 139.818L180.138 137.636H180.911ZM185.231 137.636L186.276 139.42L187.322 137.636H188.094L186.685 139.818L188.094 142H187.322L186.276 140.307L185.231 142H184.458L185.844 139.818L184.458 137.636H185.231ZM189.551 137.636L190.597 139.42L191.642 137.636H192.415L191.006 139.818L192.415 142H191.642L190.597 140.307L189.551 142H188.778L190.165 139.818L188.778 137.636H189.551ZM193.871 137.636L194.917 139.42L195.962 137.636H196.735L195.326 139.818L196.735 142H195.962L194.917 140.307L193.871 142H193.099L194.485 139.818L193.099 137.636H193.871ZM198.192 137.636L199.237 139.42L200.283 137.636H201.055L199.646 139.818L201.055 142H200.283L199.237 140.307L198.192 142H197.419L198.805 139.818L197.419 137.636H198.192ZM202.512 137.636L203.558 139.42L204.603 137.636H205.376L203.967 139.818L205.376 142H204.603L203.558 140.307L202.512 142H201.739L203.126 139.818L201.739 137.636H202.512ZM206.832 137.636L207.878 139.42L208.923 137.636H209.696L208.287 139.818L209.696 142H208.923L207.878 140.307L206.832 142H206.06L207.446 139.818L206.06 137.636H206.832ZM211.153 137.636L212.198 139.42L213.244 137.636H214.016L212.607 139.818L214.016 142H213.244L212.198 140.307L211.153 142H210.38L211.766 139.818L210.38 137.636H211.153ZM215.473 137.636L216.518 139.42L217.564 137.636H218.337L216.928 139.818L218.337 142H217.564L216.518 140.307L215.473 142H214.7L216.087 139.818L214.7 137.636H215.473ZM222.043 137.636L223.089 139.42L224.134 137.636H224.907L223.498 139.818L224.907 142H224.134L223.089 140.307L222.043 142H221.271L222.657 139.818L221.271 137.636H222.043ZM226.364 137.636L227.409 139.42L228.455 137.636H229.227L227.818 139.818L229.227 142H228.455L227.409 140.307L226.364 142H225.591L226.977 139.818L225.591 137.636H226.364ZM230.684 137.636L231.729 139.42L232.775 137.636H233.548L232.138 139.818L233.548 142H232.775L231.729 140.307L230.684 142H229.911L231.298 139.818L229.911 137.636H230.684ZM235.004 137.636L236.05 139.42L237.095 137.636H237.868L236.459 139.818L237.868 142H237.095L236.05 140.307L235.004 142H234.232L235.618 139.818L234.232 137.636H235.004ZM239.325 137.636L240.37 139.42L241.415 137.636H242.188L240.779 139.818L242.188 142H241.415L240.37 140.307L239.325 142H238.552L239.938 139.818L238.552 137.636H239.325ZM79.1136 145.636L80.1591 147.42L81.2045 145.636H81.9773L80.5682 147.818L81.9773 150H81.2045L80.1591 148.307L79.1136 150H78.3409L79.7273 147.818L78.3409 145.636H79.1136ZM83.4339 145.636L84.4794 147.42L85.5249 145.636H86.2976L84.8885 147.818L86.2976 150H85.5249L84.4794 148.307L83.4339 150H82.6612L84.0476 147.818L82.6612 145.636H83.4339ZM87.7543 145.636L88.7997 147.42L89.8452 145.636H90.6179L89.2088 147.818L90.6179 150H89.8452L88.7997 148.307L87.7543 150H86.9815L88.3679 147.818L86.9815 145.636H87.7543ZM92.0746 145.636L93.12 147.42L94.1655 145.636H94.9382L93.5291 147.818L94.9382 150H94.1655L93.12 148.307L92.0746 150H91.3018L92.6882 147.818L91.3018 145.636H92.0746ZM96.3949 145.636L97.4403 147.42L98.4858 145.636H99.2585L97.8494 147.818L99.2585 150H98.4858L97.4403 148.307L96.3949 150H95.6222L97.0085 147.818L95.6222 145.636H96.3949ZM102.965 145.636L104.011 147.42L105.056 145.636H105.829L104.42 147.818L105.829 150H105.056L104.011 148.307L102.965 150H102.192L103.579 147.818L102.192 145.636H102.965ZM107.286 145.636L108.331 147.42L109.376 145.636H110.149L108.74 147.818L110.149 150H109.376L108.331 148.307L107.286 150H106.513L107.899 147.818L106.513 145.636H107.286ZM111.606 145.636L112.651 147.42L113.697 145.636H114.469L113.06 147.818L114.469 150H113.697L112.651 148.307L111.606 150H110.833L112.219 147.818L110.833 145.636H111.606ZM115.926 145.636L116.972 147.42L118.017 145.636H118.79L117.381 147.818L118.79 150H118.017L116.972 148.307L115.926 150H115.153L116.54 147.818L115.153 145.636H115.926ZM120.246 145.636L121.292 147.42L122.337 145.636H123.11L121.701 147.818L123.11 150H122.337L121.292 148.307L120.246 150H119.474L120.86 147.818L119.474 145.636H120.246ZM124.567 145.636L125.612 147.42L126.658 145.636H127.43L126.021 147.818L127.43 150H126.658L125.612 148.307L124.567 150H123.794L125.18 147.818L123.794 145.636H124.567ZM128.887 145.636L129.933 147.42L130.978 145.636H131.751L130.342 147.818L131.751 150H130.978L129.933 148.307L128.887 150H128.114L129.501 147.818L128.114 145.636H128.887ZM135.457 145.636L136.503 147.42L137.548 145.636H138.321L136.912 147.818L138.321 150H137.548L136.503 148.307L135.457 150H134.685L136.071 147.818L134.685 145.636H135.457ZM139.778 145.636L140.823 147.42L141.869 145.636H142.641L141.232 147.818L142.641 150H141.869L140.823 148.307L139.778 150H139.005L140.391 147.818L139.005 145.636H139.778ZM144.098 145.636L145.143 147.42L146.189 145.636H146.962L145.553 147.818L146.962 150H146.189L145.143 148.307L144.098 150H143.325L144.712 147.818L143.325 145.636H144.098ZM148.418 145.636L149.464 147.42L150.509 145.636H151.282L149.873 147.818L151.282 150H150.509L149.464 148.307L148.418 150H147.646L149.032 147.818L147.646 145.636H148.418ZM152.739 145.636L153.784 147.42L154.83 145.636H155.602L154.193 147.818L155.602 150H154.83L153.784 148.307L152.739 150H151.966L153.352 147.818L151.966 145.636H152.739ZM157.059 145.636L158.104 147.42L159.15 145.636H159.923L158.513 147.818L159.923 150H159.15L158.104 148.307L157.059 150H156.286L157.673 147.818L156.286 145.636H157.059ZM161.379 145.636L162.425 147.42L163.47 145.636H164.243L162.834 147.818L164.243 150H163.47L162.425 148.307L161.379 150H160.607L161.993 147.818L160.607 145.636H161.379ZM165.7 145.636L166.745 147.42L167.79 145.636H168.563L167.154 147.818L168.563 150H167.79L166.745 148.307L165.7 150H164.927L166.313 147.818L164.927 145.636H165.7ZM170.02 145.636L171.065 147.42L172.111 145.636H172.884L171.474 147.818L172.884 150H172.111L171.065 148.307L170.02 150H169.247L170.634 147.818L169.247 145.636H170.02ZM174.34 145.636L175.386 147.42L176.431 145.636H177.204L175.795 147.818L177.204 150H176.431L175.386 148.307L174.34 150H173.567L174.954 147.818L173.567 145.636H174.34ZM180.911 145.636L181.956 147.42L183.001 145.636H183.774L182.365 147.818L183.774 150H183.001L181.956 148.307L180.911 150H180.138L181.524 147.818L180.138 145.636H180.911ZM185.231 145.636L186.276 147.42L187.322 145.636H188.094L186.685 147.818L188.094 150H187.322L186.276 148.307L185.231 150H184.458L185.844 147.818L184.458 145.636H185.231ZM189.551 145.636L190.597 147.42L191.642 145.636H192.415L191.006 147.818L192.415 150H191.642L190.597 148.307L189.551 150H188.778L190.165 147.818L188.778 145.636H189.551ZM193.871 145.636L194.917 147.42L195.962 145.636H196.735L195.326 147.818L196.735 150H195.962L194.917 148.307L193.871 150H193.099L194.485 147.818L193.099 145.636H193.871ZM198.192 145.636L199.237 147.42L200.283 145.636H201.055L199.646 147.818L201.055 150H200.283L199.237 148.307L198.192 150H197.419L198.805 147.818L197.419 145.636H198.192ZM202.512 145.636L203.558 147.42L204.603 145.636H205.376L203.967 147.818L205.376 150H204.603L203.558 148.307L202.512 150H201.739L203.126 147.818L201.739 145.636H202.512ZM206.832 145.636L207.878 147.42L208.923 145.636H209.696L208.287 147.818L209.696 150H208.923L207.878 148.307L206.832 150H206.06L207.446 147.818L206.06 145.636H206.832ZM211.153 145.636L212.198 147.42L213.244 145.636H214.016L212.607 147.818L214.016 150H213.244L212.198 148.307L211.153 150H210.38L211.766 147.818L210.38 145.636H211.153ZM215.473 145.636L216.518 147.42L217.564 145.636H218.337L216.928 147.818L218.337 150H217.564L216.518 148.307L215.473 150H214.7L216.087 147.818L214.7 145.636H215.473ZM222.043 145.636L223.089 147.42L224.134 145.636H224.907L223.498 147.818L224.907 150H224.134L223.089 148.307L222.043 150H221.271L222.657 147.818L221.271 145.636H222.043ZM226.364 145.636L227.409 147.42L228.455 145.636H229.227L227.818 147.818L229.227 150H228.455L227.409 148.307L226.364 150H225.591L226.977 147.818L225.591 145.636H226.364ZM230.684 145.636L231.729 147.42L232.775 145.636H233.548L232.138 147.818L233.548 150H232.775L231.729 148.307L230.684 150H229.911L231.298 147.818L229.911 145.636H230.684ZM235.004 145.636L236.05 147.42L237.095 145.636H237.868L236.459 147.818L237.868 150H237.095L236.05 148.307L235.004 150H234.232L235.618 147.818L234.232 145.636H235.004ZM239.325 145.636L240.37 147.42L241.415 145.636H242.188L240.779 147.818L242.188 150H241.415L240.37 148.307L239.325 150H238.552L239.938 147.818L238.552 145.636H239.325ZM79.1136 153.636L80.1591 155.42L81.2045 153.636H81.9773L80.5682 155.818L81.9773 158H81.2045L80.1591 156.307L79.1136 158H78.3409L79.7273 155.818L78.3409 153.636H79.1136ZM83.4339 153.636L84.4794 155.42L85.5249 153.636H86.2976L84.8885 155.818L86.2976 158H85.5249L84.4794 156.307L83.4339 158H82.6612L84.0476 155.818L82.6612 153.636H83.4339ZM87.7543 153.636L88.7997 155.42L89.8452 153.636H90.6179L89.2088 155.818L90.6179 158H89.8452L88.7997 156.307L87.7543 158H86.9815L88.3679 155.818L86.9815 153.636H87.7543ZM92.0746 153.636L93.12 155.42L94.1655 153.636H94.9382L93.5291 155.818L94.9382 158H94.1655L93.12 156.307L92.0746 158H91.3018L92.6882 155.818L91.3018 153.636H92.0746ZM96.3949 153.636L97.4403 155.42L98.4858 153.636H99.2585L97.8494 155.818L99.2585 158H98.4858L97.4403 156.307L96.3949 158H95.6222L97.0085 155.818L95.6222 153.636H96.3949ZM102.965 153.636L104.011 155.42L105.056 153.636H105.829L104.42 155.818L105.829 158H105.056L104.011 156.307L102.965 158H102.192L103.579 155.818L102.192 153.636H102.965ZM107.286 153.636L108.331 155.42L109.376 153.636H110.149L108.74 155.818L110.149 158H109.376L108.331 156.307L107.286 158H106.513L107.899 155.818L106.513 153.636H107.286ZM111.606 153.636L112.651 155.42L113.697 153.636H114.469L113.06 155.818L114.469 158H113.697L112.651 156.307L111.606 158H110.833L112.219 155.818L110.833 153.636H111.606ZM115.926 153.636L116.972 155.42L118.017 153.636H118.79L117.381 155.818L118.79 158H118.017L116.972 156.307L115.926 158H115.153L116.54 155.818L115.153 153.636H115.926ZM120.246 153.636L121.292 155.42L122.337 153.636H123.11L121.701 155.818L123.11 158H122.337L121.292 156.307L120.246 158H119.474L120.86 155.818L119.474 153.636H120.246ZM124.567 153.636L125.612 155.42L126.658 153.636H127.43L126.021 155.818L127.43 158H126.658L125.612 156.307L124.567 158H123.794L125.18 155.818L123.794 153.636H124.567ZM128.887 153.636L129.933 155.42L130.978 153.636H131.751L130.342 155.818L131.751 158H130.978L129.933 156.307L128.887 158H128.114L129.501 155.818L128.114 153.636H128.887ZM135.457 153.636L136.503 155.42L137.548 153.636H138.321L136.912 155.818L138.321 158H137.548L136.503 156.307L135.457 158H134.685L136.071 155.818L134.685 153.636H135.457ZM139.778 153.636L140.823 155.42L141.869 153.636H142.641L141.232 155.818L142.641 158H141.869L140.823 156.307L139.778 158H139.005L140.391 155.818L139.005 153.636H139.778ZM144.098 153.636L145.143 155.42L146.189 153.636H146.962L145.553 155.818L146.962 158H146.189L145.143 156.307L144.098 158H143.325L144.712 155.818L143.325 153.636H144.098ZM148.418 153.636L149.464 155.42L150.509 153.636H151.282L149.873 155.818L151.282 158H150.509L149.464 156.307L148.418 158H147.646L149.032 155.818L147.646 153.636H148.418ZM152.739 153.636L153.784 155.42L154.83 153.636H155.602L154.193 155.818L155.602 158H154.83L153.784 156.307L152.739 158H151.966L153.352 155.818L151.966 153.636H152.739ZM157.059 153.636L158.104 155.42L159.15 153.636H159.923L158.513 155.818L159.923 158H159.15L158.104 156.307L157.059 158H156.286L157.673 155.818L156.286 153.636H157.059ZM161.379 153.636L162.425 155.42L163.47 153.636H164.243L162.834 155.818L164.243 158H163.47L162.425 156.307L161.379 158H160.607L161.993 155.818L160.607 153.636H161.379ZM165.7 153.636L166.745 155.42L167.79 153.636H168.563L167.154 155.818L168.563 158H167.79L166.745 156.307L165.7 158H164.927L166.313 155.818L164.927 153.636H165.7ZM170.02 153.636L171.065 155.42L172.111 153.636H172.884L171.474 155.818L172.884 158H172.111L171.065 156.307L170.02 158H169.247L170.634 155.818L169.247 153.636H170.02ZM174.34 153.636L175.386 155.42L176.431 153.636H177.204L175.795 155.818L177.204 158H176.431L175.386 156.307L174.34 158H173.567L174.954 155.818L173.567 153.636H174.34ZM180.911 153.636L181.956 155.42L183.001 153.636H183.774L182.365 155.818L183.774 158H183.001L181.956 156.307L180.911 158H180.138L181.524 155.818L180.138 153.636H180.911ZM185.231 153.636L186.276 155.42L187.322 153.636H188.094L186.685 155.818L188.094 158H187.322L186.276 156.307L185.231 158H184.458L185.844 155.818L184.458 153.636H185.231ZM189.551 153.636L190.597 155.42L191.642 153.636H192.415L191.006 155.818L192.415 158H191.642L190.597 156.307L189.551 158H188.778L190.165 155.818L188.778 153.636H189.551ZM193.871 153.636L194.917 155.42L195.962 153.636H196.735L195.326 155.818L196.735 158H195.962L194.917 156.307L193.871 158H193.099L194.485 155.818L193.099 153.636H193.871ZM198.192 153.636L199.237 155.42L200.283 153.636H201.055L199.646 155.818L201.055 158H200.283L199.237 156.307L198.192 158H197.419L198.805 155.818L197.419 153.636H198.192ZM202.512 153.636L203.558 155.42L204.603 153.636H205.376L203.967 155.818L205.376 158H204.603L203.558 156.307L202.512 158H201.739L203.126 155.818L201.739 153.636H202.512ZM206.832 153.636L207.878 155.42L208.923 153.636H209.696L208.287 155.818L209.696 158H208.923L207.878 156.307L206.832 158H206.06L207.446 155.818L206.06 153.636H206.832ZM211.153 153.636L212.198 155.42L213.244 153.636H214.016L212.607 155.818L214.016 158H213.244L212.198 156.307L211.153 158H210.38L211.766 155.818L210.38 153.636H211.153ZM215.473 153.636L216.518 155.42L217.564 153.636H218.337L216.928 155.818L218.337 158H217.564L216.518 156.307L215.473 158H214.7L216.087 155.818L214.7 153.636H215.473ZM222.043 153.636L223.089 155.42L224.134 153.636H224.907L223.498 155.818L224.907 158H224.134L223.089 156.307L222.043 158H221.271L222.657 155.818L221.271 153.636H222.043ZM226.364 153.636L227.409 155.42L228.455 153.636H229.227L227.818 155.818L229.227 158H228.455L227.409 156.307L226.364 158H225.591L226.977 155.818L225.591 153.636H226.364ZM230.684 153.636L231.729 155.42L232.775 153.636H233.548L232.138 155.818L233.548 158H232.775L231.729 156.307L230.684 158H229.911L231.298 155.818L229.911 153.636H230.684ZM235.004 153.636L236.05 155.42L237.095 153.636H237.868L236.459 155.818L237.868 158H237.095L236.05 156.307L235.004 158H234.232L235.618 155.818L234.232 153.636H235.004ZM239.325 153.636L240.37 155.42L241.415 153.636H242.188L240.779 155.818L242.188 158H241.415L240.37 156.307L239.325 158H238.552L239.938 155.818L238.552 153.636H239.325ZM79.1136 161.636L80.1591 163.42L81.2045 161.636H81.9773L80.5682 163.818L81.9773 166H81.2045L80.1591 164.307L79.1136 166H78.3409L79.7273 163.818L78.3409 161.636H79.1136ZM83.4339 161.636L84.4794 163.42L85.5249 161.636H86.2976L84.8885 163.818L86.2976 166H85.5249L84.4794 164.307L83.4339 166H82.6612L84.0476 163.818L82.6612 161.636H83.4339ZM87.7543 161.636L88.7997 163.42L89.8452 161.636H90.6179L89.2088 163.818L90.6179 166H89.8452L88.7997 164.307L87.7543 166H86.9815L88.3679 163.818L86.9815 161.636H87.7543ZM92.0746 161.636L93.12 163.42L94.1655 161.636H94.9382L93.5291 163.818L94.9382 166H94.1655L93.12 164.307L92.0746 166H91.3018L92.6882 163.818L91.3018 161.636H92.0746ZM96.3949 161.636L97.4403 163.42L98.4858 161.636H99.2585L97.8494 163.818L99.2585 166H98.4858L97.4403 164.307L96.3949 166H95.6222L97.0085 163.818L95.6222 161.636H96.3949ZM102.965 161.636L104.011 163.42L105.056 161.636H105.829L104.42 163.818L105.829 166H105.056L104.011 164.307L102.965 166H102.192L103.579 163.818L102.192 161.636H102.965ZM107.286 161.636L108.331 163.42L109.376 161.636H110.149L108.74 163.818L110.149 166H109.376L108.331 164.307L107.286 166H106.513L107.899 163.818L106.513 161.636H107.286ZM111.606 161.636L112.651 163.42L113.697 161.636H114.469L113.06 163.818L114.469 166H113.697L112.651 164.307L111.606 166H110.833L112.219 163.818L110.833 161.636H111.606ZM115.926 161.636L116.972 163.42L118.017 161.636H118.79L117.381 163.818L118.79 166H118.017L116.972 164.307L115.926 166H115.153L116.54 163.818L115.153 161.636H115.926ZM120.246 161.636L121.292 163.42L122.337 161.636H123.11L121.701 163.818L123.11 166H122.337L121.292 164.307L120.246 166H119.474L120.86 163.818L119.474 161.636H120.246ZM124.567 161.636L125.612 163.42L126.658 161.636H127.43L126.021 163.818L127.43 166H126.658L125.612 164.307L124.567 166H123.794L125.18 163.818L123.794 161.636H124.567ZM128.887 161.636L129.933 163.42L130.978 161.636H131.751L130.342 163.818L131.751 166H130.978L129.933 164.307L128.887 166H128.114L129.501 163.818L128.114 161.636H128.887ZM135.457 161.636L136.503 163.42L137.548 161.636H138.321L136.912 163.818L138.321 166H137.548L136.503 164.307L135.457 166H134.685L136.071 163.818L134.685 161.636H135.457ZM139.778 161.636L140.823 163.42L141.869 161.636H142.641L141.232 163.818L142.641 166H141.869L140.823 164.307L139.778 166H139.005L140.391 163.818L139.005 161.636H139.778ZM144.098 161.636L145.143 163.42L146.189 161.636H146.962L145.553 163.818L146.962 166H146.189L145.143 164.307L144.098 166H143.325L144.712 163.818L143.325 161.636H144.098ZM148.418 161.636L149.464 163.42L150.509 161.636H151.282L149.873 163.818L151.282 166H150.509L149.464 164.307L148.418 166H147.646L149.032 163.818L147.646 161.636H148.418ZM152.739 161.636L153.784 163.42L154.83 161.636H155.602L154.193 163.818L155.602 166H154.83L153.784 164.307L152.739 166H151.966L153.352 163.818L151.966 161.636H152.739ZM157.059 161.636L158.104 163.42L159.15 161.636H159.923L158.513 163.818L159.923 166H159.15L158.104 164.307L157.059 166H156.286L157.673 163.818L156.286 161.636H157.059ZM161.379 161.636L162.425 163.42L163.47 161.636H164.243L162.834 163.818L164.243 166H163.47L162.425 164.307L161.379 166H160.607L161.993 163.818L160.607 161.636H161.379ZM165.7 161.636L166.745 163.42L167.79 161.636H168.563L167.154 163.818L168.563 166H167.79L166.745 164.307L165.7 166H164.927L166.313 163.818L164.927 161.636H165.7ZM170.02 161.636L171.065 163.42L172.111 161.636H172.884L171.474 163.818L172.884 166H172.111L171.065 164.307L170.02 166H169.247L170.634 163.818L169.247 161.636H170.02ZM174.34 161.636L175.386 163.42L176.431 161.636H177.204L175.795 163.818L177.204 166H176.431L175.386 164.307L174.34 166H173.567L174.954 163.818L173.567 161.636H174.34ZM180.911 161.636L181.956 163.42L183.001 161.636H183.774L182.365 163.818L183.774 166H183.001L181.956 164.307L180.911 166H180.138L181.524 163.818L180.138 161.636H180.911ZM185.231 161.636L186.276 163.42L187.322 161.636H188.094L186.685 163.818L188.094 166H187.322L186.276 164.307L185.231 166H184.458L185.844 163.818L184.458 161.636H185.231ZM189.551 161.636L190.597 163.42L191.642 161.636H192.415L191.006 163.818L192.415 166H191.642L190.597 164.307L189.551 166H188.778L190.165 163.818L188.778 161.636H189.551ZM193.871 161.636L194.917 163.42L195.962 161.636H196.735L195.326 163.818L196.735 166H195.962L194.917 164.307L193.871 166H193.099L194.485 163.818L193.099 161.636H193.871ZM198.192 161.636L199.237 163.42L200.283 161.636H201.055L199.646 163.818L201.055 166H200.283L199.237 164.307L198.192 166H197.419L198.805 163.818L197.419 161.636H198.192ZM202.512 161.636L203.558 163.42L204.603 161.636H205.376L203.967 163.818L205.376 166H204.603L203.558 164.307L202.512 166H201.739L203.126 163.818L201.739 161.636H202.512ZM206.832 161.636L207.878 163.42L208.923 161.636H209.696L208.287 163.818L209.696 166H208.923L207.878 164.307L206.832 166H206.06L207.446 163.818L206.06 161.636H206.832ZM211.153 161.636L212.198 163.42L213.244 161.636H214.016L212.607 163.818L214.016 166H213.244L212.198 164.307L211.153 166H210.38L211.766 163.818L210.38 161.636H211.153ZM215.473 161.636L216.518 163.42L217.564 161.636H218.337L216.928 163.818L218.337 166H217.564L216.518 164.307L215.473 166H214.7L216.087 163.818L214.7 161.636H215.473ZM222.043 161.636L223.089 163.42L224.134 161.636H224.907L223.498 163.818L224.907 166H224.134L223.089 164.307L222.043 166H221.271L222.657 163.818L221.271 161.636H222.043ZM226.364 161.636L227.409 163.42L228.455 161.636H229.227L227.818 163.818L229.227 166H228.455L227.409 164.307L226.364 166H225.591L226.977 163.818L225.591 161.636H226.364ZM230.684 161.636L231.729 163.42L232.775 161.636H233.548L232.138 163.818L233.548 166H232.775L231.729 164.307L230.684 166H229.911L231.298 163.818L229.911 161.636H230.684ZM235.004 161.636L236.05 163.42L237.095 161.636H237.868L236.459 163.818L237.868 166H237.095L236.05 164.307L235.004 166H234.232L235.618 163.818L234.232 161.636H235.004ZM239.325 161.636L240.37 163.42L241.415 161.636H242.188L240.779 163.818L242.188 166H241.415L240.37 164.307L239.325 166H238.552L239.938 163.818L238.552 161.636H239.325ZM79.1136 169.636L80.1591 171.42L81.2045 169.636H81.9773L80.5682 171.818L81.9773 174H81.2045L80.1591 172.307L79.1136 174H78.3409L79.7273 171.818L78.3409 169.636H79.1136ZM83.4339 169.636L84.4794 171.42L85.5249 169.636H86.2976L84.8885 171.818L86.2976 174H85.5249L84.4794 172.307L83.4339 174H82.6612L84.0476 171.818L82.6612 169.636H83.4339ZM87.7543 169.636L88.7997 171.42L89.8452 169.636H90.6179L89.2088 171.818L90.6179 174H89.8452L88.7997 172.307L87.7543 174H86.9815L88.3679 171.818L86.9815 169.636H87.7543ZM92.0746 169.636L93.12 171.42L94.1655 169.636H94.9382L93.5291 171.818L94.9382 174H94.1655L93.12 172.307L92.0746 174H91.3018L92.6882 171.818L91.3018 169.636H92.0746ZM96.3949 169.636L97.4403 171.42L98.4858 169.636H99.2585L97.8494 171.818L99.2585 174H98.4858L97.4403 172.307L96.3949 174H95.6222L97.0085 171.818L95.6222 169.636H96.3949ZM102.965 169.636L104.011 171.42L105.056 169.636H105.829L104.42 171.818L105.829 174H105.056L104.011 172.307L102.965 174H102.192L103.579 171.818L102.192 169.636H102.965ZM107.286 169.636L108.331 171.42L109.376 169.636H110.149L108.74 171.818L110.149 174H109.376L108.331 172.307L107.286 174H106.513L107.899 171.818L106.513 169.636H107.286ZM111.606 169.636L112.651 171.42L113.697 169.636H114.469L113.06 171.818L114.469 174H113.697L112.651 172.307L111.606 174H110.833L112.219 171.818L110.833 169.636H111.606ZM115.926 169.636L116.972 171.42L118.017 169.636H118.79L117.381 171.818L118.79 174H118.017L116.972 172.307L115.926 174H115.153L116.54 171.818L115.153 169.636H115.926ZM120.246 169.636L121.292 171.42L122.337 169.636H123.11L121.701 171.818L123.11 174H122.337L121.292 172.307L120.246 174H119.474L120.86 171.818L119.474 169.636H120.246ZM124.567 169.636L125.612 171.42L126.658 169.636H127.43L126.021 171.818L127.43 174H126.658L125.612 172.307L124.567 174H123.794L125.18 171.818L123.794 169.636H124.567ZM128.887 169.636L129.933 171.42L130.978 169.636H131.751L130.342 171.818L131.751 174H130.978L129.933 172.307L128.887 174H128.114L129.501 171.818L128.114 169.636H128.887ZM135.457 169.636L136.503 171.42L137.548 169.636H138.321L136.912 171.818L138.321 174H137.548L136.503 172.307L135.457 174H134.685L136.071 171.818L134.685 169.636H135.457ZM139.778 169.636L140.823 171.42L141.869 169.636H142.641L141.232 171.818L142.641 174H141.869L140.823 172.307L139.778 174H139.005L140.391 171.818L139.005 169.636H139.778ZM144.098 169.636L145.143 171.42L146.189 169.636H146.962L145.553 171.818L146.962 174H146.189L145.143 172.307L144.098 174H143.325L144.712 171.818L143.325 169.636H144.098ZM148.418 169.636L149.464 171.42L150.509 169.636H151.282L149.873 171.818L151.282 174H150.509L149.464 172.307L148.418 174H147.646L149.032 171.818L147.646 169.636H148.418ZM152.739 169.636L153.784 171.42L154.83 169.636H155.602L154.193 171.818L155.602 174H154.83L153.784 172.307L152.739 174H151.966L153.352 171.818L151.966 169.636H152.739ZM157.059 169.636L158.104 171.42L159.15 169.636H159.923L158.513 171.818L159.923 174H159.15L158.104 172.307L157.059 174H156.286L157.673 171.818L156.286 169.636H157.059ZM161.379 169.636L162.425 171.42L163.47 169.636H164.243L162.834 171.818L164.243 174H163.47L162.425 172.307L161.379 174H160.607L161.993 171.818L160.607 169.636H161.379ZM165.7 169.636L166.745 171.42L167.79 169.636H168.563L167.154 171.818L168.563 174H167.79L166.745 172.307L165.7 174H164.927L166.313 171.818L164.927 169.636H165.7ZM170.02 169.636L171.065 171.42L172.111 169.636H172.884L171.474 171.818L172.884 174H172.111L171.065 172.307L170.02 174H169.247L170.634 171.818L169.247 169.636H170.02ZM174.34 169.636L175.386 171.42L176.431 169.636H177.204L175.795 171.818L177.204 174H176.431L175.386 172.307L174.34 174H173.567L174.954 171.818L173.567 169.636H174.34ZM180.911 169.636L181.956 171.42L183.001 169.636H183.774L182.365 171.818L183.774 174H183.001L181.956 172.307L180.911 174H180.138L181.524 171.818L180.138 169.636H180.911ZM185.231 169.636L186.276 171.42L187.322 169.636H188.094L186.685 171.818L188.094 174H187.322L186.276 172.307L185.231 174H184.458L185.844 171.818L184.458 169.636H185.231ZM189.551 169.636L190.597 171.42L191.642 169.636H192.415L191.006 171.818L192.415 174H191.642L190.597 172.307L189.551 174H188.778L190.165 171.818L188.778 169.636H189.551ZM193.871 169.636L194.917 171.42L195.962 169.636H196.735L195.326 171.818L196.735 174H195.962L194.917 172.307L193.871 174H193.099L194.485 171.818L193.099 169.636H193.871ZM198.192 169.636L199.237 171.42L200.283 169.636H201.055L199.646 171.818L201.055 174H200.283L199.237 172.307L198.192 174H197.419L198.805 171.818L197.419 169.636H198.192ZM202.512 169.636L203.558 171.42L204.603 169.636H205.376L203.967 171.818L205.376 174H204.603L203.558 172.307L202.512 174H201.739L203.126 171.818L201.739 169.636H202.512ZM206.832 169.636L207.878 171.42L208.923 169.636H209.696L208.287 171.818L209.696 174H208.923L207.878 172.307L206.832 174H206.06L207.446 171.818L206.06 169.636H206.832ZM211.153 169.636L212.198 171.42L213.244 169.636H214.016L212.607 171.818L214.016 174H213.244L212.198 172.307L211.153 174H210.38L211.766 171.818L210.38 169.636H211.153ZM215.473 169.636L216.518 171.42L217.564 169.636H218.337L216.928 171.818L218.337 174H217.564L216.518 172.307L215.473 174H214.7L216.087 171.818L214.7 169.636H215.473ZM222.043 169.636L223.089 171.42L224.134 169.636H224.907L223.498 171.818L224.907 174H224.134L223.089 172.307L222.043 174H221.271L222.657 171.818L221.271 169.636H222.043ZM226.364 169.636L227.409 171.42L228.455 169.636H229.227L227.818 171.818L229.227 174H228.455L227.409 172.307L226.364 174H225.591L226.977 171.818L225.591 169.636H226.364ZM230.684 169.636L231.729 171.42L232.775 169.636H233.548L232.138 171.818L233.548 174H232.775L231.729 172.307L230.684 174H229.911L231.298 171.818L229.911 169.636H230.684ZM235.004 169.636L236.05 171.42L237.095 169.636H237.868L236.459 171.818L237.868 174H237.095L236.05 172.307L235.004 174H234.232L235.618 171.818L234.232 169.636H235.004ZM239.325 169.636L240.37 171.42L241.415 169.636H242.188L240.779 171.818L242.188 174H241.415L240.37 172.307L239.325 174H238.552L239.938 171.818L238.552 169.636H239.325ZM79.1136 177.636L80.1591 179.42L81.2045 177.636H81.9773L80.5682 179.818L81.9773 182H81.2045L80.1591 180.307L79.1136 182H78.3409L79.7273 179.818L78.3409 177.636H79.1136ZM83.4339 177.636L84.4794 179.42L85.5249 177.636H86.2976L84.8885 179.818L86.2976 182H85.5249L84.4794 180.307L83.4339 182H82.6612L84.0476 179.818L82.6612 177.636H83.4339ZM87.7543 177.636L88.7997 179.42L89.8452 177.636H90.6179L89.2088 179.818L90.6179 182H89.8452L88.7997 180.307L87.7543 182H86.9815L88.3679 179.818L86.9815 177.636H87.7543ZM92.0746 177.636L93.12 179.42L94.1655 177.636H94.9382L93.5291 179.818L94.9382 182H94.1655L93.12 180.307L92.0746 182H91.3018L92.6882 179.818L91.3018 177.636H92.0746ZM96.3949 177.636L97.4403 179.42L98.4858 177.636H99.2585L97.8494 179.818L99.2585 182H98.4858L97.4403 180.307L96.3949 182H95.6222L97.0085 179.818L95.6222 177.636H96.3949ZM102.965 177.636L104.011 179.42L105.056 177.636H105.829L104.42 179.818L105.829 182H105.056L104.011 180.307L102.965 182H102.192L103.579 179.818L102.192 177.636H102.965ZM107.286 177.636L108.331 179.42L109.376 177.636H110.149L108.74 179.818L110.149 182H109.376L108.331 180.307L107.286 182H106.513L107.899 179.818L106.513 177.636H107.286ZM111.606 177.636L112.651 179.42L113.697 177.636H114.469L113.06 179.818L114.469 182H113.697L112.651 180.307L111.606 182H110.833L112.219 179.818L110.833 177.636H111.606ZM115.926 177.636L116.972 179.42L118.017 177.636H118.79L117.381 179.818L118.79 182H118.017L116.972 180.307L115.926 182H115.153L116.54 179.818L115.153 177.636H115.926ZM120.246 177.636L121.292 179.42L122.337 177.636H123.11L121.701 179.818L123.11 182H122.337L121.292 180.307L120.246 182H119.474L120.86 179.818L119.474 177.636H120.246ZM124.567 177.636L125.612 179.42L126.658 177.636H127.43L126.021 179.818L127.43 182H126.658L125.612 180.307L124.567 182H123.794L125.18 179.818L123.794 177.636H124.567ZM128.887 177.636L129.933 179.42L130.978 177.636H131.751L130.342 179.818L131.751 182H130.978L129.933 180.307L128.887 182H128.114L129.501 179.818L128.114 177.636H128.887ZM135.457 177.636L136.503 179.42L137.548 177.636H138.321L136.912 179.818L138.321 182H137.548L136.503 180.307L135.457 182H134.685L136.071 179.818L134.685 177.636H135.457ZM139.778 177.636L140.823 179.42L141.869 177.636H142.641L141.232 179.818L142.641 182H141.869L140.823 180.307L139.778 182H139.005L140.391 179.818L139.005 177.636H139.778ZM144.098 177.636L145.143 179.42L146.189 177.636H146.962L145.553 179.818L146.962 182H146.189L145.143 180.307L144.098 182H143.325L144.712 179.818L143.325 177.636H144.098ZM148.418 177.636L149.464 179.42L150.509 177.636H151.282L149.873 179.818L151.282 182H150.509L149.464 180.307L148.418 182H147.646L149.032 179.818L147.646 177.636H148.418ZM152.739 177.636L153.784 179.42L154.83 177.636H155.602L154.193 179.818L155.602 182H154.83L153.784 180.307L152.739 182H151.966L153.352 179.818L151.966 177.636H152.739ZM157.059 177.636L158.104 179.42L159.15 177.636H159.923L158.513 179.818L159.923 182H159.15L158.104 180.307L157.059 182H156.286L157.673 179.818L156.286 177.636H157.059ZM161.379 177.636L162.425 179.42L163.47 177.636H164.243L162.834 179.818L164.243 182H163.47L162.425 180.307L161.379 182H160.607L161.993 179.818L160.607 177.636H161.379ZM165.7 177.636L166.745 179.42L167.79 177.636H168.563L167.154 179.818L168.563 182H167.79L166.745 180.307L165.7 182H164.927L166.313 179.818L164.927 177.636H165.7ZM170.02 177.636L171.065 179.42L172.111 177.636H172.884L171.474 179.818L172.884 182H172.111L171.065 180.307L170.02 182H169.247L170.634 179.818L169.247 177.636H170.02ZM174.34 177.636L175.386 179.42L176.431 177.636H177.204L175.795 179.818L177.204 182H176.431L175.386 180.307L174.34 182H173.567L174.954 179.818L173.567 177.636H174.34ZM180.911 177.636L181.956 179.42L183.001 177.636H183.774L182.365 179.818L183.774 182H183.001L181.956 180.307L180.911 182H180.138L181.524 179.818L180.138 177.636H180.911ZM185.231 177.636L186.276 179.42L187.322 177.636H188.094L186.685 179.818L188.094 182H187.322L186.276 180.307L185.231 182H184.458L185.844 179.818L184.458 177.636H185.231ZM189.551 177.636L190.597 179.42L191.642 177.636H192.415L191.006 179.818L192.415 182H191.642L190.597 180.307L189.551 182H188.778L190.165 179.818L188.778 177.636H189.551ZM193.871 177.636L194.917 179.42L195.962 177.636H196.735L195.326 179.818L196.735 182H195.962L194.917 180.307L193.871 182H193.099L194.485 179.818L193.099 177.636H193.871ZM198.192 177.636L199.237 179.42L200.283 177.636H201.055L199.646 179.818L201.055 182H200.283L199.237 180.307L198.192 182H197.419L198.805 179.818L197.419 177.636H198.192ZM202.512 177.636L203.558 179.42L204.603 177.636H205.376L203.967 179.818L205.376 182H204.603L203.558 180.307L202.512 182H201.739L203.126 179.818L201.739 177.636H202.512ZM206.832 177.636L207.878 179.42L208.923 177.636H209.696L208.287 179.818L209.696 182H208.923L207.878 180.307L206.832 182H206.06L207.446 179.818L206.06 177.636H206.832ZM211.153 177.636L212.198 179.42L213.244 177.636H214.016L212.607 179.818L214.016 182H213.244L212.198 180.307L211.153 182H210.38L211.766 179.818L210.38 177.636H211.153ZM215.473 177.636L216.518 179.42L217.564 177.636H218.337L216.928 179.818L218.337 182H217.564L216.518 180.307L215.473 182H214.7L216.087 179.818L214.7 177.636H215.473ZM222.043 177.636L223.089 179.42L224.134 177.636H224.907L223.498 179.818L224.907 182H224.134L223.089 180.307L222.043 182H221.271L222.657 179.818L221.271 177.636H222.043ZM226.364 177.636L227.409 179.42L228.455 177.636H229.227L227.818 179.818L229.227 182H228.455L227.409 180.307L226.364 182H225.591L226.977 179.818L225.591 177.636H226.364ZM230.684 177.636L231.729 179.42L232.775 177.636H233.548L232.138 179.818L233.548 182H232.775L231.729 180.307L230.684 182H229.911L231.298 179.818L229.911 177.636H230.684ZM235.004 177.636L236.05 179.42L237.095 177.636H237.868L236.459 179.818L237.868 182H237.095L236.05 180.307L235.004 182H234.232L235.618 179.818L234.232 177.636H235.004ZM239.325 177.636L240.37 179.42L241.415 177.636H242.188L240.779 179.818L242.188 182H241.415L240.37 180.307L239.325 182H238.552L239.938 179.818L238.552 177.636H239.325Z" fill="#7C512E"/>
<defs>
<clipPath id="clip0_2114_145">
<rect width="178" height="178" fill="white" transform="translate(71 71)"/>
</clipPath>
</defs>
</svg>
