<svg width="320" height="320" viewBox="0 0 320 320" fill="none" xmlns="http://www.w3.org/2000/svg">
<rect width="320" height="320" fill="#EFE2C1"/>
<path d="M248.5 115.974V219.053C248.5 220.108 247.963 221.257 246.817 222.48C245.674 223.7 243.965 224.949 241.725 226.194C237.249 228.681 230.741 231.099 222.664 233.218C206.516 237.453 184.184 240.466 159.5 240.466C134.816 240.466 112.484 237.453 96.3365 233.218C88.2592 231.099 81.7514 228.681 77.2746 226.194C75.035 224.949 73.3259 223.7 72.1827 222.48C71.0371 221.257 70.5 220.108 70.5 219.053V115.974C70.5 114.993 71.0216 113.972 72.1579 112.918C73.2936 111.864 74.9967 110.825 77.2364 109.82C81.7123 107.812 88.2207 105.993 96.3028 104.46C112.459 101.397 134.801 99.5 159.5 99.5C184.199 99.5 206.541 101.397 222.697 104.46C230.779 105.993 237.288 107.812 241.764 109.82C244.003 110.825 245.706 111.864 246.842 112.918C247.978 113.972 248.5 114.993 248.5 115.974Z" fill="#CEB57E" stroke="#86766A"/>
<path d="M248.5 98.5C248.5 99.6798 247.954 100.878 246.817 102.088C245.679 103.3 243.975 104.493 241.738 105.646C237.265 107.95 230.76 110.04 222.68 111.8C206.528 115.319 184.19 117.5 159.5 117.5C134.81 117.5 112.472 115.319 96.3204 111.8C88.2403 110.04 81.7352 107.95 77.2623 105.646C75.0252 104.493 73.3214 103.3 72.1828 102.088C71.0464 100.878 70.5 99.6798 70.5 98.5C70.5 97.3202 71.0464 96.1223 72.1828 94.9124C73.3214 93.7001 75.0252 92.5066 77.2623 91.3542C81.7352 89.0501 88.2403 86.9604 96.3204 85.2C112.472 81.6808 134.81 79.5 159.5 79.5C184.19 79.5 206.528 81.6808 222.68 85.2C230.76 86.9604 237.265 89.0501 241.738 91.3542C243.975 92.5066 245.679 93.7001 246.817 94.9124C247.954 96.1223 248.5 97.3202 248.5 98.5Z" fill="#CEB57E" stroke="#86766A"/>
<path d="M237.5 97.5C237.5 98.1375 237.099 98.8514 236.116 99.6265C235.141 100.395 233.672 101.159 231.732 101.898C227.857 103.376 222.221 104.716 215.221 105.845C201.23 108.102 181.883 109.5 160.5 109.5C139.117 109.5 119.77 108.102 105.779 105.845C98.7793 104.716 93.1433 103.376 89.2685 101.898C87.3284 101.159 85.8592 100.395 84.884 99.6265C83.9006 98.8514 83.5 98.1375 83.5 97.5C83.5 96.8625 83.9006 96.1486 84.884 95.3735C85.8592 94.6049 87.3284 93.8414 89.2685 93.1016C93.1433 91.624 98.7793 90.2837 105.779 89.1548C119.77 86.8981 139.117 85.5 160.5 85.5C181.883 85.5 201.23 86.8981 215.221 89.1548C222.221 90.2837 227.857 91.624 231.732 93.1016C233.672 93.8414 235.141 94.6049 236.116 95.3735C237.099 96.1486 237.5 96.8625 237.5 97.5Z" fill="#CEB57E" stroke="#86766A"/>
<path d="M247.554 101.442C247.917 101.038 248.234 100.626 248.5 100.205V126.63C248.5 127.878 247.947 129.138 246.81 130.403C245.671 131.672 243.967 132.919 241.731 134.122C237.26 136.529 230.758 138.711 222.679 140.549C206.531 144.224 184.195 146.5 159.5 146.5C134.805 146.5 112.469 144.224 96.3206 140.549C88.2421 138.711 81.7395 136.529 77.2687 134.122C75.033 132.919 73.3292 131.672 72.1898 130.403C71.0531 129.138 70.5 127.878 70.5 126.63V100.205C70.7664 100.626 71.0829 101.038 71.4459 101.442C72.6904 102.827 74.5024 104.139 76.7947 105.373C81.38 107.841 87.9822 110.048 96.0987 111.895C112.34 115.591 134.754 117.87 159.5 117.87C184.246 117.87 206.66 115.591 222.901 111.895C231.018 110.048 237.62 107.841 242.205 105.373C244.498 104.139 246.31 102.827 247.554 101.442Z" fill="#BD9C52" stroke="#86766A"/>
<path d="M133.986 203V192.091H138.354C139.156 192.091 139.826 192.21 140.362 192.448C140.898 192.686 141.301 193.016 141.571 193.439C141.841 193.858 141.976 194.341 141.976 194.887C141.976 195.314 141.891 195.688 141.72 196.011C141.55 196.331 141.315 196.594 141.017 196.8C140.722 197.002 140.385 197.146 140.005 197.231V197.338C140.42 197.355 140.809 197.473 141.171 197.689C141.537 197.906 141.834 198.21 142.061 198.6C142.288 198.987 142.402 199.449 142.402 199.985C142.402 200.564 142.258 201.081 141.97 201.535C141.686 201.986 141.266 202.343 140.708 202.606C140.151 202.869 139.463 203 138.647 203H133.986ZM136.292 201.114H138.173C138.815 201.114 139.284 200.992 139.579 200.747C139.874 200.498 140.021 200.168 140.021 199.756C140.021 199.454 139.948 199.188 139.803 198.957C139.657 198.726 139.449 198.545 139.179 198.414C138.913 198.282 138.595 198.217 138.226 198.217H136.292V201.114ZM136.292 196.656H138.002C138.318 196.656 138.599 196.601 138.844 196.491C139.092 196.377 139.288 196.217 139.43 196.011C139.575 195.805 139.648 195.559 139.648 195.271C139.648 194.877 139.508 194.559 139.227 194.317C138.95 194.076 138.556 193.955 138.045 193.955H136.292V196.656ZM143.903 203V192.091H148.207C149.031 192.091 149.734 192.238 150.316 192.533C150.902 192.824 151.348 193.238 151.653 193.774C151.962 194.307 152.117 194.934 152.117 195.654C152.117 196.379 151.96 197.002 151.648 197.524C151.335 198.043 150.883 198.44 150.289 198.717C149.7 198.994 148.986 199.133 148.148 199.133H145.266V197.279H147.775C148.216 197.279 148.581 197.219 148.873 197.098C149.164 196.977 149.38 196.796 149.522 196.555C149.668 196.313 149.741 196.013 149.741 195.654C149.741 195.292 149.668 194.987 149.522 194.738C149.38 194.49 149.162 194.301 148.867 194.174C148.576 194.042 148.208 193.977 147.765 193.977H146.209V203H143.903ZM149.794 198.036L152.505 203H149.959L147.307 198.036H149.794ZM155.627 203H153.155L156.921 192.091H159.894L163.654 203H161.183L158.45 194.584H158.365L155.627 203ZM155.472 198.712H161.31V200.512H155.472V198.712ZM174.092 192.091V203H172.1L167.354 196.134H167.274V203H164.967V192.091H166.991L171.7 198.952H171.796V192.091H174.092ZM179.865 203H175.997V192.091H179.897C180.994 192.091 181.939 192.309 182.73 192.746C183.522 193.179 184.131 193.803 184.557 194.616C184.987 195.429 185.202 196.402 185.202 197.535C185.202 198.671 184.987 199.648 184.557 200.464C184.131 201.281 183.519 201.908 182.72 202.345C181.924 202.782 180.973 203 179.865 203ZM178.304 201.024H179.769C180.451 201.024 181.024 200.903 181.489 200.662C181.958 200.417 182.31 200.038 182.544 199.527C182.782 199.012 182.901 198.348 182.901 197.535C182.901 196.729 182.782 196.07 182.544 195.559C182.31 195.047 181.96 194.671 181.495 194.429C181.029 194.188 180.456 194.067 179.774 194.067H178.304V201.024Z" fill="#5E4435"/>
<path d="M137.606 210L139.668 213.328H139.731L141.793 210H142.934L140.418 214L142.934 218H141.793L139.731 214.734H139.668L137.606 218H136.465L139.043 214L136.465 210H137.606ZM147.757 210L149.82 213.328H149.882L151.945 210H153.085L150.57 214L153.085 218H151.945L149.882 214.734H149.82L147.757 218H146.617L149.195 214L146.617 210H147.757ZM157.909 210L159.971 213.328H160.034L162.096 210H163.237L160.721 214L163.237 218H162.096L160.034 214.734H159.971L157.909 218H156.768L159.346 214L156.768 210H157.909ZM168.06 210L170.123 213.328H170.185L172.248 210H173.388L170.873 214L173.388 218H172.248L170.185 214.734H170.123L168.06 218H166.919L169.498 214L166.919 210H168.06ZM178.211 210L180.274 213.328H180.336L182.399 210H183.54L181.024 214L183.54 218H182.399L180.336 214.734H180.274L178.211 218H177.071L179.649 214L177.071 210H178.211Z" fill="#7C512E"/>
<circle cx="160" cy="172" r="7.5" fill="#5E4435" stroke="#5E4435"/>
</svg>
