<svg width="130" height="35" viewBox="0 0 130 35" fill="none" xmlns="http://www.w3.org/2000/svg">
<path d="M73.6454 11.7963C73.6454 8.03701 73.7104 4.53701 73.9054 1.29626L63.9604 3.17589V4.0833L64.9354 4.21293C65.6504 4.27775 66.1054 4.53701 66.3654 4.92589C66.6254 5.3796 66.8204 6.02775 66.9504 6.99997C67.0804 8.8796 67.2104 13.1574 67.1454 19.8981C67.1454 26.574 67.0804 30.787 66.9504 32.4074C70.5254 33.1852 73.3204 33.5092 75.4004 33.5092C79.3004 33.5092 82.3554 32.4074 84.5654 30.1389C86.7754 27.9352 87.9454 24.824 87.9454 21C87.9454 17.9537 87.1004 15.4259 85.4104 13.4166C83.7204 11.4074 81.5754 10.4352 79.0404 10.4352C77.3504 10.4352 75.5954 10.8889 73.6454 11.7963ZM73.8404 31.7592C73.7104 29.6852 73.5804 23.4629 73.5804 13.287C74.1654 13.0926 74.9454 12.9629 75.9204 12.9629C77.4804 12.9629 78.7154 13.7407 79.6254 15.3611C80.5354 16.9815 80.9904 18.9259 80.9904 21.3889C80.9904 24.4352 80.4704 26.8981 79.4304 28.9722C78.3904 30.9814 77.0904 32.0185 75.4654 32.0185C74.9454 31.8889 74.4254 31.824 73.8404 31.7592ZM26.6504 1.94441H0.650391V3.24071L2.01539 3.37034C3.05539 3.56478 3.77039 3.95367 4.22539 4.53701C4.68039 5.18515 4.94039 6.22219 5.00539 7.64812C5.52539 14.6481 5.52539 21.1944 5.00539 27.2222C4.87539 28.6481 4.61539 29.6852 4.22539 30.3333C3.77039 30.9814 3.05539 31.3703 2.01539 31.5L0.650391 31.6944V32.9907H17.4204V31.6944L15.6654 31.5648C15.2371 31.529 14.8206 31.4073 14.4408 31.2068C14.061 31.0063 13.7258 30.7312 13.4554 30.3981C13.0004 29.75 12.7404 28.7129 12.6754 27.287C12.4804 24.6944 12.3504 21.7129 12.3504 18.4074L15.8604 18.4722C17.7454 18.537 19.0454 19.9629 19.6954 22.8148H20.9954V12.25H19.6954C19.0454 15.037 17.8104 16.4629 15.8604 16.5277L12.3504 16.5926C12.3504 10.7592 12.4804 6.61108 12.6754 4.0833H17.8104C21.4504 4.0833 23.9204 6.41664 25.3504 11.0833L26.9104 10.6296L26.6504 1.94441ZM23.5954 21.9074C23.5954 25.2777 24.5704 28.0648 26.4554 30.2685C28.3404 32.4722 31.1354 33.5092 34.6454 33.5092C38.1554 33.5092 41.0154 32.4074 43.0954 30.1389C45.1754 27.9352 46.1504 25.1481 46.1504 21.7777C46.1504 18.4074 45.1754 15.6203 43.2904 13.4166C41.4054 11.2129 38.6104 10.1759 35.1004 10.1759C31.5904 10.1759 28.7304 11.2777 26.6504 13.5463C24.5704 15.75 23.5954 18.537 23.5954 21.9074ZM38.0904 14.5185C38.8704 16.3981 39.1954 18.8611 39.1954 21.8426C39.1954 28.7129 37.7654 32.0833 34.9704 32.0833C33.5404 32.0833 32.4354 31.1111 31.6554 29.1666C30.8754 27.2222 30.5504 24.7592 30.5504 21.8426C30.5504 15.037 31.9804 11.6666 34.7754 11.6666C36.2054 11.6018 37.3104 12.574 38.0904 14.5185ZM93.0154 30.2685C95.1604 32.4074 97.8904 33.5092 101.14 33.5092C103.155 33.5092 104.91 33.1203 106.47 32.2777C108.03 31.5 109.265 30.5277 110.11 29.3611L109.46 28.5833C108.03 29.6852 106.405 30.2037 104.52 30.2037C101.92 30.2037 99.9054 29.3611 98.5404 27.6111C97.1104 25.8611 96.4604 23.6574 96.5904 20.8055H110.5C110.5 17.6944 109.72 15.1666 108.095 13.1574C106.47 11.2129 104.195 10.2407 101.27 10.2407C97.6304 10.2407 94.8354 11.4074 92.8204 13.6759C90.8054 15.9444 89.8304 18.7314 89.8304 22.037C89.8304 25.4074 90.8704 28.1296 93.0154 30.2685ZM97.8254 14C98.5404 12.4444 99.4504 11.6666 100.685 11.6666C102.635 11.6666 103.61 14.1296 103.61 19.1203L96.7204 19.25C96.7854 17.3055 97.1104 15.5555 97.8254 14ZM127.985 11.4074C126.23 10.6296 124.02 10.1759 121.355 10.1759C118.625 10.1759 116.48 10.8889 114.855 12.25C113.23 13.6111 112.385 15.2963 112.385 17.3055C112.385 19.0555 112.905 20.4166 113.88 21.3889C114.855 22.3611 116.415 23.2037 118.43 23.9166C120.25 24.5648 121.55 25.2129 122.2 25.7963C122.85 26.4444 123.24 27.1574 123.24 28.1296C123.24 29.037 122.915 29.8796 122.2 30.5277C121.55 31.2407 120.64 31.5648 119.47 31.5648C116.61 31.5648 114.465 29.4907 112.97 25.3426L111.865 25.6666L112.125 32.1481C114.465 33.0555 117.065 33.5092 119.925 33.5092C122.915 33.5092 125.19 32.8611 126.88 31.5C128.57 30.2037 129.415 28.324 129.415 25.9907C129.415 24.4352 129.025 23.1389 128.18 22.1666C127.335 21.1944 125.97 20.3518 124.02 19.574C121.875 18.7963 120.38 18.0833 119.6 17.4352C118.82 16.787 118.43 16.0092 118.43 15.037C118.43 14.0648 118.69 13.287 119.275 12.6389C119.86 11.9907 120.575 11.7315 121.485 11.7315C124.085 11.7315 125.97 13.6111 127.14 17.3055L128.245 16.9815L127.985 11.4074ZM65.4554 10.824C64.5454 10.3703 63.5704 10.1759 62.4654 10.1759C61.3604 10.1759 60.2554 10.6296 59.0204 11.537C57.7854 12.4444 56.8754 13.6759 56.1604 15.3611L56.2254 10.1759L46.3454 12.1203V13.0277L47.3204 13.0926C48.5554 13.2222 49.2704 14.1944 49.4004 15.9444C49.7904 19.9629 49.7904 24.2407 49.4004 28.7777C49.2704 30.5277 48.5554 31.4352 47.3204 31.6296L46.3454 31.7592V32.9907H60.1254V31.7592L58.3704 31.6296C57.1354 31.5 56.4204 30.5277 56.2904 28.7777C55.9004 25.0185 55.8354 21 56.1604 16.8518C56.5504 16.2037 57.3954 15.8148 58.6954 15.6852C59.9954 15.5555 61.4904 15.9444 63.0504 16.8518L65.4554 10.824Z" fill="black"/>
</svg>
