<svg width="320" height="320" viewBox="0 0 320 320" fill="none" xmlns="http://www.w3.org/2000/svg">
<rect width="320" height="320" fill="#F2F2EA"/>
<g clip-path="url(#clip0_1423_7751)">
<path d="M0 85C1.79731 85.3908 3.54317 85.9647 5.30094 86.4937C8.63549 87.4975 11.9616 88.5283 15.2034 89.8083C16.9804 90.4907 18.6837 91.3506 20.2872 92.3748C20.6289 92.5555 20.9166 92.8231 21.1209 93.1506C21.3253 93.4781 21.439 93.8538 21.4506 94.2393C21.4576 94.7986 21.6639 94.9962 22.2338 95.0718C26.8044 95.6785 31.3698 96.3243 35.9368 96.9577C41.7496 97.7639 47.5624 98.5698 53.3753 99.3755C59.5713 100.235 65.7673 101.094 71.9633 101.953C77.9039 102.777 83.8444 103.6 89.785 104.423C95.9812 105.28 102.178 106.136 108.374 106.99C115.145 107.928 121.915 108.87 128.685 109.814C134.562 110.628 140.44 111.436 146.318 112.24C152.482 113.093 158.646 113.95 164.809 114.813C169.344 115.441 173.882 116.054 178.417 116.681C183.687 117.41 188.957 118.144 194.226 118.881C199.623 119.629 205.021 120.373 210.42 121.115C215.658 121.84 220.895 122.568 226.133 123.3C227.506 123.492 228.879 123.681 230.249 123.897C232.058 124.228 233.826 124.754 235.52 125.467C238.432 126.606 241.358 127.707 244.276 128.83C253.971 132.563 262.764 138.299 270.077 145.663C273.431 149.143 276.49 152.895 279.224 156.879C284.692 164.738 288.977 173.353 291.942 182.451C294.478 189.851 296.493 197.397 298.483 204.951C300.049 210.892 301.979 216.725 303.658 222.632C305.373 228.662 307.145 234.676 308.878 240.701C309.57 243.015 309.946 245.412 309.998 247.826C310.035 248.952 309.933 250.078 309.695 251.179C309.593 251.735 309.319 252.245 308.911 252.637C308.503 253.029 307.982 253.284 307.421 253.365C305.31 253.83 303.151 254.041 300.99 253.996C299.929 253.924 298.879 253.745 297.854 253.463C295.171 252.885 292.591 251.907 290.199 250.562C288.458 249.63 286.967 248.294 285.853 246.666C284.738 245.039 284.033 243.167 283.796 241.211C283.414 238.633 283.18 236.04 282.88 233.455C281.933 225.019 280.31 216.672 278.025 208.494C274.618 196.648 270.011 185.179 264.277 174.263C261.302 168.402 257.68 162.891 253.478 157.833C250.074 153.706 246.263 149.93 242.101 146.563C240.454 145.265 238.646 144.184 236.721 143.347C234.296 142.348 231.662 141.956 229.049 142.205C226.157 142.487 223.314 143.148 220.595 144.171C217.085 145.362 213.561 146.514 210.059 147.728C207.26 148.632 204.329 149.061 201.388 148.996C191.354 149.016 181.32 149.014 171.286 148.989C140.539 148.96 109.792 148.93 79.0448 148.898C60.6222 148.882 42.1996 148.871 23.777 148.865C22.837 148.864 22.8296 148.863 22.8536 149.836C23.0576 158.098 23.2525 166.359 23.4836 174.62C23.5168 175.806 23.629 176.992 23.6643 178.181C23.6848 178.792 23.5577 179.399 23.2937 179.951C22.6301 181.279 21.7296 182.475 20.6363 183.48C19.6245 184.427 18.5506 185.305 17.4219 186.11C15.044 187.881 12.6852 189.675 10.388 191.55C6.68351 194.617 3.4708 198.231 0.861073 202.266C0.617646 202.635 0.442573 203.075 1.9375e-05 203.281V200.966C1.26714 198.763 2.79996 196.724 4.56425 194.894C7.42073 191.922 10.5378 189.211 13.8783 186.792C16.0933 185.294 18.1694 183.601 20.0818 181.733C20.6917 181.113 21.2141 180.413 21.6344 179.652C22.0329 178.945 22.1736 178.122 22.0328 177.323C21.9666 177.008 21.9353 176.687 21.9395 176.365C22.0432 172.991 21.7837 169.623 21.7006 166.254C21.5589 160.508 21.3232 154.766 21.3134 149.017C21.3112 147.74 21.1133 146.457 21.1543 145.171C21.176 144.49 20.9205 144.168 20.2001 144.184C16.2705 144.275 12.3378 144.023 8.40853 144.334C7.02662 144.464 5.63443 144.438 4.2584 144.256C3.4253 144.155 2.58216 144.172 1.75372 144.306C1.46076 144.398 1.15042 144.423 0.846448 144.378C0.542478 144.332 0.252941 144.218 0 144.044L0 142.886C0.191629 142.738 0.411436 142.631 0.646052 142.57C0.880668 142.51 1.12519 142.497 1.36475 142.534C7.35826 142.524 13.3484 142.208 19.3434 142.336C19.6333 142.342 19.9239 142.322 20.2135 142.326C20.8181 142.333 21.0354 142.104 21.0263 141.454C20.9691 137.408 20.7357 133.368 20.7343 129.321C20.7322 123.638 20.4164 117.961 20.2948 112.28C20.2371 109.585 20.3237 106.881 20.1368 104.194C19.9248 101.149 20.1103 98.0951 19.8184 95.0534C19.7973 94.6873 19.6824 94.3328 19.4846 94.0237C19.2868 93.7146 19.0127 93.4613 18.6886 93.2882C16.6254 92.0908 14.439 91.1183 12.1672 90.3873C8.63903 89.1513 5.06172 88.0666 1.4704 87.0281C0.925501 86.9468 0.415289 86.7118 0 86.3507L0 85Z" fill="#3C1F1B"/>
<path d="M0 86.3506C0.832565 86.437 1.64937 86.6366 2.42769 86.9438C5.7716 87.8917 9.09379 88.9179 12.3701 90.0732C14.7993 90.8394 17.1239 91.9031 19.2908 93.2397C19.5566 93.4098 19.7761 93.6426 19.93 93.9176C20.0838 94.1926 20.1673 94.5012 20.1729 94.8161C20.4182 96.9654 20.1941 99.1224 20.3568 101.264C20.5957 104.41 20.3786 107.562 20.5737 110.7C20.7215 113.078 20.5621 115.46 20.7587 117.823C20.9406 120.008 20.7682 122.194 20.9382 124.367C21.1843 127.513 20.966 130.665 21.1501 133.804C21.2895 136.181 21.2585 138.554 21.3165 140.928C21.3234 141.214 21.4114 141.497 21.4459 141.783C21.5296 142.477 21.3819 142.659 20.6931 142.684C20.2421 142.701 19.7901 142.687 19.3385 142.688C16.1452 142.694 12.9474 142.596 9.75989 142.734C6.50527 142.875 3.25272 142.817 0 142.886L0 86.3506Z" fill="#3C1F1B"/>
<path d="M0 144.044C1.06598 144.108 2.11543 143.887 3.17788 143.863C4.11523 143.843 5.02928 144.069 5.96982 144.029C10.7022 143.828 15.4383 143.861 20.1734 143.84C21.5767 143.834 21.4392 143.75 21.4927 145.142C21.6507 149.249 21.6132 153.36 21.7475 157.464C21.8136 159.484 21.7263 161.513 21.913 163.521C22.1218 165.769 21.9139 168.02 22.106 170.254C22.2771 172.244 22.1821 174.231 22.2689 176.217C22.2565 176.41 22.265 176.603 22.2942 176.794C22.8661 178.881 21.7843 180.373 20.5023 181.796C18.8575 183.471 17.0487 184.978 15.1029 186.294C11.2972 188.992 7.75596 192.043 4.52647 195.406C3.16457 196.945 1.89758 198.565 0.732482 200.258C0.535477 200.532 0.423538 200.916 1.9375e-05 200.966L0 144.044Z" fill="#3C1F1B"/>
<path d="M21.5859 96.259C23.5017 96.5251 25.3776 96.7886 27.2545 97.0456C29.0073 97.2856 30.7618 97.513 32.5142 97.7563C34.8714 98.0834 37.2271 98.4212 39.5838 98.753C41.2402 98.9862 42.8963 99.2212 44.5536 99.4478C46.626 99.7311 48.7002 100.002 50.7724 100.287C53.0041 100.593 55.2351 100.905 57.4653 101.223C59.5034 101.511 61.5394 101.814 63.5788 102.092C65.3639 102.336 67.154 102.543 68.9389 102.788C70.8825 103.054 72.8219 103.351 74.7648 103.623C76.932 103.926 79.1016 104.211 81.2693 104.51C83.7224 104.849 86.1737 105.201 88.6271 105.537C91.3671 105.913 94.1094 106.272 96.8491 106.65C99.1734 106.97 101.495 107.309 103.819 107.636C105.57 107.882 107.322 108.12 109.073 108.362C111.398 108.684 113.723 109.005 116.048 109.326C118.342 109.644 120.637 109.956 122.93 110.28C125.954 110.706 128.976 111.15 132.001 111.571C134.517 111.921 137.037 112.238 139.552 112.587C142.578 113.006 145.599 113.455 148.625 113.87C151.78 114.303 154.941 114.701 158.096 115.134C160.039 115.401 161.969 115.767 163.917 115.975C165.647 116.16 167.357 116.462 169.08 116.677C171.504 116.979 173.918 117.358 176.337 117.695C178.089 117.938 179.841 118.177 181.596 118.397C183.128 118.59 184.642 118.901 186.185 119.019C186.769 119.064 186.884 119.232 186.851 119.861C186.771 121.366 186.664 122.868 186.496 124.367C186.367 125.515 186.341 126.674 186.255 127.827C186.066 130.354 185.84 132.879 185.681 135.408C185.494 138.386 185.199 141.357 185.015 144.336C185.011 145.299 184.92 146.259 184.744 147.206C184.66 147.549 184.526 147.716 184.172 147.703C183.946 147.694 183.72 147.704 183.494 147.704C140.162 147.701 96.8293 147.697 53.4967 147.693C49.1734 147.692 44.8474 147.769 40.5273 147.647C34.9147 147.49 29.3036 147.614 23.6923 147.553C22.7539 147.543 22.7132 147.51 22.697 146.576C22.6676 144.872 22.6777 143.167 22.619 141.464C22.527 138.799 22.5293 136.128 22.4002 133.467C22.2693 130.768 22.352 128.069 22.2099 125.374C22.0574 122.483 22.1446 119.586 22.0017 116.699C21.9078 114.802 21.9521 112.906 21.8534 111.014C21.6827 107.738 21.7167 104.46 21.614 101.184C21.5767 99.9966 21.5227 98.8079 21.4851 97.6197C21.4291 97.1639 21.4633 96.7016 21.5859 96.259Z" fill="#684540"/>
<path d="M235.587 139.438C234.071 139.348 232.553 139.593 231.143 140.157C230.992 140.213 230.791 140.225 230.698 140.332C230.095 141.024 229.289 140.909 228.495 140.986C226.635 141.154 224.799 141.526 223.021 142.095C219.075 143.386 215.104 144.597 211.204 146.032C209.448 146.76 207.6 147.245 205.712 147.475C204.752 147.552 203.802 147.72 202.83 147.716C197.603 147.696 192.376 147.71 187.15 147.711C186.988 147.711 186.827 147.701 186.666 147.71C186.218 147.736 186.053 147.536 186.029 147.084C185.977 146.082 186.223 145.108 186.246 144.111C186.297 141.933 186.582 139.77 186.764 137.6C186.871 136.323 186.88 135.039 187.003 133.76C187.22 131.497 187.387 129.228 187.556 126.961C187.62 126.098 187.703 125.234 187.747 124.375C187.817 122.997 188.041 121.63 188.005 120.243C187.983 119.388 188.131 119.324 188.976 119.443C190.694 119.685 192.422 119.862 194.134 120.136C196.195 120.465 198.268 120.705 200.333 120.991C202.08 121.232 203.815 121.591 205.586 121.696C206.543 121.752 207.486 122.021 208.443 122.115C210.266 122.293 212.055 122.708 213.884 122.847C214.842 122.92 215.788 123.137 216.742 123.271C218.491 123.516 220.243 123.744 221.993 123.986C223.997 124.263 226.001 124.538 228.003 124.831C229.12 124.959 230.23 125.145 231.328 125.388C232.6 125.731 233.849 126.152 235.069 126.649C237.467 127.585 239.887 128.463 242.288 129.39C245.064 130.429 247.786 131.606 250.445 132.916C254.749 135.113 258.825 137.731 262.611 140.73C264.697 142.345 266.687 144.078 268.572 145.922C271.019 148.386 273.291 151.017 275.37 153.797C277.615 156.652 279.692 159.636 281.591 162.732C283.747 166.388 285.68 170.172 287.378 174.061C288.951 177.659 290.274 181.346 291.495 185.072C292.977 189.589 294.346 194.139 295.535 198.741C296.442 202.254 297.435 205.742 298.39 209.24C299.388 212.897 300.59 216.491 301.649 220.128C302.627 223.487 303.552 226.862 304.519 230.224C305.37 233.187 306.224 236.148 307.121 239.097C307.729 240.925 308.187 242.799 308.488 244.702C308.854 246.661 308.879 248.669 308.563 250.637C308.532 250.972 308.397 251.288 308.177 251.542C307.957 251.797 307.663 251.977 307.336 252.057C305.595 252.53 303.793 252.741 301.989 252.684C301.894 252.697 301.797 252.689 301.705 252.66C301.614 252.632 301.529 252.583 301.458 252.519C301.387 252.455 301.331 252.376 301.294 252.287C301.257 252.199 301.239 252.104 301.243 252.008C300.769 249.225 300.106 246.476 299.257 243.783C298.433 240.748 297.587 237.72 296.718 234.698C295.942 231.982 295.161 229.267 294.328 226.568C292.755 221.476 291.235 216.369 289.766 211.246C288.967 208.472 288.133 205.707 287.415 202.91C286.777 200.424 286.243 197.912 285.592 195.43C284.596 191.639 283.369 187.912 281.919 184.27C280.875 181.643 279.864 179.002 278.768 176.396C277.499 173.373 276.005 170.449 274.297 167.649C272.302 164.38 269.891 161.383 267.123 158.732C265.358 157.039 263.668 155.267 261.808 153.674C258.39 150.739 254.75 148.073 250.919 145.701C248.864 144.433 246.813 143.158 244.676 142.029C242.364 140.741 239.844 139.868 237.23 139.449C236.683 139.407 236.134 139.404 235.587 139.438Z" fill="#3C1F1B"/>
<path d="M233.136 140.862C234.584 140.474 236.102 140.421 237.574 140.707C240.486 141.309 243.266 142.428 245.781 144.009C249.681 146.213 253.436 148.662 257.022 151.343C259.141 152.976 261.19 154.688 263.136 156.521C264.167 157.493 265.202 158.459 266.218 159.446C269.896 163.066 272.963 167.254 275.301 171.849C277.202 175.681 278.903 179.608 280.398 183.615C282.309 188.288 283.853 193.102 285.015 198.014C286.504 204.667 288.517 211.172 290.392 217.718C291.906 222.999 293.66 228.209 295.122 233.507C296.344 237.934 297.61 242.35 298.843 246.774C299.265 248.29 299.64 249.817 299.93 251.365C300.15 252.536 300.078 252.655 298.941 252.415C295.923 251.861 293.03 250.765 290.403 249.181C288.789 248.228 287.439 246.888 286.474 245.284C285.673 243.812 285.17 242.198 284.994 240.533C284.547 237.097 284.239 233.644 283.771 230.212C283.233 226.271 282.64 222.337 281.821 218.441C280.669 212.966 279.097 207.607 277.449 202.263C275.235 195.377 272.585 188.637 269.517 182.085C267.417 177.422 265.07 172.875 262.486 168.46C257.997 160.856 252.383 153.97 245.836 148.035C243.58 145.867 241.011 144.048 238.215 142.638C236.589 141.871 234.886 141.275 233.136 140.862Z" fill="#684540"/>
<path d="M108.761 131.116C108.761 132.144 108.739 133.173 108.77 134.2C108.791 134.471 108.743 134.742 108.629 134.989C108.516 135.236 108.342 135.449 108.123 135.61C107.217 136.339 106.174 136.88 105.055 137.198C103.103 137.796 101.029 137.879 99.0356 137.44C97.6765 137.184 96.4181 136.548 95.4066 135.607C94.3952 134.666 93.6722 133.458 93.3217 132.124C92.2617 128.78 92.4329 125.169 93.8044 121.94C94.311 120.728 95.1437 119.68 96.2104 118.911C97.2771 118.141 98.5363 117.681 99.8488 117.581C101.161 117.417 102.492 117.498 103.775 117.819C105.08 118.096 106.266 118.776 107.163 119.763C108.06 120.749 108.623 121.992 108.772 123.315C108.905 124.012 108.772 124.159 108.103 124.081C107.268 124.012 106.43 123.991 105.592 124.015C105.174 124.013 104.936 123.888 104.84 123.46C104.759 123.116 104.638 122.782 104.478 122.467C104.301 122.068 104.034 121.715 103.7 121.434C103.365 121.153 102.971 120.951 102.547 120.844C100.176 120.256 98.2866 121.1 97.4904 123.329C96.8757 125.263 96.6722 127.304 96.8928 129.321C96.9354 130.221 97.1288 131.107 97.4651 131.943C97.717 132.607 98.1438 133.192 98.7005 133.635C99.2572 134.078 99.9232 134.363 100.629 134.46C101.713 134.653 102.829 134.534 103.848 134.119C104.132 134.048 104.38 133.874 104.544 133.631C104.707 133.388 104.775 133.093 104.733 132.804C104.686 132.13 104.687 131.454 104.736 130.781C104.758 130.276 104.539 130.109 104.053 130.105C103.281 130.099 102.509 130.016 101.737 130.009C101.257 130.004 101.02 129.851 101.048 129.338C101.079 128.761 101.063 128.182 101.074 127.604C101.066 127.539 101.074 127.473 101.097 127.413C101.12 127.352 101.157 127.297 101.206 127.253C101.254 127.21 101.312 127.178 101.375 127.161C101.438 127.144 101.504 127.142 101.568 127.156C103.79 127.29 106.015 127.221 108.238 127.258C108.649 127.264 108.816 127.435 108.812 127.839C108.802 128.931 108.809 130.024 108.809 131.116L108.761 131.116Z" fill="#DCCDB3"/>
<path d="M127.873 127.9C127.951 129.65 127.681 131.398 127.08 133.043C126.651 134.319 125.886 135.457 124.865 136.338C123.844 137.218 122.604 137.809 121.276 138.047C116.823 138.887 112.912 136.761 111.62 132.382C110.679 129.31 110.812 126.01 111.998 123.023C112.662 121.308 113.909 119.879 115.521 118.987C117.132 118.094 119.007 117.794 120.818 118.14C124.651 118.687 127.032 121.487 127.684 125.246C127.842 126.122 127.906 127.012 127.873 127.9Z" fill="#DCCDB3"/>
<path d="M90.2178 127.158C90.3721 129.29 89.9217 131.422 88.9182 133.31C88.2998 134.503 87.3689 135.506 86.2245 136.213C85.0801 136.92 83.765 137.305 82.4188 137.327C80.6383 137.493 78.8523 137.07 77.3365 136.124C76.3043 135.426 75.4364 134.514 74.793 133.449C74.1495 132.383 73.7458 131.192 73.6099 129.956C73.301 127.983 73.3598 125.971 73.7831 124.019C74.0797 122.166 75.0068 120.472 76.4086 119.22C77.8103 117.969 79.6013 117.237 81.4806 117.147C83.3598 117.058 85.2126 117.616 86.7277 118.728C88.2427 119.841 89.3276 121.44 89.8 123.256C90.1572 124.524 90.2985 125.843 90.2178 127.158Z" fill="#DCCDB3"/>
<path d="M59.8141 130.557C59.8828 126.411 59.9516 122.266 60.0206 118.121C60.0363 117.183 60.0393 117.179 61.0124 117.181C61.8188 117.183 62.6252 117.206 63.4315 117.199C63.8609 117.195 64.0964 117.328 64.0836 117.803C64.0236 120.02 64.1095 122.238 63.9726 124.454C63.9232 125.255 63.9214 126.06 63.913 126.863C63.8924 128.824 63.8772 130.785 63.8675 132.747C63.864 133.638 63.8767 133.616 64.788 133.664C67.0106 133.782 69.2348 133.791 71.4592 133.811C72.4095 133.819 72.4116 133.826 72.4129 134.782C72.4136 135.296 72.3906 135.811 72.4055 136.325C72.4191 136.79 72.1992 136.964 71.7577 136.928C71.6295 136.918 71.4998 136.927 71.3708 136.926C67.7919 136.887 64.212 136.912 60.6352 136.745C59.7915 136.706 59.7836 136.717 59.7811 135.861C59.7759 134.093 59.7795 132.325 59.7795 130.557L59.8141 130.557Z" fill="#DCCDB3"/>
<path d="M124.267 127.82C124.3 128.952 124.177 130.084 123.9 131.183C123.787 131.651 123.621 132.104 123.406 132.535C123.111 133.238 122.602 133.831 121.952 134.231C121.302 134.631 120.542 134.818 119.78 134.765C119.034 134.749 118.309 134.513 117.697 134.087C117.085 133.662 116.613 133.065 116.34 132.372C115.825 131.19 115.594 129.904 115.664 128.617C115.614 127.335 115.713 126.051 115.959 124.792C116.123 124.038 116.422 123.32 116.84 122.671C117.24 122.061 117.815 121.584 118.489 121.302C119.164 121.02 119.908 120.947 120.625 121.091C121.317 121.18 121.969 121.462 122.508 121.905C123.046 122.348 123.448 122.934 123.667 123.594C124.159 124.946 124.364 126.385 124.267 127.82Z" fill="#684540"/>
<path d="M77.63 127.434C77.5034 125.923 77.7137 124.403 78.2457 122.982C78.4171 122.484 78.6902 122.026 79.0476 121.638C79.4051 121.25 79.8392 120.941 80.3227 120.728C80.8062 120.516 81.3285 120.406 81.8568 120.405C82.385 120.403 82.9078 120.511 83.3922 120.722C83.9305 120.912 84.4135 121.231 84.7985 121.651C85.1835 122.072 85.4585 122.581 85.5991 123.132C86.515 125.972 86.426 129.04 85.3467 131.822C85.1035 132.498 84.6604 133.083 84.0761 133.502C83.4917 133.92 82.7937 134.152 82.0745 134.166C81.4107 134.236 80.7406 134.121 80.1385 133.834C79.5364 133.546 79.0261 133.098 78.6642 132.539C78.0424 131.591 77.6876 130.494 77.6371 129.362C77.5983 128.722 77.63 128.077 77.63 127.434Z" fill="#684540"/>
</g>
<defs>
<clipPath id="clip0_1423_7751">
<rect width="310" height="169" fill="white" transform="translate(0 85)"/>
</clipPath>
</defs>
</svg>
