<svg width="320" height="320" viewBox="0 0 320 320" fill="none" xmlns="http://www.w3.org/2000/svg">
<g clip-path="url(#clip0_1444_1023)">
<rect width="320" height="320" fill="#DCFFE0"/>
<g clip-path="url(#clip1_1444_1023)">
<path d="M312.631 320H208.489C207.995 319.76 207.548 319.435 207.168 319.04C203.522 315.377 199.804 311.784 196.31 307.974C186.831 297.852 178.353 286.838 170.994 275.085C166.81 268.364 163.228 261.286 160.287 253.935C158.834 250.309 157.729 246.553 156.986 242.717C154.97 231.911 153.871 220.987 152.43 210.106C152.35 209.759 152.374 209.396 152.5 209.063C152.625 208.73 152.846 208.442 153.135 208.234C154.988 206.723 156.745 205.099 158.398 203.371C161.947 199.981 165.5 196.595 169.056 193.211C172.139 190.27 175.227 187.333 178.321 184.401C180.177 182.682 181.678 180.616 182.738 178.319C183.385 176.519 183.567 174.584 183.267 172.695C183.105 170.346 182.936 167.998 182.774 165.649C182.542 162.271 182.296 158.894 182.062 155.515C181.908 153.295 181.771 151.074 181.606 148.854C181.527 146.435 181.267 144.024 180.83 141.643C180.36 139.561 180.191 137.431 179.873 135.324C179.626 133.203 179.061 131.132 178.198 129.18C178.006 128.876 177.939 128.51 178.012 128.159C178.085 127.807 178.292 127.498 178.588 127.296C178.903 127.092 179.163 126.814 179.346 126.487C179.529 126.159 179.629 125.792 179.637 125.417C179.441 122.088 180.204 118.864 180.673 115.611C181.356 110.15 180.995 104.609 179.612 99.2828C178.335 94.2077 176.758 89.2131 174.887 84.3258C174.308 82.7411 174.392 82.6093 175.965 82.1448C176.971 81.8943 177.93 81.4835 178.805 80.9281C179.358 80.5891 179.807 80.1033 180.101 79.5246C180.395 78.9459 180.523 78.297 180.47 77.65C180.112 71.433 179.814 65.2157 179.829 58.9828C179.838 55.3389 179.783 51.6896 179.898 48.0517C180.069 42.638 180.437 37.2311 180.952 31.8326C181.865 22.3481 183.374 12.9306 185.472 3.63596C185.67 2.75318 185.869 1.8709 186.149 1.0101C186.265 0.651999 186.329 0.2321 186.815 0.14817C200.484 0.14645 214.15 0.146046 227.815 0.14696C228.574 0.39302 228.176 0.93488 228.063 1.32814C227.435 3.49972 226.718 5.64395 226.097 7.81862C221.831 22.997 218.571 38.4403 216.338 54.0479C215.239 61.4922 214.298 68.9554 213.514 76.4376C213.021 81.0901 212.659 85.7557 212.267 90.4184C211.911 94.6619 211.627 98.9108 211.384 103.16C211.195 106.475 211.065 109.798 210.914 113.117C210.647 118.984 210.624 124.857 210.399 130.724C210.248 134.693 210.412 138.669 210.347 142.641C210.262 147.906 210.513 153.165 210.599 158.426C210.682 163.486 210.913 168.549 211.144 173.607C211.526 181.995 212.294 190.35 213.494 198.657C214.617 205.749 216.641 212.669 219.519 219.248C224.247 230.168 230.23 240.501 237.349 250.036C241.952 256.316 246.877 262.353 252.106 268.122C256.238 272.708 260.482 277.185 264.933 281.456C273.545 289.747 282.61 297.554 292.086 304.841C298.474 309.738 304.994 314.448 311.708 318.888C312.112 319.155 312.681 319.335 312.631 320Z" fill="#3C1F1B"/>
<path d="M186.571 0.24917C186.579 0.507139 186.544 0.764547 186.468 1.01117C185.332 5.413 184.451 9.868 183.638 14.3393C183.073 17.4455 182.63 20.5693 182.175 23.6912C181.896 25.6022 181.716 27.5281 181.516 29.4498C181.262 31.8834 181.024 34.3184 180.8 36.7551C180.705 37.8134 180.664 38.8789 180.609 39.9387C180.519 41.6766 180.413 43.4159 180.326 45.154C180.147 48.7353 180.153 52.3164 180.144 55.8982C180.135 59.4123 180.083 62.9302 180.224 66.4395C180.331 69.1116 180.304 71.7957 180.603 74.455C180.744 75.7074 180.743 76.9617 180.832 78.2125C180.826 78.6999 180.712 79.1799 180.498 79.6178C180.284 80.0557 179.975 80.4405 179.594 80.7444C178.993 81.2891 178.287 81.7046 177.519 81.9649C176.828 82.2395 176.116 82.4558 175.39 82.6117C174.703 82.7447 174.67 82.8255 174.923 83.5317C175.664 85.5965 176.44 87.6492 177.148 89.7253C178.536 93.6822 179.649 97.7301 180.479 101.84C181.22 105.281 181.499 108.804 181.31 112.318C181.159 114.568 180.878 116.807 180.47 119.024C180.049 120.883 179.888 122.79 179.991 124.693C180.074 125.254 179.997 125.828 179.768 126.347C179.54 126.867 179.17 127.311 178.7 127.63C178.032 128.114 178.058 128.164 178.412 128.885C179.324 130.883 179.919 133.011 180.175 135.192C180.561 137.803 180.832 140.432 181.403 143.015C181.563 143.672 181.656 144.344 181.681 145.021C181.697 146.249 181.847 147.465 181.925 148.687C182.08 151.129 182.286 153.569 182.462 156.01C182.534 157.006 182.558 158.003 182.646 159.001C182.855 161.375 182.94 163.761 183.104 166.14C183.257 168.356 183.369 170.58 183.64 172.783C183.856 174.436 183.719 176.116 183.238 177.712C182.757 179.308 181.943 180.784 180.85 182.042C178.738 184.439 176.486 186.71 174.107 188.842C173.944 188.999 173.77 189.144 173.607 189.301C171.346 191.469 169.086 193.639 166.825 195.808C163.977 198.53 161.159 201.286 158.254 203.946C156.597 205.668 154.826 207.277 152.954 208.762C152.824 208.859 152.726 208.994 152.674 209.147C152.622 209.301 152.618 209.467 152.662 209.623C153.026 212.4 153.403 215.175 153.753 217.953C154.048 220.285 154.295 222.623 154.593 224.955C155.215 229.809 155.774 234.671 156.803 239.466C157.188 241.259 157.394 243.089 157.689 244.901C157.838 245.759 158.048 246.605 158.318 247.433C160.34 253.737 162.914 259.85 166.011 265.701C169.779 272.841 174.058 279.699 178.814 286.222C182.031 290.671 185.426 294.977 188.956 299.177C191.012 301.622 193.149 303.998 195.296 306.365C199.356 310.841 203.638 315.099 207.943 319.336C208.181 319.505 208.369 319.734 208.489 320H207.131C207.131 319.656 206.841 319.512 206.641 319.319C200.43 313.329 194.495 307.08 188.903 300.51C179.616 289.829 171.577 278.124 164.94 265.622C162.833 261.589 160.969 257.433 159.357 253.176C159.255 252.905 159.141 252.638 159.033 252.368C158.865 252.194 158.725 252.01 158.785 251.836C158.873 252.223 158.63 252.69 158.815 253.168C159.076 256.581 159.368 259.99 159.458 263.415C159.672 269.452 159.392 275.497 158.619 281.489C157.858 287.881 156.115 294.117 153.452 299.977C151.689 303.874 149.19 307.394 146.094 310.344C143.695 312.598 140.857 314.332 137.757 315.437C134.656 316.542 131.361 316.993 128.078 316.764C123.75 316.494 119.507 315.44 115.556 313.653C105.606 309.352 96.2983 303.697 87.8965 296.848C79.6487 290.132 72.0261 282.682 65.1223 274.591C55.7347 263.607 47.3647 251.793 40.1156 239.295C32.2231 225.795 25.4865 211.652 19.9776 197.017C15.5586 185.361 11.9689 173.407 9.2356 161.245C7.6024 153.931 6.3056 146.559 5.39537 139.119C4.28964 130.369 3.80888 121.553 3.95676 112.735C4.07671 105.144 4.82845 97.5764 6.20417 90.1101C6.91826 86.3353 7.83286 82.6012 8.94409 78.9237C10.1189 75.0313 11.2889 71.1374 12.4243 67.2335C12.8593 65.9506 13.3784 64.6977 13.978 63.4831C16.7775 56.9408 20.4674 50.8168 24.9432 45.2846C29.3299 39.7831 34.8177 35.2588 41.0548 32.0018C45.1585 29.8531 49.6244 28.4826 54.227 27.9594C57.6013 27.6086 60.9419 27.0034 64.3209 26.7112C69.7492 26.1524 75.2301 26.9939 80.2408 29.1554C83.0866 30.4868 85.6864 32.2906 87.9299 34.4903C90.1581 36.5565 92.188 38.8268 93.9932 41.2713C95.9391 43.9276 98.0516 46.4647 99.7602 49.29C100.779 50.897 101.673 52.5798 102.435 54.3236C107.196 65.8739 111.966 77.4203 116.746 88.9627C117.027 89.6415 117.362 90.2979 117.711 91.0494C117.793 90.9349 117.852 90.8052 117.884 90.6679C117.915 90.5306 117.919 90.3883 117.896 90.2494C118.051 84.3736 118.202 78.4977 118.351 72.6217C118.541 65.39 118.793 58.1594 118.917 50.9267C119.152 45.2733 120.28 39.6928 122.261 34.3924C123.893 29.4455 126.273 24.7777 129.319 20.5514C131.219 17.8891 133.548 15.5614 136.212 13.6636C139.599 11.157 143.782 9.96687 147.982 10.3149C151.116 10.6435 154.109 11.7896 156.66 13.6385C160.127 16.1462 163.052 19.3277 165.261 22.9925C166.758 25.3714 168.056 27.8699 169.141 30.4626C169.583 31.6444 169.827 32.8908 169.863 34.1519C170.317 40.1723 170.764 46.1933 171.204 52.2147C171.491 56.111 171.773 60.0076 172.05 63.9045C172.318 67.5755 172.539 71.2509 172.88 74.915C173.01 77.0109 173.431 79.0784 174.132 81.0579C174.393 81.7324 174.401 81.7674 175.107 81.6292C176.192 81.442 177.236 81.0682 178.193 80.5243C178.732 80.2576 179.176 79.8319 179.465 79.3049C179.754 78.7778 179.875 78.1748 179.81 77.5771C179.325 71.1667 179.102 64.743 179.07 58.3163C179.037 51.6954 179.25 45.0803 179.707 38.471C180.082 33.0244 180.636 27.5979 181.369 22.1916C182.211 16.0507 183.326 9.9576 184.716 3.91239C185 2.6866 185.308 1.46632 185.604 0.24351L185.704 0.1611C185.961 0.14034 186.219 0.140641 186.476 0.162L186.571 0.24917Z" fill="#5D4E47"/>
<path d="M312.631 320C312.443 319.735 312.188 319.525 311.893 319.391C305.936 315.46 300.115 311.339 294.43 307.026C289.979 303.656 285.594 300.202 281.328 296.598C278.123 293.89 274.944 291.155 271.847 288.322C269.965 286.6 268.114 284.847 266.246 283.112C263.784 280.824 261.417 278.441 259.072 276.038C255.601 272.481 252.247 268.814 248.973 265.072C245.123 260.674 241.457 256.13 237.973 251.442C234.626 246.932 231.47 242.288 228.561 237.478C226.036 233.304 223.683 229.038 221.584 224.636C218.108 217.529 215.498 210.03 213.807 202.301C213.231 199.46 212.81 196.589 212.548 193.702C212.236 190.5 211.815 187.308 211.449 184.111C211.336 183.118 211.346 182.117 211.258 181.119C211.097 179.29 211.097 177.447 210.992 175.612C210.808 172.425 210.674 169.236 210.56 166.045C210.51 164.629 210.491 163.209 210.411 161.793C210.215 158.343 210.309 154.887 210.185 151.438C209.941 144.595 210.027 137.752 210.107 130.911C210.142 127.945 210.153 124.975 210.273 122.01C210.422 118.304 210.516 114.596 210.671 110.891C210.777 108.347 210.93 105.804 211.05 103.26C211.195 100.203 211.418 97.1487 211.634 94.0953C211.8 91.75 211.989 89.4063 212.201 87.0642C212.424 84.5621 212.679 82.0629 212.921 79.5626C213.126 77.4465 213.315 75.3287 213.544 73.2153C213.76 71.2306 214.017 69.2506 214.259 67.2687C214.535 64.999 214.801 62.7279 215.095 60.4606C215.34 58.5766 215.605 56.6951 215.889 54.8162C216.245 52.4603 216.618 50.1069 217.007 47.7559C217.527 44.6428 218.047 41.5291 218.618 38.4251C219.684 32.626 220.903 26.8588 222.275 21.1234C223.702 15.1992 225.235 9.30192 227.083 3.49146C227.425 2.41608 227.754 1.33675 228.09 0.259237C228.473 0.231717 229.014 -0.217543 229.074 0.624977C228.183 3.11551 227.452 5.65587 226.718 8.19476C224.513 15.8187 222.665 23.5296 221.053 31.2996C219.691 37.8671 218.496 44.4642 217.468 51.091C216.785 55.4855 216.144 59.8879 215.627 64.3065C215.136 68.4994 214.605 72.688 214.157 76.8855C213.815 80.09 213.562 83.3043 213.293 86.5163C212.981 90.2428 212.668 93.9695 212.408 97.6997C212.209 100.563 212.081 103.432 211.938 106.299C211.759 109.907 211.59 113.514 211.432 117.123C211.378 118.38 211.399 119.641 211.351 120.899C211.177 125.416 211.217 129.936 211.093 134.453C210.929 140.424 211.144 146.392 211.191 152.361C211.218 155.75 211.307 159.139 211.424 162.526C211.553 166.233 211.746 169.939 211.914 173.645C212.002 175.579 212.093 177.512 212.188 179.445C212.348 182.762 212.693 186.063 213.051 189.363C213.225 190.964 213.401 192.566 213.516 194.176C213.813 197.841 214.425 201.473 215.348 205.033C216.855 210.942 218.901 216.701 221.458 222.238C224.903 229.718 228.965 236.897 233.602 243.702C239.587 252.52 246.21 260.887 253.418 268.737C256.268 271.866 259.187 274.927 262.175 277.921C266.858 282.6 271.695 287.117 276.687 291.472C284.527 298.311 292.667 304.772 301.108 310.855C305.116 313.745 309.182 316.549 313.308 319.27C313.623 319.477 314.017 319.607 314.182 320H312.631Z" fill="#5D4E47"/>
<path d="M185.604 0.243551L0.00980832 0.243281C0.0520783 0.183651 -0.0882617 0.041181 0.106838 0.047441C0.365148 0.055731 0.623928 0.049441 0.882508 0.049441H185.604C185.623 0.0660705 185.637 0.0873157 185.646 0.111116C185.654 0.134916 185.656 0.160464 185.652 0.185281C185.641 0.232941 185.63 0.256771 185.617 0.256771L185.604 0.243551Z" fill="#FCF8EF"/>
<path d="M320 0.243246C290.207 0.243246 260.414 0.243016 230.621 0.242556C230.168 0.242556 229.716 0.232146 229.264 0.226556C229.198 0.195609 229.172 0.159046 229.187 0.116866C229.202 0.0718657 229.22 0.0494057 229.239 0.0494057C259.202 0.0494057 289.165 0.0534057 319.128 0.0614057C319.411 0.0615657 319.785 -0.162074 320 0.243246Z" fill="#F7F7F7"/>
<path d="M229.239 0.0494385C229.242 0.109134 229.25 0.168461 229.264 0.226718C229.263 0.303005 229.246 0.378301 229.213 0.447164C229.181 0.516028 229.133 0.576738 229.074 0.624908C229.076 0.386278 229.007 0.210998 228.721 0.226288C228.511 0.237568 228.3 0.248515 228.09 0.259128C227.864 0.253848 227.639 0.243908 227.413 0.243928C213.799 0.245148 200.185 0.246892 186.571 0.249158L186.583 0.225848C186.508 0.190515 186.481 0.152595 186.504 0.112088C186.527 0.0703985 186.55 0.0494385 186.574 0.0494385H229.239Z" fill="#E5DCDA"/>
<path d="M186.574 0.0494385C186.576 0.108352 186.579 0.167175 186.583 0.225908C186.261 0.236128 185.939 0.246402 185.617 0.256728L185.604 0.0494385H186.574Z" fill="#CBC6C3"/>
<path d="M158.815 253.168C158.615 252.674 158.578 252.128 158.711 251.611C158.912 251.812 159.028 252.084 159.033 252.368C158.756 252.579 158.924 252.912 158.815 253.168Z" fill="#DCCDB3"/>
<path d="M113.777 119.334C113.401 119.2 113.332 118.927 113.197 118.716C110.634 114.642 107.739 110.787 104.54 107.191C101.039 103.113 96.8494 99.6805 92.1623 97.0495C89.1465 95.3292 85.7426 94.4042 82.2708 94.3616C78.4792 94.3798 74.8448 95.8793 72.1434 98.5399C69.5361 101.112 67.5231 104.224 66.2457 107.656C64.7668 111.444 63.7533 115.397 63.2274 119.429C62.5091 124.609 62.2715 129.844 62.5175 135.068C62.7031 139.383 63.1157 143.686 63.7535 147.958C64.7343 154.594 66.1729 161.154 68.0588 167.591C71.5795 180.029 76.8222 191.914 83.6348 202.899C86.6464 207.763 90.1596 212.298 94.1169 216.43C97.193 219.712 100.762 222.494 104.695 224.677C106.985 225.95 109.483 226.809 112.072 227.214C114.589 227.63 117.171 227.388 119.567 226.513C121.963 225.637 124.092 224.157 125.747 222.216C128.481 219.055 130.5 215.342 131.667 211.329C131.708 211.206 131.746 211.083 131.779 210.958C132.01 210.11 132.036 210.194 132.765 210.261C135.401 210.501 138.035 210.763 140.67 211.013C142.603 211.171 144.548 211.105 146.466 210.818C148.211 210.66 149.925 210.256 151.557 209.619C151.843 210.346 151.986 211.12 151.98 211.9C152.426 215.189 152.807 218.487 153.218 221.781C153.577 224.659 154.028 227.529 154.288 230.416C154.592 233.789 155.253 237.113 155.548 240.486C155.619 241.451 155.792 242.407 156.062 243.336C156.732 245.662 157.192 248.044 157.437 250.452C157.913 254.424 158.287 258.406 158.418 262.404C158.553 266.501 158.538 270.599 158.263 274.696C157.922 281.078 156.796 287.394 154.912 293.502C153.493 298.212 151.23 302.625 148.233 306.526C145.074 310.715 140.593 313.715 135.517 315.042C131.556 316.057 127.403 316.056 123.442 315.037C119.727 314.057 116.109 312.741 112.632 311.106C107.37 308.708 102.317 305.877 97.5231 302.643C92.0734 298.939 86.8869 294.862 82.001 290.44C77.9406 286.785 74.0651 282.944 70.3745 278.917C65.69 273.831 61.2729 268.522 57.1232 262.991C49.2314 252.479 42.165 241.371 35.9873 229.769C30.7505 219.979 26.103 209.886 22.0695 199.542C18.249 189.779 15.005 179.799 12.3541 169.654C10.4916 162.505 8.93022 155.291 7.73655 147.998C6.9032 142.906 6.22378 137.796 5.76626 132.657C5.51458 129.829 5.33141 126.999 5.17993 124.164C4.92467 119.388 4.92757 114.609 5.09553 109.834C5.26211 105.161 5.67443 100.5 6.33077 95.8696C7.17434 89.9961 8.45143 84.193 10.1516 78.5079C11.2593 74.7676 12.3669 71.0269 13.5326 67.3051C14.3679 64.896 15.3872 62.5547 16.5816 60.3019C19.0822 55.1213 22.1878 50.2552 25.8333 45.8053C30.2907 40.2382 35.9062 35.7078 42.29 32.5285C46.7163 30.3801 51.5105 29.0926 56.4175 28.7344C58.6739 28.5682 60.892 28.1061 63.136 27.8391C68.4755 27.1307 73.9074 27.7715 78.9355 29.7028C81.8559 30.9401 84.5329 32.6869 86.8415 34.8618C89.8335 37.6701 92.5275 40.7798 94.8808 44.1414C96.1352 45.8238 97.3929 47.4994 98.5383 49.2586C100.009 51.5735 101.258 54.0219 102.27 56.5713C106.763 67.5233 111.279 78.4662 115.818 89.4C116.323 90.6206 116.926 91.802 117.509 92.9891C117.7 93.3615 117.795 93.7758 117.784 94.1941C117.684 98.5185 117.641 102.845 117.478 107.167C117.418 108.746 117.428 110.329 117.325 111.908C117.279 112.423 117.306 112.942 117.405 113.45C117.472 113.733 117.473 114.027 117.408 114.31C117.342 114.593 117.213 114.857 117.029 115.082C115.963 116.5 114.875 117.901 113.777 119.334Z" fill="#E9E9E9"/>
<path d="M158.044 202.559C158.567 200.895 158.757 199.145 158.603 197.407C158.511 195.896 158.346 194.389 158.198 192.881C158.035 191.215 157.852 189.55 157.681 187.884C157.436 185.48 157.192 183.076 156.951 180.673C156.801 179.166 156.67 177.657 156.521 176.15C156.279 173.713 156.025 171.278 155.784 168.841C155.572 166.693 155.377 164.543 155.165 162.395C154.924 159.958 154.638 157.526 154.44 155.086C154.389 153.601 154.106 152.134 153.6 150.737C153.235 149.642 152.596 148.658 151.745 147.879C150.894 147.099 149.858 146.55 148.735 146.283C147.633 146.034 146.499 145.963 145.374 146.071C143.513 146.254 141.637 146.273 139.768 146.375C136.643 146.544 133.52 146.731 130.396 146.897C128.559 146.994 126.719 147.052 124.882 147.149C121.725 147.316 118.57 147.507 115.413 147.673C113.543 147.772 111.671 147.828 109.801 147.926C106.645 148.091 103.489 148.275 100.332 148.45C99.0759 148.52 97.8183 148.509 96.5602 148.622C95.5537 148.62 94.5603 148.849 93.6562 149.292C93.7074 148.052 94.11 146.852 94.8172 145.832C95.6229 144.664 96.5087 143.551 97.3713 142.423C100.823 137.909 104.276 133.396 107.732 128.886C111.006 124.603 114.261 120.305 117.559 116.039C117.909 115.642 118.163 115.171 118.302 114.661C118.442 114.15 118.462 113.615 118.362 113.095C118.207 111.908 118.207 110.707 118.362 109.52C118.517 107.552 118.404 105.58 118.533 103.617C118.744 100.395 118.592 97.1638 118.839 93.9434C118.905 93.0759 118.874 92.2004 118.88 91.3287C118.902 87.9071 119.056 84.4883 119.139 81.0683C119.198 78.617 119.187 76.1608 119.326 73.714C119.46 71.3582 119.378 68.9998 119.515 66.6497C119.655 64.2297 119.573 61.8063 119.711 59.3918C119.849 57.0039 119.862 54.6172 119.879 52.2296C120.072 44.8902 121.701 37.6596 124.675 30.947C126.201 27.1689 128.236 23.6165 130.722 20.3883C132.747 17.6961 135.258 15.4077 138.127 13.6416C141.009 11.8621 144.382 11.0448 147.759 11.3076C150.375 11.5532 152.895 12.4209 155.108 13.8383C158.136 15.7764 160.759 18.285 162.83 21.2243C164.911 24.106 166.663 27.212 168.053 30.4842C168.556 31.8129 168.84 33.2147 168.893 34.6345C168.911 35.4891 168.981 36.3418 169.103 37.1878C168.643 37.1221 168.55 36.7738 168.372 36.5396C166.78 34.3384 164.87 32.3853 162.705 30.7439C161.439 29.7872 160.008 29.0724 158.482 28.6352C157.112 28.2326 155.664 28.1692 154.263 28.4505C152.863 28.7318 151.551 29.3494 150.442 30.25C148.264 32.0429 146.54 34.3245 145.411 36.9093C143.512 41.0144 142.218 45.3729 141.57 49.849C141.08 52.9033 140.744 55.9803 140.563 59.0684C140.321 62.9676 140.294 66.8771 140.481 70.7792C140.778 77.7048 141.639 84.5947 143.057 91.3802C143.166 91.8956 142.955 92.5123 143.49 92.9087C143.957 93.255 144.495 93.0218 144.997 93.0841C145.725 93.1505 146.425 93.3982 147.033 93.8047C147.641 94.2112 148.137 94.7635 148.476 95.4111C149.049 96.536 149.404 97.7586 149.524 99.015C149.749 100.707 149.883 102.41 150.107 104.102C150.358 105.906 151.174 107.585 152.437 108.898C154.509 111.214 156.959 113.163 159.683 114.662C161.274 115.513 162.864 116.379 164.486 117.169C168.81 119.253 172.59 122.316 175.526 126.113C177.343 128.4 178.537 131.118 178.992 134.003C179.352 136.326 179.635 138.662 179.984 140.988C180.157 142.132 180.489 143.245 180.627 144.404C180.768 145.591 180.782 146.783 180.897 147.971C181.126 150.344 181.199 152.732 181.367 155.112C181.588 158.262 181.841 161.41 182.075 164.559C182.146 165.524 182.165 166.489 182.257 167.455C182.456 169.54 182.47 171.643 182.703 173.723C183.041 176.748 181.862 179.199 180.057 181.469C178.107 183.709 176.02 185.826 173.806 187.806C173.091 188.507 172.353 189.183 171.629 189.874C168.428 192.929 165.228 195.985 162.028 199.04C160.769 200.24 159.495 201.424 158.227 202.615L158.044 202.559Z" fill="#E5E4E1"/>
<path d="M130.914 210.23C130.629 211.44 130.231 212.621 129.726 213.758C128.565 216.851 126.792 219.678 124.512 222.068C122.777 223.92 120.567 225.259 118.122 225.941C115.678 226.623 113.094 226.622 110.651 225.937C107.298 225.059 104.151 223.532 101.387 221.442C97.6603 218.704 94.2994 215.501 91.3862 211.91C86.9981 206.567 83.1804 200.779 79.9954 194.642C73.4662 182.198 68.7515 168.883 65.9946 155.103C65.0652 150.555 64.3844 145.959 63.9553 141.337C63.5161 137.002 63.3545 132.644 63.4714 128.289C63.5448 121.991 64.5722 115.74 66.5186 109.75C67.5546 106.547 69.1606 103.558 71.2592 100.927C73.3121 98.2653 76.2247 96.3985 79.5002 95.6447C82.5327 95.0552 85.6709 95.3536 88.5379 96.5042C92.2433 97.9618 95.6553 100.076 98.6098 102.745C102.966 106.605 106.817 111.001 110.07 115.827C110.955 117.098 111.769 118.419 112.648 119.695C112.725 119.777 112.784 119.873 112.823 119.978C112.863 120.083 112.88 120.195 112.875 120.307C112.871 120.419 112.844 120.529 112.796 120.631C112.748 120.732 112.68 120.823 112.597 120.898C112.237 121.404 111.838 121.881 111.403 122.324C110.501 121.733 109.62 121.137 108.718 120.572C106.911 119.309 104.836 118.482 102.655 118.156C101.76 118.005 100.843 118.085 99.9876 118.387C99.1327 118.69 98.3689 119.205 97.7684 119.885C91.9433 126.455 86.0886 133 80.2041 139.518C78.8774 140.969 77.7265 142.571 76.7753 144.291C76.1785 145.347 75.8303 146.525 75.7571 147.736C75.6839 148.946 75.8876 150.158 76.3529 151.278C78.3639 156.655 80.3343 162.047 82.3251 167.432C85.5241 176.084 88.727 184.735 91.934 193.384C92.7171 195.681 93.9235 197.811 95.4908 199.664C96.5156 201.02 98.0178 201.935 99.6925 202.223C99.8366 202.236 99.9726 202.295 100.08 202.392C100.187 202.489 100.26 202.619 100.287 202.761C100.514 203.4 100.805 204.015 101.156 204.595C101.623 205.504 102.317 206.276 103.171 206.837C104.024 207.397 105.008 207.728 106.027 207.795C111.014 208.207 115.995 208.7 120.977 209.163C124.064 209.449 127.149 209.739 130.235 210.031C130.478 210.008 130.721 210.079 130.914 210.23Z" fill="#E1E1E1"/>
<path d="M180.384 109.57C180.379 113.037 180.027 116.494 179.333 119.89C179.026 121.54 178.923 123.222 179.025 124.897C179.066 125.282 179 125.671 178.834 126.021C178.667 126.371 178.407 126.668 178.081 126.878C177.582 127.235 177.52 127.263 177.173 126.745C176.514 125.788 175.796 124.873 175.023 124.006C172.946 121.524 170.446 119.43 167.639 117.82C165.495 116.632 163.396 115.357 161.154 114.352C160.992 114.284 160.851 114.171 160.748 114.028C160.646 113.884 160.585 113.715 160.573 113.539C160.311 111.853 160.038 110.168 159.735 108.489C159.34 106.329 158.692 104.224 157.803 102.216C157.011 100.412 156.374 98.5504 155.712 96.6972C154.897 94.419 154.01 92.166 153.236 89.8745C152.219 86.7135 151.377 83.4987 150.713 80.245C150.189 77.8531 149.483 75.5033 149.043 73.091C148.599 70.6517 148.188 68.2092 147.957 65.7371C147.677 62.725 147.314 59.7202 147.056 56.7063C146.928 55.1983 146.807 53.6909 146.643 52.1858C146.346 49.3588 145.584 46.6004 144.387 44.0223C144.261 43.7835 144.185 43.5213 144.165 43.252C144.144 42.9826 144.18 42.712 144.268 42.4569C145.045 39.89 146.129 37.4264 147.496 35.1196C148.38 33.6131 149.52 32.2731 150.866 31.1603C152.054 30.1446 153.514 29.5003 155.064 29.3072C156.615 29.1141 158.188 29.3809 159.589 30.0743C161.935 31.1782 164.009 32.7845 165.666 34.7794C166.76 36.0148 167.714 37.3537 168.716 38.6584C169.074 39.1149 169.281 39.6718 169.308 40.2514C169.503 43.2407 169.687 46.2311 169.929 49.2168C170.139 51.8171 170.332 54.4184 170.509 57.0208C170.706 59.9434 171.028 62.858 171.205 65.7815C171.282 67.0358 171.353 68.2935 171.472 69.5416C171.708 72.0072 171.785 74.4814 172.126 76.9451C172.735 80.2109 173.685 83.4039 174.959 86.4719C176.76 91.1712 178.209 95.9982 179.292 100.913C180.015 103.742 180.382 106.65 180.384 109.57Z" fill="#DCCDB3"/>
<path d="M142.737 210.125C141.327 210.113 139.92 210.001 138.525 209.789C137.693 209.694 136.856 209.654 136.022 209.572C132.784 209.254 129.536 209.037 126.297 208.726C123.476 208.455 120.652 208.209 117.83 207.952C114.975 207.691 112.123 207.404 109.265 207.18C108.11 207.089 106.963 206.901 105.808 206.798C105.02 206.706 104.266 206.423 103.613 205.973C102.959 205.523 102.426 204.92 102.06 204.216C101.18 202.634 100.643 200.884 100.485 199.08C100.036 196.153 99.5909 193.226 99.1503 190.299C98.6055 186.638 98.0853 182.973 97.5342 179.313C96.988 175.686 96.409 172.063 95.8585 168.437C95.3804 165.286 94.9132 162.135 94.457 158.981C94.2021 157.231 93.9431 155.48 93.7392 153.724C93.6546 152.921 93.6325 152.113 93.673 151.306C93.7199 150.85 93.9373 150.427 94.2818 150.124C94.6263 149.82 95.0725 149.658 95.5316 149.668C96.304 149.617 97.0768 149.496 97.8447 149.497C99.8488 149.5 101.841 149.3 103.84 149.224C106.514 149.123 109.186 148.951 111.86 148.828C114.179 148.721 116.498 148.601 118.814 148.45C121.774 148.257 124.741 148.216 127.697 147.951C128.98 147.836 130.275 147.816 131.562 147.771C133.561 147.701 135.561 147.591 137.556 147.476C140.419 147.31 143.29 147.273 146.147 146.986C147.541 146.835 148.945 147.159 150.132 147.904C151.319 148.649 152.221 149.772 152.693 151.092C153.106 152.246 153.354 153.451 153.43 154.674C153.564 156.309 153.778 157.937 153.943 159.57C154.097 161.107 154.225 162.647 154.377 164.185C154.55 165.946 154.745 167.705 154.917 169.467C155.073 171.069 155.201 172.674 155.358 174.276C155.521 175.941 155.708 177.604 155.876 179.268C156.026 180.742 156.163 182.216 156.308 183.69C156.492 185.547 156.686 187.403 156.864 189.261C157.017 190.864 157.15 192.468 157.302 194.071C157.513 195.7 157.634 197.341 157.663 198.983C157.65 200.897 157.073 202.764 156.006 204.353C155.169 205.539 154.191 206.62 153.094 207.572C151.852 208.564 150.376 209.222 148.808 209.484C148.37 209.594 147.925 209.671 147.475 209.715C145.909 209.975 144.325 210.113 142.737 210.125Z" fill="#DCCDB3"/>
<path d="M99.8217 201.171C99.2615 201.205 98.7067 201.045 98.2511 200.717C97.3336 200.168 96.5294 199.449 95.8816 198.599C94.6792 197.076 93.7264 195.372 93.0589 193.55C87.817 179.433 82.5843 165.313 77.3607 151.189C76.9052 150.119 76.7049 148.958 76.7756 147.797C76.8462 146.636 77.1859 145.507 77.7678 144.5C78.6737 142.938 79.7474 141.478 80.9699 140.149C86.8466 133.624 92.6991 127.078 98.5277 120.51C99.1616 119.767 100.052 119.29 101.022 119.173C102.115 119.037 103.224 119.15 104.268 119.502C106.475 120.337 108.554 121.477 110.445 122.888C110.859 123.166 110.697 123.381 110.483 123.661C109.067 125.504 107.655 127.35 106.247 129.199C102.322 134.324 98.3975 139.45 94.4738 144.577C92.9815 146.519 92.3131 148.971 92.6129 151.402C92.7774 153.068 92.8186 154.744 93.0747 156.404C93.7184 160.575 94.3518 164.748 94.9749 168.922C95.5213 172.553 96.0547 176.187 96.6003 179.819C97.2081 183.865 97.8196 187.911 98.4347 191.956C98.8952 195.006 99.3531 198.056 99.8217 201.171Z" fill="#E1E1E1"/>
<path d="M143.612 45.033C143.874 45.2918 144.055 45.6217 144.133 45.9819C145.069 48.5644 145.645 51.2635 145.844 54.0032C146.297 59.2122 146.692 64.4286 147.422 69.6087C147.773 72.1345 148.27 74.638 148.911 77.1065C149.898 80.8838 150.569 84.7407 151.739 88.4707C153.082 92.7527 154.632 96.968 156.316 101.121C157.759 104.508 158.736 108.075 159.221 111.725C159.359 112.188 159.415 112.671 159.386 113.154C159.077 113.25 158.904 113.012 158.698 112.883C156.97 111.748 155.359 110.443 153.89 108.987C152.968 108.125 152.226 107.089 151.71 105.937C151.193 104.785 150.911 103.543 150.88 102.281C150.82 100.731 150.631 99.1898 150.317 97.6716C150.136 96.7521 149.833 95.8608 149.418 95.0208C149.014 94.1863 148.395 93.4748 147.624 92.9603C146.853 92.4458 145.958 92.1471 145.033 92.095C144.228 92.0218 144.218 92.0277 144.056 91.2445C143.207 87.133 142.582 82.9875 142.128 78.8136C141.504 73.2282 141.27 67.6061 141.429 61.9881C141.541 56.6591 142.177 51.354 143.328 46.1495C143.407 45.8065 143.501 45.467 143.612 45.033Z" fill="#F2F2EA"/>
<path d="M147.021 184.709C147.074 190.087 145.226 195.31 141.802 199.456C138.642 203.345 134.266 206.058 129.378 207.16C124.49 208.262 119.373 207.689 114.85 205.532C112.027 204.235 109.448 202.462 107.226 200.29C105.583 198.597 104.202 196.668 103.132 194.566C102.939 194.251 102.85 193.883 102.879 193.515C102.907 193.147 103.051 192.797 103.29 192.516C103.798 191.809 104.279 191.08 104.812 190.393C104.946 190.255 105.032 190.078 105.057 189.887C105.081 189.696 105.043 189.503 104.949 189.336C104.359 188.152 103.79 186.957 103.217 185.765C103.167 185.645 103.086 185.541 102.984 185.462C102.882 185.383 102.761 185.332 102.633 185.313C102.475 185.28 102.319 185.238 102.167 185.184C100.928 184.783 100.77 184.474 100.935 183.21C101.075 181.866 101.306 180.533 101.628 179.22C102.104 177.408 102.826 175.671 103.774 174.055C104.999 171.853 106.5 169.816 108.241 167.995C111.597 164.586 115.968 162.358 120.698 161.645C121.934 161.414 123.19 161.305 124.447 161.319C127.452 161.41 130.412 162.073 133.169 163.274C136.867 164.931 140.071 167.519 142.468 170.786C144.866 174.053 146.374 177.886 146.845 181.911C146.954 182.84 147.013 183.774 147.021 184.709Z" fill="#5D4E47"/>
<path d="M118 186.283C112.911 186.279 107.842 185.635 102.913 184.369C102.727 184.319 102.541 184.265 102.354 184.217C102.275 184.205 102.199 184.176 102.131 184.133C102.064 184.09 102.006 184.033 101.961 183.966C101.917 183.899 101.887 183.824 101.874 183.745C101.861 183.666 101.864 183.585 101.884 183.507C102.197 178.49 104.349 173.765 107.928 170.235C110.94 167.212 114.87 165.274 119.102 164.726C123.034 164.211 127.03 164.869 130.59 166.617C134.149 168.364 137.113 171.124 139.11 174.55C140.393 176.758 141.281 179.173 141.734 181.687C141.91 182.618 141.858 182.687 140.931 182.987C137.18 184.184 133.329 185.038 129.425 185.54C125.637 186.046 121.82 186.294 118 186.283Z" fill="#E5E4E1"/>
<path d="M104.154 194.095C116.27 196.965 128.205 196.403 140.282 193.411C139.223 196.02 137.59 198.357 135.504 200.248C132.372 203.248 128.306 205.084 123.985 205.449C113.681 206.381 106.36 199.535 104.154 194.095Z" fill="#E5E4E1"/>
<path d="M123.378 206.454C127.338 206.274 131.151 204.9 134.317 202.514C136.544 200.923 138.43 198.902 139.864 196.571C141.298 194.24 142.251 191.645 142.668 188.94C143.234 185.883 143.125 182.738 142.347 179.727C141.569 176.717 140.141 173.913 138.164 171.512C134.983 167.454 130.403 164.728 125.319 163.867C122.612 163.374 119.833 163.447 117.156 164.081C116.906 164.14 116.65 164.172 116.397 164.217C116.201 164.277 115.98 164.388 116 164.018C118.47 162.965 121.125 162.419 123.809 162.41C129.127 162.298 134.292 164.199 138.268 167.733C142.681 171.577 145.42 176.991 145.904 182.823C146.387 188.656 144.576 194.447 140.856 198.965C138.767 201.553 136.087 203.6 133.041 204.935C129.995 206.269 126.673 206.851 123.354 206.632C123.238 206.556 123.246 206.497 123.378 206.454Z" fill="#E5E4E1"/>
<path d="M104.312 185.792C105.485 185.995 106.493 186.172 107.502 186.344C109.695 186.707 111.905 186.958 114.124 187.093C116.318 187.239 118.51 187.299 120.702 187.232C124.795 187.125 128.874 186.708 132.903 185.984C135.694 185.472 138.451 184.79 141.159 183.943C141.93 183.7 141.978 183.732 141.983 184.552C141.989 185.456 141.991 186.361 141.939 187.262C141.897 188.006 141.781 188.093 141.059 188.3C137.673 189.236 134.225 189.934 130.742 190.388C125.874 190.994 120.962 191.162 116.064 190.89C112.876 190.747 109.707 190.311 106.599 189.586C106.471 189.575 106.348 189.534 106.241 189.466C106.133 189.397 106.043 189.303 105.98 189.192C105.445 188.103 104.911 187.013 104.312 185.792Z" fill="#DCCDB3"/>
<path d="M104.222 192.931C104.722 192.217 105.205 191.536 105.678 190.847C105.772 190.698 105.915 190.586 106.082 190.53C106.249 190.474 106.431 190.479 106.595 190.543C109.367 191.146 112.178 191.55 115.007 191.754C118.481 192.014 121.968 192.048 125.447 191.857C129.345 191.671 133.22 191.147 137.028 190.291C138.504 189.96 139.971 189.595 141.566 189.216C141.478 190.187 141.23 191.138 140.83 192.028C140.716 192.301 140.417 192.329 140.176 192.393C137.624 193.083 135.037 193.637 132.427 194.054C130.451 194.359 128.469 194.606 126.48 194.775C123.809 195 121.127 195.072 118.448 194.992C113.9 194.909 109.374 194.331 104.952 193.268C104.683 193.222 104.431 193.105 104.222 192.931Z" fill="#DCCDB3"/>
<path d="M116 164.018C116.048 164.077 116.108 164.126 116.176 164.16C116.245 164.195 116.32 164.214 116.396 164.216C115.836 164.501 115.237 164.702 114.618 164.811C114.594 164.793 114.576 164.769 114.567 164.741C114.558 164.713 114.558 164.683 114.567 164.655C114.587 164.604 114.607 164.579 114.625 164.579C115.051 164.32 115.515 164.131 116 164.018Z" fill="#DCCDB3"/>
<path d="M123.377 206.454C123.363 206.512 123.355 206.572 123.354 206.632C123.084 206.673 122.808 206.639 122.557 206.532C122.817 206.429 123.102 206.402 123.377 206.454Z" fill="#797569"/>
<path d="M114.626 164.579L114.618 164.81C114.464 165 114.251 164.975 114.043 164.966C114.191 164.778 114.395 164.643 114.626 164.579Z" fill="#817163"/>
<path d="M114 165.038C113.951 165.06 113.89 165.111 113.856 165.097C113.781 165.065 113.794 165.01 113.877 164.989C113.932 164.978 113.987 164.97 114.042 164.966L114 165.038Z" fill="#817163"/>
</g>
<g style="mix-blend-mode:hue">
<rect width="320" height="320" fill="#00BF13"/>
</g>
</g>
<defs>
<clipPath id="clip0_1444_1023">
<rect width="320" height="320" fill="white"/>
</clipPath>
<clipPath id="clip1_1444_1023">
<rect width="320" height="320" fill="white"/>
</clipPath>
</defs>
</svg>
