<svg width="320" height="320" viewBox="0 0 320 320" fill="none" xmlns="http://www.w3.org/2000/svg">
<g clip-path="url(#clip0_1444_870)">
<rect width="320" height="320" fill="#DCFFE0"/>
<g clip-path="url(#clip1_1444_870)">
<path d="M254.736 113.351C251.708 113.263 248.714 112.691 245.868 111.655C244.306 111.123 242.786 110.476 241.32 109.719C239.303 108.78 237.336 107.739 235.425 106.599C232.714 104.808 229.955 103.092 227.25 101.291C222.318 97.9392 216.836 95.4784 211.053 94.0205C208.381 93.3741 205.657 92.9666 202.913 92.8026C200.94 92.6777 198.964 92.6672 196.991 92.5739C195.914 92.5752 194.845 92.7656 193.834 93.1366C186.869 95.3042 179.903 97.4713 172.937 99.638C148.916 107.111 124.893 114.581 100.87 122.049C98.3161 122.842 95.8392 123.852 93.2829 124.636C90.7519 125.411 88.1913 126.089 85.7059 127.015C81.7681 128.408 77.9869 130.21 74.424 132.39C74.3122 132.441 74.219 132.525 74.1572 132.631C74.0953 132.738 74.0678 132.86 74.0785 132.983C74.0775 133.309 73.9941 133.63 73.8361 133.916C73.5965 134.431 73.5961 134.435 74.0864 134.775C75.0929 135.473 76.1008 136.17 77.1099 136.864C78.8588 138.071 80.6075 139.279 82.356 140.487C82.4644 140.587 82.5971 140.657 82.7409 140.69C82.8847 140.723 83.0347 140.718 83.1759 140.675C85.4894 139.949 87.8673 139.469 90.2194 138.892C99.3429 136.653 108.471 134.431 117.602 132.225C120.54 131.484 123.566 131.148 126.595 131.228C130.223 131.33 133.821 131.921 137.291 132.986C138.6 133.407 139.857 133.976 141.038 134.681C152.212 141.224 163.391 147.758 174.575 154.283C178.517 156.571 182.253 159.162 186.005 161.733C199.41 170.918 212.817 180.103 226.224 189.286C226.853 189.689 227.303 190.318 227.483 191.043C228.504 194.803 229.578 198.548 230.634 202.298C230.973 203.502 230.54 204.209 229.295 204.452C228.412 204.624 227.524 204.768 226.642 204.943C226.508 204.973 226.37 204.971 226.237 204.939C226.104 204.907 225.98 204.845 225.875 204.758C225.394 204.399 224.886 204.076 224.418 203.701C224.29 203.586 224.125 203.521 223.953 203.517C223.781 203.512 223.613 203.57 223.479 203.678C223.245 203.785 223.05 203.962 222.921 204.185C222.792 204.407 222.735 204.664 222.758 204.921C222.768 206.244 222.66 207.568 222.658 208.892C222.678 209.138 222.614 209.384 222.476 209.589C222.339 209.794 222.136 209.947 221.901 210.022C219.695 211.026 217.519 212.098 215.309 213.093C214.505 213.445 213.796 213.986 213.244 214.668C212.692 215.351 212.312 216.157 212.136 217.018C211.61 219.176 211.116 221.345 210.559 223.493C209.476 227.688 207.176 231.468 203.95 234.358C201.78 236.33 199.278 237.902 196.56 239.002C194.846 239.759 193.073 240.378 191.26 240.85C188.146 241.508 184.931 241.538 181.806 240.938C177.644 240.203 173.583 238.982 169.706 237.301C167.402 236.334 165.025 235.55 162.727 234.567C162.199 234.341 161.669 234.117 161.139 233.895C158.534 232.772 156.232 231.047 154.422 228.861C152.873 227.059 151.417 225.187 150.029 223.258C148.216 220.588 146.751 217.698 145.67 214.657C144.183 210.705 142.925 206.671 141.901 202.575C141.525 201.073 141.074 199.59 140.548 198.134C139.877 196.197 138.487 194.593 136.665 193.654C136.046 193.331 136.048 193.322 135.675 193.892C134.881 195.076 134.003 196.201 133.047 197.258C130.829 199.69 128.074 201.569 125.001 202.747C123.25 203.421 121.421 203.872 119.557 204.091C117.874 204.319 116.181 204.483 114.491 204.655C113.393 204.74 112.292 204.764 111.191 204.727C109.265 204.71 107.34 204.69 105.414 204.669C102.581 204.682 99.7737 204.134 97.154 203.056C97.0414 203.002 96.9254 202.955 96.8066 202.916C93.4825 201.999 90.4888 200.301 87.3663 198.911C83.4641 197.15 79.8155 194.874 76.5181 192.144C74.7583 190.705 72.8829 189.409 71.2027 187.868C67.4189 184.436 64.7126 179.979 63.4125 175.039C62.6034 171.971 62.0037 168.852 61.6174 165.703C60.9691 159.969 60.0183 154.273 58.7689 148.639C57.9376 145.215 56.8936 141.847 55.643 138.553C55.0352 136.907 54.8504 135.135 55.1055 133.399C55.2315 132.434 55.258 131.457 55.4763 130.504C56.287 126.602 58.3824 123.084 61.4275 120.514C62.7371 119.463 64.2403 118.679 65.8516 118.208C72.0133 116.23 78.1717 114.243 84.327 112.246C91.3172 109.989 98.2903 107.677 105.303 105.493C110.503 103.875 115.752 102.415 120.983 100.899C135.86 96.5847 150.739 92.2742 165.618 87.9671C169.386 86.8751 173.147 85.7606 176.918 84.6785C178.408 84.2509 179.951 84.0638 181.469 83.7611C183.139 83.4279 184.77 82.9617 186.402 82.4886C189.046 81.7221 191.759 81.2634 194.444 80.6788C196.299 80.2749 198.134 79.7825 200.005 79.4484C203.701 78.7383 207.509 78.8652 211.149 79.8199C213.928 80.5506 216.662 81.4377 219.341 82.4768C231.892 87.4291 244.34 92.637 256.85 97.6901C259.761 98.8935 262.237 100.953 263.95 103.595C264.595 104.484 264.96 105.545 264.998 106.642C265.036 107.739 264.746 108.823 264.164 109.754C263.648 110.65 262.867 111.365 261.928 111.8C260.355 112.577 258.654 113.059 256.907 113.224C256.187 113.316 255.462 113.358 254.736 113.351Z" fill="#5D4E47"/>
<path d="M101.44 151.998C101.607 151.855 101.807 151.757 102.022 151.711C109.752 148.775 117.465 145.792 125.22 142.926C128.706 141.645 132.529 141.61 136.037 142.828C137.104 143.178 138.158 143.577 139.198 144.001C140.192 144.41 141.14 144.924 142.026 145.534C148.861 150.196 155.741 154.793 162.536 159.514C168.407 163.592 174.184 167.805 180.001 171.962C191.492 180.173 202.983 188.386 214.472 196.6C214.694 196.758 214.91 196.924 215.125 197.084C215.006 197.323 214.788 197.327 214.616 197.405C213.879 197.719 213.188 198.132 212.563 198.634C212.057 199.046 211.427 199.273 210.775 199.278C207.953 199.491 205.116 199.173 202.411 198.341C189.81 194.278 177.198 190.25 164.574 186.257C162.937 185.801 161.269 185.464 159.584 185.25C157.759 184.951 155.923 184.738 154.08 184.564C151.536 184.335 148.973 184.465 146.466 184.95C144.642 185.278 142.775 185.29 140.947 184.985C139.979 184.869 139.025 184.657 138.099 184.353C137.629 184.186 137.21 183.903 136.879 183.53C135.86 182.46 134.689 181.547 133.403 180.82C132.954 180.548 132.498 180.288 132.039 180.033C131.051 179.476 130.275 178.606 129.833 177.561C129.413 176.599 129.081 175.601 128.839 174.58C128.178 171.922 126.832 169.483 124.935 167.507C124.197 166.725 123.364 166.039 122.455 165.463C115.617 161.125 108.783 156.779 101.956 152.423C101.773 152.306 101.541 152.237 101.44 151.998Z" fill="#DCFFE0"/>
<path d="M64.2498 126.749C64.2 126.673 64.1698 126.586 64.1618 126.496C64.1538 126.405 64.1684 126.314 64.2041 126.231C64.734 123.974 65.2803 121.721 65.7909 119.46C65.8194 119.277 65.9024 119.107 66.0289 118.973C66.1554 118.838 66.3196 118.744 66.5001 118.704C71.1382 117.218 75.774 115.724 80.4074 114.222C83.1882 113.323 85.9641 112.408 88.7449 111.508C93.6642 109.916 98.5801 108.314 103.507 106.747C108.575 105.136 113.692 103.689 118.804 102.227C122.428 101.191 126.043 100.123 129.663 99.0747C133.308 98.0197 136.955 96.9767 140.599 95.9194C144.722 94.7229 148.841 93.51 152.965 92.3162C157.64 90.963 162.321 89.6294 166.996 88.2751C170.377 87.2957 173.751 86.2941 177.13 85.3077C177.993 85.0557 178.887 84.9477 179.767 84.7791C182.12 84.3343 184.449 83.7707 186.745 83.0905C189.399 82.2978 192.142 81.8637 194.844 81.2671C196.817 80.8317 198.767 80.2948 200.767 79.9913C201.425 79.8487 202.097 79.7733 202.771 79.766C203.4 79.7981 204.008 79.6304 204.634 79.6108C206.907 79.6219 209.168 79.943 211.354 80.5652C214.586 81.4295 217.759 82.504 220.852 83.7817C223.669 84.8724 226.456 86.035 229.261 87.1539C233.32 88.7733 237.352 90.4629 241.397 92.1163C243.57 93.0044 245.75 93.8762 247.924 94.7615C251.047 96.0329 254.176 97.2888 257.284 98.5951C258.503 99.1221 259.62 99.8588 260.584 100.772C261.782 101.828 262.822 103.052 263.67 104.406C263.998 104.974 264.208 105.603 264.287 106.254C264.367 106.905 264.315 107.566 264.133 108.196C263.952 108.826 263.645 109.414 263.231 109.923C262.818 110.432 262.306 110.853 261.726 111.16C260.021 112.065 258.128 112.562 256.197 112.61C255.655 112.695 255.108 112.741 254.559 112.751C253.2 112.589 251.828 112.544 250.481 112.26C247.417 111.636 244.456 110.59 241.679 109.152C239.932 108.235 238.085 107.5 236.42 106.432C233.604 104.627 230.746 102.888 227.988 100.989C226.551 100 225.016 99.1485 223.504 98.2718C221.513 97.1223 219.436 96.1257 217.294 95.2908C216.234 94.8353 215.254 94.2149 214.389 93.4526C212.17 91.5689 209.526 90.2528 206.685 89.6177C205.614 89.3802 204.522 89.2498 203.426 89.2286C201.803 89.1591 200.178 89.2095 198.562 89.3794C195.896 89.7334 193.222 90.0438 190.589 90.6155C189.835 90.7792 189.071 90.9046 188.308 91.0195C187.377 91.1986 186.46 91.4456 185.565 91.7585C180.071 93.4294 174.58 95.1081 169.091 96.7946C166.107 97.71 163.13 98.6454 160.145 99.5587C155.634 100.939 151.117 102.303 146.605 103.685C143.645 104.591 140.693 105.524 137.732 106.43C133.054 107.863 128.373 109.29 123.691 110.712C120.921 111.558 118.156 112.419 115.387 113.267C113.262 113.918 111.124 114.524 109.012 115.214C107.375 115.749 105.767 116.372 104.152 116.974C101.788 117.856 99.3852 118.626 97.0056 119.462C94.672 120.283 92.324 121.048 89.9229 121.647C88.0836 122.106 86.2271 122.48 84.3614 122.813C82.2519 123.189 80.148 123.598 78.0347 123.951C77.0289 124.119 76.0089 124.215 74.9917 124.299C72.4034 124.483 69.8441 124.96 67.3628 125.719C66.3195 126.05 65.284 126.406 64.2498 126.749Z" fill="#6A443F"/>
<path d="M78.0886 143.072C77.9212 143.27 77.7045 143.419 77.4607 143.506C76.6399 143.935 75.8879 144.484 75.2298 145.135C74.6808 145.639 74.3089 146.307 74.1695 147.039C74.0301 147.771 74.1306 148.529 74.4559 149.199C75.3302 151.193 76.9547 152.763 78.9776 153.568C80.3027 154.094 81.6953 154.431 83.1143 154.569C84.7505 154.782 86.3994 154.88 88.0491 154.865C90.9525 154.851 93.8347 154.37 96.5853 153.441C96.8452 153.336 97.1287 153.303 97.4057 153.346C97.6827 153.389 97.9428 153.507 98.1585 153.686C102.458 156.652 106.787 159.575 111.107 162.512C114.042 164.507 117.001 166.468 119.905 168.506C121.081 169.299 122.066 170.342 122.789 171.562C123.513 172.781 123.956 174.146 124.088 175.557C124.524 179.745 124.021 183.977 122.616 187.945C121.362 191.848 119.678 195.599 117.596 199.129C117.368 199.458 117.163 199.801 116.981 200.157C116.862 200.456 116.64 200.703 116.355 200.853C116.07 201.003 115.741 201.046 115.427 200.975C113.258 200.817 111.113 200.427 109.028 199.811C106.109 198.938 103.248 197.88 100.462 196.643C96.8348 195.091 93.1748 193.609 89.6678 191.792C86.2646 190.091 83.1054 187.941 80.275 185.398C78.1902 183.412 76.4382 181.102 75.0862 178.559C73.9745 176.464 73.0781 174.262 72.4108 171.986C71.8108 169.927 71.4099 167.816 71.2136 165.68C70.9015 162.955 70.528 160.237 70.229 157.51C69.9302 154.785 69.426 152.076 69.5839 149.312C69.6123 148.372 69.8276 147.448 70.2172 146.593C70.6067 145.737 71.1627 144.968 71.8528 144.33C72.5411 143.725 73.3524 143.277 74.2308 143.016C75.1091 142.756 76.0336 142.689 76.9403 142.82C77.3392 142.794 77.7374 142.881 78.0886 143.072Z" fill="#DCCDB3"/>
<path d="M229.772 202.213C228.673 201.437 227.574 200.666 226.48 199.889C223.956 198.096 221.433 196.302 218.911 194.506C215.676 192.205 212.441 189.904 209.207 187.603C207.089 186.099 204.964 184.607 202.846 183.104C199.61 180.806 196.374 178.505 193.141 176.202C190.962 174.656 188.773 173.123 186.595 171.577C182.564 168.715 178.535 165.85 174.509 162.982C173.288 162.114 172.068 161.244 170.839 160.387C170.651 160.256 170.394 160.008 170.189 160.297C169.993 160.573 170.271 160.741 170.475 160.887C172.327 162.203 174.18 163.519 176.032 164.835C180.123 167.743 184.213 170.652 188.303 173.561C191.236 175.642 194.178 177.709 197.11 179.791C201.08 182.609 205.048 185.432 209.013 188.257C211.925 190.325 214.839 192.388 217.757 194.447C221.628 197.189 225.499 199.933 229.368 202.678C229.471 202.748 229.568 202.829 229.655 202.918C230.002 203.283 229.933 203.627 229.448 203.756C228.895 203.903 228.311 203.938 227.765 204.101C227.314 204.225 226.839 204.232 226.385 204.121C225.931 204.009 225.514 203.783 225.172 203.464C221.876 201.035 218.515 198.696 215.184 196.314C211.326 193.555 207.47 190.792 203.619 188.023C200.654 185.902 197.679 183.795 194.713 181.675C191.179 179.149 187.647 176.619 184.117 174.086C181.599 172.286 179.078 170.488 176.555 168.695C172.756 165.981 168.971 163.248 165.158 160.555C162.731 158.841 160.267 157.177 157.812 155.503C154.056 152.942 150.296 150.386 146.532 147.836C144.776 146.644 143.021 145.45 141.251 144.278C140.41 143.785 139.522 143.377 138.6 143.059C137.262 142.504 135.88 142.058 134.47 141.725C133.618 141.539 132.751 141.426 131.879 141.386C129.838 141.251 127.79 141.469 125.823 142.032C124.485 142.423 123.194 142.979 121.886 143.473C118.755 144.656 115.626 145.843 112.498 147.033C109.159 148.301 105.821 149.569 102.482 150.838C99.3627 152.049 96.157 153.026 92.8919 153.759C91.7001 154.035 90.4798 154.17 89.2564 154.161C88.8019 154.15 88.3603 154.302 87.9179 154.285C85.2018 154.182 82.485 154.077 79.8644 153.226C78.013 152.635 76.4365 151.397 75.4239 149.738C75.1599 149.379 74.9717 148.97 74.8705 148.535C74.7694 148.101 74.7575 147.651 74.8355 147.212C74.9135 146.773 75.0798 146.354 75.3244 145.981C75.5689 145.608 75.8867 145.289 76.2583 145.043C77.2023 144.387 78.1929 143.802 79.2221 143.291C80.7285 142.35 82.3494 141.605 84.0451 141.076C85.7374 140.645 87.4357 140.238 89.1322 139.824C91.1685 139.326 93.2052 138.831 95.2424 138.337C99.3397 137.339 103.437 136.341 107.534 135.342C111.049 134.486 114.565 133.63 118.08 132.774C119.513 132.423 120.981 132.313 122.434 132.092C123.475 131.934 124.524 131.989 125.565 131.849C126.538 131.8 127.514 131.851 128.476 132.003C129.864 132.107 131.247 132.313 132.623 132.553C135.175 132.908 137.652 133.674 139.958 134.823C141.211 135.498 142.422 136.249 143.651 136.969C146.452 138.611 149.252 140.253 152.052 141.897C155.758 144.071 159.464 146.244 163.17 148.417C167.483 150.937 171.8 153.452 176.12 155.96C178.806 157.514 181.317 159.329 183.875 161.073C188.56 164.267 193.24 167.468 197.915 170.677C201.377 173.048 204.838 175.422 208.296 177.799C212.643 180.778 216.991 183.756 221.341 186.733C222.927 187.82 224.506 188.918 226.098 189.998C226.431 190.213 226.668 190.55 226.759 190.937C227.748 194.52 228.766 198.094 229.777 201.671C229.823 201.836 229.915 201.996 229.772 202.213Z" fill="#6A443F"/>
<path d="M205.71 217.313C205.765 218.89 205.652 220.468 205.373 222.021C205.244 222.836 204.991 223.627 204.623 224.366C203.892 225.845 203.09 227.284 202.218 228.685C200.912 230.722 198.962 232.263 196.678 233.064C193.989 234.04 191.105 234.357 188.269 233.989C185.149 233.566 182.076 232.852 179.09 231.857C173.472 230.159 167.968 228.103 162.613 225.701C161.12 225.102 159.798 224.145 158.762 222.915C157.923 221.857 157.326 220.628 157.016 219.314C156.893 218.675 156.873 218.02 156.959 217.374C157.136 215.363 157.369 213.355 157.585 211.347C157.857 208.817 158.387 206.324 158.671 203.797C158.847 202.56 158.92 201.31 158.89 200.061C158.781 198.018 158.222 196.179 156.53 194.848C155.481 194.033 154.271 193.449 152.98 193.136C152.158 192.927 151.322 192.769 150.498 192.569C150.183 192.491 149.876 192.385 149.579 192.252C149.312 192.14 149.084 191.951 148.926 191.708C148.768 191.465 148.686 191.18 148.692 190.891C148.667 190.266 149.102 189.954 149.573 189.701C150.046 189.472 150.554 189.322 151.076 189.258C152.537 189.043 154.024 189.062 155.479 189.313C158.684 189.839 161.853 190.563 164.968 191.482C169.995 192.888 174.915 194.639 179.883 196.232C185.661 198.084 191.423 199.983 197.199 201.837C198.77 202.429 200.197 203.346 201.389 204.527C202.658 205.646 203.683 207.014 204.399 208.547C205.115 210.08 205.507 211.743 205.551 213.435C205.625 214.731 205.715 216.025 205.71 217.313Z" fill="#DCCDB3"/>
<path d="M137.913 185.061C138.784 185.22 139.565 185.485 140.381 185.576C141.372 185.686 142.36 185.876 143.354 185.907C144.227 185.927 145.1 185.861 145.961 185.709C147.579 185.404 149.215 185.201 150.859 185.102C152.033 185.075 153.208 185.126 154.375 185.254C155.839 185.388 157.302 185.556 158.754 185.8C161.078 186.122 163.375 186.615 165.626 187.274C172.116 189.372 178.617 191.431 185.114 193.506C189.85 195.019 194.579 196.55 199.323 198.037C201.062 198.665 202.835 199.194 204.633 199.621C206.616 200.032 208.65 200.135 210.664 199.928C210.749 199.935 210.833 199.95 210.915 199.973C210.045 201.018 209.375 202.213 208.938 203.5C208.319 202.851 207.632 202.27 206.891 201.766C205.779 200.953 204.528 200.349 203.2 199.984C202.935 199.917 202.589 199.778 202.487 200.124C202.37 200.517 202.79 200.514 203.026 200.578C204.907 201.125 206.623 202.128 208.022 203.499C208.446 203.891 208.78 204.37 209.004 204.902C209.228 205.434 209.336 206.008 209.32 206.585C209.32 209.959 209.324 213.333 209.332 216.707C209.304 216.982 209.333 217.259 209.416 217.522C209.432 217.582 209.467 217.636 209.515 217.677C209.563 217.717 209.623 217.741 209.685 217.746C209.762 217.75 209.837 217.724 209.895 217.675C209.953 217.625 209.99 217.555 209.998 217.479C210.026 217.282 210.038 217.083 210.034 216.883C210.037 215.159 210.032 213.434 210.036 211.709C210.038 210.993 210.045 210.993 210.73 210.995C211.695 211.045 212.662 210.999 213.618 210.86C213.782 211.053 213.641 211.176 213.561 211.274C212.598 212.621 211.964 214.173 211.708 215.808C211.358 217.366 211.034 218.929 210.583 220.463C210.387 221.131 210.295 221.829 210.13 222.507C209.346 225.825 207.809 228.918 205.638 231.547C203.479 234.157 200.778 236.265 197.723 237.726C196.983 238.09 196.171 238.284 195.346 238.295C193.521 238.319 191.693 238.353 189.869 238.284C188.15 238.182 186.443 237.922 184.77 237.509C180.57 236.487 176.451 235.156 172.447 233.526C170.234 232.67 167.985 231.902 165.817 230.932C164.022 230.23 162.337 229.273 160.814 228.093C160.298 227.657 159.813 227.186 159.361 226.685C159.004 226.297 158.746 225.829 158.607 225.32C158.441 224.698 158.266 224.079 158.1 223.477C158.305 223.336 158.377 223.475 158.446 223.554C159.753 224.946 161.365 226.016 163.155 226.681C167.693 228.655 172.326 230.399 177.039 231.908C179.975 232.892 182.967 233.699 186.001 234.322C187.496 234.611 189.013 234.772 190.536 234.801C193.044 234.851 195.532 234.339 197.816 233.302C199.962 232.357 201.758 230.765 202.954 228.749C203.693 227.474 204.423 226.193 205.087 224.876C205.624 223.747 205.981 222.542 206.147 221.304C206.322 220.347 206.398 219.374 206.373 218.402C206.296 216.832 206.391 215.259 206.208 213.69C206.119 212.647 205.976 211.61 205.78 210.582C205.096 207.79 203.497 205.308 201.236 203.532C200.989 203.321 200.733 203.121 200.476 202.923C199.346 202.055 198.067 201.401 196.702 200.995C193.334 199.963 189.998 198.83 186.647 197.742C180.992 195.907 175.327 194.102 169.683 192.232C165.738 190.962 161.729 189.897 157.673 189.044C155.826 188.592 153.923 188.412 152.024 188.51C151.098 188.539 150.186 188.742 149.336 189.11C148.964 189.23 148.64 189.465 148.411 189.781C148.181 190.097 148.057 190.478 148.058 190.869C148.042 191.296 148.159 191.719 148.394 192.077C148.628 192.435 148.968 192.712 149.367 192.868C150.038 193.139 150.738 193.337 151.452 193.457C152.611 193.651 153.738 194.002 154.802 194.501C155.715 194.92 156.503 195.568 157.092 196.382C157.68 197.195 158.048 198.148 158.16 199.145C158.289 200.586 158.252 202.037 158.048 203.468C157.836 205.853 157.33 208.197 157.037 210.573C156.786 212.601 156.601 214.635 156.355 216.664C156.185 218.409 156.39 220.171 156.957 221.83C157.34 223.069 157.653 224.33 158.007 225.578C158.238 226.269 158.631 226.894 159.153 227.4C160.662 228.979 162.488 230.22 164.511 231.041C169.877 233.365 175.361 235.408 180.94 237.16C183.367 237.936 185.863 238.477 188.393 238.777C190.132 238.96 191.88 239.042 193.628 239.022C193.893 239.01 194.159 239.032 194.419 239.087C193.126 239.671 191.769 240.103 190.375 240.374C189.072 240.606 187.751 240.721 186.427 240.719C184.755 240.675 183.09 240.501 181.445 240.2C177.165 239.523 173.152 238.013 169.168 236.387C166.856 235.444 164.513 234.576 162.193 233.647C159.709 232.696 157.473 231.193 155.655 229.251C154.045 227.507 152.551 225.66 151.182 223.722C150.036 222.176 149.026 220.533 148.164 218.813C146.72 215.683 145.484 212.461 144.464 209.169C143.574 206.359 142.876 203.497 142.064 200.667C141.724 199.414 141.291 198.188 140.769 197C140.004 195.326 138.695 193.96 137.056 193.124C136.316 192.728 136.311 192.723 136.674 191.965C137.151 191.003 137.527 189.993 137.794 188.952C138.071 187.673 138.112 186.354 137.913 185.061Z" fill="#3C1F1B"/>
<path d="M106.509 203.848C105.438 203.948 104.36 203.967 103.286 203.904C101.058 203.767 99.0224 202.951 96.9262 202.289C93.808 201.305 90.9458 199.769 87.9756 198.466C85.3906 197.324 82.9134 195.952 80.5737 194.367C78.6447 193.068 76.8925 191.534 75.0275 190.151C73.2518 188.853 71.5969 187.397 70.0831 185.801C67.7786 183.391 66.0064 180.524 64.8814 177.385C63.8434 174.364 63.0919 171.251 62.6367 168.089C62.1983 165.206 61.8668 162.31 61.4542 159.424C60.5307 152.216 58.7867 145.137 56.256 138.325C55.6117 136.559 55.47 134.65 55.8466 132.808C55.8648 132.65 55.9178 132.498 56.0017 132.363C56.0856 132.227 56.1984 132.112 56.3321 132.026C58.8679 130.197 61.5925 128.645 64.4593 127.397C66.7464 126.451 69.1321 125.765 71.5719 125.35C73.3212 125.055 75.0879 124.928 76.8484 124.737C78.0133 124.611 79.1665 124.39 80.3185 124.167C82.7189 123.703 85.1345 123.322 87.5303 122.831C90.5364 122.196 93.4972 121.364 96.3933 120.338C98.6118 119.568 100.834 118.808 103.049 118.028C104.604 117.48 106.152 116.911 107.699 116.341C109.951 115.512 112.269 114.89 114.554 114.167C117.364 113.279 120.19 112.442 123.009 111.58C128.478 109.908 133.948 108.235 139.417 106.561C143.429 105.332 147.44 104.1 151.45 102.864C157.396 101.043 163.344 99.2237 169.291 97.407C173.399 96.148 177.505 94.8839 181.609 93.6146C183.471 93.0418 185.331 92.4614 187.198 91.908C188.421 91.5456 189.702 91.4644 190.944 91.1822C193.533 90.6404 196.151 90.2449 198.784 89.9974C201.217 89.679 203.683 89.7232 206.102 90.1286C208.673 90.5904 211.091 91.6775 213.143 93.2941C213.554 93.5675 213.933 93.8862 214.272 94.2443C213.677 94.0836 213.206 93.9661 212.741 93.8286C211.022 93.3001 209.27 92.8896 207.495 92.6001C206.462 92.4256 205.421 92.3062 204.376 92.2421C202.879 92.1757 201.387 92.0256 199.885 92.0284C199.064 92.03 198.242 91.9369 197.418 91.9111C196.192 91.8882 194.972 92.0725 193.808 92.4563C190.541 93.4758 187.274 94.4939 184.007 95.5106C177.639 97.4888 171.27 99.4655 164.901 101.441C161.585 102.47 158.27 103.502 154.956 104.536C148.469 106.553 141.981 108.569 135.494 110.584C131.296 111.891 127.1 113.201 122.905 114.516C115.703 116.756 108.494 118.977 101.297 121.234C99.4633 121.809 97.6193 122.355 95.8308 123.076C93.8184 123.828 91.7688 124.477 89.69 125.02C86.742 125.887 83.8529 126.944 81.0408 128.183C78.8294 129.117 76.6968 130.227 74.6637 131.504C74.5378 131.584 74.3971 131.642 74.2693 131.72C74.0235 131.87 73.8646 131.793 73.7144 131.562C72.68 129.972 71.0576 129.371 69.3177 128.972C68.0433 128.677 66.7094 128.773 65.4907 129.248C62.9794 130.125 60.7004 131.561 58.8265 133.448C58.2798 134.003 57.9198 134.715 57.7966 135.484C57.7697 135.905 57.8292 136.328 57.9714 136.725C58.2617 138.058 59.0339 139.237 60.1399 140.036C60.4405 140.259 60.725 140.504 61.0178 140.738C62.7328 142.107 63.5004 144.014 64.0115 146.055C64.3402 147.413 64.5505 148.796 64.64 150.19C64.8 152.402 65.0238 154.609 65.1842 156.821C65.2509 157.741 65.2785 158.664 65.3542 159.584C65.6382 163.038 65.8887 166.499 66.7803 169.865C67.9651 174.503 70.0998 178.845 73.0492 182.615C75.1505 185.319 77.5094 187.813 80.0926 190.061C82.3401 191.934 84.7428 193.613 87.2748 195.079C89.5049 196.414 91.7673 197.693 94.1148 198.818C97.1713 200.305 100.311 201.614 103.518 202.739C104.298 203.008 105.073 203.29 105.847 203.572C106.072 203.654 106.289 203.755 106.509 203.848Z" fill="#3C1F1B"/>
<path d="M136.71 184.445C137.147 185.002 137.392 185.686 137.409 186.394C137.44 188.098 137.06 189.785 136.302 191.312C135.418 193.162 134.278 194.879 132.914 196.41C129.814 200.04 125.523 202.448 120.81 203.203C119.222 203.544 117.6 203.636 115.992 203.835C114.23 204.028 112.458 204.117 110.685 204.102C109.71 204.114 108.742 203.948 107.827 203.613C105.062 202.591 102.254 201.687 99.5297 200.556C95.2084 198.773 91.0356 196.649 87.0508 194.204C84.8575 192.857 82.7461 191.381 80.7278 189.784C79.4234 188.693 78.1933 187.517 77.0456 186.262C75.6696 184.815 74.3734 183.294 73.1627 181.706C70.0334 177.565 67.8991 172.759 66.9251 167.66C66.6069 165.945 66.3803 164.213 66.2464 162.474C65.9823 159.818 65.8335 157.156 65.6448 154.496C65.5214 152.756 65.3788 151.017 65.2035 149.282C65.0267 147.241 64.5457 145.238 63.7763 143.339C63.1674 141.988 62.223 140.816 61.0329 139.934C60.3682 139.488 59.7883 138.927 59.3208 138.278C59.124 138.03 58.9971 137.734 58.9534 137.421C59.4905 137.488 60.0234 137.586 60.5491 137.715C61.4935 137.817 62.4453 137.834 63.3926 137.764C65.634 137.596 67.8487 137.172 69.9935 136.5C70.9666 136.259 71.8798 135.821 72.6766 135.213C72.7303 135.155 72.795 135.108 72.8669 135.075C72.9388 135.043 73.0165 135.025 73.0955 135.022C73.1744 135.02 73.253 135.034 73.3267 135.062C73.4003 135.091 73.4676 135.134 73.5245 135.188C75.2433 136.393 76.9771 137.576 78.7044 138.768C79.6092 139.393 80.5123 140.019 81.4139 140.648C81.5934 140.773 81.7653 140.909 82.0042 141.088C81.1363 141.552 80.3342 141.996 79.5171 142.411C79.2303 142.509 78.9201 142.515 78.6292 142.43C78.1606 142.361 77.6978 142.243 77.2276 142.198C75.3506 141.918 73.4383 142.376 71.8921 143.477C71.0433 144.103 70.3432 144.909 69.8417 145.838C69.3403 146.766 69.0497 147.794 68.9909 148.847C68.8542 151.116 68.9796 153.393 69.3646 155.634C69.5909 157.085 69.7073 158.554 69.8791 160.014C70.0422 161.399 70.2096 162.785 70.3812 164.169C70.5567 165.604 70.7713 167.034 70.8985 168.472C70.9879 169.215 71.1457 169.948 71.3698 170.661C72.073 173.5 73.1201 176.242 74.4879 178.827C75.862 181.385 77.6183 183.719 79.6961 185.747C81.7449 187.62 83.982 189.275 86.3716 190.687C89.7655 192.658 93.2971 194.381 96.9388 195.844C99.419 196.905 101.882 198.008 104.412 198.952C106.856 199.905 109.376 200.654 111.945 201.189C114.028 201.611 116.155 201.774 118.278 201.675C122.285 201.498 126.104 199.928 129.078 197.236C131.141 195.49 132.926 193.44 134.37 191.156C135.421 189.569 136.175 187.804 136.593 185.947C136.674 185.505 136.642 185.057 136.71 184.445Z" fill="#3C1F1B"/>
<path d="M98.4114 152.929C99.0842 152.704 99.7182 152.494 100.351 152.278C100.422 152.257 100.498 152.255 100.57 152.273C100.642 152.29 100.708 152.327 100.762 152.379C102.724 153.806 104.825 155.019 106.86 156.335C109.965 158.344 113.099 160.31 116.222 162.292C118.184 163.538 120.147 164.783 122.111 166.027C124.063 167.308 125.664 169.058 126.766 171.118C127.396 172.227 127.867 173.42 128.168 174.66C128.383 175.507 128.644 176.342 128.949 177.162C129.454 178.727 130.554 180.031 132.012 180.793C133.18 181.418 134.292 182.144 135.335 182.961C135.558 183.119 135.74 183.329 135.865 183.572C135.99 183.815 136.056 184.084 136.055 184.357C136.072 185.761 135.755 187.149 135.128 188.406C133.637 191.556 131.491 194.351 128.832 196.605C127.041 198.249 124.921 199.495 122.613 200.26C121.402 200.656 120.143 200.891 118.871 200.96C118.477 201.031 118.079 201.071 117.68 201.081C117.291 201.041 117.238 200.96 117.44 200.614C117.83 199.945 118.234 199.284 118.63 198.618C120.203 195.861 121.526 192.97 122.585 189.977C123.511 187.604 124.181 185.138 124.584 182.623C124.919 180.806 125.007 178.951 124.846 177.11C124.736 176.198 124.723 175.274 124.538 174.364C124.041 171.805 122.553 169.545 120.398 168.077C118.09 166.45 115.735 164.89 113.399 163.302C108.564 160.013 103.728 156.725 98.8912 153.437C98.6731 153.334 98.5018 153.153 98.4114 152.929Z" fill="#3C1F1B"/>
<path d="M61.94 137.201C61.1421 137.182 60.3492 137.068 59.5782 136.862C58.4246 136.46 58.1481 135.715 58.7349 134.638C58.9862 134.205 59.3065 133.815 59.6833 133.485C61.5239 131.741 63.746 130.451 66.1729 129.718C67.2704 129.393 68.4329 129.356 69.5491 129.609C70.6653 129.862 71.6978 130.398 72.5478 131.164C72.8095 131.342 73.0254 131.579 73.1777 131.857C73.33 132.134 73.4144 132.443 73.4239 132.76C73.4334 133.076 73.3677 133.39 73.2323 133.676C73.0969 133.962 72.8957 134.212 72.645 134.405C71.7993 135.154 70.7781 135.678 69.6761 135.928C68.1257 136.408 66.5383 136.76 64.9301 136.979C63.9356 137.062 62.9397 137.127 61.94 137.201Z" fill="#6A443F"/>
<path d="M210.056 207.031C210.047 206.166 209.861 205.312 209.508 204.522C209.46 204.422 209.433 204.314 209.428 204.204C209.422 204.093 209.439 203.983 209.477 203.879C210.01 202.037 211.155 200.432 212.722 199.328C213.573 198.668 214.522 198.146 215.535 197.783C215.673 197.73 215.823 197.714 215.968 197.737C216.114 197.76 216.251 197.822 216.366 197.916C216.989 198.376 217.62 198.825 218.252 199.273C218.424 199.376 218.563 199.525 218.655 199.702C219.136 200.769 219.621 201.835 220.095 202.881C219.894 203.11 219.732 202.944 219.582 202.911C218.634 202.669 217.646 202.633 216.683 202.806C215.72 202.979 214.805 203.356 214 203.911C212.591 204.826 211.27 205.87 210.056 207.031Z" fill="#6A443F"/>
<path d="M65.1879 119.213C65.0779 119.758 65.0022 120.195 64.9001 120.627C64.4238 122.639 63.9278 124.647 63.47 126.664C63.4441 126.834 63.375 126.994 63.2694 127.13C63.1637 127.265 63.025 127.371 62.8666 127.437C60.939 128.385 59.07 129.448 57.2697 130.619C56.9277 130.886 56.5641 131.124 56.1825 131.33C55.9985 131.124 56.0725 130.906 56.1067 130.697C56.348 129.498 56.7282 128.331 57.2395 127.22C58.0818 125.238 59.3001 123.438 60.827 121.919C61.9554 120.779 63.3065 119.883 64.7962 119.287C64.9246 119.252 65.0556 119.227 65.1879 119.213Z" fill="#6A443F"/>
<path d="M211.502 210.376C209.737 210.365 210.081 210.498 210.021 208.896C210.002 208.448 210.152 208.009 210.44 207.665C211.315 206.671 212.319 205.799 213.426 205.072C213.846 204.758 214.283 204.467 214.735 204.201C215.417 203.779 216.178 203.501 216.971 203.384C217.765 203.267 218.573 203.314 219.348 203.521C219.643 203.582 219.921 203.705 220.164 203.882C220.408 204.04 220.587 204.281 220.668 204.56C220.75 204.839 220.729 205.138 220.609 205.403C220.298 206.2 219.767 206.892 219.077 207.399C217.839 208.373 216.472 209.172 215.016 209.774C213.9 210.219 212.702 210.425 211.502 210.376Z" fill="#6A443F"/>
<path d="M213.017 213.536C213.442 212.521 214.03 211.582 214.757 210.756C214.916 210.56 215.123 210.41 215.358 210.319C216.67 209.764 217.913 209.057 219.06 208.212C219.316 208.03 219.512 207.954 219.787 208.172C220.312 208.588 220.859 208.978 221.382 209.368C221.322 209.621 221.13 209.65 220.98 209.72C219.058 210.62 217.133 211.516 215.207 212.408C214.473 212.727 213.797 213.166 213.206 213.707C213.057 213.745 212.994 213.688 213.017 213.536Z" fill="#3C1F1B"/>
<path d="M219.804 200.508C220.325 200.6 220.651 201.012 221.058 201.286C221.821 201.799 222.557 202.352 223.358 202.927C222.729 203.394 222.076 203.828 221.401 204.225C220.875 202.939 220.191 201.789 219.81 200.502L219.804 200.508Z" fill="#6A443F"/>
<path d="M219.983 207.5C220.626 206.817 221.104 205.995 221.381 205.098C221.436 204.846 221.719 204.763 222.073 204.634C222.1 206.06 222.054 207.486 221.937 208.907C221.249 208.492 220.595 208.021 219.983 207.5Z" fill="#6A443F"/>
<path d="M213.017 213.536L213.206 213.707C213.174 213.79 213.123 213.865 213.056 213.925C212.989 213.985 212.909 214.029 212.822 214.052C212.816 213.957 212.83 213.861 212.863 213.772C212.897 213.683 212.949 213.603 213.017 213.536Z" fill="#6A443F"/>
<path d="M219.81 200.502L219.749 200.471C219.768 200.419 219.788 200.432 219.804 200.508L219.81 200.502Z" fill="#6A443F"/>
<path d="M184.285 184.004C184.238 183.995 184.195 183.97 184.163 183.934C184.132 183.897 184.114 183.851 184.113 183.803C184.093 183.625 184.197 183.538 184.369 183.542C184.4 183.541 184.43 183.546 184.458 183.557C184.486 183.569 184.512 183.586 184.533 183.607C184.554 183.629 184.57 183.655 184.581 183.684C184.591 183.712 184.595 183.743 184.593 183.773C184.59 183.897 184.512 183.996 184.285 184.004Z" fill="#6A443F"/>
<path d="M84.0465 151.016C83.1739 151.049 82.3002 150.998 81.4373 150.864C80.2847 150.616 79.2235 150.054 78.3715 149.239C78.2767 149.158 78.193 149.065 78.1226 148.962C78.0986 148.926 78.0858 148.883 78.0857 148.839C78.0856 148.796 78.0983 148.753 78.1222 148.716C78.146 148.68 78.1801 148.651 78.2201 148.634C78.2601 148.616 78.3043 148.611 78.3473 148.619C78.5734 148.643 78.7831 148.748 78.9371 148.915C80.1204 149.937 81.6448 150.475 83.207 150.423C85.1505 150.413 87.0892 150.232 89.001 149.883C91.4707 149.516 93.8715 148.843 96.318 148.383C98.7179 147.933 101.115 147.475 103.477 146.85C103.692 146.793 103.928 146.814 104.142 146.753C104.425 146.672 104.687 146.697 104.723 147.007C104.756 147.289 104.436 147.341 104.236 147.364C103.692 147.439 103.155 147.552 102.628 147.704C100.263 148.321 97.8461 148.687 95.4613 149.207C93.9765 149.53 92.5042 149.929 91.0063 150.171C88.6997 150.544 86.4138 151.127 84.0465 151.016Z" fill="#5D4E47"/>
<path d="M118.591 136.335C118.676 136.343 118.735 136.387 118.723 136.475C118.716 136.511 118.695 136.542 118.665 136.563C118.635 136.584 118.598 136.592 118.562 136.586C118.478 136.582 118.418 136.533 118.431 136.446C118.443 136.365 118.513 136.337 118.591 136.335Z" fill="#6A443F"/>
<path d="M68.6941 131.182C69.1467 131.149 69.5989 131.253 69.9917 131.48C70.1907 131.576 70.3642 131.717 70.4978 131.893C70.6314 132.068 70.7213 132.273 70.76 132.49C70.7988 132.708 70.7852 132.931 70.7206 133.142C70.6559 133.353 70.5419 133.546 70.388 133.704C70.1102 134.027 69.7702 134.292 69.3881 134.482C69.0061 134.671 68.5898 134.782 68.164 134.808C67.5667 134.901 66.9554 134.802 66.4174 134.527C66.2104 134.434 66.0291 134.292 65.8896 134.113C65.7501 133.934 65.6566 133.724 65.6171 133.5C65.5777 133.277 65.5935 133.047 65.6633 132.831C65.7331 132.616 65.8547 132.42 66.0175 132.262C66.3481 131.885 66.7625 131.591 67.2274 131.404C67.6923 131.216 68.1946 131.14 68.6941 131.182Z" fill="#6A443F"/>
<path d="M218.62 205.28C218.619 205.574 218.517 205.858 218.331 206.085C217.898 206.677 217.25 207.077 216.527 207.2C216.308 207.264 216.075 207.26 215.859 207.189C215.643 207.118 215.453 206.984 215.314 206.803C215.176 206.606 215.105 206.37 215.112 206.13C215.12 205.89 215.204 205.658 215.354 205.47C215.593 205.086 215.929 204.772 216.328 204.561C216.728 204.35 217.177 204.249 217.628 204.269C217.762 204.26 217.897 204.28 218.023 204.328C218.148 204.376 218.262 204.451 218.356 204.547C218.45 204.643 218.523 204.758 218.568 204.885C218.614 205.011 218.631 205.146 218.62 205.28Z" fill="#6A443F"/>
<path d="M66.8005 133.996C66.1205 133.429 66.0869 133.076 66.6333 132.544C66.9803 132.199 67.4167 131.956 67.8937 131.844C68.3707 131.732 68.8695 131.755 69.3342 131.91C70.2608 132.168 70.3822 132.781 69.6841 133.519C69.5527 133.632 69.4094 133.73 69.2567 133.811C68.6268 132.75 68.1261 132.43 67.4586 132.648C66.8531 132.846 66.6975 133.142 66.8005 133.996Z" fill="#6A443F"/>
<path d="M67.9925 133.858C67.8081 133.777 67.5156 133.804 67.4924 133.521C67.4727 133.28 67.6977 133.285 67.8657 133.292C68.0943 133.302 68.3367 133.349 68.3335 133.638C68.3316 133.8 68.1614 133.857 67.9925 133.858Z" fill="#6A443F"/>
<path d="M216.273 206.594C215.832 206.598 215.635 206.288 215.858 205.898C216.025 205.621 216.254 205.386 216.527 205.211C216.799 205.036 217.108 204.926 217.43 204.889C217.529 204.87 217.631 204.882 217.723 204.924C217.815 204.967 217.891 205.036 217.94 205.124C218.042 205.294 217.942 205.459 217.859 205.613C217.687 205.886 217.455 206.117 217.18 206.287C216.905 206.457 216.595 206.562 216.273 206.594Z" fill="#6A443F"/>
</g>
<g style="mix-blend-mode:hue">
<path d="M0 0H320V320H0V0Z" fill="#00BF13"/>
</g>
</g>
<defs>
<clipPath id="clip0_1444_870">
<rect width="320" height="320" fill="white"/>
</clipPath>
<clipPath id="clip1_1444_870">
<rect width="210" height="162.366" fill="white" transform="translate(55 79)"/>
</clipPath>
</defs>
</svg>
