<svg width="320" height="320" viewBox="0 0 320 320" fill="none" xmlns="http://www.w3.org/2000/svg">
<g clip-path="url(#clip0_1444_1377)">
<rect width="320" height="320" fill="#DCFFE0"/>
<g clip-path="url(#clip1_1444_1377)">
<path d="M161.068 117.414C180.897 117.321 200.725 117.227 220.553 117.133C230.157 117.088 239.761 117.044 249.365 117C251.107 116.95 252.834 117.326 254.396 118.095C255.875 118.83 257.109 119.979 257.947 121.402C259.831 124.716 261.298 128.249 262.314 131.922C263.944 137.45 264.83 143.171 264.948 148.933C265.061 154.476 264.984 160.016 264.717 165.553C264.602 167.871 264.473 170.19 264.291 172.503C264.091 175.043 263.349 177.483 262.825 179.964C261.99 183.937 260.588 187.769 258.661 191.342C257.986 192.595 257.381 193.885 256.725 195.149C256.252 196.054 255.709 196.922 255.102 197.744C254.477 198.577 253.692 199.277 252.793 199.801C251.894 200.326 250.898 200.666 249.866 200.8C247.38 201.17 244.855 201.208 242.359 200.912C236.843 200.374 231.34 199.713 225.786 199.641C221.264 199.582 216.743 199.47 212.222 199.304C205.752 199.071 199.28 198.877 192.808 198.72C188.535 198.615 184.261 198.504 179.989 198.343C175.901 198.189 171.812 198.152 167.723 198.233C163.975 198.308 160.242 198.675 156.501 198.879C154.8 198.971 153.098 199.07 151.395 199.109C146.718 199.215 142.051 199.483 137.386 199.834C134.977 200.016 132.563 200.133 130.149 200.214C126 200.355 121.863 200.676 117.721 200.944C114.6 201.146 111.473 201.267 108.348 201.392C103.21 201.598 98.0682 201.724 92.9335 201.987C88.8194 202.197 84.7071 202.419 80.589 202.55C77.3996 202.641 74.222 202.977 71.0842 203.555C70.6371 203.671 70.1669 203.663 69.7241 203.532C69.2813 203.401 68.8826 203.151 68.571 202.81C66.2307 200.367 64.353 197.52 63.0292 194.406C60.8298 189.387 59.0893 184.18 57.829 178.847C56.6745 174.319 55.8239 169.719 55.2829 165.077C55.0861 163.167 54.9919 161.248 55.0008 159.329C54.9913 155.395 55.0646 151.465 55.4178 147.546C55.8081 143.79 56.4575 140.066 57.3614 136.4C57.952 133.583 58.7151 130.805 59.6464 128.082C60.0283 127.036 60.4766 126.014 60.9887 125.024C62.32 122.48 64.4044 120.408 66.9573 119.093C68.6966 118.203 70.6321 117.765 72.5852 117.82C81.7559 117.809 90.9266 117.777 100.097 117.725C114.782 117.656 129.468 117.584 144.153 117.508C149.791 117.484 155.43 117.504 161.068 117.504L161.068 117.414Z" fill="#3C1F1B"/>
<path d="M264.182 153.356C264.182 156.243 264.313 158.205 264.145 160.141C263.98 162.052 264.188 163.976 263.848 165.873C263.827 166.058 263.822 166.244 263.833 166.429C263.814 168.714 263.675 170.997 263.417 173.267C263.18 175.011 262.827 176.738 262.36 178.435C261.842 180.502 261.414 182.591 260.766 184.625C260.392 185.805 259.932 186.956 259.389 188.068C258.152 190.598 256.96 193.152 255.564 195.601C255.121 196.418 254.588 197.183 253.973 197.88C252.774 199.111 251.186 199.888 249.478 200.078C247.418 200.326 245.338 200.375 243.269 200.225C241.824 200.172 240.387 199.926 238.947 199.756C238.242 199.673 237.531 199.614 236.828 199.559C234.982 199.414 233.139 199.219 231.29 199.095C229.774 198.993 228.255 199.067 226.75 198.926C224.06 198.675 221.361 198.919 218.679 198.733C216.388 198.574 214.094 198.721 211.815 198.544C210.144 198.414 208.469 198.527 206.811 198.365C204.738 198.162 202.66 198.347 200.598 198.178C198.277 197.987 195.951 198.172 193.641 197.989C191.505 197.819 189.367 197.973 187.243 197.806C185.139 197.641 183.034 197.758 180.936 197.631C175.86 197.325 170.781 197.427 165.707 197.521C163.433 197.563 161.145 197.725 158.873 197.986C157.771 198.112 156.65 198.143 155.545 198.169C152.854 198.23 150.164 198.363 147.475 198.449C144.889 198.533 142.291 198.6 139.712 198.919C138.795 199.033 137.861 199.054 136.941 199.092C135.365 199.158 133.794 199.294 132.219 199.358C130.091 199.445 127.959 199.461 125.834 199.665C124.699 199.775 123.552 199.789 122.411 199.845C121.022 199.912 119.635 200.032 118.248 200.111C115.842 200.247 113.435 200.363 111.03 200.492C109.577 200.57 108.12 200.529 106.676 200.662C104.667 200.847 102.65 200.705 100.65 200.862C99.0094 200.992 97.3704 200.915 95.7367 201.025C93.4863 201.177 91.2327 201.27 88.9841 201.422C87.779 201.503 86.5713 201.475 85.3739 201.585C83.5514 201.752 81.7228 201.657 79.9049 201.778C76.852 201.916 73.8123 202.265 70.8076 202.823C70.5226 202.888 70.2254 202.875 69.9472 202.785C69.6691 202.696 69.4201 202.533 69.2267 202.314C67.4569 200.576 65.9854 198.558 64.8713 196.342C62.4879 191.582 60.6258 186.578 59.3176 181.418C58.4213 178.076 57.6096 174.715 56.9981 171.309C56.6386 169.306 56.3575 167.292 56.1161 165.269C55.748 161.639 55.6487 157.986 55.819 154.341C55.8818 152.155 55.9302 149.958 56.162 147.777C56.5074 144.618 57.032 141.481 57.7334 138.382C57.9096 137.592 57.9328 137.596 58.7343 137.736C59.9667 137.856 61.2108 137.733 62.3955 137.373C64.4906 136.922 66.4914 136.11 68.3085 134.974C71.1169 133.267 74.2209 132.102 77.4591 131.54C78.7591 131.259 80.0866 131.127 81.4164 131.144C81.7858 131.129 82.1486 131.244 82.4426 131.468C86.0567 134.356 90.0746 136.627 94.0148 139.018C96.4748 140.51 98.9007 142.062 101.44 143.418C104.362 144.977 107.293 146.515 110.29 147.933C113.615 149.506 117.075 150.826 120.142 152.909C122.591 154.593 124.816 156.582 126.764 158.827C127.853 159.968 128.858 161.186 129.773 162.47C131.596 165.164 133.002 168.117 133.945 171.23C134.568 173.407 135.571 175.457 136.909 177.284C137.876 178.536 139.02 179.641 140.305 180.564C142.17 182.049 144.187 183.335 146.32 184.399C148.831 185.609 151.524 186.397 154.291 186.73C156.747 187.034 159.223 187.136 161.695 187.035C163.232 186.958 164.765 186.741 166.297 186.562C167.956 186.387 169.596 186.062 171.196 185.589C174.748 184.499 178.116 183.019 180.943 180.563C183.468 178.452 185.546 175.855 187.052 172.928C187.309 172.399 187.593 171.884 187.903 171.385C188.177 170.938 188.39 170.457 188.536 169.954C189.47 166.937 190.463 163.941 192.155 161.238C193 159.906 193.945 158.641 194.983 157.453C197.833 154.268 201.114 151.496 204.731 149.218C207.102 147.752 209.564 146.44 212.103 145.289C217.029 142.958 221.776 140.266 226.306 137.234C228.752 135.554 231.109 133.744 233.508 131.996C235.258 130.722 236.994 129.431 238.627 128.007C238.807 127.837 239.029 127.719 239.27 127.664C239.511 127.609 239.763 127.62 239.999 127.695C242.015 128.158 244.054 128.511 246.108 128.753C247.425 128.928 248.731 129.175 250.021 129.493C251.097 129.791 252.118 130.263 253.043 130.888C254.905 132.007 256.977 132.729 259.132 133.008C259.861 133.134 260.59 133.286 261.326 133.344C261.51 133.339 261.689 133.404 261.828 133.525C261.967 133.646 262.055 133.816 262.075 133.999C262.512 135.799 262.954 137.599 263.249 139.428C263.651 141.926 263.886 144.439 264.06 146.967C264.228 149.413 264.111 151.852 264.182 153.356Z" fill="#553530"/>
<path d="M72.3028 118.68C73.7724 118.68 75.1943 118.681 76.6163 118.68C77.8865 118.68 79.1573 118.704 80.4268 118.675C93.8982 118.366 107.374 118.675 120.844 118.46C133.419 118.26 145.994 118.498 158.566 118.279C171.42 118.055 184.274 118.314 197.125 118.092C209.73 117.874 222.336 118.079 234.94 117.905C238.591 117.855 242.243 117.793 245.895 117.783C246.211 117.783 246.639 117.598 246.825 117.969C246.982 118.282 246.632 118.529 246.474 118.777C244.83 121.216 242.858 123.417 240.614 125.318C238.976 126.779 237.33 128.228 235.573 129.542C232.009 132.209 228.477 134.922 224.772 137.396C222.092 139.185 219.255 140.705 216.451 142.284C214.236 143.532 211.917 144.564 209.633 145.67C205.667 147.573 201.971 149.992 198.639 152.864C196.267 154.854 194.148 157.128 192.33 159.634C190.874 161.753 189.719 164.064 188.899 166.501C188.444 168.076 187.882 169.616 187.215 171.113C185.874 173.87 184.114 176.403 181.998 178.622C180.006 180.624 177.657 182.234 175.071 183.369C173.021 184.322 170.866 185.03 168.651 185.48C166.921 185.804 165.168 185.955 163.421 186.161C161.574 186.346 159.715 186.394 157.861 186.304C153.639 186.275 149.483 185.255 145.728 183.326C143.703 182.191 141.789 180.869 140.011 179.376C139.627 179.066 139.247 178.748 138.886 178.411C137.052 176.638 135.711 174.417 134.997 171.968C134.179 169.337 133.106 166.793 131.794 164.371C130.862 162.694 129.76 161.118 128.507 159.666C127.26 158.201 125.877 156.873 124.518 155.52C122.597 153.628 120.4 152.039 118.002 150.807C114.515 148.986 110.886 147.463 107.368 145.705C102.933 143.489 98.6347 141.042 94.4205 138.438C91.7364 136.779 89.0003 135.205 86.3816 133.441C84.2843 132.016 82.2874 130.449 80.4052 128.749C79.2074 127.678 77.9569 126.664 76.8358 125.509C75.0724 123.681 73.5955 121.596 72.4554 119.326C72.398 119.217 72.3481 119.104 72.306 118.988C72.2937 118.886 72.2926 118.783 72.3028 118.68Z" fill="#553530"/>
<path d="M80.9935 130.379C78.7778 130.505 76.5832 130.879 74.4512 131.496C72.3814 132.033 70.4021 132.873 68.5771 133.987C66.4238 135.342 64.0417 136.294 61.5476 136.796C60.4109 137.114 59.2104 137.128 58.0664 136.837C58.4247 135.362 58.7599 133.897 59.1382 132.444C59.6771 130.251 60.4176 128.112 61.3502 126.056C62.5768 123.424 64.6161 121.257 67.1677 119.872C68.1999 119.303 69.3249 118.921 70.4903 118.745C71.2381 118.625 71.2958 118.647 71.6391 119.328C72.6282 121.363 73.8809 123.259 75.365 124.967C76.9459 126.668 78.6369 128.264 80.427 129.744C80.6661 129.905 80.8609 130.124 80.9935 130.379Z" fill="#3C1F1B"/>
<path d="M261.5 132.533C261.105 132.706 260.684 132.497 260.269 132.44C257.702 132.199 255.224 131.376 253.023 130.032C251.246 128.86 249.198 128.497 247.142 128.173C244.912 127.822 242.665 127.578 240.462 127.066C240.348 127.04 240.237 127.001 240.06 126.948C240.269 126.596 240.551 126.293 240.888 126.061C242.885 124.344 244.698 122.425 246.3 120.334C246.795 119.66 247.245 118.954 247.648 118.222C247.693 118.092 247.777 117.979 247.889 117.898C248 117.817 248.134 117.773 248.272 117.771C250.366 117.734 252.415 117.888 254.303 118.937C255.456 119.553 256.427 120.463 257.116 121.574C259.033 124.901 260.526 128.455 261.561 132.152C261.589 132.215 261.599 132.284 261.588 132.352C261.577 132.42 261.547 132.483 261.5 132.533Z" fill="#3C1F1B"/>
<path d="M261.549 151.381C261.473 151.377 261.399 151.357 261.331 151.323C261.264 151.288 261.204 151.239 261.157 151.179C261.11 151.119 261.077 151.05 261.059 150.976C261.042 150.902 261.04 150.825 261.055 150.75C261.061 150.682 261.082 150.615 261.115 150.554C261.148 150.494 261.193 150.441 261.247 150.398C261.301 150.356 261.364 150.325 261.431 150.308C261.497 150.29 261.567 150.287 261.635 150.297C261.706 150.303 261.776 150.322 261.84 150.355C261.903 150.387 261.96 150.431 262.007 150.486C262.053 150.54 262.089 150.603 262.111 150.671C262.133 150.739 262.141 150.811 262.136 150.882C262.13 150.953 262.11 151.023 262.078 151.087C262.045 151.15 262.001 151.207 261.946 151.253C261.892 151.3 261.828 151.335 261.76 151.357C261.692 151.378 261.62 151.387 261.549 151.381Z" fill="#3C1F1B"/>
<path d="M261.764 164.23C261.77 164.362 261.723 164.492 261.634 164.591C261.545 164.689 261.42 164.748 261.287 164.755C261.177 164.769 261.066 164.748 260.967 164.697C260.869 164.645 260.789 164.564 260.738 164.466C260.687 164.367 260.667 164.256 260.681 164.145C260.696 164.035 260.743 163.932 260.818 163.85C260.892 163.768 260.99 163.71 261.099 163.685C261.207 163.661 261.32 163.669 261.423 163.711C261.526 163.752 261.614 163.824 261.675 163.917C261.736 164.009 261.767 164.119 261.764 164.23Z" fill="#3C1F1B"/>
<path d="M58.9568 156.246C59.0226 156.243 59.0884 156.253 59.1504 156.276C59.2123 156.298 59.2692 156.333 59.3177 156.378C59.3662 156.422 59.4055 156.476 59.4331 156.536C59.4608 156.596 59.4764 156.661 59.4791 156.727C59.4916 156.802 59.4875 156.879 59.4668 156.952C59.4462 157.026 59.4096 157.094 59.3597 157.151C59.3097 157.209 59.2477 157.255 59.178 157.286C59.1082 157.317 59.0326 157.332 58.9563 157.33C58.8879 157.338 58.8186 157.331 58.7528 157.311C58.6869 157.29 58.626 157.257 58.5736 157.212C58.5213 157.167 58.4787 157.112 58.4485 157.05C58.4182 156.989 58.401 156.921 58.3978 156.852C58.3868 156.774 58.3932 156.695 58.4167 156.619C58.4402 156.544 58.4801 156.475 58.5336 156.417C58.587 156.359 58.6528 156.313 58.7259 156.284C58.7991 156.254 58.878 156.241 58.9568 156.246Z" fill="#3C1F1B"/>
<path d="M60.5905 140.808C60.5951 140.874 60.5867 140.941 60.5657 141.004C60.5447 141.066 60.5115 141.124 60.4681 141.174C60.4246 141.224 60.3717 141.265 60.3124 141.295C60.2531 141.324 60.1886 141.342 60.1225 141.347C60.0476 141.361 59.9705 141.358 59.8967 141.339C59.8228 141.32 59.754 141.286 59.6951 141.237C59.6362 141.189 59.5886 141.128 59.5557 141.059C59.5227 140.991 59.5053 140.916 59.5046 140.839C59.4953 140.771 59.5002 140.702 59.5188 140.635C59.5375 140.569 59.5696 140.507 59.6131 140.454C59.6567 140.4 59.7107 140.356 59.7719 140.324C59.8331 140.293 59.9001 140.274 59.9689 140.269C60.0464 140.256 60.1259 140.26 60.2015 140.282C60.2772 140.303 60.3472 140.341 60.4065 140.392C60.4659 140.444 60.5132 140.508 60.545 140.58C60.5768 140.652 60.5923 140.73 60.5905 140.808Z" fill="#3C1F1B"/>
<path d="M64.7143 188.247C64.7031 188.169 64.7096 188.089 64.7333 188.014C64.7569 187.939 64.7971 187.87 64.851 187.812C64.9048 187.755 64.9709 187.71 65.0443 187.681C65.1178 187.652 65.1968 187.64 65.2754 187.646C65.3442 187.643 65.4128 187.655 65.477 187.68C65.5412 187.705 65.5995 187.742 65.6484 187.791C65.6973 187.839 65.7357 187.897 65.7612 187.961C65.7867 188.025 65.7988 188.094 65.7966 188.163C65.8048 188.238 65.796 188.315 65.7707 188.387C65.7455 188.459 65.7045 188.525 65.6508 188.579C65.597 188.633 65.5318 188.675 65.46 188.701C65.3882 188.727 65.3114 188.736 65.2354 188.729C65.1695 188.732 65.1035 188.722 65.0414 188.699C64.9793 188.677 64.9223 188.642 64.8738 188.597C64.8253 188.552 64.7862 188.498 64.7588 188.438C64.7314 188.378 64.7163 188.313 64.7143 188.247Z" fill="#3C1F1B"/>
<path d="M261.518 169.568C261.503 169.719 261.433 169.859 261.322 169.961C261.21 170.064 261.065 170.122 260.913 170.124C260.775 170.11 260.647 170.045 260.555 169.942C260.462 169.838 260.411 169.704 260.413 169.565C260.385 169.243 260.573 169.063 260.902 169.045C260.978 169.035 261.055 169.041 261.127 169.063C261.2 169.084 261.268 169.121 261.326 169.17C261.384 169.219 261.431 169.28 261.464 169.349C261.497 169.417 261.515 169.492 261.518 169.568Z" fill="#3C1F1B"/>
<path d="M59.3241 161.624C59.3939 161.621 59.4635 161.634 59.5284 161.66C59.5933 161.686 59.6521 161.725 59.701 161.775C59.7499 161.825 59.7878 161.884 59.8124 161.95C59.837 162.015 59.8477 162.085 59.8438 162.155C59.8295 162.308 59.7565 162.451 59.6398 162.552C59.5232 162.653 59.3721 162.705 59.2181 162.697C59.1479 162.694 59.0793 162.675 59.017 162.643C58.9546 162.611 58.9001 162.565 58.8571 162.51C58.8141 162.454 58.7837 162.39 58.7681 162.322C58.7524 162.253 58.7518 162.182 58.7664 162.113C58.7679 162.044 58.7839 161.975 58.8134 161.912C58.8428 161.848 58.8852 161.792 58.9376 161.746C58.99 161.7 59.0515 161.665 59.118 161.644C59.1845 161.623 59.2547 161.616 59.3241 161.624Z" fill="#3C1F1B"/>
<path d="M261.707 166.868C261.699 166.943 261.677 167.016 261.641 167.083C261.605 167.149 261.556 167.208 261.497 167.256C261.438 167.303 261.37 167.338 261.298 167.359C261.225 167.38 261.149 167.386 261.074 167.378C261.012 167.378 260.952 167.365 260.896 167.34C260.84 167.315 260.79 167.277 260.75 167.231C260.71 167.184 260.681 167.129 260.665 167.07C260.648 167.011 260.645 166.949 260.655 166.889C260.658 166.581 260.774 166.347 261.105 166.303C261.258 166.306 261.403 166.365 261.515 166.47C261.626 166.574 261.694 166.716 261.707 166.868Z" fill="#3C1F1B"/>
<path d="M61.1347 170.063C61.1165 170.216 61.0419 170.357 60.9255 170.458C60.809 170.559 60.6591 170.613 60.5049 170.61C60.3803 170.605 60.2625 170.551 60.177 170.46C60.0915 170.369 60.0452 170.249 60.0481 170.124C60.0341 170.056 60.0348 169.985 60.05 169.917C60.0653 169.849 60.0947 169.785 60.1364 169.73C60.1781 169.674 60.2312 169.627 60.2921 169.594C60.353 169.56 60.4204 169.539 60.4898 169.534C60.6439 169.526 60.7953 169.576 60.9146 169.674C61.0338 169.771 61.1123 169.91 61.1347 170.063Z" fill="#3C1F1B"/>
<path d="M61.6608 174.805C61.9906 174.823 62.1875 174.997 62.1585 175.328C62.1599 175.468 62.1077 175.604 62.0127 175.708C61.9176 175.812 61.7866 175.876 61.6463 175.887C61.492 175.876 61.348 175.806 61.2446 175.691C61.1411 175.576 61.0861 175.425 61.0911 175.271C61.0927 175.201 61.1094 175.132 61.1401 175.069C61.1708 175.006 61.2147 174.951 61.2688 174.907C61.323 174.862 61.386 174.83 61.4537 174.813C61.5214 174.795 61.592 174.793 61.6608 174.805Z" fill="#3C1F1B"/>
<path d="M259.69 180.111C259.663 180.421 259.454 180.557 259.144 180.574C258.818 180.592 258.62 180.461 258.609 180.109C258.596 179.97 258.638 179.832 258.727 179.724C258.815 179.616 258.942 179.547 259.081 179.532C259.347 179.473 259.679 179.794 259.69 180.111Z" fill="#3C1F1B"/>
<path d="M260.229 138.012C259.95 137.974 259.723 137.821 259.777 137.484C259.783 137.407 259.804 137.332 259.839 137.264C259.874 137.195 259.923 137.134 259.982 137.085C260.041 137.035 260.109 136.997 260.183 136.974C260.256 136.951 260.334 136.943 260.41 136.95C260.693 136.966 260.826 137.178 260.836 137.455C260.842 137.534 260.829 137.613 260.8 137.686C260.771 137.76 260.725 137.826 260.667 137.879C260.609 137.933 260.539 137.973 260.463 137.996C260.387 138.018 260.307 138.024 260.229 138.012Z" fill="#3C1F1B"/>
<path d="M261.185 140.15C261.166 140.303 261.091 140.444 260.974 140.545C260.858 140.645 260.708 140.7 260.554 140.697C260.429 140.692 260.311 140.638 260.226 140.547C260.141 140.456 260.095 140.335 260.098 140.21C260.084 140.142 260.085 140.072 260.1 140.004C260.115 139.936 260.144 139.872 260.186 139.816C260.228 139.76 260.281 139.714 260.342 139.68C260.403 139.647 260.47 139.626 260.54 139.62C260.694 139.614 260.845 139.664 260.964 139.762C261.083 139.86 261.162 139.998 261.185 140.15Z" fill="#3C1F1B"/>
<path d="M260.85 142.301C260.92 142.295 260.99 142.304 261.056 142.326C261.122 142.349 261.182 142.385 261.234 142.433C261.285 142.48 261.326 142.537 261.354 142.601C261.381 142.665 261.396 142.735 261.395 142.804C261.414 143.119 261.271 143.367 260.941 143.368C260.863 143.371 260.786 143.359 260.714 143.332C260.642 143.305 260.575 143.264 260.519 143.211C260.463 143.158 260.418 143.095 260.386 143.024C260.355 142.953 260.338 142.877 260.336 142.8C260.308 142.461 260.547 142.326 260.85 142.301Z" fill="#3C1F1B"/>
<path d="M261.744 145.487C261.749 145.557 261.738 145.627 261.713 145.693C261.688 145.758 261.649 145.817 261.599 145.866C261.548 145.914 261.488 145.952 261.422 145.975C261.356 145.998 261.286 146.006 261.216 145.999C261.147 146.007 261.077 146.001 261.011 145.98C260.945 145.959 260.884 145.924 260.833 145.877C260.781 145.83 260.74 145.773 260.712 145.71C260.685 145.646 260.671 145.577 260.672 145.508C260.65 145.194 260.79 144.944 261.12 144.936C261.274 144.937 261.421 144.993 261.536 145.095C261.651 145.196 261.725 145.336 261.744 145.487Z" fill="#3C1F1B"/>
<path d="M64.1079 183.062C64.1054 183.215 64.0473 183.362 63.9443 183.476C63.8414 183.589 63.7007 183.661 63.5485 183.678C63.2128 183.721 63.0473 183.496 63.0328 183.18C63.0224 183.111 63.0269 183.041 63.0459 182.974C63.0649 182.907 63.098 182.845 63.143 182.792C63.188 182.739 63.2438 182.697 63.3067 182.667C63.3696 182.638 63.4381 182.622 63.5076 182.621C63.5763 182.608 63.6472 182.608 63.7155 182.624C63.7839 182.639 63.8484 182.668 63.9049 182.71C63.9613 182.751 64.0085 182.804 64.0435 182.865C64.0784 182.925 64.1004 182.993 64.1079 183.062Z" fill="#3C1F1B"/>
<path d="M64.885 185.684C64.8798 186.038 64.6736 186.166 64.3499 186.147C64.0412 186.13 63.8017 185.997 63.815 185.657C63.8158 185.518 63.8687 185.384 63.9634 185.281C64.058 185.179 64.1875 185.116 64.3264 185.104C64.4024 185.101 64.4782 185.114 64.5487 185.142C64.6193 185.171 64.6831 185.214 64.7358 185.269C64.7886 185.323 64.8291 185.389 64.8549 185.46C64.8806 185.532 64.8909 185.608 64.885 185.684Z" fill="#3C1F1B"/>
<path d="M256.687 187.266C256.765 187.254 256.844 187.259 256.92 187.28C256.995 187.302 257.065 187.341 257.124 187.393C257.183 187.445 257.229 187.51 257.26 187.582C257.29 187.654 257.305 187.733 257.301 187.811C257.296 188.085 257.172 188.302 256.888 188.326C256.811 188.335 256.734 188.328 256.66 188.307C256.586 188.285 256.517 188.249 256.457 188.201C256.397 188.153 256.347 188.093 256.311 188.025C256.274 187.957 256.252 187.883 256.244 187.806C256.181 187.471 256.404 187.312 256.687 187.266Z" fill="#3C1F1B"/>
<path d="M71.2823 200.355C71.2903 200.661 70.9946 200.996 70.7209 200.968C70.5806 200.956 70.4501 200.892 70.3557 200.787C70.2613 200.683 70.2101 200.546 70.2124 200.406C70.1855 200.076 70.3824 199.9 70.715 199.887C70.7834 199.878 70.8529 199.883 70.9192 199.902C70.9855 199.921 71.0472 199.953 71.1005 199.997C71.1537 200.041 71.1973 200.096 71.2286 200.157C71.2599 200.219 71.2782 200.286 71.2823 200.355Z" fill="#3C1F1B"/>
<path d="M59.4639 151.473C59.4615 151.543 59.4443 151.612 59.4134 151.675C59.3825 151.737 59.3386 151.793 59.2846 151.838C59.2306 151.882 59.1677 151.915 59.1002 151.933C59.0326 151.952 58.9619 151.956 58.8927 151.945C58.8234 151.948 58.7542 151.936 58.6898 151.911C58.6254 151.885 58.5673 151.845 58.5195 151.795C58.4716 151.745 58.4351 151.685 58.4124 151.619C58.3897 151.554 58.3814 151.484 58.3879 151.415C58.3865 151.1 58.5373 150.865 58.8753 150.886C59.0277 150.896 59.1712 150.962 59.2794 151.069C59.3875 151.177 59.4531 151.321 59.4639 151.473Z" fill="#3C1F1B"/>
<path d="M261.104 156.187C261.11 156.111 261.132 156.038 261.167 155.971C261.202 155.904 261.25 155.845 261.309 155.797C261.367 155.749 261.434 155.713 261.507 155.691C261.579 155.67 261.655 155.663 261.731 155.671C261.792 155.669 261.853 155.682 261.909 155.706C261.965 155.731 262.015 155.768 262.056 155.814C262.096 155.86 262.126 155.915 262.143 155.973C262.16 156.032 262.164 156.094 262.154 156.155C262.154 156.462 262.04 156.699 261.71 156.747C261.558 156.745 261.411 156.687 261.299 156.583C261.187 156.48 261.118 156.339 261.104 156.187Z" fill="#3C1F1B"/>
<path d="M260.475 134.866C260.447 135.178 260.305 135.412 259.96 135.377C259.89 135.376 259.821 135.361 259.756 135.333C259.692 135.305 259.634 135.265 259.585 135.214C259.536 135.163 259.498 135.104 259.473 135.038C259.447 134.973 259.435 134.903 259.436 134.833C259.43 134.762 259.441 134.692 259.465 134.626C259.49 134.56 259.53 134.5 259.58 134.451C259.631 134.402 259.692 134.364 259.759 134.341C259.826 134.319 259.897 134.311 259.967 134.319C260.037 134.317 260.107 134.331 260.172 134.358C260.237 134.386 260.296 134.427 260.344 134.479C260.392 134.53 260.428 134.591 260.451 134.658C260.474 134.725 260.482 134.796 260.475 134.866Z" fill="#3C1F1B"/>
<path d="M258.959 182.735C258.951 182.805 258.928 182.872 258.891 182.932C258.855 182.992 258.807 183.044 258.749 183.085C258.691 183.125 258.626 183.152 258.557 183.166C258.488 183.179 258.417 183.178 258.349 183.162C258.28 183.155 258.214 183.134 258.154 183.1C258.094 183.067 258.041 183.022 257.998 182.968C257.955 182.914 257.924 182.852 257.905 182.786C257.887 182.719 257.882 182.65 257.891 182.582C257.9 182.513 257.922 182.448 257.957 182.388C257.991 182.328 258.037 182.276 258.092 182.235C258.147 182.193 258.21 182.163 258.277 182.146C258.343 182.129 258.413 182.126 258.481 182.136C258.62 182.161 258.745 182.235 258.833 182.346C258.921 182.456 258.966 182.595 258.959 182.735Z" fill="#3C1F1B"/>
<path d="M59.5685 142.879C59.6392 142.881 59.7087 142.897 59.7724 142.928C59.836 142.959 59.8921 143.004 59.9371 143.058C59.982 143.113 60.0146 143.177 60.0327 143.245C60.0508 143.314 60.0539 143.385 60.0418 143.455C60.0449 143.525 60.0326 143.595 60.0055 143.66C59.9785 143.726 59.9375 143.784 59.8855 143.831C59.8334 143.879 59.7716 143.914 59.7043 143.935C59.637 143.956 59.566 143.962 59.4962 143.952C59.4257 143.954 59.3557 143.94 59.2912 143.912C59.2267 143.884 59.1692 143.842 59.1228 143.789C59.0765 143.736 59.0425 143.673 59.0232 143.605C59.0039 143.537 58.9998 143.466 59.0112 143.397C59.0265 143.258 59.0912 143.129 59.1935 143.034C59.2959 142.939 59.4289 142.884 59.5685 142.879Z" fill="#3C1F1B"/>
<path d="M257.691 185.764C257.621 185.772 257.549 185.764 257.482 185.742C257.415 185.72 257.353 185.684 257.3 185.637C257.248 185.589 257.206 185.53 257.178 185.465C257.149 185.4 257.135 185.33 257.136 185.259C257.119 184.941 257.26 184.697 257.602 184.695C257.672 184.691 257.743 184.701 257.809 184.725C257.876 184.748 257.937 184.784 257.99 184.831C258.042 184.878 258.085 184.935 258.115 184.999C258.146 185.062 258.164 185.131 258.167 185.201C258.177 185.27 258.172 185.341 258.153 185.408C258.134 185.474 258.101 185.537 258.056 185.59C258.011 185.643 257.955 185.686 257.892 185.716C257.829 185.746 257.761 185.762 257.691 185.764Z" fill="#3C1F1B"/>
<path d="M58.9729 154.689C58.6371 154.628 58.3935 154.51 58.3922 154.164C58.385 154.094 58.3931 154.023 58.4161 153.957C58.4391 153.891 58.4764 153.83 58.5253 153.78C58.5742 153.729 58.6335 153.69 58.6992 153.665C58.7648 153.64 58.8352 153.63 58.9053 153.635C59.2248 153.624 59.4577 153.77 59.4544 154.114C59.4513 154.434 59.211 154.583 58.9729 154.689Z" fill="#3C1F1B"/>
<path d="M59.5542 164.247C59.6953 164.239 59.8343 164.283 59.9453 164.371C60.0563 164.458 60.1317 164.583 60.1574 164.722C60.174 164.791 60.1752 164.862 60.1611 164.931C60.1469 165.001 60.1177 165.066 60.0754 165.123C60.0332 165.179 59.979 165.226 59.9167 165.259C59.8544 165.293 59.7855 165.312 59.715 165.316C59.646 165.331 59.5745 165.331 59.5055 165.315C59.4366 165.3 59.372 165.269 59.3162 165.226C59.2604 165.182 59.2148 165.127 59.1828 165.064C59.1507 165.001 59.1329 164.932 59.1307 164.861C59.1145 164.793 59.1129 164.722 59.1259 164.653C59.1388 164.584 59.1662 164.518 59.2061 164.46C59.246 164.402 59.2976 164.353 59.3575 164.317C59.4175 164.28 59.4845 164.256 59.5542 164.247Z" fill="#3C1F1B"/>
<path d="M262.089 158.865C262.012 159.171 261.872 159.401 261.525 159.373C261.455 159.373 261.385 159.359 261.321 159.33C261.257 159.301 261.2 159.258 261.153 159.205C261.107 159.152 261.073 159.09 261.054 159.022C261.034 158.954 261.029 158.883 261.04 158.814C261.053 158.491 261.223 158.272 261.566 158.317C261.704 158.331 261.833 158.394 261.929 158.494C262.025 158.595 262.082 158.727 262.089 158.865Z" fill="#3C1F1B"/>
<path d="M59.4905 148.768C59.4805 149.078 59.353 149.321 59.0089 149.314C58.9385 149.317 58.8682 149.306 58.8021 149.282C58.7359 149.258 58.6752 149.221 58.6234 149.173C58.5716 149.126 58.5298 149.068 58.5004 149.004C58.471 148.94 58.4546 148.871 58.4521 148.8C58.4421 148.731 58.4477 148.66 58.4683 148.592C58.4889 148.525 58.5242 148.463 58.5715 148.411C58.6188 148.358 58.6771 148.317 58.7421 148.29C58.8072 148.263 58.8774 148.25 58.9478 148.254C59.0183 148.247 59.0894 148.256 59.1563 148.279C59.2233 148.302 59.2845 148.339 59.3358 148.388C59.3872 148.437 59.4276 148.496 59.4543 148.562C59.481 148.627 59.4933 148.698 59.4905 148.768Z" fill="#3C1F1B"/>
<path d="M262.271 153.48C262.196 153.785 262.06 154.017 261.713 153.991C261.643 153.992 261.573 153.978 261.509 153.95C261.444 153.922 261.387 153.88 261.34 153.828C261.294 153.775 261.26 153.713 261.24 153.645C261.22 153.578 261.215 153.507 261.225 153.438C261.237 153.118 261.403 152.894 261.745 152.936C261.883 152.949 262.012 153.011 262.108 153.111C262.205 153.211 262.262 153.342 262.271 153.48Z" fill="#3C1F1B"/>
<path d="M260.565 171.665C260.637 171.654 260.71 171.659 260.78 171.679C260.85 171.699 260.915 171.733 260.97 171.781C261.025 171.828 261.069 171.887 261.099 171.953C261.13 172.019 261.145 172.091 261.145 172.163C261.149 172.233 261.139 172.304 261.116 172.37C261.093 172.436 261.057 172.497 261.01 172.549C260.963 172.601 260.906 172.644 260.842 172.674C260.779 172.704 260.71 172.721 260.64 172.724C260.298 172.773 260.127 172.553 260.111 172.23C260.102 172.163 260.107 172.095 260.125 172.029C260.143 171.964 260.174 171.903 260.217 171.85C260.259 171.797 260.312 171.754 260.372 171.722C260.432 171.69 260.497 171.671 260.565 171.665Z" fill="#3C1F1B"/>
<path d="M254.522 193.194C254.453 193.192 254.385 193.175 254.323 193.145C254.26 193.115 254.205 193.072 254.16 193.019C254.115 192.966 254.082 192.904 254.063 192.838C254.044 192.771 254.039 192.701 254.049 192.633C254.053 192.562 254.07 192.494 254.101 192.43C254.131 192.367 254.174 192.31 254.226 192.264C254.279 192.217 254.34 192.181 254.406 192.158C254.473 192.135 254.543 192.125 254.613 192.129C254.953 192.131 255.094 192.374 255.077 192.692C255.078 192.763 255.064 192.833 255.036 192.898C255.007 192.963 254.966 193.021 254.913 193.068C254.861 193.116 254.799 193.152 254.731 193.173C254.664 193.195 254.593 193.202 254.522 193.194Z" fill="#3C1F1B"/>
<path d="M61.1242 173.256C60.8185 173.178 60.5904 173.037 60.6209 172.692C60.6207 172.622 60.6357 172.552 60.665 172.489C60.6942 172.425 60.7369 172.368 60.7901 172.323C60.8434 172.277 60.9059 172.244 60.9733 172.225C61.0408 172.206 61.1116 172.202 61.1808 172.213C61.502 172.228 61.7203 172.398 61.6738 172.739C61.6589 172.876 61.5953 173.004 61.4945 173.099C61.3937 173.193 61.2624 173.249 61.1242 173.256Z" fill="#3C1F1B"/>
<path d="M67.1846 193.73C67.1148 193.722 67.0475 193.699 66.9869 193.664C66.9264 193.628 66.874 193.58 66.8331 193.523C66.7922 193.466 66.7638 193.401 66.7496 193.332C66.7354 193.264 66.7358 193.193 66.7508 193.124C66.7577 193.056 66.7781 192.99 66.8108 192.929C66.8436 192.869 66.8881 192.816 66.9416 192.773C66.9952 192.73 67.0568 192.698 67.1227 192.679C67.1887 192.66 67.2578 192.655 67.326 192.663C67.3941 192.671 67.4599 192.693 67.5196 192.727C67.5793 192.761 67.6316 192.806 67.6735 192.861C67.7154 192.915 67.746 192.977 67.7636 193.043C67.7812 193.11 67.7854 193.179 67.7759 193.247C67.7521 193.385 67.6791 193.51 67.5705 193.599C67.4618 193.688 67.3248 193.734 67.1846 193.73Z" fill="#3C1F1B"/>
<path d="M260.134 174.275C260.521 174.324 260.669 174.533 260.652 174.852C260.65 174.921 260.634 174.989 260.605 175.051C260.576 175.114 260.536 175.17 260.485 175.216C260.434 175.263 260.375 175.299 260.31 175.322C260.246 175.345 260.177 175.356 260.108 175.352C260.04 175.349 259.973 175.331 259.911 175.301C259.849 175.272 259.793 175.23 259.748 175.178C259.702 175.127 259.667 175.067 259.645 175.002C259.623 174.936 259.615 174.868 259.619 174.799C259.635 174.484 259.898 174.351 260.134 174.275Z" fill="#3C1F1B"/>
<path d="M252.286 197.215C252.294 197.286 252.288 197.357 252.266 197.424C252.244 197.492 252.209 197.554 252.161 197.606C252.113 197.658 252.055 197.7 251.99 197.728C251.925 197.755 251.854 197.769 251.784 197.767C251.713 197.77 251.643 197.76 251.577 197.736C251.511 197.713 251.451 197.676 251.399 197.629C251.347 197.581 251.305 197.524 251.276 197.461C251.246 197.397 251.229 197.328 251.227 197.258C251.181 196.917 251.404 196.749 251.726 196.736C251.795 196.727 251.865 196.732 251.932 196.752C251.999 196.771 252.061 196.805 252.114 196.85C252.166 196.896 252.209 196.952 252.239 197.014C252.268 197.077 252.285 197.146 252.286 197.215Z" fill="#3C1F1B"/>
<path d="M62.8235 180.021C62.8933 180.02 62.9626 180.033 63.0267 180.061C63.0908 180.088 63.1484 180.129 63.1956 180.181C63.2427 180.232 63.2784 180.293 63.3003 180.36C63.3222 180.426 63.3298 180.496 63.3226 180.565C63.321 180.636 63.3055 180.705 63.277 180.77C63.2485 180.834 63.2075 180.892 63.1565 180.94C63.1055 180.989 63.0453 181.027 62.9796 181.052C62.9139 181.077 62.8438 181.089 62.7735 181.087C62.4292 181.099 62.2809 180.863 62.2896 180.543C62.2864 180.473 62.2981 180.402 62.3239 180.337C62.3498 180.271 62.3892 180.212 62.4396 180.162C62.49 180.113 62.5503 180.075 62.6164 180.05C62.6826 180.026 62.7531 180.016 62.8235 180.021Z" fill="#3C1F1B"/>
<path d="M259.729 177.967C259.661 177.974 259.592 177.967 259.527 177.946C259.462 177.925 259.402 177.891 259.35 177.845C259.299 177.8 259.258 177.744 259.229 177.682C259.2 177.619 259.185 177.552 259.184 177.483C259.153 177.138 259.374 176.974 259.674 176.927C259.829 176.932 259.975 176.997 260.082 177.108C260.19 177.22 260.25 177.368 260.25 177.523C260.239 177.65 260.178 177.768 260.081 177.851C259.983 177.934 259.857 177.976 259.729 177.967Z" fill="#3C1F1B"/>
<path d="M61.5996 177.927C61.6804 177.622 61.8232 177.393 62.169 177.425C62.2393 177.425 62.3087 177.441 62.3725 177.47C62.4362 177.5 62.4928 177.543 62.5383 177.597C62.5838 177.65 62.6171 177.713 62.636 177.781C62.6549 177.849 62.6589 177.92 62.6478 177.989C62.6312 178.311 62.4596 178.529 62.1171 178.48C61.9792 178.464 61.8513 178.4 61.7565 178.298C61.6617 178.197 61.606 178.065 61.5996 177.927Z" fill="#3C1F1B"/>
<path d="M59.7524 146.072C59.7565 146.14 59.7459 146.209 59.7215 146.272C59.697 146.336 59.6591 146.394 59.6105 146.442C59.5618 146.49 59.5034 146.527 59.4393 146.55C59.3751 146.574 59.3067 146.583 59.2386 146.578C58.9112 146.59 58.6883 146.44 58.6783 146.113C58.6728 146.044 58.6819 145.973 58.705 145.907C58.7281 145.841 58.7647 145.78 58.8125 145.729C58.8603 145.678 58.9182 145.637 58.9827 145.609C59.0471 145.582 59.1165 145.568 59.1866 145.568C59.5019 145.551 59.6888 145.75 59.7524 146.072Z" fill="#3C1F1B"/>
<path d="M261.939 148.105C261.943 148.244 261.899 148.379 261.815 148.489C261.731 148.599 261.611 148.677 261.477 148.71C261.228 148.788 260.874 148.45 260.88 148.157C260.878 148.096 260.888 148.035 260.91 147.977C260.932 147.92 260.965 147.868 261.008 147.823C261.051 147.779 261.102 147.744 261.158 147.72C261.215 147.696 261.276 147.684 261.337 147.684C261.404 147.67 261.474 147.669 261.542 147.683C261.609 147.696 261.674 147.723 261.73 147.763C261.787 147.802 261.835 147.853 261.87 147.912C261.906 147.971 261.93 148.037 261.939 148.105Z" fill="#3C1F1B"/>
<path d="M60.5824 167.501C60.5738 167.569 60.551 167.636 60.5155 167.695C60.4801 167.754 60.4327 167.806 60.3764 167.846C60.32 167.886 60.256 167.914 60.1883 167.928C60.1206 167.943 60.0507 167.943 59.9829 167.929C59.9215 167.929 59.8605 167.918 59.8037 167.894C59.7469 167.871 59.6954 167.836 59.6523 167.792C59.6092 167.748 59.5755 167.696 59.553 167.639C59.5306 167.582 59.5199 167.52 59.5217 167.459C59.5132 167.168 59.8674 166.821 60.115 166.898C60.2494 166.931 60.3688 167.009 60.4536 167.118C60.5385 167.227 60.5839 167.362 60.5824 167.501Z" fill="#3C1F1B"/>
<path d="M59.1384 159.955C58.7829 159.917 58.5601 159.77 58.5967 159.433C58.5978 159.363 58.6128 159.295 58.6407 159.232C58.6685 159.168 58.7088 159.111 58.759 159.063C58.8093 159.016 58.8685 158.978 58.9333 158.954C58.9981 158.929 59.0671 158.918 59.1363 158.92C59.2055 158.923 59.2736 158.939 59.3364 158.968C59.3993 158.997 59.4558 159.039 59.5025 159.09C59.5492 159.141 59.5853 159.201 59.6086 159.266C59.6319 159.331 59.642 159.4 59.6382 159.47C59.6472 159.812 59.4006 159.927 59.1384 159.955Z" fill="#3C1F1B"/>
<path d="M255.761 190.768C255.691 190.769 255.622 190.755 255.558 190.727C255.494 190.699 255.436 190.658 255.39 190.606C255.343 190.554 255.309 190.492 255.288 190.426C255.268 190.359 255.262 190.289 255.271 190.219C255.26 190.096 255.297 189.973 255.376 189.878C255.455 189.782 255.568 189.721 255.691 189.709C255.969 189.666 256.342 189.988 256.304 190.249C256.286 190.385 256.222 190.51 256.123 190.604C256.024 190.698 255.897 190.756 255.761 190.768Z" fill="#3C1F1B"/>
<path d="M253.854 195.033C253.776 195.336 253.642 195.572 253.309 195.585C253.156 195.568 253.015 195.492 252.918 195.372C252.82 195.252 252.775 195.098 252.79 194.945C252.812 194.821 252.879 194.71 252.977 194.633C253.076 194.556 253.199 194.517 253.324 194.525C253.392 194.523 253.46 194.535 253.524 194.56C253.587 194.585 253.645 194.622 253.695 194.669C253.744 194.716 253.783 194.772 253.811 194.835C253.838 194.897 253.853 194.965 253.854 195.033Z" fill="#3C1F1B"/>
<path d="M68.7924 195.629C68.7617 195.942 68.6202 196.169 68.2816 196.138C68.2123 196.138 68.1438 196.124 68.08 196.097C68.0162 196.07 67.9584 196.031 67.91 195.982C67.8616 195.932 67.8236 195.873 67.7981 195.809C67.7727 195.745 67.7603 195.676 67.7618 195.606C67.7633 195.537 67.7786 195.469 67.8068 195.406C67.835 195.343 67.8756 195.286 67.9261 195.238C67.9766 195.191 68.036 195.154 68.1009 195.13C68.1658 195.106 68.2349 195.095 68.3041 195.098C68.6448 195.084 68.7726 195.32 68.7924 195.629Z" fill="#3C1F1B"/>
<path d="M69.5212 197.509C69.5938 197.514 69.6646 197.534 69.7291 197.568C69.7937 197.601 69.8507 197.648 69.8964 197.704C69.9422 197.761 69.9758 197.826 69.9952 197.897C70.0146 197.967 70.0193 198.04 70.009 198.112C69.9988 198.184 69.9738 198.254 69.9357 198.316C69.8975 198.378 69.847 198.431 69.7872 198.473C69.7275 198.514 69.6599 198.543 69.5885 198.558C69.5171 198.572 69.4435 198.571 69.3724 198.556C69.2501 198.536 69.1405 198.469 69.0667 198.369C68.9929 198.269 68.9606 198.145 68.9767 198.022C68.9724 197.951 68.9838 197.88 69.0101 197.813C69.0364 197.747 69.0769 197.687 69.1288 197.638C69.1808 197.589 69.2428 197.552 69.3106 197.53C69.3784 197.508 69.4503 197.5 69.5212 197.509Z" fill="#3C1F1B"/>
<path d="M261.382 161.995C261.06 161.961 260.84 161.813 260.876 161.468C260.876 161.405 260.889 161.344 260.913 161.286C260.937 161.229 260.973 161.177 261.017 161.133C261.062 161.09 261.115 161.055 261.173 161.032C261.231 161.01 261.293 160.998 261.355 161C261.425 160.994 261.496 161.003 261.562 161.026C261.629 161.048 261.69 161.084 261.743 161.131C261.795 161.178 261.838 161.234 261.868 161.298C261.898 161.362 261.915 161.431 261.918 161.501C261.932 161.848 261.694 161.976 261.382 161.995Z" fill="#3C1F1B"/>
<path d="M66.2166 190.226C66.5086 190.257 66.7133 190.398 66.7098 190.689C66.7056 191.031 66.4691 191.172 66.1479 191.159C66.0854 191.164 66.0223 191.156 65.963 191.136C65.9037 191.115 65.8495 191.082 65.8039 191.039C65.7582 190.996 65.7223 190.943 65.6984 190.885C65.6745 190.827 65.6632 190.765 65.6653 190.702C65.669 190.36 65.9078 190.23 66.2166 190.226Z" fill="#3C1F1B"/>
<path d="M159.515 177.043C158.538 177.047 157.57 176.858 156.667 176.486C155.764 176.114 154.944 175.567 154.253 174.876C153.563 174.185 153.016 173.364 152.645 172.461C152.273 171.558 152.084 170.59 152.089 169.613C152.091 168.145 152.527 166.711 153.344 165.492C154.16 164.272 155.32 163.322 156.676 162.762C158.032 162.201 159.524 162.055 160.963 162.342C162.402 162.629 163.724 163.336 164.761 164.374C165.799 165.412 166.505 166.735 166.791 168.174C167.077 169.613 166.93 171.105 166.369 172.461C165.807 173.817 164.856 174.976 163.636 175.792C162.416 176.607 160.982 177.043 159.515 177.043Z" fill="#3C1F1B"/>
<path d="M75.868 118.894C76.0006 118.889 76.1301 118.935 76.2282 119.025C76.3263 119.114 76.385 119.239 76.3916 119.371C76.4052 119.482 76.3847 119.594 76.3329 119.692C76.281 119.79 76.2003 119.87 76.1016 119.921C76.0029 119.972 75.8909 119.992 75.7807 119.977C75.6705 119.963 75.5674 119.915 75.4852 119.84C75.4031 119.765 75.3458 119.667 75.3212 119.559C75.2965 119.45 75.3057 119.337 75.3474 119.234C75.3891 119.131 75.4613 119.043 75.5544 118.982C75.6475 118.922 75.7569 118.891 75.868 118.894Z" fill="#3C1F1B"/>
<path d="M77.5143 120.945C77.5808 120.939 77.6478 120.946 77.7116 120.966C77.7753 120.985 77.8345 121.018 77.8857 121.06C77.9369 121.103 77.9792 121.156 78.0101 121.215C78.041 121.274 78.0599 121.339 78.0658 121.405C78.0807 121.48 78.0791 121.557 78.0611 121.631C78.043 121.705 78.009 121.774 77.9615 121.833C77.9139 121.893 77.8539 121.941 77.7856 121.975C77.7174 122.009 77.6426 122.027 77.5665 122.029C77.4983 122.039 77.4288 122.035 77.3622 122.017C77.2957 121.999 77.2334 121.968 77.1794 121.926C77.1253 121.883 77.0806 121.829 77.048 121.769C77.0154 121.708 76.9955 121.641 76.9897 121.573C76.976 121.496 76.9794 121.417 76.9994 121.342C77.0195 121.266 77.0558 121.196 77.1058 121.136C77.1558 121.077 77.2182 121.028 77.2888 120.995C77.3594 120.962 77.4364 120.945 77.5143 120.945Z" fill="#3C1F1B"/>
<path d="M188.322 162.708C188.327 162.787 188.315 162.866 188.286 162.939C188.257 163.013 188.212 163.079 188.154 163.133C188.097 163.187 188.028 163.227 187.953 163.251C187.878 163.275 187.798 163.282 187.72 163.272C187.651 163.269 187.583 163.253 187.521 163.223C187.459 163.193 187.404 163.151 187.358 163.099C187.313 163.048 187.279 162.987 187.258 162.921C187.237 162.856 187.23 162.786 187.237 162.718C187.235 162.642 187.249 162.566 187.28 162.496C187.31 162.426 187.356 162.364 187.413 162.314C187.47 162.263 187.538 162.226 187.611 162.205C187.684 162.184 187.761 162.179 187.837 162.191C187.902 162.193 187.967 162.208 188.027 162.235C188.087 162.262 188.142 162.301 188.187 162.349C188.232 162.397 188.267 162.453 188.29 162.515C188.313 162.576 188.324 162.642 188.322 162.708Z" fill="#3C1F1B"/>
<path d="M235.498 125.772C235.576 125.761 235.655 125.767 235.73 125.791C235.806 125.814 235.875 125.854 235.933 125.908C235.991 125.961 236.036 126.027 236.065 126.1C236.093 126.174 236.106 126.253 236.1 126.331C236.103 126.4 236.092 126.469 236.067 126.533C236.042 126.597 236.005 126.656 235.956 126.705C235.908 126.754 235.85 126.793 235.786 126.818C235.722 126.844 235.654 126.856 235.585 126.854C235.509 126.863 235.432 126.854 235.36 126.829C235.288 126.804 235.223 126.763 235.168 126.709C235.114 126.656 235.072 126.591 235.046 126.519C235.02 126.447 235.01 126.37 235.017 126.294C235.013 126.228 235.023 126.162 235.045 126.1C235.068 126.038 235.102 125.981 235.147 125.932C235.192 125.883 235.246 125.844 235.306 125.817C235.366 125.789 235.431 125.774 235.498 125.772Z" fill="#3C1F1B"/>
<path d="M233.33 128.345C233.263 128.35 233.197 128.342 233.134 128.321C233.071 128.3 233.013 128.267 232.962 128.224C232.912 128.181 232.871 128.128 232.841 128.069C232.811 128.01 232.794 127.945 232.789 127.879C232.773 127.769 232.791 127.657 232.84 127.558C232.89 127.459 232.968 127.377 233.065 127.324C233.163 127.271 233.274 127.248 233.384 127.26C233.494 127.271 233.598 127.316 233.682 127.389C233.766 127.461 233.826 127.557 233.854 127.664C233.881 127.772 233.876 127.885 233.837 127.989C233.799 128.093 233.73 128.183 233.639 128.246C233.548 128.31 233.44 128.344 233.33 128.345Z" fill="#3C1F1B"/>
<path d="M106.512 141.407C106.509 141.483 106.489 141.558 106.454 141.625C106.419 141.693 106.37 141.752 106.31 141.799C106.251 141.846 106.181 141.879 106.107 141.897C106.034 141.915 105.957 141.916 105.882 141.901C105.813 141.895 105.747 141.875 105.686 141.842C105.626 141.809 105.573 141.764 105.53 141.71C105.488 141.656 105.457 141.593 105.439 141.527C105.422 141.46 105.418 141.39 105.429 141.322C105.434 141.251 105.453 141.181 105.486 141.117C105.518 141.054 105.563 140.997 105.617 140.95C105.671 140.904 105.734 140.868 105.802 140.846C105.87 140.824 105.942 140.815 106.013 140.821C106.085 140.827 106.154 140.846 106.218 140.879C106.281 140.911 106.338 140.956 106.385 141.01C106.431 141.065 106.466 141.128 106.488 141.196C106.51 141.264 106.518 141.336 106.512 141.407Z" fill="#3C1F1B"/>
<path d="M208.214 142.323C208.215 142.389 208.204 142.455 208.18 142.516C208.156 142.577 208.12 142.634 208.074 142.681C208.028 142.728 207.973 142.766 207.912 142.793C207.852 142.819 207.787 142.833 207.721 142.834C207.645 142.844 207.568 142.838 207.495 142.816C207.422 142.793 207.355 142.755 207.299 142.704C207.243 142.653 207.198 142.59 207.169 142.519C207.139 142.449 207.126 142.373 207.129 142.297C207.123 142.228 207.131 142.159 207.152 142.094C207.174 142.028 207.209 141.968 207.255 141.917C207.301 141.866 207.358 141.825 207.42 141.796C207.483 141.768 207.551 141.753 207.62 141.752C207.698 141.742 207.778 141.75 207.853 141.775C207.927 141.801 207.996 141.842 208.053 141.896C208.109 141.951 208.153 142.018 208.181 142.092C208.209 142.165 208.221 142.244 208.214 142.323Z" fill="#3C1F1B"/>
<path d="M108.424 141.934C108.493 141.934 108.562 141.948 108.625 141.975C108.688 142.002 108.745 142.042 108.793 142.092C108.841 142.141 108.878 142.2 108.902 142.265C108.926 142.33 108.936 142.398 108.933 142.467C108.938 142.543 108.927 142.62 108.899 142.691C108.872 142.762 108.829 142.826 108.774 142.879C108.719 142.932 108.654 142.972 108.581 142.996C108.509 143.021 108.433 143.029 108.357 143.021C108.281 143.019 108.206 143.001 108.138 142.967C108.069 142.933 108.009 142.885 107.961 142.826C107.913 142.767 107.879 142.698 107.86 142.624C107.841 142.551 107.839 142.474 107.853 142.399C107.859 142.33 107.879 142.264 107.911 142.203C107.943 142.143 107.987 142.089 108.041 142.046C108.094 142.003 108.155 141.97 108.221 141.951C108.287 141.932 108.356 141.926 108.424 141.934Z" fill="#3C1F1B"/>
<path d="M193.161 153.275C193.161 153.351 193.145 153.427 193.114 153.496C193.082 153.565 193.035 153.627 192.977 153.676C192.919 153.726 192.851 153.762 192.778 153.782C192.704 153.803 192.627 153.807 192.552 153.794C192.483 153.79 192.416 153.773 192.354 153.742C192.293 153.711 192.238 153.668 192.193 153.616C192.149 153.563 192.115 153.502 192.095 153.436C192.075 153.37 192.069 153.301 192.076 153.232C192.079 153.161 192.095 153.091 192.125 153.026C192.155 152.961 192.197 152.902 192.249 152.853C192.302 152.805 192.363 152.767 192.43 152.742C192.497 152.717 192.568 152.706 192.64 152.708C192.711 152.711 192.782 152.728 192.846 152.758C192.911 152.788 192.97 152.831 193.018 152.883C193.067 152.936 193.104 152.998 193.129 153.065C193.153 153.132 193.164 153.203 193.161 153.275Z" fill="#3C1F1B"/>
<path d="M217.094 137.763C217.018 137.757 216.945 137.736 216.878 137.701C216.812 137.665 216.753 137.616 216.706 137.557C216.659 137.498 216.625 137.43 216.605 137.357C216.586 137.283 216.582 137.207 216.593 137.133C216.589 137.064 216.6 136.995 216.626 136.931C216.652 136.867 216.693 136.81 216.745 136.765C216.796 136.719 216.858 136.686 216.924 136.668C216.991 136.65 217.061 136.647 217.128 136.66C217.267 136.661 217.401 136.714 217.502 136.81C217.604 136.905 217.665 137.035 217.675 137.174C217.669 137.327 217.606 137.472 217.498 137.581C217.391 137.69 217.247 137.755 217.094 137.763Z" fill="#3C1F1B"/>
<path d="M202.914 145.276C202.839 145.277 202.764 145.262 202.694 145.233C202.625 145.204 202.562 145.161 202.51 145.107C202.458 145.052 202.417 144.988 202.391 144.917C202.365 144.847 202.353 144.772 202.357 144.696C202.364 144.623 202.386 144.553 202.421 144.488C202.455 144.423 202.502 144.366 202.559 144.319C202.616 144.273 202.681 144.238 202.751 144.217C202.822 144.196 202.895 144.188 202.968 144.196C203.041 144.203 203.112 144.224 203.177 144.259C203.242 144.294 203.299 144.341 203.345 144.397C203.392 144.454 203.427 144.52 203.448 144.59C203.469 144.66 203.476 144.734 203.469 144.807C203.468 144.876 203.453 144.944 203.423 145.006C203.394 145.068 203.352 145.124 203.299 145.168C203.246 145.213 203.185 145.245 203.118 145.264C203.052 145.283 202.982 145.286 202.914 145.276Z" fill="#3C1F1B"/>
<path d="M101.088 139.494C100.807 139.463 100.588 139.309 100.625 138.968C100.622 138.827 100.674 138.69 100.769 138.587C100.865 138.483 100.997 138.421 101.138 138.414C101.215 138.409 101.292 138.422 101.364 138.451C101.435 138.48 101.5 138.524 101.552 138.581C101.604 138.637 101.644 138.705 101.667 138.778C101.69 138.852 101.697 138.929 101.687 139.006C101.682 139.078 101.662 139.149 101.628 139.213C101.595 139.277 101.549 139.334 101.493 139.38C101.437 139.425 101.372 139.459 101.302 139.479C101.233 139.499 101.16 139.504 101.088 139.494Z" fill="#3C1F1B"/>
<path d="M132.553 159.025C132.556 159.095 132.545 159.164 132.52 159.229C132.495 159.294 132.457 159.353 132.408 159.403C132.358 159.452 132.3 159.491 132.235 159.517C132.17 159.542 132.101 159.554 132.031 159.552C131.877 159.541 131.733 159.471 131.63 159.356C131.527 159.241 131.473 159.09 131.479 158.936C131.481 158.865 131.498 158.796 131.529 158.734C131.56 158.671 131.604 158.615 131.659 158.571C131.714 158.527 131.777 158.496 131.846 158.479C131.914 158.462 131.985 158.461 132.054 158.474C132.124 158.474 132.193 158.489 132.257 158.517C132.321 158.546 132.378 158.587 132.425 158.639C132.472 158.691 132.508 158.752 132.53 158.818C132.552 158.885 132.56 158.955 132.553 159.025Z" fill="#3C1F1B"/>
<path d="M243.684 119.816C243.611 119.827 243.538 119.822 243.467 119.803C243.396 119.784 243.33 119.751 243.273 119.706C243.216 119.66 243.168 119.603 243.134 119.539C243.099 119.474 243.078 119.404 243.072 119.331C243.066 119.258 243.075 119.184 243.098 119.115C243.122 119.046 243.159 118.982 243.208 118.927C243.257 118.873 243.316 118.829 243.383 118.799C243.449 118.768 243.521 118.752 243.595 118.75C243.934 118.711 244.081 118.941 244.116 119.251C244.154 119.595 243.999 119.795 243.684 119.816Z" fill="#3C1F1B"/>
<path d="M133.979 161.266C133.978 161.4 133.928 161.53 133.837 161.628C133.746 161.727 133.621 161.788 133.487 161.799C133.172 161.829 132.942 161.725 132.927 161.366C132.914 161.069 132.991 160.814 133.323 160.738C133.479 160.726 133.634 160.775 133.755 160.873C133.877 160.971 133.957 161.111 133.979 161.266Z" fill="#3C1F1B"/>
<path d="M136.068 165.402C136.223 165.423 136.364 165.503 136.463 165.625C136.561 165.746 136.61 165.901 136.598 166.057C136.522 166.387 136.267 166.466 135.969 166.453C135.608 166.438 135.505 166.209 135.535 165.894C135.546 165.76 135.607 165.635 135.706 165.544C135.805 165.453 135.934 165.403 136.068 165.402Z" fill="#3C1F1B"/>
<path d="M237.763 125.318C237.495 125.276 237.264 125.157 237.235 124.823C237.207 124.505 237.315 124.28 237.673 124.267C237.971 124.256 238.225 124.337 238.299 124.668C238.31 124.824 238.26 124.979 238.161 125.1C238.061 125.221 237.919 125.299 237.763 125.318Z" fill="#3C1F1B"/>
<path d="M81.3604 124.681C81.5121 124.707 81.6486 124.789 81.7435 124.91C81.8384 125.031 81.8848 125.183 81.8738 125.337C81.866 125.406 81.8437 125.473 81.8083 125.533C81.7729 125.593 81.7252 125.645 81.6683 125.685C81.6115 125.725 81.5468 125.753 81.4784 125.767C81.4101 125.78 81.3396 125.779 81.2717 125.763C81.2099 125.764 81.1485 125.753 81.0912 125.73C81.0339 125.706 80.9818 125.672 80.9379 125.629C80.8941 125.585 80.8594 125.533 80.8358 125.476C80.8123 125.419 80.8004 125.357 80.8008 125.296C80.7986 125.141 80.8552 124.992 80.9591 124.878C81.063 124.763 81.2065 124.693 81.3604 124.681Z" fill="#3C1F1B"/>
<path d="M83.9621 127.082C83.9407 127.215 83.8711 127.336 83.7665 127.422C83.662 127.507 83.5297 127.551 83.3948 127.546C83.2398 127.531 83.0964 127.457 82.9951 127.339C82.8938 127.221 82.8423 127.068 82.8517 126.913C82.8602 126.843 82.8834 126.776 82.9199 126.717C82.9563 126.657 83.0051 126.606 83.0629 126.567C83.1208 126.528 83.1863 126.501 83.2552 126.489C83.3241 126.478 83.3947 126.481 83.4622 126.498C83.6045 126.513 83.7356 126.582 83.8287 126.69C83.9217 126.799 83.9695 126.939 83.9621 127.082Z" fill="#3C1F1B"/>
<path d="M86.0744 128.53C86.0809 128.598 86.0734 128.668 86.0524 128.733C86.0313 128.799 85.9972 128.859 85.952 128.911C85.9069 128.963 85.8516 129.005 85.7896 129.035C85.7276 129.065 85.6602 129.082 85.5915 129.085C85.5158 129.09 85.4398 129.079 85.3688 129.052C85.2977 129.025 85.2334 128.984 85.18 128.929C85.1267 128.875 85.0857 128.811 85.0598 128.739C85.034 128.668 85.0238 128.592 85.0301 128.516C85.0694 128.224 85.2162 127.993 85.5594 128.006C85.6283 128.004 85.6969 128.016 85.7609 128.042C85.8249 128.068 85.8828 128.107 85.9312 128.156C85.9795 128.205 86.0172 128.263 86.0419 128.328C86.0665 128.392 86.0776 128.461 86.0744 128.53Z" fill="#3C1F1B"/>
<path d="M186.29 167.711C186.286 168.02 186.156 168.267 185.823 168.262C185.746 168.265 185.669 168.251 185.597 168.224C185.525 168.196 185.459 168.154 185.403 168.1C185.347 168.047 185.303 167.983 185.272 167.912C185.241 167.841 185.225 167.764 185.224 167.687C185.202 167.35 185.44 167.201 185.755 167.201C185.825 167.196 185.895 167.205 185.96 167.228C186.026 167.252 186.086 167.289 186.137 167.337C186.187 167.385 186.227 167.443 186.253 167.508C186.28 167.572 186.292 167.642 186.29 167.711Z" fill="#3C1F1B"/>
<path d="M228.768 130.063C228.921 130.082 229.062 130.156 229.163 130.273C229.264 130.389 229.318 130.539 229.315 130.693C229.31 130.818 229.256 130.936 229.165 131.021C229.074 131.106 228.953 131.152 228.828 131.149C228.76 131.163 228.689 131.163 228.621 131.147C228.553 131.132 228.489 131.103 228.434 131.061C228.378 131.019 228.332 130.966 228.298 130.905C228.264 130.844 228.244 130.777 228.238 130.707C228.231 130.554 228.281 130.402 228.379 130.283C228.477 130.164 228.616 130.086 228.768 130.063Z" fill="#3C1F1B"/>
<path d="M90.6165 131.397C90.6215 131.551 90.5698 131.701 90.4713 131.819C90.3728 131.937 90.2343 132.015 90.0821 132.038C89.9413 132.034 89.8076 131.976 89.7085 131.876C89.6095 131.775 89.5527 131.641 89.55 131.5C89.5354 131.432 89.5368 131.361 89.5543 131.293C89.5718 131.226 89.6047 131.163 89.6506 131.11C89.6965 131.058 89.754 131.017 89.8186 130.99C89.8832 130.963 89.9531 130.952 90.0228 130.957C90.091 130.944 90.1612 130.945 90.229 130.96C90.2968 130.976 90.3607 131.005 90.4165 131.046C90.4724 131.088 90.519 131.14 90.5534 131.201C90.5878 131.261 90.6093 131.328 90.6165 131.397Z" fill="#3C1F1B"/>
<path d="M227.007 132.072C226.961 132.409 226.807 132.636 226.471 132.582C226.394 132.577 226.319 132.556 226.25 132.521C226.181 132.486 226.12 132.437 226.07 132.378C226.021 132.319 225.983 132.251 225.96 132.177C225.938 132.103 225.93 132.026 225.937 131.949C225.964 131.615 226.225 131.496 226.532 131.528C226.6 131.532 226.665 131.549 226.725 131.579C226.786 131.609 226.84 131.65 226.884 131.7C226.928 131.751 226.962 131.81 226.983 131.874C227.004 131.937 227.012 132.005 227.007 132.072Z" fill="#3C1F1B"/>
<path d="M224.744 133.404C224.749 133.473 224.739 133.543 224.714 133.609C224.689 133.674 224.651 133.733 224.601 133.782C224.551 133.831 224.491 133.869 224.426 133.892C224.36 133.915 224.29 133.924 224.22 133.918C224.151 133.926 224.081 133.92 224.015 133.899C223.949 133.879 223.888 133.844 223.836 133.798C223.784 133.752 223.743 133.695 223.715 133.632C223.687 133.568 223.672 133.499 223.673 133.43C223.647 133.116 223.786 132.866 224.116 132.855C224.464 132.843 224.656 133.087 224.744 133.404Z" fill="#3C1F1B"/>
<path d="M180.054 176.138C180.207 176.141 180.354 176.2 180.467 176.304C180.579 176.407 180.65 176.548 180.667 176.701C180.707 177.037 180.481 177.2 180.164 177.213C180.095 177.223 180.025 177.218 179.959 177.199C179.892 177.179 179.83 177.146 179.777 177.1C179.725 177.055 179.683 176.999 179.653 176.935C179.624 176.872 179.609 176.804 179.609 176.734C179.595 176.665 179.597 176.595 179.612 176.526C179.628 176.458 179.657 176.394 179.699 176.337C179.741 176.281 179.795 176.234 179.856 176.2C179.917 176.166 179.984 176.144 180.054 176.138Z" fill="#3C1F1B"/>
<path d="M221.833 134.148C221.902 134.143 221.972 134.152 222.038 134.176C222.104 134.2 222.163 134.238 222.212 134.288C222.262 134.337 222.3 134.397 222.323 134.463C222.347 134.529 222.356 134.599 222.35 134.668C222.359 134.737 222.353 134.807 222.332 134.873C222.312 134.94 222.278 135.001 222.232 135.053C222.186 135.105 222.129 135.147 222.066 135.175C222.003 135.204 221.934 135.219 221.865 135.218C221.552 135.245 221.299 135.107 221.287 134.777C221.286 134.624 221.341 134.476 221.441 134.36C221.542 134.244 221.681 134.169 221.833 134.148Z" fill="#3C1F1B"/>
<path d="M143.151 177.919C143.161 177.988 143.157 178.057 143.14 178.124C143.122 178.191 143.091 178.254 143.049 178.308C143.006 178.363 142.953 178.408 142.893 178.442C142.833 178.476 142.766 178.497 142.697 178.504C142.622 178.514 142.546 178.508 142.473 178.485C142.401 178.462 142.334 178.424 142.278 178.373C142.222 178.322 142.177 178.259 142.148 178.189C142.118 178.119 142.104 178.043 142.107 177.968C142.129 177.671 142.272 177.438 142.609 177.43C142.677 177.423 142.746 177.431 142.811 177.453C142.876 177.474 142.936 177.509 142.987 177.555C143.038 177.601 143.079 177.657 143.107 177.72C143.136 177.783 143.151 177.85 143.151 177.919Z" fill="#3C1F1B"/>
<path d="M97.2234 135.952C97.2304 136.031 97.2196 136.111 97.1918 136.185C97.1641 136.259 97.1202 136.326 97.0632 136.381C97.0063 136.436 96.9378 136.478 96.8627 136.503C96.7876 136.528 96.7078 136.536 96.6292 136.527C96.3546 136.499 96.1483 136.353 96.1555 136.069C96.1533 135.992 96.1663 135.915 96.1938 135.843C96.2213 135.771 96.2627 135.705 96.3156 135.649C96.3686 135.593 96.4321 135.548 96.5025 135.517C96.5728 135.485 96.6487 135.468 96.7258 135.466C97.0644 135.438 97.2006 135.677 97.2234 135.952Z" fill="#3C1F1B"/>
<path d="M178.479 178.35C178.447 178.654 178.303 178.888 177.965 178.848C177.888 178.844 177.812 178.825 177.742 178.792C177.673 178.759 177.61 178.712 177.559 178.655C177.507 178.597 177.468 178.53 177.442 178.457C177.417 178.384 177.406 178.307 177.411 178.23C177.423 177.899 177.679 177.765 177.991 177.79C178.061 177.792 178.129 177.808 178.193 177.838C178.256 177.867 178.312 177.91 178.358 177.962C178.404 178.015 178.439 178.077 178.459 178.143C178.48 178.21 178.487 178.28 178.479 178.35Z" fill="#3C1F1B"/>
<path d="M173.134 181.094C172.983 181.078 172.842 181.007 172.739 180.895C172.635 180.784 172.576 180.638 172.572 180.485C172.57 180.153 172.811 180.007 173.127 180.023C173.264 180.03 173.392 180.089 173.486 180.188C173.581 180.287 173.634 180.418 173.635 180.555C173.636 180.691 173.584 180.823 173.491 180.923C173.398 181.024 173.271 181.084 173.134 181.094Z" fill="#3C1F1B"/>
<path d="M212.869 139.581C212.889 140.004 212.654 140.25 212.313 140.237C212.037 140.227 211.823 140.095 211.808 139.813C211.801 139.736 211.81 139.659 211.833 139.585C211.856 139.512 211.894 139.444 211.943 139.385C211.993 139.326 212.054 139.277 212.122 139.242C212.19 139.206 212.265 139.185 212.342 139.178C212.403 139.166 212.467 139.167 212.528 139.181C212.589 139.195 212.646 139.222 212.696 139.26C212.746 139.298 212.787 139.347 212.817 139.402C212.847 139.457 212.864 139.518 212.869 139.581Z" fill="#3C1F1B"/>
<path d="M103.56 140.778C103.164 140.748 103.01 140.549 103.013 140.233C103.006 140.164 103.015 140.094 103.038 140.029C103.061 139.963 103.098 139.903 103.145 139.853C103.193 139.803 103.252 139.764 103.316 139.738C103.38 139.712 103.449 139.7 103.519 139.704C103.834 139.688 104.073 139.832 104.076 140.165C104.08 140.522 103.808 140.677 103.56 140.778Z" fill="#3C1F1B"/>
<path d="M171.047 181.288C171.005 181.635 170.857 181.866 170.519 181.819C170.442 181.815 170.367 181.795 170.297 181.761C170.228 181.727 170.166 181.679 170.116 181.621C170.065 181.562 170.027 181.495 170.003 181.421C169.978 181.348 169.969 181.27 169.976 181.194C169.995 180.861 170.253 180.736 170.563 180.763C170.63 180.765 170.695 180.781 170.755 180.809C170.815 180.837 170.869 180.876 170.914 180.925C170.959 180.974 170.994 181.031 171.017 181.093C171.04 181.155 171.05 181.222 171.047 181.288Z" fill="#3C1F1B"/>
<path d="M168.433 181.915C168.402 182.19 168.255 182.421 167.917 182.378C167.84 182.373 167.765 182.353 167.695 182.32C167.626 182.286 167.564 182.239 167.513 182.181C167.462 182.123 167.423 182.056 167.398 181.983C167.373 181.91 167.362 181.833 167.367 181.756C167.374 181.474 167.583 181.334 167.861 181.318C167.94 181.311 168.02 181.321 168.095 181.349C168.169 181.377 168.236 181.421 168.292 181.478C168.347 181.536 168.388 181.605 168.412 181.681C168.437 181.756 168.444 181.837 168.433 181.915Z" fill="#3C1F1B"/>
<path d="M110.886 144.125C110.542 144.047 110.3 143.859 110.293 143.513C110.287 143.18 110.529 143.035 110.845 143.046C110.914 143.043 110.983 143.054 111.048 143.079C111.112 143.104 111.171 143.143 111.219 143.192C111.268 143.242 111.305 143.301 111.329 143.366C111.352 143.432 111.362 143.501 111.356 143.57C111.364 143.638 111.358 143.707 111.338 143.772C111.318 143.837 111.285 143.897 111.241 143.949C111.197 144.001 111.143 144.044 111.082 144.074C111.021 144.104 110.954 144.122 110.886 144.125Z" fill="#3C1F1B"/>
<path d="M149.406 181.531C149.557 181.557 149.694 181.639 149.789 181.76C149.885 181.881 149.932 182.033 149.921 182.186C149.913 182.256 149.891 182.322 149.856 182.383C149.821 182.443 149.773 182.495 149.717 182.535C149.66 182.575 149.595 182.603 149.527 182.617C149.459 182.631 149.388 182.63 149.32 182.615C149.258 182.616 149.197 182.604 149.14 182.581C149.082 182.558 149.03 182.524 148.986 182.481C148.942 182.437 148.907 182.385 148.883 182.328C148.86 182.271 148.848 182.21 148.848 182.148C148.845 181.994 148.902 181.844 149.005 181.73C149.109 181.616 149.252 181.545 149.406 181.531Z" fill="#3C1F1B"/>
<path d="M113.35 145.228C113.197 145.23 113.05 145.173 112.937 145.07C112.824 144.967 112.754 144.826 112.741 144.673C112.74 144.604 112.753 144.536 112.779 144.472C112.805 144.408 112.844 144.35 112.893 144.302C112.941 144.253 112.999 144.214 113.063 144.189C113.127 144.163 113.196 144.15 113.265 144.151C113.598 144.136 113.784 144.282 113.787 144.628C113.807 144.765 113.773 144.905 113.691 145.017C113.609 145.129 113.487 145.205 113.35 145.228Z" fill="#3C1F1B"/>
<path d="M115.7 146.344C115.549 146.315 115.413 146.231 115.321 146.108C115.228 145.985 115.185 145.832 115.2 145.679C115.261 145.346 115.494 145.239 115.811 145.265C115.873 145.265 115.934 145.278 115.991 145.302C116.047 145.326 116.099 145.362 116.142 145.406C116.184 145.451 116.218 145.504 116.24 145.561C116.262 145.619 116.272 145.681 116.27 145.742C116.271 145.897 116.213 146.046 116.106 146.158C116 146.27 115.854 146.337 115.7 146.344Z" fill="#3C1F1B"/>
<path d="M121.017 148.348C121.005 148.409 120.98 148.465 120.944 148.515C120.908 148.565 120.861 148.606 120.808 148.636C120.754 148.667 120.695 148.685 120.634 148.69C120.573 148.695 120.511 148.687 120.453 148.667C120.384 148.662 120.315 148.644 120.253 148.613C120.19 148.582 120.134 148.539 120.088 148.487C120.042 148.434 120.007 148.373 119.985 148.307C119.963 148.241 119.953 148.171 119.958 148.101C119.989 147.95 120.076 147.816 120.201 147.726C120.326 147.636 120.48 147.596 120.633 147.615C120.906 147.659 121.077 147.925 121.017 148.348Z" fill="#3C1F1B"/>
<path d="M129.559 154.608C129.558 154.681 129.541 154.752 129.51 154.818C129.479 154.884 129.434 154.942 129.378 154.989C129.323 155.036 129.258 155.071 129.188 155.091C129.119 155.111 129.045 155.116 128.973 155.105C128.904 155.107 128.835 155.094 128.771 155.068C128.707 155.041 128.65 155 128.603 154.949C128.556 154.899 128.521 154.838 128.499 154.772C128.478 154.706 128.471 154.637 128.479 154.568C128.482 154.253 128.636 154.024 128.973 154.047C129.119 154.063 129.256 154.126 129.362 154.228C129.468 154.329 129.537 154.463 129.559 154.608Z" fill="#3C1F1B"/>
<path d="M163.18 182.794C163.147 183.057 163.039 183.305 162.708 183.335C162.64 183.347 162.57 183.344 162.503 183.327C162.436 183.31 162.373 183.279 162.319 183.236C162.265 183.193 162.22 183.139 162.188 183.077C162.157 183.015 162.138 182.948 162.135 182.879C162.12 182.804 162.122 182.727 162.14 182.653C162.159 182.579 162.193 182.51 162.241 182.451C162.289 182.392 162.349 182.343 162.418 182.31C162.486 182.276 162.561 182.258 162.637 182.257C162.779 182.261 162.914 182.318 163.014 182.418C163.115 182.518 163.175 182.652 163.18 182.794Z" fill="#3C1F1B"/>
<path d="M189.896 158.27C189.468 158.262 189.236 158.008 189.275 157.67C189.306 157.397 189.453 157.191 189.738 157.202C189.894 157.2 190.044 157.259 190.156 157.367C190.268 157.475 190.334 157.623 190.337 157.778C190.344 157.84 190.337 157.902 190.317 157.961C190.298 158.021 190.267 158.075 190.225 158.121C190.184 158.167 190.133 158.204 190.076 158.23C190.02 158.256 189.958 158.269 189.896 158.27Z" fill="#3C1F1B"/>
<path d="M241.818 120.75C242.196 120.779 242.373 120.995 242.361 121.299C242.359 121.369 242.343 121.438 242.315 121.503C242.286 121.567 242.245 121.625 242.194 121.674C242.143 121.722 242.083 121.76 242.017 121.785C241.951 121.81 241.881 121.821 241.811 121.819C241.467 121.83 241.321 121.595 241.328 121.274C241.325 121.207 241.335 121.14 241.358 121.078C241.381 121.015 241.417 120.957 241.462 120.909C241.508 120.86 241.563 120.82 241.624 120.793C241.685 120.766 241.751 120.751 241.818 120.75Z" fill="#3C1F1B"/>
<path d="M123.426 149.438C123.366 149.762 123.206 150.001 122.896 150.015C122.828 150.02 122.76 150.01 122.695 149.988C122.63 149.965 122.571 149.93 122.52 149.884C122.469 149.838 122.428 149.783 122.398 149.721C122.369 149.659 122.353 149.591 122.35 149.523C122.347 149.454 122.358 149.386 122.382 149.322C122.406 149.258 122.443 149.199 122.49 149.149C122.537 149.099 122.593 149.059 122.656 149.031C122.718 149.004 122.786 148.989 122.854 148.987C122.922 148.978 122.99 148.982 123.056 148.999C123.122 149.017 123.184 149.048 123.237 149.09C123.29 149.132 123.335 149.185 123.367 149.244C123.4 149.304 123.42 149.37 123.426 149.438Z" fill="#3C1F1B"/>
<path d="M135.293 163.607C135.285 163.752 135.226 163.889 135.126 163.993C135.025 164.097 134.891 164.162 134.747 164.175C134.403 164.206 134.243 163.978 134.24 163.657C134.231 163.587 134.239 163.516 134.261 163.45C134.282 163.383 134.319 163.322 134.366 163.27C134.414 163.219 134.473 163.178 134.538 163.151C134.603 163.125 134.673 163.112 134.743 163.115C135.1 163.094 135.203 163.354 135.293 163.607Z" fill="#3C1F1B"/>
<path d="M231.138 129.793C230.804 129.736 230.56 129.621 230.554 129.275C230.546 129.205 230.553 129.135 230.575 129.068C230.597 129.001 230.633 128.94 230.681 128.889C230.73 128.838 230.788 128.798 230.854 128.772C230.919 128.746 230.989 128.735 231.06 128.739C231.378 128.725 231.614 128.87 231.615 129.212C231.616 129.53 231.379 129.686 231.138 129.793Z" fill="#3C1F1B"/>
<path d="M87.7808 130.55C87.6475 130.536 87.5234 130.476 87.4309 130.378C87.3384 130.281 87.2836 130.155 87.2762 130.021C87.2687 129.951 87.2765 129.881 87.2991 129.814C87.3216 129.748 87.3583 129.687 87.4066 129.636C87.4549 129.586 87.5137 129.546 87.5788 129.52C87.644 129.494 87.714 129.483 87.784 129.487C87.8611 129.485 87.9378 129.5 88.0083 129.532C88.0788 129.563 88.1415 129.61 88.1916 129.668C88.2418 129.727 88.2782 129.796 88.2981 129.871C88.3181 129.945 88.3212 130.023 88.3071 130.099C88.2956 130.228 88.2342 130.348 88.1358 130.432C88.0375 130.516 87.9101 130.559 87.7808 130.55Z" fill="#3C1F1B"/>
<path d="M92.7753 133.02C92.7398 133.332 92.5897 133.56 92.2467 133.513C92.1766 133.511 92.1078 133.494 92.0442 133.464C91.9806 133.435 91.9235 133.393 91.8762 133.341C91.8289 133.29 91.7923 133.229 91.7686 133.163C91.7449 133.097 91.7345 133.027 91.738 132.957C91.7347 132.887 91.747 132.816 91.774 132.751C91.8009 132.686 91.8418 132.628 91.8939 132.58C91.9459 132.533 92.0078 132.497 92.0751 132.476C92.1423 132.455 92.2134 132.449 92.2832 132.459C92.3536 132.46 92.4231 132.475 92.487 132.505C92.551 132.534 92.6081 132.577 92.6545 132.63C92.7009 132.682 92.7357 132.745 92.7565 132.812C92.7773 132.879 92.7837 132.95 92.7753 133.02Z" fill="#3C1F1B"/>
<path d="M93.9443 134.456C94.0248 134.152 94.1651 133.921 94.5117 133.952C94.5821 133.952 94.6516 133.967 94.7155 133.997C94.7794 134.026 94.8362 134.069 94.882 134.122C94.9278 134.176 94.9616 134.238 94.9809 134.306C95.0002 134.374 95.0046 134.445 94.9939 134.514C94.9788 134.837 94.8078 135.055 94.4648 135.008C94.3266 134.993 94.1982 134.929 94.1028 134.828C94.0074 134.727 93.9512 134.595 93.9443 134.456Z" fill="#3C1F1B"/>
<path d="M197.886 147.749C197.885 147.609 197.935 147.475 198.025 147.369C198.116 147.264 198.242 147.195 198.38 147.175C198.717 147.112 198.902 147.322 198.929 147.644C198.942 147.713 198.941 147.784 198.924 147.852C198.908 147.92 198.877 147.984 198.834 148.039C198.79 148.095 198.735 148.14 198.673 148.172C198.611 148.204 198.542 148.223 198.472 148.226C198.129 148.27 197.975 148.049 197.886 147.749Z" fill="#3C1F1B"/>
<path d="M214.714 137.88C215.051 137.984 215.266 138.166 215.261 138.479C215.255 138.82 215.011 138.961 214.693 138.941C214.623 138.943 214.553 138.93 214.488 138.903C214.423 138.876 214.365 138.834 214.317 138.782C214.27 138.73 214.235 138.668 214.214 138.601C214.193 138.534 214.186 138.463 214.195 138.393C214.203 138.033 214.485 137.967 214.714 137.88Z" fill="#3C1F1B"/>
<path d="M190.575 155.43C190.576 155.36 190.591 155.29 190.619 155.226C190.648 155.162 190.69 155.105 190.743 155.058C190.796 155.012 190.858 154.977 190.925 154.956C190.992 154.935 191.063 154.928 191.132 154.937C191.454 154.947 191.679 155.114 191.636 155.455C191.634 155.525 191.618 155.594 191.589 155.658C191.56 155.722 191.518 155.779 191.467 155.827C191.416 155.875 191.355 155.912 191.289 155.936C191.224 155.961 191.154 155.972 191.084 155.969C191.014 155.971 190.944 155.959 190.879 155.932C190.814 155.906 190.756 155.866 190.707 155.815C190.659 155.764 190.623 155.703 190.6 155.637C190.577 155.57 190.569 155.5 190.575 155.43Z" fill="#3C1F1B"/>
<path d="M205.187 143.038C205.565 143.047 205.774 143.196 205.802 143.528C205.812 143.598 205.806 143.669 205.785 143.736C205.765 143.804 205.73 143.866 205.682 143.918C205.635 143.97 205.577 144.011 205.512 144.039C205.447 144.066 205.377 144.079 205.306 144.076C205.236 144.08 205.166 144.07 205.1 144.047C205.034 144.024 204.973 143.987 204.92 143.94C204.868 143.893 204.826 143.836 204.796 143.773C204.766 143.709 204.749 143.641 204.746 143.57C204.692 143.22 204.94 143.091 205.187 143.038Z" fill="#3C1F1B"/>
<path d="M155.187 183.174C155.166 183.314 155.098 183.442 154.992 183.537C154.886 183.631 154.751 183.685 154.609 183.689C154.267 183.692 154.121 183.453 154.136 183.133C154.132 183.063 154.143 182.993 154.169 182.927C154.195 182.862 154.235 182.803 154.287 182.755C154.338 182.706 154.399 182.67 154.466 182.648C154.533 182.626 154.604 182.619 154.674 182.628C155.021 182.634 155.136 182.88 155.187 183.174Z" fill="#3C1F1B"/>
<path d="M118.12 147.465C117.987 147.447 117.864 147.382 117.774 147.281C117.684 147.181 117.632 147.053 117.627 146.918C117.59 146.641 117.913 146.375 118.233 146.39C118.294 146.39 118.354 146.401 118.411 146.425C118.467 146.448 118.518 146.482 118.561 146.526C118.604 146.569 118.637 146.621 118.66 146.677C118.682 146.734 118.693 146.795 118.691 146.855C118.691 147.01 118.632 147.159 118.526 147.272C118.42 147.385 118.275 147.454 118.12 147.465Z" fill="#3C1F1B"/>
<path d="M157.312 182.799C157.383 182.796 157.454 182.808 157.519 182.835C157.585 182.862 157.644 182.902 157.693 182.953C157.742 183.004 157.78 183.065 157.803 183.132C157.827 183.199 157.836 183.27 157.83 183.341C157.833 183.411 157.82 183.481 157.793 183.546C157.766 183.611 157.725 183.669 157.673 183.716C157.621 183.764 157.559 183.799 157.491 183.819C157.424 183.84 157.353 183.845 157.283 183.835C157.213 183.833 157.144 183.817 157.08 183.787C157.016 183.758 156.958 183.717 156.91 183.665C156.863 183.613 156.825 183.553 156.801 183.487C156.777 183.421 156.766 183.35 156.769 183.28C156.763 182.937 157.005 182.809 157.312 182.799Z" fill="#3C1F1B"/>
<path d="M186.873 165.712C186.5 165.68 186.308 165.513 186.306 165.182C186.301 165.112 186.311 165.041 186.337 164.976C186.362 164.91 186.402 164.851 186.453 164.803C186.504 164.754 186.565 164.718 186.631 164.696C186.698 164.674 186.769 164.667 186.838 164.675C186.908 164.676 186.978 164.691 187.042 164.719C187.106 164.746 187.165 164.787 187.213 164.837C187.262 164.887 187.3 164.947 187.326 165.012C187.352 165.077 187.364 165.147 187.363 165.217C187.382 165.567 187.133 165.683 186.873 165.712Z" fill="#3C1F1B"/>
<path d="M185.178 170.175C185.147 170.486 185.002 170.717 184.658 170.678C184.588 170.676 184.519 170.66 184.455 170.632C184.391 170.603 184.334 170.562 184.286 170.511C184.238 170.46 184.2 170.4 184.175 170.335C184.15 170.269 184.139 170.2 184.141 170.13C184.136 170.06 184.147 169.989 184.173 169.924C184.198 169.858 184.238 169.799 184.289 169.75C184.341 169.702 184.402 169.666 184.469 169.643C184.536 169.621 184.606 169.614 184.676 169.623C184.747 169.622 184.816 169.637 184.881 169.665C184.945 169.693 185.003 169.735 185.051 169.787C185.098 169.839 185.134 169.9 185.156 169.967C185.177 170.034 185.185 170.105 185.178 170.175Z" fill="#3C1F1B"/>
<path d="M138.56 171.245C138.28 171.184 138.04 171.026 138.032 170.713C138.024 170.644 138.032 170.573 138.054 170.507C138.076 170.44 138.112 170.379 138.16 170.328C138.208 170.277 138.267 170.237 138.332 170.211C138.397 170.184 138.467 170.173 138.537 170.176C138.614 170.173 138.691 170.187 138.762 170.218C138.833 170.249 138.896 170.295 138.947 170.354C138.998 170.412 139.034 170.481 139.054 170.556C139.074 170.631 139.077 170.709 139.063 170.785C139.06 170.848 139.045 170.91 139.018 170.968C138.992 171.025 138.954 171.077 138.907 171.119C138.861 171.162 138.806 171.195 138.746 171.217C138.687 171.238 138.624 171.248 138.56 171.245Z" fill="#3C1F1B"/>
<path d="M139.695 174.037C139.626 174.029 139.558 174.006 139.497 173.971C139.437 173.935 139.384 173.887 139.343 173.829C139.302 173.772 139.274 173.707 139.26 173.638C139.246 173.569 139.247 173.497 139.262 173.429C139.269 173.36 139.289 173.294 139.322 173.233C139.355 173.173 139.4 173.119 139.453 173.076C139.507 173.033 139.569 173.001 139.635 172.982C139.702 172.963 139.771 172.958 139.839 172.966C139.908 172.974 139.974 172.996 140.034 173.03C140.094 173.065 140.146 173.11 140.188 173.165C140.23 173.22 140.26 173.282 140.278 173.349C140.295 173.415 140.299 173.485 140.29 173.553C140.265 173.692 140.192 173.817 140.083 173.906C139.974 173.995 139.836 174.041 139.695 174.037Z" fill="#3C1F1B"/>
<path d="M141.563 175.819C141.565 175.926 141.535 176.032 141.478 176.123C141.42 176.214 141.336 176.285 141.237 176.328C141.139 176.371 141.03 176.384 140.924 176.365C140.818 176.345 140.72 176.295 140.643 176.22C140.566 176.145 140.513 176.049 140.49 175.944C140.468 175.839 140.477 175.729 140.517 175.629C140.558 175.53 140.626 175.444 140.715 175.383C140.804 175.323 140.909 175.29 141.017 175.289C141.156 175.298 141.288 175.356 141.388 175.453C141.488 175.55 141.55 175.68 141.563 175.819Z" fill="#3C1F1B"/>
<path d="M131.07 156.749C131.064 157.061 130.939 157.306 130.596 157.306C130.526 157.31 130.455 157.3 130.389 157.277C130.322 157.254 130.261 157.217 130.208 157.17C130.156 157.123 130.113 157.066 130.083 157.003C130.053 156.939 130.035 156.87 130.031 156.8C130.02 156.73 130.025 156.659 130.044 156.591C130.064 156.523 130.098 156.461 130.145 156.408C130.191 156.355 130.249 156.313 130.314 156.284C130.378 156.256 130.448 156.243 130.519 156.245C130.589 156.237 130.66 156.244 130.727 156.266C130.794 156.288 130.856 156.325 130.908 156.372C130.96 156.42 131.002 156.478 131.029 156.543C131.057 156.608 131.071 156.678 131.07 156.749Z" fill="#3C1F1B"/>
<path d="M144.584 180.355C144.514 180.356 144.443 180.342 144.378 180.313C144.314 180.285 144.256 180.242 144.209 180.189C144.163 180.135 144.128 180.072 144.108 180.004C144.088 179.936 144.084 179.865 144.094 179.795C144.095 179.726 144.109 179.658 144.136 179.595C144.164 179.532 144.203 179.474 144.253 179.427C144.302 179.379 144.361 179.342 144.425 179.317C144.489 179.292 144.557 179.28 144.626 179.282C144.695 179.284 144.763 179.3 144.825 179.329C144.888 179.357 144.944 179.398 144.991 179.449C145.037 179.499 145.073 179.558 145.097 179.623C145.12 179.688 145.13 179.757 145.127 179.825C145.115 180.136 144.875 180.297 144.584 180.355Z" fill="#3C1F1B"/>
<path d="M194.477 151.77C194.409 151.777 194.34 151.77 194.274 151.748C194.209 151.727 194.148 151.693 194.097 151.647C194.045 151.601 194.003 151.546 193.975 151.483C193.946 151.421 193.93 151.353 193.929 151.284C193.898 150.939 194.122 150.774 194.422 150.727C194.577 150.732 194.723 150.798 194.831 150.909C194.938 151.021 194.998 151.17 194.998 151.325C194.987 151.452 194.926 151.57 194.829 151.654C194.731 151.737 194.605 151.779 194.477 151.77Z" fill="#3C1F1B"/>
<path d="M147.408 181.246C147.4 181.316 147.377 181.383 147.341 181.444C147.305 181.504 147.256 181.556 147.199 181.596C147.141 181.637 147.076 181.665 147.007 181.678C146.938 181.692 146.867 181.691 146.799 181.675C146.73 181.668 146.664 181.647 146.603 181.614C146.543 181.581 146.49 181.536 146.447 181.482C146.404 181.428 146.373 181.366 146.354 181.3C146.336 181.233 146.33 181.164 146.339 181.095C146.348 181.027 146.37 180.961 146.404 180.902C146.439 180.842 146.485 180.79 146.54 180.748C146.595 180.706 146.657 180.676 146.724 180.659C146.791 180.642 146.86 180.638 146.928 180.648C147.067 180.673 147.193 180.747 147.281 180.857C147.369 180.967 147.414 181.105 147.408 181.246Z" fill="#3C1F1B"/>
<path d="M240.37 123.049C240.37 123.185 240.323 123.317 240.239 123.424C240.155 123.531 240.037 123.606 239.905 123.638C239.657 123.716 239.303 123.372 239.309 123.079C239.307 123.017 239.318 122.956 239.341 122.899C239.363 122.842 239.397 122.79 239.439 122.746C239.482 122.701 239.533 122.666 239.59 122.642C239.646 122.618 239.707 122.605 239.768 122.604C239.837 122.592 239.908 122.594 239.976 122.61C240.045 122.625 240.109 122.655 240.165 122.697C240.222 122.739 240.269 122.791 240.304 122.852C240.339 122.913 240.362 122.98 240.37 123.049Z" fill="#3C1F1B"/>
<path d="M79.9194 123.407C79.9212 123.477 79.908 123.546 79.8805 123.611C79.8531 123.675 79.812 123.732 79.7603 123.779C79.7086 123.826 79.6473 123.861 79.5808 123.882C79.5142 123.903 79.4439 123.909 79.3746 123.9C79.2516 123.913 79.1285 123.877 79.0323 123.799C78.9362 123.721 78.8748 123.608 78.8616 123.485C78.8175 123.208 79.133 122.836 79.3971 122.87C79.5322 122.887 79.6576 122.949 79.7525 123.047C79.8474 123.145 79.9063 123.272 79.9194 123.407Z" fill="#3C1F1B"/>
<path d="M98.9422 138.024C98.6256 138.017 98.3865 137.893 98.381 137.557C98.3719 137.417 98.4184 137.279 98.5105 137.173C98.6026 137.068 98.7328 137.003 98.8726 136.992C98.9417 136.988 99.0109 136.998 99.0762 137.021C99.1414 137.044 99.2015 137.08 99.2527 137.126C99.3039 137.173 99.3454 137.229 99.3745 137.292C99.4037 137.355 99.4201 137.423 99.4226 137.492C99.4719 137.829 99.2505 137.982 98.9422 138.024Z" fill="#3C1F1B"/>
<path d="M210.579 140.983C210.565 141.12 210.504 141.248 210.405 141.345C210.307 141.442 210.177 141.501 210.04 141.512C209.703 141.54 209.541 141.319 209.535 141.004C209.529 140.69 209.678 140.46 210.017 140.471C210.155 140.477 210.287 140.532 210.39 140.625C210.493 140.719 210.559 140.845 210.579 140.983Z" fill="#3C1F1B"/>
<path d="M219.948 135.982C219.916 136.293 219.775 136.522 219.437 136.49C219.368 136.49 219.299 136.476 219.235 136.449C219.172 136.422 219.114 136.383 219.065 136.333C219.017 136.284 218.979 136.225 218.953 136.161C218.928 136.097 218.916 136.028 218.917 135.958C218.919 135.889 218.934 135.821 218.962 135.758C218.99 135.694 219.031 135.637 219.081 135.59C219.132 135.543 219.191 135.506 219.256 135.482C219.321 135.458 219.39 135.447 219.459 135.449C219.8 135.437 219.929 135.67 219.948 135.982Z" fill="#3C1F1B"/>
<path d="M137.883 168.333C137.86 168.47 137.789 168.595 137.684 168.686C137.578 168.777 137.445 168.829 137.305 168.832C136.97 168.829 136.825 168.595 136.84 168.281C136.855 167.964 137.025 167.751 137.361 167.792C137.498 167.805 137.626 167.867 137.722 167.966C137.817 168.065 137.875 168.195 137.883 168.333Z" fill="#3C1F1B"/>
<path d="M196.898 149.481C196.882 149.809 196.709 150.007 196.379 149.979C196.239 149.969 196.11 149.905 196.018 149.8C195.925 149.695 195.878 149.559 195.886 149.42C195.893 149.28 195.955 149.15 196.058 149.056C196.161 148.962 196.297 148.912 196.436 148.917C196.763 148.929 196.917 149.149 196.898 149.481Z" fill="#3C1F1B"/>
<path d="M183.956 172.463C183.961 172.603 183.911 172.74 183.817 172.844C183.723 172.949 183.592 173.013 183.452 173.023C183.383 173.033 183.312 173.028 183.245 173.009C183.178 172.99 183.115 172.956 183.062 172.911C183.008 172.866 182.965 172.811 182.934 172.748C182.903 172.685 182.886 172.616 182.884 172.546C182.85 172.223 183.032 172.034 183.369 172.014C183.437 172.002 183.507 172.004 183.575 172.021C183.642 172.038 183.705 172.068 183.76 172.11C183.816 172.152 183.861 172.205 183.895 172.266C183.929 172.327 183.95 172.394 183.956 172.463Z" fill="#3C1F1B"/>
<path d="M182.461 174.761C182.382 175.083 182.196 175.28 181.877 175.25C181.807 175.248 181.738 175.231 181.675 175.201C181.612 175.171 181.555 175.129 181.509 175.076C181.463 175.023 181.429 174.961 181.408 174.894C181.388 174.827 181.381 174.757 181.389 174.687C181.412 174.364 181.643 174.221 181.969 174.243C182.037 174.24 182.104 174.252 182.167 174.277C182.23 174.302 182.286 174.341 182.333 174.39C182.38 174.439 182.415 174.497 182.438 174.561C182.46 174.625 182.468 174.693 182.461 174.761Z" fill="#3C1F1B"/>
<path d="M160.565 183.154C160.552 183.291 160.491 183.42 160.393 183.517C160.295 183.614 160.166 183.674 160.029 183.685C159.693 183.716 159.529 183.497 159.521 183.18C159.513 182.866 159.661 182.636 159.999 182.643C160.138 182.649 160.27 182.704 160.374 182.797C160.477 182.89 160.545 183.016 160.565 183.154Z" fill="#3C1F1B"/>
<path d="M127.7 152.664C127.682 152.8 127.617 152.925 127.517 153.019C127.417 153.113 127.288 153.17 127.152 153.18C127 153.159 126.863 153.081 126.768 152.96C126.674 152.84 126.631 152.687 126.647 152.535C126.667 152.413 126.735 152.303 126.836 152.23C126.936 152.157 127.061 152.127 127.184 152.145C127.253 152.14 127.323 152.149 127.389 152.173C127.454 152.197 127.513 152.236 127.562 152.285C127.612 152.334 127.649 152.394 127.673 152.459C127.697 152.525 127.706 152.595 127.7 152.664Z" fill="#3C1F1B"/>
<path d="M188.696 159.644C188.833 159.657 188.962 159.717 189.059 159.815C189.156 159.913 189.215 160.042 189.227 160.18C189.257 160.516 189.038 160.678 188.722 160.686C188.407 160.694 188.177 160.546 188.185 160.209C188.191 160.07 188.245 159.937 188.338 159.834C188.432 159.731 188.558 159.664 188.696 159.644Z" fill="#3C1F1B"/>
<path d="M165.813 182.28C165.819 182.349 165.81 182.419 165.786 182.484C165.763 182.549 165.725 182.609 165.676 182.658C165.627 182.707 165.568 182.745 165.503 182.77C165.438 182.794 165.368 182.803 165.299 182.798C165.177 182.816 165.052 182.786 164.951 182.714C164.851 182.641 164.783 182.532 164.763 182.41C164.747 182.259 164.791 182.107 164.884 181.988C164.978 181.868 165.114 181.788 165.265 181.766C165.401 181.777 165.529 181.833 165.629 181.927C165.729 182.02 165.793 182.144 165.813 182.28Z" fill="#3C1F1B"/>
<path d="M175.564 178.999C175.702 178.991 175.839 179.036 175.944 179.127C176.05 179.218 176.115 179.346 176.127 179.485C176.164 179.809 175.982 179.997 175.646 180.02C175.318 180.042 175.086 179.896 175.064 179.574C175.056 179.432 175.103 179.292 175.197 179.185C175.29 179.077 175.422 179.011 175.564 178.999Z" fill="#3C1F1B"/>
<path d="M152.536 182.689C152.539 182.83 152.488 182.965 152.393 183.069C152.299 183.172 152.168 183.235 152.028 183.244C151.959 183.253 151.888 183.248 151.821 183.228C151.754 183.208 151.692 183.175 151.638 183.129C151.585 183.084 151.542 183.028 151.511 182.965C151.481 182.901 151.465 182.833 151.463 182.763C151.43 182.437 151.616 182.252 151.951 182.233C152.02 182.222 152.091 182.225 152.158 182.242C152.226 182.259 152.289 182.29 152.344 182.333C152.399 182.376 152.444 182.43 152.477 182.491C152.51 182.552 152.53 182.62 152.536 182.689Z" fill="#3C1F1B"/>
<path d="M200.581 146.692C200.443 146.667 200.319 146.595 200.228 146.488C200.138 146.382 200.087 146.247 200.084 146.107C200.09 145.772 200.327 145.628 200.641 145.645C200.96 145.662 201.173 145.834 201.129 146.171C201.113 146.309 201.05 146.436 200.95 146.532C200.85 146.627 200.719 146.684 200.581 146.692Z" fill="#3C1F1B"/>
<path d="M125.112 150.34C125.441 150.45 125.652 150.63 125.644 150.938C125.636 151.271 125.398 151.414 125.085 151.395C124.768 151.376 124.56 151.206 124.601 150.868C124.622 150.738 124.682 150.618 124.774 150.524C124.865 150.43 124.983 150.366 125.112 150.34Z" fill="#3C1F1B"/>
<path d="M134.975 156.853C135.053 156.853 135.127 156.883 135.183 156.938C135.238 156.993 135.269 157.067 135.27 157.145C135.276 157.191 135.27 157.237 135.254 157.281C135.237 157.324 135.21 157.363 135.176 157.393C135.141 157.424 135.099 157.445 135.054 157.456C135.009 157.467 134.962 157.466 134.917 157.455C134.878 157.451 134.841 157.44 134.807 157.421C134.774 157.402 134.744 157.376 134.721 157.346C134.697 157.315 134.681 157.279 134.672 157.242C134.663 157.204 134.662 157.165 134.669 157.127C134.676 157.051 134.712 156.981 134.768 156.93C134.825 156.879 134.899 156.852 134.975 156.853Z" fill="#3C1F1B"/>
<path d="M159.447 176.306C158.129 176.289 156.846 175.882 155.759 175.136C154.672 174.391 153.83 173.34 153.339 172.117C152.848 170.894 152.73 169.553 153 168.263C153.27 166.973 153.915 165.792 154.856 164.868C155.796 163.944 156.988 163.32 158.283 163.073C159.577 162.825 160.916 162.967 162.13 163.479C163.344 163.992 164.38 164.852 165.106 165.952C165.832 167.052 166.217 168.342 166.211 169.66C166.214 170.543 166.04 171.419 165.7 172.234C165.359 173.05 164.859 173.789 164.229 174.408C163.599 175.027 162.851 175.514 162.03 175.84C161.208 176.166 160.33 176.325 159.447 176.306Z" fill="#E5E4E1"/>
</g>
<g style="mix-blend-mode:hue">
<rect width="320" height="320" fill="#00BF13"/>
</g>
</g>
<defs>
<clipPath id="clip0_1444_1377">
<rect width="320" height="320" fill="white"/>
</clipPath>
<clipPath id="clip1_1444_1377">
<rect width="210" height="86.6239" fill="white" transform="translate(55 117)"/>
</clipPath>
</defs>
</svg>
