<svg width="320" height="320" viewBox="0 0 320 320" fill="none" xmlns="http://www.w3.org/2000/svg">
<g clip-path="url(#clip0_1423_7993)">
<rect width="320" height="320" fill="#F2F2EA"/>
<g clip-path="url(#clip1_1423_7993)">
<path d="M0 50.4242V0H89.7939C89.8635 0.215736 89.8852 0.444022 89.8577 0.669008C89.8301 0.893994 89.7539 1.11029 89.6344 1.30287C88.2354 4.98789 86.8591 8.68136 85.5057 12.3833C84.6796 14.6544 84.0814 17.0044 83.2604 19.2849C81.6982 23.3926 80.3974 27.595 79.366 31.8669C78.5782 35.4026 78.0807 38.9852 77.5064 42.5556C76.4803 48.9349 75.4164 55.308 74.3847 61.6863C73.6316 66.3423 72.8973 71.0017 72.1188 75.6532C70.6205 84.607 69.1878 93.5715 67.7045 102.528C66.5485 109.507 65.4559 116.498 64.2797 123.474C63.8288 126.148 63.1129 128.785 62.9114 131.493C62.4693 135.643 62.6562 139.836 63.4657 143.93C63.5686 144.379 63.9011 144.996 63.331 145.222C62.868 145.405 62.6094 144.783 62.3671 144.421C59.2257 139.72 56.0992 135.01 52.9876 130.29C46.6489 120.73 40.2597 111.205 33.9155 101.649C26.1601 89.9677 18.3968 78.292 10.6255 66.6216C7.32777 61.6767 4.06072 56.7114 0.77111 51.7611C0.48417 51.3293 0.28223 50.855 0 50.4242Z" fill="#3C1F1B"/>
<path d="M0 50.4242C0.4616 50.4928 0.57343 50.9171 0.7782 51.2249C2.85129 54.3406 4.90381 57.47 6.97674 60.5858C12.8767 69.4541 18.7804 78.3199 24.6878 87.1833C26.6187 90.0825 28.55 92.9814 30.4816 95.8801C37.4534 106.363 44.4231 116.847 51.3906 127.332C53.4952 130.504 55.5843 133.685 57.7218 136.835C59.4072 139.319 61.0261 141.848 62.6836 144.35C62.8188 144.639 63.0157 144.895 63.2604 145.1C63.516 144.957 63.3971 144.75 63.3524 144.591C62.7321 142.353 62.4227 140.039 62.4332 137.716C62.4318 136.359 62.4528 135.002 62.4373 133.645C62.4666 131.678 62.7056 129.719 63.1503 127.803C63.9868 123.701 64.615 119.565 65.3171 115.441C65.9817 111.539 66.5672 107.623 67.2399 103.72C67.9069 99.8506 68.4445 95.9589 69.0734 92.0825C69.6662 88.4285 70.314 84.7835 70.9189 81.1314C71.4082 78.1778 71.8631 75.2186 72.3455 72.2638C72.7552 69.754 73.1916 67.2486 73.5994 64.7385C74.0331 62.0697 74.4388 59.3963 74.8718 56.7274C75.3359 53.8673 75.8099 51.0089 76.2938 48.1521C76.6912 45.8035 77.0567 43.4501 77.3904 41.0919C77.6215 39.4666 77.9613 37.8567 78.1906 36.2312C78.6549 33.4338 79.2785 30.6651 80.0584 27.9388C80.5775 25.9395 81.2681 23.9945 81.9654 22.0514C82.7826 19.7742 83.7214 17.5267 84.3417 15.1956C85.4658 10.9711 87.3045 7.01636 88.7229 2.90583C89.0595 1.93019 89.4359 0.96824 89.794 0H91.7334C91.9435 0.58629 91.5993 1.07341 91.4138 1.56988C90.0343 5.26245 88.5114 8.90864 87.3105 12.6587C86.2373 16.0104 85.1217 19.3462 83.932 22.6547C82.0791 27.8275 80.7357 33.1688 79.9209 38.6027C79.3293 42.4956 78.8112 46.4053 77.9837 50.2606C77.919 50.66 77.7929 51.0471 77.6097 51.4079C79.7653 44.626 84.1605 39.3026 88.8394 34.1579C90.8658 31.9826 93.0769 29.987 95.4479 28.1935C96.5863 27.3299 97.4489 26.1538 97.9306 24.8085C99.6417 20.1023 101.38 15.406 103.069 10.6917C104.223 7.46757 105.435 4.26421 106.56 1.0294C106.679 0.624261 106.92 0.265197 107.248 0L109.188 0C109.425 0.62053 109.058 1.13226 108.859 1.65918C107.823 4.40801 107.794 4.41867 109.423 6.81518C113.217 12.4001 116.993 17.9981 120.749 23.609C121.429 24.6233 121.539 24.6433 122.757 24.3875C124.938 23.9294 127.114 23.4481 129.299 23.01C130.836 22.7017 130.835 22.7012 129.992 21.4398C125.502 14.7263 120.919 8.07582 116.425 1.36554C116.159 0.969 115.666 0.60377 115.976 0H117.915C122.994 7.48506 128.075 14.9683 133.159 22.4498C133.361 22.7358 133.503 23.0606 133.574 23.4039C133.645 23.7471 133.645 24.1014 133.573 24.4445C133.336 25.9384 133.239 27.455 133.097 28.9635C132.163 38.9146 131.231 48.8658 130.3 58.8171C129.862 63.472 129.426 68.127 128.955 72.7785C128.88 73.5147 129.067 74.2538 129.484 74.8654C133.526 81.3643 137.557 87.8709 141.576 94.3849C145.061 100.014 148.548 105.641 152.036 111.268C155.35 116.623 158.662 121.979 161.97 127.338C164.688 131.731 167.409 136.124 170.131 140.515C170.182 140.597 170.235 140.678 170.289 140.759C170.729 141.409 170.743 141.445 171.443 141.18C172.622 140.733 173.857 140.454 175.113 140.353C178.858 139.929 182.645 140.637 185.985 142.384C187.423 143.174 188.737 144.19 190.108 145.102C192.823 146.908 195.538 148.714 198.254 150.519C200.323 151.897 202.391 153.278 204.458 154.661C205.236 155.181 206.009 155.709 206.795 156.219C207.254 156.403 207.624 156.757 207.826 157.209C208.029 157.66 208.048 158.172 207.88 158.637C207.148 162.637 206.409 166.636 205.665 170.634C205.565 171.173 205.466 171.713 205.374 172.254C205.318 172.586 205.449 172.706 205.801 172.7C209.186 172.642 212.566 172.542 215.945 172.253C222.382 171.703 228.782 170.904 235.15 169.809C238.555 169.223 241.953 168.606 245.34 167.934C248.661 167.276 251.96 166.508 255.262 165.755C257.937 165.145 260.6 164.485 263.269 163.854C265.686 163.283 268.083 162.626 270.478 161.966C274.487 160.862 278.499 159.765 282.487 158.591C286.724 157.344 290.945 156.039 295.157 154.709C300.259 153.099 305.345 151.44 310.394 149.668C313.375 148.622 316.365 147.6 319.349 146.563C319.548 146.457 319.774 146.409 320 146.424V148.17C319.728 148.492 319.362 148.722 318.953 148.828C305.706 153.524 292.35 157.881 278.833 161.738C264.905 165.795 250.769 169.102 236.486 171.644C229.458 172.893 222.371 173.789 215.253 174.326C212.356 174.53 209.451 174.578 206.558 174.853C205.292 174.974 205.242 174.979 205.015 176.229C203.795 182.967 202.534 189.698 201.291 196.433C201.237 196.817 201.145 197.194 201.016 197.56C200.904 197.794 200.823 198.042 200.777 198.298C200.618 198.797 200.717 199.339 200.524 199.833C200.105 200.806 199.853 201.843 199.779 202.901C199.559 204.205 199.418 205.528 199.101 206.809C198.719 208.551 198.794 210.362 199.32 212.066C199.901 214.222 200.822 216.272 202.049 218.138C203.956 221.064 206.122 223.802 208.175 226.621C222.421 246.18 236.676 265.732 250.94 285.277C259.24 296.657 267.539 308.038 275.839 319.418C275.996 319.581 276.11 319.781 276.17 320H273.842C272.53 318.62 271.358 317.114 270.342 315.503C265.423 308.818 260.556 302.093 255.667 295.385C247.562 284.266 239.457 273.148 231.351 262.03C226.297 255.083 221.209 248.16 216.154 241.213C211.973 235.467 207.786 229.726 203.593 223.989C201.653 221.569 199.964 218.958 198.552 216.196C198.297 215.678 198.086 215.139 197.921 214.585C197.92 214.597 197.865 214.577 197.865 214.577C197.865 214.577 197.867 214.635 197.868 214.647C197.817 215.174 197.673 215.678 197.639 216.192C197.517 218.008 196.413 218.979 194.854 219.682C191.283 221.118 187.536 222.07 183.713 222.512C182.767 222.664 182.76 222.622 183.345 223.43C193.505 237.453 203.652 251.485 213.788 265.526C224.591 280.48 235.395 295.433 246.199 310.386C248.184 313.137 250.152 315.901 252.167 318.63C252.46 319.027 252.895 319.4 252.703 320H250.57C249.913 319.526 249.371 318.91 248.983 318.199C243.87 311.091 238.712 304.015 233.599 296.906C229.279 290.899 224.93 284.914 220.61 278.906C217.254 274.238 213.863 269.594 210.492 264.936C206.97 260.067 203.469 255.184 199.944 250.317C196.57 245.66 193.224 240.983 189.844 236.33C183.881 228.121 177.933 219.902 171.999 211.672C167.809 205.889 163.649 200.086 159.448 194.312C156.406 190.131 153.406 185.921 150.368 181.738C148.052 178.549 145.736 175.361 143.458 172.145C143.108 171.65 142.846 171.443 142.39 172.066C140.268 174.957 138.198 177.886 136.107 180.799C135.859 181.071 135.723 181.428 135.728 181.796C135.733 182.164 135.878 182.516 136.133 182.782C139.289 187.078 142.446 191.374 145.603 195.67C150.124 201.85 154.65 208.026 159.182 214.199C163.515 220.076 167.814 225.978 172.137 231.863C176.498 237.8 180.82 243.767 185.186 249.7C190.605 257.065 195.992 264.455 201.421 271.812C205.277 277.037 209.081 282.301 212.927 287.533C217.003 293.079 221.072 298.629 225.135 304.184C228.734 309.076 232.338 313.966 235.882 318.898C236.106 319.21 236.529 319.506 236.218 320H234.085C232.014 317.152 229.951 314.298 227.87 311.457C217.423 297.197 206.973 282.939 196.52 268.683C185.172 253.201 173.824 237.719 162.476 222.236C161.712 221.193 160.954 220.146 160.192 219.102C160.099 218.933 159.97 218.787 159.814 218.674C159.657 218.561 159.478 218.484 159.289 218.448C156.192 217.923 153.203 216.891 150.442 215.392C145.934 213.111 141.837 210.096 138.319 206.469C136.034 203.965 134.018 201.229 132.301 198.306C130.102 194.88 127.883 191.465 125.674 188.044C125.116 187.18 125.141 187.281 124.339 187.78C122.668 188.894 120.81 189.698 118.854 190.156C117.046 190.542 115.173 190.512 113.378 190.069C111.889 189.617 110.509 188.865 109.321 187.86C102.043 182.375 94.7709 176.882 87.5049 171.382C82.013 167.232 76.5191 163.084 71.023 158.94C69.4249 157.774 68.0794 156.297 67.0675 154.598C63.9889 149.314 60.4455 144.335 57.0723 139.245C46.1284 122.732 35.1644 106.232 24.1802 89.7461C16.4505 78.1203 8.71664 66.4972 0.97849 54.877C0.70093 54.4604 0.53925 53.9245 0 53.7212V50.4242Z" fill="#3C1F1B"/>
<path d="M200.72 197.624C201.173 195.216 201.625 192.807 202.077 190.399C202.904 185.961 203.729 181.523 204.551 177.084C204.668 176.45 204.771 175.813 204.88 175.177C204.883 175.081 204.906 174.986 204.949 174.899C204.991 174.813 205.051 174.736 205.124 174.674C205.198 174.612 205.284 174.566 205.377 174.54C205.47 174.513 205.567 174.507 205.663 174.52C207.147 174.538 208.626 174.38 210.108 174.31C212.521 174.195 214.934 174.035 217.345 173.831C219.563 173.647 221.769 173.353 223.985 173.162C225.461 173.035 226.927 172.786 228.393 172.568C230.784 172.211 233.176 171.856 235.561 171.46C237.787 171.09 240.01 170.695 242.224 170.261C245.452 169.629 248.68 168.994 251.892 168.284C255.135 167.567 258.36 166.762 261.591 165.986C268.212 164.397 274.77 162.572 281.312 160.692C286.399 159.229 291.455 157.662 296.499 156.055C301.329 154.516 306.137 152.909 310.938 151.28C313.78 150.315 316.608 149.309 319.444 148.325C319.626 148.262 319.815 148.221 320 148.17V169.115C319.673 169.771 319.001 169.906 318.408 170.123C314.859 171.421 311.307 172.708 307.739 173.952C295.814 178.111 283.785 181.95 271.655 185.468C261.876 188.282 252.019 190.801 242.07 192.942C233.731 194.737 225.339 196.258 216.868 197.269C212.618 197.875 208.336 198.233 204.043 198.339C203.299 198.341 202.574 198.575 201.826 198.521C201.514 198.508 201.203 198.467 200.899 198.397C200.805 198.356 200.725 198.288 200.67 198.201C200.635 198.107 200.621 198.007 200.63 197.907C200.638 197.807 200.669 197.71 200.72 197.624Z" fill="#6A443F"/>
<path d="M236.219 320C235.84 319.185 235.345 318.428 234.75 317.755C232.832 315.079 230.849 312.449 228.901 309.794C224.3 303.519 219.702 297.242 215.108 290.963C211.713 286.326 208.319 281.689 204.926 277.052C200.646 271.222 196.361 265.397 192.07 259.575C189.949 256.686 187.859 253.775 185.739 250.885C182.569 246.563 179.379 242.256 176.209 237.934C172.295 232.597 168.388 227.255 164.486 221.909C161.131 217.323 157.773 212.739 154.414 208.156C150.332 202.583 146.249 197.01 142.166 191.437C139.953 188.416 137.754 185.384 135.513 182.383C135.357 182.227 135.269 182.016 135.268 181.796C135.266 181.575 135.352 181.363 135.507 181.205C137.514 178.314 139.564 175.453 141.654 172.622C141.942 172.232 142.201 171.821 142.496 171.437C142.84 170.991 142.966 170.989 143.292 171.429C143.656 171.922 143.989 172.438 144.347 172.937C146.061 175.323 147.777 177.707 149.496 180.089C152.225 183.853 154.971 187.605 157.696 191.372C160.402 195.113 163.086 198.87 165.789 202.613C169.854 208.241 173.923 213.865 177.996 219.487C181.061 223.726 184.123 227.967 187.182 232.21C190.998 237.499 194.814 242.789 198.629 248.08C201.88 252.582 205.134 257.081 208.392 261.578C210.699 264.77 213.005 267.962 215.309 271.156C217.866 274.685 220.439 278.203 222.994 281.734C225.852 285.684 228.704 289.639 231.549 293.598C236.292 300.169 241.038 306.738 245.785 313.305C247.261 315.347 248.749 317.379 250.227 319.418C250.359 319.6 250.457 319.805 250.57 320H236.219Z" fill="#E5E4E1"/>
<path d="M252.703 320C252.016 318.832 251.241 317.717 250.386 316.666C246.252 310.893 242.097 305.134 237.923 299.39C234.252 294.317 230.577 289.248 226.896 284.182C224.191 280.443 221.504 276.69 218.799 272.949C215.432 268.294 212.061 263.642 208.685 258.994C205.98 255.254 203.281 251.509 200.588 247.761C197.222 243.105 193.852 238.453 190.478 233.803C187.885 230.221 185.297 226.636 182.712 223.048C182.551 222.89 182.443 222.687 182.401 222.465C182.424 222.404 182.466 222.351 182.521 222.317C182.576 222.282 182.642 222.266 182.707 222.273C184.575 222.163 186.429 221.879 188.244 221.424C190.378 221.066 192.458 220.434 194.432 219.544C194.548 219.489 194.668 219.441 194.787 219.391C196.204 218.793 197.277 217.939 197.34 216.225C197.399 215.583 197.499 214.946 197.638 214.317C197.731 214.193 197.78 213.987 198.009 214.118C199.216 217.255 200.916 220.179 203.044 222.781C204.677 224.943 206.248 227.152 207.846 229.34C212.011 235.046 216.176 240.751 220.341 246.457C223.896 251.331 227.449 256.206 230.999 261.083C236.19 268.197 241.384 275.309 246.58 282.419C250.952 288.413 255.319 294.411 259.681 300.412C264.318 306.773 268.959 313.13 273.603 319.485C273.737 319.625 273.821 319.807 273.842 320H252.703Z" fill="#E5E4E1"/>
<path d="M107.249 0C105.812 3.9756 104.376 7.95109 102.939 11.9265C101.597 15.6283 100.251 19.3287 98.9019 23.0278C98.7365 23.4829 98.5687 23.9377 98.4225 24.3992C97.8568 26.1628 96.7388 27.6976 95.2337 28.777C91.5501 31.6154 88.2407 34.9088 85.3846 38.5787C83.5793 40.854 81.9136 43.2365 80.3967 45.7134C79.4029 47.415 78.5909 49.2164 77.9739 51.0879C77.8873 51.496 77.704 51.8774 77.4395 52.2C77.7194 50.4233 77.9672 48.8469 78.2162 47.2708C78.7239 44.0573 79.2318 40.8438 79.7397 37.6303C80.2402 34.5429 80.9064 31.4847 81.7356 28.469C82.3504 26.1899 83.1531 23.9778 83.9512 21.7611C84.749 19.545 85.6288 17.3493 86.267 15.0867C87.6711 10.1081 89.7999 5.3973 91.4847 0.52433C91.5576 0.344956 91.6407 0.169894 91.7336 0L107.249 0Z" fill="#6A443F"/>
<path d="M115.975 0C115.97 0.35769 116.232 0.58725 116.407 0.84649C119.791 5.84016 123.18 10.8305 126.574 15.8176C128.004 17.9263 129.423 20.0423 130.831 22.1658C130.991 22.3377 131.097 22.5522 131.137 22.7833C130.689 23.0248 130.198 23.1751 129.693 23.2255C127.241 23.7711 124.782 24.2789 122.324 24.7969C121.349 25.0024 121.35 24.9981 120.76 24.1213C117.449 19.1956 114.136 14.2705 110.822 9.34592C109.831 7.87481 108.836 6.40573 107.806 4.96192C107.705 4.84292 107.641 4.6971 107.622 4.54226C107.602 4.38742 107.628 4.23025 107.696 4.08992C108.209 2.73239 108.693 1.36425 109.188 2e-05L115.975 0Z" fill="#E5E4E1"/>
<path d="M201.697 198.206C204.753 198.006 207.817 197.884 210.864 197.586C214.357 197.244 217.843 196.827 221.322 196.336C226.397 195.615 231.441 194.725 236.471 193.749C240.744 192.92 244.993 191.981 249.23 190.987C256.294 189.33 263.314 187.504 270.29 185.51C275.099 184.143 279.883 182.694 284.658 181.212C289.775 179.625 294.875 177.991 299.948 176.272C306.365 174.097 312.768 171.875 319.118 169.509C319.419 169.397 319.707 169.247 320 169.115V171.249C318.546 171.673 317.115 172.173 315.713 172.747C302.576 177.453 289.347 181.878 275.954 185.802C274.033 186.365 272.106 186.909 270.18 187.457C269.993 187.5 269.803 187.535 269.612 187.559C265.719 188.606 261.836 189.696 257.926 190.679C253.178 191.873 248.418 193.014 243.632 194.053C239.622 194.923 235.598 195.715 231.57 196.489C229.118 196.961 226.644 197.308 224.18 197.71C221.459 198.154 218.725 198.539 215.985 198.826C213.748 199.061 211.512 199.32 209.265 199.493C206.664 199.693 204.061 199.821 201.456 199.934C201.078 199.95 200.677 200.048 200.341 199.761C200.27 199.234 200.337 198.697 200.535 198.203C200.543 198.183 200.557 198.166 200.575 198.153C200.593 198.14 200.614 198.132 200.636 198.131C200.658 198.129 200.68 198.133 200.699 198.143C200.719 198.153 200.735 198.169 200.747 198.187L200.737 198.188C200.882 198.274 201.046 198.321 201.215 198.325C201.383 198.328 201.55 198.287 201.697 198.206Z" fill="#3C1F1B"/>
<path d="M200.34 199.761C201.276 199.758 202.212 199.755 203.148 199.752C204.92 199.749 206.677 199.537 208.44 199.409C209.466 199.335 210.49 199.221 211.517 199.166C212.255 199.126 212.992 199.053 213.725 198.958C216.558 198.591 219.397 198.267 222.225 197.85C226.072 197.283 229.9 196.625 233.725 195.928C239.359 194.902 244.953 193.689 250.523 192.372C256.414 190.98 262.284 189.499 268.101 187.813C268.576 187.607 269.095 187.519 269.612 187.559C268.448 188.031 267.245 188.4 266.017 188.661C256.146 191.359 246.205 193.769 236.162 195.743C229.511 197.05 222.823 198.142 216.091 198.934C211.572 199.466 207.041 199.892 202.487 200.009C202.004 200.022 201.521 200.1 201.038 200.091C200.56 200.083 200.357 200.281 200.262 200.743C200.183 201.478 200.021 202.202 199.778 202.901C199.755 201.827 199.946 200.76 200.34 199.761Z" fill="#3C1F1B"/>
<path d="M106.76 6.82617C107.061 7.01621 107.303 7.286 107.46 7.6055C110.525 12.16 113.59 16.7151 116.654 21.2709C117.646 22.7439 118.637 24.2178 119.657 25.6714C119.811 25.8529 119.905 26.0779 119.926 26.315C119.946 26.5522 119.893 26.7899 119.772 26.9952C118.046 30.5734 116.358 34.1696 114.655 37.7592C113.424 40.3566 112.214 42.9652 110.943 45.5432C110.694 45.9786 110.573 46.4753 110.594 46.9763C110.614 47.4773 110.776 47.9623 111.06 48.3756C112.077 49.986 113.052 51.6225 114.054 53.2424C116.636 57.4159 119.221 61.5877 121.809 65.7578C124.429 69.9833 127.051 74.2081 129.674 78.4322C132.613 83.1818 135.547 87.9343 138.477 92.6897C141.161 97.0282 143.849 101.364 146.541 105.697C149.396 110.309 152.249 114.923 155.099 119.538C157.615 123.6 160.134 127.661 162.657 131.719C164.784 135.149 166.909 138.579 169.033 142.011C169.135 142.176 169.235 142.342 169.343 142.502C169.907 143.336 170.184 143.432 171.124 143.138C172.095 142.786 173.085 142.494 174.091 142.263C177.384 141.686 180.772 142.031 183.88 143.261C185.227 143.89 186.501 144.665 187.678 145.573C190.978 147.72 194.24 149.927 197.517 152.109C200.097 153.828 202.665 155.566 205.267 157.251C205.595 157.408 205.854 157.68 205.996 158.014C206.137 158.349 206.151 158.724 206.034 159.068C205.183 163.335 204.418 167.62 203.658 171.905C203.499 172.827 203.055 173.677 202.388 174.334C198.713 178.184 194.115 181.032 189.03 182.607C186.587 183.334 184.065 183.768 181.519 183.9C173.628 184.333 165.883 181.644 159.957 176.415C157.678 174.311 155.7 171.904 154.077 169.26C150.79 164.234 147.506 159.207 144.224 154.178C141 149.226 137.784 144.268 134.577 139.304C130.044 132.314 125.512 125.323 120.98 118.332C118.135 113.942 115.293 109.551 112.453 105.158C110.158 101.605 107.882 98.0387 105.583 94.4886C103.371 91.0742 101.132 87.6769 98.9166 84.265C94.3614 77.2509 89.8103 70.2341 85.2634 63.2146C83.3494 60.261 81.4517 57.2967 79.5282 54.3493C79.3823 54.1617 79.2841 53.9414 79.242 53.7075C79.1999 53.4736 79.2152 53.2329 79.2865 53.0062C79.9403 50.6376 80.9084 48.3673 82.1648 46.2557C85.1072 41.4612 88.6636 37.0717 92.7435 33.1987C93.9807 32.0165 95.2958 30.9186 96.6799 29.9123C98.3031 28.6662 99.5001 26.9477 100.106 24.9933C102.236 19.1029 104.373 13.2148 106.516 7.32913C106.57 7.18045 106.654 7.04276 106.76 6.82617Z" fill="#E5E4E1"/>
<path d="M202.639 176.977C202.592 177.917 202.448 178.849 202.209 179.759C200.978 186.487 199.71 193.208 198.457 199.932C198.341 200.468 198.256 201.011 198.203 201.557C198.193 201.848 198.087 202.127 197.901 202.352C197.716 202.576 197.461 202.732 197.177 202.796C195.1 203.502 192.989 204.102 190.851 204.592C188.333 205.177 185.757 205.47 183.172 205.467C180.654 205.498 178.138 205.317 175.65 204.926C173.504 204.662 171.377 204.253 169.287 203.701C168.85 203.587 168.466 203.325 168.203 202.959C164.954 198.452 161.7 193.949 158.443 189.449C154.659 184.213 150.875 178.978 147.091 173.742C146.24 172.564 145.398 171.38 144.547 170.201C144.365 169.935 144.166 169.68 143.951 169.439C143.822 169.249 143.646 169.096 143.44 168.994C143.235 168.891 143.006 168.844 142.777 168.856C142.548 168.868 142.325 168.938 142.131 169.061C141.937 169.184 141.778 169.355 141.669 169.557C140.844 170.674 140.053 171.816 139.243 172.944C137.434 175.463 135.624 177.981 133.814 180.498C133.513 180.868 133.356 181.332 133.369 181.808C133.383 182.284 133.566 182.739 133.887 183.091C134.836 184.437 135.815 185.762 136.789 187.091C142.208 194.491 147.629 201.891 153.051 209.289C154.445 211.191 155.858 213.078 157.254 214.978C157.567 215.342 157.819 215.754 157.999 216.199C156.964 216.089 155.954 215.813 155.008 215.382C149.169 213.125 143.903 209.602 139.589 205.067C137.592 202.868 135.812 200.481 134.275 197.939C131.213 193.15 128.099 188.394 125.013 183.62C122.366 179.524 119.723 175.425 117.084 171.323C113.859 166.331 110.631 161.342 107.4 156.354C103.685 150.601 99.9732 144.846 96.2653 139.089C93.7767 135.236 91.2828 131.385 88.7836 127.539C85.3787 122.278 81.9747 117.017 78.5717 111.755C75.7612 107.418 72.9432 103.086 70.1175 98.7591C70.0372 98.6425 69.9821 98.5104 69.956 98.3712C69.9298 98.2321 69.933 98.089 69.9655 97.9512C70.3447 95.6926 70.7054 93.4308 71.0706 91.1698C71.6312 87.6986 72.1917 84.2275 72.752 80.7563C73.2132 77.9225 73.6856 75.0906 74.1514 72.2576C74.7743 68.4698 75.396 64.682 76.0166 60.8939C76.3545 58.8244 76.6821 56.7533 77.0144 54.6829C77.0162 54.6171 77.0367 54.5532 77.0737 54.4986C77.1106 54.4441 77.1624 54.4013 77.2229 54.3752C77.5201 54.4081 77.6148 54.6724 77.7493 54.8798C82.2325 61.7898 86.7137 68.7012 91.1929 75.6139C94.8642 81.2799 98.5338 86.9469 102.202 92.6151C105.325 97.4426 108.445 102.272 111.564 107.102C115.869 113.742 120.179 120.379 124.494 127.013C128.96 133.896 133.422 140.781 137.881 147.669C141.976 153.983 146.07 160.298 150.165 166.613C151.548 168.756 152.889 170.927 154.371 173.003C156.286 175.653 158.622 177.97 161.286 179.865C165.496 182.907 170.396 184.855 175.546 185.532C180.3 186.179 185.137 185.772 189.716 184.34C194.294 182.908 198.501 180.485 202.037 177.244C202.104 177.149 202.195 177.074 202.301 177.027C202.407 176.98 202.524 176.963 202.639 176.977Z" fill="#DCCDB3"/>
<path d="M69.4849 101.233C69.9707 101.724 70.3834 102.282 70.7102 102.89C72.8058 106.112 74.8934 109.339 76.9731 112.571C81.1388 119.031 85.3033 125.491 89.4665 131.953C91.3055 134.802 93.1664 137.637 95.0065 140.486C98.7214 146.237 102.433 151.99 106.141 157.745C108.7 161.705 111.267 165.661 113.841 169.612C117.158 174.735 120.471 179.86 123.78 184.987C124.213 185.658 124.197 185.682 123.52 186.096C122.312 186.907 121.002 187.555 119.625 188.024C118.146 188.56 116.555 188.715 115.001 188.472C113.446 188.23 111.978 187.598 110.733 186.637C105.9 182.912 101.016 179.254 96.1484 175.576C91.8212 172.306 87.4903 169.041 83.1558 165.781C79.1894 162.784 75.2267 159.782 71.2676 156.775C70.7968 156.432 70.3916 156.008 70.0714 155.521C69.3249 154.35 68.5922 153.171 67.8388 152.005C66.7576 150.204 65.9744 148.241 65.5197 146.191C64.9773 144.066 64.5587 141.913 64.266 139.74C64.2132 139.291 64.1901 138.839 64.1968 138.387C64.1869 136.965 64.1873 135.544 64.1768 134.122C64.1968 132.152 64.4264 130.19 64.8618 128.269C65.846 123.532 66.5328 118.746 67.3176 113.975C67.9665 110.031 68.6134 106.087 69.2583 102.142C69.2999 101.89 69.3811 101.644 69.4849 101.233Z" fill="#6A443F"/>
<path d="M127.187 70.8712C126.902 70.7168 126.792 70.3598 126.616 70.0756C122.271 63.0793 117.931 56.0796 113.596 49.0764C113.494 48.9118 113.4 48.7421 113.306 48.573C112.993 48.014 112.378 47.5146 112.42 46.8973C112.567 46.2703 112.822 45.6739 113.175 45.1352C115.896 39.3834 118.632 33.6384 121.329 27.8754C121.46 27.5035 121.691 27.1748 121.996 26.9251C122.302 26.6753 122.67 26.5141 123.06 26.459C125.753 25.9582 128.419 25.3119 131.097 24.7282C131.624 24.6133 131.712 24.6792 131.688 25.2636C131.666 25.8104 131.575 26.354 131.524 26.9C131.249 29.8874 130.986 32.8759 130.702 35.8625C130.41 38.9449 130.09 42.0248 129.799 45.1073C129.568 47.5485 129.371 49.9928 129.142 52.4341C128.919 54.8101 128.667 57.1833 128.442 59.559C128.28 61.2612 128.152 62.9664 127.992 64.6688C127.805 66.6598 127.601 68.6492 127.401 70.6389C127.392 70.7293 127.386 70.8375 127.187 70.8712Z" fill="#DCCDB3"/>
<path d="M170.618 205.937C175.075 206.873 179.62 207.323 184.173 207.281C188.757 207.03 193.281 206.124 197.607 204.59C197.379 205.891 197.188 207.023 196.98 208.151C196.489 210.814 195.972 213.473 195.506 216.14C195.472 216.442 195.359 216.73 195.179 216.975C194.998 217.219 194.756 217.412 194.477 217.533C192.736 218.377 190.898 219.004 189.004 219.399C187.204 219.774 185.408 220.152 183.585 220.395C183.006 220.473 182.428 220.47 181.85 220.509C181.546 220.54 181.24 220.484 180.967 220.347C180.694 220.21 180.466 219.999 180.309 219.737C177.147 215.333 173.976 210.936 170.796 206.546C170.726 206.462 170.674 206.365 170.643 206.26C170.612 206.155 170.604 206.045 170.618 205.937Z" fill="#DCCDB3"/>
<path d="M198.01 214.118C197.886 214.184 197.762 214.251 197.638 214.317C197.637 214.143 197.569 213.917 197.77 213.842C197.981 213.764 197.98 213.979 198.01 214.118Z" fill="#6A443F"/>
<path d="M200.747 198.187L200.534 198.203C200.54 197.992 200.515 197.771 200.72 197.624L200.747 198.187Z" fill="#3C1F1B"/>
<path d="M201.697 198.206C201.637 198.274 201.562 198.328 201.478 198.364C201.395 198.401 201.304 198.419 201.213 198.417C201.122 198.415 201.032 198.394 200.95 198.354C200.868 198.315 200.796 198.258 200.737 198.188C201.057 198.194 201.377 198.2 201.697 198.206Z" fill="#3C1F1B"/>
<path d="M179.976 147.562C184.146 147.579 188.173 149.086 191.33 151.811C194.419 154.384 196.378 158.065 196.787 162.065C197.171 165.307 196.435 168.582 194.702 171.348C193.474 173.433 191.792 175.215 189.781 176.559C187.769 177.904 185.48 178.777 183.084 179.114C180.177 179.662 177.176 179.442 174.379 178.474C171.583 177.507 169.088 175.826 167.14 173.597C164.943 171.234 163.588 168.212 163.286 164.999C163.012 162.731 163.265 160.43 164.027 158.277C164.789 156.123 166.038 154.174 167.678 152.584C170.288 149.896 173.742 148.186 177.462 147.741C178.296 147.633 179.135 147.573 179.976 147.562Z" fill="#3C1F1B"/>
<path d="M193.31 156.96C192.916 157.225 192.461 157.388 191.988 157.435C187.415 158.396 182.835 159.33 178.259 160.278C175.797 160.789 173.339 161.316 170.878 161.831C169.175 162.187 167.47 162.537 165.764 162.882C165.145 163.006 164.997 162.895 165.039 162.246C165.171 160.206 165.802 158.231 166.876 156.493C167.861 154.814 169.182 153.356 170.756 152.21C172.33 151.064 174.123 150.255 176.023 149.833C178.472 149.19 181.041 149.157 183.506 149.738C185.97 150.318 188.255 151.493 190.16 153.161C191.395 154.262 192.457 155.543 193.31 156.96Z" fill="#DCCDB3"/>
<path d="M167.819 171.47C168.652 171.264 169.361 171.07 170.08 170.915C173.479 170.178 176.882 169.461 180.28 168.718C183.52 168.01 186.755 167.276 189.992 166.556C191.438 166.234 192.884 165.912 194.333 165.6C194.802 165.499 194.881 165.583 194.787 166.106C194.381 168.374 193.373 170.491 191.87 172.237C189.509 175.075 186.161 176.915 182.5 177.388C179.954 177.781 177.351 177.541 174.92 176.69C172.489 175.84 170.304 174.404 168.559 172.51C168.263 172.201 168.014 171.85 167.819 171.47Z" fill="#DCCDB3"/>
<path d="M195.133 162.926C195.169 163.396 194.994 163.617 194.512 163.741C193.202 164.076 191.881 164.36 190.559 164.644C188.769 165.029 186.986 165.45 185.198 165.847C184.13 166.084 183.056 166.291 181.99 166.537C180.048 166.987 178.095 167.389 176.153 167.841C175.123 168.08 174.08 168.305 173.04 168.517C171.182 168.895 169.335 169.323 167.49 169.759C166.72 169.94 166.604 169.924 166.283 169.226C165.709 168.033 165.318 166.761 165.122 165.452C165.069 165.048 165.151 164.837 165.532 164.73C165.805 164.63 166.083 164.547 166.365 164.481C168.15 164.218 169.887 163.717 171.658 163.415C173.883 163.035 176.066 162.467 178.285 162.063C179.478 161.846 180.688 161.624 181.872 161.299C183.045 160.976 184.262 160.81 185.458 160.569C186.721 160.314 187.984 160.058 189.244 159.792C190.504 159.527 191.759 159.236 193.021 158.978C194.226 158.732 194.194 158.76 194.581 159.89C194.921 160.885 194.882 161.93 195.133 162.926Z" fill="#E5E4E1"/>
</g>
</g>
<defs>
<clipPath id="clip0_1423_7993">
<rect width="320" height="320" fill="white"/>
</clipPath>
<clipPath id="clip1_1423_7993">
<rect width="320" height="320" fill="white"/>
</clipPath>
</defs>
</svg>
