<svg width="320" height="320" viewBox="0 0 320 320" fill="none" xmlns="http://www.w3.org/2000/svg">
<g clip-path="url(#clip0_1444_915)">
<rect width="320" height="320" fill="#DCFFE0"/>
<g clip-path="url(#clip1_1444_915)">
<path d="M243.18 320H234.212C233.979 319.713 233.844 319.36 233.827 318.991C232.996 314.558 232.388 310.092 231.929 305.607C231.608 302.471 231.288 299.334 231.223 296.179C231.187 295.391 231.219 294.601 231.32 293.818C231.5 292.71 231.388 291.575 230.995 290.524C230.602 289.473 229.942 288.543 229.08 287.825C228.121 286.949 226.985 286.29 225.749 285.892C224.513 285.494 223.206 285.366 221.916 285.517C218.221 285.721 214.518 285.267 210.981 284.178C207.998 283.215 205.219 281.711 202.78 279.742C201.344 278.647 199.8 277.701 198.172 276.919C196.692 276.193 195.022 275.949 193.397 276.221C191.771 276.493 190.272 277.267 189.109 278.434C186.337 281.078 185.327 284.495 184.741 288.105C184.408 290.161 184.336 292.254 183.877 294.295C183.383 296.411 182.536 298.429 181.373 300.265C180.258 302.068 178.498 303.006 176.725 303.936C174.777 304.957 172.846 306.007 170.931 307.087C170 307.623 168.971 307.968 167.905 308.103C161.003 308.925 154.006 308.405 147.301 306.572C142.559 305.3 137.958 303.549 133.569 301.348C129.211 299.154 125.03 296.624 121.065 293.781C114.931 289.362 109.245 284.352 104.088 278.824C97.5732 271.864 91.7687 264.271 86.7605 256.159C83.9555 251.663 81.3819 247.027 79.05 242.269C76.3107 236.674 73.8985 230.926 71.8257 225.052C68.9213 216.72 66.6997 208.165 65.183 199.473C64.4221 195.742 63.3251 192.088 61.9055 188.555C60.5507 184.931 58.845 181.469 57.197 177.979C54.5325 172.307 52.7401 166.265 51.8804 160.057C51.3961 155.803 51.2359 151.517 51.4013 147.238C51.4232 146.422 51.3831 145.605 51.2812 144.794C51.2368 144.544 51.2169 144.291 51.222 144.037C51.2372 143.756 51.2228 143.421 51.5138 143.292C51.7676 143.18 51.9836 143.408 52.1881 143.556C53.1726 144.271 53.9909 145.173 54.9081 145.965C60.7443 150.949 67.0959 155.294 73.855 158.928C77.3742 160.849 81.0135 162.503 84.692 164.088C86.4496 164.924 88.1391 165.895 89.7452 166.994C93.0434 169.078 96.5897 170.685 100.028 172.495C104.844 175.031 109.575 177.713 114.274 180.455C122.36 185.175 130.269 190.18 138.052 195.379C146.774 201.205 155.339 207.255 163.517 213.834C167.069 216.57 170.398 219.585 173.47 222.851C178.311 228.216 182.812 233.816 186.069 240.357C188.716 245.661 192.058 250.589 196.005 255.012C200.124 259.751 205.182 263.584 210.858 266.269C214.97 268.146 219.351 269.363 223.842 269.877C226.784 270.205 229.748 270.301 232.705 270.166C235.72 270.056 238.721 269.703 241.679 269.109C243.173 268.817 244.69 268.665 246.212 268.655C250.158 268.53 254.108 268.792 258.003 269.438C262.328 270.253 266.554 271.522 270.613 273.225C277.195 275.973 283.807 278.648 290.4 281.37C299.938 285.308 309.491 289.208 319.027 293.149C319.405 293.266 319.743 293.488 320 293.789V303.935C319.575 304.112 319.232 303.849 318.881 303.702C310.748 300.29 302.619 296.869 294.495 293.438C285.17 289.516 275.824 285.642 266.538 281.633C263.062 280.071 259.333 279.149 255.529 278.912C249.752 278.624 244.388 280.714 241.601 287.24C240.484 290.016 239.904 292.98 239.892 295.973C239.856 302.232 240.625 308.469 242.18 314.531C242.516 315.985 242.865 317.436 243.257 318.877C243.359 319.251 243.497 319.646 243.18 320Z" fill="#6A443F"/>
<path d="M320 134.327V152.59C319.854 152.763 319.668 152.898 319.457 152.982C319.246 153.066 319.018 153.096 318.793 153.07C315.411 153.069 312.037 153.307 308.662 153.452C304.134 153.645 299.604 153.797 295.078 154.052C293.421 154.146 291.758 154.201 290.098 154.263C286.497 154.4 282.894 154.507 279.297 154.739C277.864 154.832 276.426 154.842 274.992 154.893C271.615 155.011 268.237 155.156 264.862 155.307C260.362 155.508 255.858 155.62 251.363 155.92C249.874 156.02 248.378 156.042 246.889 156.084C243.425 156.181 239.966 156.379 236.504 156.499C232.453 156.638 228.402 156.828 224.351 157.003C220.469 157.171 216.587 157.336 212.705 157.5C208.625 157.676 204.546 157.848 200.466 158.017C196.556 158.175 192.646 158.349 188.736 158.515C184.628 158.69 180.521 158.863 176.413 159.033C172.503 159.2 168.593 159.366 164.682 159.531C160.659 159.704 156.637 159.875 152.614 160.043C148.675 160.207 144.737 160.388 140.798 160.546C136.719 160.709 132.64 160.897 128.56 161.06C124.65 161.216 120.739 161.385 116.83 161.567C113.765 161.714 110.694 161.76 107.634 162.002C106.984 162.06 106.331 161.932 105.752 161.631C102.972 160.194 100.252 158.646 97.4654 157.223C97.1232 157.022 96.8399 156.735 96.6442 156.39C96.4485 156.045 96.3472 155.655 96.3507 155.258C96.0832 153.135 95.8285 151.01 95.566 148.887C95.0204 144.471 94.4339 140.06 93.9274 135.64C93.7942 134.477 94.0227 134.226 95.1765 134.181C95.5991 134.164 96.0223 134.174 96.4452 134.174C131.465 134.173 166.485 134.325 201.504 134.133C240.384 133.92 279.263 134.113 318.142 134.011C318.771 134.01 319.444 133.853 320 134.327Z" fill="#6A443F"/>
<path d="M320 283.474V292.775C319.612 292.947 319.282 292.729 318.953 292.594C311.465 289.529 303.981 286.451 296.503 283.361C291.211 281.18 285.916 279.006 280.619 276.838C276.498 275.147 272.412 273.363 268.25 271.779C263.948 270.149 259.464 269.048 254.897 268.498C251.754 268.203 248.597 268.095 245.441 268.175C244.116 268.207 242.798 268.373 241.506 268.669C236.63 269.626 231.651 269.959 226.691 269.658C217.162 269.226 208.066 265.549 200.912 259.238C196.489 255.25 192.667 250.643 189.565 245.559C187.519 242.343 185.928 238.878 183.976 235.612C181.708 231.908 179.088 228.431 176.155 225.228C174.99 223.927 173.956 222.51 172.71 221.282C168.747 217.472 164.561 213.902 160.173 210.591C152.387 204.566 144.318 198.937 136.105 193.515C127.139 187.596 118.006 181.944 108.654 176.651C103.845 173.929 98.9657 171.339 94.0161 168.88C92.1614 167.924 90.3561 166.874 88.6073 165.736C85.9265 164.177 83.1437 162.801 80.2778 161.616C75.6407 159.484 71.1613 157.023 66.8737 154.253C62.9459 151.758 59.1946 148.996 55.6465 145.985C54.2531 144.792 52.9391 143.518 51.6288 142.238C51.4513 142.055 51.3228 141.83 51.2551 141.584C51.1875 141.338 51.1828 141.079 51.2415 140.831C51.3595 140.109 51.4397 139.38 51.4816 138.649C51.5119 137.99 51.6967 137.347 52.0211 136.772C52.3454 136.197 52.8003 135.707 53.3491 135.34C56.9752 132.544 61.0625 130.405 65.426 129.019C69.4856 127.725 73.6603 126.826 77.8924 126.333C78.2677 126.272 78.652 126.295 79.0175 126.4C79.383 126.505 79.7207 126.689 80.0064 126.94C82.4239 128.971 84.8363 131.008 87.2957 132.988C88.0903 133.59 88.6317 134.467 88.814 135.447C88.962 136.251 88.8248 136.524 88.0425 136.775C86.9149 137.136 85.7612 137.409 84.6289 137.758C81.9612 138.581 79.3558 139.595 76.8329 140.791C76.2987 141.047 75.7887 141.351 75.3091 141.699C75.0134 141.87 74.7588 142.104 74.5633 142.384C74.3679 142.664 74.2363 142.983 74.1779 143.32C74.1195 143.656 74.1357 144.002 74.2253 144.331C74.315 144.661 74.4759 144.967 74.6968 145.227C75.7814 146.681 77.2185 147.836 78.8725 148.581C80.5739 149.463 82.3586 150.17 84.0893 150.995C97.1087 157.234 109.804 164.127 122.126 171.65C132.08 177.703 141.758 184.169 151.161 191.049C159.066 196.819 166.765 202.851 174.258 209.144C178.81 212.968 183.312 216.853 187.646 220.926C191.851 224.832 195.191 229.577 197.451 234.853C198.422 237.012 199.611 239.065 200.999 240.982C205.198 247.212 210.951 252.238 217.689 255.561C222.802 257.972 228.287 259.494 233.911 260.064C237.814 260.404 241.735 260.504 245.651 260.365C247.088 260.36 248.522 260.244 249.942 260.02C252.413 259.761 254.911 259.931 257.325 260.522C263.194 261.671 268.938 263.388 274.474 265.649C283.712 269.274 293 272.774 302.268 276.322C307.877 278.469 313.485 280.618 319.091 282.769C319.475 282.875 319.802 283.128 320 283.474Z" fill="#3C1F1B"/>
<path d="M320 263.351V282.29C319.636 282.558 319.293 282.352 318.961 282.225C313.588 280.175 308.218 278.12 302.849 276.059C292.162 271.963 281.475 267.867 270.789 263.768C265.262 261.715 259.528 260.269 253.688 259.458C252.226 259.339 250.755 259.389 249.304 259.604C247.568 259.792 245.824 259.89 244.077 259.898C243.937 259.88 243.795 259.882 243.656 259.904C241.926 260.382 240.497 259.633 239.021 258.878C234.178 256.4 229.278 254.033 224.405 251.615C223.055 250.972 221.584 250.626 220.089 250.599C217.919 250.529 215.747 250.666 213.602 251.009C212.891 251.141 212.158 251.102 211.464 250.896C210.771 250.689 210.136 250.32 209.613 249.82C204.971 245.939 201.164 241.157 198.421 235.764C197.208 233.099 195.818 230.517 194.263 228.037C191.904 224.487 189.045 221.297 185.773 218.567C185.208 218.1 184.719 217.55 184.149 217.086C183.935 216.912 183.675 216.688 183.796 216.382C183.916 216.08 184.258 216.104 184.536 216.086C186.283 216.021 188.032 216.086 189.769 216.281C193.111 216.56 196.431 217.032 199.733 217.638C204.378 218.575 208.925 219.947 213.313 221.737C227.14 227.09 240.969 232.441 254.798 237.79C264.131 241.403 273.463 245.016 282.795 248.629C294.705 253.237 306.615 257.845 318.525 262.451C319.065 262.659 319.692 262.752 320 263.351Z" fill="#3C1F1B"/>
<path d="M320 263.351C318.485 262.744 316.975 262.122 315.453 261.532C312.146 260.249 308.831 258.988 305.522 257.71C301.373 256.107 297.226 254.499 293.08 252.887C288.329 251.045 283.578 249.203 278.827 247.362C272.288 244.837 265.748 242.316 259.206 239.799C254.243 237.879 249.292 235.932 244.329 234.013C238.08 231.597 231.828 229.189 225.572 226.789C221.371 225.166 217.184 223.505 212.977 221.896C207.256 219.515 201.238 217.921 195.088 217.158C192.832 216.864 190.575 216.615 188.302 216.462C187.035 216.377 185.772 216.365 184.507 216.329C184.323 216.324 184.117 216.258 183.937 216.418C183.948 216.676 184.172 216.782 184.329 216.923C185.752 218.2 187.199 219.452 188.603 220.75C190.269 222.349 191.784 224.098 193.13 225.974C194.76 228.132 196.185 230.438 197.385 232.862C197.669 233.443 197.933 234.034 198.177 234.635C199.515 237.618 201.255 240.403 203.349 242.913C204.725 244.698 206.239 246.37 207.879 247.914C208.925 248.896 210.031 249.811 211.163 250.694C211.26 250.773 211.372 250.83 211.493 250.863C211.614 250.896 211.741 250.904 211.864 250.885C213.651 250.694 215.437 250.472 217.229 250.374C218.606 250.298 219.987 250.315 221.361 250.426C222.59 250.571 223.779 250.956 224.86 251.559C229.831 254.032 234.806 256.496 239.785 258.95C239.968 259.024 240.145 259.113 240.312 259.218C240.686 259.495 241.12 259.68 241.579 259.758C242.038 259.836 242.508 259.804 242.953 259.666C243.176 259.63 243.402 259.622 243.627 259.642C246.129 259.627 248.628 259.461 251.111 259.146C252.346 259.03 253.593 259.091 254.811 259.328C257.662 259.827 260.501 260.384 263.307 261.108C266.464 261.935 269.567 262.958 272.597 264.17C276.262 265.618 279.955 266.995 283.635 268.406C287.472 269.877 291.309 271.35 295.145 272.824C298.799 274.224 302.453 275.623 306.108 277.021C309.209 278.209 312.306 279.411 315.414 280.584C316.94 281.159 318.435 281.817 320 282.29V283.474C318.504 282.743 316.921 282.228 315.373 281.629C309.857 279.497 304.337 277.377 298.812 275.27C293.684 273.308 288.554 271.351 283.422 269.398C278.426 267.485 273.449 265.521 268.436 263.654C265.91 262.775 263.332 262.054 260.717 261.494C258.474 260.962 256.204 260.566 253.927 260.206C252.924 260.056 251.905 260.042 250.898 260.165C249.64 260.307 248.378 260.381 247.121 260.499C244.168 260.693 241.208 260.737 238.251 260.629C235.861 260.585 233.479 260.357 231.125 259.947C228.176 259.49 225.274 258.775 222.451 257.809C217.782 256.2 213.428 253.79 209.584 250.688C205.334 247.151 201.703 242.931 198.839 238.2C198.169 237.062 197.589 235.872 197.104 234.643C195.602 231.301 193.673 228.168 191.365 225.323C190.567 224.301 189.709 223.331 188.846 222.371C188.027 221.518 187.164 220.708 186.263 219.943C185.512 219.263 184.735 218.612 183.976 217.941C181.889 216.096 179.833 214.214 177.712 212.408C175.142 210.22 172.56 208.046 169.943 205.912C166.999 203.511 164.046 201.123 161.042 198.799C157.882 196.354 154.677 193.966 151.463 191.591C147.297 188.513 143.049 185.547 138.765 182.635C135.225 180.228 131.629 177.905 128.012 175.613C124.444 173.352 120.842 171.146 117.206 168.995C114.395 167.332 111.565 165.701 108.716 164.101C105.027 162.043 101.317 160.023 97.5865 158.041C93.6259 155.943 89.6131 153.948 85.5815 151.992C83.7846 151.121 82.0031 150.211 80.1423 149.466C78.7 148.89 77.3486 148.109 76.1299 147.147C75.3495 146.54 74.6952 145.786 74.204 144.928C73.8875 144.373 73.7944 143.717 73.9435 143.096C74.0927 142.474 74.4729 141.932 75.007 141.58C75.7722 141.052 76.5836 140.593 77.4313 140.211C80.825 138.692 84.3413 137.463 87.9424 136.538C88.7503 136.324 88.7285 136.326 88.565 135.508C88.4153 134.642 87.9549 133.86 87.2702 133.31C84.6756 131.195 82.0974 129.06 79.5354 126.905C79.3801 126.764 79.1956 126.659 78.995 126.598C78.7944 126.537 78.5828 126.521 78.3753 126.552C77.4274 126.667 76.4776 126.772 75.5337 126.915C72.8914 127.308 70.276 127.865 67.7029 128.583C63.3665 129.739 59.2482 131.596 55.5109 134.081C54.6057 134.698 53.7494 135.389 52.8811 136.059C52.6001 136.245 52.3639 136.491 52.1894 136.779C52.0149 137.067 51.9065 137.391 51.872 137.726C51.7817 138.815 51.6138 139.898 51.4786 140.984C51.4496 141.217 51.4799 141.453 51.5665 141.671C51.6531 141.888 51.7932 142.081 51.974 142.23C56.7633 146.885 62.047 151.002 67.731 154.508C71.5116 156.913 75.4398 159.078 79.4923 160.99C81.0932 161.75 82.7088 162.484 84.3623 163.133C85.7229 163.749 87.0352 164.466 88.2879 165.279C90.5541 166.591 92.8062 167.929 95.1061 169.18C95.9668 169.648 96.8791 170.038 97.7559 170.486C102.045 172.68 106.263 175.004 110.449 177.389C115.27 180.135 120.02 183 124.735 185.924C127.965 187.928 131.14 190.021 134.345 192.065C137.504 194.08 140.592 196.201 143.683 198.315C148.958 201.923 154.139 205.659 159.228 209.523C161.844 211.52 164.403 213.592 166.936 215.693C168.212 216.751 169.455 217.852 170.665 218.994C171.339 219.632 172.034 220.25 172.693 220.904C173.773 222.013 174.793 223.177 175.751 224.392C176.587 225.416 177.49 226.384 178.354 227.385C180.588 229.995 182.596 232.79 184.354 235.742C185.153 237.07 185.865 238.444 186.581 239.818C188.581 243.667 190.893 247.345 193.495 250.816C195.159 253.052 196.993 255.156 198.982 257.109C205.326 263.499 213.573 267.655 222.482 268.954C226.137 269.467 229.833 269.613 233.518 269.393C236.325 269.269 239.118 268.912 241.866 268.327C243.15 268.049 244.461 267.911 245.775 267.917C247.241 267.929 248.708 267.897 250.174 267.91C252.984 267.974 255.785 268.267 258.548 268.785C261.612 269.393 264.632 270.202 267.59 271.205C269.035 271.655 270.404 272.35 271.811 272.929C275.899 274.61 279.988 276.289 284.077 277.967C289.156 280.054 294.234 282.141 299.312 284.229C305.067 286.595 310.821 288.963 316.575 291.332C317.72 291.804 318.858 292.293 320 292.775V293.789C317.913 292.944 315.823 292.105 313.74 291.251C307.511 288.698 301.283 286.143 295.057 283.583C287.059 280.296 279.05 277.035 271.072 273.701C267.651 272.247 264.114 271.082 260.498 270.218C258.03 269.656 255.525 269.269 253.002 269.06C250.189 268.882 247.37 268.847 244.554 268.955C243.375 269.044 242.205 269.222 241.054 269.488C238.834 269.856 236.603 270.132 234.36 270.316C232.421 270.458 230.475 270.502 228.532 270.448C219.127 270.412 209.996 267.275 202.554 261.523C199.11 258.83 196.017 255.716 193.349 252.254C191.221 249.449 189.255 246.525 187.461 243.497C186.367 241.714 185.523 239.808 184.499 237.993C182.647 234.637 180.474 231.469 178.008 228.533C175.509 225.411 172.815 222.449 169.942 219.667C168.19 218.076 166.399 216.531 164.57 215.031C160.81 211.93 156.917 209.001 152.99 206.116C150.129 204.015 147.225 201.974 144.307 199.955C140.275 197.165 136.201 194.439 132.085 191.775C125.127 187.28 118.085 182.923 110.901 178.796C106.405 176.213 101.905 173.631 97.2422 171.365C93.7107 169.649 90.3557 167.64 86.9903 165.643C85.3517 164.713 83.6553 163.888 81.9116 163.173C78.3725 161.629 74.9211 159.892 71.573 157.968C67.2089 155.495 63.0203 152.724 59.037 149.674C56.9703 148.11 54.985 146.442 53.0888 144.675C52.6205 144.232 52.1262 143.816 51.5994 143.348C51.4493 143.628 51.4119 143.955 51.4948 144.262C51.8562 146.417 51.5618 148.582 51.6118 150.741C51.6451 152.178 51.5788 153.619 51.6681 155.052C51.7781 156.817 51.9517 158.582 52.1904 160.334C52.5812 163.233 53.1955 166.098 54.0278 168.902C55.0596 172.416 56.3972 175.831 58.0252 179.111C60.993 184.967 63.3334 191.12 65.0074 197.467C65.651 199.949 65.9642 202.487 66.497 204.987C67.377 209.116 68.3841 213.209 69.5698 217.26C71.028 222.232 72.7406 227.125 74.7007 231.92C77.2166 238.105 80.1196 244.125 83.3925 249.944C85.732 254.095 88.2485 258.134 90.9418 262.06C93.3388 265.539 95.8847 268.907 98.5795 272.164C102.081 276.4 105.84 280.414 109.837 284.185C112.456 286.663 115.199 289.005 118.056 291.203C121.241 293.671 124.571 295.945 128.03 298.011C134.494 301.937 141.515 304.861 148.855 306.685C151.511 307.308 154.205 307.757 156.919 308.03C158.459 308.18 160.006 308.251 161.553 308.245C163.862 308.283 166.169 308.123 168.45 307.768C169.117 307.649 169.759 307.42 170.351 307.09C173.073 305.61 175.795 304.13 178.517 302.649C179.574 302.045 180.466 301.189 181.113 300.158C182.462 298.105 183.376 295.797 183.798 293.376C184.114 291.66 184.222 289.92 184.454 288.195C184.768 285.328 185.735 282.572 187.281 280.138C187.924 279.088 188.773 278.179 189.777 277.466C190.78 276.752 191.918 276.249 193.12 275.987C194.845 275.627 196.64 275.855 198.22 276.633C199.813 277.42 201.334 278.343 202.767 279.392C203.851 280.152 204.894 280.969 205.983 281.722C206.933 282.33 207.951 282.826 209.017 283.199C211.323 284.112 213.738 284.72 216.201 285.01C217.905 285.22 219.621 285.319 221.337 285.307C221.591 285.31 221.844 285.297 222.096 285.266C224.022 285.022 225.976 285.426 227.648 286.414C229.32 287.403 230.616 288.919 231.332 290.725C231.657 291.63 231.76 292.6 231.632 293.553C231.413 295.311 231.409 297.089 231.62 298.848C231.697 299.688 231.755 300.53 231.812 301.37C231.994 304.035 232.313 306.683 232.63 309.333C233.041 312.766 233.575 316.179 234.198 319.579C234.213 319.719 234.218 319.86 234.212 320H233.197C232.772 317.331 232.321 314.666 231.93 311.993C231.453 308.732 231.1 305.456 230.822 302.172C230.61 299.352 229.793 296.611 228.427 294.136C227.694 292.697 226.649 291.44 225.367 290.457C224.086 289.474 222.602 288.79 221.022 288.455C220.14 288.272 219.267 288.024 218.377 287.899C216.334 287.596 214.392 286.812 212.709 285.614C212.406 285.411 212.069 285.263 211.714 285.179C210.617 284.918 209.547 284.556 208.517 284.096C206.876 283.382 205.038 283.258 203.316 283.744C201.46 284.163 199.758 285.089 198.399 286.42C194.741 289.935 191.051 293.422 188.283 297.741C186.941 299.903 185.215 301.801 183.19 303.343C181.427 304.66 179.471 305.696 177.39 306.413C175.738 307.056 174.053 307.609 172.341 308.07C167.355 309.192 162.225 309.528 157.136 309.065C148.166 308.169 139.467 305.481 131.555 301.16C124.281 297.289 117.512 292.534 111.404 287.003C100.787 277.399 91.7033 266.226 84.4684 253.872C84.0209 253.122 83.5746 252.371 83.1508 251.607C82.9717 251.26 82.6766 250.985 82.3166 250.832C76.525 248.322 70.8936 245.457 65.4544 242.253C60.7873 239.558 56.4534 236.324 52.542 232.616C50.2358 230.412 48.2583 227.888 46.6703 225.122C45.3639 222.78 44.4761 220.228 44.0466 217.581C43.98 217.162 43.9848 216.735 44.0609 216.318C44.3041 214.675 45.0405 213.145 46.1726 211.93C47.3047 210.715 48.7792 209.872 50.4006 209.514C50.787 209.438 51.1808 209.405 51.5746 209.416C56.1974 209.522 60.8203 209.626 65.4432 209.73C65.7502 209.737 66.0575 209.731 66.3476 209.731C66.3946 209.623 66.4177 209.506 66.4152 209.388C66.4128 209.269 66.3848 209.153 66.3334 209.047C65.662 206.167 65.1203 203.262 64.576 200.356C63.884 196.933 62.9265 193.569 61.7124 190.295C60.4752 186.848 59.0279 183.481 57.3786 180.212C54.3378 174.194 52.2725 167.73 51.26 161.064C50.6157 156.514 50.4081 151.914 50.6398 147.324C50.6633 146.649 50.6377 145.972 50.5632 145.3C50.3177 142.461 50.4613 139.603 50.9901 136.803C51.108 136.334 51.3917 135.924 51.7888 135.649C54.4213 133.385 57.3671 131.513 60.5348 130.092C64.6582 128.26 68.9969 126.958 73.4475 126.217C75.1117 125.92 76.7832 125.669 78.4671 125.506C78.7416 125.432 79.0329 125.45 79.2961 125.557C79.8481 125.936 80.3283 125.677 80.8462 125.512C84.4508 124.386 88.1521 123.596 91.9026 123.153C92.8533 123.035 93.8058 122.932 94.7583 122.829C94.9907 122.804 95.2258 122.792 95.2791 122.506C95.3698 122.019 95.723 121.986 96.1124 122.004C96.8447 122.037 97.5766 122.08 98.3093 122.103C100.536 122.171 102.762 122.235 104.989 122.295C112.176 122.491 119.363 122.686 126.55 122.881C132.243 123.038 137.936 123.2 143.629 123.367C149.801 123.543 155.973 123.718 162.145 123.893C167.867 124.056 173.588 124.219 179.309 124.382C185.481 124.558 191.653 124.733 197.825 124.908C203.603 125.072 209.38 125.237 215.158 125.403C221.274 125.577 227.39 125.751 233.505 125.924C239.283 126.089 245.06 126.253 250.838 126.417C258.927 126.647 267.015 126.877 275.104 127.107C280.825 127.269 286.546 127.431 292.268 127.592C298.553 127.769 304.838 127.947 311.122 128.124C314.082 128.21 317.041 128.313 320 128.408V129.423C319.824 129.566 319.618 129.669 319.397 129.723C319.177 129.778 318.947 129.784 318.724 129.739C315.914 129.529 313.091 129.699 310.283 129.433C310.143 129.419 310.002 129.415 309.861 129.419C306.562 129.512 303.269 129.27 299.974 129.208C295.779 129.128 291.584 128.989 287.389 128.87C283.588 128.762 279.788 128.653 275.988 128.543C271.849 128.428 267.71 128.312 263.572 128.195C259.771 128.085 255.971 127.975 252.171 127.865C248.088 127.745 244.006 127.638 239.924 127.52C236.067 127.408 232.21 127.298 228.353 127.19C224.243 127.07 220.132 126.964 216.021 126.842C212.221 126.729 208.421 126.619 204.62 126.512C200.538 126.392 196.455 126.288 192.373 126.167C188.516 126.052 184.658 125.958 180.802 125.838C176.692 125.711 172.581 125.594 168.47 125.487C164.726 125.384 160.982 125.267 157.238 125.161C153.071 125.043 148.904 124.926 144.737 124.811C141.021 124.706 137.305 124.597 133.589 124.485C129.366 124.365 125.142 124.263 120.919 124.135C117.119 124.02 113.318 123.92 109.518 123.807C105.661 123.692 101.806 123.504 97.9464 123.494C96.6035 123.491 96.5602 123.539 96.2861 124.85C95.7786 127.276 95.239 129.695 94.7369 132.122C94.5426 133.062 94.6178 133.135 95.5859 133.154C95.8678 133.159 96.1498 133.156 96.4317 133.156C136.725 133.156 177.018 133.305 217.31 133.11C250.918 132.947 284.525 133.094 318.132 132.993C318.764 132.992 319.441 132.837 320 133.312V134.327C315.629 134.323 311.258 134.32 306.887 134.317C283.65 134.322 260.413 134.327 237.177 134.335C226.15 134.338 215.124 134.304 204.098 134.368C167.807 134.578 131.515 134.427 95.224 134.501C95.1676 134.501 95.1112 134.501 95.0548 134.501C94.0639 134.504 94.0894 134.501 94.2206 135.478C94.43 137.037 94.5959 138.602 94.7905 140.164C94.9885 141.752 95.2033 143.339 95.4028 144.927C95.5952 146.46 95.7721 147.995 95.9655 149.528C96.2362 151.674 96.5309 153.817 96.7793 155.965C96.7945 156.159 96.863 156.345 96.9774 156.502C97.0919 156.66 97.2476 156.782 97.4274 156.856C100.216 158.334 103.007 159.807 105.777 161.321C106.397 161.664 107.115 161.784 107.813 161.66C108.315 161.593 108.821 161.559 109.328 161.558C111.664 161.507 113.998 161.402 116.329 161.244C116.919 161.203 117.513 161.228 118.105 161.208C121.228 161.106 124.349 160.934 127.473 160.829C130.089 160.741 132.703 160.599 135.319 160.496C138.048 160.39 140.776 160.263 143.504 160.155C146.148 160.051 148.791 159.92 151.435 159.817C154.107 159.713 156.778 159.582 159.45 159.477C162.066 159.375 164.681 159.247 167.297 159.143C169.997 159.034 172.697 158.907 175.397 158.802C178.041 158.698 180.684 158.568 183.328 158.465C186.028 158.36 188.728 158.231 191.428 158.124C194.044 158.02 196.658 157.892 199.275 157.789C201.975 157.683 204.674 157.554 207.374 157.448C209.961 157.346 212.548 157.218 215.136 157.115C217.864 157.007 220.592 156.888 223.32 156.76C224.586 156.702 225.853 156.695 227.118 156.619C229.844 156.455 232.573 156.376 235.302 156.265C237.889 156.16 240.476 156.033 243.064 155.932C245.82 155.824 248.576 155.693 251.333 155.587C253.949 155.485 256.563 155.358 259.179 155.253C261.88 155.145 264.579 155.027 267.279 154.901C268.573 154.842 269.869 154.835 271.161 154.757C273.859 154.596 276.56 154.509 279.261 154.403C281.848 154.302 284.435 154.172 287.023 154.071C289.751 153.964 292.478 153.837 295.207 153.727C297.794 153.623 300.381 153.502 302.969 153.396C305.725 153.283 308.481 153.156 311.238 153.05C313.854 152.95 316.466 152.757 319.085 152.736C319.394 152.719 319.701 152.67 320 152.59V153.604C319.765 153.704 319.511 153.746 319.257 153.727C315.876 153.863 312.495 153.988 309.115 154.133C303.229 154.384 297.342 154.64 291.456 154.903C288.583 155.027 285.71 155.149 282.837 155.266C276.725 155.517 270.612 155.766 264.499 156.014C260.584 156.175 256.669 156.341 252.754 156.512C247.318 156.742 241.882 156.972 236.445 157.202C232.587 157.365 228.728 157.529 224.869 157.693C218.109 157.979 211.349 158.265 204.589 158.55C200.674 158.716 196.759 158.882 192.844 159.049C187.436 159.278 182.028 159.507 176.62 159.735C172.704 159.901 168.789 160.067 164.874 160.233C159.466 160.462 154.058 160.691 148.65 160.919C144.763 161.084 140.876 161.249 136.99 161.415C131.553 161.645 126.117 161.874 120.681 162.104C116.879 162.265 113.076 162.428 109.274 162.593C109.03 162.568 108.784 162.602 108.556 162.691C108.703 162.997 109.012 163.076 109.255 163.212C117.609 167.913 125.797 172.884 133.82 178.128C150.694 189.162 166.76 201.386 181.894 214.707C182.264 215.049 182.752 215.234 183.255 215.222C190.761 215.262 198.23 216.264 205.481 218.202C208.479 219.088 211.43 220.125 214.322 221.311C249.361 234.873 284.4 248.432 319.441 261.988C319.623 262.059 319.813 262.108 320 262.167L320 263.351Z" fill="#5D4E47"/>
<path d="M320 133.312C305.817 133.314 291.635 133.315 277.452 133.317C258.448 133.321 239.443 133.227 220.439 133.354C186.1 133.583 151.761 133.385 117.422 133.485C109.978 133.506 102.534 133.487 95.0904 133.486C94.11 133.486 94.0978 133.481 94.3031 132.521C94.9082 129.692 95.5198 126.865 96.1378 124.039C96.3323 123.149 96.3455 123.148 97.2428 123.15C98.6243 123.154 100.012 123.085 101.386 123.19C103.553 123.355 105.726 123.224 107.886 123.376C109.718 123.504 111.55 123.393 113.372 123.531C115.428 123.686 117.488 123.557 119.534 123.71C121.45 123.852 123.368 123.725 125.274 123.87C127.357 124.029 129.445 123.895 131.52 124.048C133.464 124.191 135.41 124.063 137.344 124.212C139.344 124.367 141.347 124.234 143.337 124.384C145.281 124.53 147.227 124.407 149.161 124.549C151.161 124.697 153.164 124.576 155.154 124.721C157.126 124.865 159.101 124.741 161.063 124.889C163.034 125.038 165.009 124.909 166.971 125.058C168.999 125.211 171.03 125.082 173.049 125.228C174.992 125.37 176.939 125.249 178.873 125.398C180.817 125.547 182.763 125.414 184.697 125.563C186.753 125.721 188.812 125.586 190.859 125.737C192.831 125.882 194.805 125.757 196.768 125.904C198.739 126.053 200.714 125.925 202.676 126.073C204.676 126.224 206.679 126.091 208.669 126.244C210.613 126.393 212.559 126.263 214.493 126.409C216.492 126.56 218.496 126.433 220.486 126.582C222.458 126.729 224.432 126.599 226.394 126.749C228.366 126.899 230.341 126.767 232.303 126.918C234.331 127.074 236.362 126.939 238.381 127.088C240.352 127.234 242.327 127.11 244.289 127.258C246.289 127.408 248.292 127.277 250.282 127.427C252.226 127.574 254.172 127.451 256.106 127.593C258.106 127.74 260.109 127.62 262.099 127.765C264.071 127.909 266.046 127.786 268.008 127.933C269.979 128.081 271.954 127.952 273.916 128.102C275.944 128.256 277.975 128.122 279.994 128.271C281.994 128.419 283.997 128.289 285.987 128.442C287.987 128.596 289.99 128.46 291.98 128.608C293.98 128.757 295.983 128.632 297.973 128.78C299.973 128.928 301.976 128.799 303.966 128.947C305.994 129.098 308.026 128.968 310.044 129.12C311.96 129.264 313.876 129.156 315.784 129.28C317.19 129.372 318.594 129.408 320 129.423V133.312Z" fill="#3C1F1B"/>
<path d="M262.977 320H248.256C248.101 319.902 247.971 319.769 247.876 319.613C247.78 319.456 247.722 319.279 247.706 319.096C246.235 313.685 245.208 308.164 244.633 302.586C244.258 299.166 244.366 295.711 244.955 292.322C245.391 289.728 246.414 287.267 247.946 285.129C248.108 284.898 248.294 284.685 248.5 284.493C248.57 284.401 248.662 284.329 248.767 284.283C248.872 284.237 248.987 284.218 249.102 284.228C249.216 284.239 249.326 284.278 249.421 284.343C249.516 284.408 249.593 284.496 249.645 284.598C252.088 288.071 255.635 289.809 259.596 290.834C261.201 291.167 262.72 291.829 264.058 292.778C265.396 293.726 266.523 294.941 267.369 296.347C268.124 297.508 268.606 298.826 268.779 300.201C268.953 301.576 268.813 302.972 268.37 304.285C266.71 309.105 265.23 313.986 263.577 318.809C263.488 319.253 263.281 319.664 262.977 320Z" fill="#3C1F1B"/>
<path d="M262.977 320C263.044 319.498 263.182 319.008 263.387 318.544C264.972 313.706 266.566 308.87 268.167 304.037C268.556 302.846 268.682 301.584 268.538 300.34C268.395 299.095 267.984 297.895 267.334 296.824C266.366 294.96 264.867 293.425 263.027 292.413C261.857 291.858 260.64 291.41 259.39 291.074C257.424 290.57 255.538 289.796 253.786 288.773C252.079 287.777 250.608 286.423 249.474 284.804C249.114 284.237 249.039 284.238 248.566 284.782C247.549 285.992 246.753 287.371 246.215 288.857C245.429 290.996 244.963 293.238 244.832 295.513C244.748 296.666 244.712 297.814 244.718 298.964C244.766 300.927 244.917 302.887 245.17 304.834C245.477 307.628 245.989 310.384 246.568 313.13C247.054 315.438 247.593 317.735 248.256 320H247.241C246.835 319.798 246.763 319.398 246.663 319.018C245.192 313.635 244.173 308.138 243.617 302.585C243.137 298.435 243.415 294.233 244.437 290.182C245.277 286.783 247.279 283.785 250.096 281.707C251.447 280.73 252.999 280.066 254.639 279.763C253.317 279.984 251.966 280.036 250.666 280.379C246.379 281.511 243.717 284.384 242.207 288.422C241.388 290.767 240.953 293.229 240.919 295.713C240.671 302.367 241.885 308.835 243.387 315.267C243.669 316.474 243.993 317.671 244.284 318.876C244.376 319.256 244.506 319.648 244.195 320H243.18C243.191 319.747 243.155 319.494 243.074 319.254C242.261 316.154 241.494 313.042 240.919 309.888C240.522 307.705 240.191 305.512 239.926 303.309C239.611 300.569 239.52 297.807 239.653 295.052C239.719 292.089 240.39 289.171 241.626 286.478C242.501 284.511 243.848 282.79 245.548 281.469C247.248 280.148 249.247 279.267 251.369 278.905C254.067 278.462 256.825 278.536 259.496 279.123C261.242 279.434 262.957 279.901 264.62 280.517C266.037 281.056 267.403 281.728 268.801 282.319C272.535 283.898 276.271 285.472 280.01 287.039C284.239 288.822 288.466 290.608 292.693 292.395C296.74 294.101 300.789 295.804 304.839 297.504C309.354 299.404 313.868 301.307 318.382 303.212C318.926 303.441 319.461 303.694 320 303.935V304.95C317.118 303.748 314.232 302.555 311.354 301.344C296.255 294.99 281.16 288.628 266.067 282.26C264.584 281.633 263.068 281.137 261.542 280.644C260.72 280.474 259.876 280.423 259.039 280.495C256.806 280.384 254.58 280.816 252.55 281.753C251.738 282.145 250.968 282.619 250.252 283.167C250.184 283.201 250.125 283.25 250.08 283.311C250.034 283.372 250.003 283.442 249.99 283.517C249.976 283.592 249.98 283.669 250.001 283.742C250.023 283.815 250.061 283.882 250.113 283.938C250.941 285.219 252.013 286.326 253.267 287.195C254.552 288.163 255.993 288.905 257.527 289.389C258.817 289.792 260.093 290.238 261.379 290.652C265.609 292.011 268.081 294.984 269.316 299.154C269.782 300.841 269.715 302.631 269.123 304.278C267.435 309.526 265.706 314.76 263.992 320L262.977 320Z" fill="#5D4E47"/>
<path d="M244.196 320C244.061 318.998 243.838 318.011 243.527 317.049C242.56 313.267 241.784 309.44 241.202 305.58C241.017 304.336 240.905 303.073 240.778 301.817C240.63 299.853 240.584 297.883 240.641 295.915C240.631 293.267 241.092 290.638 242.002 288.152C242.647 286.31 243.69 284.632 245.057 283.24C246.815 281.465 249.093 280.298 251.56 279.91C252.882 279.651 254.23 279.553 255.575 279.617C255.179 279.862 254.734 280.014 254.272 280.064C252.566 280.519 250.973 281.323 249.592 282.424C248.211 283.525 247.073 284.899 246.249 286.461C245.001 288.768 244.237 291.306 244.003 293.918C243.782 295.561 243.682 297.217 243.705 298.875C243.782 300.808 243.932 302.736 244.144 304.663C244.457 307.515 244.97 310.327 245.554 313.13C246.035 315.439 246.574 317.736 247.241 320H244.196Z" fill="#3C1F1B"/>
<path d="M183.454 268.594C183.429 275.042 182.496 281.455 180.684 287.643C180.405 288.616 180.091 289.58 179.819 290.555C179.574 291.429 179.052 292.201 178.333 292.755C176.392 294.348 174.257 295.688 171.978 296.742C169.478 297.851 166.825 298.574 164.109 298.885C162.484 299.062 160.847 299.103 159.215 299.009C156.68 298.934 154.169 298.504 151.753 297.734C149.323 296.918 146.843 296.274 144.392 295.528C141.784 294.712 139.23 293.735 136.743 292.603C132.865 290.847 129.14 288.773 125.605 286.401C122.296 284.203 119.128 281.801 116.12 279.207C113.293 276.789 110.589 274.231 108.019 271.542C105.088 268.458 102.318 265.234 99.7106 261.87C96.5367 257.772 93.5986 253.496 90.9106 249.064C88.1286 244.458 85.6052 239.701 83.352 234.814C81.2285 230.243 79.3609 225.557 77.7579 220.778C76.0715 215.793 74.6903 210.711 73.622 205.558C73.0493 202.777 72.5521 199.983 72.1639 197.172C71.9219 195.42 71.7156 193.662 71.5801 191.895C71.4274 189.904 71.3383 187.91 71.2156 185.919C71.083 183.783 71.0631 181.641 71.156 179.503C71.1325 178.098 71.2217 176.692 71.4225 175.301C71.6171 174.252 72.1814 173.308 73.0128 172.64C73.8442 171.972 74.8876 171.624 75.9535 171.66C77.8104 171.749 79.6479 172.078 81.4206 172.638C85.2866 173.771 89.068 175.176 92.7366 176.841C95.9395 178.242 99.0733 179.788 102.172 181.401C107.447 184.148 112.593 187.122 117.65 190.249C120.789 192.191 123.891 194.189 126.956 196.245C132.312 199.842 137.553 203.599 142.679 207.518C146.637 210.546 150.51 213.681 154.296 216.924C156.152 218.521 157.982 220.15 159.785 221.811C162.079 223.937 164.378 226.058 166.545 228.313C170.177 231.971 173.488 235.936 176.44 240.163C177.589 241.87 178.517 243.716 179.202 245.657C180.436 248.983 181.423 252.394 182.156 255.865C182.58 258.016 182.92 260.178 183.134 262.362C183.349 264.432 183.456 266.512 183.454 268.594Z" fill="#5D4E47"/>
<path d="M68.4027 168.443C68.4176 168.989 68.3555 169.535 68.2182 170.063C67.9117 171.433 67.7669 172.836 67.3825 174.19C67.1815 174.898 66.8613 175.059 66.2137 174.74C65.9019 174.604 65.6259 174.398 65.4074 174.138C63.3443 171.431 61.1614 168.811 59.3578 165.915C58.8829 165.214 58.5342 164.436 58.3276 163.614C58.2497 163.386 58.2308 163.141 58.2727 162.903C58.3147 162.665 58.4161 162.441 58.5675 162.252C58.719 162.064 58.9156 161.917 59.1391 161.825C59.3626 161.733 59.6057 161.699 59.8459 161.726C60.4947 161.736 61.1332 161.888 61.7167 162.172C63.3122 162.952 64.7951 163.944 66.1248 165.121C66.5362 165.462 66.9304 165.826 67.3585 166.145C67.7374 166.385 68.038 166.73 68.2235 167.138C68.409 167.547 68.4712 168 68.4027 168.443Z" fill="#5D4E47"/>
<path d="M177.166 145.802C177.275 145.902 177.325 145.976 177.394 146.006C177.96 146.328 178.401 146.833 178.644 147.437C178.888 148.041 178.92 148.71 178.736 149.335C178.575 149.955 178.217 150.505 177.717 150.905C177.217 151.304 176.601 151.531 175.961 151.551C174.585 151.641 173.201 151.613 171.821 151.642C171.58 151.647 171.448 151.55 171.439 151.305C171.434 151.192 171.428 151.08 171.429 150.967C171.465 147.869 171.334 144.774 171.293 141.678C171.29 141.509 171.299 141.34 171.295 141.171C171.285 141.115 171.288 141.057 171.304 141.003C171.321 140.949 171.35 140.899 171.39 140.858C171.429 140.818 171.478 140.787 171.532 140.769C171.586 140.751 171.643 140.747 171.7 140.756C173.135 140.684 174.573 140.693 176.008 140.785C176.475 140.816 176.926 140.969 177.315 141.229C177.705 141.489 178.02 141.846 178.228 142.266C178.436 142.685 178.531 143.152 178.502 143.619C178.474 144.087 178.323 144.539 178.066 144.93C177.785 145.24 177.485 145.531 177.166 145.802Z" fill="#DCCDB3"/>
<path d="M221.384 145.466C221.766 145.654 222.107 145.915 222.388 146.236C222.668 146.556 222.883 146.928 223.02 147.331C223.15 147.744 223.187 148.18 223.131 148.609C223.074 149.038 222.924 149.449 222.692 149.814C222.46 150.179 222.151 150.489 221.786 150.722C221.422 150.956 221.011 151.106 220.582 151.164C219.667 151.368 218.71 151.266 217.857 150.874C217.429 150.661 217.058 150.347 216.776 149.96C216.495 149.573 216.31 149.124 216.239 148.651C216.168 148.178 216.211 147.694 216.366 147.241C216.521 146.788 216.783 146.38 217.13 146.05C217.343 145.877 217.552 145.698 217.739 145.542C217.726 145.32 217.572 145.274 217.467 145.195C217.011 144.853 216.672 144.379 216.497 143.837C216.322 143.295 216.32 142.711 216.491 142.168C216.607 141.653 216.876 141.186 217.263 140.827C217.65 140.468 218.137 140.235 218.659 140.159C219.568 139.913 220.535 140.015 221.373 140.442C221.764 140.656 222.098 140.959 222.349 141.327C222.601 141.694 222.761 142.116 222.818 142.558C222.876 142.999 222.828 143.448 222.679 143.868C222.53 144.287 222.283 144.665 221.96 144.972C221.799 145.126 221.622 145.263 221.384 145.466Z" fill="#DCCDB3"/>
<path d="M180.91 144.959C180.91 143.721 180.904 142.482 180.912 141.244C180.917 140.64 180.931 140.618 181.526 140.61C182.822 140.593 184.118 140.566 185.413 140.603C186.109 140.58 186.794 140.779 187.37 141.17C187.947 141.561 188.384 142.125 188.62 142.78C188.817 143.268 188.891 143.797 188.835 144.32C188.779 144.843 188.594 145.345 188.298 145.78C188.002 146.215 187.604 146.571 187.138 146.815C186.672 147.059 186.153 147.185 185.627 147.181C185.038 147.228 184.444 147.206 183.853 147.214C182.208 147.236 182.451 147.076 182.443 148.686C182.439 149.446 182.465 150.207 182.456 150.967C182.449 151.52 182.383 151.559 181.704 151.553C181.107 151.547 181.067 151.529 181.057 150.952C181.022 148.954 180.869 146.959 180.91 144.959Z" fill="#DCCDB3"/>
<path d="M243.74 144.434C244.156 144.139 244.615 143.908 245.101 143.75C245.819 143.517 246.6 143.566 247.283 143.888C247.966 144.21 248.5 144.78 248.777 145.483C249.027 146.066 249.153 146.696 249.145 147.331C249.137 147.966 248.996 148.592 248.732 149.169C247.825 151.282 244.519 151.571 243.159 149.684C242.579 148.847 242.255 147.859 242.227 146.841C242.127 145.547 242.281 144.245 242.681 143.011C242.945 142.126 243.484 141.348 244.218 140.789C244.953 140.23 245.846 139.918 246.769 139.898C247.462 139.875 247.515 139.905 247.552 140.351C247.602 140.951 247.536 141.021 246.857 141.085C246.004 141.127 245.2 141.501 244.618 142.126C244.036 142.752 243.721 143.58 243.74 144.434Z" fill="#DCCDB3"/>
<path d="M200.502 144.975C200.971 144.636 201.494 144.379 202.05 144.216C202.722 144.031 203.437 144.088 204.071 144.375C204.706 144.662 205.22 145.162 205.526 145.788C205.912 146.559 206.057 147.428 205.943 148.282C205.828 149.136 205.459 149.936 204.884 150.577C204.542 150.892 204.138 151.132 203.698 151.282C203.258 151.431 202.792 151.487 202.329 151.446C201.866 151.404 201.417 151.267 201.011 151.041C200.605 150.816 200.25 150.509 199.969 150.138C199.52 149.521 199.234 148.801 199.136 148.045C198.858 146.342 199.057 144.596 199.711 143C200.034 142.211 200.589 141.54 201.304 141.074C202.018 140.609 202.857 140.372 203.709 140.396C203.824 140.392 203.938 140.417 204.04 140.47C204.142 140.523 204.229 140.601 204.292 140.698C204.355 140.794 204.392 140.905 204.399 141.019C204.406 141.134 204.384 141.249 204.334 141.352C204.232 141.581 204.025 141.577 203.833 141.574C203.238 141.571 202.654 141.738 202.151 142.056C201.658 142.37 201.25 142.801 200.962 143.31C200.675 143.819 200.517 144.391 200.502 144.975Z" fill="#DCCDB3"/>
<path d="M195.367 145.758C195.48 145.836 195.568 145.904 195.662 145.963C196.215 146.259 196.649 146.735 196.891 147.313C197.134 147.891 197.17 148.534 196.994 149.136C196.869 149.702 196.582 150.22 196.168 150.626C195.754 151.033 195.232 151.31 194.663 151.425C193.726 151.663 192.736 151.577 191.855 151.179C191.433 151.011 191.062 150.737 190.777 150.384C190.492 150.03 190.303 149.609 190.228 149.162C190.137 148.65 190.226 148.563 190.724 148.533C191.389 148.494 191.389 148.494 191.652 149.168C191.856 149.639 192.224 150.02 192.688 150.24C193.152 150.46 193.68 150.504 194.174 150.363C194.611 150.293 195.006 150.061 195.28 149.712C195.553 149.363 195.685 148.924 195.649 148.483C195.688 148.237 195.674 147.985 195.607 147.745C195.54 147.505 195.422 147.283 195.261 147.093C195.1 146.903 194.9 146.75 194.674 146.644C194.449 146.538 194.203 146.482 193.954 146.48C193.593 146.42 193.229 146.387 192.863 146.381C192.418 146.381 192.374 146.12 192.369 145.774C192.364 145.396 192.559 145.282 192.896 145.294C193.291 145.311 193.686 145.267 194.067 145.164C194.308 145.107 194.535 145.001 194.734 144.854C194.933 144.707 195.1 144.521 195.225 144.308C195.351 144.094 195.431 143.857 195.463 143.612C195.494 143.366 195.475 143.117 195.407 142.879C195.367 142.648 195.281 142.428 195.153 142.232C195.024 142.036 194.857 141.868 194.662 141.739C194.466 141.61 194.246 141.523 194.015 141.483C193.785 141.443 193.548 141.45 193.32 141.505C192.921 141.513 192.536 141.656 192.227 141.911C191.919 142.165 191.706 142.516 191.621 142.907C191.571 143.098 191.546 143.31 191.286 143.325C190.98 143.342 190.666 143.486 190.369 143.357C190.147 143.261 190.2 143.016 190.231 142.829C190.293 142.422 190.448 142.034 190.683 141.696C190.918 141.359 191.227 141.079 191.587 140.879C192.181 140.516 192.862 140.321 193.558 140.313C194.254 140.305 194.939 140.485 195.541 140.834C195.899 141.059 196.202 141.362 196.426 141.721C196.65 142.079 196.791 142.484 196.837 142.904C196.883 143.325 196.833 143.75 196.692 144.149C196.551 144.548 196.321 144.909 196.02 145.207C195.813 145.388 195.598 145.563 195.367 145.758Z" fill="#DCCDB3"/>
<path d="M209.53 150.018C209.859 150.033 210.13 150.055 210.4 150.055C211.668 150.053 212.936 150.038 214.203 150.044C214.733 150.047 214.785 150.117 214.785 150.623C214.784 151.114 214.732 151.182 214.183 151.189C212.24 151.213 210.296 151.229 208.352 151.236C207.68 151.24 207.426 150.835 207.73 150.212C207.873 149.97 208.047 149.748 208.247 149.551C209.411 148.212 210.588 146.885 211.74 145.537C212.251 145.008 212.606 144.348 212.768 143.63C212.887 143.147 212.813 142.636 212.563 142.207C212.312 141.777 211.904 141.462 211.426 141.328C210.905 141.183 210.348 141.244 209.872 141.5C209.396 141.756 209.037 142.186 208.871 142.701C208.863 142.728 208.856 142.755 208.847 142.782C208.769 143.008 208.893 143.338 208.59 143.445C208.263 143.537 207.919 143.546 207.588 143.471C207.312 143.427 207.352 143.206 207.385 143.006C207.443 142.441 207.654 141.903 207.995 141.449C208.336 140.996 208.794 140.644 209.32 140.431C209.855 140.208 210.43 140.099 211.01 140.111C211.589 140.123 212.16 140.255 212.685 140.5C213.246 140.777 213.696 141.235 213.964 141.801C214.231 142.366 214.299 143.005 214.158 143.614C213.922 144.577 213.447 145.465 212.778 146.195C211.88 147.242 210.948 148.259 210.034 149.292C209.803 149.484 209.629 149.735 209.53 150.018Z" fill="#DCCDB3"/>
<path d="M235.515 149.719C236.783 149.719 238.02 149.719 239.258 149.719C239.568 149.719 239.878 149.735 240.187 149.717C240.628 149.691 240.686 149.948 240.689 150.302C240.693 150.671 240.594 150.883 240.173 150.884C238.116 150.885 236.06 150.898 234.004 150.913C233.685 150.915 233.563 150.78 233.544 150.461C233.535 150.294 233.562 150.127 233.623 149.97C233.684 149.814 233.777 149.672 233.897 149.555C234.98 148.333 236.05 147.1 237.127 145.873C237.61 145.361 238.032 144.793 238.385 144.184C238.627 143.815 238.751 143.383 238.742 142.942C238.732 142.502 238.589 142.075 238.331 141.718C238.101 141.411 237.783 141.182 237.419 141.061C237.056 140.94 236.664 140.934 236.296 141.042C235.902 141.097 235.536 141.277 235.254 141.557C234.971 141.837 234.787 142.201 234.729 142.594C234.667 142.891 234.723 143.209 234.269 143.267C233.338 143.387 233.15 143.193 233.385 142.272C233.541 141.624 233.902 141.043 234.414 140.616C234.926 140.189 235.562 139.938 236.228 139.9C236.928 139.802 237.641 139.864 238.313 140.082C238.978 140.333 239.523 140.827 239.839 141.465C240.155 142.102 240.218 142.835 240.016 143.516C239.642 144.643 239.013 145.668 238.177 146.511C237.377 147.42 236.562 148.314 235.759 149.22C235.654 149.339 235.492 149.434 235.515 149.719Z" fill="#DCCDB3"/>
<path d="M225.345 142.731C225.15 142.446 225.239 142.159 225.222 141.886C225.21 141.787 225.233 141.687 225.288 141.604C225.343 141.521 225.425 141.46 225.521 141.432C226.706 140.986 227.889 140.536 229.075 140.092C229.118 140.076 229.182 140.115 229.233 140.128C229.312 140.246 229.348 140.387 229.336 140.529C229.483 143.794 229.455 147.062 229.472 150.33C229.473 150.563 229.585 150.887 229.251 150.98C228.925 151.076 228.576 151.067 228.255 150.954C228.142 150.913 228.114 150.786 228.109 150.671C228.102 150.474 228.095 150.277 228.1 150.08C228.163 147.487 227.94 144.9 227.97 142.308C227.983 142.233 227.979 142.156 227.959 142.082C227.939 142.009 227.904 141.941 227.856 141.882C226.993 142.048 226.208 142.523 225.345 142.731Z" fill="#FFFEFE"/>
<path d="M79.1272 135.523C78.573 135.565 78.016 135.494 77.4902 135.314C76.9644 135.134 76.4808 134.849 76.0689 134.475C74.551 133.123 75.197 131.469 76.6124 130.76C77.3889 130.341 78.2727 130.163 79.1508 130.25C80.0289 130.336 80.8612 130.682 81.5414 131.244C82.8592 132.269 83.027 133.905 81.4203 134.955C80.739 135.39 79.9332 135.59 79.1272 135.523Z" fill="#5D4E47"/>
<path d="M81.7726 249.448C81.2861 249.244 80.792 249.056 80.3143 248.833C75.7456 246.701 71.2354 244.459 66.8799 241.909C63.6671 240.044 60.5778 237.974 57.6311 235.712C55.593 234.159 53.689 232.438 51.9389 230.566C49.7873 228.295 48.0129 225.693 46.683 222.861C45.8855 221.121 45.3431 219.274 45.0725 217.379C44.973 216.1 45.3308 214.827 46.0821 213.788C46.6537 212.724 47.5165 211.845 48.5694 211.254C49.6223 210.663 50.8218 210.384 52.0276 210.449C54.8988 210.576 57.773 210.492 60.6384 210.636C62.4402 210.727 64.2392 210.708 66.0387 210.763C66.7793 210.785 66.7941 210.772 66.9769 211.526C68.0987 216.148 69.519 220.682 71.0875 225.169C72.4057 228.94 73.8824 232.649 75.4847 236.31C76.9189 239.587 78.472 242.805 80.0999 245.988C80.6746 247.111 81.291 248.214 81.8884 249.326L81.7726 249.448Z" fill="#3C1F1B"/>
<path d="M173.823 306.317C175.535 305.399 177.256 304.499 178.954 303.557C180.324 302.76 181.461 301.617 182.25 300.242C183.736 297.779 184.673 295.024 184.995 292.165C185.16 289.927 185.494 287.704 185.993 285.516C186.482 283.543 187.355 281.686 188.562 280.052C189.727 278.429 191.47 277.314 193.431 276.936C194.854 276.661 196.328 276.842 197.642 277.453C199.33 278.234 200.903 279.24 202.319 280.446C203.182 281.141 204.086 281.784 205.026 282.371C204.613 282.463 204.287 282.56 203.954 282.605C201.659 282.956 199.523 283.989 197.822 285.57C196.034 287.126 194.411 288.847 192.754 290.532C190.865 292.463 189.166 294.571 187.682 296.829C186.589 298.537 185.285 300.101 183.801 301.485C182.114 303.069 180.126 304.3 177.956 305.103C176.713 305.631 175.442 306.09 174.15 306.48C173.963 306.581 173.812 306.613 173.823 306.317Z" fill="#3C1F1B"/>
<path d="M90.2857 153.119C89.9894 153.144 89.7667 152.945 89.5198 152.825C87.0851 151.645 84.6617 150.442 82.2174 149.283C81.252 148.825 80.241 148.465 79.2869 147.977C78.199 147.443 77.1857 146.768 76.2727 145.971C75.6909 145.477 75.2381 144.849 74.9533 144.14C74.8585 143.92 74.8318 143.676 74.8767 143.441C74.9215 143.205 75.0359 142.988 75.205 142.818C75.7414 142.236 76.395 141.774 77.123 141.463C79.6428 140.268 82.2454 139.255 84.9107 138.434C86.0409 138.089 87.1884 137.801 88.3216 137.465C88.6771 137.36 88.7999 137.443 88.9031 137.809C89.0574 138.552 89.14 139.308 89.1498 140.067C89.2761 141.549 89.4664 143.026 89.5632 144.512C89.6542 145.91 89.8864 147.299 89.9963 148.696C90.102 150.04 90.2283 151.381 90.3753 152.72C90.395 152.788 90.3972 152.861 90.3815 152.931C90.3659 153.001 90.3329 153.066 90.2857 153.119Z" fill="#3C1F1B"/>
<path d="M86.0518 130.918C86.2154 130.709 86.444 130.561 86.7015 130.496C88.7515 129.624 90.9451 129.14 93.1716 129.067C93.2278 129.065 93.2843 129.065 93.3405 129.067C93.9492 129.091 94.0126 129.165 93.8827 129.787C93.6703 130.804 93.4842 131.83 93.2116 132.831C93.0291 133.627 93.0047 134.45 93.1398 135.255C93.4571 137.903 93.7951 140.548 94.1319 143.194C94.5042 146.118 94.8876 149.041 95.2588 151.965C95.3968 153.052 95.5158 154.14 95.639 155.229C95.6764 155.396 95.6566 155.571 95.5827 155.725C95.335 155.825 95.1533 155.651 94.9615 155.556C93.9783 155.068 93.0102 154.548 92.0173 154.081C91.8258 154.001 91.6633 153.865 91.5514 153.691C91.4396 153.516 91.384 153.312 91.3919 153.104C91.1234 149.943 90.8222 146.784 90.5222 143.625C90.3151 141.445 90.1341 139.262 89.8623 137.09C89.8361 135.674 89.3764 134.3 88.5451 133.154C88.0703 132.676 87.5649 132.229 87.0319 131.816C86.6786 131.547 86.3506 131.247 86.0518 130.918Z" fill="#D1D1D1"/>
<path d="M238.43 259.618C229.332 259.203 220.726 257.164 212.946 251.923C213.657 251.689 214.4 251.57 215.149 251.569C216.858 251.389 218.578 251.321 220.296 251.363C221.622 251.384 222.925 251.702 224.111 252.294C228.609 254.565 233.132 256.786 237.645 259.027C237.921 259.164 238.192 259.31 238.465 259.452L238.43 259.618Z" fill="#F2F2EA"/>
<path d="M80.8286 126.654C81.8225 126.261 82.8463 125.949 83.8902 125.72C86.6956 124.995 89.5492 124.472 92.4291 124.153C93.1554 124.078 93.8763 123.952 94.602 123.869C95.0267 123.821 95.1271 123.924 95.0455 124.326C94.8273 125.4 94.5837 126.469 94.3671 127.543C94.285 127.95 94.0721 128.075 93.6616 128.069C91.0887 128.006 88.537 128.549 86.2119 129.652C85.8594 129.882 85.4346 129.975 85.0183 129.913C84.6019 129.85 84.2229 129.637 83.9532 129.314C82.9876 128.422 81.9531 127.605 80.8286 126.654Z" fill="#E9E9E9"/>
<path d="M230.216 295.444C229.679 294.035 228.899 292.731 227.91 291.592C226.293 289.548 224.03 288.114 221.492 287.524C219.953 287.211 218.422 286.859 216.885 286.538C216.515 286.447 216.157 286.313 215.819 286.138C215.782 286.053 215.812 286.004 215.888 286.017C217.11 286.216 218.353 286.129 219.579 286.282C220.334 286.372 221.096 286.367 221.849 286.269C223.359 286.021 224.908 286.216 226.309 286.831C227.709 287.446 228.902 288.454 229.741 289.733C230.157 290.321 230.445 290.989 230.587 291.695C230.729 292.401 230.721 293.129 230.564 293.832C230.508 294.381 230.392 294.921 230.216 295.444Z" fill="#3C1F1B"/>
<path d="M173.823 306.317C173.86 306.369 173.909 306.411 173.966 306.44C174.023 306.468 174.086 306.482 174.149 306.48C173.844 306.657 173.5 306.755 173.148 306.765C173.313 306.54 173.552 306.381 173.823 306.317Z" fill="#847366"/>
<path d="M182.438 269.069C182.362 276.307 181.122 283.487 178.765 290.331C178.514 291.046 178.059 291.671 177.456 292.128C174.547 294.556 171.132 296.302 167.461 297.239C164.362 297.986 161.16 298.208 157.987 297.896C154.908 297.561 151.882 296.846 148.979 295.767C147.784 295.357 146.531 295.119 145.319 294.753C139.072 292.817 133.117 290.037 127.622 286.489C122.609 283.289 117.904 279.631 113.567 275.561C105.366 267.855 98.2345 259.084 92.3623 249.483C91.8487 248.654 91.8422 248.644 92.575 247.997C95.9753 244.991 99.7008 242.374 103.682 240.195C110.108 236.716 117.089 234.378 124.314 233.286C127.962 232.723 131.645 232.423 135.336 232.387C143.144 232.343 150.934 233.17 158.559 234.853C163.491 235.887 168.36 237.2 173.142 238.786C173.168 238.798 173.195 238.806 173.223 238.81C174.347 238.794 174.83 239.617 175.385 240.399C176.792 242.543 177.905 244.866 178.694 247.306C180.08 251.114 181.087 255.05 181.701 259.056C182.003 260.999 182.209 262.956 182.319 264.925C182.389 266.164 182.401 267.4 182.438 269.069Z" fill="#E5E4E1"/>
<path d="M154.915 218.995C153.789 218.873 152.686 218.76 151.584 218.633C148.9 218.324 146.216 218.012 143.532 217.696C140.792 217.376 138.053 217.055 135.313 216.733C132.713 216.432 130.111 216.14 127.511 215.839C124.743 215.519 121.975 215.197 119.207 214.872C116.607 214.572 114.006 214.275 111.405 213.98C108.692 213.67 105.98 213.358 103.267 213.046C100.611 212.739 97.9554 212.429 95.3 212.117C92.5601 211.797 89.8203 211.476 87.0806 211.154C84.4805 210.852 81.88 210.554 79.279 210.259C78.1886 210.136 77.098 210.006 76.0039 209.928C75.5894 209.899 75.5775 209.628 75.5198 209.369C75.117 207.557 74.6905 205.75 74.334 203.929C73.5131 199.819 72.9253 195.666 72.5732 191.49C72.4195 189.582 72.3088 187.674 72.2248 185.762C72.1592 184.27 72.105 182.778 72.1484 181.287C72.2042 179.376 72.3052 177.465 72.4343 175.557C72.5281 174.839 72.8554 174.171 73.3658 173.656C73.8762 173.142 74.5415 172.81 75.2593 172.71C76.3834 172.594 77.5193 172.687 78.6095 172.985C82.8866 173.992 87.0565 175.41 91.0609 177.219C98.4913 180.476 105.701 184.214 112.645 188.41C126.897 196.875 140.422 206.51 153.08 217.214C153.682 217.723 154.268 218.251 154.857 218.774C154.89 218.804 154.886 218.875 154.915 218.995Z" fill="#E5E4E1"/>
<path d="M173.23 237.675C172.221 237.388 171.306 237.142 170.399 236.867C165.34 235.332 160.197 234.083 154.997 233.128C152.486 232.666 149.958 232.287 147.412 232.031C145.343 231.822 143.274 231.662 141.2 231.515C138.72 231.338 136.244 231.379 133.769 231.416C131.694 231.446 129.622 231.647 127.553 231.866C124.76 232.165 121.987 232.631 119.25 233.263C113.861 234.484 108.657 236.414 103.775 239.004C100.509 240.723 97.4174 242.753 94.5413 245.065C93.6465 245.791 92.7547 246.522 91.866 247.256C91.3321 247.695 91.243 247.697 90.9132 247.134C90.2301 245.969 89.5507 244.801 88.8974 243.619C87.4938 241.079 86.1872 238.487 84.94 235.868C83.2095 232.234 81.6411 228.53 80.2348 224.756C78.7884 220.878 77.5185 216.944 76.4251 212.954C76.292 212.466 76.1541 211.979 76.0459 211.485C75.9494 211.044 76.0819 210.874 76.5208 210.955C77.0501 211.052 77.5823 211.068 78.1124 211.126C79.9818 211.333 81.8493 211.558 83.7167 211.783C85.918 212.049 88.1172 212.333 90.3195 212.59C91.9928 212.786 93.6708 212.942 95.3443 213.136C97.0448 213.334 98.7408 213.572 100.442 213.768C102.171 213.966 103.905 214.123 105.635 214.321C107.336 214.517 109.033 214.751 110.733 214.95C112.407 215.146 114.084 215.308 115.758 215.502C117.458 215.7 119.155 215.927 120.855 216.127C122.054 216.268 123.257 216.377 124.457 216.514C125.656 216.652 126.852 216.813 128.051 216.954C129.222 217.092 130.395 217.214 131.567 217.351C133.351 217.559 135.134 217.78 136.918 217.986C138.09 218.122 139.264 218.233 140.436 218.37C142.192 218.574 143.947 218.795 145.703 218.999C146.875 219.135 148.049 219.248 149.221 219.384C150.475 219.53 151.726 219.708 152.982 219.84C154.043 219.951 155.105 220.047 156.163 220.194C156.495 220.245 156.802 220.401 157.04 220.638C160.636 223.848 164.083 227.213 167.414 230.693C169.193 232.496 170.852 234.413 172.38 236.433C172.732 236.796 173.019 237.216 173.23 237.675Z" fill="#3C1F1B"/>
<path d="M66.4745 173.608C66.1896 173.512 65.9517 173.311 65.8085 173.047C64.2654 171.007 62.7217 168.967 61.1993 166.912C60.6119 166.121 60.0999 165.276 59.67 164.39C59.5318 164.113 59.4196 163.824 59.335 163.527C59.1801 162.951 59.3606 162.718 59.9502 162.748C60.4847 162.782 61.0067 162.925 61.4837 163.168C63.0251 163.987 64.4656 164.983 65.7757 166.137C66.1231 166.422 66.4627 166.717 66.814 166.998C67.0203 167.147 67.1836 167.347 67.2873 167.58C67.3909 167.812 67.4313 168.068 67.4042 168.321C67.3854 168.769 67.3368 169.216 67.2588 169.658C67.0448 170.645 66.888 171.643 66.6998 172.636C66.6389 172.957 66.5527 173.274 66.4745 173.608Z" fill="#E9E9E9"/>
<path d="M172.82 148.434C172.82 147.984 172.84 147.533 172.815 147.085C172.789 146.636 172.989 146.497 173.413 146.509C174.115 146.529 174.82 146.482 175.521 146.518C175.776 146.503 176.032 146.544 176.269 146.638C176.507 146.732 176.722 146.877 176.898 147.062C177.074 147.247 177.208 147.468 177.29 147.71C177.372 147.953 177.401 148.21 177.374 148.464C177.39 148.711 177.355 148.959 177.271 149.192C177.187 149.425 177.056 149.638 176.886 149.819C176.716 149.999 176.511 150.142 176.284 150.24C176.056 150.338 175.811 150.388 175.563 150.387C174.835 150.436 174.102 150.399 173.371 150.423C172.962 150.436 172.822 150.25 172.832 149.867C172.846 149.389 172.836 148.911 172.836 148.434L172.82 148.434Z" fill="#6A443F"/>
<path d="M172.794 143.487C172.865 143.059 172.545 142.412 172.935 142.046C173.28 141.721 173.901 141.946 174.4 141.924C174.792 141.901 175.185 141.907 175.577 141.942C175.946 141.955 176.297 142.105 176.562 142.361C176.828 142.618 176.989 142.964 177.015 143.333C177.075 143.71 177.004 144.096 176.813 144.427C176.623 144.758 176.325 145.014 175.969 145.152C175.376 145.328 174.755 145.385 174.14 145.319C172.801 145.33 172.801 145.323 172.794 143.998C172.793 143.858 172.794 143.718 172.794 143.487Z" fill="#6A443F"/>
<path d="M219.632 150.073C219.365 150.108 219.094 150.083 218.838 149.999C218.583 149.915 218.349 149.774 218.155 149.587C217.962 149.401 217.812 149.173 217.719 148.92C217.625 148.668 217.59 148.398 217.615 148.13C217.594 147.855 217.632 147.579 217.726 147.32C217.82 147.061 217.968 146.825 218.16 146.628C218.352 146.43 218.584 146.276 218.84 146.175C219.096 146.073 219.371 146.027 219.646 146.04C219.921 146.026 220.196 146.07 220.453 146.169C220.71 146.267 220.943 146.419 221.138 146.613C221.333 146.808 221.485 147.041 221.584 147.298C221.683 147.555 221.727 147.83 221.713 148.105C221.741 148.38 221.705 148.658 221.608 148.917C221.511 149.176 221.356 149.41 221.156 149.6C220.955 149.79 220.713 149.932 220.449 150.014C220.185 150.096 219.905 150.116 219.632 150.073Z" fill="#6A443F"/>
<path d="M221.39 143.07C221.414 143.318 221.382 143.568 221.298 143.802C221.213 144.036 221.078 144.249 220.903 144.425C220.727 144.601 220.514 144.736 220.28 144.821C220.046 144.905 219.796 144.937 219.548 144.914C219.307 144.916 219.069 144.868 218.847 144.773C218.626 144.678 218.427 144.538 218.262 144.362C218.098 144.186 217.972 143.978 217.892 143.751C217.812 143.523 217.78 143.282 217.798 143.041C217.776 142.801 217.805 142.559 217.885 142.332C217.965 142.104 218.093 141.897 218.261 141.723C218.429 141.55 218.633 141.416 218.858 141.329C219.083 141.242 219.324 141.205 219.565 141.22C219.812 141.198 220.061 141.231 220.294 141.317C220.527 141.402 220.739 141.538 220.913 141.715C221.088 141.892 221.221 142.105 221.303 142.339C221.386 142.573 221.416 142.823 221.39 143.07Z" fill="#6A443F"/>
<path d="M182.406 143.909C182.406 143.376 182.414 142.843 182.403 142.31C182.395 141.972 182.506 141.781 182.878 141.784C183.692 141.791 184.51 141.732 185.319 141.793C185.847 141.797 186.352 142.005 186.729 142.374C187.107 142.743 187.326 143.244 187.342 143.772C187.382 144.052 187.362 144.337 187.281 144.608C187.2 144.88 187.062 145.13 186.874 145.342C186.687 145.554 186.456 145.723 186.197 145.836C185.938 145.95 185.657 146.006 185.374 146C184.562 146.044 183.746 146.022 182.934 146.061C182.567 146.079 182.418 145.956 182.425 145.592C182.437 145.031 182.428 144.47 182.428 143.909H182.406Z" fill="#6A443F"/>
<path d="M243.665 146.966C243.633 146.461 243.79 145.961 244.107 145.566C244.424 145.171 244.878 144.909 245.378 144.831C245.853 144.734 246.347 144.824 246.757 145.082C247.167 145.34 247.462 145.746 247.58 146.216C247.843 146.966 247.833 147.784 247.554 148.527C247.456 148.852 247.264 149.142 247.002 149.359C246.74 149.575 246.421 149.71 246.083 149.746C245.72 149.811 245.346 149.763 245.011 149.61C244.676 149.457 244.395 149.206 244.206 148.889C243.834 148.318 243.645 147.647 243.665 146.966Z" fill="#6A443F"/>
<path d="M200.505 147.575C200.441 147.053 200.583 146.526 200.902 146.107C201.22 145.687 201.689 145.409 202.21 145.331C202.7 145.232 203.208 145.331 203.625 145.605C204.043 145.88 204.335 146.308 204.438 146.796C204.698 147.606 204.638 148.486 204.27 149.253C204.133 149.522 203.933 149.754 203.687 149.929C203.441 150.103 203.156 150.215 202.857 150.254C202.557 150.293 202.253 150.259 201.97 150.154C201.687 150.049 201.434 149.876 201.233 149.651C200.742 149.073 200.483 148.333 200.505 147.575Z" fill="#6A443F"/>
<path d="M78.6621 131.285C79.5419 131.27 80.3957 131.583 81.0573 132.163C81.2125 132.266 81.3387 132.407 81.424 132.573C81.5092 132.738 81.5505 132.923 81.5439 133.109C81.5374 133.295 81.4832 133.476 81.3866 133.636C81.2899 133.795 81.1541 133.927 80.992 134.018C80.452 134.437 79.7767 134.642 79.0952 134.594C78.3869 134.607 77.6903 134.412 77.0918 134.033C76.8363 133.911 76.62 133.72 76.4675 133.482C76.315 133.244 76.2324 132.967 76.229 132.684C76.2607 132.125 76.7058 131.823 77.191 131.609C77.6477 131.382 78.1528 131.271 78.6621 131.285Z" fill="#E9E9E9"/>
</g>
<g style="mix-blend-mode:hue">
<rect width="320" height="320" fill="#00BF13"/>
</g>
</g>
<defs>
<clipPath id="clip0_1444_915">
<rect width="320" height="320" fill="white"/>
</clipPath>
<clipPath id="clip1_1444_915">
<rect width="276" height="198" fill="white" transform="translate(44 122)"/>
</clipPath>
</defs>
</svg>
