<svg width="320" height="320" viewBox="0 0 320 320" fill="none" xmlns="http://www.w3.org/2000/svg">
<g clip-path="url(#clip0_1444_1074)">
<rect width="320" height="320" fill="#DCFFE0"/>
<g clip-path="url(#clip1_1444_1074)">
<path d="M25.9879 319.775H0V228.69C2.09691 223.133 4.61223 217.74 6.64291 212.164C7.88203 208.664 8.93526 205.101 9.7982 201.49C11.0046 196.632 12.2012 191.77 13.4808 186.93C14.7111 182.277 15.8609 177.604 17.0448 172.94C19.8339 161.952 22.6629 150.974 25.4102 139.976C25.9442 137.672 26.8382 135.467 28.0592 133.442C29.7954 130.836 32.3474 128.88 35.315 127.88C39.1729 126.397 43.2619 125.857 47.2955 125.117C59.6292 122.857 71.9621 120.592 84.2942 118.323C87.6313 117.707 90.9688 117.095 94.307 116.486C94.5853 116.386 94.8835 116.353 95.1768 116.392C95.47 116.431 95.7497 116.539 95.9924 116.708C96.2351 116.877 96.4338 117.102 96.5718 117.364C96.7097 117.625 96.783 117.916 96.7855 118.212C96.946 119.2 97.0363 120.198 97.0557 121.198C97.2249 124.904 97.4747 128.606 97.7109 132.306C97.9409 135.91 98.1746 139.516 98.3906 143.121C98.6143 146.854 98.8923 150.586 99.0534 154.325C99.0615 155.68 99.154 157.033 99.3305 158.376C99.4547 158.925 99.4139 159.498 99.2133 160.024C99.0128 160.55 98.6614 161.005 98.2032 161.332C94.1789 164.678 90.2141 168.094 86.2286 171.486C79.3895 177.307 72.528 183.101 65.7102 188.947C64.9495 189.599 64.1572 190.212 63.3731 190.835C61.215 192.554 59.6227 194.881 58.8025 197.516C56.7711 203.625 55.3812 209.901 53.7164 216.105C50.3936 228.488 47.1001 240.879 43.836 253.278C41.4543 262.269 39.0696 271.259 36.6818 280.249C33.7757 291.205 30.8646 302.161 27.9486 313.115C27.456 314.956 26.9626 316.796 26.4951 318.644C26.4421 319.063 26.2656 319.456 25.9879 319.775Z" fill="#6A443F"/>
<path d="M320 109.698V134.698C319.526 135.044 318.948 135.218 318.361 135.19C303.533 136.389 288.824 138.473 274.188 141.097C264.453 142.842 254.783 144.899 245.162 147.194C230.661 150.653 216.339 154.73 202.227 159.53C193.322 162.56 184.508 165.841 175.917 169.677C172.931 171.011 170.849 169.521 170.09 167.046C169.706 165.511 169.476 163.941 169.403 162.36C168.389 152.308 167.355 142.259 166.301 132.211C166.253 131.762 166.244 131.309 166.188 130.86C166.049 129.932 166.101 128.986 166.341 128.079C166.58 127.172 167.002 126.324 167.58 125.585C168.158 124.847 168.881 124.234 169.704 123.784C170.527 123.334 171.433 123.057 172.367 122.969C177.375 122.427 182.398 122.015 187.415 121.555C192.689 121.073 197.962 120.566 203.237 120.091C208.512 119.617 213.786 119.123 219.06 118.641C224.335 118.16 229.608 117.661 234.882 117.182C240.157 116.703 245.431 116.215 250.705 115.734C255.947 115.255 261.189 114.771 266.43 114.279C270.996 113.855 275.562 113.437 280.129 113.027C284.664 112.62 289.195 112.165 293.731 111.767C298.299 111.366 302.861 110.908 307.429 110.511C311.193 110.184 314.954 109.818 318.716 109.469C318.933 109.406 319.162 109.394 319.385 109.434C319.607 109.473 319.818 109.564 320 109.698Z" fill="#E5E4E1"/>
<path d="M74.8604 319.774H68.8483C68.4491 318.722 68.2821 317.595 68.359 316.472C68.0886 312.387 67.8551 308.299 67.6119 304.213C67.4376 301.284 67.1984 298.357 67.1338 295.423C66.9263 291.687 66.4085 287.974 65.5859 284.323C64.6231 278.752 63.1024 273.291 61.0467 268.024C60.1878 265.897 59.1311 263.855 57.8906 261.926C57.4839 261.262 56.8995 260.724 56.2034 260.374C56.0105 260.252 55.7944 260.172 55.5688 260.138C55.3432 260.105 55.113 260.118 54.8929 260.178C54.6728 260.238 54.4676 260.343 54.2903 260.487C54.113 260.63 53.9675 260.809 53.8629 261.012C53.5569 261.508 53.3309 262.048 53.1931 262.614C50.5088 271.853 47.8202 281.09 45.1273 290.326C42.3819 299.749 39.6354 309.171 36.8878 318.593C36.8013 319.039 36.5852 319.45 36.2665 319.774H26.9574C26.5286 319.257 26.8058 318.715 26.9426 318.205C28.3909 312.81 29.8047 307.405 31.2434 302.007C33.0729 295.143 34.8978 288.277 36.7181 281.41C39.2227 271.986 41.7245 262.56 44.2233 253.134C46.4967 244.584 48.766 236.032 51.0313 227.479C52.5938 221.579 54.2463 215.702 55.6922 209.773C56.7261 205.533 57.9754 201.363 59.2677 197.199C60.1653 194.551 61.8689 192.251 64.1396 190.62C66.9813 188.381 69.6865 185.976 72.4396 183.632C76.6689 180.03 80.9002 176.431 85.1335 172.833C86.2403 171.891 87.3314 170.931 88.455 170.008C88.803 169.723 89.1371 169.396 89.6521 169.486C89.7298 169.516 89.7957 169.571 89.8401 169.642C89.8845 169.713 89.905 169.796 89.8987 169.879C89.7633 170.349 89.4779 170.761 89.0862 171.052C84.2248 175.876 79.5756 180.905 74.78 185.793C72.9302 187.678 71.0873 189.583 69.3922 191.628C67.9222 193.313 67.002 195.408 66.755 197.631C65.8078 206.362 64.7138 215.076 63.7278 223.802C63.6899 224.137 63.5318 224.497 63.8151 224.876C64.2939 224.659 64.3406 224.173 64.4754 223.781C65.5451 220.683 67.343 217.886 69.7181 215.626C70.6932 214.679 71.798 213.875 72.9994 213.238C74.0524 212.683 74.3889 212.87 74.4084 214.087C74.4491 216.638 74.3349 219.193 74.4381 221.741C74.7988 230.651 74.3938 239.567 74.656 248.473C74.907 256.999 74.5848 265.525 74.8429 274.043C75.111 282.891 74.7822 291.741 75.0489 300.582C75.2262 306.46 75.1069 312.334 75.1936 318.208C75.2469 318.478 75.2449 318.756 75.1876 319.025C75.1304 319.295 75.019 319.55 74.8604 319.774Z" fill="#3C1F1B"/>
<path d="M320 99.0387V108.729C319.435 109.114 318.759 109.301 318.076 109.262C310.52 109.962 302.963 110.659 295.406 111.352C289.392 111.897 283.378 112.447 277.364 113.002C270.065 113.684 262.764 114.34 255.465 115.028C249.453 115.595 243.437 116.127 237.423 116.675C230.767 117.282 224.113 117.921 217.455 118.521C211.472 119.06 205.49 119.608 199.509 120.163C192.917 120.775 186.323 121.367 179.733 121.996C174.46 122.498 169.182 122.947 163.909 123.443C158.669 123.937 153.424 124.39 148.184 124.896C143.684 125.331 139.177 125.706 134.676 126.132C128.599 126.708 122.517 127.233 116.441 127.819C112.937 128.157 109.428 128.444 105.925 128.788C104.713 128.907 104.196 128.485 104.026 127.256C103.632 124.41 103.22 121.566 102.851 118.716C102.681 117.404 102.906 117.078 104.247 116.97C107.562 116.703 110.875 116.401 114.189 116.123C119.145 115.708 124.1 115.286 129.055 114.858C132.465 114.563 135.876 114.275 139.288 113.993C143.503 113.641 147.716 113.265 151.932 112.915C155.311 112.634 158.689 112.347 162.067 112.053C166.25 111.691 170.434 111.353 174.616 110.983C177.993 110.684 181.373 110.408 184.752 110.125C189.031 109.765 193.31 109.389 197.589 109.029C201.708 108.683 205.826 108.335 209.945 107.983C214.963 107.553 219.982 107.124 225.001 106.697C229.055 106.348 233.111 106.016 237.164 105.666C242.247 105.227 247.332 104.807 252.414 104.368C257.337 103.944 262.259 103.528 267.183 103.121C272.138 102.703 277.093 102.279 282.047 101.849C286.068 101.5 290.091 101.17 294.113 100.827C299.228 100.39 304.344 99.9539 309.459 99.5178C312.547 99.2514 315.637 98.9988 318.725 98.7255C318.947 98.6788 319.177 98.6827 319.398 98.7369C319.619 98.7911 319.824 98.8943 320 99.0387Z" fill="#3C1F1B"/>
<path d="M320 99.0388C318.551 99.0717 317.106 99.1871 315.671 99.3844C314.87 99.4713 314.066 99.4439 313.261 99.5676C312.182 99.7333 311.078 99.7252 309.986 99.8194C308.095 99.9826 306.205 100.162 304.315 100.345C303.514 100.422 302.711 100.455 301.908 100.541C299.956 100.751 297.99 100.823 296.032 100.987C294.237 101.138 292.446 101.341 290.652 101.515C289.787 101.599 288.919 101.613 288.051 101.71C286.164 101.921 284.261 101.985 282.368 102.15C279.804 102.374 277.246 102.682 274.679 102.86C273.586 102.936 272.497 103.059 271.402 103.119C270.215 103.185 269.031 103.323 267.847 103.448C267.014 103.536 266.178 103.538 265.341 103.636C263.456 103.858 261.553 103.923 259.66 104.085C257.832 104.241 256.009 104.452 254.182 104.613C253.284 104.692 252.382 104.763 251.485 104.812C249.586 104.917 247.699 105.144 245.803 105.276C243.492 105.436 241.183 105.649 238.874 105.848C236.597 106.044 234.321 106.249 232.042 106.43C229.796 106.608 227.552 106.819 225.307 107.008C223.029 107.2 220.751 107.382 218.474 107.587C216.166 107.795 213.856 107.988 211.546 108.167C208.979 108.364 206.421 108.664 203.856 108.889C201.964 109.055 200.065 109.157 198.172 109.317C196.28 109.477 194.392 109.678 192.502 109.851C191.539 109.939 190.575 109.999 189.612 110.081C188.33 110.191 187.048 110.307 185.767 110.428C184.901 110.509 184.033 110.525 183.165 110.623C181.278 110.836 179.371 110.862 177.485 111.077C175.693 111.281 173.888 111.316 172.102 111.589C171.277 111.716 170.435 111.692 169.599 111.785C167.711 111.994 165.809 112.066 163.916 112.226C162.057 112.384 160.201 112.586 158.343 112.762C157.51 112.84 156.674 112.853 155.838 112.947C153.951 113.16 152.044 113.187 150.157 113.402C148.366 113.606 146.562 113.649 144.775 113.909C143.918 114.034 143.043 114.029 142.175 114.118C140.286 114.313 138.385 114.389 136.492 114.553C133.863 114.78 131.238 115.057 128.609 115.285C126.717 115.449 124.819 115.551 122.926 115.713C121.098 115.869 119.275 116.072 117.449 116.244C116.584 116.325 115.716 116.344 114.848 116.439C112.96 116.647 111.058 116.718 109.165 116.879C107.338 117.034 105.515 117.243 103.689 117.405C103.221 117.447 103.036 117.519 103.125 118.094C103.555 120.857 103.912 123.631 104.301 126.4C104.324 126.851 104.37 127.3 104.438 127.745C104.565 128.272 104.821 128.534 105.377 128.482C106.245 128.447 107.111 128.367 107.971 128.243C108.927 128.054 109.894 128.067 110.852 127.955C113.344 127.663 115.855 127.54 118.355 127.31C120.725 127.092 123.088 126.805 125.458 126.582C127.252 126.413 129.054 126.315 130.849 126.151C132.514 125.999 134.174 125.793 135.837 125.626C136.606 125.548 137.376 125.522 138.147 125.432C139.936 125.222 141.746 125.187 143.535 124.978C145.9 124.702 148.278 124.574 150.641 124.273C152.395 124.049 154.17 123.991 155.933 123.831C157.695 123.671 159.452 123.458 161.214 123.305C162.047 123.233 162.881 123.169 163.715 123.088C166.149 122.851 168.592 122.699 171.026 122.458C173.139 122.249 175.254 122.055 177.369 121.876C179.741 121.678 182.103 121.376 184.472 121.153C186.267 120.984 188.069 120.891 189.864 120.723C192.233 120.502 194.596 120.198 196.968 120.017C197.931 119.943 198.892 119.839 199.855 119.765C201.715 119.622 203.568 119.396 205.426 119.236C206.26 119.165 207.094 119.101 207.927 119.019C210.362 118.78 212.805 118.63 215.239 118.389C217.352 118.179 219.467 117.986 221.582 117.807C223.954 117.609 226.316 117.307 228.685 117.084C230.48 116.915 232.281 116.818 234.077 116.654C235.806 116.497 237.527 116.229 239.259 116.133C240.965 116.038 242.655 115.796 244.358 115.684C246.122 115.568 247.877 115.324 249.639 115.167C250.473 115.093 251.307 115.033 252.141 114.951C254.574 114.709 257.017 114.561 259.451 114.319C261.565 114.11 263.681 113.935 265.795 113.734C268.581 113.47 271.37 113.226 274.156 112.963C276.303 112.761 278.45 112.564 280.597 112.374C282.712 112.188 284.825 111.976 286.941 111.799C289.312 111.6 291.675 111.298 294.044 111.075C295.839 110.906 297.645 110.845 299.434 110.636C301.095 110.441 302.764 110.331 304.426 110.14C305.412 110.028 306.413 109.949 307.409 109.875C309.236 109.74 311.058 109.528 312.882 109.341C313.586 109.269 314.292 109.267 315 109.175C316.658 108.959 318.332 108.869 320 108.729V109.698C318.297 109.847 316.593 109.99 314.89 110.147C313.091 110.312 311.294 110.491 309.495 110.661C306.926 110.903 304.356 111.142 301.786 111.38C300.148 111.531 298.508 111.673 296.87 111.825C294.3 112.062 291.731 112.307 289.162 112.543C287.459 112.699 285.754 112.839 284.051 112.995C281.578 113.223 279.106 113.462 276.633 113.691C274.898 113.851 273.161 113.997 271.426 114.158C268.953 114.387 266.481 114.627 264.008 114.856C262.273 115.016 260.536 115.16 258.801 115.32C256.327 115.549 253.855 115.791 251.382 116.019C249.647 116.18 247.911 116.322 246.176 116.482C243.702 116.712 241.231 116.956 238.757 117.184C236.99 117.347 235.221 117.487 233.454 117.648C230.98 117.874 228.507 118.112 226.034 118.342C224.396 118.495 222.757 118.646 221.118 118.796C218.516 119.037 215.915 119.284 213.313 119.52C210.871 119.742 208.427 119.946 205.985 120.17C203.544 120.394 201.104 120.636 198.663 120.863C196.928 121.024 195.191 121.168 193.456 121.329C190.983 121.558 188.511 121.798 186.039 122.028C184.336 122.186 182.632 122.332 180.928 122.486C178.037 122.748 175.131 122.909 172.258 123.309C171.228 123.456 170.241 123.824 169.366 124.388C168.491 124.952 167.748 125.699 167.189 126.577C166.48 127.751 166.222 129.142 166.464 130.492C166.636 132.029 166.802 133.566 166.965 135.104C167.213 137.442 167.459 139.781 167.702 142.12C167.922 144.268 168.122 146.417 168.343 148.565C168.64 151.449 168.958 154.331 169.248 157.215C169.484 159.556 169.684 161.9 169.916 164.241C170.011 165.56 170.325 166.855 170.846 168.071C171.231 168.801 171.868 169.366 172.639 169.661C173.41 169.955 174.262 169.958 175.036 169.67C177.689 168.487 180.38 167.388 183.072 166.294C188.545 164.068 194.086 162.022 199.664 160.071C204.693 158.312 209.754 156.652 214.847 155.093C220.523 153.348 226.231 151.712 231.97 150.185C237.177 148.795 242.403 147.484 247.649 146.252C254.151 144.731 260.679 143.333 267.234 142.057C272.141 141.103 277.06 140.217 281.991 139.4C286.51 138.659 291.038 137.981 295.577 137.367C300.018 136.758 304.47 136.24 308.921 135.717C311.258 135.443 313.609 135.279 315.954 135.066C317.303 134.943 318.651 134.82 320 134.698V135.667C319.607 136.012 319.095 136.192 318.573 136.166C311.768 136.618 305.003 137.45 298.244 138.322C289.91 139.397 281.611 140.698 273.347 142.227C259.009 144.871 244.791 148.048 230.718 151.874C221.36 154.418 212.086 157.235 202.896 160.325C196.84 162.373 190.877 164.683 184.838 166.778C183.987 167.134 183.119 167.447 182.243 167.738C181.959 167.862 181.667 167.967 181.369 168.051C181.661 167.979 181.944 167.876 182.214 167.744C183.164 167.473 184.065 167.069 184.996 166.746C191.463 164.286 198.1 162.365 204.762 160.533C216.761 157.234 228.877 154.43 241.107 152.12C252.537 149.947 264.026 148.152 275.574 146.736C281.538 146.008 287.512 145.389 293.497 144.878C297.708 144.515 301.926 144.225 306.151 144.007C310.276 143.791 314.399 143.557 318.53 143.475C318.785 143.426 319.047 143.43 319.299 143.487C319.552 143.544 319.791 143.653 320 143.806V144.775C315.605 144.822 311.216 145.032 306.829 145.294C304.54 145.431 302.25 145.574 299.962 145.725C295.545 146.015 291.139 146.421 286.734 146.846C282.394 147.265 278.061 147.749 273.736 148.3C269.476 148.84 265.222 149.429 260.975 150.066C255.387 150.903 249.818 151.853 244.262 152.881C230.699 155.392 217.26 158.436 203.971 162.138C194.325 164.825 184.791 167.857 175.41 171.367C174.72 171.614 173.973 171.658 173.259 171.491C172.545 171.324 171.894 170.955 171.385 170.428C170.738 169.838 170.219 169.121 169.861 168.322C169.794 168.181 169.705 168.051 169.59 167.855C168.878 168.918 167.914 169.788 166.783 170.386C165.194 171.268 163.399 171.712 161.582 171.67C153.89 171.76 146.199 171.857 138.508 171.963C132.498 172.048 126.488 172.157 120.478 172.255C120.381 172.262 120.284 172.262 120.187 172.257C119.697 172.202 119.508 172.408 119.476 172.909C119.367 174.616 119.167 176.319 119.094 178.027C119.089 178.837 118.914 179.637 118.58 180.374C118.246 181.112 117.76 181.771 117.155 182.309C116.948 182.485 116.786 182.707 116.683 182.957C116.58 183.208 116.538 183.479 116.56 183.749C116.59 185.945 116.562 188.141 116.584 190.337C116.597 190.671 116.539 191.005 116.411 191.314C116.284 191.624 116.092 191.902 115.847 192.13C112.408 195.59 109.009 199.089 105.592 202.571C104.76 203.429 103.743 204.086 102.619 204.491C98.6362 205.948 94.4895 206.809 90.4194 207.946C86.5645 209.022 82.6871 210.018 78.8256 211.071C77.7133 211.411 76.6263 211.828 75.5728 212.321C75.4071 212.37 75.2643 212.476 75.1706 212.621C75.077 212.766 75.0386 212.94 75.0627 213.111C75.1628 223.607 75.2477 234.102 75.3173 244.598C75.3834 253.382 75.4487 262.166 75.5133 270.95C75.5792 279.766 75.6454 288.582 75.712 297.398C75.7655 304.503 75.8184 311.608 75.8708 318.712C75.8734 319.066 75.8445 319.421 75.8303 319.775H74.8606C74.8547 314.125 74.9758 308.472 74.8131 302.827C74.5676 294.308 74.8533 285.788 74.6236 277.273C74.3851 268.431 74.6601 259.588 74.4261 250.751C74.2031 242.329 74.4428 233.906 74.2296 225.488C74.1291 221.52 74.1473 217.555 74.093 213.589C74.0913 213.462 74.0709 213.336 74.0522 213.134C73.3461 213.354 72.6839 213.696 72.0959 214.145C69.6001 215.889 67.545 218.191 66.0934 220.868C65.5278 221.956 65.0524 223.088 64.6721 224.254C64.581 224.495 64.5082 224.744 64.3999 224.977C64.2769 225.241 64.133 225.53 63.764 225.441C63.6742 225.429 63.5881 225.397 63.5118 225.348C63.4356 225.299 63.371 225.233 63.3227 225.157C63.2744 225.08 63.2435 224.993 63.2321 224.903C63.2208 224.813 63.2294 224.722 63.2571 224.636C63.3781 223.97 63.452 223.297 63.4784 222.622C63.663 221.22 63.8277 219.817 64.0017 218.414C64.1757 217.011 64.3573 215.61 64.5239 214.206C64.6793 212.898 64.8137 211.587 64.9677 210.278C65.2005 208.3 65.4474 206.324 65.6786 204.345C65.8389 202.973 65.9511 201.594 66.1421 200.225C66.2588 198.494 66.5097 196.773 66.8924 195.08C67.2672 193.944 67.8686 192.895 68.6604 191.997C69.9779 190.411 71.3611 188.883 72.7895 187.39C74.7528 185.337 76.8004 183.365 78.718 181.273C80.3338 179.51 82.0949 177.892 83.6959 176.122C85.5598 174.062 87.5622 172.14 89.4923 170.146C89.5973 170.025 89.6949 169.897 89.7844 169.764C89.8794 169.552 90.006 169.355 90.1599 169.181C90.0932 169.28 90.0072 169.364 89.9072 169.429C89.8071 169.493 89.695 169.537 89.5776 169.558C88.8942 169.986 88.2595 170.488 87.6849 171.054C85.1094 173.198 82.5596 175.373 80.013 177.551C77.515 179.687 75.042 181.853 72.5398 183.984C70.7497 185.509 68.8685 186.933 67.1407 188.524C65.5739 189.966 63.7801 191.131 62.3002 192.678C61.139 193.848 60.259 195.266 59.7267 196.826C58.5658 200.346 57.4409 203.879 56.5734 207.483C55.126 213.496 53.4536 219.449 51.8765 225.428C50.7922 229.539 49.7311 233.656 48.6402 237.765C47.1442 243.4 45.6206 249.027 44.1257 254.662C42.2591 261.698 40.401 268.736 38.5515 275.777C36.8789 282.098 35.2011 288.417 33.518 294.735C31.5756 302.051 29.6315 309.366 27.6858 316.681C27.3564 317.69 27.1128 318.725 26.9576 319.775H25.9879C26.0818 318.78 26.2979 317.801 26.6313 316.859C27.9834 311.681 29.3774 306.513 30.7523 301.341C32.9471 293.084 35.1397 284.826 37.3302 276.568C40.2224 265.661 43.1128 254.753 46.0013 243.845C48.844 233.125 51.6693 222.4 54.5525 211.691C55.1646 209.417 55.5556 207.092 56.2485 204.841C57.1778 201.821 58.0155 198.772 59.1046 195.802C59.5892 194.533 60.3238 193.374 61.2649 192.394C62.379 191.271 63.5647 190.221 64.8145 189.252C66.846 187.556 68.8562 185.836 70.8745 184.124C73.2621 182.1 75.649 180.075 78.0352 178.05C80.0022 176.378 81.9668 174.703 83.9291 173.025C86.2896 171.019 88.6524 169.015 91.0176 167.015C92.9605 165.364 94.9006 163.71 96.8379 162.053C97.4268 161.55 97.9837 161.005 98.6006 160.54C98.7879 160.415 98.9341 160.238 99.0208 160.03C99.1074 159.823 99.1307 159.594 99.0876 159.373C98.9365 158.22 99.0076 157.046 98.8594 155.903C98.6764 154.49 98.6952 153.071 98.5873 151.659C98.4647 150.056 98.3678 148.443 98.296 146.833C98.1828 144.292 97.956 141.756 97.7874 139.217C97.7105 138.059 97.7113 136.9 97.5977 135.741C97.4375 134.106 97.4404 132.457 97.3366 130.816C97.178 128.309 96.9806 125.804 96.8139 123.297C96.7263 121.979 96.6593 120.659 96.6031 119.339C96.5977 118.823 96.5264 118.309 96.3909 117.811C96.3637 117.617 96.2942 117.431 96.1873 117.266C96.0805 117.102 95.9389 116.963 95.7725 116.859C95.6061 116.756 95.4189 116.69 95.2242 116.666C95.0296 116.643 94.8321 116.662 94.6458 116.723C91.7618 117.26 88.8811 117.815 85.9958 118.344C81.5568 119.159 77.1138 119.951 72.675 120.766C69.0286 121.436 65.3878 122.136 61.741 122.803C56.9209 123.685 52.0907 124.513 47.2777 125.431C44.1753 126.023 41.0503 126.502 37.9902 127.319C34.8378 128.091 31.9442 129.68 29.6007 131.925C28.4571 133.203 27.5689 134.687 26.9841 136.299C25.9813 138.886 25.2024 141.554 24.6561 144.275C22.1619 154.052 19.6823 163.834 17.2173 173.619C15.0933 181.994 12.9467 190.363 10.841 198.742C9.86665 202.62 8.7239 206.447 7.61094 210.285C6.81626 213.025 5.58032 215.577 4.544 218.213C3.29284 221.396 1.97075 224.551 0.653 227.707C0.50581 228.059 0.53688 228.578 0 228.69V226.17C0.337 226.019 0.40141 225.68 0.52156 225.388C2.3401 220.97 4.21476 216.574 5.94173 212.121C6.75583 210.022 7.30949 207.819 7.93718 205.651C9.52561 200.163 10.8125 194.597 12.224 189.063C16.3954 172.71 20.5496 156.352 24.6865 139.99C26.0865 134.363 29.3446 129.373 33.9332 125.829C37.1027 123.2 40.8167 121.309 44.8067 120.292C47.0627 119.747 49.3744 119.431 51.6621 119.017C57.9855 117.876 64.3092 116.736 70.6333 115.598C77.9422 114.28 85.2512 112.962 92.5601 111.644C95.5474 111.106 98.5438 110.615 101.52 110.024C102.167 109.873 102.841 109.888 103.48 110.067C104.119 110.246 104.702 110.584 105.176 111.049C105.314 111.175 105.421 111.349 105.644 111.377C105.963 111.162 106.244 110.895 106.475 110.587C107.389 109.661 108.557 109.029 109.832 108.769C111.628 108.363 113.454 108.099 115.292 107.977C121.156 107.542 127.024 107.162 132.89 106.758C139.982 106.27 147.073 105.782 154.164 105.292C159.45 104.933 164.739 104.601 170.025 104.242C176.15 103.827 182.273 103.391 188.398 102.974C192.717 102.681 197.039 102.412 201.358 102.119C206.548 101.768 211.737 101.399 216.927 101.046C220.247 100.819 223.568 100.611 226.889 100.386C231.176 100.096 235.463 99.8005 239.749 99.501C243.005 99.2792 246.262 99.068 249.517 98.8472C253.901 98.5499 258.285 98.2504 262.669 97.9485C265.892 97.7298 269.116 97.5137 272.34 97.3005C276.756 97.0011 281.172 96.7001 285.588 96.3972C288.909 96.1732 292.23 95.962 295.55 95.737C299.838 95.4466 304.124 95.1523 308.411 94.8543C311.764 94.6271 315.117 94.4114 318.47 94.1857C318.986 94.2071 319.503 94.1444 320 94V95.1628C318.991 95.5958 317.89 95.7716 316.797 95.6744C312.159 95.9914 307.524 96.3409 302.885 96.6253C299.566 96.8287 296.249 97.0656 292.931 97.2834C288.679 97.5625 284.429 97.8676 280.178 98.1589C276.893 98.384 273.606 98.5971 270.321 98.8205C266.971 99.0483 263.621 99.2695 260.272 99.5079C256.987 99.7417 253.7 99.944 250.415 100.168C246.968 100.402 243.522 100.636 240.076 100.871C236.887 101.083 233.699 101.319 230.509 101.52C227.029 101.738 223.553 102.01 220.074 102.231C216.819 102.438 213.566 102.663 210.313 102.885C206.931 103.116 203.548 103.324 200.168 103.578C197.915 103.747 195.658 103.881 193.403 104.034C189.86 104.274 186.319 104.532 182.775 104.753C179.488 104.958 176.203 105.193 172.917 105.412C169.567 105.636 166.218 105.866 162.869 106.102C159.584 106.339 156.296 106.524 153.011 106.762C148.664 107.076 144.314 107.338 139.967 107.653C136.683 107.891 133.396 108.09 130.11 108.309C126.696 108.537 123.284 108.795 119.868 109.004C117.093 109.174 114.33 109.444 111.578 109.815C109.698 110.017 107.958 110.905 106.691 112.308C105.826 113.259 104.791 114.057 103.911 115.006C103.702 115.231 103.334 115.447 103.478 115.804C103.637 116.199 104.042 116.011 104.341 115.987C111.196 115.422 118.049 114.828 124.903 114.246C130.598 113.761 136.293 113.281 141.989 112.803C148.424 112.253 154.859 111.703 161.294 111.153C166.281 110.728 171.268 110.309 176.257 109.896C181.115 109.487 185.973 109.07 190.831 108.646C195.013 108.287 199.197 107.933 203.38 107.583C207.498 107.231 211.617 106.892 215.734 106.525C219.111 106.224 222.491 105.951 225.87 105.666C230.149 105.303 234.428 104.941 238.708 104.579C242.794 104.234 246.88 103.886 250.966 103.533C255.213 103.17 259.461 102.819 263.706 102.446C267.052 102.153 270.399 101.876 273.745 101.597C278.025 101.24 282.303 100.858 286.583 100.507C289.994 100.226 293.405 99.9381 296.815 99.6422C300.933 99.2871 305.052 98.9564 309.168 98.5842C312.416 98.2906 315.669 98.0557 318.917 97.7612C319.109 97.7281 319.306 97.7386 319.494 97.792C319.681 97.8455 319.854 97.9404 320 98.0698L320 99.0388Z" fill="#3C1F1B"/>
<path d="M67.879 319.775H37.2365C36.8757 319.184 37.2313 318.639 37.3841 318.105C39.2506 311.589 41.1557 305.083 43.0491 298.575C45.5195 290.082 47.993 281.591 50.4697 273.1C51.425 269.815 52.3942 266.533 53.3381 263.244C53.4094 262.996 53.4925 262.752 53.5753 262.507C54.4095 260.042 55.712 259.751 57.4285 261.739C58.7836 263.472 59.8596 265.407 60.6176 267.473C63.078 273.622 64.8039 280.04 65.7596 286.593C66.4453 291.283 66.8815 296.005 67.0662 300.74C67.3952 306.145 67.7594 311.549 68.0266 316.957C68.0731 317.9 68.5156 318.867 67.879 319.775Z" fill="#E9E9E9"/>
<path d="M320 98.0697C318.643 98.071 317.302 98.2618 315.955 98.3952C315.057 98.4842 314.155 98.5203 313.255 98.6065C310.56 98.8645 307.854 99.0132 305.157 99.2586C302.139 99.5332 299.12 99.7815 296.1 100.034C293.016 100.291 289.934 100.565 286.85 100.82C284.634 101.004 282.418 101.196 280.202 101.383C276.862 101.666 273.527 102 270.188 102.291C268.261 102.459 266.329 102.572 264.401 102.734C262.571 102.888 260.744 103.076 258.915 103.244C258.016 103.326 257.115 103.37 256.215 103.454C253.519 103.707 250.814 103.859 248.117 104.106C245.1 104.381 242.081 104.633 239.061 104.882C236.009 105.134 232.96 105.408 229.908 105.659C226.888 105.908 223.87 106.177 220.851 106.429C217.767 106.687 214.685 106.96 211.601 107.216C209.384 107.4 207.169 107.601 204.952 107.777C201.867 108.021 198.783 108.27 195.702 108.564C193.424 108.781 191.141 108.942 188.862 109.146C185.812 109.419 182.759 109.662 179.708 109.925C176.657 110.189 173.606 110.44 170.555 110.703C167.536 110.962 164.517 111.213 161.498 111.474C158.447 111.737 155.395 111.989 152.345 112.252C149.326 112.513 146.306 112.762 143.288 113.023C140.237 113.286 137.185 113.538 134.135 113.801C131.084 114.064 128.032 114.316 124.981 114.579C121.962 114.838 118.943 115.089 115.924 115.35C112.873 115.613 109.822 115.868 106.772 116.141C105.804 116.16 104.839 116.255 103.886 116.426C103.697 116.468 103.499 116.462 103.312 116.41C103.217 116.39 103.129 116.347 103.055 116.285C102.98 116.223 102.922 116.144 102.885 116.054C102.848 115.965 102.833 115.867 102.842 115.771C102.851 115.674 102.884 115.582 102.936 115.5C103.038 115.335 103.162 115.185 103.305 115.054C104.797 113.627 106.278 112.188 107.797 110.79C108.778 110.036 109.964 109.594 111.199 109.522C113.843 109.104 116.508 108.828 119.182 108.697C121.532 108.578 123.877 108.344 126.225 108.182C127.223 108.114 128.221 108.068 129.22 107.989C131.696 107.792 134.18 107.699 136.659 107.53C139.876 107.31 143.089 107.017 146.308 106.834C147.596 106.761 148.883 106.661 150.172 106.585C152.65 106.44 155.125 106.23 157.603 106.057C158.665 105.983 159.728 105.946 160.79 105.856C163.169 105.654 165.557 105.57 167.938 105.407C171.188 105.183 174.435 104.925 177.684 104.693C178.971 104.602 180.262 104.553 181.549 104.464C184.123 104.287 186.695 104.082 189.27 103.918C190.3 103.852 191.331 103.795 192.361 103.716C194.838 103.527 197.322 103.443 199.8 103.259C202.663 103.047 205.527 102.851 208.392 102.671C211.192 102.493 213.989 102.263 216.791 102.103C219.689 101.937 222.584 101.718 225.481 101.522C228.313 101.331 231.146 101.147 233.977 100.944C237.194 100.715 240.407 100.432 243.627 100.247C244.915 100.173 246.202 100.077 247.49 99.9986C250.001 99.8451 252.509 99.6323 255.019 99.4627C256.081 99.3909 257.144 99.3509 258.206 99.2628C260.617 99.063 263.037 98.9761 265.451 98.8101C268.669 98.5888 271.883 98.3292 275.1 98.0999C276.419 98.0058 277.742 97.9617 279.062 97.8703C281.507 97.701 283.951 97.5087 286.396 97.336C287.458 97.261 288.521 97.2276 289.584 97.1369C291.962 96.9339 294.35 96.8564 296.732 96.6862C299.757 96.4699 302.782 96.2677 305.809 96.0795C308.577 95.9051 311.341 95.6767 314.111 95.5124C316.074 95.396 318.03 95.1587 320 95.1626L320 98.0697Z" fill="#6A443F"/>
<path d="M184.657 166.698C190.07 164.584 195.513 162.55 201.006 160.649C208.39 158.094 215.844 155.769 223.348 153.596C227.595 152.366 231.857 151.198 236.136 150.091C240.851 148.873 245.584 147.725 250.335 146.647C253.29 145.974 256.244 145.288 259.212 144.678C263.41 143.814 267.604 142.919 271.833 142.206C274.438 141.767 277.024 141.212 279.63 140.775C282.745 140.253 285.87 139.793 288.993 139.325C292.371 138.819 295.748 138.305 299.134 137.851C301.561 137.525 304 137.291 306.433 137.014C308.515 136.777 310.594 136.52 312.677 136.302C314.313 136.132 315.951 135.976 317.592 135.877C318.398 135.829 319.199 135.75 320 135.667V143.806C316.996 143.705 313.999 143.966 311 144.054C308.78 144.119 306.558 144.276 304.338 144.41C302.088 144.544 299.843 144.762 297.594 144.925C296.662 144.992 295.73 145.052 294.798 145.126C292.004 145.348 289.214 145.597 286.428 145.903C283.706 146.203 280.976 146.421 278.257 146.737C275.475 147.061 272.701 147.458 269.924 147.828C267.37 148.168 264.811 148.48 262.265 148.867C258.826 149.39 255.399 149.988 251.963 150.527C248.557 151.062 245.168 151.693 241.782 152.338C236.621 153.32 231.477 154.379 226.347 155.515C220.84 156.745 215.357 158.075 209.899 159.504C204.687 160.866 199.502 162.325 194.354 163.913C191.363 164.837 188.378 165.778 185.408 166.765C185.226 166.825 185.033 166.855 184.845 166.899C184.645 166.96 184.599 166.878 184.657 166.698Z" fill="#DCCDB3"/>
<path d="M67.8787 319.775C67.756 317.522 67.6372 315.27 67.5096 313.017C67.3019 309.348 67.111 305.677 66.8706 302.01C66.6578 298.761 66.4615 295.511 66.2819 292.26C66.1948 290.683 65.763 289.146 65.5553 287.582C64.9383 282.981 63.9575 278.435 62.6222 273.989C61.5528 270.128 59.9829 266.424 57.9524 262.97C57.4904 262.189 56.8596 261.521 56.1061 261.016C55.2809 260.476 54.7728 260.624 54.2984 261.495C53.9725 262.198 53.7234 262.934 53.5554 263.69C48.4938 281.052 43.4393 298.416 38.3919 315.781C38.0048 317.112 37.6196 318.443 37.2363 319.775H36.2666C36.5207 318.409 37.0074 317.108 37.3875 315.778C38.6358 311.41 39.8959 307.046 41.1677 302.684C42.4465 298.291 43.7464 293.904 45.0267 289.511C46.2617 285.274 47.4773 281.03 48.7128 276.793C49.8493 272.895 50.9936 269 52.1458 265.107C52.482 263.963 52.7886 262.81 53.1641 261.68C53.2586 261.251 53.4614 260.854 53.7531 260.526C54.0448 260.198 54.4156 259.951 54.8302 259.807C55.1048 259.713 55.4025 259.709 55.6794 259.796C56.6754 260.096 57.5301 260.744 58.0875 261.623C61.3372 266.691 63.1535 272.32 64.5782 278.103C65.2172 280.696 65.6856 283.325 66.1941 285.946C66.5367 287.713 66.7954 289.496 67.185 291.254C67.2389 291.44 67.2686 291.631 67.2735 291.824C67.2672 293.662 67.3529 295.498 67.5303 297.326C67.6323 299.187 67.7275 301.051 67.8695 302.912C68.0311 305.028 68.16 307.148 68.2561 309.269C68.3725 311.842 68.5934 314.408 68.6991 316.982C68.7372 317.909 68.8371 318.841 68.8484 319.775H67.8787Z" fill="#3C1F1B"/>
<path d="M217.165 142.848C215.699 142.83 214.288 142.284 213.192 141.309C212.097 140.334 211.39 138.997 211.202 137.542C210.967 136.132 211.188 134.683 211.834 133.407C212.278 132.467 212.964 131.662 213.822 131.073C214.68 130.485 215.678 130.134 216.715 130.057C217.753 129.981 218.792 130.181 219.726 130.637C220.661 131.093 221.458 131.789 222.036 132.654C223.038 134.103 223.424 135.891 223.11 137.625C222.796 139.358 221.807 140.897 220.361 141.904C219.426 142.555 218.305 142.886 217.165 142.848Z" fill="#3C1F1B"/>
<path d="M89.5781 169.557C89.9055 169.127 90.3166 168.767 90.7868 168.499C90.4745 168.943 90.3224 169.501 89.785 169.764L89.5781 169.557Z" fill="#83746F"/>
<path d="M119.381 171.294C118.599 171.294 118.049 171.284 117.5 171.298C117.103 171.307 116.913 171.157 116.902 170.739C116.875 169.771 116.789 168.805 116.78 167.838C116.749 164.48 116.79 161.121 116.714 157.764C116.577 151.696 116.563 145.628 116.499 139.559C116.488 138.432 116.384 137.305 116.377 136.175C116.36 136.073 116.363 135.969 116.387 135.869C116.41 135.769 116.453 135.675 116.514 135.591C116.574 135.508 116.65 135.438 116.738 135.384C116.826 135.331 116.924 135.295 117.026 135.28C122.832 133.646 128.617 131.933 134.443 130.372C136.47 129.829 138.446 129.133 140.476 128.606C144.905 127.465 149.584 127.79 153.812 129.534C158.039 131.277 161.588 134.344 163.925 138.275C165.679 141.263 166.735 144.609 167.012 148.063C167.027 148.515 167.097 148.963 167.222 149.398C167.634 150.956 167.87 152.556 167.926 154.167C168.282 157.173 168.605 160.185 168.856 163.202C169.104 164.336 169.121 165.508 168.904 166.648C168.738 167.31 168.384 167.91 167.884 168.375C166.509 169.618 164.774 170.39 162.931 170.579C159.963 170.823 156.992 170.693 154.023 170.745C147.887 170.853 141.748 170.835 135.613 170.999C131.543 171.108 127.475 171.113 123.406 171.145C121.984 171.155 120.571 171.364 119.381 171.294Z" fill="#E5E4E1"/>
<path d="M99.0819 161.701C99.1546 161.761 99.2105 161.838 99.244 161.926C99.2774 162.014 99.2873 162.109 99.2726 162.202C99.2276 163.915 99.4576 165.614 99.5302 167.322C99.6369 169.831 99.8762 172.334 100.04 174.84C100.114 175.965 100.16 177.094 100.214 178.219C100.291 179.829 100.424 181.436 100.496 183.046C100.61 185.587 100.901 188.121 100.987 190.663C101.159 193.369 101.128 196.084 100.894 198.785C100.778 199.778 100.667 200.769 100.462 201.747C100.409 201.999 100.332 202.246 100.262 202.494C100.149 203.119 99.8487 203.695 99.4004 204.144C98.9521 204.594 98.3774 204.896 97.7528 205.011C92.1741 206.363 86.6535 207.952 81.0938 209.386C78.1788 210.108 75.3702 211.207 72.7389 212.654C69.7928 214.367 67.3472 216.822 65.6462 219.775C65.3469 220.313 65.0065 220.828 64.6279 221.313C64.8473 219.479 65.0663 217.645 65.285 215.812C65.5065 213.925 65.7188 212.037 65.9392 210.15C66.1708 208.168 66.4088 206.186 66.641 204.204C66.8619 202.317 67.0807 200.43 67.2973 198.543C67.3857 197.775 67.4405 197.002 67.5603 196.239C67.7989 194.961 68.3807 193.771 69.2435 192.797C70.3321 191.481 71.4223 190.163 72.6196 188.936C76.5428 184.913 80.4506 180.875 84.343 176.822C87.8884 173.153 91.4324 169.482 94.975 165.81C96.0958 164.648 97.2045 163.474 98.3285 162.315C98.5474 162.09 98.7254 161.801 99.0819 161.701Z" fill="#6A443F"/>
<path d="M107.847 188.182C107.565 185.476 107.309 182.98 107.044 180.485C106.749 177.699 106.441 174.915 106.146 172.129C105.991 170.656 105.857 169.181 105.702 167.707C105.398 164.826 105.079 161.945 104.779 159.063C104.555 156.917 104.358 154.768 104.136 152.622C103.907 150.412 103.656 148.205 103.424 145.996C103.208 143.946 103.004 141.895 102.794 139.845C102.663 138.563 102.513 137.283 102.405 136C102.334 135.155 102.403 135.083 103.223 135.14C106.158 135.344 109.099 135.226 112.035 135.318C112.97 135.348 113.905 135.408 114.84 135.43C115.244 135.44 115.442 135.596 115.419 136.008C115.411 136.136 115.418 136.266 115.421 136.395C115.565 142.364 115.526 148.335 115.653 154.303C115.765 159.563 115.755 164.822 115.824 170.081C115.827 170.307 115.822 170.533 115.832 170.759C115.844 170.83 115.842 170.902 115.824 170.972C115.807 171.042 115.775 171.107 115.731 171.164C115.687 171.22 115.631 171.267 115.568 171.302C115.505 171.336 115.435 171.356 115.364 171.362C114.886 171.471 114.465 171.752 114.181 172.152C113.897 172.551 113.77 173.041 113.824 173.528C113.71 176.397 113.635 179.267 113.621 182.139C113.617 182.749 113.53 183.36 113.493 183.971C113.493 184.083 113.465 184.194 113.412 184.293C113.359 184.392 113.281 184.476 113.187 184.537C111.458 185.713 109.733 186.894 107.847 188.182Z" fill="#E5E4E1"/>
<path d="M115.581 183.923C115.581 184.725 115.581 185.331 115.581 185.938C115.581 186.842 115.583 187.746 115.579 188.65C115.565 191.392 115.886 190.645 113.906 192.673C112.935 193.667 111.929 194.626 110.97 195.631C109.076 197.616 107.15 199.57 105.247 201.546C104.027 202.792 102.472 203.656 100.77 204.034C101.078 203.184 101.325 202.312 101.508 201.425C101.781 199.906 101.949 198.37 102.013 196.827C102.011 195.148 102.085 193.464 101.982 191.791C101.882 190.155 101.869 188.514 101.662 186.882C101.525 185.799 101.529 184.695 101.482 183.606C101.409 181.933 101.3 180.257 101.182 178.591C101.181 177.175 101.083 175.761 100.887 174.358C100.864 174.231 100.855 174.102 100.859 173.973C100.868 171.135 100.515 168.317 100.418 165.484C100.345 163.364 100.153 161.246 100.035 159.125C99.9191 157.038 99.7793 154.951 99.6524 152.863C99.5235 150.744 99.3728 148.626 99.2609 146.505C99.1492 144.385 98.9833 142.267 98.8739 140.146C98.7663 138.058 98.5938 135.974 98.4849 133.884C98.3744 131.764 98.2156 129.646 98.0968 127.525C97.9763 125.373 97.8673 123.217 97.6911 121.071C97.5769 119.68 97.7351 118.219 97.0829 116.895C96.9739 116.673 97.1194 116.55 97.2703 116.41C98.5696 115.202 99.8699 113.997 101.226 112.851C101.742 112.411 102.232 111.941 102.694 111.443C102.761 111.353 102.846 111.278 102.943 111.222C103.041 111.166 103.149 111.131 103.261 111.118C103.373 111.106 103.486 111.116 103.593 111.149C103.701 111.182 103.8 111.237 103.886 111.31C105.002 111.992 105.019 112.041 104.112 112.939C103.538 113.507 102.955 114.067 102.388 114.641C102.168 114.853 102.009 115.12 101.924 115.413C101.84 115.706 101.835 116.017 101.909 116.313C102.194 117.926 102.37 119.558 102.593 121.182C102.92 123.57 103.242 125.959 103.582 128.346C103.62 128.528 103.695 128.701 103.801 128.854C103.908 129.007 104.045 129.136 104.203 129.235C104.361 129.333 104.537 129.399 104.721 129.427C104.906 129.456 105.094 129.446 105.274 129.4C106.326 129.173 107.404 129.399 108.448 129.107C108.63 129.029 108.832 129.012 109.023 129.061C109.215 129.11 109.385 129.22 109.507 129.375C109.677 129.618 109.743 129.843 109.418 130.013C109.217 130.118 109.015 130.218 108.812 130.319C106.617 131.418 104.422 132.517 102.226 133.617C101.379 134.043 101.276 134.272 101.37 135.212C101.533 136.844 101.663 138.479 101.834 140.11C101.991 141.612 102.198 143.108 102.358 144.61C102.518 146.112 102.639 147.619 102.794 149.123C102.956 150.689 103.143 152.252 103.31 153.818C103.464 155.256 103.601 156.697 103.753 158.135C103.932 159.829 104.126 161.521 104.3 163.215C104.454 164.719 104.579 166.225 104.734 167.729C104.896 169.295 105.083 170.858 105.251 172.424C105.402 173.83 105.541 175.238 105.69 176.645C105.872 178.371 106.065 180.095 106.24 181.821C106.393 183.325 106.548 184.829 106.663 186.336C106.722 187.106 106.888 187.862 106.902 188.641C106.91 189.143 107.199 189.283 107.699 189.168C108.23 189.026 108.729 188.785 109.171 188.457C110.929 187.257 112.695 186.068 114.449 184.862C114.789 184.628 115.089 184.334 115.581 183.923Z" fill="#3C1F1B"/>
<path d="M33.0742 127.957C33.8759 127.086 34.7819 126.318 35.7719 125.669C38.5407 123.586 41.6993 122.079 45.0609 121.238C46.9289 120.765 48.8547 120.519 50.7562 120.18C52.6893 119.836 54.6259 119.511 56.5586 119.164C59.7271 118.597 62.8946 118.024 66.0611 117.445C70.2099 116.69 74.3563 115.921 78.5068 115.176C82.6573 114.431 86.8126 113.713 90.9639 112.972C93.9111 112.446 96.8577 111.916 99.7979 111.353C100.351 111.327 100.898 111.231 101.427 111.068C101.189 111.616 100.801 112.086 100.307 112.422C99.244 113.408 98.1341 114.343 97.071 115.329C96.6442 115.725 96.28 116.018 95.6311 115.764C94.9927 115.643 94.3332 115.703 93.7269 115.936C89.8616 116.627 85.9993 117.333 82.1398 118.055C79.1968 118.602 76.2596 119.18 73.3159 119.724C69.6758 120.397 66.0308 121.042 62.3898 121.71C58.9708 122.336 55.5551 122.982 52.1363 123.61C48.5591 124.267 44.977 124.899 41.4023 125.569C38.6292 126.018 35.9286 126.837 33.3728 128.003C33.3502 128.02 33.3246 128.032 33.2973 128.039C33.27 128.046 33.2416 128.047 33.2138 128.043C33.186 128.038 33.1594 128.029 33.1354 128.014C33.1114 127.999 33.0906 127.98 33.0742 127.957Z" fill="#3C1F1B"/>
<path d="M168.608 123.687C168.06 124.322 167.45 124.691 166.981 125.233C166.358 125.978 165.902 126.848 165.645 127.785C165.389 128.722 165.337 129.703 165.493 130.662C165.665 132.294 165.84 133.926 166.017 135.558C166.187 137.126 166.358 138.693 166.532 140.26C166.599 140.537 166.594 140.827 166.517 141.101C166.243 140.949 166.202 140.676 166.105 140.451C164.328 136.182 161.238 132.591 157.283 130.196C154.401 128.45 151.156 127.389 147.799 127.095C144.289 126.832 140.761 127.277 137.426 128.404C133.541 129.598 129.617 130.665 125.71 131.789C123.044 132.556 120.367 133.288 117.718 134.112C116.378 134.483 114.979 134.596 113.597 134.442C112.791 134.382 111.988 134.334 111.182 134.327C109.017 134.307 106.852 134.303 104.686 134.283C104.348 134.28 103.98 134.364 103.677 134.09C103.877 133.762 104.214 133.695 104.493 133.553C106.536 132.511 108.587 131.484 110.629 130.44C110.852 130.312 111.105 130.242 111.362 130.238C113.591 130.266 115.811 129.997 118.041 130.029C118.757 129.993 119.459 130.232 120.004 130.697C120.248 130.934 120.558 131.093 120.893 131.152C121.228 131.211 121.573 131.168 121.884 131.028C125.227 129.832 128.579 128.659 131.927 127.478C133.248 126.502 134.836 126.77 136.311 126.589C138.997 126.259 141.698 126.06 144.394 125.816C146.063 125.665 147.735 125.542 149.404 125.388C151.201 125.223 152.995 125.032 154.792 124.862C155.598 124.834 156.402 124.76 157.199 124.638C157.358 124.606 157.523 124.627 157.668 124.699C157.814 124.77 157.931 124.887 158.003 125.032C158.296 125.481 158.705 125.842 159.187 126.078C159.668 126.313 160.205 126.414 160.739 126.369C161.508 126.342 162.271 126.48 163.05 126.383C164.55 126.196 165.085 125.776 165.414 124.314C165.47 124.066 165.53 123.857 165.811 123.867C166.74 123.758 167.673 123.698 168.608 123.687Z" fill="#DCCDB3"/>
<path d="M114.678 183.177C114.584 180.815 114.609 178.451 114.752 176.092C114.832 175.292 114.778 174.48 114.797 173.674C114.822 172.6 115.116 172.31 116.191 172.289C116.772 172.277 117.353 172.287 117.934 172.271C118.352 172.26 118.512 172.452 118.491 172.858C118.44 173.854 118.362 174.854 118.25 175.839C118.206 176.932 118.104 178.022 117.946 179.105C117.822 179.74 117.55 180.337 117.154 180.848C116.415 181.712 115.585 182.493 114.678 183.177Z" fill="#DCCDB3"/>
<path d="M111.912 128.889C114.479 128.637 117.045 128.379 119.612 128.134C122.308 127.878 125.005 127.628 127.702 127.386C128.053 127.354 128.406 127.345 128.786 127.324C128.663 127.621 128.411 127.629 128.214 127.7C126.06 128.473 123.898 129.224 121.749 130.01C121.549 130.111 121.322 130.147 121.101 130.112C120.88 130.078 120.675 129.974 120.515 129.817C120.201 129.538 119.833 129.324 119.435 129.189C119.037 129.054 118.615 129 118.196 129.03C116.487 129.066 114.777 129.086 113.068 129.113C112.675 129.076 112.199 129.468 111.912 128.889Z" fill="#F4E9D0"/>
<path d="M159.065 124.576C159.551 124.438 160.054 124.376 160.558 124.392C161.647 124.273 162.737 124.168 163.827 124.065C164.011 124.047 164.241 123.988 164.353 124.187C164.396 124.293 164.409 124.408 164.39 124.52C164.371 124.632 164.321 124.737 164.245 124.821C164.117 125.011 163.924 125.146 163.702 125.202C162.381 125.512 161.006 125.506 159.687 125.185C159.532 125.162 159.389 125.091 159.277 124.982C159.165 124.872 159.091 124.73 159.065 124.576Z" fill="#F0E6CD"/>
<path d="M184.656 166.698L184.844 166.899C183.99 167.36 183.067 167.68 182.111 167.848C182.049 167.801 182.031 167.756 182.056 167.714C182.079 167.674 182.102 167.654 182.125 167.654L184.656 166.698Z" fill="#E5E4E1"/>
<path d="M111.913 128.889C112.249 129.215 112.698 128.967 113.069 129.113C112.275 129.279 111.455 129.276 110.663 129.101C111.042 128.885 111.484 128.81 111.913 128.889Z" fill="#C3D5BE"/>
<path d="M182.126 167.654L182.111 167.848C181.79 168.062 181.426 168.204 181.045 168.264C181.378 167.785 181.825 167.852 182.126 167.654Z" fill="#776A60"/>
<path d="M212.144 136.514C212.075 135.272 212.449 134.046 213.201 133.056C213.952 132.065 215.032 131.374 216.246 131.106C216.976 130.959 217.731 130.987 218.447 131.189C219.164 131.391 219.822 131.761 220.368 132.268C220.943 132.788 221.406 133.421 221.728 134.126C222.05 134.831 222.224 135.595 222.241 136.37C222.257 137.145 222.115 137.916 221.824 138.634C221.532 139.352 221.096 140.004 220.544 140.548C219.927 141.124 219.174 141.534 218.355 141.738C217.536 141.943 216.679 141.937 215.864 141.719C215.048 141.502 214.301 141.08 213.693 140.495C213.085 139.91 212.636 139.179 212.388 138.372C212.193 137.773 212.111 137.143 212.144 136.514Z" fill="#DCCDB3"/>
<path d="M142.52 159.127C140.386 159.126 138.323 158.367 136.698 156.985C135.073 155.603 133.993 153.688 133.649 151.583C133.314 150.027 133.365 148.413 133.796 146.881C134.228 145.349 135.027 143.946 136.125 142.793C137.107 141.655 138.364 140.786 139.775 140.268C141.187 139.75 142.707 139.6 144.193 139.832C145.679 140.065 147.08 140.672 148.266 141.597C149.452 142.521 150.383 143.732 150.971 145.116C152.04 147.479 152.159 150.162 151.301 152.609C150.444 155.056 148.677 157.079 146.367 158.257C145.182 158.876 143.856 159.176 142.52 159.127Z" fill="#3C1F1B"/>
<path d="M142.494 158.181C140.983 158.194 139.501 157.766 138.23 156.951C136.958 156.135 135.951 154.967 135.333 153.588C134.416 151.665 134.197 149.484 134.712 147.417C135.227 145.35 136.445 143.527 138.157 142.259C139.11 141.558 140.209 141.081 141.372 140.862C142.535 140.643 143.732 140.688 144.875 140.995C146.019 141.301 147.078 141.861 147.975 142.632C148.873 143.403 149.585 144.367 150.06 145.451C150.968 147.436 151.139 149.679 150.543 151.779C149.947 153.878 148.623 155.697 146.808 156.909C145.523 157.741 144.025 158.183 142.494 158.181Z" fill="#DCCDB3"/>
</g>
<g style="mix-blend-mode:hue">
<rect width="320" height="320" fill="#00BF13"/>
</g>
</g>
<defs>
<clipPath id="clip0_1444_1074">
<rect width="320" height="320" fill="white"/>
</clipPath>
<clipPath id="clip1_1444_1074">
<rect width="320" height="225.775" fill="white" transform="translate(0 94)"/>
</clipPath>
</defs>
</svg>
