<svg width="320" height="320" viewBox="0 0 320 320" fill="none" xmlns="http://www.w3.org/2000/svg">
<rect width="320" height="320" fill="#F2F2EA"/>
<path d="M77.0348 77.512C76.7819 74.8565 78.7297 72.4989 81.385 72.246L209.605 60.0355C212.26 59.7828 214.618 61.7304 214.871 64.386L230.744 231.071C230.997 233.727 229.049 236.085 226.394 236.337L98.1744 248.548C95.5189 248.801 93.1611 246.853 92.9082 244.197L77.0348 77.512Z" fill="#DCCDB3"/>
<path fill-rule="evenodd" clip-rule="evenodd" d="M75.0313 77.702C74.6729 73.94 77.4323 70.6 81.1942 70.2418L209.414 58.0313C213.176 57.6731 216.516 60.4322 216.874 64.1942L232.748 230.88C233.106 234.642 230.347 237.982 226.585 238.34L98.3651 250.551C94.6031 250.909 91.2629 248.149 90.9047 244.387L75.0313 77.702ZM81.5757 74.2486C80.0268 74.396 78.8907 75.7713 79.0381 77.3205L94.9115 244.006C95.0592 245.555 96.4344 246.691 97.9834 246.543L226.203 234.333C227.752 234.186 228.888 232.81 228.741 231.261L212.867 64.5759C212.72 63.0267 211.344 61.8906 209.795 62.0381L81.5757 74.2486Z" fill="#3C1F1B"/>
<path d="M104.316 87.718C104.316 85.0504 106.479 82.8879 109.146 82.8879H237.946C240.614 82.8879 242.776 85.0504 242.776 87.718V255.158C242.776 257.825 240.614 259.987 237.946 259.987H109.146C106.479 259.987 104.316 257.825 104.316 255.158V87.718Z" fill="white"/>
<path fill-rule="evenodd" clip-rule="evenodd" d="M102.305 87.7179C102.305 83.939 105.368 80.8755 109.147 80.8755H237.947C241.726 80.8755 244.789 83.939 244.789 87.7179V255.157C244.789 258.936 241.726 262 237.947 262H109.147C105.368 262 102.305 258.936 102.305 255.157V87.7179ZM109.147 84.9004C107.591 84.9004 106.33 86.1619 106.33 87.7179V255.157C106.33 256.714 107.591 257.975 109.147 257.975H237.947C239.503 257.975 240.764 256.714 240.764 255.157V87.7179C240.764 86.1619 239.503 84.9004 237.947 84.9004H109.147Z" fill="#3C1F1B"/>
<path d="M226.452 187.494H171.35C169.219 187.494 167.491 189.221 167.491 191.352V227.608C167.491 229.739 169.219 231.466 171.35 231.466H226.452C228.583 231.466 230.311 229.739 230.311 227.608V191.352C230.311 189.221 228.583 187.494 226.452 187.494Z" fill="white"/>
<g clip-path="url(#clip0_1444_1558)">
<path fill-rule="evenodd" clip-rule="evenodd" d="M181.266 192.871C184.31 196.516 188.618 197.963 194.442 197.292C206.365 195.92 207.67 188.761 208.721 183.008C209.224 180.251 209.665 177.84 211.276 176.642V173.185C210.208 172.547 209.111 172.234 207.722 171.88C200.006 169.907 184.877 170.426 178.731 175.731C176.945 177.271 175.198 178.082 173.532 178.148H173.466C171.803 178.084 170.053 177.271 168.269 175.731C162.124 170.428 146.992 169.907 139.278 171.88C137.891 172.234 136.79 172.547 135.724 173.185V176.642C137.335 177.84 137.776 180.251 138.279 183.008C139.329 188.761 140.636 195.922 152.556 197.292C158.38 197.963 162.694 196.516 165.732 192.871L170.707 186.002C171.363 185.097 172.382 184.577 173.501 184.577C174.62 184.577 175.639 185.097 176.295 186.002L181.266 192.871ZM191.853 199.171C186.808 199.171 182.804 197.422 179.921 193.952L179.885 193.906L174.899 187.014C174.739 186.792 174.529 186.612 174.286 186.489C174.043 186.365 173.774 186.301 173.501 186.303C173.228 186.301 172.959 186.365 172.716 186.488C172.473 186.612 172.263 186.792 172.103 187.014L167.113 193.906L167.079 193.952C163.684 198.039 158.73 199.74 152.359 199.005C146.54 198.336 142.474 196.301 139.93 192.78C137.762 189.777 137.106 186.196 136.582 183.318C136.116 180.756 135.711 178.543 134.458 177.876C134.32 177.802 134.204 177.693 134.124 177.558C134.044 177.424 134.002 177.271 134.002 177.114V172.715C134.002 172.429 134.14 172.163 134.377 172.003C135.793 171.038 137.184 170.636 138.85 170.211C147.116 168.097 162.734 168.68 169.393 174.426C170.864 175.693 172.245 176.365 173.501 176.426C174.755 176.365 176.136 175.693 177.605 174.426C184.264 168.678 199.884 168.097 208.149 170.211C209.818 170.638 211.205 171.04 212.621 172.003C212.858 172.161 213 172.429 213 172.713V177.116C213 177.272 212.958 177.426 212.877 177.56C212.797 177.694 212.682 177.804 212.545 177.878C211.289 178.547 210.886 180.757 210.418 183.32C209.893 186.197 209.239 189.778 207.068 192.782C204.526 196.301 200.46 198.338 194.639 199.007C193.714 199.116 192.783 199.171 191.851 199.173L191.853 199.171Z" fill="#3C1F1B"/>
<path fill-rule="evenodd" clip-rule="evenodd" d="M192.021 193.697C195.492 193.77 197.912 193.165 199.635 191.787C201.962 189.928 205.798 183.076 204.929 178.587C204.59 176.832 203.575 175.726 201.829 175.199C195.436 173.278 187.898 174.561 182.165 178.545C180.474 179.722 180.423 181.858 180.94 183.466C183.153 190.333 186.674 193.584 192.021 193.697ZM192.573 195.428C192.38 195.428 192.183 195.428 191.984 195.423C185.883 195.291 181.733 191.554 179.3 183.996C178.411 181.237 179.149 178.541 181.181 177.129C187.337 172.85 195.438 171.48 202.326 173.548C204.677 174.255 206.163 175.884 206.622 178.259C207.593 183.274 203.706 190.741 200.714 193.134C198.76 194.694 196.165 195.428 192.573 195.428ZM151.304 174.321C149.208 174.321 147.136 174.609 145.17 175.199C143.424 175.724 142.411 176.832 142.072 178.587C141.204 183.074 145.037 189.926 147.364 191.787C149.088 193.165 151.508 193.771 154.978 193.697C160.329 193.584 163.848 190.333 166.058 183.466C166.576 181.858 166.527 179.722 164.834 178.545C160.853 175.805 156.137 174.332 151.304 174.321ZM154.428 195.428C150.838 195.428 148.239 194.694 146.289 193.134C143.293 190.741 139.407 183.274 140.377 178.259C140.838 175.883 142.323 174.255 144.674 173.548C151.563 171.478 159.662 172.85 165.818 177.129C167.85 178.541 168.59 181.237 167.7 183.996C165.266 191.554 161.116 195.291 155.016 195.423L154.428 195.428ZM134.864 173.575C134.694 173.576 134.528 173.526 134.387 173.433C134.245 173.339 134.134 173.206 134.068 173.049C134.002 172.893 133.983 172.721 134.015 172.554C134.046 172.387 134.126 172.234 134.244 172.112C135.947 170.362 138.228 167.889 140.645 165.272C146.841 158.559 154.557 150.201 158.956 146.977C163.25 143.834 169.209 141.907 174.899 141.829H174.912C175.32 141.829 175.673 142.117 175.755 142.52C176.497 146.161 174.748 148.643 170.829 149.503C169.085 149.886 168.083 149.787 167.352 149.714C166.252 149.605 165.84 149.565 162.621 152.783L144.588 170.82C144.425 170.973 144.208 171.057 143.984 171.054C143.759 171.05 143.545 170.959 143.387 170.801C143.228 170.642 143.137 170.428 143.134 170.204C143.13 169.979 143.214 169.762 143.367 169.599L161.402 151.566C165.014 147.954 165.796 147.83 167.522 148C168.172 148.065 168.982 148.145 170.46 147.821C173.2 147.22 174.396 145.862 174.175 143.577C169.062 143.799 163.804 145.567 159.975 148.37C155.711 151.495 148.06 159.785 141.911 166.444C139.488 169.07 137.199 171.549 135.48 173.317C135.4 173.399 135.304 173.464 135.198 173.509C135.093 173.554 134.979 173.577 134.864 173.577V173.575Z" fill="#3C1F1B"/>
<path fill-rule="evenodd" clip-rule="evenodd" d="M212.138 173.575C211.983 173.576 211.831 173.534 211.697 173.455C209.58 172.194 206.728 170.39 203.704 168.48C196.045 163.64 186.51 157.613 181.58 155.699C177.155 153.981 171.621 153.634 166.625 154.743C167.003 157.006 168.508 158.005 171.313 157.881C172.822 157.811 173.583 157.525 174.194 157.294C175.819 156.682 176.605 156.601 181.028 159.155L198.434 169.203C198.532 169.26 198.618 169.335 198.687 169.425C198.756 169.515 198.807 169.618 198.836 169.727C198.865 169.836 198.873 169.951 198.858 170.063C198.843 170.175 198.807 170.283 198.75 170.382C198.693 170.48 198.618 170.566 198.528 170.635C198.438 170.704 198.336 170.754 198.226 170.784C198.005 170.843 197.77 170.812 197.572 170.698L180.168 160.647C176.224 158.373 175.836 158.519 174.802 158.909C174.115 159.167 173.173 159.523 171.389 159.603C167.383 159.787 165.049 157.842 164.823 154.132C164.811 153.931 164.869 153.732 164.988 153.57C165.106 153.407 165.278 153.292 165.474 153.243C170.988 151.847 177.241 152.164 182.203 154.09C187.288 156.066 196.903 162.142 204.626 167.022C207.639 168.926 210.482 170.723 212.579 171.972C212.742 172.068 212.869 172.215 212.94 172.391C213.01 172.566 213.021 172.76 212.971 172.943C212.921 173.125 212.812 173.286 212.661 173.4C212.51 173.515 212.328 173.576 212.138 173.575Z" fill="#3C1F1B"/>
</g>
<defs>
<clipPath id="clip0_1444_1558">
<rect width="79" height="79" fill="white" transform="translate(134 131)"/>
</clipPath>
</defs>
</svg>
