<svg width="320" height="320" viewBox="0 0 320 320" fill="none" xmlns="http://www.w3.org/2000/svg">
<rect width="320" height="320" fill="#F2F2EA"/>
<g clip-path="url(#clip0_1423_7593)">
<path d="M0 214.728V205.79C0.305756 205.372 0.69175 205.02 1.13531 204.753C9.89011 198.891 16.9663 190.841 21.6642 181.399C25.4273 174.16 28.6351 166.644 31.2597 158.916C33.1326 153.631 34.2584 148.109 34.6043 142.512C34.9218 135.482 32.9558 129.27 28.1712 124.072C25.6494 121.459 22.7194 119.275 19.4963 117.607C13.7852 114.467 7.63379 112.512 1.37866 110.835C0.862055 110.774 0.378842 110.547 0 110.19L0 105.332C0.485625 105.141 1.02586 105.141 1.51121 105.333C7.96056 106.544 14.3459 108.058 20.7593 109.438C27.592 111.006 34.513 112.158 41.4846 112.888C44.1804 113.192 46.8914 113.34 49.6041 113.331C50.6073 113.306 51.6089 113.487 52.5995 113.474C55.5676 113.437 58.5375 113.374 61.503 113.22C63.6619 113.109 65.8192 112.978 67.9734 112.774C74.0549 112.197 80.0953 111.328 86.1078 110.264C97.7574 108.204 109.308 105.641 120.918 103.375C129.167 101.765 137.459 100.42 145.825 99.5943C149.422 99.2395 153.031 99.0329 156.649 98.9039C159.847 98.7898 163.035 98.8088 166.217 99.0021C170.246 99.2468 174.258 99.7175 178.256 100.295C183.437 101.043 188.617 101.798 193.796 102.559C200.02 103.47 206.016 105.347 212.062 106.998C216.849 108.363 221.715 109.434 226.632 110.206C227.178 110.276 227.713 110.408 228.23 110.598C230.415 111.438 231.251 112.667 231.336 115.011C231.406 116.932 230.951 118.807 230.932 120.721C230.906 123.218 231.418 125.682 231.337 128.18C231.324 128.893 231.246 129.602 231.103 130.3C231.029 130.75 230.858 131.178 230.603 131.556C230.348 131.934 230.014 132.252 229.625 132.488C224.474 135.49 221.727 140.277 219.897 145.709C217.858 151.758 216.366 157.962 214.842 164.156C212.923 171.952 211.074 179.767 207.822 187.16C203.952 196.1 197.648 203.768 189.63 209.285C182.993 213.824 175.571 217.086 167.743 218.906C160.256 220.721 152.548 221.45 144.854 221.072C133.381 220.634 122.126 217.797 111.812 212.744C102.706 208.242 95.4471 201.618 89.6179 193.348C83.8447 185.158 79.7556 176.132 76.3812 166.742C74.7819 162.291 73.6775 157.68 72.0118 153.256C70.7583 149.596 68.7034 146.262 65.9977 143.5C65.286 142.768 64.4332 142.19 63.4912 141.799C62.5492 141.408 61.5377 141.213 60.5181 141.226C57.7759 141.236 55.0496 140.763 52.2969 140.851C51.1008 140.881 49.9137 141.068 48.7663 141.408C47.0077 141.914 45.5063 143.07 44.5655 144.642C42.8234 147.565 41.4586 150.697 40.5039 153.964C39.381 157.583 38.5073 161.271 37.5377 164.933C36.3702 169.351 34.7048 173.622 32.5738 177.662C30.0365 182.619 27.2451 187.44 24.2109 192.108C20.6632 197.492 16.4835 202.43 11.7615 206.817C8.57569 209.765 5.05105 212.323 1.26189 214.436C0.874488 214.651 0.49366 214.95 0 214.728Z" fill="#331815"/>
<path d="M0 204.624V111.162C0.192788 111.077 0.401258 111.033 0.611927 111.034C0.822596 111.034 1.03077 111.079 1.22299 111.166C7.71187 112.863 14.0726 114.91 19.9366 118.254C24.197 120.683 27.9636 123.676 30.6691 127.866C32.8912 131.391 34.1337 135.446 34.2683 139.612C34.557 145.182 33.445 150.57 31.8549 155.862C29.1065 165.01 25.168 173.667 20.8837 182.174C20.4622 183.011 19.9867 183.823 19.4835 184.615C19.0457 185.1 18.6921 185.655 18.4371 186.258C14.0544 193.38 8.21404 199.489 1.30142 204.183C0.920025 204.442 0.558337 204.851 0 204.624Z" fill="#F2F2EA"/>
<path d="M0 214.728C6.37256 211.258 12.0653 206.66 16.8026 201.158C22.5899 194.627 26.9892 187.191 31.1947 179.584C34.9541 172.784 37.1336 165.489 38.9906 158.031C40.0236 153.684 41.5748 149.478 43.6107 145.502C45.3359 142.211 48.0254 140.74 51.5571 140.52C55.0168 140.304 58.4595 140.763 61.9015 140.972C64.4065 141.124 66.1507 142.881 67.6618 144.751C70.6205 148.411 72.4059 152.651 73.6958 157.139C76.254 166.411 79.7825 175.386 84.2227 183.916C87.6844 190.588 92.1302 196.699 97.4104 202.044C102.664 207.196 108.849 211.3 115.634 214.134C122.721 217.134 130.184 219.149 137.816 220.124C142.782 220.779 147.798 220.973 152.799 220.703C160.811 220.36 168.719 218.749 176.228 215.93C182.838 213.453 188.953 209.814 194.287 205.185C201.214 199.111 205.957 191.612 209.116 183.011C211.844 175.581 213.489 167.857 215.449 160.217C216.879 154.642 218.181 149.025 220.283 143.65C221.899 139.52 224.162 135.832 227.874 133.219C228.129 133.021 228.402 132.848 228.69 132.7C230.391 131.929 230.915 130.493 230.992 128.761C231.041 127.046 230.954 125.33 230.73 123.629C230.522 121.536 230.565 119.426 230.86 117.344C230.951 116.606 230.996 115.863 230.994 115.12C230.988 112.668 229.972 111.302 227.555 110.77C225.289 110.272 222.98 109.972 220.706 109.506C215.102 108.357 209.632 106.682 204.12 105.18C199.16 103.86 194.119 102.871 189.029 102.22C184.779 101.65 180.543 100.975 176.294 100.392C173.451 100.002 170.601 99.6552 167.733 99.4931C165.511 99.3675 163.287 99.1456 161.066 99.1639C154.556 99.2233 148.056 99.6436 141.593 100.423C130.816 101.711 120.192 103.845 109.572 106.016C100.468 107.878 91.3758 109.803 82.2018 111.292C77.4598 112.062 72.6978 112.704 67.9072 113.128C63.918 113.48 59.9251 113.634 55.9234 113.751C51.1167 113.861 46.3077 113.692 41.5204 113.245C35.322 112.644 29.1669 111.657 23.0909 110.29C16.496 108.875 9.90257 107.453 3.31047 106.025C2.20841 105.787 1.10357 105.563 0 105.332V104.555C1.01631 104.251 1.95715 104.732 2.89985 104.919C7.508 105.838 12.1012 106.83 16.6793 107.895C18.5778 108.34 20.511 108.629 22.3898 109.167C26.1721 110.076 29.9925 110.795 33.8363 111.361C36.9473 111.82 40.0718 112.185 43.2099 112.457C48.258 112.838 53.323 112.946 58.3828 112.782C63.1454 112.713 67.8993 112.35 72.6172 111.693C73.5999 111.55 74.5738 111.352 75.5591 111.233C79.239 110.705 82.9113 110.126 86.5759 109.496C88.5623 109.153 90.5469 108.785 92.5167 108.349C94.3253 108.101 96.1199 107.76 97.8933 107.326C104.087 106.099 110.257 104.759 116.45 103.533C122.403 102.354 128.367 101.218 134.38 100.358C137.655 99.8901 140.93 99.4195 144.217 99.0471C145.555 98.8954 146.909 98.8738 148.241 98.6374C151.806 98.3505 155.382 98.1813 158.952 98.1039C161.756 98.0507 164.56 98.146 167.354 98.3892C171.425 98.7328 175.483 99.1814 179.524 99.7908C182.922 100.303 186.321 100.805 189.722 101.297C192.901 101.754 196.079 102.183 199.214 102.897C201.033 103.311 202.828 103.82 204.644 104.239C206.3 104.729 207.994 105.085 209.632 105.641C211.67 106.386 213.784 106.865 215.881 107.405C218.452 107.906 220.994 108.541 223.569 109.02C224.952 109.278 226.363 109.367 227.728 109.717C228.966 109.971 230.073 110.656 230.853 111.652C231.632 112.647 232.034 113.888 231.986 115.153C231.971 116.123 231.896 117.091 231.763 118.052C231.376 120.514 231.667 122.957 231.87 125.405C232.078 127.045 232.043 128.706 231.766 130.336C231.69 130.883 231.494 131.407 231.192 131.87C230.89 132.333 230.489 132.723 230.018 133.012C225.845 135.363 223.255 139.027 221.47 143.346C219.289 148.622 218.032 154.181 216.602 159.682C214.579 167.468 212.909 175.347 210.2 182.946C204.383 199.261 193.179 210.25 177.238 216.596C176.91 216.727 176.592 216.882 176.27 217.025C173.182 218.209 170.011 219.161 166.783 219.874C163.181 220.711 159.523 221.28 155.837 221.576C151.624 221.909 147.393 221.939 143.176 221.664C139.806 221.442 136.45 221.038 133.124 220.455C130.306 219.963 127.518 219.318 124.769 218.524C121.363 217.578 118.036 216.366 114.819 214.9C111.382 213.343 108.067 211.529 104.902 209.474C97.1478 204.216 91.158 197.317 86.2526 189.405C85.7937 188.665 85.368 187.904 84.9269 187.153C84.7055 186.847 84.6405 186.442 84.3252 186.194C84.1606 186.115 84.1619 185.954 84.1361 185.806C83.9784 185.459 83.7983 185.122 83.5971 184.798C79.8828 177.842 76.8272 170.553 74.4704 163.026C73.7834 160.906 73.1506 158.768 72.5293 156.628C71.7041 153.872 70.5945 151.21 69.2183 148.685C69.0576 148.338 68.8611 148.009 68.6319 147.703C67.6801 146.177 66.5092 144.799 65.1567 143.614C63.5585 142.115 61.58 141.896 59.5151 141.865C57.3308 141.832 55.16 141.535 52.9664 141.544C51.23 141.516 49.5038 141.815 47.878 142.427C46.9746 142.779 46.1987 143.396 45.6526 144.198C44.1951 146.274 43.0513 148.554 42.2582 150.964C41.4699 153.214 40.7698 155.491 40.116 157.782C39.3946 160.459 38.6433 163.128 37.958 165.814C36.3687 172.044 33.3408 177.634 30.3195 183.23C29.7223 184.336 29.1008 185.429 28.4905 186.528C28.1554 187.211 27.7636 187.865 27.3193 188.482C24.6055 192.887 21.5703 197.085 18.2384 201.042C13.7653 206.338 8.45852 210.867 2.52784 214.449C2.38973 214.53 2.26417 214.633 2.13278 214.726C1.70692 215.041 1.19717 215.204 0.755718 215.491L0 215.894V214.728Z" fill="#010100"/>
<path d="M19.1763 184.58C23.5666 176.576 27.2859 168.22 30.2959 159.599C32.2554 153.99 33.7289 148.267 33.9481 142.278C34.3006 132.65 30.2653 125.351 22.3103 120.107C16.2907 116.139 9.58295 113.825 2.70995 111.906C1.8077 111.654 0.90335 111.409 0 111.161V110.19C4.88198 111.296 9.66114 112.816 14.2857 114.734C18.1313 116.266 21.7513 118.314 25.0463 120.823C30.5759 125.125 33.9612 130.644 34.7662 137.703C35.4467 143.67 34.3785 149.417 32.7813 155.101C30.701 162.503 27.6386 169.525 24.4395 176.496C22.0182 181.974 18.9736 187.153 15.3664 191.93C11.2545 197.268 6.26187 201.861 0.604353 205.512C0.409903 205.619 0.207916 205.712 0 205.789L0 204.624C3.38111 202.538 6.50259 200.058 9.29863 197.233C12.6657 193.879 15.6533 190.163 18.207 186.152C18.5736 185.656 18.8978 185.131 19.1763 184.58Z" fill="#010101"/>
<path d="M22.301 109.222C15.1838 107.707 8.09982 106.035 0.95265 104.661C0.639885 104.601 0.317775 104.589 0 104.555V104.167C4.8766 105.203 9.75308 106.239 14.6294 107.276C17.3045 107.848 19.9774 108.429 22.6482 109.02C22.7969 109.072 22.9391 109.14 23.0717 109.225C22.9539 109.292 22.821 109.326 22.6859 109.326C22.5508 109.325 22.4182 109.289 22.301 109.222Z" fill="#948D7B"/>
<path d="M114.819 214.9C117.315 215.761 119.731 216.839 122.257 217.622C138.948 222.794 155.692 223.235 172.5 218.211C173.762 217.834 175.013 217.421 176.269 217.025C176.075 217.384 175.692 217.41 175.366 217.526C169.49 219.595 163.387 220.953 157.189 221.57C143.164 222.971 129.01 220.916 115.959 215.583C115.516 215.482 115.117 215.243 114.819 214.9Z" fill="#BAB19A"/>
<path d="M204.794 104.364C202.28 103.778 199.786 103.087 197.25 102.625C190.449 101.386 183.591 100.512 176.749 99.5408C171.252 98.7256 165.703 98.304 160.146 98.2791C156.629 98.2847 153.122 98.4746 149.615 98.71C149.167 98.7401 148.716 98.7317 148.267 98.7412C148.147 98.8075 148.01 98.8367 147.873 98.8251C147.736 98.8134 147.606 98.7615 147.499 98.6759C149.345 98.3791 151.211 98.2158 153.08 98.1871C159.846 97.7922 166.633 98.0131 173.359 98.847C180.748 99.7749 188.106 100.913 195.469 102.012C198.618 102.542 201.732 103.259 204.795 104.161C204.863 104.206 204.886 104.252 204.863 104.297C204.84 104.342 204.817 104.364 204.794 104.364Z" fill="#A69F8A"/>
<path d="M147.499 98.6758C147.755 98.6977 148.011 98.7196 148.267 98.7414C145.673 99.0384 143.077 99.315 140.485 99.6364C129.423 101.009 118.513 103.24 107.605 105.485C102.863 106.461 98.1146 107.405 93.3678 108.357C93.0861 108.414 92.7947 108.422 92.5079 108.453C92.4378 108.41 92.4148 108.369 92.439 108.327C92.4628 108.287 92.4866 108.266 92.5107 108.266C98.1098 107.134 103.713 106.022 109.307 104.863C116.86 103.298 124.42 101.763 132.038 100.558C137.157 99.6685 142.317 99.0404 147.499 98.6758Z" fill="#A49D89"/>
<path d="M22.3008 109.222L23.0715 109.225C34.671 111.879 46.561 113.04 58.4537 112.68C63.7486 112.479 69.0267 112.084 74.2779 111.36C74.7153 111.204 75.1928 111.201 75.6321 111.352C74.0108 111.743 72.3588 111.992 70.6945 112.097C63.571 112.87 56.4025 113.146 49.2407 112.923C44.4392 112.788 39.6504 112.361 34.9006 111.644C30.8493 111.033 26.8333 110.265 22.8258 109.433C22.6448 109.379 22.4691 109.308 22.3008 109.222Z" fill="#39362F"/>
<path d="M75.6325 111.353L74.2783 111.36C75.7107 110.828 77.2381 110.838 78.7211 110.612C82.4104 110.05 86.0913 109.446 89.756 108.741C90.6709 108.565 91.5923 108.423 92.5107 108.266C92.5065 108.328 92.5056 108.391 92.5079 108.453C89.3348 109.201 86.1137 109.691 82.9024 110.231C80.4845 110.637 78.0562 110.981 75.6325 111.353Z" fill="#B0A892"/>
<path d="M47.8779 142.427C48.7455 141.863 49.7547 141.557 50.7886 141.544C52.7197 141.361 54.6637 141.362 56.5945 141.547C58.1094 141.642 59.6255 141.721 61.1416 141.796C61.8989 141.81 62.6454 141.979 63.3356 142.292C64.0259 142.604 64.6454 143.054 65.1567 143.614C64.7014 143.591 64.4285 143.231 64.0851 143.011C63.3798 142.49 62.5411 142.18 61.6668 142.119C58.737 142.105 55.8338 141.66 52.9011 141.659C51.2043 141.736 49.5205 141.994 47.8779 142.427Z" fill="#A69F8A"/>
<path d="M229.424 110.383C225.345 109.206 221.113 108.778 216.985 107.842C216.591 107.753 216.209 107.607 215.821 107.487C215.724 107.393 215.738 107.319 215.862 107.266C217.722 107.443 219.47 108.14 221.306 108.438C223.489 108.793 225.666 109.184 227.837 109.612C228.142 109.615 228.442 109.686 228.717 109.819C228.991 109.953 229.232 110.145 229.424 110.383Z" fill="#ACA48F"/>
<path d="M40.1162 157.783C40.5558 155.432 41.275 153.143 42.2584 150.965C42.0047 152.685 41.2191 154.249 40.789 155.92C40.7364 156.59 40.5039 157.234 40.1162 157.783Z" fill="#BAB19A"/>
<path d="M215.863 107.266L215.822 107.487C213.716 107.067 211.645 106.484 209.629 105.743C209.677 105.683 209.748 105.644 209.824 105.636C209.901 105.627 209.978 105.65 210.038 105.698L215.863 107.266Z" fill="#49453C"/>
<path d="M210.038 105.698L209.628 105.743C208.017 105.283 206.405 104.824 204.793 104.364L204.795 104.161C206.534 104.702 208.363 104.938 210.038 105.698Z" fill="#AFA791"/>
<path d="M27.3193 188.482C27.5743 187.758 27.9727 187.094 28.4905 186.528C28.35 187.3 27.9337 187.995 27.3193 188.482Z" fill="#ADA58F"/>
<path d="M0.755859 215.491C1.13272 215.11 1.61052 214.844 2.13292 214.726C1.97489 214.949 1.76919 215.133 1.53091 215.265C1.29262 215.397 1.02779 215.474 0.755859 215.491Z" fill="#ACA48F"/>
<path d="M68.6318 147.703C68.8168 147.789 68.9716 147.928 69.0762 148.104C69.1808 148.279 69.2303 148.482 69.2183 148.685C68.9092 148.441 68.7005 148.092 68.6318 147.703Z" fill="#423F37"/>
<path d="M83.5972 184.798C83.7716 184.899 83.9145 185.047 84.0097 185.225C84.1049 185.403 84.1487 185.605 84.1362 185.806C83.8364 185.55 83.644 185.19 83.5972 184.798Z" fill="#5A554B"/>
<path d="M84.3252 186.194C84.7746 186.357 84.8746 186.74 84.927 187.153C84.616 186.918 84.4018 186.577 84.3252 186.194Z" fill="#5A554B"/>
<path d="M78.9293 130.007C81.3362 124.623 85.4768 120.866 90.3881 117.87C96.1208 114.372 102.393 112.174 108.82 110.377C114.372 108.781 120.031 107.581 125.752 106.784C128.371 106.439 131.009 106.261 133.645 106.06C136.256 105.861 138.875 105.815 141.478 105.824C145.343 105.837 149.216 105.936 153.08 106.231C155.78 106.438 158.483 106.598 161.178 106.867C165.668 107.315 170.154 107.779 174.628 108.38C179.782 109.026 184.876 110.086 189.86 111.551C190.981 111.874 192.082 112.266 193.156 112.724C196.529 114.05 199.678 115.889 202.492 118.178C206.678 121.637 209.379 126.574 210.036 131.971C210.603 137.246 210.617 142.567 210.077 147.845C209.295 157.494 207.107 166.848 204.324 176.084C203.242 180.012 201.905 183.865 200.321 187.619C197.453 194.203 193.005 199.976 187.374 204.424C181.64 208.905 175.08 211.412 168.016 212.822C163.913 213.677 159.764 214.292 155.589 214.664C151.405 215.004 147.203 215.041 143.014 214.775C139.442 214.554 135.89 214.074 132.388 213.338C122.103 211.291 112.524 206.61 104.581 199.751C98.6674 194.597 93.7774 188.371 90.1682 181.4C86.2851 174.047 82.9533 166.414 80.2006 158.566C78.7505 154.515 77.7124 150.327 77.102 146.067C76.502 141.519 76.4733 136.969 77.9632 132.536C78.3023 131.7 78.5349 130.822 78.9293 130.007Z" fill="#010100"/>
<path d="M193.156 112.723C192.017 112.458 190.911 112.065 189.86 111.551C191.035 111.679 192.163 112.081 193.156 112.723Z" fill="#413421"/>
<path d="M78.929 130.007C78.7673 130.903 78.4396 131.761 77.9629 132.536C78.0741 131.626 78.4057 130.758 78.929 130.007Z" fill="#211B11"/>
<path d="M19.1762 184.581C19.131 184.895 19.0215 185.197 18.8548 185.467C18.6881 185.738 18.4676 185.971 18.207 186.152C18.3925 185.555 18.7259 185.014 19.1762 184.581Z" fill="#3C3827"/>
<path d="M78.1791 146.501C77.635 143.043 77.6203 139.522 78.1356 136.059C79.178 129.861 82.4189 125.042 87.302 121.24C92.4856 117.205 98.4495 114.756 104.612 112.708C120.018 107.588 135.836 106.032 151.97 107.171C157.095 107.533 162.206 108.015 167.317 108.556C174.075 109.271 180.797 110.117 187.367 111.905C191.574 112.972 195.586 114.698 199.254 117.021C205.682 121.231 208.948 127.216 209.338 134.862C209.735 144.383 208.836 153.915 206.667 163.194C205.122 170.408 203.06 177.501 200.498 184.418C195.727 196.984 187.247 205.878 174.328 210.141C169.356 211.686 164.243 212.731 159.064 213.261C151.168 214.292 143.164 214.154 135.307 212.853C116.864 209.644 102.497 200.262 92.9241 184.089C86.9322 174.003 82.3366 163.147 79.2637 151.82C79.1541 151.414 79.0525 151.006 78.9472 150.6C78.6184 149.248 78.362 147.88 78.1791 146.501Z" fill="#F2F2EA"/>
<path d="M78.1794 146.501C78.5555 147.842 78.8126 149.213 78.9475 150.6C78.4325 149.295 78.1717 147.904 78.1794 146.501Z" fill="#433F2D"/>
<path d="M198.565 129.12C198.605 130.955 198.554 132.79 198.411 134.62C198.333 135.532 197.92 136.382 197.251 137.005C196.582 137.629 195.705 137.98 194.792 137.992C191.418 138.14 189.876 136.688 189.861 133.301C189.846 130.067 189.819 126.831 189.887 123.599C189.921 121.968 190.478 120.47 192.153 119.859C193.879 119.229 195.634 119.154 197.176 120.455C198.424 121.509 198.494 122.991 198.552 124.444C198.61 125.897 198.565 127.354 198.565 129.12Z" fill="#331815"/>
<path d="M178.212 129.271C178.114 130.744 178.419 132.756 178.064 134.747C177.971 135.678 177.521 136.537 176.809 137.143C176.096 137.75 175.178 138.056 174.245 137.999C171.725 138.062 170.275 137.168 169.775 135.181C169.617 134.554 169.533 133.911 169.526 133.265C169.501 130.256 169.48 127.247 169.53 124.24C169.554 122.775 169.726 121.283 171.038 120.318C171.754 119.808 172.593 119.499 173.468 119.424C174.343 119.35 175.222 119.512 176.013 119.894C177.679 120.561 178.123 122.087 178.195 123.699C178.27 125.378 178.212 127.062 178.212 129.271Z" fill="#331815"/>
<path d="M179.791 128.339C179.882 126.843 179.648 124.964 179.921 123.092C180.301 120.485 181.596 119.43 184.393 119.496C186.677 119.551 188.096 120.948 188.299 123.349C188.324 123.639 188.318 123.931 188.32 124.223C188.331 125.754 188.327 125.692 186.827 125.773C185.838 125.826 185.459 125.517 185.592 124.526C185.643 124.107 185.629 123.682 185.549 123.268C185.514 122.923 185.346 122.605 185.082 122.381C184.817 122.157 184.476 122.044 184.131 122.067C183.966 122.048 183.8 122.063 183.642 122.111C183.484 122.158 183.336 122.236 183.209 122.342C183.082 122.447 182.977 122.577 182.9 122.724C182.824 122.871 182.778 123.031 182.765 123.196C182.612 126.884 182.628 130.576 182.756 134.264C182.766 134.429 182.81 134.591 182.883 134.739C182.957 134.887 183.06 135.018 183.185 135.126C183.311 135.234 183.456 135.315 183.613 135.365C183.771 135.416 183.936 135.434 184.101 135.419C184.272 135.441 184.446 135.428 184.612 135.381C184.778 135.333 184.933 135.252 185.067 135.143C185.201 135.034 185.311 134.898 185.391 134.745C185.471 134.592 185.519 134.423 185.533 134.251C185.634 133.126 185.584 131.988 185.59 130.855C185.596 130.798 185.59 130.741 185.573 130.686C185.556 130.632 185.528 130.582 185.491 130.538C185.454 130.495 185.409 130.459 185.358 130.434C185.307 130.408 185.251 130.393 185.194 130.39C184.857 130.342 184.414 130.419 184.411 129.891C184.331 129.217 184.362 128.534 184.503 127.871C184.529 127.83 184.564 127.796 184.605 127.772C184.647 127.748 184.693 127.734 184.741 127.731C185.806 127.716 186.872 127.705 187.937 127.716C188.212 127.719 188.318 127.945 188.31 128.194C188.237 130.486 188.533 132.79 188.126 135.072C188.046 135.707 187.777 136.304 187.354 136.783C186.93 137.262 186.372 137.601 185.752 137.756C182.874 138.51 179.906 137.888 179.797 133.379C179.76 131.826 179.791 130.27 179.791 128.339Z" fill="#331815"/>
<path d="M163.834 127.548C163.834 129.778 163.866 132.009 163.817 134.238C163.799 135.061 164.086 135.317 164.875 135.268C165.775 135.212 166.682 135.278 167.584 135.248C168.228 135.226 168.567 135.438 168.507 136.133C168.484 136.456 168.483 136.78 168.505 137.102C168.531 137.583 168.348 137.816 167.839 137.813C165.774 137.801 163.71 137.802 161.645 137.815C161.078 137.819 160.936 137.545 160.936 137.036C160.945 131.509 160.944 125.982 160.934 120.455C160.933 119.852 161.184 119.673 161.748 119.679C164.14 119.706 163.818 119.476 163.831 121.633C163.844 123.605 163.834 125.576 163.834 127.548Z" fill="#331815"/>
<path d="M192.757 128.75C192.757 127.067 192.742 125.384 192.763 123.702C192.776 122.663 193.299 122.067 194.136 122.055C194.341 122.039 194.546 122.069 194.738 122.142C194.93 122.215 195.104 122.329 195.247 122.477C195.39 122.624 195.499 122.802 195.566 122.996C195.633 123.191 195.657 123.397 195.635 123.602C195.679 127.031 195.679 130.461 195.636 133.892C195.658 134.096 195.634 134.303 195.567 134.498C195.5 134.692 195.392 134.87 195.249 135.017C195.106 135.165 194.933 135.28 194.741 135.354C194.55 135.427 194.344 135.458 194.139 135.443C193.304 135.433 192.775 134.832 192.763 133.798C192.742 132.116 192.757 130.433 192.757 128.75Z" fill="#F2F2EA"/>
<path d="M175.321 128.763C175.32 130.442 175.336 132.121 175.314 133.799C175.301 134.833 174.774 135.43 173.943 135.443C173.731 135.455 173.519 135.421 173.323 135.342C173.126 135.263 172.949 135.142 172.804 134.987C172.659 134.831 172.55 134.646 172.485 134.444C172.42 134.242 172.4 134.028 172.426 133.818C172.401 130.461 172.4 127.103 172.422 123.746C172.429 122.629 173.028 122.024 173.973 122.056C174.799 122.083 175.303 122.678 175.315 123.728C175.336 125.406 175.321 127.085 175.321 128.763Z" fill="#F2F2EA"/>
</g>
<defs>
<clipPath id="clip0_1423_7593">
<rect width="232" height="124" fill="white" transform="translate(0 98)"/>
</clipPath>
</defs>
</svg>
