<svg width="180" height="160" viewBox="0 0 180 160" fill="none" xmlns="http://www.w3.org/2000/svg">
<path d="M30 36.5V33.2947C30 29.266 33.266 26 37.2947 26H142.705C146.734 26 150 29.266 150 33.2947V126.705C150 129.744 148.142 132.349 145.5 133.445M30 56.5V126.705C30 130.734 33.266 134 37.2947 134H138.786" stroke="#EFD6A4" stroke-width="2"/>
<path d="M15.0129 43.8623L65.062 36M15.0129 43.8623L3.97707 38.028C3.45269 37.7508 3.643 36.9572 4.23608 36.9479L65.062 36M15.0129 43.8623L20.6851 60.242M65.062 36L25.0227 50.7417M65.062 36L35.822 63.0955C35.5764 63.3231 35.1889 63.2927 34.9818 63.0296L29.6939 56.3108M20.6851 60.242L25.0227 50.7417M20.6851 60.242L29.6939 56.3108M25.0227 50.7417L29.6939 56.3108" stroke="#B99C65" stroke-width="1.4"/>
<path fill-rule="evenodd" clip-rule="evenodd" d="M130.296 33.0264C129.03 33.0264 128.003 34.053 128.003 35.3195V45.0654C128.003 46.3319 129.03 47.3586 130.296 47.3586H162.401C163.667 47.3586 164.694 46.3319 164.694 45.0654V35.3195C164.694 34.053 163.667 33.0264 162.401 33.0264H130.296ZM141.138 36.8195C141.333 36.5312 141.257 36.1391 140.969 35.9437C140.681 35.7484 140.289 35.8238 140.093 36.1121L135.875 42.3396L133.049 39.3358C132.81 39.0822 132.411 39.07 132.157 39.3087C131.904 39.5473 131.891 39.9464 132.13 40.2001L135.496 43.7774C135.627 43.9169 135.814 43.9892 136.005 43.9739C136.196 43.9587 136.37 43.8575 136.477 43.699L141.138 36.8195Z" fill="#B99C65"/>
<path fill-rule="evenodd" clip-rule="evenodd" d="M130.296 51C129.03 51 128.003 52.0267 128.003 53.2932V63.0391C128.003 64.3056 129.03 65.3322 130.296 65.3322H168.401C169.667 65.3322 170.694 64.3056 170.694 63.0391V53.2932C170.694 52.0267 169.667 51 168.401 51H130.296ZM141.138 54.7931C141.333 54.5048 141.257 54.1127 140.969 53.9174C140.681 53.722 140.289 53.7974 140.093 54.0858L135.875 60.3132L133.049 57.3095C132.81 57.0558 132.411 57.0437 132.157 57.2823C131.904 57.521 131.891 57.9201 132.13 58.1737L135.496 61.7511C135.627 61.8905 135.814 61.9628 136.005 61.9475C136.196 61.9323 136.37 61.8311 136.477 61.6726L141.138 54.7931Z" fill="#B99C65"/>
<path d="M98.5 101H65.4397C63.54 101 62 99.46 62 97.5603V67.4397C62 65.54 63.54 64 65.4397 64H114.56C116.46 64 118 65.54 118 67.4397V75.5" stroke="#B99C65" stroke-width="1.4"/>
<path d="M62 74C62 74 74.8333 81 90 81C105.167 81 118 74 118 74" stroke="#B99C65" stroke-width="1.4"/>
<path d="M68.3677 64.4101C70.5648 51.6222 79.484 42.0518 90.1527 42.0518C100.822 42.0518 109.741 51.6222 111.938 64.4101" stroke="#B99C65" stroke-width="1.4"/>
<path d="M87.8599 81.0356H92.4462V83.3288C92.4462 84.5953 91.4195 85.622 90.153 85.622C88.8865 85.622 87.8599 84.5953 87.8599 83.3288V81.0356Z" fill="#B99C65"/>
<path d="M122.5 123.7C135.865 123.7 146.7 112.865 146.7 99.5C146.7 86.1347 135.865 75.3 122.5 75.3C109.135 75.3 98.2998 86.1347 98.2998 99.5C98.2998 112.865 109.135 123.7 122.5 123.7Z" stroke="#B99C65" stroke-width="1.4"/>
<path d="M135.925 120.505L133.939 121.652L138.04 128.755L140.026 127.608L135.925 120.505Z" stroke="#B99C65" stroke-width="1.14658"/>
<path d="M137.132 129.279L140.934 127.084C141.504 126.755 142.234 126.972 142.531 127.56L154.966 152.155C155.24 152.698 155.043 153.361 154.516 153.665L153.362 154.332C152.835 154.636 152.162 154.475 151.829 153.966L136.746 130.899C136.386 130.348 136.562 129.608 137.132 129.279Z" stroke="#B99C65" stroke-width="1.14658"/>
<mask id="mask0_1004_398" style="mask-type:alpha" maskUnits="userSpaceOnUse" x="99" y="76" width="47" height="47">
<path d="M122.5 123C135.479 123 146 112.479 146 99.5C146 86.5213 135.479 76 122.5 76C109.521 76 99 86.5213 99 99.5C99 112.479 109.521 123 122.5 123Z" fill="white"/>
</mask>
<g mask="url(#mask0_1004_398)">
<path d="M99 104H115.84C118.69 104 121 101.69 121 98.8404V76" stroke="#B99C65" stroke-width="2"/>
<path d="M98.3257 100.527H114.378C115.961 100.527 117.244 99.2441 117.244 97.661V75.876" stroke="#B99C65" stroke-width="0.8" stroke-dasharray="1.72 2.29"/>
</g>
</svg>
