<svg width="320" height="320" viewBox="0 0 320 320" fill="none" xmlns="http://www.w3.org/2000/svg">
<g clip-path="url(#clip0_1423_9764)">
<rect width="320" height="320" fill="#C7F5CC"/>
<g clip-path="url(#clip1_1423_9764)">
<path d="M178.681 228.249C177.544 226.698 176.663 224.976 176.071 223.146C175.975 222.9 175.893 222.648 175.824 222.392C175.737 222.005 175.505 221.917 175.142 221.962C174.09 222.09 173.03 222.141 171.97 222.114C168.466 222.032 165.044 221.036 162.043 219.224C159.651 217.785 157.581 215.871 155.958 213.6C155.88 213.494 155.819 213.377 155.749 213.265C155.717 213.21 155.671 213.166 155.638 213.111L155.635 213.105C155.544 213.047 155.573 212.916 155.482 212.858C153.956 210.522 152.934 207.892 152.483 205.139C152.361 204.446 152.341 204.414 151.692 204.513C150.286 204.679 148.864 204.655 147.465 204.443C145.966 204.324 144.487 204.027 143.059 203.558C138.403 201.846 134.548 199.118 132.013 194.737C131.321 193.453 130.815 192.077 130.511 190.65C130.383 190.135 130.273 189.617 130.127 189.108C129.77 187.759 129.657 186.358 129.793 184.97C129.834 184.432 129.834 184.42 129.272 184.428C127.35 184.484 125.428 184.279 123.561 183.818C119.719 182.861 116.249 180.782 113.593 177.845C112.935 177.16 112.35 176.409 111.845 175.605C111.783 175.451 111.69 175.312 111.57 175.197C110.14 173.01 109.159 170.561 108.684 167.991C108.516 167.033 108.407 166.067 108.357 165.096C108.308 164.379 108.291 164.364 107.594 164.332C106.248 164.259 104.914 164.043 103.614 163.687C99.9757 162.74 96.6869 160.766 94.1398 158.001C91.3517 155.029 89.5454 151.272 88.9658 147.238C88.915 146.911 88.8742 146.582 88.8412 146.253C88.8372 146.132 88.7915 146.017 88.7119 145.927C88.6324 145.837 88.5239 145.777 88.4051 145.758C83.5969 144.316 79.4288 141.268 76.5975 137.124C74.5303 134.129 73.1845 130.696 72.6656 127.094C72.6488 126.881 72.5718 126.678 72.4437 126.508C72.3156 126.337 72.1417 126.207 71.9422 126.132C70.6051 125.442 69.3699 124.57 68.2717 123.542C66.2031 121.73 64.5842 119.461 63.5429 116.916C62.6849 114.926 62.1615 112.808 61.994 110.647C61.9869 110.291 61.8436 109.951 61.5937 109.697C60.3738 108.485 59.3397 107.098 58.5252 105.584C57.5535 103.799 56.6955 101.955 55.9563 100.063C55.3581 98.4413 55.1354 96.7051 55.3048 94.985C55.3556 93.9699 55.5325 92.965 55.8312 91.9936C55.8713 91.8679 55.8685 91.7324 55.8233 91.6084C55.6501 91.0384 55.5001 90.461 55.3104 89.8967C55.0761 89.2284 54.9734 88.521 55.008 87.8136C55.0037 86.6654 55.1125 85.5195 55.3327 84.3925C55.8805 82.319 56.6875 80.3228 57.7344 78.4511C59.5097 75.2455 62.0652 72.5397 65.1642 70.5843C65.4044 70.429 65.5867 70.2808 65.5659 69.9651C65.568 69.7656 65.6127 69.5688 65.697 69.388C65.7812 69.2071 65.9032 69.0463 66.0546 68.9163C67.3743 67.4762 69.0067 66.358 70.8262 65.6476C74.1211 64.3848 77.6666 63.9141 81.1769 64.2734C82.0139 64.3477 82.8459 64.4507 83.6737 64.5931C83.9985 64.6639 84.3359 64.6512 84.6545 64.5561C87.102 63.8044 89.7208 63.8195 92.1595 64.5993C93.648 65.0219 95.092 65.5879 96.4711 66.2895C97.7145 66.9183 98.8746 67.6995 99.9247 68.6152C100.066 68.7682 100.245 68.8815 100.444 68.9439C100.643 69.0062 100.855 69.0155 101.059 68.9708C102.496 68.6793 103.984 68.7563 105.384 69.1947C109.029 70.1964 112.144 72.5706 114.076 75.8192C114.216 76.0444 114.339 76.28 114.465 76.5133C114.835 77.1997 114.829 77.1802 115.566 77.002C117.19 76.6398 118.873 76.6388 120.497 76.9992C124.021 77.7378 127.134 79.7853 129.208 82.7287C130.214 84.0843 130.857 85.6745 131.075 87.3484C131.095 87.4794 131.111 87.611 131.129 87.7422C131.168 88.0154 131.311 88.133 131.589 88.0478C131.652 88.0283 131.715 88.0078 131.777 87.9863C134.067 87.2149 136.56 87.3174 138.778 88.274C142.108 89.5661 144.888 91.9705 146.647 95.0791C147.262 96.0764 147.778 97.1311 148.189 98.2284C148.332 98.5516 148.507 98.8593 148.713 99.1467C149.084 99.7745 149.413 100.426 149.698 101.098C149.788 101.307 149.878 101.495 150.184 101.399C152.656 100.618 155.045 101.143 157.388 101.945C160.054 102.862 162.471 104.385 164.449 106.395C165.513 107.464 166.338 108.746 166.87 110.158C167.433 111.622 167.915 113.116 168.312 114.633C168.518 115.267 168.551 115.944 168.407 116.595C168.304 116.976 168.475 117.133 168.873 117.048C171.43 116.604 174.057 116.769 176.538 117.53C179.02 118.291 181.288 119.626 183.157 121.427C185.688 123.733 187.548 126.681 188.539 129.959C188.876 131.241 189.121 132.545 189.273 133.861C189.29 133.971 189.294 134.082 189.316 134.19C189.398 134.586 189.454 134.631 189.848 134.527C190.616 134.322 191.406 134.207 192.201 134.186C193.532 134.159 194.854 134.403 196.088 134.903C200.558 136.594 204.274 139.832 206.56 144.03C207.544 145.941 208.168 148.016 208.401 150.152C208.456 150.546 208.494 150.942 208.545 151.336C208.617 151.891 208.622 151.901 209.213 151.891C210.695 151.862 212.173 152.059 213.595 152.476C215.68 153.049 217.624 154.049 219.303 155.411C220.983 156.774 222.361 158.47 223.352 160.392C224.72 162.859 225.422 165.64 225.389 168.46C225.378 169.159 225.501 169.322 226.007 169.463C226.201 169.511 226.406 169.485 226.582 169.39C226.889 169.259 227.226 169.213 227.556 169.257C229.488 169.447 231.351 170.078 233.001 171.101C234.651 172.123 236.045 173.511 237.074 175.157C237.098 175.221 237.138 175.277 237.191 175.32C237.267 175.388 237.239 175.529 237.359 175.568C238.781 177.605 239.677 179.962 239.966 182.43C240.036 182.976 240.061 183.529 240.102 184.08C240.144 184.648 240.141 184.65 240.676 184.804C241.163 184.944 241.658 185.064 242.14 185.221C244.525 186.018 246.621 187.501 248.165 189.485C248.67 190.071 249.127 190.695 249.534 191.352C249.565 191.408 249.612 191.453 249.647 191.506L249.65 191.511C249.738 191.57 249.709 191.705 249.808 191.757C250.985 193.451 251.706 195.419 251.901 197.472C252.017 198.057 252.04 198.657 251.969 199.25C251.906 199.555 252.191 199.647 252.396 199.767C253.608 200.495 254.73 201.364 255.739 202.356C258.359 204.839 260.069 208.129 260.598 211.699C260.668 212.091 260.694 212.489 260.675 212.886C260.652 213.283 260.784 213.674 261.044 213.974C263.465 217.193 264.839 221.077 264.98 225.101C265.032 226.404 264.932 227.709 264.681 228.989C264.672 229.178 264.624 229.363 264.539 229.532C264.455 229.701 264.336 229.85 264.19 229.97C263.797 230.215 263.833 230.533 263.872 230.889C264.187 234.628 263.448 238.38 261.738 241.72C260.618 244.16 258.925 246.292 256.804 247.937C256.594 248.097 256.375 248.246 256.16 248.4C256.022 248.481 255.889 248.571 255.763 248.671C254.97 249.232 254.1 249.676 253.18 249.988C252.85 250.116 252.548 250.305 252.287 250.544C249.938 252.388 247.299 253.828 244.476 254.804C243.022 255.345 241.463 255.55 239.918 255.403C238.373 255.256 236.881 254.761 235.554 253.955C235.196 253.779 234.889 253.515 234.66 253.189C234.463 252.736 234.128 252.753 233.749 252.922C231.914 253.422 230.009 253.619 228.11 253.503C226.233 253.435 224.368 253.169 222.546 252.709C220.39 252.186 218.39 251.154 216.713 249.701C216.32 249.377 215.978 248.996 215.698 248.571C215.627 248.433 215.51 248.325 215.369 248.262C215.227 248.199 215.069 248.186 214.919 248.224C214.418 248.31 213.912 248.364 213.404 248.384C209.306 248.55 205.271 247.326 201.955 244.91C200.331 243.798 198.868 242.468 197.606 240.957C196.582 239.756 195.908 238.299 195.655 236.742C195.604 236.372 195.417 236.273 195.075 236.279C194.258 236.299 193.441 236.278 192.626 236.216C189.531 235.955 186.547 234.938 183.935 233.256C182 232.048 180.313 230.481 178.965 228.64C178.921 228.597 178.882 228.548 178.849 228.496L178.844 228.49C178.754 228.434 178.784 228.296 178.681 228.249Z" fill="#3C1F1B"/>
<path d="M233.75 252.922C234.38 252.593 234.457 252.616 234.661 253.189C234.429 252.852 234.089 252.888 233.75 252.922Z" fill="#8B7E72"/>
<path d="M111.57 175.197C111.615 175.206 111.658 175.223 111.696 175.248C111.734 175.273 111.767 175.306 111.793 175.344C111.818 175.381 111.836 175.424 111.845 175.469C111.854 175.514 111.854 175.56 111.845 175.605C111.769 175.565 111.704 175.507 111.656 175.436C111.608 175.364 111.579 175.283 111.57 175.197Z" fill="#3C1F1B"/>
<path d="M255.764 248.671C255.787 248.586 255.84 248.512 255.912 248.463C255.985 248.413 256.073 248.391 256.161 248.4C256.125 248.477 256.07 248.543 256 248.591C255.93 248.638 255.848 248.666 255.764 248.671Z" fill="#92867B"/>
<path d="M237.359 175.568C237.217 175.544 237.184 175.445 237.191 175.32C237.24 175.34 237.283 175.374 237.313 175.418C237.343 175.462 237.359 175.515 237.359 175.568Z" fill="#3C1F1B"/>
<path d="M249.808 191.757C249.755 191.744 249.709 191.711 249.68 191.665C249.651 191.62 249.64 191.564 249.65 191.511C249.7 191.529 249.742 191.563 249.77 191.608C249.798 191.652 249.812 191.704 249.808 191.757Z" fill="#3C1F1B"/>
<path d="M155.482 212.858C155.534 212.872 155.579 212.906 155.607 212.951C155.635 212.997 155.645 213.052 155.635 213.105C155.586 213.086 155.544 213.052 155.516 213.007C155.489 212.963 155.477 212.91 155.482 212.858Z" fill="#3C1F1B"/>
<path d="M178.681 228.249C178.734 228.26 178.782 228.291 178.812 228.336C178.843 228.381 178.855 228.436 178.845 228.49C178.795 228.473 178.752 228.44 178.723 228.397C178.693 228.353 178.678 228.301 178.681 228.249Z" fill="#3C1F1B"/>
<path d="M237.19 175.32C237.155 175.31 237.124 175.289 237.103 175.259C237.082 175.229 237.072 175.193 237.074 175.157C237.11 175.166 237.141 175.187 237.162 175.217C237.184 175.247 237.194 175.283 237.19 175.32Z" fill="#3C1F1B"/>
<path d="M249.647 191.506C249.613 191.498 249.583 191.478 249.562 191.45C249.541 191.421 249.532 191.387 249.534 191.352C249.569 191.359 249.6 191.378 249.621 191.407C249.642 191.435 249.651 191.471 249.647 191.506Z" fill="#3C1F1B"/>
<path d="M155.639 213.111C155.672 213.119 155.702 213.139 155.723 213.167C155.743 213.195 155.753 213.23 155.749 213.265C155.732 213.262 155.715 213.256 155.7 213.247C155.685 213.237 155.672 213.225 155.662 213.211C155.652 213.197 155.644 213.181 155.64 213.163C155.636 213.146 155.636 213.128 155.639 213.111Z" fill="#3C1F1B"/>
<path d="M178.849 228.496C178.882 228.502 178.912 228.52 178.934 228.547C178.955 228.573 178.966 228.606 178.965 228.64C178.948 228.639 178.931 228.634 178.916 228.625C178.901 228.617 178.887 228.606 178.876 228.593C178.866 228.579 178.857 228.564 178.853 228.547C178.848 228.53 178.847 228.513 178.849 228.496Z" fill="#3C1F1B"/>
<path d="M144.48 133.545C144.084 133.413 143.718 133.207 143.4 132.938C142.82 132.514 142.253 132.074 141.701 131.618C141.011 131.042 140.385 130.395 139.833 129.687C138.609 128.089 137.738 126.25 137.278 124.291C137.183 123.885 137.11 123.474 137.061 123.06C136.96 122.333 136.634 122.109 135.887 122.185C134.927 122.282 133.963 122.357 132.998 122.395C132.145 122.442 131.289 122.435 130.436 122.375C130.052 122.306 129.671 122.216 129.297 122.106C128.229 121.928 127.205 121.546 126.282 120.981C124.721 120.086 123.343 118.904 122.222 117.497C121.558 116.562 121.024 115.541 120.634 114.462C120.174 113.248 119.855 111.985 119.684 110.698C119.613 110.125 119.38 109.959 118.835 110.159C117.576 110.614 116.243 110.835 114.904 110.81C114.286 110.805 113.703 110.595 113.095 110.547C112.481 110.477 111.891 110.274 111.363 109.954C111.311 109.913 111.251 109.882 111.187 109.864C111.123 109.846 111.056 109.841 110.99 109.849C110.817 109.879 110.638 109.86 110.474 109.794C110.31 109.729 110.167 109.619 110.061 109.478C109.94 109.353 109.802 109.245 109.65 109.159C107.778 108.202 106.243 106.694 105.252 104.839C104.735 103.842 104.346 102.784 104.094 101.689C103.92 101.036 103.866 100.983 103.187 101.054C102.51 101.125 101.842 101.261 101.165 101.347C100.201 101.445 99.2312 101.216 98.4129 100.696C98.269 100.593 98.17 100.439 98.1364 100.266C97.7312 99.2635 97.2311 98.3023 96.6428 97.3953C95.9126 96.215 94.9778 95.1744 93.8822 94.3223C93.2341 93.7383 92.5071 93.2482 91.7227 92.8664C91.4898 92.7353 91.3127 92.5238 91.2246 92.2714C91.1366 92.0191 91.1437 91.7432 91.2446 91.4957C91.5515 90.5052 91.6503 89.4619 91.5347 88.4313C91.4495 87.4661 91.232 86.5171 90.8883 85.6111C90.5351 84.7309 90.0406 83.9142 89.4243 83.1933C89.3528 83.1092 89.2726 83.0326 89.1975 82.9515C89.0501 82.8124 88.9503 82.6304 88.9122 82.4313C88.8741 82.2322 88.8997 82.0262 88.9853 81.8425C89.3382 80.7581 89.7595 79.6973 90.2468 78.6663C90.629 77.8266 91.2316 77.1062 91.9906 76.5817C92.1574 76.4358 92.3653 76.3451 92.5857 76.322C92.8061 76.2989 93.0282 76.3446 93.2216 76.4527C93.6784 76.713 93.833 76.9671 93.5873 77.4398C93.3965 77.7636 93.2949 78.1321 93.2928 78.5079C93.3093 78.9949 93.5114 79.1094 93.9828 78.9538C94.4661 78.7301 94.861 78.3518 95.1053 77.8787C95.7323 76.8873 96.639 76.1038 97.7108 75.6272C98.2912 75.3537 98.9378 75.2525 99.574 75.3356C100.21 75.4186 100.809 75.6824 101.3 76.0957C101.656 76.3433 101.957 76.6622 102.183 77.0322C102.341 77.1413 102.394 77.35 102.57 77.443C103.136 78.3685 103.312 79.4807 103.06 80.5359C102.991 80.7911 102.964 81.0557 102.98 81.3195C103.043 81.8002 103.294 81.9239 103.708 81.6809C104.355 81.3021 104.991 80.9064 105.638 80.5273C107.226 79.5509 109.072 79.0791 110.934 79.1744C111.531 79.1738 112.118 79.3259 112.639 79.6163C113.194 79.8783 113.729 80.1777 114.243 80.5126C115.368 81.4162 116.089 82.7284 116.249 84.1623C116.333 84.7956 116.374 85.4338 116.371 86.0725C116.375 86.448 116.452 86.8191 116.596 87.1658C116.767 87.5971 117.039 87.6723 117.433 87.4423C118.846 86.6281 120.408 86.1053 122.027 85.9047C123.007 85.7588 124.003 85.7642 124.982 85.9207C125.22 85.9618 125.45 86.0351 125.668 86.1386C126.228 86.3993 126.771 86.694 127.345 86.9282C127.799 87.1554 128.206 87.4666 128.544 87.8452C129.075 88.4269 129.558 89.0516 129.986 89.7129C130.426 90.3942 130.819 91.1051 131.162 91.8405C131.533 92.6413 131.73 93.512 131.74 94.3948C131.77 94.7705 131.833 95.1379 131.897 95.504C131.976 95.9514 132.259 96.1129 132.67 95.9311C133.872 95.5009 135.13 95.2505 136.405 95.1881C137.684 95.0398 138.979 95.1029 140.238 95.3749C140.826 95.4369 141.4 95.5997 141.933 95.856C142.08 95.9578 142.256 96.0091 142.435 96.0022C142.679 95.999 142.919 96.0636 143.128 96.1888C143.547 96.3868 143.972 96.5712 144.392 96.7665C144.949 97.0688 145.462 97.445 145.918 97.8848C146.576 98.4364 147.143 99.0885 147.597 99.817C148.372 101.098 148.936 102.496 149.265 103.956C149.464 104.558 149.576 105.185 149.599 105.819C149.601 106.099 149.582 106.38 149.544 106.658C149.43 107.266 149.795 107.626 150.425 107.539C150.728 107.498 151.015 107.357 151.317 107.299C152.701 107.02 154.117 106.933 155.524 107.042C156.244 107.093 156.956 107.223 157.646 107.431C158.342 107.651 158.991 107.956 159.665 108.209C160.625 108.584 161.506 109.138 162.26 109.841C162.879 110.357 163.471 110.904 164.035 111.48C165.154 112.789 166.026 114.29 166.608 115.911C166.987 116.871 167.304 117.857 167.62 118.84C167.723 119.199 167.79 119.568 167.817 119.94C167.833 120.16 167.886 120.375 167.975 120.576C168.275 121.217 168.797 121.26 169.224 120.674C169.274 120.605 169.32 120.535 169.382 120.444C169.617 120.558 169.355 120.806 169.528 120.898C169.696 120.955 169.876 120.969 170.05 120.939C170.953 120.944 171.856 120.925 172.759 120.941C173.656 120.992 174.545 121.139 175.411 121.379C176.133 121.564 176.835 121.819 177.507 122.141C177.696 122.201 177.874 122.289 178.037 122.402C179.736 123.146 181.212 124.317 182.323 125.802C183.845 127.612 184.936 129.745 185.512 132.038C185.754 132.975 185.873 133.939 185.866 134.906C185.853 135.281 185.86 135.657 185.862 136.033C185.865 136.857 185.93 136.878 186.736 136.822C187.369 136.793 188.003 136.81 188.633 136.871C189.837 136.921 191.033 137.105 192.196 137.422C193.169 137.618 194.105 137.966 194.971 138.452C195.727 138.983 196.56 139.378 197.299 139.947C198.296 140.667 199.183 141.528 199.932 142.504C201.049 144.015 201.879 145.719 202.382 147.53C202.843 149.135 203.086 150.794 203.105 152.464C203.106 152.596 203.121 152.728 203.151 152.856C203.301 153.524 203.296 153.486 203.969 153.356C204.69 153.24 205.424 153.23 206.148 153.326C206.958 153.4 207.758 153.557 208.535 153.796C209.272 154.032 209.977 154.36 210.632 154.771C211.47 155.246 212.246 155.824 212.94 156.492C214.239 157.747 215.349 159.184 216.236 160.757C217.155 162.466 217.814 164.303 218.191 166.206C218.373 167.242 218.444 168.299 218.533 169.35C218.546 169.568 218.599 169.781 218.692 169.979C218.797 170.19 218.947 170.275 219.23 170.158C220.07 169.843 220.97 169.719 221.864 169.794C223.268 169.885 224.639 170.26 225.894 170.895C226.965 171.412 227.915 172.149 228.683 173.056C229.917 174.468 230.839 176.126 231.387 177.92C231.772 179.381 231.982 180.883 232.013 182.394C232.033 182.791 232 183.19 232.019 183.587C232.046 184.136 232.299 184.453 232.824 184.447C233.698 184.497 234.564 184.655 235.4 184.918C236.07 185.142 236.715 185.436 237.324 185.796C237.485 185.898 237.622 186.033 237.725 186.193C238.585 186.683 239.313 187.373 239.848 188.206C240.779 189.574 241.431 191.112 241.768 192.731C241.869 193.182 241.933 193.64 241.96 194.101C242.035 194.731 242.073 195.365 242.076 196C242.056 196.682 241.95 197.358 241.761 198.014C241.701 198.169 241.675 198.335 241.685 198.501C241.694 198.666 241.739 198.828 241.815 198.976C241.865 199.1 241.959 199.201 242.079 199.261C242.198 199.32 242.336 199.334 242.465 199.299C243.257 199.09 244.089 199.089 244.881 199.297C245.811 199.491 246.683 199.902 247.424 200.497C247.95 200.982 248.332 201.603 248.528 202.291C248.723 202.979 248.726 203.708 248.534 204.397C248.266 205.765 247.514 206.917 246.969 208.162C246.833 208.472 246.491 208.608 246.37 208.939C246.254 209.257 246.106 209.543 246.348 209.869C246.454 210.012 246.601 210.119 246.769 210.177C246.937 210.235 247.118 210.242 247.29 210.195C247.355 210.188 247.42 210.172 247.482 210.148C247.849 209.999 248.248 209.944 248.641 209.988C249.035 210.032 249.412 210.173 249.738 210.399C250.221 210.641 250.63 211.01 250.919 211.467C251.208 211.924 251.367 212.451 251.379 212.992C251.422 213.719 251.299 214.446 251.019 215.118C250.739 215.79 250.309 216.39 249.763 216.872C249.337 217.257 248.983 217.715 248.719 218.225C248.646 218.383 248.526 218.514 248.374 218.6C248.222 218.685 248.047 218.721 247.875 218.701C247.238 218.683 246.604 218.779 246.001 218.984C245.089 219.356 244.213 219.814 243.387 220.351C242.435 220.999 242.242 220.969 241.449 220.105C240.872 219.414 240.217 218.791 239.499 218.248C238.891 217.774 238.241 217.36 237.555 217.01C236.735 216.635 235.885 216.332 235.013 216.103C234.119 215.891 233.198 215.812 232.281 215.868C231.644 215.916 231.018 216.055 230.421 216.282C229.798 216.5 229.444 216.384 229.187 215.79C228.871 215.178 228.454 214.624 227.953 214.152C227.625 213.768 227.209 213.47 226.74 213.284C225.734 212.842 224.807 212.237 223.997 211.493C223.496 211.104 223.04 210.66 222.638 210.17C220.906 208.219 219.78 205.805 219.4 203.223C219.279 202.359 219.24 201.485 219.283 200.612C219.327 199.883 219.231 199.819 218.478 199.721C217.805 199.68 217.137 199.58 216.481 199.42C215.841 199.304 215.215 199.115 214.617 198.858C214.201 198.614 213.732 198.462 213.297 198.247C211.74 197.465 210.397 196.316 209.384 194.898C208.078 193.116 207.175 191.071 206.739 188.905C206.424 187.59 206.466 186.215 206.859 184.922C207.02 184.433 206.805 184.111 206.308 184.128C205.058 184.079 203.82 183.866 202.626 183.494C202.197 183.394 201.783 183.234 201.399 183.018C200.551 182.546 199.612 182.268 198.795 181.723C196.928 180.471 195.325 178.867 194.075 176.999C192.721 174.951 191.829 172.632 191.462 170.203C191.417 169.83 191.408 169.453 191.435 169.079C191.438 168.835 191.394 168.594 191.305 168.368C191.115 167.853 190.991 167.763 190.432 167.763C188.827 167.797 187.225 167.619 185.668 167.233C184.637 167.002 183.641 166.64 182.703 166.153C181.13 165.273 179.694 164.168 178.441 162.873C176.759 161.028 175.53 158.818 174.851 156.416C174.567 155.333 174.353 154.233 174.211 153.123C174.079 152.708 173.871 152.321 173.595 151.984C173.538 151.916 173.466 151.863 173.385 151.828C173.304 151.794 173.215 151.779 173.127 151.786C172.031 151.725 170.937 151.627 169.841 151.586C169.175 151.562 168.541 151.372 167.885 151.296C166.301 151.016 164.779 150.459 163.388 149.651C162.996 149.453 162.637 149.196 162.322 148.89C161.758 148.336 161.125 147.865 160.599 147.256C159.865 146.405 159.113 145.572 158.463 144.655C157.621 143.548 156.999 142.29 156.632 140.949C156.324 139.763 156.117 138.553 156.013 137.331C155.987 136.87 155.912 136.413 155.791 135.967C155.706 135.659 155.589 135.566 155.231 135.622C154.127 135.828 153.007 135.934 151.884 135.938C150.97 135.893 150.061 135.77 149.168 135.571C147.853 135.312 146.586 134.852 145.412 134.206C145.088 134.005 144.777 133.784 144.48 133.545Z" fill="#DCCDB3"/>
<path d="M191.561 175.062C191.992 176.152 192.568 177.179 193.272 178.115C193.4 178.22 193.449 178.383 193.556 178.503C195.401 181.119 197.972 183.137 200.951 184.309C202.18 184.806 203.462 185.159 204.773 185.361C205.097 185.409 205.293 185.496 205.264 185.897C205.03 189.06 206.022 191.901 207.598 194.58C208.808 196.679 210.59 198.391 212.736 199.515C214.118 200.212 215.605 200.678 217.138 200.896C217.225 200.91 217.314 200.914 217.4 200.932C217.879 201.03 217.924 201.052 217.934 201.526C217.992 203.741 218.529 205.917 219.506 207.906C219.738 208.39 219.67 208.465 219.106 208.415C217.433 208.275 215.749 208.379 214.106 208.723C213.459 208.938 212.733 208.911 212.172 209.397C211.935 209.603 211.776 209.402 211.665 209.193C211.418 208.73 211.196 208.253 210.946 207.79C210.814 207.461 210.635 207.154 210.414 206.878C210.31 206.754 210.219 206.619 210.142 206.476C209.318 205.173 208.311 203.995 207.152 202.978C205.615 201.555 203.844 200.407 201.916 199.587C201.579 199.412 201.188 199.375 200.859 199.176C199.026 198.459 197.082 198.065 195.113 198.01C194.385 197.984 193.656 198.007 192.927 198.009C192.39 198.01 192.379 198.014 192.258 197.503C191.995 196.34 191.632 195.201 191.173 194.1C189.587 190.303 186.885 187.078 183.425 184.852C179.964 182.625 175.909 181.503 171.796 181.633C171.62 181.637 171.443 181.646 171.266 181.648C170.695 181.655 170.71 181.651 170.595 181.081C169.704 176.029 167.082 171.445 163.177 168.116C161.412 166.637 159.404 165.474 157.243 164.678C155.722 164.077 154.154 163.606 152.554 163.27C151.469 163.058 150.362 162.976 149.257 163.029C148.604 163.062 148.589 163.058 148.514 162.374C148.352 160.813 148.014 159.276 147.507 157.79C146.205 153.992 143.797 150.669 140.593 148.249C137.389 145.828 133.535 144.42 129.525 144.204C129.415 144.198 129.304 144.193 129.194 144.183C128.733 144.142 128.717 144.141 128.719 143.672C128.71 142.079 128.474 140.496 128.017 138.97C127.266 136.234 125.923 133.696 124.083 131.536C123.886 131.331 123.7 131.116 123.526 130.891C121.608 128.777 119.254 127.104 116.627 125.987C115.472 125.491 114.274 125.101 113.049 124.821C112.388 124.661 112.39 124.671 112.349 123.964C112.192 120.754 111.207 117.638 109.491 114.92C109.327 114.661 109.133 114.42 108.953 114.17C108.833 114.061 108.786 113.897 108.668 113.787L108.667 113.784C108.631 113.732 108.587 113.687 108.546 113.639C106.485 110.974 103.884 108.775 100.914 107.184C100.563 106.997 100.212 106.809 99.8495 106.647C99.7167 106.595 99.6049 106.5 99.5314 106.378C99.4579 106.256 99.4268 106.112 99.443 105.971C99.4272 105.021 99.3844 104.072 99.3281 103.124C99.3088 102.799 99.4329 102.678 99.738 102.687C100.688 102.739 101.64 102.664 102.57 102.464C102.816 102.404 102.942 102.525 103.006 102.748C103.055 102.918 103.107 103.087 103.165 103.254C103.763 105.172 104.814 106.919 106.228 108.346C107.643 109.774 109.379 110.84 111.292 111.456C113.389 112.193 115.652 112.321 117.819 111.826C117.862 111.817 117.905 111.805 117.948 111.797C118.47 111.703 118.509 111.726 118.634 112.226C118.688 112.44 118.729 112.658 118.783 112.872C119.281 115.242 120.385 117.443 121.988 119.259C124.626 122.064 127.824 123.715 131.752 123.748C132.88 123.758 134.002 123.652 135.126 123.579C135.762 123.538 135.779 123.55 135.916 124.18C136.363 126.397 137.299 128.487 138.655 130.298C139.765 131.733 141.089 132.989 142.582 134.022C144.145 135.146 145.873 136.02 147.704 136.614C149.613 137.192 151.619 137.379 153.602 137.164C154.763 137.054 154.616 137.072 154.761 138.032C154.877 138.796 155.01 139.557 155.162 140.315C155.699 142.767 156.854 145.04 158.518 146.92C159.762 148.505 161.27 149.863 162.975 150.937C164.679 151.931 166.574 152.552 168.536 152.758C169.721 152.892 170.912 152.967 172.1 153.067C172.89 153.134 172.884 153.136 172.996 153.909C173.391 156.969 174.536 159.884 176.327 162.396C176.443 162.556 176.572 162.707 176.695 162.863C176.904 163.14 177.188 163.354 177.373 163.652C179.995 166.638 183.645 168.528 187.596 168.947C188.233 169.017 188.87 169.071 189.511 169.085C190.024 169.096 190.057 169.135 190.106 169.661C190.166 170.409 190.3 171.149 190.505 171.87C190.718 172.728 190.982 173.571 191.294 174.397L191.294 174.395C191.418 174.604 191.452 174.848 191.561 175.062Z" fill="#C7F5CC"/>
<path d="M149.584 202.927C147.883 202.814 146.193 202.573 144.529 202.205C139.925 200.928 135.975 197.955 133.473 193.884C132.883 192.772 132.45 191.583 132.186 190.351C131.979 189.451 131.727 188.562 131.562 187.648C131.365 186.499 131.419 185.32 131.721 184.193C131.832 183.857 131.887 183.505 131.883 183.152C131.877 182.929 131.945 182.71 132.075 182.529C132.878 181.213 133.772 179.955 134.75 178.764C135.656 177.661 136.541 176.542 137.431 175.427C138.684 173.871 140.026 172.389 141.448 170.987C143.465 168.983 145.567 167.073 147.729 165.228C148.002 165.009 148.331 164.871 148.679 164.828C150.141 164.618 151.632 164.726 153.049 165.145C155.084 165.637 157.051 166.377 158.906 167.348C161.873 168.887 164.357 171.217 166.082 174.079C167.385 176.187 168.316 178.504 168.834 180.928C168.931 181.401 168.954 181.889 169.022 182.369C169.038 182.765 168.957 183.16 168.786 183.518C168.087 185.54 167.243 187.509 166.261 189.41C165.84 190.18 165.368 190.921 164.848 191.629C163.647 193.254 162.361 194.814 160.996 196.304C159.242 198.373 157.192 200.17 154.911 201.637C153.298 202.575 151.447 203.024 149.584 202.927Z" fill="#DCCDB3"/>
<path d="M128.785 145.897C130.214 145.941 131.635 146.136 133.023 146.478C134.095 146.742 135.138 147.108 136.139 147.572C137.44 148.174 138.665 148.927 139.789 149.818C141.172 150.909 142.397 152.185 143.431 153.611C144.539 155.155 145.397 156.863 145.972 158.674C146.411 160.106 146.705 161.579 146.852 163.069C146.888 163.286 146.865 163.509 146.785 163.714C146.705 163.919 146.571 164.098 146.397 164.233C143.752 166.5 141.212 168.881 138.805 171.401C137.823 172.436 136.896 173.521 136.027 174.652C135.221 175.693 134.343 176.678 133.531 177.715C132.363 179.094 131.338 180.587 130.471 182.172C130.404 182.331 130.291 182.465 130.146 182.557C130 182.65 129.83 182.695 129.658 182.687C127.965 182.796 126.264 182.67 124.606 182.312C123.405 182.043 122.231 181.665 121.099 181.182C120.027 180.722 119.007 180.151 118.055 179.478C117.312 178.968 116.605 178.408 115.94 177.801C114.717 176.685 113.658 175.402 112.796 173.989C111.527 171.962 110.678 169.7 110.302 167.338C109.948 165.212 109.974 163.041 110.378 160.925C110.72 158.989 111.383 157.125 112.341 155.409C114.327 151.834 117.444 149.02 121.203 147.408C123.606 146.411 126.183 145.898 128.785 145.897Z" fill="#DCCDB3"/>
<path d="M172.39 220.42C170.718 220.404 169.055 220.165 167.445 219.711C165.724 219.234 164.082 218.508 162.571 217.557C160.387 216.176 158.517 214.353 157.079 212.207C155.641 210.06 154.668 207.636 154.222 205.092C154.043 203.981 153.739 204.124 155.017 203.407C157.006 202.311 158.822 200.928 160.409 199.303C161.86 197.799 163.237 196.226 164.586 194.632C165.9 193.119 167.016 191.445 167.908 189.651C168.542 188.339 169.088 186.989 169.725 185.679C169.858 185.353 169.969 185.018 170.057 184.676C170.086 184.525 170.135 184.379 170.204 184.241C170.328 183.99 170.517 183.777 170.751 183.624C170.986 183.471 171.257 183.383 171.537 183.37C173.514 183.272 175.495 183.486 177.405 184.006C179.027 184.441 180.577 185.108 182.008 185.986C183.551 186.922 184.954 188.071 186.175 189.399C187.538 190.906 188.648 192.624 189.461 194.486C190.164 196.127 190.636 197.858 190.865 199.63C191.114 201.71 191.017 203.818 190.577 205.867C190.116 207.867 189.346 209.783 188.294 211.546C187.535 212.863 186.585 214.061 185.476 215.1C184.031 216.532 182.353 217.709 180.514 218.58C178.623 219.491 176.59 220.073 174.503 220.303C173.801 220.38 173.096 220.419 172.39 220.42Z" fill="#DCCDB3"/>
<path d="M108.932 126.101C110.29 126.082 111.644 126.238 112.962 126.566C113.701 126.699 114.418 126.934 115.092 127.266C115.461 127.467 115.884 127.524 116.268 127.701C119.377 129.103 122.033 131.344 123.937 134.174C125.599 136.659 126.634 139.51 126.957 142.482C126.976 142.944 127.02 143.405 127.087 143.863C127.176 144.261 127.075 144.369 126.638 144.398C124.943 144.532 123.276 144.899 121.682 145.49C118.995 146.453 116.546 147.98 114.499 149.97C113.33 151.097 112.308 152.367 111.457 153.751C110.918 154.612 110.454 155.518 110.071 156.459C109.681 157.322 109.362 158.214 109.116 159.128C108.855 160.056 108.681 161.006 108.598 161.967C108.593 162.097 108.545 162.226 108.529 162.356C108.502 162.571 108.403 162.637 108.175 162.633C107.077 162.59 105.985 162.46 104.908 162.246C102.884 161.792 100.946 161.013 99.1704 159.941C98.0265 159.282 96.9778 158.471 96.0535 157.528C94.7035 156.225 93.5621 154.722 92.6691 153.072C91.5842 151.094 90.8897 148.926 90.6234 146.685C90.4334 145.088 90.441 143.473 90.6459 141.877C90.7498 141.137 90.8955 140.404 91.0823 139.681C91.4694 138.207 92.0467 136.79 92.7998 135.466C94.393 132.594 96.7339 130.207 99.5742 128.558C102.414 126.91 105.648 126.061 108.932 126.101Z" fill="#DCCDB3"/>
<path d="M108.46 124.52C105.652 124.531 102.879 125.156 100.337 126.351C97.8964 127.494 95.7116 129.118 93.9145 131.127C93.07 132.052 92.3285 133.066 91.7028 134.151C91.201 134.956 90.7623 135.798 90.3904 136.671C89.511 138.808 89.0088 141.082 88.9062 143.392C88.9065 143.458 88.903 143.524 88.8958 143.59C88.8432 143.988 88.7665 144.042 88.3799 143.96C87.8013 143.817 87.2382 143.618 86.6987 143.365C83.7894 142.064 81.213 140.121 79.1634 137.68C77.1138 135.24 75.6445 132.367 74.866 129.277C74.4458 127.791 74.2225 126.256 74.2017 124.713C74.2305 122.856 74.6197 121.023 75.3477 119.315C75.6104 118.684 75.9089 118.067 76.1951 117.446C77.0957 115.601 78.3067 113.926 79.7752 112.492C81.1395 111.045 82.7428 109.842 84.5147 108.938C85.8473 108.297 87.2481 107.808 88.6903 107.481C90.2148 107.126 91.7721 106.93 93.3371 106.897C94.6158 106.878 95.8901 107.052 97.1168 107.414C97.7247 107.614 98.3156 107.862 98.8836 108.157C99.6237 108.503 100.369 108.847 101.077 109.252C101.646 109.578 102.17 109.987 102.716 110.353C103.947 111.246 105.081 112.266 106.098 113.397C108.81 116.229 110.41 119.943 110.605 123.859C110.623 124.43 110.541 124.52 109.984 124.52C109.476 124.521 108.968 124.521 108.46 124.52Z" fill="#DCCDB3"/>
<path d="M192.582 201.511C192.582 201.093 192.611 200.673 192.573 200.259C192.54 199.909 192.678 199.753 192.999 199.74C193.947 199.67 194.899 199.682 195.844 199.774C196.327 199.81 196.808 199.871 197.284 199.957C198.05 200.14 198.807 200.354 199.567 200.551C200.493 200.836 201.394 201.199 202.259 201.636C203.248 202.119 204.175 202.719 205.02 203.423C206.506 204.57 207.786 205.96 208.806 207.536C210.218 209.681 211.138 212.111 211.502 214.654C211.826 216.991 211.687 219.369 211.092 221.653C210.645 223.319 209.955 224.91 209.042 226.375C207.857 228.316 206.286 229.995 204.428 231.307C203.137 232.237 201.722 232.982 200.226 233.522C198.835 234.018 197.39 234.348 195.921 234.504C194.076 234.685 192.215 234.571 190.406 234.166C189.796 234.077 189.201 233.902 188.639 233.646C188.207 233.415 187.724 233.326 187.28 233.135C186.22 232.649 185.208 232.065 184.257 231.393C181.827 229.733 179.873 227.467 178.588 224.82C178.152 223.902 177.786 222.953 177.492 221.98C177.368 221.606 177.442 221.48 177.827 221.338C178.427 221.117 179.035 220.914 179.637 220.697C181.833 219.88 183.863 218.673 185.63 217.134C186.771 216.195 187.786 215.112 188.649 213.912C189.743 212.348 190.856 210.777 191.341 208.869C191.486 208.3 191.75 207.762 191.91 207.185C192.161 206.228 192.351 205.255 192.478 204.274C192.622 203.36 192.656 202.433 192.582 201.511Z" fill="#DCCDB3"/>
<path d="M227.106 214.985C227.728 215.181 227.873 215.753 228.038 216.262C228.194 216.742 228.396 217.206 228.641 217.647C229.16 218.672 229.573 219.747 229.874 220.855C230.296 222.271 230.603 223.719 230.791 225.185C231.067 226.996 231.017 228.842 230.645 230.636C230.308 232.167 229.731 233.636 228.936 234.987C228.549 235.654 228.21 236.343 227.782 236.991C227.066 238.096 226.254 239.135 225.355 240.098C224.474 241.048 223.518 241.927 222.498 242.726C220.305 244.52 217.736 245.798 214.982 246.465C213.198 246.793 211.368 246.768 209.594 246.389C208.384 246.158 207.2 245.811 206.057 245.351C204.786 244.788 203.592 244.067 202.502 243.206C201.672 242.622 200.892 241.972 200.168 241.26C199.147 240.314 198.319 239.18 197.728 237.92C197.514 237.507 197.396 237.051 197.382 236.587C197.403 235.973 197.387 235.959 197.961 235.823C198.583 235.675 199.202 235.522 199.817 235.343C202.084 234.665 204.203 233.565 206.061 232.1C207.316 231.131 208.434 229.997 209.384 228.729C210.444 227.371 211.302 225.867 211.932 224.264C212.568 222.624 212.995 220.91 213.2 219.163C213.466 216.593 213.215 213.995 212.461 211.523C212.443 211.483 212.429 211.441 212.42 211.398C212.404 211.158 212.168 210.91 212.309 210.702C212.473 210.458 212.751 210.675 212.98 210.674C213.2 210.66 213.417 210.622 213.628 210.561C215.175 210.2 216.762 210.037 218.35 210.076C219.288 210.141 220.22 210.28 221.137 210.491C221.309 210.536 221.459 210.64 221.563 210.783C222.292 211.639 223.112 212.414 224.008 213.093C224.662 213.581 225.353 214.017 226.074 214.398C226.249 214.491 226.413 214.604 226.582 214.707C226.646 214.794 226.777 214.762 226.84 214.851C226.915 214.922 227.042 214.892 227.106 214.985Z" fill="#DCCDB3"/>
<path d="M97.6702 104.541C97.6864 104.787 97.722 105.073 97.7199 105.359C97.7172 105.726 97.6031 105.815 97.2401 105.744C95.8205 105.427 94.3687 105.277 92.9143 105.297C89.9064 105.383 86.9443 106.057 84.195 107.28C82.4214 108.126 80.7971 109.255 79.3856 110.622C78.09 111.816 76.9377 113.157 75.9522 114.618C75.011 116.006 74.2563 117.512 73.7074 119.097C73.1466 120.673 72.7759 122.31 72.6033 123.974C72.5627 124.418 72.3566 124.487 71.9752 124.237C70.3292 123.169 68.8451 121.871 67.5684 120.381C66.4073 119.02 65.4774 117.477 64.8157 115.815C64.3137 114.636 63.9638 113.399 63.7743 112.132C63.6349 111.172 63.5946 110.201 63.6541 109.234C63.7745 107.898 63.9767 106.572 64.2595 105.261C64.469 104.251 64.7433 103.255 65.0808 102.28C65.4582 101.22 65.9558 100.207 66.564 99.2604C67.2918 98.1082 68.1683 97.0569 69.171 96.1338C71.0572 94.3577 73.3159 93.0248 75.7825 92.2322C76.7699 91.9122 77.7934 91.7168 78.8292 91.6504C80.2939 91.5285 81.766 91.5272 83.2309 91.6466C84.5449 91.7608 85.8462 91.9916 87.1194 92.3364C87.4773 92.4392 87.8406 92.5231 88.1984 92.6258C89.4893 93.0172 90.7134 93.6015 91.8294 94.3591C94.5095 95.9972 96.465 98.5948 97.2979 101.623C97.5678 102.572 97.6933 103.556 97.6702 104.541Z" fill="#DCCDB3"/>
<path d="M246.304 233.616C246.384 235.379 246.195 237.144 245.744 238.85C245.408 240.22 244.841 241.523 244.068 242.703C243.099 244.171 241.981 245.534 240.731 246.771C238.817 248.742 236.465 250.234 233.866 251.127C232.789 251.448 231.681 251.656 230.56 251.747C228.942 251.879 227.313 251.819 225.708 251.568C224.711 251.425 223.722 251.228 222.747 250.978C221.56 250.638 220.42 250.154 219.35 249.538C218.649 249.166 218.023 248.669 217.501 248.072C217.165 247.689 217.199 247.553 217.668 247.363C219.376 246.693 220.994 245.814 222.485 244.745C224.459 243.34 226.227 241.664 227.735 239.767C229.187 237.996 230.385 236.033 231.297 233.933C232.282 231.568 232.703 229.008 232.528 226.453C232.325 223.632 231.697 220.858 230.667 218.224C230.413 217.573 230.452 217.492 231.109 217.28C231.999 217.01 232.941 216.958 233.855 217.127C234.948 217.279 236.006 217.618 236.984 218.129C238.61 218.936 240.007 220.137 241.048 221.624C241.335 222.011 241.666 222.362 242.035 222.672C242.752 223.422 243.375 224.256 243.89 225.157C245.187 227.218 246.008 229.543 246.294 231.962C246.332 232.513 246.335 233.065 246.304 233.616Z" fill="#DCCDB3"/>
<path d="M56.9262 95.359C56.8788 94.4641 56.9969 93.5681 57.2745 92.7161C57.6296 91.5712 57.8983 90.3578 58.7024 89.393C58.7583 89.3245 58.8056 89.2494 58.8434 89.1695C59.3592 88.2 59.9463 87.2703 60.5998 86.3878C61.2745 85.3861 62.0268 84.4388 62.8498 83.5549C64.5573 81.7192 66.6933 80.3355 69.0666 79.5278C70.4537 79.0875 71.8823 78.7908 73.3299 78.6425C74.6584 78.4356 76.0042 78.3609 77.3474 78.4195C78.8149 78.5199 80.2598 78.8347 81.6362 79.3537C82.6241 79.7317 83.5733 80.204 84.4705 80.7642C86.0276 81.6323 87.4263 82.7581 88.6072 84.0938C89.5062 85.2204 90.0814 86.5708 90.2708 87.9997C90.3263 88.8762 90.3051 89.756 90.2075 90.6289C90.1906 90.7603 90.1541 90.8884 90.0993 91.0091C89.9494 91.4451 89.9129 91.4625 89.4908 91.3323C88.3444 90.9492 87.1753 90.6374 85.9903 90.3989C84.737 90.1754 83.4707 90.0321 82.1992 89.97C80.1104 89.845 78.0146 90.0251 75.9778 90.5044C73.836 91.0612 71.8218 92.0258 70.0453 93.3453C68.5557 94.4086 67.2279 95.682 66.1033 97.1259C65.0806 98.3715 64.2648 99.7733 63.6871 101.278C63.1456 102.762 62.7486 104.296 62.5018 105.857C62.4246 106.38 62.2615 106.886 62.2273 107.419C62.2086 107.712 61.9845 107.773 61.7789 107.525C61.4241 107.103 61.095 106.66 60.7934 106.198C59.8942 104.834 59.1049 103.401 58.4329 101.911C57.4597 99.863 56.9455 97.6268 56.9262 95.359Z" fill="#DCCDB3"/>
<path d="M256.74 236.219C256.757 237.773 256.583 239.323 256.222 240.834C255.864 242.382 255.284 243.871 254.5 245.254C253.487 247.098 252.063 248.684 250.34 249.89C248.355 251.253 246.208 252.364 243.949 253.196C242.367 253.782 240.65 253.9 239.002 253.537C238.155 253.376 237.344 253.06 236.611 252.604C236.484 252.516 236.364 252.418 236.252 252.312C236.073 252.149 236.112 252.003 236.31 251.894C236.755 251.649 237.208 251.421 237.648 251.168C239.809 249.877 241.741 248.236 243.364 246.311C244.117 245.447 244.782 244.519 245.454 243.597C245.668 243.262 245.854 242.91 246.011 242.545C246.58 241.474 247.026 240.343 247.341 239.172C247.533 238.359 247.677 237.535 247.773 236.705C247.926 235.412 247.981 234.109 247.94 232.808C247.863 230.821 247.43 228.865 246.661 227.031C245.988 225.374 245.075 223.825 243.952 222.433C243.883 222.347 243.819 222.257 243.758 222.166C243.488 221.763 243.499 221.727 243.907 221.444C244.594 221.004 245.307 220.604 246.041 220.248C246.631 219.996 247.27 219.88 247.911 219.909C248.268 219.932 248.604 220.089 248.85 220.349C250.289 221.584 251.569 222.993 252.66 224.543C253.844 226.139 254.795 227.895 255.482 229.759C256.247 231.83 256.672 234.012 256.74 236.219Z" fill="#DCCDB3"/>
<path d="M84.0095 78.6232C83.2266 78.2223 82.4116 77.8875 81.573 77.6223C80.7812 77.3687 79.9751 77.1619 79.159 77.003C77.7874 76.7789 76.393 76.7294 75.009 76.8554C73.7996 76.9637 72.5972 77.1135 71.4016 77.305C68.4196 77.762 65.6181 79.0218 63.2975 80.9495C61.8281 82.1851 60.5333 83.6144 59.4486 85.1985C58.8955 85.9905 58.3392 86.7765 57.8636 87.6234C57.5154 88.1178 57.2046 88.6375 56.9339 89.1782C56.6614 89.0774 56.6864 88.9052 56.6804 88.7598C56.5801 87.4846 56.6418 86.2017 56.8639 84.942C56.9831 84.2699 57.1884 83.616 57.4746 82.9963C58.0712 81.814 58.5848 80.5901 59.1703 79.4019C60.0021 77.7516 61.1078 76.2545 62.4403 74.9741C63.4204 73.9587 64.506 73.0508 65.6788 72.2658C67.0719 71.4045 68.6201 70.8239 70.2361 70.5568C71.9925 70.2235 73.7805 70.0863 75.5672 70.1478C76.9068 70.2112 78.2369 70.4061 79.5383 70.7298C80.7606 71.0982 81.9425 71.5895 83.0658 72.1961C83.4849 72.4368 83.8831 72.7124 84.2561 73.0199C85.7121 73.981 86.9961 75.1804 88.054 76.5678C88.2102 76.7818 88.354 77.0022 88.502 77.2206C88.7191 77.469 88.8539 77.7785 88.888 78.1066C88.9221 78.4347 88.8538 78.7654 88.6924 79.0531C88.3868 79.5661 88.1789 80.1312 88.0792 80.7199C88.0417 81.03 87.8581 81.0703 87.5311 80.9118C87.1701 80.7027 86.8313 80.4574 86.5199 80.1797C85.9363 79.7323 85.2648 79.4481 84.6746 79.0265C84.5368 78.9442 84.4036 78.8545 84.2756 78.7578L84.2762 78.7586C84.2002 78.688 84.0768 78.7108 84.0095 78.6232Z" fill="#DCCDB3"/>
<path d="M262.236 233.335C262.174 234.754 261.944 236.16 261.55 237.525C261.009 239.344 260.237 241.087 259.254 242.711C258.497 243.956 257.552 245.076 256.451 246.031C256.418 246.06 256.386 246.091 256.353 246.12C256.235 246.225 256.102 246.34 255.951 246.208C255.829 246.1 255.922 245.964 255.974 245.845C256.01 245.764 256.048 245.685 256.091 245.607C257.456 243.085 258.223 240.283 258.334 237.417C258.437 234.485 257.928 231.563 256.839 228.838C255.539 225.568 253.56 222.61 251.033 220.162C250.816 219.943 250.584 219.739 250.339 219.551C249.786 219.129 249.865 218.604 250.294 218.125C250.544 217.847 250.824 217.596 251.097 217.34C251.217 217.244 251.324 217.134 251.416 217.011C251.745 216.501 251.751 216.506 252.278 216.733C253.773 217.442 255.1 218.459 256.173 219.718C257.965 221.671 259.476 223.863 260.664 226.232C261.804 228.42 262.347 230.87 262.236 233.335Z" fill="#DCCDB3"/>
<path d="M78.9194 65.902C80.2879 65.8866 81.6552 65.9863 83.0069 66.2002C83.1167 66.2112 83.2239 66.24 83.3244 66.2854C84.2438 66.6493 85.1859 66.953 86.1447 67.1947C87.1305 67.5229 88.0478 68.0288 88.8513 68.6874C90.031 69.581 91.0232 70.6983 91.7713 71.9753C92.2427 72.7719 92.6232 73.6188 92.9058 74.5003C93.0321 74.9128 93.014 74.9654 92.6135 75.0551C91.8169 75.2487 91.0878 75.6549 90.504 76.2304C90.1264 76.5811 90.0207 76.5742 89.7338 76.1565C88.8004 74.7883 87.6542 73.5783 86.3386 72.5722C85.56 71.9227 84.7254 71.3435 83.8446 70.8413C83.3976 70.5207 82.9284 70.2322 82.4405 69.978C81.612 69.6893 80.7832 69.4079 79.9339 69.1743C77.7769 68.6159 75.5432 68.4132 73.321 68.5744C71.9329 68.6268 70.5532 68.8139 69.2012 69.1331C68.9916 69.1863 68.7236 69.3277 68.6063 69.0879C68.4846 68.839 68.7796 68.7277 68.9457 68.6035C70.3944 67.5862 72.0313 66.8677 73.7608 66.4901C75.4418 66.04 77.1803 65.8418 78.9194 65.902Z" fill="#DCCDB3"/>
<path d="M263.326 225.741C263.299 226.127 263.281 226.5 263.242 226.872C263.226 227.02 263.2 227.21 263.004 227.221C262.852 227.23 262.801 227.069 262.756 226.95C262.513 226.335 262.233 225.736 261.918 225.155C260.86 223.094 259.559 221.167 258.042 219.416C257.244 218.476 256.374 217.601 255.438 216.798C254.825 216.259 254.129 215.824 253.376 215.51C253.15 215.423 252.939 215.299 252.719 215.196C252.672 215.18 252.629 215.156 252.593 215.123C252.556 215.091 252.526 215.051 252.504 215.007C252.483 214.963 252.471 214.915 252.468 214.866C252.465 214.817 252.473 214.768 252.489 214.722C252.66 214.015 252.684 213.28 252.56 212.564C252.435 211.847 252.164 211.164 251.765 210.556C251.693 210.448 251.602 210.332 251.675 210.192C251.768 210.014 251.94 210.053 252.085 210.08C252.542 210.151 252.989 210.276 253.416 210.453C255.409 211.247 257.223 212.43 258.753 213.935C260.355 215.619 261.559 217.641 262.278 219.852C262.88 221.762 263.232 223.741 263.326 225.741Z" fill="#DCCDB3"/>
<path d="M118.159 78.4533C120.17 78.4998 122.136 79.0586 123.871 80.0768C125.207 80.8955 126.395 81.9346 127.384 83.1501C128.01 83.8637 128.507 84.6817 128.851 85.567C128.905 85.7115 128.958 85.8565 129.006 86.0029C129.06 86.1664 129.172 86.3589 128.977 86.4794C128.811 86.5815 128.712 86.3951 128.594 86.3061C127.972 85.8506 127.3 85.4681 126.591 85.1659C125.3 84.6455 123.9 84.4546 122.517 84.6105C121.133 84.7431 119.776 85.0802 118.491 85.611C117.6 85.9521 117.601 85.9415 117.549 84.9925C117.532 83.3021 116.928 81.67 115.84 80.3762C115.758 80.2749 115.669 80.1786 115.575 80.0878C115.443 80.0049 115.34 79.8838 115.28 79.7407C115.219 79.5976 115.204 79.4394 115.235 79.2873C115.267 79.1352 115.345 78.9964 115.458 78.8897C115.571 78.783 115.714 78.7133 115.867 78.6902C116.412 78.5146 116.983 78.4321 117.556 78.4459C117.756 78.4207 117.959 78.4232 118.159 78.4533Z" fill="#DCCDB3"/>
<path d="M250.234 198.873C249.845 198.786 249.456 198.719 249.079 198.612C247.38 198.134 245.617 197.924 243.854 197.988C243.721 197.993 243.589 197.99 243.456 197.987C243.412 197.992 243.367 197.986 243.325 197.971C243.283 197.955 243.246 197.93 243.216 197.897C243.186 197.864 243.164 197.824 243.152 197.781C243.14 197.738 243.139 197.692 243.148 197.649C243.164 197.32 243.17 196.991 243.204 196.664C243.388 194.369 243.017 192.064 242.12 189.943C241.709 188.869 241.135 187.865 240.418 186.967C240.335 186.863 240.22 186.757 240.349 186.629C240.398 186.583 240.458 186.552 240.524 186.54C240.59 186.529 240.657 186.537 240.719 186.563C241.684 186.793 242.613 187.152 243.481 187.632C244.593 188.301 245.597 189.135 246.459 190.105C247.372 191.182 248.194 192.332 248.918 193.544C249.611 194.779 250.04 196.143 250.18 197.551C250.32 197.978 250.339 198.436 250.234 198.873Z" fill="#DCCDB3"/>
<path d="M102.794 70.5373C103.827 70.5804 104.849 70.7683 105.83 71.0958C107.834 71.8537 109.637 73.0629 111.099 74.6298C111.968 75.6 112.692 76.6917 113.248 77.8705C113.332 78.0283 113.398 78.2045 113.245 78.3597C113.106 78.5008 112.948 78.4006 112.812 78.3505C111.063 77.7724 109.169 77.8035 107.439 78.4386C106.53 78.7144 105.659 79.1002 104.843 79.5875C104.553 79.7623 104.44 79.7184 104.4 79.378C104.313 78.5225 104.076 77.6889 103.701 76.9152C103.672 76.8323 103.662 76.7439 103.671 76.6565C103.64 75.3983 103.369 74.1575 102.874 73.0006C102.615 72.3437 102.291 71.7144 101.907 71.122C101.655 70.7201 101.736 70.57 102.198 70.5395C102.396 70.5264 102.596 70.5373 102.794 70.5373Z" fill="#DCCDB3"/>
<path d="M217.978 161.773C217.12 159.567 215.788 157.577 214.076 155.942C213.543 155.326 212.922 154.792 212.233 154.358C212.176 154.324 212.126 154.279 212.086 154.227C212.047 154.188 212.023 154.136 212.018 154.081C212.014 154.025 212.03 153.97 212.062 153.926C212.092 153.892 212.131 153.868 212.175 153.859C212.219 153.849 212.265 153.855 212.305 153.874C213.663 154.241 214.978 154.752 216.228 155.397C217.228 155.952 218.16 156.621 219.005 157.392C220.108 158.476 221.043 159.718 221.78 161.077C222.569 162.484 223.131 164.006 223.447 165.588C223.622 166.476 223.696 167.38 223.668 168.285C223.659 168.676 223.558 168.784 223.204 168.725C222.206 168.538 221.183 168.521 220.18 168.676C219.876 168.729 219.7 168.647 219.664 168.272C219.56 166.887 219.305 165.517 218.901 164.187C218.714 163.552 218.491 162.929 218.232 162.32C218.144 162.25 218.17 162.128 218.106 162.047C218.009 161.981 218.035 161.858 217.978 161.773Z" fill="#DCCDB3"/>
<path d="M94.9527 75.9467C94.8062 75.5424 94.7088 75.122 94.6626 74.6945C94.0206 72.269 92.7184 70.0691 90.9006 68.3395C90.0661 67.4603 89.0629 66.7582 87.9511 66.2752C87.9304 66.2672 87.9107 66.257 87.8921 66.245C87.7502 66.1534 87.4936 66.1245 87.5286 65.9173C87.5664 65.6941 87.7865 65.6934 88.0011 65.6942C88.8264 65.7181 89.6485 65.8077 90.4596 65.9623C91.5564 66.1824 92.6332 66.4928 93.6789 66.8903C94.7532 67.2338 95.7706 67.735 96.6976 68.3776C97.3736 68.8627 98.0819 69.2981 98.7117 69.8509C99.7305 70.731 100.552 71.8162 101.123 73.0356C101.299 73.4154 101.453 73.8062 101.609 74.1954C101.657 74.3179 101.692 74.4625 101.57 74.5627C101.47 74.6449 101.363 74.5668 101.263 74.5263C99.1018 73.6467 97.2133 74.2219 95.4784 75.6129C95.3272 75.7342 95.2129 75.9097 94.9527 75.9467Z" fill="#DCCDB3"/>
<path d="M258.798 211.234C258.811 211.29 258.807 211.349 258.789 211.404C258.77 211.458 258.736 211.507 258.692 211.543C258.573 211.628 258.492 211.532 258.403 211.47C257.304 210.697 256.161 209.99 254.978 209.351C253.548 208.587 251.918 208.282 250.308 208.476C250.154 208.476 250.001 208.511 249.862 208.578C249.49 208.774 249.062 208.837 248.648 208.759C248.163 208.73 248.107 208.643 248.336 208.186C248.787 207.376 249.179 206.534 249.509 205.667C249.79 204.911 249.916 204.107 249.879 203.301C249.842 202.496 249.642 201.706 249.292 200.98C249.239 200.883 249.191 200.783 249.15 200.681C249.085 200.49 249.167 200.382 249.365 200.371C249.541 200.373 249.715 200.414 249.875 200.49C252.741 201.648 255.168 203.682 256.81 206.301C257.772 207.764 258.44 209.4 258.777 211.118C258.786 211.161 258.793 211.205 258.798 211.234Z" fill="#DCCDB3"/>
<path d="M238.385 183.889C238.408 184.915 238.41 184.911 237.48 184.43C236.32 183.837 235.066 183.449 233.773 183.284C233.269 183.216 233.222 183.177 233.219 182.66C233.227 181.204 233.066 179.752 232.736 178.334C232.156 176.035 231.039 173.907 229.479 172.122C229.322 171.937 229.165 171.753 229.016 171.563C228.988 171.528 228.972 171.485 228.971 171.44C228.97 171.396 228.983 171.352 229.009 171.315C229.07 171.227 229.16 171.266 229.247 171.286C231.322 171.85 233.176 173.033 234.561 174.679C235.713 175.932 236.639 177.375 237.298 178.944C237.958 180.513 238.326 182.188 238.385 183.889Z" fill="#DCCDB3"/>
<path d="M144.737 95.3774C144.505 95.4833 144.383 95.3543 144.249 95.2981C142.21 94.3925 140.004 93.925 137.773 93.9258C136.404 93.901 135.037 94.0446 133.703 94.3535C133.11 94.513 133.019 94.4535 132.917 93.842C132.722 92.6433 132.342 91.4823 131.79 90.4006C131.63 90.0887 131.702 89.9088 131.999 89.7684C132.863 89.3694 133.807 89.1752 134.758 89.201C136.303 89.242 137.819 89.6322 139.192 90.3424C141.186 91.3415 142.928 92.7793 144.287 94.548C144.498 94.7869 144.652 95.0705 144.737 95.3774Z" fill="#DCCDB3"/>
<path d="M192.424 136.007C192.97 135.926 193.525 135.949 194.062 136.073C194.896 136.27 195.706 136.555 196.48 136.922C197.419 137.304 198.308 137.796 199.131 138.387C199.89 138.942 200.614 139.533 201.334 140.136C202.737 141.351 203.92 142.797 204.833 144.412C205.864 146.268 206.5 148.317 206.703 150.43C206.775 150.82 206.82 151.215 206.837 151.611C206.832 152.071 206.805 152.113 206.366 152.113C205.836 152.113 205.306 152.085 204.777 152.093C204.441 152.097 204.326 151.954 204.285 151.626C204.152 150.579 204.046 149.529 203.815 148.491C203.61 147.499 203.327 146.524 202.969 145.576C201.857 142.486 199.712 139.874 196.896 138.182C196.305 137.842 195.744 137.451 195.121 137.162C194.555 136.864 193.954 136.637 193.332 136.483C192.99 136.417 192.674 136.252 192.424 136.007Z" fill="#DCCDB3"/>
<path d="M165.093 110.675C164.822 110.693 164.723 110.468 164.581 110.312C162.879 108.389 160.671 106.985 158.209 106.259C156.457 105.802 154.635 105.681 152.838 105.9C152.309 105.905 151.782 105.965 151.266 106.079C151.008 106.158 150.866 106.035 150.822 105.749C150.711 105.033 150.559 104.323 150.448 103.606C150.386 103.204 150.521 103.06 150.987 102.924C151.802 102.716 152.649 102.669 153.482 102.784C155.284 102.953 157.038 103.462 158.651 104.284C160.798 105.322 162.683 106.831 164.164 108.7C164.537 109.192 164.846 109.731 165.081 110.303C165.132 110.426 165.194 110.545 165.093 110.675Z" fill="#DCCDB3"/>
<path d="M171.294 119.655C170.654 119.689 170.106 119.727 169.557 119.745C169.07 119.76 168.972 119.67 168.913 119.213C168.869 118.87 168.96 118.795 169.42 118.685C170.782 118.43 172.178 118.416 173.545 118.643C174.965 118.792 176.354 119.162 177.66 119.742C178.532 120.158 179.366 120.65 180.152 121.212C181.325 122.03 182.394 122.986 183.337 124.061C184.69 125.581 185.758 127.333 186.492 129.231C187.07 130.853 187.44 132.541 187.593 134.256C187.632 134.562 187.685 134.866 187.721 135.172C187.741 135.334 187.718 135.507 187.522 135.531C187.473 135.543 187.422 135.544 187.373 135.534C187.323 135.525 187.276 135.505 187.235 135.477C187.193 135.448 187.158 135.411 187.132 135.368C187.106 135.325 187.089 135.277 187.082 135.228C187.065 135.096 187.057 134.964 187.061 134.831C187.017 132.753 186.533 130.707 185.639 128.83C184.681 126.791 183.356 124.945 181.73 123.386C180.482 122.236 179.028 121.333 177.445 120.723C175.745 120.062 173.94 119.711 172.116 119.688C171.845 119.638 171.568 119.626 171.294 119.655Z" fill="#DCCDB3"/>
<path d="M210.947 207.79C211.249 208.186 211.497 208.62 211.685 209.081C211.912 209.464 211.91 209.477 212.25 209.245C212.809 208.903 213.451 208.722 214.107 208.723C213.9 208.967 213.59 208.94 213.323 208.994C213.104 209.01 212.892 209.074 212.7 209.179C212.508 209.285 212.34 209.431 212.209 209.606C212.057 209.844 211.863 209.811 211.755 209.58C211.413 209.019 211.142 208.417 210.947 207.79Z" fill="#8B7E71"/>
<path d="M191.295 174.397C190.873 173.613 190.605 172.755 190.505 171.87C190.85 172.685 191.114 173.531 191.295 174.397Z" fill="#3C1F1B"/>
<path d="M144.479 133.545C144.848 133.67 145.172 133.899 145.412 134.206C145.217 134.173 145.032 134.096 144.87 133.982C144.709 133.868 144.575 133.718 144.479 133.545Z" fill="#8D7342"/>
<path d="M200.859 199.176C201.245 199.204 201.613 199.347 201.916 199.587C201.524 199.593 201.145 199.446 200.859 199.176Z" fill="#998D81"/>
<path d="M177.374 163.652C177.07 163.466 176.833 163.19 176.695 162.863C176.861 162.934 177.008 163.042 177.126 163.179C177.243 163.315 177.328 163.477 177.374 163.652Z" fill="#94887C"/>
<path d="M123.526 130.891C123.785 131.03 123.984 131.259 124.084 131.535C123.943 131.485 123.818 131.4 123.72 131.287C123.622 131.174 123.556 131.038 123.526 130.891Z" fill="#9B8F83"/>
<path d="M191.561 175.062C191.473 174.976 191.404 174.872 191.358 174.757C191.312 174.642 191.29 174.519 191.294 174.395C191.396 174.471 191.475 174.573 191.522 174.691C191.569 174.809 191.583 174.937 191.561 175.062Z" fill="#3C1F1B"/>
<path d="M237.725 186.193C237.547 186.116 237.403 185.974 237.324 185.796C237.377 185.793 237.43 185.802 237.48 185.82C237.53 185.839 237.575 185.868 237.613 185.906C237.65 185.943 237.68 185.988 237.699 186.037C237.719 186.087 237.728 186.14 237.725 186.193Z" fill="#DCCDB3"/>
<path d="M178.037 122.402C177.935 122.396 177.836 122.37 177.745 122.325C177.654 122.281 177.573 122.218 177.506 122.141C177.611 122.112 177.723 122.123 177.821 122.171C177.919 122.219 177.995 122.302 178.037 122.402Z" fill="#8B7142"/>
<path d="M102.57 77.443C102.311 77.4279 102.268 77.2103 102.183 77.0322C102.437 77.0511 102.484 77.2653 102.57 77.443Z" fill="#886E43"/>
<path d="M193.556 178.503C193.478 178.471 193.41 178.417 193.36 178.349C193.31 178.28 193.28 178.199 193.272 178.115C193.36 178.132 193.437 178.182 193.49 178.254C193.542 178.326 193.566 178.415 193.556 178.503Z" fill="#908478"/>
<path d="M84.2759 78.7578C84.3622 78.7549 84.4473 78.7793 84.5189 78.8275C84.5906 78.8758 84.6451 78.9454 84.6749 79.0265C84.5873 79.0361 84.4992 79.0144 84.4262 78.9652C84.3532 78.916 84.2999 78.8425 84.2759 78.7578Z" fill="#3C1F1B"/>
<path d="M108.669 113.786C108.747 113.818 108.815 113.87 108.866 113.938C108.916 114.006 108.946 114.086 108.953 114.17C108.867 114.151 108.791 114.102 108.739 114.032C108.687 113.961 108.662 113.874 108.669 113.786Z" fill="#3C1F1B"/>
<path d="M210.142 206.476C210.219 206.513 210.285 206.569 210.333 206.64C210.381 206.711 210.409 206.793 210.414 206.878C210.326 206.858 210.249 206.806 210.198 206.731C210.148 206.656 210.128 206.565 210.142 206.476Z" fill="#3C1F1B"/>
<path d="M84.0098 78.6232C84.0626 78.6172 84.116 78.6268 84.1634 78.6509C84.2109 78.675 84.2501 78.7125 84.2764 78.7587C84.2231 78.771 84.1672 78.7642 84.1185 78.7394C84.0697 78.7146 84.0312 78.6735 84.0098 78.6232Z" fill="#3C1F1B"/>
<path d="M226.84 214.851C226.787 214.858 226.733 214.848 226.687 214.823C226.64 214.797 226.603 214.756 226.582 214.708C226.635 214.699 226.689 214.709 226.735 214.735C226.782 214.761 226.819 214.802 226.84 214.851Z" fill="#3C1F1B"/>
<path d="M218.106 162.047C218.152 162.075 218.189 162.116 218.211 162.164C218.233 162.213 218.241 162.267 218.232 162.32C218.183 162.296 218.143 162.256 218.12 162.206C218.097 162.156 218.092 162.1 218.106 162.047Z" fill="#3C1F1B"/>
<path d="M217.978 161.773C218.022 161.803 218.057 161.844 218.08 161.893C218.102 161.941 218.111 161.994 218.106 162.047C217.977 161.996 217.96 161.893 217.978 161.773Z" fill="#3C1F1B"/>
<path d="M227.105 214.985C227.053 214.992 227 214.983 226.952 214.959C226.905 214.935 226.866 214.897 226.84 214.851C226.893 214.839 226.949 214.846 226.997 214.87C227.046 214.895 227.084 214.935 227.105 214.985Z" fill="#3C1F1B"/>
<path d="M108.546 113.639C108.564 113.641 108.581 113.645 108.596 113.653C108.612 113.662 108.626 113.673 108.637 113.686C108.648 113.7 108.657 113.715 108.662 113.732C108.667 113.749 108.669 113.767 108.667 113.784C108.632 113.78 108.6 113.763 108.577 113.736C108.555 113.709 108.544 113.674 108.546 113.639Z" fill="#3C1F1B"/>
<path d="M197.588 163.766C197.962 163.648 198.032 163.389 198.188 163.214C198.996 162.309 199.807 161.408 200.609 160.499C201.309 159.706 202.012 158.914 202.685 158.099C202.884 157.858 202.992 157.801 203.259 158.01C203.68 158.337 204.055 158.708 204.443 159.069C204.846 159.444 204.867 159.459 204.502 159.889C203.804 160.712 203.078 161.513 202.368 162.327C201.209 163.655 200.064 164.995 198.89 166.31C198.274 167.001 197.661 167.694 197.069 168.407C196.803 168.728 196.744 168.716 196.434 168.441C196.021 168.076 195.613 167.705 195.195 167.346C195.077 167.251 194.989 167.122 194.945 166.976C194.901 166.831 194.902 166.675 194.948 166.53C195.392 164.153 195.801 161.769 196.218 159.387C196.363 158.903 196.44 158.403 196.449 157.898C196.194 157.932 196.089 158.119 195.966 158.259C195.135 159.201 194.317 160.153 193.491 161.099C192.795 161.897 192.09 162.686 191.4 163.487C191.197 163.722 191.064 163.721 190.811 163.515C190.365 163.152 189.972 162.731 189.522 162.377C189.29 162.194 189.28 162.047 189.465 161.835C190.32 160.856 191.169 159.871 192.021 158.889C193.132 157.607 194.245 156.326 195.358 155.046C195.939 154.382 196.54 153.736 197.119 153.07C197.27 152.897 197.404 152.876 197.565 153.019C198.06 153.458 198.549 153.904 199.045 154.342C199.22 154.496 199.206 154.657 199.165 154.874C198.846 156.581 198.546 158.292 198.243 160.002C198.026 161.234 197.814 162.466 197.588 163.766Z" fill="#3C1F1B"/>
<path d="M149.306 116.489C148.819 117.02 148.415 117.443 148.031 117.884C147.28 118.747 146.54 119.621 145.794 120.49C145.292 121.074 144.785 121.655 144.285 122.241C144.023 122.547 143.992 122.535 143.648 122.314C143.141 121.989 142.792 121.485 142.289 121.159C142.101 121.037 142.117 120.902 142.236 120.715C142.619 120.203 143.036 119.717 143.482 119.259C144.541 117.992 145.67 116.784 146.757 115.539C147.77 114.378 148.766 113.202 149.767 112.03C150.124 111.612 150.166 111.611 150.591 111.999C150.965 112.34 151.346 112.675 151.732 113.003C151.851 113.098 151.938 113.227 151.982 113.372C152.026 113.518 152.025 113.673 151.978 113.818C151.535 116.194 151.128 118.577 150.707 120.957C150.572 121.458 150.486 121.971 150.45 122.488C150.717 122.288 150.97 122.069 151.206 121.834C152.327 120.562 153.427 119.271 154.545 117.997C154.85 117.649 155.16 117.306 155.457 116.951C155.741 116.61 155.828 116.623 156.163 116.9C156.587 117.252 157.013 117.601 157.402 117.993C157.592 118.184 157.628 118.328 157.432 118.548C156.479 119.617 155.535 120.693 154.598 121.776C153.53 123.007 152.472 124.246 151.403 125.476C150.882 126.074 150.338 126.653 149.823 127.256C149.65 127.459 149.512 127.466 149.329 127.302C148.869 126.89 148.413 126.475 147.946 126.071C147.855 125.996 147.789 125.894 147.758 125.78C147.726 125.666 147.73 125.546 147.769 125.434C148.119 123.51 148.453 121.583 148.806 119.659C149.036 118.613 149.203 117.555 149.306 116.489Z" fill="#3C1F1B"/>
<path d="M167.431 143.106C166.8 142.54 166.198 142.002 165.597 141.463C165.419 141.303 165.464 141.125 165.517 140.918C165.864 139.552 166.182 138.178 166.545 136.817C166.596 136.696 166.606 136.563 166.573 136.436C166.54 136.309 166.466 136.197 166.363 136.117C166.027 135.832 165.695 135.542 165.361 135.254C165.167 135.087 165.031 135.136 164.867 135.328C164.166 136.15 163.449 136.957 162.735 137.768C162.619 137.9 162.487 138.02 162.366 138.149C162.335 138.195 162.294 138.234 162.246 138.261C162.197 138.289 162.143 138.305 162.088 138.308C162.032 138.311 161.976 138.301 161.925 138.279C161.874 138.257 161.829 138.223 161.793 138.18C161.384 137.811 160.978 137.437 160.552 137.088C160.276 136.863 160.305 136.659 160.516 136.423C160.882 136.011 161.247 135.598 161.61 135.184C163.057 133.522 164.503 131.86 165.949 130.197C166.63 129.417 167.31 128.635 168.006 127.868C168.322 127.52 168.343 127.532 168.688 127.834C169.965 128.952 171.304 130.001 172.481 131.23C173.093 131.843 173.506 132.627 173.665 133.479C173.731 134.057 173.659 134.641 173.458 135.186C173.256 135.731 172.93 136.221 172.505 136.617C172.08 137.012 171.568 137.303 171.01 137.466C170.452 137.628 169.864 137.657 169.293 137.552C168.97 137.469 168.818 137.607 168.743 137.938C168.404 139.441 168.041 140.938 167.689 142.438C167.648 142.676 167.56 142.902 167.431 143.106Z" fill="#3C1F1B"/>
<path d="M159.942 121.464C161.234 121.503 162.463 122.032 163.38 122.944C163.916 123.406 164.357 123.968 164.68 124.598C165.013 125.261 165.16 126.002 165.104 126.742C165.048 127.482 164.791 128.193 164.362 128.799C164.258 128.972 164.161 128.972 163.991 128.86C163.454 128.503 163.065 127.977 162.532 127.617C162.371 127.508 162.429 127.354 162.5 127.203C162.647 126.907 162.746 126.589 162.794 126.261C162.992 124.772 161.311 123.347 159.752 123.786C159.279 123.907 158.839 124.134 158.466 124.449C157.288 125.386 156.328 126.568 155.653 127.915C155.411 128.402 155.333 128.955 155.433 129.49C155.532 130.025 155.803 130.513 156.205 130.88C156.676 131.349 157.255 131.694 157.892 131.885C158.065 131.933 158.25 131.999 158.381 131.829C158.718 131.391 159.162 131.051 159.489 130.601C159.66 130.367 159.714 130.208 159.459 129.997C159.138 129.73 158.851 129.424 158.513 129.171C158.046 128.822 158.051 128.695 158.43 128.282C158.639 128.085 158.826 127.867 158.99 127.63C159.105 127.435 159.269 127.445 159.441 127.562C159.516 127.608 159.588 127.659 159.657 127.714C160.562 128.52 161.47 129.323 162.367 130.138C162.783 130.516 162.925 130.537 162.435 131.067C161.646 131.897 160.903 132.77 160.21 133.682C159.635 134.461 158.886 134.343 158.19 134.166C157.238 133.953 156.342 133.542 155.56 132.959C154.778 132.376 154.128 131.634 153.653 130.782C153.212 129.983 153.007 129.073 153.065 128.162C153.122 127.25 153.438 126.374 153.976 125.635C154.777 124.283 155.878 123.132 157.195 122.272C158.011 121.738 158.966 121.457 159.942 121.464Z" fill="#3C1F1B"/>
<path d="M200.314 169.866C200.253 168.753 200.573 167.652 201.221 166.745C202.091 165.33 203.289 164.146 204.714 163.292C205.452 162.843 206.304 162.616 207.168 162.637C208.032 162.658 208.871 162.927 209.586 163.412C210.427 163.944 211.141 164.653 211.68 165.49C212.077 166.155 212.281 166.917 212.268 167.691C212.255 168.466 212.026 169.221 211.607 169.872C211.422 170.158 211.293 170.135 211.038 169.947C210.59 169.617 210.231 169.193 209.794 168.858C209.748 168.827 209.709 168.788 209.679 168.742C209.649 168.696 209.628 168.645 209.618 168.591C209.608 168.537 209.609 168.481 209.62 168.427C209.632 168.374 209.654 168.323 209.686 168.278C209.852 167.992 209.961 167.676 210.006 167.348C210.003 166.899 209.878 166.46 209.644 166.077C209.41 165.694 209.076 165.382 208.678 165.175C208.28 164.968 207.833 164.874 207.385 164.902C206.937 164.93 206.506 165.08 206.137 165.335C204.78 166.216 203.68 167.441 202.95 168.884C202.594 169.468 202.484 170.17 202.644 170.835C202.804 171.5 203.221 172.075 203.804 172.433C204.143 172.716 204.539 172.923 204.964 173.042C205.121 173.1 205.294 173.103 205.454 173.052C205.613 173.001 205.752 172.898 205.847 172.76C206.119 172.385 206.426 172.036 206.763 171.717C206.941 171.536 206.959 171.379 206.73 171.236C206.259 170.941 205.952 170.453 205.47 170.169C205.427 170.153 205.39 170.126 205.362 170.091C205.333 170.056 205.315 170.014 205.31 169.969C205.304 169.924 205.31 169.878 205.329 169.837C205.347 169.796 205.376 169.76 205.413 169.735C205.458 169.688 205.476 169.616 205.52 169.568C206.474 168.522 206.317 168.436 207.315 169.366C208.103 170.101 208.935 170.791 209.764 171.482C209.994 171.674 209.991 171.799 209.807 172.017C208.913 173.078 208.016 174.137 207.069 175.153C206.973 175.258 206.855 175.341 206.723 175.394C206.591 175.447 206.449 175.47 206.307 175.46C205.086 175.419 203.907 175.001 202.933 174.263C202.24 173.788 201.634 173.197 201.142 172.516C200.55 171.764 200.255 170.821 200.314 169.866Z" fill="#3C1F1B"/>
<path d="M167.85 143.452C168.495 143.009 169.174 142.619 169.88 142.284C171.18 141.539 172.518 140.86 173.838 140.149C175.469 139.271 177.093 138.382 178.726 137.511C179.429 137.136 179.44 137.148 180.023 137.716C180.242 137.933 180.479 138.131 180.732 138.309C180.803 138.349 180.866 138.402 180.917 138.466C180.968 138.53 181.006 138.604 181.029 138.682C181.052 138.761 181.059 138.844 181.049 138.925C181.04 139.006 181.015 139.085 180.975 139.157C180.389 140.654 179.838 142.164 179.272 143.669C178.52 145.669 177.766 147.668 177.012 149.666C176.896 149.975 176.792 150.29 176.664 150.594C176.519 150.942 176.457 150.952 176.152 150.689C175.684 150.288 175.231 149.868 174.753 149.479C174.703 149.446 174.66 149.404 174.626 149.355C174.592 149.305 174.568 149.25 174.556 149.191C174.544 149.132 174.543 149.072 174.555 149.013C174.566 148.954 174.589 148.898 174.622 148.848C174.886 148.267 175.117 147.67 175.384 147.09C175.447 147 175.473 146.89 175.456 146.781C175.439 146.672 175.381 146.575 175.294 146.508C174.359 145.705 173.424 144.902 172.504 144.083C172.402 143.982 172.266 143.923 172.123 143.919C171.98 143.915 171.841 143.965 171.734 144.06C171.207 144.38 170.658 144.666 170.142 145.002C170.061 145.076 169.955 145.117 169.845 145.114C169.735 145.112 169.631 145.067 169.553 144.989C168.997 144.492 168.446 143.991 167.85 143.452Z" fill="#3C1F1B"/>
<path d="M148.946 110.667C148.885 110.754 148.83 110.823 148.787 110.898C148.529 111.257 148.236 111.588 147.91 111.886C147.886 111.924 147.854 111.955 147.816 111.978C147.778 112 147.735 112.013 147.69 112.016C147.646 112.019 147.602 112.011 147.561 111.993C147.521 111.975 147.485 111.947 147.457 111.913C146.764 111.3 146.067 110.692 145.366 110.088C144.817 109.613 144.259 109.147 143.714 108.667C143.514 108.492 143.348 108.446 143.156 108.67C142.655 109.256 142.155 109.842 141.641 110.416C141.601 110.446 141.57 110.485 141.549 110.529C141.528 110.574 141.52 110.624 141.523 110.673C141.527 110.722 141.543 110.77 141.57 110.811C141.597 110.853 141.634 110.887 141.677 110.91C142.181 111.338 142.681 111.769 143.179 112.203C143.694 112.652 144.215 113.094 144.715 113.558C145.07 113.888 145.054 113.9 144.757 114.243C144.569 114.459 144.395 114.686 144.209 114.904C143.888 115.279 143.764 115.301 143.394 114.987C142.907 114.573 142.439 114.138 141.962 113.712C141.486 113.285 141.017 112.85 140.53 112.437C140.176 112.137 140.105 112.166 139.797 112.52C139.291 113.102 138.77 113.672 138.255 114.246C137.91 114.63 137.917 114.731 138.283 115.044C139.422 116.016 140.559 116.99 141.693 117.967C141.793 118.053 141.884 118.151 141.976 118.246C142.011 118.274 142.039 118.309 142.059 118.349C142.078 118.389 142.089 118.433 142.09 118.478C142.092 118.523 142.083 118.567 142.065 118.608C142.048 118.649 142.022 118.686 141.988 118.715C141.841 118.88 141.678 119.031 141.539 119.202C140.913 119.967 140.908 119.977 140.156 119.314C138.867 118.178 137.589 117.029 136.302 115.889C135.907 115.538 135.502 115.198 135.097 114.858C134.736 114.555 134.735 114.56 134.986 114.173C135.409 113.609 135.87 113.074 136.367 112.574C137.841 110.878 139.328 109.195 140.784 107.484C141.355 106.813 141.955 106.167 142.527 105.496C142.741 105.244 142.913 105.277 143.135 105.475C143.922 106.181 144.715 106.881 145.511 107.577C146.457 108.403 147.409 109.22 148.356 110.044C148.506 110.174 148.648 110.315 148.787 110.456C148.845 110.523 148.898 110.593 148.946 110.667Z" fill="#3C1F1B"/>
<path d="M182.442 151.971C183.088 151.564 183.734 151.156 184.381 150.749C186.299 149.534 188.217 148.319 190.133 147.102C190.31 146.989 190.467 146.869 190.666 147.036C191.304 147.574 191.94 148.114 192.655 148.719C192.08 149.052 191.579 149.345 191.075 149.633C189.277 150.664 187.478 151.693 185.679 152.722C184.397 153.455 183.113 154.186 181.828 154.914C181.301 155.211 181.24 155.205 180.793 154.783C180.456 154.465 180.104 154.166 179.75 153.868C179.284 153.476 179.297 153.399 179.522 152.849C180.314 150.911 181.095 148.968 181.881 147.027C182.592 145.269 183.303 143.512 184.015 141.756C184.056 141.655 184.115 141.561 184.185 141.428C184.505 141.621 184.804 141.849 185.075 142.107C185.267 142.321 185.476 142.519 185.7 142.698C186.513 143.264 186.265 143.298 185.981 143.921C184.771 146.569 183.561 149.216 182.349 151.862L182.442 151.971Z" fill="#3C1F1B"/>
<path d="M187.397 160.435C187.304 160.401 187.216 160.355 187.135 160.299C186.683 159.914 186.239 159.518 185.789 159.129C185.601 158.967 185.595 158.819 185.764 158.627C186.273 158.049 186.765 157.456 187.268 156.873C188.377 155.591 189.487 154.311 190.6 153.033C191.338 152.187 192.087 151.35 192.833 150.51C192.935 150.394 193.053 150.292 193.152 150.174C193.624 149.617 193.632 149.604 194.176 150.051C194.55 150.359 194.885 150.714 195.253 151.029C195.292 151.051 195.324 151.081 195.349 151.118C195.374 151.154 195.39 151.196 195.395 151.24C195.401 151.284 195.396 151.328 195.382 151.37C195.368 151.411 195.344 151.449 195.312 151.48C195.164 151.671 195.026 151.872 194.864 152.051C193.65 153.388 192.472 154.755 191.302 156.13C190.275 157.337 189.207 158.509 188.16 159.699C188.014 159.864 187.89 160.047 187.747 160.214C187.71 160.276 187.659 160.328 187.599 160.367C187.538 160.405 187.468 160.429 187.397 160.435Z" fill="#3C1F1B"/>
<path d="M171.284 133.546C171.266 133.911 171.151 134.263 170.952 134.569C170.752 134.874 170.475 135.121 170.149 135.283C169.851 135.454 169.507 135.527 169.166 135.494C168.824 135.46 168.501 135.321 168.243 135.096C167.697 134.716 167.289 134.183 166.734 133.82C166.513 133.675 166.479 133.502 166.68 133.276C167.192 132.704 167.681 132.111 168.182 131.529C168.283 131.412 168.4 131.31 168.5 131.193C168.959 130.649 168.952 130.653 169.488 131.153C169.889 131.527 170.316 131.874 170.712 132.254C170.895 132.415 171.042 132.614 171.14 132.837C171.239 133.06 171.288 133.302 171.284 133.546Z" fill="#DCCDB3"/>
<path d="M178.18 140.408C177.637 141.844 176.976 143.233 176.385 144.737C175.552 144.109 174.751 143.44 173.985 142.732C175.411 141.884 176.735 141.097 178.059 140.309L178.18 140.408Z" fill="#DCCDB3"/>
</g>
<g style="mix-blend-mode:hue">
<rect width="320" height="320" fill="#00BF13"/>
</g>
</g>
<defs>
<clipPath id="clip0_1423_9764">
<rect width="320" height="320" fill="white"/>
</clipPath>
<clipPath id="clip1_1423_9764">
<rect width="210" height="191.45" fill="white" transform="translate(55 64)"/>
</clipPath>
</defs>
</svg>
