<svg width="320" height="320" viewBox="0 0 320 320" fill="none" xmlns="http://www.w3.org/2000/svg">
<rect width="320" height="320" fill="#F2F2EA"/>
<g clip-path="url(#clip0_1423_9039)">
<path d="M71.3058 320H40.4254C40.1011 319.678 39.916 319.241 39.9097 318.784C38.7625 309.607 37.7394 300.416 36.7499 291.22C36.0822 285.016 35.4666 278.807 34.9029 272.594C34.3672 266.704 33.8729 260.811 33.46 254.91C33.1172 250.011 32.7486 245.115 32.4897 240.21C32.2904 236.435 32.0586 232.663 31.9064 228.886C31.7671 225.431 31.6769 221.974 31.5057 218.523C31.3499 215.385 31.5275 212.245 31.3235 209.119C31.0406 204.786 31.1359 200.453 31.1895 196.124C31.2527 191.019 31.3797 185.915 31.5703 180.811C31.8263 174.087 32.7642 167.422 33.3676 160.728C33.9139 154.575 34.8156 148.458 36.0681 142.409C38.4029 130.78 42.3948 119.547 47.9217 109.054C52.1131 100.997 57.6137 93.6924 64.1989 87.4386C73.696 78.5804 84.7547 72.888 97.7996 71.4872C106.009 70.649 114.302 71.5533 122.138 74.1409C132.873 77.5759 142.284 83.3462 150.873 90.5456C159.146 97.6177 166.48 105.719 172.697 114.654C177.055 120.847 180.994 127.325 184.487 134.045C185.141 135.285 184.984 135.627 183.576 135.783C179.686 136.216 175.784 136.524 171.889 136.907C168.895 137.201 165.9 137.479 162.903 137.741C162.463 137.737 162.032 137.87 161.671 138.122C161.31 138.374 161.037 138.733 160.889 139.148C160.845 139.268 160.916 139.126 160.846 139.234C158.783 142.429 157.853 146.224 158.207 150.011C158.45 153.39 158.178 156.803 158.273 160.197C158.53 169.412 158.271 178.633 158.499 187.844C158.701 195.963 158.433 204.081 158.686 212.193C158.834 216.915 158.778 221.633 158.831 226.353C158.837 226.911 159.049 227.688 158.443 227.939C157.839 228.189 157.488 227.44 157.041 227.101C155.071 225.611 154.393 223.333 153.425 221.228C148.972 211.433 143.115 202.341 136.039 194.236C131.194 188.661 125.639 183.746 119.516 179.616C112.063 174.492 103.463 171.283 94.4759 170.273C90.4926 169.762 86.4597 169.774 82.4792 170.306C80.0389 170.684 77.741 171.697 75.8169 173.245C68.6374 178.867 63.8907 186.18 60.8065 194.65C58.4799 201.317 57.0205 208.256 56.4644 215.295C55.9495 220.67 55.7722 226.073 55.9337 231.471C56.1043 236.797 56.4582 242.116 56.9954 247.426C58.2854 259.424 60.1898 271.348 62.701 283.151C64.9176 293.861 67.5192 304.479 70.3449 315.044C70.6792 316.294 71.011 317.544 71.3404 318.796C71.4442 319.192 71.605 319.607 71.3058 320Z" fill="#DCCDB3"/>
<path d="M113.256 320H72.8594C72.3785 319.512 72.0838 318.87 72.0263 318.187C70.1585 311.187 68.304 304.182 66.6529 297.127C65.0167 290.134 63.4504 283.126 62.117 276.069C60.2609 266.245 58.6805 256.379 57.7381 246.421C57.3911 242.754 57.1552 239.08 56.9477 235.401C56.7087 231.163 56.7023 226.925 56.8311 222.698C57.1098 213.551 58.246 204.517 61.2705 195.812C63.2881 189.71 66.4894 184.066 70.6911 179.203C72.7204 176.889 75.014 174.821 77.525 173.042C79.2085 171.936 81.1347 171.254 83.139 171.055C88.328 170.32 93.4443 170.843 98.5629 171.794C102.515 172.501 106.367 173.682 110.037 175.311C112.836 176.585 115.545 178.048 118.144 179.691C118.281 179.777 118.412 179.873 118.541 179.971C119.615 180.779 119.676 181.191 118.723 182.133C117.094 183.754 115.573 185.479 114.169 187.298C109.816 193.034 106.552 199.52 104.539 206.434C102.561 213.108 101.311 219.977 100.81 226.92C100.369 232.075 100.235 237.252 100.407 242.424C100.694 250.339 101.339 258.23 102.402 266.084C104.112 278.725 106.554 291.227 109.5 303.635C110.681 308.608 111.948 313.559 113.222 318.508C113.347 318.992 113.606 319.496 113.256 320Z" fill="#BBA580"/>
<path d="M113.256 320C112.016 315.085 110.755 310.175 109.541 305.254C107.811 298.233 106.301 291.162 104.966 284.058C104.096 279.43 103.331 274.782 102.62 270.127C102.119 266.846 101.717 263.547 101.377 260.242C101.08 257.355 100.792 254.468 100.594 251.571C100.429 249.155 100.343 246.736 100.196 244.322C100.001 241.12 100.031 237.921 100.094 234.725C100.152 231.793 100.302 228.859 100.586 225.933C100.885 222.849 101.25 219.779 101.774 216.725C102.551 212.073 103.735 207.497 105.311 203.051C106.986 198.288 109.265 193.758 112.093 189.574C114.005 186.766 116.192 184.156 118.623 181.783C119.396 181.029 119.381 181.012 118.549 180.389C117.041 179.328 115.457 178.379 113.811 177.549C109.836 175.295 105.551 173.641 101.093 172.64C98.362 171.992 95.5898 171.531 92.7959 171.258C91.2833 171.154 89.7646 171.148 88.2513 170.997C87.1861 170.943 86.1181 170.993 85.0629 171.149C83.9725 171.257 82.8896 171.444 81.805 171.607C79.8283 171.996 77.9888 172.898 76.4714 174.223C72.0836 177.668 68.4189 181.946 65.6874 186.81C62.4051 192.766 60.123 199.22 58.9324 205.915C58.349 208.891 57.9289 211.897 57.6742 214.919C57.5168 216.784 57.4045 218.65 57.2775 220.517C56.983 224.848 57.0711 229.181 57.1806 233.508C57.2481 236.179 57.3998 238.856 57.6534 241.525C57.8272 243.354 57.9464 245.191 58.1172 247.022C58.2968 248.947 58.5264 250.869 58.7592 252.789C58.9765 254.581 59.2122 256.371 59.4663 258.159C59.7848 260.394 60.0985 262.63 60.4732 264.855C61.0889 268.513 61.7077 272.171 62.4066 275.813C63.2334 280.122 64.1234 284.419 65.0766 288.704C66.4238 294.755 67.8379 300.789 69.3765 306.794C70.5065 311.204 71.6962 315.599 72.8593 320H71.3056C69.5927 313.571 67.8919 307.139 66.3179 300.674C64.2247 292.077 62.323 283.436 60.6863 274.741C59.6893 269.444 58.7943 264.129 58.0603 258.787C57.5507 255.078 57.0694 251.368 56.7009 247.641C56.38 244.396 56.1204 241.147 55.9219 237.893C55.6747 233.89 55.5566 229.888 55.5991 225.879C55.6426 221.776 55.8704 217.685 56.3086 213.602C56.7368 209.361 57.4705 205.157 58.5041 201.022C60.0596 194.529 62.7434 188.36 66.4333 182.796C69.1367 178.834 72.4707 175.342 76.3028 172.458C78.1086 171.137 80.2113 170.281 82.4258 169.963C85.2728 169.515 88.1619 169.396 91.0361 169.609C100.38 170.116 109.447 172.959 117.406 177.879C121.864 180.637 126.041 183.825 129.878 187.397C134.535 191.75 138.751 196.552 142.465 201.733C146.67 207.558 150.316 213.767 153.355 220.277C153.958 221.564 154.516 222.873 155.074 224.181C155.283 224.69 155.592 225.151 155.983 225.537C156.768 226.304 157.524 227.102 158.275 227.87C158.65 227.714 158.508 227.451 158.508 227.257C158.499 223.149 158.547 219.04 158.448 214.934C158.249 206.687 158.427 198.439 158.251 190.194C158.078 182.012 158.233 173.828 158.056 165.648C157.911 158.921 157.984 152.195 157.897 145.468C157.876 144.758 158.04 144.055 158.371 143.426C159.213 141.823 160.033 140.208 160.812 138.573C160.929 138.272 161.131 138.011 161.392 137.821C161.654 137.631 161.964 137.521 162.287 137.502C163.219 137.413 164.145 137.263 165.077 137.186C168.457 136.906 171.831 136.575 175.204 136.229C177.614 135.981 180.03 135.8 182.442 135.582C183.147 135.518 183.85 135.429 184.557 135.352C184.721 134.962 184.444 134.714 184.307 134.45C182.006 130.031 179.551 125.7 176.884 121.489C173.797 116.59 170.424 111.877 166.782 107.376C162.464 102.002 157.701 97.0016 152.544 92.427C147.799 88.2153 142.659 84.4722 137.193 81.2499C129.923 76.9191 121.942 73.914 113.622 72.3747C106.052 71.0007 98.2795 71.2232 90.8012 73.028C83.3229 74.8328 76.304 78.1802 70.1943 82.8555C63.9908 87.5487 58.5746 93.2004 54.1493 99.5981C48.6719 107.504 44.3115 116.127 41.1912 125.225C38.7878 132.088 36.9276 139.129 35.6279 146.283C34.9289 150.059 34.3424 153.856 33.9813 157.683C33.7359 160.284 33.4907 162.886 33.2157 165.484C32.944 168.051 32.6016 170.61 32.3546 173.179C32.2002 174.785 32.1561 176.402 32.0781 178.015C31.9064 181.565 31.7709 185.116 31.6717 188.669C31.5105 194.586 31.4324 200.504 31.5397 206.421C31.6012 209.815 31.5962 213.212 31.7366 216.603C31.8169 218.541 31.8143 220.481 31.9111 222.417C32.0659 225.515 32.1831 228.613 32.3128 231.712C32.4126 234.098 32.5769 236.483 32.6913 238.87C32.8413 241.998 33.0594 245.123 33.2682 248.247C33.4468 250.92 33.6408 253.592 33.8502 256.263C34.0986 259.481 34.3517 262.698 34.6274 265.914C34.9362 269.515 35.2604 273.115 35.6 276.713C35.908 279.99 36.2244 283.266 36.5701 286.539C36.9835 290.453 37.4336 294.363 37.865 298.276C38.2752 301.996 38.6591 305.72 39.0965 309.438C39.5112 312.962 39.9802 316.48 40.4253 320H38.8715C38.0918 313.908 37.3685 307.809 36.7017 301.703C36.0749 295.95 35.4239 290.2 34.8422 284.443C34.3189 279.264 33.8548 274.079 33.4022 268.894C32.9496 263.708 32.5122 258.52 32.127 253.329C31.7968 248.879 31.5526 244.422 31.2653 239.969C30.8738 233.901 30.6083 227.827 30.3894 221.751C30.2218 217.096 30.148 212.438 30.0605 207.781C29.9369 201.214 30.0183 194.648 30.164 188.084C30.2809 182.814 30.4852 177.544 30.9097 172.288C31.1021 169.906 31.4491 167.536 31.6998 165.158C31.9573 162.714 32.1674 160.266 32.4251 157.823C33.3408 148.976 35.0448 140.229 37.5169 131.686C40.2748 121.901 44.3236 112.527 49.5564 103.811C53.8139 96.687 59.1505 90.2665 65.3759 84.7786C72.6139 78.3407 81.3187 73.774 90.7292 71.4779C93.0604 70.9357 95.4216 70.5319 97.8005 70.2686C98.1939 70.2227 98.5412 70.1924 98.7365 69.7397C98.8415 69.4961 99.1284 69.3201 99.355 69.1412C102.276 66.8361 105.198 64.5322 108.121 62.2297C108.524 61.9089 109.012 61.7114 109.524 61.6607C110.678 61.516 111.826 61.3086 112.967 61.0799C115.427 60.6871 117.907 60.4352 120.395 60.3254C124.748 59.9596 129.108 59.6793 133.459 59.3018C134.445 59.2163 135.403 58.8561 136.39 58.685C140.822 57.9204 145.294 57.4148 149.784 57.171C154.31 56.9317 158.846 56.9445 163.37 57.2094C168.313 57.4862 173.238 58.0296 178.122 58.8372C201.782 62.7513 223.652 71.483 244.288 83.4934C259.732 92.5035 274.088 103.26 287.073 115.551C287.567 116.017 288.06 116.486 288.529 116.976C288.955 117.392 289.291 117.891 289.517 118.441C289.743 118.992 289.854 119.583 289.843 120.178C289.818 130.788 289.856 141.398 289.88 152.008C289.918 169.346 289.958 186.685 290 204.023C290.027 204.799 289.981 205.576 289.865 206.344C289.732 207.33 289.31 208.254 288.653 209.001C287.996 209.748 287.132 210.283 286.172 210.541C284.574 210.952 282.954 211.265 281.319 211.48C274.89 212.628 268.456 213.748 262.024 214.88C261.514 214.97 261.005 215.059 260.499 215.165C260.01 215.277 259.502 215.268 259.018 215.139C258.533 215.01 258.088 214.766 257.719 214.426C253.873 211.157 250.016 207.901 246.149 204.656C240.855 200.193 235.561 195.73 230.266 191.268C229.553 190.668 229.699 190.606 228.955 191.297C227.461 192.683 225.889 193.984 224.457 195.437C224.366 195.529 224.269 195.615 224.167 195.695C223.969 195.886 223.735 196.037 223.479 196.138C223.222 196.238 222.948 196.287 222.673 196.281C222.397 196.275 222.126 196.215 221.874 196.104C221.622 195.992 221.395 195.832 221.205 195.633C218.704 193.333 216.151 191.09 213.619 188.825C204.553 180.712 195.485 172.599 186.417 164.488C186.206 164.237 185.942 164.035 185.645 163.897C185.411 164.102 185.52 164.376 185.52 164.61C185.506 174.994 185.492 185.378 185.479 195.761C185.472 196.031 185.518 196.298 185.615 196.549C185.712 196.801 185.858 197.03 186.045 197.224C189.438 201.09 192.802 204.983 196.187 208.857C196.553 209.225 196.766 209.718 196.783 210.238C196.788 210.72 196.898 211.201 196.915 211.685C197.08 216.274 197.239 220.865 197.393 225.455C197.399 225.616 197.409 225.778 197.407 225.94C197.399 226.795 197.286 226.954 196.454 227.106C195.468 227.286 194.476 227.433 193.486 227.589C186.97 228.615 180.455 229.641 173.939 230.665C170.17 231.258 166.398 231.829 162.633 232.447C161.955 232.632 161.234 232.579 160.59 232.297C159.946 232.015 159.419 231.52 159.095 230.896C158.934 230.655 158.743 230.435 158.526 230.242C157.186 228.882 155.849 227.519 154.492 226.176C154.186 225.844 153.95 225.453 153.799 225.027C150.099 216.184 145.278 207.854 139.454 200.24C134.854 194.173 129.504 188.713 123.532 183.99C122.745 183.374 121.882 182.855 121.083 182.252C120.717 181.975 120.497 182.031 120.185 182.336C117.179 185.238 114.53 188.489 112.297 192.02C108.708 197.876 106.082 204.27 104.518 210.958C103.194 216.494 102.335 222.131 101.951 227.81C101.484 234.523 101.453 241.26 101.859 247.978C102.258 255.18 103.045 262.344 104.079 269.484C106.404 284.825 109.563 300.028 113.544 315.025C113.972 316.682 114.388 318.342 114.81 320L113.256 320Z" fill="#5D4E47"/>
<path d="M195.82 223.051C195.82 223.698 195.793 224.347 195.829 224.992C195.848 225.095 195.845 225.201 195.818 225.302C195.791 225.404 195.742 225.498 195.675 225.578C195.607 225.658 195.522 225.723 195.427 225.766C195.331 225.809 195.227 225.831 195.122 225.829C193.814 226.027 192.507 226.231 191.2 226.433C188.935 226.783 186.671 227.134 184.407 227.484C181.666 227.912 178.925 228.343 176.184 228.776C173.093 229.267 170.004 229.768 166.913 230.258C165.256 230.521 163.598 230.776 161.939 231.024C161.632 231.066 161.321 231.004 161.053 230.849C160.785 230.694 160.577 230.454 160.461 230.167C160.231 229.598 160.104 228.992 160.084 228.378C160.043 227.928 160.053 227.474 160.045 227.021C159.863 217.45 159.965 207.877 159.807 198.307C159.667 189.77 159.817 181.232 159.617 172.698C159.43 164.743 159.547 156.789 159.448 148.835C159.434 147.738 159.365 146.641 159.311 145.545C159.286 145.157 159.366 144.77 159.542 144.423C160.349 142.838 161.157 141.253 161.93 139.651C162.03 139.417 162.199 139.219 162.415 139.083C162.63 138.947 162.881 138.878 163.135 138.887C165.579 138.683 168.016 138.408 170.457 138.173C172.063 138.018 173.672 137.895 175.279 137.744C177.078 137.575 178.874 137.371 180.674 137.217C182.185 137.087 183.698 136.979 185.205 136.798C185.536 136.759 186.056 136.587 186.188 136.938C186.332 137.172 186.412 137.44 186.42 137.715C186.428 137.989 186.364 138.261 186.233 138.503C185.684 139.302 185.187 140.137 184.659 140.95C183.004 143.499 181.347 146.046 179.687 148.592C179.28 149.214 179.106 149.96 179.197 150.697C179.316 152.079 179.311 153.475 179.296 154.865C179.278 155.301 179.367 155.736 179.554 156.131C179.742 156.526 180.022 156.869 180.372 157.132C181.328 157.902 182.255 158.71 183.225 159.462C183.482 159.651 183.687 159.902 183.82 160.192C183.953 160.482 184.01 160.801 183.986 161.119C183.959 176.484 183.948 191.849 183.952 207.213C183.922 207.924 183.983 208.635 184.131 209.331C184.351 210.216 184.858 211.003 185.573 211.569C186.288 212.135 187.17 212.448 188.082 212.46C190.117 212.439 192.152 212.344 194.188 212.282C194.382 212.276 194.577 212.289 194.77 212.274C195.22 212.237 195.44 212.431 195.416 212.887C195.357 214.053 195.597 215.208 195.578 216.368C195.543 218.601 195.804 220.821 195.82 223.051Z" fill="#BBA580"/>
<path d="M223.967 99.4787C229.918 99.5927 235.868 99.7058 241.819 99.818C242.174 99.8254 242.525 99.8994 242.852 100.036C248.031 102.136 253.212 104.227 258.398 106.309C258.497 106.333 258.591 106.377 258.673 106.438C258.755 106.499 258.824 106.576 258.875 106.665C258.926 106.753 258.959 106.851 258.971 106.953C258.983 107.054 258.975 107.157 258.946 107.255C258.639 109.265 258.36 111.278 258.064 113.289C257.924 114.246 257.707 115.197 257.638 116.158C257.638 116.428 257.548 116.69 257.381 116.902C257.215 117.114 256.981 117.263 256.719 117.326C252.743 118.865 248.781 120.438 244.815 122.001C243.312 122.592 241.788 123.136 240.315 123.792C239.181 124.261 237.964 124.494 236.737 124.474C234.311 124.514 231.885 124.522 229.458 124.557C224.963 124.623 220.467 124.652 215.974 124.787C213.29 124.868 210.601 124.795 207.925 124.976C206.907 125.016 205.893 124.827 204.957 124.425C199.514 122.382 194.068 120.35 188.617 118.328C187.615 117.955 187.714 118 187.656 117.046C187.468 113.953 187.265 110.861 187.009 107.773C186.965 107.249 187.078 107.056 187.538 106.862C190.693 105.536 193.836 104.178 196.983 102.832C199.656 101.688 202.329 100.543 205.002 99.3985C205.381 99.2199 205.794 99.129 206.213 99.1328C208.929 99.209 211.645 99.2617 214.362 99.3157C217.563 99.3794 220.765 99.4396 223.966 99.4964L223.967 99.4787Z" fill="#E9E9E9"/>
<path d="M275.656 121.143C276.311 120.849 277.024 120.71 277.741 120.735C279.557 120.452 281.391 120.289 283.218 120.077C284.532 119.924 285.848 119.792 287.158 119.61C288.26 119.456 288.263 119.429 288.265 120.507C288.271 125.487 288.224 130.467 288.288 135.447C288.578 158.209 288.362 180.973 288.457 203.736C288.493 204.511 288.468 205.288 288.383 206.059C288.302 206.825 287.974 207.543 287.447 208.104C286.921 208.665 286.225 209.039 285.466 209.168C283.798 209.536 282.11 209.823 280.427 210.124C277.664 210.619 274.898 211.096 272.133 211.582C268.606 212.201 265.08 212.822 261.553 213.443C261.235 213.499 260.921 213.582 260.601 213.616C259.998 213.681 259.882 213.606 259.883 213.027C259.885 212.216 259.725 211.414 259.731 210.614C259.754 207.542 259.429 204.481 259.482 201.41C259.473 200.99 259.431 200.572 259.356 200.159C259.252 199.411 259.342 199.319 260.077 199.264C261.627 199.171 263.155 198.849 264.61 198.309C265.741 197.946 266.755 197.288 267.547 196.403C268.34 195.518 268.881 194.437 269.116 193.272C269.184 192.858 269.208 192.437 269.188 192.017C269.191 179.955 269.189 167.893 269.181 155.831C269.161 155.53 269.212 155.229 269.33 154.951C269.448 154.674 269.63 154.428 269.86 154.233C272.538 151.846 275.2 149.442 277.847 147.021C279.088 145.889 280.371 144.798 281.578 143.636C282.215 142.905 282.771 142.108 283.236 141.258C283.806 140.395 284.345 139.512 284.916 138.65C285.309 138.093 285.477 137.408 285.388 136.732C285.31 136.025 285.29 135.312 285.328 134.602C285.37 133.562 285.108 132.546 285.146 131.51C285.148 131.364 285.121 131.219 285.067 131.084C285.013 130.948 284.933 130.825 284.831 130.72C284.51 130.358 284.215 129.97 283.876 129.626C282.154 127.871 280.411 126.137 278.695 124.377C277.684 123.339 276.71 122.267 275.656 121.143Z" fill="#BBA580"/>
<path d="M287.235 118.066C285.498 118.284 283.839 118.502 282.177 118.7C279.74 118.99 277.296 119.23 274.867 119.574C274.635 119.621 274.396 119.604 274.174 119.524C273.952 119.444 273.756 119.304 273.608 119.121C271.109 116.542 268.604 113.97 266.093 111.403C264.445 109.712 262.792 108.026 261.161 106.32C260.646 105.782 260.021 105.364 259.328 105.095C254.888 103.311 250.457 101.505 246.021 99.7099C245.683 99.5966 245.373 99.4136 245.111 99.1727C243.035 97.1786 240.829 95.3238 238.508 93.6203C232.66 89.0715 226.507 84.9292 220.092 81.2227C218.945 80.5572 217.785 79.9154 216.63 79.2634C216.549 79.2099 216.462 79.1658 216.371 79.132C213.846 78.3984 211.748 76.8391 209.512 75.5557C205.53 73.2695 201.56 70.9581 197.643 68.5624C196.354 67.8309 194.958 67.3064 193.506 67.008C188.204 65.6999 182.908 64.3727 177.607 63.0616C176.808 62.9297 175.991 62.9324 175.192 63.0695C173.52 63.2182 171.851 63.3905 170.183 63.5865C169.668 63.5784 169.155 63.5077 168.657 63.3761C166.378 63.1213 164.097 62.8637 161.803 62.8211C160.122 62.7899 158.447 62.5783 156.763 62.6597C153.501 62.7252 150.244 62.9546 147.004 63.347C146.461 63.4377 145.904 63.3889 145.384 63.2052C142.797 62.2786 140.201 61.3802 137.607 60.4722C137.528 60.4528 137.455 60.415 137.394 60.3618C137.332 60.3086 137.284 60.2416 137.254 60.1662C138.504 59.8656 139.754 59.703 141.001 59.5222C143.305 59.1883 145.618 58.9503 147.94 58.8083C149.971 58.6815 152.004 58.5184 154.046 58.55C155.987 58.5802 157.932 58.4923 159.87 58.5798C162.451 58.6964 165.032 58.8286 167.608 59.0706C170.408 59.3335 173.197 59.6654 175.978 60.0662C180.554 60.7237 185.083 61.6217 189.578 62.699C200.8 65.4252 211.749 69.1749 222.287 73.9011C234.875 79.528 246.912 86.3122 258.245 94.1662C264.902 98.7579 271.314 103.696 277.454 108.959C280.551 111.611 283.564 114.354 286.54 117.137C286.872 117.357 287.118 117.685 287.235 118.066Z" fill="#DCCDB3"/>
<path d="M165.647 85.7392C163.339 85.7263 161.463 85.7261 159.592 85.8829C159.272 85.9076 158.951 85.8582 158.654 85.7384C153.933 83.977 149.209 82.2215 144.484 80.472C144.24 80.4081 144.027 80.2604 143.882 80.0548C143.737 79.8493 143.669 79.599 143.69 79.3482C143.556 76.9315 143.381 74.5175 143.162 72.1059C143.116 71.8731 143.15 71.6313 143.261 71.4211C143.371 71.2108 143.55 71.0448 143.768 70.9509C145.827 69.8001 147.886 68.6474 149.928 67.4659C150.564 67.0865 151.278 66.8559 152.016 66.7911C155.782 66.4587 159.545 66.0847 163.309 65.7275C165.464 65.5231 167.612 65.2199 169.778 65.1578C172.398 65.0827 175.024 65.299 177.637 65.1993C180.393 65.0941 182.925 65.9769 185.524 66.5785C188.577 67.2852 191.608 68.0852 194.653 68.8292C195.186 68.9578 195.696 69.1666 196.166 69.4486C197.636 70.3277 199.107 71.2069 200.601 72.0446C200.84 72.1313 201.038 72.3032 201.157 72.5272C201.276 72.7511 201.308 73.0113 201.247 73.2576C200.942 75.1042 200.678 76.9583 200.443 78.8151C200.368 79.4011 199.955 79.5213 199.539 79.6855C196.263 80.9773 192.987 82.2673 189.71 83.5553C189.005 83.7911 188.314 84.066 187.639 84.3789C185.815 85.2153 183.812 85.5898 181.808 85.4693C178.605 85.4945 175.401 85.5136 172.199 85.5649C169.871 85.6022 167.543 85.6872 165.647 85.7392Z" fill="#E9E9E9"/>
<path d="M223.777 138.428C225.442 137.111 227.01 135.868 228.58 134.628C231.903 132.006 235.233 129.393 238.545 126.757C238.722 126.579 238.951 126.462 239.199 126.422C239.447 126.382 239.701 126.42 239.926 126.533C244.609 128.472 249.307 130.376 254 132.291C254.116 132.347 254.236 132.395 254.358 132.436C254.73 132.537 254.801 132.735 254.625 133.078C254.299 133.71 253.997 134.353 253.688 134.993C250.898 140.781 248.108 146.569 245.317 152.357C245.248 152.502 245.164 152.639 245.021 152.899L223.777 138.428Z" fill="#E9E9E9"/>
<path d="M200.021 153.104C196.79 146.282 193.602 139.55 190.421 132.834C190.54 132.456 190.89 132.476 191.14 132.392C196.124 130.718 201.117 129.071 206.097 127.384C206.331 127.285 206.587 127.255 206.838 127.296C207.088 127.338 207.321 127.45 207.509 127.62C211.953 131.065 216.404 134.501 220.862 137.926C221.113 138.072 221.32 138.282 221.461 138.535C214.347 143.37 207.223 148.21 200.021 153.104Z" fill="#E9E9E9"/>
<path d="M267.584 156.469C267.68 156.786 267.709 157.119 267.67 157.447C267.666 169.082 267.66 180.716 267.653 192.351C267.653 192.9 267.778 193.627 267.31 193.881C266.811 194.153 266.46 193.463 266.083 193.15C263.03 190.611 259.984 188.065 256.944 185.51C253.831 182.891 250.726 180.264 247.627 177.628C247.159 177.232 246.68 176.848 246.221 176.441C245.806 176.074 245.807 175.987 246.221 175.609C247.653 174.303 249.088 173.001 250.527 171.703C252.325 170.08 254.126 168.46 255.929 166.842C258.353 164.66 260.776 162.477 263.198 160.292C264.348 159.252 265.477 158.188 266.621 157.141C266.873 156.832 267.207 156.599 267.584 156.469Z" fill="#BBA580"/>
<path d="M239.035 179.894C239.275 179.03 239.508 178.165 239.756 177.303C241.822 170.14 243.885 162.976 245.947 155.811C245.992 155.532 246.124 155.274 246.323 155.074C246.522 154.873 246.778 154.74 247.057 154.692C256.033 152.51 265.004 150.305 273.97 148.079C274.034 148.071 274.099 148.071 274.163 148.078C273.69 148.849 244.351 175.569 239.035 179.894Z" fill="#E9E9E9"/>
<path d="M223.601 185.018C223.601 184.613 223.602 184.329 223.601 184.045C223.57 175.573 223.538 167.102 223.504 158.631C223.5 157.759 223.442 156.887 223.418 156.015C223.39 155.034 223.393 155.033 224.335 155.023C228.605 154.979 232.875 154.927 237.145 154.893C239.376 154.875 241.607 154.89 243.851 154.89C243.861 154.908 243.87 154.928 243.877 154.948C243.885 154.977 243.901 155.018 243.888 155.037C237.356 164.782 230.821 174.525 224.283 184.266C224.133 184.577 223.897 184.838 223.601 185.018Z" fill="#E9E9E9"/>
<path d="M221.949 185.192C215.278 175.289 208.597 165.372 201.907 155.441C202.343 155.239 202.827 155.166 203.303 155.228C206.927 155.191 210.55 155.177 214.174 155.14C216.439 155.117 218.703 155.07 220.967 155.03C221.981 155.013 221.983 155.009 221.987 156.016C222.019 165.006 222.05 173.996 222.081 182.985C222.083 183.695 222.081 184.404 222.081 185.114L221.949 185.192Z" fill="#E9E9E9"/>
<path d="M258.125 212.781C249.022 205.107 239.912 197.426 230.794 189.738C231.077 189.32 231.425 188.95 231.825 188.642C233.645 186.993 235.477 185.357 237.298 183.71C237.932 183.136 237.913 183.139 238.532 183.65C241.197 185.852 243.865 188.05 246.537 190.243C249.332 192.54 252.129 194.836 254.927 197.129C255.776 197.826 256.61 198.543 257.483 199.208C257.631 199.303 257.75 199.435 257.83 199.592C257.909 199.748 257.946 199.922 257.935 200.097C257.882 202.877 258.191 205.646 258.174 208.427C258.166 209.618 258.376 210.807 258.331 212.004C258.323 212.226 258.33 212.448 258.33 212.669L258.125 212.781Z" fill="#BBA580"/>
<path d="M208.041 181.602C207.807 181.657 207.694 181.474 207.555 181.349C202.21 176.562 196.866 171.774 191.523 166.985C189.669 165.325 187.82 163.659 185.938 162.032C185.793 161.937 185.677 161.805 185.602 161.65C185.527 161.494 185.496 161.321 185.512 161.149C185.534 160.925 185.506 160.697 185.518 160.471C185.539 160.147 185.478 159.824 185.341 159.53C185.203 159.236 184.994 158.982 184.733 158.791C183.605 157.872 182.532 156.885 181.378 156.002C180.703 155.485 180.801 154.84 180.839 154.174C180.854 153.907 181.081 153.926 181.279 153.937C182.022 153.982 182.764 154.016 183.506 154.069C187.955 154.387 192.403 154.708 196.851 155.032C197.464 155.076 198.074 155.153 198.686 155.201C199.608 155.274 199.612 155.268 199.884 156.094C200.388 157.627 200.889 159.162 201.388 160.697C203.519 167.268 205.646 173.84 207.77 180.413C207.895 180.801 208.148 181.175 208.025 181.62L208.041 181.602Z" fill="#E9E9E9"/>
<path d="M198.147 92.0697C196.985 94.4871 195.864 96.8121 194.749 99.1395C194.232 100.216 193.664 101.269 193.252 102.393C193.19 102.558 193.092 102.708 192.965 102.832C192.838 102.956 192.686 103.05 192.519 103.109C190.586 103.927 188.657 104.752 186.73 105.583C186.59 105.66 186.43 105.695 186.271 105.684C186.111 105.673 185.958 105.616 185.831 105.52C181.622 102.63 177.41 99.7459 173.195 96.8664C173.171 96.8499 173.16 96.8141 173.13 96.7674C173.134 96.5147 173.367 96.4285 173.532 96.2983C177.311 93.3139 181.089 90.3288 184.867 87.3431C185.032 87.1751 185.246 87.0633 185.479 87.0233C185.711 86.9833 185.95 87.0172 186.162 87.1202C189.979 88.7041 193.812 90.2514 197.639 91.8125C197.786 91.8726 197.924 91.9561 198.147 92.0697Z" fill="#E9E9E9"/>
<path d="M277.619 137.796C277.04 137.623 276.547 137.487 276.062 137.33C269.952 135.348 263.843 133.364 257.734 131.379C257.581 131.329 257.429 131.272 257.272 131.232C256.876 131.133 256.822 130.925 256.896 130.519C257.588 126.712 258.268 122.903 258.9 119.085C259.009 118.424 259.389 118.506 259.797 118.541C261.341 118.674 262.884 118.825 264.428 118.971C266.614 119.178 268.802 119.373 270.985 119.608C271.328 119.645 271.738 119.329 271.982 119.663C272.138 119.979 272.247 120.316 272.303 120.663C273.988 125.985 275.673 131.306 277.358 136.628C277.515 136.998 277.604 137.394 277.619 137.796Z" fill="#E9E9E9"/>
<path d="M114.177 70.9461C111.043 70.3251 108.011 69.3084 104.914 68.5404C104.727 68.494 104.535 68.4663 104.346 68.4299C104.223 68.3423 104.047 68.3767 103.94 68.2518L103.939 68.2504C103.752 68.1026 103.628 67.9345 103.758 67.6853L103.754 67.6892C103.807 67.6184 103.861 67.5476 103.914 67.477C105.54 66.2018 107.166 64.9258 108.791 63.649C109.094 63.4143 109.448 63.2548 109.824 63.1837C114.448 62.1664 119.162 61.9514 123.859 61.591C127.079 61.3441 130.299 61.1041 133.517 60.8487C133.87 60.8117 134.227 60.8516 134.563 60.9655C135.962 61.4624 137.355 61.9764 138.767 62.433C139.309 62.6081 139.497 62.874 139.342 63.4136C139.307 63.5719 139.3 63.7351 139.321 63.8959C139.341 64.0553 139.306 64.2169 139.222 64.3536C139.137 64.4903 139.008 64.5938 138.856 64.6467C136.029 66.0664 133.23 67.541 130.381 68.9156C129.358 69.4096 128.165 69.2835 127.049 69.4232C123.688 69.8436 120.311 70.118 116.959 70.61C116.75 70.7891 116.5 70.9139 116.232 70.9736C115.963 71.0333 115.684 71.0259 115.419 70.9521C115.011 70.8548 114.586 70.8527 114.177 70.9461Z" fill="#E9E9E9"/>
<path d="M258.754 197.892C258.542 197.91 258.329 197.877 258.133 197.796C257.936 197.716 257.762 197.59 257.623 197.43C256.045 196.145 254.48 194.845 252.909 193.551C250.516 191.58 248.122 189.609 245.728 187.639C243.757 186.019 241.784 184.401 239.81 182.785C239.685 182.683 239.578 182.559 239.45 182.461C239.146 182.226 239.157 182.017 239.443 181.761C240.333 180.963 241.189 180.125 242.098 179.35C242.764 178.783 243.392 178.179 244.033 177.588C244.594 177.071 244.646 177.069 245.24 177.568C246.527 178.647 247.805 179.736 249.091 180.817C251.835 183.124 254.581 185.43 257.327 187.735C259.526 189.586 261.723 191.441 263.917 193.298C264.559 193.839 265.211 194.369 265.855 194.908C266.384 195.35 266.39 195.5 265.836 195.946C264.809 196.681 263.636 197.19 262.397 197.437C261.197 197.757 259.954 197.651 258.754 197.892Z" fill="#BBA580"/>
<path d="M243.597 158.585C243.045 160.505 242.492 162.424 241.939 164.344C240.291 170.053 238.647 175.763 237.005 181.473C236.901 181.879 236.68 182.244 236.369 182.525C233.85 184.801 231.334 187.08 228.819 189.361C227.191 190.834 225.565 192.302 223.939 193.766C223.608 193.623 223.723 193.362 223.72 193.162C223.698 191.675 223.733 190.186 223.614 188.702C223.572 188.251 223.695 187.801 223.958 187.433C230.368 177.911 236.772 168.384 243.168 158.853C243.255 158.723 243.355 158.602 243.449 158.477L243.597 158.585Z" fill="#D1D1D1"/>
<path d="M188.95 133.245C192.179 140.063 195.364 146.789 198.586 153.594C197.586 153.647 196.583 153.599 195.593 153.451C191.406 153.17 187.223 152.836 183.038 152.525C182.49 152.485 181.94 152.443 181.392 152.451C180.879 152.459 180.712 152.193 180.685 151.742C180.55 150.655 180.805 149.556 181.405 148.64C183.446 145.654 185.346 142.572 187.331 139.547C187.687 139.006 187.887 138.378 187.91 137.73C187.934 137.083 187.779 136.442 187.463 135.877C187.289 135.503 187.206 135.277 187.5 134.954C187.976 134.432 188.417 133.878 188.95 133.245Z" fill="#D1D1D1"/>
<path d="M257.679 132.943C265.69 135.541 273.658 138.124 281.698 140.731C281.329 141.544 280.804 142.277 280.154 142.889C279.158 143.711 278.224 144.608 277.279 145.489C276.969 145.765 276.588 145.95 276.18 146.024C273.288 146.702 270.408 147.427 267.52 148.119C266.077 148.465 266.45 148.556 265.756 147.35C263.163 142.843 260.585 138.327 258.021 133.804C257.815 133.563 257.695 133.26 257.679 132.943Z" fill="#D1D1D1"/>
<path d="M216.715 96.2837C214.169 95.4543 211.81 94.6845 209.451 93.9173C206.475 92.9495 203.499 91.9825 200.522 91.0162C199.796 90.7795 199.766 90.7681 199.88 90.1003C200.394 87.0817 200.934 84.0674 201.451 81.0492C201.528 80.6013 201.789 80.5805 202.149 80.6152C204.078 80.8012 206.006 80.9803 207.936 81.1524C209.126 81.2598 210.315 81.3916 211.507 81.4397C211.942 81.4573 212.127 81.5737 212.253 81.981C213.245 85.185 214.248 88.3853 215.262 91.582C215.621 92.7203 215.995 93.854 216.354 94.9922C216.469 95.3545 216.559 95.7242 216.715 96.2837Z" fill="#D1D1D1"/>
<path d="M202.946 159.704C207.322 166.191 211.697 172.679 216.072 179.166C217.826 181.766 219.53 184.402 221.362 186.947C221.965 187.728 222.264 188.703 222.201 189.688C222.132 191.164 222.184 192.644 222.184 194.091C221.873 194.241 221.749 194.047 221.616 193.929C218.143 190.828 214.685 187.711 211.193 184.631C210.679 184.157 210.314 183.546 210.139 182.869C208.92 179.021 207.655 175.187 206.409 171.346C205.233 167.721 204.059 164.096 202.887 160.469C202.828 160.286 202.791 160.095 202.744 159.907C202.674 159.703 202.77 159.664 202.946 159.704Z" fill="#D1D1D1"/>
<path d="M237.095 125.99C236.131 126.756 235.33 127.397 234.524 128.032C230.795 130.973 227.065 133.912 223.334 136.849C222.559 137.458 222.747 137.47 221.977 136.876C217.704 133.583 213.43 130.291 209.156 126.999C209.007 126.884 208.868 126.755 208.709 126.62C209.436 126.358 234.442 125.794 237.095 125.99Z" fill="#D1D1D1"/>
<path d="M264.839 148.78L246.782 153.231C246.88 152.49 255.513 134.47 256.178 133.619C259.059 138.662 261.92 143.671 264.839 148.78Z" fill="#D1D1D1"/>
<path d="M218.772 82.2039C226.9 86.8074 234.56 92.1909 241.645 98.2784C240.141 98.2784 238.636 98.3094 237.134 98.2605C236.655 98.2448 236.171 98.1731 235.687 98.1696C233.359 98.1528 231.031 98.1211 228.703 98.1306C226.506 98.1395 224.317 97.8803 222.117 97.9543C221.402 97.9783 221.251 97.6727 221.642 97.063C221.878 96.7159 222.145 96.3903 222.438 96.0901C222.612 95.9214 222.75 95.7186 222.842 95.4944C222.934 95.2702 222.978 95.0294 222.973 94.7872C222.91 92.723 223.079 90.6543 222.826 88.5923C222.789 88.2102 222.647 87.8458 222.414 87.5402C221.306 86.0713 220.217 84.5872 219.124 83.1068C218.953 82.8747 218.794 82.6331 218.63 82.3959L218.772 82.2039Z" fill="#BBA580"/>
<path d="M221.763 140.278C221.862 140.643 221.892 141.023 221.852 141.399C221.867 144.404 221.871 147.409 221.89 150.414C221.895 151.156 221.942 151.898 221.969 152.64C222.001 153.559 221.981 153.58 221.099 153.598C221.002 153.601 220.905 153.598 220.808 153.599C215.861 153.629 210.915 153.661 205.968 153.694C204.902 153.702 203.837 153.765 202.772 153.788C202.556 153.793 202.322 153.859 202.121 153.705C202.503 153.182 220.401 140.936 221.763 140.278Z" fill="#D1D1D1"/>
<path d="M242.663 153.255C241.582 153.307 240.565 153.39 239.548 153.398C234.537 153.44 229.525 153.462 224.513 153.491C224.319 153.492 224.124 153.486 223.931 153.495C223.568 153.513 223.384 153.36 223.407 152.984C223.415 152.855 223.406 152.726 223.406 152.596C223.393 148.589 223.38 144.582 223.368 140.575C223.367 140.45 223.389 140.325 223.4 140.195C224.084 140.408 241.659 152.315 242.663 153.255Z" fill="#D1D1D1"/>
<path d="M171.119 96.8196C169.389 98.0003 167.736 99.1287 166.083 100.256C165.575 100.603 165.069 100.951 164.557 101.291C163.94 101.701 163.94 101.696 163.455 101.17C162.665 100.315 161.869 99.466 161.082 98.6094C158.37 95.6991 155.493 92.9468 152.465 90.3663C152.37 90.2837 152.289 90.184 152.211 90.1024C152.3 89.7945 152.565 89.8157 152.766 89.7484C154.696 89.1008 156.635 88.478 158.557 87.8046C158.759 87.7106 158.983 87.6763 159.204 87.7057C159.425 87.7351 159.633 87.827 159.803 87.9705C163.482 90.8242 167.166 93.6709 170.855 96.5106C170.951 96.6065 171.039 96.7098 171.119 96.8196Z" fill="#D1D1D1"/>
<path d="M160.84 87.0366C168.378 86.8604 175.917 86.7004 183.469 86.6388C183.463 87.0164 183.237 87.1129 183.071 87.2438C179.644 89.9491 176.215 92.6518 172.784 95.3521C172.062 95.9207 172.057 95.9138 171.334 95.3568C168.131 92.89 164.929 90.423 161.726 87.9558C161.419 87.719 161.119 87.4735 160.815 87.232L160.84 87.0366Z" fill="#D2D2D2"/>
<path d="M257.464 118.632C256.71 122.908 255.989 126.99 255.252 131.169C250.383 129.186 245.637 127.253 240.695 125.24C246.355 123.01 251.811 120.86 257.464 118.632Z" fill="#D1D1D1"/>
<path d="M204.854 126.211L189.603 131.318C188.973 127.426 188.358 123.625 187.707 119.597L204.837 125.983L204.854 126.211Z" fill="#D1D1D1"/>
<path d="M172.814 98.1035L185.024 106.417C184.221 107.234 183.375 108.007 182.489 108.734C182.323 108.837 182.126 108.881 181.932 108.858C179.059 109.035 176.182 108.927 173.307 108.99C172.929 108.998 172.696 108.91 172.696 108.463C172.692 105.104 172.677 101.745 172.669 98.3869C172.669 98.3338 172.721 98.2806 172.814 98.1035Z" fill="#D1D1D1"/>
<path d="M177.66 119.904C178.925 119.704 180.202 119.58 181.482 119.532C182.763 119.387 184.057 119.349 185.346 119.272C186.065 119.229 186.134 119.273 186.245 119.948C186.585 122.015 186.908 124.085 187.242 126.152C187.478 127.616 187.704 129.081 187.97 130.539C188.092 130.922 188.105 131.331 188.008 131.721C187.911 132.111 187.708 132.467 187.421 132.748C186.914 133.275 186.437 133.829 185.99 134.408C183.391 129.429 180.702 124.642 177.66 119.904Z" fill="#D1D1D1"/>
<path d="M274.871 122.585C276.481 124.219 278.09 125.853 279.699 127.487C280.809 128.617 281.897 129.769 283.03 130.874C283.257 131.079 283.438 131.329 283.562 131.608C283.686 131.887 283.751 132.189 283.752 132.494C283.742 133.85 283.804 135.206 283.938 136.556C283.98 136.795 283.971 137.04 283.911 137.276C283.852 137.511 283.743 137.731 283.592 137.921C283.33 138.25 283.101 138.604 282.909 138.978C282.878 139.061 282.829 139.137 282.765 139.198C282.701 139.26 282.623 139.306 282.539 139.334C282.454 139.362 282.365 139.37 282.277 139.358C282.189 139.346 282.104 139.315 282.03 139.266C281.971 139.24 281.91 139.218 281.849 139.197C281.058 139.051 280.299 138.77 279.604 138.365C279.025 137.872 279.031 136.899 278.787 136.135C277.459 131.986 276.141 127.834 274.835 123.678C274.748 123.402 274.687 123.118 274.614 122.838C274.555 122.607 274.663 122.545 274.871 122.585Z" fill="#D1D1D1"/>
<path d="M200.311 80.6777C199.688 84.1878 199.105 87.473 198.505 90.8574L186.926 86.1459L186.92 85.9581L200.311 80.6777Z" fill="#D1D1D1"/>
<path d="M127.08 73.132C128.159 72.3027 129.047 71.269 130.058 70.3657C130.172 70.2356 130.323 70.1437 130.491 70.1024C130.66 70.0611 130.836 70.0725 130.998 70.1349C133.217 70.8255 135.446 71.4817 137.671 72.153C137.757 72.1885 137.838 72.2324 137.915 72.2841C137.902 72.5959 137.634 72.6298 137.459 72.7296C135.441 73.8827 133.409 75.0125 131.401 76.184C131.031 76.4002 130.797 76.225 130.514 76.0982C127.545 74.7509 124.487 73.6069 121.363 72.6743C119.918 72.2173 118.449 71.8418 116.961 71.5496C117.02 70.9936 117.463 71.1093 117.808 71.0763C118.367 71.1095 118.927 71.0788 119.478 70.9848C121.717 70.7494 123.956 70.5138 126.195 70.2781C127.153 70.1768 128.11 70.0711 129.237 69.9491C128.305 71.2009 127.1 71.9754 126.222 73.0562C126.141 73.8619 126.586 73.3988 126.869 73.3247L126.869 73.3244C126.913 73.236 126.988 73.1674 127.08 73.132Z" fill="#E9E9E9"/>
<path d="M185.643 199.2C185.979 199.423 186.272 199.705 186.506 200.033C188.539 202.369 190.569 204.707 192.596 207.048C193.442 208.022 194.288 208.997 195.134 209.971C195.282 210.143 195.454 210.321 195.315 210.569C195.202 210.772 194.982 210.721 194.795 210.737C192.542 210.93 190.282 210.937 188.023 210.929C187.384 210.943 186.765 210.706 186.298 210.27C185.831 209.833 185.553 209.231 185.524 208.592C185.446 205.496 185.448 202.398 185.528 199.299C185.529 199.28 185.57 199.262 185.643 199.2Z" fill="#BBA580"/>
<path d="M185.451 108.188C185.538 108.529 185.605 108.874 185.652 109.223C185.817 111.766 185.978 114.31 186.117 116.855C186.163 117.706 186.123 117.694 185.286 117.763C182.553 117.986 179.809 118.083 177.086 118.427C176.979 118.449 176.869 118.437 176.77 118.393C176.67 118.349 176.587 118.276 176.532 118.182C175.524 116.929 175.53 116.923 176.742 115.851C179.332 113.561 181.919 111.267 184.502 108.968C184.784 108.718 185.084 108.488 185.451 108.188Z" fill="#D1D1D1"/>
<path d="M270.362 117.916C269.114 117.931 267.867 117.851 266.632 117.679C264.602 117.535 262.575 117.338 260.552 117.115C258.73 116.914 259.03 117.134 259.265 115.523C259.632 113.004 259.992 110.484 260.35 107.997C260.391 107.969 260.435 107.945 260.48 107.926C260.495 107.921 260.511 107.919 260.526 107.921C260.541 107.922 260.556 107.926 260.57 107.934C262.228 109.474 263.749 111.149 265.335 112.761C266.981 114.433 268.612 116.12 270.362 117.916Z" fill="#D1D1D1"/>
<path d="M214.142 83.5847C214.666 84.108 215.138 84.5684 215.597 85.0414C217.353 86.8496 219.093 88.6731 220.866 90.4641C221.055 90.6344 221.204 90.8451 221.3 91.0805C221.397 91.316 221.44 91.5703 221.425 91.8245C221.392 92.6629 221.409 93.5044 221.437 94.3436C221.451 94.5353 221.423 94.7277 221.356 94.9078C221.29 95.088 221.185 95.2517 221.05 95.388C220.649 95.8082 220.294 96.2717 219.899 96.6982C219.765 96.8369 219.597 96.9386 219.412 96.9932C219.227 97.0478 219.031 97.0536 218.843 97.0099C218.655 96.9662 218.482 96.8745 218.34 96.7438C218.198 96.6132 218.092 96.4479 218.033 96.2642C216.718 92.1465 215.41 88.0263 214.11 83.9037C214.107 83.7964 214.118 83.6892 214.142 83.5847Z" fill="#D1D1D1"/>
<path d="M143.747 81.47L157.757 86.6991C157.18 87.0134 156.567 87.254 155.93 87.4154C154.498 87.9163 153.047 88.3653 151.617 88.8734C151.432 88.9633 151.223 88.9949 151.019 88.9641C150.815 88.9333 150.625 88.8414 150.475 88.7007C148.559 87.1114 146.575 85.6111 144.537 84.181C144.324 84.0312 144.096 83.8989 144.053 83.6111C143.956 82.951 143.864 82.2902 143.747 81.47Z" fill="#D1D1D1"/>
<path d="M171.308 98.2909C171.46 98.711 171.518 99.1596 171.477 99.6046C171.49 102.451 171.502 105.297 171.497 108.144C171.497 108.434 171.686 108.896 171.251 108.971C170.773 109.054 170.209 109.231 169.798 108.753C169.504 108.409 169.243 108.037 168.956 107.687C167.724 106.189 166.489 104.692 165.252 103.197C164.778 102.622 164.772 102.612 165.389 102.188C167.204 100.945 169.022 99.7067 170.843 98.4725C170.971 98.3587 171.136 98.2943 171.308 98.2909Z" fill="#D1D1D1"/>
<path d="M217.122 97.9177C214.962 97.7221 212.797 97.7886 210.634 97.7605C209.244 97.7425 207.854 97.7303 206.464 97.6961C205.721 97.6328 204.974 97.7632 204.296 98.0746C204.033 98.2114 203.773 98.3077 203.563 97.9361C202.535 96.1135 201.491 94.3005 200.561 92.3195L217.151 97.694L217.122 97.9177Z" fill="#D1D1D1"/>
<path d="M141.622 72.3388C141.841 72.264 141.983 72.2815 142.004 72.5693C142.045 73.1467 142.093 73.7246 142.141 74.3008C142.279 75.9699 142.321 77.6468 142.45 79.3169C142.487 79.7954 142.336 79.9455 141.897 79.9757C140.837 80.0488 139.78 80.1522 138.721 80.2262C138.559 80.2285 138.399 80.1866 138.259 80.1051C137.194 79.516 136.134 78.9147 135.028 78.2918L139.674 74.0876C139.734 74.016 139.801 73.9506 139.874 73.8924L139.87 73.8962C139.924 73.8181 139.993 73.7517 140.074 73.7011L140.075 73.7038C140.276 72.8925 141.131 72.8225 141.622 72.3388Z" fill="#D1D1D1"/>
<path d="M202.467 73.3107C206.053 74.6244 208.136 77.5198 210.725 80.0536C210.17 80.1355 209.606 80.1354 209.051 80.0535C206.902 79.8608 204.754 79.6608 202.606 79.4535C202.414 79.4353 202.226 79.3724 202.034 79.3613C201.7 79.342 201.589 79.1832 201.639 78.8588C201.917 77.0223 202.188 75.1847 202.467 73.3107Z" fill="#D1D1D1"/>
<path d="M139.646 71.33C139.743 69.9985 139.834 68.7172 139.931 67.4363C139.974 66.8585 140.06 66.2821 140.071 65.704C140.08 65.2439 140.265 65.0794 140.713 65.0845C141.939 65.0984 143.166 65.0885 144.392 65.0839C144.907 65.082 145.423 65.0586 145.938 65.0653C146.215 65.0402 146.491 65.1155 146.717 65.2775C146.943 65.4396 147.103 65.6775 147.169 65.9478C147.231 66.1651 147.322 66.373 147.44 66.5659C147.637 66.8841 147.57 67.0829 147.246 67.2623C144.82 68.6048 142.397 69.9516 139.976 71.3028C139.868 71.3261 139.757 71.3352 139.646 71.33Z" fill="#D1D1D1"/>
<path d="M199.191 92.7207C200.124 94.3538 200.954 95.774 201.749 97.2132C202.025 97.7114 202.65 98.2226 202.45 98.7259C202.26 99.203 201.48 99.2691 200.953 99.4989C199.205 100.261 197.449 101.006 195.694 101.752C195.379 101.885 195.053 101.993 194.62 102.156C196.154 98.9885 197.626 95.9512 199.191 92.7207Z" fill="#D1D1D1"/>
<path d="M139.365 65.229C139.182 67.4996 139.02 69.5134 138.847 71.6643C136.292 70.9967 133.843 70.2068 131.178 69.3907L139.365 65.229Z" fill="#D1D1D1"/>
<path d="M180.884 110.164C179.465 111.429 178.222 112.537 176.977 113.644C176.399 114.158 175.813 114.663 175.238 115.182C174.951 115.442 174.721 115.509 174.464 115.127C173.96 114.378 173.382 113.676 172.92 112.904C172.462 112.142 172.721 111.269 172.747 110.446C172.758 110.093 173.143 110.195 173.379 110.193C175.024 110.176 176.67 110.171 178.316 110.165C179.086 110.162 179.857 110.164 180.884 110.164Z" fill="#D1D1D1"/>
<path d="M221.256 89.144C219.182 87.0108 217.121 84.8904 215.02 82.7286C215.409 82.5199 215.847 82.4175 216.289 82.4317C216.432 82.4061 216.58 82.4242 216.713 82.4836C216.845 82.543 216.957 82.6409 217.033 82.7647C218.431 84.6655 219.841 86.5564 221.244 88.4533C221.336 88.5438 221.389 88.667 221.391 88.7962C221.394 88.9254 221.345 89.0503 221.256 89.144Z" fill="#CFCFCF"/>
<path d="M160.057 64.5435C157.495 64.7997 154.931 65.0297 152.374 65.3254C151.471 65.3429 150.581 65.1087 149.803 64.6492C153.264 64.2259 156.753 64.0762 160.237 64.2015C160.368 64.4163 160.177 64.461 160.057 64.5435Z" fill="#BA9B52"/>
<path d="M210.955 78.1466C212.575 79.0958 214.237 79.9793 215.861 81.0912C215.37 81.3339 214.829 81.4601 214.281 81.4601C214.123 81.4822 213.961 81.4624 213.813 81.4026C213.665 81.3427 213.535 81.245 213.436 81.1192C212.551 80.1867 211.644 79.2744 210.745 78.3544C210.702 78.1708 210.752 78.0811 210.955 78.1466Z" fill="#CECECD"/>
<path d="M143.53 64.345C142.6 64.345 141.67 64.3496 140.74 64.3419C140.497 64.3399 140.176 64.4237 140.104 64.0773C140.019 63.7663 140.032 63.4369 140.14 63.1334C140.199 62.9943 140.361 63.0044 140.476 63.0439C141.519 63.402 142.559 63.7694 143.599 64.1341L143.53 64.345Z" fill="#C5C2C1"/>
<path d="M136.364 75.4288C135.72 76.0046 135.08 76.5856 134.429 77.1546C133.746 77.7521 133.742 77.7471 132.871 77.0501C133.985 76.4343 135.073 75.8327 136.162 75.2312C136.367 75.1563 136.404 75.2529 136.364 75.4288Z" fill="#ECE3CA"/>
<path d="M141.622 72.3389C141.175 72.8663 140.654 73.3261 140.075 73.7039C140.054 73.6699 140.026 73.6408 139.993 73.6183C139.961 73.5958 139.923 73.5805 139.884 73.5735C139.845 73.5664 139.805 73.5677 139.766 73.5772C139.728 73.5868 139.691 73.6044 139.66 73.6289C138.78 74.148 137.875 74.6218 136.947 75.0485C136.857 74.9889 136.737 74.9546 136.752 74.8096C138.193 74.0419 139.633 73.2711 141.078 72.5107C141.254 72.437 141.436 72.3795 141.622 72.3389Z" fill="#665850"/>
<path d="M119.478 70.9848C118.99 71.1275 118.484 71.1972 117.975 71.1916C117.621 71.2416 117.189 71.1231 116.961 71.5496C116.576 71.5611 116.195 71.4695 115.857 71.2841C115.319 71.0811 114.752 70.9669 114.177 70.9461C115.088 70.7248 116.021 70.612 116.959 70.61C117.131 70.9493 117.442 70.9745 117.77 70.9739C118.339 70.9728 118.909 70.9807 119.478 70.9848Z" fill="#7A6A61"/>
<path d="M107.714 70.1139C106.688 70.138 105.662 70.1032 104.641 70.0094C104.19 70.0235 104.189 69.9694 104.105 69.0958C105.329 69.3566 106.534 69.6966 107.714 70.1139Z" fill="#C3C2C1"/>
<path d="M140.37 81.4131C140.461 81.3425 140.566 81.2918 140.678 81.2644C140.79 81.2371 140.906 81.2335 141.02 81.2541C142.533 81.1979 142.533 81.2 142.643 82.8034C141.859 82.3832 141.1 81.919 140.37 81.4131Z" fill="#CBCBCB"/>
<path d="M103.315 69.2593C103.356 69.996 103.356 70.0003 102.681 70.0127C102.172 70.0221 101.663 70.0208 101.154 70.0181C101.054 69.9909 100.958 69.9518 100.867 69.9016L101.995 69.0315C102.473 68.8857 102.984 68.5512 103.315 69.2593Z" fill="#CDCFCF"/>
<path d="M103.315 69.2593C102.924 68.8979 102.439 69.0857 101.995 69.0315C102.524 68.5104 103.116 68.0581 103.758 67.6853C103.87 67.8528 103.933 68.0487 103.939 68.2504C103.543 68.4711 103.175 68.7081 103.315 69.2593Z" fill="#8C8075"/>
<path d="M126.869 73.3247C126.792 73.4241 126.721 73.5295 126.635 73.6219C126.593 73.682 126.536 73.7309 126.471 73.7645C126.405 73.7982 126.332 73.8154 126.259 73.8149C126.185 73.8144 126.113 73.7961 126.048 73.7616C125.982 73.7271 125.927 73.6774 125.885 73.6167C125.704 73.3508 126.021 73.1963 126.222 73.0563C126.376 73.2935 126.626 73.3027 126.869 73.3247Z" fill="#7B7267"/>
<path d="M160.057 64.5435C160.117 64.4294 160.177 64.3154 160.237 64.2014C160.681 64.2015 161.125 64.2015 161.739 64.2015C161.228 64.489 160.639 64.6086 160.057 64.5435Z" fill="#918259"/>
<path d="M210.955 78.1465L210.745 78.3544C210.636 78.3092 210.539 78.2417 210.458 78.1562C210.378 78.0708 210.316 77.9694 210.278 77.8586C210.605 77.7515 210.77 77.9765 210.955 78.1465Z" fill="#9F9D99"/>
<path d="M136.752 74.8096C136.802 74.8292 136.847 74.8615 136.881 74.9033C136.915 74.9452 136.938 74.9952 136.947 75.0484L136.364 75.4288L136.162 75.2311L136.752 74.8096Z" fill="#B3AD9A"/>
<path d="M171.231 110.208C171.429 110.202 171.51 110.318 171.519 110.496C171.523 110.588 171.506 110.696 171.385 110.688C171.205 110.675 171.125 110.537 171.079 110.38C171.039 110.244 171.143 110.232 171.231 110.208Z" fill="#B8B8A4"/>
<path d="M274.871 122.585L274.614 122.838C274.592 122.816 274.563 122.798 274.55 122.771C274.473 122.612 274.339 122.406 274.554 122.306C274.689 122.243 274.803 122.443 274.871 122.585Z" fill="#B5B8B6"/>
<path d="M202.946 159.704L202.744 159.907C202.7 159.866 202.663 159.818 202.634 159.766C202.583 159.629 202.507 159.429 202.686 159.387C202.847 159.349 202.907 159.555 202.946 159.704Z" fill="#A9ABA7"/>
<path d="M103.94 68.2519C104.016 68.2512 104.092 68.2667 104.162 68.2974C104.232 68.3281 104.295 68.3733 104.346 68.43C104.268 68.4585 104.183 68.4559 104.107 68.4227C104.031 68.3894 103.971 68.3282 103.94 68.2519Z" fill="#8C8075"/>
<path d="M148.28 66.3846C148.317 66.4079 148.354 66.4314 148.39 66.4548L148.301 66.5793C148.281 66.5597 148.244 66.5392 148.245 66.5207C148.251 66.4741 148.263 66.4285 148.28 66.3846Z" fill="#B5A493"/>
<path d="M127.08 73.132C127.07 73.1821 127.043 73.2277 127.005 73.2622C126.967 73.2967 126.92 73.3184 126.869 73.3243C126.881 73.2751 126.908 73.2307 126.946 73.1965C126.983 73.1623 127.03 73.1399 127.08 73.132Z" fill="#7B7267"/>
<path d="M103.914 67.4769C103.911 67.524 103.894 67.5693 103.866 67.607C103.838 67.6447 103.799 67.6733 103.754 67.6891C103.75 67.6402 103.763 67.5914 103.793 67.5522C103.822 67.5129 103.865 67.4861 103.914 67.4769Z" fill="#8C8075"/>
<path d="M208.024 181.619C208.106 181.591 208.141 181.615 208.123 181.691C208.101 181.695 208.079 181.695 208.058 181.688C207.936 181.65 208.106 181.712 208.041 181.602L208.024 181.619Z" fill="#E9E9E9"/>
<path d="M139.874 73.8925C139.864 73.9411 139.839 73.9856 139.803 74.0203C139.768 74.055 139.723 74.0784 139.674 74.0876L139.874 73.8925Z" fill="#665850"/>
<path d="M140.074 73.7012C140.063 73.75 140.037 73.7945 140.001 73.8291C139.965 73.8638 139.919 73.8871 139.87 73.8963L140.074 73.7012Z" fill="#665850"/>
</g>
<defs>
<clipPath id="clip0_1423_9039">
<rect width="260" height="263" fill="white" transform="translate(30 57)"/>
</clipPath>
</defs>
</svg>
