<svg width="320" height="320" viewBox="0 0 320 320" fill="none" xmlns="http://www.w3.org/2000/svg">
<g clip-path="url(#clip0_1430_2290)">
<rect width="320" height="320" fill="#DCFFE0"/>
<g clip-path="url(#clip1_1430_2290)">
<path d="M94.5231 183.362C91.2123 184.284 87.9024 185.212 84.6485 186.32C83.7909 186.655 82.8738 186.811 81.9535 186.779C81.0333 186.746 80.1294 186.525 79.2978 186.13C78.5206 185.735 77.8468 185.163 77.3306 184.46C70.5136 175.627 63.6929 166.796 56.8686 157.969C56.5015 157.493 56.1244 157.024 55.7869 156.528C55.4295 156.001 55.185 155.405 55.0687 154.779C54.9524 154.153 54.9668 153.509 55.111 152.888C55.3184 151.805 55.7122 150.766 56.2749 149.817C71.6747 124.046 87.0626 98.2676 102.438 72.4822C103.173 71.1896 104.17 70.0649 105.365 69.1805C106.56 68.296 107.927 67.6714 109.378 67.3466C116.506 65.5791 123.588 63.6372 130.69 61.768C151.38 56.3214 172.069 50.8661 192.755 45.402C193.786 45.1152 194.854 44.9815 195.925 45.0051C196.629 45.0198 197.319 45.2004 197.941 45.5322C198.562 45.864 199.096 46.3377 199.5 46.9148C205.581 55.0059 211.665 63.0957 217.75 71.1842C218.38 71.9629 218.931 72.8029 219.394 73.6916C219.898 74.6615 220.127 75.7508 220.056 76.8414C219.985 77.932 219.617 78.9825 218.992 79.8791C206.74 98.7635 194.482 117.644 182.216 136.519C182.164 136.598 182.073 136.674 182.222 136.886C182.923 136.928 183.711 136.986 184.499 137.019C186.202 137.09 187.905 137.176 189.609 137.198C190.501 137.266 191.377 137.466 192.209 137.792C192.96 137.999 193.639 138.407 194.174 138.972C194.709 139.538 195.079 140.239 195.244 141C195.719 142.663 196.411 144.266 197.037 145.885C197.132 146.095 197.175 146.325 197.164 146.556C197.153 146.787 197.087 147.012 196.972 147.212C196.537 148.156 195.903 148.994 195.113 149.67C194.659 150.018 194.691 150.311 194.909 150.754C195.453 151.833 196.24 152.77 197.209 153.491C198.373 154.389 199.548 155.272 200.703 156.182C204.36 159.062 206.904 163.123 207.9 167.67C208.173 168.811 208.241 169.98 208.501 171.119C209.083 172.765 208.673 174.425 208.522 176.071C208.486 176.205 208.478 176.345 208.498 176.483C208.519 176.62 208.567 176.752 208.64 176.87C208.713 176.989 208.81 177.091 208.923 177.17C209.037 177.25 209.166 177.306 209.302 177.334C215.886 179.667 222.465 182.013 229.04 184.373C232.66 185.664 236.285 186.94 239.9 188.246C240.089 188.314 240.277 188.383 240.462 188.462C240.817 188.571 241.13 188.788 241.357 189.082C241.584 189.377 241.715 189.735 241.73 190.106C241.744 190.925 241.165 191.353 240.484 191.636C238.045 192.647 235.565 193.556 233.1 194.503C222.492 198.578 211.883 202.651 201.273 206.72C193.254 209.801 185.234 212.876 177.212 215.947C176.525 216.211 175.837 216.471 175.178 216.799C174.313 217.245 173.361 217.493 172.389 217.528C171.417 217.562 170.45 217.382 169.556 216.998C162.684 214.29 155.812 211.581 148.939 208.872C134.076 203.012 119.212 197.152 104.348 191.294C104.162 191.22 103.971 191.157 103.79 191.071C103.483 190.976 103.215 190.785 103.024 190.528C102.833 190.27 102.729 189.959 102.727 189.638C102.747 189.333 102.866 189.044 103.064 188.812C103.263 188.581 103.532 188.42 103.83 188.354C105.905 187.605 108.005 186.929 110.08 186.178C111.337 185.724 112.606 185.299 113.887 184.918C114.052 184.89 114.209 184.829 114.349 184.737C114.489 184.645 114.608 184.525 114.699 184.385C114.79 184.245 114.85 184.087 114.877 183.922C114.904 183.757 114.896 183.588 114.854 183.426C114.661 181.936 114.533 180.439 114.38 178.945C114.307 178.227 114.051 178.152 113.417 178.375C107.835 180.333 102.265 182.327 96.6753 184.262C92.9175 185.563 89.2017 186.984 85.4044 188.172C84.5633 188.41 83.7975 188.861 83.1807 189.48C82.6378 190.048 82.6658 190.26 83.3932 190.55C84.3862 190.946 85.3848 191.33 86.3849 191.71C96.6035 195.587 106.798 199.528 117.004 203.438C129.083 208.065 141.16 212.696 153.236 217.33C159.475 219.729 165.724 222.103 171.963 224.505C172.774 224.817 173.505 225.566 174.309 225.515C175.08 225.466 175.592 224.531 176.32 224.113C177.721 223.401 179.18 222.81 180.68 222.344C191.627 218.317 202.568 214.273 213.503 210.214C225.42 205.82 237.334 201.42 249.246 197.014C253.574 195.421 257.901 193.822 262.225 192.218C262.554 192.096 263.048 192.087 263.094 191.658C263.136 191.27 262.731 191.046 262.44 190.832C261.629 190.298 260.742 189.89 259.808 189.621C253.588 187.462 247.361 185.323 241.127 183.204C230.688 179.642 220.267 176.03 209.821 172.49C209.172 172.27 208.376 172.134 208.638 171.113C209.069 170.739 209.474 171.064 209.857 171.194C213.524 172.437 217.184 173.702 220.846 174.959C234.044 179.486 247.241 184.015 260.439 188.546C261.068 188.762 261.678 189.04 262.29 189.304C263.154 189.645 263.885 190.256 264.374 191.046C264.862 191.836 265.081 192.764 264.999 193.689C264.955 196.594 264.853 199.499 264.773 202.404C264.658 206.577 264.542 210.751 264.425 214.924C264.286 220.066 264.188 225.209 264.001 230.349C263.916 232.697 262.506 234.238 260.477 235.183C255.876 237.325 251.243 239.398 246.623 241.498C223.796 251.874 200.969 262.252 178.143 272.631C177.149 273.105 176.118 273.497 175.061 273.805C174.056 274.077 173.003 274.118 171.98 273.925C170.567 273.681 169.19 273.261 167.88 272.677C139.574 259.83 111.263 246.995 82.9451 234.174C82.0633 233.775 81.1367 233.466 80.6334 232.525C80.3974 232.123 80.2698 231.666 80.2631 231.199C80.3065 223.349 80.3445 215.499 80.3773 207.649C80.4022 202.806 80.5068 197.962 80.4427 193.12C80.4299 191.758 80.8574 190.429 81.6615 189.331C82.4656 188.232 83.6032 187.423 84.9047 187.024C87.5247 186.222 90.0809 185.245 92.6729 184.368C93.4312 184.112 94.1787 183.823 94.9312 183.549C95.6494 183.129 96.4322 182.831 97.2478 182.667C97.7142 182.43 98.2429 182.363 98.7113 182.131C98.8418 182.081 98.9802 182.055 99.12 182.054C99.5712 181.847 100.043 181.69 100.528 181.584C100.601 181.519 100.692 181.479 100.789 181.469C100.661 181.494 100.543 181.553 100.448 181.642C99.9968 181.692 99.558 181.824 99.1532 182.03C98.9184 182.038 98.691 182.115 98.4994 182.251C98.0735 182.335 97.6598 182.472 97.2678 182.659C96.3423 182.853 95.4919 183.338 94.5231 183.362Z" fill="#331815"/>
<path d="M208.638 171.113C208.604 171.296 208.642 171.485 208.746 171.64C208.849 171.794 209.009 171.902 209.191 171.94C209.829 172.137 210.46 172.358 211.091 172.574C219.084 175.309 227.077 178.045 235.07 180.781C241.893 183.119 248.716 185.459 255.537 187.801C257.431 188.453 259.315 189.13 261.198 189.812C261.606 189.961 261.999 190.148 262.373 190.369C262.69 190.527 262.973 190.745 263.205 191.011C263.438 191.277 263.616 191.587 263.728 191.922C262.926 192.35 262.081 192.693 261.207 192.946C251 196.725 240.788 200.492 230.572 204.247C219.547 208.316 208.523 212.389 197.5 216.466C190.861 218.92 184.224 221.378 177.588 223.839C176.336 224.314 175.245 225.134 174.442 226.205C171.576 224.32 168.285 223.497 165.176 222.267C158.78 219.739 152.341 217.319 145.919 214.858C138.936 212.181 131.952 209.505 124.967 206.831C118.171 204.225 111.375 201.618 104.58 199.01C97.5968 196.333 90.6128 193.658 83.6282 190.984C83.1362 190.796 82.6498 190.592 82.1091 190.375C82.4303 189.751 82.8815 189.203 83.4325 188.767C83.9835 188.332 84.6213 188.02 85.3031 187.852C86.6548 187.469 87.9707 186.993 89.2912 186.532C96.2266 184.111 103.156 181.671 110.078 179.213C111.523 178.704 112.968 178.195 114.466 177.667C114.618 178.073 114.69 178.505 114.677 178.939C114.872 180.592 115.048 182.248 115.168 183.907C115.231 184.788 115.175 184.799 114.31 185.094C111.055 186.205 107.8 187.313 104.544 188.42C104.191 188.521 103.848 188.656 103.522 188.825C103.357 188.91 103.219 189.038 103.123 189.196C103.026 189.354 102.975 189.536 102.975 189.721C102.974 189.907 103.025 190.089 103.121 190.247C103.217 190.405 103.355 190.534 103.519 190.62C103.636 190.685 103.757 190.74 103.884 190.783C112.365 194.124 120.847 197.465 129.328 200.805C137.498 204.026 145.668 207.248 153.836 210.472C159.179 212.579 164.524 214.682 169.869 216.784C170.627 217.101 171.444 217.257 172.266 217.24C173.088 217.223 173.897 217.035 174.642 216.687C177.164 215.527 179.788 214.632 182.371 213.631C188.784 211.144 195.211 208.694 201.634 206.232C208.618 203.554 215.602 200.878 222.587 198.203C228.542 195.919 234.495 193.632 240.447 191.342C241.016 191.124 241.52 190.807 241.49 190.153C241.477 189.832 241.363 189.523 241.164 189.271C240.964 189.02 240.69 188.838 240.38 188.753C238.711 188.166 237.048 187.558 235.381 186.965C227.298 184.087 219.214 181.21 211.13 178.334C210.28 178.032 209.439 177.705 208.584 177.422C208.205 177.296 208.017 177.105 208.094 176.696C208.373 174.85 208.509 172.986 208.501 171.119C208.544 171.1 208.593 171.098 208.638 171.113Z" fill="#6A443F"/>
<path d="M97.3431 182.742C96.5581 183.065 95.7523 183.335 94.9311 183.55C94.8325 183.406 94.6699 183.401 94.5229 183.362C95.4311 182.987 96.3737 182.701 97.3374 182.509C97.3619 182.525 97.3807 182.549 97.3912 182.576C97.4017 182.604 97.4035 182.634 97.3961 182.663C97.379 182.715 97.3613 182.742 97.3431 182.742Z" fill="#D1CDB6"/>
<path d="M173.753 234.689C173.753 236.76 173.816 238.833 173.742 240.902C173.405 250.183 173.663 259.466 173.549 268.748C173.507 270.018 173.759 271.281 174.285 272.438C174.552 273.007 174.473 273.11 173.819 273.162C172.616 273.203 171.416 273.02 170.28 272.623C168.546 272.024 166.854 271.31 165.214 270.488C161.036 268.627 156.875 266.728 152.71 264.838C149.518 263.39 146.332 261.927 143.139 260.48C139.125 258.661 135.109 256.847 131.091 255.037C127.959 253.618 124.833 252.184 121.701 250.765C117.626 248.919 113.55 247.076 109.472 245.238C107.19 244.205 104.91 243.17 102.632 242.132C98.4051 240.217 94.1779 238.302 89.9503 236.389C87.5179 235.286 85.0977 234.155 82.6551 233.075C82.1513 232.889 81.7244 232.54 81.4427 232.084C81.1611 231.627 81.041 231.089 81.1019 230.555C81.413 219.772 81.2427 208.985 81.3055 198.2C81.3156 196.463 81.3156 194.726 81.3054 192.989C81.2996 192.556 81.3606 192.124 81.4863 191.709C81.6127 191.298 81.812 191.187 82.2266 191.353C83.3412 191.802 84.4683 192.219 85.5903 192.649C93.6003 195.718 101.61 198.788 109.62 201.858C116.444 204.478 123.266 207.103 130.086 209.734C136.442 212.174 142.801 214.609 149.162 217.038C156.049 219.68 162.934 222.326 169.818 224.977C170.752 225.337 171.688 225.694 172.612 226.08C172.99 226.219 173.312 226.482 173.524 226.825C173.736 227.169 173.828 227.574 173.783 227.975C173.746 230.212 173.771 232.451 173.771 234.689H173.753Z" fill="#55322D"/>
<path d="M263.962 192.983C264.07 193.265 264.102 193.57 264.055 193.868C264.076 197.974 263.86 202.076 263.77 206.18C263.719 208.48 263.739 210.787 263.602 213.083C263.44 215.785 263.536 218.492 263.379 221.188C263.246 223.458 263.288 225.725 263.211 227.992C263.214 228.993 263.148 229.992 263.015 230.983C262.89 231.626 262.622 232.233 262.23 232.757C261.838 233.282 261.333 233.711 260.752 234.014C259.278 234.873 257.679 235.483 256.133 236.196C252.797 237.733 249.442 239.229 246.097 240.748C240.32 243.371 234.544 245.996 228.769 248.623C224.817 250.42 220.866 252.219 216.916 254.02C211.322 256.562 205.727 259.101 200.131 261.638C196.178 263.434 192.227 265.233 188.277 267.035C184.387 268.807 180.498 270.58 176.609 272.353C175.444 272.882 175.194 272.779 174.825 271.571C174.515 270.618 174.353 269.624 174.346 268.622C174.39 262.911 174.292 257.197 174.436 251.489C174.623 244.109 174.572 236.73 174.549 229.352C174.535 228.333 174.841 227.336 175.424 226.5C176.006 225.664 176.836 225.031 177.797 224.692C178.626 224.343 179.477 224.043 180.322 223.732C189.78 220.24 199.24 216.749 208.699 213.259C217.688 209.939 226.675 206.615 235.661 203.289C242.77 200.663 249.881 198.042 256.994 195.425C259.03 194.674 261.065 193.922 263.1 193.167C263.36 193.013 263.663 192.948 263.962 192.983Z" fill="#6A443F"/>
<path d="M105.448 70.2094C105.702 70.3053 105.917 70.4829 106.06 70.7143C107.014 71.8713 107.962 73.0329 108.905 74.1989C110.544 76.2163 112.18 78.2348 113.816 80.2544C116.314 83.3341 118.812 86.4133 121.311 89.492C123.204 91.8178 125.114 94.1308 127.011 96.4538C128.424 98.1827 129.807 99.9356 131.249 101.64C131.338 101.723 131.409 101.823 131.459 101.933C131.51 102.044 131.537 102.164 131.54 102.286C131.543 102.407 131.522 102.528 131.478 102.641C131.433 102.755 131.367 102.858 131.282 102.945C129.12 106.276 126.99 109.627 124.852 112.972C121.295 118.539 117.738 124.106 114.182 129.674C109.939 136.307 105.692 142.938 101.443 149.568C98.834 153.642 96.2272 157.717 93.6221 161.794C90.3195 166.969 87.02 172.146 83.7236 177.325C82.557 179.154 81.3838 180.978 80.204 182.798C79.8457 183.325 79.6547 183.948 79.6561 184.585C79.6593 185.176 79.3852 185.31 78.9138 184.96C78.3795 184.508 77.9102 183.984 77.5192 183.403C74.0985 178.969 70.6843 174.53 67.2768 170.086C65.0398 167.181 62.7969 164.28 60.5481 161.384C59.3859 159.881 58.2946 158.316 57.047 156.888C55.4734 155.086 55.5721 153.205 56.4837 151.209C57.2383 149.721 58.0724 148.274 58.9824 146.875C61.9622 141.855 64.9561 136.843 67.9641 131.84C71.1493 126.515 74.3349 121.19 77.5211 115.866C80.2771 111.256 83.0311 106.645 85.7833 102.032C88.7962 96.9931 91.8106 91.9546 94.8265 86.9171C97.6796 82.132 100.512 77.3348 103.367 72.551C103.753 71.8092 104.253 71.1325 104.849 70.5457C105.017 70.3845 105.223 70.2687 105.448 70.2094Z" fill="#55322D"/>
<path d="M219.088 76.7578C218.709 76.7311 218.566 76.4648 218.332 76.3478C217.971 76.1415 217.57 76.0113 217.156 75.9652C216.743 75.9192 216.324 75.9583 215.925 76.0801C209.583 78.0538 203.234 80.0078 196.879 81.9421C186.954 84.9841 177.029 88.0238 167.102 91.0611C159.761 93.3079 152.42 95.5531 145.078 97.7965C141.12 99.0066 137.157 100.202 133.207 101.437C132.955 101.557 132.667 101.582 132.398 101.507C132.129 101.431 131.896 101.26 131.744 101.026C129.532 98.2656 127.28 95.5367 125.043 92.7955C122.49 89.6665 119.938 86.5366 117.387 83.4061C115.258 80.7924 113.131 78.1772 111.006 75.5604C109.658 73.9037 108.309 72.2477 106.959 70.5924C106.664 70.3119 106.441 69.9645 106.308 69.5794C107.326 68.934 108.449 68.4723 109.627 68.2154C113.557 67.2883 117.44 66.1847 121.344 65.1607C131.672 62.4517 142 59.7385 152.326 57.0213C161.651 54.5653 170.975 52.1029 180.297 49.6342C184.652 48.4837 189.003 47.3171 193.366 46.1958C194.385 45.8614 195.472 45.7832 196.528 45.9681C197.182 46.1158 197.78 46.4463 198.252 46.921C199.224 47.978 200.116 49.1062 200.92 50.2963C206.507 57.7067 212.079 65.1272 217.639 72.5578C218.552 73.776 219.29 75.0737 219.088 76.7578Z" fill="#6A443F"/>
<path d="M168.262 156.141C167.142 152.403 165.176 149.227 163.037 146.153C162.798 145.883 162.666 145.536 162.665 145.176C162.664 144.816 162.795 144.468 163.032 144.198C167.4 137.638 171.726 131.05 176.066 124.472C180.223 118.173 184.38 111.874 188.539 105.576C190.341 102.844 192.135 100.107 193.948 97.3826C194.235 96.9726 194.445 96.5138 194.568 96.0285C194.787 95.087 194.372 94.696 193.447 94.9865C189.593 96.1963 185.741 97.4107 181.89 98.6298C171.291 101.979 160.692 105.329 150.093 108.68C146.433 109.837 142.773 110.995 139.114 112.153C139.083 112.167 139.051 112.176 139.017 112.18C137.772 112.196 137.233 113.062 136.645 113.995C130.788 123.288 124.913 132.57 119.02 141.84C114.497 148.974 109.971 156.106 105.443 163.237C105.314 163.432 105.198 163.636 105.097 163.847C105.011 163.973 104.964 164.122 104.963 164.274C104.961 164.427 105.005 164.577 105.088 164.704C105.171 164.832 105.291 164.932 105.431 164.992C105.571 165.052 105.726 165.069 105.876 165.041C105.91 165.04 105.943 165.034 105.974 165.023C107.362 164.564 108.29 165.207 109.18 166.21C111.749 168.958 113.51 172.361 114.269 176.046C114.353 176.488 114.373 176.71 113.815 176.765C112.664 176.956 111.533 177.256 110.438 177.661C102.211 180.087 93.9946 182.549 85.7643 184.963C84.7626 185.327 83.7417 185.636 82.7062 185.888C82.1088 185.947 81.5055 185.892 80.9287 185.725C80.7074 185.639 80.5258 185.474 80.4188 185.262C80.3117 185.051 80.2868 184.807 80.3488 184.577C80.4321 184.084 80.6135 183.613 80.8823 183.191C84.2429 177.968 87.5932 172.738 90.9333 167.502C97.281 157.57 103.627 147.637 109.972 137.703C116.606 127.32 123.241 116.937 129.876 106.555C130.578 105.458 131.299 104.373 131.986 103.267C132.256 102.807 132.695 102.472 133.21 102.334C139.471 100.436 145.721 98.5005 151.977 96.5856C162.35 93.4104 172.724 90.2389 183.1 87.071C189.26 85.1852 195.418 83.2929 201.574 81.3941C206.457 79.8968 211.346 78.4207 216.222 76.9036C216.524 76.8104 216.844 76.7891 217.155 76.8414C217.467 76.8937 217.762 77.0181 218.017 77.2046C218.166 77.2838 218.296 77.3925 218.401 77.524C218.506 77.6555 218.583 77.8071 218.627 77.9693C218.671 78.1316 218.681 78.3012 218.657 78.4676C218.633 78.6341 218.575 78.7938 218.487 78.9371C218.371 79.1775 218.238 79.4095 218.09 79.6315C214.341 85.3983 210.59 91.1644 206.839 96.9296C200.998 105.917 195.159 114.905 189.323 123.895C186.796 127.788 184.277 131.686 181.766 135.589C181.644 135.749 181.541 135.921 181.457 136.103C181.249 136.677 180.849 136.794 180.261 136.916C179.03 137.096 177.903 137.704 177.077 138.633C175.712 140.32 174.387 142.038 173.035 143.734C172.86 143.936 172.727 144.171 172.643 144.424C172.56 144.678 172.527 144.945 172.547 145.212C172.62 146.648 172.987 148.053 173.626 149.342C173.728 149.469 173.788 149.625 173.797 149.788C173.806 149.951 173.764 150.112 173.677 150.25C172.248 152.529 170.412 154.526 168.262 156.141Z" fill="#6A443F"/>
<path d="M115.84 191.51C115.832 190.84 115.864 190.17 115.937 189.504C116.083 186.839 116.053 184.167 115.847 181.506C115.653 179.754 115.496 177.997 115.191 176.261C114.584 172.826 113.101 169.606 110.886 166.912C109.828 165.577 108.602 164.385 107.239 163.363C106.675 162.948 106.674 162.928 107.053 162.328C109.173 158.971 111.296 155.615 113.422 152.262C116.422 147.527 119.425 142.793 122.429 138.06C123.949 135.665 125.489 133.283 126.993 130.878C127.097 130.697 127.242 130.543 127.416 130.428C127.59 130.312 127.789 130.239 127.996 130.213C130.344 129.722 132.677 129.155 135.016 128.616C139.173 127.657 143.33 126.7 147.487 125.743C148.214 125.576 148.252 125.592 148.764 126.352C151.619 130.586 154.433 134.848 157.333 139.051C159.799 142.622 162.141 146.272 164.468 149.932C165.65 151.794 166.59 153.798 167.267 155.896C167.422 156.219 167.45 156.588 167.345 156.931C167.24 157.273 167.01 157.563 166.701 157.743C165.3 158.813 164.061 160.091 162.709 161.228C161.692 162.093 160.722 163.012 159.803 163.98C156.957 166.903 154.66 170.314 153.023 174.051C152.369 175.475 151.817 176.944 151.372 178.447C151.335 178.622 151.251 178.784 151.127 178.913C151.004 179.043 150.846 179.135 150.673 179.18C145.7 180.931 140.74 182.718 135.775 184.49C132.6 185.622 129.424 186.749 126.246 187.871C123.132 188.976 120.019 190.082 116.906 191.189C116.596 191.299 116.275 191.38 115.84 191.51Z" fill="#55322D"/>
<path d="M203.871 187.795C204.754 187.618 205.62 187.372 206.464 187.059C206.856 186.929 207.228 186.72 207.244 186.248C207.251 186.012 207.189 185.78 207.067 185.579C206.945 185.378 206.767 185.217 206.555 185.114C206.118 184.908 205.655 184.761 205.179 184.677C205.162 184.425 205.234 184.175 205.381 183.97C205.527 183.632 205.745 183.568 206.104 183.695C209.659 184.954 213.221 186.194 216.779 187.445C220.148 188.629 223.516 189.817 226.883 191.009C227.786 191.329 228.682 191.669 229.765 192.067C228.107 192.696 226.645 193.251 225.182 193.805C220.345 195.635 215.507 197.464 210.67 199.293C205.799 201.129 200.927 202.961 196.054 204.789C191.183 206.623 186.312 208.459 181.443 210.297C178.695 211.333 175.942 212.353 173.204 213.415C172.927 213.524 172.631 213.576 172.333 213.569C172.036 213.562 171.742 213.496 171.471 213.374C164.725 210.744 157.976 208.12 151.226 205.503C142.919 202.284 134.61 199.07 126.3 195.861C123.592 194.815 120.877 193.789 118.167 192.748C117.801 192.608 117.449 192.431 117.077 192.264C117.189 191.905 117.479 191.879 117.713 191.796C122.117 190.233 126.525 188.684 130.926 187.114C136.961 184.959 142.993 182.799 149.024 180.631C149.62 180.368 150.249 180.184 150.894 180.085C150.734 181.27 150.533 182.377 150.447 183.493C150.322 185.11 149.979 186.71 150.251 188.359C150.424 189.402 150.312 190.48 150.477 191.544C150.781 194.096 151.483 196.584 152.558 198.918C152.814 199.387 153.003 199.889 153.121 200.41C152.999 200.886 152.533 201.019 152.224 201.31C151.889 201.626 151.423 201.917 151.589 202.459C151.683 202.695 151.848 202.897 152.061 203.035C152.275 203.174 152.526 203.243 152.78 203.233C153.941 203.393 155.122 203.314 156.251 203.002C163.838 200.523 171.429 198.059 179.025 195.61C187.061 193.004 195.099 190.401 203.137 187.8C203.328 187.743 203.531 187.732 203.727 187.769C203.775 187.777 203.823 187.786 203.871 187.795Z" fill="#55322D"/>
<path d="M193.595 96.0628C193.508 96.4408 193.33 96.7917 193.076 97.0842C187.997 104.776 182.918 112.467 177.84 120.158C172.783 127.824 167.731 135.492 162.683 143.163C161.919 144.323 161.914 144.322 161.141 143.173C157.264 137.409 153.399 131.637 149.494 125.893C149.279 125.652 149.156 125.342 149.147 125.018C149.137 124.695 149.243 124.379 149.445 124.126C152.971 118.455 156.471 112.767 159.942 107.061C160.224 106.57 160.687 106.208 161.233 106.054C169.452 103.48 177.669 100.896 185.883 98.3029C188.048 97.6204 190.205 96.9111 192.372 96.2348C192.738 96.1206 193.099 95.8649 193.595 96.0628Z" fill="#6A443F"/>
<path d="M162.136 197.603C161.406 197.126 160.827 196.449 160.467 195.654C159.453 193.552 158.787 191.3 158.493 188.984C157.923 185.137 159.112 181.611 160.287 178.066C160.418 177.655 160.644 177.281 160.948 176.974C161.251 176.667 161.623 176.436 162.033 176.3C164.27 175.428 166.471 174.465 168.702 173.576C169.742 173.229 170.824 173.018 171.919 172.949C172.355 172.95 172.785 173.052 173.175 173.247C179.351 175.389 185.527 177.534 191.702 179.683C193.624 180.35 195.55 181.007 197.472 181.677C198.285 181.96 198.296 181.994 197.993 182.821C197.535 184.072 197.073 185.322 196.609 186.571C196.572 186.673 196.511 186.765 196.43 186.837C195.326 187.3 194.19 187.684 193.031 187.986C185.129 190.513 177.217 193.013 169.314 195.537C168.012 195.953 166.703 196.345 165.422 196.823C164.315 197.03 163.306 197.658 162.136 197.603Z" fill="#55322D"/>
<path d="M154.137 200.403C153.877 199.789 153.647 199.16 153.352 198.563C152.217 196.07 151.512 193.402 151.266 190.674C151.093 189.149 151.036 187.612 151.098 186.079C151.284 180.581 152.912 175.229 155.818 170.559C157.935 167.19 160.562 164.17 163.604 161.606C165.383 160.04 167.215 158.533 168.91 156.873C169.363 156.429 169.837 156.007 170.314 155.588C171.659 154.434 172.838 153.099 173.817 151.621C173.997 151.345 174.196 151.081 174.43 150.749C175.879 152.235 177.141 153.894 178.186 155.687C178.779 156.756 178.806 158.001 179.212 159.129C179.328 159.448 179.116 159.546 178.893 159.635C178.366 159.845 177.837 160.05 177.307 160.251C174.246 161.52 171.41 163.271 168.904 165.438C164.622 168.742 161.318 173.146 159.343 178.181C158.123 181.117 157.495 184.264 157.495 187.443C157.619 190.35 158.322 193.204 159.562 195.836C159.931 196.587 160.408 197.28 160.977 197.892C161.433 198.417 161.439 198.465 160.902 198.917C160.521 199.237 160.093 199.5 159.686 199.788C159.447 200.214 159.005 200.281 158.596 200.393C157.567 200.643 156.52 200.805 155.464 200.876C155.221 200.934 154.966 200.92 154.731 200.836C154.495 200.752 154.289 200.602 154.137 200.403Z" fill="#D1C9B7"/>
<path d="M172.041 216.242C171.252 216.316 170.458 216.169 169.746 215.819C164.815 213.859 159.881 211.906 154.943 209.961C148.579 207.45 142.213 204.943 135.846 202.44C129.854 200.077 123.862 197.713 117.872 195.346C113.68 193.693 109.488 192.043 105.294 190.396C105.015 190.286 104.738 190.17 104.461 190.052C104.286 189.978 104.017 189.961 104.05 189.701C104.077 189.481 104.314 189.434 104.506 189.368C106.78 188.587 109.053 187.805 111.326 187.021C112.368 186.663 113.41 186.307 114.453 185.952C114.691 185.871 114.957 185.658 115.145 186.012C115.218 186.197 115.233 186.4 115.186 186.593C115.14 186.786 115.035 186.961 114.886 187.092C114.706 187.18 114.518 187.251 114.326 187.305C112.781 187.844 111.236 188.381 109.691 188.918C109.467 188.984 109.249 189.066 109.037 189.164C108.544 189.422 108.525 189.738 108.992 190.054C109.22 190.193 109.463 190.305 109.716 190.389C113.7 191.933 117.685 193.474 121.671 195.013C127.028 197.08 132.385 199.145 137.742 201.209C141.541 202.677 145.334 204.16 149.132 205.628C154.488 207.698 159.845 209.764 165.203 211.826C167.383 212.667 169.569 213.492 171.739 214.359C171.932 214.449 172.142 214.5 172.356 214.509C172.57 214.517 172.783 214.482 172.983 214.406C177.165 212.819 181.349 211.236 185.534 209.658C189.375 208.208 193.217 206.759 197.059 205.311C201.432 203.662 205.805 202.014 210.178 200.366C214.52 198.73 218.862 197.094 223.205 195.46C227.203 193.954 231.202 192.448 235.199 190.941C235.463 190.88 235.695 190.726 235.855 190.508C235.901 190.419 235.929 190.321 235.938 190.22C235.946 190.12 235.934 190.018 235.903 189.922C235.872 189.826 235.822 189.737 235.757 189.661C235.691 189.584 235.611 189.521 235.521 189.475C234.931 189.097 234.295 188.795 233.629 188.578C227.918 186.415 222.207 184.25 216.497 182.084C213.812 181.068 211.124 180.062 208.441 179.042C208.159 178.934 207.633 178.936 207.776 178.479C207.951 177.918 208.413 178.3 208.704 178.402C213.237 180.002 217.762 181.627 222.29 183.239C224.869 184.157 227.453 185.061 230.033 185.977C233.179 187.095 236.323 188.217 239.466 189.342C239.686 189.421 239.899 189.518 240.12 189.595C240.236 189.619 240.34 189.681 240.417 189.771C240.494 189.861 240.539 189.973 240.545 190.091C240.55 190.37 240.335 190.481 240.105 190.568C238.701 191.102 237.298 191.638 235.896 192.176C229.011 194.822 222.126 197.467 215.241 200.112C209.164 202.44 203.078 204.743 197.002 207.073C190.708 209.488 184.424 211.928 178.13 214.344C176.821 214.846 175.499 215.314 174.23 215.914C173.545 216.225 172.787 216.339 172.041 216.242Z" fill="#55322D"/>
<path d="M128.059 129.202C128.682 128.199 129.219 127.323 129.768 126.455C132.301 122.452 134.846 118.458 137.364 114.446C137.782 113.726 138.462 113.196 139.262 112.967C144.332 111.409 149.383 109.792 154.441 108.195C155.777 107.773 157.114 107.352 158.45 106.932C158.603 106.883 158.749 106.773 158.967 106.898C158.563 107.758 158.082 108.58 157.53 109.354C154.802 113.823 152.061 118.283 149.305 122.735C149.033 123.114 148.791 123.514 148.582 123.932C148.456 124.219 148.256 124.468 148.003 124.653C147.75 124.838 147.452 124.953 147.14 124.986C141.326 126.308 135.517 127.655 129.701 128.969C129.173 129.149 128.616 129.229 128.059 129.202Z" fill="#55322D"/>
<path d="M197.662 186.566C197.937 185.4 198.312 184.26 198.784 183.159C199.636 180.982 200.238 178.716 200.58 176.404C200.813 174.409 200.67 172.388 200.158 170.446C199.815 169.052 199.357 167.688 198.788 166.37C197.503 163.503 195.186 161.224 192.298 159.987C190.993 159.382 189.617 158.947 188.201 158.694C187.445 158.564 187.406 158.499 187.605 157.795C187.994 156.32 188.686 154.943 189.637 153.75C190.587 152.557 191.776 151.575 193.126 150.867C193.769 150.517 193.785 150.538 194.119 151.222C194.8 152.532 195.791 153.656 197.004 154.497C198.263 155.434 199.509 156.387 200.715 157.395C204.234 160.348 206.552 164.487 207.23 169.031C207.894 172.494 207.637 176.071 206.485 179.404C205.805 181.218 204.995 182.981 204.061 184.678C203.632 185.394 203.285 186.156 203.026 186.95C202.989 186.995 202.953 187.04 202.916 187.086C202.401 187.43 201.871 187.16 201.385 187.05C200.191 186.782 198.954 187.049 197.774 186.701C197.737 186.657 197.699 186.611 197.662 186.566Z" fill="#D1C9B7"/>
<path d="M183.509 159.951C182.775 159.92 182.047 159.819 181.316 159.75C181.014 159.736 180.725 159.625 180.492 159.433C180.259 159.241 180.094 158.979 180.023 158.685C179.862 158.177 179.732 157.659 179.632 157.136C179.419 156.051 178.97 155.026 178.318 154.133C177.589 153.054 176.789 152.025 175.924 151.051C174.496 149.484 173.614 147.497 173.41 145.387C173.38 145.207 173.389 145.022 173.437 144.846C173.486 144.67 173.572 144.506 173.689 144.366C174.897 142.853 176.091 141.328 177.272 139.794C177.596 139.37 177.814 139.45 178.131 139.786C179.185 140.903 180.281 141.982 181.318 143.115C181.538 143.384 181.817 143.599 182.133 143.744C182.45 143.889 182.795 143.961 183.143 143.953C184.544 143.947 185.949 143.999 187.348 144.09C188.049 144.138 188.742 143.913 189.282 143.462C190.554 142.487 191.854 141.549 193.149 140.605C193.875 140.077 193.886 140.083 194.21 140.949C194.817 142.574 195.395 144.21 196.034 145.822C196.133 146.048 196.175 146.296 196.155 146.542C196.136 146.789 196.055 147.026 195.921 147.234C195.299 148.39 194.315 149.311 193.12 149.856C191.488 150.636 190.057 151.783 188.941 153.208C187.697 154.787 186.84 156.635 186.438 158.605C186.378 158.97 186.192 159.303 185.913 159.547C185.634 159.79 185.279 159.928 184.909 159.938C184.71 159.964 184.51 159.98 184.31 159.986C184.043 159.986 183.776 159.964 183.509 159.951Z" fill="#DFD2CA"/>
<path d="M199.853 173.177C199.848 175.59 199.977 175.542 198.396 174.965C191.72 172.529 185.044 170.09 178.369 167.65C176.834 167.089 175.292 166.544 173.764 165.963C173.185 165.806 172.572 165.826 172.003 166.02C171.416 166.14 170.843 166.325 170.262 166.475C170.06 166.527 169.863 166.534 169.746 166.306C169.691 166.221 169.669 166.119 169.683 166.019C169.697 165.919 169.746 165.828 169.822 165.761C169.917 165.668 170.016 165.577 170.12 165.494C172.461 163.55 175.091 161.984 177.916 160.853C178.454 160.649 178.937 160.393 179.432 160.982C179.599 161.181 179.976 161.207 180.26 161.303C185.982 163.239 191.704 165.173 197.427 167.104C197.95 167.28 198.418 167.461 198.61 168.055C199.227 169.707 199.644 171.426 199.853 173.177Z" fill="#6A443F"/>
<path d="M154.137 200.403C155.845 200.759 157.468 200.25 159.108 199.912C159.301 199.873 159.493 199.83 159.686 199.788C160.381 199.727 161.043 199.463 161.589 199.028C161.724 198.953 161.902 198.774 161.779 198.623C161.324 198.063 161.872 197.89 162.136 197.603C163.142 197.112 164.214 196.771 165.318 196.589C168.172 195.837 170.976 194.921 173.789 194.029C178.656 192.485 183.563 191.066 188.383 189.379C190.706 188.566 193.052 187.847 195.412 187.156C195.78 187.048 196.212 187 196.437 186.603C196.493 186.585 196.551 186.574 196.61 186.571C196.767 186.471 196.949 186.417 197.135 186.417C197.321 186.416 197.504 186.467 197.662 186.566L197.645 186.558C199.423 186.926 201.241 187.059 203.053 186.954L203.027 186.95C203.091 186.956 203.155 186.963 203.22 186.968C203.991 187.025 203.991 187.025 203.872 187.795L203.869 187.79C203.752 187.893 203.573 187.857 203.462 187.973C200.962 188.912 198.396 189.65 195.859 190.476C189.768 192.461 183.676 194.442 177.582 196.419C172.348 198.12 167.113 199.82 161.878 201.52C159.942 202.148 158.003 202.766 156.068 203.397C154.928 203.658 153.751 203.718 152.59 203.572C152.292 203.528 152.008 203.416 151.76 203.244C151.592 203.185 151.442 203.082 151.327 202.946C151.212 202.809 151.136 202.644 151.107 202.468C151.078 202.291 151.098 202.111 151.163 201.945C151.229 201.779 151.338 201.633 151.479 201.524C151.932 201.03 152.495 200.648 153.121 200.41C153.27 200.305 153.447 200.248 153.628 200.247C153.81 200.246 153.988 200.3 154.137 200.403Z" fill="#331815"/>
<path d="M172.788 170.862C172.833 170.261 172.903 169.466 172.947 168.669C172.969 168.266 173.103 168.133 173.509 168.284C174.572 168.678 175.646 169.044 176.713 169.43C181.983 171.336 187.254 173.243 192.523 175.151C194.594 175.9 196.669 176.638 198.735 177.399C199.493 177.679 199.495 177.706 199.307 178.477C199.157 179.091 198.992 179.703 198.807 180.308C198.586 181.033 198.491 181.083 197.721 180.821C195.416 180.037 193.113 179.244 190.813 178.444C185.14 176.475 179.468 174.504 173.797 172.53C172.653 172.132 172.76 172.262 172.788 170.862Z" fill="#6A443F"/>
<path d="M234.78 190.165C233.629 190.6 232.476 191.03 231.329 191.475C231.072 191.548 230.795 191.519 230.559 191.394C222.66 188.615 214.761 185.836 206.862 183.059C206.007 182.758 206.013 182.754 206.369 181.964C206.643 181.356 206.943 180.756 207.164 180.129C207.329 179.662 207.535 179.613 207.975 179.785C209.838 180.517 211.715 181.213 213.587 181.921C219.953 184.328 226.319 186.736 232.685 189.143C233.392 189.411 234.1 189.68 234.806 189.951L234.78 190.165Z" fill="#6A443F"/>
<path d="M178.327 138.699C179.177 138.092 180.201 137.775 181.245 137.796C184.008 137.938 186.774 138.029 189.541 138.07C190.918 138.088 191.994 138.807 193.262 139.305C192.456 140 191.611 140.649 190.732 141.249C189.968 141.944 189.12 142.54 188.208 143.025C187.272 143.412 186.172 143.061 185.144 143.081C184.284 143.204 183.408 143.155 182.567 142.937C181.804 142.627 181.374 141.802 180.786 141.216C179.985 140.417 179.204 139.598 178.327 138.699Z" fill="#DFD2CA"/>
<path d="M183.04 160.892C183.574 160.9 184.11 160.931 184.643 160.91C185.08 160.925 185.514 160.835 185.909 160.649C186.304 160.462 186.649 160.183 186.914 159.836C186.986 159.706 187.098 159.603 187.234 159.544C187.37 159.484 187.522 159.472 187.666 159.507C191.569 160.202 194.89 161.859 197.172 165.235C197.415 165.542 197.578 165.904 197.648 166.289C194.985 165.472 192.447 164.549 189.887 163.697C187.321 162.844 184.767 161.955 182.208 161.082C182.391 160.605 182.741 160.862 183.04 160.892Z" fill="#F6EBD1"/>
<path d="M161.775 175.516C163.295 171.931 165.874 169.252 168.652 166.77C168.991 166.936 168.943 167.156 168.945 167.346C168.959 168.812 168.946 170.279 168.984 171.744C169.016 171.989 168.956 172.236 168.816 172.439C168.676 172.642 168.466 172.786 168.226 172.843C166.063 173.7 163.924 174.62 161.775 175.516Z" fill="#55322D"/>
<path d="M199.608 176.483C199.605 176.519 199.593 176.553 199.574 176.583C199.554 176.613 199.528 176.638 199.496 176.656C199.465 176.673 199.43 176.683 199.394 176.684C199.358 176.685 199.323 176.677 199.291 176.662C198.815 176.506 198.338 176.352 197.868 176.181C190.528 173.521 183.189 170.86 175.85 168.198C175.004 167.892 174.146 167.619 173.298 167.316C172.728 167.11 172.101 167.127 171.543 167.366C171.109 167.537 170.658 167.663 170.213 167.806C170.052 167.858 169.876 167.91 169.823 167.669C169.815 167.636 169.814 167.602 169.82 167.569C169.826 167.536 169.839 167.505 169.857 167.477C169.876 167.449 169.9 167.425 169.928 167.407C169.956 167.388 169.988 167.376 170.021 167.37C170.949 167.099 171.878 166.831 172.809 166.568C173.041 166.536 173.278 166.582 173.482 166.698C178.841 168.656 184.202 170.612 189.563 172.566C192.697 173.711 195.83 174.861 198.96 176.016C199.147 176.083 199.33 176.163 199.507 176.254C199.547 176.276 199.578 176.31 199.596 176.352C199.615 176.393 199.619 176.439 199.608 176.483Z" fill="#9D8375"/>
<path d="M110.518 189.525C112.01 189.017 113.502 188.508 115.095 187.965C115.05 189.045 115.014 190.019 114.966 190.992C114.952 191.293 114.778 191.409 114.494 191.3C113.167 190.789 111.842 190.274 110.518 189.755L110.518 189.525Z" fill="#B19B90"/>
<path d="M171.95 168.185C171.95 169.244 171.962 170.205 171.947 171.164C171.933 172.019 171.903 172.038 171.062 172.157C171.029 172.162 170.995 172.16 170.962 172.164C169.964 172.304 169.972 172.304 169.923 171.279C169.894 170.683 169.843 170.087 169.783 169.493C169.758 169.397 169.753 169.296 169.771 169.198C169.788 169.1 169.827 169.007 169.884 168.926C169.941 168.844 170.015 168.776 170.101 168.726C170.187 168.677 170.283 168.646 170.382 168.637C170.897 168.523 171.398 168.347 171.95 168.185Z" fill="#B09A8F"/>
<path d="M99.1492 181.96C99.5532 181.662 100.053 181.525 100.552 181.573L100.547 181.566C100.115 181.841 99.6372 182.038 99.1368 182.149C99.0694 182.102 99.0488 182.059 99.0749 182.018C99.0999 181.979 99.1245 181.96 99.1492 181.96Z" fill="#8F8B7C"/>
<path d="M97.3431 182.741L97.3374 182.509C97.7047 182.285 98.127 182.167 98.5573 182.169C98.6076 182.096 98.6619 182.089 98.7209 182.16C98.3132 182.458 97.8414 182.657 97.3431 182.741Z" fill="#BBBBA6"/>
<path d="M183.04 160.892C182.771 160.995 182.445 160.842 182.208 161.082C181.978 161.068 181.756 160.987 181.571 160.849C182.048 160.675 182.574 160.69 183.04 160.892Z" fill="#B9C4AE"/>
<path d="M106.273 164.116C106.175 164.105 106.067 164.09 106.087 163.961C106.09 163.937 106.097 163.913 106.109 163.892C106.121 163.871 106.137 163.852 106.156 163.837C106.175 163.822 106.198 163.812 106.221 163.806C106.245 163.8 106.269 163.799 106.293 163.803C106.324 163.814 106.351 163.83 106.375 163.852C106.398 163.874 106.416 163.901 106.428 163.931C106.484 164.072 106.371 164.092 106.273 164.116Z" fill="#AB9D8B"/>
<path d="M100.552 181.573C100.59 181.52 100.635 181.473 100.686 181.432C100.77 181.384 100.908 181.353 100.936 181.451C100.971 181.572 100.825 181.553 100.745 181.565C100.68 181.57 100.613 181.571 100.547 181.566L100.552 181.573Z" fill="#7A7568"/>
<path d="M98.7209 182.16C98.6666 182.167 98.6119 182.17 98.5571 182.169C98.7033 181.955 98.9296 181.967 99.1491 181.96C99.149 182.023 99.1449 182.086 99.1368 182.149C98.9981 182.153 98.8595 182.156 98.7209 182.16Z" fill="#AFBBA6"/>
<path d="M203.462 187.973C203.507 187.909 203.569 187.858 203.64 187.826C203.712 187.793 203.791 187.781 203.869 187.789C203.823 187.853 203.761 187.903 203.69 187.935C203.618 187.967 203.54 187.98 203.462 187.973Z" fill="#331815"/>
<path d="M196.437 186.603C196.43 186.737 196.38 186.865 196.294 186.968C196.209 187.071 196.092 187.143 195.962 187.175C195.248 187.438 194.518 187.656 193.777 187.828C192.14 188.139 190.554 188.671 189.06 189.407C188.629 189.578 188.188 189.723 187.74 189.839C185.892 190.505 184.046 191.174 182.154 191.71C180.746 192.109 179.348 192.546 177.946 192.965C177.424 193.12 176.782 193.053 176.551 193.738C176.541 193.761 176.527 193.782 176.509 193.799C176.491 193.816 176.47 193.83 176.446 193.839C176.423 193.847 176.398 193.851 176.373 193.85C176.348 193.848 176.324 193.842 176.301 193.831C175.356 193.441 174.544 193.984 173.725 194.261C172.646 194.687 171.534 195.025 170.4 195.271C169.644 195.399 168.913 195.818 168.143 196.031C167.227 196.329 166.279 196.517 165.318 196.589C166.255 196.159 167.229 195.814 168.228 195.561C172.607 194.153 176.99 192.757 181.376 191.372C186.396 189.78 191.416 188.19 196.437 186.603Z" fill="#331815"/>
<path d="M203.053 186.954C202.976 187.014 202.897 187.13 202.823 187.126C201.788 187.079 200.747 187.537 199.708 187.054C199.388 186.977 199.057 186.949 198.728 186.972C198.33 186.966 197.946 186.819 197.645 186.558C199.195 186.463 200.751 186.584 202.268 186.918C202.528 186.957 202.791 186.969 203.053 186.954Z" fill="#331815"/>
</g>
<g style="mix-blend-mode:hue">
<path d="M0 0H320V320H0V0Z" fill="#00BF13"/>
</g>
</g>
<defs>
<clipPath id="clip0_1430_2290">
<rect width="320" height="320" fill="white"/>
</clipPath>
<clipPath id="clip1_1430_2290">
<rect width="210" height="229.044" fill="white" transform="translate(55 45)"/>
</clipPath>
</defs>
</svg>
