<svg width="320" height="320" viewBox="0 0 320 320" fill="none" xmlns="http://www.w3.org/2000/svg">
<g clip-path="url(#clip0_1423_9675)">
<rect width="320" height="320" fill="#DCFFE0"/>
<g clip-path="url(#clip1_1423_9675)">
<path d="M206.068 121.648C208.315 122.735 210.458 123.772 212.603 124.808C229.741 133.085 246.88 141.363 264.018 149.64C264.174 149.715 264.324 149.8 264.483 149.865C264.659 149.925 264.808 150.046 264.902 150.206C264.997 150.365 265.031 150.554 264.999 150.737C264.777 157.711 264.569 164.685 264.377 171.66C264.355 172.03 264.212 172.383 263.971 172.665C259.253 179.105 254.538 185.547 249.825 191.99C249.175 192.878 249.176 192.877 250.086 193.467C252.328 194.919 254.585 196.348 256.804 197.834C257.523 198.262 258.143 198.838 258.623 199.523C259.103 200.208 259.432 200.987 259.589 201.809C259.706 202.386 259.698 202.981 259.567 203.555C259.435 204.129 259.183 204.668 258.826 205.136C256.05 208.869 253.31 212.629 250.552 216.376C250.298 216.722 250.025 217.057 249.741 217.38C249.477 217.687 249.136 217.918 248.753 218.049C248.369 218.18 247.958 218.207 247.561 218.125C246.512 217.933 245.52 217.503 244.661 216.87C243.455 216.031 242.403 214.99 241.551 213.794C240.408 212.212 239.349 210.568 238.115 209.051C237.973 208.877 237.874 208.659 237.63 208.549C237.335 208.636 237.23 208.927 237.066 209.146C228.647 220.422 220.229 231.697 211.811 242.974C211.576 243.402 211.233 243.762 210.816 244.017C210.673 244.108 210.508 244.158 210.338 244.163C210.169 244.169 210.001 244.129 209.852 244.048C209.195 243.694 208.521 243.372 207.854 243.038C189.856 234.036 171.856 225.035 153.857 216.037C152.648 215.433 152.959 215.333 152.135 216.471C151.664 217.123 151.204 217.782 150.738 218.438C150.63 218.641 150.48 218.819 150.299 218.961C150.118 219.103 149.909 219.206 149.686 219.262C149.463 219.319 149.231 219.329 149.004 219.29C148.777 219.252 148.561 219.167 148.369 219.04C147.127 218.444 145.892 217.831 144.654 217.226C115.635 203.053 86.6156 188.88 57.596 174.708C57.3537 174.553 57.0887 174.438 56.8106 174.367C56.2694 174.3 56.1956 173.975 56.1763 173.527C56.0982 171.72 55.991 169.915 55.9079 168.108C55.7074 163.748 55.5105 159.388 55.3171 155.028C55.2261 153.05 55.1482 151.069 55.0079 149.094C54.9801 148.741 55.0261 148.386 55.1431 148.051C55.2601 147.717 55.4455 147.411 55.6874 147.152C61.0992 140.67 66.4985 134.179 71.8854 127.676C85.9758 110.706 100.06 93.7311 114.139 76.7512C114.79 75.9646 115.251 75.7691 116.361 76.2916C121.842 78.8712 127.319 81.4572 132.793 84.0496C157.244 95.5983 181.696 107.147 206.147 118.696C206.406 118.818 206.671 118.933 206.919 119.076C207.565 119.448 207.606 119.625 207.175 120.209C206.835 120.669 206.478 121.117 206.068 121.648Z" fill="#664822"/>
<path d="M57.0667 146.861C58.4042 145.066 59.8993 143.4 61.3209 141.674C64.5482 137.756 67.7855 133.846 71.0328 129.944C73.7086 126.723 76.4031 123.517 79.077 120.295C81.6956 117.139 84.2934 113.965 86.9102 110.808C88.9966 108.29 91.1002 105.786 93.1919 103.273C96.3108 99.5255 99.4275 95.776 102.542 92.0246C105.197 88.8235 107.847 85.6188 110.493 82.4103C111.901 80.7092 113.312 79.0104 114.725 77.3141C115.249 76.685 115.254 76.6895 115.999 77.0412C120.18 79.0142 124.361 80.9871 128.542 82.96C132.774 84.9589 137.005 86.9589 141.236 88.9602C145.391 90.9222 149.546 92.8829 153.701 94.8423C157.933 96.8408 162.164 98.8408 166.394 100.842C171.639 103.32 176.884 105.796 182.129 108.272C186.284 110.233 190.439 112.194 194.594 114.153C198.075 115.792 201.558 117.428 205.042 119.06C205.481 119.267 205.914 119.49 206.38 119.72C206.137 120.281 205.793 120.792 205.364 121.228C202.068 125.459 198.762 129.682 195.446 133.898C191.392 139.065 187.337 144.233 183.281 149.399C180.31 153.193 177.361 157.003 174.389 160.795C169.894 166.529 165.394 172.258 160.889 177.983C158.146 181.482 155.426 184.998 152.691 188.503C151.862 189.565 151.018 190.615 150.181 191.671C149.787 192.272 149.322 191.944 148.895 191.746C146.993 190.864 145.091 189.979 143.205 189.065C137.776 186.437 132.313 183.88 126.872 181.278C119.772 177.884 112.665 174.505 105.551 171.141C99.8441 168.429 94.1368 165.718 88.4288 163.009C80.0981 159.061 71.771 155.105 63.4477 151.142C61.453 150.188 59.4355 149.28 57.4542 148.298C56.4723 147.811 56.4626 147.722 57.0667 146.861Z" fill="#553530"/>
<path d="M151.146 191.907C151.232 191.632 151.388 191.385 151.598 191.188C166.275 172.44 180.953 153.692 195.632 134.946C197.102 133.07 198.572 131.193 200.043 129.318C200.514 128.718 200.519 128.717 201.216 129.052C209.885 133.22 218.554 137.388 227.222 141.558C237.34 146.424 247.457 151.29 257.575 156.157C257.858 156.293 258.139 156.436 258.441 156.585C258.429 156.946 258.173 157.157 257.996 157.399C252.454 164.98 246.909 172.56 241.36 180.137C231.592 193.488 221.824 206.839 212.057 220.19C211.357 221.147 211.355 221.148 210.249 220.613C192.287 211.918 174.325 203.222 156.363 194.527C154.76 193.751 153.158 192.975 151.556 192.198C151.393 192.146 151.249 192.044 151.146 191.907Z" fill="#DCCDB3"/>
<path d="M57.0665 146.861C56.7608 147.661 56.7556 147.672 57.5797 148.069C60.4487 149.451 63.3115 150.847 66.1965 152.195C68.4315 153.24 70.6558 154.306 72.885 155.363C75.3737 156.542 77.8603 157.726 80.3446 158.914C82.5978 159.987 84.8556 161.05 87.1079 162.124C89.4378 163.236 91.7734 164.336 94.1042 165.447C96.4867 166.582 98.87 167.715 101.254 168.847C103.585 169.956 105.917 171.064 108.25 172.169C110.53 173.254 112.814 174.328 115.092 175.416C117.395 176.517 119.705 177.604 122.01 178.701C124.419 179.847 126.828 180.994 129.237 182.14C131.54 183.241 133.851 184.327 136.156 185.425C138.565 186.572 140.985 187.693 143.381 188.868C145.312 189.814 147.273 190.7 149.216 191.623C149.541 191.778 149.846 191.913 150.181 191.671C149.786 192.431 149.48 193.233 149.268 194.063C149.151 194.567 149.119 195.086 149.172 195.6C149.336 197.138 149.394 198.684 149.532 200.221C149.698 202.073 149.768 203.931 149.968 205.781C150.076 206.773 150.094 207.78 150.172 208.779C150.345 210.976 150.432 213.179 150.679 215.369C150.674 215.828 150.715 216.286 150.803 216.736C150.894 217.022 150.624 217.203 150.491 217.412C149.539 218.897 149.32 218.634 148.158 218.059C143.989 215.995 139.815 213.943 135.634 211.903C130.605 209.441 125.574 206.984 120.54 204.531C115.354 201.998 110.168 199.465 104.983 196.931C100.286 194.639 95.5883 192.35 90.8891 190.064C85.7023 187.533 80.5169 184.999 75.3328 182.462C69.9163 179.814 64.5001 177.165 59.0842 174.515C58.5686 174.263 58.0478 174.022 57.5218 173.792C57.3293 173.73 57.1634 173.605 57.0512 173.436C56.939 173.268 56.8871 173.067 56.9039 172.866C56.97 170.885 56.7887 168.91 56.6738 166.939C56.6801 165.306 56.5911 163.675 56.4073 162.052C56.3878 161.881 56.3845 161.708 56.3974 161.536C56.4301 159.556 56.2455 157.583 56.1634 155.608C56.0802 153.607 56.0646 151.597 55.849 149.606C55.7912 149.081 55.8734 148.551 56.0873 148.069C56.3012 147.587 56.639 147.17 57.0665 146.861Z" fill="#3C1F1B"/>
<path d="M151.375 213.911C151.322 213.862 151.282 213.801 151.255 213.734C151.229 213.667 151.218 213.594 151.223 213.522C151.228 212.433 151.164 211.344 151.033 210.263C150.887 208.151 150.786 206.035 150.557 203.928C150.467 203.105 150.449 202.271 150.401 201.444C150.333 200.272 150.206 199.104 150.152 197.93C150.105 196.902 149.975 195.877 150.004 194.843C150.001 194.614 150.015 194.385 150.048 194.158C150.337 192.629 150.44 192.582 151.822 193.253C155.67 195.12 159.52 196.986 163.371 198.849C167.039 200.626 170.707 202.402 174.376 204.177C178.071 205.966 181.767 207.755 185.462 209.544C189.002 211.258 192.543 212.97 196.084 214.682C199.78 216.47 203.475 218.259 207.17 220.048C208.463 220.673 209.756 221.294 211.051 221.913C211.628 222.189 211.628 222.188 212.081 221.632C212.398 221.941 212.28 222.327 212.249 222.687C211.955 226.19 211.881 229.703 211.701 233.212C211.567 235.808 211.441 238.404 211.322 241.001C211.308 241.32 211.231 241.635 211.593 241.82C211.414 242.393 210.877 242.704 210.582 243.193C210.541 243.254 210.478 243.295 210.406 243.31C210.334 243.324 210.26 243.31 210.198 243.27C209.963 243.163 209.726 243.06 209.495 242.945C191.033 233.72 172.571 224.493 154.109 215.264C153.35 214.93 152.615 214.544 151.908 214.109C151.845 214.012 151.725 213.952 151.683 213.856C151.486 213.406 151.485 213.947 151.375 213.911Z" fill="#3C1F1B"/>
<path d="M211.593 241.82L211.016 242.204C210.934 242.125 210.88 242.021 210.861 241.909C210.842 241.797 210.859 241.681 210.911 241.579C211.06 240.938 211.108 240.278 211.054 239.622C211.052 237.966 211.219 236.318 211.28 234.665C211.259 233.583 211.309 232.502 211.428 231.426C211.698 229.838 211.368 228.226 211.734 226.654C211.752 226.541 211.756 226.426 211.745 226.312C211.695 224.744 211.808 223.176 212.082 221.632C212.731 220.587 213.44 219.58 214.206 218.616C217.397 214.232 220.597 209.856 223.809 205.487C226.418 201.922 229.029 198.358 231.639 194.794C233.874 191.737 236.105 188.678 238.333 185.616C240.889 182.119 243.449 178.624 246.011 175.132C248.775 171.36 251.539 167.589 254.305 163.819C257.338 159.676 260.371 155.532 263.402 151.387C263.548 151.142 263.738 150.926 263.963 150.75C264.253 150.843 264.148 151.082 264.143 151.255C264.072 153.806 264.047 156.36 263.942 158.908C263.867 160.743 263.915 162.581 263.796 164.41C263.654 166.588 263.657 168.767 263.629 170.946C263.618 171.523 263.42 172.081 263.065 172.536C259.228 177.762 255.398 182.993 251.576 188.229C250.712 189.409 249.853 190.594 248.984 191.771C248.472 192.464 248.466 192.456 247.713 191.967C246.726 191.326 245.737 190.687 244.747 190.051C243.973 189.557 243.623 189.619 243.092 190.339C240.08 194.426 237.072 198.516 234.069 202.609C233.781 203.002 233.368 203.34 233.426 203.959C233.439 204.187 233.507 204.408 233.625 204.602C233.743 204.797 233.908 204.959 234.104 205.075C235.003 205.644 235.83 206.317 236.569 207.081C237.135 207.688 237.153 207.682 236.654 208.35C233.584 212.466 230.512 216.58 227.439 220.693C223.647 225.773 219.855 230.853 216.064 235.933C214.639 237.841 213.214 239.748 211.788 241.654C211.729 241.716 211.664 241.772 211.593 241.82Z" fill="#553530"/>
<path d="M263.247 150.221C261.887 152.081 260.596 153.837 259.318 155.602C259.051 155.971 258.787 155.809 258.496 155.668C257.022 154.957 255.547 154.248 254.071 153.541C241.497 147.493 228.923 141.444 216.35 135.396C211.538 133.081 206.726 130.765 201.915 128.448C201.643 128.353 201.389 128.214 201.162 128.036C201.145 127.807 201.326 127.682 201.442 127.534C202.659 125.971 203.882 124.412 205.11 122.857C205.528 122.327 205.536 122.326 206.155 122.625C211.998 125.446 217.841 128.268 223.683 131.091C236.402 137.234 249.121 143.376 261.841 149.519C262.278 149.73 262.709 149.952 263.247 150.221Z" fill="#BBA580"/>
<path d="M250.076 215.508C249.472 214.28 248.63 213.185 247.598 212.286C246.249 211.081 244.815 209.975 243.307 208.976C240.848 207.334 238.297 205.833 235.667 204.48C235.208 204.25 234.733 204.054 234.237 203.83C234.542 203.234 234.915 202.675 235.35 202.167C238.004 198.527 240.669 194.895 243.344 191.271C243.948 190.447 243.943 190.45 244.773 190.987C248.605 193.468 252.448 195.932 256.266 198.434C257.448 199.121 258.318 200.239 258.694 201.554C258.857 202.09 258.89 202.656 258.791 203.208C258.691 203.759 258.462 204.278 258.122 204.723C255.514 208.218 252.952 211.747 250.372 215.264C250.343 215.323 250.302 215.376 250.251 215.418C250.2 215.46 250.14 215.491 250.076 215.508Z" fill="#E5E4E1"/>
<path d="M237.103 206.135C240.249 207.788 243.234 209.73 246.019 211.937C247.06 212.746 247.983 213.697 248.761 214.761C248.977 215.065 249.141 215.403 249.244 215.761C249.318 215.942 249.345 216.139 249.323 216.334C249.3 216.528 249.228 216.713 249.113 216.872C248.999 217.031 248.846 217.158 248.669 217.242C248.492 217.325 248.297 217.362 248.102 217.35C247.555 217.359 247.014 217.232 246.528 216.981C244.694 216.138 243.137 214.791 242.038 213.097C240.747 211.205 239.371 209.375 238.013 207.532C237.692 207.096 237.292 206.72 236.928 206.316C236.878 206.152 236.923 206.078 237.103 206.135Z" fill="#D1C9B7"/>
<path d="M151.561 215.718C151.363 215.566 151.43 215.381 151.415 215.223C151.405 215.12 151.387 214.986 151.534 214.943C151.59 214.93 151.647 214.931 151.702 214.945C151.758 214.958 151.809 214.985 151.851 215.023C151.876 215.036 151.899 215.054 151.917 215.076C151.935 215.097 151.948 215.123 151.956 215.15C151.963 215.177 151.965 215.206 151.961 215.234C151.957 215.262 151.947 215.289 151.932 215.313C151.837 215.477 151.755 215.662 151.561 215.718Z" fill="#D8D0B4"/>
<path d="M151.375 213.911C151.4 213.731 151.332 213.535 151.483 213.31C151.689 213.573 151.912 213.773 151.908 214.109C151.716 214.094 151.531 214.026 151.375 213.911Z" fill="#DCCAB0"/>
<path d="M237.103 206.134L236.928 206.316C236.651 206.182 236.432 205.952 236.312 205.668C236.615 205.745 236.889 205.906 237.103 206.134Z" fill="#846C4F"/>
</g>
<g style="mix-blend-mode:hue">
<rect width="320" height="320" fill="#00BF13"/>
</g>
</g>
<defs>
<clipPath id="clip0_1423_9675">
<rect width="320" height="320" fill="white"/>
</clipPath>
<clipPath id="clip1_1423_9675">
<rect width="210" height="168.165" fill="white" transform="translate(55 76)"/>
</clipPath>
</defs>
</svg>
