<svg width="320" height="320" viewBox="0 0 320 320" fill="none" xmlns="http://www.w3.org/2000/svg">
<rect width="320" height="320" fill="#F2F2EA"/>
<path d="M240.407 196.119H212.357V173.12L240.407 196.119ZM212.357 168.093H196.119L107.593 79.5927H123.881L212.357 168.093Z" fill="black"/>
<path d="M240.407 196.119V212.356H212.357V240.407H196.119V212.356H168.119V196.119H196.119V168.093H212.357V196.119H240.407ZM79.5928 107.643V123.881L168.094 212.382L168.119 196.119L79.5928 107.643Z" fill="black"/>
<path d="M196.119 168.093V196.119H196.094L107.543 107.568V79.5927H107.593L196.119 168.093Z" fill="black"/>
<path d="M196.094 196.119H168.119L79.5928 107.643V107.568H107.543L196.094 196.119ZM196.144 240.407V212.356H173.121L196.144 240.407Z" fill="black"/>
<path d="M240.407 196.119H212.356V173.12L240.407 196.119Z" fill="#CAB797"/>
<path d="M212.357 168.093H196.119L107.593 79.5927H123.881L212.357 168.093Z" fill="#EADFCD"/>
<path d="M240.407 196.119V212.356H212.356V240.407H196.119V212.356H168.119V196.119H196.119V168.094H212.356V196.119H240.407Z" fill="#B7A380"/>
<path d="M79.5928 107.643V123.881L168.094 212.382L168.119 196.119L79.5928 107.643Z" fill="#EADFCD"/>
<path d="M196.119 168.093V196.119H196.094L107.543 107.568V79.5927H107.593L196.119 168.093Z" fill="#CAB797"/>
<path d="M196.094 196.119H168.119L79.5928 107.643V107.568H107.543L196.094 196.119Z" fill="#DCCDB3"/>
<path d="M196.144 240.407V212.356H173.121L196.144 240.407Z" fill="#CAB797"/>
</svg>
