<svg width="320" height="320" viewBox="0 0 320 320" fill="none" xmlns="http://www.w3.org/2000/svg">
<g clip-path="url(#clip0_1431_160)">
<rect width="320" height="320" fill="#DCFFE0"/>
<g clip-path="url(#clip1_1431_160)">
<rect x="62" y="134" width="197" height="52" rx="14" fill="#DCCDB3"/>
<path fill-rule="evenodd" clip-rule="evenodd" d="M73.0669 128H246.933C251.721 128.011 256.31 129.911 259.696 133.283C263.082 136.656 264.989 141.227 265 145.997V173.267C265 175.629 264.531 177.968 263.621 180.15C262.711 182.332 261.377 184.313 259.696 185.98H259.679C258.008 187.653 256.022 188.981 253.835 189.888C251.648 190.794 249.302 191.262 246.933 191.264H73.0669C70.6979 191.262 68.3524 190.794 66.1652 189.888C63.9779 188.981 61.9919 187.653 60.3209 185.98L60.304 185.963C58.6245 184.299 57.2915 182.32 56.3813 180.142C55.4711 177.963 55.0017 175.626 55 173.267V145.997C55.0017 143.637 55.4712 141.301 56.3813 139.122C57.2915 136.943 58.6245 134.965 60.304 133.3V133.283C61.9775 131.609 63.9664 130.281 66.1566 129.374C68.3468 128.467 70.6951 128 73.0669 128ZM246.933 136.727H73.0669C71.8456 136.728 70.6366 136.969 69.5092 137.437C68.3818 137.905 67.3581 138.59 66.4969 139.452L66.4889 139.444C65.6242 140.304 64.9382 141.326 64.47 142.45C64.0019 143.574 63.7608 144.78 63.7605 145.997V173.267C63.7629 175.724 64.7441 178.081 66.4889 179.819C68.2337 181.557 70.5994 182.535 73.0669 182.537H246.933C248.155 182.537 249.365 182.297 250.494 181.83C251.622 181.364 252.648 180.681 253.511 179.819L253.503 179.811C254.369 178.953 255.057 177.934 255.526 176.811C255.996 175.687 256.238 174.483 256.239 173.267V145.997C256.23 143.541 255.246 141.189 253.503 139.452C251.76 137.716 249.398 136.736 246.933 136.727Z" fill="#3C1F1B"/>
<path d="M127.063 168H124.539L130.21 152.24H132.957L138.629 168H136.105L131.649 155.103H131.526L127.063 168ZM127.486 161.828H135.674V163.829H127.486V161.828ZM151.039 152.24H153.425V162.606C153.425 163.709 153.166 164.686 152.648 165.537C152.13 166.384 151.401 167.051 150.462 167.538C149.523 168.021 148.423 168.262 147.161 168.262C145.904 168.262 144.806 168.021 143.867 167.538C142.929 167.051 142.2 166.384 141.682 165.537C141.164 164.686 140.905 163.709 140.905 162.606V152.24H143.283V162.413C143.283 163.126 143.439 163.76 143.752 164.314C144.07 164.868 144.519 165.304 145.099 165.622C145.678 165.935 146.366 166.092 147.161 166.092C147.961 166.092 148.651 165.935 149.231 165.622C149.816 165.304 150.262 164.868 150.57 164.314C150.883 163.76 151.039 163.126 151.039 162.413V152.24ZM157.198 168L164.077 154.395V154.279H156.12V152.24H166.54V154.349L159.683 168H157.198ZM174.206 168.215C173.242 168.215 172.375 168.031 171.605 167.661C170.841 167.287 170.23 166.774 169.774 166.122C169.317 165.471 169.073 164.727 169.043 163.891H171.351C171.408 164.568 171.708 165.125 172.252 165.561C172.795 165.997 173.447 166.215 174.206 166.215C174.812 166.215 175.348 166.076 175.814 165.799C176.286 165.517 176.656 165.13 176.923 164.637C177.194 164.145 177.33 163.583 177.33 162.952C177.33 162.311 177.192 161.739 176.915 161.236C176.638 160.733 176.256 160.338 175.768 160.051C175.286 159.763 174.732 159.617 174.106 159.612C173.629 159.612 173.149 159.694 172.667 159.858C172.185 160.023 171.795 160.238 171.497 160.505L169.32 160.182L170.205 152.24H178.87V154.279H172.182L171.682 158.689H171.774C172.082 158.391 172.49 158.142 172.998 157.942C173.511 157.742 174.06 157.642 174.645 157.642C175.604 157.642 176.458 157.87 177.207 158.327C177.961 158.784 178.554 159.407 178.985 160.197C179.421 160.982 179.636 161.885 179.631 162.906C179.636 163.927 179.406 164.837 178.939 165.638C178.477 166.438 177.836 167.069 177.015 167.531C176.199 167.987 175.263 168.215 174.206 168.215ZM187.929 168.262C186.713 168.257 185.674 167.936 184.812 167.3C183.95 166.664 183.291 165.738 182.835 164.522C182.378 163.306 182.15 161.841 182.15 160.128C182.15 158.419 182.378 156.96 182.835 155.749C183.296 154.538 183.958 153.615 184.82 152.979C185.687 152.343 186.723 152.025 187.929 152.025C189.134 152.025 190.168 152.345 191.03 152.986C191.892 153.623 192.551 154.546 193.008 155.757C193.469 156.962 193.7 158.419 193.7 160.128C193.7 161.846 193.472 163.314 193.015 164.529C192.559 165.74 191.9 166.666 191.038 167.307C190.176 167.944 189.14 168.262 187.929 168.262ZM187.929 166.207C188.996 166.207 189.83 165.686 190.43 164.645C191.035 163.603 191.338 162.098 191.338 160.128C191.338 158.819 191.199 157.714 190.922 156.811C190.65 155.903 190.258 155.216 189.745 154.749C189.237 154.277 188.632 154.041 187.929 154.041C186.867 154.041 186.033 154.564 185.428 155.611C184.822 156.657 184.517 158.163 184.512 160.128C184.512 161.441 184.648 162.552 184.92 163.46C185.197 164.363 185.589 165.048 186.097 165.514C186.605 165.976 187.216 166.207 187.929 166.207Z" fill="#3C1F1B"/>
</g>
<g style="mix-blend-mode:hue">
<rect width="320" height="320" fill="#00BF13"/>
</g>
</g>
<defs>
<clipPath id="clip0_1431_160">
<rect width="320" height="320" fill="white"/>
</clipPath>
<clipPath id="clip1_1431_160">
<rect width="210" height="63.2636" fill="white" transform="translate(55 128)"/>
</clipPath>
</defs>
</svg>
