<svg width="320" height="320" viewBox="0 0 320 320" fill="none" xmlns="http://www.w3.org/2000/svg">
<rect width="320" height="320" fill="#F2F2EA"/>
<g clip-path="url(#clip0_1495_374)">
<path fill-rule="evenodd" clip-rule="evenodd" d="M144.045 87.6657C140.986 57.8233 134.598 28.418 125 0L194 0C180.488 29.3428 171.791 58.5492 166.154 87.6657H144.045Z" fill="#DCCDB3"/>
<path fill-rule="evenodd" clip-rule="evenodd" d="M144.344 149.207C144.343 145.599 143.984 145.871 146.164 146.018L146.184 155.69L149.104 155.799L149.126 157.261L144.345 157.29L144.344 149.207ZM151.215 146.131C149.094 147.057 149.718 150.554 149.711 153.048C149.708 154.374 149.599 155.658 150.325 156.578C150.763 157.017 151.325 157.312 151.934 157.423C152.544 157.534 153.173 157.456 153.737 157.2C155.776 156.301 155.121 152.486 155.127 150.218C155.13 148.891 155.203 147.543 154.521 146.722C154.096 146.298 153.551 146.014 152.96 145.908C152.369 145.803 151.76 145.88 151.215 146.131ZM162.363 149.409C162.363 147.243 162.888 145.853 165.153 145.896C167.349 145.939 167.789 147.427 167.79 149.409C167.79 153.456 168.541 157.516 164.943 157.429C161.619 157.35 162.363 153.498 162.363 149.409ZM156.046 149.612C156.045 147.325 156.42 145.785 158.896 145.898C161.037 145.996 161.549 147.634 161.286 149.816L159.719 149.818C159.586 148.779 159.895 147.652 158.868 147.542C157.626 147.411 157.839 148.706 157.835 149.612C157.708 151.655 157.794 153.706 158.089 155.732L159.415 155.596C159.593 155.104 159.672 154.582 159.645 154.059C159.641 150.819 158.747 154.578 158.865 151.018L161.335 151.03C161.407 154.101 161.85 157.439 158.689 157.431C155.317 157.422 156.048 153.436 156.046 149.612ZM164.053 105.06C167.023 106.213 166.553 109.92 166.553 113.017C166.552 116.453 166.552 119.891 166.552 123.329C166.552 126.776 167.154 130.42 165.108 132.38C163.1 134.302 159.169 133.702 156.065 133.701C152.752 133.699 148.928 134.289 146.983 132.219C145.161 130.28 145.697 126.369 145.698 123.125C145.699 121.022 145.471 109.275 145.925 107.755C146.5 105.83 147.627 105.808 148.118 104.728L148.118 102.822C143.481 102.818 141.457 102.938 141.474 107.963L141.475 165.584C141.474 175.337 142.064 173.653 156.266 173.654C170.449 173.654 170.877 175.404 170.879 165.179V119.082C170.874 104.181 172.384 102.816 164.047 102.823L164.053 105.06Z" fill="#E5E4E1"/>
<path fill-rule="evenodd" clip-rule="evenodd" d="M151.654 79.3989C149.43 80.1776 148.997 81.751 149.006 84.3072C149.019 88.4193 148.837 120.638 149.06 122.285C149.188 123.239 149.664 124.111 150.396 124.734C151.129 125.358 152.066 125.687 153.027 125.658C164.377 125.95 163.174 125.849 163.176 113.017V90.3728C163.176 85.1144 164.487 79.3062 159.103 79.1483C157.408 79.0982 152.977 78.9357 151.654 79.3989Z" fill="#E5E4E1"/>
<path fill-rule="evenodd" clip-rule="evenodd" d="M151.018 132.832C145.608 132.832 146.54 128.211 146.573 123.491L148.594 123.803C149.573 125.631 150.881 126.511 153.44 126.511C157.778 126.511 162.101 127.271 163.57 123.759L165.686 123.542C165.686 134.131 166.274 132.832 151.018 132.832ZM151.654 79.3989C149.43 80.1776 148.998 81.751 149.006 84.3073C149.019 88.4193 148.837 120.639 149.06 122.285C149.188 123.239 149.664 124.111 150.397 124.734C151.129 125.358 152.066 125.687 153.027 125.658C164.377 125.95 163.174 125.849 163.176 113.017V90.3728C163.177 85.1144 164.487 79.3062 159.103 79.1483C157.409 79.0982 152.977 78.9357 151.654 79.3989ZM164.114 106.154C166.307 107.383 165.682 111.446 165.682 114.432V119.487C165.683 121.949 166.396 122.611 164.046 122.771L164.114 106.154ZM146.569 109.782C146.57 108.195 146.956 106.73 148.132 106.237L148.172 122.715C147.063 122.756 146.569 122.831 146.569 121.711L146.568 111.197L146.569 109.782ZM164.048 102.823L164.054 105.06C167.024 106.213 166.554 109.92 166.553 113.017C166.552 116.453 166.552 119.891 166.552 123.329C166.552 126.776 167.155 130.421 165.109 132.38C163.1 134.302 159.17 133.702 156.065 133.701C152.753 133.699 148.928 134.289 146.984 132.219C145.161 130.28 145.698 126.369 145.699 123.125C145.699 121.022 145.471 109.275 145.925 107.755C146.501 105.83 147.627 105.808 148.119 104.728L148.118 102.822C143.481 102.818 141.457 102.938 141.474 107.963L141.476 165.584C141.474 175.337 142.064 173.653 156.267 173.654C170.449 173.654 170.877 175.404 170.88 165.179V119.082C170.875 104.181 172.384 102.816 164.048 102.823ZM141.487 103.846C138.425 101.937 136.063 96.3222 138.399 91.7012C139.348 89.8414 140.747 88.2491 142.468 87.0695C143.641 86.2072 146.621 84.4159 148.118 84.3532C148.192 87.0119 148.291 100.12 148.042 101.94C144.335 102.224 143.66 101.446 141.487 103.846ZM164.079 84.0488C168.26 84.8045 172.883 88.3409 174.541 91.7018C177.121 96.9297 174.247 101.849 171.208 104.112C170.898 103.941 171.137 104.103 170.863 103.862C168.404 101.702 168.904 101.952 164.05 101.952L164.079 84.0488ZM172.824 85.7465C171.332 85.6792 165.3 83.6326 164.111 82.965L163.489 79.9805C164.357 80.0389 173.017 82.3605 173.615 82.6906C173.657 83.765 173.382 84.828 172.824 85.7465ZM143.75 85.1281C143.053 85.7803 139.221 86.2402 137.868 86.5198C137.907 90.0148 139.113 88.0421 137.472 91.6085C134.168 98.7953 139.561 102.85 140.943 104.728C140.381 107.657 140.613 111.095 140.613 114.23C140.614 121.233 140.333 169.49 140.793 171.166C141.504 173.759 143.529 174.43 146.349 174.508C148.998 174.463 168.438 174.407 169.273 173.954C172.103 172.43 171.743 169.836 171.741 166.19C171.74 159.383 171.74 152.576 171.741 145.77C171.74 132.192 171.961 118.219 171.577 104.882C173.89 103.552 176.59 99.6192 176.401 95.2168C176.218 90.9952 173.267 88.2635 171.084 86.3243L173.429 86.8126C173.461 86.7605 173.49 86.7065 173.516 86.651L173.732 86.1789C173.801 85.9845 173.861 85.7868 173.91 85.5864C174.045 85.1011 174.122 84.8007 174.253 84.3218C174.547 83.5895 174.707 82.81 174.725 82.0209L168.556 80.3715C167.489 80.0395 166.37 79.7491 165.366 79.4608C162.163 78.5404 163.669 79.1345 162.308 79.4432C160.714 77.7166 156.036 78.2268 153.234 78.2782C149.879 78.3395 148.452 80.1216 148.106 83.2273C147.135 83.7124 144.633 84.8077 143.75 85.1281Z" fill="#3C1F1B"/>
<path fill-rule="evenodd" clip-rule="evenodd" d="M164.05 101.952C168.903 101.952 168.404 101.702 170.862 103.862C171.137 104.103 170.898 103.941 171.208 104.112C174.247 101.849 177.12 96.9296 174.541 91.7017C172.882 88.3408 168.26 84.8044 164.079 84.0487L164.05 101.952Z" fill="#E5E4E1"/>
<path fill-rule="evenodd" clip-rule="evenodd" d="M141.486 103.846C143.66 101.446 144.334 102.224 148.042 101.939C148.29 100.12 148.192 87.0119 148.117 84.3532C146.62 84.4159 143.641 86.2072 142.467 87.0695C140.746 88.2493 139.347 89.8415 138.398 91.7012C136.063 96.3221 138.424 101.937 141.486 103.846Z" fill="#E5E4E1"/>
<path fill-rule="evenodd" clip-rule="evenodd" d="M151.017 132.832C166.273 132.832 165.685 134.131 165.685 123.542L163.569 123.759C162.101 127.271 157.777 126.511 153.44 126.511C150.88 126.511 149.573 125.631 148.594 123.803L146.572 123.491C146.539 128.211 145.608 132.832 151.017 132.832Z" fill="#F2F2EA"/>
<path fill-rule="evenodd" clip-rule="evenodd" d="M164.143 149.207C164.143 148.36 164.193 147.449 165.124 147.499C166.507 147.572 165.995 151.675 165.995 154.059C165.995 156.539 164.142 156.542 164.142 154.059L164.143 149.207ZM162.363 149.409C162.363 153.498 161.619 157.35 164.943 157.429C168.541 157.516 167.789 153.456 167.789 149.409C167.789 147.427 167.348 145.939 165.153 145.896C162.888 145.853 162.363 147.243 162.363 149.409Z" fill="#3C1F1B"/>
<path fill-rule="evenodd" clip-rule="evenodd" d="M151.825 147.679C153.939 147.105 153.337 149.515 153.336 151.229C153.336 152.408 153.79 155.412 152.721 155.776C151.095 156.33 151.488 153.361 151.488 152.24C151.489 150.795 151.203 148.816 151.825 147.679ZM151.215 146.131C149.095 147.057 149.718 150.554 149.712 153.048C149.709 154.374 149.599 155.658 150.326 156.578C150.764 157.017 151.325 157.312 151.935 157.423C152.544 157.534 153.173 157.456 153.738 157.2C155.776 156.301 155.122 152.486 155.127 150.218C155.13 148.891 155.203 147.543 154.522 146.722C154.096 146.298 153.552 146.014 152.961 145.908C152.37 145.803 151.761 145.88 151.215 146.131Z" fill="#3C1F1B"/>
<path fill-rule="evenodd" clip-rule="evenodd" d="M156.046 149.612C156.048 153.436 155.317 157.422 158.689 157.431C161.849 157.439 161.406 154.101 161.335 151.03L158.864 151.018C158.746 154.578 159.64 150.819 159.645 154.059C159.671 154.582 159.593 155.104 159.415 155.596L158.089 155.732C157.793 153.706 157.708 151.655 157.835 149.612C157.839 148.707 157.626 147.411 158.868 147.542C159.894 147.652 159.585 148.779 159.718 149.818L161.285 149.816C161.549 147.634 161.037 145.996 158.896 145.898C156.419 145.786 156.045 147.325 156.046 149.612Z" fill="#3C1F1B"/>
<path fill-rule="evenodd" clip-rule="evenodd" d="M164.045 122.771C166.396 122.611 165.682 121.949 165.681 119.487V114.432C165.681 111.446 166.306 107.383 164.113 106.154L164.045 122.771Z" fill="#E5E4E1"/>
<path fill-rule="evenodd" clip-rule="evenodd" d="M144.344 149.207L144.345 157.29L149.126 157.261L149.103 155.799L146.184 155.69L146.163 146.018C143.983 145.871 144.343 145.599 144.344 149.207Z" fill="#3C1F1B"/>
<path fill-rule="evenodd" clip-rule="evenodd" d="M146.568 109.783L146.567 111.197L146.568 121.711C146.568 122.831 147.063 122.756 148.171 122.715L148.131 106.237C146.955 106.73 146.569 108.195 146.568 109.783Z" fill="#E5E4E1"/>
<path fill-rule="evenodd" clip-rule="evenodd" d="M151.825 147.679C151.202 148.816 151.489 150.795 151.488 152.24C151.488 153.361 151.094 156.33 152.72 155.776C153.79 155.412 153.336 152.408 153.336 151.229C153.336 149.515 153.939 147.105 151.825 147.679Z" fill="#E5E4E1"/>
<path fill-rule="evenodd" clip-rule="evenodd" d="M164.143 149.207L164.143 154.059C164.143 156.542 165.996 156.539 165.995 154.059C165.995 151.675 166.508 147.572 165.125 147.499C164.194 147.449 164.143 148.36 164.143 149.207Z" fill="#E5E4E1"/>
<path d="M157.665 174.271H146.05V178.458H157.665V174.271Z" fill="#E5E4E1"/>
<path fill-rule="evenodd" clip-rule="evenodd" d="M146.05 173.947H157.989V178.783H145.726V173.947H146.05ZM157.34 174.597H146.375V178.133H157.34V174.597Z" fill="#3C1F1B"/>
<path d="M166.321 179.335H154.707V183.522H166.321V179.335Z" fill="#E5E4E1"/>
<path fill-rule="evenodd" clip-rule="evenodd" d="M155.031 183.197H165.996V179.66H155.031V183.197ZM166.32 183.847H154.382V179.01H166.645V183.847H166.32Z" fill="#3C1F1B"/>
<path d="M157.545 184.743H145.93V188.929H157.545V184.743Z" fill="#E5E4E1"/>
<path fill-rule="evenodd" clip-rule="evenodd" d="M146.256 188.604H157.22V185.068H146.256V188.604ZM157.545 189.254H145.606V184.418H157.87V189.254H157.545Z" fill="#3C1F1B"/>
<path d="M166.078 190.02H154.464V194.206H166.078V190.02Z" fill="#E5E4E1"/>
<path fill-rule="evenodd" clip-rule="evenodd" d="M154.789 193.881H165.754V190.345H154.789V193.881ZM166.078 194.531H154.14V189.695H166.403V194.531H166.078Z" fill="#3C1F1B"/>
<path d="M157.648 195.479H146.033V199.665H157.648V195.479Z" fill="#E5E4E1"/>
<path fill-rule="evenodd" clip-rule="evenodd" d="M146.358 199.34H157.323V195.804H146.358V199.34ZM157.648 199.99H145.709V195.154H157.972V199.99H157.648Z" fill="#3C1F1B"/>
<path d="M166.593 200.633H154.979V204.82H166.593V200.633Z" fill="#E5E4E1"/>
<path fill-rule="evenodd" clip-rule="evenodd" d="M155.303 204.495H166.268V200.958H155.303V204.495ZM166.593 205.145H154.654V200.308H166.917V205.145H166.593Z" fill="#3C1F1B"/>
<path d="M157.733 205.788H146.118V209.974H157.733V205.788Z" fill="#E5E4E1"/>
<path fill-rule="evenodd" clip-rule="evenodd" d="M146.443 209.649H157.408V206.113H146.443V209.649ZM157.732 210.299H145.794V205.463H158.057V210.299H157.732Z" fill="#3C1F1B"/>
<path d="M165.918 211.45H154.304V215.636H165.918V211.45Z" fill="#E5E4E1"/>
<path fill-rule="evenodd" clip-rule="evenodd" d="M154.628 215.311H165.593V211.775H154.628V215.311ZM165.917 215.961H153.979V211.125H166.242V215.961H165.917Z" fill="#3C1F1B"/>
<path d="M157.732 216.772H146.117V220.959H157.732V216.772Z" fill="#E5E4E1"/>
<path fill-rule="evenodd" clip-rule="evenodd" d="M146.442 220.634H157.407V217.097H146.442V220.634ZM157.732 221.284H145.793V216.448H158.056V221.284L157.732 221.284Z" fill="#3C1F1B"/>
<path d="M166.17 222.011H154.556V226.198H166.17V222.011Z" fill="#E5E4E1"/>
<path fill-rule="evenodd" clip-rule="evenodd" d="M154.881 225.873H165.845V222.336H154.881V225.873ZM166.17 226.523H154.231V221.686H166.495V226.523H166.17Z" fill="#3C1F1B"/>
<path d="M157.689 227.419H146.074V231.605H157.689V227.419Z" fill="#E5E4E1"/>
<path fill-rule="evenodd" clip-rule="evenodd" d="M146.399 231.28H157.364V227.744H146.399V231.28ZM157.689 231.93H145.75V227.094H158.013V231.93H157.689Z" fill="#3C1F1B"/>
<path d="M166.297 232.489H154.683V236.675H166.297V232.489Z" fill="#E5E4E1"/>
<path fill-rule="evenodd" clip-rule="evenodd" d="M155.008 236.35H165.972V232.814H155.008V236.35ZM166.297 237H154.358V232.164H166.622V237H166.297Z" fill="#3C1F1B"/>
<path d="M180.111 17.686L179.021 21.7274L190.233 24.76L191.323 20.7186L180.111 17.686Z" fill="#E5E4E1"/>
<path fill-rule="evenodd" clip-rule="evenodd" d="M179.418 21.499L190.005 24.3624L190.926 20.9471L180.339 18.0837L179.418 21.499ZM190.149 25.0737L178.624 21.9565L179.882 17.288L191.72 20.4904L190.462 25.1586L190.149 25.0737Z" fill="#3C1F1B"/>
<path d="M177.327 27.8252L176.236 31.8666L187.449 34.8995L188.539 30.8581L177.327 27.8252Z" fill="#E5E4E1"/>
<path fill-rule="evenodd" clip-rule="evenodd" d="M176.633 31.6384L187.22 34.5018L188.141 31.0866L177.554 28.2229L176.633 31.6384ZM187.365 35.2129L175.84 32.0959L177.098 27.4274L188.936 30.6296L187.677 35.2981L187.365 35.2129Z" fill="#3C1F1B"/>
<path d="M174.541 37.9647L173.451 42.006L184.663 45.0387L185.754 40.9973L174.541 37.9647Z" fill="#E5E4E1"/>
<path fill-rule="evenodd" clip-rule="evenodd" d="M173.849 41.7777L184.435 44.641L185.356 41.2258L174.769 38.3624L173.849 41.7777ZM184.58 45.3524L173.055 42.2351L174.313 37.5667L186.151 40.7691L184.892 45.4374L184.58 45.3524Z" fill="#3C1F1B"/>
<path d="M171.757 48.1039L170.667 52.1453L181.879 55.1782L182.97 51.1369L171.757 48.1039Z" fill="#E5E4E1"/>
<path fill-rule="evenodd" clip-rule="evenodd" d="M171.064 51.9171L181.651 54.7805L182.572 51.3653L171.985 48.5016L171.064 51.9171ZM181.796 55.4916L170.271 52.3746L171.529 47.7061L183.366 50.9083L182.108 55.5768L181.796 55.4916Z" fill="#3C1F1B"/>
<path d="M168.972 58.2433L167.882 62.2847L179.094 65.3176L180.184 61.2762L168.972 58.2433Z" fill="#E5E4E1"/>
<path fill-rule="evenodd" clip-rule="evenodd" d="M168.28 62.0563L178.867 64.9197L179.788 61.5044L169.201 58.641L168.28 62.0563ZM179.012 65.6311L167.486 62.5138L168.745 57.8456L180.582 61.0478L179.324 65.7163L179.012 65.6311Z" fill="#3C1F1B"/>
<path d="M166.188 68.3826L165.098 72.424L176.31 75.4569L177.4 71.4155L166.188 68.3826Z" fill="#E5E4E1"/>
<path fill-rule="evenodd" clip-rule="evenodd" d="M165.495 72.1958L176.082 75.0592L177.003 71.6439L166.416 68.7803L165.495 72.1958ZM176.226 75.7703L164.701 72.6533L165.96 67.9848L177.797 71.187L176.539 75.8555L176.226 75.7703Z" fill="#3C1F1B"/>
<path fill-rule="evenodd" clip-rule="evenodd" d="M164.098 82.9659C165.287 83.6326 171.319 85.6792 172.811 85.7457C173.37 84.8276 173.645 83.7648 173.602 82.6906C173.004 82.3605 164.344 80.0389 163.477 79.9805L164.098 82.9659Z" fill="#E5E4E1"/>
<path d="M137.776 21.8913L126.369 24.0749L127.154 28.187L138.562 26.0034L137.776 21.8913Z" fill="#E5E4E1"/>
<path fill-rule="evenodd" clip-rule="evenodd" d="M138.623 26.3216L126.898 28.5663L125.991 23.8183L138.034 21.5128L138.941 26.261L138.623 26.3216ZM127.412 27.8084L138.184 25.7459L137.52 22.2701L126.748 24.3326L127.412 27.8084Z" fill="#3C1F1B"/>
<path d="M139.796 32.2108L128.389 34.3953L129.174 38.5073L140.582 36.3229L139.796 32.2108Z" fill="#E5E4E1"/>
<path fill-rule="evenodd" clip-rule="evenodd" d="M140.642 36.6408L128.918 38.8866L128.011 34.1384L140.054 31.8323L140.961 36.5803L140.642 36.6408ZM129.431 38.1285L140.203 36.0652L139.539 32.5894L128.767 34.6527L129.431 38.1285Z" fill="#3C1F1B"/>
<path d="M141.815 42.5305L130.407 44.7147L131.192 48.8266L142.6 46.6424L141.815 42.5305Z" fill="#E5E4E1"/>
<path fill-rule="evenodd" clip-rule="evenodd" d="M142.66 46.9604L130.936 49.206L130.029 44.458L142.072 42.1516L142.978 46.8999L142.66 46.9604ZM131.449 48.4481L142.221 46.3847L141.558 42.9089L130.786 44.9722L131.449 48.4481Z" fill="#3C1F1B"/>
<path d="M143.833 52.8497L132.426 55.0342L133.211 59.1462L144.618 56.9617L143.833 52.8497Z" fill="#E5E4E1"/>
<path fill-rule="evenodd" clip-rule="evenodd" d="M144.679 57.2799L132.955 59.5255L132.048 54.7773L144.09 52.4711L144.997 57.2194L144.679 57.2799ZM133.469 58.7676L144.241 56.7043L143.576 53.2285L132.804 55.2918L133.469 58.7676Z" fill="#3C1F1B"/>
<path d="M145.853 63.1696L134.445 65.3533L135.23 69.4657L146.638 67.2821L145.853 63.1696Z" fill="#E5E4E1"/>
<path fill-rule="evenodd" clip-rule="evenodd" d="M146.699 67.6001L134.974 69.8451L134.067 65.0968L146.11 62.7907L147.017 67.5395L146.699 67.6001ZM135.488 69.0869L146.26 67.0244L145.596 63.5478L134.823 65.6111L135.488 69.0869Z" fill="#3C1F1B"/>
<path d="M147.872 73.4893L136.465 75.673L137.25 79.785L148.657 77.6014L147.872 73.4893Z" fill="#E5E4E1"/>
<path fill-rule="evenodd" clip-rule="evenodd" d="M148.718 77.9196L136.994 80.1644L136.087 75.4164L148.129 73.1108L149.037 77.8591L148.718 77.9196ZM137.508 79.4065L148.28 77.344L147.615 73.8682L136.843 75.9307L137.508 79.4065Z" fill="#3C1F1B"/>
</g>
<defs>
<clipPath id="clip0_1495_374">
<rect width="69" height="237" fill="white" transform="translate(125)"/>
</clipPath>
</defs>
</svg>
