<svg width="320" height="320" viewBox="0 0 320 320" fill="none" xmlns="http://www.w3.org/2000/svg">
<g clip-path="url(#clip0_1431_167)">
<rect width="320" height="320" fill="#DCFFE0"/>
<g clip-path="url(#clip1_1431_167)">
<path d="M265.716 101.712C264.63 99.8027 263.398 97.9803 262.031 96.2611C259.651 93.1523 256.896 90.3497 253.828 87.9172C252.943 87.2113 251.973 86.619 250.94 86.1539C244.422 83.1099 237.414 81.2534 230.244 80.6717C218.661 79.6535 207.042 82.1832 196.931 87.9249C185.302 94.4664 176.191 104.705 171.043 117.015C170.424 118.435 169.898 119.896 169.328 121.339C169.115 121.483 169.289 121.761 169.126 121.923L169.127 121.92C168.926 122.072 169.093 122.344 168.935 122.511C167.559 126.823 166.611 131.261 166.104 135.759C166.09 135.888 166.076 136.017 166.053 136.144C165.884 137.024 166.067 137.937 166.564 138.683C167.761 140.636 168.763 142.709 169.841 144.734C172.621 149.954 175.4 155.175 178.179 160.395C178.294 160.694 178.468 160.966 178.692 161.194C179.038 161.052 179.056 160.728 179.156 160.472C183.125 150.226 187.05 139.963 191.07 129.738C192.61 125.358 195.708 121.697 199.773 119.453C203.086 117.714 206.849 117.023 210.564 117.47C214.279 117.917 217.77 119.481 220.577 121.956C223.384 124.43 225.373 127.699 226.282 131.328C227.19 134.958 226.976 138.778 225.666 142.283C219.834 157.905 214.181 173.592 208.435 189.246C205.507 197.224 202.58 205.203 199.654 213.183C199.561 213.385 199.513 213.606 199.514 213.829C199.515 214.052 199.565 214.272 199.66 214.473C200.848 217.02 201.073 219.91 200.293 222.61C199.804 224.491 199.019 226.282 197.967 227.916C197.727 228.298 197.533 228.707 197.389 229.134C196.583 231.732 195.37 234.186 193.796 236.404C191.814 239.101 189.062 241.135 185.902 242.238C174.983 246.056 164.105 249.994 153.213 253.888C140.677 258.37 128.141 262.854 115.607 267.34C114.665 267.677 113.734 268.045 112.803 268.41C111.566 268.898 110.452 269.654 109.541 270.623C103.627 276.817 97.7092 283.009 91.7888 289.197C91.6312 289.329 91.5185 289.506 91.4663 289.705C91.4142 289.903 91.4252 290.113 91.4979 290.305C93.7604 297.908 94.7843 305.825 94.5302 313.753C94.4852 315.821 94.3285 317.885 94.0609 319.935H91.9276C91.4321 319.04 91.7789 318.093 91.837 317.192C92.2261 311.886 92.0591 306.553 91.3388 301.281C90.2595 293.895 88.06 286.717 84.816 279.995C84.7485 279.818 84.6964 279.634 84.6463 279.452C84.6054 279.375 84.571 279.293 84.5363 279.213C84.4581 279.056 84.3676 278.905 84.2656 278.763C83.7013 277.895 83.2556 276.955 82.9404 275.969C83.1967 274.925 83.8466 274.585 84.9974 274.888C85.4016 275.214 85.7072 275.646 85.8802 276.135C87.5327 279.247 88.9854 282.462 90.2295 285.758C90.5982 286.789 90.6171 286.766 91.3755 286.025C95.2821 282.209 98.9056 278.119 102.725 274.217C104.211 272.698 105.735 271.2 107.096 269.551C108.958 267.297 111.536 266.179 114.204 265.216C122.319 262.286 130.44 259.375 138.568 256.483C147.301 253.364 156.043 250.266 164.77 247.129C171.642 244.659 178.56 242.315 185.382 239.708C188.681 238.588 191.413 236.225 192.997 233.122C188.696 235.108 184.076 236.271 179.574 237.769C175.436 239.146 171.273 240.446 167.125 241.795C164.176 242.754 161.216 243.685 158.264 244.637C153.498 246.173 148.725 247.687 143.958 249.219C135.745 251.859 127.532 254.5 119.319 257.142C113.876 258.891 108.463 260.756 102.991 262.398C97.7635 263.967 93.438 266.87 89.3402 270.289C88.0717 271.39 86.7415 272.417 85.356 273.366C84.2935 273.821 83.7242 274.915 82.7018 275.422C82.6383 275.487 82.5738 275.55 82.512 275.617C82.4507 275.687 82.3858 275.753 82.3175 275.816C78.354 279.129 74.2658 282.285 70.2354 285.514C67.7418 287.511 65.2362 289.495 62.7514 291.503C60.6865 293.171 59.5491 295.507 58.398 297.833C57.7998 299.016 57.6946 300.389 58.1054 301.65C58.8148 304.166 59.5231 306.683 60.1683 309.217C60.3101 309.647 60.3896 310.096 60.4044 310.548C60.4051 311.157 60.4241 311.786 59.7588 312.1C59.5442 312.207 59.2991 312.236 59.0654 312.182C58.8318 312.128 58.624 311.995 58.4777 311.805C58.3947 311.695 58.3259 311.575 58.273 311.448C58.2245 311.384 58.1784 311.316 58.131 311.252C58.0486 311.163 57.9343 311.11 57.8133 311.106C57.4498 311.09 57.0879 311.104 56.7249 311.103C56.4175 311.104 56.1113 311.104 55.8046 311.105C55.2112 311.094 54.6173 311.129 54.0257 311.069C53.6345 310.936 53.2212 310.881 52.809 310.907C52.5608 310.912 52.3127 310.894 52.0678 310.854C51.8467 310.774 51.6157 310.726 51.3814 310.709C51.1987 310.704 51.017 310.681 50.8391 310.64C50.5922 310.548 50.3303 310.504 50.0671 310.51C49.8954 310.507 49.7247 310.485 49.5583 310.442C49.4386 310.414 49.3212 310.376 49.2071 310.33C49.0937 310.3 48.9831 310.26 48.8734 310.219C48.7329 310.167 48.5884 310.126 48.4415 310.096C48.3318 310.076 48.2236 310.048 48.1176 310.014C48.0104 309.983 47.9057 309.946 47.7998 309.911C47.6913 309.881 47.5851 309.844 47.4793 309.806C47.3708 309.772 47.2645 309.732 47.1588 309.691C47.0181 309.638 46.8836 309.57 46.7579 309.487C46.6664 309.431 46.5781 309.37 46.4877 309.312C46.4256 309.28 46.3662 309.243 46.3067 309.207C46.2132 309.158 46.1198 309.11 46.0237 309.064C45.9532 309.037 45.8864 309.005 45.8186 308.973C45.7073 308.927 45.5994 308.876 45.4915 308.82C45.412 308.779 45.3372 308.731 45.2683 308.674C44.0811 307.73 43.0495 306.605 42.2111 305.341C39.9629 302.603 37.6993 299.878 35.4667 297.128C32.586 293.579 29.6863 290.046 26.7676 286.529C24.8187 284.171 22.8472 281.831 20.9227 279.454C19.9377 278.245 19.3699 276.751 19.3042 275.193C19.1504 271.344 19.9089 267.513 21.518 264.013C21.7647 263.559 21.932 263.066 22.0128 262.556C22.5461 260.551 23.6229 258.732 25.1246 257.3C28.4825 253.919 32.0265 250.729 35.4788 247.445C36.8787 246.114 38.3596 244.868 39.6983 243.472C40.0123 243.103 40.3843 242.788 40.7997 242.539C41.1859 242.382 41.5099 242.103 41.7218 241.744C42.314 241.041 43.0203 240.442 43.8111 239.973C44.5991 239.075 45.4598 238.243 46.3845 237.486C49.1546 235.188 50.837 232.151 52.3093 228.967C52.769 228.004 53.1431 227.002 53.4272 225.973C54.0579 223.835 54.891 221.761 55.9153 219.781C59.5389 212.2 63.1577 204.617 66.7717 197.032C66.8969 196.769 67.0139 196.503 67.1462 196.244C67.1847 196.192 67.2123 196.133 67.2271 196.07C67.2419 196.007 67.2436 195.942 67.2322 195.878C67.2207 195.814 67.1964 195.754 67.1606 195.7C67.1248 195.646 67.0784 195.6 67.0242 195.565C66.6671 195.235 66.3873 194.83 66.2048 194.379C59.4721 181.708 52.7397 169.037 46.0078 156.366C45.5378 155.482 45.0552 154.603 44.6177 153.702C44.5453 153.544 44.4339 153.407 44.294 153.304C44.1541 153.2 43.9903 153.134 43.8178 153.112C36.0136 151.297 28.2115 149.474 20.4113 147.642C19.0297 147.306 17.6253 147.072 16.2093 146.942C15.0501 146.788 13.9418 146.37 12.9694 145.72C10.4384 144.324 8.25352 142.377 6.57617 140.023C4.89881 137.669 3.77193 134.969 3.27881 132.121C2.49174 127.73 3.33861 123.204 5.65961 119.395C7.98061 115.587 11.6153 112.759 15.8778 111.446C17.5171 110.944 19.2135 110.652 20.9264 110.576C21.4764 110.545 22.0279 110.597 22.5621 110.732C25.6005 111.535 28.72 111.887 31.8091 112.402C40.3167 113.821 48.8277 115.219 57.3423 116.595C58.3319 116.757 59.306 116.984 60.2878 117.176C63.0862 117.796 65.6217 119.273 67.5409 121.402C68.8424 122.794 70.0647 124.259 71.2019 125.789C77.0232 133.257 82.8443 140.725 88.6653 148.192C89.5656 149.347 89.4984 149.349 90.1257 148.033C95.5085 136.745 100.889 125.455 106.266 114.164C106.751 113.144 107.189 112.102 107.649 111.07C109.737 105.977 112.102 101.002 114.732 96.1667C116.517 92.995 118.394 89.8834 120.411 86.8547C120.588 86.5864 120.782 86.3292 120.991 86.0846C122.594 83.8669 124.133 81.6021 125.845 79.4629C129.256 75.1723 132.922 71.0909 136.823 67.2409C137.134 67.0108 137.421 66.75 137.679 66.4626C137.736 66.3907 137.8 66.325 137.87 66.2665C139.169 65.0921 140.481 63.9311 141.743 62.7158C141.808 62.6524 141.879 62.5953 141.954 62.5453C143.096 61.6877 144.193 60.7716 145.24 59.8008C145.306 59.7374 145.377 59.6805 145.453 59.6309C147.056 58.5325 148.55 57.2908 150.092 56.1127C150.161 56.0542 150.238 56.0055 150.32 55.9678C151.695 55.0581 153.053 54.1247 154.396 53.1674C154.471 53.1129 154.553 53.067 154.638 53.0305C158.462 50.5804 162.406 48.3251 166.457 46.2731C167.863 45.5629 169.298 44.9052 170.733 44.2513C171.246 44.0569 171.734 43.8044 172.189 43.4987C182.385 39.252 192.859 36.0365 203.902 34.9255C205.906 34.6659 207.922 34.5101 209.942 34.4588C211.747 34.4575 213.533 34.193 215.342 34.2327C219.887 34.3323 224.424 34.4439 228.95 34.9818C231.835 35.3247 234.703 35.7154 237.542 36.3187C239.591 36.8967 241.597 37.6156 243.547 38.4706C245.969 39.3473 248.446 40.0786 250.802 41.1456C251.799 41.7359 252.839 42.2501 253.913 42.6838C255.703 43.3277 257.436 44.1203 259.093 45.0532C263.173 47.1407 267.089 49.5341 270.807 52.2129C273.619 54.2591 276.323 56.4492 278.909 58.7743C281.427 61.0415 283.816 63.4487 286.063 65.9844C299.158 80.7754 306.822 99.5859 307.794 119.316C308.123 126.273 307.635 133.245 306.34 140.088C304.586 149.297 301.41 158.177 296.928 166.41C291.903 175.71 285.34 184.091 277.516 191.199C275.849 192.905 274.02 194.444 272.053 195.793C268.635 197.996 264.538 198.893 260.512 198.32C258.16 198.053 255.968 196.998 254.293 195.325C252.754 193.7 251.667 191.702 251.137 189.528C250.462 186.805 250.081 184.018 250 181.215C249.836 178.288 249.518 175.372 249.482 172.436C249.469 171.309 249.518 170.181 249.48 169.06C249.439 168.135 249.617 167.214 250 166.37C250.382 165.527 250.959 164.786 251.682 164.208C253.118 162.911 254.471 161.525 255.732 160.058C257.339 158.468 258.818 156.753 260.155 154.931C261.573 152.925 262.873 150.838 264.048 148.681C264.192 148.36 264.365 148.053 264.565 147.763C265.502 146.196 265.662 144.317 266.557 142.742C267.542 140.891 268.279 138.919 268.751 136.876C270.322 131.06 270.907 125.021 270.481 119.012C270.111 114.041 269.031 109.149 267.273 104.485C266.891 103.471 266.177 102.668 265.716 101.712Z" fill="#3C1F1B"/>
<path d="M83.1983 276.107L84.5713 278.807C84.6722 278.919 84.628 279.103 84.7626 279.198C84.8636 279.311 84.8224 279.492 84.9528 279.591C86.875 283.458 88.4403 287.493 89.6291 291.645C90.4004 294.27 91.0046 296.942 91.4381 299.643C91.87 302.248 92.1692 304.874 92.3345 307.509C92.426 309.214 92.4122 310.924 92.4028 312.621C92.4143 315.003 92.256 317.383 91.929 319.742C91.9238 319.806 91.9233 319.871 91.9275 319.935H61.0912C60.8194 319.575 60.6929 319.125 60.7367 318.676C60.6685 316.917 60.5002 315.165 60.2328 313.425C60.1235 312.423 60.2987 311.41 60.1339 310.409C59.4601 307.853 58.7865 305.298 58.1131 302.742C58.0759 302.519 58.0207 302.3 57.948 302.087C57.6149 301.319 57.4739 300.481 57.5372 299.646C57.6006 298.811 57.8665 298.004 58.3117 297.295C59.219 295.256 60.4652 293.386 61.9975 291.763C62.9862 290.842 64.0931 290.047 65.1524 289.202C70.2497 285.137 75.3477 281.072 80.4463 277.009C81.0507 276.527 81.6379 276.023 82.2331 275.529C82.2921 275.454 82.3634 275.39 82.4439 275.339L82.4337 275.352C83.1984 275.088 82.9429 275.856 83.1983 276.107Z" fill="#E5E4E1"/>
<path d="M40.9263 242.746C39.5573 244.018 38.1816 245.283 36.8204 246.564C33.1328 250.033 29.4265 253.483 25.7789 256.994C24.1567 258.485 22.9519 260.373 22.2838 262.473C21.5209 264.246 20.8536 266.058 20.2847 267.902C20.048 268.693 19.4974 268.567 18.9706 268.432C17.0543 267.971 15.1141 267.617 13.1588 267.371C9.25091 266.846 5.29357 266.801 1.3747 267.236C1.142 267.304 0.896602 267.317 0.657979 267.274C0.419356 267.231 0.194072 267.133 0 266.987L0 238.671C0.112571 238.493 0.267701 238.346 0.451373 238.243C0.635044 238.14 0.84147 238.084 1.052 238.081C3.68953 237.617 6.35152 237.305 9.02485 237.146C10.9263 237.022 12.8259 236.967 14.7309 236.955C23.2694 236.908 31.7608 238.223 39.885 240.851C40.1292 240.925 40.3482 241.065 40.5952 241.133C40.6872 241.157 40.7772 241.188 40.8644 241.226C42.0045 241.758 42.0089 241.868 40.9263 242.746Z" fill="#E5E4E1"/>
<path d="M40.1011 241.217C38.1271 240.741 36.2058 240.078 34.2276 239.61C30.4022 238.705 26.5208 238.054 22.6091 237.663C18.822 237.284 15.0121 237.186 11.2105 237.369C8.76159 237.437 6.31886 237.651 3.89543 238.01C2.59736 238.229 1.27772 238.323 0 238.671V236.343C1.53348 236.136 3.06493 235.913 4.6008 235.725C9.85729 235.095 15.161 234.956 20.4433 235.309C26.5322 235.71 32.559 236.775 38.4164 238.486C38.9528 238.597 39.4723 238.777 39.9613 239.024C40.551 239.437 41.2951 239.405 41.9248 239.71C42.7413 240.105 42.7934 240.422 42.1005 241.017C41.935 241.214 41.7137 241.357 41.4657 241.426C41.2177 241.494 40.9547 241.487 40.7113 241.403L40.7199 241.408C40.5603 241.193 40.2852 241.352 40.1011 241.217Z" fill="#3C1F1B"/>
<path d="M0 266.987C1.09347 266.971 2.18506 266.89 3.26925 266.747C5.77376 266.556 8.28957 266.564 10.7928 266.772C13.4881 266.983 16.1621 267.411 18.789 268.051C19.0108 268.09 19.23 268.144 19.4452 268.211C19.9047 268.389 20.0869 268.167 20.2094 267.762C20.5899 266.464 21.0403 265.187 21.5585 263.936C21.731 263.417 21.9752 262.925 22.2838 262.473C22.2672 263.056 22.0919 263.623 21.7769 264.114C20.9302 266.031 20.2999 268.036 19.8976 270.092C19.4722 272.21 19.4309 274.388 19.7754 276.521C19.9656 277.474 20.3838 278.366 20.9941 279.122C22.6667 281.281 24.4383 283.362 26.1865 285.459C27.6471 287.211 29.0807 288.988 30.5785 290.711C31.9264 292.261 33.1559 293.914 34.4597 295.504C35.8047 297.144 37.2277 298.723 38.5213 300.401C39.7776 302.032 41.2079 303.516 42.4132 305.188C43.0504 306.072 43.8173 306.862 44.4999 307.715C44.808 308.101 45.3098 308.25 45.5763 308.67C45.5681 308.694 45.5536 308.716 45.5343 308.732C45.515 308.748 45.4916 308.759 45.4667 308.763C45.4417 308.767 45.4161 308.765 45.3926 308.755C45.3691 308.746 45.3485 308.731 45.3331 308.711C44.83 308.486 44.3973 308.129 44.0809 307.678C36.4388 298.401 28.794 289.126 21.1464 279.854C19.9616 278.426 19.2815 276.647 19.2118 274.793C19.1569 273.695 19.2082 272.594 19.3649 271.506C19.5184 270.392 19.5034 270.378 18.3755 270.102C13.3155 268.85 8.08541 268.431 2.8906 268.86C1.93305 269.004 0.967826 269.091 0 269.121L0 266.987Z" fill="#3C1F1B"/>
<path d="M60.5225 313.343C60.7408 313.914 60.8499 314.521 60.8439 315.132C60.9287 316.733 61.159 318.327 61.0909 319.935H59.3454C59.1053 319.511 59.0126 319.02 59.0819 318.537C59.0263 316.771 58.8696 315.009 58.6124 313.26C58.5676 313.08 58.5724 312.892 58.6263 312.715C58.6802 312.538 58.7811 312.379 58.9184 312.255C59.0556 312.131 59.2239 312.047 59.4054 312.011C59.5869 311.976 59.7746 311.99 59.9486 312.053C60.076 312.078 60.1908 312.146 60.2739 312.245C60.3569 312.345 60.4032 312.47 60.4048 312.6C60.4405 312.848 60.33 313.12 60.5225 313.343Z" fill="#5E4F48"/>
<path d="M60.5225 313.343C60.4452 313.245 60.3823 313.136 60.3357 313.019C60.125 312.145 60.0024 312.094 59.1716 312.363C59.1013 312.379 59.035 312.409 58.9765 312.451C58.918 312.493 58.8686 312.546 58.831 312.608C58.7935 312.669 58.7687 312.738 58.758 312.809C58.7473 312.88 58.751 312.953 58.7689 313.023C58.8408 313.919 58.8863 314.822 59.0294 315.708C59.124 316.148 59.1633 316.599 59.1466 317.049C59.0596 318.025 59.377 318.967 59.3454 319.935H58.9575C58.9747 317.229 58.734 314.526 58.2387 311.865C58.1021 311.039 58.0675 311.057 57.241 311.128C55.1807 311.234 53.1149 311.103 51.0845 310.738C49.837 310.581 48.611 310.285 47.4291 309.856C46.658 309.625 45.944 309.235 45.333 308.711C45.414 308.697 45.4951 308.684 45.5761 308.671C45.6397 308.68 45.7039 308.685 45.7681 308.686C45.8313 308.75 45.8957 308.813 45.9615 308.874C46.0257 308.877 46.09 308.88 46.1543 308.881C46.2146 308.949 46.2865 309.005 46.35 309.07C46.4139 309.073 46.4779 309.075 46.5419 309.075C46.6024 309.143 46.6741 309.199 46.7377 309.263L47.3195 309.462C47.3792 309.524 47.4426 309.582 47.5093 309.637L47.9007 309.657C47.9614 309.718 48.0251 309.777 48.0917 309.833L48.483 309.851C48.5833 309.972 48.765 309.922 48.8691 310.035L49.2592 310.044C49.3168 310.105 49.3795 310.162 49.4466 310.212L50.0371 310.238C50.2572 310.452 50.5837 310.226 50.8079 310.424L51.3919 310.433C51.5471 310.613 51.8101 310.452 51.9707 310.615L52.7508 310.626C53.1079 310.873 53.5519 310.581 53.9114 310.813C54.5585 310.816 55.2056 310.818 55.8527 310.821C56.0036 310.897 56.1702 310.936 56.3392 310.936C56.5081 310.936 56.6747 310.897 56.8256 310.821L58.1889 310.82C58.249 310.887 58.3112 310.951 58.3756 311.014L58.384 311.21C58.4442 311.276 58.5059 311.341 58.5691 311.403C58.5881 311.506 58.6295 311.603 58.6902 311.687C58.7509 311.772 58.8295 311.842 58.9204 311.893C59.0113 311.943 59.1123 311.974 59.2161 311.981C59.3199 311.988 59.4241 311.972 59.5212 311.935C59.7091 311.89 59.8736 311.777 59.983 311.618C60.0924 311.458 60.1389 311.264 60.1136 311.073C60.1136 310.852 60.1264 310.63 60.1334 310.409C60.3715 311.37 60.502 312.354 60.5225 313.343Z" fill="#6E5F54"/>
<path d="M320 208.027C319.316 208.872 318.706 209.774 318.175 210.723C317.676 211.221 317.269 211.804 316.974 212.445C316.962 212.476 316.945 212.503 316.922 212.526C316.899 212.549 316.871 212.567 316.84 212.579C316.81 212.59 316.777 212.595 316.745 212.593C316.712 212.591 316.681 212.582 316.652 212.566C316.598 212.53 316.56 212.474 316.544 212.411C316.528 212.348 316.536 212.281 316.567 212.223C316.634 212.043 316.723 211.871 316.808 211.698C317.551 210.173 318.278 208.639 319.049 207.128C319.337 206.633 319.655 206.156 320 205.7V208.027Z" fill="#F0E4CB"/>
<path d="M260.283 154.922C259.592 156.049 258.793 157.106 257.896 158.078C256.355 159.906 254.711 161.646 252.974 163.29C252.225 163.902 251.525 164.573 250.881 165.295C250.044 166.374 249.593 167.702 249.601 169.068C249.519 174.182 249.975 179.267 250.394 184.353C250.525 187.039 251.161 189.677 252.269 192.127C252.915 193.619 253.91 194.934 255.17 195.961C256.431 196.987 257.92 197.695 259.512 198.025C262.923 198.754 266.477 198.373 269.656 196.938C271.415 196.119 273.037 195.034 274.465 193.72C277.396 191.182 280.199 188.498 282.862 185.679C292.13 175.782 299.126 163.981 303.361 151.101C305.276 145.264 306.574 139.243 307.236 133.136C308.578 120.905 307.307 108.528 303.507 96.8249C299.707 85.1218 293.465 74.3592 285.194 65.2494C278.742 58.1206 271.203 52.0569 262.856 47.2829C259.998 45.6367 257.043 44.18 254.049 42.8004C253.985 42.7507 253.965 42.7029 253.989 42.6571C254.013 42.6123 254.036 42.5899 254.059 42.5898C254.609 42.768 255.15 42.9758 255.678 43.2122C257.69 44.2344 259.733 45.191 261.71 46.2888C264.542 47.8318 267.284 49.5333 269.925 51.3852C271.992 52.8602 274.015 54.3968 275.977 56.0219C278.885 58.4767 281.664 61.0808 284.302 63.8235C285.609 65.1568 286.758 66.6339 287.982 68.0433C289.547 69.8463 290.944 71.7731 292.327 73.7136C293.713 75.6577 294.971 77.6826 296.189 79.7329C297.564 82.0333 298.813 84.407 299.929 86.8435C302.235 91.785 304.066 96.9347 305.397 102.223C306.093 105.101 306.728 107.993 307.149 110.921C307.455 113.048 307.662 115.194 307.842 117.342C307.827 118.983 307.928 120.624 308.142 122.252C308.256 122.757 307.948 123.251 307.972 123.78C308.014 124.715 307.995 125.654 307.978 126.591C307.896 129.451 307.66 132.305 307.27 135.139C306.999 137.28 306.631 139.398 306.233 141.513C305.732 144.175 304.961 146.771 304.226 149.374C303.381 152.252 302.367 155.078 301.189 157.837C299.825 161.184 298.238 164.435 296.439 167.57C295.304 169.522 294.149 171.458 292.939 173.364C291.553 175.536 290.056 177.634 288.452 179.65C287.228 181.269 285.914 182.817 284.514 184.286C283.606 185.197 282.879 186.299 281.919 187.142C280.196 188.654 278.751 190.45 276.948 191.875C276.115 192.533 275.36 193.289 274.578 194.009C272.383 196.072 269.68 197.515 266.744 198.189C265.701 198.428 264.647 198.503 263.603 198.685C262.737 198.797 261.857 198.742 261.012 198.523C259.929 198.385 258.861 198.151 257.819 197.825C256.47 197.279 255.244 196.469 254.213 195.442C253.182 194.415 252.367 193.193 251.815 191.846C250.874 189.583 250.315 187.178 250.161 184.732C249.99 182.84 249.91 180.943 249.748 179.055C249.515 176.879 249.399 174.691 249.403 172.502C249.412 172.104 249.244 171.742 249.229 171.358C249.194 170.039 249.288 168.719 249.509 167.418C249.798 165.97 250.636 164.69 251.847 163.846C252.732 163.098 253.538 162.261 254.252 161.348C255.245 160.206 256.2 159.032 257.28 157.968C258.238 157.103 259.093 156.129 259.826 155.066C259.95 154.918 260.093 154.787 260.251 154.677C260.363 154.745 260.374 154.827 260.283 154.922Z" fill="#E8DDC5"/>
<path d="M203.838 35.038C201.022 35.415 198.208 35.7913 195.417 36.3305C193.004 36.7965 190.648 37.4555 188.285 38.1214C183.176 39.5186 178.159 41.2321 173.263 43.2517C172.907 43.4016 172.561 43.5738 172.211 43.7356C166.081 46.4272 160.176 49.6058 154.554 53.2409L154.558 53.2382C153.111 54.1746 151.721 55.1938 150.291 56.1536L150.294 56.1512C148.66 57.3584 147.074 58.6292 145.437 59.8323L145.44 59.8295C144.307 60.8378 143.116 61.7771 141.946 62.742L141.95 62.739C140.573 63.9484 139.252 65.2198 137.878 66.433L137.88 66.4312C135.573 68.5382 133.39 70.7755 131.339 73.1319C128.018 76.7904 124.937 80.6591 122.115 84.7139C121.985 84.9033 121.887 85.1018 121.649 85.1711C121.602 85.1703 121.557 85.1601 121.515 85.1412C121.473 85.1224 121.435 85.0952 121.404 85.0613C122.303 83.5725 123.308 82.15 124.41 80.8048C126.018 78.6325 127.755 76.5655 129.503 74.5035C132.393 71.2009 135.447 68.0467 138.656 65.0531C140.589 63.2111 142.617 61.4708 144.731 59.8395C146.303 58.6138 147.859 57.3613 149.459 56.175C151.032 55.0093 152.72 54.0002 154.326 52.878C155.62 51.9736 156.994 51.2012 158.32 50.3527C159.708 49.4653 161.16 48.6964 162.596 47.8987C164.34 46.9291 166.105 45.9837 167.916 45.1476C170.167 44.108 172.463 43.1583 174.764 42.2308C176.766 41.4238 178.787 40.6558 180.828 39.9548C182.839 39.2641 184.866 38.5978 186.924 38.0706C188.978 37.5446 191.023 36.9842 193.097 36.5235C196.018 35.8744 198.96 35.3962 201.921 34.9913C202.555 34.8831 203.197 34.8315 203.84 34.8369C203.904 34.8824 203.925 34.9273 203.903 34.9717C203.881 35.0159 203.859 35.038 203.838 35.038Z" fill="#DCCDB3"/>
<path d="M203.838 35.038L203.84 34.837C203.902 34.8402 203.963 34.8375 204.025 34.829C204.521 34.5767 205.085 34.8921 205.582 34.6441L205.579 34.6461C206.401 34.3514 207.276 34.7234 208.1 34.4459L208.098 34.4469C208.914 34.3352 209.739 34.3012 210.561 34.3455C210.907 34.3918 211.26 34.3608 211.593 34.2548L211.591 34.2571C211.614 34.2286 211.643 34.2055 211.676 34.1895C211.709 34.1734 211.746 34.1649 211.782 34.1644C211.819 34.1639 211.855 34.1715 211.889 34.1867C211.922 34.2019 211.952 34.2242 211.975 34.2521H212.169C212.991 34.119 213.826 34.0879 214.655 34.1597C219.396 34.0647 224.137 34.2897 228.848 34.8332L228.847 34.8326C230.407 34.9547 231.953 35.1992 233.501 35.4191L233.499 35.4176C234.271 35.5699 235.064 35.6037 235.828 35.8081L235.825 35.8065C239.254 36.4285 242.613 37.385 245.856 38.6622C248.096 39.5574 250.445 40.1786 252.313 41.8174L252.312 41.8162C252.418 41.9297 252.597 41.8885 252.703 42.0012C253.131 42.2486 253.586 42.4461 254.059 42.5899L254.049 42.8005C253.412 42.6918 252.801 42.4614 252.25 42.1218C249.086 40.7306 245.847 39.5126 242.55 38.4733C241.789 38.2032 241.033 37.9241 240.301 37.58C237.728 36.5271 235.012 35.8663 232.243 35.6197C228.148 35.0629 224.027 34.7133 219.897 34.5722C215.055 34.3934 210.207 34.5335 205.384 34.9918C204.872 35.0676 204.353 35.0831 203.838 35.038Z" fill="#BCAF9D"/>
<path d="M265.716 101.712C266.435 102.499 267 103.414 267.38 104.41C269.139 108.97 270.223 113.761 270.598 118.634C271.185 125.971 270.247 133.35 267.842 140.307C267.013 142.653 266.063 144.955 264.998 147.204C264.91 147.482 264.758 147.735 264.553 147.943C264.53 147.932 264.51 147.917 264.495 147.897C264.48 147.877 264.47 147.854 264.465 147.829C264.461 147.805 264.463 147.779 264.47 147.755C264.478 147.732 264.491 147.71 264.509 147.692C264.635 147.396 264.752 147.097 264.888 146.805C265.182 146.229 265.329 145.589 265.317 144.942C265.284 144.442 265.364 143.94 265.551 143.475C265.738 143.01 266.027 142.593 266.398 142.256C266.992 141.616 267.421 140.84 267.647 139.997C269.587 134.221 270.555 128.164 270.509 122.072C270.447 118.501 270.024 114.946 269.246 111.46C268.67 109.047 267.939 106.674 267.056 104.356C266.808 103.761 266.494 103.195 266.121 102.67C265.881 102.406 265.738 102.068 265.716 101.712Z" fill="#D8CCB6"/>
<path d="M121.405 85.0614L121.63 85.0816C121.737 85.5703 121.363 85.8372 121.13 86.1696C119.765 87.9758 118.611 89.9202 117.429 91.8452C113.962 97.602 110.918 103.603 108.321 109.801C108.187 110.266 107.958 110.698 107.648 111.07C107.707 110.392 107.937 109.741 108.315 109.176C109.507 106.459 110.677 103.734 111.99 101.068C114.759 95.5236 117.905 90.1757 121.405 85.0614Z" fill="#D0C3AE"/>
<path d="M252.313 41.8174C251.662 41.6344 251.05 41.3304 250.511 40.9214C249.853 40.4567 249.123 40.1021 248.351 39.8715C246.636 39.32 244.955 38.6697 243.315 37.924C241.314 37.1192 239.231 36.5346 237.103 36.1806C236.656 36.145 236.221 36.0176 235.825 35.8065C236.562 35.8378 237.292 35.9537 238.002 36.152C239.893 36.5156 241.762 36.9902 243.597 37.5734C245.476 38.1232 247.279 38.9068 249.198 39.3434C249.898 39.4978 250.531 39.8692 251.006 40.4046C251.481 40.8381 251.918 41.3107 252.313 41.8174Z" fill="#DCCDB3"/>
<path d="M228.847 34.8332C227.367 34.828 225.901 34.6314 224.43 34.4988C224.205 34.4786 223.981 34.4631 223.756 34.4489C219.993 34.2106 216.226 34.2272 212.459 34.2607C212.362 34.2615 212.266 34.2551 212.169 34.2521C212.427 33.9726 212.769 34.0597 213.082 34.059C215.504 34.053 217.939 33.9031 220.344 34.1057C222.14 34.2569 223.946 34.0808 225.736 34.4049C226.579 34.5576 227.47 34.4309 228.326 34.6307C228.514 34.6747 228.711 34.6655 228.847 34.8332Z" fill="#DCCDB3"/>
<path d="M40.7109 241.403C41.1806 241.449 41.4574 241.112 41.7857 240.87C42.0339 240.687 42.436 240.566 42.3522 240.2C42.2781 239.878 41.872 239.818 41.5833 239.712C41.0305 239.508 40.378 239.548 39.9609 239.024C40.9005 239.207 41.8181 239.489 42.6982 239.865C43.0425 240.038 43.4391 240.077 43.8103 239.973C43.7705 240.092 43.7119 240.203 43.6367 240.304C42.8229 240.957 42.0826 241.698 41.4289 242.511C41.369 242.587 41.2924 242.647 41.2051 242.688C41.1178 242.729 41.0222 242.749 40.9259 242.746C41.1444 242.48 41.3629 242.214 41.575 241.956C41.4033 241.547 40.9171 241.7 40.7109 241.403Z" fill="#6D5E55"/>
<path d="M264.508 147.692L264.552 147.943C263.817 149.518 262.963 151.036 261.999 152.484C261.523 153.36 260.947 154.179 260.282 154.922C260.272 154.84 260.261 154.758 260.251 154.677C261.305 152.948 262.345 151.211 263.421 149.496C263.794 148.9 263.934 148.165 264.508 147.692Z" fill="#E2D6BF"/>
<path d="M233.501 35.4192C231.936 35.3469 230.38 35.1508 228.847 34.8326C230.331 34.8425 231.812 34.9861 233.271 35.2615C233.352 35.2681 233.424 35.3646 233.501 35.4192Z" fill="#DCCDB3"/>
<path d="M211.593 34.2548C211.118 34.4371 210.605 34.4933 210.102 34.4179C209.435 34.4534 208.766 34.4395 208.098 34.4469C208.321 34.1928 208.623 34.2528 208.905 34.2516C209.801 34.2476 210.697 34.253 211.593 34.2548Z" fill="#DCCDB3"/>
<path d="M208.1 34.4459C207.275 34.6444 206.425 34.7119 205.579 34.646C205.893 34.3178 206.299 34.4653 206.666 34.4479C207.143 34.4253 207.622 34.4446 208.1 34.4459Z" fill="#DCCDB3"/>
<path d="M235.828 35.8081C235.035 35.8136 234.247 35.6815 233.499 35.4176C234.296 35.3462 235.098 35.4806 235.828 35.8081Z" fill="#DCCDB3"/>
<path d="M205.582 34.6441C205.092 34.9515 204.545 34.7818 204.024 34.829C204.507 34.4633 205.062 34.7011 205.582 34.6441Z" fill="#DCCDB3"/>
<path d="M169.126 121.923C169.084 121.817 169.082 121.7 169.119 121.593C169.156 121.486 169.23 121.396 169.328 121.339C169.357 121.445 169.353 121.557 169.316 121.662C169.28 121.766 169.214 121.857 169.126 121.923Z" fill="#918276"/>
<path d="M168.935 122.511C168.895 122.405 168.892 122.289 168.927 122.181C168.961 122.074 169.032 121.982 169.127 121.92C169.155 122.026 169.153 122.139 169.119 122.244C169.084 122.349 169.021 122.441 168.935 122.511Z" fill="#918276"/>
<path d="M252.703 42.0012C252.627 42.0064 252.551 41.9921 252.483 41.9597C252.414 41.9273 252.355 41.8779 252.312 41.8162C252.387 41.8093 252.463 41.8229 252.532 41.8554C252.601 41.888 252.66 41.9383 252.703 42.0012Z" fill="#DCCDB3"/>
<path d="M211.975 34.2521L211.591 34.257C211.716 34.0657 211.845 34.0683 211.975 34.2521Z" fill="#DCCDB3"/>
<path d="M161.767 52.3072C163.486 51.4166 165.161 50.4479 166.892 49.5764C169.287 48.3704 171.704 47.2197 174.171 46.1687C177.234 44.8634 180.36 43.7239 183.525 42.7052C186.626 41.7071 189.772 40.8604 192.962 40.1651C196.675 39.3384 200.43 38.7075 204.21 38.2749C206.585 38.0131 208.962 37.8474 211.344 37.682C214.44 37.486 217.543 37.453 220.642 37.5831C224.121 37.7077 227.594 37.9833 231.053 38.4503C234.639 38.9037 238.191 39.5982 241.684 40.529C244.957 41.4221 248.168 42.5287 251.296 43.8416C254.722 45.281 258.064 46.9131 261.306 48.7298C265.411 51.0523 269.331 53.6869 273.032 56.61C276.552 59.4013 279.854 62.456 282.911 65.7479C285.249 68.2485 287.43 70.8918 289.441 73.6627C293.578 79.3335 296.997 85.494 299.622 92.004C301.662 97.0335 303.206 102.25 304.232 107.58C304.834 110.816 305.258 114.082 305.503 117.364C305.637 119.076 305.614 120.784 305.682 122.493C305.785 125.362 305.699 128.236 305.425 131.094C304.84 137.625 303.519 144.069 301.485 150.303C299.952 155.004 298.039 159.572 295.764 163.962C295.452 164.564 295.12 165.156 294.798 165.753C294.663 165.843 294.711 166.034 294.59 166.132C294.475 166.234 294.523 166.422 294.389 166.514C292.144 170.515 289.6 174.342 286.779 177.96C284.852 180.472 282.78 182.87 280.573 185.14C278.51 187.234 276.463 189.347 274.206 191.235C272.534 192.808 270.619 194.102 268.535 195.065C265.929 196.136 263.069 196.435 260.297 195.925C256.968 195.326 255.1 193.283 253.864 190.41C253.227 188.753 252.824 187.015 252.666 185.246C252.324 182.618 252.156 179.977 252.003 177.337C251.769 174.795 251.684 172.241 251.749 169.689C251.785 169.079 251.885 168.472 251.977 167.867C252.074 167.354 252.342 166.889 252.737 166.548C253.877 165.452 255.028 164.367 256.149 163.251C261.799 157.58 266.202 150.791 269.075 143.319C271.949 135.847 273.229 127.858 272.834 119.862C272.698 117.219 272.36 114.591 271.825 111.999C271.07 108.396 269.957 104.878 268.502 101.497C267.875 100.149 267.053 98.9011 266.063 97.7928C265.423 97.02 264.826 96.2195 264.24 95.407C263.682 94.5792 263 93.8426 262.218 93.2233C261.447 92.5356 260.735 91.786 260.087 90.9819C256.418 87.1488 252.193 83.8895 247.555 81.3136C242.379 78.4366 236.786 76.385 230.977 75.2331C225.806 74.2042 220.52 73.8793 215.262 74.267C209.391 74.6604 203.61 75.9125 198.103 77.9833C192.102 80.2227 186.476 83.3594 181.415 87.2864C177.998 89.9462 174.869 92.957 172.079 96.2694C169.152 99.7211 166.619 103.489 164.528 107.503C162.212 111.95 160.494 116.683 159.421 121.581C158.744 124.638 158.33 127.747 158.184 130.874C158.105 132.619 158.142 134.358 158.102 136.099C158.05 137.679 158.158 139.261 158.424 140.819C158.528 141.558 158.789 142.266 159.189 142.896C160.046 144.265 160.826 145.681 161.526 147.137C164.354 152.401 167.139 157.689 169.939 162.968C171.71 166.307 173.48 169.647 175.248 172.988C178.004 178.181 180.76 183.375 183.518 188.567C185.289 191.906 187.058 195.246 188.826 198.586C191.31 203.265 193.797 207.943 196.287 212.619C196.83 213.499 197.313 214.413 197.735 215.356C198.426 216.963 198.685 218.722 198.489 220.461C198.171 222.807 197.302 225.045 195.952 226.991C194.405 229.285 192.171 231.029 189.571 231.973C186.437 233.086 183.257 234.047 180.093 235.064C176.959 236.071 173.831 237.098 170.696 238.106C164.367 240.14 158.037 242.172 151.706 244.2C146.576 245.85 141.451 247.518 136.321 249.167C130.975 250.884 125.623 252.581 120.277 254.298C116.407 255.542 112.543 256.808 108.675 258.057C106.617 258.721 104.541 259.332 102.499 260.04C100.62 260.628 98.7768 261.322 96.9768 262.119C94.5231 263.355 92.2162 264.863 90.0996 266.615C87.2914 268.842 84.4867 271.074 81.6854 273.309C77.7232 276.471 73.7624 279.634 69.8031 282.799C66.8964 285.11 64.0299 287.47 61.063 289.705C60.218 290.41 59.4817 291.236 58.8776 292.156C57.5489 294.067 56.456 296.132 55.6226 298.306C55.2309 299.335 55.2161 300.469 55.5808 301.509C56.1904 303.649 56.7539 305.803 57.3333 307.953C57.3836 308.139 57.4082 308.332 57.4493 308.521C57.4676 308.566 57.4745 308.615 57.4695 308.664C57.4645 308.713 57.4477 308.759 57.4206 308.8C57.3936 308.841 57.3569 308.874 57.314 308.897C57.2711 308.921 57.2231 308.933 57.1742 308.934C56.8582 308.997 56.5366 309.027 56.2144 309.025C54.3466 308.939 52.4851 308.75 50.6382 308.459C49.5576 308.261 48.5021 307.945 47.4907 307.516C46.6627 307.139 45.9393 306.566 45.3836 305.846C40.2681 299.644 35.1566 293.439 30.0492 287.23C27.6272 284.29 25.2145 281.342 22.7731 278.418C22.1987 277.674 21.779 276.822 21.5385 275.913C21.298 275.005 21.2415 274.057 21.3725 273.126C21.7683 269.36 22.8431 265.698 24.5449 262.315C25.4615 260.495 26.7138 258.864 28.2358 257.508C30.0916 255.71 32.0047 253.972 33.8894 252.204C37.8705 248.47 41.8503 244.734 45.8288 240.997C46.9593 239.936 48.0828 238.867 49.2185 237.812C49.9301 237.152 50.5607 236.411 51.0971 235.603C53.2608 232.455 54.8838 228.967 55.8992 225.285C56.252 224.143 56.7102 223.036 57.2678 221.979C58.9137 218.47 60.604 214.981 62.2768 211.485C64.5909 206.647 66.9046 201.81 69.2179 196.972C72.5722 189.946 75.9233 182.917 79.2712 175.888C81.8382 170.491 84.381 165.083 86.9511 159.688C89.4937 154.351 92.061 149.026 94.61 143.693C97.2982 138.068 99.9823 132.441 102.662 126.812C104.78 122.381 106.907 117.954 109.041 113.532C110.227 111.09 111.689 108.797 112.998 106.421C113.871 104.834 114.648 103.201 115.461 101.585C119.203 94.1679 123.699 87.1555 128.878 80.6588C132.236 76.4348 135.886 72.4514 139.801 68.7379C144.112 64.6491 148.725 60.8903 153.599 57.4935C155.741 55.9985 157.935 54.5748 160.19 53.2523C160.726 52.9536 161.215 52.5784 161.767 52.3072Z" fill="#E5E4E1"/>
<path d="M192.971 131.023C193.617 129.793 194.211 128.533 194.919 127.341C195.987 125.447 197.456 123.81 199.223 122.544C200.991 121.278 203.014 120.414 205.15 120.012C207.365 119.524 209.66 119.529 211.873 120.024C214.086 120.52 216.164 121.495 217.959 122.88C219.719 124.154 221.194 125.779 222.292 127.653C223.39 129.527 224.086 131.609 224.337 133.767C224.705 136.375 224.366 139.034 223.355 141.466C222.714 142.987 222.433 144.622 221.86 146.169C220.053 151.041 218.288 155.93 216.507 160.813C214.947 165.089 213.387 169.364 211.827 173.64C209.786 179.218 207.742 184.795 205.696 190.371C204.201 194.464 202.73 198.565 201.239 202.659C200.323 205.176 199.396 207.689 198.457 210.197C198.393 210.513 198.245 210.806 198.03 211.046C197.692 211.028 197.64 210.734 197.528 210.523C196.093 207.811 194.674 205.091 193.234 202.382C190.825 197.848 188.409 193.318 185.987 188.791C184.818 186.596 183.653 184.4 182.492 182.201C180.827 179.063 179.171 175.92 177.486 172.792C177.323 172.524 177.228 172.22 177.211 171.907C177.194 171.593 177.254 171.28 177.387 170.996C179.079 166.737 180.689 162.445 182.346 158.172C184.341 153.026 186.361 147.889 188.363 142.745C189.779 139.105 191.19 135.463 192.594 131.819C192.696 131.705 192.658 131.525 192.781 131.42C192.894 131.311 192.853 131.129 192.971 131.023Z" fill="#DCCDB3"/>
<path d="M68.1015 193.431C67.5553 192.115 66.8027 190.905 66.1436 189.647C64.3595 186.242 62.5613 182.844 60.7489 179.454C58.2465 174.748 55.7408 170.043 53.2318 165.34C51.077 161.29 48.9252 157.238 46.7763 153.185C46.5052 152.757 46.1804 152.366 45.8098 152.021C44.5984 150.691 42.9086 150.712 41.3895 150.329C37.3221 149.305 33.2253 148.397 29.1406 147.442C25.4014 146.567 21.6648 145.68 17.9218 144.822C17.2011 144.663 16.5347 144.318 15.9893 143.821C13.6264 141.714 12.1301 138.805 11.7906 135.658C11.4296 133.412 11.6474 131.111 12.4233 128.973C13.1993 126.835 14.5078 124.93 16.2252 123.438C17.9868 121.847 20.1341 120.746 22.4536 120.243C23.5771 120.086 24.7206 120.156 25.8167 120.448C31.991 121.448 38.1592 122.486 44.3285 123.516C48.0494 124.138 51.7708 124.757 55.488 125.401C57.315 125.675 59.0628 126.335 60.6149 127.337C62.167 128.339 63.4879 129.66 64.4897 131.212C67.5907 135.859 70.8072 140.429 73.9607 145.041C77.2607 149.868 80.5355 154.712 83.8476 159.53C84.036 159.76 84.1473 160.044 84.1661 160.341C84.1849 160.639 84.1102 160.934 83.9524 161.187C81.4184 166.42 78.9338 171.678 76.4287 176.926C74.0491 181.911 71.6668 186.894 69.2819 191.877C69.0595 192.343 68.8677 192.823 68.6617 193.297C68.5033 193.46 68.3743 193.745 68.1015 193.431Z" fill="#E5E4E1"/>
<path d="M85.1485 273.197C86.7962 271.902 88.453 270.618 90.0894 269.308C92.5363 267.2 95.2215 265.384 98.0901 263.899C99.0618 263.462 100.058 263.083 101.074 262.763C106.575 260.905 112.103 259.132 117.644 257.395C120.63 256.459 123.597 255.461 126.577 254.504C130.599 253.212 134.628 251.942 138.649 250.647C142.641 249.36 146.624 248.045 150.615 246.759C154.514 245.502 158.422 244.27 162.322 243.018C165.485 242.001 168.641 240.962 171.804 239.947C175.673 238.706 179.55 237.489 183.417 236.242C185.842 235.459 188.257 234.646 190.672 233.835C191.668 233.469 192.61 232.967 193.468 232.343C193.762 232.519 193.565 232.728 193.5 232.848C192.583 234.632 191.336 236.225 189.824 237.543C189.224 238.082 188.579 238.57 187.896 238.999C186.632 239.638 185.316 240.169 183.962 240.586C180.972 241.71 177.947 242.741 174.939 243.818C169.196 245.874 163.455 247.933 157.714 249.995C150.789 252.478 143.863 254.959 136.936 257.439C132.773 258.926 128.602 260.393 124.437 261.875C120.91 263.13 117.372 264.356 113.868 265.672C112.293 266.158 110.801 266.88 109.443 267.815C108.541 268.546 107.697 269.347 106.919 270.209C106.72 270.42 106.551 270.658 106.35 270.867C104.132 273.17 101.875 275.437 99.6994 277.779C96.8204 280.878 93.857 283.895 90.9555 286.972C90.6147 287.333 90.5092 287.325 90.3085 286.822C89.8069 285.562 89.359 284.281 88.8315 283.033C87.7097 280.318 86.4125 277.68 84.9481 275.133C83.9851 274.123 83.9875 274.1 85.1485 273.197Z" fill="#DCCDB3"/>
<path d="M88.235 152.166C87.2755 154.055 86.4968 156.035 85.418 157.945C84.9895 157.52 84.6165 157.042 84.3077 156.522C81.7253 152.735 79.1463 148.945 76.5705 145.152C73.6032 140.807 70.6093 136.48 67.6573 132.124C66.6596 130.541 65.5386 129.04 64.3045 127.633C62.961 126.182 61.2982 125.063 59.4475 124.366C57.4064 123.653 55.2971 123.153 53.1531 122.874C50.7336 122.5 48.3216 122.078 45.9065 121.676C43.2697 121.238 40.6329 120.799 37.9963 120.359C35.487 119.942 32.9776 119.524 30.4683 119.107C28.3396 118.752 26.2111 118.397 24.0827 118.04C22.8907 117.945 21.6934 118.138 20.5915 118.602C17.0709 119.699 14.0485 122 12.0535 125.101C10.7916 127.024 9.9794 129.208 9.67728 131.488C9.18013 134.865 9.7916 138.313 11.4199 141.313C11.5204 141.504 11.6864 141.692 11.5623 141.942C11.3923 142.093 11.2614 141.965 11.1489 141.865C8.20537 139.341 6.19368 135.902 5.43583 132.099C4.67559 128.564 5.17341 124.874 6.84338 121.666C7.86528 119.641 9.29952 117.852 11.054 116.414C12.8084 114.976 14.8442 113.921 17.0306 113.317C19.188 112.764 21.4474 112.742 23.6152 113.252C27.1025 113.875 30.6091 114.389 34.1065 114.955C36.4911 115.341 38.8748 115.734 41.2574 116.132C44.276 116.633 47.2943 117.136 50.3123 117.64C53.1076 118.103 55.9122 118.513 58.6973 119.03C60.6898 119.306 62.5817 120.076 64.2005 121.27C65.4809 122.306 66.6372 123.487 67.6465 124.788C71.4002 129.552 75.1109 134.349 78.8414 139.13C81.9767 143.149 85.1146 147.165 88.255 151.18C88.3038 151.26 88.3665 151.331 88.4402 151.39L88.442 151.391C88.468 151.416 88.4885 151.446 88.5021 151.48C88.5156 151.514 88.522 151.55 88.5206 151.586C88.5193 151.622 88.5103 151.658 88.4943 151.69C88.4784 151.723 88.4557 151.752 88.4278 151.775L88.4273 151.777C88.3199 151.885 88.3639 152.068 88.235 152.166Z" fill="#DCCDB3"/>
<path d="M239.899 80.2228C237.203 79.5864 234.469 79.1226 231.713 78.8343C229.729 78.6079 227.733 78.4904 225.735 78.4823C220.961 78.4956 216.203 79.0426 211.551 80.1131C202.336 82.2694 193.767 86.5898 186.554 92.7166C184.893 94.1006 183.308 95.5739 181.807 97.1299C178.505 100.586 175.608 104.406 173.171 108.517C173.119 108.592 173.062 108.663 173 108.73C172.871 108.827 172.918 109.014 172.802 109.118C170.231 113.493 168.191 118.159 166.725 123.017C165.708 126.349 164.945 129.753 164.442 133.2C163.851 137.321 163.605 141.483 163.704 145.644C163.708 145.823 163.781 146.03 163.606 146.176C163.431 146.223 163.367 146.093 163.309 145.987C162.49 144.484 161.67 142.982 160.862 141.473C160.607 141.096 160.449 140.662 160.405 140.209C160.404 137.981 159.964 135.787 159.982 133.55C160.02 128.902 160.639 124.277 161.823 119.782C162.759 116.186 164.064 112.697 165.718 109.369C167.745 105.289 170.235 101.456 173.14 97.9465C174.938 95.7873 176.88 93.7518 178.953 91.8538C182.694 88.4282 186.859 85.4971 191.347 83.1324C196.189 80.5385 201.364 78.6206 206.727 77.4322C209.184 76.898 211.671 76.5164 214.175 76.2894C216.042 76.1163 217.912 76.1149 219.777 76.0298C221.163 75.9846 222.55 76.0381 223.928 76.1901C225.69 76.363 227.449 76.565 229.198 76.8662C231.2 77.2083 233.182 77.6584 235.136 78.2145C236.757 78.6536 238.35 79.1879 239.908 79.8147C240.006 79.9653 240.346 79.8945 240.282 80.1595C240.236 80.351 240.05 80.3259 239.899 80.2228Z" fill="#DCCDB3"/>
<path d="M165.767 142.021C166.092 142.15 166.19 142.469 166.333 142.739C168.119 146.105 169.895 149.475 171.687 152.838C173.479 156.199 175.259 159.568 177.105 162.9C177.373 163.298 177.528 163.762 177.554 164.241C177.581 164.72 177.477 165.197 177.254 165.623C176.854 166.427 176.605 167.307 176.284 168.152C176.175 168.547 175.98 168.912 175.713 169.222C175.181 168.446 174.714 167.628 174.316 166.776C171.815 162.109 169.367 157.413 166.87 152.744C166.313 151.763 165.977 150.673 165.884 149.549C165.667 147.106 165.584 144.653 165.636 142.201C165.638 142.153 165.702 142.107 165.767 142.021Z" fill="#DCCDB3"/>
<path d="M121.13 86.1697C121.164 85.7459 121.564 85.4906 121.63 85.0815C122.761 83.5575 123.874 82.0185 125.029 80.5125C127.146 77.7525 129.378 75.0884 131.726 72.5203C133.421 70.6645 135.17 68.8611 136.972 67.1101C137.242 66.8488 137.455 66.4926 137.88 66.4314C137.884 66.5282 137.865 66.6245 137.824 66.7122C137.783 66.7998 137.72 66.876 137.643 66.9341C135.238 69.132 132.97 71.4758 130.852 73.9523C128.586 76.4674 126.439 79.0793 124.409 81.788C123.521 82.9749 122.685 84.2008 121.818 85.4035C121.617 85.6819 121.513 86.0528 121.13 86.1697Z" fill="#85766B"/>
<path d="M154.555 53.241C155.111 52.6582 155.773 52.1858 156.505 51.8488C159.814 49.7717 163.226 47.8647 166.729 46.1354C168.262 45.3769 169.83 44.6899 171.385 43.9767C171.633 43.8208 171.919 43.7373 172.211 43.7357C171.959 44.0328 171.617 44.2405 171.237 44.328C169.805 44.9164 168.414 45.6047 167.039 46.2979C165.082 47.2835 163.127 48.2803 161.226 49.3822C159.189 50.5632 157.171 51.7728 155.188 53.0398C155.009 53.1831 154.783 53.2549 154.555 53.241Z" fill="#85766B"/>
<path d="M85.1484 273.197C85.1189 273.252 85.0847 273.305 85.0461 273.354C84.3925 274.064 84.3941 274.063 84.8773 274.862C84.9136 274.949 84.9374 275.04 84.9479 275.133C84.3785 274.736 83.9325 275.194 83.4543 275.365C83.1012 275.491 83.2356 275.841 83.1982 276.107C82.8799 275.919 82.9094 275.38 82.4336 275.352C83.2175 274.765 83.9543 274.117 84.6374 273.415C84.7024 273.345 84.7816 273.289 84.8696 273.251C84.9577 273.214 85.0527 273.195 85.1484 273.197Z" fill="#6C5D53"/>
<path d="M145.437 59.8323C145.678 59.3451 146.167 59.126 146.564 58.8153C147.573 58.0268 148.601 57.2632 149.627 56.4961C149.827 56.3459 150.008 56.1435 150.294 56.1512C150.223 56.2925 150.131 56.4224 150.022 56.5369C148.621 57.6148 147.214 58.6846 145.802 59.7463C145.687 59.7981 145.563 59.8273 145.437 59.8323Z" fill="#85766B"/>
<path d="M137.879 66.433C138.521 65.6008 139.271 64.8573 140.108 64.2218C140.635 63.628 141.258 63.1268 141.95 62.7391C141.692 63.2214 141.317 63.6311 140.859 63.9304C140.033 64.5988 139.291 65.3495 138.532 66.0865C138.349 66.265 138.175 66.4653 137.879 66.433Z" fill="#85766B"/>
<path d="M150.291 56.1536C151.163 55.346 152.119 54.635 153.144 54.0331C153.546 53.6607 154.031 53.3884 154.559 53.2383C154.275 53.931 153.524 54.0509 153.01 54.455C152.39 54.9422 151.7 55.3513 151.074 55.8438C150.863 56.0447 150.582 56.1557 150.291 56.1536Z" fill="#85766B"/>
<path d="M141.946 62.7421C142.631 61.9433 143.417 61.2379 144.286 60.644C144.638 60.3422 144.929 59.9183 145.441 59.8296C144.878 60.6136 144.157 61.2713 143.325 61.7607C142.88 62.0991 142.613 62.7142 141.946 62.7421Z" fill="#85766B"/>
<path d="M239.899 80.2227C240.49 80.0998 239.822 79.9489 239.908 79.8147C240.565 79.9245 241.181 80.206 241.694 80.6307C241.071 80.6439 240.455 80.5037 239.899 80.2227Z" fill="#817163"/>
<path d="M161.767 52.3073C161.34 52.7638 160.794 53.0913 160.19 53.2524C160.582 52.7543 161.143 52.4178 161.767 52.3073Z" fill="#867564"/>
<path d="M53.9116 310.813C53.5222 310.766 53.0969 310.942 52.751 310.626C53.1395 310.678 53.567 310.488 53.9116 310.813Z" fill="#3C1F1B"/>
<path d="M68.1016 193.431C68.3162 193.503 68.4844 193.381 68.6617 193.297C68.6473 193.495 68.6102 193.707 68.3857 193.74C68.2027 193.767 68.1233 193.604 68.1016 193.431Z" fill="#7D6C5D"/>
<path d="M56.8255 310.821C56.6934 310.944 56.5196 311.012 56.339 311.012C56.1584 311.012 55.9846 310.944 55.8525 310.821H56.8255Z" fill="#3C1F1B"/>
<path d="M50.8079 310.424C50.5397 310.408 50.2488 310.487 50.0371 310.238C50.3044 310.257 50.5973 310.169 50.8079 310.424Z" fill="#3C1F1B"/>
<path d="M51.9704 310.615C51.7572 310.619 51.5411 310.631 51.3916 310.433C51.6031 310.435 51.8217 310.414 51.9704 310.615Z" fill="#3C1F1B"/>
<path d="M294.591 166.132C294.581 166.055 294.596 165.977 294.633 165.909C294.67 165.841 294.728 165.786 294.798 165.753C294.804 165.829 294.787 165.905 294.75 165.973C294.714 166.04 294.658 166.095 294.591 166.132Z" fill="#95836B"/>
<path d="M84.7625 279.198C84.6942 279.161 84.6392 279.103 84.6049 279.033C84.5707 278.963 84.5589 278.884 84.5711 278.807C84.6369 278.847 84.6898 278.906 84.7237 278.975C84.7576 279.044 84.771 279.122 84.7625 279.198Z" fill="#9B876B"/>
<path d="M84.9527 279.591C84.8847 279.553 84.83 279.495 84.7959 279.425C84.7619 279.355 84.7503 279.276 84.7626 279.199C84.8279 279.24 84.8804 279.298 84.914 279.367C84.9477 279.437 84.9611 279.514 84.9527 279.591Z" fill="#9B876B"/>
<path d="M88.2355 152.166C88.23 152.09 88.2449 152.014 88.2787 151.945C88.3125 151.877 88.3639 151.819 88.4278 151.777C88.4372 151.853 88.424 151.931 88.3898 152C88.3557 152.069 88.302 152.127 88.2355 152.166Z" fill="#917D5D"/>
<path d="M88.4277 151.775L88.4418 151.391C88.6305 151.526 88.6121 151.654 88.4277 151.775Z" fill="#917D5D"/>
<path d="M192.78 131.42C192.786 131.497 192.772 131.574 192.74 131.644C192.707 131.714 192.657 131.774 192.594 131.819C192.581 131.741 192.593 131.662 192.626 131.591C192.659 131.52 192.713 131.461 192.78 131.42Z" fill="#88755D"/>
<path d="M192.97 131.023C192.979 131.1 192.966 131.178 192.932 131.249C192.898 131.319 192.846 131.379 192.78 131.421C192.771 131.343 192.784 131.265 192.818 131.194C192.852 131.124 192.904 131.064 192.97 131.023Z" fill="#88755D"/>
<path d="M48.8695 310.035C48.7947 310.04 48.7199 310.026 48.6523 309.994C48.5847 309.961 48.5266 309.912 48.4834 309.851C48.5582 309.846 48.6329 309.86 48.7005 309.893C48.7681 309.925 48.8263 309.974 48.8695 310.035Z" fill="#3C1F1B"/>
<path d="M172.802 109.118C172.794 109.041 172.809 108.963 172.844 108.894C172.879 108.826 172.934 108.769 173.001 108.73C173.007 108.807 172.991 108.884 172.956 108.952C172.921 109.02 172.868 109.078 172.802 109.118Z" fill="#8E7959"/>
<path d="M294.389 166.514C294.383 166.438 294.399 166.362 294.434 166.294C294.47 166.226 294.524 166.17 294.591 166.132C294.601 166.209 294.588 166.287 294.551 166.356C294.515 166.424 294.458 166.48 294.389 166.514Z" fill="#95836B"/>
<path d="M40.1006 241.217C40.3346 241.191 40.5689 241.163 40.7195 241.408C40.6086 241.425 40.4952 241.417 40.3879 241.384C40.2806 241.351 40.1824 241.294 40.1006 241.217Z" fill="#6D5E55"/>
<path d="M133.133 193.707C132.555 193.062 131.984 192.41 131.397 191.774C129.712 189.945 128.024 188.12 126.332 186.298C125.797 185.719 125.793 185.709 126.368 185.163C126.859 184.697 127.39 184.27 127.864 183.786C128.197 183.445 128.416 183.48 128.724 183.818C129.809 185.014 130.921 186.185 132.017 187.37C134.231 189.765 136.443 192.161 138.655 194.558C139.701 195.685 139.71 195.677 138.566 196.74C137.144 198.061 137.148 198.047 135.288 197.494C131.947 196.501 128.6 195.525 125.256 194.543C125.187 194.508 125.109 194.493 125.031 194.5C124.954 194.508 124.88 194.537 124.819 194.585C125.617 195.464 126.407 196.341 127.206 197.21C128.692 198.827 130.186 200.436 131.668 202.056C132.165 202.598 132.157 202.615 131.634 203.126C131.005 203.755 130.335 204.341 129.629 204.882C128.511 203.688 127.404 202.518 126.311 201.336C124.206 199.06 122.106 196.781 120.01 194.497C119.66 194.117 119.31 193.737 118.972 193.346C118.312 192.585 118.314 192.58 119.084 191.878C119.49 191.509 119.924 191.167 120.304 190.773C120.45 190.603 120.647 190.484 120.865 190.434C121.083 190.383 121.312 190.403 121.518 190.49C124.486 191.379 127.464 192.234 130.438 193.1C131.301 193.351 132.163 193.602 133.025 193.853L133.133 193.707Z" fill="#3C1F1B"/>
<path d="M70.2485 251.043C69.1216 249.624 67.7915 248.39 66.5988 247.031C65.7045 246.011 64.7582 245.037 63.8392 244.04C63.3231 243.479 63.3211 243.47 63.8339 242.969C64.3657 242.45 64.9135 241.948 65.4479 241.431C65.4851 241.378 65.5348 241.335 65.5926 241.305C65.6505 241.276 65.7147 241.261 65.7796 241.262C65.8446 241.263 65.9083 241.28 65.9651 241.311C66.022 241.343 66.0703 241.387 66.1058 241.442C66.478 241.846 66.8665 242.234 67.2391 242.638C69.4523 245.034 71.6642 247.432 73.8748 249.83C74.7949 250.827 75.7239 251.816 76.6395 252.817C77.1472 253.372 77.154 253.409 76.6255 253.909C75.9933 254.507 75.4751 255.37 74.6832 255.615C73.9214 255.85 73.0815 255.287 72.2819 255.056C69.2737 254.188 66.2697 253.305 63.2631 252.43C63.0023 252.293 62.7029 252.246 62.4128 252.299C62.4964 252.697 62.8256 252.884 63.0571 253.137C65.106 255.377 67.1665 257.607 69.2168 259.846C69.6652 260.336 69.653 260.348 69.1591 260.816C68.7137 261.239 68.2706 261.663 67.8205 262.081C67.1673 262.687 67.1603 262.689 66.5297 262.008C64.9714 260.325 63.4158 258.64 61.8628 256.953C60.0264 254.956 58.2005 252.95 56.3574 250.96C55.8736 250.437 55.7348 250.443 56.3944 249.83C56.8442 249.412 57.3113 249.009 57.723 248.556C57.8878 248.36 58.112 248.223 58.3615 248.166C58.6111 248.109 58.8724 248.135 59.106 248.239C62.4138 249.233 65.7312 250.195 69.0462 251.164C69.2308 251.218 69.4232 251.246 69.6119 251.286C69.8839 251.361 70.2144 251.591 70.2485 251.043Z" fill="#3C1F1B"/>
<path d="M100.791 231.609C99.9758 232.364 99.1759 233.102 98.3782 233.843C98.1105 234.091 97.844 233.962 97.5681 233.86C95.932 233.258 94.2788 232.698 92.6642 232.043C92.3766 231.879 92.0419 231.816 91.7142 231.865C91.3866 231.915 91.0852 232.074 90.8592 232.316C89.5552 233.52 89.518 233.487 90.6951 234.774C91.5668 235.728 92.4341 236.686 93.3353 237.611C93.6971 237.982 93.679 238.231 93.2989 238.557C92.6153 239.142 91.9584 239.759 91.2379 240.41C90.8199 239.972 90.4371 239.584 90.0671 239.183C87.8318 236.764 85.5985 234.342 83.3671 231.919C82.3396 230.802 81.3331 229.666 80.2934 228.561C79.9825 228.23 79.9546 228.017 80.3095 227.698C81.895 226.274 83.4294 224.791 85.0433 223.4C86.156 222.337 87.6404 221.751 89.1795 221.767C89.9251 221.785 90.6516 222.007 91.2803 222.408C92.2811 222.96 93.0601 223.841 93.4847 224.902C93.9094 225.962 93.9534 227.138 93.6095 228.227C93.4551 228.808 93.6584 228.96 94.1132 229.117C96.0357 229.781 97.9544 230.456 99.8692 231.143C100.216 231.203 100.537 231.365 100.791 231.609Z" fill="#3C1F1B"/>
<path d="M142.946 191.18C140.945 191.266 138.987 190.579 137.478 189.262C136.387 188.348 135.412 187.303 134.575 186.152C133.869 185.285 133.375 184.264 133.136 183.172C132.896 182.079 132.916 180.946 133.195 179.862C133.66 178.463 134.506 177.222 135.638 176.278C136.771 175.335 138.145 174.727 139.605 174.524C141.01 174.475 142.383 174.956 143.451 175.87C143.767 176.111 143.72 176.34 143.452 176.581C142.875 177.099 142.298 177.616 141.732 178.145C141.69 178.194 141.639 178.234 141.581 178.264C141.524 178.293 141.461 178.31 141.396 178.314C141.332 178.319 141.267 178.31 141.206 178.289C141.145 178.268 141.089 178.235 141.041 178.191C140.988 178.155 140.931 178.123 140.873 178.096C140.34 177.716 139.689 177.54 139.037 177.598C138.385 177.657 137.776 177.947 137.319 178.415C136.76 178.841 136.357 179.441 136.176 180.12C135.994 180.799 136.044 181.52 136.317 182.168C136.961 183.654 137.924 184.981 139.138 186.054C139.812 186.8 140.639 187.39 141.564 187.784C142.08 188.024 142.649 188.124 143.216 188.076C143.782 188.027 144.327 187.832 144.795 187.509C145.594 187.009 146.236 186.293 146.645 185.444C146.784 185.224 146.839 184.961 146.8 184.704C146.76 184.447 146.629 184.212 146.43 184.044C146.036 183.662 145.668 183.254 145.328 182.823C145.019 182.447 144.76 182.379 144.387 182.766C143.941 183.23 143.423 183.625 142.96 184.074C142.67 184.354 142.435 184.395 142.156 184.069C141.883 183.75 141.592 183.446 141.294 183.15C140.934 182.793 140.999 182.512 141.364 182.187C142.424 181.242 143.442 180.248 144.518 179.322C144.917 178.978 145.212 178.315 145.791 178.406C146.281 178.483 146.516 179.099 146.871 179.468C147.856 180.491 148.805 181.549 149.783 182.58C149.946 182.733 150.067 182.925 150.136 183.137C150.205 183.35 150.219 183.576 150.177 183.796C149.781 186.046 148.554 188.065 146.739 189.453C145.699 190.43 144.366 191.037 142.946 191.18Z" fill="#3C1F1B"/>
<path d="M77.4075 232.264C78.6746 232.313 79.8933 232.764 80.8882 233.55C81.1888 233.77 81.3444 233.978 80.9628 234.304C80.3988 234.786 79.865 235.305 79.3392 235.829C79.2927 235.895 79.2327 235.949 79.1633 235.99C79.0938 236.03 79.0165 236.055 78.9366 236.063C78.8567 236.071 78.776 236.061 78.7 236.035C78.624 236.009 78.5545 235.967 78.4962 235.912C76.4516 234.358 73.8098 236.228 73.5822 238.336C73.5116 239.115 73.6924 239.896 74.0982 240.564C75.0924 242.309 76.4489 243.821 78.0762 244.997C78.5011 245.294 78.9705 245.52 79.4667 245.669C79.911 245.822 80.3843 245.871 80.8505 245.813C81.3168 245.755 81.7635 245.591 82.1568 245.334C83.0818 244.789 83.8078 243.962 84.228 242.974C84.3189 242.82 84.3576 242.641 84.3382 242.463C84.3188 242.285 84.2424 242.119 84.1204 241.988C83.6771 241.519 83.2409 241.042 82.8219 240.552C82.504 240.179 82.2201 240.139 81.861 240.506C81.4097 240.967 80.9219 241.392 80.4559 241.84C80.1645 242.119 79.942 242.083 79.6432 241.8C78.287 240.518 78.2736 240.524 79.6268 239.249C80.6607 238.275 81.7016 237.309 82.7495 236.35C83.2185 235.92 83.2422 235.93 83.6707 236.397C84.8057 237.633 85.9033 238.907 87.0897 240.092C87.34 240.318 87.523 240.609 87.6183 240.932C87.7136 241.256 87.7176 241.6 87.6298 241.925C87.4436 242.811 87.1098 243.66 86.6425 244.435C85.8167 245.832 84.6705 247.013 83.2985 247.88C82.4162 248.494 81.3856 248.862 80.3134 248.945C79.2412 249.028 78.1663 248.823 77.2001 248.351C74.2964 246.995 72.0325 244.565 70.8857 241.572C70.4004 240.43 70.2822 239.165 70.5475 237.953C70.8129 236.741 71.4486 235.641 72.3666 234.806C73.3856 233.623 74.7427 232.781 76.2551 232.392C76.634 232.311 77.0201 232.268 77.4075 232.264Z" fill="#3C1F1B"/>
<path d="M112.685 220.592C111.924 221.314 111.174 222.017 110.436 222.733C110.156 223.005 109.911 222.865 109.652 222.721C108.918 222.315 108.171 221.93 107.453 221.496C107.373 221.432 107.281 221.385 107.182 221.357C107.083 221.329 106.979 221.321 106.877 221.334C106.775 221.346 106.676 221.379 106.587 221.43C106.498 221.482 106.42 221.55 106.357 221.632C105.317 222.644 104.233 223.612 103.175 224.607C102.44 225.298 102.449 225.305 102.888 226.254C103.186 226.898 103.465 227.551 103.775 228.19C103.86 228.307 103.897 228.453 103.878 228.597C103.858 228.741 103.784 228.871 103.671 228.962C102.905 229.646 102.153 230.344 101.348 231.079C100.846 230.112 100.41 229.11 100.045 228.083C98.3005 223.881 96.5846 219.668 94.8598 215.458C94.5188 214.625 94.5201 214.622 95.1946 213.974C95.5901 213.593 95.996 213.223 96.3892 212.841C96.5128 212.691 96.6882 212.594 96.8803 212.569C97.0724 212.543 97.2671 212.592 97.4252 212.703C98.1566 213.113 98.9191 213.468 99.668 213.847C103.758 215.915 107.848 217.984 111.937 220.055C112.232 220.159 112.491 220.346 112.685 220.592Z" fill="#3C1F1B"/>
<path d="M54.3458 251.898C54.4269 251.937 54.5027 251.987 54.5713 252.045C54.9889 252.494 55.3936 252.956 55.815 253.401C56.0541 253.654 55.9789 253.842 55.7543 254.05C54.9489 254.796 54.1547 255.555 53.3502 256.303C52.4986 257.094 51.6426 257.881 50.7823 258.662C50.5952 258.832 50.4664 258.987 50.6609 259.23C51.3886 260.14 52.2351 260.94 53.0337 261.785C53.0657 261.822 53.1055 261.851 53.1503 261.871C53.195 261.89 53.2436 261.9 53.2924 261.898C53.3412 261.897 53.3891 261.884 53.4326 261.862C53.476 261.84 53.5139 261.808 53.5435 261.769C53.7105 261.617 53.8756 261.462 54.0411 261.308C55.2231 260.208 56.4001 259.102 57.5892 258.009C58.083 257.556 58.142 257.569 58.5991 258.062C58.7087 258.181 58.8018 258.314 58.9077 258.436C59.8187 259.483 59.8232 259.487 58.7759 260.472C57.6935 261.49 56.6117 262.508 55.5087 263.503C55.1493 263.827 55.083 264.075 55.4425 264.448C56.25 265.284 57.0297 266.147 57.8156 267.004C57.8529 267.057 57.9023 267.101 57.9596 267.132C58.0169 267.162 58.0807 267.179 58.1457 267.18C58.2107 267.182 58.2752 267.168 58.3338 267.14C58.3925 267.112 58.4437 267.07 58.4834 267.019C58.7967 266.74 59.1222 266.474 59.4296 266.188C60.7313 264.979 62.0253 263.762 63.3283 262.555C63.8359 262.085 63.8479 262.089 64.3237 262.571C64.641 262.894 64.9362 263.237 65.2542 263.559C65.6029 263.911 65.5685 264.192 65.1957 264.525C64.208 265.406 63.2498 266.321 62.2761 267.218C60.8514 268.531 59.4248 269.843 57.9965 271.152C57.4597 271.645 57.4422 271.659 56.9422 271.12C53.8895 267.829 50.8411 264.533 47.7971 261.234C47.3584 260.76 46.929 260.276 46.4671 259.825C46.1276 259.493 46.1726 259.256 46.5074 258.951C47.748 257.819 48.9659 256.662 50.1999 255.523C51.3863 254.428 52.578 253.338 53.7751 252.255C53.9371 252.107 54.067 251.9 54.3458 251.898Z" fill="#3C1F1B"/>
<path d="M114.897 212.774C114.845 212.36 114.702 211.962 114.477 211.61C112.89 208.359 111.299 205.109 109.704 201.862C109.28 200.995 109.268 200.979 109.989 200.324C110.602 199.646 111.295 199.045 112.053 198.535C112.585 199.43 113.031 200.373 113.385 201.351C115.159 205.368 116.917 209.393 118.657 213.425C119.296 214.899 119.23 214.536 118.227 215.528C117.837 215.913 117.392 216.243 117.007 216.633C116.875 216.796 116.685 216.901 116.477 216.926C116.269 216.951 116.059 216.894 115.892 216.768C113.338 215.381 110.767 214.023 108.205 212.65C106.014 211.474 103.825 210.295 101.638 209.11C100.913 208.718 100.913 208.662 101.518 208.113C102.044 207.635 102.565 207.152 103.091 206.675C103.682 206.14 103.724 206.132 104.431 206.552C106.375 207.706 108.317 208.863 110.257 210.023C111.752 210.913 113.25 211.798 114.897 212.774Z" fill="#3C1F1B"/>
<path d="M115.872 194.901C116.454 195.372 116.986 195.9 117.461 196.478C119.547 198.725 121.617 200.987 123.696 203.242C124.703 204.333 125.721 205.415 126.725 206.508C127.285 207.118 127.283 207.132 126.655 207.723C126.162 208.187 125.637 208.619 125.153 209.093C124.843 209.395 124.65 209.342 124.37 209.036C122.976 207.511 121.553 206.013 120.15 204.496C118.09 202.268 116.034 200.036 113.983 197.801C113.369 197.134 113.368 197.138 114.051 196.53C114.652 195.996 115.25 195.458 115.872 194.901Z" fill="#3C1F1B"/>
<path d="M70.2488 251.043C70.3588 251.097 70.4542 251.177 70.5269 251.275C70.5997 251.374 70.6476 251.489 70.6667 251.61C70.2935 251.592 69.9308 251.481 69.6123 251.286C69.8471 251.264 70.0966 251.281 70.2488 251.043Z" fill="#B39C71"/>
<path d="M90.8001 227.642C90.8228 228.2 90.6256 228.745 90.2508 229.159C89.586 229.907 88.863 230.6 88.0885 231.234C87.8426 231.442 87.6565 231.45 87.4336 231.207C86.4748 230.161 85.5076 229.122 84.5425 228.082C84.4976 228.046 84.4616 228.001 84.4372 227.95C84.4129 227.898 84.401 227.841 84.4025 227.784C84.4039 227.727 84.4187 227.671 84.4456 227.621C84.4726 227.571 84.5109 227.527 84.5575 227.494C85.267 226.744 86.0377 226.055 86.8618 225.433C87.2112 225.166 87.6328 225.011 88.0716 224.988C88.5105 224.965 88.9461 225.075 89.3215 225.303C89.7541 225.526 90.1192 225.86 90.3792 226.271C90.6391 226.682 90.7844 227.155 90.8001 227.642Z" fill="#E5E4E1"/>
<path d="M98.7067 216.644L104.199 219.699C103.383 220.822 102.375 221.792 101.222 222.566C100.331 220.631 99.446 218.711 98.5615 216.792L98.7067 216.644Z" fill="#E5E4E1"/>
</g>
<g style="mix-blend-mode:hue">
<rect width="320" height="320" fill="#00BF13"/>
</g>
</g>
<defs>
<clipPath id="clip0_1431_167">
<rect width="320" height="320" fill="white"/>
</clipPath>
<clipPath id="clip1_1431_167">
<rect width="320" height="285.935" fill="white" transform="translate(0 34)"/>
</clipPath>
</defs>
</svg>
