<svg width="320" height="320" viewBox="0 0 320 320" fill="none" xmlns="http://www.w3.org/2000/svg">
<g clip-path="url(#clip0_1423_4176)">
<rect width="320" height="320" fill="#DCFFE0"/>
<g clip-path="url(#clip1_1423_4176)">
<path d="M55 117.889H265" stroke="#3C1F1B" stroke-width="6.88" stroke-miterlimit="2.6131"/>
<path fill-rule="evenodd" clip-rule="evenodd" d="M89.9375 117.889H237.576V185.886C237.563 190.415 235.758 194.755 232.555 197.958C229.352 201.16 225.012 202.965 220.483 202.978H107.03C102.501 202.965 98.161 201.16 94.9584 197.958C91.7557 194.755 89.9507 190.415 89.9375 185.886L89.9375 117.889Z" fill="#DCCDB3" stroke="#3C1F1B" stroke-width="6.88" stroke-miterlimit="2.6131"/>
<path d="M113.433 169.421V148.715H121.724C123.247 148.715 124.517 148.941 125.535 149.392C126.553 149.844 127.318 150.471 127.83 151.273C128.342 152.068 128.599 152.985 128.599 154.023C128.599 154.832 128.437 155.543 128.113 156.156C127.79 156.763 127.345 157.261 126.779 157.652C126.219 158.037 125.579 158.31 124.858 158.471V158.674C125.646 158.707 126.384 158.93 127.072 159.341C127.766 159.752 128.329 160.328 128.76 161.07C129.192 161.804 129.407 162.68 129.407 163.698C129.407 164.797 129.134 165.778 128.588 166.64C128.049 167.496 127.251 168.174 126.192 168.672C125.134 169.171 123.83 169.421 122.28 169.421H113.433ZM117.811 165.842H121.38C122.6 165.842 123.49 165.609 124.049 165.144C124.608 164.672 124.888 164.045 124.888 163.263C124.888 162.691 124.75 162.185 124.474 161.747C124.197 161.309 123.803 160.965 123.291 160.716C122.785 160.466 122.182 160.342 121.481 160.342H117.811V165.842ZM117.811 157.379H121.056C121.656 157.379 122.189 157.275 122.654 157.066C123.126 156.85 123.496 156.547 123.766 156.156C124.042 155.765 124.18 155.297 124.18 154.751C124.18 154.003 123.914 153.399 123.382 152.941C122.856 152.483 122.108 152.254 121.137 152.254H117.811V157.379ZM132.256 169.421V148.715H140.425C141.989 148.715 143.323 148.995 144.428 149.554C145.541 150.107 146.386 150.892 146.966 151.91C147.552 152.921 147.846 154.11 147.846 155.479C147.846 156.854 147.549 158.037 146.956 159.027C146.363 160.011 145.503 160.766 144.378 161.292C143.259 161.818 141.904 162.081 140.314 162.081H134.844V158.562H139.606C140.442 158.562 141.136 158.448 141.689 158.219C142.241 157.989 142.652 157.646 142.922 157.187C143.198 156.729 143.337 156.159 143.337 155.479C143.337 154.791 143.198 154.212 142.922 153.74C142.652 153.268 142.238 152.911 141.679 152.668C141.126 152.419 140.428 152.294 139.586 152.294H136.634V169.421H132.256ZM143.438 159.998L148.584 169.421H143.751L138.716 159.998H143.438ZM154.508 169.421H149.817L156.965 148.715H162.606L169.744 169.421H165.053L159.867 153.447H159.705L154.508 169.421ZM154.215 161.282H165.296V164.699H154.215V161.282ZM189.555 148.715V169.421H185.774L176.766 156.389H176.614V169.421H172.236V148.715H176.078L185.015 161.737H185.197V148.715H189.555ZM200.512 169.421H193.172V148.715H200.572C202.655 148.715 204.448 149.13 205.951 149.959C207.454 150.781 208.61 151.964 209.419 153.507C210.234 155.051 210.642 156.898 210.642 159.048C210.642 161.204 210.234 163.058 209.419 164.608C208.61 166.158 207.447 167.348 205.931 168.177C204.421 169.006 202.615 169.421 200.512 169.421ZM197.549 165.67H200.33C201.624 165.67 202.712 165.441 203.595 164.982C204.485 164.517 205.152 163.799 205.597 162.829C206.049 161.851 206.274 160.591 206.274 159.048C206.274 157.518 206.049 156.267 205.597 155.297C205.152 154.326 204.488 153.612 203.605 153.153C202.722 152.695 201.634 152.466 200.34 152.466H197.549V165.67Z" fill="#3C1F1B"/>
</g>
<g style="mix-blend-mode:hue">
<rect width="320" height="320" fill="#00BF13"/>
</g>
</g>
<defs>
<clipPath id="clip0_1423_4176">
<rect width="320" height="320" fill="white"/>
</clipPath>
<clipPath id="clip1_1423_4176">
<rect width="210" height="90.8672" fill="white" transform="translate(55 115)"/>
</clipPath>
</defs>
</svg>
