<svg width="320" height="320" viewBox="0 0 320 320" fill="none" xmlns="http://www.w3.org/2000/svg">
<rect width="320" height="320" fill="#F2F2EA"/>
<path d="M77.0348 77.5122C76.7819 74.8566 78.7297 72.4991 81.385 72.2461L209.605 60.0356C212.26 59.7829 214.618 61.7305 214.871 64.3861L230.744 231.072C230.997 233.727 229.049 236.085 226.394 236.338L98.1744 248.548C95.5189 248.801 93.1611 246.853 92.9082 244.198L77.0348 77.5122Z" fill="#DCCDB3"/>
<path fill-rule="evenodd" clip-rule="evenodd" d="M75.0313 77.702C74.6729 73.94 77.4323 70.6 81.1942 70.2418L209.414 58.0313C213.176 57.6731 216.516 60.4322 216.874 64.1942L232.748 230.88C233.106 234.642 230.347 237.982 226.585 238.34L98.3651 250.551C94.6031 250.909 91.2629 248.149 90.9047 244.387L75.0313 77.702ZM81.5757 74.2486C80.0268 74.396 78.8907 75.7713 79.0381 77.3205L94.9115 244.006C95.0592 245.555 96.4344 246.691 97.9834 246.543L226.203 234.333C227.752 234.186 228.888 232.81 228.741 231.261L212.867 64.5759C212.72 63.0267 211.344 61.8906 209.795 62.0381L81.5757 74.2486Z" fill="#3C1F1B"/>
<path d="M104.316 87.7182C104.316 85.0506 106.479 82.8881 109.146 82.8881H237.946C240.614 82.8881 242.776 85.0506 242.776 87.7182V255.158C242.776 257.825 240.614 259.988 237.946 259.988H109.146C106.479 259.988 104.316 257.825 104.316 255.158V87.7182Z" fill="white"/>
<path fill-rule="evenodd" clip-rule="evenodd" d="M102.305 87.7181C102.305 83.9392 105.368 80.8756 109.147 80.8756H237.947C241.726 80.8756 244.789 83.9392 244.789 87.7181V255.158C244.789 258.936 241.726 262 237.947 262H109.147C105.368 262 102.305 258.936 102.305 255.158V87.7181ZM109.147 84.9006C107.591 84.9006 106.33 86.162 106.33 87.7181V255.158C106.33 256.714 107.591 257.975 109.147 257.975H237.947C239.503 257.975 240.764 256.714 240.764 255.158V87.7181C240.764 86.162 239.503 84.9006 237.947 84.9006H109.147Z" fill="#3C1F1B"/>
<path d="M226.452 187.494H171.35C169.219 187.494 167.491 189.221 167.491 191.352V227.608C167.491 229.739 169.219 231.466 171.35 231.466H226.452C228.583 231.466 230.311 229.739 230.311 227.608V191.352C230.311 189.221 228.583 187.494 226.452 187.494Z" fill="white"/>
<path d="M174 141.145C153.598 141.145 137 153.316 137 168.278V174.444C137 184.257 144.179 193.247 155.768 198.047C156.67 201.543 159.797 204.007 163.407 204.066C167.018 204.126 170.225 201.766 171.241 198.301C172.258 194.836 170.835 191.118 167.765 189.217C164.695 187.315 160.733 187.699 158.084 190.153C147.97 186.396 141.159 179.423 139.751 171.358C141.906 159.04 156.575 149.778 174 149.778C191.425 149.778 206.09 159.036 208.251 171.361C206.845 179.425 200.028 186.394 189.916 190.154C187.27 187.705 183.314 187.324 180.249 189.223C177.184 191.123 175.764 194.835 176.779 198.295C177.795 201.755 180.995 204.111 184.6 204.053C188.206 203.995 191.328 201.538 192.232 198.047C203.821 193.247 211 184.257 211 174.444V168.278C211 153.316 194.402 141.145 174 141.145ZM169.067 196.028C169.067 199.093 166.582 201.578 163.516 201.578C160.451 201.578 157.967 199.093 157.967 196.028C157.967 192.963 160.451 190.478 163.516 190.478C166.58 190.481 169.063 192.964 169.067 196.028ZM156.487 192.18C155.964 193.132 155.641 194.181 155.538 195.263C147.492 191.625 141.961 185.804 140.133 179.235C143.405 184.717 149.099 189.281 156.487 192.18ZM174 147.311C158.989 147.311 145.869 153.91 140.115 163.529C143.223 152.193 157.226 143.611 174 143.611C190.774 143.611 204.782 152.197 207.886 163.536C202.132 153.91 189.012 147.311 174 147.311ZM184.484 201.578C181.418 201.578 178.933 199.093 178.933 196.028C178.933 192.963 181.418 190.478 184.484 190.478C187.549 190.478 190.033 192.963 190.033 196.028C190.03 199.091 187.547 201.574 184.484 201.578ZM192.462 195.268C192.359 194.187 192.036 193.137 191.513 192.185C198.901 189.286 204.594 184.723 207.866 179.245C206.037 185.806 200.506 191.625 192.462 195.268Z" fill="#3C1F1B"/>
<path d="M163.517 199.111C163.679 199.111 163.839 199.079 163.989 199.017C164.138 198.955 164.274 198.864 164.389 198.75C164.503 198.635 164.594 198.499 164.656 198.35C164.718 198.2 164.75 198.04 164.75 197.878C164.75 197.716 164.718 197.555 164.656 197.406C164.594 197.256 164.503 197.12 164.389 197.006C164.274 196.891 164.138 196.8 163.989 196.738C163.839 196.676 163.679 196.645 163.517 196.645C163.353 196.645 163.196 196.58 163.081 196.464C162.965 196.348 162.9 196.191 162.9 196.028C162.9 195.701 162.77 195.387 162.539 195.156C162.308 194.925 161.994 194.795 161.667 194.795C161.34 194.795 161.026 194.925 160.795 195.156C160.564 195.387 160.434 195.701 160.434 196.028C160.434 197.731 161.814 199.111 163.517 199.111ZM184.484 196.645C184.143 196.645 183.867 196.368 183.867 196.028C183.867 195.866 183.835 195.706 183.773 195.556C183.711 195.406 183.62 195.27 183.506 195.156C183.391 195.041 183.255 194.951 183.105 194.889C182.956 194.827 182.795 194.795 182.633 194.795C182.471 194.795 182.311 194.827 182.161 194.889C182.012 194.951 181.876 195.041 181.761 195.156C181.647 195.27 181.556 195.406 181.494 195.556C181.432 195.706 181.4 195.866 181.4 196.028C181.4 197.731 182.781 199.111 184.484 199.111C184.811 199.111 185.125 198.981 185.356 198.75C185.587 198.519 185.717 198.205 185.717 197.878C185.717 197.551 185.587 197.237 185.356 197.006C185.125 196.774 184.811 196.645 184.484 196.645Z" fill="#3C1F1B"/>
</svg>
