<svg width="320" height="320" viewBox="0 0 320 320" fill="none" xmlns="http://www.w3.org/2000/svg">
<rect width="320" height="320" fill="#EFE2C1"/>
<path d="M188.361 138.833L188.167 251.837C188.157 256.061 185.379 260.274 179.837 263.5C168.67 269.986 150.516 269.991 139.277 263.5C133.623 260.24 130.796 255.949 130.811 251.672L131.005 138.667C130.991 142.949 133.818 147.231 139.471 150.496C150.711 156.987 168.86 156.982 180.026 150.496C185.573 147.27 188.347 143.051 188.361 138.833Z" fill="#CEB57E"/>
<path d="M180.027 150.496C170.266 156.169 155.158 156.885 144.006 152.637L144.006 265.704C155.139 269.874 170.125 269.139 179.837 263.5C185.384 260.274 188.157 256.056 188.172 251.837L188.366 138.833C188.352 143.056 185.573 147.27 180.027 150.496Z" fill="#CEB57E"/>
<path d="M180.026 150.496C177.991 151.657 175.836 152.595 173.599 153.294L173.599 266.24C175.832 265.51 177.934 264.6 179.837 263.5C185.383 260.274 188.157 256.056 188.171 251.837L188.366 138.833C188.351 143.056 185.573 147.27 180.026 150.496Z" fill="#BD9C52"/>
<path d="M179.895 127.004C191.135 133.495 191.193 144.005 180.026 150.496C168.86 156.986 150.706 156.986 139.471 150.496C128.232 144.01 128.173 133.49 139.34 127.004C150.502 120.514 168.66 120.519 179.895 127.004Z" fill="#7C512E"/>
<path d="M186.055 104.151L185.875 137.228C185.865 141.111 183.311 144.989 178.212 147.957C167.945 153.922 151.241 153.927 140.907 147.957C135.706 144.954 133.107 141.013 133.122 137.077L133.297 103.996C133.287 107.932 135.886 111.878 141.082 114.875C151.422 120.845 168.12 120.84 178.387 114.875C183.491 111.907 186.041 108.034 186.055 104.151Z" fill="#D6D4D2"/>
<path d="M178.386 114.874C169.409 120.09 155.518 120.747 145.251 116.84L145.251 149.985C155.494 153.819 169.283 153.142 178.211 147.956C183.31 144.988 185.865 141.11 185.875 137.227L186.055 104.146C186.04 108.028 183.49 111.906 178.386 114.874Z" fill="#C4C2C0"/>
<path d="M178.387 114.874C176.591 115.915 174.591 116.772 172.475 117.448L172.475 150.476C174.528 149.805 176.465 148.968 178.211 147.956C183.311 144.988 185.865 141.11 185.875 137.227L186.055 104.146C186.04 108.028 183.491 111.906 178.387 114.874Z" fill="#B2B0AF"/>
<path d="M178.265 93.2708C188.6 99.2361 188.658 108.904 178.387 114.874C168.12 120.839 151.421 120.844 141.087 114.874C130.752 108.904 130.694 99.2312 140.965 93.2659C151.232 87.3007 167.93 87.3007 178.265 93.2659V93.2708Z" fill="#E9E8E6"/>
<path d="M177.311 84.3766L177.19 102.297C177.185 104.9 175.472 107.493 172.056 109.478C165.181 113.478 154 113.478 147.076 109.478C143.593 107.474 141.855 104.832 141.86 102.195L141.982 84.2744C141.972 86.9116 143.714 89.5488 147.198 91.5583C154.117 95.5578 165.298 95.5529 172.178 91.5583C175.594 89.5731 177.302 86.9748 177.311 84.3766Z" fill="#DD4A4A"/>
<path d="M172.178 91.5591C166.164 95.0526 156.861 95.4954 149.99 92.8728L149.99 110.842C156.851 113.406 166.076 112.958 172.056 109.479C175.472 107.494 177.184 104.901 177.189 102.298L177.311 84.3774C177.301 86.9757 175.593 89.5739 172.178 91.5591Z" fill="#CC4848"/>
<path d="M172.178 91.5591C170.976 92.2598 169.638 92.8242 168.218 93.2815L168.218 111.168C169.595 110.72 170.889 110.16 172.061 109.479C175.472 107.494 177.185 104.901 177.19 102.298L177.311 84.3774C177.302 86.9757 175.594 89.5739 172.178 91.5591Z" fill="#C44141"/>
<path d="M172.095 77.0927C179.019 81.0825 179.053 87.5635 172.178 91.5582C165.303 95.5529 154.117 95.5577 147.198 91.5582C140.274 87.5684 140.24 81.0874 147.115 77.0878C153.99 73.0883 165.176 73.098 172.095 77.0878V77.0927Z" fill="#F25A5A"/>
<path d="M150.127 78.635C144.902 81.6712 144.926 86.5952 150.186 89.6314C152.789 91.1397 156.19 91.889 159.591 91.9036L159.591 76.3579C156.161 76.3579 152.73 77.1218 150.127 78.635Z" fill="#CC4848"/>
<path d="M169.108 78.635C166.471 77.1169 163.026 76.3579 159.591 76.3579L159.591 91.9036C163.06 91.9182 166.529 91.164 169.166 89.6314C174.392 86.5952 174.363 81.6712 169.108 78.635Z" fill="#C44141"/>
<path d="M188.355 67.8886L188.161 136.144C188.151 140.367 185.373 144.586 179.826 147.807C168.664 154.292 150.506 154.297 139.271 147.807C133.617 144.547 130.79 140.26 130.805 135.983L130.999 67.7231C130.985 72.0049 133.807 76.2867 139.466 79.5515C150.705 86.0422 168.854 86.0374 180.021 79.5515C185.567 76.3256 188.341 72.1071 188.355 67.8886Z" fill="#CEB57E"/>
<path d="M180.021 79.5511C170.261 85.2244 155.153 85.9348 143.996 81.692L143.996 150.01C155.134 154.18 170.125 153.445 179.827 147.806C185.373 144.585 188.147 140.367 188.161 136.143L188.356 67.8882C188.346 72.1116 185.568 76.3252 180.021 79.5511Z" fill="#CEB57E"/>
<path d="M180.021 79.5511C177.985 80.7122 175.83 81.6502 173.593 82.3488L173.593 150.546C175.827 149.816 177.929 148.911 179.826 147.806C185.373 144.585 188.146 140.367 188.161 136.143L188.356 67.8882C188.346 72.1116 185.568 76.3252 180.021 79.5511Z" fill="#BD9C52"/>
<path d="M187.857 67.8082C187.835 63.7982 185.169 59.6858 179.639 56.4927C174.113 53.3039 166.855 51.6953 159.58 51.6953C152.305 51.6953 145.067 53.3039 139.581 56.492C134.092 59.6814 131.475 63.7914 131.499 67.8006C131.522 71.8113 134.189 75.925 139.716 79.1181C145.24 82.3093 152.495 83.9178 159.769 83.9172C167.043 83.9166 174.28 82.3069 179.77 79.1187L187.857 67.8082ZM187.857 67.8082C187.88 71.8167 185.261 75.9267 179.77 79.1186L187.857 67.8082Z" fill="#D9C290" stroke="#86766A"/>
<path d="M154.366 189.863L165.275 189.863L165.275 194.231C165.275 195.033 165.156 195.703 164.918 196.239C164.68 196.775 164.35 197.178 163.928 197.448C163.509 197.718 163.026 197.853 162.479 197.853C162.053 197.853 161.678 197.768 161.355 197.597C161.035 197.427 160.772 197.192 160.566 196.894C160.364 196.599 160.22 196.262 160.135 195.882L160.028 195.882C160.011 196.297 159.894 196.686 159.677 197.048C159.46 197.414 159.157 197.711 158.766 197.938C158.379 198.165 157.917 198.279 157.381 198.279C156.802 198.279 156.286 198.135 155.831 197.847C155.38 197.563 155.023 197.143 154.76 196.585C154.498 196.027 154.366 195.34 154.366 194.524L154.366 189.863ZM156.252 192.169L156.252 194.049C156.252 194.692 156.374 195.161 156.619 195.456C156.868 195.75 157.198 195.898 157.61 195.898C157.912 195.898 158.178 195.825 158.409 195.679C158.64 195.534 158.821 195.326 158.953 195.056C159.084 194.79 159.15 194.472 159.15 194.103L159.15 192.169L156.252 192.169ZM160.71 192.169L160.71 193.879C160.71 194.195 160.765 194.476 160.875 194.721C160.989 194.969 161.149 195.165 161.355 195.307C161.561 195.452 161.808 195.525 162.095 195.525C162.489 195.525 162.807 195.385 163.049 195.104C163.29 194.827 163.411 194.433 163.411 193.922L163.411 192.169L160.71 192.169ZM154.366 199.78L165.275 199.78L165.275 204.084C165.275 204.908 165.128 205.611 164.833 206.193C164.542 206.779 164.128 207.225 163.592 207.53C163.059 207.839 162.433 207.993 161.712 207.993C160.987 207.993 160.364 207.837 159.842 207.525C159.324 207.212 158.926 206.759 158.649 206.166C158.372 205.577 158.233 204.863 158.233 204.025L158.233 201.143L160.087 201.143L160.087 203.652C160.087 204.093 160.147 204.458 160.268 204.75C160.389 205.041 160.57 205.257 160.812 205.399C161.053 205.545 161.353 205.618 161.712 205.618C162.074 205.618 162.379 205.545 162.628 205.399C162.877 205.257 163.065 205.039 163.193 204.744C163.324 204.453 163.39 204.085 163.39 203.642L163.39 202.086L154.366 202.086L154.366 199.78ZM159.331 205.671L154.366 208.382L154.366 205.836L159.331 203.183L159.331 205.671ZM154.366 211.504L154.366 209.032L165.275 212.798L165.275 215.77L154.366 219.531L154.366 217.06L162.782 214.327L162.782 214.242L154.366 211.504ZM158.654 211.349L158.654 217.187L156.854 217.187L156.854 211.349L158.654 211.349ZM165.275 229.969L154.366 229.969L154.366 227.977L161.232 223.231L161.232 223.151L154.366 223.151L154.366 220.844L165.275 220.844L165.275 222.868L158.415 227.577L158.415 227.673L165.275 227.673L165.275 229.969ZM154.366 235.742L154.366 231.874L165.275 231.874L165.275 235.774C165.275 236.871 165.057 237.815 164.62 238.607C164.187 239.399 163.564 240.008 162.75 240.434C161.937 240.864 160.964 241.079 159.831 241.079C158.695 241.079 157.718 240.864 156.902 240.434C156.085 240.008 155.458 239.396 155.021 238.597C154.585 237.801 154.366 236.85 154.366 235.742ZM156.342 234.181L156.342 235.646C156.342 236.328 156.463 236.901 156.705 237.366C156.95 237.835 157.328 238.187 157.839 238.421C158.354 238.659 159.018 238.778 159.831 238.778C160.638 238.778 161.296 238.659 161.808 238.421C162.319 238.187 162.695 237.837 162.937 237.372C163.178 236.906 163.299 236.333 163.299 235.651L163.299 234.181L156.342 234.181Z" fill="#7C512E"/>
</svg>
