<svg width="320" height="320" viewBox="0 0 320 320" fill="none" xmlns="http://www.w3.org/2000/svg">
<g clip-path="url(#clip0_2120_442)">
<rect width="320" height="320" fill="#EFE2C1"/>
<rect x="120.5" y="46.5" width="79" height="226" fill="#CEB57E" stroke="#86766A"/>
<path d="M174.582 100.343C173.958 97.3612 172.131 95.972 170.143 95.8674C169.5 94.6004 164.796 91.5247 160.63 93.8379C159.842 93.4092 157.439 93.3439 156.444 93.3784C153.698 93.4729 151.186 94.2179 149.185 95.5323C144.653 98.5078 143.028 104.514 143.809 106.041C140.482 109.042 139.139 118.754 145.33 121.679C146.641 126.339 150.168 128.116 155.838 125.116C158.551 129.13 161.468 129.912 163.47 129.842C166.793 129.728 169.361 127.319 170.407 126.163C176.922 124.678 178.804 118.851 176.92 113.58C176.919 113.576 176.917 113.572 176.915 113.568C179.499 111.004 180.526 102.985 174.582 100.343Z" fill="#5B4334"/>
<path d="M150.667 104.795C150.667 104.795 148.656 111.011 154.673 113.551C160.69 116.091 164.172 116.405 166.096 119.52C166.096 119.52 164.793 117.83 161.666 118.95C158.54 120.07 148.262 130.402 146.421 120.053C146.421 120.053 141.707 119.204 142.508 112.813C143.31 106.423 146.309 105.379 150.667 104.795Z" fill="#CEB57E"/>
<path d="M154.584 112.108C154.584 112.108 153.415 101.881 163.256 99.5173C163.256 99.5173 152.852 94.959 151.672 103.821C151.672 103.821 150.463 110.081 154.584 112.108Z" fill="#CEB57E"/>
<path d="M157.343 105.072C157.343 105.072 153.971 110.827 156.772 113.045C159.573 115.262 161.512 114.328 166.702 112.124C166.702 112.124 166.09 110.844 163.778 110.056C161.465 109.268 158.487 108.503 159.752 105.278C159.752 105.278 157.865 104.909 157.343 105.072ZM158.059 103.745C158.059 103.745 163.445 102.548 164.902 108.86C164.902 108.86 167.194 105.022 164.028 101.226C164.028 101.226 161.645 101.453 158.059 103.745Z" fill="#CEB57E"/>
<path d="M165.434 100.274C165.434 100.274 170.655 100.708 171.11 105.899C171.565 111.089 165.783 114.47 164.562 116.247C164.562 116.247 165.827 117.324 167.015 119.308C167.015 119.308 167.12 116.972 169.955 115.194C173.875 112.735 176.293 112.698 176.994 109.528C177.963 105.158 176.551 102.385 172.996 101.423C172.996 101.423 173.004 96.0699 168.568 97.6709C167.537 98.0436 167.121 99.0295 165.434 100.274Z" fill="#CEB57E"/>
<path d="M166.093 102.312C166.093 102.312 168.497 106.712 165.885 109.694C165.885 109.694 166.967 109.946 167.322 111.38C167.322 111.38 170.385 109.25 169.763 105.656C169.141 102.062 166.093 102.312 166.093 102.312ZM150.534 103.371C150.534 103.371 150.905 97.3722 157.399 97.4056L159.617 95.0511C159.617 95.0511 147.367 92.4003 144.931 104.631C144.931 104.631 147.876 103.463 150.534 103.371ZM158.879 97.6434C158.879 97.6434 162.092 91.4954 168.474 96.1563C168.474 96.1563 166.215 96.7761 164.569 99.2186C164.569 99.2189 160.19 97.3093 158.879 97.6434ZM156.894 123.597C156.894 123.597 159.642 120.954 162.776 120.213C164.222 119.871 165.693 120.341 167.116 120.931C167.116 120.931 169.312 116.083 175.35 114.14C175.35 114.14 178.413 122.711 169.457 124.321C169.457 124.321 162.801 132.938 156.894 123.597ZM160.86 105.963C160.86 105.963 160.578 107.852 163.546 108.473C163.546 108.473 164.927 107.124 160.86 105.963Z" fill="#CEB57E"/>
<path d="M136.888 62V52.5455H140.673C141.369 52.5455 141.949 52.6486 142.414 52.8548C142.878 53.061 143.228 53.3472 143.462 53.7134C143.695 54.0766 143.812 54.4951 143.812 54.9691C143.812 55.3384 143.739 55.6631 143.591 55.9432C143.443 56.2202 143.24 56.4479 142.981 56.6264C142.726 56.8018 142.434 56.9265 142.104 57.0004V57.0927C142.464 57.1081 142.801 57.2096 143.115 57.3974C143.432 57.5851 143.689 57.8482 143.886 58.1868C144.083 58.5223 144.182 58.9223 144.182 59.3871C144.182 59.8887 144.057 60.3365 143.808 60.7305C143.562 61.1213 143.197 61.4306 142.714 61.6584C142.23 61.8861 141.635 62 140.927 62H136.888ZM138.887 60.3658H140.516C141.073 60.3658 141.48 60.2596 141.735 60.0472C141.99 59.8318 142.118 59.5456 142.118 59.1886C142.118 58.927 142.055 58.6961 141.929 58.4961C141.803 58.296 141.623 58.1391 141.389 58.0252C141.158 57.9113 140.882 57.8544 140.562 57.8544H138.887V60.3658ZM138.887 56.5018H140.368C140.642 56.5018 140.886 56.4541 141.098 56.3587C141.313 56.2602 141.483 56.1217 141.606 55.9432C141.732 55.7647 141.795 55.5508 141.795 55.3015C141.795 54.9599 141.673 54.6844 141.43 54.4751C141.19 54.2659 140.849 54.1612 140.405 54.1612H138.887V56.5018ZM145.482 62V52.5455H149.212C149.927 52.5455 150.536 52.6732 151.041 52.9286C151.548 53.181 151.935 53.5395 152.199 54.0043C152.467 54.4659 152.601 55.0091 152.601 55.6339C152.601 56.2617 152.466 56.8018 152.195 57.2543C151.924 57.7036 151.532 58.0483 151.018 58.2884C150.507 58.5284 149.888 58.6484 149.162 58.6484H146.664V57.0419H148.839C149.22 57.0419 149.537 56.9896 149.79 56.8849C150.042 56.7803 150.23 56.6233 150.353 56.4141C150.479 56.2048 150.542 55.9447 150.542 55.6339C150.542 55.32 150.479 55.0553 150.353 54.8398C150.23 54.6244 150.04 54.4613 149.785 54.3505C149.533 54.2366 149.214 54.1797 148.829 54.1797H147.481V62H145.482ZM150.588 57.6974L152.938 62H150.731L148.432 57.6974H150.588ZM155.643 62H153.501L156.765 52.5455H159.341L162.6 62H160.458L158.09 54.706H158.016L155.643 62ZM155.509 58.2837H160.569V59.8441H155.509V58.2837ZM171.646 52.5455V62H169.92L165.806 56.0494H165.737V62H163.738V52.5455H165.492L169.573 58.4915H169.657V52.5455H171.646ZM176.649 62H173.298V52.5455H176.677C177.628 52.5455 178.447 52.7347 179.133 53.1133C179.819 53.4888 180.347 54.0289 180.716 54.7337C181.089 55.4384 181.275 56.2817 181.275 57.2635C181.275 58.2483 181.089 59.0947 180.716 59.8026C180.347 60.5104 179.816 61.0536 179.124 61.4322C178.434 61.8107 177.61 62 176.649 62ZM175.297 60.2873H176.566C177.157 60.2873 177.654 60.1826 178.057 59.9734C178.464 59.761 178.768 59.4332 178.971 58.9901C179.178 58.5438 179.281 57.9683 179.281 57.2635C179.281 56.5649 179.178 55.994 178.971 55.5508C178.768 55.1076 178.465 54.7814 178.062 54.5721C177.659 54.3628 177.162 54.2582 176.571 54.2582H175.297V60.2873Z" fill="#5E4435"/>
<path d="M151.024 185.182L151.939 186.743L152.853 185.182H153.529L152.296 187.091L153.529 189H152.853L151.939 187.518L151.024 189H150.348L151.561 187.091L150.348 185.182H151.024ZM154.804 185.182L155.719 186.743L156.634 185.182H157.31L156.077 187.091L157.31 189H156.634L155.719 187.518L154.804 189H154.128L155.341 187.091L154.128 185.182H154.804ZM158.584 185.182L159.499 186.743L160.414 185.182H161.09L159.857 187.091L161.09 189H160.414L159.499 187.518L158.584 189H157.908L159.121 187.091L157.908 185.182H158.584ZM162.365 185.182L163.279 186.743L164.194 185.182H164.87L163.637 187.091L164.87 189H164.194L163.279 187.518L162.365 189H161.688L162.902 187.091L161.688 185.182H162.365ZM166.145 185.182L167.06 186.743L167.974 185.182H168.651L167.418 187.091L168.651 189H167.974L167.06 187.518L166.145 189H165.469L166.682 187.091L165.469 185.182H166.145ZM136.808 191.182L137.723 192.743L138.638 191.182H139.314L138.081 193.091L139.314 195H138.638L137.723 193.518L136.808 195H136.132L137.345 193.091L136.132 191.182H136.808ZM140.589 191.182L141.503 192.743L142.418 191.182H143.094L141.861 193.091L143.094 195H142.418L141.503 193.518L140.589 195H139.913L141.126 193.091L139.913 191.182H140.589ZM144.369 191.182L145.284 192.743L146.199 191.182H146.875L145.642 193.091L146.875 195H146.199L145.284 193.518L144.369 195H143.693L144.906 193.091L143.693 191.182H144.369ZM148.149 191.182L149.064 192.743L149.979 191.182H150.655L149.422 193.091L150.655 195H149.979L149.064 193.518L148.149 195H147.473L148.686 193.091L147.473 191.182H148.149ZM151.93 191.182L152.844 192.743L153.759 191.182H154.435L153.202 193.091L154.435 195H153.759L152.844 193.518L151.93 195H151.253L152.466 193.091L151.253 191.182H151.93ZM157.679 191.182L158.593 192.743L159.508 191.182H160.184L158.951 193.091L160.184 195H159.508L158.593 193.518L157.679 195H157.002L158.215 193.091L157.002 191.182H157.679ZM161.459 191.182L162.374 192.743L163.288 191.182H163.964L162.732 193.091L163.964 195H163.288L162.374 193.518L161.459 195H160.783L161.996 193.091L160.783 191.182H161.459ZM165.239 191.182L166.154 192.743L167.069 191.182H167.745L166.512 193.091L167.745 195H167.069L166.154 193.518L165.239 195H164.563L165.776 193.091L164.563 191.182H165.239ZM169.019 191.182L169.934 192.743L170.849 191.182H171.525L170.292 193.091L171.525 195H170.849L169.934 193.518L169.019 195H168.343L169.556 193.091L168.343 191.182H169.019ZM172.8 191.182L173.714 192.743L174.629 191.182H175.305L174.072 193.091L175.305 195H174.629L173.714 193.518L172.8 195H172.123L173.337 193.091L172.123 191.182H172.8ZM176.58 191.182L177.495 192.743L178.409 191.182H179.086L177.853 193.091L179.086 195H178.409L177.495 193.518L176.58 195H175.904L177.117 193.091L175.904 191.182H176.58ZM180.36 191.182L181.275 192.743L182.19 191.182H182.866L181.633 193.091L182.866 195H182.19L181.275 193.518L180.36 195H179.684L180.897 193.091L179.684 191.182H180.36ZM141.573 197.182L142.488 198.743L143.403 197.182H144.079L142.846 199.091L144.079 201H143.403L142.488 199.518L141.573 201H140.897L142.11 199.091L140.897 197.182H141.573ZM145.353 197.182L146.268 198.743L147.183 197.182H147.859L146.626 199.091L147.859 201H147.183L146.268 199.518L145.353 201H144.677L145.89 199.091L144.677 197.182H145.353ZM149.134 197.182L150.048 198.743L150.963 197.182H151.639L150.406 199.091L151.639 201H150.963L150.048 199.518L149.134 201H148.457L149.671 199.091L148.457 197.182H149.134ZM152.914 197.182L153.829 198.743L154.743 197.182H155.42L154.187 199.091L155.42 201H154.743L153.829 199.518L152.914 201H152.238L153.451 199.091L152.238 197.182H152.914ZM156.694 197.182L157.609 198.743L158.524 197.182H159.2L157.967 199.091L159.2 201H158.524L157.609 199.518L156.694 201H156.018L157.231 199.091L156.018 197.182H156.694ZM160.474 197.182L161.389 198.743L162.304 197.182H162.98L161.747 199.091L162.98 201H162.304L161.389 199.518L160.474 201H159.798L161.011 199.091L159.798 197.182H160.474ZM164.255 197.182L165.169 198.743L166.084 197.182H166.76L165.527 199.091L166.76 201H166.084L165.169 199.518L164.255 201H163.579L164.792 199.091L163.579 197.182H164.255ZM168.035 197.182L168.95 198.743L169.865 197.182H170.541L169.308 199.091L170.541 201H169.865L168.95 199.518L168.035 201H167.359L168.572 199.091L167.359 197.182H168.035ZM171.815 197.182L172.73 198.743L173.645 197.182H174.321L173.088 199.091L174.321 201H173.645L172.73 199.518L171.815 201H171.139L172.352 199.091L171.139 197.182H171.815ZM175.596 197.182L176.51 198.743L177.425 197.182H178.101L176.868 199.091L178.101 201H177.425L176.51 199.518L175.596 201H174.919L176.132 199.091L174.919 197.182H175.596ZM131.138 203.182L132.053 204.743L132.968 203.182H133.644L132.411 205.091L133.644 207H132.968L132.053 205.518L131.138 207H130.462L131.675 205.091L130.462 203.182H131.138ZM134.918 203.182L135.833 204.743L136.748 203.182H137.424L136.191 205.091L137.424 207H136.748L135.833 205.518L134.918 207H134.242L135.455 205.091L134.242 203.182H134.918ZM138.699 203.182L139.613 204.743L140.528 203.182H141.204L139.971 205.091L141.204 207H140.528L139.613 205.518L138.699 207H138.022L139.235 205.091L138.022 203.182H138.699ZM142.479 203.182L143.394 204.743L144.308 203.182H144.985L143.752 205.091L144.985 207H144.308L143.394 205.518L142.479 207H141.803L143.016 205.091L141.803 203.182H142.479ZM146.259 203.182L147.174 204.743L148.089 203.182H148.765L147.532 205.091L148.765 207H148.089L147.174 205.518L146.259 207H145.583L146.796 205.091L145.583 203.182H146.259ZM150.039 203.182L150.954 204.743L151.869 203.182H152.545L151.312 205.091L152.545 207H151.869L150.954 205.518L150.039 207H149.363L150.576 205.091L149.363 203.182H150.039ZM153.82 203.182L154.734 204.743L155.649 203.182H156.325L155.092 205.091L156.325 207H155.649L154.734 205.518L153.82 207H153.144L154.357 205.091L153.144 203.182H153.82ZM157.6 203.182L158.515 204.743L159.429 203.182H160.106L158.873 205.091L160.106 207H159.429L158.515 205.518L157.6 207H156.924L158.137 205.091L156.924 203.182H157.6ZM161.38 203.182L162.295 204.743L163.21 203.182H163.886L162.653 205.091L163.886 207H163.21L162.295 205.518L161.38 207H160.704L161.917 205.091L160.704 203.182H161.38ZM165.16 203.182L166.075 204.743L166.99 203.182H167.666L166.433 205.091L167.666 207H166.99L166.075 205.518L165.16 207H164.484L165.697 205.091L164.484 203.182H165.16ZM170.909 203.182L171.824 204.743L172.739 203.182H173.415L172.182 205.091L173.415 207H172.739L171.824 205.518L170.909 207H170.233L171.446 205.091L170.233 203.182H170.909ZM174.69 203.182L175.605 204.743L176.519 203.182H177.195L175.962 205.091L177.195 207H176.519L175.605 205.518L174.69 207H174.014L175.227 205.091L174.014 203.182H174.69ZM178.47 203.182L179.385 204.743L180.3 203.182H180.976L179.743 205.091L180.976 207H180.3L179.385 205.518L178.47 207H177.794L179.007 205.091L177.794 203.182H178.47ZM182.25 203.182L183.165 204.743L184.08 203.182H184.756L183.523 205.091L184.756 207H184.08L183.165 205.518L182.25 207H181.574L182.787 205.091L181.574 203.182H182.25ZM186.031 203.182L186.945 204.743L187.86 203.182H188.536L187.303 205.091L188.536 207H187.86L186.945 205.518L186.031 207H185.354L186.568 205.091L185.354 203.182H186.031ZM151.024 209.182L151.939 210.743L152.853 209.182H153.529L152.296 211.091L153.529 213H152.853L151.939 211.518L151.024 213H150.348L151.561 211.091L150.348 209.182H151.024ZM154.804 209.182L155.719 210.743L156.634 209.182H157.31L156.077 211.091L157.31 213H156.634L155.719 211.518L154.804 213H154.128L155.341 211.091L154.128 209.182H154.804ZM158.584 209.182L159.499 210.743L160.414 209.182H161.09L159.857 211.091L161.09 213H160.414L159.499 211.518L158.584 213H157.908L159.121 211.091L157.908 209.182H158.584ZM162.365 209.182L163.279 210.743L164.194 209.182H164.87L163.637 211.091L164.87 213H164.194L163.279 211.518L162.365 213H161.688L162.902 211.091L161.688 209.182H162.365ZM166.145 209.182L167.06 210.743L167.974 209.182H168.651L167.418 211.091L168.651 213H167.974L167.06 211.518L166.145 213H165.469L166.682 211.091L165.469 209.182H166.145Z" fill="#7C512E"/>
<path d="M135.736 159L137.798 162.328H137.861L139.923 159H141.064L138.548 163L141.064 167H139.923L137.861 163.734H137.798L135.736 167H134.595L137.173 163L134.595 159H135.736ZM142.793 159L144.856 162.328H144.918L146.981 159H148.122L145.606 163L148.122 167H146.981L144.918 163.734H144.856L142.793 167H141.653L144.231 163L141.653 159H142.793ZM149.851 159L151.914 162.328H151.976L154.039 159H155.179L152.664 163L155.179 167H154.039L151.976 163.734H151.914L149.851 167H148.71L151.289 163L148.71 159H149.851ZM156.909 159L158.971 162.328H159.034L161.096 159H162.237L159.721 163L162.237 167H161.096L159.034 163.734H158.971L156.909 167H155.768L158.346 163L155.768 159H156.909ZM163.966 159L166.029 162.328H166.091L168.154 159H169.294L166.779 163L169.294 167H168.154L166.091 163.734H166.029L163.966 167H162.826L165.404 163L162.826 159H163.966ZM171.024 159L173.086 162.328H173.149L175.211 159H176.352L173.836 163L176.352 167H175.211L173.149 163.734H173.086L171.024 167H169.883L172.461 163L169.883 159H171.024ZM178.082 159L180.144 162.328H180.207L182.269 159H183.41L180.894 163L183.41 167H182.269L180.207 163.734H180.144L178.082 167H176.941L179.519 163L176.941 159H178.082Z" fill="#7C512E"/>
<path d="M143.793 171L145.856 174.328H145.918L147.981 171H149.122L146.606 175L149.122 179H147.981L145.918 175.734H145.856L143.793 179H142.653L145.231 175L142.653 171H143.793ZM150.851 171L152.914 174.328H152.976L155.039 171H156.179L153.664 175L156.179 179H155.039L152.976 175.734H152.914L150.851 179H149.71L152.289 175L149.71 171H150.851ZM157.909 171L159.971 174.328H160.034L162.096 171H163.237L160.721 175L163.237 179H162.096L160.034 175.734H159.971L157.909 179H156.768L159.346 175L156.768 171H157.909ZM164.966 171L167.029 174.328H167.091L169.154 171H170.294L167.779 175L170.294 179H169.154L167.091 175.734H167.029L164.966 179H163.826L166.404 175L163.826 171H164.966ZM172.024 171L174.086 174.328H174.149L176.211 171H177.352L174.836 175L177.352 179H176.211L174.149 175.734H174.086L172.024 179H170.883L173.461 175L170.883 171H172.024Z" fill="#7C512E"/>
<path d="M143.793 171L145.856 174.328H145.918L147.981 171H149.122L146.606 175L149.122 179H147.981L145.918 175.734H145.856L143.793 179H142.653L145.231 175L142.653 171H143.793ZM150.851 171L152.914 174.328H152.976L155.039 171H156.179L153.664 175L156.179 179H155.039L152.976 175.734H152.914L150.851 179H149.71L152.289 175L149.71 171H150.851ZM157.909 171L159.971 174.328H160.034L162.096 171H163.237L160.721 175L163.237 179H162.096L160.034 175.734H159.971L157.909 179H156.768L159.346 175L156.768 171H157.909ZM164.966 171L167.029 174.328H167.091L169.154 171H170.294L167.779 175L170.294 179H169.154L167.091 175.734H167.029L164.966 179H163.826L166.404 175L163.826 171H164.966ZM172.024 171L174.086 174.328H174.149L176.211 171H177.352L174.836 175L177.352 179H176.211L174.149 175.734H174.086L172.024 179H170.883L173.461 175L170.883 171H172.024Z" fill="#7C512E"/>
<path d="M135.736 255L137.798 258.328H137.861L139.923 255H141.064L138.548 259L141.064 263H139.923L137.861 259.734H137.798L135.736 263H134.595L137.173 259L134.595 255H135.736ZM142.793 255L144.856 258.328H144.918L146.981 255H148.122L145.606 259L148.122 263H146.981L144.918 259.734H144.856L142.793 263H141.653L144.231 259L141.653 255H142.793ZM149.851 255L151.914 258.328H151.976L154.039 255H155.179L152.664 259L155.179 263H154.039L151.976 259.734H151.914L149.851 263H148.71L151.289 259L148.71 255H149.851ZM156.909 255L158.971 258.328H159.034L161.096 255H162.237L159.721 259L162.237 263H161.096L159.034 259.734H158.971L156.909 263H155.768L158.346 259L155.768 255H156.909ZM163.966 255L166.029 258.328H166.091L168.154 255H169.294L166.779 259L169.294 263H168.154L166.091 259.734H166.029L163.966 263H162.826L165.404 259L162.826 255H163.966ZM171.024 255L173.086 258.328H173.149L175.211 255H176.352L173.836 259L176.352 263H175.211L173.149 259.734H173.086L171.024 263H169.883L172.461 259L169.883 255H171.024ZM178.082 255L180.144 258.328H180.207L182.269 255H183.41L180.894 259L183.41 263H182.269L180.207 259.734H180.144L178.082 263H176.941L179.519 259L176.941 255H178.082Z" fill="#7C512E"/>
<path d="M143.793 243L145.856 246.328H145.918L147.981 243H149.122L146.606 247L149.122 251H147.981L145.918 247.734H145.856L143.793 251H142.653L145.231 247L142.653 243H143.793ZM150.851 243L152.914 246.328H152.976L155.039 243H156.179L153.664 247L156.179 251H155.039L152.976 247.734H152.914L150.851 251H149.71L152.289 247L149.71 243H150.851ZM157.909 243L159.971 246.328H160.034L162.096 243H163.237L160.721 247L163.237 251H162.096L160.034 247.734H159.971L157.909 251H156.768L159.346 247L156.768 243H157.909ZM164.966 243L167.029 246.328H167.091L169.154 243H170.294L167.779 247L170.294 251H169.154L167.091 247.734H167.029L164.966 251H163.826L166.404 247L163.826 243H164.966ZM172.024 243L174.086 246.328H174.149L176.211 243H177.352L174.836 247L177.352 251H176.211L174.149 247.734H174.086L172.024 251H170.883L173.461 247L170.883 243H172.024Z" fill="#7C512E"/>
<path d="M135.786 219.364L136.723 220.876H136.752L137.689 219.364H138.208L137.064 221.182L138.208 223H137.689L136.752 221.516H136.723L135.786 223H135.267L136.439 221.182L135.267 219.364H135.786ZM138.994 219.364L139.931 220.876H139.96L140.897 219.364H141.416L140.272 221.182L141.416 223H140.897L139.96 221.516H139.931L138.994 223H138.475L139.647 221.182L138.475 219.364H138.994ZM142.202 219.364L143.139 220.876H143.168L144.105 219.364H144.624L143.48 221.182L144.624 223H144.105L143.168 221.516H143.139L142.202 223H141.683L142.855 221.182L141.683 219.364H142.202ZM145.41 219.364L146.347 220.876H146.376L147.313 219.364H147.832L146.688 221.182L147.832 223H147.313L146.376 221.516H146.347L145.41 223H144.891L146.063 221.182L144.891 219.364H145.41ZM150.024 219.364L150.962 220.876H150.99L151.927 219.364H152.446L151.302 221.182L152.446 223H151.927L150.99 221.516H150.962L150.024 223H149.506L150.677 221.182L149.506 219.364H150.024ZM153.232 219.364L154.17 220.876H154.198L155.135 219.364H155.654L154.51 221.182L155.654 223H155.135L154.198 221.516H154.17L153.232 223H152.714L153.885 221.182L152.714 219.364H153.232ZM156.44 219.364L157.378 220.876H157.406L158.343 219.364H158.862L157.718 221.182L158.862 223H158.343L157.406 221.516H157.378L156.44 223H155.922L157.093 221.182L155.922 219.364H156.44ZM161.054 219.364L161.992 220.876H162.02L162.958 219.364H163.476L162.333 221.182L163.476 223H162.958L162.02 221.516H161.992L161.054 223H160.536L161.708 221.182L160.536 219.364H161.054ZM164.262 219.364L165.2 220.876H165.228L166.166 219.364H166.684L165.541 221.182L166.684 223H166.166L165.228 221.516H165.2L164.262 223H163.744L164.916 221.182L163.744 219.364H164.262ZM168.877 219.364L169.814 220.876H169.842L170.78 219.364H171.298L170.155 221.182L171.298 223H170.78L169.842 221.516H169.814L168.877 223H168.358L169.53 221.182L168.358 219.364H168.877ZM173.491 219.364L174.428 220.876H174.457L175.394 219.364H175.913L174.769 221.182L175.913 223H175.394L174.457 221.516H174.428L173.491 223H172.972L174.144 221.182L172.972 219.364H173.491ZM178.105 219.364L179.043 220.876H179.071L180.008 219.364H180.527L179.383 221.182L180.527 223H180.008L179.071 221.516H179.043L178.105 223H177.587L178.758 221.182L177.587 219.364H178.105ZM181.313 219.364L182.251 220.876H182.279L183.216 219.364H183.735L182.591 221.182L183.735 223H183.216L182.279 221.516H182.251L181.313 223H180.795L181.966 221.182L180.795 219.364H181.313ZM144.311 224.364L145.249 225.876H145.277L146.215 224.364H146.733L145.59 226.182L146.733 228H146.215L145.277 226.516H145.249L144.311 228H143.793L144.965 226.182L143.793 224.364H144.311ZM147.519 224.364L148.457 225.876H148.485L149.423 224.364H149.941L148.798 226.182L149.941 228H149.423L148.485 226.516H148.457L147.519 228H147.001L148.173 226.182L147.001 224.364H147.519ZM150.727 224.364L151.665 225.876H151.693L152.631 224.364H153.149L152.006 226.182L153.149 228H152.631L151.693 226.516H151.665L150.727 228H150.209L151.381 226.182L150.209 224.364H150.727ZM153.935 224.364L154.873 225.876H154.901L155.839 224.364H156.357L155.214 226.182L156.357 228H155.839L154.901 226.516H154.873L153.935 228H153.417L154.589 226.182L153.417 224.364H153.935ZM158.549 224.364L159.487 225.876H159.515L160.453 224.364H160.971L159.828 226.182L160.971 228H160.453L159.515 226.516H159.487L158.549 228H158.031L159.203 226.182L158.031 224.364H158.549ZM161.757 224.364L162.695 225.876H162.723L163.661 224.364H164.179L163.036 226.182L164.179 228H163.661L162.723 226.516H162.695L161.757 228H161.239L162.411 226.182L161.239 224.364H161.757ZM164.965 224.364L165.903 225.876H165.931L166.869 224.364H167.387L166.244 226.182L167.387 228H166.869L165.931 226.516H165.903L164.965 228H164.447L165.619 226.182L164.447 224.364H164.965ZM169.58 224.364L170.517 225.876H170.546L171.483 224.364H172.002L170.858 226.182L172.002 228H171.483L170.546 226.516H170.517L169.58 228H169.061L170.233 226.182L169.061 224.364H169.58ZM172.788 224.364L173.725 225.876H173.754L174.691 224.364H175.21L174.066 226.182L175.21 228H174.691L173.754 226.516H173.725L172.788 228H172.269L173.441 226.182L172.269 224.364H172.788ZM144.311 229.364L145.249 230.876H145.277L146.215 229.364H146.733L145.59 231.182L146.733 233H146.215L145.277 231.516H145.249L144.311 233H143.793L144.965 231.182L143.793 229.364H144.311ZM147.519 229.364L148.457 230.876H148.485L149.423 229.364H149.941L148.798 231.182L149.941 233H149.423L148.485 231.516H148.457L147.519 233H147.001L148.173 231.182L147.001 229.364H147.519ZM150.727 229.364L151.665 230.876H151.693L152.631 229.364H153.149L152.006 231.182L153.149 233H152.631L151.693 231.516H151.665L150.727 233H150.209L151.381 231.182L150.209 229.364H150.727ZM153.935 229.364L154.873 230.876H154.901L155.839 229.364H156.357L155.214 231.182L156.357 233H155.839L154.901 231.516H154.873L153.935 233H153.417L154.589 231.182L153.417 229.364H153.935ZM158.549 229.364L159.487 230.876H159.515L160.453 229.364H160.971L159.828 231.182L160.971 233H160.453L159.515 231.516H159.487L158.549 233H158.031L159.203 231.182L158.031 229.364H158.549ZM161.757 229.364L162.695 230.876H162.723L163.661 229.364H164.179L163.036 231.182L164.179 233H163.661L162.723 231.516H162.695L161.757 233H161.239L162.411 231.182L161.239 229.364H161.757ZM164.965 229.364L165.903 230.876H165.931L166.869 229.364H167.387L166.244 231.182L167.387 233H166.869L165.931 231.516H165.903L164.965 233H164.447L165.619 231.182L164.447 229.364H164.965ZM169.58 229.364L170.517 230.876H170.546L171.483 229.364H172.002L170.858 231.182L172.002 233H171.483L170.546 231.516H170.517L169.58 233H169.061L170.233 231.182L169.061 229.364H169.58ZM172.788 229.364L173.725 230.876H173.754L174.691 229.364H175.21L174.066 231.182L175.21 233H174.691L173.754 231.516H173.725L172.788 233H172.269L173.441 231.182L172.269 229.364H172.788ZM134.687 234.364L135.625 235.876H135.653L136.591 234.364H137.109L135.966 236.182L137.109 238H136.591L135.653 236.516H135.625L134.687 238H134.169L135.341 236.182L134.169 234.364H134.687ZM137.895 234.364L138.833 235.876H138.861L139.799 234.364H140.317L139.174 236.182L140.317 238H139.799L138.861 236.516H138.833L137.895 238H137.377L138.549 236.182L137.377 234.364H137.895ZM141.103 234.364L142.041 235.876H142.069L143.007 234.364H143.525L142.382 236.182L143.525 238H143.007L142.069 236.516H142.041L141.103 238H140.585L141.757 236.182L140.585 234.364H141.103ZM144.311 234.364L145.249 235.876H145.277L146.215 234.364H146.733L145.59 236.182L146.733 238H146.215L145.277 236.516H145.249L144.311 238H143.793L144.965 236.182L143.793 234.364H144.311ZM148.925 234.364L149.863 235.876H149.891L150.829 234.364H151.347L150.204 236.182L151.347 238H150.829L149.891 236.516H149.863L148.925 238H148.407L149.579 236.182L148.407 234.364H148.925ZM152.133 234.364L153.071 235.876H153.099L154.037 234.364H154.555L153.412 236.182L154.555 238H154.037L153.099 236.516H153.071L152.133 238H151.615L152.787 236.182L151.615 234.364H152.133ZM155.341 234.364L156.279 235.876H156.307L157.245 234.364H157.763L156.62 236.182L157.763 238H157.245L156.307 236.516H156.279L155.341 238H154.823L155.995 236.182L154.823 234.364H155.341ZM159.956 234.364L160.893 235.876H160.922L161.859 234.364H162.378L161.234 236.182L162.378 238H161.859L160.922 236.516H160.893L159.956 238H159.437L160.609 236.182L159.437 234.364H159.956ZM163.164 234.364L164.101 235.876H164.13L165.067 234.364H165.586L164.442 236.182L165.586 238H165.067L164.13 236.516H164.101L163.164 238H162.645L163.817 236.182L162.645 234.364H163.164ZM166.372 234.364L167.309 235.876H167.338L168.275 234.364H168.794L167.65 236.182L168.794 238H168.275L167.338 236.516H167.309L166.372 238H165.853L167.025 236.182L165.853 234.364H166.372ZM169.58 234.364L170.517 235.876H170.546L171.483 234.364H172.002L170.858 236.182L172.002 238H171.483L170.546 236.516H170.517L169.58 238H169.061L170.233 236.182L169.061 234.364H169.58ZM172.788 234.364L173.725 235.876H173.754L174.691 234.364H175.21L174.066 236.182L175.21 238H174.691L173.754 236.516H173.725L172.788 238H172.269L173.441 236.182L172.269 234.364H172.788ZM175.996 234.364L176.933 235.876H176.962L177.899 234.364H178.418L177.274 236.182L178.418 238H177.899L176.962 236.516H176.933L175.996 238H175.477L176.649 236.182L175.477 234.364H175.996ZM179.204 234.364L180.141 235.876H180.17L181.107 234.364H181.626L180.482 236.182L181.626 238H181.107L180.17 236.516H180.141L179.204 238H178.685L179.857 236.182L178.685 234.364H179.204ZM182.412 234.364L183.349 235.876H183.378L184.315 234.364H184.834L183.69 236.182L184.834 238H184.315L183.378 236.516H183.349L182.412 238H181.893L183.065 236.182L181.893 234.364H182.412Z" fill="#7C512E"/>
<g style="mix-blend-mode:hue">
<rect width="320" height="320" fill="#00BF13"/>
</g>
</g>
<defs>
<clipPath id="clip0_2120_442">
<rect width="320" height="320" fill="white"/>
</clipPath>
</defs>
</svg>
