<svg width="320" height="320" viewBox="0 0 320 320" fill="none" xmlns="http://www.w3.org/2000/svg">
<g clip-path="url(#clip0_2120_444)">
<rect width="320" height="320" fill="#EFE2C1"/>
<mask id="path-1-inside-1_2120_444" fill="white">
<path d="M71 102.309L91.4662 74H228.534L249 102.309L166.926 118"/>
</mask>
<path d="M71 102.309L91.4662 74H228.534L249 102.309L166.926 118" fill="#CEB57E"/>
<path d="M91.4662 74V73H90.9552L90.6558 73.4141L91.4662 74ZM228.534 74L229.345 73.4141L229.045 73H228.534V74ZM249 102.309L249.188 103.291L250.731 102.996L249.81 101.723L249 102.309ZM71.8104 102.895L92.2766 74.5859L90.6558 73.4141L70.1896 101.723L71.8104 102.895ZM91.4662 75H228.534V73H91.4662V75ZM227.724 74.5859L248.19 102.895L249.81 101.723L229.345 73.4141L227.724 74.5859ZM248.812 101.327L166.738 117.018L167.114 118.982L249.188 103.291L248.812 101.327Z" fill="#86766A" mask="url(#path-1-inside-1_2120_444)"/>
<path d="M71.5 102.5H248.5V245.5H71.5V102.5Z" fill="#BD9C52" stroke="#86766A"/>
<path d="M118.873 148.545L120.78 151.768H120.854L122.77 148.545H125.027L122.142 153.273L125.092 158H122.793L120.854 154.773H120.78L118.841 158H116.551L119.51 153.273L116.607 148.545H118.873ZM128.166 148.545L130.073 151.768H130.147L132.063 148.545H134.32L131.435 153.273L134.385 158H132.086L130.147 154.773H130.073L128.134 158H125.844L128.803 153.273L125.9 148.545H128.166ZM137.459 148.545L139.366 151.768H139.44L141.356 148.545H143.613L140.728 153.273L143.678 158H141.379L139.44 154.773H139.366L137.427 158H135.137L138.096 153.273L135.193 148.545H137.459ZM146.752 148.545L148.659 151.768H148.733L150.648 148.545H152.906L150.021 153.273L152.971 158H150.672L148.733 154.773H148.659L146.72 158H144.43L147.389 153.273L144.485 148.545H146.752ZM156.045 148.545L157.952 151.768H158.026L159.941 148.545H162.199L159.314 153.273L162.264 158H159.965L158.026 154.773H157.952L156.013 158H153.723L156.682 153.273L153.778 148.545H156.045ZM165.338 148.545L167.245 151.768H167.319L169.234 148.545H171.492L168.607 153.273L171.557 158H169.258L167.319 154.773H167.245L165.306 158H163.016L165.975 153.273L163.071 148.545H165.338ZM177.64 148.545L179.546 151.768H179.62L181.536 148.545H183.794L180.908 153.273L183.858 158H181.559L179.62 154.773H179.546L177.608 158H175.318L178.277 153.273L175.373 148.545H177.64ZM186.933 148.545L188.839 151.768H188.913L190.829 148.545H193.087L190.201 153.273L193.151 158H190.852L188.913 154.773H188.839L186.901 158H184.611L187.57 153.273L184.666 148.545H186.933ZM196.226 148.545L198.132 151.768H198.206L200.122 148.545H202.38L199.494 153.273L202.444 158H200.145L198.206 154.773H198.132L196.193 158H193.904L196.863 153.273L193.959 148.545H196.226Z" fill="#5E4435"/>
<path d="M139.973 121L143.199 126.453H143.324L146.566 121H150.387L145.504 129L150.496 137H146.605L143.324 131.539H143.199L139.918 137H136.043L141.051 129L136.137 121H139.973ZM155.699 121L158.926 126.453H159.051L162.293 121H166.113L161.23 129L166.223 137H162.332L159.051 131.539H158.926L155.645 137H151.77L156.777 129L151.863 121H155.699ZM171.426 121L174.652 126.453H174.777L178.02 121H181.84L176.957 129L181.949 137H178.059L174.777 131.539H174.652L171.371 137H167.496L172.504 129L167.59 121H171.426Z" fill="#5E4435"/>
<path d="M118.198 177.909L120.838 182.371H120.94L123.593 177.909H126.718L122.723 184.455L126.808 191H123.625L120.94 186.532H120.838L118.153 191H114.983L119.08 184.455L115.059 177.909H118.198ZM131.065 177.909L133.705 182.371H133.807L136.46 177.909H139.586L135.591 184.455L139.675 191H136.492L133.807 186.532H133.705L131.02 191H127.85L131.947 184.455L127.926 177.909H131.065ZM143.932 177.909L146.572 182.371H146.674L149.327 177.909H152.453L148.458 184.455L152.542 191H149.359L146.674 186.532H146.572L143.887 191H140.717L144.814 184.455L140.794 177.909H143.932ZM156.799 177.909L159.439 182.371H159.542L162.194 177.909H165.32L161.325 184.455L165.409 191H162.226L159.542 186.532H159.439L156.755 191H153.584L157.681 184.455L153.661 177.909H156.799ZM169.667 177.909L172.306 182.371H172.409L175.061 177.909H178.187L174.192 184.455L178.277 191H175.093L172.409 186.532H172.306L169.622 191H166.451L170.549 184.455L166.528 177.909H169.667ZM182.534 177.909L185.174 182.371H185.276L187.929 177.909H191.054L187.059 184.455L191.144 191H187.961L185.276 186.532H185.174L182.489 191H179.319L183.416 184.455L179.395 177.909H182.534ZM195.401 177.909L198.041 182.371H198.143L200.796 177.909H203.922L199.926 184.455L204.011 191H200.828L198.143 186.532H198.041L195.356 191H192.186L196.283 184.455L192.262 177.909H195.401Z" fill="#5E4435"/>
<path d="M131.065 195.909L133.705 200.371H133.807L136.46 195.909H139.586L135.591 202.455L139.675 209H136.492L133.807 204.532H133.705L131.02 209H127.85L131.947 202.455L127.926 195.909H131.065ZM143.932 195.909L146.572 200.371H146.674L149.327 195.909H152.453L148.458 202.455L152.542 209H149.359L146.674 204.532H146.572L143.887 209H140.717L144.814 202.455L140.794 195.909H143.932ZM156.799 195.909L159.439 200.371H159.542L162.194 195.909H165.32L161.325 202.455L165.409 209H162.226L159.542 204.532H159.439L156.755 209H153.584L157.681 202.455L153.661 195.909H156.799ZM169.667 195.909L172.306 200.371H172.409L175.061 195.909H178.187L174.192 202.455L178.277 209H175.093L172.409 204.532H172.306L169.622 209H166.451L170.549 202.455L166.528 195.909H169.667ZM182.534 195.909L185.174 200.371H185.276L187.929 195.909H191.054L187.059 202.455L191.144 209H187.961L185.276 204.532H185.174L182.489 209H179.319L183.416 202.455L179.395 195.909H182.534Z" fill="#5E4435"/>
<path d="M127.836 219.545L130.273 223.479H130.347L132.784 219.545H134.132L131.159 224.273L134.132 229H132.784L130.347 225.141H130.273L127.836 229H126.488L129.534 224.273L126.488 219.545H127.836ZM136.176 219.545L138.614 223.479H138.688L141.125 219.545H142.473L139.5 224.273L142.473 229H141.125L138.688 225.141H138.614L136.176 229H134.828L137.875 224.273L134.828 219.545H136.176ZM144.517 219.545L146.955 223.479H147.029L149.466 219.545H150.814L147.841 224.273L150.814 229H149.466L147.029 225.141H146.955L144.517 229H143.169L146.216 224.273L143.169 219.545H144.517ZM152.858 219.545L155.296 223.479H155.369L157.807 219.545H159.155L156.182 224.273L159.155 229H157.807L155.369 225.141H155.296L152.858 229H151.51L154.557 224.273L151.51 219.545H152.858ZM161.199 219.545L163.636 223.479H163.71L166.148 219.545H167.496L164.523 224.273L167.496 229H166.148L163.71 225.141H163.636L161.199 229H159.851L162.898 224.273L159.851 219.545H161.199ZM169.54 219.545L171.977 223.479H172.051L174.489 219.545H175.837L172.864 224.273L175.837 229H174.489L172.051 225.141H171.977L169.54 229H168.192L171.239 224.273L168.192 219.545H169.54ZM177.881 219.545L180.318 223.479H180.392L182.829 219.545H184.177L181.204 224.273L184.177 229H182.829L180.392 225.141H180.318L177.881 229H176.532L179.579 224.273L176.532 219.545H177.881ZM186.221 219.545L188.659 223.479H188.733L191.17 219.545H192.518L189.545 224.273L192.518 229H191.17L188.733 225.141H188.659L186.221 229H184.873L187.92 224.273L184.873 219.545H186.221Z" fill="#5E4435"/>
<g style="mix-blend-mode:hue">
<rect width="320" height="320" fill="#00BF13"/>
</g>
</g>
<defs>
<clipPath id="clip0_2120_444">
<rect width="320" height="320" fill="white"/>
</clipPath>
</defs>
</svg>
