<svg width="320" height="320" viewBox="0 0 320 320" fill="none" xmlns="http://www.w3.org/2000/svg">
<g clip-path="url(#clip0_2245_121)">
<rect width="320" height="320" fill="#EFE2C1"/>
<path d="M135.954 127.006L266.13 127.23C270.995 127.241 275.849 130.442 279.565 136.826C287.037 149.689 287.042 170.602 279.565 183.549C275.81 190.062 270.866 193.319 265.939 193.302L135.764 193.077C140.696 193.094 145.628 189.838 149.389 183.325C156.866 170.377 156.861 149.471 149.389 136.607C145.673 130.218 140.814 127.023 135.954 127.006Z" fill="#CEB57E"/>
<path d="M149.39 136.607C155.925 147.851 156.749 165.254 151.856 178.101L282.105 178.101C286.908 165.277 286.062 148.014 279.565 136.826C275.849 130.436 270.99 127.241 266.13 127.225L135.955 127C140.82 127.017 145.674 130.218 149.39 136.607Z" fill="#CEB57E"/>
<path d="M149.39 136.607C150.727 138.952 151.808 141.434 152.613 144.011L282.721 144.011C281.88 141.439 280.832 139.017 279.565 136.826C275.849 130.436 270.99 127.241 266.13 127.224L135.955 127C140.82 127.017 145.674 130.217 149.39 136.607Z" fill="#BD9C52"/>
<path d="M122.329 136.758C129.806 123.811 141.913 123.744 149.39 136.607C156.867 149.471 156.867 170.383 149.39 183.325C141.918 196.272 129.8 196.339 122.329 183.476C114.852 170.618 114.857 149.7 122.329 136.758Z" fill="#7C512E"/>
<path d="M96.0031 129.663L134.106 129.87C138.579 129.882 143.046 132.824 146.465 138.698C153.336 150.525 153.342 169.767 146.465 181.672C143.006 187.663 138.466 190.656 133.932 190.64L95.8237 190.438C100.358 190.449 104.904 187.456 108.356 181.47C115.234 169.559 115.228 150.323 108.356 138.496C104.937 132.617 100.476 129.68 96.0031 129.663Z" fill="#D6D4D2"/>
<path d="M108.355 138.497C114.364 148.838 115.12 164.84 110.619 176.667L148.801 176.667C153.217 164.868 152.438 148.983 146.463 138.698C143.044 132.824 138.577 129.882 134.104 129.87L95.9961 129.663C100.469 129.68 104.936 132.617 108.355 138.497Z" fill="#C4C2C0"/>
<path d="M108.355 138.497C109.555 140.565 110.541 142.868 111.32 145.307L149.367 145.307C148.593 142.941 147.629 140.711 146.463 138.698C143.044 132.824 138.577 129.882 134.104 129.871L95.9961 129.663C100.469 129.68 104.936 132.617 108.355 138.497Z" fill="#B2B0AF"/>
<path d="M83.469 138.636C90.3407 126.731 101.478 126.664 108.355 138.496C115.227 150.323 115.232 169.559 108.355 181.464C101.478 193.369 90.3351 193.436 83.4634 181.604C76.5916 169.778 76.5916 150.541 83.4633 138.636L83.469 138.636Z" fill="#E9E8E6"/>
<path d="M73.2232 139.735L93.8663 139.875C96.865 139.881 99.8524 141.854 102.139 145.788C106.747 153.708 106.747 166.588 102.139 174.564C99.83 178.577 96.7865 180.578 93.7486 180.573L73.1055 180.433C76.1434 180.444 79.1813 178.437 81.4961 174.424C86.1034 166.454 86.0978 153.574 81.4961 145.648C79.2093 141.713 76.2162 139.746 73.2232 139.735Z" fill="#DD4A4A"/>
<path d="M81.4971 145.649C85.5215 152.577 86.0315 163.293 83.0104 171.208L103.71 171.208C106.663 163.304 106.148 152.677 102.14 145.789C99.8534 141.854 96.8659 139.881 93.8673 139.876L73.2241 139.736C76.2172 139.747 79.2102 141.714 81.4971 145.649Z" fill="#CC4848"/>
<path d="M81.4971 145.648C82.3042 147.033 82.9544 148.574 83.4812 150.211L104.085 150.211C103.569 148.625 102.925 147.134 102.14 145.783C99.8534 141.854 96.8659 139.881 93.8673 139.875L73.2241 139.735C76.2172 139.746 79.2102 141.714 81.4971 145.648Z" fill="#C44141"/>
<path d="M64.8324 145.744C69.4284 137.768 76.8943 137.729 81.496 145.648C86.0977 153.568 86.1033 166.454 81.496 174.424C76.8999 182.4 69.4341 182.44 64.8268 174.52C60.2195 166.6 60.2307 153.714 64.8268 145.744L64.8324 145.744Z" fill="#F25A5A"/>
<path d="M66.6095 171.05C70.107 177.07 75.7792 177.042 79.2767 170.983C81.0143 167.984 81.8774 164.066 81.8942 160.148L63.9863 160.148C63.9863 164.1 64.8663 168.051 66.6095 171.05Z" fill="#CC4848"/>
<path d="M66.6095 149.185C64.8607 152.223 63.9863 156.191 63.9863 160.148L81.8942 160.148C81.9111 156.152 81.0423 152.156 79.2767 149.118C75.7792 143.098 70.107 143.132 66.6095 149.185Z" fill="#C44141"/>
<path d="M54.2296 127.013L132.856 127.237C137.721 127.248 142.581 130.449 146.291 136.838C153.763 149.696 153.769 170.614 146.291 183.556C142.536 190.069 137.598 193.325 132.671 193.309L54.0391 193.084C58.9714 193.101 63.9038 189.85 67.6648 183.332C75.1418 170.384 75.1362 149.478 67.6648 136.614C63.9487 130.224 59.0892 127.03 54.2296 127.013Z" fill="#CEB57E"/>
<path d="M67.6646 136.613C74.2 147.857 75.0184 165.261 70.1308 178.113L148.83 178.113C153.634 165.283 152.788 148.014 146.291 136.838C142.581 130.448 137.721 127.253 132.856 127.236L54.2295 127.012C59.0946 127.023 63.9485 130.224 67.6646 136.613Z" fill="#CEB57E"/>
<path d="M67.6646 136.614C69.0022 138.959 70.0827 141.441 70.8875 144.018L149.447 144.018C148.606 141.445 147.564 139.024 146.291 136.838C142.581 130.448 137.721 127.254 132.856 127.237L54.2295 127.013C59.0946 127.024 63.9485 130.224 67.6646 136.614Z" fill="#BD9C52"/>
<path d="M41.0366 137.015C44.7228 130.632 49.4811 127.536 54.1368 127.51C58.7911 127.484 63.547 130.525 67.2321 136.865C70.913 143.202 72.7694 151.554 72.7701 159.943C72.7708 168.332 70.9159 176.704 67.2315 183.081C63.5453 189.462 58.7856 192.557 54.129 192.585C49.4738 192.612 44.718 189.574 41.0359 183.237C37.355 176.903 35.5 168.551 35.5 160.16C35.5 151.77 37.3549 143.395 41.0366 137.015Z" fill="#D9C290" stroke="#86766A"/>
<path d="M193.383 167.374L193.383 154.283H198.624C199.587 154.283 200.391 154.425 201.034 154.711C201.678 154.996 202.161 155.393 202.485 155.9C202.809 156.403 202.971 156.982 202.971 157.638C202.971 158.15 202.869 158.599 202.664 158.987C202.46 159.371 202.178 159.686 201.82 159.933C201.467 160.176 201.062 160.349 200.606 160.451V160.579C201.104 160.6 201.571 160.741 202.006 161.001C202.445 161.261 202.801 161.625 203.073 162.094C203.346 162.558 203.482 163.112 203.482 163.756C203.482 164.45 203.31 165.07 202.965 165.616C202.624 166.157 202.119 166.585 201.45 166.901C200.781 167.216 199.956 167.374 198.976 167.374H193.383ZM196.151 165.111H198.407C199.178 165.111 199.741 164.964 200.095 164.67C200.448 164.371 200.625 163.975 200.625 163.481C200.625 163.119 200.538 162.799 200.363 162.522C200.188 162.245 199.939 162.028 199.615 161.87C199.296 161.712 198.914 161.633 198.471 161.633H196.151V165.111ZM196.151 159.761H198.203C198.582 159.761 198.918 159.695 199.212 159.562C199.511 159.426 199.745 159.234 199.916 158.987C200.09 158.74 200.178 158.444 200.178 158.099C200.178 157.626 200.009 157.244 199.673 156.955C199.34 156.665 198.867 156.52 198.254 156.52H196.151V159.761ZM205.283 167.374L205.283 154.283H210.448C211.437 154.283 212.28 154.459 212.979 154.813C213.682 155.163 214.217 155.659 214.584 156.303C214.954 156.942 215.14 157.694 215.14 158.559C215.14 159.428 214.952 160.176 214.577 160.803C214.202 161.425 213.659 161.902 212.947 162.234C212.24 162.567 211.383 162.733 210.378 162.733H206.92V160.508H209.93C210.459 160.508 210.898 160.436 211.247 160.291C211.597 160.146 211.856 159.929 212.027 159.639C212.202 159.349 212.289 158.989 212.289 158.559C212.289 158.124 212.202 157.758 212.027 157.459C211.856 157.161 211.594 156.935 211.241 156.782C210.891 156.624 210.45 156.545 209.918 156.545H208.051L208.051 167.374H205.283ZM212.353 161.416L215.606 167.374H212.551L209.368 161.416H212.353ZM219.352 167.374H216.386L220.905 154.283H224.472L228.985 167.374H226.019L222.74 157.274H222.638L219.352 167.374ZM219.167 162.228H226.172V164.388H219.167V162.228ZM241.51 154.283L241.51 167.374H239.12L233.424 159.134H233.328L233.328 167.374H230.561L230.561 154.283H232.99L238.64 162.516H238.755L238.755 154.283H241.51ZM248.438 167.374H243.797L243.797 154.283H248.476C249.793 154.283 250.926 154.545 251.877 155.069C252.827 155.589 253.558 156.337 254.069 157.312C254.585 158.288 254.842 159.456 254.842 160.815C254.842 162.179 254.585 163.351 254.069 164.331C253.558 165.311 252.823 166.063 251.864 166.587C250.909 167.111 249.767 167.374 248.438 167.374ZM246.565 165.002H248.323C249.141 165.002 249.829 164.857 250.387 164.567C250.95 164.273 251.372 163.82 251.653 163.206C251.938 162.588 252.081 161.791 252.081 160.815C252.081 159.848 251.938 159.057 251.653 158.444C251.372 157.83 250.952 157.379 250.394 157.089C249.835 156.799 249.147 156.654 248.329 156.654H246.565L246.565 165.002Z" fill="#7C512E"/>
<g style="mix-blend-mode:hue">
<rect width="320" height="320" fill="#00BF13"/>
</g>
</g>
<defs>
<clipPath id="clip0_2245_121">
<rect width="320" height="320" fill="white"/>
</clipPath>
</defs>
</svg>
