<svg width="320" height="320" viewBox="0 0 320 320" fill="none" xmlns="http://www.w3.org/2000/svg">
<g clip-path="url(#clip0_2120_438)">
<rect width="320" height="320" fill="#EFE2C1"/>
<path d="M258.737 210.165L258.072 443.495C258.039 457.932 248.541 472.353 229.579 483.365C191.423 505.537 129.348 505.553 90.9419 483.365C71.6142 472.22 61.9503 457.567 62.0002 442.946L62.6655 209.599C62.6156 224.236 72.2628 238.874 91.6072 250.034C130.03 272.223 192.072 272.206 230.245 250.034C249.207 239.007 258.687 224.586 258.737 210.165Z" fill="#CEB57E"/>
<path d="M230.245 250.034C196.879 269.428 145.233 271.857 107.093 257.352V490.899C145.167 505.153 196.413 502.642 229.58 483.364C248.542 472.353 258.023 457.932 258.073 443.494L258.738 210.164C258.705 224.602 249.207 239.006 230.245 250.034Z" fill="#CEB57E"/>
<path d="M230.245 250.034C223.286 254.003 215.919 257.21 208.272 259.598V492.728C215.907 490.234 223.093 487.14 229.58 483.364C248.541 472.353 258.022 457.932 258.072 443.494L258.738 210.164C258.704 224.602 249.207 239.006 230.245 250.034Z" fill="#BD9C52"/>
<path d="M229.546 170.162C248.666 181.204 258.164 195.596 258.243 209.884C258.323 224.172 248.988 238.561 229.993 249.602C211.001 260.633 186.035 266.167 161.013 266.169C135.991 266.171 110.966 260.641 91.8571 249.601C72.7447 238.559 63.247 224.164 63.1632 209.872C63.0793 195.583 72.4064 181.194 91.3925 170.161C110.376 159.13 135.342 153.6 160.369 153.6C185.395 153.6 210.428 159.13 229.546 170.162Z" fill="#D9C290" stroke="#86766A"/>
<path d="M218.241 175.635C234.413 185.057 242.432 197.329 242.5 209.5C242.567 221.67 234.685 233.939 218.62 243.36C202.556 252.774 181.435 257.498 160.262 257.5C139.089 257.502 117.919 252.781 101.756 243.36C85.5903 233.937 77.5713 221.662 77.5005 209.489C77.4297 197.317 85.3043 185.048 101.363 175.634C117.419 166.221 138.54 161.5 159.717 161.5C180.893 161.5 202.071 166.221 218.241 175.635Z" fill="#BD9C52" stroke="#86766A"/>
<path d="M207.669 182.145C220.901 189.906 227.445 200.002 227.5 210.001C227.555 219.997 221.124 230.091 207.979 237.851C194.836 245.604 177.549 249.499 160.215 249.5C142.881 249.501 125.553 245.61 112.329 237.851C99.1018 230.09 92.5581 219.99 92.5004 209.991C92.4426 199.992 98.868 189.898 112.007 182.144C125.144 174.391 142.431 170.5 159.768 170.5C177.105 170.5 194.438 174.391 207.669 182.145Z" fill="#BD9C52" stroke="#86766A"/>
<path d="M196.688 189.217C206.59 195.024 211.459 202.562 211.5 210.001C211.541 217.439 206.756 224.975 196.921 230.781C187.087 236.582 174.145 239.499 161.161 239.5C148.177 239.501 135.205 236.586 125.31 230.78C115.413 224.973 110.543 217.433 110.5 209.992C110.457 202.553 115.238 195.017 125.068 189.216C134.898 183.415 147.84 180.5 160.826 180.5C173.812 180.5 186.789 183.415 196.688 189.217Z" fill="#BD9C52" stroke="#86766A"/>
<path d="M183.173 -101.442L183.006 212.277C183.006 215.637 180.811 218.98 176.42 221.525C167.571 226.681 153.183 226.681 144.268 221.525C139.777 218.947 137.548 215.537 137.565 212.16L137.714 -101.575C137.714 -98.1815 139.943 -94.7884 144.417 -92.1936C153.333 -87.0373 167.704 -87.0539 176.569 -92.1936C180.961 -94.7551 183.156 -98.0984 183.173 -101.442Z" fill="#E9E8E6"/>
<path d="M176.57 -92.1924C168.835 -87.7014 156.86 -87.1359 148.011 -90.4958V223.272C156.826 226.583 168.719 226 176.42 221.526C180.811 218.981 183.007 215.638 183.024 212.278L183.173 -101.44C183.173 -98.0972 180.961 -94.7539 176.57 -92.1924Z" fill="#D6D4D2"/>
<path d="M176.569 -92.1924C174.957 -91.2742 173.251 -90.5325 171.479 -89.9802V223.705C173.243 223.123 174.906 222.408 176.419 221.543C180.811 218.981 183.006 215.638 183.023 212.278L183.173 -101.44C183.173 -98.0972 180.96 -94.7539 176.569 -92.1924Z" fill="#C4C2C0"/>
<g style="mix-blend-mode:hue">
<rect width="320" height="320" fill="#00BF13"/>
</g>
</g>
<defs>
<clipPath id="clip0_2120_438">
<rect width="320" height="320" fill="white"/>
</clipPath>
</defs>
</svg>
