<svg width="320" height="320" viewBox="0 0 320 320" fill="none" xmlns="http://www.w3.org/2000/svg">
<g clip-path="url(#clip0_2120_432)">
<rect width="320" height="320" fill="#EFE2C1"/>
<path d="M215.54 196.475L215.163 415.491C215.144 423.677 209.76 431.843 199.019 438.095C177.376 450.666 142.192 450.675 120.409 438.095C109.451 431.777 103.972 423.46 104 415.171L104.377 196.155C104.349 204.453 109.828 212.752 120.786 219.08C142.57 231.659 177.744 231.65 199.386 219.08C210.137 212.827 215.512 204.651 215.54 196.475Z" fill="#CEB57E"/>
<path d="M199.387 219.08C180.47 230.075 151.189 231.462 129.575 223.229V442.367C151.151 450.449 180.196 449.025 199.019 438.096C209.769 431.843 215.145 423.667 215.173 415.491L215.55 196.476C215.522 204.661 210.137 212.828 199.387 219.08Z" fill="#CEB57E"/>
<path d="M199.386 219.08C195.441 221.33 191.264 223.148 186.929 224.502V443.405C191.257 441.99 195.331 440.227 199.018 438.096C209.769 431.843 215.144 423.667 215.172 415.491L215.549 196.476C215.521 204.661 210.136 212.828 199.386 219.08Z" fill="#BD9C52"/>
<path d="M121.036 218.647L121.035 218.647C110.234 212.414 104.918 204.312 104.873 196.313C104.829 188.315 110.053 180.215 120.782 173.983L120.782 173.983C131.504 167.748 145.618 164.618 159.778 164.62C173.937 164.621 188.088 167.753 198.881 173.984C209.683 180.222 214.999 188.321 215.043 196.318C215.088 204.314 209.864 212.411 199.135 218.648C188.408 224.883 174.293 228.015 160.135 228.015C145.977 228.015 131.829 224.883 121.036 218.647Z" fill="#D9C291" stroke="#86766A"/>
<path d="M211.071 129.257L210.722 193.363C210.703 200.888 205.752 208.404 195.869 214.157C175.971 225.718 143.598 225.728 123.568 214.157C113.487 208.338 108.451 200.7 108.48 193.071L108.819 128.955C108.8 136.584 113.836 144.232 123.907 150.041C143.947 161.612 176.311 161.602 196.209 150.041C206.101 144.289 211.042 136.782 211.071 129.257Z" fill="#D6D4D2"/>
<path d="M196.208 150.042C178.81 160.151 151.886 161.424 131.989 153.851V218.09C151.839 225.521 178.564 224.21 195.869 214.157C205.752 208.405 210.702 200.889 210.721 193.364L211.07 129.248C211.042 136.773 206.101 144.289 196.208 150.042Z" fill="#C4C2C0"/>
<path d="M196.209 150.042C192.729 152.06 188.853 153.719 184.751 155.03V219.042C188.731 217.741 192.484 216.119 195.869 214.157C205.752 208.405 210.703 200.889 210.722 193.364L211.071 129.248C211.042 136.773 206.101 144.289 196.209 150.042Z" fill="#B2B0AF"/>
<path d="M195.972 108.171C216.002 119.733 216.115 138.47 196.208 150.041C176.31 161.603 143.946 161.612 123.916 150.041C103.887 138.47 103.773 119.723 123.68 108.162C143.578 96.6004 175.943 96.6004 195.972 108.162V108.171Z" fill="#E9E8E6"/>
<path d="M194.124 90.9329L193.889 125.664C193.879 130.709 190.56 135.736 183.94 139.583C170.615 147.335 148.944 147.335 135.525 139.583C128.773 135.698 125.407 130.577 125.416 125.466L125.652 90.7349C125.633 95.846 129.009 100.957 135.761 104.852C149.171 112.603 170.841 112.594 184.175 104.852C190.795 101.004 194.105 95.9686 194.124 90.9329Z" fill="#941B1B"/>
<path d="M184.176 104.853C172.52 111.623 154.49 112.482 141.174 107.399V142.224C154.471 147.194 172.35 146.326 183.94 139.584C190.56 135.736 193.88 130.71 193.889 125.665L194.125 90.9336C194.106 95.9693 190.796 101.005 184.176 104.853Z" fill="#941B1B"/>
<path d="M184.175 104.853C181.846 106.21 179.253 107.304 176.499 108.191V142.856C179.168 141.989 181.676 140.904 183.949 139.584C190.559 135.736 193.879 130.71 193.888 125.665L194.124 90.9336C194.105 95.9693 190.795 101.005 184.175 104.853Z" fill="#941B1B"/>
<path d="M184.015 76.8161C197.434 84.5488 197.5 97.1098 184.175 104.852C170.85 112.594 149.17 112.604 135.761 104.852C122.342 97.1192 122.276 84.5582 135.6 76.8066C148.925 69.055 170.605 69.0739 184.015 76.8066V76.8161Z" fill="#CE3B3B"/>
<path d="M141.438 79.8049C131.31 85.6894 131.357 95.2327 141.551 101.117C146.596 104.04 153.188 105.493 159.78 105.521V75.3916C153.131 75.3916 146.483 76.8721 141.438 79.8049Z" fill="#941B1B"/>
<path d="M178.225 79.8049C173.114 76.8627 166.437 75.3916 159.779 75.3916V105.521C166.503 105.549 173.227 104.088 178.338 101.117C188.466 95.2327 188.409 85.6894 178.225 79.8049Z" fill="#941B1B"/>
</g>
<defs>
<clipPath id="clip0_2120_432">
<rect width="320" height="320" fill="white"/>
</clipPath>
</defs>
</svg>
