<svg width="320" height="320" viewBox="0 0 320 320" fill="none" xmlns="http://www.w3.org/2000/svg">
<rect width="320" height="320" fill="#EFE2C1"/>
<rect x="87.5" y="87.5" width="144" height="144" fill="#DBC189" stroke="#86766A"/>
<rect x="111.5" y="111.5" width="97" height="97" fill="#CEB57E" stroke="#86766A"/>
<line x1="87.3536" y1="87.6464" x2="111.354" y2="111.646" stroke="#86766A"/>
<line x1="231.354" y1="88.3536" x2="208.354" y2="111.354" stroke="#86766A"/>
<line x1="231.646" y1="231.354" x2="208.646" y2="208.354" stroke="#86766A"/>
<line x1="86.6615" y1="231.632" x2="111.661" y2="208.632" stroke="#86766A"/>
<circle cx="160" cy="160" r="40.5" stroke="#86766A"/>
<path d="M146.527 135.091L148.727 138.809H148.812L151.023 135.091L153.627 135.091L150.298 140.545L153.702 146L151.049 146L148.812 142.277H148.727L146.49 146H143.847L147.262 140.545L143.911 135.091H146.527ZM157.249 135.091L159.449 138.809H159.535L161.745 135.091H164.35L161.021 140.545L164.425 146H161.772L159.535 142.277H159.449L157.212 146H154.57L157.985 140.545L154.634 135.091H157.249ZM167.972 135.091L170.172 138.809H170.257L172.468 135.091H175.073L171.743 140.545L175.147 146H172.494L170.257 142.277H170.172L167.935 146L165.293 146L168.707 140.545L165.357 135.091L167.972 135.091Z" fill="#7C512E"/>
</svg>
