<svg width="320" height="320" viewBox="0 0 320 320" fill="none" xmlns="http://www.w3.org/2000/svg">
<g clip-path="url(#clip0_2122_1297)">
<rect width="320" height="320" fill="#EFE2C1"/>
<path d="M176.593 93.3621V131.82H144.439V91.9026C144.439 89.8833 144.828 87.8829 145.584 86.0107L166.602 63.0337C173.093 71.8133 176.595 82.4439 176.593 93.3621Z" fill="#A42424"/>
<path d="M154.006 85.9989C152.761 86.8342 151.295 87.2802 149.795 87.2802C148.295 87.2802 146.83 86.8342 145.584 85.9989C150.212 71.9966 166.602 63.0337 166.602 63.0337C167.414 75.0032 159.358 82.4304 154.006 85.9989Z" fill="#941B1B"/>
<path d="M182.454 134.414V162.45H138.395V134.414C138.396 131.889 140.443 129.843 142.968 129.841H177.881C180.404 129.839 182.452 131.882 182.454 134.405L182.454 134.414Z" fill="#DBD8DD"/>
<path d="M175.296 134.414V162.45H138.397V134.414C138.398 131.889 140.445 129.843 142.97 129.841H170.722C173.245 129.839 175.293 131.882 175.295 134.405C175.296 134.408 175.296 134.411 175.296 134.414Z" fill="#EEEFEE"/>
<path d="M186.066 162.741V172.449H134.795V162.741C134.795 161.9 135.129 161.094 135.723 160.5C136.318 159.906 137.123 159.572 137.964 159.572H182.885C183.727 159.571 184.535 159.904 185.131 160.498C185.728 161.092 186.064 161.899 186.066 162.741Z" fill="#BD9C52"/>
<path d="M176.593 162.741V172.449H134.795V162.741C134.795 161.9 135.129 161.094 135.723 160.5C136.318 159.906 137.123 159.572 137.964 159.572H173.415C174.256 159.571 175.064 159.905 175.66 160.499C176.256 161.093 176.592 161.899 176.593 162.741Z" fill="#C9A962"/>
<path d="M189.569 86.2906V159.735C189.57 160.158 189.488 160.576 189.327 160.967C189.166 161.357 188.93 161.712 188.632 162.011C188.334 162.311 187.98 162.548 187.59 162.711C187.2 162.873 186.782 162.957 186.36 162.958H134.221C133.367 162.958 132.548 162.618 131.944 162.014C131.34 161.41 131.001 160.591 131 159.737V86.2906C130.998 72.5103 140.605 60.5934 154.072 57.6714C156.114 57.2221 158.199 56.997 160.29 57C176.462 57.0013 189.57 70.1119 189.568 86.283C189.569 86.2855 189.569 86.288 189.569 86.2906Z" fill="#5B4334"/>
<path d="M177.136 86.291V159.736C177.137 160.158 177.054 160.576 176.894 160.967C176.733 161.357 176.497 161.713 176.199 162.012C175.901 162.311 175.547 162.549 175.157 162.711C174.767 162.874 174.349 162.958 173.927 162.959H134.221C133.367 162.958 132.549 162.619 131.945 162.015C131.341 161.411 131.001 160.592 131 159.738V86.291C130.999 72.5107 140.606 60.5938 154.073 57.6719C167.536 60.5976 177.138 72.5136 177.136 86.291Z" fill="#674C3C"/>
<path d="M189.622 171.975V251.647C189.623 257.916 184.543 262.999 178.274 263H142.589C136.321 263.001 131.238 257.921 131.237 251.652V171.975C131.236 171.758 131.277 171.544 131.359 171.344C131.441 171.144 131.562 170.962 131.714 170.808C131.866 170.654 132.047 170.532 132.247 170.448C132.446 170.365 132.66 170.321 132.877 170.32H187.968C188.406 170.323 188.825 170.499 189.134 170.808C189.444 171.118 189.619 171.537 189.622 171.975Z" fill="#5B4334"/>
<path d="M176.593 171.975V251.647C176.595 257.916 171.514 262.999 165.245 263H142.589C136.321 263.001 131.238 257.921 131.237 251.652V171.975C131.236 171.759 131.277 171.544 131.359 171.344C131.441 171.144 131.562 170.962 131.714 170.808C131.866 170.654 132.047 170.532 132.247 170.448C132.446 170.365 132.66 170.321 132.877 170.32H174.939C175.155 170.319 175.37 170.361 175.57 170.443C175.77 170.525 175.952 170.645 176.106 170.798C176.259 170.95 176.382 171.131 176.465 171.331C176.549 171.53 176.592 171.744 176.593 171.961V171.975Z" fill="#674C3C"/>
<path d="M156 190.986L166.909 190.986L166.909 195.354C166.909 196.156 166.79 196.826 166.552 197.362C166.314 197.898 165.984 198.301 165.561 198.571C165.142 198.841 164.659 198.976 164.113 198.976C163.686 198.976 163.312 198.891 162.989 198.72C162.669 198.55 162.406 198.315 162.2 198.017C161.998 197.722 161.854 197.385 161.769 197.005L161.662 197.005C161.645 197.42 161.527 197.809 161.311 198.171C161.094 198.537 160.79 198.834 160.4 199.061C160.013 199.288 159.551 199.402 159.015 199.402C158.436 199.402 157.919 199.258 157.465 198.97C157.014 198.686 156.657 198.266 156.394 197.708C156.131 197.151 156 196.463 156 195.647L156 190.986ZM157.886 193.292L157.886 195.173C157.886 195.815 158.008 196.284 158.253 196.579C158.502 196.874 158.832 197.021 159.244 197.021C159.546 197.021 159.812 196.948 160.043 196.803C160.274 196.657 160.455 196.449 160.586 196.179C160.718 195.913 160.783 195.595 160.783 195.226L160.783 193.292L157.886 193.292ZM162.344 193.292L162.344 195.002C162.344 195.318 162.399 195.599 162.509 195.844C162.623 196.092 162.783 196.288 162.989 196.43C163.195 196.575 163.441 196.648 163.729 196.648C164.123 196.648 164.441 196.508 164.683 196.227C164.924 195.95 165.045 195.556 165.045 195.045L165.045 193.292L162.344 193.292ZM156 200.903L166.909 200.903L166.909 205.207C166.909 206.031 166.762 206.734 166.467 207.316C166.176 207.902 165.762 208.348 165.226 208.653C164.693 208.962 164.066 209.117 163.346 209.117C162.621 209.117 161.998 208.96 161.476 208.648C160.957 208.335 160.56 207.883 160.283 207.289C160.006 206.7 159.867 205.986 159.867 205.148L159.867 202.266L161.721 202.266L161.721 204.775C161.721 205.216 161.781 205.581 161.902 205.873C162.023 206.164 162.204 206.38 162.445 206.522C162.687 206.668 162.987 206.741 163.346 206.741C163.708 206.741 164.013 206.668 164.262 206.522C164.51 206.38 164.699 206.162 164.826 205.867C164.958 205.576 165.023 205.208 165.023 204.765L165.023 203.209L156 203.209L156 200.903ZM160.964 206.794L156 209.505L156 206.959L160.964 204.307L160.964 206.794ZM156 212.627L156 210.155L166.909 213.921L166.909 216.894L156 220.654L156 218.183L164.416 215.45L164.416 215.365L156 212.627ZM160.288 212.472L160.288 218.31L158.488 218.31L158.488 212.472L160.288 212.472ZM166.909 231.092L156 231.092L156 229.1L162.866 224.354L162.866 224.274L156 224.274L156 221.967L166.909 221.967L166.909 223.991L160.048 228.7L160.048 228.796L166.909 228.796L166.909 231.092ZM156 236.865L156 232.997L166.909 232.997L166.909 236.897C166.909 237.994 166.691 238.939 166.254 239.73C165.821 240.522 165.197 241.131 164.384 241.557C163.571 241.987 162.598 242.202 161.465 242.202C160.329 242.202 159.352 241.987 158.536 241.557C157.719 241.131 157.092 240.519 156.655 239.72C156.218 238.924 156 237.973 156 236.865ZM157.976 235.304L157.976 236.769C157.976 237.451 158.097 238.024 158.338 238.489C158.583 238.958 158.962 239.31 159.473 239.544C159.988 239.782 160.652 239.901 161.465 239.901C162.271 239.901 162.93 239.782 163.441 239.544C163.953 239.31 164.329 238.96 164.571 238.495C164.812 238.029 164.933 237.456 164.933 236.774L164.933 235.304L157.976 235.304Z" fill="#DBC189"/>
<g style="mix-blend-mode:hue">
<rect width="320" height="320" fill="#00BF13"/>
</g>
</g>
<defs>
<clipPath id="clip0_2122_1297">
<rect width="320" height="320" fill="white"/>
</clipPath>
</defs>
</svg>
