<svg width="320" height="320" viewBox="0 0 320 320" fill="none" xmlns="http://www.w3.org/2000/svg">
<g clip-path="url(#clip0_2245_144)">
<rect width="320" height="320" fill="#EFE2C1"/>
<path d="M79.2329 139.849L126.015 139.849L126.015 178.962L77.4575 178.962C75.0011 178.963 72.5677 178.49 70.2903 177.57L42.3398 152.002C53.0199 144.107 65.9514 139.847 79.2329 139.849Z" fill="#A42424"/>
<path d="M70.2759 167.325C71.292 168.84 71.8346 170.623 71.8346 172.448C71.8346 174.272 71.292 176.055 70.2759 177.57C53.2428 171.941 42.3398 152.003 42.3398 152.003C56.9002 151.016 65.935 160.815 70.2759 167.325Z" fill="#941B1B"/>
<path d="M129.171 132.72L163.275 132.72L163.275 186.315L129.171 186.315C126.099 186.314 123.609 183.824 123.608 180.752L123.608 138.282C123.605 135.213 126.09 132.722 129.159 132.719L129.171 132.72Z" fill="#DBD8DD"/>
<path d="M129.171 141.427L163.275 141.427L163.275 186.313L129.171 186.313C126.099 186.311 123.609 183.822 123.608 180.75L123.608 146.991C123.605 143.922 126.09 141.431 129.159 141.428C129.163 141.427 129.167 141.427 129.171 141.427Z" fill="#EEEFEE"/>
<path d="M163.629 128.327L175.438 128.327L175.438 190.694L163.629 190.694C162.606 190.694 161.626 190.288 160.903 189.565C160.18 188.843 159.774 187.862 159.774 186.84L159.774 132.196C159.773 131.172 160.178 130.189 160.9 129.463C161.623 128.738 162.604 128.329 163.629 128.327Z" fill="#BD9C52"/>
<path d="M163.629 139.849L175.438 139.849L175.438 190.694L163.629 190.694C162.606 190.694 161.626 190.288 160.903 189.565C160.18 188.843 159.774 187.862 159.774 186.84L159.774 143.716C159.773 142.692 160.179 141.71 160.901 140.985C161.624 140.26 162.605 139.851 163.629 139.849Z" fill="#C9A962"/>
<path d="M70.6306 124.065L159.973 124.065C160.486 124.064 160.995 124.164 161.47 124.359C161.945 124.555 162.377 124.842 162.741 125.205C163.105 125.567 163.394 125.998 163.592 126.472C163.79 126.946 163.892 127.454 163.893 127.968L163.893 191.393C163.892 192.432 163.479 193.428 162.745 194.163C162.01 194.897 161.014 195.31 159.975 195.311L70.6306 195.311C53.8675 195.313 39.3712 183.627 35.8168 167.245C35.2702 164.761 34.9963 162.224 35 159.681C35.0016 140.009 50.95 124.064 70.6213 124.065C70.6244 124.065 70.6275 124.065 70.6306 124.065Z" fill="#5B4334"/>
<path d="M70.6312 139.189L159.973 139.189C160.487 139.188 160.996 139.288 161.471 139.484C161.946 139.679 162.378 139.967 162.742 140.329C163.106 140.691 163.395 141.122 163.593 141.596C163.79 142.07 163.893 142.579 163.894 143.093L163.894 191.392C163.893 192.431 163.48 193.427 162.745 194.162C162.011 194.897 161.015 195.31 159.976 195.311L70.6312 195.311C53.8681 195.313 39.3718 183.626 35.8174 167.244C39.3764 150.867 53.8717 139.186 70.6312 139.189Z" fill="#674C3C"/>
<path d="M174.861 124L271.779 124C279.405 123.999 285.587 130.179 285.589 137.805L285.589 181.213C285.591 188.839 279.41 195.022 271.784 195.023L174.861 195.023C174.598 195.025 174.337 194.974 174.094 194.874C173.85 194.775 173.629 194.628 173.442 194.443C173.255 194.257 173.106 194.037 173.004 193.794C172.903 193.552 172.85 193.291 172.849 193.028L172.849 126.013C172.852 125.48 173.066 124.97 173.442 124.594C173.819 124.217 174.329 124.004 174.861 124Z" fill="#5B4334"/>
<path d="M174.861 139.849L271.779 139.849C279.405 139.848 285.588 146.028 285.589 153.654L285.589 181.213C285.591 188.839 279.41 195.022 271.784 195.023L174.861 195.023C174.598 195.025 174.337 194.974 174.094 194.874C173.85 194.775 173.629 194.628 173.442 194.443C173.255 194.257 173.106 194.037 173.005 193.794C172.903 193.552 172.85 193.291 172.849 193.028L172.849 141.862C172.848 141.599 172.898 141.338 172.998 141.094C173.098 140.851 173.244 140.629 173.429 140.442C173.615 140.255 173.835 140.107 174.078 140.005C174.32 139.903 174.581 139.85 174.844 139.849L174.861 139.849Z" fill="#674C3C"/>
<path d="M198.407 165.086V151.995H203.649C204.612 151.995 205.415 152.138 206.058 152.423C206.702 152.709 207.186 153.105 207.509 153.612C207.833 154.115 207.995 154.695 207.995 155.351C207.995 155.862 207.893 156.312 207.688 156.7C207.484 157.083 207.203 157.398 206.845 157.646C206.491 157.888 206.086 158.061 205.63 158.163V158.291C206.129 158.312 206.595 158.453 207.03 158.713C207.469 158.973 207.825 159.337 208.097 159.806C208.37 160.271 208.507 160.825 208.507 161.468C208.507 162.163 208.334 162.783 207.989 163.328C207.648 163.869 207.143 164.298 206.474 164.613C205.805 164.928 204.98 165.086 204 165.086H198.407ZM201.175 162.823H203.431C204.203 162.823 204.765 162.676 205.119 162.382C205.472 162.084 205.649 161.687 205.649 161.193C205.649 160.831 205.562 160.511 205.387 160.234C205.213 159.957 204.963 159.74 204.639 159.582C204.32 159.425 203.938 159.346 203.495 159.346H201.175V162.823ZM201.175 157.473H203.227C203.606 157.473 203.943 157.407 204.237 157.275C204.535 157.138 204.769 156.947 204.94 156.7C205.114 156.452 205.202 156.156 205.202 155.811C205.202 155.338 205.034 154.957 204.697 154.667C204.364 154.377 203.891 154.232 203.278 154.232H201.175V157.473ZM210.307 165.086V151.995H215.472C216.461 151.995 217.305 152.172 218.004 152.526C218.707 152.875 219.241 153.371 219.608 154.015C219.979 154.654 220.164 155.406 220.164 156.271C220.164 157.141 219.977 157.888 219.602 158.515C219.227 159.137 218.683 159.614 217.972 159.947C217.264 160.279 216.408 160.445 215.402 160.445H211.944V158.221H214.955C215.483 158.221 215.922 158.148 216.271 158.004C216.621 157.859 216.881 157.641 217.051 157.352C217.226 157.062 217.313 156.702 217.313 156.271C217.313 155.837 217.226 155.47 217.051 155.172C216.881 154.874 216.619 154.648 216.265 154.494C215.915 154.337 215.474 154.258 214.942 154.258H213.075V165.086H210.307ZM217.377 159.129L220.631 165.086H217.575L214.392 159.129H217.377ZM224.376 165.086H221.41L225.93 151.995H229.496L234.009 165.086H231.043L227.764 154.987H227.662L224.376 165.086ZM224.191 159.94H231.197V162.101H224.191V159.94ZM246.534 151.995V165.086H244.144L238.448 156.847H238.353V165.086H235.585V151.995H238.014L243.664 160.228H243.779V151.995H246.534ZM253.462 165.086H248.821V151.995H253.5C254.817 151.995 255.95 152.257 256.901 152.781C257.851 153.301 258.582 154.049 259.093 155.025C259.609 156.001 259.867 157.168 259.867 158.528C259.867 159.891 259.609 161.063 259.093 162.043C258.582 163.023 257.847 163.776 256.888 164.3C255.933 164.824 254.791 165.086 253.462 165.086ZM251.589 162.714H253.347C254.165 162.714 254.853 162.57 255.411 162.28C255.974 161.986 256.396 161.532 256.677 160.918C256.963 160.3 257.105 159.504 257.105 158.528C257.105 157.56 256.963 156.77 256.677 156.156C256.396 155.543 255.976 155.091 255.418 154.801C254.86 154.511 254.171 154.366 253.353 154.366H251.589V162.714Z" fill="#DBC189"/>
<g style="mix-blend-mode:hue">
<rect width="320" height="320" fill="#00BF13"/>
</g>
</g>
<defs>
<clipPath id="clip0_2245_144">
<rect width="320" height="320" fill="white"/>
</clipPath>
</defs>
</svg>
