<svg width="320" height="320" viewBox="0 0 320 320" fill="none" xmlns="http://www.w3.org/2000/svg">
<rect width="320" height="320" fill="#EFE2C1"/>
<g clip-path="url(#clip0_2122_1301)">
<mask id="path-1-inside-1_2122_1301" fill="white">
<path d="M71.002 114.252L91.4678 71.0005H228.533L248.998 114.252L166.926 138.226"/>
</mask>
<path d="M71.002 114.252L91.4678 71.0005H228.533L248.998 114.252L166.926 138.226" fill="#CEB57E"/>
<path d="M91.4678 71.0005V70.0005H90.8347L90.5639 70.5728L91.4678 71.0005ZM228.533 71.0005L229.437 70.5728L229.166 70.0005H228.533V71.0005ZM248.998 114.252L249.279 115.212L250.404 114.883L249.902 113.824L248.998 114.252ZM71.9059 114.68L92.3717 71.4282L90.5639 70.5728L70.098 113.824L71.9059 114.68ZM91.4678 72.0005H228.533V70.0005H91.4678V72.0005ZM227.629 71.4282L248.095 114.68L249.902 113.824L229.437 70.5728L227.629 71.4282ZM248.718 113.292L166.646 137.266L167.207 139.186L249.279 115.212L248.718 113.292Z" fill="#86766A" mask="url(#path-1-inside-1_2122_1301)"/>
<path d="M71.502 114.753H248.498V248.501H71.502V114.753Z" fill="#BD9C52" stroke="#86766A"/>
<path d="M117.337 166.636L120.06 171.164H120.156L122.891 166.636H125.445L121.635 172.818L125.505 179H122.909L120.156 174.502H120.06L117.307 179H114.723L118.629 172.818L114.771 166.636H117.337ZM133.291 166.636L136.014 171.164H136.11L138.845 166.636H141.399L137.589 172.818L141.459 179H138.863L136.11 174.502H136.014L133.261 179H130.677L134.583 172.818L130.725 166.636H133.291ZM149.245 166.636L151.968 171.164H152.064L154.799 166.636H157.353L153.544 172.818L157.413 179H154.817L152.064 174.502H151.968L149.215 179H146.631L150.537 172.818L146.68 166.636H149.245ZM165.199 166.636L167.922 171.164H168.019L170.753 166.636H173.307L169.498 172.818L173.367 179H170.771L168.019 174.502H167.922L165.169 179H162.585L166.491 172.818L162.634 166.636H165.199ZM181.153 166.636L183.876 171.164H183.973L186.707 166.636H189.261L185.452 172.818L189.321 179H186.725L183.973 174.502H183.876L181.123 179H178.539L182.445 172.818L178.588 166.636H181.153ZM197.108 166.636L199.83 171.164H199.927L202.661 166.636H205.215L201.406 172.818L205.275 179H202.68L199.927 174.502H199.83L197.077 179H194.494L198.399 172.818L194.542 166.636H197.108Z" fill="#7C512E"/>
<path d="M142.3 197.3H146.6V201.6H142.3V197.3ZM168.1 193V195.15H165.95V197.3H168.1V205.9H170.25V208.05H168.1V210.2H172.4V205.9H178.85V208.05H181V193H168.1ZM178.85 203.75H170.25V195.15H178.85V203.75Z" fill="#7C512E"/>
<path d="M172.4 197.3H176.7V201.6H172.4V197.3ZM142.3 227.4H146.6V231.7H142.3V227.4ZM168.1 223.1H170.25V225.25H168.1V223.1ZM157.35 233.85H159.5V236H157.35V233.85ZM159.5 225.25H161.65V227.4H159.5V225.25ZM159.5 229.55H161.65V231.7H159.5V229.55ZM178.85 218.8H181V220.95H178.85V218.8ZM138 218.8H140.15V220.95H138V218.8ZM138 208.05H140.15V210.2H138V208.05ZM161.65 195.15V197.3H157.35V199.45H163.8V195.15H161.65Z" fill="#7C512E"/>
<path d="M178.85 210.2V212.35H174.55V214.5H168.1V212.35H165.95V214.5H161.65V216.65H168.1V218.8H161.65V216.65H159.5V218.8H157.35V216.65H155.2V218.8H153.05V220.95H157.35V223.1H159.5V220.95H163.8V223.1H161.65V225.25H163.8V229.55H165.95V231.7H168.1V229.55H174.55V225.25H176.7V223.1H174.55V218.8H170.25V216.65H174.55V218.8H176.7V216.65H178.85V214.5H181V210.2H178.85ZM172.4 220.95V227.4H165.95V220.95H172.4ZM165.95 205.9H163.8V208.05H161.65V212.35H163.8V210.2H165.95V208.05H168.1V205.9H165.95ZM161.65 233.85H165.95V236H161.65V233.85ZM155.2 195.15H157.35V197.3H155.2V195.15Z" fill="#7C512E"/>
<path d="M172.4 210.2H174.55V212.35H172.4V210.2ZM174.55 208.05H176.7V210.2H174.55V208.05ZM146.6 218.8H148.75V220.95H146.6V218.8ZM150.9 233.85V225.25H153.05V220.95H150.9V223.1H144.45V220.95H140.15V223.1H138V236H155.2V233.85H150.9ZM148.75 233.85H140.15V225.25H148.75V233.85ZM150.9 205.9H153.05V208.05H150.9V205.9Z" fill="#7C512E"/>
<path d="M153.05 193H138V205.9H140.15V208.05H142.3V205.9H144.45V208.05H146.6V205.9H150.9V201.6H153.05V199.45H150.9V195.15H155.2V193H153.05ZM148.75 203.75H140.15V195.15H148.75V203.75ZM163.8 199.45H165.95V201.6H163.8V199.45ZM159.5 193H161.65V195.15H159.5V193Z" fill="#7C512E"/>
<path d="M163.8 205.9V203.75H161.65V201.6H159.5V203.75H155.2V201.6H153.05V205.9H155.2V210.2H148.75V208.05H146.6V210.2H140.15V212.35H144.45V214.5H138V216.65H144.45V218.8H146.6V216.65H148.75V218.8H150.9V216.65H155.2V214.5H153.05V212.35H157.35V214.5H161.65V212.35H159.5V210.2H157.35V205.9H163.8ZM150.9 214.5H146.6V212.35H150.9V214.5ZM157.35 227.4V223.1H155.2V225.25H153.05V227.4H155.2V229.55H153.05V231.7H157.35V229.55H159.5V227.4H157.35ZM176.7 231.7V229.55H174.55V231.7H168.1V233.85H172.4V236H174.55V233.85H178.85V236H181V231.7H176.7ZM178.85 223.1V225.25H176.7V227.4H181V223.1H178.85Z" fill="#7C512E"/>
</g>
<defs>
<clipPath id="clip0_2122_1301">
<rect width="178" height="178" fill="white" transform="translate(71 71)"/>
</clipPath>
</defs>
</svg>
