<svg width="572" height="94" viewBox="0 0 572 94" fill="none" xmlns="http://www.w3.org/2000/svg">
<path d="M553.339 73.8867C541.551 73.8867 533.809 68.0474 532.578 58.7385H540.759C541.551 65.6779 545.773 69.8246 553.427 69.8246C558.793 69.8246 562.664 67.7089 562.664 63.6468C562.664 59.1616 558.881 57.7229 549.908 54.5071C541.903 51.7144 535.041 48.7525 535.041 41.2207C535.041 34.112 541.815 29.6268 551.579 29.6268C562.048 29.6268 568.734 34.3659 570.317 42.1516H562.048C561.344 37.074 558.001 33.6043 551.227 33.6043C546.213 33.6043 542.958 35.7199 542.958 39.2743C542.958 43.6749 547.269 45.452 555.186 48.1601C564.599 51.3759 570.757 54.4225 570.757 61.785C570.757 69.8246 563.104 73.8867 553.339 73.8867Z" fill="#3C1F1B"/>
<path d="M513.162 72.4479V72.1093C516.417 70.0783 516.857 67.1164 516.857 61.1078V17.6942C516.857 12.6166 516.241 9.9085 513.602 7.96208V7.62357L526.358 6.18491L526.446 6.52341C526.006 9.06223 525.83 11.0086 525.83 17.6942V61.1078C525.83 67.1164 526.27 70.0783 529.437 72.1093V72.4479H513.162Z" fill="#3C1F1B"/>
<path d="M492.696 72.448V72.1095C495.775 70.0785 496.215 67.2011 496.215 61.108L496.303 42.2362C496.303 35.8891 495.951 33.3503 493.136 31.4885V31.15L505.276 30.5576V61.108C505.276 67.1165 505.716 70.0785 508.795 72.1095V72.448H492.696ZM496.039 20.6563V11.0934H505.364V20.6563H496.039Z" fill="#3C1F1B"/>
<path d="M458.854 73.5483C451.377 73.5483 446.01 69.9093 446.01 62.6314C446.01 54.9303 452.256 52.1376 463.165 49.0911C471.434 46.8061 475.569 45.706 475.657 40.2898C475.657 35.8046 472.666 33.4351 467.299 33.4351C461.405 33.4351 456.039 36.6509 455.951 44.6058H447.594C448.298 34.7891 457.622 29.5422 468.091 29.5422C477.152 29.5422 484.366 33.2658 484.366 43.5057V61.8697C484.366 66.6088 485.861 68.4706 488.5 68.4706C489.732 68.4706 490.7 68.1321 491.667 67.3705V70.5017C489.908 72.1096 487.621 73.1251 484.542 73.1251C479.703 73.1251 475.744 70.0786 475.744 62.6314V61.6159C473.457 68.0475 467.827 73.5483 458.854 73.5483ZM454.719 61.5312C454.719 66.1857 457.886 68.1321 461.669 68.1321C469.938 68.1321 475.657 61.0235 475.657 51.7145V47.3985C474.249 49.7681 470.642 50.7836 465.452 52.4761C458.414 54.6764 454.719 56.5382 454.719 61.5312Z" fill="#3C1F1B"/>
<path d="M415.588 72.4478V72.1093C418.667 70.0782 419.195 67.1163 419.195 61.1078V42.4052C419.195 36.0582 418.667 33.4347 415.588 31.3191V31.0652H429.399C428.344 33.2655 428.168 36.0582 428.168 42.4052V43.2515C429.663 37.243 435.469 30.0497 446.202 29.965V37.4968C433.446 37.0737 428.168 43.2515 428.168 51.1218V61.4463C428.168 67.3702 428.608 70.1629 432.039 72.1939V72.4478H415.588Z" fill="#3C1F1B"/>
<path d="M373.456 73.6327C352.87 73.6327 340.906 59.2461 340.906 41.0513C340.906 20.487 355.774 7.28514 376.623 7.28514C392.545 7.28514 404.773 15.0708 408.204 28.1034H398.615C395.888 17.7789 387.883 11.6857 376.447 11.6857C360.876 11.6857 351.111 23.6182 351.111 39.6973C351.111 55.184 359.644 67.5396 376.095 67.5396C390.17 67.5396 398.703 58.4845 400.463 44.521L371.696 44.6056L371.608 40.3743L409.172 40.2897V72.9557H404.597L401.343 56.4534H400.727C396.504 66.7779 387.091 73.6327 373.456 73.6327Z" fill="#3C1F1B"/>
<path d="M326.367 73.2098C319.33 73.2098 313.787 69.9093 313.787 59.077V35.1276H304.726V31.0655H313.787V20.064L322.145 13.8862H322.76V31.0655H336.924V35.1276H322.76V58.9078C322.76 65.9318 325.576 67.7936 329.622 67.7936C333.493 67.7936 336.66 65.678 338.771 61.7005L339.739 64.8317C337.276 70.0786 332.349 73.2098 326.367 73.2098Z" fill="#3C1F1B"/>
<path d="M287.339 72.448V72.1095C290.418 70.0785 290.858 67.2011 290.858 61.108L290.946 42.2362C290.946 35.8891 290.594 33.3503 287.779 31.4885V31.15L299.919 30.5576V61.108C299.919 67.1165 300.359 70.0785 303.438 72.1095V72.448H287.339ZM290.682 20.6563V11.0934H300.007V20.6563H290.682Z" fill="#3C1F1B"/>
<path d="M253.189 93.7734C243.864 93.7734 236.386 91.3192 236.386 85.2261C236.386 81.2486 240.169 77.7789 246.855 75.8325H246.767C239.465 76.0017 234.803 73.0398 234.803 67.9622C234.803 63.5616 239.025 60.0072 245.095 57.5531C241.928 54.7604 239.905 50.8675 239.905 45.8745C239.905 35.7193 248.174 29.7954 258.731 29.7954C264.625 29.7954 269.815 31.5726 273.246 34.9576C273.862 28.3567 278.524 23.7023 285.034 23.6176V30.9802C279.052 30.9802 275.709 33.1805 275.269 37.3272C276.853 39.6121 277.733 42.5741 277.733 45.8745C277.733 56.1144 269.463 61.9537 258.819 61.9537C254.772 61.9537 251.077 61.1074 247.998 59.4149C243.776 61.192 241.313 63.1384 241.313 65.8465C241.313 67.9622 243.072 69.147 248.262 69.147C256.268 69.147 266.032 66.9467 273.07 66.9467C280.284 66.9467 284.418 69.6547 284.418 75.0708C284.418 86.4955 268.056 93.7734 253.189 93.7734ZM243.248 84.4645C243.248 88.2727 247.295 89.8806 253.628 89.8806C266.648 89.8806 276.853 84.8876 276.853 78.0328C276.853 75.1555 274.742 74.0553 270.343 74.0553C260.754 74.0553 243.248 77.3558 243.248 84.4645ZM248.702 45.8745C248.702 53.4063 252.485 58.1455 258.731 58.1455C265.153 58.1455 268.935 53.4063 268.935 45.8745C268.935 38.3427 265.065 33.6036 258.731 33.6036C252.485 33.6036 248.702 38.3427 248.702 45.8745Z" fill="#3C1F1B"/>
<path d="M211.424 73.8867C198.933 73.8867 189.96 65.7625 189.96 52.1376C189.96 38.428 199.372 29.6268 211.864 29.6268C224.708 29.6268 232.537 38.0049 232.713 49.768H198.757V50.6989C198.757 60.8542 203.419 68.4706 213.184 68.4706C221.453 68.4706 226.028 63.2237 227.787 56.5382H232.713C230.778 66.101 223.828 73.8867 211.424 73.8867ZM199.196 45.7905H223.916C223.213 38.6819 219.166 33.5196 211.864 33.5196C204.915 33.5196 200.516 38.3434 199.196 45.7905Z" fill="#3C1F1B"/>
<path d="M144.95 72.4477V72.1092C148.381 70.0782 148.821 67.1162 148.821 61.1077V19.7251C148.821 13.3781 148.381 10.7546 144.95 8.63897V8.38509H162.456V8.63897C159.113 10.7546 158.673 13.3781 158.673 19.7251V68.0471H167.734C174.156 68.0471 181.018 66.5238 189.375 64.1543V72.4477H144.95Z" fill="#3C1F1B"/>
<g clip-path="url(#clip0_1908_4319)">
<path d="M53.0432 80.8153C54.6748 82.3312 57.2614 82.3314 58.8931 80.8156L111.665 31.7944C113.374 30.2066 113.38 27.5735 111.677 25.9789L85.1695 1.14848C84.3833 0.412076 83.3294 0 82.2321 0H29.7185C28.6213 0 27.5673 0.412076 26.7812 1.14848L0.273109 25.9792C-1.42919 27.5737 -1.42359 30.2066 0.285308 31.7944L53.0432 80.8153Z" fill="#3C1F1B"/>
</g>
<g clip-path="url(#clip1_1908_4319)">
<path d="M53.5432 80.8153C55.1748 82.3312 57.7614 82.3314 59.3931 80.8156L112.165 31.7944C113.874 30.2066 113.88 27.5735 112.177 25.9789L85.6695 1.14848C84.8833 0.412076 83.8294 0 82.7321 0H30.2185C29.1213 0 28.0673 0.412076 27.2812 1.14848L0.773109 25.9792C-0.929191 27.5737 -0.923592 30.2066 0.785308 31.7944L53.5432 80.8153Z" fill="#3C1F1B"/>
</g>
<g clip-path="url(#clip2_1908_4319)">
<path d="M53.6432 80.8153C55.2747 82.3312 57.8614 82.3314 59.4931 80.8156L112.265 31.7944C113.974 30.2066 113.98 27.5735 112.277 25.9789L85.7695 1.14848C84.9833 0.412076 83.9294 0 82.8321 0H30.3186C29.2213 0 28.1674 0.412076 27.3812 1.14848L0.873115 25.9792C-0.829185 27.5737 -0.823586 30.2066 0.885314 31.7944L53.6432 80.8153Z" fill="#3C1F1B"/>
</g>
<g clip-path="url(#clip3_1908_4319)">
<path d="M53.4432 80.8153C55.0747 82.3312 57.6614 82.3314 59.2931 80.8156L112.065 31.7944C113.774 30.2066 113.78 27.5735 112.077 25.9789L85.5695 1.14848C84.7833 0.412076 83.7294 0 82.6321 0H30.1186C29.0213 0 27.9673 0.412076 27.1812 1.14848L0.673103 25.9792C-1.0292 27.5737 -1.0236 30.2066 0.685302 31.7944L53.4432 80.8153Z" fill="#3C1F1B"/>
</g>
<g clip-path="url(#clip4_1908_4319)">
<path d="M54.0432 80.8153C55.6747 82.3312 58.2614 82.3314 59.8931 80.8156L112.665 31.7944C114.374 30.2066 114.38 27.5735 112.677 25.9789L86.1695 1.14848C85.3833 0.41208 84.3294 0 83.2321 0H30.7185C29.6213 0 28.5673 0.41208 27.7812 1.14848L1.2731 25.9792C-0.429193 27.5737 -0.423594 30.2066 1.28534 31.7944L54.0432 80.8153Z" fill="#3C1F1B"/>
</g>
<g clip-path="url(#clip5_1908_4319)">
<path d="M54.5432 80.8153C56.1747 82.3312 58.7614 82.3314 60.3931 80.8156L113.165 31.7944C114.874 30.2066 114.88 27.5735 113.177 25.9788L86.6695 1.1485C85.8833 0.4121 84.8294 0 83.7321 0H31.2185C30.1213 0 29.0673 0.4121 28.2812 1.1485L1.77308 25.9792C0.0708395 27.5737 0.0763816 30.2066 1.78532 31.7944L54.5432 80.8153Z" fill="#3C1F1B"/>
</g>
<defs>
<clipPath id="clip0_1908_4319">
<rect width="54.95" height="82" fill="white" transform="translate(58)"/>
</clipPath>
<clipPath id="clip1_1908_4319">
<rect width="8.12" height="82" fill="white" transform="translate(46.5)"/>
</clipPath>
<clipPath id="clip2_1908_4319">
<rect width="8.35" height="71" fill="white" transform="translate(34.6)"/>
</clipPath>
<clipPath id="clip3_1908_4319">
<rect width="7.58" height="60" fill="white" transform="translate(23.4)"/>
</clipPath>
<clipPath id="clip4_1908_4319">
<rect width="7.82" height="42" fill="white" transform="translate(12 8)"/>
</clipPath>
<clipPath id="clip5_1908_4319">
<rect width="8" height="20" fill="white" transform="translate(0.5 19)"/>
</clipPath>
</defs>
</svg>
