<svg width="113" height="82" viewBox="0 0 113 82" fill="none" xmlns="http://www.w3.org/2000/svg">
<g clip-path="url(#clip0_1908_4318)">
<path d="M53.0432 80.8153C54.6748 82.3312 57.2614 82.3314 58.8931 80.8156L111.665 31.7944C113.374 30.2066 113.38 27.5735 111.677 25.9789L85.1695 1.14848C84.3833 0.412076 83.3294 0 82.2321 0H29.7185C28.6213 0 27.5673 0.412076 26.7812 1.14848L0.273109 25.9792C-1.42919 27.5737 -1.42359 30.2066 0.285308 31.7944L53.0432 80.8153Z" fill="#3C1F1B"/>
</g>
<g clip-path="url(#clip1_1908_4318)">
<path d="M53.5432 80.8153C55.1748 82.3312 57.7614 82.3314 59.3931 80.8156L112.165 31.7944C113.874 30.2066 113.88 27.5735 112.177 25.9789L85.6695 1.14848C84.8833 0.412076 83.8294 0 82.7321 0H30.2185C29.1213 0 28.0673 0.412076 27.2812 1.14848L0.773109 25.9792C-0.929191 27.5737 -0.923592 30.2066 0.785308 31.7944L53.5432 80.8153Z" fill="#3C1F1B"/>
</g>
<g clip-path="url(#clip2_1908_4318)">
<path d="M53.6432 80.8153C55.2747 82.3312 57.8614 82.3314 59.4931 80.8156L112.265 31.7944C113.974 30.2066 113.98 27.5735 112.277 25.9789L85.7695 1.14848C84.9833 0.412076 83.9294 0 82.8321 0H30.3186C29.2213 0 28.1674 0.412076 27.3812 1.14848L0.873115 25.9792C-0.829185 27.5737 -0.823586 30.2066 0.885314 31.7944L53.6432 80.8153Z" fill="#3C1F1B"/>
</g>
<g clip-path="url(#clip3_1908_4318)">
<path d="M53.4432 80.8153C55.0747 82.3312 57.6614 82.3314 59.2931 80.8156L112.065 31.7944C113.774 30.2066 113.78 27.5735 112.077 25.9789L85.5695 1.14848C84.7833 0.412076 83.7294 0 82.6321 0H30.1186C29.0213 0 27.9673 0.412076 27.1812 1.14848L0.673103 25.9792C-1.0292 27.5737 -1.0236 30.2066 0.685302 31.7944L53.4432 80.8153Z" fill="#3C1F1B"/>
</g>
<g clip-path="url(#clip4_1908_4318)">
<path d="M54.0432 80.8153C55.6747 82.3312 58.2614 82.3314 59.8931 80.8156L112.665 31.7944C114.374 30.2066 114.38 27.5735 112.677 25.9789L86.1695 1.14848C85.3833 0.41208 84.3294 0 83.2321 0H30.7185C29.6213 0 28.5673 0.41208 27.7812 1.14848L1.2731 25.9792C-0.429193 27.5737 -0.423594 30.2066 1.28534 31.7944L54.0432 80.8153Z" fill="#3C1F1B"/>
</g>
<g clip-path="url(#clip5_1908_4318)">
<path d="M54.5432 80.8153C56.1747 82.3312 58.7614 82.3314 60.3931 80.8156L113.165 31.7944C114.874 30.2066 114.88 27.5735 113.177 25.9788L86.6695 1.1485C85.8833 0.4121 84.8294 0 83.7321 0H31.2185C30.1213 0 29.0673 0.4121 28.2812 1.1485L1.77308 25.9792C0.0708395 27.5737 0.0763816 30.2066 1.78532 31.7944L54.5432 80.8153Z" fill="#3C1F1B"/>
</g>
<defs>
<clipPath id="clip0_1908_4318">
<rect width="54.95" height="82" fill="white" transform="translate(58)"/>
</clipPath>
<clipPath id="clip1_1908_4318">
<rect width="8.12" height="82" fill="white" transform="translate(46.5)"/>
</clipPath>
<clipPath id="clip2_1908_4318">
<rect width="8.35" height="71" fill="white" transform="translate(34.6)"/>
</clipPath>
<clipPath id="clip3_1908_4318">
<rect width="7.58" height="60" fill="white" transform="translate(23.4)"/>
</clipPath>
<clipPath id="clip4_1908_4318">
<rect width="7.82" height="42" fill="white" transform="translate(12 8)"/>
</clipPath>
<clipPath id="clip5_1908_4318">
<rect width="8" height="20" fill="white" transform="translate(0.5 19)"/>
</clipPath>
</defs>
</svg>
