<svg width="320" height="320" viewBox="0 0 320 320" fill="none" xmlns="http://www.w3.org/2000/svg">
<g clip-path="url(#clip0_1482_91)">
<path d="M320 0H0V320H320V0Z" fill="#DCFFE0"/>
<path d="M77.0348 77.5121C76.7819 74.8565 78.7297 72.499 81.385 72.246L209.605 60.0355C212.26 59.7828 214.618 61.7304 214.871 64.386L230.744 231.071C230.997 233.727 229.049 236.085 226.394 236.338L98.1744 248.548C95.5189 248.801 93.1611 246.853 92.9082 244.198L77.0348 77.5121Z" fill="#DCFFE0"/>
<path fill-rule="evenodd" clip-rule="evenodd" d="M75.0313 77.702C74.6729 73.94 77.4323 70.6 81.1942 70.2418L209.414 58.0313C213.176 57.6731 216.516 60.4322 216.874 64.1942L232.748 230.88C233.106 234.642 230.347 237.982 226.585 238.34L98.3651 250.551C94.6031 250.909 91.2629 248.149 90.9047 244.387L75.0313 77.702ZM81.5757 74.2486C80.0268 74.396 78.8907 75.7713 79.0381 77.3205L94.9115 244.006C95.0592 245.555 96.4344 246.691 97.9834 246.543L226.203 234.333C227.752 234.186 228.888 232.81 228.741 231.261L212.867 64.5759C212.72 63.0267 211.344 61.8906 209.795 62.0381L81.5757 74.2486Z" fill="#3C1F1B"/>
<path d="M104.316 87.7183C104.316 85.0507 106.479 82.8882 109.146 82.8882H237.946C240.614 82.8882 242.776 85.0507 242.776 87.7183V255.158C242.776 257.825 240.614 259.988 237.946 259.988H109.146C106.479 259.988 104.316 257.825 104.316 255.158V87.7183Z" fill="#DCFFE0"/>
<path fill-rule="evenodd" clip-rule="evenodd" d="M102.305 87.718C102.305 83.9391 105.368 80.8755 109.147 80.8755H237.947C241.726 80.8755 244.789 83.9391 244.789 87.718V255.158C244.789 258.936 241.726 262 237.947 262H109.147C105.368 262 102.305 258.936 102.305 255.158V87.718ZM109.147 84.9005C107.591 84.9005 106.33 86.1619 106.33 87.718V255.158C106.33 256.714 107.591 257.975 109.147 257.975H237.947C239.503 257.975 240.764 256.714 240.764 255.158V87.718C240.764 86.1619 239.503 84.9005 237.947 84.9005H109.147Z" fill="#3C1F1B"/>
<path d="M157.618 110.119L154.14 113.648C154.179 114.096 154.24 114.54 154.321 114.978H146.064C138.057 114.628 130.266 123.02 130.266 123.02L119.282 134.956C119.282 134.956 117.598 136.711 116.827 137.572C116.827 137.572 119.484 141.226 122.931 144.27C126.378 147.315 130.266 149.819 130.266 149.819L133.236 147.315L142.056 139.879L141.026 200.338C141.009 201.342 141.817 202.164 142.82 202.164H167.301H187.619C188.61 202.164 189.413 201.36 189.413 200.369V165.41L188.979 139.879L197.798 147.315L200.768 149.819C200.768 149.819 204.656 147.315 208.103 144.27C211.55 141.226 215.13 137.572 215.13 137.572C214.359 136.711 212.93 134.956 212.93 134.956L200.768 123.02C200.768 123.02 192.977 114.628 184.97 114.978H176.713C176.794 114.54 176.855 114.096 176.894 113.648L173.416 110.119C169.699 111.461 161.416 111.321 157.618 110.119Z" fill="#DCFFE0"/>
<path d="M165.682 129.391C166.182 129.391 166.588 128.986 166.588 128.487C166.588 127.988 166.182 127.583 165.682 127.583C165.181 127.583 164.775 127.988 164.775 128.487C164.775 128.986 165.181 129.391 165.682 129.391Z" fill="#3C1F1B"/>
<path d="M165.682 132.593C166.182 132.593 166.588 132.188 166.588 131.689C166.588 131.19 166.182 130.785 165.682 130.785C165.181 130.785 164.775 131.19 164.775 131.689C164.775 132.188 165.181 132.593 165.682 132.593Z" fill="#3C1F1B"/>
<path d="M166.588 134.891C166.588 135.391 166.182 135.796 165.682 135.796C165.181 135.796 164.775 135.391 164.775 134.891C164.775 134.392 165.181 133.987 165.682 133.987C166.182 133.987 166.588 134.392 166.588 134.891Z" fill="#3C1F1B"/>
<path d="M165.682 138.998C166.182 138.998 166.588 138.593 166.588 138.093C166.588 137.594 166.182 137.189 165.682 137.189C165.181 137.189 164.775 137.594 164.775 138.093C164.775 138.593 165.181 138.998 165.682 138.998Z" fill="#3C1F1B"/>
<path fill-rule="evenodd" clip-rule="evenodd" d="M178.519 113.061L173.826 108.299L172.88 108.641C171.289 109.215 168.515 109.519 165.554 109.502C162.609 109.485 159.769 109.153 158.09 108.621L157.172 108.33L152.51 113.061L152.54 113.407H146.095C141.579 113.222 137.288 115.47 134.262 117.578C132.718 118.654 131.44 119.738 130.547 120.553C130.1 120.962 129.747 121.305 129.503 121.549C129.381 121.671 129.287 121.768 129.221 121.836C129.188 121.87 129.162 121.897 129.144 121.916L129.123 121.939L129.116 121.946L129.113 121.949C129.113 121.949 129.112 121.95 130.259 123.015L129.113 121.949L118.135 133.88L118.071 133.946C118.023 133.996 117.954 134.069 117.868 134.158C117.697 134.337 117.461 134.585 117.201 134.861C116.684 135.406 116.056 136.075 115.654 136.525L114.809 137.47L115.555 138.496L116.825 137.572C115.555 138.496 115.555 138.496 115.555 138.496L115.558 138.5L115.565 138.511L115.592 138.546C115.614 138.577 115.647 138.621 115.689 138.677C115.773 138.789 115.896 138.951 116.053 139.153C116.368 139.558 116.821 140.127 117.385 140.793C118.509 142.121 120.089 143.857 121.889 145.446C123.666 147.016 125.546 148.437 126.973 149.461C127.688 149.975 128.295 150.391 128.724 150.681C128.938 150.826 129.108 150.939 129.226 151.016C129.285 151.055 129.331 151.085 129.362 151.105L129.399 151.129L129.409 151.135L130.389 151.766L140.424 143.306L139.453 200.311C139.421 202.191 140.937 203.733 142.818 203.733H187.616C189.475 203.733 190.981 202.227 190.981 200.368V165.395L190.605 143.306L200.64 151.766L201.617 151.138L201.631 151.129L201.667 151.105C201.698 151.085 201.744 151.055 201.803 151.016C201.921 150.939 202.091 150.826 202.305 150.681C202.734 150.391 203.341 149.975 204.056 149.461C205.483 148.437 207.363 147.016 209.14 145.446C210.891 143.9 212.669 142.205 214.003 140.903C214.672 140.25 215.232 139.694 215.626 139.3C215.822 139.103 215.978 138.946 216.084 138.839L216.157 138.765L216.206 138.715L216.248 138.672L217.278 137.621L216.298 136.525C215.934 136.118 215.401 135.484 214.947 134.937C214.722 134.667 214.522 134.423 214.377 134.247C214.334 134.195 214.297 134.149 214.265 134.11C214.243 134.083 214.223 134.059 214.206 134.039L214.146 133.965L214.09 133.896L201.889 121.92L201.885 121.916L201.867 121.897C201.851 121.881 201.831 121.86 201.808 121.836C201.743 121.768 201.648 121.671 201.526 121.549C201.282 121.305 200.929 120.962 200.482 120.553C199.589 119.738 198.311 118.654 196.767 117.578C193.741 115.47 189.45 113.222 184.934 113.407H178.489L178.519 113.061ZM146.027 116.548H153.062C154.307 121.247 157.374 125.065 159.014 126.611L159.913 127.459L160.815 126.872V140.394H163.956V124.828L165.515 123.813L167.073 124.828V140.394H170.214V126.872L171.116 127.459L172.015 126.611C173.655 125.065 176.722 121.247 177.967 116.548H185.002L185.036 116.546C188.514 116.394 192.107 118.16 194.971 120.155C196.376 121.134 197.546 122.125 198.364 122.873C198.772 123.246 199.091 123.555 199.304 123.769C199.411 123.876 199.492 123.959 199.544 124.013C199.57 124.04 199.589 124.06 199.601 124.073L199.615 124.087L199.64 124.114L210.576 134.848L197.811 145.273L187.347 136.451L187.84 165.422V200.368C187.84 200.492 187.74 200.592 187.616 200.592H142.818C142.692 200.592 142.591 200.489 142.593 200.364L143.682 136.451L133.259 145.238L121.519 134.841L131.414 124.088L131.415 124.086L131.428 124.073C131.44 124.06 131.459 124.04 131.485 124.013C131.537 123.959 131.618 123.876 131.725 123.769C131.938 123.555 132.257 123.246 132.665 122.873C133.483 122.125 134.653 121.134 136.058 120.155C138.922 118.16 142.515 116.394 145.993 116.546L146.027 116.548ZM162.824 121.817L160.325 123.443C158.747 121.645 156.539 118.373 155.863 114.693C155.834 114.534 155.807 114.374 155.784 114.214L156.81 113.172C156.969 113.7 157.157 114.245 157.375 114.714C158.571 117.286 160.414 119.729 162.824 121.817ZM159.92 112.594C159.88 112.472 159.841 112.344 159.801 112.212C161.554 112.489 163.571 112.631 165.536 112.643C167.468 112.654 169.467 112.539 171.213 112.26C171.168 112.409 171.123 112.553 171.077 112.689C169.954 112.868 168.27 112.956 166.298 112.941C164.214 112.925 161.939 112.797 159.92 112.594ZM173.654 114.714C173.872 114.245 174.06 113.7 174.219 113.172L175.245 114.214C175.222 114.374 175.195 114.534 175.166 114.693C174.49 118.373 172.282 121.645 170.704 123.443L168.205 121.817C170.615 119.729 172.458 117.286 173.654 114.714ZM169.272 116.019C168.273 117.429 167.016 118.77 165.515 119.971C163.969 118.735 162.683 117.351 161.67 115.896C163.199 116.004 164.782 116.07 166.274 116.082C167.305 116.09 168.325 116.072 169.272 116.019ZM200.875 147.855L200.255 147.333L212.71 137.16C212.801 137.269 212.895 137.381 212.989 137.493C212.658 137.822 212.259 138.216 211.81 138.655C210.493 139.94 208.757 141.594 207.061 143.092C205.392 144.567 203.604 145.92 202.225 146.909C201.704 147.283 201.244 147.603 200.875 147.855ZM119.372 137.135L130.832 147.284L130.154 147.855C129.785 147.603 129.325 147.283 128.804 146.909C127.425 145.92 125.637 144.567 123.968 143.092C122.321 141.638 120.85 140.025 119.783 138.764C119.432 138.35 119.127 137.976 118.877 137.662C119.041 137.486 119.21 137.307 119.372 137.135Z" fill="#3C1F1B"/>
<path d="M226.452 187.494H171.35C169.219 187.494 167.491 189.221 167.491 191.352V227.608C167.491 229.739 169.219 231.466 171.35 231.466H226.452C228.583 231.466 230.311 229.739 230.311 227.608V191.352C230.311 189.221 228.583 187.494 226.452 187.494Z" fill="#DCFFE0"/>
<path fill-rule="evenodd" clip-rule="evenodd" d="M195.308 196.85C195.744 196.333 196.424 195.992 197.2 195.992C197.229 195.992 197.258 195.993 197.287 195.993C196.858 196.638 196.607 197.408 196.607 198.243C196.607 199.079 196.858 199.848 197.286 200.492C197.258 200.493 197.228 200.494 197.2 200.494C196.424 200.494 195.744 200.153 195.308 199.636L193.834 200.881C194.634 201.828 195.85 202.423 197.2 202.423C197.865 202.423 198.502 202.277 199.072 202.013C199.643 202.277 200.279 202.423 200.946 202.423C202.295 202.423 203.511 201.828 204.311 200.882L202.837 199.636C202.401 200.153 201.721 200.494 200.946 200.494C200.916 200.494 200.887 200.494 200.858 200.493C201.287 199.848 201.538 199.078 201.538 198.243C201.538 197.408 201.287 196.638 200.859 195.994C200.887 195.993 200.917 195.992 200.946 195.992C201.721 195.992 202.401 196.333 202.837 196.85L204.311 195.605C203.511 194.658 202.295 194.063 200.946 194.063C200.28 194.063 199.643 194.209 199.073 194.473C198.502 194.209 197.866 194.063 197.2 194.063C195.85 194.063 194.634 194.658 193.834 195.605L195.308 196.85ZM198.537 198.243C198.537 197.718 198.735 197.221 199.073 196.829C199.411 197.221 199.609 197.718 199.609 198.243C199.609 198.768 199.41 199.264 199.073 199.657C198.734 199.265 198.537 198.768 198.537 198.243Z" fill="#3C1F1B"/>
<path fill-rule="evenodd" clip-rule="evenodd" d="M173.43 185.923C176.47 171.977 186.592 161.302 199.072 161.302C211.552 161.302 221.673 171.977 224.714 185.923H226.451C229.45 185.923 231.881 188.353 231.881 191.352V227.607C231.881 230.606 229.45 233.036 226.451 233.036H171.349C168.351 233.036 165.92 230.606 165.92 227.607V191.352C165.92 188.353 168.351 185.923 171.349 185.923H173.43ZM176.649 185.923C179.645 173.251 188.75 164.442 199.072 164.442C209.394 164.442 218.499 173.251 221.494 185.923H176.649ZM171.349 189.064C170.085 189.064 169.061 190.088 169.061 191.352V197.752C169.459 197.949 169.995 198.207 170.657 198.509C172.234 199.227 174.517 200.189 177.325 201.151C182.95 203.08 190.623 204.993 198.9 204.993C207.177 204.993 214.851 203.08 220.476 201.151C223.283 200.189 225.567 199.227 227.144 198.509C227.805 198.207 228.342 197.949 228.74 197.752V191.352C228.74 190.088 227.715 189.064 226.451 189.064H171.349ZM169.061 227.607V201.232C169.156 201.276 169.254 201.321 169.354 201.367C171.009 202.121 173.387 203.122 176.306 204.122C181.594 205.936 188.7 207.762 196.499 208.084V209.176C196.499 210.597 197.651 211.749 199.072 211.749C200.493 211.749 201.644 210.597 201.644 209.176V208.069C209.31 207.708 216.284 205.909 221.495 204.122C224.413 203.122 226.792 202.121 228.446 201.367C228.508 201.338 228.57 201.31 228.63 201.283L228.74 201.232V227.607C228.74 228.871 227.715 229.895 226.451 229.895H171.349C170.085 229.895 169.061 228.871 169.061 227.607Z" fill="#3C1F1B"/>
<g style="mix-blend-mode:hue">
<rect width="320" height="320" fill="#00BF13"/>
</g>
</g>
<defs>
<clipPath id="clip0_1482_91">
<rect width="320" height="320" fill="white"/>
</clipPath>
</defs>
</svg>
