<svg width="320" height="320" viewBox="0 0 320 320" fill="none" xmlns="http://www.w3.org/2000/svg">
<g clip-path="url(#clip0_2133_997)">
<rect width="320" height="320" fill="#EFE2C1"/>
<path d="M259.225 169.667L259.225 169.67C259.191 183.061 249.879 196.57 231.026 206.967C212.078 217.392 187.154 222.627 162.169 222.631C137.185 222.635 112.193 217.409 93.1075 206.966C73.9133 196.439 64.4668 182.738 64.5003 169.155V169.154L64.5001 152.761C67.473 164.135 77.0471 175.029 92.8663 183.69L92.8664 183.69C112.135 194.232 137.302 199.482 162.408 199.478C187.515 199.474 212.614 194.216 231.747 183.689L231.747 183.689C247.139 175.185 256.378 164.541 259.362 153.396L259.225 169.667Z" fill="#CEB57E" stroke="#86766A"/>
<path d="M231.282 184.331L231.282 184.331L231.27 184.338C186.595 209.717 131.436 204.583 93.1484 184.33C74.0403 174.214 64.5801 161.036 64.5005 147.99C64.421 134.946 73.7181 121.779 92.7051 111.679L92.7052 111.679C111.7 101.569 136.662 96.5 161.682 96.5C186.701 96.5 211.724 101.569 230.839 111.68C249.964 121.796 259.424 134.966 259.5 148.008C259.575 161.048 250.269 174.216 231.282 184.331Z" fill="#CEB57E" stroke="#86766A"/>
<path d="M108.039 171.147L108.039 171.147C95.0994 164.54 88.1746 156.267 88.1465 147.956C88.1469 139.72 94.9306 131.523 107.668 124.994L107.668 124.993C121.796 117.725 140.848 113.712 161.299 113.712C181.75 113.712 200.859 117.725 215.102 125.019L215.103 125.019C228.043 131.626 234.967 139.9 234.995 148.186C234.994 156.422 228.211 164.618 215.445 171.147L215.445 171.147C201.288 178.416 182.264 182.429 161.814 182.429C141.363 182.429 122.253 178.416 108.039 171.147Z" fill="#EDEDED" stroke="#86766A"/>
<path d="M249.5 150.5C249.5 161.939 239.994 172.436 224.299 180.103C208.637 187.754 186.965 192.5 163 192.5C139.035 192.5 117.363 187.754 101.701 180.103C86.006 172.436 76.5 161.939 76.5 150.5C76.5 139.061 86.006 128.564 101.701 120.897C117.363 113.246 139.035 108.5 163 108.5C186.965 108.5 208.637 113.246 224.299 120.897C239.994 128.564 249.5 139.061 249.5 150.5Z" fill="#DBD8DD" stroke="#86766A"/>
<mask id="mask0_2133_997" style="mask-type:alpha" maskUnits="userSpaceOnUse" x="77" y="109" width="172" height="83">
<path d="M163 192C210.496 192 249 173.42 249 150.5C249 127.58 210.496 109 163 109C115.504 109 77 127.58 77 150.5C77 173.42 115.504 192 163 192Z" fill="#DBD8DD"/>
</mask>
<g mask="url(#mask0_2133_997)">
<path d="M148 114.691C174.5 112.19 246 114.192 252.5 160.691" stroke="#C4C4C4" stroke-linecap="round"/>
<path d="M77 155.251C81.5 106 251.5 105 247.5 161.751" stroke="#C4C4C4" stroke-linecap="round"/>
</g>
<path d="M244.5 158C244.5 162.663 242.288 167.147 238.201 171.272C234.111 175.398 228.169 179.138 220.786 182.289C206.023 188.59 185.593 192.5 163 192.5C140.407 192.5 119.977 188.59 105.214 182.289C97.8309 179.138 91.8885 175.398 87.7991 171.272C83.7118 167.147 81.5 162.663 81.5 158C81.5 153.337 83.7118 148.853 87.7991 144.728C91.8885 140.602 97.8309 136.862 105.214 133.711C119.977 127.41 140.407 123.5 163 123.5C185.593 123.5 206.023 127.41 220.786 133.711C228.169 136.862 234.111 140.602 238.201 144.728C242.288 148.853 244.5 153.337 244.5 158Z" fill="#EDEDED" stroke="#86766A"/>
<g style="mix-blend-mode:hue">
<rect width="320" height="320" fill="#00BF13"/>
</g>
</g>
<defs>
<clipPath id="clip0_2133_997">
<rect width="320" height="320" fill="white"/>
</clipPath>
</defs>
</svg>
