<svg width="320" height="320" viewBox="0 0 320 320" fill="none" xmlns="http://www.w3.org/2000/svg">
<rect width="320" height="320" fill="#EFE2C1"/>
<path d="M88.6736 226.777L88.6733 226.777C71.3637 208.035 61.839 184.294 61.8008 159.99C61.8009 135.9 71.1351 112.375 88.176 93.8494L88.1766 93.8488C107.122 73.179 132.616 61.8135 159.937 61.8135C187.258 61.8135 212.829 73.179 231.928 93.9215L231.928 93.922C249.238 112.664 258.763 136.406 258.801 160.638C258.801 184.727 249.466 208.252 232.388 226.777L232.387 226.778C213.403 247.448 187.947 258.813 160.626 258.813C133.305 258.813 107.734 247.448 88.6736 226.777Z" fill="#5B4334" stroke="#CEB57E"/>
<path d="M101.035 214.467L101.035 214.467C86.712 199.053 78.8324 179.53 78.8008 159.547C78.8009 139.74 86.5228 120.394 100.623 105.159L100.624 105.158C116.3 88.1599 137.394 78.8135 159.999 78.8135C182.605 78.8135 203.763 88.1599 219.566 105.218L219.567 105.219C233.89 120.633 241.769 140.156 241.801 160.081C241.801 179.887 234.079 199.232 219.947 214.467L219.946 214.468C204.238 231.467 183.176 240.813 160.57 240.813C137.965 240.813 116.807 231.467 101.035 214.467Z" fill="#CEB57E" stroke="#86766A"/>
<path d="M119.666 152.313L121.427 155.243H121.49L123.259 152.313H124.912L122.447 156.313L124.951 160.313H123.271L121.49 157.403H121.427L119.646 160.313H117.974L120.501 156.313L118.005 152.313H119.666ZM127.26 152.313L129.022 155.243H129.084L130.854 152.313H132.506L130.042 156.313L132.545 160.313H130.866L129.084 157.403H129.022L127.241 160.313H125.569L128.096 156.313L125.6 152.313H127.26ZM134.855 152.313L136.617 155.243H136.679L138.449 152.313H140.101L137.636 156.313L140.14 160.313H138.46L136.679 157.403H136.617L134.835 160.313H133.164L135.691 156.313L133.195 152.313H134.855ZM142.45 152.313L144.211 155.243H144.274L146.043 152.313H147.696L145.231 156.313L147.735 160.313H146.055L144.274 157.403H144.211L142.43 160.313H140.758L143.286 156.313L140.79 152.313H142.45ZM150.044 152.313L151.806 155.243H151.869L153.638 152.313H155.291L152.826 156.313L155.33 160.313H153.65L151.869 157.403H151.806L150.025 160.313H148.353L150.88 156.313L148.384 152.313H150.044ZM157.639 152.313L159.401 155.243H159.463L161.233 152.313H162.885L160.42 156.313L162.924 160.313H161.245L159.463 157.403H159.401L157.62 160.313H155.948L158.475 156.313L155.979 152.313H157.639ZM165.234 152.313L166.996 155.243H167.058L168.828 152.313H170.48L168.015 156.313L170.519 160.313H168.839L167.058 157.403H166.996L165.214 160.313H163.542L166.07 156.313L163.574 152.313H165.234ZM175.557 152.313L177.319 155.243H177.381L179.151 152.313H180.803L178.338 156.313L180.842 160.313H179.163L177.381 157.403H177.319L175.538 160.313H173.866L176.393 156.313L173.897 152.313H175.557ZM183.152 152.313L184.914 155.243H184.976L186.746 152.313H188.398L185.933 156.313L188.437 160.313H186.757L184.976 157.403H184.914L183.132 160.313H181.46L183.988 156.313L181.492 152.313H183.152ZM190.747 152.313L192.508 155.243H192.571L194.34 152.313H195.993L193.528 156.313L196.032 160.313H194.352L192.571 157.403H192.508L190.727 160.313H189.055L191.583 156.313L189.086 152.313H190.747ZM198.341 152.313L200.103 155.243H200.166L201.935 152.313H203.587L201.123 156.313L203.626 160.313H201.947L200.166 157.403H200.103L198.322 160.313H196.65L199.177 156.313L196.681 152.313H198.341Z" fill="#7C512E"/>
<path d="M136.584 123.95L140.691 130.89H140.85L144.976 123.95H149.838L143.624 134.132L149.978 144.313H145.026L140.85 137.363H140.691L136.515 144.313H131.583L137.956 134.132L131.702 123.95H136.584ZM156.6 123.95L160.706 130.89H160.865L164.992 123.95H169.854L163.64 134.132L169.993 144.313H165.042L160.865 137.363H160.706L156.53 144.313H151.598L157.972 134.132L151.718 123.95H156.6ZM176.615 123.95L180.722 130.89H180.881L185.007 123.95H189.87L183.655 134.132L190.009 144.313H185.057L180.881 137.363H180.722L176.546 144.313H171.614L177.988 134.132L171.733 123.95H176.615Z" fill="#5E4435"/>
<path d="M136.593 189.677L139.155 193.938H139.246L141.82 189.677H144.223L140.638 195.495L144.28 201.313H141.837L139.246 197.081H139.155L136.564 201.313H134.132L137.809 195.495L134.178 189.677H136.593ZM147.64 189.677L150.202 193.938H150.293L152.867 189.677H155.27L151.685 195.495L155.327 201.313H152.884L150.293 197.081H150.202L147.611 201.313H145.179L148.855 195.495L145.225 189.677H147.64ZM158.686 189.677L161.249 193.938H161.34L163.914 189.677H166.317L162.732 195.495L166.374 201.313H163.931L161.34 197.081H161.249L158.658 201.313H156.226L159.902 195.495L156.272 189.677H158.686ZM169.733 189.677L172.296 193.938H172.387L174.961 189.677H177.364L173.779 195.495L177.421 201.313H174.978L172.387 197.081H172.296L169.705 201.313H167.273L170.949 195.495L167.319 189.677H169.733ZM180.78 189.677L183.343 193.938H183.434L186.007 189.677H188.411L184.826 195.495L188.468 201.313H186.025L183.434 197.081H183.343L180.752 201.313H178.32L181.996 195.495L178.365 189.677H180.78Z" fill="#7C512E"/>
<path d="M136.719 166.313L138.481 169.243H138.543L140.313 166.313H141.965L139.5 170.313L142.004 174.313H140.325L138.543 171.403H138.481L136.7 174.313H135.028L137.555 170.313L135.059 166.313H136.719ZM144.314 166.313L146.076 169.243H146.138L147.908 166.313H149.56L147.095 170.313L149.599 174.313H147.919L146.138 171.403H146.076L144.294 174.313H142.623L145.15 170.313L142.654 166.313H144.314ZM151.909 166.313L153.67 169.243H153.733L155.502 166.313H157.155L154.69 170.313L157.194 174.313H155.514L153.733 171.403H153.67L151.889 174.313H150.217L152.745 170.313L150.249 166.313H151.909ZM159.503 166.313L161.265 169.243H161.328L163.097 166.313H164.75L162.285 170.313L164.789 174.313H163.109L161.328 171.403H161.265L159.484 174.313H157.812L160.339 170.313L157.843 166.313H159.503ZM167.098 166.313L168.86 169.243H168.922L170.692 166.313H172.344L169.879 170.313L172.383 174.313H170.704L168.922 171.403H168.86L167.079 174.313H165.407L167.934 170.313L165.438 166.313H167.098ZM174.693 166.313L176.455 169.243H176.517L178.287 166.313H179.939L177.474 170.313L179.978 174.313H178.298L176.517 171.403H176.455L174.673 174.313H173.001L175.529 170.313L173.033 166.313H174.693ZM182.288 166.313L184.049 169.243H184.112L185.881 166.313H187.534L185.069 170.313L187.573 174.313H185.893L184.112 171.403H184.049L182.268 174.313H180.596L183.124 170.313L180.627 166.313H182.288Z" fill="#7C512E"/>
<path d="M215.12 107.167L214.564 109.228L214.588 109.253L216.682 108.832L217.108 109.286L214.577 109.777L213.923 112.269L213.498 111.815L214.028 109.777L214.005 109.752L211.935 110.149L211.509 109.696L214.064 109.23L214.694 106.713L215.12 107.167Z" fill="#7C512E"/>
<path d="M217.707 109.98L217.05 112.009L217.072 112.035L219.187 111.719L219.591 112.193L217.036 112.558L216.259 115.012L215.856 114.538L216.487 112.531L216.465 112.505L214.376 112.799L213.973 112.325L216.55 111.987L217.304 109.506L217.707 109.98Z" fill="#7C512E"/>
<path d="M220.156 112.915L219.399 114.907L219.42 114.934L221.55 114.724L221.929 115.217L219.357 115.454L218.46 117.864L218.08 117.371L218.81 115.4L218.789 115.373L216.686 115.562L216.307 115.069L218.9 114.86L219.776 112.422L220.156 112.915Z" fill="#7C512E"/>
<path d="M222.458 115.966L221.603 117.916L221.623 117.944L223.762 117.841L224.117 118.352L221.535 118.459L220.519 120.82L220.163 120.309L220.99 118.378L220.971 118.35L218.859 118.434L218.504 117.923L221.106 117.844L222.103 115.455L222.458 115.966Z" fill="#7C512E"/>
<path d="M224.608 119.124L223.657 121.027L223.676 121.056L225.819 121.06L226.149 121.588L223.562 121.566L222.43 123.87L222.1 123.343L223.022 121.457L223.004 121.428L220.889 121.406L220.559 120.879L223.164 120.93L224.278 118.596L224.608 119.124Z" fill="#7C512E"/>
<path d="M226.598 122.381L225.555 124.233L225.571 124.263L227.714 124.375L228.018 124.918L225.433 124.766L224.188 127.009L223.884 126.466L224.898 124.631L224.881 124.601L222.769 124.473L222.465 123.93L225.067 124.112L226.295 121.839L226.598 122.381Z" fill="#7C512E"/>
<path d="M228.425 125.73L227.291 127.526L227.306 127.556L229.442 127.775L229.719 128.332L227.143 128.051L225.789 130.228L225.512 129.671L226.615 127.89L226.6 127.859L224.495 127.625L224.218 127.068L226.809 127.38L228.149 125.172L228.425 125.73Z" fill="#7C512E"/>
<path d="M230.851 130.911L229.585 132.615L229.598 132.646L231.713 133.026L231.948 133.602L229.399 133.127L227.885 135.193L227.65 134.616L228.884 132.926L228.871 132.894L226.788 132.501L226.553 131.925L229.115 132.432L230.616 130.335L230.851 130.911Z" fill="#7C512E"/>
<path d="M232.249 134.45L230.901 136.087L230.912 136.12L233.007 136.605L233.214 137.191L230.689 136.59L229.075 138.576L228.869 137.989L230.185 136.363L230.173 136.331L228.111 135.835L227.904 135.248L230.44 135.882L232.042 133.863L232.249 134.45Z" fill="#7C512E"/>
<path d="M233.479 138.07L232.049 139.635L232.059 139.667L234.127 140.26L234.304 140.856L231.812 140.125L230.1 142.025L229.923 141.429L231.32 139.873L231.31 139.84L229.275 139.239L229.098 138.642L231.599 139.406L233.302 137.473L233.479 138.07Z" fill="#7C512E"/>
<path d="M234.523 141.726L233.018 143.219L233.026 143.252L235.064 143.945L235.211 144.55L232.758 143.697L230.955 145.509L230.807 144.905L232.278 143.42L232.27 143.387L230.266 142.686L230.118 142.081L232.58 142.968L234.375 141.122L234.523 141.726Z" fill="#7C512E"/>
<path d="M235.75 147.277L234.143 148.656L234.149 148.689L236.132 149.529L236.236 150.142L233.849 149.113L231.92 150.79L231.816 150.177L233.39 148.803L233.384 148.77L231.435 147.925L231.331 147.311L233.724 148.374L235.646 146.663L235.75 147.277Z" fill="#7C512E"/>
<path d="M236.346 151.03L234.675 152.329L234.679 152.362L236.619 153.297L236.694 153.915L234.359 152.771L232.352 154.353L232.278 153.735L233.916 152.439L233.911 152.406L232.005 151.467L231.931 150.85L234.269 152.027L236.272 150.412L236.346 151.03Z" fill="#7C512E"/>
<path d="M236.759 154.769L235.029 155.99L235.032 156.024L236.927 157.047L236.973 157.668L234.694 156.417L232.616 157.904L232.57 157.284L234.266 156.065L234.263 156.031L232.402 155.006L232.356 154.385L234.638 155.669L236.713 154.149L236.759 154.769Z" fill="#7C512E"/>
<path d="M237.001 158.568L235.215 159.704L235.216 159.738L237.061 160.851L237.077 161.473L234.86 160.115L232.714 161.501L232.697 160.879L234.449 159.743L234.448 159.709L232.638 158.596L232.621 157.974L234.84 159.366L236.985 157.946L237.001 158.568Z" fill="#7C512E"/>
<path d="M237.065 162.334L235.229 163.388L235.228 163.422L237.021 164.618L237.009 165.24L234.855 163.783L232.648 165.07L232.66 164.448L234.462 163.392L234.462 163.358L232.704 162.164L232.716 161.542L234.869 163.033L237.077 161.712L237.065 162.334Z" fill="#7C512E"/>
<path d="M236.95 166.275L235.067 167.242L235.064 167.276L236.799 168.554L236.758 169.175L234.675 167.619L232.41 168.801L232.451 168.181L234.3 167.211L234.303 167.177L232.602 165.901L232.643 165.281L234.724 166.871L236.991 165.654L236.95 166.275Z" fill="#7C512E"/>
<path d="M236.669 169.996L234.745 170.878L234.741 170.912L236.417 172.266L236.348 172.884L234.336 171.237L232.021 172.318L232.09 171.7L233.98 170.813L233.984 170.779L232.342 169.43L232.411 168.812L234.419 170.492L236.738 169.377L236.669 169.996Z" fill="#7C512E"/>
<path d="M235.919 175.628L233.937 176.373L233.931 176.407L235.506 177.874L235.394 178.486L233.504 176.703L231.117 177.619L231.23 177.007L233.179 176.254L233.185 176.221L231.643 174.76L231.755 174.148L233.639 175.965L236.031 175.016L235.919 175.628Z" fill="#7C512E"/>
<path d="M235.206 179.312L233.191 179.965L233.183 179.998L234.688 181.537L234.547 182.143L232.743 180.274L230.316 181.078L230.457 180.472L232.439 179.811L232.447 179.778L230.975 178.248L231.116 177.642L232.913 179.544L235.348 178.706L235.206 179.312Z" fill="#7C512E"/>
<path d="M234.324 182.943L232.279 183.501L232.27 183.534L233.701 185.141L233.531 185.739L231.816 183.789L229.353 184.479L229.523 183.88L231.535 183.312L231.545 183.279L230.146 181.683L230.316 181.084L232.021 183.067L234.493 182.345L234.324 182.943Z" fill="#7C512E"/>
<path d="M233.251 186.587L231.181 187.045L231.17 187.077L232.52 188.751L232.321 189.34L230.704 187.309L228.209 187.879L228.409 187.289L230.447 186.82L230.458 186.788L229.14 185.125L229.339 184.536L230.944 186.599L233.45 185.997L233.251 186.587Z" fill="#7C512E"/>
<path d="M231.344 191.85L229.244 192.158L229.23 192.19L230.456 193.955L230.214 194.528L228.749 192.388L226.217 192.777L226.459 192.203L228.528 191.882L228.541 191.85L227.347 190.099L227.589 189.526L229.041 191.697L231.585 191.277L231.344 191.85Z" fill="#7C512E"/>
<path d="M229.841 195.312L227.727 195.516L227.713 195.547L228.849 197.369L228.578 197.93L227.221 195.721L224.672 195.984L224.942 195.424L227.026 195.205L227.041 195.174L225.935 193.367L226.206 192.807L227.548 195.046L230.112 194.752L229.841 195.312Z" fill="#7C512E"/>
<path d="M228.169 198.689L226.046 198.788L226.03 198.818L227.073 200.693L226.774 201.239L225.53 198.967L222.969 199.103L223.268 198.557L225.361 198.442L225.377 198.412L224.364 196.554L224.663 196.008L225.89 198.309L228.468 198.144L228.169 198.689Z" fill="#7C512E"/>
<path d="M226.329 201.972L224.202 201.964L224.184 201.993L225.131 203.917L224.805 204.446L223.677 202.117L221.111 202.124L221.437 201.595L223.535 201.585L223.553 201.556L222.635 199.65L222.961 199.12L224.071 201.478L226.656 201.442L226.329 201.972Z" fill="#7C512E"/>
<path d="M224.325 205.152L222.2 205.036L222.18 205.064L223.028 207.032L222.675 207.544L221.667 205.163L219.101 205.04L219.455 204.528L221.552 204.624L221.572 204.596L220.752 202.648L221.105 202.136L222.093 204.545L224.679 204.64L224.325 205.152Z" fill="#7C512E"/>
<path d="M222.16 208.223L220.041 207.999L220.02 208.026L220.766 210.033L220.387 210.525L219.502 208.098L216.943 207.845L217.323 207.352L219.415 207.555L219.436 207.528L218.717 205.542L219.096 205.049L219.96 207.504L222.539 207.73L222.16 208.223Z" fill="#7C512E"/>
<path d="M219.835 211.178L217.729 210.846L217.707 210.871L218.348 212.912L217.943 213.384L217.185 210.917L214.64 210.532L215.045 210.06L217.126 210.37L217.148 210.344L216.532 208.326L216.937 207.854L217.673 210.347L220.24 210.706L219.835 211.178Z" fill="#7C512E"/>
<path d="M216.056 215.378L213.979 214.882L213.955 214.906L214.436 216.988L213.995 217.426L213.431 214.911L210.92 214.33L211.362 213.891L213.415 214.362L213.439 214.338L212.982 212.281L213.423 211.843L213.963 214.382L216.498 214.939L216.056 215.378Z" fill="#7C512E"/>
<path d="M213.274 218.077L211.225 217.468L211.199 217.491L211.565 219.593L211.1 220.006L210.675 217.466L208.197 216.748L208.663 216.335L210.689 216.918L210.715 216.895L210.371 214.819L210.837 214.406L211.236 216.968L213.739 217.664L213.274 218.077Z" fill="#7C512E"/>
<path d="M210.461 220.521L208.444 219.808L208.417 219.829L208.675 221.945L208.189 222.333L207.894 219.777L205.454 218.932L205.941 218.545L207.936 219.231L207.963 219.21L207.726 217.12L208.213 216.732L208.48 219.31L210.947 220.133L210.461 220.521Z" fill="#7C512E"/>
<path d="M207.531 222.81L205.551 221.995L205.523 222.015L205.673 224.139L205.167 224.501L205.003 221.936L202.607 220.968L203.113 220.606L205.073 221.394L205.101 221.374L204.971 219.277L205.477 218.915L205.613 221.5L208.037 222.448L207.531 222.81Z" fill="#7C512E"/>
<path d="M202.925 225.949L201.01 224.985L200.981 225.003L200.97 227.13L200.437 227.452L200.468 224.885L198.149 223.737L198.681 223.415L200.578 224.35L200.608 224.332L200.636 222.234L201.169 221.912L201.109 224.497L203.458 225.628L202.925 225.949Z" fill="#7C512E"/>
<path d="M199.576 227.922L197.712 226.859L197.682 226.876L197.561 228.998L197.012 229.291L197.175 226.731L194.917 225.463L195.466 225.17L197.314 226.203L197.344 226.187L197.481 224.094L198.03 223.801L197.837 226.377L200.125 227.629L199.576 227.922Z" fill="#7C512E"/>
<path d="M196.266 229.647L194.456 228.492L194.425 228.506L194.199 230.618L193.636 230.883L193.926 228.336L191.732 226.956L192.295 226.692L194.09 227.816L194.121 227.802L194.362 225.72L194.925 225.456L194.604 228.017L196.829 229.382L196.266 229.647Z" fill="#7C512E"/>
<path d="M192.861 231.206L191.108 229.962L191.077 229.975L190.747 232.072L190.171 232.308L190.586 229.78L188.462 228.293L189.038 228.057L190.776 229.269L190.808 229.256L191.151 227.191L191.727 226.955L191.28 229.496L193.436 230.97L192.861 231.206Z" fill="#7C512E"/>
<path d="M189.364 232.598L187.674 231.269L187.642 231.28L187.21 233.357L186.623 233.564L187.162 231.061L185.112 229.47L185.699 229.263L187.377 230.561L187.409 230.549L187.853 228.505L188.44 228.298L187.869 230.812L189.951 232.392L189.364 232.598Z" fill="#7C512E"/>
<path d="M185.779 233.821L184.155 232.41L184.123 232.419L183.589 234.471L182.993 234.648L183.653 232.176L181.683 230.486L182.279 230.309L183.892 231.688L183.925 231.678L184.469 229.658L185.065 229.481L184.372 231.963L186.375 233.644L185.779 233.821Z" fill="#7C512E"/>
<path d="M182.305 234.821L180.749 233.335L180.716 233.343L180.087 235.366L179.483 235.515L180.258 233.078L178.369 231.296L178.973 231.147L180.52 232.601L180.553 232.593L181.191 230.602L181.795 230.454L180.987 232.899L182.909 234.673L182.305 234.821Z" fill="#7C512E"/>
<path d="M176.657 236.077L175.212 234.48L175.179 234.486L174.405 236.457L173.791 236.561L174.741 234.188L172.985 232.272L173.599 232.169L175.037 233.732L175.071 233.726L175.851 231.788L176.464 231.685L175.481 234.063L177.27 235.973L176.657 236.077Z" fill="#7C512E"/>
<path d="M173.009 236.66L171.64 234.998L171.606 235.002L170.741 236.934L170.124 237.009L171.183 234.684L169.518 232.688L170.135 232.613L171.5 234.242L171.533 234.238L172.403 232.339L173.02 232.264L171.927 234.594L173.627 236.586L173.009 236.66Z" fill="#7C512E"/>
<path d="M169.298 237.076L168.007 235.351L167.974 235.353L167.02 237.244L166.4 237.289L167.565 235.016L165.994 232.945L166.615 232.899L167.902 234.59L167.936 234.587L168.893 232.731L169.513 232.685L168.313 234.961L169.919 237.03L169.298 237.076Z" fill="#7C512E"/>
<path d="M165.524 237.321L164.315 235.538L164.281 235.539L163.241 237.382L162.619 237.399L163.889 235.183L162.415 233.04L163.037 233.024L164.245 234.772L164.279 234.772L165.32 232.962L165.942 232.945L164.639 235.162L166.146 237.304L165.524 237.321Z" fill="#7C512E"/>
<path d="M159.629 237.36L158.547 235.497L158.512 235.496L157.347 237.263L156.725 237.236L158.146 235.114L156.825 232.874L157.447 232.9L158.53 234.729L158.564 234.731L159.729 232.998L160.35 233.024L158.895 235.146L160.251 237.387L159.629 237.36Z" fill="#7C512E"/>
<path d="M155.981 237.175L154.986 235.265L154.952 235.262L153.706 236.973L153.086 236.918L154.603 234.863L153.387 232.565L154.007 232.62L155.004 234.496L155.038 234.499L156.282 232.822L156.901 232.877L155.35 234.929L156.601 237.23L155.981 237.175Z" fill="#7C512E"/>
<path d="M152.123 236.797L151.221 234.841L151.188 234.837L149.86 236.486L149.244 236.402L150.859 234.422L149.755 232.068L150.372 232.153L151.277 234.075L151.311 234.08L152.634 232.464L153.251 232.549L151.602 234.524L152.739 236.882L152.123 236.797Z" fill="#7C512E"/>
<path d="M148.327 236.238L147.521 234.24L147.488 234.234L146.082 235.818L145.47 235.703L147.18 233.804L146.192 231.4L146.804 231.514L147.615 233.478L147.648 233.484L149.049 231.934L149.66 232.049L147.917 233.942L148.938 236.352L148.327 236.238Z" fill="#7C512E"/>
<path d="M144.596 235.503L143.89 233.469L143.857 233.461L142.374 234.974L141.769 234.83L143.57 233.016L142.702 230.568L143.307 230.712L144.021 232.712L144.054 232.72L145.53 231.24L146.135 231.384L144.3 233.19L145.202 235.647L144.596 235.503Z" fill="#7C512E"/>
<path d="M140.933 234.595L140.328 232.53L140.295 232.52L138.739 233.959L138.142 233.785L140.031 232.062L139.285 229.574L139.883 229.748L140.496 231.78L140.529 231.789L142.076 230.384L142.674 230.557L140.752 232.271L141.531 234.768L140.933 234.595Z" fill="#7C512E"/>
<path d="M137.34 233.519L136.838 231.427L136.806 231.416L135.18 232.776L134.591 232.574L136.565 230.946L135.943 228.425L136.531 228.627L137.044 230.687L137.076 230.698L138.692 229.37L139.28 229.572L137.274 231.189L137.928 233.721L137.34 233.519Z" fill="#7C512E"/>
<path d="M131.953 231.535L131.612 229.413L131.58 229.4L129.854 230.634L129.282 230.389L131.376 228.913L130.947 226.355L131.518 226.6L131.873 228.691L131.904 228.704L133.617 227.501L134.189 227.747L132.065 229.209L132.525 231.78L131.953 231.535Z" fill="#7C512E"/>
<path d="M128.543 230.036L128.308 227.901L128.277 227.886L126.49 229.034L125.931 228.761L128.097 227.391L127.797 224.816L128.356 225.089L128.605 227.193L128.636 227.208L130.408 226.092L130.967 226.365L128.771 227.72L129.102 230.309L128.543 230.036Z" fill="#7C512E"/>
<path d="M125.208 228.374L125.081 226.231L125.051 226.215L123.207 227.272L122.662 226.972L124.895 225.711L124.725 223.126L125.27 223.426L125.413 225.539L125.443 225.555L127.271 224.528L127.816 224.829L125.552 226.073L125.753 228.674L125.208 228.374Z" fill="#7C512E"/>
<path d="M121.698 226.394L121.683 224.25L121.654 224.232L119.756 225.192L119.227 224.865L121.525 223.721L121.49 221.133L122.018 221.461L122.051 223.576L122.08 223.594L123.96 222.663L124.489 222.991L122.163 224.116L122.227 226.722L121.698 226.394Z" fill="#7C512E"/>
<path d="M116.842 223.235L116.99 221.098L116.963 221.078L114.995 221.892L114.491 221.526L116.873 220.56L117.035 217.98L117.538 218.346L117.41 220.455L117.437 220.475L119.385 219.689L119.888 220.055L117.479 221.001L117.345 223.601L116.842 223.235Z" fill="#7C512E"/>
<path d="M113.789 220.97L114.044 218.845L114.017 218.823L112.009 219.538L111.525 219.148L113.954 218.302L114.244 215.735L114.729 216.125L114.495 218.224L114.522 218.245L116.509 217.557L116.993 217.947L114.538 218.772L114.274 221.36L113.789 220.97Z" fill="#7C512E"/>
<path d="M110.821 218.534L111.182 216.426L111.156 216.403L109.113 217.017L108.648 216.604L111.119 215.88L111.537 213.333L112.002 213.746L111.664 215.829L111.69 215.851L113.71 215.263L114.175 215.676L111.679 216.378L111.286 218.947L110.821 218.534Z" fill="#7C512E"/>
<path d="M108.159 216.134L108.62 214.047L108.596 214.024L106.524 214.539L106.078 214.105L108.583 213.499L109.122 210.978L109.568 211.412L109.131 213.474L109.155 213.498L111.203 213.007L111.648 213.441L109.12 214.023L108.605 216.568L108.159 216.134Z" fill="#7C512E"/>
<path d="M105.268 213.258L105.835 211.2L105.812 211.175L103.715 211.584L103.292 211.127L105.826 210.652L106.495 208.164L106.918 208.62L106.375 210.655L106.398 210.68L108.471 210.295L108.894 210.751L106.336 211.202L105.691 213.714L105.268 213.258Z" fill="#7C512E"/>
<path d="M102.655 210.388L103.324 208.363L103.302 208.337L101.185 208.64L100.785 208.164L103.342 207.815L104.133 205.366L104.533 205.842L103.891 207.845L103.913 207.871L106.003 207.59L106.404 208.066L103.825 208.389L103.056 210.864L102.655 210.388Z" fill="#7C512E"/>
<path d="M100.212 207.429L100.98 205.442L100.959 205.415L98.8281 205.612L98.4512 205.117L101.025 204.896L101.937 202.491L102.313 202.986L101.572 204.953L101.593 204.98L103.697 204.804L104.074 205.299L101.479 205.492L100.588 207.924L100.212 207.429Z" fill="#7C512E"/>
<path d="M96.9427 202.951L97.8554 201.028L97.8368 201L95.694 201.038L95.3539 200.517L97.9402 200.488L99.0262 198.16L99.3663 198.681L98.4823 200.585L98.5009 200.614L100.615 200.594L100.955 201.115L98.3502 201.116L97.2828 203.472L96.9427 202.951Z" fill="#7C512E"/>
<path d="M94.7571 199.528L95.768 197.657L95.7509 197.627L93.6073 197.554L93.2941 197.016L95.8805 197.122L97.0854 194.856L97.3986 195.394L96.4173 197.248L96.4345 197.277L98.5484 197.367L98.8616 197.905L96.258 197.77L95.0703 200.065L94.7571 199.528Z" fill="#7C512E"/>
<path d="M92.8982 196.27L94.0007 194.454L93.985 194.424L91.8462 194.243L91.5597 193.691L94.1395 193.926L95.4555 191.725L95.742 192.277L94.6698 194.078L94.6855 194.108L96.7939 194.305L97.0805 194.857L94.4849 194.591L93.1847 196.823L92.8982 196.27Z" fill="#7C512E"/>
<path d="M91.2026 192.932L92.3938 191.174L92.3796 191.143L90.251 190.855L89.9919 190.289L92.5585 190.654L93.9818 188.523L94.241 189.088L93.081 190.832L93.0952 190.863L95.1926 191.165L95.4517 191.73L92.8709 191.335L91.4617 193.497L91.2026 192.932Z" fill="#7C512E"/>
<path d="M88.9127 187.641L90.2324 185.98L90.2205 185.948L88.1179 185.499L87.9014 184.916L90.4355 185.474L92.0146 183.459L92.2311 184.042L90.9436 185.692L90.9554 185.724L93.0259 186.184L93.2424 186.767L90.6965 186.177L89.1292 188.224L88.9127 187.641Z" fill="#7C512E"/>
<path d="M87.6345 184.102L89.0342 182.51L89.0239 182.478L86.945 181.925L86.7572 181.332L89.2618 182.015L90.938 180.082L91.1258 180.675L89.7588 182.258L89.7691 182.29L91.8154 182.853L92.0032 183.446L89.4882 182.73L87.8224 184.696L87.6345 184.102Z" fill="#7C512E"/>
<path d="M86.5231 180.487L87.999 178.966L87.9903 178.933L85.9402 178.279L85.7815 177.677L88.2505 178.483L90.0192 176.636L90.1779 177.238L88.7352 178.75L88.7439 178.783L90.7608 179.446L90.9195 180.048L88.4419 179.209L86.6818 181.089L86.5231 180.487Z" fill="#7C512E"/>
<path d="M85.5831 176.798L87.1312 175.352L87.1241 175.318L85.108 174.563L84.9785 173.955L87.4059 174.882L89.2624 173.124L89.3918 173.733L87.8772 175.172L87.8843 175.206L89.867 175.967L89.9964 176.576L87.5619 175.615L85.7125 177.406L85.5831 176.798Z" fill="#7C512E"/>
<path d="M84.8174 173.036L86.4337 171.668L86.4282 171.635L84.4507 170.782L84.3508 170.168L86.7308 171.212L88.6702 169.548L88.7701 170.162L87.1875 171.526L87.193 171.559L89.1368 172.417L89.2367 173.031L86.8512 171.953L84.9173 173.651L84.8174 173.036Z" fill="#7C512E"/>
<path d="M84.2298 169.205L85.9101 167.917L85.9063 167.883L83.9718 166.935L83.9016 166.317L86.2288 167.476L88.246 165.908L88.3163 166.526L86.6699 167.811L86.6738 167.845L88.5742 168.796L88.6445 169.414L86.3135 168.221L84.3001 169.823L84.2298 169.205Z" fill="#7C512E"/>
<path d="M83.8462 165.578L85.5839 164.369L85.5816 164.335L83.6927 163.299L83.6509 162.678L85.9224 163.943L88.0095 162.47L88.0514 163.091L86.3478 164.298L86.3501 164.332L88.2049 165.37L88.2467 165.99L85.9729 164.691L83.8881 166.198L83.8462 165.578Z" fill="#7C512E"/>
<path d="M83.5748 159.753L85.393 158.67L85.3932 158.636L83.5816 157.469L83.5835 156.847L85.7607 158.269L87.946 156.946L87.9441 157.569L86.16 158.653L86.1599 158.687L87.9373 159.853L87.9355 160.475L85.7584 159.019L83.573 160.375L83.5748 159.753Z" fill="#7C512E"/>
<path d="M83.6172 156.001L85.4817 154.998L85.4833 154.964L83.7253 153.719L83.7547 153.098L85.8667 154.614L88.1086 153.39L88.0791 154.011L86.2486 155.016L86.247 155.05L87.971 156.293L87.9416 156.914L85.8312 155.364L83.5877 156.622L83.6172 156.001Z" fill="#7C512E"/>
<path d="M83.8321 152.144L85.741 151.229L85.7442 151.195L84.0455 149.87L84.1036 149.25L86.1433 150.863L88.4394 149.742L88.3813 150.362L86.5063 151.281L86.5031 151.315L88.1679 152.636L88.1098 153.255L86.0733 151.609L83.774 152.763L83.8321 152.144Z" fill="#7C512E"/>
<path d="M84.2204 148.353L86.1699 147.527L86.1746 147.493L84.5392 146.092L84.6261 145.475L86.5888 147.18L88.9346 146.167L88.8478 146.783L86.932 147.614L86.9272 147.648L88.529 149.044L88.4422 149.66L86.4841 147.922L84.1336 148.969L84.2204 148.353Z" fill="#7C512E"/>
<path d="M85.1408 142.687L87.1445 142L87.1517 141.967L85.6197 140.454L85.7501 139.846L87.5872 141.683L89.9996 140.837L89.8691 141.446L87.8986 142.141L87.8915 142.174L89.3903 143.679L89.2599 144.287L87.4299 142.416L85.0104 143.296L85.1408 142.687Z" fill="#7C512E"/>
<path d="M85.9491 139.069L87.9834 138.475L87.9921 138.442L86.5329 136.861L86.6919 136.259L88.4406 138.18L90.8908 137.447L90.7318 138.048L88.7302 138.651L88.7215 138.684L90.1479 140.257L89.9889 140.858L88.2489 138.905L85.79 139.67L85.9491 139.069Z" fill="#7C512E"/>
<path d="M86.9197 135.52L88.9806 135.022L88.9909 134.99L87.608 133.342L87.7955 132.749L89.4515 134.748L91.9344 134.131L91.7469 134.724L89.7184 135.233L89.7081 135.265L91.0587 136.902L90.8712 137.495L89.2255 135.463L86.7322 136.113L86.9197 135.52Z" fill="#7C512E"/>
<path d="M88.115 131.861L90.1989 131.465L90.2107 131.433L88.9107 129.72L89.1275 129.137L90.6829 131.214L93.1945 130.718L92.9777 131.302L90.9256 131.711L90.9138 131.743L92.182 133.443L91.9652 134.026L90.4217 131.917L87.8982 132.444L88.115 131.861Z" fill="#7C512E"/>
<path d="M89.4802 128.296L91.5824 128.003L91.5958 127.971L90.3824 126.198L90.6281 125.626L92.0786 127.776L94.613 127.405L94.3673 127.976L92.2963 128.284L92.2829 128.315L93.4652 130.074L93.2195 130.646L91.7824 128.465L89.2345 128.868L89.4802 128.296Z" fill="#7C512E"/>
<path d="M90.9367 124.986L93.0518 124.793L93.0668 124.762L91.9401 122.934L92.2134 122.375L93.5588 124.59L96.1097 124.34L95.8364 124.899L93.7517 125.108L93.7367 125.138L94.8331 126.951L94.5598 127.51L93.2293 125.264L90.6634 125.545L90.9367 124.986Z" fill="#7C512E"/>
<path d="M92.6301 121.605L94.7538 121.517L94.7703 121.488L93.7368 119.607L94.0382 119.063L95.2707 121.34L97.8328 121.217L97.5314 121.762L95.4373 121.866L95.4208 121.896L96.4247 123.76L96.1232 124.304L94.9073 121.997L92.3286 122.149L92.6301 121.605Z" fill="#7C512E"/>
<path d="M95.4778 116.727L97.6046 116.8L97.6234 116.771L96.7356 114.82L97.0782 114.301L98.1342 116.662L100.701 116.733L100.359 117.252L98.2603 117.199L98.2415 117.227L99.1009 119.159L98.7583 119.678L97.7211 117.288L95.1352 117.246L95.4778 116.727Z" fill="#7C512E"/>
<path d="M97.5789 113.611L99.7011 113.791L99.7214 113.764L98.9344 111.772L99.3036 111.272L100.238 113.681L102.8 113.882L102.431 114.383L100.336 114.223L100.316 114.25L101.075 116.222L100.706 116.722L99.7925 114.285L97.2097 114.112L97.5789 113.611Z" fill="#7C512E"/>
<path d="M99.839 110.609L101.951 110.898L101.973 110.872L101.289 108.844L101.684 108.363L102.493 110.816L105.044 111.148L104.649 111.628L102.563 111.361L102.542 111.387L103.199 113.393L102.804 113.874L102.017 111.395L99.4439 111.089L99.839 110.609Z" fill="#7C512E"/>
<path d="M102.256 107.729L104.352 108.127L104.375 108.102L103.798 106.044L104.218 105.585L104.898 108.073L107.431 108.537L107.011 108.996L104.94 108.621L104.917 108.646L105.47 110.681L105.05 111.14L104.392 108.627L101.836 108.188L102.256 107.729Z" fill="#7C512E"/>
<path d="M119.657 93.3019L122.533 95.1501L122.589 95.1225L122.88 91.7123L124.362 90.9814L123.921 95.6591L127.936 98.139L126.429 98.882L123.544 97.0599L123.488 97.0875L123.178 100.485L121.679 101.225L122.176 96.5196L118.168 94.0362L119.657 93.3019Z" fill="#7C512E"/>
<path d="M127.378 89.7511L130.074 91.8534L130.132 91.831L130.733 88.4614L132.275 87.8684L131.41 92.4865L135.182 95.3215L133.614 95.9243L130.907 93.8472L130.849 93.8697L130.231 97.2252L128.67 97.8252L129.594 93.1847L125.829 90.3469L127.378 89.7511Z" fill="#7C512E"/>
<path d="M135.277 86.9563L137.767 89.299L137.827 89.2821L138.737 85.9825L140.327 85.5348L139.038 90.053L142.533 93.2249L140.916 93.6801L138.413 91.3614L138.352 91.3784L137.426 94.6623L135.817 95.1153L137.166 90.5801L133.679 87.4061L135.277 86.9563Z" fill="#7C512E"/>
<path d="M143.438 84.899L145.693 87.4681L145.754 87.457L146.974 84.259L148.6 83.9648L146.887 88.3398L150.063 91.8299L148.41 92.1291L146.139 89.5826L146.078 89.5938L144.843 92.7746L143.198 93.0724L144.973 88.6862L141.804 85.1947L143.438 84.899Z" fill="#7C512E"/>
<path d="M154.787 83.3704L156.685 86.2138L156.747 86.2108L158.376 83.2009L160.027 83.123L157.754 87.2348L160.443 91.1123L158.765 91.1915L156.849 88.3686L156.787 88.3715L155.145 91.3625L153.475 91.4413L155.81 87.3266L153.128 83.4487L154.787 83.3704Z" fill="#7C512E"/>
<path d="M163.213 83.2171L164.818 86.2357L164.88 86.239L166.802 83.4068L168.452 83.4941L165.779 87.3584L168.068 91.485L166.391 91.3963L164.766 88.3961L164.704 88.3928L162.771 91.2049L161.102 91.1166L163.837 87.2556L161.555 83.1294L163.213 83.2171Z" fill="#7C512E"/>
<path d="M171.6 83.9056L172.891 87.0713L172.953 87.0809L175.152 84.458L176.784 84.712L173.734 88.2856L175.593 92.6229L173.933 92.3647L172.621 89.2154L172.559 89.2058L170.352 91.8075L168.7 91.5506L171.812 87.9866L169.96 83.6504L171.6 83.9056Z" fill="#7C512E"/>
<path d="M179.876 85.4439L180.834 88.7254L180.895 88.7413L183.352 86.3583L184.949 86.7788L181.548 90.0199L182.952 94.5254L181.327 94.098L180.345 90.8304L180.285 90.8145L177.822 93.1756L176.205 92.7501L179.667 89.5249L178.271 85.0214L179.876 85.4439Z" fill="#7C512E"/>
<path d="M188.109 87.8828L188.709 91.2483L188.767 91.2706L191.466 89.1651L193.009 89.7547L189.28 92.6119L190.191 97.2421L188.622 96.6427L187.997 93.2885L187.938 93.2662L185.236 95.3492L183.674 94.7527L187.462 91.9178L186.558 87.2904L188.109 87.8828Z" fill="#7C512E"/>
<path d="M195.82 91.091L196.07 94.5004L196.126 94.5286L199.027 92.712L200.502 93.4573L196.498 95.9155L196.928 100.615L195.429 99.8572L195.152 96.4565L195.096 96.4283L192.194 98.2221L190.702 97.468L194.761 95.038L194.338 90.3422L195.82 91.091Z" fill="#7C512E"/>
<path d="M203.136 95.0578L203.039 98.475L203.092 98.5087L206.162 96.9964L207.554 97.8877L203.32 99.9262L203.271 104.645L201.857 103.739L201.927 100.328L201.874 100.294L198.804 101.783L197.397 100.882L201.682 98.8768L201.738 94.1622L203.136 95.0578Z" fill="#7C512E"/>
</svg>
