<svg width="320" height="320" viewBox="0 0 320 320" fill="none" xmlns="http://www.w3.org/2000/svg">
<g clip-path="url(#clip0_1426_24071)">
<rect width="320" height="320" fill="#DCFFE0"/>
<path d="M77.0348 77.5122C76.7819 74.8566 78.7297 72.4991 81.385 72.2461L209.605 60.0356C212.26 59.7829 214.618 61.7305 214.871 64.3861L230.744 231.071C230.997 233.727 229.049 236.085 226.394 236.338L98.1744 248.548C95.5189 248.801 93.1611 246.853 92.9082 244.198L77.0348 77.5122Z" fill="#DCCDB3"/>
<path fill-rule="evenodd" clip-rule="evenodd" d="M75.0313 77.702C74.6729 73.94 77.4323 70.6 81.1942 70.2418L209.414 58.0313C213.176 57.6731 216.516 60.4322 216.874 64.1942L232.748 230.88C233.106 234.642 230.347 237.982 226.585 238.34L98.3651 250.551C94.6031 250.909 91.2629 248.149 90.9047 244.387L75.0313 77.702ZM81.5757 74.2486C80.0268 74.396 78.8907 75.7713 79.0381 77.3205L94.9115 244.006C95.0592 245.555 96.4344 246.691 97.9834 246.543L226.203 234.333C227.752 234.186 228.888 232.81 228.741 231.261L212.867 64.5759C212.72 63.0267 211.344 61.8906 209.795 62.0381L81.5757 74.2486Z" fill="#3C1F1B"/>
<path d="M104.316 87.7181C104.316 85.0505 106.479 82.888 109.146 82.888H237.946C240.614 82.888 242.776 85.0505 242.776 87.7181V255.158C242.776 257.825 240.614 259.987 237.946 259.987H109.146C106.479 259.987 104.316 257.825 104.316 255.158V87.7181Z" fill="white"/>
<path fill-rule="evenodd" clip-rule="evenodd" d="M102.305 87.7181C102.305 83.9392 105.368 80.8756 109.147 80.8756H237.947C241.726 80.8756 244.789 83.9392 244.789 87.7181V255.158C244.789 258.936 241.726 262 237.947 262H109.147C105.368 262 102.305 258.936 102.305 255.158V87.7181ZM109.147 84.9006C107.591 84.9006 106.33 86.162 106.33 87.7181V255.158C106.33 256.714 107.591 257.975 109.147 257.975H237.947C239.503 257.975 240.764 256.714 240.764 255.158V87.7181C240.764 86.162 239.503 84.9006 237.947 84.9006H109.147Z" fill="#3C1F1B"/>
<path d="M226.452 187.494H171.35C169.219 187.494 167.491 189.221 167.491 191.352V227.608C167.491 229.739 169.219 231.466 171.35 231.466H226.452C228.583 231.466 230.311 229.739 230.311 227.608V191.352C230.311 189.221 228.583 187.494 226.452 187.494Z" fill="white"/>
<g clip-path="url(#clip1_1426_24071)">
<path d="M214.975 156.22C214.77 155.623 214.543 155.033 214.297 154.452C214.376 154.064 214.456 153.677 214.538 153.297C215.276 149.882 215.09 146.753 213.953 143.449C211.643 136.734 207.22 132.058 200.807 129.551C200.548 129.449 200.262 129.432 199.992 129.502C199.722 129.572 199.481 129.725 199.302 129.939C191.059 139.867 182.328 150.824 174.173 165.938C172.997 168.118 172.084 170.055 171.278 171.765C168.048 178.613 166.958 180.919 158.495 180.363C156.583 180.238 154.664 180.322 152.77 180.612C152.708 180.618 152.647 180.628 152.587 180.642C149.63 181.114 146.708 182.086 143.85 183.559C135.783 187.715 131.1 192.48 131 196.632C130.993 196.952 131.101 197.264 131.305 197.511C131.509 197.757 131.796 197.922 132.111 197.974C134.742 198.411 137.379 198.809 140.021 199.169C134.955 202.568 132.099 206.171 132.022 209.403C132.014 209.723 132.123 210.035 132.327 210.281C132.531 210.528 132.817 210.692 133.133 210.745C144.344 212.599 153.826 213.528 161.5 213.528C166.593 213.528 170.891 213.119 174.364 212.299C181.808 210.543 188.699 199.746 194.778 190.22C196.996 186.746 199.09 183.464 200.889 181.188C203.328 178.102 204.246 178.157 204.344 178.174C204.584 178.215 205.171 178.846 205.672 180.948C206.746 185.449 206.477 195.219 204.874 209.985C204.839 210.307 204.923 210.631 205.109 210.895C205.296 211.159 205.573 211.346 205.888 211.421C207.916 211.902 211.662 212.09 213.154 211.304C213.382 211.183 213.57 210.999 213.696 210.774C213.821 210.549 213.878 210.292 213.86 210.035C212.684 193.433 213.025 179.811 214.873 169.548C215.082 168.384 215.311 167.224 215.56 166.067C216.298 162.652 216.112 159.523 214.975 156.22ZM200.721 132.39C205.963 134.69 209.475 138.6 211.442 144.314C212.176 146.448 212.446 148.498 212.262 150.631C209.769 146.846 206.279 144.061 201.829 142.321C201.569 142.22 201.284 142.203 201.014 142.272C200.743 142.342 200.502 142.495 200.324 142.71C195.41 148.627 190.324 154.91 185.29 162.22C188.266 154.054 192.209 144.314 196.039 138.13C197.611 136.164 199.174 134.257 200.721 132.39ZM177.533 179.97C181.063 173.426 184.709 167.668 188.379 162.432C186.155 167.669 184.116 173.154 182.498 177.764C182.273 178.409 182.05 179.055 181.828 179.701C179.233 187.252 176.55 195.061 168.766 197.763C164.995 199.072 161.076 198.369 157.296 195.742C157.979 195.726 158.661 195.741 159.343 195.784C169.612 196.459 171.421 192.626 174.702 185.668C175.494 183.989 176.391 182.086 177.533 179.97ZM158.321 183.014C168.591 183.69 170.399 179.856 173.68 172.898C174.472 171.219 175.369 169.316 176.511 167.2C180.041 160.656 183.688 154.897 187.358 149.662C185.133 154.898 183.095 160.384 181.477 164.994C181.254 165.629 181.032 166.275 180.808 166.927C180.221 168.636 179.613 170.402 178.938 172.115C177.643 174.285 176.395 176.484 175.195 178.709C174.878 179.296 174.569 179.887 174.267 180.482C172.432 182.629 170.298 184.106 167.745 184.992C163.973 186.302 160.054 185.599 156.274 182.971C156.956 182.957 157.638 182.969 158.321 183.014ZM133.869 195.57C134.686 193.127 137.93 189.597 145.067 185.92C147.501 184.666 149.981 183.808 152.485 183.352C156.139 186.604 160.112 188.281 164.039 188.281C165.579 188.281 167.112 188.023 168.616 187.502C169.618 187.155 170.587 186.718 171.511 186.196C168.829 191.757 167.255 193.642 159.517 193.134C157.605 193.008 155.685 193.092 153.791 193.382C153.73 193.388 153.669 193.398 153.609 193.412C150.652 193.885 147.729 194.857 144.872 196.329C144.473 196.535 144.076 196.746 143.681 196.962C140.598 196.589 137.307 196.123 133.869 195.57ZM212.964 165.507C212.708 166.693 212.473 167.883 212.258 169.078C210.413 179.327 210.035 192.793 211.134 209.117C210.283 209.209 208.934 209.213 207.646 209.043C209.186 194.463 209.384 185.065 208.255 180.331C207.998 179.251 207.214 175.964 204.785 175.555C201.507 175.001 198.332 179.713 192.539 188.791C187.019 197.441 180.149 208.205 173.755 209.714C165.594 211.64 152.522 211.177 134.89 208.34C135.708 205.897 138.952 202.367 146.088 198.69C148.522 197.436 151.003 196.579 153.507 196.122C157.161 199.374 161.133 201.052 165.06 201.052C166.6 201.052 168.134 200.794 169.637 200.272C178.642 197.147 181.669 188.337 184.34 180.564C184.563 179.917 184.783 179.275 185.005 178.644C188.066 169.922 192.638 158.042 197.06 150.901C198.632 148.935 200.195 147.028 201.742 145.16C206.351 147.183 209.622 150.449 211.681 155.091C211.97 155.744 212.231 156.409 212.463 157.084C213.436 159.91 213.594 162.586 212.964 165.507Z" fill="#3C1F1B"/>
</g>
<g style="mix-blend-mode:hue">
<rect width="320" height="320" fill="#00BF13"/>
</g>
</g>
<defs>
<clipPath id="clip0_1426_24071">
<rect width="320" height="320" fill="white"/>
</clipPath>
<clipPath id="clip1_1426_24071">
<rect width="85" height="85" fill="white" transform="translate(131 129)"/>
</clipPath>
</defs>
</svg>
