<svg width="320" height="320" viewBox="0 0 320 320" fill="none" xmlns="http://www.w3.org/2000/svg">
<g clip-path="url(#clip0_2250_201)">
<rect width="320" height="320" fill="#EFE2C1"/>
<path d="M220.414 172.179C233.992 164.295 242.089 154.379 244.582 144.007L246.226 210.934C246.226 210.936 246.226 210.939 246.226 210.941C246.192 223.231 238.099 235.621 221.724 245.129L221.724 245.13C205.255 254.7 183.596 259.5 161.883 259.5C140.17 259.5 118.455 254.7 101.877 245.129C85.1861 235.494 76.97 222.914 77.0006 210.468H77.0008L77.0005 210.454L75.3956 145.097C78.2911 155.059 86.3834 164.571 99.5641 172.18C116.33 181.859 138.235 186.685 160.082 186.685C181.929 186.685 203.772 181.859 220.414 172.179Z" fill="#CEB57E" stroke="#86766A"/>
<path d="M219.787 102.025C253.132 121.276 253.289 152.496 220.162 171.746C187.036 190.997 133.159 190.997 99.8139 171.746C66.4688 152.496 66.3126 121.276 99.4389 102.025C132.565 82.7742 186.442 82.7742 219.787 102.025Z" fill="#CBA95E"/>
<path d="M248.313 131.573V131.576C248.282 145.5 239.753 159.506 222.549 170.272C205.251 181.072 182.498 186.496 159.687 186.5C136.876 186.504 114.061 181.089 96.6373 170.272C79.1226 159.371 70.4699 145.166 70.5001 131.043C70.5001 131.042 70.5001 131.042 70.5001 131.041L70.6258 114.217C73.3399 125.915 81.9335 137.138 96.3275 146.08L96.3276 146.08C113.944 157.018 136.953 162.464 159.905 162.46C182.858 162.455 205.805 157.001 223.297 146.08L223.298 146.079C237.223 137.349 245.621 126.458 248.436 115.061L248.313 131.573Z" fill="#BD9C52" stroke="#86766A"/>
<path d="M96.4708 75.6439L96.4709 75.6439C113.83 65.5576 136.645 60.5 159.515 60.5C182.385 60.5 205.255 65.5576 222.725 75.6445C240.197 85.7332 248.86 98.8772 248.929 111.919C248.998 124.959 240.476 138.101 223.13 148.188C205.786 158.259 182.971 163.317 160.097 163.32C137.224 163.324 114.345 158.275 96.876 148.188C79.4193 138.099 70.7565 124.947 70.6836 111.902C70.6107 98.8573 79.125 85.7157 96.4708 75.6439Z" fill="#CEB57E" stroke="#86766A"/>
<path d="M101.345 140.531L101.345 140.531C87.2224 132.381 79.5936 122.138 79.5627 111.774C79.5631 101.503 87.0375 91.3553 100.939 83.3004L100.94 83.3C116.379 74.3225 137.194 69.3672 159.535 69.3672C181.875 69.3672 202.753 74.3225 218.318 83.3317L218.318 83.332C232.441 91.4823 240.07 101.725 240.1 112.058C240.1 122.329 232.626 132.476 218.693 140.531L218.692 140.531C203.222 149.509 182.437 154.464 160.097 154.464C137.757 154.464 116.878 149.509 101.345 140.531Z" fill="#CEB57E" stroke="#86766A"/>
<g style="mix-blend-mode:hue">
<rect width="320" height="320" fill="#00BF13"/>
</g>
</g>
<defs>
<clipPath id="clip0_2250_201">
<rect width="320" height="320" fill="white"/>
</clipPath>
</defs>
</svg>
