<svg width="320" height="320" viewBox="0 0 320 320" fill="none" xmlns="http://www.w3.org/2000/svg">
<g clip-path="url(#clip0_1423_10127)">
<rect width="320" height="320" fill="#DCFFE0"/>
<g clip-path="url(#clip1_1423_10127)">
<path fill-rule="evenodd" clip-rule="evenodd" d="M42 320C42.0513 316.945 42.3142 313.897 42.7868 310.878C43.4225 307.021 42.9793 303.153 42.8683 299.289C42.6688 292.321 45.0717 286.291 49.5352 281.027C50.4768 279.917 51.4793 278.859 52.4671 277.789C52.7503 277.483 52.6876 277.344 52.5401 276.908C52.1231 275.675 51.2106 274.741 50.7803 273.561C50.5954 272.751 50.7282 271.902 51.1512 271.187C52.1961 268.533 53.8797 266.177 56.0527 264.329C57.6363 263.11 59.5269 262.353 61.5147 262.142C61.9109 262.11 62.2905 261.969 62.6118 261.735C62.933 261.501 63.1834 261.182 63.3353 260.815C64.8769 257.777 66.4767 254.77 68.1347 251.793C68.5716 251.007 68.5517 250.729 67.6436 250.401C64.3157 249.201 62.957 247.308 63.0374 244.18C63.0595 242.721 63.3088 241.274 63.7763 239.892C64.5152 237.77 65.3787 235.708 67.0245 234.093C67.1498 234 67.237 233.865 67.2699 233.712C67.3028 233.56 67.2792 233.4 67.2034 233.264C65.2135 228.44 63.9927 223.316 61.9254 218.552C58.3512 210.317 55.1918 201.911 51.4993 193.727C49.6985 189.735 48.7768 185.438 47.764 181.203C45.4636 171.57 44.5021 161.749 43.8989 151.886C43.8215 150.611 43.6253 149.343 43.5364 148.067C43.3442 143.594 43.5757 139.112 44.2281 134.682C44.4359 133.31 44.891 131.987 45.5712 130.777C47.4605 126.881 50.4923 123.653 54.2626 121.523C60.8451 117.796 67.6104 114.4 74.5331 111.351C78.0958 109.84 81.9462 109.138 85.5561 107.727C90.6899 105.638 95.9825 103.963 101.383 102.719C101.98 102.59 102.27 102.335 102.106 101.706C102.095 101.636 102.088 101.566 102.086 101.495C101.683 98.1573 102.515 97.9055 104.948 97.2886C108.653 96.349 112.253 94.9913 116.082 94.4894C123.553 93.5122 130.842 91.5199 138.269 90.3263C145.172 89.2171 152.145 88.5419 159.083 87.6378C166.09 86.7244 173.077 85.6727 180.012 84.3043C180.881 84.1195 181.766 84.0176 182.654 84.0001C184.312 83.9931 184.988 84.4592 185.511 85.9968C186.201 88.0309 186.198 88.0087 188.386 87.71C197.496 86.3465 206.739 86.1053 215.908 86.9917C223.469 87.8185 230.962 89.1242 237.996 92.264C239.642 92.9374 241.183 93.8409 242.574 94.9474C243.271 95.5539 244.006 96.1137 244.776 96.623C250.888 100.522 253.406 106.425 254.175 113.329C254.931 120.109 254.486 126.885 254.117 133.659C253.57 143.66 253.029 153.66 252.37 163.654C252.099 167.341 251.471 170.993 250.496 174.56C249.076 179.922 248.332 185.42 247.228 190.846C245.57 198.775 243.157 206.526 240.023 213.996C239.129 216.16 238.215 218.319 237.256 220.455C237.092 220.809 237.008 221.193 237.009 221.583C237.01 221.972 237.096 222.356 237.261 222.709C237.372 223.009 237.509 223.299 237.672 223.574C241.039 228.769 243.038 234.606 245.483 240.233C245.576 240.509 245.75 240.752 245.982 240.93C246.213 241.108 246.493 241.212 246.784 241.231C250.93 241.906 254.932 243.282 258.617 245.298C262.556 247.441 264.49 251.215 265.959 255.276C266.711 257.253 266.731 259.434 266.015 261.424C265.843 262.007 265.548 262.545 265.149 263.004C263.288 264.941 262.381 267.433 261.179 269.754C260.941 270.342 260.567 270.865 260.087 271.279C259.939 271.374 259.812 271.498 259.715 271.645C259.618 271.791 259.552 271.956 259.522 272.129C259.492 272.302 259.499 272.48 259.542 272.65C259.584 272.821 259.662 272.98 259.77 273.119C267.857 286.729 273.237 301.42 277.117 316.708C277.397 317.809 277.705 318.903 278 320H275.869C275.523 319.639 275.299 319.177 275.228 318.682C273.24 310.864 270.859 303.151 268.094 295.573C265.794 289.756 263.148 284.081 260.172 278.579C257.442 273.312 254.074 268.394 251.602 262.985C251.514 262.751 251.367 262.543 251.175 262.382C251.022 262.231 250.831 262.124 250.622 262.072C250.413 262.019 250.195 262.024 249.988 262.085C249.502 262.319 249.83 262.787 249.923 263.124C253.068 274.599 254.799 286.345 256.622 298.071C257.643 304.926 259.093 311.711 260.965 318.384C261.117 318.915 261.404 319.468 260.946 320H259.027C258.57 319.598 258.271 319.048 258.182 318.446C256.22 311.362 254.722 304.158 253.699 296.879C252.511 289.196 251.328 281.51 249.723 273.899C248.968 270.32 248.054 266.778 247.147 263.235C246.825 261.98 246.64 261.845 245.347 262.058C240.51 262.858 235.61 263.087 230.751 263.685C229.181 263.879 229.064 263.932 229.159 265.509C229.288 267.633 229.539 269.752 229.56 271.88C229.616 277.64 228.908 283.351 228.403 289.075C228.057 292.997 227.705 296.918 227.416 300.845C226.979 306.758 226.771 312.677 226.793 318.604C226.828 318.85 226.813 319.102 226.747 319.342C226.681 319.582 226.566 319.806 226.409 320H224.277C224.164 319.862 224.084 319.701 224.041 319.527C223.999 319.354 223.996 319.174 224.032 319C224.183 317.511 224.1 316.018 224.109 314.526C224.139 308.914 224.467 303.319 224.909 297.725C225.43 291.141 226.084 284.571 226.66 277.992C226.927 273.775 226.843 269.544 226.409 265.341C226.318 264.178 226.023 263.985 224.57 264.12C220.964 264.457 217.363 264.852 213.762 265.232C206.901 265.955 200.141 267.317 193.325 268.336C186.955 269.311 180.784 271.306 175.048 274.243C170.062 276.762 164.865 278.779 159.671 280.813C153.088 283.391 146.667 286.391 139.902 288.479C133.855 290.345 127.722 291.799 121.337 292.078C117.214 292.257 113.098 292.228 108.982 292.202C105.201 292.179 101.638 291.006 98.1277 289.716C95.6268 288.797 93.0946 287.965 90.5977 287.035C89.6435 286.68 89.5952 286.752 89.6538 287.772C89.8734 292.212 89.5566 296.662 88.7103 301.026C87.6337 306.83 86.2415 312.56 84.7586 318.269C84.6792 318.908 84.4147 319.51 83.9976 320H81.8655C81.4798 319.444 81.7766 318.9 81.9178 318.367C83.5401 312.221 85.0772 306.055 86.1641 299.788C87.0119 295.497 87.237 291.107 86.8322 286.753C86.7611 286.131 86.6232 285.663 85.9886 285.431C81.5886 283.826 77.6674 281.313 73.6582 278.957C71.3897 277.63 69.0297 276.466 66.5961 275.475C65.2876 274.937 65.1832 275.025 64.7076 276.396C64.3333 277.469 64.0262 278.564 63.718 279.657C63.209 281.662 63.1932 283.761 63.6719 285.774C64.9206 292.15 65.7182 298.605 66.0589 305.093C66.3295 309.521 66.5117 313.95 66.4593 318.387C66.5091 318.667 66.5021 318.954 66.4387 319.231C66.3753 319.508 66.2568 319.77 66.0902 320H64.1714C64.021 319.823 63.9103 319.617 63.8468 319.393C63.7833 319.17 63.7685 318.936 63.8035 318.707C63.9299 315.19 63.6811 311.676 63.534 308.171C63.3646 301.637 62.6616 295.128 61.432 288.709C60.504 284.247 60.2846 279.921 62.2181 275.676C62.5399 274.97 62.308 274.728 61.5441 274.759C60.6813 274.742 59.824 274.899 59.0226 275.219C58.2211 275.538 57.4918 276.015 56.8774 276.621C53.7324 279.766 50.5428 282.865 48.3427 286.773C45.7999 291.256 44.7256 296.423 45.2711 301.548C45.6172 304.976 45.5351 308.434 45.0266 311.841C44.6843 313.766 44.5031 315.715 44.485 317.669C44.5846 318.489 44.3834 319.317 43.9187 320H42Z" fill="#3C1F1B"/>
<path fill-rule="evenodd" clip-rule="evenodd" d="M83.998 320C84.5644 317.698 85.1561 315.402 85.6911 313.093C87.0515 307.743 88.1372 302.327 88.9439 296.866C89.2458 294.118 89.3728 291.354 89.324 288.591C89.3353 288.271 89.3224 287.951 89.2856 287.633C89.0493 286.094 89.043 286.094 90.5543 286.61C95.1823 288.191 99.6981 290.099 104.467 291.26C106.055 291.617 107.676 291.811 109.303 291.84C110.971 291.902 112.643 291.828 114.312 291.865C121.936 292.06 129.545 291.092 136.878 288.996C142.35 287.366 147.721 285.41 152.96 283.139C157.731 281.12 162.583 279.314 167.383 277.376C170.314 276.192 173.122 274.74 175.963 273.359C181.823 270.556 188.077 268.664 194.508 267.749C198.213 267.19 201.897 266.493 205.601 265.935C208.57 265.487 211.555 265.131 214.538 264.782C217.731 264.408 220.935 264.131 224.125 263.732C226.443 263.443 226.784 263.718 226.847 266.082C226.911 268.487 227.322 270.877 227.254 273.288C227.151 277.039 226.773 280.77 226.44 284.505C226.207 287.112 225.991 289.719 225.767 292.326C225.422 296.341 225.077 300.356 224.731 304.371C224.722 304.478 224.717 304.584 224.714 304.691C224.639 307.953 224.564 311.215 224.489 314.478C224.562 316.321 224.491 318.167 224.277 320H83.998Z" fill="#706358"/>
<path fill-rule="evenodd" clip-rule="evenodd" d="M226.409 320C226.322 313.996 226.5 307.999 226.943 302.01C227.483 294.79 228.053 287.57 228.789 280.367C229.268 275.095 229.237 269.79 228.698 264.524C228.629 263.756 228.782 263.531 229.6 263.425C234.844 262.748 240.137 262.529 245.36 261.664C247.114 261.372 247.09 261.447 247.556 263.169C250.471 273.911 252.246 284.876 253.924 295.857C255.045 304.017 256.751 312.085 259.027 320H226.409Z" fill="#CBBEB5"/>
<path fill-rule="evenodd" clip-rule="evenodd" d="M66.0906 320C66.1923 312.258 65.8293 304.516 65.0036 296.817C64.6458 293.108 64.0707 289.423 63.2814 285.781C62.4117 282.024 63.4809 278.544 64.7728 275.087C65.0634 274.306 65.5648 274.658 65.9818 274.829C69.412 276.199 72.7163 277.866 75.8574 279.81C79.1367 281.934 82.6273 283.713 86.2733 285.118C86.5553 285.198 86.8021 285.37 86.9732 285.608C87.1442 285.846 87.2295 286.135 87.2149 286.427C87.8097 292.407 86.9443 298.251 85.7298 304.076C84.6137 309.427 83.2621 314.718 81.8669 320H66.0906Z" fill="#CBBEB5"/>
<path fill-rule="evenodd" clip-rule="evenodd" d="M43.9189 320C44.01 315.697 44.8378 311.461 45.0686 307.175C45.1526 305.294 45.0995 303.41 44.9097 301.537C44.5358 298.029 44.9048 294.481 45.9926 291.125C47.0804 287.77 48.8627 284.68 51.2233 282.059C53.1988 279.769 55.3214 277.629 57.4861 275.522C57.774 275.212 58.1239 274.966 58.5129 274.801C58.902 274.635 59.3215 274.553 59.7443 274.56C60.7999 274.568 61.8482 274.259 63.0136 274.471C62.6895 275.405 62.4126 276.317 62.0616 277.199C60.8922 280.239 60.6792 283.565 61.451 286.73C62.3302 291.149 62.9576 295.615 63.3303 300.105C64.0043 306.722 64.1164 313.359 64.1717 320H43.9189Z" fill="#8B735A"/>
<path fill-rule="evenodd" clip-rule="evenodd" d="M260.945 320C260.792 318.843 260.507 317.706 260.094 316.614C258.02 309.184 256.835 301.581 255.636 293.977C253.968 283.397 252.302 272.813 249.354 262.487C249.145 261.755 249.266 261.521 250.052 261.605C250.503 261.614 250.941 261.764 251.305 262.032C251.668 262.3 251.939 262.675 252.081 263.104C253.728 266.965 256.013 270.494 258.107 274.119C264.697 285.456 269.795 297.596 273.277 310.239C274.165 313.487 275.192 316.697 275.869 320H260.945Z" fill="#8B735A"/>
<path fill-rule="evenodd" clip-rule="evenodd" d="M205.618 88.6223C213.845 88.3181 221.905 89.5464 229.872 91.4687C232.603 92.254 235.278 93.2239 237.878 94.3715C239.132 94.8794 240.296 95.5876 241.323 96.4682C241.99 97.0557 242.697 97.5954 243.44 98.0833C249.137 101.59 251.516 107.013 252.191 113.361C252.668 118.847 252.717 124.363 252.338 129.857C251.834 140.075 251.037 150.274 250.661 160.5C250.475 165.048 249.787 169.561 248.609 173.958C247.158 179.46 246.383 185.097 245.248 190.662C243.304 199.768 240.388 208.638 236.55 217.121C235.26 220.047 234.145 223.04 233.017 226.031C230.961 231.483 229.688 237.147 228.402 242.809C228.297 243.273 228.242 243.663 227.687 243.854C221.905 245.829 216.3 248.264 210.597 250.445C207.614 251.495 204.527 252.221 201.388 252.612C199.101 252.93 196.843 253.428 194.634 254.102C193.314 254.522 191.905 254.58 190.556 254.269C185.638 253.218 180.613 253.132 175.629 252.708C172.437 252.436 169.27 253.225 166.073 253.35C162.203 253.501 158.337 253.678 154.465 253.745C151.442 253.678 148.425 254.019 145.494 254.759C144.727 254.931 144.01 255.274 143.395 255.763C140.529 258.358 137.128 260.176 133.934 262.29C130.231 264.738 126.458 267.079 122.72 269.473C120.095 271.177 117.243 272.5 114.247 273.403C111.998 274.069 109.827 274.956 107.632 275.777C106.168 276.325 105.775 276.06 105.748 274.519C105.633 267.927 103.052 262.304 99.2043 257.08C95.7828 252.435 91.6312 248.534 87.3893 244.694C85.8315 243.291 84.3761 241.778 83.0342 240.167C81.5797 238.414 79.8598 236.899 77.9369 235.678C77.0223 235.131 76.1562 234.506 75.3483 233.812C75.0464 233.506 74.6872 233.262 74.2912 233.095C73.8953 232.928 73.4703 232.841 73.0405 232.839C71.7645 232.903 70.6041 232.15 69.3019 232.465C68.7647 232.596 68.795 231.958 68.6748 231.647C67.3434 228.207 66.0109 224.763 65.0021 221.212C64.0564 217.877 62.308 214.884 61.0673 211.678C58.5432 205.157 55.688 198.775 53.0459 192.304C51.3919 187.957 50.1215 183.474 49.2491 178.905C47.2673 169.718 46.4886 160.382 45.7604 151.028C45.4146 146.319 45.467 141.59 45.9171 136.891C46.3614 131.948 48.9261 128.275 52.47 125.118C53.8226 124.018 55.2985 123.08 56.8679 122.322C62.7818 118.996 68.8605 115.972 75.0806 113.262C79.2746 111.521 83.7772 110.623 88.0006 108.925C92.3275 107.209 96.7721 105.806 101.3 104.728C102.233 104.501 102.492 104.636 102.578 105.633C103.075 111.342 104.453 116.897 105.576 122.499C107.151 130.364 108.689 138.234 109.804 146.184C110.954 154.374 111.926 162.592 113.596 170.702C113.932 172.77 114.512 174.791 115.325 176.722C115.777 177.796 116.549 178.705 117.535 179.326C118.52 179.947 119.673 180.251 120.837 180.196C121.05 180.198 121.262 180.175 121.475 180.163C123.646 180.043 123.632 180.045 123.883 182.265C124.07 183.961 124 185.675 123.675 187.351C123.372 188.967 123.587 189.322 125.035 190.046C126.479 190.646 128.019 190.984 129.581 191.044C137.54 191.938 145.393 191.14 153.205 189.631C160.257 188.342 167.229 186.647 174.086 184.555C178.179 183.263 182.321 182.148 186.305 180.521C188.37 179.676 188.849 179.135 188.894 176.902C188.942 174.543 188.214 172.272 188.087 169.927C188.053 169.273 188.055 168.887 188.784 168.66C192.058 167.648 193.585 165.278 194 161.973C194.496 157.664 194.566 153.316 194.209 148.993C193.668 141.373 193.366 133.739 192.947 126.113C192.566 116.949 191.182 107.855 188.822 98.9926C188.048 96.2255 187.52 93.3899 186.829 90.5992C186.637 89.8296 187.126 89.8569 187.565 89.7942C191.641 89.1817 195.747 88.794 199.866 88.633C201.781 88.5722 203.7 88.6223 205.618 88.6223Z" fill="#F6EFE4"/>
<path fill-rule="evenodd" clip-rule="evenodd" d="M121.557 178.214C118.872 178.265 117.595 177.417 116.83 175.24C115.493 171.436 114.909 167.457 114.297 163.499C112.963 154.875 111.821 146.221 110.441 137.605C109.072 129.056 107.109 120.617 105.465 112.12C104.737 108.541 104.199 104.927 103.853 101.292C103.743 100.024 104.259 99.5247 105.794 99.0582C112.399 97.0492 119.18 95.9223 125.976 94.8272C130.18 94.1498 134.262 92.8286 138.489 92.2493C143.832 91.5166 149.181 90.8296 154.537 90.1884C159.966 89.5464 165.37 88.7436 170.774 87.9243C174.459 87.3649 178.104 86.578 181.793 86.0606C183.443 85.8283 183.726 85.8585 183.827 87.4759C183.952 89.4807 185.09 91.0851 185.44 92.9842C186.539 98.9527 188.5 104.735 189.391 110.751C190.225 116.371 190.783 122.02 191.066 127.698C191.429 135.179 191.861 142.658 192.317 150.135C192.636 154.28 192.495 158.448 191.895 162.562C191.784 163.504 191.406 164.395 190.805 165.128C190.204 165.862 189.405 166.408 188.503 166.702C184.557 168.133 180.418 168.966 176.225 169.172C168.822 169.629 161.465 170.668 154.224 172.277C148.354 173.523 142.565 175.092 136.702 176.33C132.593 177.134 128.436 177.674 124.258 177.947C123.233 178.029 122.21 178.148 121.557 178.214Z" fill="#8B735A"/>
<path fill-rule="evenodd" clip-rule="evenodd" d="M137.079 189.415C134.027 189.423 130.977 189.243 127.946 188.876C127.7 188.843 127.455 188.797 127.213 188.739C125.637 188.358 125.578 188.286 125.752 186.737C125.998 184.76 125.916 182.756 125.51 180.805C125.343 180.037 125.557 179.889 126.283 179.771C130.694 179.064 135.194 178.935 139.53 177.74C148.021 175.401 156.658 173.723 165.315 172.151C169.551 171.381 173.874 171.476 178.14 170.975C180.504 170.718 182.85 170.312 185.163 169.761C185.618 169.649 186.123 169.448 186.155 170.214C186.251 172.519 186.932 174.757 186.937 177.078C186.971 177.411 186.885 177.745 186.695 178.02C186.505 178.296 186.224 178.495 185.901 178.582C178.241 181.491 170.39 183.874 162.405 185.713C155.955 187.278 149.415 188.444 142.821 189.204C140.916 189.421 138.996 189.491 137.079 189.415Z" fill="#FAF0EC"/>
<path fill-rule="evenodd" clip-rule="evenodd" d="M187.666 255.994C186.105 256.39 184.542 256.775 182.986 257.185C177.97 258.507 173.177 260.49 168.288 262.183C164.467 263.504 160.646 264.827 156.843 266.197C152.339 267.92 147.74 269.38 143.067 270.569C138.311 271.681 133.494 272.462 128.69 273.308C125.59 273.853 122.516 274.539 119.418 275.09C117.517 275.493 115.579 275.701 113.636 275.71C114.894 275.271 116.163 274.859 117.411 274.39C120.855 273.096 123.916 271.084 127.001 269.139C131.559 266.265 136.064 263.308 140.576 260.362C141.606 259.738 142.575 259.017 143.469 258.21C145.035 256.693 146.977 256.247 148.999 256.054C152.632 255.706 156.282 255.676 159.929 255.583C164.033 255.533 168.131 255.267 172.206 254.786C174.886 254.435 177.56 254.775 180.232 255.031C181.744 255.176 183.262 255.264 184.775 255.399C185.738 255.484 186.696 255.608 187.658 255.716C187.661 255.808 187.664 255.901 187.666 255.994Z" fill="#706358"/>
<path fill-rule="evenodd" clip-rule="evenodd" d="M82.5164 267.164C78.6141 265.707 74.7387 264.919 71.0495 263.531C70.5392 263.339 70.3231 263.196 70.6144 262.653C72.0892 259.9 73.5538 257.142 75.0082 254.377C75.2537 253.911 75.5004 253.781 76.0096 254.069C77.2324 254.634 78.1813 255.661 78.6484 256.925C79.8054 260.306 81.1622 263.618 82.5164 267.164Z" fill="#CBBEB5"/>
<path fill-rule="evenodd" clip-rule="evenodd" d="M233.686 229.956C234.034 230.516 234.264 230.827 234.435 231.169C235.942 234.184 237.425 237.21 238.946 240.216C239.287 240.889 239.184 241.095 238.413 241.194C235.982 241.477 233.58 241.974 231.236 242.68C230.579 242.887 230.386 242.723 230.537 242.055C231.439 238.082 232.536 234.16 233.686 229.956Z" fill="#CBBEB5"/>
<path fill-rule="evenodd" clip-rule="evenodd" d="M92.9294 272.306C90.545 270.791 88.0352 269.484 85.4274 268.398C85.3102 268.358 85.2037 268.291 85.1162 268.203C85.0288 268.115 84.9626 268.008 84.9227 267.89C83.6905 264.69 82.456 261.49 81.1885 258.2C84.912 260.247 92.0087 268.74 92.9294 272.306Z" fill="#F2E8D1"/>
<path fill-rule="evenodd" clip-rule="evenodd" d="M235.868 224.237C237.554 226.903 238.999 229.713 240.187 232.634C241.116 234.975 242.149 237.274 243.092 239.61C243.24 239.973 243.769 240.398 243.253 240.819C242.899 240.94 242.519 240.963 242.153 240.884C241.787 240.806 241.449 240.629 241.175 240.374C240.76 239.55 240.392 238.702 239.959 237.887C238.247 234.662 236.861 231.257 234.725 228.262C234.597 228.083 234.467 227.901 234.545 227.679C234.891 226.497 235.334 225.346 235.868 224.237Z" fill="#8B735A"/>
<path fill-rule="evenodd" clip-rule="evenodd" d="M67.7289 262.572C67.0578 262.406 66.2648 262.216 65.4746 262.014C64.7376 261.825 65.2195 261.411 65.3596 261.139C66.6545 258.614 67.9722 256.101 69.284 253.585C69.3151 253.521 69.3507 253.46 69.3906 253.401C69.8161 252.809 69.8787 251.706 70.5937 251.65C71.5058 251.578 72.3774 252.239 73.2387 252.653C73.6517 252.851 73.54 253.143 73.3641 253.448C71.7097 256.343 70.0782 259.251 68.6245 262.253C68.4563 262.601 68.2075 262.711 67.7289 262.572Z" fill="#8B735A"/>
<path fill-rule="evenodd" clip-rule="evenodd" d="M115.158 108.773C115.541 107.645 115.924 106.519 116.308 105.394C116.486 104.875 116.712 104.349 117.326 104.284C117.992 104.214 118.311 104.73 118.617 105.227C119.74 107.06 120.227 107.119 121.734 105.607C122.185 105.153 122.602 104.667 123.054 104.216C123.964 103.312 124.642 103.242 125.522 104.135C126.129 104.754 126.553 104.707 127.103 104.133C127.53 103.706 127.979 103.303 128.449 102.924C128.891 102.48 129.443 102.163 130.048 102.006C130.654 101.848 131.29 101.855 131.892 102.026C132.964 102.322 134.11 102.182 135.08 101.636C136.097 101.132 137.142 100.686 138.187 100.24C138.837 99.929 139.575 99.8553 140.273 100.031C140.7 100.158 141.151 100.18 141.588 100.096C142.026 100.013 142.437 99.8251 142.787 99.5497C144.332 98.4615 145.906 97.8354 147.863 98.5544C148.889 98.9316 149.974 98.3944 150.94 97.9596C152.352 97.3261 153.659 97.2354 154.928 98.2609C155.172 98.4448 155.469 98.5462 155.775 98.5505C156.081 98.5548 156.38 98.4618 156.629 98.2849C157.38 97.8822 158.123 97.4644 158.871 97.0566C159.244 96.8073 159.685 96.6798 160.134 96.6917C160.582 96.7037 161.016 96.8545 161.375 97.1233C161.617 97.3076 161.909 97.4135 162.212 97.4269C162.516 97.4402 162.816 97.3602 163.073 97.1978C163.929 96.7649 164.785 96.3331 165.646 95.9131C166.655 95.3718 167.803 95.1436 168.942 95.2578C169.761 95.314 170.58 95.1603 171.322 94.8113C171.587 94.6575 171.898 94.6017 172.2 94.6537C172.502 94.7057 172.776 94.862 172.974 95.0956C173.191 95.4016 173.329 95.7562 173.376 96.1281C173.423 96.5 173.377 96.8777 173.244 97.228C173.21 97.3312 173.143 97.42 173.052 97.4798C172.962 97.5396 172.854 97.5669 172.745 97.5573C172.6 97.5693 172.455 97.525 172.342 97.4337C172.228 97.3423 172.153 97.2108 172.133 97.0661C172.084 95.9411 171.52 96.162 170.813 96.464C170.429 96.654 169.998 96.7301 169.571 96.6834C167.779 96.3091 166.317 97.1119 164.832 97.8833C164.391 98.1123 163.947 98.335 163.499 98.5515C163.082 98.7965 162.601 98.9129 162.118 98.886C161.635 98.8592 161.171 98.6904 160.783 98.4006C160.593 98.2408 160.354 98.1494 160.106 98.1412C159.858 98.1331 159.614 98.2086 159.414 98.3557C158.709 98.7675 157.988 99.1522 157.268 99.5371C156.801 99.8401 156.251 99.9914 155.695 99.9705C155.138 99.9495 154.602 99.7572 154.159 99.4199C153.796 99.1329 153.356 98.9605 152.895 98.9248C152.435 98.889 151.973 98.9916 151.571 99.2193C150.766 99.6402 149.884 99.8941 148.978 99.966C148.073 100.038 147.162 99.9261 146.3 99.6374C146.058 99.5787 145.805 99.5759 145.561 99.6291C145.317 99.6823 145.089 99.7902 144.893 99.9446C144.268 100.28 143.67 100.667 143.055 101.02C142.685 101.266 142.268 101.433 141.831 101.511C141.394 101.59 140.945 101.578 140.512 101.477C139.416 101.289 138.289 101.505 137.34 102.084C136.411 102.525 135.472 102.945 134.523 103.344C133.797 103.664 132.982 103.72 132.219 103.502C131.593 103.29 130.916 103.28 130.283 103.473C129.651 103.665 129.094 104.051 128.692 104.575C128.321 104.958 127.918 105.307 127.487 105.619C126.483 106.375 125.848 106.392 124.938 105.518C124.408 105.009 124.107 105.05 123.665 105.568C123.111 106.264 122.47 106.886 121.758 107.418C120.257 108.458 119.106 108.292 117.967 106.872C117.839 106.712 117.712 106.552 117.485 106.27C117.095 107.425 116.779 108.469 116.386 109.484C116.097 110.229 115.855 111.207 114.839 111.133C113.828 111.062 113.846 110.027 113.683 109.309C113.305 107.651 113.108 105.955 112.624 104.318C112.51 103.932 112.392 103.499 112.922 103.351C113.025 103.318 113.134 103.308 113.242 103.323C113.349 103.337 113.452 103.375 113.543 103.435C113.634 103.494 113.71 103.573 113.767 103.665C113.823 103.758 113.858 103.862 113.87 103.97C114.083 104.794 114.281 105.621 114.465 106.453C114.635 107.212 114.778 107.977 114.933 108.74C115.008 108.751 115.083 108.761 115.158 108.773Z" fill="#3C1F1B"/>
<path fill-rule="evenodd" clip-rule="evenodd" d="M118.168 122.572C118.748 121.783 119.23 121.086 119.756 120.424C121.011 118.849 121.756 118.721 123.403 119.85C123.633 120.016 123.911 120.104 124.195 120.099C124.479 120.094 124.753 119.996 124.977 119.822C126.164 119.112 127.333 118.368 128.541 117.694C129.746 117.023 130.984 116.731 132.24 117.644C132.453 117.779 132.704 117.84 132.955 117.817C133.207 117.795 133.443 117.69 133.629 117.519C134.578 116.897 135.512 116.25 136.478 115.652C136.953 115.305 137.5 115.071 138.079 114.967C138.658 114.864 139.253 114.893 139.818 115.054C140.179 115.157 140.556 115.187 140.929 115.142C141.301 115.098 141.661 114.979 141.988 114.795C142.967 114.294 143.961 113.818 144.944 113.323C146.192 112.61 147.671 112.416 149.061 112.784C149.474 112.89 149.905 112.903 150.324 112.82C150.742 112.738 151.136 112.562 151.478 112.307C152.08 111.932 152.698 111.582 153.303 111.211C153.795 110.853 154.38 110.647 154.986 110.617C155.593 110.587 156.196 110.735 156.72 111.041C157.07 111.223 157.46 111.313 157.853 111.303C158.247 111.293 158.632 111.184 158.972 110.985C159.898 110.536 160.828 110.095 161.76 109.659C162.659 109.223 163.655 109.027 164.653 109.091C165.76 109.086 166.847 108.791 167.805 108.236C169.37 107.561 171.016 107.089 172.701 106.832C173.268 106.725 173.847 106.796 173.943 107.481C174.044 108.206 173.433 108.188 172.933 108.244C171.171 108.475 169.456 108.981 167.851 109.743C166.824 110.238 165.695 110.481 164.556 110.452C163.233 110.494 161.949 110.907 160.849 111.643C159.124 112.603 157.412 113.189 155.528 112.076C155.108 111.827 154.686 112.059 154.317 112.262C153.51 112.706 152.714 113.175 151.928 113.656C151.463 113.956 150.941 114.154 150.395 114.24C149.848 114.325 149.29 114.295 148.756 114.152C147.75 113.889 146.682 114.011 145.761 114.494C144.931 114.898 144.099 115.3 143.286 115.735C142.69 116.124 142.018 116.382 141.315 116.493C140.612 116.603 139.893 116.564 139.207 116.377C138.875 116.302 138.53 116.301 138.198 116.376C137.866 116.451 137.555 116.599 137.288 116.81C136.235 117.467 135.208 118.165 134.148 118.81C133.763 119.073 133.308 119.216 132.841 119.22C132.375 119.224 131.917 119.088 131.528 118.831C131.213 118.632 130.848 118.525 130.475 118.521C130.102 118.518 129.736 118.619 129.417 118.812C128.157 119.406 127.065 120.27 125.861 120.952C124.641 121.644 123.467 121.833 122.342 120.778C121.886 120.349 121.486 120.542 121.164 120.941C120.585 121.658 120.054 122.414 119.472 123.13C118.43 124.412 117.421 124.287 116.741 122.801C116.278 121.5 115.887 120.173 115.571 118.827C115.393 118.29 115.223 117.75 115.03 117.218C114.89 116.83 114.757 116.429 115.232 116.209C115.681 116.001 115.991 116.298 116.178 116.665C116.674 117.84 117.058 119.061 117.324 120.309C117.491 121.101 117.775 121.864 118.168 122.572Z" fill="#3C1F1B"/>
<path fill-rule="evenodd" clip-rule="evenodd" d="M148.382 141.923C145.628 141.552 142.825 141.883 140.234 142.885C139.245 143.21 138.181 143.234 137.179 142.952C136.484 142.797 135.756 142.922 135.153 143.3C134.54 143.658 133.906 143.979 133.255 144.263C131.599 144.956 130.372 144.643 129.059 143.248C128.129 142.259 128.111 142.269 127.214 143.305C126.212 144.638 125.128 145.907 123.969 147.106C122.335 148.581 120.915 148.192 120.364 146.063C119.801 143.888 119.813 141.636 119.588 139.417C119.547 139.014 119.601 138.574 120.12 138.531C120.704 138.483 120.779 138.95 120.833 139.389C121.07 141.359 121.281 143.332 121.561 145.295C121.626 145.748 121.64 146.412 122.21 146.526C122.676 146.62 123.03 146.144 123.322 145.802C124.175 144.804 124.977 143.763 125.829 142.765C126.229 142.268 126.682 141.816 127.179 141.416C127.479 141.154 127.868 141.019 128.266 141.037C128.663 141.056 129.038 141.228 129.312 141.516C129.679 141.85 130.007 142.227 130.351 142.584C130.6 142.891 130.947 143.103 131.334 143.186C131.72 143.269 132.123 143.217 132.477 143.04C132.906 142.873 133.324 142.679 133.729 142.458C135.079 141.631 136.458 141.154 138.067 141.685C138.732 141.859 139.437 141.785 140.051 141.478C142.6 140.361 145.266 140.279 147.977 140.456C148.861 140.513 149.752 140.471 150.639 140.471C151.131 140.471 151.637 140.538 151.66 141.143C151.686 141.817 151.137 141.905 150.618 141.917C149.873 141.935 149.127 141.923 148.382 141.923Z" fill="#3C1F1B"/>
<path fill-rule="evenodd" clip-rule="evenodd" d="M126.759 159.804C125.864 159.785 124.45 157.875 124.703 157.038C124.728 156.915 124.793 156.804 124.888 156.723C124.983 156.641 125.102 156.593 125.227 156.587C125.388 156.584 125.546 156.623 125.687 156.701C125.827 156.778 125.945 156.891 126.028 157.029C126.355 157.459 126.239 158.308 126.935 158.335C127.585 158.36 128.065 157.769 128.539 157.364C128.912 157.036 129.347 156.787 129.819 156.631C130.29 156.475 130.788 156.416 131.283 156.458C133.712 156.597 136.095 156.061 138.461 155.695C140.411 155.393 142.243 154.372 144.229 154.052C145.934 153.714 147.661 153.504 149.397 153.422C150.111 153.421 150.812 153.238 151.435 152.89C151.798 152.686 152.177 152.547 152.46 152.99C152.733 153.419 152.451 153.744 152.157 154.004C151.535 154.487 150.768 154.748 149.98 154.744C146.933 154.86 143.915 155.381 141.005 156.294C137.928 157.352 134.686 157.851 131.433 157.768C130.542 157.759 129.679 158.083 129.013 158.676C128.383 159.257 127.601 159.648 126.759 159.804Z" fill="#3C1F1B"/>
<path fill-rule="evenodd" clip-rule="evenodd" d="M161.842 120.19C162.693 120.268 163.55 120.145 164.344 119.829C165.503 119.376 166.735 119.142 167.979 119.137C168.826 119.034 169.639 118.741 170.358 118.282C171.777 117.632 173.185 117 174.83 117.173C175.82 117.3 176.741 117.747 177.453 118.445C177.741 118.699 177.945 119 177.675 119.366C177.426 119.701 177.059 119.656 176.703 119.55C176.668 119.543 176.635 119.528 176.607 119.506C174.628 117.726 172.701 118.705 170.802 119.648C169.87 120.165 168.833 120.466 167.769 120.529C166.67 120.572 165.584 120.787 164.552 121.168C162.645 121.829 160.594 121.257 158.662 121.8C158.583 121.821 158.5 121.824 158.419 121.809C158.339 121.795 158.263 121.762 158.197 121.714C158.13 121.667 158.075 121.605 158.036 121.533C157.996 121.462 157.973 121.382 157.968 121.301C157.951 121.222 157.952 121.14 157.97 121.061C157.987 120.982 158.021 120.908 158.07 120.844C158.118 120.779 158.179 120.725 158.25 120.686C158.32 120.647 158.398 120.623 158.479 120.616C159.572 120.305 160.706 120.161 161.842 120.19Z" fill="#3C1F1B"/>
<path fill-rule="evenodd" clip-rule="evenodd" d="M173.648 162.82C172.655 163.174 171.598 163.314 170.548 163.229C170.236 163.171 169.903 163.18 169.674 162.907C169.59 162.814 169.539 162.695 169.53 162.569C169.521 162.444 169.553 162.319 169.622 162.214C169.702 162.051 169.839 161.923 170.007 161.855C170.175 161.786 170.362 161.783 170.533 161.844C171.295 162.03 172.097 161.965 172.821 161.66C174.139 161.265 175.4 161.942 176.714 161.894C177.378 161.879 178.038 161.773 178.673 161.579C180.421 161.041 182.197 160.592 183.97 160.142C184.199 160.102 184.434 160.11 184.66 160.165C184.886 160.221 185.098 160.322 185.282 160.464C185.46 160.554 185.596 160.709 185.662 160.898C185.728 161.086 185.718 161.292 185.634 161.473C185.446 161.887 185.071 161.868 184.722 161.717C183.906 161.362 183.206 161.799 182.471 162.009C179.735 162.79 177.026 163.839 174.107 162.894C173.957 162.857 173.803 162.832 173.648 162.82Z" fill="#3C1F1B"/>
<path fill-rule="evenodd" clip-rule="evenodd" d="M171.331 149.969C170.253 150.14 169.194 150.413 168.169 150.785C167.64 150.992 167.07 151.074 166.504 151.026C165.938 150.977 165.39 150.799 164.904 150.504C164.773 150.413 164.615 150.37 164.457 150.382C164.298 150.394 164.148 150.46 164.032 150.569C163.743 150.773 163.441 150.958 163.127 151.123C162.666 151.348 162.168 151.351 161.925 150.849C161.656 150.289 162.041 149.987 162.554 149.868C162.924 149.747 163.27 149.559 163.575 149.315C163.827 149.114 164.138 149 164.461 148.99C164.784 148.98 165.102 149.075 165.366 149.26C165.743 149.497 166.171 149.639 166.615 149.675C167.058 149.71 167.504 149.637 167.913 149.463C168.724 149.207 169.555 149.006 170.354 148.716C171.458 148.315 172.444 148.869 173.473 149.046C173.552 149.066 173.627 149.101 173.691 149.151C173.756 149.2 173.81 149.263 173.85 149.334C173.889 149.405 173.914 149.484 173.921 149.565C173.929 149.646 173.92 149.728 173.894 149.806C173.877 149.903 173.839 149.996 173.784 150.079C173.729 150.162 173.658 150.232 173.575 150.286C173.492 150.34 173.398 150.377 173.3 150.393C173.203 150.41 173.102 150.406 173.006 150.383C172.414 150.29 171.839 150.099 171.331 149.969Z" fill="#493B37"/>
<path fill-rule="evenodd" clip-rule="evenodd" d="M162.822 137.523C162.026 137.634 161.215 137.475 160.519 137.071C160.408 136.984 160.278 136.923 160.14 136.893C160.001 136.863 159.858 136.864 159.72 136.896C159.109 137.076 158.824 136.752 158.854 136.188C158.882 135.613 159.307 135.399 159.823 135.463C160.177 135.505 160.518 135.618 160.827 135.794C161.334 136.096 161.907 136.271 162.496 136.303C163.086 136.335 163.674 136.223 164.211 135.977C166.156 135.165 168.239 135.198 170.25 134.806C170.698 134.718 171.152 134.822 171.252 135.348C171.358 135.901 170.923 136.082 170.485 136.172C170.004 136.287 169.514 136.362 169.02 136.397C167.67 136.433 166.334 136.68 165.061 137.131C164.357 137.439 163.589 137.574 162.822 137.523Z" fill="#3C1F1B"/>
<path fill-rule="evenodd" clip-rule="evenodd" d="M129.113 171.101C128.589 171.09 128.076 170.955 127.615 170.706C127.501 170.653 127.4 170.575 127.32 170.477C127.24 170.379 127.184 170.264 127.155 170.141C127.127 170.018 127.127 169.89 127.155 169.767C127.184 169.644 127.24 169.529 127.32 169.431C127.643 168.971 128.043 169.085 128.379 169.479C128.907 170.097 129.529 169.745 130.047 169.547C131.796 168.948 133.646 168.696 135.492 168.805C136.014 168.814 136.683 168.728 136.661 169.513C136.64 170.227 136 170.148 135.521 170.128C133.674 170.019 131.825 170.287 130.085 170.914C129.767 171.006 129.442 171.068 129.113 171.101Z" fill="#3C1F1B"/>
<path fill-rule="evenodd" clip-rule="evenodd" d="M143.818 126.164C142.719 125.991 141.602 125.731 140.532 126.551C140.425 126.634 140.299 126.69 140.165 126.713C140.031 126.736 139.893 126.726 139.764 126.684C139.635 126.641 139.518 126.567 139.424 126.469C139.33 126.371 139.262 126.251 139.225 126.12C139.03 125.478 139.703 125.555 140.014 125.296C141.241 124.27 142.602 124.686 143.933 124.76C144.399 124.787 145.035 124.786 144.992 125.499C144.949 126.186 144.344 126.113 143.818 126.164Z" fill="#3C1F1B"/>
<path fill-rule="evenodd" clip-rule="evenodd" d="M181.52 134.026C180.92 133.998 180.345 133.776 179.882 133.393C179.584 133.191 179.413 132.931 179.607 132.592C179.804 132.249 180.187 132.044 180.501 132.288C180.783 132.495 181.12 132.613 181.469 132.628C181.819 132.643 182.165 132.555 182.464 132.374C182.612 132.314 182.771 132.284 182.931 132.287C183.092 132.29 183.25 132.325 183.396 132.39C183.525 132.45 183.63 132.552 183.694 132.68C183.758 132.807 183.777 132.952 183.748 133.092C183.722 133.397 183.582 133.727 183.276 133.697C182.679 133.73 182.088 133.84 181.52 134.026Z" fill="#4B4038"/>
<path fill-rule="evenodd" clip-rule="evenodd" d="M182.587 147.72C182.051 147.652 181.742 147.403 181.933 146.931C182.037 146.586 182.26 146.288 182.563 146.091C182.865 145.893 183.227 145.809 183.585 145.852C184.203 146.007 184.765 146.334 185.204 146.796C185.328 146.903 185.405 147.055 185.418 147.219C185.432 147.382 185.38 147.545 185.274 147.67C185.208 147.779 185.104 147.859 184.983 147.895C184.861 147.931 184.73 147.921 184.616 147.867C183.932 147.551 183.288 146.905 182.587 147.72Z" fill="#4E4038"/>
<path fill-rule="evenodd" clip-rule="evenodd" d="M176.402 91.6423C176.722 91.2909 176.924 91.1873 177.173 91.2795C177.196 91.3139 177.212 91.3534 177.217 91.3948C177.223 91.4361 177.219 91.4782 177.205 91.5177C177.01 91.7113 176.775 91.6054 176.402 91.6423Z" fill="#A3916C"/>
<path fill-rule="evenodd" clip-rule="evenodd" d="M176.626 175.486C174.495 178.962 173.38 179.031 169.579 175.959C169.119 176.798 168.712 177.661 168.197 178.454C167.404 179.674 166.772 179.78 165.617 178.896C165.178 178.561 165.076 178.831 164.924 179.119C164.648 179.697 164.277 180.225 163.826 180.681C162.725 181.724 161.669 181.638 160.777 180.394C160.45 179.939 160.195 179.432 159.783 178.739C159.575 179.416 159.43 179.928 159.26 180.433C159.103 180.904 158.942 181.376 158.743 181.831C158.496 182.396 158.176 182.95 157.495 183.023C156.784 183.1 156.416 182.554 156.107 182.032C155.747 181.422 155.447 180.776 155.121 180.145C154.979 179.872 154.931 179.541 154.555 179.301C154.253 180.035 153.999 180.767 153.656 181.454C153.28 182.207 152.936 183.07 151.927 183.16C150.889 183.253 150.468 182.438 150.007 181.717C149.895 181.542 149.783 181.367 149.621 181.114C149.14 181.661 148.737 182.187 148.268 182.643C148.109 182.849 147.91 183.021 147.683 183.147C147.456 183.273 147.205 183.351 146.946 183.376C146.687 183.401 146.426 183.372 146.179 183.292C145.932 183.211 145.704 183.081 145.509 182.908C145.119 182.647 144.892 182.647 144.631 183.003C144.61 183.03 144.588 183.057 144.564 183.083C142.598 185.184 142.268 185.155 140.748 182.64C140.374 183.38 140.054 184.078 139.675 184.743C139.361 185.298 139.015 185.905 138.253 185.858C137.551 185.815 137.278 185.222 137.007 184.675C136.823 184.305 136.654 183.927 136.418 183.422C135.965 184.08 135.622 184.651 135.21 185.165C134.246 186.371 133.072 186.191 132.57 184.729C132.238 183.759 132.031 182.746 131.788 181.747C131.699 181.382 131.725 180.991 132.14 180.849C132.629 180.681 132.869 181.033 132.991 181.429C133.289 182.405 133.556 183.389 133.865 184.473C134.637 183.928 134.87 183.124 135.331 182.494C135.661 182.044 135.887 181.441 136.592 181.51C137.281 181.577 137.444 182.189 137.685 182.694C137.893 183.127 138.071 183.573 138.309 184.123C138.808 183.381 139.223 182.587 139.547 181.754C139.824 181.26 140.054 180.701 140.76 180.716C141.399 180.729 141.66 181.224 141.923 181.688C142.681 183.017 142.676 183.02 143.743 181.887C144.742 180.825 145.127 180.773 146.213 181.688C146.274 181.762 146.351 181.823 146.439 181.864C146.526 181.906 146.621 181.928 146.718 181.928C146.815 181.929 146.91 181.908 146.998 181.867C147.086 181.826 147.164 181.767 147.226 181.693C147.708 181.221 148.134 180.693 148.492 180.121C149.307 178.904 150.047 178.944 150.791 180.228C150.834 180.326 150.885 180.42 150.942 180.509C151.241 180.876 151.266 181.635 151.837 181.559C152.326 181.494 152.401 180.803 152.606 180.364C152.845 179.85 152.987 179.292 153.227 178.779C153.518 178.151 153.699 177.341 154.6 177.346C155.473 177.348 155.718 178.127 156.031 178.747C156.39 179.622 156.826 180.464 157.333 181.262C157.982 180.416 157.99 179.42 158.365 178.569C158.449 178.375 158.492 178.163 158.57 177.964C158.797 177.374 158.935 176.626 159.71 176.579C160.541 176.53 160.756 177.283 161.055 177.889C161.408 178.606 161.526 179.763 162.339 179.831C163.273 179.909 163.495 178.737 163.905 178.02C164.68 176.662 165.193 176.547 166.327 177.627C166.695 177.979 166.913 177.964 167.13 177.548C167.509 176.825 167.864 176.09 168.238 175.365C168.939 174.001 169.759 173.877 170.766 175.015C171.305 175.677 171.989 176.207 172.765 176.564C172.928 176.657 173.108 176.715 173.294 176.736C173.481 176.756 173.669 176.739 173.849 176.683C174.028 176.628 174.194 176.537 174.337 176.415C174.479 176.293 174.596 176.144 174.678 175.975C174.998 175.464 175.259 174.916 175.582 174.407C176.274 173.321 177.004 173.282 177.693 174.359C178.084 174.967 178.321 175.076 178.842 174.497C179.453 173.819 181.628 173.553 182.385 174.001C182.568 174.078 182.717 174.219 182.805 174.398C182.892 174.576 182.912 174.78 182.861 174.973C182.733 175.403 182.388 175.434 181.998 175.369C180.861 175.178 179.854 175.195 178.972 176.223C178.393 176.896 177.737 176.608 176.626 175.486Z" fill="#3C1F1B"/>
</g>
<g style="mix-blend-mode:hue">
<rect width="320" height="320" fill="#00BF13"/>
</g>
</g>
<defs>
<clipPath id="clip0_1423_10127">
<rect width="320" height="320" fill="white"/>
</clipPath>
<clipPath id="clip1_1423_10127">
<rect width="236" height="236" fill="white" transform="translate(42 84)"/>
</clipPath>
</defs>
</svg>
