<svg width="320" height="320" viewBox="0 0 320 320" fill="none" xmlns="http://www.w3.org/2000/svg">
<rect width="320" height="320" fill="#F2F2EA"/>
<g clip-path="url(#clip0_1423_4115)">
<path fill-rule="evenodd" clip-rule="evenodd" d="M206.51 137.481C198.406 154.652 188.377 170.847 176.618 185.754C171.027 192.66 163.932 198.196 155.874 201.939C147.816 205.682 139.009 207.533 130.125 207.35L121.642 205.947C102.774 202.223 99.4928 209.811 85.4156 215.88C78.7944 218.735 56.7313 226.404 55 234.319C56.2706 235.878 55.0468 235.415 58.0643 236.684C59.7526 237.236 61.5024 237.578 63.2741 237.702C66.5927 238.086 70.1074 238.225 73.5203 238.408C80.6322 238.79 87.5909 239.141 94.7599 239.3C109.955 239.636 124.335 238.505 139.243 238.587C171.606 238.764 175.168 228.385 193.081 201.211C202.913 186.297 221.817 151.525 238.371 157.397C245.372 159.88 244.886 165.419 244.874 173.66C244.856 185.487 244.06 236.969 245.393 241.415L253.145 241.59C253.135 217.417 252.328 192.197 253.159 168.569C253.775 151.039 269.232 131.677 263.873 107.595C261.904 98.7489 257.477 87.6163 252.706 82.4319C240.044 68.6742 226.718 99.79 218.957 113.869L209.448 131.672C207.505 134.954 207.044 134.258 206.51 137.481Z" fill="#3C1F1B"/>
<path fill-rule="evenodd" clip-rule="evenodd" d="M121.642 205.947L130.126 207.35C139.009 207.533 147.816 205.682 155.874 201.939C163.932 198.196 171.027 192.66 176.618 185.754C188.377 170.847 198.406 154.652 206.51 137.481C201.53 140.728 194.23 152.931 190.456 159.168C185.391 167.537 181.154 176.431 174.962 182.084C164.372 191.75 142.408 205.085 121.642 205.947Z" fill="#8B735A"/>
</g>
<defs>
<clipPath id="clip0_1423_4115">
<rect width="210" height="162.59" fill="white" transform="translate(55 79)"/>
</clipPath>
</defs>
</svg>
