<svg width="320" height="320" viewBox="0 0 320 320" fill="none" xmlns="http://www.w3.org/2000/svg">
<g clip-path="url(#clip0_1426_21810)">
<rect width="320" height="320" fill="#DCFFE0"/>
<g clip-path="url(#clip1_1426_21810)">
<path fill-rule="evenodd" clip-rule="evenodd" d="M126.998 140.71C122.125 115.361 129.996 93.5527 147.885 74.528C159.155 64.1977 173.271 63.6273 181.492 77.7317C193.651 98.5875 195.181 120.5 187.38 143.339C180.708 162.874 168.959 168.465 180.543 193.711C188.828 214.544 191.282 255.599 156.587 249.729C139.118 246.773 134.684 228.981 133.319 205.913C131.767 179.583 141.839 178.083 129.29 147C128.317 144.986 127.549 142.879 126.998 140.71Z" fill="#DCCDB3" stroke="#3C1F1B" stroke-width="3.2" stroke-miterlimit="2.6131"/>
<path d="M154.265 65.8055L161.724 74.2028" stroke="#3C1F1B" stroke-width="3.2" stroke-linecap="round" stroke-linejoin="round"/>
<path d="M168.478 64.3895V73.7984" stroke="#3C1F1B" stroke-width="3.2" stroke-linecap="round" stroke-linejoin="round"/>
<path d="M183.698 70.3585L176.34 78.9587" stroke="#3C1F1B" stroke-width="3.2" stroke-linecap="round" stroke-linejoin="round"/>
<path d="M189.948 79.4641L180.977 85.9392" stroke="#3C1F1B" stroke-width="3.2" stroke-linecap="round" stroke-linejoin="round"/>
<path d="M193.777 89.5815L184.907 92.8193" stroke="#3C1F1B" stroke-width="3.2" stroke-linecap="round" stroke-linejoin="round"/>
<path d="M195.894 102.228L184.907 104.151" stroke="#3C1F1B" stroke-width="3.2" stroke-linecap="round" stroke-linejoin="round"/>
<path d="M197.911 109.614L187.931 114.268" stroke="#3C1F1B" stroke-width="3.2" stroke-linecap="round" stroke-linejoin="round"/>
<path d="M198.616 117.607L187.831 124.183" stroke="#3C1F1B" stroke-width="3.2" stroke-linecap="round" stroke-linejoin="round"/>
<path d="M184.604 132.935L195.592 129.95" stroke="#3C1F1B" stroke-width="3.2" stroke-linecap="round" stroke-linejoin="round"/>
<path d="M181.983 140.675L192.265 140.371" stroke="#3C1F1B" stroke-width="3.2" stroke-linecap="round" stroke-linejoin="round"/>
<path d="M181.278 149.224L187.83 149.527" stroke="#3C1F1B" stroke-width="3.2" stroke-linecap="round" stroke-linejoin="round"/>
<path d="M175.606 162.807L181.755 162.984" stroke="#3C1F1B" stroke-width="3.2" stroke-linecap="round" stroke-linejoin="round"/>
<path d="M172.959 175.125L182.586 175.276" stroke="#3C1F1B" stroke-width="3.2" stroke-linecap="round" stroke-linejoin="round"/>
<path d="M175.277 185.722L182.838 184.407" stroke="#3C1F1B" stroke-width="3.2" stroke-linecap="round" stroke-linejoin="round"/>
<path d="M178.05 198.268L186.013 196.75" stroke="#3C1F1B" stroke-width="3.2" stroke-linecap="round" stroke-linejoin="round"/>
<path d="M182.509 210.257L190.321 208.133" stroke="#3C1F1B" stroke-width="3.2" stroke-linecap="round" stroke-linejoin="round"/>
<path d="M182.282 221.159L192.765 218.731" stroke="#3C1F1B" stroke-width="3.2" stroke-linecap="round" stroke-linejoin="round"/>
<path d="M182.18 230.644L190.747 230.923" stroke="#3C1F1B" stroke-width="3.2" stroke-linecap="round" stroke-linejoin="round"/>
<path d="M174.492 238.208L182.203 245.897" stroke="#3C1F1B" stroke-width="3.2" stroke-linecap="round" stroke-linejoin="round"/>
<path d="M167.386 243.216L170.511 252.625" stroke="#3C1F1B" stroke-width="3.2" stroke-linecap="round" stroke-linejoin="round"/>
<path d="M156.145 243.874L153.071 255.611" stroke="#3C1F1B" stroke-width="3.2" stroke-linecap="round" stroke-linejoin="round"/>
<path d="M149.695 240.283L140.069 247.922" stroke="#3C1F1B" stroke-width="3.2" stroke-linecap="round" stroke-linejoin="round"/>
<path d="M145.613 233.706L134.827 236.843" stroke="#3C1F1B" stroke-width="3.2" stroke-linecap="round" stroke-linejoin="round"/>
<path d="M143.244 227.686L132.307 228.041" stroke="#3C1F1B" stroke-width="3.2" stroke-linecap="round" stroke-linejoin="round"/>
<path d="M141.982 219.34H130.592" stroke="#3C1F1B" stroke-width="3.2" stroke-linecap="round" stroke-linejoin="round"/>
<path d="M139.411 209.045L127.845 211.549" stroke="#3C1F1B" stroke-width="3.2" stroke-linecap="round" stroke-linejoin="round"/>
<path d="M140.718 196.297L129.529 200.597" stroke="#3C1F1B" stroke-width="3.2" stroke-linecap="round" stroke-linejoin="round"/>
<path d="M138.702 188.709L130.185 191.593" stroke="#3C1F1B" stroke-width="3.2" stroke-linecap="round" stroke-linejoin="round"/>
<path d="M141.122 180.034L130.916 180.767" stroke="#3C1F1B" stroke-width="3.2" stroke-linecap="round" stroke-linejoin="round"/>
<path d="M129.579 171.283C133.081 169.364 137.068 168.519 141.045 168.854" stroke="#3C1F1B" stroke-width="3.2" stroke-linecap="round" stroke-linejoin="round"/>
<path d="M126.418 160.35C129.676 158.037 133.539 156.736 137.527 156.607" stroke="#3C1F1B" stroke-width="3.2" stroke-linecap="round" stroke-linejoin="round"/>
<path d="M124.465 150.881C127.138 147.907 130.623 145.787 134.486 144.783" stroke="#3C1F1B" stroke-width="3.2" stroke-linecap="round" stroke-linejoin="round"/>
<path d="M121.756 140.195C124.43 137.221 127.914 135.101 131.777 134.097" stroke="#3C1F1B" stroke-width="3.2" stroke-linecap="round" stroke-linejoin="round"/>
<path d="M120.384 126.34C124.371 126.507 128.319 125.494 131.737 123.429" stroke="#3C1F1B" stroke-width="3.2" stroke-linecap="round" stroke-linejoin="round"/>
<path d="M121.012 116.519C124.719 115.039 128.779 114.683 132.686 115.497" stroke="#3C1F1B" stroke-width="3.2" stroke-linecap="round" stroke-linejoin="round"/>
<path d="M123.451 103.174C126.614 105.616 130.421 107.072 134.401 107.362" stroke="#3C1F1B" stroke-width="3.2" stroke-linecap="round" stroke-linejoin="round"/>
<path d="M126.496 95.5302H137.684" stroke="#3C1F1B" stroke-width="3.2" stroke-linecap="round" stroke-linejoin="round"/>
<path d="M134.458 84.1476C137.928 86.3404 142.016 87.3353 146.101 86.981" stroke="#3C1F1B" stroke-width="3.2" stroke-linecap="round" stroke-linejoin="round"/>
<path d="M143.341 75.6932C146.81 77.886 150.898 78.8808 154.983 78.5261" stroke="#3C1F1B" stroke-width="3.2" stroke-linecap="round" stroke-linejoin="round"/>
</g>
<g style="mix-blend-mode:hue">
<rect width="320" height="320" fill="#00BF13"/>
</g>
</g>
<defs>
<clipPath id="clip0_1426_21810">
<rect width="320" height="320" fill="white"/>
</clipPath>
<clipPath id="clip1_1426_21810">
<rect width="81" height="194" fill="white" transform="translate(119 63)"/>
</clipPath>
</defs>
</svg>
