<svg width="320" height="320" viewBox="0 0 320 320" fill="none" xmlns="http://www.w3.org/2000/svg">
<rect width="320" height="320" fill="#F2F2EA"/>
<path d="M77.0348 77.5122C76.7819 74.8566 78.7297 72.4991 81.385 72.2461L209.605 60.0356C212.26 59.7829 214.618 61.7305 214.871 64.3861L230.744 231.072C230.997 233.727 229.049 236.085 226.394 236.338L98.1744 248.548C95.5189 248.801 93.1611 246.853 92.9082 244.198L77.0348 77.5122Z" fill="#DCCDB3"/>
<path fill-rule="evenodd" clip-rule="evenodd" d="M75.0313 77.702C74.6729 73.94 77.4323 70.6 81.1942 70.2418L209.414 58.0313C213.176 57.6731 216.516 60.4322 216.874 64.1942L232.748 230.88C233.106 234.642 230.347 237.982 226.585 238.34L98.3651 250.551C94.6031 250.909 91.2629 248.149 90.9047 244.387L75.0313 77.702ZM81.5757 74.2486C80.0268 74.396 78.8907 75.7713 79.0381 77.3205L94.9115 244.006C95.0592 245.555 96.4344 246.691 97.9834 246.543L226.203 234.333C227.752 234.186 228.888 232.81 228.741 231.261L212.867 64.5759C212.72 63.0267 211.344 61.8906 209.795 62.0381L81.5757 74.2486Z" fill="#3C1F1B"/>
<path d="M104.316 87.7181C104.316 85.0505 106.479 82.888 109.146 82.888H237.946C240.614 82.888 242.776 85.0505 242.776 87.7181V255.158C242.776 257.825 240.614 259.987 237.946 259.987H109.146C106.479 259.987 104.316 257.825 104.316 255.158V87.7181Z" fill="white"/>
<path fill-rule="evenodd" clip-rule="evenodd" d="M102.305 87.7181C102.305 83.9392 105.368 80.8756 109.147 80.8756H237.947C241.726 80.8756 244.789 83.9392 244.789 87.7181V255.158C244.789 258.936 241.726 262 237.947 262H109.147C105.368 262 102.305 258.936 102.305 255.158V87.7181ZM109.147 84.9006C107.591 84.9006 106.33 86.162 106.33 87.7181V255.158C106.33 256.714 107.591 257.975 109.147 257.975H237.947C239.503 257.975 240.764 256.714 240.764 255.158V87.7181C240.764 86.162 239.503 84.9006 237.947 84.9006H109.147Z" fill="#3C1F1B"/>
<path d="M226.452 187.494H171.35C169.219 187.494 167.491 189.221 167.491 191.352V227.608C167.491 229.739 169.219 231.466 171.35 231.466H226.452C228.583 231.466 230.311 229.739 230.311 227.608V191.352C230.311 189.221 228.583 187.494 226.452 187.494Z" fill="white"/>
<path d="M125.384 175.971C126.383 171.867 132.081 170.514 136.47 168.985C135.954 164.691 136.714 161.851 139.035 160.471L155.441 150.678C155.846 150.435 156.331 150.364 156.79 150.479C157.248 150.595 157.641 150.888 157.884 151.293C158.126 151.699 158.197 152.184 158.082 152.642C157.966 153.1 157.674 153.494 157.268 153.736L154.24 155.542C161.208 159.57 166.335 164.698 172.359 176.639C178.501 174.577 185.332 172.133 193.118 169.217C190.572 164.598 187.582 160.238 184.192 156.198C179.409 150.872 172.614 144.673 167.245 147.785L163.38 150.101C162.975 150.331 162.497 150.394 162.046 150.276C161.596 150.158 161.21 149.868 160.97 149.469C160.731 149.069 160.658 148.592 160.766 148.139C160.874 147.686 161.155 147.294 161.549 147.046L165.378 144.751C172.359 140.722 179.295 146.075 185.367 152.206L185.692 152.104C208.289 143.971 219.747 152.414 222.031 157.224C223.134 159.234 223.779 161.464 223.918 163.752C224.058 166.041 223.689 168.333 222.839 170.462C221.988 172.592 220.676 174.506 218.998 176.069C217.32 177.632 215.316 178.803 213.132 179.5C206.687 181.923 190.925 188.219 178.551 192.199C178.133 192.192 177.731 192.039 177.415 191.767C177.098 191.495 176.887 191.121 176.818 190.709C176.748 190.298 176.825 189.875 177.035 189.514C177.245 189.153 177.574 188.877 177.966 188.734C190.252 184.475 205.492 178.659 211.837 176.18C213.457 175.589 214.965 174.729 216.299 173.636C217.94 172.293 219.164 170.508 219.826 168.494C220.489 166.479 220.563 164.317 220.039 162.261C219.55 162.568 219.038 162.836 218.508 163.063C218.508 163.063 215.581 164.276 210.846 166.171C210.636 166.255 210.412 166.298 210.186 166.297C209.775 166.292 209.378 166.144 209.063 165.88C208.748 165.617 208.534 165.252 208.456 164.848C208.379 164.445 208.443 164.027 208.637 163.665C208.832 163.303 209.145 163.019 209.525 162.861C215.88 160.179 216.755 160.255 218.823 158.772C218.773 158.665 213.248 148.535 192.697 153.756C191.798 153.943 189.669 154.593 187.929 155.138C191.149 159.152 194.014 163.438 196.493 167.947C198.645 167.136 200.911 166.26 202.911 165.476C203.348 165.319 203.828 165.339 204.251 165.531C204.673 165.722 205.004 166.072 205.173 166.504C205.342 166.936 205.336 167.417 205.155 167.844C204.975 168.272 204.635 168.612 204.208 168.793C189.683 174.431 175.968 179.415 162.48 183.574C155.813 185.712 148.874 186.886 141.875 187.06C139.414 187.08 136.957 186.845 134.545 186.36C132.069 185.716 129.761 184.543 127.781 182.922C127.867 189.981 137.781 193.624 139.171 193.773C152.316 197.357 167.012 192.631 171.203 191.096C171.423 191.016 171.656 190.979 171.89 190.989C172.124 190.999 172.353 191.054 172.566 191.153C172.778 191.251 172.969 191.391 173.127 191.563C173.286 191.735 173.409 191.937 173.489 192.157C173.57 192.377 173.606 192.61 173.596 192.844C173.587 193.078 173.531 193.307 173.432 193.52C173.334 193.732 173.194 193.923 173.022 194.081C172.85 194.24 172.648 194.363 172.428 194.443C165.115 197.095 157.412 198.515 149.634 198.647C145.807 198.678 141.993 198.2 138.293 197.227C131.939 195.802 120.277 188.786 125.384 175.971ZM140.856 163.533C139.987 164.069 139.755 165.564 139.921 167.79C142.144 167.03 144.502 166.205 147.117 165.291C145.714 164.504 144.22 163.89 142.669 163.462C142.077 163.26 141.431 163.285 140.856 163.533ZM168.937 177.765C162.347 164.876 157.097 161.018 150.706 157.655L145.624 160.685C148.069 161.595 150.352 162.891 152.388 164.523C157.166 168.593 160.863 173.781 163.152 179.625C165.075 179.044 166.985 178.405 168.937 177.765ZM129.26 179.308C136.153 187.225 154.817 181.921 159.73 180.686C157.759 175.759 154.682 171.351 150.736 167.803C145.197 169.744 138.757 171.964 133.743 173.702C131.011 174.491 127.313 176.173 129.26 179.308Z" fill="#3C1F1B"/>
</svg>
