<svg width="320" height="320" viewBox="0 0 320 320" fill="none" xmlns="http://www.w3.org/2000/svg">
<rect width="320" height="320" fill="#EFE2C1"/>
<path d="M176.726 88.2435V127.862H143.602V86.74C143.601 84.6598 144.002 82.599 144.781 80.6703L166.433 57C173.119 66.0446 176.727 76.9959 176.726 88.2435Z" fill="#A42424"/>
<path d="M153.457 80.6582C152.174 81.5187 150.664 81.9782 149.119 81.9782C147.574 81.9782 146.064 81.5187 144.781 80.6582C149.548 66.2334 166.433 57 166.433 57C167.269 69.3307 158.97 76.982 153.457 80.6582Z" fill="#941B1B"/>
<path d="M182.763 130.534V159.416H137.375V130.534C137.376 127.933 139.484 125.825 142.086 125.823H178.052C180.652 125.821 182.761 127.925 182.763 130.524L182.763 130.534Z" fill="#DBD8DD"/>
<path d="M175.389 130.534V159.416H137.377V130.534C137.378 127.933 139.487 125.825 142.088 125.823H170.678C173.277 125.821 175.386 127.925 175.389 130.524C175.389 130.528 175.389 130.531 175.389 130.534Z" fill="#EEEFEE"/>
<path d="M186.484 159.715V169.716H133.667V159.715C133.667 158.849 134.01 158.019 134.622 157.407C135.235 156.795 136.065 156.451 136.93 156.451H183.207C184.074 156.45 184.907 156.793 185.521 157.405C186.136 158.017 186.482 158.848 186.484 159.715Z" fill="#BD9C52"/>
<path d="M176.726 159.715V169.716H133.667V159.715C133.667 158.849 134.01 158.019 134.622 157.407C135.235 156.795 136.065 156.451 136.93 156.451H173.451C174.318 156.45 175.15 156.794 175.764 157.406C176.378 158.018 176.724 158.848 176.726 159.715Z" fill="#C9A962"/>
<path d="M190.147 169.229V251.305C190.149 257.763 184.915 262.999 178.457 263.001H141.695C135.237 263.002 130.001 257.768 130 251.31V169.229C129.999 169.006 130.042 168.785 130.126 168.579C130.211 168.373 130.335 168.185 130.492 168.027C130.649 167.868 130.835 167.743 131.041 167.656C131.246 167.57 131.467 167.525 131.69 167.524H188.443C188.894 167.528 189.326 167.708 189.645 168.027C189.964 168.346 190.144 168.778 190.147 169.229Z" fill="#5B4334"/>
<path d="M176.725 169.229V251.305C176.727 257.763 171.493 262.999 165.035 263.001H141.695C135.237 263.002 130.001 257.768 130 251.31V169.229C129.999 169.006 130.042 168.785 130.126 168.579C130.211 168.373 130.335 168.185 130.492 168.027C130.649 167.868 130.835 167.743 131.041 167.656C131.246 167.57 131.467 167.525 131.69 167.524H175.021C175.244 167.523 175.465 167.566 175.671 167.651C175.877 167.735 176.065 167.859 176.223 168.016C176.381 168.173 176.507 168.36 176.593 168.565C176.68 168.771 176.724 168.991 176.725 169.214V169.229Z" fill="#674C3C"/>
</svg>
