<svg width="320" height="320" viewBox="0 0 320 320" fill="none" xmlns="http://www.w3.org/2000/svg">
<g clip-path="url(#clip0_2133_1409)">
<rect width="320" height="320" fill="#EFE2C1"/>
<path d="M100.736 214.992L100.735 214.992C86.4119 199.483 78.5316 179.84 78.5 159.732C78.5001 139.801 86.2227 120.336 100.323 105.007L100.324 105.006C116.001 87.9033 137.094 78.5 159.699 78.5C182.303 78.5 203.46 87.9033 219.264 105.067L219.265 105.067C233.588 120.576 241.468 140.22 241.5 160.269C241.5 180.199 233.777 199.664 219.645 214.992L219.645 214.993C203.936 232.097 182.874 241.5 160.27 241.5C137.665 241.5 116.508 232.097 100.736 214.992Z" fill="#CEB57E" stroke="#86766A"/>
<path d="M109.167 207.301L109.167 207.301C96.8808 194.076 90.1228 177.327 90.0957 160.185C90.0958 143.193 96.7185 126.597 108.813 113.526L108.814 113.525C122.26 98.9417 140.352 90.9238 159.741 90.9238C179.13 90.9238 197.277 98.9417 210.832 113.577L210.833 113.578C223.119 126.802 229.877 143.551 229.904 160.643C229.904 177.634 223.281 194.23 211.159 207.301L211.159 207.302C197.685 221.886 179.62 229.904 160.231 229.904C140.842 229.904 122.695 221.886 109.167 207.301Z" fill="#BD9C52" stroke="#86766A"/>
<path d="M112.178 203.812L112.178 203.812C100.619 191.453 94.2628 175.803 94.2373 159.786C94.2374 143.91 100.467 128.402 111.845 116.187L111.846 116.187C124.495 102.558 141.515 95.0654 159.756 95.0654C177.997 95.0654 195.069 102.558 207.822 116.235L207.822 116.235C219.381 128.594 225.737 144.245 225.763 160.214C225.762 176.09 219.533 191.597 208.13 203.812L208.129 203.813C195.453 217.441 178.459 224.934 160.218 224.934C141.977 224.934 124.905 217.441 112.178 203.812Z" fill="#DBD8DD" stroke="#86766A"/>
<path d="M160.202 220.464C143.197 220.464 127.284 213.485 115.427 200.8C104.66 189.299 98.7307 174.726 98.707 159.802C98.707 145.01 104.517 130.569 115.118 119.2C126.905 106.514 142.771 99.5352 159.775 99.5352C176.779 99.5352 192.692 106.514 204.573 119.244C215.34 130.744 221.269 145.317 221.293 160.197C221.293 174.99 215.483 189.431 204.858 200.8C193.048 213.485 177.206 220.464 160.202 220.464Z" fill="#EDEDED"/>
<path opacity="0.32" d="M158.912 207.212C145.929 207.212 133.779 201.81 124.726 191.992C116.505 183.091 111.978 171.812 111.96 160.261C111.96 148.812 116.396 137.635 124.49 128.836C133.489 119.018 145.603 113.616 158.586 113.616C171.569 113.616 183.719 119.018 192.79 128.87C201.011 137.771 205.538 149.05 205.556 160.567C205.556 172.016 201.12 183.193 193.008 191.992C183.99 201.81 171.895 207.212 158.912 207.212Z" fill="#DBD8DD"/>
<path d="M132.458 183.788L132.458 183.787C126.04 176.932 122.514 168.256 122.5 159.38C122.5 150.583 125.955 141.986 132.272 135.212L132.273 135.211C139.295 127.653 148.741 123.5 158.864 123.5C168.987 123.5 178.462 127.653 185.542 135.238L185.542 135.239C191.96 142.094 195.486 150.771 195.5 159.62C195.5 168.417 192.045 177.013 185.714 183.788L185.713 183.789C178.676 191.347 169.244 195.5 159.122 195.5C148.998 195.5 139.524 191.347 132.458 183.788Z" fill="#CEB57E" stroke="#86766A"/>
<g style="mix-blend-mode:hue">
<rect width="320" height="320" fill="#00BF13"/>
</g>
</g>
<defs>
<clipPath id="clip0_2133_1409">
<rect width="320" height="320" fill="white"/>
</clipPath>
</defs>
</svg>
