<svg width="320" height="320" viewBox="0 0 320 320" fill="none" xmlns="http://www.w3.org/2000/svg">
<g clip-path="url(#clip0_1426_21689)">
<rect width="320" height="320" fill="#DCFFE0"/>
<path d="M60.3144 49.61C55.5456 86.4279 82.406 117.012 86.1225 149.757C91.2055 194.561 78.4338 229.605 82.0696 270.065" stroke="#3C1F1B" stroke-width="6.8" stroke-miterlimit="2.6131"/>
<path d="M259.865 49.61C264.21 96.0051 230.583 121.956 223.465 158.777C214.872 203.239 241.868 230.111 251.525 270.065" stroke="#3C1F1B" stroke-width="6.8" stroke-miterlimit="2.6131"/>
<path d="M201.741 121.963H112.615V210.402H201.741V121.963Z" fill="#DCCDB3" stroke="#3C1F1B" stroke-width="4.44" stroke-miterlimit="2.6131"/>
<path d="M126.532 144V131.127H131.686C132.633 131.127 133.423 131.268 134.056 131.548C134.688 131.829 135.164 132.219 135.483 132.718C135.801 133.212 135.96 133.782 135.96 134.427C135.96 134.93 135.86 135.372 135.659 135.753C135.457 136.131 135.181 136.441 134.829 136.684C134.481 136.923 134.083 137.092 133.635 137.193V137.319C134.125 137.339 134.584 137.478 135.011 137.733C135.443 137.989 135.793 138.347 136.061 138.808C136.329 139.265 136.463 139.81 136.463 140.442C136.463 141.125 136.293 141.735 135.954 142.271C135.619 142.804 135.122 143.225 134.464 143.535C133.806 143.845 132.996 144 132.032 144H126.532ZM129.254 141.775H131.472C132.231 141.775 132.784 141.63 133.132 141.341C133.48 141.048 133.653 140.658 133.653 140.172C133.653 139.816 133.568 139.502 133.396 139.229C133.224 138.957 132.979 138.743 132.66 138.588C132.346 138.433 131.971 138.356 131.535 138.356H129.254V141.775ZM129.254 136.514H131.271C131.644 136.514 131.975 136.449 132.264 136.319C132.558 136.185 132.788 135.996 132.956 135.753C133.128 135.51 133.213 135.219 133.213 134.88C133.213 134.415 133.048 134.04 132.717 133.755C132.39 133.47 131.925 133.327 131.322 133.327H129.254V136.514ZM138.234 144V131.127H143.313C144.285 131.127 145.115 131.301 145.802 131.649C146.493 131.993 147.019 132.481 147.379 133.113C147.744 133.742 147.926 134.482 147.926 135.332C147.926 136.187 147.742 136.923 147.373 137.538C147.004 138.15 146.47 138.62 145.77 138.946C145.075 139.273 144.233 139.437 143.244 139.437H139.843V137.249H142.804C143.323 137.249 143.755 137.178 144.098 137.036C144.442 136.893 144.698 136.679 144.865 136.395C145.037 136.11 145.123 135.756 145.123 135.332C145.123 134.905 145.037 134.544 144.865 134.251C144.698 133.958 144.44 133.736 144.092 133.585C143.749 133.43 143.315 133.352 142.791 133.352H140.956V144H138.234ZM145.186 138.142L148.385 144H145.381L142.25 138.142H145.186ZM152.068 144H149.152L153.596 131.127H157.103L161.541 144H158.624L155.4 134.069H155.299L152.068 144ZM151.886 138.94H158.775V141.065H151.886V138.94ZM173.857 131.127V144H171.506L165.906 135.898H165.812V144H163.09V131.127H165.479L171.035 139.223H171.148V131.127H173.857ZM180.669 144H176.106V131.127H180.707C182.002 131.127 183.116 131.385 184.051 131.9C184.985 132.412 185.704 133.147 186.207 134.107C186.714 135.066 186.967 136.214 186.967 137.551C186.967 138.892 186.714 140.044 186.207 141.008C185.704 141.972 184.981 142.711 184.038 143.227C183.1 143.742 181.976 144 180.669 144ZM178.827 141.668H180.556C181.361 141.668 182.037 141.526 182.586 141.241C183.139 140.952 183.554 140.505 183.831 139.902C184.111 139.294 184.252 138.511 184.252 137.551C184.252 136.6 184.111 135.823 183.831 135.219C183.554 134.616 183.141 134.172 182.592 133.887C182.044 133.602 181.367 133.459 180.562 133.459H178.827V141.668Z" fill="#3C1F1B"/>
<path d="M144.598 188.812C144.548 188.305 144.332 187.911 143.951 187.631C143.57 187.35 143.052 187.209 142.398 187.209C141.954 187.209 141.579 187.272 141.273 187.398C140.967 187.52 140.733 187.689 140.569 187.907C140.41 188.125 140.33 188.372 140.33 188.649C140.322 188.879 140.37 189.08 140.475 189.252C140.584 189.424 140.733 189.573 140.921 189.698C141.11 189.82 141.328 189.927 141.575 190.019C141.822 190.107 142.086 190.182 142.367 190.245L143.523 190.522C144.085 190.648 144.6 190.815 145.07 191.025C145.539 191.234 145.945 191.492 146.289 191.798C146.633 192.104 146.899 192.464 147.087 192.879C147.28 193.294 147.379 193.769 147.383 194.306C147.379 195.094 147.177 195.777 146.779 196.355C146.385 196.929 145.816 197.375 145.07 197.694C144.328 198.008 143.433 198.165 142.386 198.165C141.347 198.165 140.441 198.006 139.67 197.687C138.904 197.369 138.304 196.897 137.873 196.273C137.445 195.645 137.221 194.867 137.2 193.941H139.834C139.863 194.373 139.987 194.733 140.205 195.022C140.427 195.307 140.722 195.523 141.091 195.67C141.464 195.812 141.885 195.883 142.354 195.883C142.815 195.883 143.215 195.816 143.555 195.682C143.898 195.548 144.165 195.362 144.353 195.123C144.542 194.884 144.636 194.61 144.636 194.299C144.636 194.01 144.55 193.767 144.378 193.57C144.211 193.373 143.963 193.206 143.637 193.068C143.314 192.929 142.918 192.804 142.449 192.69L141.047 192.338C139.962 192.074 139.105 191.662 138.476 191.1C137.848 190.539 137.535 189.782 137.54 188.831C137.535 188.052 137.743 187.371 138.162 186.788C138.585 186.206 139.165 185.751 139.903 185.424C140.64 185.097 141.479 184.934 142.417 184.934C143.373 184.934 144.206 185.097 144.919 185.424C145.635 185.751 146.193 186.206 146.591 186.788C146.989 187.371 147.194 188.045 147.207 188.812H144.598ZM151.935 185.11V197.983H149.213V185.11H151.935ZM154.036 197.983V196.367L160.46 187.354H154.023V185.11H163.879V186.725L157.449 195.739H163.892V197.983H154.036ZM165.98 197.983V185.11H174.654V187.354H168.702V190.421H174.208V192.665H168.702V195.739H174.679V197.983H165.98Z" fill="#3C1F1B"/>
<g style="mix-blend-mode:hue">
<rect width="320" height="320" fill="#00BF13"/>
</g>
</g>
<defs>
<clipPath id="clip0_1426_21689">
<rect width="320" height="320" fill="white"/>
</clipPath>
</defs>
</svg>
