<svg width="320" height="320" viewBox="0 0 320 320" fill="none" xmlns="http://www.w3.org/2000/svg">
<g clip-path="url(#clip0_2133_1393)">
<rect width="320" height="320" fill="#EFE2C1"/>
<path d="M79.2329 139.848L126.015 139.848L126.015 178.962L77.4575 178.962C75.0011 178.962 72.5677 178.49 70.2903 177.569L42.3398 152.002C53.0199 144.107 65.9514 139.847 79.2329 139.848Z" fill="#A42424"/>
<path d="M70.2759 167.325C71.292 168.84 71.8346 170.623 71.8346 172.448C71.8346 174.272 71.292 176.055 70.2759 177.57C53.2428 171.941 42.3398 152.003 42.3398 152.003C56.9002 151.016 65.935 160.815 70.2759 167.325Z" fill="#941B1B"/>
<path d="M129.171 132.719L163.275 132.719L163.275 186.314L129.171 186.314C126.099 186.313 123.609 183.823 123.608 180.752L123.608 138.281C123.605 135.212 126.09 132.721 129.159 132.718L129.171 132.719Z" fill="#DBD8DD"/>
<path d="M129.171 141.427L163.275 141.427L163.275 186.312L129.171 186.312C126.099 186.311 123.609 183.821 123.608 180.75L123.608 146.99C123.605 143.921 126.09 141.43 129.159 141.427C129.163 141.427 129.167 141.427 129.171 141.427Z" fill="#EEEFEE"/>
<path d="M163.629 128.326L175.438 128.326L175.438 190.693L163.629 190.693C162.606 190.693 161.626 190.287 160.903 189.565C160.18 188.842 159.774 187.861 159.774 186.839L159.774 132.195C159.773 131.171 160.178 130.188 160.9 129.462C161.623 128.737 162.604 128.328 163.629 128.326Z" fill="#BD9C52"/>
<path d="M163.629 139.848L175.438 139.848L175.438 190.693L163.629 190.693C162.606 190.693 161.626 190.287 160.903 189.565C160.18 188.842 159.774 187.861 159.774 186.839L159.774 143.715C159.773 142.691 160.179 141.709 160.901 140.984C161.624 140.259 162.605 139.85 163.629 139.848Z" fill="#C9A962"/>
<path d="M70.6306 124.064L159.973 124.064C160.486 124.063 160.995 124.163 161.47 124.359C161.945 124.554 162.377 124.842 162.741 125.204C163.105 125.566 163.394 125.997 163.592 126.471C163.79 126.945 163.892 127.454 163.893 127.968L163.893 191.392C163.892 192.431 163.479 193.427 162.745 194.162C162.01 194.897 161.014 195.31 159.975 195.311L70.6306 195.311C53.8675 195.313 39.3712 183.626 35.8168 167.244C35.2702 164.76 34.9963 162.224 35 159.681C35.0016 140.009 50.95 124.063 70.6213 124.065C70.6244 124.064 70.6275 124.064 70.6306 124.064Z" fill="#5B4334"/>
<path d="M70.6312 139.188L159.973 139.188C160.487 139.187 160.996 139.287 161.471 139.483C161.946 139.678 162.378 139.966 162.742 140.328C163.106 140.69 163.395 141.121 163.593 141.595C163.79 142.07 163.893 142.578 163.894 143.092L163.894 191.391C163.893 192.43 163.48 193.426 162.745 194.161C162.011 194.896 161.015 195.309 159.976 195.31L70.6312 195.31C53.8681 195.312 39.3718 183.625 35.8174 167.243C39.3764 150.866 53.8717 139.185 70.6312 139.188Z" fill="#674C3C"/>
<path d="M174.861 124L271.779 124C279.405 123.999 285.587 130.179 285.589 137.805L285.589 181.213C285.591 188.839 279.41 195.022 271.784 195.023L174.861 195.023C174.598 195.025 174.337 194.974 174.094 194.874C173.85 194.775 173.629 194.628 173.442 194.443C173.255 194.257 173.106 194.037 173.004 193.794C172.903 193.552 172.85 193.291 172.849 193.028L172.849 126.013C172.852 125.48 173.066 124.97 173.442 124.594C173.819 124.217 174.329 124.004 174.861 124Z" fill="#5B4334"/>
<path d="M174.861 139.849L271.779 139.849C279.405 139.848 285.588 146.028 285.589 153.654L285.589 181.213C285.591 188.839 279.41 195.022 271.784 195.023L174.861 195.023C174.598 195.025 174.337 194.974 174.094 194.874C173.85 194.775 173.629 194.628 173.442 194.443C173.255 194.257 173.106 194.037 173.005 193.794C172.903 193.552 172.85 193.291 172.849 193.028L172.849 141.862C172.848 141.599 172.898 141.338 172.998 141.094C173.098 140.851 173.244 140.629 173.429 140.442C173.615 140.255 173.835 140.107 174.078 140.005C174.32 139.903 174.581 139.85 174.844 139.849L174.861 139.849Z" fill="#674C3C"/>
<path d="M198.407 165.085V151.994H203.649C204.612 151.994 205.415 152.137 206.058 152.422C206.702 152.708 207.186 153.104 207.509 153.611C207.833 154.114 207.995 154.694 207.995 155.35C207.995 155.861 207.893 156.311 207.688 156.699C207.484 157.082 207.203 157.397 206.845 157.645C206.491 157.888 206.086 158.06 205.63 158.162V158.29C206.129 158.312 206.595 158.452 207.03 158.712C207.469 158.972 207.825 159.336 208.097 159.805C208.37 160.27 208.507 160.824 208.507 161.467C208.507 162.162 208.334 162.782 207.989 163.327C207.648 163.868 207.143 164.297 206.474 164.612C205.805 164.927 204.98 165.085 204 165.085H198.407ZM201.175 162.822H203.431C204.203 162.822 204.765 162.675 205.119 162.381C205.472 162.083 205.649 161.687 205.649 161.192C205.649 160.83 205.562 160.51 205.387 160.233C205.213 159.956 204.963 159.739 204.639 159.581C204.32 159.424 203.938 159.345 203.495 159.345H201.175V162.822ZM201.175 157.472H203.227C203.606 157.472 203.943 157.406 204.237 157.274C204.535 157.138 204.769 156.946 204.94 156.699C205.114 156.451 205.202 156.155 205.202 155.81C205.202 155.337 205.034 154.956 204.697 154.666C204.364 154.376 203.891 154.231 203.278 154.231H201.175V157.472ZM210.307 165.085V151.994H215.472C216.461 151.994 217.305 152.171 218.004 152.525C218.707 152.874 219.241 153.37 219.608 154.014C219.979 154.653 220.164 155.405 220.164 156.27C220.164 157.14 219.977 157.888 219.602 158.514C219.227 159.136 218.683 159.613 217.972 159.946C217.264 160.278 216.408 160.444 215.402 160.444H211.944V158.22H214.955C215.483 158.22 215.922 158.147 216.271 158.003C216.621 157.858 216.881 157.64 217.051 157.351C217.226 157.061 217.313 156.701 217.313 156.27C217.313 155.836 217.226 155.469 217.051 155.171C216.881 154.873 216.619 154.647 216.265 154.493C215.915 154.336 215.474 154.257 214.942 154.257H213.075V165.085H210.307ZM217.377 159.128L220.631 165.085H217.575L214.392 159.128H217.377ZM224.376 165.085H221.41L225.93 151.994H229.496L234.009 165.085H231.043L227.764 154.986H227.662L224.376 165.085ZM224.191 159.939H231.197V162.1H224.191V159.939ZM246.534 151.994V165.085H244.144L238.448 156.846H238.353V165.085H235.585V151.994H238.014L243.664 160.227H243.779V151.994H246.534ZM253.462 165.085H248.821V151.994H253.5C254.817 151.994 255.95 152.256 256.901 152.78C257.851 153.3 258.582 154.048 259.093 155.024C259.609 156 259.867 157.167 259.867 158.527C259.867 159.89 259.609 161.062 259.093 162.042C258.582 163.022 257.847 163.775 256.888 164.299C255.933 164.823 254.791 165.085 253.462 165.085ZM251.589 162.714H253.347C254.165 162.714 254.853 162.569 255.411 162.279C255.974 161.985 256.396 161.531 256.677 160.917C256.963 160.299 257.105 159.503 257.105 158.527C257.105 157.559 256.963 156.769 256.677 156.155C256.396 155.542 255.976 155.09 255.418 154.8C254.86 154.51 254.171 154.366 253.353 154.366H251.589V162.714Z" fill="#DBC189"/>
<g style="mix-blend-mode:hue">
<rect width="320" height="320" fill="#00BF13"/>
</g>
</g>
<defs>
<clipPath id="clip0_2133_1393">
<rect width="320" height="320" fill="white"/>
</clipPath>
</defs>
</svg>
