<svg width="320" height="320" viewBox="0 0 320 320" fill="none" xmlns="http://www.w3.org/2000/svg">
<g clip-path="url(#clip0_2133_1387)">
<rect width="320" height="320" fill="#EFE2C1"/>
<path d="M200.456 237.558L200.184 332.979C200.171 338.884 196.287 344.781 188.532 349.284C172.928 358.352 147.542 358.358 131.836 349.284C123.932 344.727 119.98 338.734 120 332.755L120.272 237.327C120.252 243.313 124.197 249.299 132.108 253.863C147.821 262.937 173.193 262.931 188.804 253.863C196.559 249.353 200.436 243.456 200.456 237.558Z" fill="#CEB57E"/>
<path d="M188.804 253.863C175.159 261.795 154.038 262.788 138.441 256.856V352.366C154.011 358.195 174.969 357.168 188.532 349.284C196.287 344.781 200.164 338.884 200.184 332.98L200.456 237.559C200.443 243.463 196.559 249.354 188.804 253.863Z" fill="#CEB57E"/>
<path d="M188.804 253.863C185.958 255.487 182.946 256.798 179.818 257.775V353.114C182.941 352.094 185.879 350.829 188.532 349.284C196.286 344.781 200.164 338.884 200.184 332.98L200.456 237.559C200.443 243.463 196.559 249.354 188.804 253.863Z" fill="#BD9C52"/>
<path d="M188.37 221.455C196.136 225.94 199.927 231.744 199.959 237.445C199.991 243.146 196.266 248.947 188.553 253.431C180.842 257.91 170.686 260.165 160.492 260.166C150.297 260.167 140.117 257.913 132.358 253.43C124.595 248.945 120.805 243.14 120.771 237.437C120.738 231.736 124.459 225.935 132.169 221.454C139.876 216.976 150.032 214.722 160.228 214.722C170.424 214.722 180.607 216.976 188.37 221.455Z" fill="#D9C290" stroke="#86766A"/>
<path d="M169.554 110.127L169.486 238.423C169.486 239.797 168.588 241.164 166.792 242.205C163.174 244.313 157.29 244.313 153.644 242.205C151.807 241.15 150.896 239.756 150.902 238.375L150.964 110.072C150.964 111.46 151.875 112.848 153.705 113.909C157.351 116.017 163.228 116.011 166.854 113.909C168.649 112.861 169.547 111.494 169.554 110.127Z" fill="#E9E8E6"/>
<path d="M166.854 113.909C163.691 115.746 158.793 115.977 155.174 114.603V242.919C158.779 244.273 163.643 244.035 166.792 242.205C168.588 241.164 169.486 239.797 169.493 238.423L169.554 110.127C169.554 111.494 168.649 112.861 166.854 113.909Z" fill="#D6D4D2"/>
<path d="M166.853 113.909C166.194 114.284 165.496 114.588 164.772 114.814V243.096C165.493 242.858 166.173 242.565 166.792 242.212C168.588 241.164 169.486 239.797 169.493 238.423L169.554 110.127C169.554 111.494 168.649 112.861 166.853 113.909Z" fill="#C4C2C0"/>
<path d="M166.806 106.297C170.452 108.399 170.472 111.807 166.853 113.909C163.234 116.011 157.351 116.017 153.705 113.909C150.065 111.8 150.045 108.399 153.664 106.29C157.283 104.188 163.166 104.188 166.812 106.29L166.806 106.297Z" fill="#F25A5A"/>
<path d="M178.064 104.318C178.064 108.236 177.479 111.95 176.438 115.283C173.629 124.343 167.411 130.642 160.228 130.642C150.365 130.642 142.386 118.854 142.386 104.318C142.386 96.6992 144.583 89.829 148.1 85.0267C151.283 80.6733 155.542 78 160.228 78C170.071 78 178.064 89.7882 178.064 104.318Z" fill="#941B1B"/>
<path d="M178.063 104.318C178.075 108.034 177.527 111.73 176.438 115.283C173.254 119.636 169.003 122.309 164.323 122.309C154.46 122.309 146.481 110.521 146.481 95.9714C146.481 92.0601 147.066 88.3597 148.1 85.0199C148.959 83.833 149.944 82.7428 151.038 81.7684C153.718 79.3672 156.868 78 160.221 78C170.071 78 178.063 89.7882 178.063 104.318Z" fill="#B12D2D"/>
<path d="M178.063 104.318C178.063 106.338 177.914 108.317 177.608 110.202C174.928 112.603 171.778 113.97 168.425 113.97C158.561 113.97 150.583 102.175 150.583 87.6319C150.583 85.6184 150.732 83.6526 151.038 81.7684C153.718 79.3672 156.868 78 160.221 78C170.071 78 178.063 89.7882 178.063 104.318Z" fill="#CE3B3B"/>
</g>
<defs>
<clipPath id="clip0_2133_1387">
<rect width="320" height="320" fill="white"/>
</clipPath>
</defs>
</svg>
