<svg width="320" height="320" viewBox="0 0 320 320" fill="none" xmlns="http://www.w3.org/2000/svg">
<rect width="320" height="320" fill="#F2F2EA"/>
<g clip-path="url(#clip0_1423_5754)">
<path fill-rule="evenodd" clip-rule="evenodd" d="M58.5752 186.296H255.703C257.219 186.301 258.672 186.905 259.744 187.977C260.816 189.049 261.42 190.501 261.425 192.017V198.427C261.42 199.943 260.816 201.395 259.744 202.467C258.672 203.539 257.219 204.144 255.703 204.148H58.5752V186.296Z" stroke="#3C1F1B" stroke-width="6.88" stroke-miterlimit="2.6131"/>
<path fill-rule="evenodd" clip-rule="evenodd" d="M193.385 115.575H147.212C132.287 115.584 125.785 124.912 125.24 137.317V183.664C125.24 195.032 132.945 204.148 143.55 204.148H208.778C222.834 204.148 229.949 194.41 230.292 180.345V149.677C228.747 132.586 209.958 115.575 193.385 115.575Z" fill="#DCCDB3" stroke="#3C1F1B" stroke-width="6.88" stroke-miterlimit="2.6131"/>
<path d="M153.952 139.274L156.686 143.821H156.783L159.529 139.274H162.093L158.268 145.482L162.153 151.689H159.547L156.783 147.173H156.686L153.921 151.689H151.327L155.249 145.482L151.376 139.274H153.952ZM165.737 139.274L168.471 143.821H168.568L171.314 139.274H173.878L170.053 145.482L173.939 151.689H171.332L168.568 147.173H168.471L165.707 151.689H163.113L167.035 145.482L163.161 139.274H165.737ZM177.523 139.274L180.257 143.821H180.354L183.1 139.274H185.664L181.839 145.482L185.725 151.689H183.118L180.354 147.173H180.257L177.493 151.689H174.898L178.82 145.482L174.947 139.274H177.523ZM189.309 139.274L192.043 143.821H192.14L194.886 139.274H197.45L193.625 145.482L197.51 151.689H194.904L192.14 147.173H192.043L189.278 151.689H186.684L190.606 145.482L186.732 139.274H189.309Z" fill="#3C1F1B"/>
</g>
<defs>
<clipPath id="clip0_1423_5754">
<rect width="210" height="95.7233" fill="white" transform="translate(55 112)"/>
</clipPath>
</defs>
</svg>
