<svg width="320" height="320" viewBox="0 0 320 320" fill="none" xmlns="http://www.w3.org/2000/svg">
<rect width="320" height="320" fill="#EFE2C1"/>
<path d="M88.6731 226.776L88.6728 226.776C71.3632 208.034 61.8385 184.293 61.8003 159.989C61.8004 135.899 71.1346 112.374 88.1755 93.8485L88.1761 93.8478C107.122 73.178 132.615 61.8125 159.936 61.8125C187.257 61.8125 212.828 73.1781 231.927 93.9205L231.928 93.9211C249.238 112.663 258.762 136.405 258.8 160.637C258.8 184.726 249.466 208.251 232.387 226.776L232.386 226.777C213.402 247.447 187.946 258.812 160.626 258.812C133.305 258.812 107.734 247.447 88.6731 226.776Z" fill="#5B4334" stroke="#CEB57E"/>
<path d="M101.035 214.466L101.035 214.466C86.7115 199.052 78.8319 179.529 78.8003 159.546C78.8004 139.739 86.5223 120.393 100.623 105.158L100.623 105.157C116.3 88.1589 137.393 78.8125 159.999 78.8125C182.605 78.8125 203.762 88.1589 219.566 105.217L219.566 105.218C233.889 120.632 241.769 140.155 241.8 160.08C241.8 179.886 234.078 199.231 219.946 214.466L219.946 214.467C204.238 231.466 183.175 240.812 160.57 240.812C137.964 240.812 116.806 231.466 101.035 214.466Z" fill="#CEB57E" stroke="#86766A"/>
<path d="M121.17 170V149.636H125.476V166.45H134.206V170H121.17ZM154.977 159.818C154.977 162.039 154.556 163.928 153.714 165.486C152.879 167.044 151.739 168.233 150.294 169.055C148.855 169.871 147.238 170.278 145.442 170.278C143.632 170.278 142.008 169.867 140.569 169.045C139.131 168.223 137.994 167.034 137.159 165.476C136.324 163.918 135.906 162.032 135.906 159.818C135.906 157.598 136.324 155.708 137.159 154.151C137.994 152.593 139.131 151.406 140.569 150.591C142.008 149.769 143.632 149.358 145.442 149.358C147.238 149.358 148.855 149.769 150.294 150.591C151.739 151.406 152.879 152.593 153.714 154.151C154.556 155.708 154.977 157.598 154.977 159.818ZM150.612 159.818C150.612 158.38 150.397 157.167 149.966 156.179C149.541 155.191 148.942 154.442 148.166 153.932C147.39 153.421 146.482 153.166 145.442 153.166C144.401 153.166 143.493 153.421 142.717 153.932C141.942 154.442 141.338 155.191 140.907 156.179C140.483 157.167 140.271 158.38 140.271 159.818C140.271 161.257 140.483 162.47 140.907 163.457C141.338 164.445 141.942 165.194 142.717 165.705C143.493 166.215 144.401 166.47 145.442 166.47C146.482 166.47 147.39 166.215 148.166 165.705C148.942 165.194 149.541 164.445 149.966 163.457C150.397 162.47 150.612 161.257 150.612 159.818ZM171.669 156.219C171.53 155.735 171.334 155.307 171.083 154.936C170.831 154.558 170.522 154.24 170.158 153.982C169.8 153.716 169.389 153.514 168.925 153.375C168.468 153.236 167.96 153.166 167.404 153.166C166.363 153.166 165.448 153.425 164.659 153.942C163.877 154.459 163.267 155.211 162.83 156.199C162.392 157.18 162.173 158.38 162.173 159.798C162.173 161.217 162.389 162.423 162.82 163.418C163.251 164.412 163.86 165.171 164.649 165.695C165.438 166.212 166.369 166.47 167.443 166.47C168.418 166.47 169.25 166.298 169.939 165.953C170.635 165.602 171.165 165.108 171.53 164.472C171.901 163.835 172.087 163.083 172.087 162.214L172.962 162.344H167.712V159.102H176.233V161.668C176.233 163.457 175.855 164.995 175.1 166.281C174.344 167.561 173.303 168.548 171.977 169.244C170.652 169.934 169.134 170.278 167.423 170.278C165.514 170.278 163.837 169.857 162.392 169.016C160.947 168.167 159.82 166.964 159.012 165.406C158.209 163.842 157.808 161.986 157.808 159.838C157.808 158.187 158.047 156.716 158.524 155.423C159.008 154.124 159.684 153.024 160.553 152.122C161.421 151.221 162.432 150.535 163.585 150.064C164.739 149.593 165.988 149.358 167.334 149.358C168.487 149.358 169.561 149.527 170.556 149.865C171.55 150.196 172.432 150.667 173.2 151.277C173.976 151.887 174.609 152.613 175.1 153.455C175.59 154.29 175.905 155.211 176.044 156.219H171.669ZM198.18 159.818C198.18 162.039 197.759 163.928 196.917 165.486C196.082 167.044 194.942 168.233 193.497 169.055C192.059 169.871 190.441 170.278 188.645 170.278C186.835 170.278 185.211 169.867 183.773 169.045C182.334 168.223 181.197 167.034 180.362 165.476C179.527 163.918 179.109 162.032 179.109 159.818C179.109 157.598 179.527 155.708 180.362 154.151C181.197 152.593 182.334 151.406 183.773 150.591C185.211 149.769 186.835 149.358 188.645 149.358C190.441 149.358 192.059 149.769 193.497 150.591C194.942 151.406 196.082 152.593 196.917 154.151C197.759 155.708 198.18 157.598 198.18 159.818ZM193.815 159.818C193.815 158.38 193.6 157.167 193.169 156.179C192.745 155.191 192.145 154.442 191.369 153.932C190.594 153.421 189.685 153.166 188.645 153.166C187.604 153.166 186.696 153.421 185.92 153.932C185.145 154.442 184.541 155.191 184.111 156.179C183.686 157.167 183.474 158.38 183.474 159.818C183.474 161.257 183.686 162.47 184.111 163.457C184.541 164.445 185.145 165.194 185.92 165.705C186.696 166.215 187.604 166.47 188.645 166.47C189.685 166.47 190.594 166.215 191.369 165.705C192.145 165.194 192.745 164.445 193.169 163.457C193.6 162.47 193.815 161.257 193.815 159.818Z" fill="#5E4435"/>
</svg>
