<svg width="320" height="320" viewBox="0 0 320 320" fill="none" xmlns="http://www.w3.org/2000/svg">
<g clip-path="url(#clip0_1426_21647)">
<rect width="320" height="320" fill="#DCFFE0"/>
<g clip-path="url(#clip1_1426_21647)">
<path fill-rule="evenodd" clip-rule="evenodd" d="M175.394 104.579C175.261 98.8982 175.711 93.2472 176.102 87.5859C176.373 83.794 177.081 80.0459 178.211 76.4161C179.549 72.2342 181.822 68.4119 184.857 65.2387C186.28 63.62 187.8 62.0896 189.409 60.656C192.376 58.1532 195.906 56.9696 199.612 56.3198C203.565 55.5533 207.589 55.2145 211.615 55.3092C216.21 55.4042 220.778 56.0421 225.223 57.2096C229.34 58.404 232.95 60.9212 235.493 64.3722C238.634 68.4484 240.715 73.0711 242.438 77.9208C245.01 85.157 246.469 92.649 247.731 100.16C248.794 106.489 250.387 112.663 251.996 118.848C253.244 123.642 253.83 128.549 254.572 133.43C255.452 139.232 255.802 145.078 256.136 150.93C256.52 157.668 256.867 164.406 257.131 171.15C257.34 176.47 257.584 181.782 257.417 187.107C257.325 190.086 256.902 193.037 256.671 196.005C256.382 200.748 255.747 205.463 254.774 210.114C254.026 213.418 253.608 216.787 252.675 220.055C251.5 224.17 249.42 227.877 247.62 231.719C244.76 237.822 240.346 242.747 235.829 247.593C229.047 254.867 220.488 258.929 210.936 261.173C204.629 262.704 197.994 262.123 192.049 259.521C185.772 256.823 181.195 252.156 178.094 246.075C174.288 238.538 171.89 230.369 171.021 221.97C170.359 215.983 169.719 210.006 169.926 203.965C170.149 198.015 170.674 192.08 171.498 186.184C172.447 179.19 173.666 172.233 174.318 165.196C174.736 160.684 175.271 156.177 175.166 151.644C174.941 141.944 175.026 132.243 175.086 122.542C175.124 116.554 175.505 110.571 175.394 104.579Z" fill="#3C1F1B"/>
<path fill-rule="evenodd" clip-rule="evenodd" d="M63.101 194.105C63.2071 187.203 63.474 180.84 64.1526 174.506C64.8365 168.113 65.4163 161.71 65.9814 155.307C66.5136 149.281 66.966 143.247 67.5849 137.23C68.0698 132.509 68.7212 127.802 69.3624 123.098C69.8667 119.394 70.1619 115.668 70.5927 111.958C71.0694 107.871 71.6705 103.798 72.1909 99.7164C72.535 97.0157 72.7734 94.3028 72.9224 91.5823C73.1923 86.6722 73.6602 81.7842 75.1895 77.0767C76.5442 73.0105 78.5886 69.2079 81.2332 65.8353C82.7064 63.9169 84.1175 61.9151 86.3455 60.8244C90.5149 58.7842 94.5808 56.4101 99.2929 55.8008C105.767 54.9486 112.312 54.7779 118.821 55.2915C122.047 55.57 125.197 56.4246 128.121 57.8147C131.337 59.3092 133.432 62.01 135.287 64.9527C139.694 71.944 141.532 79.7738 142.887 87.7711C143.63 92.3394 143.961 96.9652 143.877 101.593C143.792 108.862 144.476 116.083 145.132 123.31C145.505 127.41 145.743 131.522 146.125 135.621C146.474 139.372 146.982 143.108 147.337 146.859C147.801 151.746 148.4 156.616 148.99 161.488C149.633 166.799 150.344 172.103 150.974 177.416C151.302 180.182 151.555 182.958 151.779 185.735C152.214 191.103 152.741 196.47 152.599 201.865C152.438 207.916 151.942 213.945 151.359 219.969C150.919 224.514 150.431 229.061 149.163 233.45C147.363 239.685 145.561 245.947 142.299 251.628C140.827 254.16 138.794 256.32 136.355 257.942C133.735 259.715 131.195 261.6 128.339 263.024C125.046 264.701 121.32 265.335 117.658 264.842C114.612 264.455 111.545 264.245 108.523 263.66C106.09 263.235 103.71 262.545 101.427 261.602C95.5852 259.066 90.4916 255.418 85.6019 251.386C79.8651 246.653 75.5533 240.782 71.5793 234.614C69.3969 231.226 68.2448 227.388 67.032 223.579C65.352 218.162 64.2114 212.592 63.6267 206.951C63.0799 202.692 62.9041 198.394 63.101 194.105Z" fill="#3C1F1B"/>
<path fill-rule="evenodd" clip-rule="evenodd" d="M181.704 120.739C181.741 118.052 182.133 115.398 182.419 112.734C182.951 107.778 183.818 102.871 184.594 97.9536C185.791 90.3789 186.811 82.7474 189.544 75.5197C191.131 71.3241 193.699 67.8902 197.871 65.8408C200.137 64.7275 202.279 63.3866 204.815 62.8718C207.578 62.3555 210.399 62.2212 213.199 62.4726C217.282 62.7638 221.048 64.1309 224.729 65.7226C227.556 66.9446 229.774 69.084 231.828 71.3336C233.423 73.0476 234.787 74.9619 235.888 77.0284C237.387 79.9191 238.562 82.9666 239.392 86.1153C240.33 89.6251 241.258 93.1345 241.918 96.7113C242.061 97.491 241.871 98.3026 242.202 99.0529C241.352 99.9722 241.123 101.155 240.73 102.293C240 104.413 239.102 106.47 238.398 108.609C236.596 114.085 234.823 119.57 233.08 125.065C232.11 128.113 231.547 131.287 230.475 134.304C228.829 138.944 226.606 143.304 223.042 146.775C220.485 149.266 217.841 151.683 214.611 153.369C212.269 154.525 209.642 154.979 207.048 154.674C204.159 154.448 201.382 153.619 198.543 153.136C195.896 152.686 194.302 150.898 192.87 148.868C192.14 147.83 191.376 146.818 190.579 145.832C189.48 144.439 188.531 142.934 187.748 141.342C185.66 137.209 183.609 133.072 182.294 128.602C181.806 127.198 181.573 125.719 181.608 124.233C181.58 123.067 181.612 121.901 181.704 120.739Z" fill="#DCCDB3"/>
<path fill-rule="evenodd" clip-rule="evenodd" d="M181.704 120.739C181.388 124.238 182.186 127.512 183.332 130.816C184.91 135.164 186.879 139.361 189.215 143.355C190.8 146.156 193.034 148.607 195.099 151.115C196.225 152.481 198.008 152.712 199.642 153.042C202.097 153.621 204.579 154.072 207.08 154.394C210.127 154.746 213.201 154.037 215.787 152.388C217.856 150.995 219.802 149.428 221.606 147.705C226.915 142.9 229.718 136.725 231.425 129.904C232.145 126.761 233.08 123.671 234.223 120.656C234.917 118.932 235.339 117.099 235.867 115.311C236.68 112.555 237.86 109.917 238.55 107.123C239.125 104.793 240.606 102.791 240.932 100.368C241.022 99.6977 241.597 99.3181 242.202 99.0529C242.45 102.259 242.76 105.462 242.929 108.673C243.115 112.236 243.748 115.75 243.949 119.313C244.143 122.773 244.58 126.218 244.85 129.675C245.216 134.149 245.109 138.65 244.531 143.102C244.33 145.016 244.005 146.915 243.556 148.786C242.46 152.828 240.523 156.593 237.872 159.834C234.528 163.987 230.116 166.737 225.706 169.523C221.97 171.933 217.781 173.555 213.396 174.289C209.987 174.859 206.5 174.761 203.128 174.003C199.172 173.1 195.399 171.779 192.171 169.241C190.509 167.96 189.125 166.355 188.103 164.523C187.075 162.74 186.152 160.898 185.338 159.008C184.641 157.012 184.127 154.957 183.803 152.867C182.972 148.878 182.873 144.79 182.13 140.789C182.011 139.946 181.943 139.096 181.926 138.244C181.791 136.035 181.853 133.814 181.687 131.609C181.442 128.349 181.552 125.09 181.525 121.83C181.522 121.462 181.407 121.062 181.704 120.739Z" fill="#8B735A"/>
<path fill-rule="evenodd" clip-rule="evenodd" d="M183.99 231.277C187.273 230.377 190.494 229.211 193.931 228.985C197.744 228.733 201.482 227.939 205.254 227.397C206.557 227.169 207.872 227.014 209.192 226.931C212.127 226.833 215.049 226.308 217.988 226.542C221.213 226.797 224.444 226.558 227.662 226.749C230.614 226.924 233.55 227.354 236.495 227.671C236.772 228.054 236.492 228.339 236.298 228.606C234.689 230.961 232.934 233.214 231.045 235.351C230.082 236.385 229.57 237.71 228.73 238.826C226.294 242.236 223.339 245.243 219.972 247.738C218.657 248.57 217.23 249.208 215.734 249.633C214.591 250.012 213.488 250.504 212.443 251.102C211.266 251.811 209.91 252.165 208.537 252.12C207.205 252.069 205.871 252.208 204.578 252.534C202.279 253.12 199.988 252.905 197.689 252.572C195.727 252.288 194.345 251.088 193.209 249.607C191.501 247.204 189.958 244.687 188.59 242.074C186.906 239.021 185.423 235.861 184.15 232.614C183.976 232.191 183.656 231.767 183.99 231.277Z" fill="#DCCDB3"/>
<path fill-rule="evenodd" clip-rule="evenodd" d="M183.99 231.277C185.06 234.286 186.345 237.215 187.834 240.04C189.148 242.562 190.652 244.985 192.078 247.448C192.952 249.029 194.148 250.41 195.589 251.5C196.431 252.01 197.381 252.314 198.363 252.388C200.964 252.769 203.616 252.618 206.157 251.942C207.467 251.634 208.805 252.011 210.122 251.684C210.712 251.58 211.283 251.384 211.811 251.102C213.681 249.907 215.809 249.365 217.834 248.56C219.606 247.782 221.213 246.672 222.567 245.289C224.976 243.136 227.105 240.688 228.902 238.003C231.11 234.498 234.05 231.552 236.324 228.103C236.395 227.965 236.452 227.821 236.495 227.671C237.669 227.902 238.843 228.147 240.021 228.356C240.481 228.438 240.635 228.566 240.53 229.096C240.179 230.866 239.677 232.595 239.175 234.324C238.629 236.205 238.043 238.078 237.371 239.917C236.779 241.357 235.932 242.677 234.871 243.816C231.261 248.096 226.962 251.743 222.151 254.608C217.978 257.087 213.38 258.77 208.592 259.57C206.405 259.918 204.174 259.533 201.993 259.166C200.707 258.95 199.41 259.016 198.125 258.917C195.542 258.766 193.089 257.733 191.177 255.99C188.445 253.582 185.972 250.895 183.801 247.971C181.977 245.409 181.311 242.461 180.599 239.519C180.137 237.619 179.772 235.697 179.504 233.761C179.441 233.297 179.493 233.073 179.945 232.9C181.302 232.38 182.643 231.82 183.99 231.277Z" fill="#8B735A"/>
<path fill-rule="evenodd" clip-rule="evenodd" d="M74.7827 118.834C74.8897 115.3 75.2351 111.783 75.5011 108.259C75.6603 106.15 75.7171 104.035 76.0746 101.947C76.4532 99.7397 76.8747 97.5396 77.2602 95.333C77.9273 91.5051 78.5361 87.6651 79.9022 83.999C81.8597 78.7475 83.8178 73.5029 87.2313 68.9547C88.1211 67.7711 88.7501 66.3928 89.7916 65.3149C92.0337 62.9966 94.9755 61.9617 97.9359 61.03C102.043 59.8272 106.333 59.3736 110.601 59.6907C113.737 59.7875 116.828 60.4727 119.711 61.7105C122.017 62.8504 124.07 64.4442 125.745 66.3964C128.421 69.2364 130.585 72.518 132.142 76.096C133.438 79.1914 134.488 82.3842 135.283 85.6445C136.629 91.0415 137.465 96.5307 138.338 102.013C138.948 105.843 139.566 109.671 140.192 113.499C140.308 114.219 140.266 114.949 140.323 115.674C140.627 118.404 140.767 121.15 140.741 123.897C140.558 128.039 140.262 132.183 140.471 136.318C140.708 141.029 140.94 145.741 140.768 150.45C140.585 155.485 140.055 160.508 137.646 165.064C135.683 168.781 132.669 171.839 128.981 173.857C125.267 175.916 121.216 177.301 117.019 177.949C113.897 178.436 110.722 178.472 107.59 178.053C103.409 177.554 99.3494 176.321 95.5963 174.413C90.9116 172.052 86.8862 168.565 83.8811 164.265C81.8677 161.507 80.0936 158.582 78.5781 155.522C76.9595 151.841 75.8742 147.949 75.3549 143.963C74.7553 139.738 74.502 135.471 74.5975 131.205C75.1418 131.277 75.0246 131.733 75.0906 132.073C75.3306 133.544 75.4381 135.032 75.4117 136.522C75.4498 139.33 76.2187 141.955 76.9361 144.618C77.9461 148.354 79.2896 151.993 80.9502 155.489C82.9392 159.876 86.0538 163.659 89.9777 166.452C91.8252 167.739 93.6067 169.117 95.4305 170.435C98.7918 172.91 102.728 174.49 106.868 175.027C110.833 175.5 114.826 175.691 118.819 175.597C120.915 175.503 122.972 174.99 124.868 174.09C127.514 172.938 129.8 171.354 131.244 168.798C132.339 166.865 133.259 164.838 133.992 162.741C135.651 157.84 136.631 152.735 136.904 147.569C137.003 146.656 136.976 145.734 136.822 144.829C136.726 144.382 136.569 143.94 136.067 143.827C135.588 143.72 135.317 144.095 135.062 144.415C134.648 144.936 134.311 145.516 133.952 146.074C133.026 147.553 131.91 148.906 130.634 150.097C130.292 150.428 129.995 150.803 129.749 151.212C128 153.736 125.962 156.046 123.677 158.097C121.946 159.758 119.735 160.274 117.397 160.439C112.649 160.773 108.382 159.374 104.386 156.947C101.109 154.955 97.8968 152.857 94.6872 150.757C92.7276 149.411 91.0059 147.748 89.5926 145.836C87.1357 142.761 85.094 139.376 83.5199 135.768C83.4381 135.562 83.3443 135.36 83.2389 135.165C81.4463 132.027 80.4301 128.592 79.3897 125.163C79.0147 123.783 78.4215 122.471 77.6325 121.278C76.6886 119.933 76.3451 119.836 74.8766 120.557C74.8326 120.575 74.7854 120.583 74.738 120.582C74.6905 120.58 74.6439 120.569 74.6011 120.549C74.6011 120.36 74.6011 120.17 74.6021 119.981C74.8359 119.627 74.5538 119.19 74.7827 118.834Z" fill="#DCCDB3"/>
<path fill-rule="evenodd" clip-rule="evenodd" d="M74.601 120.549C75.9068 119.226 76.6383 119.316 77.7263 120.875C79.4313 123.321 80.0371 126.191 80.872 128.97C81.0692 129.735 81.3276 130.482 81.6445 131.206C83.0776 134.166 84.469 137.149 85.9954 140.061C87.2007 142.361 88.9185 144.328 90.4534 146.414C93.1903 150.135 97.3504 151.964 100.997 154.472C103.199 156.016 105.541 157.351 107.992 158.459C111.952 160.309 116.443 160.684 120.655 159.516C122.878 158.897 124.276 157.173 125.768 155.58C126.584 154.709 127.177 153.629 128.224 152.97C128.405 152.841 128.549 152.668 128.642 152.466C129.408 151.006 130.435 149.697 131.67 148.605C132.743 147.601 133.368 146.253 134.238 145.092C134.54 144.69 134.775 144.228 135.113 143.858C135.817 143.088 136.683 143.252 136.984 144.266C137.236 145.202 137.327 146.174 137.253 147.14C137.145 149.155 136.932 151.163 136.615 153.156C136.056 157.582 134.832 161.898 132.984 165.958C132.216 167.551 131.619 169.247 130.355 170.544C129.207 171.721 128.126 172.885 126.492 173.583C124.781 174.315 123.154 175.225 121.308 175.589C118.591 176.03 115.826 176.091 113.093 175.77C111.676 175.656 110.258 175.685 108.837 175.576C105.038 175.37 101.34 174.276 98.0393 172.384C93.7996 169.932 89.8518 167.008 86.2719 163.666C83.5752 160.978 81.452 157.771 80.0308 154.239C78.261 150.046 76.8133 145.724 75.7002 141.31C75.1057 138.993 75.1306 136.622 74.9881 134.267C74.9633 133.235 74.8323 132.209 74.5974 131.205C74.2615 128.187 74.4624 125.157 74.4027 122.135C74.3803 121.599 74.4474 121.063 74.601 120.549Z" fill="#8B735A"/>
<path fill-rule="evenodd" clip-rule="evenodd" d="M113.031 224.995C115.841 225.002 118.51 225.748 121.18 226.512C126.063 227.911 130.957 229.268 135.835 230.682C136.855 230.929 137.788 231.453 138.531 232.195C139.273 232.937 139.797 233.87 140.044 234.89C140.235 235.355 140.237 235.875 140.05 236.341C139.863 236.807 139.5 237.181 139.041 237.383C137.17 238.445 135.277 239.477 133.397 240.519C130.942 241.893 128.693 243.606 126.716 245.608C123.633 248.677 120.053 251.249 115.628 251.837C110.21 252.622 104.687 251.506 99.9993 248.679C97.0641 246.857 94.3234 244.74 91.8204 242.359C89.6096 240.366 87.5308 238.231 85.5971 235.967C84.7397 234.95 83.9573 233.871 83.2561 232.741C82.9068 232.167 82.7794 231.485 82.8979 230.823C83.1026 229.88 83.5666 229.011 84.2377 228.317C84.9089 227.622 85.7606 227.128 86.697 226.892C87.7843 226.668 88.893 226.566 90.0028 226.588C92.5713 226.707 95.1263 226.121 97.678 226.292C101.942 226.581 106.034 225.393 110.221 225.069C111.149 224.911 112.096 224.886 113.031 224.995Z" fill="#DCCDB3"/>
<path fill-rule="evenodd" clip-rule="evenodd" d="M113.031 224.995C110.837 224.923 108.752 225.668 106.59 225.865C104.396 226.065 102.203 226.735 100.034 226.641C96.2774 226.48 92.5631 227.016 88.8179 226.954C87.3438 226.931 85.7635 227.019 84.578 228.386C82.5368 230.741 82.8868 231.839 84.3544 233.903C85.7561 235.815 87.3155 237.605 89.0162 239.256C91.0909 241.328 93.2713 243.304 95.5302 245.19C98.6536 247.729 102.205 249.691 106.017 250.984C107 251.336 108.032 251.533 109.075 251.566C111.631 251.637 114.229 251.977 116.74 251.348C119.505 250.654 121.839 249.041 124.178 247.458C126.038 246.2 127.249 244.288 129.022 242.95C131.647 241.081 134.428 239.441 137.333 238.048C138.206 237.599 138.983 236.995 139.829 236.499C140.343 236.198 139.956 235.437 140.044 234.89C140.294 235.372 140.353 235.93 140.209 236.453C139.927 239.635 139.127 242.75 137.84 245.673C136.385 249.239 133.915 252.299 130.737 254.475C129.011 255.609 127.094 256.422 125.079 256.875C123.327 257.408 121.547 257.85 119.749 258.198C118.746 258.343 117.738 258.333 116.734 258.443C111.244 258.967 105.706 258.259 100.525 256.37C99.9587 256.163 99.4129 255.905 98.8945 255.598C95.2984 253.549 91.4724 251.908 88.1442 249.385C84.9075 246.944 82.1179 243.962 79.8994 240.569C79.1715 239.457 78.3369 238.412 77.6629 237.271C76.8807 236.072 76.4409 234.683 76.3912 233.252C76.3415 231.822 76.6837 230.405 77.3809 229.155C77.9683 228.044 79.035 227.426 80.081 226.833C82.6017 225.354 85.3847 224.377 88.2766 223.955C90.3597 223.762 92.4555 223.748 94.541 223.913C96.2374 223.984 97.923 224.354 99.6178 224.4C102.115 224.466 104.608 224.761 107.109 224.612C108.918 224.505 110.706 224.899 112.511 224.812C112.606 224.802 112.702 224.813 112.792 224.845C112.882 224.876 112.964 224.928 113.031 224.995Z" fill="#8B735A"/>
<path fill-rule="evenodd" clip-rule="evenodd" d="M74.7826 118.834C74.7436 119.22 74.9195 119.639 74.6021 119.981C74.6401 119.596 74.4727 119.177 74.7826 118.834Z" fill="#8B735A"/>
<path fill-rule="evenodd" clip-rule="evenodd" d="M110.764 85.8474C110.764 86.3547 110.728 86.8636 110.772 87.3663C110.793 87.8247 110.983 88.259 111.306 88.5857C111.628 88.9124 112.06 89.1084 112.518 89.1359C112.976 89.1634 113.428 89.0205 113.787 88.7347C114.146 88.4489 114.387 88.0405 114.463 87.5879C114.626 86.9427 114.478 86.6042 113.746 86.6768C113.493 86.6995 113.239 86.6938 112.988 86.66C112.574 86.6069 112.651 86.2664 112.649 85.9945C112.646 85.7191 112.596 85.3914 113.023 85.3625C113.148 85.3423 113.276 85.3401 113.402 85.356C114.217 85.5451 115.364 84.8274 115.822 85.7266C116.47 86.9959 115.723 89.0926 114.628 89.8549C114.136 90.2386 113.545 90.4725 112.924 90.5288C112.303 90.5851 111.679 90.4614 111.126 90.1724C110.593 89.923 110.142 89.5253 109.828 89.0268C109.514 88.5282 109.35 87.9499 109.355 87.3607C109.298 86.3209 109.303 85.2786 109.37 84.2393C109.396 83.5423 109.644 82.8716 110.076 82.3245C110.509 81.7773 111.105 81.382 111.777 81.1958C112.504 81.0009 113.276 81.0662 113.959 81.3803C114.643 81.6944 115.195 82.2375 115.521 82.9159C115.652 83.1782 115.99 83.5653 115.681 83.7386C115.471 83.8494 115.235 83.9018 114.998 83.8903C114.761 83.8788 114.532 83.8039 114.333 83.6733C114.309 83.6533 114.289 83.6279 114.276 83.5991C114.089 83.1709 113.742 82.833 113.309 82.6579C112.876 82.4828 112.392 82.4846 111.96 82.6627C110.811 83.0751 110.723 84.0643 110.743 85.088C110.747 85.3412 110.743 85.5943 110.743 85.8474H110.764Z" fill="#3C1F1B"/>
<path fill-rule="evenodd" clip-rule="evenodd" d="M107.887 85.8103C107.825 86.9289 108.106 88.0912 107.357 89.1198C106.952 89.6711 106.392 90.0889 105.748 90.3199C105.104 90.5508 104.405 90.5843 103.742 90.416C103.08 90.241 102.492 89.8564 102.066 89.3196C101.64 88.7828 101.4 88.1227 101.38 87.4378C101.316 86.3333 101.321 85.2259 101.395 84.1221C101.466 83.3125 101.837 82.5587 102.435 82.0086C103.033 81.4585 103.815 81.1519 104.628 81.1488C105.441 81.1458 106.225 81.4466 106.827 81.9922C107.429 82.5378 107.806 83.2888 107.883 84.0978C107.912 84.6674 107.887 85.2387 107.887 85.8103Z" fill="#3C1F1B"/>
<path fill-rule="evenodd" clip-rule="evenodd" d="M123.705 85.7942C123.705 86.3649 123.721 86.9365 123.702 87.5058C123.678 88.3226 123.332 89.0969 122.74 89.6596C122.147 90.2223 121.356 90.5277 120.539 90.5093C120.127 90.5334 119.715 90.4761 119.325 90.3405C118.936 90.2049 118.576 89.9938 118.269 89.7192C117.961 89.4446 117.71 89.1119 117.531 88.7403C117.352 88.3686 117.248 87.9653 117.225 87.5534C117.179 86.4141 117.18 85.2712 117.222 84.1313C117.287 82.3219 118.663 81.1242 120.581 81.1505C120.985 81.1432 121.387 81.2159 121.763 81.3643C122.139 81.5128 122.482 81.7341 122.772 82.0155C123.062 82.297 123.294 82.633 123.454 83.0042C123.614 83.3755 123.698 83.7747 123.704 84.1789C123.721 84.7167 123.707 85.2555 123.705 85.7942Z" fill="#3C1F1B"/>
<path fill-rule="evenodd" clip-rule="evenodd" d="M94.3677 85.8074C94.3677 84.5082 94.3828 83.2091 94.3605 81.9105C94.352 81.4052 94.4849 81.1606 95.049 81.1606C95.6104 81.1597 95.7424 81.3987 95.7388 81.9059C95.7211 83.9974 95.7572 86.0894 95.7174 88.1798C95.7033 88.9018 95.8718 89.2164 96.661 89.1605C97.6066 89.0936 98.5614 89.1569 99.5115 89.1402C99.9827 89.132 100.293 89.194 100.292 89.7945C100.29 90.3435 100.085 90.5037 99.5627 90.4952C98.0738 90.4712 96.5839 90.4637 95.0946 90.4981C94.4833 90.5119 94.3483 90.2506 94.3595 89.7052C94.3854 88.4058 94.3677 87.1066 94.3677 85.8074Z" fill="#3C1F1B"/>
<path fill-rule="evenodd" clip-rule="evenodd" d="M102.782 85.7322C102.758 85.2282 102.761 84.7233 102.791 84.2196C102.822 83.7568 103.028 83.3232 103.368 83.0076C103.708 82.692 104.155 82.5183 104.619 82.5222C105.064 82.5148 105.495 82.6755 105.827 82.972C106.158 83.2686 106.366 83.6793 106.408 84.1222C106.617 85.2717 106.613 86.4499 106.397 87.5981C106.338 88.0055 106.142 88.3805 105.84 88.6606C105.539 88.9406 105.15 89.1086 104.739 89.1366C104.311 89.1476 103.892 89.0121 103.551 88.7525C103.21 88.4928 102.969 88.1246 102.866 87.7087C102.75 87.0565 102.722 86.3918 102.782 85.7322Z" fill="#DCCDB3"/>
<path fill-rule="evenodd" clip-rule="evenodd" d="M122.329 85.8241C122.389 86.4837 122.35 87.1486 122.212 87.7963C122.099 88.1945 121.854 88.5428 121.518 88.7847C121.183 89.0266 120.775 89.148 120.361 89.129C119.962 89.1203 119.578 88.9724 119.277 88.7108C118.975 88.4493 118.774 88.0905 118.709 87.6965C118.456 86.4904 118.451 85.2455 118.694 84.0374C118.755 83.5953 118.982 83.193 119.329 82.9122C119.676 82.6313 120.116 82.4928 120.561 82.5248C121.024 82.5525 121.459 82.7503 121.784 83.0801C122.109 83.4099 122.301 83.8483 122.322 84.3109C122.363 84.8115 122.329 85.3198 122.329 85.8241Z" fill="#DCCDB3"/>
</g>
<g style="mix-blend-mode:hue">
<rect width="320" height="320" fill="#00BF13"/>
</g>
</g>
<defs>
<clipPath id="clip0_1426_21647">
<rect width="320" height="320" fill="white"/>
</clipPath>
<clipPath id="clip1_1426_21647">
<rect width="194.473" height="210" fill="white" transform="translate(63 55)"/>
</clipPath>
</defs>
</svg>
