<svg width="320" height="320" viewBox="0 0 320 320" fill="none" xmlns="http://www.w3.org/2000/svg">
<g clip-path="url(#clip0_1426_22748)">
<rect width="320" height="320" fill="#DCFFE0"/>
<g clip-path="url(#clip1_1426_22748)">
<path d="M264.276 125.367H55.7236V226.636H264.276V125.367Z" fill="#8B735A"/>
<path d="M264.045 93.9545H55.9541V125.455H264.045V93.9545Z" fill="#3C1F1B" stroke="#231F20" stroke-width="0.5" stroke-miterlimit="2.6131"/>
<path d="M67.5221 165.175H155.062C155.772 165.175 156.453 165.456 156.955 165.955C157.457 166.455 157.739 167.133 157.739 167.839V213.978C157.739 214.685 157.457 215.363 156.955 215.862C156.453 216.362 155.772 216.643 155.062 216.643H67.5218C66.8118 216.643 66.1309 216.362 65.6288 215.862C65.1268 215.363 64.8447 214.685 64.8447 213.979V167.839C64.8447 167.133 65.1268 166.455 65.6289 165.956C66.131 165.456 66.812 165.175 67.5221 165.175Z" fill="#E3D6CB"/>
<path d="M70.5611 178.145H69.9305L71.7544 173.178H72.3753L74.1992 178.145H73.5686L72.0843 173.964H72.0455L70.5611 178.145ZM70.7939 176.205H73.3358V176.738H70.7939V176.205ZM76.3985 173.178V178.145H75.797V173.808H75.7679L74.5552 174.614V174.003L75.797 173.178H76.3985ZM79.5734 173.178V178.145H78.9719V173.808H78.9428L77.7301 174.614V174.003L78.9719 173.178H79.5734ZM84.6692 173.178V178.145H84.0677V173.808H84.0386L82.8259 174.614V174.003L84.0677 173.178H84.6692ZM87.8441 173.178V178.145H87.2426V173.808H87.2135L86.0008 174.614V174.003L87.2426 173.178H87.8441ZM89.5637 178.145H88.9331L90.757 173.178H91.3779L93.2018 178.145H92.5712L91.0869 173.964H91.0481L89.5637 178.145ZM89.7965 176.205H92.3384V176.738H89.7965V176.205ZM94.1793 178.145H93.5487L95.3726 173.178H95.9935L97.8174 178.145H97.1868L95.7025 173.964H95.6637L94.1793 178.145ZM94.4121 176.205H96.954V176.738H94.4121V176.205ZM98.7949 178.145H98.1643L99.9882 173.178H100.609L102.433 178.145H101.802L100.318 173.964H100.279L98.7949 178.145ZM99.0277 176.205H101.57V176.738H99.0277V176.205ZM104.632 173.178V178.145H104.031V173.808H104.002L102.789 174.614V174.003L104.031 173.178H104.632Z" fill="#130706"/>
<path d="M73.1022 191.192L73.7492 191.355C73.6136 191.886 73.369 192.292 73.0155 192.572C72.6642 192.85 72.234 192.989 71.7249 192.989C71.1979 192.989 70.7688 192.883 70.4376 192.669C70.1085 192.453 69.8573 192.142 69.6839 191.735C69.5127 191.328 69.4271 190.892 69.4271 190.425C69.4271 189.916 69.5238 189.472 69.7172 189.094C69.9129 188.714 70.1897 188.426 70.5476 188.23C70.9078 188.032 71.3036 187.933 71.7349 187.933C72.224 187.933 72.6353 188.058 72.9688 188.307C73.3023 188.556 73.5346 188.906 73.6658 189.357L73.0288 189.508C72.9154 189.152 72.7509 188.893 72.5353 188.731C72.3196 188.568 72.0484 188.487 71.7215 188.487C71.3458 188.487 71.0312 188.577 70.7777 188.757C70.5265 188.937 70.3498 189.18 70.2475 189.484C70.1452 189.787 70.0941 190.099 70.0941 190.421C70.0941 190.837 70.1541 191.201 70.2742 191.512C70.3964 191.821 70.5854 192.052 70.8411 192.206C71.0968 192.359 71.3736 192.436 71.6715 192.436C72.0339 192.436 72.3407 192.331 72.592 192.122C72.8432 191.913 73.0133 191.603 73.1022 191.192ZM74.3528 190.525C74.3528 189.713 74.5707 189.078 75.0065 188.62C75.4422 188.16 76.0047 187.93 76.694 187.93C77.1453 187.93 77.5522 188.038 77.9146 188.254C78.277 188.469 78.5526 188.771 78.7416 189.157C78.9328 189.542 79.0284 189.979 79.0284 190.468C79.0284 190.964 78.9284 191.407 78.7283 191.799C78.5282 192.19 78.2447 192.487 77.8779 192.689C77.511 192.889 77.1153 192.989 76.6906 192.989C76.2304 192.989 75.8191 192.878 75.4567 192.656C75.0943 192.433 74.8197 192.13 74.633 191.745C74.4462 191.361 74.3528 190.954 74.3528 190.525ZM75.0198 190.535C75.0198 191.124 75.1777 191.589 75.4934 191.929C75.8113 192.267 76.2093 192.436 76.6873 192.436C77.1742 192.436 77.5744 192.264 77.8879 191.922C78.2036 191.58 78.3614 191.094 78.3614 190.465C78.3614 190.067 78.2936 189.72 78.158 189.424C78.0246 189.126 77.8278 188.896 77.5677 188.734C77.3098 188.569 77.0197 188.487 76.6973 188.487C76.2393 188.487 75.8447 188.645 75.5134 188.961C75.1843 189.274 75.0198 189.799 75.0198 190.535ZM79.8388 192.906V188.017H80.4858V192.329H82.8937V192.906H79.8388ZM83.4706 190.525C83.4706 189.713 83.6885 189.078 84.1243 188.62C84.56 188.16 85.1225 187.93 85.8117 187.93C86.2631 187.93 86.6699 188.038 87.0323 188.254C87.3947 188.469 87.6704 188.771 87.8594 189.157C88.0506 189.542 88.1462 189.979 88.1462 190.468C88.1462 190.964 88.0462 191.407 87.8461 191.799C87.646 192.19 87.3625 192.487 86.9957 192.689C86.6288 192.889 86.2331 192.989 85.8084 192.989C85.3482 192.989 84.9369 192.878 84.5745 192.656C84.2121 192.433 83.9375 192.13 83.7507 191.745C83.564 191.361 83.4706 190.954 83.4706 190.525ZM84.1376 190.535C84.1376 191.124 84.2954 191.589 84.6112 191.929C84.9291 192.267 85.3271 192.436 85.8051 192.436C86.292 192.436 86.6922 192.264 87.0057 191.922C87.3214 191.58 87.4792 191.094 87.4792 190.465C87.4792 190.067 87.4114 189.72 87.2758 189.424C87.1424 189.126 86.9456 188.896 86.6855 188.734C86.4276 188.569 86.1375 188.487 85.8151 188.487C85.3571 188.487 84.9624 188.645 84.6312 188.961C84.3021 189.274 84.1376 189.799 84.1376 190.535ZM88.9933 192.906V188.017H91.161C91.5968 188.017 91.9281 188.061 92.1548 188.15C92.3816 188.237 92.5628 188.391 92.6984 188.614C92.8341 188.836 92.9019 189.082 92.9019 189.351C92.9019 189.698 92.7896 189.99 92.565 190.228C92.3405 190.466 91.9936 190.617 91.5245 190.681C91.6957 190.764 91.8258 190.845 91.9147 190.925C92.1037 191.098 92.2827 191.315 92.4516 191.575L93.3021 192.906H92.4883L91.8414 191.889C91.6524 191.595 91.4967 191.371 91.3745 191.215C91.2522 191.059 91.1421 190.95 91.0443 190.888C90.9487 190.826 90.8509 190.783 90.7508 190.758C90.6774 190.743 90.5574 190.735 90.3906 190.735H89.6403V192.906H88.9933ZM89.6403 190.175H91.031C91.3267 190.175 91.5579 190.145 91.7246 190.085C91.8914 190.022 92.0181 189.924 92.1048 189.791C92.1915 189.655 92.2349 189.509 92.2349 189.351C92.2349 189.12 92.1504 188.929 91.9814 188.781C91.8147 188.632 91.5501 188.557 91.1877 188.557H89.6403V190.175Z" fill="#130706"/>
<path d="M69.3937 184.043L70.004 183.99C70.0329 184.235 70.0996 184.436 70.2041 184.594C70.3108 184.749 70.4754 184.876 70.6977 184.974C70.92 185.069 71.1702 185.117 71.4481 185.117C71.6949 185.117 71.9127 185.08 72.1017 185.007C72.2907 184.934 72.4308 184.834 72.5219 184.707C72.6153 184.578 72.662 184.438 72.662 184.287C72.662 184.133 72.6175 184 72.5286 183.887C72.4397 183.771 72.2929 183.674 72.0884 183.596C71.9572 183.545 71.6671 183.466 71.218 183.36C70.7688 183.251 70.4542 183.148 70.2742 183.053C70.0407 182.931 69.8662 182.779 69.7506 182.599C69.6372 182.417 69.5805 182.214 69.5805 181.989C69.5805 181.742 69.6505 181.512 69.7906 181.299C69.9307 181.083 70.1352 180.92 70.4042 180.808C70.6732 180.697 70.9723 180.642 71.3013 180.642C71.6637 180.642 71.9828 180.701 72.2585 180.818C72.5364 180.934 72.7498 181.105 72.8988 181.332C73.0477 181.559 73.1278 181.816 73.1389 182.102L72.5186 182.149C72.4852 181.84 72.3719 181.607 72.1784 181.449C71.9872 181.291 71.7037 181.212 71.328 181.212C70.9367 181.212 70.651 181.284 70.4709 181.429C70.2931 181.571 70.2041 181.743 70.2041 181.946C70.2041 182.121 70.2675 182.266 70.3942 182.379C70.5187 182.493 70.8433 182.609 71.368 182.729C71.895 182.847 72.2562 182.951 72.4519 183.039C72.7365 183.171 72.9466 183.337 73.0822 183.54C73.2178 183.74 73.2856 183.971 73.2856 184.233C73.2856 184.494 73.2111 184.739 73.0622 184.97C72.9132 185.199 72.6987 185.378 72.4185 185.507C72.1406 185.634 71.8271 185.697 71.4781 185.697C71.0356 185.697 70.6644 185.633 70.3642 185.504C70.0663 185.375 69.8317 185.182 69.6605 184.924C69.4916 184.664 69.4026 184.37 69.3937 184.043ZM74.096 181.415V180.725H74.6963V181.415H74.096ZM74.096 185.614V182.072H74.6963V185.614H74.096ZM75.2966 185.614V185.127L77.551 182.539C77.2954 182.553 77.0697 182.559 76.874 182.559H75.43V182.072H78.3248V182.469L76.4072 184.717L76.037 185.127C76.306 185.107 76.5583 185.097 76.794 185.097H78.4315V185.614H75.2966ZM81.4529 184.474L82.0733 184.55C81.9754 184.913 81.7942 185.194 81.5297 185.394C81.2651 185.594 80.9271 185.694 80.5158 185.694C79.9978 185.694 79.5865 185.535 79.2819 185.217C78.9795 184.897 78.8283 184.449 78.8283 183.873C78.8283 183.277 78.9817 182.815 79.2886 182.486C79.5954 182.157 79.9933 181.992 80.4825 181.992C80.956 181.992 81.3429 182.153 81.643 182.476C81.9432 182.798 82.0933 183.252 82.0933 183.837C82.0933 183.872 82.0921 183.925 82.0899 183.997H79.4486C79.4709 184.386 79.5809 184.684 79.7788 184.89C79.9767 185.097 80.2235 185.201 80.5192 185.201C80.7393 185.201 80.9271 185.143 81.0828 185.027C81.2384 184.912 81.3618 184.727 81.4529 184.474ZM79.482 183.503H81.4596C81.4329 183.205 81.3573 182.982 81.2328 182.833C81.0416 182.601 80.7937 182.486 80.4891 182.486C80.2135 182.486 79.9811 182.578 79.7921 182.763C79.6054 182.947 79.502 183.194 79.482 183.503Z" fill="#130706"/>
<path d="M135.12 173.26L136.401 175.326H136.44L137.72 173.26H138.428L136.866 175.744L138.428 178.227H137.72L136.44 176.2H136.401L135.12 178.227H134.412L136.013 175.744L134.412 173.26H135.12ZM139.502 173.26L140.783 175.326H140.822L142.102 173.26H142.811L141.249 175.744L142.811 178.227H142.102L140.822 176.2H140.783L139.502 178.227H138.794L140.395 175.744L138.794 173.26H139.502ZM143.884 173.26L145.165 175.326H145.204L146.484 173.26H147.193L145.631 175.744L147.193 178.227H146.484L145.204 176.2H145.165L143.884 178.227H143.176L144.777 175.744L143.176 173.26H143.884ZM148.267 173.26L149.547 175.326H149.586L150.867 173.26H151.575L150.013 175.744L151.575 178.227H150.867L149.586 176.2H149.547L148.267 178.227H147.558L149.159 175.744L147.558 173.26H148.267Z" fill="#130706"/>
<path d="M104.477 213.617H104.181L105.036 211.29H105.327L106.181 213.617H105.886L105.191 211.658H105.172L104.477 213.617ZM104.586 212.708H105.777V212.958H104.586V212.708ZM107.212 211.29V213.617H106.93V211.585H106.916L106.348 211.962V211.676L106.93 211.29H107.212ZM108.699 211.29V213.617H108.418V211.585H108.404L107.836 211.962V211.676L108.418 211.29H108.699ZM111.087 211.29V213.617H110.805V211.585H110.791L110.223 211.962V211.676L110.805 211.29H111.087ZM112.574 211.29V213.617H112.293V211.585H112.279L111.711 211.962V211.676L112.293 211.29H112.574ZM113.38 213.617H113.085L113.939 211.29H114.23L115.085 213.617H114.789L114.094 211.658H114.075L113.38 213.617ZM113.489 212.708H114.68V212.958H113.489V212.708ZM115.543 213.617H115.247L116.102 211.29H116.393L117.247 213.617H116.952L116.256 211.658H116.238L115.543 213.617ZM115.652 212.708H116.843V212.958H115.652V212.708ZM117.705 213.617H117.41L118.264 211.29H118.555L119.41 213.617H119.114L118.419 211.658H118.4L117.705 213.617ZM117.814 212.708H119.005V212.958H117.814V212.708ZM120.44 211.29V213.617H120.158V211.585H120.144L119.576 211.962V211.676L120.158 211.29H120.44Z" fill="#130706"/>
<path d="M110.104 198.298H107.357V210.16H110.104V198.298Z" fill="#3C1F1B"/>
<path d="M82.6212 198.298H80.2617V210.16H82.6212V198.298Z" fill="#3C1F1B"/>
<path d="M94.6306 198.298H92.2734V210.16H94.6306V198.298Z" fill="#3C1F1B"/>
<path d="M75.1816 198.298H72.832V210.16H75.1816V198.298Z" fill="#3C1F1B"/>
<path d="M98.9597 198.298H96.8545V210.16H98.9597V198.298Z" fill="#3C1F1B"/>
<path d="M90.0442 198.298H88.3066V210.16H90.0442V198.298Z" fill="#3C1F1B"/>
<path d="M105.151 198.298H103.907V210.16H105.151V198.298Z" fill="#3C1F1B"/>
<path d="M86.0812 198.298H84.8438V210.16H86.0812V198.298Z" fill="#3C1F1B"/>
<path d="M78.0337 198.298H77.4141V210.16H78.0337V198.298Z" fill="#3C1F1B"/>
<path d="M101.684 198.298H101.185V210.16H101.684V198.298Z" fill="#3C1F1B"/>
<path d="M88.3058 198.298H88.1455V210.16H88.3058V198.298Z" fill="#3C1F1B"/>
<path d="M72.8323 198.298H72.709V210.16H72.8323V198.298Z" fill="#3C1F1B"/>
<path d="M99.0825 198.298H98.96V210.16H99.0825V198.298Z" fill="#3C1F1B"/>
<path d="M84.8435 198.298H84.7256V210.16H84.8435V198.298Z" fill="#3C1F1B"/>
<path d="M149.782 198.298H147.036V210.16H149.782V198.298Z" fill="#3C1F1B"/>
<path d="M122.3 198.298H119.94V210.16H122.3V198.298Z" fill="#3C1F1B"/>
<path d="M134.309 198.298H131.951V210.16H134.309V198.298Z" fill="#3C1F1B"/>
<path d="M114.859 198.298H112.511V210.16H114.859V198.298Z" fill="#3C1F1B"/>
<path d="M138.638 198.298H136.533V210.16H138.638V198.298Z" fill="#3C1F1B"/>
<path d="M129.723 198.298H127.984V210.16H129.723V198.298Z" fill="#3C1F1B"/>
<path d="M144.829 198.298H143.586V210.16H144.829V198.298Z" fill="#3C1F1B"/>
<path d="M125.76 198.298H124.521V210.16H125.76V198.298Z" fill="#3C1F1B"/>
<path d="M117.712 198.298H117.093V210.16H117.712V198.298Z" fill="#3C1F1B"/>
<path d="M141.363 198.298H140.862V210.16H141.363V198.298Z" fill="#3C1F1B"/>
<path d="M127.984 198.298H127.824V210.16H127.984V198.298Z" fill="#3C1F1B"/>
<path d="M112.511 198.298H112.388V210.16H112.511V198.298Z" fill="#3C1F1B"/>
<path d="M138.76 198.298H138.638V210.16H138.76V198.298Z" fill="#3C1F1B"/>
<path d="M124.521 198.298H124.403V210.16H124.521V198.298Z" fill="#3C1F1B"/>
</g>
<g style="mix-blend-mode:hue">
<rect width="320" height="320" fill="#00BF13"/>
</g>
</g>
<defs>
<clipPath id="clip0_1426_22748">
<rect width="320" height="320" fill="white"/>
</clipPath>
<clipPath id="clip1_1426_22748">
<rect width="210" height="133.636" fill="white" transform="translate(55 93)"/>
</clipPath>
</defs>
</svg>
