<svg width="320" height="320" viewBox="0 0 320 320" fill="none" xmlns="http://www.w3.org/2000/svg">
<rect width="320" height="320" fill="#EFE2C1"/>
<path d="M88.6731 226.777L88.6728 226.777C71.3632 208.035 61.8385 184.294 61.8003 159.99C61.8004 135.9 71.1346 112.375 88.1755 93.8494L88.1761 93.8488C107.122 73.179 132.615 61.8135 159.936 61.8135C187.257 61.8135 212.828 73.179 231.927 93.9215L231.928 93.922C249.238 112.664 258.762 136.406 258.8 160.638C258.8 184.727 249.466 208.252 232.387 226.777L232.386 226.778C213.402 247.448 187.946 258.813 160.626 258.813C133.305 258.813 107.734 247.448 88.6731 226.777Z" fill="#5B4334" stroke="#CEB57E"/>
<path d="M101.035 214.467L101.035 214.467C86.7115 199.053 78.8319 179.53 78.8003 159.547C78.8004 139.74 86.5223 120.394 100.623 105.159L100.623 105.158C116.3 88.1599 137.393 78.8135 159.999 78.8135C182.605 78.8135 203.762 88.1599 219.566 105.218L219.566 105.219C233.889 120.633 241.769 140.156 241.8 160.081C241.8 179.887 234.078 199.232 219.946 214.467L219.946 214.468C204.238 231.467 183.175 240.813 160.57 240.813C137.964 240.813 116.806 231.467 101.035 214.467Z" fill="#CEB57E" stroke="#86766A"/>
<path d="M119.665 152.313L121.427 155.243H121.489L123.259 152.313H124.911L122.446 156.313L124.95 160.313H123.271L121.489 157.403H121.427L119.646 160.313H117.974L120.501 156.313L118.005 152.313H119.665ZM127.26 152.313L129.021 155.243H129.084L130.854 152.313H132.506L130.041 156.313L132.545 160.313H130.865L129.084 157.403H129.021L127.24 160.313H125.568L128.096 156.313L125.6 152.313H127.26ZM134.854 152.313L136.616 155.243H136.679L138.448 152.313H140.101L137.636 156.313L140.14 160.313H138.46L136.679 157.403H136.616L134.835 160.313H133.163L135.69 156.313L133.194 152.313H134.854ZM142.449 152.313L144.211 155.243H144.273L146.043 152.313H147.695L145.23 156.313L147.734 160.313H146.055L144.273 157.403H144.211L142.43 160.313H140.758L143.285 156.313L140.789 152.313H142.449ZM150.044 152.313L151.806 155.243H151.868L153.638 152.313H155.29L152.825 156.313L155.329 160.313H153.649L151.868 157.403H151.806L150.024 160.313H148.353L150.88 156.313L148.384 152.313H150.044ZM157.639 152.313L159.4 155.243H159.463L161.232 152.313H162.885L160.42 156.313L162.924 160.313H161.244L159.463 157.403H159.4L157.619 160.313H155.947L158.475 156.313L155.979 152.313H157.639ZM165.233 152.313L166.995 155.243H167.058L168.827 152.313H170.479L168.015 156.313L170.519 160.313H168.839L167.058 157.403H166.995L165.214 160.313H163.542L166.069 156.313L163.573 152.313H165.233ZM175.557 152.313L177.318 155.243H177.381L179.15 152.313H180.803L178.338 156.313L180.842 160.313H179.162L177.381 157.403H177.318L175.537 160.313H173.865L176.393 156.313L173.896 152.313H175.557ZM183.151 152.313L184.913 155.243H184.976L186.745 152.313H188.397L185.933 156.313L188.437 160.313H186.757L184.976 157.403H184.913L183.132 160.313H181.46L183.987 156.313L181.491 152.313H183.151ZM190.746 152.313L192.508 155.243H192.57L194.34 152.313H195.992L193.527 156.313L196.031 160.313H194.352L192.57 157.403H192.508L190.727 160.313H189.055L191.582 156.313L189.086 152.313H190.746ZM198.341 152.313L200.103 155.243H200.165L201.935 152.313H203.587L201.122 156.313L203.626 160.313H201.946L200.165 157.403H200.103L198.321 160.313H196.649L199.177 156.313L196.681 152.313H198.341Z" fill="#7C512E"/>
<path d="M136.584 123.95L140.69 130.89H140.849L144.976 123.95H149.838L143.623 134.132L149.977 144.313H145.025L140.849 137.363H140.69L136.514 144.313H131.582L137.956 134.132L131.702 123.95H136.584ZM156.599 123.95L160.706 130.89H160.865L164.991 123.95H169.854L163.639 134.132L169.993 144.313H165.041L160.865 137.363H160.706L156.53 144.313H151.598L157.971 134.132L151.717 123.95H156.599ZM176.615 123.95L180.721 130.89H180.881L185.007 123.95H189.869L183.655 134.132L190.008 144.313H185.057L180.881 137.363H180.721L176.545 144.313H171.614L177.987 134.132L171.733 123.95H176.615Z" fill="#5E4435"/>
<path d="M136.592 189.677L139.155 193.938H139.246L141.819 189.677H144.223L140.638 195.495L144.28 201.313H141.837L139.246 197.081H139.155L136.564 201.313H134.132L137.808 195.495L134.177 189.677H136.592ZM147.639 189.677L150.202 193.938H150.292L152.866 189.677H155.27L151.685 195.495L155.327 201.313H152.883L150.292 197.081H150.202L147.611 201.313H145.179L148.855 195.495L145.224 189.677H147.639ZM158.686 189.677L161.248 193.938H161.339L163.913 189.677H166.317L162.731 195.495L166.373 201.313H163.93L161.339 197.081H161.248L158.658 201.313H156.226L159.902 195.495L156.271 189.677H158.686ZM169.733 189.677L172.295 193.938H172.386L174.96 189.677H177.364L173.778 195.495L177.42 201.313H174.977L172.386 197.081H172.295L169.704 201.313H167.273L170.949 195.495L167.318 189.677H169.733ZM180.78 189.677L183.342 193.938H183.433L186.007 189.677H188.41L184.825 195.495L188.467 201.313H186.024L183.433 197.081H183.342L180.751 201.313H178.319L181.996 195.495L178.365 189.677H180.78Z" fill="#7C512E"/>
<path d="M136.719 166.313L138.48 169.243H138.543L140.313 166.313H141.965L139.5 170.313L142.004 174.313H140.324L138.543 171.403H138.48L136.699 174.313H135.027L137.555 170.313L135.059 166.313H136.719ZM144.313 166.313L146.075 169.243H146.138L147.907 166.313H149.56L147.095 170.313L149.599 174.313H147.919L146.138 171.403H146.075L144.294 174.313H142.622L145.149 170.313L142.653 166.313H144.313ZM151.908 166.313L153.67 169.243H153.732L155.502 166.313H157.154L154.689 170.313L157.193 174.313H155.514L153.732 171.403H153.67L151.889 174.313H150.217L152.744 170.313L150.248 166.313H151.908ZM159.503 166.313L161.265 169.243H161.327L163.097 166.313H164.749L162.284 170.313L164.788 174.313H163.108L161.327 171.403H161.265L159.483 174.313H157.812L160.339 170.313L157.843 166.313H159.503ZM167.098 166.313L168.859 169.243H168.922L170.691 166.313H172.344L169.879 170.313L172.383 174.313H170.703L168.922 171.403H168.859L167.078 174.313H165.406L167.934 170.313L165.438 166.313H167.098ZM174.692 166.313L176.454 169.243H176.517L178.286 166.313H179.938L177.474 170.313L179.978 174.313H178.298L176.517 171.403H176.454L174.673 174.313H173.001L175.528 170.313L173.032 166.313H174.692ZM182.287 166.313L184.049 169.243H184.111L185.881 166.313H187.533L185.068 170.313L187.572 174.313H185.893L184.111 171.403H184.049L182.268 174.313H180.596L183.123 170.313L180.627 166.313H182.287Z" fill="#7C512E"/>
<path d="M215.119 107.167L214.564 109.228L214.587 109.253L216.682 108.832L217.108 109.286L214.576 109.777L213.923 112.269L213.497 111.815L214.027 109.777L214.004 109.752L211.934 110.149L211.508 109.696L214.063 109.23L214.693 106.713L215.119 107.167Z" fill="#7C512E"/>
<path d="M217.706 109.98L217.05 112.009L217.072 112.035L219.187 111.719L219.59 112.193L217.035 112.558L216.259 115.012L215.856 114.538L216.486 112.531L216.464 112.505L214.375 112.799L213.972 112.325L216.549 111.987L217.303 109.506L217.706 109.98Z" fill="#7C512E"/>
<path d="M220.156 112.915L219.399 114.907L219.42 114.934L221.55 114.724L221.929 115.217L219.357 115.454L218.46 117.864L218.08 117.371L218.81 115.4L218.789 115.373L216.686 115.562L216.307 115.069L218.9 114.86L219.776 112.422L220.156 112.915Z" fill="#7C512E"/>
<path d="M222.457 115.966L221.603 117.916L221.622 117.944L223.762 117.841L224.117 118.352L221.534 118.459L220.518 120.82L220.163 120.309L220.99 118.378L220.97 118.35L218.859 118.434L218.503 117.923L221.106 117.844L222.102 115.455L222.457 115.966Z" fill="#7C512E"/>
<path d="M224.607 119.124L223.657 121.027L223.675 121.056L225.819 121.06L226.149 121.588L223.562 121.566L222.43 123.87L222.1 123.343L223.021 121.457L223.003 121.428L220.889 121.406L220.559 120.879L223.164 120.93L224.278 118.596L224.607 119.124Z" fill="#7C512E"/>
<path d="M226.598 122.381L225.555 124.233L225.571 124.263L227.714 124.375L228.018 124.918L225.433 124.766L224.188 127.009L223.884 126.466L224.898 124.631L224.881 124.601L222.769 124.473L222.465 123.93L225.067 124.112L226.295 121.839L226.598 122.381Z" fill="#7C512E"/>
<path d="M228.425 125.73L227.291 127.526L227.306 127.556L229.442 127.775L229.719 128.332L227.143 128.051L225.788 130.228L225.511 129.671L226.615 127.89L226.6 127.859L224.495 127.625L224.218 127.068L226.809 127.38L228.148 125.172L228.425 125.73Z" fill="#7C512E"/>
<path d="M230.851 130.911L229.585 132.615L229.598 132.646L231.713 133.026L231.948 133.602L229.398 133.127L227.884 135.193L227.649 134.616L228.883 132.926L228.871 132.894L226.787 132.501L226.552 131.925L229.115 132.432L230.616 130.335L230.851 130.911Z" fill="#7C512E"/>
<path d="M232.248 134.45L230.9 136.087L230.912 136.12L233.007 136.605L233.213 137.191L230.689 136.59L229.075 138.576L228.868 137.989L230.184 136.363L230.173 136.331L228.11 135.835L227.904 135.248L230.44 135.882L232.042 133.863L232.248 134.45Z" fill="#7C512E"/>
<path d="M233.478 138.07L232.049 139.635L232.058 139.667L234.127 140.26L234.303 140.856L231.812 140.125L230.099 142.025L229.923 141.429L231.319 139.873L231.31 139.84L229.274 139.239L229.098 138.642L231.599 139.406L233.302 137.473L233.478 138.07Z" fill="#7C512E"/>
<path d="M234.523 141.726L233.018 143.219L233.026 143.252L235.064 143.945L235.211 144.55L232.758 143.697L230.955 145.509L230.807 144.905L232.278 143.42L232.27 143.387L230.266 142.686L230.118 142.081L232.58 142.968L234.375 141.122L234.523 141.726Z" fill="#7C512E"/>
<path d="M235.749 147.277L234.142 148.656L234.148 148.689L236.131 149.529L236.235 150.142L233.848 149.113L231.919 150.79L231.815 150.177L233.389 148.803L233.383 148.77L231.434 147.925L231.33 147.311L233.723 148.374L235.645 146.663L235.749 147.277Z" fill="#7C512E"/>
<path d="M236.346 151.03L234.674 152.329L234.678 152.362L236.619 153.297L236.693 153.915L234.358 152.771L232.351 154.353L232.277 153.735L233.915 152.439L233.911 152.406L232.004 151.467L231.93 150.85L234.269 152.027L236.272 150.412L236.346 151.03Z" fill="#7C512E"/>
<path d="M236.759 154.769L235.029 155.99L235.032 156.024L236.927 157.047L236.973 157.668L234.694 156.417L232.616 157.904L232.57 157.284L234.266 156.065L234.263 156.031L232.402 155.006L232.356 154.385L234.638 155.669L236.713 154.149L236.759 154.769Z" fill="#7C512E"/>
<path d="M237.001 158.568L235.215 159.704L235.216 159.738L237.06 160.851L237.077 161.473L234.859 160.115L232.713 161.501L232.697 160.879L234.449 159.743L234.448 159.709L232.637 158.596L232.621 157.974L234.839 159.366L236.984 157.946L237.001 158.568Z" fill="#7C512E"/>
<path d="M237.065 162.334L235.229 163.388L235.228 163.422L237.021 164.618L237.009 165.24L234.855 163.783L232.648 165.07L232.66 164.448L234.462 163.392L234.462 163.358L232.704 162.164L232.716 161.542L234.869 163.033L237.077 161.712L237.065 162.334Z" fill="#7C512E"/>
<path d="M236.949 166.275L235.066 167.242L235.064 167.276L236.798 168.554L236.757 169.175L234.674 167.619L232.409 168.801L232.45 168.181L234.299 167.211L234.302 167.177L232.601 165.901L232.642 165.281L234.723 166.871L236.99 165.654L236.949 166.275Z" fill="#7C512E"/>
<path d="M236.669 169.996L234.745 170.878L234.741 170.912L236.417 172.266L236.348 172.884L234.336 171.237L232.021 172.318L232.09 171.7L233.98 170.813L233.984 170.779L232.342 169.43L232.411 168.812L234.419 170.492L236.738 169.377L236.669 169.996Z" fill="#7C512E"/>
<path d="M235.919 175.628L233.937 176.373L233.931 176.407L235.506 177.874L235.394 178.486L233.504 176.703L231.117 177.619L231.23 177.007L233.179 176.254L233.185 176.221L231.643 174.76L231.755 174.148L233.639 175.965L236.031 175.016L235.919 175.628Z" fill="#7C512E"/>
<path d="M235.206 179.312L233.191 179.965L233.183 179.998L234.688 181.537L234.547 182.143L232.743 180.274L230.316 181.078L230.457 180.472L232.439 179.811L232.447 179.778L230.975 178.248L231.116 177.642L232.913 179.544L235.348 178.706L235.206 179.312Z" fill="#7C512E"/>
<path d="M234.323 182.943L232.278 183.501L232.269 183.534L233.7 185.141L233.531 185.739L231.816 183.789L229.353 184.479L229.523 183.88L231.535 183.312L231.544 183.279L230.146 181.683L230.315 181.084L232.02 183.067L234.493 182.345L234.323 182.943Z" fill="#7C512E"/>
<path d="M233.251 186.587L231.18 187.045L231.169 187.077L232.52 188.751L232.321 189.34L230.704 187.309L228.209 187.879L228.408 187.289L230.447 186.82L230.457 186.788L229.139 185.125L229.338 184.536L230.944 186.599L233.45 185.997L233.251 186.587Z" fill="#7C512E"/>
<path d="M231.343 191.85L229.243 192.158L229.23 192.19L230.456 193.955L230.214 194.528L228.749 192.388L226.217 192.777L226.459 192.203L228.527 191.882L228.541 191.85L227.346 190.099L227.588 189.526L229.04 191.697L231.585 191.277L231.343 191.85Z" fill="#7C512E"/>
<path d="M229.841 195.312L227.727 195.516L227.712 195.547L228.848 197.369L228.578 197.93L227.221 195.721L224.672 195.984L224.942 195.424L227.025 195.205L227.04 195.174L225.935 193.367L226.205 192.807L227.547 195.046L230.111 194.752L229.841 195.312Z" fill="#7C512E"/>
<path d="M228.168 198.689L226.045 198.788L226.029 198.818L227.072 200.693L226.773 201.239L225.529 198.967L222.968 199.103L223.267 198.557L225.36 198.442L225.376 198.412L224.363 196.554L224.662 196.008L225.889 198.309L228.467 198.144L228.168 198.689Z" fill="#7C512E"/>
<path d="M226.329 201.972L224.202 201.964L224.184 201.993L225.131 203.917L224.805 204.446L223.677 202.117L221.11 202.124L221.436 201.595L223.534 201.585L223.552 201.556L222.634 199.65L222.961 199.12L224.07 201.478L226.655 201.442L226.329 201.972Z" fill="#7C512E"/>
<path d="M224.325 205.152L222.199 205.036L222.18 205.064L223.028 207.032L222.675 207.544L221.667 205.163L219.101 205.04L219.454 204.528L221.552 204.624L221.571 204.596L220.751 202.648L221.105 202.136L222.093 204.545L224.678 204.64L224.325 205.152Z" fill="#7C512E"/>
<path d="M222.16 208.223L220.041 207.999L220.02 208.026L220.766 210.033L220.387 210.525L219.502 208.098L216.943 207.845L217.323 207.352L219.415 207.555L219.436 207.528L218.717 205.542L219.096 205.049L219.96 207.504L222.539 207.73L222.16 208.223Z" fill="#7C512E"/>
<path d="M219.835 211.178L217.729 210.846L217.707 210.871L218.348 212.912L217.943 213.384L217.185 210.917L214.64 210.532L215.045 210.06L217.126 210.37L217.148 210.344L216.532 208.326L216.937 207.854L217.673 210.347L220.24 210.706L219.835 211.178Z" fill="#7C512E"/>
<path d="M216.056 215.378L213.979 214.882L213.955 214.906L214.436 216.988L213.995 217.426L213.431 214.911L210.92 214.33L211.362 213.891L213.415 214.362L213.439 214.338L212.982 212.281L213.423 211.843L213.963 214.382L216.498 214.939L216.056 215.378Z" fill="#7C512E"/>
<path d="M213.273 218.077L211.224 217.468L211.198 217.491L211.564 219.593L211.099 220.006L210.674 217.466L208.196 216.748L208.662 216.335L210.688 216.918L210.714 216.895L210.37 214.819L210.836 214.406L211.235 216.968L213.738 217.664L213.273 218.077Z" fill="#7C512E"/>
<path d="M210.461 220.521L208.444 219.808L208.417 219.829L208.675 221.945L208.189 222.333L207.894 219.777L205.454 218.932L205.941 218.545L207.936 219.231L207.963 219.21L207.726 217.12L208.213 216.732L208.48 219.31L210.947 220.133L210.461 220.521Z" fill="#7C512E"/>
<path d="M207.53 222.81L205.55 221.995L205.522 222.015L205.672 224.139L205.166 224.501L205.002 221.936L202.606 220.968L203.112 220.606L205.072 221.394L205.1 221.374L204.97 219.277L205.476 218.915L205.612 221.5L208.036 222.448L207.53 222.81Z" fill="#7C512E"/>
<path d="M202.925 225.949L201.01 224.985L200.981 225.003L200.97 227.13L200.437 227.452L200.468 224.885L198.149 223.737L198.681 223.415L200.578 224.35L200.608 224.332L200.636 222.234L201.169 221.912L201.109 224.497L203.458 225.628L202.925 225.949Z" fill="#7C512E"/>
<path d="M199.576 227.922L197.711 226.859L197.681 226.876L197.561 228.998L197.012 229.291L197.175 226.731L194.917 225.463L195.465 225.17L197.313 226.203L197.343 226.187L197.481 224.094L198.029 223.801L197.836 226.377L200.124 227.629L199.576 227.922Z" fill="#7C512E"/>
<path d="M196.266 229.647L194.455 228.492L194.425 228.506L194.198 230.618L193.635 230.883L193.925 228.336L191.731 226.956L192.294 226.692L194.09 227.816L194.121 227.802L194.362 225.72L194.925 225.456L194.604 228.017L196.829 229.382L196.266 229.647Z" fill="#7C512E"/>
<path d="M192.861 231.206L191.108 229.962L191.077 229.975L190.747 232.072L190.171 232.308L190.586 229.78L188.462 228.293L189.038 228.057L190.776 229.269L190.808 229.256L191.151 227.191L191.727 226.955L191.28 229.496L193.436 230.97L192.861 231.206Z" fill="#7C512E"/>
<path d="M189.363 232.598L187.673 231.269L187.641 231.28L187.209 233.357L186.622 233.564L187.161 231.061L185.111 229.47L185.698 229.263L187.376 230.561L187.408 230.549L187.852 228.505L188.439 228.298L187.868 230.812L189.95 232.392L189.363 232.598Z" fill="#7C512E"/>
<path d="M185.779 233.821L184.155 232.41L184.123 232.419L183.589 234.471L182.993 234.648L183.653 232.176L181.683 230.486L182.279 230.309L183.892 231.688L183.925 231.678L184.469 229.658L185.065 229.481L184.372 231.963L186.375 233.644L185.779 233.821Z" fill="#7C512E"/>
<path d="M182.305 234.821L180.749 233.335L180.716 233.343L180.087 235.366L179.483 235.515L180.258 233.078L178.368 231.296L178.972 231.147L180.52 232.601L180.553 232.593L181.191 230.602L181.795 230.454L180.986 232.899L182.909 234.673L182.305 234.821Z" fill="#7C512E"/>
<path d="M176.657 236.077L175.212 234.48L175.179 234.486L174.405 236.457L173.791 236.561L174.741 234.188L172.985 232.272L173.599 232.169L175.037 233.732L175.071 233.726L175.851 231.788L176.464 231.685L175.481 234.063L177.27 235.973L176.657 236.077Z" fill="#7C512E"/>
<path d="M173.008 236.66L171.639 234.998L171.606 235.002L170.741 236.934L170.123 237.009L171.182 234.684L169.517 232.688L170.135 232.613L171.499 234.242L171.533 234.238L172.402 232.339L173.02 232.264L171.927 234.594L173.626 236.586L173.008 236.66Z" fill="#7C512E"/>
<path d="M169.297 237.076L168.007 235.351L167.973 235.353L167.019 237.244L166.399 237.289L167.565 235.016L165.993 232.945L166.614 232.899L167.901 234.59L167.935 234.587L168.892 232.731L169.512 232.685L168.312 234.961L169.918 237.03L169.297 237.076Z" fill="#7C512E"/>
<path d="M165.523 237.321L164.314 235.538L164.28 235.539L163.24 237.382L162.618 237.399L163.888 235.183L162.414 233.04L163.036 233.024L164.244 234.772L164.278 234.772L165.319 232.962L165.941 232.945L164.638 235.162L166.145 237.304L165.523 237.321Z" fill="#7C512E"/>
<path d="M159.629 237.36L158.547 235.497L158.512 235.496L157.347 237.263L156.725 237.236L158.146 235.114L156.825 232.874L157.447 232.9L158.53 234.729L158.564 234.731L159.729 232.998L160.35 233.024L158.895 235.146L160.251 237.387L159.629 237.36Z" fill="#7C512E"/>
<path d="M155.98 237.175L154.985 235.265L154.951 235.262L153.705 236.973L153.085 236.918L154.602 234.863L153.386 232.565L154.006 232.62L155.003 234.496L155.037 234.499L156.281 232.822L156.9 232.877L155.349 234.929L156.6 237.23L155.98 237.175Z" fill="#7C512E"/>
<path d="M152.123 236.797L151.221 234.841L151.188 234.837L149.86 236.486L149.244 236.402L150.859 234.422L149.755 232.068L150.372 232.153L151.277 234.075L151.311 234.08L152.634 232.464L153.251 232.549L151.602 234.524L152.739 236.882L152.123 236.797Z" fill="#7C512E"/>
<path d="M148.327 236.238L147.521 234.24L147.488 234.234L146.082 235.818L145.47 235.703L147.18 233.804L146.192 231.4L146.804 231.514L147.615 233.478L147.648 233.484L149.049 231.934L149.66 232.049L147.917 233.942L148.938 236.352L148.327 236.238Z" fill="#7C512E"/>
<path d="M144.596 235.503L143.89 233.469L143.856 233.461L142.374 234.974L141.768 234.83L143.57 233.016L142.702 230.568L143.307 230.712L144.02 232.712L144.054 232.72L145.529 231.24L146.134 231.384L144.3 233.19L145.201 235.647L144.596 235.503Z" fill="#7C512E"/>
<path d="M140.933 234.595L140.328 232.53L140.295 232.52L138.739 233.959L138.141 233.785L140.031 232.062L139.285 229.574L139.882 229.748L140.496 231.78L140.529 231.789L142.076 230.384L142.673 230.557L140.751 232.271L141.53 234.768L140.933 234.595Z" fill="#7C512E"/>
<path d="M137.339 233.519L136.838 231.427L136.805 231.416L135.179 232.776L134.591 232.574L136.564 230.946L135.943 228.425L136.531 228.627L137.043 230.687L137.075 230.698L138.691 229.37L139.279 229.572L137.274 231.189L137.928 233.721L137.339 233.519Z" fill="#7C512E"/>
<path d="M131.953 231.535L131.611 229.413L131.58 229.4L129.854 230.634L129.282 230.389L131.375 228.913L130.946 226.355L131.518 226.6L131.872 228.691L131.904 228.704L133.617 227.501L134.189 227.747L132.064 229.209L132.524 231.78L131.953 231.535Z" fill="#7C512E"/>
<path d="M128.543 230.036L128.308 227.901L128.277 227.886L126.49 229.034L125.931 228.761L128.097 227.391L127.797 224.816L128.356 225.089L128.605 227.193L128.636 227.208L130.408 226.092L130.967 226.365L128.771 227.72L129.102 230.309L128.543 230.036Z" fill="#7C512E"/>
<path d="M125.208 228.374L125.081 226.231L125.051 226.215L123.207 227.272L122.662 226.972L124.895 225.711L124.725 223.126L125.27 223.426L125.413 225.539L125.443 225.555L127.271 224.528L127.816 224.829L125.552 226.073L125.753 228.674L125.208 228.374Z" fill="#7C512E"/>
<path d="M121.697 226.394L121.682 224.25L121.653 224.232L119.755 225.192L119.226 224.865L121.524 223.721L121.489 221.133L122.018 221.461L122.05 223.576L122.079 223.594L123.96 222.663L124.488 222.991L122.162 224.116L122.226 226.722L121.697 226.394Z" fill="#7C512E"/>
<path d="M116.841 223.235L116.99 221.098L116.962 221.078L114.994 221.892L114.491 221.526L116.872 220.56L117.034 217.98L117.537 218.346L117.409 220.455L117.437 220.475L119.385 219.689L119.888 220.055L117.479 221.001L117.345 223.601L116.841 223.235Z" fill="#7C512E"/>
<path d="M113.788 220.97L114.043 218.845L114.017 218.823L112.009 219.538L111.524 219.148L113.953 218.302L114.244 215.735L114.729 216.125L114.495 218.224L114.521 218.245L116.508 217.557L116.993 217.947L114.537 218.772L114.273 221.36L113.788 220.97Z" fill="#7C512E"/>
<path d="M110.82 218.534L111.181 216.426L111.155 216.403L109.112 217.017L108.647 216.604L111.118 215.88L111.536 213.333L112.001 213.746L111.663 215.829L111.689 215.851L113.709 215.263L114.174 215.676L111.678 216.378L111.285 218.947L110.82 218.534Z" fill="#7C512E"/>
<path d="M108.159 216.134L108.62 214.047L108.595 214.024L106.523 214.539L106.078 214.105L108.582 213.499L109.122 210.978L109.567 211.412L109.13 213.474L109.155 213.498L111.202 213.007L111.648 213.441L109.119 214.023L108.604 216.568L108.159 216.134Z" fill="#7C512E"/>
<path d="M105.267 213.258L105.835 211.2L105.812 211.175L103.714 211.584L103.291 211.127L105.826 210.652L106.494 208.164L106.917 208.62L106.375 210.655L106.398 210.68L108.47 210.295L108.893 210.751L106.336 211.202L105.691 213.714L105.267 213.258Z" fill="#7C512E"/>
<path d="M102.654 210.388L103.323 208.363L103.301 208.337L101.184 208.64L100.784 208.164L103.341 207.815L104.132 205.366L104.532 205.842L103.89 207.845L103.912 207.871L106.002 207.59L106.403 208.066L103.824 208.389L103.055 210.864L102.654 210.388Z" fill="#7C512E"/>
<path d="M100.211 207.429L100.98 205.442L100.959 205.415L98.8276 205.612L98.4507 205.117L101.025 204.896L101.936 202.491L102.313 202.986L101.572 204.953L101.592 204.98L103.696 204.804L104.073 205.299L101.479 205.492L100.588 207.924L100.211 207.429Z" fill="#7C512E"/>
<path d="M96.9417 202.951L97.8544 201.028L97.8358 201L95.693 201.038L95.3529 200.517L97.9392 200.488L99.0252 198.16L99.3654 198.681L98.4813 200.585L98.5 200.614L100.614 200.594L100.954 201.115L98.3492 201.116L97.2818 203.472L96.9417 202.951Z" fill="#7C512E"/>
<path d="M94.7561 199.528L95.767 197.657L95.7499 197.627L93.6063 197.554L93.2931 197.016L95.8795 197.122L97.0844 194.856L97.3976 195.394L96.4163 197.248L96.4335 197.277L98.5475 197.367L98.8607 197.905L96.2571 197.77L95.0693 200.065L94.7561 199.528Z" fill="#7C512E"/>
<path d="M92.8977 196.27L94.0003 194.454L93.9846 194.424L91.8457 194.243L91.5592 193.691L94.139 193.926L95.455 191.725L95.7415 192.277L94.6694 194.078L94.6851 194.108L96.7934 194.305L97.08 194.857L94.4844 194.591L93.1842 196.823L92.8977 196.27Z" fill="#7C512E"/>
<path d="M91.2016 192.932L92.3928 191.174L92.3786 191.143L90.2501 190.855L89.9909 190.289L92.5575 190.654L93.9809 188.523L94.2401 189.088L93.08 190.832L93.0942 190.863L95.1916 191.165L95.4508 191.73L92.8699 191.335L91.4608 193.497L91.2016 192.932Z" fill="#7C512E"/>
<path d="M88.9127 187.641L90.2324 185.98L90.2205 185.948L88.1179 185.499L87.9014 184.916L90.4355 185.474L92.0146 183.459L92.2311 184.042L90.9436 185.692L90.9554 185.724L93.0259 186.184L93.2424 186.767L90.6965 186.177L89.1292 188.224L88.9127 187.641Z" fill="#7C512E"/>
<path d="M87.6341 184.102L89.0337 182.51L89.0234 182.478L86.9445 181.925L86.7567 181.332L89.2614 182.015L90.9375 180.082L91.1254 180.675L89.7583 182.258L89.7686 182.29L91.8149 182.853L92.0027 183.446L89.4878 182.73L87.8219 184.696L87.6341 184.102Z" fill="#7C512E"/>
<path d="M86.5226 180.487L87.9985 178.966L87.9898 178.933L85.9397 178.279L85.781 177.677L88.25 178.483L90.0187 176.636L90.1775 177.238L88.7347 178.75L88.7434 178.783L90.7603 179.446L90.9191 180.048L88.4414 179.209L86.6813 181.089L86.5226 180.487Z" fill="#7C512E"/>
<path d="M85.5821 176.798L87.1303 175.352L87.1232 175.318L85.107 174.563L84.9776 173.955L87.4049 174.882L89.2614 173.124L89.3909 173.733L87.8762 175.172L87.8833 175.206L89.866 175.967L89.9954 176.576L87.5609 175.615L85.7115 177.406L85.5821 176.798Z" fill="#7C512E"/>
<path d="M84.8169 173.036L86.4332 171.668L86.4278 171.635L84.4502 170.782L84.3503 170.168L86.7303 171.212L88.6697 169.548L88.7696 170.162L87.187 171.526L87.1925 171.559L89.1363 172.417L89.2362 173.031L86.8507 171.953L84.9168 173.651L84.8169 173.036Z" fill="#7C512E"/>
<path d="M84.2298 169.205L85.9101 167.917L85.9063 167.883L83.9718 166.935L83.9016 166.317L86.2288 167.476L88.246 165.908L88.3163 166.526L86.6699 167.811L86.6738 167.845L88.5742 168.796L88.6445 169.414L86.3135 168.221L84.3001 169.823L84.2298 169.205Z" fill="#7C512E"/>
<path d="M83.8453 165.578L85.5829 164.369L85.5806 164.335L83.6917 163.299L83.6499 162.678L85.9215 163.943L88.0086 162.47L88.0504 163.091L86.3468 164.298L86.3491 164.332L88.2039 165.37L88.2458 165.99L85.9719 164.691L83.8871 166.198L83.8453 165.578Z" fill="#7C512E"/>
<path d="M83.5738 159.753L85.3921 158.67L85.3922 158.636L83.5807 157.469L83.5825 156.847L85.7597 158.269L87.945 156.946L87.9432 157.569L86.159 158.653L86.1589 158.687L87.9363 159.853L87.9345 160.475L85.7574 159.019L83.572 160.375L83.5738 159.753Z" fill="#7C512E"/>
<path d="M83.6162 156.001L85.4807 154.998L85.4823 154.964L83.7243 153.719L83.7538 153.098L85.8657 154.614L88.1076 153.39L88.0782 154.011L86.2477 155.016L86.246 155.05L87.9701 156.293L87.9406 156.914L85.8302 155.364L83.5868 156.622L83.6162 156.001Z" fill="#7C512E"/>
<path d="M83.8316 152.144L85.7405 151.229L85.7437 151.195L84.045 149.87L84.1031 149.25L86.1429 150.863L88.4389 149.742L88.3808 150.362L86.5058 151.281L86.5027 151.315L88.1675 152.636L88.1093 153.255L86.0728 151.609L83.7735 152.763L83.8316 152.144Z" fill="#7C512E"/>
<path d="M84.2204 148.353L86.1699 147.527L86.1746 147.493L84.5392 146.092L84.6261 145.475L86.5888 147.18L88.9346 146.167L88.8478 146.783L86.932 147.614L86.9272 147.648L88.529 149.044L88.4422 149.66L86.4841 147.922L84.1336 148.969L84.2204 148.353Z" fill="#7C512E"/>
<path d="M85.1403 142.687L87.144 142L87.1512 141.967L85.6192 140.454L85.7496 139.846L87.5867 141.683L89.9991 140.837L89.8686 141.446L87.8982 142.141L87.891 142.174L89.3898 143.679L89.2594 144.287L87.4295 142.416L85.0099 143.296L85.1403 142.687Z" fill="#7C512E"/>
<path d="M85.9491 139.069L87.9834 138.475L87.9921 138.442L86.5329 136.861L86.6919 136.259L88.4406 138.18L90.8908 137.447L90.7318 138.048L88.7302 138.651L88.7215 138.684L90.1479 140.257L89.9889 140.858L88.2489 138.905L85.79 139.67L85.9491 139.069Z" fill="#7C512E"/>
<path d="M86.9197 135.52L88.9806 135.022L88.9909 134.99L87.608 133.342L87.7955 132.749L89.4515 134.748L91.9344 134.131L91.7469 134.724L89.7184 135.233L89.7081 135.265L91.0587 136.902L90.8712 137.495L89.2255 135.463L86.7322 136.113L86.9197 135.52Z" fill="#7C512E"/>
<path d="M88.114 131.861L90.1979 131.465L90.2098 131.433L88.9098 129.72L89.1265 129.137L90.682 131.214L93.1935 130.718L92.9767 131.302L90.9247 131.711L90.9128 131.743L92.181 133.443L91.9643 134.026L90.4207 131.917L87.8973 132.444L88.114 131.861Z" fill="#7C512E"/>
<path d="M89.4793 128.296L91.5814 128.003L91.5949 127.971L90.3814 126.198L90.6271 125.626L92.0776 127.776L94.6121 127.405L94.3663 127.976L92.2953 128.284L92.2819 128.315L93.4642 130.074L93.2185 130.646L91.7814 128.465L89.2335 128.868L89.4793 128.296Z" fill="#7C512E"/>
<path d="M90.9362 124.986L93.0514 124.793L93.0663 124.762L91.9396 122.934L92.2129 122.375L93.5583 124.59L96.1092 124.34L95.8359 124.899L93.7512 125.108L93.7363 125.138L94.8326 126.951L94.5593 127.51L93.2288 125.264L90.6629 125.545L90.9362 124.986Z" fill="#7C512E"/>
<path d="M92.6296 121.605L94.7533 121.517L94.7698 121.488L93.7363 119.607L94.0378 119.063L95.2702 121.34L97.8323 121.217L97.5309 121.762L95.4368 121.866L95.4203 121.896L96.4242 123.76L96.1227 124.304L94.9068 121.997L92.3282 122.149L92.6296 121.605Z" fill="#7C512E"/>
<path d="M95.4778 116.727L97.6046 116.8L97.6234 116.771L96.7356 114.82L97.0782 114.301L98.1342 116.662L100.701 116.733L100.359 117.252L98.2603 117.199L98.2415 117.227L99.1009 119.159L98.7583 119.678L97.7211 117.288L95.1352 117.246L95.4778 116.727Z" fill="#7C512E"/>
<path d="M97.5789 113.611L99.7011 113.791L99.7214 113.764L98.9344 111.772L99.3036 111.272L100.238 113.681L102.8 113.882L102.431 114.383L100.336 114.223L100.316 114.25L101.075 116.222L100.706 116.722L99.7925 114.285L97.2097 114.112L97.5789 113.611Z" fill="#7C512E"/>
<path d="M99.8385 110.609L101.951 110.898L101.972 110.872L101.289 108.844L101.684 108.363L102.492 110.816L105.044 111.148L104.649 111.628L102.563 111.361L102.541 111.387L103.198 113.393L102.803 113.874L102.016 111.395L99.4435 111.089L99.8385 110.609Z" fill="#7C512E"/>
<path d="M102.255 107.729L104.352 108.127L104.375 108.102L103.797 106.044L104.217 105.585L104.898 108.073L107.431 108.537L107.011 108.996L104.94 108.621L104.917 108.646L105.469 110.681L105.049 111.14L104.391 108.627L101.835 108.188L102.255 107.729Z" fill="#7C512E"/>
<path d="M119.657 93.3019L122.533 95.1501L122.589 95.1225L122.881 91.7123L124.362 90.9814L123.921 95.6591L127.936 98.139L126.43 98.882L123.545 97.0599L123.489 97.0875L123.178 100.485L121.679 101.225L122.176 96.5196L118.169 94.0362L119.657 93.3019Z" fill="#7C512E"/>
<path d="M127.379 89.7511L130.074 91.8534L130.133 91.831L130.733 88.4614L132.275 87.8684L131.41 92.4865L135.183 95.3215L133.615 95.9243L130.908 93.8472L130.85 93.8697L130.231 97.2252L128.671 97.8252L129.594 93.1847L125.829 90.3469L127.379 89.7511Z" fill="#7C512E"/>
<path d="M135.277 86.9563L137.767 89.299L137.827 89.2821L138.737 85.9825L140.327 85.5348L139.038 90.053L142.533 93.2249L140.916 93.6801L138.413 91.3614L138.352 91.3784L137.426 94.6623L135.817 95.1153L137.166 90.5801L133.679 87.4061L135.277 86.9563Z" fill="#7C512E"/>
<path d="M143.438 84.899L145.693 87.4681L145.754 87.457L146.974 84.259L148.6 83.9648L146.887 88.3398L150.063 91.8299L148.41 92.1291L146.139 89.5826L146.078 89.5938L144.843 92.7746L143.198 93.0724L144.973 88.6862L141.804 85.1947L143.438 84.899Z" fill="#7C512E"/>
<path d="M154.787 83.3704L156.685 86.2138L156.747 86.2108L158.376 83.2009L160.027 83.123L157.754 87.2348L160.443 91.1123L158.765 91.1915L156.849 88.3686L156.787 88.3715L155.145 91.3625L153.475 91.4413L155.81 87.3266L153.128 83.4487L154.787 83.3704Z" fill="#7C512E"/>
<path d="M163.213 83.2171L164.818 86.2357L164.88 86.239L166.802 83.4068L168.452 83.4941L165.779 87.3584L168.068 91.485L166.391 91.3963L164.766 88.3961L164.704 88.3928L162.771 91.2049L161.102 91.1166L163.837 87.2556L161.555 83.1294L163.213 83.2171Z" fill="#7C512E"/>
<path d="M171.6 83.9056L172.891 87.0713L172.953 87.0809L175.152 84.458L176.784 84.712L173.734 88.2856L175.593 92.6229L173.933 92.3647L172.621 89.2154L172.559 89.2058L170.352 91.8075L168.7 91.5506L171.812 87.9866L169.96 83.6504L171.6 83.9056Z" fill="#7C512E"/>
<path d="M179.877 85.4439L180.835 88.7254L180.896 88.7413L183.353 86.3583L184.95 86.7788L181.549 90.0199L182.953 94.5254L181.328 94.098L180.346 90.8304L180.286 90.8145L177.822 93.1756L176.206 92.7501L179.668 89.5249L178.272 85.0214L179.877 85.4439Z" fill="#7C512E"/>
<path d="M188.109 87.8828L188.71 91.2483L188.768 91.2706L191.466 89.1651L193.01 89.7547L189.28 92.6119L190.192 97.2421L188.623 96.6427L187.997 93.2885L187.939 93.2662L185.236 95.3492L183.674 94.7527L187.463 91.9178L186.558 87.2904L188.109 87.8828Z" fill="#7C512E"/>
<path d="M195.821 91.091L196.071 94.5004L196.127 94.5286L199.028 92.712L200.503 93.4573L196.499 95.9155L196.929 100.615L195.43 99.8572L195.153 96.4565L195.097 96.4283L192.195 98.2221L190.703 97.468L194.762 95.038L194.339 90.3422L195.821 91.091Z" fill="#7C512E"/>
<path d="M203.137 95.0578L203.04 98.475L203.092 98.5087L206.163 96.9964L207.554 97.8877L203.321 99.9262L203.271 104.645L201.857 103.739L201.927 100.328L201.874 100.294L198.805 101.783L197.397 100.882L201.683 98.8768L201.739 94.1622L203.137 95.0578Z" fill="#7C512E"/>
</svg>
