<svg width="103" height="44" viewBox="0 0 103 44" fill="none" xmlns="http://www.w3.org/2000/svg">
<path fill-rule="evenodd" clip-rule="evenodd" d="M94.3491 0.601319C92.3491 0.845153 90.5123 2.09457 89.6668 3.78663C88.4541 6.21359 89.5727 9.0815 91.7321 9.0815C92.5033 9.0815 93.3212 8.43258 93.517 7.66505C93.6739 7.05146 93.1154 5.99644 92.4758 5.69806C92.0266 5.48838 91.8645 5.49263 91.19 5.73103C90.2776 6.05336 90.1371 5.99949 90.1371 5.3278C90.1371 4.21364 91.0738 2.86278 92.277 2.24139C93.2666 1.73043 95.1328 1.71735 96.1023 2.21471C97.786 3.07858 98.5233 4.87225 98.3952 7.793C98.2418 11.2854 97.5359 12.4126 92.3662 17.4221L88.581 21.0897V22.2222V23.3547H95.1514C98.765 23.3547 101.73 23.3356 101.741 23.3122C101.751 23.289 101.89 21.8362 102.049 20.0838L102.339 16.8977H101.857C101.399 16.8977 101.376 16.9371 101.368 17.7049C101.358 18.8431 101.11 19.9725 100.835 20.1399C100.391 20.4097 98.8545 20.4832 94.7338 20.4323L90.5988 20.3811L93.5234 17.5805C100.84 10.5741 101.666 9.5357 102.099 6.79846C102.327 5.35669 102.041 4.12868 101.217 3.01077C99.9069 1.23308 97.1377 0.26165 94.3491 0.601319ZM52.7465 3.94279L42.7613 3.98662V4.91982V5.85302H45.2582C46.6316 5.85302 47.7929 5.91301 47.839 5.98641C47.8852 6.05999 47.9412 14.1459 47.9634 23.9554L48.0038 41.791L45.469 41.8381L42.9343 41.885V42.8151V43.745H53.1443H63.3543L63.3023 42.768L63.2504 41.791L60.6137 41.7441L57.9769 41.6973L57.9713 34.1827C57.9685 30.0497 57.9198 25.9692 57.8634 25.1146L57.7611 23.5608L58.3244 23.4394C58.6343 23.3724 59.6322 23.3726 60.542 23.4397C65.3501 23.7938 66.3237 25.1758 66.8786 32.4343C67.2468 37.2516 67.8222 39.2244 69.3416 40.8771C71.9633 43.7287 77.3956 44.6365 82.2925 43.0408C83.179 42.752 83.9732 42.4289 84.0577 42.3232C84.2909 42.0307 84.091 39.961 83.8483 40.1577C83.741 40.2445 83.1694 40.4757 82.5781 40.671C80.5185 41.3516 79.0029 41.0029 78.5845 39.752C78.4595 39.3781 78.2858 37.7333 78.1987 36.0968C77.992 32.2118 77.6677 30.3831 76.9179 28.8739C76.3608 27.7526 75.1505 26.3807 73.8497 25.3962C73.0199 24.7681 70.7302 23.7395 68.9088 23.1762C67.9317 22.8741 67.1537 22.6077 67.1798 22.5845C67.2059 22.5612 68.1036 22.3783 69.1747 22.1782C71.4694 21.7495 73.7147 21.0097 75.2381 20.1803C76.8283 19.3148 78.6084 17.5979 79.256 16.3051C80.7871 13.2488 80.1277 10.3083 77.2915 7.54593C75.8669 6.15837 74.2882 5.33154 71.9697 4.75891C68.7018 3.9518 67.0148 3.88009 52.7465 3.94279ZM0.918457 5.19901V6.24418L3.60124 6.1266C5.72313 6.03365 6.29907 6.05489 6.35613 6.22837C6.39572 6.34902 6.45848 14.4573 6.49549 24.2468L6.56274 42.0459H3.82705H1.09136V43.023V44L18.0793 43.9427C27.4225 43.9113 35.0883 43.8649 35.1143 43.8397C35.1656 43.7898 35.4113 38.579 35.6014 33.5074L35.7208 30.3214H34.7873H33.8537L33.4432 31.4684C32.782 33.3156 31.2508 36.3784 30.4089 37.5378C28.8774 39.647 26.6005 41.2847 24.6387 41.688C24.1336 41.792 22.0911 41.9247 20.1 41.9831L16.4798 42.0891L16.4797 31.575C16.4795 25.7923 16.428 17.6774 16.3651 13.5419L16.2506 6.02294H19.3046H22.3586V5.08838V4.15383H11.6385H0.918457V5.19901ZM57.8041 13.6919V21.5309L60.9595 21.4367C64.0823 21.3434 65.2536 21.1608 66.3628 20.5938C68.0359 19.7383 68.6899 17.7948 68.6926 13.6693C68.6956 9.40928 68.1705 7.62053 66.6618 6.75173C65.4685 6.06441 64.1303 5.8605 60.7867 5.85659L57.8041 5.85302V13.6919Z" fill="#625E56"/>
</svg>
