<svg width="105" height="76" viewBox="0 0 105 76" fill="none" xmlns="http://www.w3.org/2000/svg">
<path fill-rule="evenodd" clip-rule="evenodd" d="M35.3553 1.1312C35.3156 1.25541 35.0691 2.41307 34.8073 3.70397C34.5457 4.99487 34.2876 6.23377 34.2333 6.45728C34.1572 6.77089 34.2134 6.86351 34.4795 6.86351C34.7681 6.86351 34.8895 6.57337 35.2275 5.07647C35.8006 2.53692 36.4082 1.77015 38.0594 1.5024C38.6122 1.41267 38.7037 1.45636 38.8676 1.88732C39.0815 2.44954 39.1236 14.9581 38.9128 15.2894C38.8388 15.4053 38.4944 15.5272 38.1475 15.5602C37.8007 15.593 37.5168 15.7012 37.5168 15.8004C37.5168 15.9083 38.4088 16.0015 39.7303 16.0318C41.5805 16.074 41.9436 16.0388 41.9436 15.8169C41.9436 15.6405 41.7164 15.5327 41.266 15.4954L40.5884 15.4394L40.5412 8.69009C40.5058 3.65197 40.5486 1.87486 40.7103 1.68024C40.9591 1.38053 41.8798 1.49211 42.7133 1.92271C43.4627 2.30998 43.8539 3.0856 44.3071 5.0826C44.641 6.55405 44.7696 6.86351 45.0474 6.86351C45.3018 6.86351 45.3622 6.76456 45.2954 6.45728C45.2468 6.23377 44.9998 5.07612 44.7463 3.88452C44.4928 2.69292 44.2448 1.53526 44.1951 1.31174L44.1051 0.905518H39.7664C36.4541 0.905518 35.4104 0.958959 35.3553 1.1312ZM45.9188 1.1655C45.9188 1.3354 46.1532 1.44481 46.5964 1.48146L47.2739 1.53743V8.48842V15.4394L46.5964 15.4954C46.1532 15.532 45.9188 15.6414 45.9188 15.8113C45.9188 16.0236 46.3324 16.0713 48.1774 16.0713C50.0225 16.0713 50.436 16.0236 50.436 15.8113C50.436 15.6414 50.2017 15.532 49.7584 15.4954L49.0808 15.4394L49.0319 11.7599L48.983 8.08057L49.554 7.19102C50.5923 5.57442 52.0307 4.88148 52.7449 5.65386C53.4164 6.38019 53.5289 7.28093 53.4717 11.4674L53.4174 15.4394L52.7398 15.4954C52.2966 15.532 52.0622 15.6414 52.0622 15.8113C52.0622 16.0236 52.4759 16.0713 54.3208 16.0713C56.1658 16.0713 56.5794 16.0236 56.5794 15.8113C56.5794 15.6414 56.345 15.532 55.9018 15.4954L55.2243 15.4394L55.1339 11.1063C55.0516 7.15455 55.0108 6.71763 54.6724 6.14187C54.1158 5.19528 53.2627 4.69696 52.1982 4.69696C51.0305 4.69696 50.157 5.12793 49.5063 6.0256L48.9802 6.75139L49.0304 4.14449L49.0808 1.53743L49.7584 1.48146C50.2017 1.44481 50.436 1.3354 50.436 1.1655C50.436 0.953182 50.0225 0.905518 48.1774 0.905518C46.3324 0.905518 45.9188 0.953182 45.9188 1.1655ZM61.0644 4.76431C59.9845 5.05987 59.1215 5.72083 58.406 6.79995C57.6509 7.9392 57.4257 8.81683 57.4171 10.655C57.411 11.9567 57.4855 12.3541 57.9076 13.2729C59.076 15.8162 61.2069 16.9273 63.6262 16.2546C64.3955 16.0409 65.4083 15.2262 65.85 14.4664L66.1764 13.9048L65.579 13.9118C65.1118 13.9172 64.9026 14.0414 64.6201 14.4814C63.8666 15.6548 61.9952 16.094 61.0187 15.3266C59.8577 14.4141 59.0457 12.2544 59.145 10.3441C59.1957 9.37471 59.2314 9.29888 59.6511 9.27361C59.8996 9.25844 61.6736 9.23822 63.5932 9.22848L67.0837 9.2106L66.9682 8.80437C66.9049 8.58085 66.6175 7.90616 66.3298 7.30476C65.3268 5.20918 63.1954 4.18079 61.0644 4.76431ZM61.0782 5.83152C60.4806 6.23268 59.2898 7.96645 59.2898 8.43534C59.2898 8.61732 59.9686 8.66896 62.3614 8.66896C65.8405 8.66896 65.736 8.72493 65.0581 7.2246C64.4967 5.98209 63.7356 5.42004 62.6141 5.41951C61.9532 5.41933 61.5184 5.53596 61.0782 5.83152ZM13.1279 15.5748C12.9464 16.1224 11.372 23.8589 11.4315 23.9116C11.4678 23.944 11.6633 24.0211 11.8658 24.0832C12.2055 24.1871 12.2807 24.0051 12.8421 21.7133C13.1767 20.3479 13.5901 18.9032 13.7609 18.5025C14.1463 17.5981 15.1545 16.6931 16.0552 16.4432C17.1004 16.1533 18.2145 16.199 18.3444 16.5375C18.4048 16.6946 18.4541 21.2687 18.4541 26.7021C18.4541 34.1452 18.4006 36.6346 18.2373 36.7978C18.1181 36.9171 17.6245 37.0145 17.1406 37.0145C16.3447 37.0145 16.2662 37.0513 16.3184 37.3999C16.3734 37.7661 16.4692 37.7842 18.2734 37.7692C19.3169 37.7606 20.8009 37.7498 21.571 37.745C22.8481 37.7375 22.9713 37.7049 22.9713 37.3757C22.9713 37.0638 22.8508 37.0145 22.09 37.0145C21.5665 37.0145 21.1258 36.9147 21.0044 36.7684C20.8565 36.5904 20.813 33.7343 20.8469 26.4323L20.8934 16.3422L21.6505 16.2871C23.3274 16.1653 24.8801 17.0616 25.5015 18.51C25.6751 18.9146 26.081 20.362 26.4034 21.7262C26.9551 24.0612 27.012 24.1996 27.3745 24.0884C27.5863 24.0236 27.7873 23.9461 27.8209 23.9165C27.8848 23.8604 26.5266 17.2086 26.2097 16.0262L26.0286 15.3491H19.6156C14.6457 15.3491 13.1859 15.3999 13.1279 15.5748ZM74.8289 15.62C74.8289 15.7689 74.8086 15.9518 74.7838 16.0262C74.7591 16.1006 75.1858 16.2021 75.7324 16.2519L76.7263 16.3422L76.7728 26.5313C76.8097 34.5631 76.7713 36.7511 76.5921 36.8647C76.4671 36.9441 75.9922 37.0102 75.5367 37.0118C74.8059 37.0142 74.7121 37.0594 74.7368 37.3968C74.7643 37.7676 74.8428 37.7787 77.3718 37.7686C81.6773 37.7516 81.3339 37.7896 81.3339 37.3292C81.3339 36.9593 81.2615 36.9273 80.5494 36.9841C79.2483 37.0874 79.1656 36.8965 79.1656 33.7895V31.1317L79.9828 30.3305C80.6502 29.6757 80.8571 29.5639 81.1121 29.7192C81.3001 29.8339 81.8205 31.0883 82.4211 32.8753C83.5381 36.1994 83.8274 36.8179 84.5167 37.3598C85.0821 37.8041 86.2818 37.8635 87.1731 37.4914C87.9544 37.1651 89.1095 35.9658 89.7177 34.8493C90.1841 33.993 90.1911 33.9453 89.8518 33.9453C89.6198 33.9453 89.1899 34.3583 88.6323 35.1173C87.7208 36.358 87.3397 36.6052 86.7917 36.3122C86.269 36.0327 85.4083 34.2456 84.6818 31.9309C83.9411 29.5714 83.3293 28.6804 82.1871 28.2978L81.5049 28.0691L84.3554 25.3501C85.9234 23.8545 87.3838 22.536 87.6008 22.4203C87.818 22.3046 88.448 22.2099 89.0012 22.2099C89.9534 22.2099 90.0068 22.1858 90.0068 21.7584V21.3071H86.7544H83.502V21.7584C83.502 22.1845 83.557 22.2099 84.4852 22.2099C85.4226 22.2099 85.8863 22.4163 85.4935 22.6588C85.3928 22.7209 84.5076 23.7219 83.5262 24.883C82.545 26.0442 81.4861 27.2786 81.1732 27.6261C80.8603 27.9738 80.3416 28.6009 80.0203 29.0199C79.6993 29.4388 79.3866 29.7841 79.3253 29.7871C79.1731 29.7948 79.1147 16.9554 79.2648 16.5641C79.3582 16.3215 79.6024 16.2519 80.3593 16.2519C81.2783 16.2519 81.3339 16.2262 81.3339 15.8004V15.3491H78.0813C75.3109 15.3491 74.8289 15.3892 74.8289 15.62ZM65.8244 21.0996C64.754 21.4804 63.429 22.6486 63.0497 23.5459C62.8204 24.0884 62.8104 24.0639 62.7229 22.7515L62.6325 21.3974L60.419 21.3466L58.2057 21.296V21.7529C58.2057 22.1783 58.2654 22.2099 59.0729 22.2099C59.55 22.2099 60.0378 22.3073 60.157 22.4266C60.3181 22.5874 60.3739 24.4178 60.3739 29.5452C60.3739 37.3867 60.4275 37.0983 58.99 36.9841C58.2565 36.9257 58.2057 36.9513 58.2054 37.3744L58.2052 37.827L61.5482 37.7741C63.3867 37.745 64.8911 37.6503 64.8911 37.5633C64.8911 37.0528 64.6529 36.8546 64.1586 36.9533C63.8731 37.0104 63.4333 37.0053 63.1813 36.9422L62.7229 36.8271V31.4055V25.9839L63.3739 24.9545C65.5141 21.5698 67.9085 20.8781 68.9798 23.3348C69.2822 24.0282 69.3216 24.7374 69.3729 30.4074C69.4186 35.4516 69.3827 36.7404 69.1933 36.8653C69.063 36.9514 68.5907 37.0025 68.1436 36.979C67.4116 36.9406 67.3305 36.9762 67.3305 37.3365C67.3305 37.5567 67.3912 37.7367 67.466 37.7367C67.5406 37.7367 69.0243 37.7367 70.7636 37.7367H73.9256V37.3216C73.9256 36.9533 73.854 36.9149 73.2918 36.9804C72.903 37.0258 72.4875 36.9426 72.2165 36.7655L71.7751 36.4763L71.721 30.3811C71.6685 24.4616 71.655 24.26 71.2515 23.3855C71.0232 22.8904 70.6573 22.2935 70.4384 22.0592C69.3894 20.9354 67.4312 20.5282 65.8244 21.0996ZM34.9921 21.251C34.4586 21.5392 33.9237 22.1053 33.5028 22.8268C33.3104 23.1565 33.2827 23.0861 33.2769 22.255L33.2705 21.3071H31.012H28.7533V21.7495C28.7533 22.1613 28.825 22.1956 29.7924 22.246L30.8313 22.3002L30.8787 28.9032L30.9259 35.5064L30.4269 36.1576C30.0858 36.6031 29.7564 36.8274 29.3857 36.8668C28.9107 36.9172 28.8425 36.996 28.8328 37.5037C28.8253 37.9082 28.517 38.5079 27.8119 39.4897C26.6095 41.1646 25.4968 42.8346 24.9385 43.8034C23.8707 45.6561 22.2278 48.614 21.5896 49.8333C21.1999 50.5781 20.7506 51.3904 20.5909 51.6387C20.4315 51.887 20.0635 52.5369 19.7736 53.0831C18.8823 54.7623 18.4408 55.4105 18.1248 55.5024C16.3488 56.0192 13.7343 56.0997 11.6523 55.7017C8.23057 55.0476 6.19076 53.1302 5.63026 50.0415C5.36051 48.5549 5.63569 47.1313 6.57454 45.1559C7.53075 43.1439 9.47515 41.1325 11.2782 40.29C14.2797 38.8875 17.5331 39.5923 19.1941 42.0047C20.3782 43.7243 20.0321 46.2199 18.4733 47.2032C18.069 47.4582 17.583 47.6667 17.3929 47.6667C17.0346 47.6667 16.7507 47.2155 16.9283 46.9283C17.1273 46.6065 16.46 46.7705 16.098 47.1324C15.2875 47.942 15.1413 49.1897 15.8202 49.4987C17.1948 50.1245 19.4018 48.3092 20.0227 46.0419C20.7833 43.2637 19.6469 40.9619 16.8334 39.5812C15.6757 39.013 13.4288 38.8204 11.9846 39.1652C9.72034 39.7061 6.99284 41.7876 5.49692 44.1165C4.51741 45.6415 4.11068 46.66 3.81453 48.3293C3.3881 50.7338 4.09604 52.7702 5.96961 54.5275C7.30689 55.7816 8.52797 56.261 11.0807 56.5344C12.9133 56.7305 14.6727 56.637 17.1465 56.2125L17.7361 56.1112L17.3595 56.9893C16.6082 58.7407 13.1822 62.7771 11.3988 64.012C10.6102 64.558 10.9747 64.5928 7.7044 63.6582C5.89372 63.1405 4.71056 63.0805 3.3666 63.4384C1.84845 63.8427 1.00807 64.3541 0.595195 65.125C0.311876 65.6539 0.476844 65.9899 1.25959 66.4784C1.87555 66.8629 2.10793 66.8903 4.63142 66.877C6.70826 66.8658 7.55298 66.7894 8.24519 66.5492C10.7226 65.6897 10.5996 65.7048 11.4456 66.1536C11.8718 66.3796 12.3221 66.5306 12.4462 66.4891C12.5705 66.4473 12.6735 66.5216 12.6753 66.6541C12.6795 66.9503 15.0357 68.0826 16.7113 68.5933C18.3777 69.1015 20.8415 69.1053 22.7487 68.6032C24.4533 68.1544 26.8855 66.9451 28.8339 65.5775C30.2854 64.5589 30.783 64.1542 32.3849 62.6905C33.1044 62.0331 33.2692 61.9542 33.4807 62.1656C34.1369 62.8211 34.3368 62.8325 45.2499 62.8325H55.988L56.4851 62.336L56.9822 61.8396L56.8539 59.4021C56.7832 58.0617 56.5484 54.4868 56.332 51.4581L55.9384 45.9516L52.8259 45.9021L49.7132 45.8528L49.7122 44.1869C49.7117 43.2709 49.6271 42.2185 49.5243 41.8486C49.2366 40.8134 48.2847 39.7079 47.1803 39.1265C46.2961 38.6607 46.0543 38.6132 44.9251 38.6833C43.4617 38.7742 42.7425 39.0967 41.7682 40.0999C40.8222 41.0737 40.4981 42.115 40.4981 44.1783V45.8613H37.8559H35.2137L36.7335 44.1912C38.6472 42.0884 39.1676 41.4154 40.2626 39.6269C41.8515 37.0319 42.4856 35.3062 42.4856 33.578C42.4856 30.3349 38.9862 29.6142 34.9872 32.0339C34.4903 32.3344 33.9211 32.7299 33.7224 32.9124C33.3622 33.2432 33.3607 33.2334 33.3081 30.1193C33.2793 28.4006 33.3445 26.4752 33.4535 25.8408C33.9496 22.9477 35.7938 21.2621 37.548 22.0981C38.4666 22.5357 39.0345 23.8987 39.2707 26.2322C39.4489 27.9915 39.4776 28.0788 39.8875 28.1036L40.3175 28.1296V24.9061V21.6827L39.124 21.3144C37.6675 20.8649 35.7603 20.8356 34.9921 21.251ZM41.4016 21.7543C41.4016 22.1799 41.4603 22.2099 42.2944 22.2099C42.8102 22.2099 43.249 22.3052 43.3333 22.4355C43.4137 22.5598 43.5201 25.4296 43.5699 28.8132L43.6602 34.9653L44.2047 36.0281C44.9635 37.5101 45.8994 38.1467 47.4655 38.2464C49.5668 38.3801 50.9951 37.6739 52.0798 35.965L52.5875 35.1647L52.6411 36.4958C52.6706 37.2279 52.7556 37.8067 52.8302 37.7819C52.9048 37.7572 53.9007 37.7367 55.0435 37.7367C57.1191 37.7367 57.1215 37.7361 57.1215 37.3014C57.1215 36.8963 57.0657 36.8709 56.3153 36.9342C54.9185 37.0522 54.9713 37.325 54.9578 29.9197C54.9511 26.3204 54.9982 23.1134 55.0624 22.7928C55.1765 22.2227 55.2005 22.2099 56.1503 22.2099C57.068 22.2099 57.1215 22.1848 57.1215 21.7543V21.2989L53.8239 21.3481C50.6634 21.3955 50.5263 21.4124 50.5263 21.7584C50.5263 22.0648 50.6769 22.1333 51.5202 22.2099L52.5139 22.3002L52.5618 27.687L52.6098 33.074L52.1101 33.9989C51.3573 35.3925 49.7664 36.9379 48.8226 37.1917C47.4307 37.5661 46.7398 37.0361 46.1998 35.1796C45.9598 34.3547 45.9214 33.2402 45.9614 28.2484L46.0091 22.3002L47.0595 22.2455C48.0247 22.1956 48.1051 22.159 48.0533 21.7942C47.9976 21.4041 47.9408 21.3965 44.6991 21.3481L41.4016 21.2989V21.7543ZM37.4264 32.0024C36.6264 32.3878 35.777 33.0314 34.7612 34.0222C33.5033 35.2495 33.2705 35.5673 33.2705 36.0586C33.2705 36.7607 33.6366 37.0017 34.6349 36.9566C35.278 36.9276 35.3485 36.9676 35.3485 37.361C35.3485 37.7857 35.314 37.7963 34.0565 37.7556C31.8923 37.6855 31.5475 37.813 30.7595 38.9771C29.7078 40.5309 26.6464 45.6607 24.8198 48.9305C24.1003 50.2184 22.7854 52.3827 22.2225 53.2059C21.6257 54.0788 21.6047 54.1663 21.9929 54.1663C22.8466 54.1663 29.5185 50.1325 31.914 48.1681C32.7793 47.4585 37.1385 43.1375 37.8714 42.2632C39.134 40.7568 40.8612 37.9005 41.5102 36.2455C42.3983 33.9817 42.1822 32.023 40.9986 31.6109C39.9721 31.2531 38.6909 31.3938 37.4264 32.0024ZM43.952 39.6326C43.0375 39.9177 42.0106 40.8203 41.6526 41.6542C41.5162 41.9716 41.351 43.0483 41.2856 44.0464L41.1664 45.8613H45.1059H49.0451L48.9359 44.0703C48.8758 43.0851 48.7115 42.0038 48.5707 41.667C48.2217 40.8322 46.9691 39.8025 46.009 39.561C45.0456 39.3185 44.9494 39.3219 43.952 39.6326ZM64.7105 39.9679C64.7105 40.4183 64.7594 40.4449 65.5918 40.4449C66.1197 40.4449 66.5558 40.5446 66.6796 40.6935C66.8236 40.867 66.8713 42.0834 66.8373 44.7107C66.79 48.3482 66.7782 48.4572 66.4944 47.8473C65.6152 45.9571 63.06 45.1467 61.0063 46.1065C57.3129 47.8326 55.74 54.6044 57.9737 59.1626C59.3495 61.9704 61.835 63.2225 64.5415 62.471C65.3818 62.2377 66.5687 61.2123 66.9657 60.3763L67.2804 59.714L67.7572 60.7767C68.3857 62.1779 68.4515 62.2667 68.8218 62.2125C69.1175 62.1691 69.1401 61.4636 69.184 50.9446L69.2303 39.7227H68.081C67.4489 39.7227 66.4319 39.6706 65.8212 39.6069C64.7115 39.4909 64.7105 39.4913 64.7105 39.9679ZM73.4405 42.2517C72.6345 42.576 72.399 43.7944 73.0221 44.4169C73.2841 44.6787 73.6243 44.7779 74.259 44.7779C75.3521 44.7779 75.7324 44.4144 75.7324 43.3692C75.7324 42.723 75.6596 42.5831 75.1995 42.3454C74.61 42.0408 74.0397 42.0105 73.4405 42.2517ZM83.2764 45.4795C80.2446 46.4794 78.3098 49.4724 78.1262 53.4463C77.9887 56.4226 78.7259 58.678 80.454 60.5672C83.3914 63.7788 88.3444 63.3958 90.6282 59.7808C90.8827 59.3779 91.091 59.02 91.091 58.9854C91.091 58.9509 90.7211 58.9177 90.2688 58.9116C89.5694 58.9022 89.4028 58.9716 89.1519 59.377C88.3171 60.7256 87.484 61.299 85.9481 61.5828C84.7811 61.7983 83.9406 61.5225 82.9887 60.6116C82.2222 59.8787 81.2862 58.0312 80.9057 56.5019C80.6144 55.3302 80.5084 53.0188 80.7208 52.466C80.8175 52.2137 81.5067 52.1803 86.6132 52.1803H92.3961L92.2759 51.5033C92.0651 50.3146 90.9668 48.2465 90.0093 47.235C88.2763 45.4039 85.6116 44.7092 83.2764 45.4795ZM98.006 45.3293C96.2023 45.685 94.7367 46.7466 94.3241 47.9962C94.0102 48.9464 94.2462 50.8094 94.8253 51.9532C95.4785 53.2433 96.7577 54.3815 99.7668 56.35C101.415 57.4281 102.22 58.2354 102.413 59.0016C102.702 60.1528 101.006 61.6014 99.3757 61.5963C97.1386 61.5893 95.0761 59.4523 94.7746 56.8294C94.6612 55.8448 94.6292 55.7913 94.1554 55.7913H93.656L93.6514 58.8987C93.6486 60.6078 93.6793 62.0592 93.7196 62.1243C93.7598 62.1892 93.9979 62.2033 94.2487 62.1553C94.6325 62.0819 94.7047 61.9685 94.7047 61.4383V60.8082L95.2016 61.3394C96.2718 62.4834 98.8489 63.0324 101.015 62.5783C103.281 62.1035 104.294 61.1111 104.56 59.1079C104.832 57.0646 103.833 55.6842 100.439 53.4126C97.7918 51.6402 96.9096 50.858 96.4884 49.9104C95.3993 47.4592 98.9242 45.1124 101.032 46.885C101.851 47.5736 102.658 49.4323 102.782 50.9198C102.887 52.1637 102.895 52.1803 103.408 52.1803H103.928L103.879 48.9757L103.829 45.771L103.333 45.714C102.935 45.6681 102.836 45.7299 102.836 46.0244C102.836 46.382 102.818 46.3803 102.199 45.9601C101.142 45.2438 99.6091 45.0133 98.006 45.3293ZM70.9743 45.8011C70.908 45.8672 70.8538 46.0664 70.8538 46.2436C70.8538 46.5086 71.0367 46.575 71.8928 46.6196L72.9317 46.6738L72.9791 53.8836C73.0161 59.5316 72.9769 61.1248 72.7984 61.238C72.673 61.3176 72.1785 61.3838 71.6995 61.3854C70.9005 61.388 70.8334 61.4215 70.8863 61.7944C70.9275 62.0831 71.0619 62.1967 71.3508 62.1878C71.5745 62.1806 73.0582 62.1604 74.6484 62.1427C77.4082 62.1118 77.5393 62.094 77.5393 61.7493C77.5393 61.4383 77.4187 61.3881 76.6721 61.3881C76.195 61.3881 75.7072 61.2907 75.5878 61.1714C75.2766 60.8605 75.2766 47.1111 75.5878 46.8002C75.7072 46.6809 76.195 46.5835 76.6721 46.5835C77.4766 46.5835 77.5393 46.5508 77.5393 46.132V45.6807H74.3171C72.5447 45.6807 71.0405 45.7349 70.9743 45.8011ZM84.4134 46.507C83.0254 47.1088 81.66 48.6837 81.0646 50.3697L80.8079 51.0971H85.4073C88.9655 51.0971 90.0072 51.046 90.0087 50.8714C90.0098 50.7474 89.8281 50.127 89.6054 49.4931C88.7054 46.9329 86.4386 45.6293 84.4134 46.507ZM33.3609 47.4447C32.6326 48.1145 30.0223 50.1198 28.5728 51.1229C26.9572 52.2411 24.4519 53.6038 22.136 54.6239C21.126 55.0689 20.9084 55.2742 19.636 56.9834C18.1802 58.9392 17.8849 59.2849 16.0296 61.2077C14.9009 62.3773 13.2394 63.8545 12.693 64.1746C12.5348 64.2671 12.2579 64.4802 12.0778 64.6477C11.7654 64.9388 11.7856 64.9666 12.5248 65.2621C13.3901 65.608 15.1524 66.2008 17.1893 66.8306C19.1342 67.4321 22.4748 67.4306 24.4169 66.8274C27.0621 66.006 30.2993 64.104 32.311 62.1901C33.2383 61.3078 33.2705 61.2442 33.2705 60.304C33.2705 59.7688 33.3483 58.4329 33.4431 57.3355C33.5382 56.2379 33.7017 54.0806 33.8065 52.5415C33.9113 51.0023 34.0453 49.1132 34.1043 48.3438C34.1633 47.5743 34.1422 46.945 34.0574 46.9454C33.9723 46.9459 33.659 47.1705 33.3609 47.4447ZM39.5907 47.095C39.157 47.2429 39.5302 49.8333 39.9852 49.8333C40.0684 49.8333 40.1368 51.4445 40.1368 53.4137V56.9941L40.5823 57.2324C40.9437 57.4255 41.0804 57.4271 41.3051 57.2407C41.5373 57.0483 41.5823 56.4273 41.5823 53.4221C41.5823 51.0337 41.6459 49.8333 41.7722 49.8333C42.1217 49.8333 42.5169 48.5656 42.3939 47.8385L42.2782 47.1536L41.0227 47.0942C40.3322 47.0615 39.6879 47.0618 39.5907 47.095ZM49.1327 47.0881L47.9197 47.1413L47.8029 47.7638C47.655 48.5512 47.8163 49.2015 48.2723 49.6572C48.6031 49.9877 48.6291 50.2696 48.6291 53.5282C48.6291 56.8576 48.6481 57.0526 48.9906 57.2357C49.2473 57.3729 49.4565 57.3729 49.7132 57.2357C50.0561 57.0524 50.0747 56.8576 50.0747 53.4379C50.0747 51.4553 50.1429 49.8333 50.2262 49.8333C50.7191 49.8333 51.0471 47.235 50.5715 47.0993C50.4474 47.0639 49.7998 47.0589 49.1327 47.0881ZM62.0905 47.1168C61.1877 47.4898 60.1985 49.2014 59.7261 51.207C59.1683 53.5756 59.5864 57.5504 60.5974 59.4924C61.0097 60.2842 61.9267 61.1823 62.4594 61.3159C64.0518 61.7153 65.8506 60.4439 66.549 58.4255C66.8045 57.6868 66.8681 56.8819 66.8727 54.3225C66.8798 50.5481 66.6872 49.7204 65.4936 48.3938C64.3456 47.1178 63.1621 46.6739 62.0905 47.1168ZM40.3463 47.8075C40.2311 47.846 40.1368 48.1535 40.1368 48.4908C40.1368 48.9945 40.2175 49.1245 40.5881 49.2174C41.2986 49.3956 41.5823 49.1923 41.5823 48.5053C41.5823 47.9655 41.5181 47.8789 41.0691 47.813C40.7869 47.7716 40.4617 47.769 40.3463 47.8075ZM48.7748 47.8633C48.2779 48.141 48.7733 49.4721 49.3736 49.4721C49.9164 49.4721 50.3822 47.866 49.8487 47.8333C49.7246 47.8258 49.4946 47.7946 49.3378 47.7637C49.1811 47.7329 48.9276 47.7778 48.7748 47.8633ZM43.8689 49.2608C43.4856 49.6837 43.4921 49.8875 43.9003 50.2567C44.3404 50.6545 45.9645 50.6645 46.3577 50.2718C46.7897 49.84 46.7077 49.3079 46.1781 49.1065C45.401 48.8114 44.2035 48.8913 43.8689 49.2608ZM3.72798 63.75C2.13105 64.1346 0.927302 64.9079 0.927302 65.549C0.927302 66.5834 4.6522 66.9 7.2514 66.0865C7.99675 65.8532 8.73486 65.5539 8.89188 65.421C9.04872 65.2882 9.31307 65.1797 9.47912 65.1797C9.99463 65.1797 9.81231 64.887 9.10346 64.5767C7.4545 63.8551 4.91384 63.4644 3.72798 63.75ZM31.1024 67.978V69.8737H32.3269C34.0908 69.8737 34.7883 69.2717 34.1055 68.3386C33.948 68.1233 33.8907 67.7432 33.9496 67.3039C34.0761 66.3624 33.699 66.0955 32.2316 66.0881L31.1024 66.0823V67.978ZM34.717 67.4815C34.7177 68.6827 34.7786 68.9565 35.1468 69.4165C35.5148 69.8759 35.6884 69.948 36.3657 69.9217C37.6054 69.8737 37.9685 69.3288 37.9685 67.5166C37.9685 66.3619 37.9155 66.0823 37.6975 66.0823C37.4814 66.0823 37.4264 66.3486 37.4264 67.3962C37.4264 68.9498 37.1382 69.5127 36.3423 69.5127C35.5463 69.5127 35.2581 68.9498 35.2581 67.3962C35.2581 66.3486 35.2033 66.0823 34.9872 66.0823C34.7694 66.0823 34.7162 66.3578 34.717 67.4815ZM38.3299 66.3171C38.3299 66.4462 38.4038 66.629 38.494 66.7233C38.9527 67.2029 39.5947 68.6658 39.5947 69.2314C39.5947 69.682 39.6756 69.8737 39.8657 69.8737C40.0553 69.8737 40.1368 69.6827 40.1368 69.2385C40.1368 68.8155 40.3795 68.2043 40.8638 67.4076C41.2639 66.7496 41.5505 66.1708 41.5009 66.1212C41.3446 65.9651 40.894 66.4432 40.3948 67.2943L39.9137 68.1148L39.5457 67.5047C39.3434 67.1692 39.0664 66.7121 38.9304 66.4886C38.6585 66.0422 38.3299 65.9483 38.3299 66.3171ZM43.8763 66.4043C43.7077 66.5903 43.5699 66.961 43.5699 67.2279C43.5699 67.7198 43.661 67.7839 45.2412 68.4065C45.8758 68.6564 45.9161 69.2807 45.3073 69.4332C45.0707 69.4926 44.5834 69.4603 44.2247 69.3614C43.4847 69.1572 43.1775 69.3869 43.7683 69.7026C44.7804 70.2441 46.2802 69.8057 46.2802 68.9686C46.2802 68.3744 45.8777 68.0156 44.8984 67.7367C44.0459 67.494 43.813 67.129 44.239 66.7034C44.4637 66.4788 44.7177 66.439 45.3351 66.5315C45.9611 66.6254 46.1215 66.5988 46.06 66.4123C46.0117 66.2663 45.6291 66.1517 45.0819 66.1193C44.3864 66.078 44.1134 66.1424 43.8763 66.4043ZM46.7878 66.2177C46.757 66.2923 46.7319 67.125 46.7319 68.0683V69.7836L48.1323 69.8363C49.0167 69.8696 49.5326 69.8197 49.5326 69.7009C49.5326 69.5913 49.0799 69.5127 48.4484 69.5127C47.6153 69.5127 47.3591 69.45 47.3417 69.2418C47.2643 68.3135 47.2387 68.3411 48.2226 68.2847C48.9051 68.2453 49.1712 68.1567 49.1712 67.9687C49.1712 67.7753 48.9359 67.7073 48.2678 67.7073C47.3844 67.7073 47.3643 67.6951 47.3643 67.1655C47.3643 66.6294 47.3744 66.6239 48.3582 66.6239C49.1209 66.6239 49.3519 66.5611 49.3519 66.3532C49.3519 66.1384 49.0921 66.0823 48.0978 66.0823C47.4079 66.0823 46.8184 66.1432 46.7878 66.2177ZM50.054 66.8346C50.0428 67.2649 50.0272 68.1044 50.0197 68.7002L50.0058 69.7836L51.305 69.8366C52.1209 69.8699 52.6043 69.8194 52.6043 69.7011C52.6043 69.4867 52.6386 69.4941 51.4298 69.4531L50.5263 69.4224V67.8129C50.5263 66.6857 50.4586 66.1805 50.3006 66.1276C50.1448 66.0756 50.0683 66.2954 50.054 66.8346ZM52.9055 66.2027C52.8392 66.2688 52.785 67.1219 52.785 68.0984V69.8737H54.4111C55.7067 69.8737 56.0374 69.8208 56.0374 69.6137C56.0374 69.2644 55.7116 69.0826 55.4421 69.2812C55.3223 69.3697 54.8178 69.4377 54.3208 69.4324L53.4174 69.4224L53.3654 67.7524C53.3175 66.2097 53.2215 65.8867 52.9055 66.2027ZM58.2604 66.2984C57.6822 66.5776 57.241 67.6195 57.367 68.4081C57.547 69.5344 58.9732 70.2938 59.9992 69.8099C60.536 69.5565 60.7869 69.0155 60.263 69.2406C59.4102 69.6073 58.7766 69.558 58.3063 69.0881C57.1455 67.9283 58.3512 66.0112 59.851 66.6319C60.4904 66.8966 60.7881 66.6994 60.2939 66.3383C59.8877 66.0415 58.8351 66.021 58.2604 66.2984ZM61.5908 66.4895C60.6143 67.2817 60.6573 68.8156 61.677 69.5711C63.0667 70.6005 65.1361 69.3401 64.8202 67.6566C64.5547 66.2424 62.7149 65.5775 61.5908 66.4895ZM65.4332 67.963C65.4332 69.1166 65.5047 69.8737 65.6138 69.8737C65.7167 69.8737 65.7945 69.3422 65.7945 68.6401C65.7945 67.9614 65.8458 67.355 65.9085 67.2924C65.9713 67.2297 66.5072 67.7848 67.0993 68.526C67.6915 69.2674 68.2906 69.8737 68.4309 69.8737C68.6339 69.8737 68.6856 69.4892 68.6856 67.978C68.6856 66.4133 68.6382 66.0823 68.4145 66.0823C68.1995 66.0823 68.1436 66.3431 68.1436 67.3461C68.1436 68.2421 68.0777 68.6071 67.9177 68.6C67.7936 68.5946 67.2853 68.0523 66.7884 67.3945C66.2914 66.7369 65.7834 66.1659 65.659 66.1255C65.4879 66.07 65.4332 66.5156 65.4332 67.963ZM69.4215 66.5581C69.2155 66.8196 69.0469 67.104 69.0469 67.19C69.0469 67.5193 69.7819 68.0576 70.4923 68.2489C71.311 68.4691 71.5609 68.8257 71.2004 69.2598C70.9599 69.5494 70.0317 69.5452 69.3632 69.2518C69.1641 69.1644 69.0469 69.1904 69.0469 69.322C69.0469 69.6469 70.2997 70.0963 70.8343 69.9631C71.4915 69.7992 71.938 69.3519 71.938 68.8569C71.938 68.3897 71.4811 68.0411 70.4347 67.7092C69.0734 67.2775 69.5258 66.3187 70.9893 66.5333C71.4351 66.5988 71.7573 66.5737 71.7573 66.4738C71.7573 66.2264 71.2909 66.0823 70.4908 66.0823C69.9553 66.0823 69.7101 66.1913 69.4215 66.5581ZM72.402 67.926C72.4301 69.3571 72.4952 69.7836 72.6852 69.7836C72.877 69.7836 72.9317 69.3833 72.9317 67.9804C72.9317 66.487 72.8831 66.1681 72.6486 66.123C72.4045 66.0761 72.3705 66.3247 72.402 67.926ZM74.0222 66.6428C73.4913 67.1083 73.3836 67.3247 73.3836 67.9237C73.3836 69.3841 74.6311 70.2872 76.0203 69.8324C76.6939 69.612 76.7263 69.5663 76.7263 68.8349C76.7263 67.9058 76.3889 67.7245 76.3051 68.6083C76.2719 68.955 76.1501 69.2991 76.034 69.3729C75.5878 69.6564 74.8361 69.5033 74.3655 69.0332C73.9574 68.6254 73.9003 68.4446 73.9834 67.8246C74.1402 66.6564 75.0803 66.1543 76.1764 66.6532C76.4299 66.7687 76.6979 66.8027 76.7719 66.7289C77.0242 66.4767 76.2073 66.0823 75.4333 66.0823C74.827 66.0823 74.5235 66.2029 74.0222 66.6428ZM77.5393 67.978C77.5393 69.5185 77.5886 69.8737 77.8028 69.8737C78.0054 69.8737 78.0784 69.562 78.1189 68.5229L78.1717 67.1721L79.2535 68.5229C79.8485 69.2659 80.4408 69.8737 80.5698 69.8737C80.8975 69.8737 80.8058 66.2365 80.4755 66.1272C80.308 66.0715 80.2481 66.4175 80.2438 67.4666L80.2383 68.8808L79.8373 68.4189C79.0783 67.5445 78.1715 66.4006 78.1115 66.2415C78.0784 66.154 77.9361 66.0823 77.7954 66.0823C77.5907 66.0823 77.5393 66.4629 77.5393 67.978ZM31.5842 66.5638C31.5179 66.6299 31.4637 66.9142 31.4637 67.1958C31.4637 67.6875 31.4977 67.7073 32.345 67.7073C33.4108 67.7073 33.7491 67.4131 33.3456 66.8373C33.1446 66.5507 32.8835 66.4435 32.3869 66.4435C32.0117 66.4435 31.6504 66.4975 31.5842 66.5638ZM61.9549 66.8253C61.5461 67.1302 61.4581 67.3345 61.4581 67.9801C61.4581 68.6206 61.549 68.8358 61.9549 69.1548C62.9305 69.9217 64.3557 69.2342 64.3432 68.0031C64.337 67.3671 64.0856 66.9636 63.5027 66.6533C62.9408 66.3544 62.5245 66.4006 61.9549 66.8253ZM31.4974 68.8356C31.5477 69.3572 31.6221 69.4289 32.1662 69.4809C33.2325 69.5825 33.632 69.3936 33.632 68.7871C33.632 68.249 33.6315 68.2489 32.5365 68.2489H31.4408L31.4974 68.8356ZM41.7012 69.2734C41.6358 69.3388 41.5823 69.5005 41.5823 69.6331C41.5823 69.9019 42.0481 69.9625 42.2021 69.7136C42.3251 69.5148 41.8645 69.1102 41.7012 69.2734ZM81.3339 69.4977C81.3339 69.7194 81.4505 69.8737 81.618 69.8737C81.7864 69.8737 81.8786 69.751 81.8439 69.5728C81.7561 69.1199 81.3339 69.0577 81.3339 69.4977ZM31.1024 73.2138V75.1095H32.505C33.7863 75.1095 33.923 75.0743 34.086 74.7033C34.2366 74.3607 34.427 74.2887 35.3031 74.243C36.2653 74.1928 36.3573 74.2228 36.5518 74.6491C36.7398 75.0617 37.2656 75.3127 37.2326 74.9742C37.1843 74.4837 35.4833 71.4084 35.2602 71.4084C35.0967 71.4084 34.7418 71.9784 34.3567 72.8595C34.0079 73.6574 33.6565 74.409 33.5761 74.5294C33.4914 74.6564 33.0167 74.7485 32.4468 74.7485H31.4637V73.0334C31.4637 72.0102 31.3907 71.3181 31.2829 71.3181C31.174 71.3181 31.1024 72.0704 31.1024 73.2138ZM37.0651 71.4232C37.0651 71.481 37.3407 71.9981 37.6774 72.5723C38.0142 73.1465 38.3467 73.9523 38.4161 74.363C38.5509 75.1596 38.8578 75.3786 38.8932 74.7033C38.9052 74.48 38.9038 74.2323 38.8904 74.1531C38.877 74.0738 39.1998 73.4379 39.608 72.7399C40.6309 70.9896 40.3829 70.7948 39.2495 72.4588L38.657 73.3285L38.0278 72.3234C37.4856 71.457 37.0651 71.0639 37.0651 71.4232ZM41.8081 71.4377C41.684 71.4879 41.5823 71.6083 41.5823 71.7053C41.5823 71.8024 41.257 72.5723 40.8595 73.4161C40.0399 75.1559 40.0531 75.1095 40.3787 75.1095C40.5119 75.1095 40.7136 74.9065 40.8267 74.6582C41.0102 74.2557 41.141 74.2069 42.034 74.2069C42.9269 74.2069 43.0577 74.2557 43.2414 74.6582C43.3545 74.9065 43.5561 75.1095 43.6892 75.1095C44.0116 75.1095 44.0233 75.1547 43.2777 73.5431C42.9183 72.7661 42.5543 71.9476 42.4692 71.7244C42.3122 71.3138 42.2175 71.2727 41.8081 71.4377ZM43.9312 71.462C43.9312 71.5576 44.1843 72.4175 44.4939 73.3727C45.2073 75.5745 45.4763 75.6458 46.1084 73.8006C46.3548 73.0807 46.6347 72.5062 46.7301 72.5237C46.8562 72.5469 47.6685 74.6316 47.7203 75.0645C47.7234 75.0893 47.868 75.1089 48.0419 75.1077C48.2813 75.1065 48.5053 74.6656 48.9649 73.2916C49.2984 72.2938 49.5207 71.4267 49.4587 71.3647C49.2676 71.1738 49.0515 71.5406 48.6374 72.7582C48.0376 74.5226 48.0177 74.5286 47.555 73.084C46.8581 70.9084 46.592 70.8779 45.9272 72.8979C45.6902 73.6178 45.4463 74.2069 45.385 74.2069C45.3238 74.2069 45.0734 73.5836 44.8283 72.8219C44.5834 72.0602 44.2813 71.4034 44.1571 71.3624C44.033 71.3215 43.9312 71.3664 43.9312 71.462ZM50.7423 72.2547C49.3569 75.2911 49.4183 75.1095 49.7746 75.1095C49.9077 75.1095 50.1093 74.9065 50.2224 74.6582C50.4061 74.2557 50.5369 74.2069 51.4298 74.2069C52.3228 74.2069 52.4536 74.2557 52.6371 74.6582C52.7502 74.9065 52.9605 75.1095 53.1044 75.1095C53.2481 75.1095 53.3214 75.0081 53.2673 74.8839C52.0199 72.0259 51.6997 71.3995 51.4618 71.3521C51.2726 71.3144 51.0361 71.6111 50.7423 72.2547ZM53.1465 71.4535C53.1465 71.5281 53.4718 72.1171 53.8691 72.7625C54.3228 73.4992 54.5917 74.1545 54.5917 74.5228C54.5919 74.8456 54.6731 75.1095 54.7726 75.1095C54.8719 75.1095 54.9533 74.8505 54.9533 74.5336C54.9533 74.1782 55.2393 73.4848 55.7002 72.7224C56.1111 72.0428 56.4011 71.4409 56.3447 71.3843C56.1725 71.2125 55.8807 71.4844 55.5845 72.093C55.1841 72.9155 54.746 73.4338 54.6546 73.1933C54.3022 72.2668 53.146 70.9329 53.1465 71.4535ZM59.4998 71.9834C58.9427 73.0754 58.1981 74.9815 58.2917 75.0755C58.4297 75.2132 58.9283 74.7276 58.9283 74.4556C58.9283 74.2718 59.2128 74.2069 60.017 74.2069C61.0119 74.2069 61.1203 74.2456 61.2774 74.6582C61.3719 74.9065 61.5742 75.1095 61.7271 75.1095C61.9708 75.1095 61.9746 75.0378 61.7574 74.5228C61.1693 73.1281 60.2579 71.4299 60.0629 71.365C59.9466 71.3263 59.693 71.6044 59.4998 71.9834ZM62.2454 71.5914C62.1875 71.7417 62.1725 72.4327 62.2116 73.1271C62.302 74.725 62.6869 75.2016 63.8505 75.1567C64.4363 75.1342 64.7189 75.0127 65.0339 74.6484C65.3982 74.2272 65.4416 74.0094 65.3952 72.8329C65.3261 71.0653 65.0062 71.0324 64.8911 72.7809C64.7901 74.3151 64.5488 74.7485 63.7951 74.7485C63.0121 74.7485 62.7229 74.1775 62.7229 72.632C62.7229 71.3986 62.5031 70.9198 62.2454 71.5914ZM65.7344 71.4385C65.4643 71.7082 65.6485 71.8597 66.2462 71.8597H66.8786V73.4847C66.8786 74.8086 66.9289 75.1095 67.1497 75.1095C67.3706 75.1095 67.4208 74.8086 67.4208 73.4847V71.8597H68.0532C68.4948 71.8597 68.6856 71.7782 68.6856 71.589C68.6856 71.3713 68.4078 71.3181 67.2703 71.3181C66.4916 71.3181 65.8005 71.3723 65.7344 71.4385ZM69.0469 73.2138C69.0469 74.3573 69.1187 75.1095 69.2277 75.1095C69.3271 75.1095 69.4084 74.7402 69.4084 74.2884V73.4675L70.5377 73.5212L71.6669 73.575L71.7224 74.3423C71.7608 74.8738 71.8601 75.1095 72.0449 75.1095C72.2665 75.1095 72.3032 74.7944 72.2605 73.259C72.2088 71.4007 71.8998 70.6863 71.7922 72.1757L71.7365 72.9431H70.5726H69.4084V72.1306C69.4084 71.6837 69.3271 71.3181 69.2277 71.3181C69.1187 71.3181 69.0469 72.0704 69.0469 73.2138ZM73.1501 71.4311C73.0796 71.5014 73.0221 72.3577 73.0221 73.3343V75.1095H74.3773C75.1602 75.1095 75.7324 75.0333 75.7324 74.9291C75.7324 74.8287 75.2506 74.7485 74.6484 74.7485H73.5641V74.1166V73.4847H74.4676C75.1503 73.4847 75.3711 73.4185 75.3711 73.2138C75.3711 73.0093 75.1503 72.9431 74.4676 72.9431C73.5842 72.9431 73.5641 72.9309 73.5641 72.4015V71.8597H74.6634C75.4621 71.8597 75.7422 71.7981 75.688 71.6341C75.6066 71.3881 73.372 71.2093 73.1501 71.4311ZM76.2745 73.2138C76.2745 74.7786 76.3219 75.1095 76.5456 75.1095C76.7612 75.1095 76.8165 74.8453 76.8165 73.8144V72.5189L77.2847 72.9567C77.5423 73.1975 78.0369 73.7804 78.3842 74.252C79.3765 75.5996 79.549 75.4443 79.4881 73.259C79.4276 71.0861 79.1174 70.7768 78.9848 72.757L78.8945 74.1059L78.2646 73.2988C77.9183 72.8549 77.5524 72.3992 77.4515 72.2862C77.3507 72.1731 77.1268 71.909 76.9538 71.6995C76.3827 71.0068 76.2745 71.2483 76.2745 73.2138ZM79.8015 71.4929C79.6749 71.6974 79.9039 71.8116 80.6111 71.8961C81.0533 71.949 81.0628 71.9825 81.0628 73.4847C81.0628 74.6892 81.1179 75.0194 81.3191 75.0194C81.5146 75.0194 81.5831 74.6989 81.6079 73.6653C81.6522 71.8152 81.6249 71.8894 82.2824 71.826C82.6055 71.795 82.8696 71.6882 82.8696 71.589C82.8696 71.3411 79.9519 71.2496 79.8015 71.4929ZM83.1407 73.1988C83.1407 74.7963 83.1862 75.1095 83.418 75.1095C83.6526 75.1095 83.6875 74.8262 83.644 73.2737C83.6083 72.0036 83.5228 71.4148 83.3665 71.363C83.1954 71.3062 83.1407 71.7507 83.1407 73.1988ZM85.3166 71.4503C85.1714 71.5072 84.8563 71.7359 84.6161 71.9585C83.8257 72.6908 84.075 74.4141 85.0467 74.9337C85.648 75.2554 86.9042 75.2178 87.2545 74.8676C87.6258 74.4969 87.4405 74.2976 86.9625 74.5534C85.7867 75.1821 84.3981 74.2097 84.6747 72.9511C84.8689 72.0676 85.3438 71.7942 86.4806 71.9114C87.5347 72.0201 87.8168 71.7993 87.0138 71.4941C86.5132 71.304 85.7393 71.284 85.3166 71.4503ZM89.1486 71.4501C89.0244 71.4932 88.9227 71.605 88.9227 71.6981C88.9227 71.7914 88.5975 72.5644 88.1999 73.4162C87.3774 75.1787 87.3969 75.1095 87.7191 75.1095C87.8523 75.1095 88.054 74.9065 88.1671 74.6582C88.3507 74.2557 88.4814 74.2069 89.3744 74.2069C90.2673 74.2069 90.3983 74.2557 90.5818 74.6582C90.6949 74.9065 90.8966 75.1095 91.0298 75.1095C91.3377 75.1095 91.3618 75.2138 90.7183 73.7502C90.4137 73.058 90.0716 72.2705 89.9577 72.0001C89.7367 71.4755 89.5125 71.3232 89.1486 71.4501ZM91.091 71.5817C91.091 71.7803 91.2756 71.8597 91.737 71.8597C92.3292 71.8597 92.3804 71.9011 92.3502 72.3563C92.3324 72.6294 92.3261 73.3607 92.3367 73.9812C92.3515 74.8554 92.4169 75.1095 92.6268 75.1095C92.8476 75.1095 92.8979 74.8086 92.8979 73.4847V71.8597H93.5453C93.9827 71.8597 94.1685 71.7865 94.1181 71.6341C94.0683 71.484 93.5481 71.3909 92.5672 71.3561C91.3355 71.3122 91.091 71.3496 91.091 71.5817ZM94.4714 71.4311C94.4008 71.5014 94.3434 72.3577 94.3434 73.3343V75.1095H95.6986C96.4814 75.1095 97.0537 75.0333 97.0537 74.9291C97.0537 74.8287 96.5718 74.7485 95.9695 74.7485H94.8855V74.1166V73.4847H95.7889C96.4716 73.4847 96.6923 73.4185 96.6923 73.2138C96.6923 73.0093 96.4716 72.9431 95.7889 72.9431C94.9089 72.9431 94.8855 72.9291 94.8855 72.4104C94.8855 71.8915 94.9113 71.8764 95.8814 71.8236C96.4291 71.7939 96.8965 71.6882 96.9204 71.589C96.9695 71.3824 94.6685 71.2342 94.4714 71.4311ZM34.8476 72.8244C34.6759 73.2394 34.5353 73.6383 34.5353 73.7109C34.5353 73.7836 34.8607 73.8304 35.2581 73.8148C36.0622 73.7835 36.0886 73.7305 35.7284 72.869C35.3604 71.9891 35.1969 71.9808 34.8476 72.8244ZM41.5868 72.8421C41.3855 73.3114 41.2208 73.7291 41.2208 73.7704C41.2208 73.8867 42.5925 73.8595 42.7113 73.7409C42.8126 73.6396 42.2991 72.3354 42.0665 72.103C42.004 72.0403 41.788 72.3731 41.5868 72.8421ZM88.9646 72.8008C88.7635 73.2264 88.6357 73.6357 88.6812 73.7104C88.7777 73.8692 89.8983 73.8941 90.0517 73.7409C90.1483 73.6443 89.6441 72.3398 89.4258 72.1217C89.3734 72.0694 89.1659 72.375 88.9646 72.8008ZM50.9074 72.9466C50.7475 73.3458 50.6167 73.7115 50.6167 73.7591C50.6167 73.8068 50.9419 73.8457 51.3395 73.8457C51.8247 73.8457 52.0622 73.766 52.0622 73.6028C52.0622 73.2598 51.5236 72.2209 51.3459 72.2209C51.2644 72.2209 51.0672 72.5475 50.9074 72.9466ZM59.5942 72.8589C59.164 73.7603 59.2001 73.8457 60.0125 73.8457C60.41 73.8457 60.7353 73.7744 60.7353 73.6873C60.7353 73.3828 60.187 72.2209 60.0436 72.2209C59.9639 72.2209 59.7617 72.508 59.5942 72.8589ZM56.495 74.5584C56.336 74.8153 56.5388 75.1095 56.8743 75.1095C57.0326 75.1095 57.1233 74.9827 57.0895 74.8086C57.0192 74.4458 56.6583 74.2942 56.495 74.5584ZM97.5356 74.5078C97.3155 74.7277 97.4111 75.1095 97.6862 75.1095C97.8366 75.1095 97.9571 74.9491 97.9571 74.7485C97.9571 74.3888 97.7645 74.2789 97.5356 74.5078Z" fill="#625E56"/>
</svg>
