<svg width="161" height="27" viewBox="0 0 161 27" fill="none" xmlns="http://www.w3.org/2000/svg">
<mask id="mask0_1600_651" style="mask-type:luminance" maskUnits="userSpaceOnUse" x="0" y="0" width="161" height="27">
<path d="M160.669 0.425903H0.565918V26.0424H160.669V0.425903Z" fill="white"/>
</mask>
<g mask="url(#mask0_1600_651)">
<mask id="mask1_1600_651" style="mask-type:luminance" maskUnits="userSpaceOnUse" x="0" y="0" width="161" height="26">
<path d="M160.67 0.883423H0.565918V25.5851H160.67V0.883423Z" fill="white"/>
</mask>
<g mask="url(#mask1_1600_651)">
<path fill-rule="evenodd" clip-rule="evenodd" d="M0.565918 1.27353H4.54234V25.1955H0.565918V1.27353ZM32.7828 16.5725L16.6288 0.90477V25.195H20.4522V9.6323L36.6062 25.5648V1.27353H32.7828V16.5725ZM57.3582 11.8705L53.5739 10.4675C51.6238 9.76733 50.5143 9.06501 50.5143 7.31246C50.5143 5.36459 52.274 4.42908 54.6438 4.42908C57.3963 4.42908 59.5381 5.48093 61.4872 7.0008V2.8313C59.6146 1.58519 57.2057 0.883423 54.5673 0.883423C50.2467 0.883423 46.653 3.18191 46.653 7.38984C46.653 11.3245 49.0233 13.0392 52.1584 14.208L55.5611 15.4551C57.6639 16.2732 58.8493 17.0139 58.8493 18.8833C58.8493 21.026 56.9756 22.0005 54.2991 22.0005C51.5472 22.0005 48.9847 20.9881 46.8434 19.2339V23.4809C48.4881 24.6501 51.164 25.5851 54.2991 25.5851C59.0794 25.5851 62.7107 23.1686 62.7107 18.8054C62.7107 15.3382 61.0291 13.234 57.3582 11.8705ZM71.6688 1.27353H75.6447V25.1955H71.6688V1.27353ZM96.9338 1.27406H87.929V25.1955H96.9338C103.854 25.1955 108.328 20.5201 108.328 13.234C108.328 5.94896 103.854 1.27406 96.9338 1.27406ZM96.781 21.573H91.9056V4.85815H96.781C101.711 4.85815 104.351 8.09161 104.351 13.234C104.351 18.3374 101.712 21.573 96.781 21.573ZM117.352 25.1955H131.593V21.573H121.251V14.1594H130.522V10.6137H121.251V4.85761H131.593V1.27353H117.352V25.1955ZM152.23 15.3382C155.938 14.7539 157.687 12.4549 157.687 8.44169C157.687 3.7668 154.553 1.27353 149.697 1.27353H141.18V25.1955H145.156V15.4941H147.986L156.158 25.1955H160.67L152.23 15.3382ZM145.156 12.1042V4.7797H149.62C152.257 4.7797 153.749 6.22112 153.749 8.44169C153.749 10.6628 152.257 12.1042 149.62 12.1042H145.156Z" fill="#625E56"/>
</g>
</g>
</svg>
