<svg width="116" height="44" viewBox="0 0 116 44" fill="none" xmlns="http://www.w3.org/2000/svg">
<path fill-rule="evenodd" clip-rule="evenodd" d="M0.338867 15.0389V29.1528H2.11726H3.89566V19.9218V10.6901L12.343 19.8768L20.7905 29.0629L23.8374 29.1079L26.8844 29.1528L28.245 25.4083L29.6054 21.6638H35.3752H41.1455L42.4277 25.4083L43.71 29.1528H46.9223H50.1341V22.816V16.4791H54.1753H58.2163L59.281 20.8665C61.392 29.5692 61.1656 29.1528 63.7964 29.1528C65.0852 29.1528 66.1397 28.942 66.1397 28.685C66.1397 28.2327 63.1491 19.5432 62.2865 17.4873C61.9201 16.6144 62.226 16.4791 64.5664 16.4791C69.7707 16.4791 71.7969 14.3465 71.3843 9.30235L71.1702 6.68581H75.4722H79.7741V17.9193V29.1528H81.5525H83.3309V17.9193V6.68581H87.7622H92.1933L91.8518 8.34376C91.2632 11.2057 93.3926 14.7267 98.1853 18.8145C100.58 20.8567 104.086 23.9773 105.977 25.7482C109.148 28.719 109.414 29.166 109.414 31.5182C109.414 32.9203 108.917 34.9705 108.31 36.0749C107.006 38.4443 103.728 40.5637 102.785 39.6471C102.353 39.2272 102.681 38.7848 103.864 38.1896C106.439 36.8958 107.703 35.2431 108.053 32.7135C108.552 29.0899 106.374 26.2557 102.193 25.0903C100.268 24.5539 99.9359 25.3507 101.702 26.269C103.534 27.2218 104.834 30.1476 104.407 32.3563C104.097 33.9624 100.797 37.6845 100.204 37.0974C99.8131 36.7109 100.707 33.7614 101.215 33.7614C101.785 33.7614 103.486 30.2778 103.486 29.1095C103.486 28.7489 103.1 28.5975 102.627 28.7737C102.103 28.969 101.621 28.6436 101.391 27.9384C100.867 26.3346 97.4948 24.8662 95.4697 25.3599C93.3374 25.8801 90.4445 28.7357 90.4445 30.3204C90.4445 31.5106 90.5542 31.483 92.5401 29.7888C95.0909 27.6124 96.9594 27.526 99.1551 29.4828L100.819 30.9656L99.1883 30.6241C98.292 30.4368 97.5581 30.5054 97.5581 30.7773C97.5581 31.0498 98.292 31.6069 99.1883 32.0164C100.128 32.445 100.505 32.8708 100.078 33.0206C99.6703 33.164 99.3365 33.6605 99.3365 34.1237C99.3365 34.5869 98.6489 35.6342 97.8089 36.4505C96.0572 38.1528 96.3441 38.6632 99.7071 39.828L102.004 40.6236L100.048 40.649C96.3749 40.6967 94.0601 38.912 93.1868 35.3606L92.801 33.7919L94.8834 34.9855C97.3329 36.3906 97.5178 36.0058 95.5082 33.6847C94.7067 32.759 94.2017 31.6201 94.3861 31.1534C94.5817 30.658 94.3795 30.305 93.9 30.305C92.5852 30.305 90.5116 31.9641 89.537 33.7965C88.6507 35.4613 89.0265 36.0611 90.2258 34.8956C90.6461 34.4873 90.7546 34.8502 90.5726 36.0559C89.3075 44.432 101.697 46.2121 110.282 38.8867C113.034 36.5386 114.157 34.114 114.157 30.5181C114.157 26.7407 112.185 23.7682 106.816 19.4528C101.433 15.1253 99.9293 13.1879 99.9293 10.5778C99.9293 7.83854 101.531 7.26189 109.146 7.26189H115.342V4.09347V0.925049H107.981C100.118 0.925049 96.6933 1.76554 94.0381 4.34579L92.8157 5.53366V3.22935V0.925049H81.5525H70.2893V2.45453C70.2893 3.859 70.2046 3.91316 69.2519 3.11241C67.2079 1.39397 64.1616 0.925049 55.0519 0.925049H45.9193L46.1001 13.3112C46.1997 20.1239 46.2448 25.6975 46.2002 25.6969C46.1559 25.6963 44.1551 20.1245 41.7542 13.3147L37.3889 0.933114L35.6105 0.941755C33.8398 0.950396 33.8126 1.00167 29.2722 12.8913L24.7119 24.8322L24.678 12.8787L24.6437 0.925049H22.8801H21.1165L20.9535 10.2632L20.7905 19.6008L12.2127 10.2632C5.02141 2.43437 3.36867 0.925049 1.98685 0.925049H0.338867V15.0389ZM33.7331 11.2443L31.9031 15.9031H35.4274C39.4311 15.9031 39.3102 16.4128 36.8453 9.94813L35.563 6.58615L33.7331 11.2443ZM50.1341 10.4188V14.2854L58.4553 14.0861C67.5612 13.8677 67.892 13.7375 67.9093 10.3566C67.924 7.41858 66.847 7.02685 58.064 6.77741L50.1341 6.55216V10.4188ZM11.6021 30.881C11.6021 31.1979 11.9358 31.4571 12.343 31.4565C12.8007 31.4565 13.084 32.2613 13.084 33.5632C13.084 34.7338 13.4136 35.7793 13.825 35.9159C14.3384 36.0858 14.566 35.4383 14.566 33.8092C14.566 30.6898 16.1886 30.487 16.4571 33.573C16.6877 36.2241 18.1228 36.9241 18.1228 34.3852C18.1228 33.4089 18.3896 32.6093 18.7157 32.6093C19.0417 32.6093 19.3085 33.387 19.3085 34.3375C19.3085 35.288 19.5752 36.0657 19.9013 36.0657C20.2273 36.0657 20.4941 35.1341 20.4941 33.9953C20.4941 32.4099 20.2166 31.8546 19.3085 31.6242C18.6564 31.4583 18.1228 31.0935 18.1228 30.8136C18.1228 30.5342 16.6557 30.305 14.8624 30.305C13.0693 30.305 11.6021 30.5642 11.6021 30.881ZM29.1074 32.9324C28.0292 35.6763 28.3434 37.079 29.6481 35.3445C30.5645 34.1266 31.5161 34.0477 31.9524 35.1532C32.2298 35.8549 34.1735 36.0282 36.6479 35.5714C37.6326 35.3899 37.0071 33.6877 35.7587 33.1508L34.4249 32.577L35.7587 32.827C36.655 32.9952 37.0925 32.7987 37.0925 32.229C37.0925 31.0539 33.8996 31.4507 33.6649 32.6547C33.5677 33.1554 34.0988 33.838 34.8457 34.1716C36.1867 34.7712 36.1838 34.7776 34.6193 34.7021C33.3424 34.6405 32.8931 34.2067 32.3015 32.4652C31.8978 31.2774 31.2463 30.305 30.8538 30.305C30.4614 30.305 29.6753 31.4871 29.1074 32.9324ZM50.1341 31.1149C50.1341 31.6426 49.7191 31.82 48.9456 31.623C47.5009 31.256 45.9845 32.3696 45.9845 33.7976C45.9845 35.1664 46.8423 35.6353 49.629 35.788L51.9125 35.913V33.1093C51.9125 31.0009 51.692 30.305 51.0233 30.305C50.5343 30.305 50.1341 30.6695 50.1341 31.1149ZM57.0698 31.0763C56.5156 32.4807 57.5471 35.7627 58.6052 35.9602C59.2146 36.0743 59.6189 35.7892 59.6189 35.2436C59.6189 34.7453 59.3521 34.3375 59.0261 34.3375C58.1731 34.3375 58.294 32.7503 59.169 32.4669C59.7042 32.2936 59.635 31.9664 58.9153 31.267C57.7184 30.1038 57.4641 30.0773 57.0698 31.0763ZM60.3273 32.9964C60.5852 36.84 61.9901 37.0398 61.9901 33.2331C61.9901 30.9686 61.7814 30.305 61.0683 30.305C60.3404 30.305 60.1844 30.8707 60.3273 32.9964ZM78.6805 31.0613C78.0348 31.8171 78.4 36.0662 79.1108 36.0651C79.3124 36.0646 79.3864 37.4903 79.2744 39.2335C79.1085 41.8311 79.2418 42.4025 80.0154 42.4025C80.7517 42.4025 80.9597 41.7758 80.9597 39.5561C80.9597 37.9903 80.6929 36.5496 80.3669 36.3538C79.5216 35.8462 79.6325 33.3374 80.5151 32.9888C81.073 32.7694 81.0362 32.5459 80.3669 32.0855C79.7641 31.6714 79.7167 31.4721 80.2187 31.4657C80.6265 31.4611 80.9597 31.1979 80.9597 30.881C80.9597 30.0515 79.4404 30.1718 78.6805 31.0613ZM21.7982 32.1484C20.145 33.755 21.7503 36.4874 23.9484 35.8093C24.7036 35.576 25.0894 34.9285 25.0918 33.8893C25.0977 31.653 23.2909 30.6978 21.7982 32.1484ZM38.1044 31.8563C37.6212 32.6432 37.8026 35.4925 38.3575 35.8254C38.6456 35.9982 39.4079 35.9775 40.0517 35.7793C41.7597 35.2523 41.436 31.8171 39.6545 31.5682C38.9593 31.4709 38.2615 31.6005 38.1044 31.8563ZM42.2552 31.8166C41.4846 32.5655 41.8225 35.3617 42.7241 35.6982C44.4147 36.3284 45.4652 35.4412 45.2755 33.5437C45.1451 32.2445 44.7592 31.6984 43.8854 31.5769C43.2197 31.4841 42.4864 31.5924 42.2552 31.8166ZM52.8503 31.9565C52.6523 32.2676 52.9612 32.6409 53.5356 32.7867C54.5049 33.0326 54.5025 33.0563 53.5012 33.1185C52.7365 33.1657 52.478 33.5621 52.612 34.4815C52.7549 35.4556 53.2143 35.792 54.4627 35.8364C56.0165 35.8911 56.1119 35.7615 55.9447 33.8202C55.8048 32.2014 55.4847 31.706 54.4876 31.5682C53.7852 31.4709 53.0483 31.6454 52.8503 31.9565ZM63.3239 31.8385C62.2758 32.2498 62.4033 34.6278 63.5219 35.53C65.3697 37.0202 67.6857 34.1312 66.116 32.2936C65.388 31.441 64.6458 31.32 63.3239 31.8385ZM67.3253 33.7234C67.3253 35.0115 67.592 36.0657 67.9181 36.0657C68.2441 36.0657 68.5109 35.4332 68.5109 34.6595C68.5109 33.8858 68.7776 33.0932 69.1037 32.8973C69.4494 32.6893 69.6965 33.2752 69.6965 34.3034C69.6965 35.2724 69.9793 36.0657 70.3249 36.0657C70.6888 36.0657 70.8762 35.156 70.7695 33.9054C70.6101 32.0297 70.3711 31.7209 68.9555 31.5631C67.4137 31.3903 67.3253 31.5072 67.3253 33.7234ZM74.1847 32.3621C73.0517 33.4635 73.0322 33.823 74.0334 35.1544C75.196 36.6988 77.0674 36.0991 77.3021 34.1071C77.5855 31.7007 75.8599 30.7347 74.1847 32.3621ZM43.0205 33.4734C43.0205 33.9486 43.2872 34.3375 43.6133 34.3375C43.9393 34.3375 44.2061 33.9486 44.2061 33.4734C44.2061 32.998 43.9393 32.6093 43.6133 32.6093C43.2872 32.6093 43.0205 32.998 43.0205 33.4734ZM47.7629 33.4734C47.7629 33.9532 48.2899 34.3375 48.9485 34.3375C50.3617 34.3375 50.5212 33.4526 49.1963 32.9589C47.8714 32.4646 47.7629 32.5038 47.7629 33.4734ZM64.0329 33.2354C63.8142 33.5799 63.9316 34.1502 64.2944 34.5028C64.7786 34.9735 64.9541 34.8069 64.9541 33.8766C64.9541 32.4853 64.6465 32.271 64.0329 33.2354ZM75.0317 34.0494C75.0317 34.5246 75.2985 34.9136 75.6245 34.9136C75.9505 34.9136 76.2173 34.5246 76.2173 34.0494C76.2173 33.5741 75.9505 33.1853 75.6245 33.1853C75.2985 33.1853 75.0317 33.5741 75.0317 34.0494ZM26.2247 36.4499C25.5916 37.0646 25.7688 42.4025 26.4221 42.4025C26.7481 42.4025 27.0149 40.9767 27.0149 39.2341C27.0149 36.03 26.9373 35.7569 26.2247 36.4499ZM48.3042 37.0882C47.5175 37.6239 46.3911 37.9829 45.8007 37.8861C45.2109 37.7893 44.3443 38.0198 43.8741 38.3982C43.3851 38.7934 43.0205 38.8418 43.0205 38.5122C43.0205 38.1966 42.3536 37.938 41.5385 37.938C40.2124 37.938 40.0565 38.173 40.0565 40.1702C40.0565 41.3979 40.3232 42.4025 40.6493 42.4025C40.9753 42.4025 41.2421 41.7544 41.2421 40.9624C41.2421 39.1459 42.8652 39.0215 43.1272 40.8183C43.2754 41.8322 43.7028 42.1145 45.0893 42.1145C46.5791 42.1145 46.9229 41.8385 47.2424 40.3863L47.6224 38.6581L47.6929 40.5303C47.7866 43.0298 49.5413 43.1664 49.5413 40.6743C49.5413 39.7238 49.7997 38.9461 50.1158 38.9461C50.4311 38.9461 50.5348 39.3383 50.3458 39.8176C49.6024 41.6991 51.1762 42.2936 56.9401 42.3063L62.5077 42.319L62.475 40.025C62.4448 37.8947 62.331 37.7432 60.8875 37.9062C58.8406 38.1373 58.4683 39.9208 60.316 40.6403C61.0736 40.9359 61.3593 41.1939 60.9503 41.214C60.5419 41.2336 59.2081 40.7054 57.9863 40.0388C56.6461 39.3072 56.2945 38.9438 57.0995 39.1206C57.9934 39.3176 58.4333 39.1471 58.4333 38.6039C58.4333 37.6573 55.7337 37.488 55.1551 38.3982C54.8926 38.8113 54.5078 38.7899 53.9375 38.3302C53.4793 37.9604 52.5693 37.7939 51.9155 37.9599C51.1603 38.1523 50.7269 37.9794 50.7269 37.4857C50.7269 36.2051 49.8194 36.0559 48.3042 37.0882ZM7.45247 39.5222C7.45247 41.6986 7.67003 42.4025 8.34167 42.4025C8.83073 42.4025 9.23087 41.9733 9.23087 41.4491C9.23087 40.5879 9.33105 40.581 10.2683 41.3817C11.6092 42.5275 20.4941 42.8323 20.4941 41.7332C20.4941 41.1783 20.6524 41.1737 21.2054 41.7113C21.5967 42.0915 22.6798 42.4025 23.6122 42.4025C25.2092 42.4025 25.2976 42.277 25.1238 40.2423C24.9751 38.4898 24.6823 38.0463 23.5737 37.8935C22.822 37.7905 21.8475 37.9956 21.4081 38.3498C20.8106 38.8314 20.5433 38.8067 20.3482 38.2502C20.1407 37.6608 19.6973 37.6453 18.2184 38.1753C17.1269 38.5659 16.2105 38.6258 16.0155 38.3193C15.8317 38.0301 15.1731 37.7939 14.5518 37.7939C13.3247 37.7939 11.9186 39.7745 12.499 40.6864C12.6964 40.9963 12.6039 41.2504 12.2933 41.2504C11.4106 41.2504 11.0318 39.7307 11.742 39.0406C12.7248 38.0854 11.1693 36.6418 9.15855 36.6418C7.50641 36.6418 7.45247 36.7328 7.45247 39.5222ZM35.3141 39.4858C35.3141 41.6945 35.5298 42.4025 36.2033 42.4025C36.6924 42.4025 37.0925 42.0309 37.0925 41.577C37.0925 41.123 37.6414 40.5827 38.3125 40.3759C39.2142 40.0976 39.485 39.5987 39.3498 38.4645C39.1993 37.1994 38.8288 36.8981 37.2407 36.7495L35.3141 36.5686V39.4858ZM63.1757 39.5222C63.1757 41.1064 63.4424 42.4025 63.7685 42.4025C64.0945 42.4025 64.3613 41.1064 64.3613 39.5222C64.3613 37.938 64.0945 36.6418 63.7685 36.6418C63.4424 36.6418 63.1757 37.938 63.1757 39.5222ZM9.23087 38.37C9.23087 38.6869 9.49763 38.9461 9.82367 38.9461C10.1497 38.9461 10.4165 38.6869 10.4165 38.37C10.4165 38.0532 10.1497 37.7939 9.82367 37.7939C9.49763 37.7939 9.23087 38.0532 9.23087 38.37ZM28.319 38.4852C26.6236 40.1328 28.1839 42.6473 30.6873 42.3028C33.193 41.9578 32.5813 37.7939 30.0251 37.7939C29.478 37.7939 28.7103 38.105 28.319 38.4852ZM37.0925 38.692C37.0925 39.1857 37.3634 39.4271 37.6948 39.2284C38.0262 39.029 38.1441 38.6252 37.9562 38.3302C37.4481 37.5312 37.0925 37.6799 37.0925 38.692ZM65.6655 38.4852C64.196 39.9133 65.2796 42.4025 67.3715 42.4025C69.0759 42.4025 69.9692 40.8494 69.2033 39.2169C68.4907 37.6965 66.8304 37.3532 65.6655 38.4852ZM70.2354 38.044C69.9312 39.8863 70.2122 42.0897 70.7742 42.2717C71.1898 42.406 71.4749 41.9071 71.4749 41.0442C71.4749 40.2446 71.7417 39.43 72.0677 39.2341C72.4134 39.0261 72.6605 39.612 72.6605 40.6403C72.6605 41.6092 72.9433 42.4025 73.2889 42.4025C73.6528 42.4025 73.8402 41.4929 73.7335 40.2423C73.5741 38.3666 73.3351 38.0578 71.9195 37.8999C71.0227 37.7997 70.2651 37.8642 70.2354 38.044ZM74.8183 39.5503C74.3364 41.8938 74.7039 42.4025 76.8807 42.4025C78.5743 42.4025 78.6513 42.2982 78.4759 40.2423C78.3188 38.397 78.0663 38.0566 76.7425 37.9074C75.4224 37.7582 75.1372 38.0018 74.8183 39.5503ZM81.948 38.1781C81.0623 39.0383 81.6142 40.6057 82.8863 40.8437L84.2201 41.0937L82.8863 41.1721C82.1524 41.2152 81.5525 41.5269 81.5525 41.8645C81.5525 42.2026 82.2864 42.3968 83.1827 42.2966C84.6114 42.1369 84.8283 41.8472 84.9362 39.9542C85.0448 38.0514 84.8971 37.7939 83.7015 37.7939C82.9539 37.7939 82.1649 37.9668 81.948 38.1781ZM19.6333 39.7589C20.2623 40.2066 21.0294 40.4208 21.3377 40.2359C21.6453 40.051 21.3815 39.7031 20.7513 39.4634C18.8947 38.7565 18.405 38.8862 19.6333 39.7589ZM44.5084 39.513C44.0716 40.2001 44.6264 41.2504 45.4267 41.2504C46.1481 41.2504 46.1528 39.6909 45.4326 39.2588C45.1291 39.0763 44.7135 39.1909 44.5084 39.513ZM66.7325 40.0982C66.7325 40.7319 66.9993 41.2504 67.3253 41.2504C67.6513 41.2504 67.9181 40.7319 67.9181 40.0982C67.9181 39.4646 67.6513 38.9461 67.3253 38.9461C66.9993 38.9461 66.7325 39.4646 66.7325 40.0982ZM76.1065 39.3395C76.5339 39.506 77.0455 39.4853 77.2423 39.294C77.4391 39.1028 77.0894 38.9668 76.4646 38.9915C75.7739 39.0192 75.6335 39.1558 76.1065 39.3395ZM15.4552 40.7123C13.9863 41.0292 14.1672 41.0965 16.4926 41.1C18.0417 41.1023 19.3085 41.0378 19.3085 40.9566C19.3085 40.5245 17.0043 40.3787 15.4552 40.7123ZM53.3945 40.7123C51.9255 41.0292 52.1064 41.0965 54.4319 41.1C55.9803 41.1023 57.2477 41.0378 57.2477 40.9566C57.2477 40.5245 54.9435 40.3787 53.3945 40.7123ZM29.8307 41.0557C30.2385 41.2158 30.9055 41.2158 31.3127 41.0557C31.7205 40.896 31.3868 40.7653 30.5717 40.7653C29.7566 40.7653 29.4235 40.896 29.8307 41.0557ZM76.1065 41.0677C76.5339 41.2343 77.0455 41.2135 77.2423 41.0223C77.4391 40.831 77.0894 40.6951 76.4646 40.7198C75.7739 40.7474 75.6335 40.884 76.1065 41.0677Z" fill="#625E56"/>
</svg>
