<svg width="138" height="35" viewBox="0 0 138 35" fill="none" xmlns="http://www.w3.org/2000/svg">
<mask id="mask0_1600_667" style="mask-type:luminance" maskUnits="userSpaceOnUse" x="0" y="0" width="138" height="35">
<path d="M137.661 0.0904541H0.905762V34.2792H137.661V0.0904541Z" fill="white"/>
</mask>
<g mask="url(#mask0_1600_667)">
<mask id="mask1_1600_667" style="mask-type:luminance" maskUnits="userSpaceOnUse" x="0" y="0" width="138" height="34">
<path d="M137.661 0.56488H0.905762V33.8039H137.661V0.56488Z" fill="white"/>
</mask>
<g mask="url(#mask1_1600_667)">
<path d="M78.4302 11.3994C78.4302 7.52033 78.4992 3.90885 78.7064 0.56488L68.1442 2.50438V3.4407L69.1797 3.57445C69.9391 3.64134 70.4223 3.90885 70.6985 4.31012C70.9746 4.77828 71.1817 5.44708 71.3198 6.45026C71.4579 8.38977 71.5959 12.8038 71.5268 19.7593C71.5268 26.6479 71.4579 30.995 71.3198 32.667C75.1166 33.4696 78.085 33.8039 80.294 33.8039C84.4361 33.8039 87.6806 32.667 90.0278 30.3262C92.3749 28.0523 93.6175 24.8421 93.6175 20.8963C93.6175 17.7529 92.72 15.1446 90.9252 13.0713C89.1303 10.998 86.8522 9.99489 84.1599 9.99489C82.3651 9.99489 80.5012 10.463 78.4302 11.3994ZM78.6373 31.9982C78.4992 29.8581 78.3611 23.4376 78.3611 12.9376C78.9824 12.7369 79.8108 12.6032 80.8464 12.6032C82.5031 12.6032 83.8148 13.4057 84.7812 15.0777C85.7477 16.7497 86.2309 18.756 86.2309 21.2975C86.2309 24.4408 85.6787 26.9822 84.5742 29.1224C83.4696 31.1956 82.089 32.2657 80.3631 32.2657C79.8108 32.1319 79.2586 32.0651 78.6373 31.9982ZM28.519 1.23368H0.905762V2.57127L2.35546 2.70502C3.45999 2.90566 4.21936 3.30693 4.70259 3.90885C5.18582 4.57764 5.46196 5.64771 5.531 7.11906C6.08326 14.342 6.08326 21.0968 5.531 27.3166C5.39293 28.788 5.11679 29.8581 4.70259 30.5269C4.21936 31.1956 3.45999 31.597 2.35546 31.7307L0.905762 31.9313V33.2689H18.7164V31.9313L16.8524 31.7975C15.7479 31.6638 14.9886 31.1956 14.5053 30.5937C14.0221 29.9249 13.7459 28.8548 13.6769 27.3835C13.4698 24.7083 13.3317 21.6319 13.3317 18.221L17.0595 18.2879C19.0615 18.3548 20.4421 19.8262 21.1325 22.7689H22.5131V11.8675H21.1325C20.4421 14.7433 19.1305 16.2147 17.0595 16.2815L13.3317 16.3484C13.3317 10.3293 13.4698 6.04899 13.6769 3.4407H19.1305C22.9964 3.4407 25.6196 5.84835 27.1384 10.6637L28.7952 10.1955L28.519 1.23368ZM25.2745 21.8326C25.2745 25.3102 26.31 28.1861 28.312 30.46C30.314 32.7338 33.2824 33.8039 37.0102 33.8039C40.738 33.8039 43.7754 32.667 45.9845 30.3262C48.1935 28.0523 49.2291 25.1765 49.2291 21.6987C49.2291 18.221 48.1935 15.3452 46.1916 13.0713C44.1897 10.7974 41.2212 9.72737 37.4934 9.72737C33.7656 9.72737 30.7281 10.8643 28.519 13.2051C26.31 15.479 25.2745 18.3548 25.2745 21.8326ZM40.669 14.2083C41.4973 16.1478 41.8425 18.6892 41.8425 21.7656C41.8425 28.8548 40.3238 32.3326 37.3553 32.3326C35.8366 32.3326 34.663 31.3294 33.8346 29.323C33.0062 27.3166 32.6611 24.7753 32.6611 21.7656C32.6611 14.7433 34.1798 11.2656 37.1482 11.2656C38.6669 11.1987 39.8406 12.2019 40.669 14.2083ZM99.0021 30.46C101.28 32.667 104.18 33.8039 107.632 33.8039C109.772 33.8039 111.636 33.4027 113.292 32.5333C114.949 31.7307 116.261 30.7275 117.158 29.5237L116.468 28.7211C114.949 29.8581 113.224 30.3931 111.222 30.3931C108.46 30.3931 106.319 29.5237 104.87 27.7179C103.352 25.9121 102.661 23.6383 102.799 20.6956H117.572C117.572 17.4854 116.744 14.877 115.018 12.8038C113.292 10.7974 110.876 9.79423 107.77 9.79423C103.903 9.79423 100.936 10.998 98.7951 13.3388C96.6555 15.6796 95.6194 18.5555 95.6194 21.9663C95.6194 25.444 96.7238 28.2529 99.0021 30.46ZM104.111 13.6732C104.87 12.0682 105.837 11.2656 107.149 11.2656C109.219 11.2656 110.255 13.807 110.255 18.9567L102.938 19.0904C103.006 17.0841 103.352 15.2784 104.111 13.6732ZM136.143 10.998C134.278 10.1955 131.932 9.72737 129.101 9.72737C126.201 9.72737 123.924 10.463 122.197 11.8675C120.472 13.272 119.574 15.0109 119.574 17.0841C119.574 18.8899 120.127 20.2943 121.162 21.2975C122.197 22.3007 123.855 23.1701 125.994 23.9058C127.928 24.5746 129.308 25.2434 129.998 25.8453C130.688 26.514 131.103 27.2498 131.103 28.2529C131.103 29.1892 130.758 30.0587 129.998 30.7275C129.308 31.4631 128.342 31.7975 127.099 31.7975C124.062 31.7975 121.783 29.6574 120.195 25.3772L119.023 25.7116L119.298 32.3994C121.783 33.3357 124.545 33.8039 127.582 33.8039C130.758 33.8039 133.174 33.1352 134.969 31.7307C136.764 30.3931 137.661 28.4536 137.661 26.0459C137.661 24.4408 137.247 23.1032 136.35 22.1001C135.452 21.0968 134.002 20.2274 131.932 19.4249C129.653 18.6223 128.065 17.8866 127.237 17.2178C126.408 16.5491 125.994 15.7465 125.994 14.7433C125.994 13.7401 126.271 12.9376 126.892 12.2687C127.513 11.6 128.272 11.3324 129.239 11.3324C132 11.3324 134.002 13.272 135.245 17.0841L136.419 16.7497L136.143 10.998ZM69.732 10.3961C68.7655 9.92804 67.73 9.72737 66.5564 9.72737C65.3829 9.72737 64.2093 10.1955 62.8977 11.1319C61.586 12.0682 60.6195 13.3388 59.8602 15.0777L59.9292 9.72737L49.4362 11.7338V12.6701L50.4717 12.7369C51.7833 12.8706 52.5426 13.8739 52.6807 15.6796C53.095 19.8262 53.095 24.2402 52.6807 28.9218C52.5426 30.7275 51.7833 31.6638 50.4717 31.8644L49.4362 31.9982V33.2689H64.0713V31.9982L62.2073 31.8644C60.8957 31.7307 60.1363 30.7275 59.9983 28.9218C59.5841 25.0427 59.5151 20.8963 59.8602 16.6159C60.2744 15.9472 61.1719 15.5458 62.5525 15.4121C63.9332 15.2784 65.521 15.6796 67.1777 16.6159L69.732 10.3961Z" fill="#625E56"/>
</g>
</g>
</svg>
