<svg width="176" height="68" viewBox="0 0 176 68" fill="none" xmlns="http://www.w3.org/2000/svg">
<path fill-rule="evenodd" clip-rule="evenodd" d="M0.89429 1.11668C1.40651 1.47821 3.54593 5.40089 5.64896 9.83375C7.75243 14.2666 9.58252 17.8934 9.71672 17.8934C9.8509 17.8934 10.3417 16.8092 10.808 15.4847C11.9567 12.2204 12.1363 11.4271 11.3539 13.076L10.7007 14.4525L7.67965 8.044C4.88061 2.1063 4.71731 1.59245 5.45607 1.0474C6.13297 0.548238 5.77815 0.459233 3.10877 0.459233C0.248325 0.459233 0.047712 0.518875 0.89429 1.11668ZM14.2508 0.907476C14.5696 1.10613 14.9595 1.46903 15.1179 1.71449C15.287 1.97692 15.7265 1.84799 16.1864 1.40022C16.9192 0.68725 16.8651 0.637247 15.3193 0.593205C14.3463 0.565218 13.9086 0.694137 14.2508 0.907476ZM19.3857 0.95473C20.094 1.37086 20.1818 2.27559 20.1818 9.1763C20.1818 16.0771 20.094 16.9817 19.3857 17.3978C18.7902 17.7479 19.3343 17.8558 21.5465 17.8264C23.1727 17.8048 24.1453 17.6924 23.7073 17.5773C22.9876 17.3874 22.9112 16.6019 22.9112 9.39469C22.9112 2.28614 22.9976 1.37177 23.7073 0.95473C24.3064 0.602837 23.7723 0.487221 21.5465 0.487221C19.3207 0.487221 18.7866 0.602837 19.3857 0.95473ZM26.8134 1.41306C27.316 1.97599 27.4602 3.78411 27.4602 9.5337C27.4602 16.0939 27.3701 16.9832 26.6641 17.3978C26.0669 17.7488 26.6068 17.8599 28.8249 17.8433C30.4513 17.831 31.4748 17.703 31.0995 17.5589C29.9458 17.1161 29.7489 16.416 29.7416 12.7319C29.7352 9.29283 29.7703 9.1763 30.8151 9.1763C31.6463 9.1763 32.4365 9.96497 34.2365 12.5915C37.1206 16.7986 38.4444 17.8984 40.6002 17.8773C42.135 17.8617 42.1787 17.8236 41.2506 17.3033C40.7043 16.9968 39.2328 15.2755 37.9813 13.4779C36.0585 10.7165 35.5385 10.2425 34.626 10.4182C34.0118 10.5366 33.3103 10.3398 32.9992 9.96175C32.5384 9.40156 32.7832 9.25934 34.5573 9.05793C38.2101 8.64226 39.8769 6.55934 39.0894 3.39414C38.7751 2.13154 36.6994 0.915272 34.8753 0.924907L33.6014 0.931334L34.7296 1.50711C36.2282 2.27192 37.0724 4.04057 36.7485 5.73535C36.3427 7.8591 35.024 8.7175 32.168 8.7175H29.698L29.8303 4.93568L29.9623 1.15385L31.327 0.884535C32.0775 0.736344 31.2232 0.631738 29.429 0.651925C26.4877 0.684958 26.2297 0.760198 26.8134 1.41306ZM43.6029 1.10475C43.5207 1.38049 43.3414 2.43205 43.2055 3.44139L42.9579 5.27656L43.638 3.75658C44.3564 2.14988 46.5094 0.918026 48.5988 0.918026H49.7505V8.92396C49.7505 16.0651 49.6646 16.9809 48.9546 17.3978C48.3554 17.7498 48.8895 17.8654 51.1153 17.8654C53.3412 17.8654 53.8753 17.7498 53.2761 17.3978C52.5659 16.9809 52.48 16.0651 52.48 8.92396V0.918026H53.5496C55.7176 0.918026 57.4994 1.90901 58.3824 3.60609L59.2517 5.27656L58.991 3.44139C58.8474 2.43205 58.5476 1.40526 58.3242 1.15981C57.7396 0.517496 43.795 0.465196 43.6029 1.10475ZM61.645 1.44426C62.5107 2.31734 62.568 2.72842 62.2828 6.02623C61.8364 11.1821 62.3328 14.4932 63.799 16.1431C66.0275 18.6522 71.1757 18.8073 73.2195 16.4271L74.0879 15.4159L72.7756 16.4252C71.2134 17.6269 68.1834 17.78 66.7008 16.7331C65.2655 15.7187 64.7679 13.3146 64.7652 7.37737C64.763 3.48314 64.9289 1.95123 65.4106 1.41306C65.9939 0.762034 65.7883 0.678536 63.3763 0.586777L60.6938 0.484925L61.645 1.44426ZM73.5176 1.11898C74.1617 1.59383 74.3113 2.69631 74.4296 7.84029L74.5715 13.9936L74.6712 7.85039C74.7553 2.63987 74.8895 1.61952 75.5542 1.12907C76.2337 0.628072 76.0987 0.55099 74.5429 0.55099C73.004 0.55099 72.8574 0.632199 73.5176 1.11898ZM82.9068 1.32773C84.0286 2.19118 84.3466 3.97542 83.692 5.73535C83.4904 6.27672 83.6296 6.18314 84.0318 5.50595C84.6828 4.40898 84.7269 4.39889 85.0475 5.27656C85.2313 5.78122 85.8605 7.3035 86.4451 8.6597C87.0296 10.0159 87.5077 11.3065 87.5077 11.5272C87.5077 11.7483 86.1635 11.929 84.5204 11.929C81.7395 11.929 81.5525 11.8653 81.8214 11.0115C82.2627 9.60894 81.7436 9.91955 81.2454 11.3556L80.8083 12.6172L84.3652 12.4681L87.9221 12.3195L88.6245 14.0152C89.542 16.2293 89.5133 17.3185 88.5312 17.5773C88.0931 17.6924 89.2704 17.8081 91.1469 17.8333C94.1316 17.8741 94.4203 17.809 93.4524 17.313C92.6081 16.8804 91.6064 14.9553 89.2186 9.1763C87.4986 5.01276 85.9491 1.47821 85.7758 1.32177C85.6026 1.16532 84.6418 0.914814 83.6409 0.76479L81.8214 0.492269L82.9068 1.32773ZM96.3596 1.19055C96.9423 1.61998 97.0607 2.99222 97.0607 9.31898C97.0607 16.0839 96.972 16.9822 96.2646 17.3978C95.6955 17.7323 97.2458 17.8696 101.706 17.8796L107.943 17.8934L108.409 16.1481C108.666 15.1878 108.998 13.6913 109.147 12.8219C109.391 11.4083 109.299 11.4927 108.279 13.6197C106.889 16.5165 105.203 17.5419 102.155 17.3442L100.018 17.2052L99.8925 9.40799C99.7919 3.1519 99.8929 1.51813 100.403 1.14192C100.862 0.803331 100.291 0.673488 98.3485 0.673488C96.2418 0.673488 95.8106 0.785431 96.3596 1.19055ZM118.171 1.013C118.791 1.36306 118.896 2.57564 118.896 9.39469C118.896 16.6019 118.82 17.3874 118.1 17.5773C117.662 17.6924 118.635 17.8048 120.261 17.8264C122.473 17.8558 123.017 17.7479 122.422 17.3978C121.714 16.9822 121.625 16.0839 121.625 9.31898C121.625 3.01426 121.745 1.61906 122.322 1.19376C122.865 0.793233 122.406 0.671652 120.232 0.641831C118.377 0.616596 117.688 0.740473 118.171 1.013ZM129.846 1.24285C128.988 1.69476 127.658 2.85826 126.889 3.82814C125.581 5.47843 125.492 5.83537 125.492 9.41441C125.492 13.667 126.063 14.9139 128.899 16.8611C130.628 18.048 134.767 18.271 136.551 17.2726C137.863 16.5385 139.364 14.2923 139.353 13.076C139.349 12.4984 139.03 12.8618 138.492 14.0578C136.594 18.2728 130.586 17.5254 128.728 12.8434C126.965 8.39773 128.339 2.87248 131.547 1.514C133.004 0.896461 133.465 0.885907 135.045 1.43371C136.641 1.98747 136.96 2.34716 137.64 4.35897L138.418 6.65294L138.438 3.90018C138.456 1.22312 138.423 1.14467 137.206 1.04099C136.519 0.982718 134.932 0.818926 133.68 0.677618C131.994 0.48676 131.003 0.632653 129.846 1.24285ZM146.873 1.10935C146.122 1.44748 144.955 2.31689 144.282 3.04133C139.264 8.42893 141.915 16.6051 149.147 18.0517C150.234 18.2691 150.114 18.1424 148.557 17.4304C145.906 16.2174 144.643 13.4656 144.664 8.9469C144.69 3.84283 146.613 0.947848 149.989 0.928121C156.172 0.892335 157.873 14.1804 152.09 17.3488C150.971 17.9622 150.972 17.9631 152.332 17.6635C155.574 16.9497 158.507 12.9696 158.438 9.37541C158.317 3.04408 152.234 -1.30391 146.873 1.10935ZM161.316 1.19376L162.567 1.86497V9.61627C162.567 16.6125 162.49 17.3878 161.771 17.5773C161.333 17.6924 161.781 17.8107 162.767 17.8401C164.313 17.8861 164.452 17.8136 163.778 17.3166C163.089 16.8083 163.012 15.9311 163.123 9.92826L163.25 3.11702L168.481 10.4577L173.712 17.7984L173.852 15.4805C173.929 14.206 173.816 13.0403 173.603 12.8902C173.389 12.7402 171.409 10.0852 169.201 6.9906C166.996 3.89605 165.008 1.25111 164.786 1.11301C164.564 0.974459 163.41 0.784977 162.224 0.691843C160.095 0.524842 160.083 0.531721 161.316 1.19376ZM173.095 1.31213C173.58 2.09528 173.693 2.10583 174.464 1.43967C175.561 0.492263 175.544 0.459233 173.936 0.459233C172.715 0.459233 172.625 0.551906 173.095 1.31213ZM14.0929 4.87053C13.6903 6.06248 13.4397 7.11724 13.5356 7.2145C13.6321 7.3113 14.0402 6.41574 14.4432 5.2238C14.8457 4.03185 15.0965 2.97709 15.0004 2.87982C14.904 2.78302 14.496 3.67859 14.0929 4.87053ZM82.5775 8.04905C81.8155 9.73602 81.961 10.0962 82.7849 8.56244C83.1697 7.8458 83.3995 7.17413 83.2957 7.06906C83.1915 6.96446 82.8686 7.40535 82.5775 8.04905ZM78.5397 16.8611L77.532 17.8934L79.222 17.8865C80.1514 17.8823 80.6795 17.7278 80.3957 17.5424C80.1118 17.3571 79.8047 16.8955 79.7133 16.517C79.5805 15.9682 79.3431 16.0375 78.5397 16.8611ZM63.8527 27.9377C63.8527 28.2171 64.3735 28.4456 65.0104 28.4456C66.2873 28.4456 68.4017 30.2922 68.4017 31.4072C68.4017 32.2743 68.4321 32.2737 66.4247 31.4278C63.0529 30.0069 56.848 30.8006 52.0097 33.2716C49.5664 34.5196 46.4585 37.4489 45.4108 39.492C43.8064 42.621 44.7557 46.7592 47.3019 47.7356C53.2734 50.0249 65.5249 43.0765 68.2624 35.8468C68.9562 34.0149 69.0559 33.9286 69.3983 34.8633C70.2791 37.2631 68.5795 40.2664 62.155 47.6659C57.9916 52.4607 56.4249 56.0512 58.1968 56.7366C59.6211 57.2877 63.067 54.5803 73.4056 44.7878C76.5331 41.8258 80.8674 37.9174 83.0378 36.1033C85.2082 34.2888 86.7999 32.7372 86.5742 32.655C86.349 32.5729 85.0849 33.0859 83.7656 33.7947C82.117 34.6802 78.5196 37.9655 72.2684 44.2937C63.9477 52.7167 59.1607 56.8994 58.5476 56.2814C57.9458 55.6745 59.2326 53.8719 63.7498 48.9927C66.4333 46.0945 69.1381 42.7113 69.76 41.4748C71.2293 38.5547 71.2744 35.6225 69.8802 33.651C69.317 32.8551 68.8566 31.7994 68.8566 31.3048C68.8566 30.3 66.7777 27.9868 65.8747 27.9868C65.554 27.9868 64.9681 27.8615 64.5723 27.7083C64.1765 27.555 63.8527 27.6584 63.8527 27.9377ZM56.9439 31.8727C49.8793 33.8351 45.2015 38.3862 45.2015 43.2972C45.2015 45.0337 45.4208 45.525 46.6659 46.5817C48.0092 47.7223 48.3686 47.8052 51.028 47.5896C57.1855 47.0915 65.7082 40.979 67.7275 35.6128C68.5504 33.4267 68.55 33.3597 67.7107 32.7408C65.585 31.1736 60.8393 30.7905 56.9439 31.8727ZM99.3547 43.1036C98.2066 44.4868 97.2203 45.2778 96.8319 45.1278C96.4811 44.9919 95.9307 45.0451 95.6086 45.2461C95.1901 45.5067 95.3212 45.6825 96.0662 45.86C97.0133 46.0862 96.6786 46.5633 92.4224 51.0489C88.1454 55.5561 86.143 56.9394 86.143 55.3873C86.143 55.0652 86.9718 53.6892 87.9844 52.3299C90.8157 48.5298 89.9032 46.4734 86.4381 48.845C85.4656 49.5106 84.7701 49.7634 84.8123 49.4353C85.1554 46.7679 83.4176 47.1873 79.8439 50.6333C72.5285 57.6881 69.4212 58.3681 74.7284 51.7532C76.8079 49.1615 77.2468 48.3645 76.6668 48.2338C75.8371 48.0462 72.6414 51.4463 71.3181 53.9251C70.6425 55.19 70.6061 55.5648 71.102 56.1673C71.4296 56.565 72.0696 56.8907 72.5244 56.8907C73.3851 56.8907 79.0137 52.5235 81.3378 50.0529C82.5906 48.721 83.8684 48.1843 83.8684 48.9894C83.8684 49.1858 82.6207 50.8888 81.0958 52.7744C78.8605 55.5383 78.4787 56.2343 79.127 56.3659C79.6423 56.471 80.5081 55.8121 81.5389 54.5308C83.9985 51.4743 87.1642 48.6326 88.11 48.6326C88.8278 48.6326 88.7041 48.9707 87.3139 50.8117C84.7477 54.2095 84.1686 55.4617 84.8055 56.2356C85.5934 57.1936 86.6733 57.0417 88.443 55.7245L90.0097 54.5578L90.2552 55.6099C90.6301 57.2156 92.4279 57.1843 94.6893 55.5327C96.3283 54.3354 96.6057 54.2523 96.6057 54.9611C96.6057 56.9242 98.5209 57.4395 100.369 55.9732C101.005 55.4685 101.623 55.0556 101.742 55.0556C101.861 55.0556 102.066 55.4685 102.197 55.9732C102.512 57.1898 103.848 57.1394 105.754 55.8388C108.277 54.1173 108.607 53.9431 108.255 54.5165C107.721 55.3873 108.835 56.8907 110.015 56.8907C110.616 56.8907 111.235 56.6843 111.39 56.432C111.545 56.1796 111.876 55.9732 112.126 55.9732C112.913 55.9732 112.066 56.8835 110.136 58.112C104.49 61.7071 100.935 67.443 104.355 67.443C105.556 67.443 109.541 63.4644 111.844 59.9656C113.052 58.13 114.145 57.0641 115.442 56.4577C116.466 55.9782 118.174 55.0423 119.237 54.3774L121.171 53.1686V54.4789C121.171 57.2152 123.465 57.6639 126.654 55.5516C128.918 54.0527 131.633 51.6637 131.633 51.171C131.633 50.9938 130.661 51.7165 129.473 52.7772C128.284 53.838 126.44 55.1364 125.374 55.6625C123.636 56.5205 123.364 56.5471 122.741 55.9191C121.667 54.8358 122.317 53.9935 125.224 52.6974C128.39 51.2861 129.906 49.4465 128.811 48.3421C128.208 47.7342 127.932 47.7291 126.58 48.3003C125.731 48.6591 123.855 49.9713 122.412 51.2155C120.967 52.4602 118.511 54.1834 116.953 55.0446L114.12 56.6105L115.453 54.8005C116.186 53.8054 117.568 52.0336 118.524 50.8626C120.54 48.3925 120.628 48.0654 119.237 48.2265C118.674 48.2916 117.759 48.1911 117.202 48.0031C115.728 47.5044 112.704 49.0137 110.025 51.5849C103.446 57.9011 101.235 57.9872 106.121 51.7371L108.813 48.2939L106.247 48.2706C102.885 48.2397 101.461 48.8931 97.9382 52.0813C90.802 58.5383 89.2854 57.5914 95.1273 50.3263C98.0251 46.7225 98.8803 45.9366 99.9306 45.9109C100.674 45.8931 101.089 45.6848 100.923 45.4135C100.765 45.1572 100.446 45.0659 100.214 45.2113C99.3042 45.7779 99.8583 44.4565 101.155 42.9678C102.681 41.2147 102.811 40.833 101.88 40.833C101.527 40.833 100.391 41.8548 99.3547 43.1036ZM78.0101 45.1241C77.4571 45.7962 77.7709 46.3385 78.713 46.3385C79.3904 46.3385 79.5432 45.1558 78.9159 44.7649C78.6944 44.6267 78.2868 44.7882 78.0101 45.1241ZM125.957 49.6029C125.057 50.4003 124.106 51.4563 123.844 51.9505C123.419 52.7515 123.482 52.813 124.43 52.5226C125.959 52.0527 128.449 50.0722 128.449 49.3244C128.449 48.076 127.571 48.1742 125.957 49.6029ZM100.833 51.5917C98.1028 54.4138 97.1785 56.432 98.616 56.432C100.202 56.432 106.213 49.7579 105.382 48.9202C104.644 48.1755 103.472 48.8641 100.833 51.5917ZM113.635 50.2149C111.431 52.0798 109.142 55.2735 109.542 55.9264C110.19 56.9834 113.264 54.9134 115.744 51.7486C116.727 50.4942 117.531 49.2799 117.531 49.05C117.531 48.1049 115.363 48.7532 113.635 50.2149ZM107.31 61.0869C104.437 63.7351 103.08 65.8978 103.822 66.6465C104.571 67.4013 106.364 65.928 108.426 62.8652C111.714 57.9831 111.334 57.3776 107.31 61.0869Z" fill="#625E56"/>
</svg>
