<svg width="78" height="76" viewBox="0 0 78 76" fill="none" xmlns="http://www.w3.org/2000/svg">
<path fill-rule="evenodd" clip-rule="evenodd" d="M21.5899 0.179466C21.5899 0.345396 21.753 0.389744 22.3649 0.390418C23.4388 0.391361 24.1079 0.603122 24.388 1.03055C24.6066 1.36417 24.6252 2.36312 24.6594 15.7L24.6961 30.0114L23.69 30.4891C20.2286 32.1332 17.4429 35.3078 16.2154 39.008C14.0436 45.5542 17.297 52.9214 23.6575 55.8601C25.7526 56.8281 28.8601 57.3866 31.2275 57.2205C35.8933 56.8934 40.41 54.0276 43.3616 49.5219C44.6292 47.5867 45.3699 45.8377 45.859 43.6247L46.0304 42.8496H50.0527C52.2651 42.8496 54.0751 42.8188 54.0751 42.7813C54.0751 42.6863 54.4595 40.0477 54.5513 39.5134C54.6148 39.1436 54.5857 39.0754 54.3644 39.0754C54.1714 39.0754 54.0372 39.2562 53.8556 39.7613C53.4989 40.7531 52.863 41.4315 51.9808 41.7615C51.081 42.0981 49.3618 42.3079 47.4889 42.3094L46.0923 42.3104L46.1719 41.8724C46.3769 40.7441 46.5245 38.8597 46.5256 37.3568C46.5265 35.8283 46.5455 35.7056 46.7811 35.7056C47.3491 35.7056 49.5066 34.9805 50.7727 34.3642C53.8862 32.8486 56.3175 30.4027 57.9486 27.145C60.3227 22.403 60.6209 16.0586 58.7185 10.7687C57.0073 6.01104 53.2555 2.35382 48.5694 0.87554C46.0071 0.0671832 46.288 0.082954 33.4179 0.0237795C22.7707 -0.0252853 21.5899 -0.00978424 21.5899 0.179466ZM28.9251 0.534512C28.6967 0.60083 28.3934 0.783745 28.2512 0.940914C27.999 1.21953 27.9915 1.72474 27.9565 21.1957C27.9311 35.3153 27.9634 41.2682 28.0668 41.5178C28.3643 42.2367 28.3967 42.24 35.6421 42.2814L42.3481 42.32V39.2149V36.1099H35.204C31.2331 36.1099 28.06 36.0578 28.06 35.9924C28.06 35.9279 28.7119 35.8473 29.5089 35.8133C31.0229 35.7492 31.5284 35.5927 32.0366 35.0313C32.3023 34.7377 32.3064 34.5128 32.3412 18.232C32.3808 -0.266701 32.4569 1.13731 31.3872 0.651513C30.7847 0.378017 29.6498 0.324099 28.9251 0.534512ZM36.4172 18.115V35.8403H39.3858H42.3546L42.3176 25.6971C42.2815 15.8287 42.2734 15.5416 42.0111 15.103C41.6547 14.507 40.9156 14.1457 39.8487 14.046C39.3699 14.0013 38.9783 13.9129 38.9783 13.8495C38.9783 13.7861 41.5294 13.7342 44.6475 13.7342C47.797 13.7342 50.2849 13.786 50.2448 13.8506C50.2053 13.9146 49.7619 13.9967 49.2596 14.0326C48.0735 14.1177 47.3193 14.4974 46.9873 15.1765C46.7696 15.6215 46.7242 16.1836 46.641 19.4629C46.5405 23.4204 46.4821 35.032 46.5624 35.1122C46.588 35.1379 46.9833 34.9818 47.4405 34.7654C51.4914 32.8498 54.4108 28.5379 55.5873 22.7324C55.8578 21.3973 55.8943 20.8268 55.8901 17.9801C55.8861 15.1325 55.8488 14.5757 55.5792 13.3298C54.0959 6.47378 50.3574 1.87544 45.2766 0.657309C44.3066 0.42479 43.6826 0.391361 40.2924 0.390552L36.4172 0.389609V18.115ZM23.5265 30.9003C20.712 32.4176 18.5356 34.6888 17.205 37.4975C16.185 39.6508 16.0062 40.5121 16.0104 43.2539C16.0145 46.0145 16.2096 46.95 17.217 49.0434C19.6849 54.1712 24.7136 57.0487 30.8232 56.8293C32.1911 56.7802 32.9885 56.6814 33.7212 56.4705C36.8334 55.5739 39.8897 53.2554 41.0322 50.9243C41.8114 49.3343 42.1074 47.8235 42.297 44.4673L42.3885 42.8496H32.3262C23.8483 42.8496 22.2637 42.8202 22.2637 42.6631C22.2637 42.529 22.5111 42.4608 23.1428 42.4207C23.8241 42.3773 24.0893 42.297 24.3222 42.0643C24.6221 41.7647 24.6229 41.7532 24.6619 36.1063C24.6935 31.552 24.6673 30.4491 24.5271 30.4517C24.4314 30.4533 23.9811 30.6552 23.5265 30.9003Z" fill="#625E56"/>
<path fill-rule="evenodd" clip-rule="evenodd" d="M0.832538 63.4585C0.832538 63.6145 1.17235 63.7425 1.58657 63.7425H1.91426L1.87894 68.5596C1.8443 73.2595 1.83689 73.3775 1.5739 73.4173C-0.214405 73.6878 0.716211 73.8199 4.84265 73.8818L8.78536 73.9409V72.5484C8.78536 71.4482 8.74601 71.1561 8.59759 71.1561C8.38584 71.1561 8.24646 71.4408 8.24566 71.8749C8.24538 72.0355 8.1273 72.3605 7.98307 72.597C7.63329 73.1705 7.06877 73.3112 5.11224 73.312L3.52842 73.3129L3.53029 68.8309C3.53124 66.3658 3.56777 64.2159 3.61144 64.0531C3.6713 63.8299 3.80932 63.7472 4.17205 63.7162C4.43679 63.6936 4.6782 63.5993 4.70866 63.5066C4.75125 63.3769 4.31048 63.3381 2.79824 63.3381C1.71719 63.3381 0.832538 63.3923 0.832538 63.4585ZM27.8587 63.4862C30.231 63.5353 32.4002 63.62 32.6792 63.6741L33.1864 63.7725L33.151 68.6394L33.1156 73.5066L32.5427 73.6198C31.2896 73.8676 32.0461 73.9868 34.8713 73.9868C37.3944 73.9868 37.8696 73.9529 38.5145 73.7262C40.6426 72.9782 41.8098 71.1779 41.8098 68.6441C41.8098 66.3821 40.8762 64.6722 39.2037 63.8713C38.5431 63.5547 38.4677 63.4851 38.732 63.4348C38.905 63.4018 35.5587 63.3798 31.2959 63.3858C24.2868 63.3955 23.958 63.4052 27.8587 63.4862ZM53.1325 63.4703C53.1325 63.6025 53.4406 63.701 54.076 63.7722L54.413 63.8099L54.4488 69.1342C54.4859 74.707 54.4431 75.2 53.92 75.2C53.7068 75.2 53.6864 75.1549 53.8017 74.9393C54.0053 74.5588 53.9723 74.0373 53.7295 73.7942C53.4178 73.4826 52.5045 73.5144 52.3284 73.8431C52.083 74.3017 52.1656 74.9194 52.5198 75.2734C52.7844 75.5382 52.9879 75.6043 53.5373 75.6043C53.9152 75.6043 54.3942 75.5165 54.6019 75.409C55.1509 75.1251 55.7922 74.3411 55.955 73.7545C56.0414 73.4439 56.0967 71.3937 56.0972 68.494L56.0979 63.7425L56.4012 63.7406C56.8476 63.738 57.3111 63.5936 57.3111 63.4572C57.3111 63.3918 56.3709 63.3381 55.2218 63.3381C53.9459 63.3381 53.1325 63.3897 53.1325 63.4703ZM34.9967 63.9118C34.9609 64.0048 34.9477 66.2037 34.9672 68.798L35.0028 73.515L36.2159 73.5475C37.2589 73.5755 37.5141 73.5362 38.0356 73.2679C38.7838 72.8827 39.4428 72.0435 39.7252 71.1166C40.0252 70.1306 40.1265 68.1584 39.9337 67.0518C39.5315 64.742 38.4061 63.7514 36.178 63.7455C35.4042 63.7435 35.0417 63.7944 34.9967 63.9118ZM24.7179 67.3377C24.4735 67.4582 24.066 67.7991 23.8127 68.095C22.4352 69.7043 22.7182 72.3271 24.3967 73.5068C24.8722 73.841 25.1355 73.9205 25.9123 73.9645C26.4803 73.9966 27.0139 73.9507 27.2599 73.8488C27.7471 73.6471 28.6001 72.69 28.6001 72.345C28.6001 71.9428 28.3685 72.0633 27.9373 72.6902C27.4664 73.3744 27.3226 73.4477 26.4505 73.4477C25.2388 73.4477 24.5694 72.5189 24.4546 70.6787L24.3861 69.5818L25.8401 69.4928C26.6398 69.4438 27.5879 69.4039 27.9471 69.4039C28.5144 69.4039 28.6001 69.3678 28.6001 69.1289C28.6001 68.591 28.0716 67.804 27.4764 67.4552C26.7677 67.0399 25.4374 66.9833 24.7179 67.3377ZM59.5813 67.3847C57.2585 68.6118 57.2984 72.5692 59.6451 73.7051C60.2915 74.0182 61.6075 74.0881 62.2561 73.844C62.7959 73.6409 63.6352 72.7995 63.9291 72.1671C64.2209 71.5391 64.2717 70.0595 64.0291 69.2499C63.8284 68.58 63.0878 67.7159 62.4241 67.3773C61.7194 67.0177 60.2688 67.0216 59.5813 67.3847ZM73.8907 67.3128C73.7053 67.4196 73.205 67.5094 72.7787 67.512C71.9721 67.5169 71.7311 67.724 72.3743 67.8593C73.172 68.0271 73.1464 67.9327 73.1857 70.852L73.2222 73.5514L72.7477 73.6404C71.7512 73.8274 72.3137 73.9868 73.9693 73.9868C75.2662 73.9868 75.6523 73.9472 75.6098 73.8183C75.5793 73.7257 75.3467 73.6195 75.0932 73.5824L74.6321 73.515L74.6452 71.1422C74.6566 69.1012 74.6944 68.696 74.9149 68.2441C75.1135 67.8372 75.2607 67.7087 75.568 67.6738C75.9102 67.6349 75.9413 67.6568 75.7942 67.8341C75.7003 67.9471 75.6432 68.2101 75.667 68.4185C75.7046 68.7469 75.7755 68.8027 76.1992 68.8381C77.0681 68.9108 77.4107 68.185 76.8463 67.4675C76.4606 66.9774 75.5129 66.9606 75.0379 67.4356C74.7159 67.7576 74.7144 67.7577 74.6733 67.4708C74.6224 67.1151 74.3344 67.0569 73.8907 67.3128ZM20.2765 67.3364C19.9866 67.4534 20.0926 67.6515 20.445 67.6515C20.636 67.6515 20.7819 67.7295 20.7819 67.8313C20.7819 67.9656 19.9319 69.3121 19.6359 69.6467C19.597 69.6905 18.6253 67.9891 18.6253 67.8773C18.6253 67.8404 18.8679 67.7691 19.1645 67.7189C20.261 67.5337 19.6542 67.382 17.8165 67.382C16.6483 67.382 15.9294 67.4333 15.9294 67.5168C15.9294 67.5909 16.1143 67.6515 16.3403 67.6515C16.8876 67.6515 17.2002 68.0179 17.9915 69.5868L18.6382 70.8691L17.7893 72.1585C17.0688 73.253 16.864 73.4715 16.4349 73.6038C16.157 73.6898 15.9294 73.811 15.9294 73.8734C15.9294 73.9357 16.5093 73.9868 17.218 73.9868C18.0425 73.9868 18.4765 73.9383 18.4231 73.8521C18.3772 73.7779 18.2372 73.7164 18.1119 73.7152C17.9865 73.714 17.797 73.658 17.6906 73.5909C17.533 73.4911 17.6187 73.2679 18.1556 72.3797C18.5176 71.7809 18.8572 71.291 18.9102 71.291C18.9634 71.291 19.2806 71.7913 19.6152 72.403C20.2739 73.6066 20.2608 73.6859 19.4004 73.7078C19.1965 73.713 19.0297 73.7779 19.0297 73.8521C19.0297 73.9357 19.771 73.9868 20.9842 73.9868C22.8645 73.9868 23.5493 73.8347 22.3766 73.6773C22.0675 73.6358 21.7647 73.5218 21.7036 73.4236C21.6426 73.3257 21.2057 72.572 20.7328 71.7488L19.8731 70.2522L20.596 69.1202C21.41 67.8459 21.6164 67.6515 22.1557 67.6515C22.6659 67.6515 22.6372 67.4363 22.1131 67.3314C21.6258 67.2339 20.523 67.2369 20.2765 67.3364ZM8.78536 67.4995C8.78536 67.5642 9.028 67.6559 9.32454 67.7033L9.86372 67.7896V70.43V73.0702L10.322 73.5285C10.7554 73.962 10.8313 73.9868 11.7185 73.9868C12.4939 73.9868 12.7418 73.9291 13.1473 73.6539L13.638 73.321V73.6539C13.638 74.0102 13.878 74.0843 14.3001 73.8582C14.4323 73.7876 14.9216 73.6684 15.3876 73.5934C15.8535 73.5183 16.2705 73.4213 16.314 73.3775C16.4493 73.2422 16.0177 73.0475 15.5775 73.0452C15.1727 73.0434 15.1553 73.0189 15.0732 72.3356C15.0264 71.9463 14.9876 70.6727 14.9871 69.5049L14.9859 67.382H13.7728C12.5821 67.382 12.0715 67.5949 13.0651 67.6772L13.5705 67.7189L13.6105 69.8082C13.657 72.2506 13.5975 72.6915 13.1633 73.1258C12.7383 73.5508 11.9038 73.5704 11.5358 73.1642C11.3044 72.9088 11.2747 72.6099 11.2354 70.1313L11.1918 67.382H9.98853C9.32683 67.382 8.78536 67.4348 8.78536 67.4995ZM42.4838 67.4995C42.4838 67.5642 42.7264 67.6559 43.0229 67.7033L43.5621 67.7896V70.43V73.0702L44.0204 73.5285C44.4538 73.962 44.5297 73.9868 45.4169 73.9868C46.1924 73.9868 46.4402 73.9291 46.8457 73.6539L47.3364 73.321V73.6539C47.3364 74.0102 47.5764 74.0843 47.9986 73.8582C48.1307 73.7876 48.62 73.6684 49.086 73.5934C49.552 73.5183 49.9689 73.4213 50.0124 73.3775C50.1477 73.2422 49.7162 73.0475 49.2759 73.0452C48.8712 73.0434 48.8538 73.0189 48.7716 72.3356C48.7249 71.9463 48.6861 70.6727 48.6856 69.5049L48.6843 67.382H47.4711C46.2806 67.382 45.7699 67.5949 46.7634 67.6772L47.269 67.7189L47.3089 69.8082C47.3554 72.2506 47.2959 72.6915 46.8617 73.1258C46.4367 73.5508 45.6023 73.5704 45.2342 73.1642C45.0029 72.9088 44.9731 72.6099 44.9338 70.1313L44.8902 67.382H43.687C43.0253 67.382 42.4838 67.4348 42.4838 67.4995ZM64.7248 67.4995C64.7248 67.5642 64.9674 67.6559 65.264 67.7033L65.803 67.7896V70.43V73.0702L66.2615 73.5285C66.6948 73.962 66.7706 73.9868 67.6579 73.9868C68.4333 73.9868 68.6812 73.9291 69.0867 73.6539L69.5773 73.321V73.6539C69.5773 74.0102 69.8174 74.0843 70.2395 73.8582C70.3717 73.7876 70.861 73.6684 71.327 73.5934C71.7929 73.5183 72.2099 73.4213 72.2534 73.3775C72.3887 73.2422 71.9571 73.0475 71.5168 73.0452C71.1121 73.0434 71.0947 73.0189 71.0126 72.3356C70.9658 71.9463 70.927 70.6727 70.9265 69.5049L70.9252 67.382H69.7122C68.5215 67.382 68.0108 67.5949 69.0044 67.6772L69.5099 67.7189L69.5499 69.8082C69.5964 72.2506 69.5369 72.6915 69.1027 73.1258C68.6776 73.5508 67.8432 73.5704 67.4752 73.1642C67.2438 72.9088 67.2141 72.6099 67.1748 70.1313L67.1312 67.382H65.9279C65.2662 67.382 64.7248 67.4348 64.7248 67.4995ZM25.0457 67.9248C24.8506 68.1567 24.6911 68.4276 24.6911 68.527C24.6911 68.6265 24.6542 68.8037 24.6092 68.921C24.5379 69.1068 24.7024 69.1342 25.8864 69.1342H27.2454L27.1678 68.6962C27.0308 67.9246 26.6936 67.5891 26.0092 67.5439C25.4688 67.508 25.3603 67.5508 25.0457 67.9248ZM60.2379 67.7878C59.6849 68.2229 59.4003 69.1607 59.4003 70.5495C59.4003 72.5836 59.9758 73.5824 61.1474 73.5824C62.1803 73.5824 62.7029 72.5636 62.7029 70.5495C62.7029 69.2915 62.452 68.3041 62.0137 67.8376C61.6216 67.4203 60.7368 67.3954 60.2379 67.7878Z" fill="#625E56"/>
</svg>
