<svg width="176" height="36" viewBox="0 0 176 36" fill="none" xmlns="http://www.w3.org/2000/svg">
<path fill-rule="evenodd" clip-rule="evenodd" d="M7.95192 0.104261C5.89319 0.54518 4.75368 1.49186 4.07203 3.3272C3.80961 4.03377 3.78017 4.47455 3.6944 8.97345C3.64309 11.6573 3.53989 14.0355 3.46479 14.258C3.06529 15.4436 2.30896 16.3516 1.0144 17.1995C0.707268 17.4008 0.456055 17.6396 0.456055 17.7304C0.456055 17.8211 0.707268 18.0599 1.0144 18.2611C2.30896 19.1092 3.06529 20.017 3.46479 21.2026C3.53989 21.4252 3.64309 23.8033 3.6944 26.4872C3.78017 30.9861 3.80961 31.427 4.07203 32.1335C4.6536 33.6994 5.59429 34.6367 7.08226 35.1329C7.7912 35.3692 10.6162 35.3778 87.8402 35.3778C165.064 35.3778 167.89 35.3692 168.598 35.1329C170.087 34.6367 171.026 33.6994 171.608 32.1335C171.871 31.427 171.9 30.9861 171.986 26.4872C172.037 23.8033 172.141 21.4252 172.216 21.2026C172.615 20.017 173.371 19.1092 174.666 18.2611C174.973 18.0599 175.225 17.8211 175.225 17.7304C175.225 17.6396 174.973 17.4008 174.666 17.1995C173.371 16.3516 172.615 15.4436 172.216 14.258C172.141 14.0355 172.037 11.6573 171.986 8.97345C171.9 4.47455 171.871 4.03377 171.608 3.3272C171.041 1.79882 170.136 0.876071 168.674 0.333411C168.016 0.0895548 165.859 0.0823354 88.1104 0.0646879C44.1718 0.0546609 8.10049 0.072442 7.95192 0.104261ZM79.1309 9.50448L77.5123 11.1125L79.1309 12.7207C80.725 14.3045 80.7502 14.3227 80.7924 13.9176C80.8293 13.5635 80.8759 13.5192 81.13 13.5966C82.8535 14.1224 83.7284 16.0024 82.9943 17.6021C82.7429 18.1498 82.0957 18.7831 81.5232 19.0413C81.22 19.1781 81.2549 19.2287 82.5298 20.4954L83.8506 21.8077L82.6377 23.0192C81.5762 24.0794 81.4755 24.219 81.83 24.1365C83.1217 23.8364 84.6253 22.9919 85.6187 22.0085C89.4131 18.2527 88.4103 11.987 83.6417 9.65583C83.0167 9.35034 82.1285 9.03161 81.668 8.94765C80.8513 8.79884 80.8297 8.78401 80.79 8.34576L80.7496 7.89656L79.1309 9.50448ZM15.7855 8.35834C14.0898 8.8891 12.8045 10.0501 12.257 11.5456C11.9474 12.3909 11.9855 13.9544 12.3383 14.8855C12.6655 15.7494 13.4574 16.6357 14.3809 17.1713C14.7125 17.3638 15.9091 17.8237 17.04 18.1934C20.0194 19.1673 20.5167 19.5568 20.4984 20.9022C20.4777 22.4257 19.4134 23.4504 17.6669 23.6288C15.9077 23.8088 14.5105 22.9898 13.6408 21.2691C13.3827 20.7585 13.102 20.009 13.0171 19.6038L12.8625 18.8667H12.2643H11.6661V21.7412V24.6156H12.2739C12.7129 24.6156 12.8816 24.5621 12.8816 24.4229C12.8816 24.0732 13.1189 24.0732 14.459 24.423C16.9786 25.081 18.543 25.0043 20.2933 24.1376C21.4403 23.5696 22.3418 22.6421 22.9187 21.4367C23.3083 20.6227 23.3488 20.4181 23.3488 19.2678C23.3488 17.802 23.0932 17.1192 22.2057 16.2137C21.4384 15.4312 20.6731 15.0413 18.3154 14.2322C17.1468 13.8313 15.9285 13.3516 15.6081 13.1663C13.5839 11.9957 14.5556 9.61264 17.1411 9.40728C19.0242 9.25769 20.0112 10.1133 20.8426 12.6166L21.1424 13.5191H21.6717H22.2008V10.9789V8.43869H21.6563C21.297 8.43869 21.0855 8.50686 21.0342 8.63922C20.9288 8.91075 20.7501 8.89445 19.58 8.50553C18.4421 8.12745 16.7345 8.06114 15.7855 8.35834ZM88.6506 9.03415V9.62976L89.5623 9.66919L90.4739 9.70876L90.5089 16.4937L90.5439 23.2786H89.5973H88.6506V23.947V24.6156H95.7413H102.832V21.808V19.0005H102.236C101.649 19.0005 101.639 19.0079 101.551 19.5211C101.411 20.3405 100.745 21.6009 100.13 22.2101C99.186 23.1442 98.7439 23.2723 96.4504 23.2757L94.4583 23.2786V19.9362V16.5939H95.2486C96.5623 16.5939 97.2392 17.2357 97.704 18.9214L97.9284 19.7357L98.4894 19.7768L99.0502 19.8179V16V12.1821H98.4703H97.8906L97.7315 12.9324C97.53 13.8832 96.9936 14.7957 96.4822 15.0574C96.2642 15.1691 95.7183 15.2984 95.2693 15.3449L94.4526 15.4294L94.4893 12.5691L94.5257 9.70876L96.3491 9.72079C97.9211 9.73123 98.2487 9.7716 98.7254 10.0137C99.6228 10.4695 100.37 11.4793 100.856 12.8921C100.92 13.0794 101.054 13.1248 101.447 13.0927L101.954 13.0511L101.991 10.7449L102.028 8.43869H95.3394H88.6506V9.03415ZM78.0576 9.05259C76.1415 9.55007 74.0109 11.2619 73.1642 12.9842C71.6164 16.1329 72.1769 19.6638 74.6056 22.0671C75.7458 23.1954 77.0723 23.8885 78.825 24.272C79.1433 24.3416 79.1964 24.4198 79.1964 24.8187C79.1964 25.0746 79.2432 25.284 79.3005 25.284C79.3966 25.284 80.9794 23.7133 82.2255 22.3817L82.7521 21.8189L81.1589 20.3094C80.2827 19.4791 79.5131 18.7798 79.4486 18.7553C79.3841 18.7307 79.3314 18.9026 79.3314 19.1374C79.3314 19.4713 79.2851 19.5462 79.1178 19.4826C79.0003 19.438 78.8486 19.4016 78.7805 19.4016C78.5197 19.4016 77.5221 18.3743 77.2874 17.864C76.9734 17.1817 76.9734 16.2736 77.2874 15.5913C77.5551 15.0094 78.4463 14.1377 78.9283 13.9863C79.2045 13.8995 79.1129 13.775 77.8528 12.5233L76.4753 11.1551L77.6545 10.0631C78.3029 9.46237 78.8088 8.95046 78.7786 8.92532C78.7483 8.9002 78.4239 8.95755 78.0576 9.05259ZM163.393 9.82909C162.797 10.4181 162.757 11.1506 163.283 11.7698C163.932 12.5334 164.975 12.5385 165.669 11.7814C166.223 11.1763 166.189 10.4312 165.582 9.82909C165.189 9.44111 165.029 9.37453 164.487 9.37453C163.945 9.37453 163.786 9.44111 163.393 9.82909ZM163.947 9.80342C163.008 10.3359 163.186 11.7373 164.224 11.995C165.358 12.277 166.087 10.8708 165.24 10.0327C164.826 9.6224 164.399 9.54673 163.947 9.80342ZM163.88 10.8452C163.88 11.4691 163.924 11.6473 164.081 11.6473C164.208 11.6473 164.284 11.5215 164.284 11.3172C164.284 10.9282 164.63 10.9825 164.762 11.3922C164.806 11.5326 164.934 11.6473 165.045 11.6473C165.196 11.6473 165.223 11.5687 165.149 11.3465C165.094 11.1811 165.061 10.8699 165.076 10.6549C165.107 10.1971 164.922 10.0478 164.318 10.045L163.88 10.043V10.8452ZM119.973 11.8405C118.329 12.2893 116.492 13.7699 115.729 15.2602C114.449 17.7599 114.85 20.5963 116.779 22.6888C118.483 24.5379 120.838 25.1676 123.494 24.4849C124.368 24.26 124.519 24.2514 124.615 24.4204C124.683 24.5401 124.931 24.6156 125.259 24.6156H125.792V22.4096V20.2036L125.218 20.2039L124.644 20.2041L124.415 20.9761C124.132 21.9281 123.543 22.7549 122.798 23.2427C122.318 23.5568 122.097 23.6118 121.335 23.6056C119.826 23.5934 119.107 22.9041 118.763 21.1395C118.536 19.9758 118.586 15.8776 118.839 14.9281C119.23 13.4558 119.978 12.8506 121.403 12.8506C122.844 12.8506 123.619 13.4818 124.262 15.1816C124.644 16.1899 124.644 16.1899 125.151 16.1914L125.657 16.1928V14.0538V11.9147H125.144C124.862 11.9147 124.562 11.9826 124.478 12.0656C124.365 12.1777 124.052 12.1433 123.26 11.9319C122.079 11.6163 120.913 11.5838 119.973 11.8405ZM131.741 11.7453C130.392 11.9954 128.639 13.1491 127.765 14.3613C126.743 15.7784 126.546 16.4077 126.54 18.2752L126.535 19.8897L127.1 21.0159C127.834 22.4789 128.865 23.5188 130.249 24.1907C131.245 24.6742 131.289 24.6824 132.883 24.6824C134.476 24.6824 134.522 24.6738 135.558 24.184C138.236 22.9186 139.77 20.056 139.322 17.1615C138.835 14.0209 136.036 11.6024 132.96 11.6655C132.472 11.6755 131.923 11.7115 131.741 11.7453ZM141.688 11.8827L139.013 11.9204L139.054 12.4857L139.096 13.0511L139.805 13.0915L140.514 13.132V18.2721V23.4123H139.771H139.028V24.014V24.6156H142.134H145.241V24.014V23.4123H144.495H143.749L143.787 20.9056L143.823 18.3988L144.414 18.4365C145.643 18.515 145.874 18.9061 146.051 21.2047C146.198 23.1063 146.423 23.704 147.217 24.3037C147.619 24.6077 147.879 24.6852 148.636 24.7275C149.922 24.7995 150.377 24.686 151.035 24.1281L151.606 23.6447L151.234 23.2612C150.783 22.7943 150.75 22.7926 150.293 23.2118C149.653 23.7982 149.64 23.7684 149.428 21.3401C149.258 19.3889 148.977 18.7356 148.047 18.1136L147.419 17.6947L147.965 17.26C149.43 16.0946 149.36 13.9163 147.821 12.7515C146.762 11.9492 145.876 11.8237 141.688 11.8827ZM23.1462 13.8609V15.8072L23.7023 15.766C24.2426 15.7261 24.2662 15.704 24.5317 14.9897C25.0286 13.6523 25.6143 13.1179 26.5835 13.1179H27.063V18.2651V23.4123H26.3201H25.5773V24.014V24.6156H28.6838H31.7901V24.014V23.4123H31.0473H30.3044V18.2651V13.1179H30.7905C31.8281 13.1179 32.4633 13.7042 32.9274 15.0899C33.1577 15.7776 33.1732 15.7917 33.6917 15.7917H34.2212V13.8532V11.9147H28.6838H23.1462V13.8609ZM34.6264 12.5163V13.1179H35.3605H36.0944L37.8591 16.2795L39.6236 19.4409V21.4267V23.4123H38.8808H38.1379V24.014V24.6156H41.2444H44.3507V24.014V23.4123H43.6079H42.865V21.1403V18.8683L44.3155 15.9931L45.7659 13.1179H46.544H47.322V12.5163V11.9147H45.3637H43.4053V12.5163C43.4053 13.1147 43.4079 13.1179 43.878 13.1179C44.138 13.1179 44.3507 13.1488 44.3507 13.1864C44.3507 13.4441 42.2828 17.2729 42.194 17.1794C42.1326 17.1148 41.5896 16.1895 40.9871 15.1233L39.8917 13.1848L40.2979 13.1429C40.682 13.1032 40.7041 13.0689 40.7041 12.5079V11.9147H37.6653H34.6264V12.5163ZM47.7533 12.4829L47.7948 13.0511L48.5039 13.0915L49.2129 13.132V18.2721V23.4123H48.4624H47.7118L47.7533 23.9804L47.7948 24.5487L53.366 24.5835L58.9373 24.6185V22.2773V19.9362H58.4023C57.8874 19.9362 57.8614 19.9577 57.7132 20.5022C57.4942 21.3076 56.9999 22.2164 56.5525 22.6365C55.9178 23.2325 55.2976 23.4123 53.8768 23.4123H52.5894V18.2721V13.132L53.2986 13.0915L54.0076 13.0511L54.049 12.4829L54.0907 11.9147H50.9011H47.7118L47.7533 12.4829ZM59.4776 12.5163V13.1179H60.2203H60.9632V18.2651V23.4123H60.2203H59.4776V24.014V24.6156H65.0825H70.6876V22.3428V20.07H70.1525C69.6375 20.07 69.6117 20.0912 69.4632 20.6374C69.2416 21.452 68.8864 22.0796 68.3696 22.57C67.6613 23.242 67.0926 23.4123 65.5565 23.4123H64.1987L64.2354 20.9056L64.2721 18.3988L64.8799 18.4338C65.7023 18.4813 66.2715 19.0706 66.5088 20.1204L66.6787 20.8722H67.1975H67.7163V17.7972V14.7222H67.191C66.6904 14.7222 66.6615 14.7456 66.5745 15.2236C66.4475 15.9212 66.0208 16.7619 65.6911 16.9645C65.5389 17.0581 65.1421 17.1715 64.8095 17.2167L64.2046 17.2988V15.2083V13.1179H65.5686C66.5627 13.1179 67.0614 13.1785 67.4076 13.3411C67.962 13.6016 68.5981 14.4143 68.8191 15.1448C68.9643 15.6243 69.0088 15.6581 69.4934 15.6581H70.0122V13.7864V11.9147H64.7449H59.4776V12.5163ZM103.372 12.5163V13.1179H104.115H104.858V18.2651V23.4123H104.115H103.372V24.014V24.6156H105.466H107.559V24.014V23.4123H106.816H106.073V19.244V15.0758L106.74 16.0341C107.107 16.561 108.577 18.7076 110.006 20.8039L112.604 24.6156H113.188H113.772V18.8736V13.132L114.481 13.0915L115.19 13.0511L115.231 12.4829L115.273 11.9147H113.172H111.071V12.5163V13.1179H111.813H112.556V15.8587C112.556 17.366 112.536 18.5994 112.511 18.5994C112.487 18.5994 111.441 17.0953 110.187 15.257L107.908 11.9147H105.64H103.372V12.5163ZM151.885 12.4829L151.927 13.0511L152.635 13.0915L153.345 13.132V18.2721V23.4123H152.602H151.86V24.014V24.6156H157.464H163.069V22.3428V20.07H162.554C162.045 20.07 162.038 20.0778 161.805 20.8388C161.505 21.8215 160.812 22.7622 160.146 23.0886C159.75 23.2827 159.26 23.355 158.106 23.3897L156.586 23.4353V20.9584C156.586 19.5579 156.642 18.4478 156.713 18.4037C156.924 18.2745 157.935 18.4877 158.229 18.7238C158.381 18.8456 158.647 19.3638 158.821 19.8753L159.138 20.8052H159.652H160.165V17.7972V14.7891H159.634C159.117 14.7891 159.098 14.8058 158.947 15.3908C158.6 16.7251 158.21 17.1281 157.22 17.1709L156.654 17.1956L156.616 15.1567L156.58 13.1179H158.007C159.523 13.1179 159.923 13.2309 160.454 13.8072C160.801 14.1836 161.313 15.1652 161.313 15.4523C161.313 15.6033 161.457 15.6581 161.854 15.6581H162.394V13.7864V11.9147H157.119H151.843L151.885 12.4829ZM131.651 13.0427C130.491 13.5423 130.064 14.9085 130.06 18.1315C130.055 22.1323 130.588 23.3647 132.432 23.6158C133.367 23.743 134.31 23.4871 134.818 22.9681C135.583 22.1867 135.696 21.6491 135.755 18.4942C135.805 15.9164 135.784 15.5636 135.534 14.7475C135.242 13.796 134.799 13.2455 134.123 12.9928C133.595 12.7952 132.158 12.8242 131.651 13.0427ZM143.822 13.1404C143.781 13.2451 143.765 14.2003 143.785 15.2632L143.823 17.1956L144.359 17.1627C145.12 17.116 145.481 16.7132 145.589 15.7857C145.696 14.8842 145.455 13.6307 145.116 13.3277C144.769 13.0166 143.917 12.8935 143.822 13.1404Z" fill="#625E56"/>
</svg>
