<svg width="192" height="44" viewBox="0 0 192 44" fill="none" xmlns="http://www.w3.org/2000/svg">
<path fill-rule="evenodd" clip-rule="evenodd" d="M18.5878 0.611931C17.8123 0.862043 17.3516 1.16167 16.5026 1.96776C15.838 2.59867 15.4395 2.82285 14.5755 3.05175C13.0044 3.46792 10.0258 5.00429 8.37397 6.25065C4.14255 9.44316 1.32518 13.9357 0.2592 19.1901C-0.0806545 20.8654 -0.0875241 24.6934 0.245794 26.6146C1.10515 31.5674 3.57664 35.897 7.3705 39.0962C9.95477 41.2755 12.8874 42.7321 16.3101 43.5368C18.851 44.1345 22.5163 44.1559 25.0492 43.5883C30.4593 42.3759 35.1126 39.2037 38.1027 34.6897C44.3487 25.2599 42.08 12.7448 32.899 5.98572C30.9121 4.52277 27.3275 2.90925 25.2991 2.56482C24.8147 2.48263 24.2841 2.20136 23.6791 1.70619C22.7289 0.9284 22.5748 0.869791 21.1112 0.729491C20.6043 0.680986 19.9255 0.603509 19.6029 0.557361C19.2803 0.51138 18.8235 0.535971 18.5878 0.611931ZM18.346 1.35502C17.8473 1.57903 17.852 1.58172 18.9261 1.69524C20.381 1.84884 21.1049 2.34419 21.7232 3.60923C22.1875 4.55983 22.2001 4.65683 22.1889 7.19686C22.1791 9.41788 22.0712 10.4736 21.4661 14.2707C21.0749 16.7255 20.7407 19.3024 20.7235 19.9973C20.6947 21.1577 20.7193 21.2604 21.0267 21.2604C21.5301 21.2604 21.6958 20.5382 22.267 15.8556C23.0407 9.51102 23.1675 8.03124 23.0945 6.20534C23.0344 4.69709 22.97 4.41784 22.4465 3.3869C21.7339 1.98359 20.9094 1.3343 19.6857 1.21236C19.1726 1.16133 18.6542 1.21641 18.346 1.35502ZM22.044 1.59924C22.4645 1.89028 23.6571 3.68468 24.1371 4.7488C24.4233 5.38292 25.0541 7.4628 25.5391 9.37056C26.3647 12.6176 26.4493 12.8492 26.8631 12.9968C27.1062 13.0835 27.3421 13.1172 27.3873 13.0717C27.4924 12.9661 26.1283 7.67671 25.5756 6.04567C25.1764 4.86787 24.45 3.49705 23.8045 2.70293C23.4485 2.26503 22.3143 1.46939 22.0512 1.47292C21.9216 1.47478 21.9194 1.51301 22.044 1.59924ZM17.2568 2.43919C16.5701 2.78394 15.7536 3.94203 15.237 5.3041C14.7323 6.63533 11.8648 18.1066 11.9274 18.5445C11.9957 19.0235 12.4973 19.0907 12.7307 18.6523C12.8346 18.4573 13.4436 16.0086 14.0841 13.2105C15.8524 5.48483 16.22 4.37591 17.5165 2.85368C18.1814 2.07303 18.1345 1.99841 17.2568 2.43919ZM19.0794 3.24694C18.6532 4.21506 18.5127 6.25317 18.6757 9.09552C18.7975 11.2185 18.8026 11.2391 19.2055 11.2391C19.6085 11.2391 19.6111 11.2285 19.4858 10.1022C19.4163 9.477 19.3576 7.79056 19.3554 6.35474C19.3522 4.18104 19.4007 3.65386 19.6448 3.20518C20.0037 2.54529 20.0068 2.48094 19.6773 2.48094C19.5288 2.48094 19.271 2.81122 19.0794 3.24694ZM20.3024 3.28098C20.2196 3.44299 20.1025 3.78423 20.0418 4.03888C19.9341 4.49195 19.9483 4.50206 20.6848 4.50206C21.4135 4.50206 21.4329 4.48875 21.2828 4.09228C21.0712 3.5326 20.721 2.98622 20.574 2.98622C20.5071 2.98622 20.385 3.11895 20.3024 3.28098ZM17.4552 3.97758C17.0131 4.76817 17.007 4.83957 17.3824 4.83638C17.8649 4.83199 18.0576 4.61945 18.1818 3.95432C18.3429 3.09098 17.9439 3.10378 17.4552 3.97758ZM82.1647 4.03888C82.1665 4.5376 81.5238 6.54219 80.0448 10.6496C78.8776 13.8918 77.7634 16.8618 77.569 17.2494C77.1943 17.9969 76.4496 18.4814 75.6753 18.4814C75.2892 18.4814 75.2397 18.5485 75.2397 19.0709V19.6603H78.5913H81.943V19.091V18.5219L80.915 18.4471C79.2604 18.3267 79.1828 17.9951 80.1751 15.2813L80.6985 13.8497H83.4268H86.1548L86.813 15.4497C87.8453 17.9602 87.7016 18.4814 85.976 18.4814H85.127V19.0709V19.6603H89.3166H93.5061V19.0895C93.5061 18.5736 93.4513 18.5084 92.9348 18.4111C91.9257 18.2208 91.4493 17.5063 90.1914 14.2953C89.551 12.6608 88.3239 9.52332 87.4641 7.32318L85.9013 3.32307H84.0318H82.1622L82.1647 4.03888ZM117.847 3.53446L114.621 3.70878V4.25194C114.621 4.77272 114.653 4.79866 115.394 4.88269C115.871 4.93659 116.304 5.10839 116.525 5.33037C116.878 5.68474 116.884 5.78478 116.884 11.743C116.884 18.6324 116.954 18.299 115.472 18.4421C114.627 18.5236 114.621 18.5284 114.621 19.1133V19.7023L120.11 19.612C125.996 19.515 126.782 19.4212 128.918 18.5604C130.157 18.061 131.568 16.8992 132.37 15.7188C133.867 13.5133 134.091 10.3535 132.926 7.87056C132.399 6.74784 130.945 5.26198 129.738 4.61287C127.788 3.56477 123.867 3.20921 117.847 3.53446ZM139.004 3.49942C138.083 3.56595 136.895 3.62928 136.365 3.64022L135.401 3.65993V4.22634V4.79276L136.501 4.88151C137.791 4.9856 137.996 5.17845 138.146 6.43104C138.319 7.88236 138.261 16.4977 138.073 17.1776C137.852 17.9795 137.382 18.2868 136.139 18.443C135.18 18.5632 135.15 18.5821 135.15 19.0715V19.5761L140.345 19.6244C146.109 19.678 147.181 19.5738 148.757 18.8064C151.066 17.6822 152.114 15.2409 151.176 13.176C150.801 12.3537 149.642 11.2635 148.685 10.8345L147.975 10.5165L148.776 10.144C150.627 9.28213 151.187 7.37606 150.072 5.72837C148.714 3.72107 145.344 3.04213 139.004 3.49942ZM159.749 3.78052C159.813 4.11619 159.222 5.97241 157.667 10.3127C156.473 13.6476 155.377 16.6562 155.231 16.9983C154.842 17.9124 154.307 18.3388 153.426 18.4386C152.687 18.5223 152.662 18.5439 152.662 19.0928V19.6603H156.097H159.533V19.0709V18.4814H158.648C158.102 18.4814 157.615 18.3765 157.373 18.2063C156.889 17.866 156.941 17.4096 157.705 15.2643L158.238 13.7655H160.962H163.687L164.375 15.508C164.754 16.4664 165.063 17.4084 165.063 17.6013C165.063 18.2072 164.616 18.4814 163.627 18.4814H162.717V19.0709V19.6603H166.917H171.118L171.065 19.1383C171.021 18.7039 170.906 18.5799 170.383 18.3997C169.154 17.9774 169.113 17.9022 166.681 11.6601C165.706 9.15901 164.583 6.27895 164.185 5.25997L163.46 3.40729L161.56 3.35946L159.66 3.31163L159.749 3.78052ZM179.726 3.49318C177.536 3.89505 175.878 4.76598 174.487 6.24559C172.951 7.87697 172.328 9.70135 172.494 12.0812C172.549 12.8686 172.707 13.8773 172.845 14.3229C174.032 18.1455 177.52 20.1887 182.429 19.9371C184.171 19.8478 185.185 19.6274 187.31 18.8765L188.524 18.4471L188.53 17.4116C188.545 14.6044 188.659 13.6944 189.036 13.3877C189.236 13.225 189.618 13.0918 189.884 13.0918C190.326 13.0918 190.367 13.0402 190.367 12.4994V11.907L186.136 11.952L181.904 11.997V12.5023V13.0075L183.145 13.1044C184.909 13.2422 185.006 13.39 185.006 15.9693V17.9675L184.468 18.2465C183.565 18.7158 182.031 18.7465 180.643 18.3229C179.626 18.0127 179.282 17.805 178.524 17.042C176.281 14.7881 175.683 11.0092 177.088 7.98881C177.761 6.54422 178.471 5.78462 179.728 5.16245C180.665 4.69861 180.958 4.63679 182.217 4.63679C183.38 4.63679 183.814 4.7141 184.549 5.0528C185.934 5.69012 186.862 6.78068 187.41 8.41795C187.475 8.61198 187.682 8.71269 188.017 8.71269C188.382 8.71269 188.53 8.62966 188.543 8.41795C188.565 8.07992 188.564 6.38776 188.54 4.9568L188.524 3.9801L187.562 4.08502C186.859 4.1615 186.211 4.0943 185.173 3.83693C183.539 3.43188 180.951 3.26851 179.726 3.49318ZM25.5908 4.37759C25.9996 5.13297 26.1602 5.27024 26.9415 5.53416C30.2639 6.65621 33.9467 9.50917 36.0051 12.5557C37.0786 14.1444 38.154 16.5175 38.6521 18.3972C39.0508 19.9014 39.1001 20.3965 39.1123 23.0288C39.124 25.5437 39.072 26.1894 38.7573 27.4277C37.406 32.7486 33.7452 37.3143 28.8596 39.7724C27.5012 40.4558 25.1981 41.1734 23.6389 41.3987C21.3928 41.7235 17.6939 41.5198 15.8331 40.9688C7.71588 38.5659 2.34609 31.4169 2.34274 23.0089C2.33989 15.9116 6.33418 9.53359 12.7686 6.36096C14.2975 5.60725 14.483 5.46444 14.769 4.82257C14.9423 4.4335 15.0468 4.07762 15.0014 4.03182C14.8555 3.88528 12.8596 4.68143 11.4285 5.45719C4.42325 9.25435 0.360921 16.6648 0.996723 24.4863C1.51488 30.861 4.7688 36.4493 9.9122 39.7982C12.0172 41.1688 13.7424 41.9006 16.5069 42.596C18.684 43.1436 22.8486 43.1355 25.1079 42.5792C32.0776 40.863 37.3592 36.0606 39.6495 29.3568C40.5861 26.6151 40.8852 22.773 40.3908 19.8287C39.0938 12.1024 33.4592 5.83615 25.9261 3.74246L25.1271 3.52047L25.5908 4.37759ZM54.5714 3.77226C54.51 3.83391 54.4597 4.08941 54.4597 4.34003C54.4597 4.75772 54.5275 4.80455 55.274 4.90408C56.7677 5.10316 56.7152 4.86922 56.7702 11.5768L56.8181 17.4376L56.4295 17.8919C56.1428 18.2269 55.8332 18.3696 55.2502 18.4356C54.4821 18.5226 54.4597 18.5412 54.4597 19.0928V19.6603H58.5655H62.6713V19.0709C62.6713 18.5253 62.6329 18.4814 62.1574 18.4814C61.5819 18.4814 61.0137 18.223 60.7075 17.8223C60.5674 17.6391 60.5018 16.7215 60.4981 14.9023L60.4926 12.2496H64.5146H68.5366V14.7681C68.5366 16.2552 68.4603 17.4546 68.3505 17.697C68.1332 18.1765 67.551 18.4814 66.8529 18.4814C66.399 18.4814 66.358 18.5303 66.358 19.0709V19.6603H70.4637H74.5695V19.0709C74.5695 18.5111 74.5404 18.4814 73.9909 18.4814C73.1893 18.4814 72.6147 18.1823 72.3957 17.6511C72.2692 17.3441 72.2258 15.3765 72.2588 11.4587C72.3142 4.88455 72.2642 5.10283 73.7551 4.90408C74.5469 4.79848 74.5695 4.77961 74.5695 4.22769V3.65993H70.4637H66.358V4.23021C66.358 4.77843 66.3878 4.80523 67.1242 4.91621C68.4522 5.1163 68.5366 5.30764 68.5366 8.1232V10.5654H64.5146H60.4926V8.23016C60.4926 5.45955 60.6451 5.10602 61.9218 4.91368C62.6397 4.80539 62.6713 4.77659 62.6713 4.23021V3.65993H58.6772C56.4804 3.65993 54.6329 3.71045 54.5714 3.77226ZM94.344 4.23072C94.344 4.75233 94.3957 4.81111 94.9454 4.91486C95.2763 4.97718 95.7287 5.11141 95.9509 5.21331L96.3549 5.39825V11.2409C96.3549 15.1275 96.292 17.2654 96.1668 17.6261C95.9657 18.206 95.4832 18.4814 94.6682 18.4814C94.2173 18.4814 94.1764 18.5307 94.1764 19.0746V19.6677L97.3186 19.6219L100.461 19.5761V19.0728C100.461 18.5975 100.415 18.5632 99.6228 18.4499C99.0219 18.364 98.6783 18.206 98.4079 17.891C98.0347 17.4565 98.0307 17.3994 98.0307 12.3269V7.20192L99.9283 9.17839C100.972 10.2654 103.63 13.0677 105.836 15.4054L109.845 19.656L110.641 19.6581L111.437 19.6603V12.6126C111.437 4.55933 111.345 5.03141 112.944 4.87714C113.771 4.7973 113.783 4.78753 113.783 4.22448V3.65285L110.474 3.69849L107.164 3.74414L107.113 4.2671C107.063 4.78721 107.068 4.79056 108.021 4.88943C109.705 5.06409 109.669 4.95377 109.728 10.1051L109.778 14.5203L109.398 14.1008C109.19 13.87 106.878 11.4265 104.263 8.67059L99.5068 3.65993H96.9255H94.344V4.23072ZM141.769 7.28107V10.0601H143.199C145.323 10.0601 146.31 9.56627 146.639 8.33997C146.927 7.26591 146.678 6.19961 145.973 5.48902C145.254 4.76446 144.444 4.50424 142.901 4.50306L141.769 4.50206V7.28107ZM121.45 4.7995L120.654 4.85743V11.3004C120.654 16.5104 120.698 17.8041 120.885 18.061C121.386 18.7492 124.755 18.5389 126.46 17.713C128.815 16.5719 130.144 13.5893 129.707 10.4286C129.145 6.36956 126.323 4.44547 121.45 4.7995ZM83.2171 6.86002C83.1649 6.99896 82.7135 8.24953 82.2143 9.63903L81.3067 12.1654L83.3232 12.2129C84.4324 12.239 85.3697 12.2303 85.4063 12.1937C85.4427 12.157 84.9865 10.885 84.3924 9.36719C83.7837 7.81229 83.2707 6.71769 83.2171 6.86002ZM159.818 9.42091C159.289 10.9118 158.885 12.1607 158.92 12.1961C158.956 12.2314 159.89 12.239 160.999 12.2129L163.012 12.1654L161.985 9.52517C161.42 8.07318 160.918 6.84569 160.869 6.79752C160.821 6.74935 160.348 7.92985 159.818 9.42091ZM141.779 13.976C141.793 17.9919 142.008 18.3744 144.199 18.2703C146.345 18.1684 147.268 17.3455 147.423 15.3972C147.571 13.511 146.923 12.1841 145.547 11.5557C145.049 11.3283 144.46 11.2455 143.32 11.2428L141.769 11.2391L141.779 13.976ZM10.5353 14.1405C8.91661 19.3006 8.03897 23.7714 8.04082 26.8491C8.04266 30.3086 8.32152 30.5938 13.9889 32.9359C17.6602 34.4529 23.1264 36.558 23.1906 36.4796C23.2181 36.446 23.1775 35.8123 23.1006 35.0712C22.7714 31.9002 23.6922 23.9074 25.1429 17.3457C25.4139 16.119 25.6358 15.0915 25.6358 15.0625C25.6358 14.963 23.2958 13.8716 23.2401 13.9448C23.2094 13.9851 22.9861 15.5574 22.7441 17.4387C22.2245 21.4723 22.0477 21.9341 21.0228 21.9341C20.2564 21.9341 19.9446 21.5081 19.9405 20.455C19.9385 19.8964 20.6323 14.775 20.8728 13.574C20.9592 13.1435 20.9239 13.1214 19.7378 12.8645C18.1426 12.5191 16.6834 12.2813 15.7657 12.2171L15.0286 12.1654L14.4836 14.4993C14.0716 16.2643 13.975 16.9599 14.0873 17.3533C14.3978 18.4418 13.6236 20.0023 12.4304 20.6923L11.8104 21.0511V22.5873C11.8104 24.7943 11.6282 25.7236 11.1957 25.7236C10.9353 25.7236 10.8817 25.6527 10.9723 25.4289C11.0382 25.2669 11.1262 24.2626 11.168 23.1972L11.2441 21.2604L10.8915 21.667C10.6705 21.922 10.6045 22.1143 10.7144 22.1826C10.9596 22.3347 10.8034 23.7278 10.4681 24.3794C10.2219 24.8579 10.1324 24.9063 9.66871 24.8131C9.38164 24.7553 8.97626 24.5961 8.76795 24.4587C8.40246 24.2181 8.39793 24.1847 8.63791 23.5012C8.77466 23.1117 9.03542 22.6536 9.21724 22.4833C9.39923 22.313 9.54804 22.1009 9.54804 22.0118C9.54804 21.9226 9.63217 21.8499 9.73523 21.8499C9.84332 21.8499 9.88925 22.0239 9.84383 22.2625C9.79305 22.5293 9.85388 22.7093 10.0158 22.7717C10.3898 22.916 10.4681 22.74 10.2294 22.2917C9.98526 21.8332 10.1642 21.3514 10.7258 20.9561C11.0362 20.7376 11.0479 20.6479 10.8729 19.8286C10.607 18.5817 10.7496 17.4347 11.2544 16.7621C11.5154 16.4143 11.8397 15.517 12.1244 14.3549C12.3741 13.336 12.6181 12.3695 12.6666 12.2075C12.7415 11.9571 12.6402 11.9128 11.9944 11.9128H11.2341L10.5353 14.1405ZM28.0658 14.7169C27.8815 14.7555 27.4254 14.8658 27.0525 14.9621L26.3744 15.1375L25.8345 17.6936C24.4391 24.3023 23.7225 30.0334 23.8226 33.7833C23.9116 37.1189 24.0691 37.3514 26.005 37.006C27.4948 36.74 30.2529 35.9175 30.7475 35.5918C31.7456 34.9343 31.9472 33.232 31.6864 27.6606C31.496 23.5928 31.2325 20.9267 30.6439 17.1063C30.3274 15.0529 30.2507 14.7947 29.9316 14.7086C29.5387 14.6027 28.5909 14.6069 28.0658 14.7169ZM14.9051 16.3905C14.8146 16.6301 14.7222 17.0635 14.6998 17.3536C14.6522 17.9735 14.8502 18.0657 17.4262 18.6201C18.8619 18.9294 19.036 18.9369 19.219 18.6993C19.4265 18.4294 19.7011 17.0079 19.5707 16.877C19.5077 16.8137 15.401 15.955 15.1607 15.955C15.1108 15.955 14.9958 16.151 14.9051 16.3905ZM11.4729 19.7949C11.5352 20.0447 11.6108 20.2739 11.6408 20.3041C11.7383 20.402 12.6661 19.8591 12.9119 19.5602C13.1334 19.2909 13.1236 19.2866 12.7775 19.5031C12.4787 19.6902 12.2997 19.6972 11.8818 19.5387C11.3665 19.3433 11.3609 19.3467 11.4729 19.7949ZM87.7401 24.1906C87.578 24.3707 87.0486 24.7268 86.564 24.9818C85.7173 25.4274 85.683 25.4724 85.6902 26.1319C85.6973 26.7864 84.9902 28.8007 81.99 36.6713C80.6897 40.0824 80.6233 40.1793 79.5467 40.2417C78.7351 40.289 78.6714 40.3243 78.6222 40.7557L78.5691 41.2189H81.4403H84.3115L84.2583 40.7557C84.208 40.3166 84.1548 40.2898 83.2333 40.2417C82.611 40.2092 82.2299 40.1092 82.1744 39.964C82.0923 39.749 82.6514 37.9152 83.4481 35.7871L83.8106 34.8186H86.6232H89.4361L90.1449 37.1648C90.5348 38.4551 90.8278 39.649 90.7959 39.8175C90.7547 40.0344 90.542 40.1487 90.0691 40.2082C89.489 40.2813 89.3933 40.3539 89.3474 40.7557L89.2942 41.2189H92.5844H95.8745L95.8214 40.7557C95.7761 40.3601 95.6829 40.2855 95.1819 40.2443C94.1419 40.1589 93.718 39.8874 93.3305 39.0585C93.1295 38.629 91.9074 35.0928 90.6146 31.2005C89.3221 27.3082 88.2128 24.0651 88.1497 23.9933C88.0867 23.9216 87.9024 24.0104 87.7401 24.1906ZM58.7688 24.605C57.6469 24.9233 56.8161 25.6602 56.1598 26.9189C55.6448 27.9069 55.6057 28.0862 55.6932 29.0545C55.9122 31.4797 56.7727 32.3807 60.2413 33.8176C62.9179 34.9263 63.5929 35.6852 63.5929 37.5854C63.5929 38.5823 63.5271 38.8649 63.189 39.3176C62.2522 40.5726 60.1828 40.8564 58.695 39.9341C57.7154 39.3268 56.8828 38.0143 56.7193 36.8196C56.6188 36.0852 56.5588 35.9852 56.2459 36.0304C55.913 36.0784 55.8741 36.2354 55.6933 38.2714C55.5865 39.4757 55.5334 40.5177 55.5759 40.5873C55.7151 40.8161 56.0516 40.7189 56.2553 40.3911C56.4476 40.0816 56.51 40.0962 57.773 40.7447C60.8019 42.2999 63.8506 41.4897 65.0336 38.815C65.5484 37.6505 65.5942 35.2235 65.1184 34.3133C64.2723 32.6949 63.8297 32.3741 61.163 31.4472C58.4279 30.4962 57.6153 29.792 57.5195 28.2897C57.4489 27.1845 57.7757 26.3802 58.5167 25.8343C59.0761 25.4221 60.5647 25.2735 61.3901 25.5471C62.2487 25.832 63.4404 27.113 63.7675 28.1029C63.9665 28.7053 64.1243 28.9237 64.3604 28.9237C64.7405 28.9237 64.7402 28.9295 64.4901 26.4495C64.3829 25.3868 64.222 24.5447 64.1262 24.5447C64.0318 24.5447 63.8285 24.6592 63.6745 24.7994C63.4247 25.0265 63.3154 25.0252 62.6558 24.7872C61.6277 24.4162 59.7453 24.328 58.7688 24.605ZM131.394 24.559C129.502 24.9323 128.147 26.7098 128.166 28.7927C128.188 31.1161 129.207 32.3818 131.966 33.5111C134.35 34.4869 134.943 34.8557 135.527 35.7281C135.997 36.4293 136.072 36.6853 136.072 37.5914C136.072 38.486 135.999 38.7432 135.58 39.3235C134.639 40.6291 132.52 40.8865 131.025 39.8773C130.184 39.31 129.411 38.1984 129.279 37.3678C129.081 36.1225 129.029 35.9976 128.71 35.9976C128.355 35.9976 128.277 36.3333 128.104 38.6082C128.047 39.3492 127.964 40.0887 127.919 40.2512C127.788 40.7245 128.357 40.8308 128.685 40.3943L128.964 40.0225L129.939 40.6127C131.092 41.3102 132.437 41.6282 133.734 41.51C134.938 41.4004 135.863 40.9193 136.693 39.9711C138.254 38.1897 138.346 35.0228 136.889 33.2464C136.29 32.516 135.692 32.1852 133.692 31.4767C131.761 30.7928 131.007 30.3916 130.489 29.7725C129.582 28.6895 129.804 26.6598 130.916 25.8638C131.62 25.3601 133 25.2555 133.979 25.6316C134.889 25.9805 135.81 27.012 136.201 28.1197C136.406 28.6989 136.575 28.9237 136.805 28.9237C137.105 28.9237 137.118 28.827 137.01 27.3658C136.8 24.5169 136.696 24.229 136.079 24.7909C135.841 25.0075 135.681 24.9974 134.752 24.7067C133.643 24.3599 132.63 24.3153 131.394 24.559ZM166.404 24.5568C164.954 24.8121 163.762 25.491 162.452 26.8055C160.511 28.7545 159.572 31.1646 159.755 33.7239C160.036 37.647 162.21 40.2485 166.028 41.2298C169.101 42.02 171.851 41.3071 173.949 39.1755C175.611 37.4876 176.459 35.4029 176.459 33.0072C176.459 29.6047 174.541 26.5607 171.468 25.0873C170.415 24.5828 170.045 24.4943 168.785 24.4482C167.983 24.4187 166.911 24.4676 166.404 24.5568ZM67.2863 24.871C67.2245 24.9712 67.2219 25.204 67.2803 25.3883C67.3712 25.6765 67.5348 25.7236 68.4422 25.7236H69.4981L69.602 26.3552C69.7366 27.1732 69.7095 36.8273 69.5673 38.6925L69.4583 40.124L68.4527 40.2082C67.5142 40.2869 67.4472 40.3206 67.4472 40.7136V41.1345L70.7868 41.1805C72.667 41.2062 74.194 41.1583 74.2808 41.0709C74.3656 40.9858 74.3849 40.7567 74.3235 40.5621C74.227 40.2568 74.0799 40.2082 73.2511 40.2082C72.7227 40.2082 72.1998 40.1174 72.0893 40.0061C71.9485 39.8646 71.8882 38.9368 71.8882 36.9118V34.0196L74.1924 33.9388C76.199 33.8682 76.6157 33.8029 77.4183 33.4325C79.5897 32.4305 80.6358 30.2944 80.0152 28.1299C79.7946 27.3609 79.5506 26.9743 78.8588 26.2973C77.4377 24.9066 77.0785 24.8273 71.8635 24.7527C68.7809 24.7088 67.3634 24.7453 67.2863 24.871ZM107.331 25.0289C106.535 25.3952 105.147 26.8417 104.808 27.6587C104.675 27.9781 104.566 28.4561 104.566 28.7209C104.566 29.3418 105.413 30.6242 106.16 31.1355C106.48 31.3548 106.741 31.5723 106.739 31.6185C106.737 31.6649 106.279 32.006 105.72 32.3765C102.167 34.7328 101.388 38.469 104.029 40.4905C104.963 41.2056 105.866 41.4665 107.415 41.4693C109.133 41.4724 110.265 40.9099 111.878 39.2528L113.073 38.0251L114.1 39.2727C116.098 41.7006 118.233 42.186 120.515 40.7314C121.469 40.1234 122.456 38.7619 122.218 38.3826C121.95 37.9554 121.765 37.9996 121.325 38.5965C120.595 39.5849 119.944 39.9239 118.938 39.8392C117.808 39.7444 117.048 39.2388 115.578 37.6066L114.44 36.3428L115.34 35.1175C115.835 34.4436 116.6 33.376 117.039 32.7453C117.87 31.5509 118.275 31.2817 119.241 31.2817C119.743 31.2817 119.816 31.228 119.816 30.8606V30.4396H117.303H114.789V30.8501C114.789 31.1869 114.883 31.2698 115.317 31.3132C116.16 31.3974 116.26 31.7719 115.718 32.8193C115.347 33.5371 114.691 34.5547 114.003 35.4782C113.975 35.5169 113.395 34.9485 112.714 34.2151C112.034 33.4817 110.982 32.5072 110.376 32.0496L109.273 31.2173L109.962 30.6244C110.882 29.8331 111.605 28.6605 111.605 27.959C111.605 26.7759 110.772 25.6114 109.51 25.0296C108.666 24.6404 108.176 24.6401 107.331 25.0289ZM139.789 25.1763C139.839 25.609 139.905 25.645 140.793 25.7247C141.316 25.7715 141.806 25.8724 141.882 25.949C142.067 26.135 142.155 36.8765 141.987 38.6925L141.853 40.124L140.89 40.1745C139.946 40.2242 139.926 40.2352 139.926 40.722V41.2189H143.205H146.484L146.431 40.7557C146.382 40.3252 146.313 40.2867 145.456 40.2082L144.534 40.124L144.431 38.8609C144.374 38.166 144.317 36.5935 144.305 35.3661L144.283 33.1344H148.867H153.45L153.379 36.4608C153.34 38.2903 153.278 39.8821 153.241 39.9977C153.199 40.1355 152.825 40.2082 152.164 40.2082H151.154V40.7136V41.2189H154.517H157.88L157.827 40.7557C157.777 40.3256 157.708 40.2864 156.858 40.2082C156.057 40.1347 155.929 40.0713 155.828 39.703C155.634 38.9992 155.658 26.4161 155.852 26.0495C155.988 25.7945 156.206 25.7236 156.857 25.7236C157.67 25.7236 157.69 25.7119 157.69 25.2184V24.7131H154.505H151.322V25.21C151.322 25.6967 151.341 25.7078 152.284 25.7573L153.249 25.8078L153.359 28.8395C153.419 30.5068 153.434 31.928 153.391 31.9976C153.347 32.067 151.281 32.1239 148.798 32.1239H144.283L144.303 30.0606C144.313 28.926 144.37 27.5048 144.428 26.9027L144.534 25.8078L145.54 25.7236C146.488 25.6441 146.548 25.613 146.598 25.1763L146.652 24.7131H143.194H139.736L139.789 25.1763ZM178.164 25.1642C178.217 25.6263 178.249 25.6407 179.326 25.6886L180.433 25.7379L180.539 26.8677C180.67 28.2471 180.648 34.743 180.502 37.8504L180.396 40.124L179.391 40.2082C178.443 40.2878 178.383 40.3189 178.333 40.7557L178.28 41.2189H181.727H185.173V40.7136C185.173 40.2101 185.169 40.2082 184.2 40.2082C183.667 40.2082 183.139 40.1174 183.027 40.0061C182.888 39.8646 182.827 38.9364 182.827 36.9099V34.0157L185.047 33.9341C187.635 33.8391 188.486 33.5919 189.59 32.6146C190.61 31.7132 191.062 30.7256 191.068 29.392C191.074 27.9761 190.683 27.0674 189.678 26.1589C188.283 24.8986 187.919 24.8251 182.689 24.7525L178.11 24.6889L178.164 25.1642ZM166.074 25.6682C165.133 26.0158 163.735 27.3983 163.149 28.5615C161.781 31.2761 161.953 35.0046 163.565 37.5291C165.637 40.7738 169.551 41.5134 172 39.1222C172.914 38.2294 173.364 37.3687 173.788 35.7043C174.589 32.5536 173.777 29.2707 171.669 27.1497C171.2 26.6782 170.451 26.1196 170.004 25.9086C168.925 25.3986 167.104 25.2873 166.074 25.6682ZM71.9999 25.6676C71.9385 25.7292 71.8882 27.3933 71.8882 29.3653V32.9506L72.4908 33.0644C72.8221 33.1269 73.5798 33.1387 74.1741 33.0908C75.0448 33.0205 75.4275 32.8884 76.1424 32.4113C77.2666 31.6611 77.6351 30.9265 77.6351 29.4353C77.6351 27.6454 76.7637 26.3872 75.1145 25.7956C74.4644 25.5623 72.1972 25.4692 71.9999 25.6676ZM182.952 25.6503C182.883 25.7217 182.827 27.3879 182.827 29.3533C182.827 33.4459 182.685 33.1276 184.519 33.132C185.624 33.1347 186.367 32.9082 187.216 32.3082C188.183 31.6253 188.524 30.8665 188.524 29.397C188.524 28.3054 188.462 28.0494 188.035 27.3714C187.281 26.1756 186.286 25.6718 184.515 25.5886C183.724 25.5515 183.021 25.5793 182.952 25.6503ZM107.162 26.2811C106.845 26.5997 106.522 27.1584 106.408 27.5838C106.153 28.5351 106.434 29.1153 107.619 30.0843C108.571 30.8625 108.772 30.8374 109.524 29.8467C109.993 29.2295 110.221 28.0979 110.031 27.3368C109.972 27.1014 109.691 26.6421 109.406 26.3163C108.7 25.5069 107.944 25.4951 107.162 26.2811ZM10.5534 26.0846C10.5534 26.2102 10.3253 26.7974 10.0468 27.3893C9.4185 28.7239 9.49191 29.0378 10.4662 29.1846C10.8699 29.2455 11.2808 29.2452 11.3795 29.1839C11.4854 29.118 11.559 28.4552 11.559 27.5664C11.559 26.3787 11.5087 26.0606 11.3214 26.0606C11.1907 26.0606 10.9644 26.0146 10.8186 25.9583C10.6571 25.896 10.5535 25.9455 10.5534 26.0846ZM86.0449 28.6181C85.6954 29.5735 85.1282 31.1321 84.785 32.0818L84.1608 33.8081H86.5711C88.2169 33.8081 88.9815 33.7492 88.9815 33.6221C88.9815 33.3396 86.9519 27.1749 86.8071 27.0181C86.7374 26.9426 86.3944 27.6625 86.0449 28.6181ZM106.62 32.7861C105.905 33.3063 105.28 34.0573 104.852 34.9088C103.93 36.7435 104.684 38.7192 106.66 39.6439C108.333 40.427 109.786 40.0305 111.489 38.3259L112.463 37.3514L111.936 36.5809C110.848 34.9913 108.062 32.2923 107.509 32.2923C107.393 32.2923 106.993 32.5144 106.62 32.7861Z" fill="#625E56"/>
</svg>
