<svg width="138" height="34" viewBox="0 0 138 34" fill="none" xmlns="http://www.w3.org/2000/svg">
<path fill-rule="evenodd" clip-rule="evenodd" d="M12.196 0.43645C10.8537 0.652604 8.93912 1.19521 8.00889 1.62324C4.9702 3.02109 2.59897 5.6483 1.64915 8.66868C1.25888 9.91005 1.17529 12.8484 1.49152 14.2106C2.36649 17.9804 4.70128 20.0138 9.52298 21.2054C13.2434 22.1248 13.5589 22.2247 13.972 22.6131C14.743 23.338 14.392 24.7066 13.2967 25.2465C12.4395 25.669 10.6414 25.7438 9.34768 25.4109C7.40203 24.9102 5.69193 23.922 3.54248 22.0561L2.72144 21.3432L2.56803 21.753C2.48346 21.9783 1.85765 23.9509 1.17707 26.1367C-0.248875 30.7164 -0.334412 30.1135 1.90884 31.2945C4.80205 32.8177 7.94992 33.6676 11.241 33.8143C13.7388 33.9255 15.4494 33.7133 17.5422 33.0319C19.5514 32.3777 20.8803 31.5497 22.4037 30.0035C23.8393 28.5462 24.7035 27.0386 25.1845 25.1523C25.5173 23.8469 25.5531 20.8536 25.2513 19.5635C24.8763 17.9602 23.9777 16.2797 22.9483 15.2568C21.6947 14.011 20.2583 13.3406 17.0964 12.5256C14.3933 11.8288 13.7271 11.5364 13.1962 10.8136C12.7214 10.1675 12.9595 9.26488 13.7237 8.81366C14.9227 8.10553 17.7974 8.60687 20.6289 10.0177L22.1885 10.7949L22.3512 10.3711C22.6138 9.68732 24.9132 2.75151 24.9132 2.64318C24.9132 2.33219 21.2403 1.21904 18.6214 0.736599C17.2239 0.479188 13.1211 0.287526 12.196 0.43645ZM87.0413 0.590469C80.0116 1.68521 74.908 6.24629 73.2355 12.9288C72.7954 14.6874 72.8428 20.1671 73.3131 21.8934C74.1187 24.8512 75.4335 27.2207 77.3486 29.1657C80.5062 32.373 84.4668 33.8605 89.8556 33.8632C95.3388 33.8658 99.7673 32.2883 102.977 29.1888C104.902 27.3294 106.316 24.8585 107.074 22.0291C107.408 20.7791 107.448 20.268 107.45 17.18C107.453 13.9231 107.428 13.6381 107.014 12.1332C105.267 5.79113 100.073 1.39295 93.2785 0.501214C91.5922 0.279801 88.777 0.320237 87.0413 0.590469ZM26.1036 1.76986C26.1569 2.0184 28.1247 9.101 30.4764 17.5088L34.7524 32.7957H40.471H46.1894L47.618 27.2069C48.4036 24.1331 49.2701 20.4716 49.5437 19.0703C49.8173 17.6691 50.0842 16.3006 50.1371 16.0294C50.2111 15.6499 50.32 15.9906 50.6103 17.5088C50.8177 18.5936 51.7263 22.4957 52.6296 26.1795L54.2719 32.8778L59.9643 32.8756L65.657 32.8735L69.7881 17.327C72.0601 8.77635 73.9426 1.67633 73.9715 1.54911C74.0158 1.35366 73.1372 1.31783 68.3003 1.31783H62.577L60.9911 8.92019C60.1189 13.1016 59.3623 16.8017 59.3097 17.1429C59.2104 17.787 58.9304 18.1633 58.9384 17.6418C58.9408 17.4782 58.051 13.7374 56.9611 9.32882L54.9792 1.31323L50.0411 1.35662L45.1029 1.40002L44.7328 2.87939C43.625 7.30634 41.5886 16.0267 41.4203 17.0642C41.313 17.7239 41.1748 18.2048 41.1124 18.1328C41.0502 18.0608 40.8717 17.3732 40.7158 16.6048C40.4569 15.3293 38.2727 5.34979 37.6308 2.50954L37.3615 1.31783H31.6841H26.0068L26.1036 1.76986ZM109.641 17.0867V32.8778H115.311H120.981V28.1932V23.5085H123.903C130.226 23.5085 132.63 22.8641 134.927 20.5541C136.756 18.7142 137.618 16.4752 137.777 13.1528C138.014 8.17622 136.261 4.46627 132.812 2.64565C130.482 1.41563 130.685 1.43536 119.563 1.36139L109.641 1.29531V17.0867ZM120.981 12.4132V15.4541L122.398 15.4531C124.193 15.452 124.829 15.2697 125.505 14.5632C126.477 13.5446 126.662 11.6218 125.891 10.5462C125.291 9.71066 124.333 9.37221 122.567 9.37221H120.981V12.4132ZM88.7796 10.9326C87.6012 11.2676 87.0506 11.5817 86.2898 12.3538C85.053 13.6087 84.4313 15.5946 84.5734 17.8375C84.806 21.515 87.1594 23.6817 90.6951 23.474C92.9279 23.3429 94.6098 22.1333 95.4128 20.0807C95.7181 19.3006 95.776 18.8377 95.776 17.18C95.776 15.4912 95.7208 15.0658 95.3919 14.2224C94.8879 12.9301 93.5207 11.5142 92.4055 11.1294C91.2385 10.7267 89.7822 10.6476 88.7796 10.9326Z" fill="#625E56"/>
</svg>
