<svg width="135" height="76" viewBox="0 0 135 76" fill="none" xmlns="http://www.w3.org/2000/svg">
<path fill-rule="evenodd" clip-rule="evenodd" d="M48.5234 0.922115C48.5104 0.935291 48.4998 11.9936 48.4998 25.4962V50.0464H67.0798H85.6597L85.6509 25.4812L85.6419 0.916156L67.0945 0.907145C56.8935 0.90219 48.5365 0.90894 48.5234 0.922115ZM51.022 12.7455V22.0079L52.2032 22.0078C53.0731 22.0076 53.4688 21.9937 53.7043 21.9548C55.0451 21.7336 56.1721 21.1212 57.1968 20.0571L57.4921 19.7505L58.538 20.3815C59.1132 20.7284 59.5839 21.0275 59.5839 21.046C59.5839 21.1206 59.1545 21.6542 58.7852 22.0387C58.0269 22.8283 57.3935 23.2705 56.3414 23.7452C55.4094 24.1655 54.7334 24.3805 53.9707 24.4989C53.4358 24.5819 53.2721 24.59 52.1145 24.5915L51.022 24.5927V27.4493V30.3058L53.6777 30.292C55.9601 30.2801 56.3931 30.2694 56.7595 30.216C57.7573 30.0701 58.8805 29.7556 59.6371 29.4102C60.0779 29.2088 60.7143 28.8715 60.9439 28.7174C61.0583 28.6406 61.1594 28.5778 61.1685 28.5778C61.1775 28.5778 61.3322 28.4697 61.5124 28.3376C63.4669 26.9041 64.817 24.9022 65.4275 22.532C65.6536 21.654 65.7568 20.9381 65.7954 19.9795C65.8082 19.6636 65.8145 15.8227 65.8097 11.4441L65.8007 3.48307H58.4114H51.022V12.7455ZM68.3547 3.51893C68.3526 3.52881 68.3457 7.30112 68.3394 11.9018C68.3332 16.5024 68.3204 20.3394 68.311 20.4282C68.3016 20.5171 68.2843 20.6852 68.2725 20.8017C68.2608 20.9185 68.2443 21.0557 68.2359 21.1069C68.2276 21.1582 68.2108 21.2728 68.1988 21.3616C68.1867 21.4506 68.1692 21.5718 68.1597 21.6309C68.0885 22.0743 68.054 22.2604 68.024 22.3608C68.0142 22.3938 67.9985 22.4612 67.9889 22.5105C67.9726 22.5945 67.958 22.6578 67.9146 22.8336C67.9048 22.8731 67.89 22.9337 67.8816 22.9682C67.7448 23.5328 67.2538 24.9064 67.0507 25.2928C67.0196 25.352 66.9974 25.4126 67.0014 25.4275C67.0053 25.4423 66.9918 25.4544 66.9711 25.4544C66.9504 25.4544 66.9433 25.4705 66.9554 25.4903C66.9674 25.51 66.9595 25.5262 66.9376 25.5262C66.9158 25.5262 66.9077 25.5423 66.9199 25.562C66.932 25.5818 66.9239 25.598 66.9022 25.598C66.8803 25.598 66.8723 25.6141 66.8844 25.6339C66.8964 25.6537 66.8894 25.6698 66.8687 25.6698C66.8479 25.6698 66.8349 25.6819 66.8393 25.6967C66.8475 25.7235 66.4476 26.4972 66.4078 26.5313C66.3963 26.5413 66.3474 26.6261 66.2989 26.7199C66.2504 26.8137 66.1985 26.8904 66.1834 26.8904C66.1684 26.8904 66.1561 26.9077 66.1561 26.9289C66.1561 26.9743 65.9421 27.2979 65.9005 27.3152C65.8848 27.3218 65.8718 27.3461 65.8718 27.3691C65.8718 27.4053 65.8251 27.4712 65.6593 27.6698C65.6395 27.6936 65.6232 27.7264 65.6232 27.7426C65.6232 27.7588 65.5953 27.7972 65.561 27.8283C65.5268 27.8591 65.4749 27.9208 65.4455 27.9652C65.4163 28.0096 65.3682 28.0746 65.339 28.1095C65.3097 28.1446 65.2457 28.2263 65.1969 28.291C65.1481 28.3559 65.0681 28.4536 65.0192 28.5083C64.2352 29.3863 63.9408 29.6776 63.2904 30.2189C63.2481 30.2541 63.184 30.3077 63.148 30.338C62.7264 30.6925 61.8164 31.2866 61.191 31.6155C60.635 31.9079 59.6227 32.339 59.4689 32.3488C59.4547 32.3497 59.3868 32.3742 59.318 32.4032C59.2492 32.4323 59.193 32.4472 59.193 32.4363C59.193 32.4255 59.16 32.4345 59.1196 32.4564C59.0794 32.478 59.0153 32.5028 58.9775 32.5115C58.9397 32.5199 58.8769 32.5349 58.8378 32.5447C58.7987 32.5547 58.7334 32.5701 58.6929 32.5792C58.6522 32.5882 58.5896 32.605 58.5535 32.6166C58.4909 32.6367 58.4294 32.6505 58.2338 32.6883C58.185 32.6978 58.1111 32.7125 58.0696 32.721C57.9504 32.7452 57.7269 32.7835 57.6299 32.7962C56.9129 32.8897 56.9669 32.8882 53.9174 32.9011C52.3543 32.9077 51.0674 32.9151 51.0576 32.9175C51.0479 32.9199 51.0398 33.9839 51.0396 35.2823L51.0395 37.6427H67.0795H83.1196V20.5953C83.1197 11.2194 83.1116 3.53695 83.1019 3.52334C83.0818 3.49545 68.3609 3.491 68.3547 3.51893ZM57.9088 8.17247C56.4931 8.3822 55.3691 9.50201 55.1412 10.9299C55.0874 11.267 55.1153 11.9647 55.1943 12.2572C55.4651 13.2597 56.0964 14.029 57.0101 14.4697C57.6365 14.7718 58.4783 14.8493 59.1752 14.669C59.8137 14.5039 60.2987 14.214 60.7616 13.7207C61.3664 13.0762 61.6504 12.346 61.6501 11.4351C61.6498 10.538 61.3301 9.75922 60.6951 9.10902C59.9708 8.36734 58.9375 8.02004 57.9088 8.17247ZM68.6708 39.572C68.5209 39.6225 68.5027 39.7159 68.4925 40.4841C68.484 41.1371 68.4764 41.2148 68.4154 41.2829C68.3491 41.3568 68.3216 41.3584 67.1679 41.3584C66.0281 41.3584 65.9849 41.3609 65.8945 41.4328L65.8009 41.5072V43.3105C65.8009 44.6651 65.8114 45.1244 65.8435 45.1568C65.8755 45.1892 66.3656 45.1998 67.8309 45.1998H69.7758L69.831 45.1199C69.8798 45.0496 69.8863 44.7294 69.8863 42.3776C69.8863 39.8374 69.8833 39.7111 69.8203 39.6327C69.7575 39.5545 69.7302 39.5502 69.2567 39.5463C68.9829 39.5441 68.7193 39.5556 68.6708 39.572ZM77.2866 39.6142C77.1875 39.7001 77.1868 39.7039 77.1786 40.1795C77.174 40.4428 77.1794 40.7192 77.1906 40.7938C77.2259 41.0269 77.2497 41.0354 77.8766 41.0354C78.3743 41.0354 78.4436 41.028 78.4957 40.9697C78.5455 40.9142 78.5545 40.8123 78.5545 40.3104C78.5545 39.4959 78.5811 39.5274 77.8967 39.5274C77.4082 39.5274 77.3818 39.5313 77.2866 39.6142ZM79.5719 39.6222L79.4783 39.7168V42.3988C79.4783 44.9517 79.4814 45.0839 79.5432 45.1404C79.5979 45.1905 79.6975 45.1998 80.1756 45.1998C80.5694 45.1998 80.7561 45.1866 80.7856 45.1568C80.8179 45.124 80.8282 44.4625 80.8282 42.3991C80.8282 39.7169 80.8273 39.6837 80.7558 39.6061C80.6877 39.5323 80.6522 39.5274 80.1744 39.5274C79.672 39.5274 79.6643 39.5286 79.5719 39.6222ZM81.8196 39.6332L81.715 39.7388L81.7245 42.4183C81.7339 45.0236 81.736 45.0993 81.8031 45.1489C81.8558 45.1878 82.0042 45.1998 82.4293 45.1998C82.9043 45.1998 82.9938 45.1911 83.0354 45.1404C83.0755 45.0916 83.0853 44.6202 83.0915 42.4569C83.0964 40.7222 83.0864 39.793 83.062 39.7157C83.0417 39.6514 82.9956 39.5827 82.9593 39.5631C82.9231 39.5435 82.6753 39.5274 82.4088 39.5274H81.9241L81.8196 39.6332ZM51.0837 41.3833C50.9194 41.4266 50.9155 41.4796 50.9155 43.62V45.6339L50.9998 45.7192C51.1025 45.823 51.3318 45.8635 51.6575 45.8353C51.9546 45.8096 52.2412 45.6822 52.4764 45.471C52.6717 45.2958 52.7945 45.2656 52.9282 45.3602C53.0413 45.4404 53.0488 45.5411 52.9557 45.7302C52.8612 45.9217 52.6299 46.1194 52.3531 46.2452C52.2034 46.3134 52.0919 46.3287 51.6182 46.346C51.1475 46.3634 51.0499 46.3766 50.9966 46.4307C50.9419 46.4858 50.9316 46.5765 50.9219 47.0914C50.9093 47.756 50.9197 47.8371 51.0249 47.8939C51.1177 47.9441 52.2297 47.9409 52.5496 47.8896C53.197 47.7858 53.9594 47.2861 54.3806 46.6898C54.7625 46.149 54.7845 45.9757 54.7806 43.5484C54.7772 41.5119 54.7731 41.4637 54.5919 41.3942C54.5002 41.3588 51.2147 41.3487 51.0837 41.3833ZM55.9346 41.4018C55.8913 41.4228 55.8398 41.4904 55.8203 41.5519C55.7984 41.6212 55.7878 42.3053 55.7925 43.3561C55.7999 44.9642 55.8037 45.0525 55.8679 45.1243C55.9352 45.1992 55.9492 45.1998 57.843 45.1998C59.7367 45.1998 59.751 45.1992 59.8181 45.1243C59.8823 45.0525 59.8863 44.9618 59.8957 43.3095L59.9055 41.5703L59.8006 41.4644L59.6958 41.3584L57.8546 41.3609C56.6234 41.3625 55.9874 41.3761 55.9346 41.4018ZM60.945 41.3946C60.9024 41.412 60.8503 41.4583 60.8295 41.4977C60.8042 41.5454 60.7917 42.1477 60.7917 43.3126C60.7917 45.0084 60.7936 45.0582 60.8627 45.128C60.932 45.1981 60.9811 45.1998 62.8276 45.1998C64.3078 45.1998 64.735 45.1897 64.7835 45.154C64.8176 45.1287 64.8587 45.0488 64.8749 44.9765C64.9222 44.7647 64.9131 41.7221 64.8648 41.5748C64.8418 41.505 64.7848 41.4301 64.735 41.4047C64.6669 41.37 64.2248 41.3599 62.8344 41.3612C61.8379 41.3622 60.9876 41.3772 60.945 41.3946ZM75.606 41.3856C75.0954 41.394 75.0508 41.4003 74.9932 41.4704C74.9372 41.5384 74.931 41.6472 74.931 42.5675C74.931 43.8171 74.9367 43.7982 74.5545 43.7991C74.192 43.8 74.2046 43.8426 74.1923 42.5681C74.1855 41.8627 74.1686 41.4715 74.1435 41.4411C74.1149 41.4062 73.9589 41.3943 73.5309 41.3943H72.9568L72.8959 41.4986C72.8422 41.5905 72.835 41.7236 72.835 42.6214C72.835 43.8376 72.8458 43.7997 72.4964 43.7997C72.1548 43.7997 72.16 43.8184 72.16 42.5606C72.16 41.9211 72.146 41.507 72.1231 41.4638C72.089 41.3994 72.0432 41.3943 71.4846 41.3943H70.8828L70.8287 41.5002C70.7463 41.6612 70.7473 45.0011 70.8297 45.1199L70.885 45.1998H73.5052C76.093 45.1998 76.1263 45.199 76.2032 45.1266L76.2809 45.0534V43.2654C76.2809 41.6057 76.2764 41.4736 76.2188 41.4268C76.1701 41.3873 76.0363 41.3784 75.606 41.3856ZM77.3427 41.4123C77.2917 41.4404 77.2325 41.5084 77.2112 41.5635C77.1639 41.6857 77.1606 44.8656 77.2078 45.0314C77.2248 45.0916 77.2591 45.154 77.2839 45.1698C77.3086 45.1857 77.5796 45.199 77.886 45.1993C78.3454 45.1997 78.4527 45.1899 78.4988 45.1434C78.548 45.0937 78.5545 44.8776 78.5545 43.3108V41.5347L78.4674 41.4466C78.3833 41.3617 78.3629 41.3585 77.9078 41.3599C77.5695 41.3609 77.4091 41.3758 77.3427 41.4123ZM57.6598 42.6274C57.4249 42.7328 57.3101 42.921 57.3101 43.2002C57.3101 43.4142 57.3917 43.5728 57.5703 43.7066C57.7118 43.8125 58.0803 43.8131 58.2201 43.7078C58.4372 43.544 58.5253 43.3269 58.4796 43.0688C58.4154 42.7067 57.9914 42.4784 57.6598 42.6274ZM62.6132 42.6543C62.3787 42.7716 62.2598 43.0108 62.3004 43.2842C62.3421 43.5651 62.6144 43.7997 62.8988 43.7997C63.0792 43.7997 63.3189 43.6557 63.4112 43.4919C63.5789 43.1939 63.4729 42.8212 63.1752 42.6626C62.9812 42.5591 62.8084 42.5566 62.6132 42.6543ZM67.6065 42.6519C67.3936 42.7655 67.3107 42.9162 67.3107 43.1893C67.3107 43.4659 67.3951 43.6157 67.6142 43.7287C67.8562 43.8535 68.1077 43.8123 68.3106 43.6145C68.7966 43.1409 68.2052 42.3323 67.6065 42.6519ZM52.7451 42.7227C52.3542 42.8103 52.1462 43.1729 52.2816 43.5309C52.4274 43.9167 52.906 44.0563 53.213 43.8027C53.494 43.5706 53.5126 43.1164 53.2513 42.873C53.1377 42.7674 52.8831 42.6917 52.7451 42.7227ZM84.1143 50.645C83.7411 50.7607 83.4507 51.0361 83.313 51.405C83.2076 51.687 83.2277 52.1044 83.3593 52.3637C83.4815 52.6052 83.7029 52.8226 83.9487 52.9429C84.1184 53.0259 84.1971 53.0415 84.4519 53.0427C84.7154 53.044 84.7808 53.0308 84.9655 52.9392C85.2159 52.8149 85.4438 52.5896 85.5583 52.353C85.6577 52.1479 85.6913 51.6949 85.6242 51.4681C85.5131 51.0931 85.166 50.7555 84.774 50.6412C84.5367 50.572 84.3464 50.5732 84.1143 50.645ZM84.1963 50.8847C84.0203 50.9345 83.9733 50.9634 83.7826 51.1396C83.5793 51.3276 83.5118 51.4975 83.5111 51.8235C83.5105 52.0724 83.5234 52.1331 83.6075 52.2774C83.7975 52.6042 84.0848 52.773 84.4519 52.7738C85.1135 52.7749 85.5608 52.1575 85.3685 51.5086C85.3135 51.3233 85.024 51.0035 84.846 50.9315C84.6431 50.8495 84.3865 50.831 84.1963 50.8847ZM83.9627 51.8319L83.9722 52.5044L84.0965 52.5051L84.2209 52.5057L84.2315 52.2454L84.2419 51.985H84.4366C84.6128 51.985 84.6346 51.9938 84.6659 52.0771C84.685 52.1278 84.7005 52.2409 84.7005 52.3285C84.7005 52.416 84.7126 52.4894 84.7271 52.4916C84.7418 52.4937 84.8125 52.4987 84.8844 52.5029L85.015 52.5105L84.9958 52.2567C84.985 52.1172 84.9526 51.9647 84.9235 51.9178C84.892 51.8668 84.8844 51.8235 84.9047 51.8101C84.9587 51.7743 85.0203 51.6377 85.0203 51.553C85.0203 51.4272 84.9172 51.2443 84.8215 51.2003C84.7724 51.1776 84.5587 51.1593 84.3428 51.1593H83.953L83.9627 51.8319ZM84.2387 51.5722V51.7338L84.4253 51.7333C84.6519 51.7326 84.7094 51.6999 84.7094 51.5722C84.7094 51.4445 84.6519 51.4119 84.4253 51.4112L84.2387 51.4106V51.5722ZM111.23 57.5532C111.225 58.5227 111.229 59.3304 111.24 59.3484C111.252 59.3677 112.451 59.3773 114.171 59.3718L117.082 59.3628L117.092 57.5767L117.101 55.7906H114.17H111.24L111.23 57.5532ZM9.72333 55.9169C8.58177 56.0074 7.68758 56.1578 6.70363 56.425C6.40187 56.507 5.82934 56.6916 5.67338 56.7573C5.6343 56.7737 5.53039 56.8162 5.44246 56.8516C4.79294 57.1138 4.31836 57.3625 3.73722 57.7457C2.36835 58.6483 1.27749 60.025 0.73483 61.5347C0.681611 61.6828 0.624734 61.8363 0.608428 61.8758C0.538265 62.0457 0.376161 62.6896 0.274095 63.2041C-0.00321949 64.6014 -0.00925942 66.5785 0.259992 67.8326C0.29843 68.0119 0.345289 68.2311 0.364118 68.32C0.41087 68.5406 0.482383 68.797 0.509311 68.8406C0.521532 68.8603 0.543275 68.9329 0.557591 69.0021C0.571908 69.0712 0.595568 69.144 0.610169 69.1636C0.624734 69.1833 0.647614 69.2457 0.661006 69.3023C0.710138 69.5097 1.09417 70.3276 1.32921 70.7253C1.76068 71.4555 2.57788 72.3898 3.18657 72.8486C3.32334 72.9519 3.44325 73.0456 3.45302 73.0572C3.46279 73.0686 3.60666 73.169 3.77275 73.2801C4.32787 73.6516 4.96769 73.9789 5.69114 74.2616C5.77907 74.2959 5.88298 74.3365 5.92206 74.3518C6.16697 74.4476 7.11282 74.7242 7.34085 74.7665C7.38115 74.774 7.52604 74.8042 7.66282 74.8336C8.82019 75.0822 9.94547 75.174 11.6417 75.1578C13.4499 75.1406 14.3369 75.0463 15.3837 74.7601C15.9681 74.6003 16.025 74.5829 16.0511 74.5565C16.0651 74.5424 16.1018 74.5306 16.1328 74.5306C16.1637 74.5305 16.2348 74.5061 16.2908 74.4767C16.3468 74.4472 16.4081 74.4231 16.4272 74.4231C16.4462 74.4231 16.5653 74.3746 16.692 74.3155C16.8187 74.2562 16.927 74.2076 16.933 74.2076C16.9389 74.2076 17.0937 74.1246 17.2769 74.0229C17.6763 73.8013 18.228 73.4255 18.4352 73.2337C18.5178 73.1572 18.6008 73.0947 18.6198 73.0947C18.6386 73.0947 18.7452 73.2845 18.8565 73.5166C19.2736 74.3856 19.4093 74.6554 19.4383 74.6737C19.4548 74.6839 20.0973 74.6916 20.8662 74.6907L22.2639 74.6891L22.2729 69.4762L22.282 64.2632H17.6339C15.0774 64.2632 12.9791 64.2699 12.971 64.2781C12.9628 64.2863 12.9642 65.1789 12.9739 66.2616L12.9917 68.2302L14.2973 68.2482C15.0154 68.258 15.6032 68.2783 15.6035 68.2932C15.607 68.4497 15.4051 68.8662 15.1715 69.1844C14.9543 69.4805 14.5006 69.8535 14.093 70.0712C13.2582 70.5174 12.0661 70.7094 10.9312 70.5808C9.05245 70.368 7.80969 69.239 7.27669 67.2609C6.99998 66.2339 6.99938 64.7263 7.27523 63.599C7.49401 62.7051 7.83022 62.0677 8.37334 61.5175C9.13015 60.7507 10.1284 60.3858 11.4691 60.3858C12.8835 60.3858 13.7836 60.7541 14.3888 61.5804C14.5222 61.7625 14.6855 62.0288 14.7515 62.1719L14.8715 62.4323H18.4523C21.9591 62.4323 22.033 62.4308 22.033 62.3634C22.033 62.2965 21.9654 61.9903 21.8859 61.6963C21.7822 61.3133 21.5316 60.6405 21.3976 60.3858C20.952 59.5385 20.5172 58.9793 19.8375 58.3802C19.1785 57.7993 18.2283 57.2107 17.5389 56.9566C17.4414 56.9206 17.3454 56.8797 17.3258 56.8659C17.2203 56.7908 15.8723 56.3691 15.514 56.2992C14.1703 56.0369 13.6842 55.9688 12.6542 55.8984C11.9672 55.8513 10.4283 55.8611 9.72333 55.9169ZM76.4114 56.2092C76.3982 56.2226 76.3875 57.4746 76.3875 58.9918C76.3875 60.5088 76.379 61.75 76.3684 61.75C76.3578 61.75 76.202 61.6391 76.022 61.5035C75.5591 61.1547 75.0343 60.8525 74.5757 60.6708C73.8334 60.3766 73.3014 60.2709 72.231 60.2042C70.7144 60.1099 69.2448 60.3401 68.1867 60.8378C68.0433 60.9052 67.9193 60.9603 67.911 60.9603C67.8879 60.9603 67.2574 61.3565 67.0975 61.4714C66.8665 61.6375 66.403 62.0713 66.1474 62.3604C65.6389 62.9359 65.128 63.8574 64.8633 64.6761C64.7248 65.1041 64.7093 65.1579 64.6499 65.4119C64.4866 66.1113 64.4243 66.7096 64.4237 67.584C64.4233 68.335 64.4368 68.5175 64.5442 69.1995C64.6511 69.8773 64.8152 70.4542 65.0806 71.0844C65.9772 73.2126 67.7056 74.5361 70.1171 74.941C70.9851 75.0867 72.1922 75.0871 73.0658 74.9422C73.4919 74.8716 74.266 74.6671 74.4869 74.5669C74.526 74.5492 74.6459 74.4984 74.7533 74.454C75.2881 74.2332 76.0063 73.7887 76.3552 73.4627C76.4661 73.3591 76.5668 73.2743 76.5788 73.2743C76.5909 73.2743 76.6007 73.5974 76.6007 73.9923V74.7103H79.3895H82.1783L82.1694 65.4568L82.1604 56.2034L79.2978 56.1942C77.7235 56.1892 76.4245 56.196 76.4114 56.2092ZM119.765 65.5559V74.8902L122.687 74.8811L125.608 74.8719L125.617 65.5466L125.626 56.2214H122.695H119.765V65.5559ZM128.228 65.5466L128.237 74.8719H131.15H134.064L134.073 65.5466L134.082 56.2214H131.15H128.22L128.228 65.5466ZM32.6908 60.0288C32.427 60.0434 32.1392 60.0652 32.0514 60.0772C31.9633 60.0891 31.7671 60.1159 31.6152 60.1365C30.0452 60.3502 28.6846 60.8394 27.5726 61.5902C26.8628 62.0695 26.3256 62.5805 25.8386 63.24C25.5313 63.656 25.4177 63.847 25.1823 64.3427C24.8453 65.0523 24.6724 65.654 24.5549 66.5249C24.403 67.6526 24.5191 68.9616 24.859 69.9535C24.9924 70.3426 25.035 70.4476 25.2017 70.7971C25.7554 71.9591 26.6623 72.9603 27.8078 73.6746C28.0943 73.8533 28.9257 74.2791 28.9892 74.2797C29.0027 74.2798 29.0537 74.3006 29.1027 74.326C29.2267 74.3903 29.4651 74.4751 29.7776 74.5661C29.9242 74.6089 30.084 74.6575 30.1328 74.6741C30.1818 74.6909 30.2697 74.7164 30.3283 74.731C30.3869 74.7455 30.4509 74.7614 30.4704 74.7665C31.3538 74.9901 32.4345 75.1052 33.65 75.1052C35.9698 75.1052 37.7675 74.6879 39.3163 73.7899C39.5395 73.6604 39.6426 73.5976 39.7052 73.5524C40.1097 73.2612 40.2596 73.1436 40.5538 72.8873C41.262 72.2703 41.9167 71.3352 42.281 70.4201C42.3439 70.2622 42.4093 70.1006 42.4262 70.0611C42.5037 69.8804 42.6602 69.2436 42.7222 68.8561C42.8089 68.3159 42.8252 68.0873 42.8212 67.4764C42.817 66.8286 42.7461 66.1631 42.6397 65.771C42.2312 64.2653 41.7298 63.3744 40.7505 62.4143C40.0928 61.7695 39.31 61.247 38.4637 60.8881C38.3659 60.8467 38.2541 60.7982 38.215 60.7806C38.0936 60.7256 37.2999 60.4623 37.1315 60.4212C36.4917 60.265 36.0484 60.1781 35.5742 60.1159C34.7336 60.0058 33.6813 59.974 32.6908 60.0288ZM52.5142 60.0328C52.2895 60.0461 52.0497 60.0646 51.9812 60.074C51.9129 60.0835 51.7611 60.1022 51.6438 60.1157C51.2638 60.1597 50.4287 60.3162 50.1871 60.3887C48.9354 60.7647 48.4406 60.9739 47.677 61.4499C47.1146 61.8004 46.8307 62.03 46.3326 62.5374C45.4465 63.4405 44.9744 64.2876 44.5909 65.6634C44.4529 66.1582 44.3794 66.8131 44.3791 67.5481C44.3788 68.5771 44.5176 69.3602 44.8644 70.2867C45.6269 72.3241 47.402 73.8919 49.7298 74.5846C49.9619 74.6536 50.1996 74.7247 50.2583 74.7427C50.5791 74.841 51.3581 74.9729 52.0775 75.0507C52.8368 75.1327 54.3594 75.1245 55.1264 75.0342C55.7483 74.961 56.2018 74.89 56.5108 74.8176C56.6086 74.7947 56.7204 74.7696 56.7595 74.762C56.9239 74.7296 57.7831 74.4574 57.9353 74.3893C58.0263 74.3487 58.1159 74.3155 58.1346 74.3155C58.1532 74.3155 58.3709 74.216 58.6185 74.0945C60.6068 73.1188 61.8887 71.6156 62.4414 69.6124C62.7797 68.3857 62.8062 66.9449 62.512 65.7571C62.4219 65.3931 62.335 65.0903 62.2842 64.9633C62.1296 64.576 62.0795 64.4611 61.964 64.2273C61.703 63.6996 61.4342 63.2889 61.0712 62.8631C60.7644 62.5031 60.8101 62.5499 60.4541 62.2318C59.8027 61.6496 59.047 61.1815 58.1094 60.7794C57.9775 60.7227 57.187 60.4614 57.0259 60.4213C56.4891 60.2872 55.8635 60.166 55.445 60.1151C55.3278 60.1007 55.1919 60.0836 55.1431 60.0769C55.0942 60.0704 54.7665 60.0475 54.4148 60.0262C53.7695 59.9869 53.2627 59.9889 52.5142 60.0328ZM83.1919 60.5385C83.2054 60.6027 83.2605 60.7925 83.3146 60.9603C83.3685 61.1281 83.4482 61.3866 83.4915 61.5347C83.5349 61.6828 83.5992 61.8928 83.6347 62.0015C83.6702 62.11 83.7497 62.3686 83.8117 62.5759C83.8738 62.7832 83.9405 63.0012 83.9602 63.0605C84.0097 63.2097 84.1637 63.7075 84.2241 63.9132C84.2517 64.0069 84.2969 64.1605 84.3243 64.2542C84.378 64.4368 84.4845 64.7818 84.665 65.3582C84.7269 65.5556 84.8632 65.9999 84.9681 66.3455C85.0729 66.6909 85.209 67.1352 85.2704 67.3327C85.3319 67.5301 85.4031 67.7645 85.4289 67.8533C85.4546 67.9421 85.5186 68.1521 85.5711 68.32C85.6237 68.4879 85.6832 68.6897 85.7037 68.7687C85.7239 68.8477 85.7544 68.9276 85.7713 68.9464C85.788 68.9652 85.8018 69.0039 85.8018 69.0324C85.8018 69.0753 86.0474 69.8994 86.1564 70.2227C86.1732 70.272 86.2376 70.482 86.2996 70.6895C86.3616 70.8968 86.4495 71.1794 86.4946 71.3177C86.5397 71.4559 86.6114 71.6901 86.6537 71.8382C86.6961 71.9864 86.7446 72.1478 86.7613 72.1973C86.7779 72.2466 86.8427 72.4566 86.9052 72.6639C86.9675 72.8714 87.0645 73.1832 87.1208 73.3571C87.1769 73.531 87.2229 73.6968 87.2229 73.7256C87.2229 73.7544 87.238 73.8059 87.2566 73.8402C87.2749 73.8745 87.3418 74.0762 87.405 74.2884L87.5198 74.6744H90.7597C93.316 74.6744 94.0075 74.6649 94.0366 74.6292C94.057 74.6046 94.0854 74.5369 94.0998 74.4791C94.1142 74.4213 94.1472 74.3325 94.1734 74.2819C94.1997 74.2313 94.2211 74.1693 94.2213 74.1444C94.2213 74.1194 94.2358 74.071 94.2533 74.0367C94.2708 74.0024 94.313 73.9017 94.3469 73.8128C94.3809 73.724 94.4305 73.6004 94.4571 73.5382C94.4839 73.4759 94.5056 73.4024 94.5056 73.3748C94.5056 73.3472 94.519 73.3092 94.5353 73.2905C94.5518 73.2717 94.6167 73.1109 94.6799 72.9333C94.8641 72.4148 94.9982 72.0593 95.0422 71.9733C95.0597 71.939 95.0741 71.893 95.0741 71.8712C95.0741 71.8492 95.0963 71.7803 95.1235 71.718C95.1505 71.6558 95.4716 70.7971 95.8368 69.8099C96.202 68.8226 96.5156 67.9868 96.5335 67.9525C96.5514 67.9182 96.5663 67.8698 96.5664 67.8448C96.5666 67.8199 96.5874 67.759 96.6129 67.7097C96.6384 67.6602 96.6896 67.5349 96.7265 67.4308C96.7974 67.2316 96.8465 67.208 96.8899 67.353C96.9728 67.6304 97.2502 68.5312 97.2762 68.6071C97.2931 68.6566 97.3416 68.8181 97.3839 68.9662C97.4263 69.1143 97.4896 69.3242 97.5246 69.433C97.5596 69.5415 97.6396 69.7999 97.7027 70.0072C97.7656 70.2147 97.8774 70.5781 97.9512 70.8151C98.0248 71.052 98.1208 71.367 98.1646 71.5152C98.2867 71.9291 98.4128 72.3437 98.465 72.5025C98.5093 72.6376 98.6165 72.9884 98.8156 73.6512C98.8631 73.8092 98.9536 74.104 99.0166 74.3064L99.1316 74.6744H102.607H106.082L106.105 74.5936C106.117 74.5492 106.141 74.4806 106.157 74.4411C106.174 74.4016 106.211 74.2884 106.24 74.1898C106.303 73.9763 106.686 72.7591 106.85 72.251C106.973 71.8704 107.076 71.5416 107.347 70.6715C107.439 70.3752 107.528 70.1006 107.544 70.0611C107.56 70.0216 107.597 69.9086 107.626 69.8099C107.686 69.6043 108.058 68.4296 108.255 67.8173C108.329 67.5903 108.439 67.2349 108.502 67.0276C108.564 66.8203 108.628 66.6183 108.643 66.5788C108.658 66.5393 108.696 66.4263 108.726 66.3275C108.757 66.2287 108.869 65.8734 108.975 65.5376C109.082 65.202 109.268 64.6122 109.389 64.2273C109.51 63.8422 109.623 63.4868 109.64 63.4374C109.657 63.3881 109.745 63.1053 109.836 62.8092C109.927 62.5131 110.014 62.2383 110.03 62.1988C110.1 62.0248 110.492 60.7513 110.492 60.6992C110.492 60.6674 110.508 60.6315 110.528 60.6193C110.547 60.607 110.563 60.5577 110.563 60.5094V60.4218H107.403H104.242L104.207 60.5565C104.188 60.6304 104.13 60.8526 104.079 61.0501C104.028 61.2475 103.93 61.6272 103.861 61.8936C103.792 62.1602 103.72 62.4511 103.701 62.54C103.683 62.6288 103.653 62.7338 103.636 62.7733C103.619 62.8128 103.587 62.9259 103.565 63.0245C103.52 63.2286 103.444 63.5391 103.393 63.7246C103.303 64.0513 103.126 64.7322 103.085 64.9094C103.044 65.0883 102.987 65.3075 102.783 66.0762C102.58 66.8442 102.523 67.064 102.481 67.2429C102.456 67.3515 102.401 67.5696 102.358 67.7276C102.316 67.8855 102.249 68.136 102.21 68.2841C102.17 68.4322 102.119 68.6422 102.095 68.7507C102.07 68.8665 102.033 68.9482 102.006 68.9482C101.979 68.9482 101.911 68.8033 101.844 68.6071C101.685 68.1362 101.434 67.4193 101.397 67.3327C101.381 67.2933 101.293 67.0427 101.202 66.7763C101.112 66.5097 100.973 66.1138 100.895 65.8967C100.817 65.6794 100.732 65.4372 100.706 65.3582C100.643 65.17 100.439 64.5883 100.403 64.4965C100.388 64.457 100.351 64.352 100.321 64.2632C100.176 63.8303 100.041 63.4499 100.015 63.4004C99.9989 63.3701 99.9736 63.2899 99.9589 63.222C99.9441 63.1542 99.9191 63.074 99.9034 63.0437C99.8876 63.0134 99.8591 62.9402 99.84 62.8809C99.8211 62.8218 99.7388 62.5875 99.6572 62.3604C99.5757 62.1333 99.4693 61.8264 99.4209 61.6783C99.3726 61.5302 99.3185 61.3767 99.3008 61.3372C99.2832 61.2978 99.2137 61.1039 99.1464 60.9065C99.0791 60.709 99.0128 60.5192 98.9991 60.4846C98.9759 60.4258 98.8373 60.4218 96.7946 60.4218H94.6151L94.5719 60.5743C94.5483 60.6584 94.5174 60.7432 94.5036 60.7629C94.4896 60.7827 94.4666 60.8553 94.4523 60.9243C94.438 60.9935 94.4167 61.0662 94.4053 61.0858C94.382 61.1251 94.1963 61.6587 93.9554 62.3784C93.8695 62.635 93.7328 63.0309 93.6515 63.258C93.5704 63.4851 93.4889 63.7274 93.4703 63.7965C93.4517 63.8655 93.4226 63.9545 93.4057 63.9938C93.3886 64.0333 93.3002 64.2839 93.209 64.5503C93.1178 64.8169 93.0293 65.0674 93.0123 65.1068C92.9954 65.1463 92.966 65.2352 92.947 65.3043C92.9281 65.3733 92.8643 65.5673 92.8054 65.7351C92.5805 66.3749 92.2945 67.2093 92.1224 67.7276C92.024 68.0238 91.9295 68.2984 91.9123 68.3379C91.8953 68.3774 91.8282 68.5672 91.7634 68.7596C91.6988 68.9519 91.6298 69.1095 91.6103 69.1095C91.5908 69.1095 91.4476 68.5885 91.2923 67.9519C91.137 67.3151 90.9971 66.7537 90.9815 66.7044C90.9659 66.6551 90.8088 66.017 90.6326 65.2863C90.4564 64.5558 90.2964 63.9015 90.2771 63.8324C90.2579 63.7632 90.2252 63.634 90.2045 63.5452C90.1175 63.1711 89.822 61.9707 89.7803 61.8219C89.7608 61.7529 89.6808 61.4377 89.6021 61.1218C89.5235 60.806 89.4506 60.5192 89.4399 60.4846C89.4218 60.4253 89.2408 60.4218 86.294 60.4218H83.1673L83.1919 60.5385ZM111.238 60.4398C111.238 60.4496 111.238 63.6484 111.238 67.5481C111.238 71.4478 111.238 74.6547 111.238 74.6744C111.238 74.698 112.239 74.7103 114.169 74.7103H117.1V67.5661V60.4218H114.169C112.557 60.4218 111.238 60.4298 111.238 60.4398ZM33.0637 64.4594C32.5741 64.5283 32.4362 64.5693 32.0408 64.7642C31.1939 65.1813 30.7571 66.0531 30.7221 67.3966C30.7118 67.79 30.7846 68.5805 30.8501 68.7866C30.9717 69.1692 31.0394 69.3317 31.1721 69.5584C31.6674 70.4058 32.5085 70.7906 33.781 70.7519C34.0704 70.743 34.3471 70.7256 34.3961 70.7132C34.4448 70.7008 34.5327 70.6807 34.5914 70.6685C35.3879 70.5033 36.0104 69.9824 36.3253 69.2175C36.5438 68.687 36.5809 68.4452 36.5809 67.5481C36.5809 66.9071 36.5687 66.7075 36.5162 66.4891C36.2207 65.2573 35.5135 64.6306 34.2271 64.4602C33.7561 64.3978 33.5028 64.3976 33.0637 64.4594ZM52.9405 64.4627C52.5245 64.5225 52.5136 64.5249 52.2323 64.6238C51.5418 64.8665 51.0224 65.4106 50.7948 66.13C50.6631 66.5464 50.6177 66.9019 50.6163 67.5301C50.6146 68.2177 50.648 68.4656 50.8151 69.0088C50.9845 69.5599 51.36 70.0655 51.8159 70.3561C51.97 70.4545 52.3486 70.6081 52.5674 70.661C52.6456 70.68 52.7416 70.7042 52.7806 70.7149C52.8197 70.7256 53.0953 70.7421 53.3929 70.7516C54.4793 70.7863 55.1801 70.5508 55.7327 69.9657C56.1708 69.5016 56.3899 68.9185 56.4632 68.0209C56.5108 67.4363 56.4623 66.6946 56.3501 66.2928C56.0914 65.3677 55.4572 64.7468 54.5569 64.5378C53.9666 64.4009 53.5163 64.38 52.9405 64.4627ZM72.7237 64.4787C72.2895 64.5484 71.8593 64.7325 71.5347 64.988C70.8212 65.549 70.4906 66.3691 70.4903 67.5788C70.4903 68.0435 70.5583 68.6286 70.633 68.8046C70.6497 68.8441 70.6737 68.9167 70.6861 68.9662C70.7438 69.1924 70.9668 69.6329 71.1228 69.8278C71.4828 70.2783 71.9578 70.5958 72.4974 70.7468C72.7768 70.8251 73.6367 70.8555 73.9614 70.7986C74.7184 70.6663 75.2627 70.3304 75.7401 69.701C75.9801 69.3848 76.2182 68.6906 76.2859 68.1097C76.3337 67.7012 76.3074 67.0455 76.228 66.6685C75.9985 65.5763 75.3143 64.8172 74.3114 64.5414C74.0237 64.4624 73.0624 64.4244 72.7237 64.4787Z" fill="#625E56"/>
</svg>
