<svg width="320" height="320" viewBox="0 0 320 320" fill="none" xmlns="http://www.w3.org/2000/svg">
<g clip-path="url(#clip0_2245_159)">
<rect width="320" height="320" fill="#EFE2C1"/>
<path d="M193.934 88.9101H124.812C115.878 88.9101 108.635 81.6675 108.635 72.7329V42.1771C108.635 33.2425 115.878 26 124.812 26H193.933C202.867 26 210.11 33.2425 210.11 42.1771V72.7329C210.11 81.6675 202.868 88.9101 193.934 88.9101Z" fill="#DBC189"/>
<path d="M152.516 72.7329V42.1771C152.516 33.2431 159.759 26 168.693 26H124.812C115.878 26 108.635 33.2431 108.635 42.1771V72.7329C108.635 81.6675 115.877 88.9101 124.812 88.9101H168.693C159.759 88.9101 152.516 81.6675 152.516 72.7329Z" fill="#BCA573"/>
<path d="M131.155 123.477V123.977H131.655H187.797H187.797H188.297V123.477V101.803C188.297 95.2824 183.011 89.9971 176.491 89.9971H142.961C136.441 89.9971 131.155 95.283 131.155 101.803V123.477Z" fill="#F3EAE6" stroke="#ABABAB"/>
<path d="M151.388 118.425C151.388 107.894 159.926 99.3553 170.458 99.3553H187.523C186.404 94.2895 181.893 90.4971 176.491 90.4971H142.961C136.717 90.4971 131.655 95.5585 131.655 101.803V123.477H151.389V118.425H151.388Z" fill="#EFE2DD"/>
<path d="M76.2239 295.5H243.066C256.168 295.5 266.79 284.878 266.79 271.776V137.482C266.79 124.379 256.168 113.758 243.066 113.758H76.2239C63.1216 113.758 52.5 124.379 52.5 137.482V271.776C52.5 284.878 63.1216 295.5 76.2239 295.5Z" fill="#FDF6EC" stroke="#ABABAB"/>
<path d="M172.712 274.062C139.778 274.062 113.08 247.364 113.08 214.43V116.544C113.08 115.772 113.12 115.01 113.194 114.258H76.2239C63.3977 114.258 53 124.656 53 137.482V271.776C53 284.602 63.3977 295 76.2239 295H243.066C255.121 295 265.028 285.815 266.177 274.062H172.712Z" fill="#FEF1DA"/>
<path d="M236.211 143.685H82.5345C79.1259 143.685 76.4858 146.666 76.8979 150.05L86.4463 228.41C89.1093 250.262 107.66 266.69 129.673 266.69H189.072C211.085 266.69 229.636 250.262 232.299 228.41L241.848 150.05C242.26 146.666 239.619 143.685 236.211 143.685Z" fill="#E9E9E9"/>
<path d="M86.4463 228.41C89.1093 250.262 107.66 266.69 129.673 266.69H143.974C125.558 256.541 113.081 236.944 113.081 214.431V143.685H82.5345C79.1259 143.685 76.4858 146.666 76.8979 150.05L86.4463 228.41Z" fill="#D1D1D1"/>
<path d="M174.714 88.9097H144.032V58.657C144.032 53.0951 148.54 48.5869 154.102 48.5869H164.643C170.205 48.5869 174.713 53.0956 174.713 58.657V88.9097H174.714Z" fill="#CEB57E"/>
<path d="M152.516 72.7325V48.7236C147.71 49.4863 144.032 53.6363 144.032 58.6569V88.9096H168.693C159.759 88.9096 152.516 81.6671 152.516 72.7325Z" fill="#BCA573"/>
<path d="M176.223 114.258H142.521V149.895C142.521 154.77 146.474 158.723 151.35 158.723H167.395C172.271 158.723 176.223 154.77 176.223 149.895L176.223 114.258Z" fill="#F3EAE6"/>
<path d="M112.344 210.311V189.947H120.498C121.996 189.947 123.246 190.169 124.246 190.613C125.247 191.057 126 191.674 126.504 192.463C127.007 193.245 127.259 194.146 127.259 195.167C127.259 195.963 127.1 196.662 126.782 197.265C126.464 197.862 126.026 198.352 125.469 198.737C124.919 199.115 124.29 199.383 123.58 199.542V199.741C124.356 199.774 125.082 199.993 125.758 200.397C126.441 200.802 126.994 201.368 127.418 202.097C127.843 202.82 128.055 203.682 128.055 204.683C128.055 205.763 127.786 206.728 127.249 207.576C126.719 208.418 125.933 209.084 124.893 209.575C123.852 210.065 122.569 210.311 121.045 210.311H112.344ZM116.65 206.791H120.16C121.36 206.791 122.235 206.562 122.785 206.105C123.335 205.641 123.61 205.024 123.61 204.255C123.61 203.692 123.474 203.195 123.202 202.764C122.931 202.333 122.543 201.995 122.039 201.749C121.542 201.504 120.949 201.382 120.259 201.382H116.65V206.791ZM116.65 198.468H119.842C120.432 198.468 120.955 198.365 121.413 198.16C121.877 197.948 122.241 197.65 122.506 197.265C122.778 196.881 122.914 196.42 122.914 195.883C122.914 195.147 122.652 194.554 122.129 194.103C121.612 193.652 120.876 193.427 119.921 193.427H116.65V198.468ZM130.856 210.311V189.947H138.89C140.428 189.947 141.741 190.222 142.828 190.772C143.922 191.316 144.753 192.088 145.324 193.089C145.9 194.083 146.189 195.253 146.189 196.599C146.189 197.951 145.897 199.115 145.314 200.089C144.73 201.057 143.885 201.799 142.778 202.316C141.678 202.833 140.345 203.092 138.781 203.092H133.402V199.632H138.085C138.907 199.632 139.59 199.519 140.133 199.294C140.677 199.068 141.081 198.73 141.346 198.279C141.618 197.829 141.754 197.268 141.754 196.599C141.754 195.923 141.618 195.353 141.346 194.889C141.081 194.425 140.673 194.073 140.123 193.835C139.58 193.589 138.894 193.467 138.065 193.467H135.162V210.311H130.856ZM141.853 201.044L146.914 210.311H142.162L137.21 201.044H141.853ZM152.741 210.311H148.127L155.157 189.947H160.706L167.726 210.311H163.112L158.011 194.6H157.852L152.741 210.311ZM152.453 202.306H163.351V205.667H152.453V202.306ZM187.209 189.947V210.311H183.49L174.631 197.494H174.482V210.311H170.176V189.947H173.955L182.745 202.754H182.924V189.947H187.209ZM197.985 210.311H190.766V189.947H198.045C200.093 189.947 201.856 190.355 203.335 191.17C204.813 191.979 205.95 193.142 206.745 194.66C207.547 196.178 207.948 197.994 207.948 200.109C207.948 202.23 207.547 204.053 206.745 205.578C205.95 207.102 204.806 208.272 203.315 209.088C201.83 209.903 200.053 210.311 197.985 210.311ZM195.072 206.622H197.806C199.079 206.622 200.149 206.396 201.018 205.945C201.893 205.488 202.549 204.782 202.987 203.828C203.431 202.866 203.653 201.627 203.653 200.109C203.653 198.604 203.431 197.374 202.987 196.42C202.549 195.465 201.896 194.763 201.028 194.312C200.159 193.861 199.089 193.636 197.816 193.636H195.072V206.622Z" fill="#7C512E"/>
<g style="mix-blend-mode:hue">
<rect width="320" height="320" fill="#00BF13"/>
</g>
</g>
<defs>
<clipPath id="clip0_2245_159">
<rect width="320" height="320" fill="white"/>
</clipPath>
</defs>
</svg>
