<svg width="320" height="320" viewBox="0 0 320 320" fill="none" xmlns="http://www.w3.org/2000/svg">
<g clip-path="url(#clip0_2128_267)">
<rect width="320" height="320" fill="#EFE2C1"/>
<path d="M100.736 214.992L100.735 214.992C86.4119 199.483 78.5316 179.84 78.5 159.732C78.5001 139.801 86.2227 120.336 100.323 105.007L100.324 105.006C116.001 87.9033 137.094 78.5 159.699 78.5C182.303 78.5 203.46 87.9033 219.264 105.067L219.265 105.067C233.588 120.576 241.468 140.22 241.5 160.269C241.5 180.199 233.777 199.664 219.645 214.992L219.645 214.993C203.936 232.097 182.874 241.5 160.27 241.5C137.665 241.5 116.508 232.097 100.736 214.992Z" fill="#CEB57E" stroke="#86766A"/>
<path d="M109.168 207.301L109.167 207.301C96.8813 194.076 90.1233 177.327 90.0962 160.185C90.0963 143.193 96.719 126.597 108.814 113.526L108.814 113.525C122.261 98.9417 140.353 90.9238 159.741 90.9238C179.13 90.9238 197.277 98.9417 210.833 113.577L210.833 113.578C223.119 126.802 229.877 143.551 229.904 160.643C229.904 177.634 223.281 194.23 211.16 207.301L211.159 207.302C197.685 221.886 179.62 229.904 160.232 229.904C140.843 229.904 122.696 221.886 109.168 207.301Z" fill="#BD9C52" stroke="#86766A"/>
<path d="M112.178 203.812L112.178 203.812C100.619 191.453 94.2628 175.803 94.2373 159.786C94.2374 143.91 100.467 128.402 111.845 116.187L111.846 116.187C124.495 102.558 141.515 95.0654 159.756 95.0654C177.997 95.0654 195.069 102.558 207.822 116.235L207.822 116.235C219.381 128.594 225.737 144.245 225.763 160.214C225.762 176.09 219.533 191.597 208.13 203.812L208.129 203.813C195.453 217.441 178.459 224.934 160.218 224.934C141.977 224.934 124.905 217.441 112.178 203.812Z" fill="#DBD8DD" stroke="#86766A"/>
<path d="M160.202 220.464C143.197 220.464 127.284 213.485 115.427 200.8C104.66 189.299 98.7307 174.726 98.707 159.802C98.707 145.01 104.517 130.569 115.118 119.2C126.905 106.514 142.771 99.5352 159.775 99.5352C176.779 99.5352 192.692 106.514 204.573 119.244C215.34 130.744 221.269 145.317 221.293 160.197C221.293 174.99 215.483 189.431 204.858 200.8C193.048 213.485 177.206 220.464 160.202 220.464Z" fill="#EDEDED"/>
<path opacity="0.32" d="M158.911 207.212C145.929 207.212 133.779 201.81 124.725 191.992C116.504 183.091 111.978 171.812 111.959 160.261C111.959 148.812 116.396 137.635 124.49 128.836C133.489 119.018 145.603 113.616 158.585 113.616C171.568 113.616 183.718 119.018 192.79 128.87C201.011 137.771 205.537 149.05 205.555 160.567C205.555 172.016 201.119 183.193 193.007 191.992C183.99 201.81 171.894 207.212 158.911 207.212Z" fill="#DBD8DD"/>
<path d="M127.011 189.974L127.011 189.974C119.235 181.633 114.962 171.073 114.944 160.269C114.944 149.56 119.133 139.096 126.786 130.853L126.787 130.852C135.296 121.655 146.741 116.601 159.007 116.601C171.273 116.601 182.754 121.655 191.332 130.885L191.332 130.886C199.108 139.227 203.382 149.787 203.399 160.559C203.399 171.268 199.21 181.731 191.54 189.974L191.539 189.975C183.013 199.173 171.584 204.227 159.319 204.227C147.053 204.227 135.572 199.172 127.011 189.974Z" fill="#CEB57E" stroke="#86766A"/>
<path d="M140.487 178.237L140.487 178.237C135.768 173.204 133.177 166.836 133.167 160.326C133.167 153.873 135.705 147.565 140.35 142.591L140.351 142.591C145.514 137.043 152.458 133.995 159.899 133.995C167.341 133.995 174.306 137.043 179.512 142.611L179.512 142.612C184.232 147.645 186.823 154.012 186.833 160.503C186.833 166.956 184.294 173.264 179.639 178.237L179.638 178.238C174.464 183.786 167.531 186.833 160.09 186.833C152.648 186.833 145.683 183.786 140.487 178.237Z" fill="#EDEDED" stroke="#86766A"/>
<path d="M193.83 207.784L191.396 206.407L191.351 206.432L191.271 209.231L190.094 209.897L190.239 206.055L186.845 204.214L188.041 203.538L190.481 204.894L190.526 204.868L190.623 202.078L191.814 201.405L191.624 205.272L195.013 207.116L193.83 207.784Z" fill="#7C512E"/>
<path d="M188.077 210.843L185.778 209.25L185.731 209.271L185.396 212.051L184.163 212.607L184.657 208.794L181.445 206.652L182.698 206.088L185.005 207.66L185.052 207.639L185.402 204.869L186.649 204.307L186.108 208.14L189.315 210.285L188.077 210.843Z" fill="#7C512E"/>
<path d="M182.154 213.331L180.013 211.532L179.964 211.549L179.373 214.286L178.095 214.725L178.939 210.975L175.939 208.545L177.239 208.098L179.39 209.877L179.439 209.86L180.044 207.135L181.338 206.691L180.445 210.458L183.439 212.89L182.154 213.331Z" fill="#7C512E"/>
<path d="M175.999 215.267L174.038 213.272L173.989 213.284L173.14 215.952L171.825 216.268L173.023 212.615L170.268 209.91L171.604 209.59L173.576 211.565L173.626 211.553L174.488 208.898L175.818 208.579L174.571 212.244L177.32 214.95L175.999 215.267Z" fill="#7C512E"/>
<path d="M167.379 216.939L165.698 214.703L165.647 214.709L164.455 217.242L163.11 217.382L164.778 213.919L162.402 210.875L163.769 210.733L165.464 212.951L165.515 212.945L166.719 210.426L168.079 210.285L166.361 213.754L168.73 216.798L167.379 216.939Z" fill="#7C512E"/>
<path d="M160.935 217.43L159.485 215.038L159.434 215.038L157.995 217.44L156.643 217.445L158.648 214.165L156.588 210.9L157.962 210.895L159.428 213.271L159.479 213.271L160.928 210.884L162.296 210.88L160.24 214.16L162.294 217.425L160.935 217.43Z" fill="#7C512E"/>
<path d="M154.484 217.275L153.284 214.748L153.233 214.743L151.558 216.987L150.212 216.855L152.539 213.795L150.821 210.337L152.188 210.472L153.406 212.984L153.457 212.989L155.14 210.762L156.501 210.896L154.123 213.951L155.836 217.407L154.484 217.275Z" fill="#7C512E"/>
<path d="M148.08 216.464L147.146 213.827L147.096 213.817L145.199 215.877L143.874 215.607L146.504 212.803L145.149 209.187L146.496 209.461L147.449 212.085L147.499 212.096L149.402 210.053L150.743 210.326L148.063 213.12L149.411 216.735L148.08 216.464Z" fill="#7C512E"/>
<path d="M141.67 214.961L141.024 212.239L140.975 212.223L138.868 214.068L137.58 213.657L140.495 211.151L139.537 207.411L140.847 207.828L141.512 210.54L141.561 210.555L143.672 208.729L144.976 209.144L142.012 211.635L142.964 215.373L141.67 214.961Z" fill="#7C512E"/>
<path d="M135.624 212.847L135.262 210.074L135.215 210.053L132.929 211.671L131.69 211.13L134.848 208.937L134.28 205.118L135.539 205.668L135.922 208.433L135.969 208.454L138.257 206.855L139.511 207.402L136.307 209.574L136.869 213.39L135.624 212.847Z" fill="#7C512E"/>
<path d="M129.847 210.134L129.769 207.338L129.725 207.313L127.286 208.69L126.109 208.026L129.473 206.166L129.296 202.309L130.493 202.984L130.593 205.774L130.637 205.799L133.076 204.441L134.268 205.112L130.859 206.948L131.031 210.801L129.847 210.134Z" fill="#7C512E"/>
<g style="mix-blend-mode:hue">
<rect width="320" height="320" fill="#00BF13"/>
</g>
</g>
<defs>
<clipPath id="clip0_2128_267">
<rect width="320" height="320" fill="white"/>
</clipPath>
</defs>
</svg>
