<svg width="320" height="320" viewBox="0 0 320 320" fill="none" xmlns="http://www.w3.org/2000/svg">
<g clip-path="url(#clip0_2128_265)">
<rect width="320" height="320" fill="#EFE2C1"/>
<path d="M150.5 213.639V214.139H151H169.267H169.767V213.639V141.166C169.767 136.674 169.322 132.591 168.594 129.616C168.231 128.133 167.791 126.897 167.284 126.02C166.798 125.18 166.149 124.5 165.312 124.5H154.955C154.118 124.5 153.469 125.18 152.983 126.02C152.476 126.897 152.036 128.133 151.673 129.616C150.945 132.591 150.5 136.674 150.5 141.166V213.639Z" fill="#E9E9E9" stroke="#ABABAB"/>
<path d="M103.661 268.278V268.778H104.161H216.337H216.338H216.838V268.278V224.971C216.838 212.218 206.5 201.881 193.748 201.881H126.751C113.998 201.881 103.661 212.219 103.661 224.971V268.278Z" fill="#F3EAE6" stroke="#ABABAB"/>
<path d="M143.495 258.43C143.495 237.386 160.555 220.326 181.599 220.326H215.697C213.461 210.204 204.448 202.626 193.654 202.626H126.657C114.181 202.626 104.067 212.739 104.067 225.216V268.524H143.497V258.43H143.495Z" fill="#EFE2DD"/>
<path d="M-6.59613 611.5H326.771C352.676 611.5 373.675 590.5 373.675 564.596V296.262C373.675 270.358 352.676 249.358 326.771 249.358H-6.59613C-32.5004 249.358 -53.5 270.358 -53.5 296.262V564.596C-53.5 590.5 -32.5004 611.5 -6.59613 611.5Z" fill="#FDF6EC" stroke="#ABABAB"/>
<path d="M186.197 569.164C120.392 569.164 67.0468 515.819 67.0468 450.014V254.427C67.0468 252.884 67.1263 251.362 67.2734 249.858H-6.59614C-32.2243 249.858 -53 270.634 -53 296.262V564.596C-53 590.224 -32.2243 611 -6.59614 611H326.771C350.858 611 370.654 592.648 372.95 569.164H186.197Z" fill="#FEF1DA"/>
<path d="M313.074 308.657H6.01237C-0.798491 308.657 -6.07356 314.615 -5.25011 321.376L13.8286 477.949C19.1494 521.61 56.2154 554.434 100.2 554.434H218.887C262.87 554.434 299.937 521.61 305.258 477.949L324.337 321.376C325.16 314.615 319.884 308.657 313.074 308.657Z" fill="#E9E9E9"/>
<path d="M13.8286 477.949C19.1494 521.61 56.2165 554.434 100.2 554.434H128.776C91.9787 534.156 67.0466 495 67.0466 450.016V308.657H6.01237C-0.798491 308.657 -6.07356 314.615 -5.25011 321.376L13.8286 477.949Z" fill="#D1D1D1"/>
<path d="M193.213 249.858H125.874V321.065C125.874 330.807 133.772 338.705 143.514 338.705H175.574C185.316 338.705 193.214 330.807 193.214 321.065L193.213 249.858Z" fill="#F3EAE6"/>
<ellipse cx="160" cy="125.5" rx="7" ry="3.5" fill="#B6B6B6"/>
</g>
<defs>
<clipPath id="clip0_2128_265">
<rect width="320" height="320" fill="white"/>
</clipPath>
</defs>
</svg>
