<svg width="320" height="320" viewBox="0 0 320 320" fill="none" xmlns="http://www.w3.org/2000/svg">
<g clip-path="url(#clip0_2128_259)">
<rect width="320" height="320" fill="#EFE2C1"/>
<path d="M181.59 114.991H137.65C131.971 114.991 127.366 110.387 127.366 104.708V85.2836C127.367 79.604 131.971 75 137.65 75H181.589C187.268 75 191.873 79.604 191.873 85.2836V104.708C191.873 110.387 187.269 114.991 181.59 114.991Z" fill="#DBC189"/>
<path d="M155.261 104.708V85.2836C155.261 79.6043 159.865 75 165.544 75H137.65C131.971 75 127.366 79.6043 127.366 85.2836V104.708C127.366 110.387 131.97 114.991 137.65 114.991H165.544C159.865 114.991 155.261 110.387 155.261 104.708Z" fill="#BCA573"/>
<path d="M141.5 136.965V137.465H142H177.688H177.689H178.189V136.965V123.187C178.189 118.941 174.747 115.5 170.502 115.5H149.187C144.941 115.5 141.5 118.942 141.5 123.187V136.965Z" fill="#F3EAE6" stroke="#ABABAB"/>
<path d="M154.544 133.754C154.544 127.059 159.971 121.631 166.667 121.631H177.515C176.803 118.411 173.936 116 170.502 116H149.187C145.218 116 142 119.218 142 123.187V136.965H154.544V133.754H154.544Z" fill="#EFE2DD"/>
<path d="M106.763 246.5H212.822C221.252 246.5 228.085 239.666 228.085 231.237V145.868C228.085 137.438 221.252 130.604 212.822 130.604H106.763C98.3335 130.604 91.5 137.438 91.5 145.868V231.237C91.5 239.666 98.3335 246.5 106.763 246.5Z" fill="#FDF6EC" stroke="#ABABAB"/>
<path d="M168.099 232.69C147.164 232.69 130.192 215.718 130.192 194.783V132.558C130.192 132.067 130.218 131.583 130.264 131.104H106.763C98.6097 131.104 92 137.714 92 145.868V231.237C92 239.39 98.6097 246 106.763 246H212.822C220.485 246 226.783 240.161 227.514 232.69H168.099Z" fill="#FEF1DA"/>
<path d="M208.465 149.811H110.774C108.608 149.811 106.929 151.706 107.191 153.857L113.261 203.67C114.954 217.56 126.746 228.003 140.74 228.003H178.499C192.492 228.003 204.285 217.56 205.978 203.67L212.048 153.857C212.31 151.706 210.631 149.811 208.465 149.811Z" fill="#E9E9E9"/>
<path d="M113.261 203.67C114.954 217.56 126.747 228.003 140.74 228.003H149.831C138.124 221.552 130.192 209.095 130.192 194.783V149.811H110.774C108.608 149.811 106.929 151.706 107.191 153.857L113.261 203.67Z" fill="#D1D1D1"/>
<path d="M169.371 114.991H149.867V95.7598C149.867 92.2242 152.734 89.3584 156.269 89.3584H162.97C166.505 89.3584 169.371 92.2245 169.371 95.7598V114.991H169.371Z" fill="#CEB57E"/>
<path d="M155.261 104.707V89.4453C152.206 89.9301 149.867 92.5682 149.867 95.7598V114.991H165.544C159.865 114.991 155.261 110.387 155.261 104.707Z" fill="#BCA573"/>
<path d="M170.331 131.104H148.908V153.758C148.908 156.858 151.42 159.37 154.52 159.37H164.719C167.819 159.37 170.331 156.858 170.331 153.758L170.331 131.104Z" fill="#F3EAE6"/>
<g style="mix-blend-mode:hue">
<rect width="320" height="320" fill="#00BF13"/>
</g>
</g>
<defs>
<clipPath id="clip0_2128_259">
<rect width="320" height="320" fill="white"/>
</clipPath>
</defs>
</svg>
