<svg width="320" height="320" viewBox="0 0 320 320" fill="none" xmlns="http://www.w3.org/2000/svg">
<g clip-path="url(#clip0_2128_236)">
<rect width="320" height="320" fill="#EFE2C1"/>
<path d="M88.3728 226.464L88.3725 226.463C71.0629 207.721 61.5382 183.98 61.5 159.676C61.5001 135.587 70.8343 112.062 87.8752 93.536L87.8758 93.5353C106.821 72.8655 132.315 61.5 159.636 61.5C186.957 61.5 212.528 72.8656 231.627 93.608L231.627 93.6086C248.937 112.351 258.462 136.092 258.5 160.324C258.5 184.413 249.166 207.938 232.087 226.464L232.086 226.464C213.102 247.135 187.646 258.5 160.326 258.5C133.005 258.5 107.434 247.134 88.3728 226.464Z" fill="#D1D1D1" stroke="#616161"/>
<path d="M98.5529 217.178L98.5526 217.178C83.7026 201.194 75.5328 180.948 75.5 160.224C75.5001 139.682 83.5065 119.621 98.1257 103.821L98.1264 103.821C114.379 86.1927 136.25 76.5 159.688 76.5C183.126 76.5 205.062 86.1927 221.447 103.883L221.447 103.883C236.298 119.868 244.467 140.114 244.5 160.777C244.5 181.318 236.494 201.379 221.842 217.178L221.841 217.179C205.555 234.808 183.717 244.5 160.28 244.5C136.841 244.5 114.905 234.807 98.5529 217.178Z" fill="#E9E9E9" stroke="#616161"/>
<path d="M110.188 206.382L110.188 206.381C98.1485 193.44 91.5266 177.05 91.5 160.276C91.5001 143.649 97.9896 127.409 109.842 114.618L109.842 114.617C123.018 100.346 140.747 92.5 159.746 92.5C178.746 92.5 196.528 100.346 209.812 114.668L209.812 114.668C221.852 127.61 228.474 144 228.5 160.725C228.5 177.351 222.01 193.591 210.132 206.382L210.132 206.382C196.928 220.654 179.226 228.5 160.227 228.5C141.227 228.5 123.445 220.654 110.188 206.382Z" fill="#F7F7F7" stroke="#616161"/>
<path d="M141.79 128V120H144.993C145.581 120 146.072 120.087 146.465 120.262C146.859 120.436 147.154 120.678 147.352 120.988C147.55 121.296 147.649 121.65 147.649 122.051C147.649 122.363 147.586 122.638 147.461 122.875C147.336 123.109 147.165 123.302 146.946 123.453C146.73 123.602 146.482 123.707 146.204 123.77V123.848C146.508 123.861 146.793 123.947 147.059 124.105C147.327 124.264 147.545 124.487 147.711 124.773C147.878 125.057 147.961 125.396 147.961 125.789C147.961 126.214 147.856 126.592 147.645 126.926C147.437 127.257 147.128 127.518 146.719 127.711C146.31 127.904 145.806 128 145.208 128H141.79ZM143.481 126.617H144.86C145.331 126.617 145.675 126.527 145.891 126.348C146.107 126.165 146.215 125.923 146.215 125.621C146.215 125.4 146.162 125.204 146.055 125.035C145.948 124.866 145.796 124.733 145.598 124.637C145.403 124.54 145.17 124.492 144.899 124.492H143.481V126.617ZM143.481 123.348H144.735C144.967 123.348 145.172 123.307 145.352 123.227C145.534 123.143 145.678 123.026 145.782 122.875C145.889 122.724 145.942 122.543 145.942 122.332C145.942 122.043 145.839 121.81 145.633 121.633C145.43 121.456 145.141 121.367 144.766 121.367H143.481V123.348ZM149.062 128V120H152.218C152.822 120 153.338 120.108 153.765 120.324C154.195 120.538 154.522 120.841 154.746 121.234C154.972 121.625 155.085 122.085 155.085 122.613C155.085 123.145 154.971 123.602 154.742 123.984C154.513 124.365 154.181 124.656 153.746 124.859C153.313 125.062 152.79 125.164 152.175 125.164H150.062V123.805H151.902C152.225 123.805 152.493 123.76 152.707 123.672C152.92 123.583 153.079 123.451 153.183 123.273C153.29 123.096 153.343 122.876 153.343 122.613C153.343 122.348 153.29 122.124 153.183 121.941C153.079 121.759 152.919 121.621 152.703 121.527C152.489 121.431 152.22 121.383 151.894 121.383H150.753V128H149.062ZM153.382 124.359L155.371 128H153.503L151.558 124.359H153.382ZM157.66 128H155.847L158.609 120H160.789L163.546 128H161.734L159.73 121.828H159.667L157.66 128ZM157.546 124.855H161.828V126.176H157.546V124.855ZM171.201 120V128H169.74L166.259 122.965H166.201V128H164.509V120H165.994L169.447 125.031H169.517V120H171.201ZM175.434 128H172.598V120H175.458C176.262 120 176.955 120.16 177.536 120.48C178.116 120.798 178.563 121.255 178.875 121.852C179.191 122.448 179.348 123.161 179.348 123.992C179.348 124.826 179.191 125.542 178.875 126.141C178.563 126.74 178.114 127.199 177.528 127.52C176.944 127.84 176.247 128 175.434 128ZM174.29 126.551H175.364C175.864 126.551 176.284 126.462 176.625 126.285C176.969 126.105 177.227 125.828 177.399 125.453C177.573 125.076 177.661 124.589 177.661 123.992C177.661 123.401 177.573 122.918 177.399 122.543C177.227 122.168 176.971 121.892 176.629 121.715C176.288 121.538 175.868 121.449 175.368 121.449H174.29V126.551Z" fill="#7C512E"/>
<path d="M111.34 137.636L112.386 139.42L113.431 137.636H114.204L112.795 139.818L114.204 142H113.431L112.386 140.307L111.34 142H110.567L111.954 139.818L110.567 137.636H111.34ZM115.661 137.636L116.706 139.42L117.751 137.636H118.524L117.115 139.818L118.524 142H117.751L116.706 140.307L115.661 142H114.888L116.274 139.818L114.888 137.636H115.661ZM119.981 137.636L121.026 139.42L122.072 137.636H122.844L121.435 139.818L122.844 142H122.072L121.026 140.307L119.981 142H119.208L120.594 139.818L119.208 137.636H119.981ZM124.301 137.636L125.347 139.42L126.392 137.636H127.165L125.756 139.818L127.165 142H126.392L125.347 140.307L124.301 142H123.528L124.915 139.818L123.528 137.636H124.301ZM128.621 137.636L129.667 139.42L130.712 137.636H131.485L130.076 139.818L131.485 142H130.712L129.667 140.307L128.621 142H127.849L129.235 139.818L127.849 137.636H128.621ZM135.192 137.636L136.237 139.42L137.283 137.636H138.055L136.646 139.818L138.055 142H137.283L136.237 140.307L135.192 142H134.419L135.805 139.818L134.419 137.636H135.192ZM139.512 137.636L140.558 139.42L141.603 137.636H142.376L140.967 139.818L142.376 142H141.603L140.558 140.307L139.512 142H138.739L140.126 139.818L138.739 137.636H139.512ZM143.832 137.636L144.878 139.42L145.923 137.636H146.696L145.287 139.818L146.696 142H145.923L144.878 140.307L143.832 142H143.06L144.446 139.818L143.06 137.636H143.832ZM148.153 137.636L149.198 139.42L150.244 137.636H151.016L149.607 139.818L151.016 142H150.244L149.198 140.307L148.153 142H147.38L148.766 139.818L147.38 137.636H148.153ZM152.473 137.636L153.518 139.42L154.564 137.636H155.337L153.928 139.818L155.337 142H154.564L153.518 140.307L152.473 142H151.7L153.087 139.818L151.7 137.636H152.473ZM156.793 137.636L157.839 139.42L158.884 137.636H159.657L158.248 139.818L159.657 142H158.884L157.839 140.307L156.793 142H156.021L157.407 139.818L156.021 137.636H156.793ZM161.114 137.636L162.159 139.42L163.205 137.636H163.977L162.568 139.818L163.977 142H163.205L162.159 140.307L161.114 142H160.341L161.727 139.818L160.341 137.636H161.114ZM167.684 137.636L168.729 139.42L169.775 137.636H170.548L169.138 139.818L170.548 142H169.775L168.729 140.307L167.684 142H166.911L168.298 139.818L166.911 137.636H167.684ZM172.004 137.636L173.05 139.42L174.095 137.636H174.868L173.459 139.818L174.868 142H174.095L173.05 140.307L172.004 142H171.232L172.618 139.818L171.232 137.636H172.004ZM176.325 137.636L177.37 139.42L178.415 137.636H179.188L177.779 139.818L179.188 142H178.415L177.37 140.307L176.325 142H175.552L176.938 139.818L175.552 137.636H176.325ZM180.645 137.636L181.69 139.42L182.736 137.636H183.509L182.099 139.818L183.509 142H182.736L181.69 140.307L180.645 142H179.872L181.259 139.818L179.872 137.636H180.645ZM184.965 137.636L186.011 139.42L187.056 137.636H187.829L186.42 139.818L187.829 142H187.056L186.011 140.307L184.965 142H184.192L185.579 139.818L184.192 137.636H184.965ZM189.286 137.636L190.331 139.42L191.376 137.636H192.149L190.74 139.818L192.149 142H191.376L190.331 140.307L189.286 142H188.513L189.899 139.818L188.513 137.636H189.286ZM193.606 137.636L194.651 139.42L195.697 137.636H196.469L195.06 139.818L196.469 142H195.697L194.651 140.307L193.606 142H192.833L194.219 139.818L192.833 137.636H193.606ZM197.926 137.636L198.972 139.42L200.017 137.636H200.79L199.381 139.818L200.79 142H200.017L198.972 140.307L197.926 142H197.153L198.54 139.818L197.153 137.636H197.926ZM202.246 137.636L203.292 139.42L204.337 137.636H205.11L203.701 139.818L205.11 142H204.337L203.292 140.307L202.246 142H201.474L202.86 139.818L201.474 137.636H202.246ZM206.567 137.636L207.612 139.42L208.658 137.636H209.43L208.021 139.818L209.43 142H208.658L207.612 140.307L206.567 142H205.794L207.18 139.818L205.794 137.636H206.567ZM115.661 145.636L116.706 147.42L117.751 145.636H118.524L117.115 147.818L118.524 150H117.751L116.706 148.307L115.661 150H114.888L116.274 147.818L114.888 145.636H115.661ZM119.981 145.636L121.026 147.42L122.072 145.636H122.844L121.435 147.818L122.844 150H122.072L121.026 148.307L119.981 150H119.208L120.594 147.818L119.208 145.636H119.981ZM124.301 145.636L125.347 147.42L126.392 145.636H127.165L125.756 147.818L127.165 150H126.392L125.347 148.307L124.301 150H123.528L124.915 147.818L123.528 145.636H124.301ZM128.621 145.636L129.667 147.42L130.712 145.636H131.485L130.076 147.818L131.485 150H130.712L129.667 148.307L128.621 150H127.849L129.235 147.818L127.849 145.636H128.621ZM132.942 145.636L133.987 147.42L135.033 145.636H135.805L134.396 147.818L135.805 150H135.033L133.987 148.307L132.942 150H132.169L133.555 147.818L132.169 145.636H132.942ZM137.262 145.636L138.308 147.42L139.353 145.636H140.126L138.717 147.818L140.126 150H139.353L138.308 148.307L137.262 150H136.489L137.876 147.818L136.489 145.636H137.262ZM141.582 145.636L142.628 147.42L143.673 145.636H144.446L143.037 147.818L144.446 150H143.673L142.628 148.307L141.582 150H140.81L142.196 147.818L140.81 145.636H141.582ZM145.903 145.636L146.948 147.42L147.994 145.636H148.766L147.357 147.818L148.766 150H147.994L146.948 148.307L145.903 150H145.13L146.516 147.818L145.13 145.636H145.903ZM150.223 145.636L151.268 147.42L152.314 145.636H153.087L151.678 147.818L153.087 150H152.314L151.268 148.307L150.223 150H149.45L150.837 147.818L149.45 145.636H150.223ZM154.543 145.636L155.589 147.42L156.634 145.636H157.407L155.998 147.818L157.407 150H156.634L155.589 148.307L154.543 150H153.771L155.157 147.818L153.771 145.636H154.543ZM161.114 145.636L162.159 147.42L163.205 145.636H163.977L162.568 147.818L163.977 150H163.205L162.159 148.307L161.114 150H160.341L161.727 147.818L160.341 145.636H161.114ZM165.434 145.636L166.479 147.42L167.525 145.636H168.298L166.888 147.818L168.298 150H167.525L166.479 148.307L165.434 150H164.661L166.048 147.818L164.661 145.636H165.434ZM169.754 145.636L170.8 147.42L171.845 145.636H172.618L171.209 147.818L172.618 150H171.845L170.8 148.307L169.754 150H168.982L170.368 147.818L168.982 145.636H169.754ZM174.075 145.636L175.12 147.42L176.165 145.636H176.938L175.529 147.818L176.938 150H176.165L175.12 148.307L174.075 150H173.302L174.688 147.818L173.302 145.636H174.075ZM178.395 145.636L179.44 147.42L180.486 145.636H181.259L179.849 147.818L181.259 150H180.486L179.44 148.307L178.395 150H177.622L179.009 147.818L177.622 145.636H178.395ZM184.965 145.636L186.011 147.42L187.056 145.636H187.829L186.42 147.818L187.829 150H187.056L186.011 148.307L184.965 150H184.192L185.579 147.818L184.192 145.636H184.965ZM189.286 145.636L190.331 147.42L191.376 145.636H192.149L190.74 147.818L192.149 150H191.376L190.331 148.307L189.286 150H188.513L189.899 147.818L188.513 145.636H189.286ZM193.606 145.636L194.651 147.42L195.697 145.636H196.469L195.06 147.818L196.469 150H195.697L194.651 148.307L193.606 150H192.833L194.219 147.818L192.833 145.636H193.606ZM197.926 145.636L198.972 147.42L200.017 145.636H200.79L199.381 147.818L200.79 150H200.017L198.972 148.307L197.926 150H197.153L198.54 147.818L197.153 145.636H197.926ZM202.246 145.636L203.292 147.42L204.337 145.636H205.11L203.701 147.818L205.11 150H204.337L203.292 148.307L202.246 150H201.474L202.86 147.818L201.474 145.636H202.246Z" fill="#7C512E"/>
<path d="M113.05 157.182L114.223 159.165H114.268L115.447 157.182H116.837L115.061 160.091L116.876 163H115.462L114.268 161.014H114.223L113.03 163H111.621L113.442 160.091L111.655 157.182H113.05ZM118.768 157.182L119.942 159.165H119.987L121.166 157.182H122.555L120.78 160.091L122.595 163H121.18L119.987 161.014H119.942L118.749 163H117.339L119.161 160.091L117.374 157.182H118.768ZM124.487 157.182L125.661 159.165H125.706L126.885 157.182H128.274L126.499 160.091L128.314 163H126.899L125.706 161.014H125.661L124.467 163H123.058L124.879 160.091L123.092 157.182H124.487ZM130.206 157.182L131.379 159.165H131.425L132.604 157.182H133.993L132.217 160.091L134.033 163H132.618L131.425 161.014H131.379L130.186 163H128.777L130.598 160.091L128.811 157.182H130.206ZM135.925 157.182L137.098 159.165H137.143L138.322 157.182H139.712L137.936 160.091L139.751 163H138.337L137.143 161.014H137.098L135.905 163H134.496L136.317 160.091L134.53 157.182H135.925ZM141.643 157.182L142.817 159.165H142.862L144.041 157.182H145.43L143.655 160.091L145.47 163H144.055L142.862 161.014H142.817L141.624 163H140.214L142.036 160.091L140.249 157.182H141.643ZM147.362 157.182L148.536 159.165H148.581L149.76 157.182H151.149L149.374 160.091L151.189 163H149.774L148.581 161.014H148.536L147.342 163H145.933L147.754 160.091L145.967 157.182H147.362ZM153.081 157.182L154.254 159.165H154.3L155.479 157.182H156.868L155.092 160.091L156.908 163H155.493L154.3 161.014H154.254L153.061 163H151.652L153.473 160.091L151.686 157.182H153.081ZM158.8 157.182L159.973 159.165H160.018L161.197 157.182H162.587L160.811 160.091L162.626 163H161.212L160.018 161.014H159.973L158.78 163H157.371L159.192 160.091L157.405 157.182H158.8ZM164.518 157.182L165.692 159.165H165.737L166.916 157.182H168.305L166.53 160.091L168.345 163H166.93L165.737 161.014H165.692L164.499 163H163.089L164.911 160.091L163.124 157.182H164.518ZM170.237 157.182L171.411 159.165H171.456L172.635 157.182H174.024L172.249 160.091L174.064 163H172.649L171.456 161.014H171.411L170.217 163H168.808L170.629 160.091L168.842 157.182H170.237ZM175.956 157.182L177.129 159.165H177.175L178.354 157.182H179.743L177.967 160.091L179.783 163H178.368L177.175 161.014H177.129L175.936 163H174.527L176.348 160.091L174.561 157.182H175.956ZM181.675 157.182L182.848 159.165H182.893L184.072 157.182H185.462L183.686 160.091L185.501 163H184.087L182.893 161.014H182.848L181.655 163H180.246L182.067 160.091L180.28 157.182H181.675ZM187.393 157.182L188.567 159.165H188.612L189.791 157.182H191.18L189.405 160.091L191.22 163H189.805L188.612 161.014H188.567L187.374 163H185.964L187.786 160.091L185.999 157.182H187.393ZM193.112 157.182L194.286 159.165H194.331L195.51 157.182H196.899L195.124 160.091L196.939 163H195.524L194.331 161.014H194.286L193.092 163H191.683L193.504 160.091L191.717 157.182H193.112ZM198.831 157.182L200.004 159.165H200.05L201.229 157.182H202.618L200.842 160.091L202.658 163H201.243L200.05 161.014H200.004L198.811 163H197.402L199.223 160.091L197.436 157.182H198.831ZM204.55 157.182L205.723 159.165H205.768L206.947 157.182H208.337L206.561 160.091L208.376 163H206.962L205.768 161.014H205.723L204.53 163H203.121L204.942 160.091L203.155 157.182H204.55Z" fill="#7C512E"/>
<path d="M133.475 193.545L135.557 197.008H135.631L137.723 193.545H139.675L136.762 198.273L139.722 203H137.736L135.631 199.561H135.557L133.452 203H131.477L134.463 198.273L131.513 193.545H133.475ZM145.676 193.545L147.758 197.008H147.832L149.923 193.545H151.876L148.963 198.273L151.922 203H149.937L147.832 199.561H147.758L145.653 203H143.677L146.664 198.273L143.714 193.545H145.676ZM157.876 193.545L159.958 197.008H160.032L162.123 193.545H164.076L161.163 198.273L164.122 203H162.137L160.032 199.561H159.958L157.853 203H155.877L158.864 198.273L155.914 193.545H157.876ZM170.076 193.545L172.158 197.008H172.232L174.323 193.545H176.276L173.363 198.273L176.322 203H174.337L172.232 199.561H172.158L170.053 203H168.077L171.064 198.273L168.114 193.545H170.076ZM182.276 193.545L184.358 197.008H184.432L186.523 193.545H188.476L185.563 198.273L188.522 203H186.537L184.432 199.561H184.358L182.253 203H180.277L183.264 198.273L180.314 193.545H182.276Z" fill="#7C512E"/>
<path d="M143.201 183.159C142.398 183.159 141.682 183.011 141.053 182.716C140.428 182.42 139.932 182.013 139.565 181.494C139.197 180.975 139.006 180.381 138.991 179.71H141.377C141.404 180.161 141.593 180.527 141.945 180.807C142.298 181.087 142.716 181.227 143.201 181.227C143.587 181.227 143.928 181.142 144.224 180.972C144.523 180.797 144.756 180.557 144.923 180.25C145.093 179.939 145.178 179.583 145.178 179.182C145.178 178.773 145.091 178.413 144.917 178.102C144.746 177.792 144.51 177.549 144.207 177.375C143.904 177.201 143.557 177.112 143.167 177.108C142.826 177.108 142.495 177.178 142.173 177.318C141.854 177.458 141.606 177.65 141.428 177.892L139.241 177.5L139.792 171.364H146.906V173.375H141.82L141.519 176.29H141.587C141.792 176.002 142.101 175.763 142.513 175.574C142.926 175.384 143.388 175.29 143.9 175.29C144.601 175.29 145.226 175.455 145.775 175.784C146.324 176.114 146.758 176.566 147.076 177.142C147.394 177.714 147.551 178.373 147.548 179.119C147.551 179.903 147.37 180.6 147.002 181.21C146.638 181.816 146.129 182.294 145.474 182.642C144.822 182.987 144.065 183.159 143.201 183.159ZM153.826 183.256C152.849 183.252 152.008 183.011 151.303 182.534C150.603 182.057 150.063 181.366 149.684 180.46C149.309 179.555 149.123 178.466 149.127 177.193C149.127 175.924 149.315 174.843 149.69 173.949C150.068 173.055 150.608 172.375 151.309 171.909C152.013 171.439 152.853 171.205 153.826 171.205C154.799 171.205 155.637 171.439 156.337 171.909C157.042 172.379 157.584 173.061 157.962 173.955C158.341 174.845 158.529 175.924 158.525 177.193C158.525 178.47 158.335 179.561 157.957 180.466C157.582 181.371 157.044 182.062 156.343 182.54C155.642 183.017 154.803 183.256 153.826 183.256ZM153.826 181.216C154.493 181.216 155.025 180.881 155.423 180.21C155.82 179.54 156.017 178.534 156.013 177.193C156.013 176.311 155.923 175.576 155.741 174.989C155.563 174.402 155.309 173.96 154.979 173.665C154.654 173.369 154.269 173.222 153.826 173.222C153.163 173.222 152.633 173.553 152.235 174.216C151.837 174.879 151.637 175.871 151.633 177.193C151.633 178.087 151.722 178.833 151.9 179.432C152.082 180.027 152.337 180.473 152.667 180.773C152.996 181.068 153.383 181.216 153.826 181.216ZM164.005 183V174.273H166.312V175.812H166.414C166.596 175.301 166.899 174.898 167.323 174.602C167.747 174.307 168.255 174.159 168.846 174.159C169.444 174.159 169.954 174.309 170.374 174.608C170.795 174.903 171.075 175.305 171.215 175.812H171.306C171.484 175.312 171.806 174.913 172.272 174.614C172.742 174.311 173.297 174.159 173.937 174.159C174.751 174.159 175.412 174.419 175.92 174.938C176.431 175.453 176.687 176.184 176.687 177.131V183H174.272V177.608C174.272 177.123 174.143 176.759 173.886 176.517C173.628 176.275 173.306 176.153 172.92 176.153C172.48 176.153 172.138 176.294 171.891 176.574C171.645 176.85 171.522 177.216 171.522 177.67V183H169.175V177.557C169.175 177.129 169.052 176.788 168.806 176.534C168.564 176.28 168.244 176.153 167.846 176.153C167.577 176.153 167.335 176.222 167.119 176.358C166.906 176.491 166.738 176.678 166.613 176.92C166.488 177.159 166.425 177.439 166.425 177.761V183H164.005ZM181.019 171.364V183H178.599V171.364H181.019Z" fill="#7C512E"/>
<g style="mix-blend-mode:hue">
<rect width="320" height="320" fill="#00BF13"/>
</g>
</g>
<defs>
<clipPath id="clip0_2128_236">
<rect width="320" height="320" fill="white"/>
</clipPath>
</defs>
</svg>
