<svg width="320" height="320" viewBox="0 0 320 320" fill="none" xmlns="http://www.w3.org/2000/svg">
<rect width="320" height="320" fill="#EFE2C1"/>
<path d="M100.736 214.992L100.735 214.992C86.4119 199.483 78.5316 179.84 78.5 159.732C78.5001 139.801 86.2227 120.336 100.323 105.007L100.324 105.006C116.001 87.9033 137.094 78.5 159.699 78.5C182.303 78.5 203.46 87.9033 219.264 105.067L219.265 105.067C233.588 120.576 241.468 140.22 241.5 160.269C241.5 180.199 233.777 199.664 219.645 214.992L219.645 214.993C203.936 232.097 182.874 241.5 160.27 241.5C137.665 241.5 116.508 232.097 100.736 214.992Z" fill="#CEB57E" stroke="#86766A"/>
<path d="M109.168 207.301L109.167 207.301C96.8813 194.076 90.1233 177.327 90.0962 160.185C90.0963 143.193 96.719 126.597 108.814 113.526L108.814 113.525C122.261 98.9417 140.353 90.9238 159.741 90.9238C179.13 90.9238 197.277 98.9417 210.833 113.577L210.833 113.578C223.119 126.802 229.877 143.551 229.904 160.643C229.904 177.634 223.281 194.23 211.16 207.301L211.159 207.302C197.685 221.886 179.62 229.904 160.232 229.904C140.843 229.904 122.696 221.886 109.168 207.301Z" fill="#BD9C52" stroke="#86766A"/>
<path d="M112.178 203.812L112.178 203.812C100.619 191.453 94.2628 175.803 94.2373 159.786C94.2374 143.91 100.467 128.402 111.845 116.187L111.846 116.187C124.495 102.558 141.515 95.0654 159.756 95.0654C177.997 95.0654 195.069 102.558 207.822 116.235L207.822 116.235C219.381 128.594 225.737 144.245 225.763 160.214C225.762 176.09 219.533 191.597 208.13 203.812L208.129 203.813C195.453 217.441 178.459 224.934 160.218 224.934C141.977 224.934 124.905 217.441 112.178 203.812Z" fill="#DBD8DD" stroke="#86766A"/>
<path d="M160.202 220.464C143.197 220.464 127.284 213.485 115.427 200.8C104.66 189.299 98.7307 174.726 98.707 159.802C98.707 145.01 104.517 130.569 115.118 119.2C126.905 106.514 142.771 99.5352 159.775 99.5352C176.779 99.5352 192.692 106.514 204.573 119.244C215.34 130.744 221.269 145.317 221.293 160.197C221.293 174.99 215.483 189.431 204.858 200.8C193.048 213.485 177.206 220.464 160.202 220.464Z" fill="#EDEDED"/>
<path opacity="0.32" d="M158.911 207.212C145.929 207.212 133.779 201.81 124.725 191.992C116.504 183.091 111.978 171.812 111.959 160.261C111.959 148.812 116.396 137.635 124.49 128.836C133.489 119.018 145.603 113.616 158.585 113.616C171.568 113.616 183.718 119.018 192.79 128.87C201.011 137.771 205.537 149.05 205.555 160.567C205.555 172.016 201.119 183.193 193.007 191.992C183.99 201.81 171.894 207.212 158.911 207.212Z" fill="#DBD8DD"/>
<path d="M127.011 189.974L127.011 189.974C119.235 181.633 114.962 171.073 114.944 160.269C114.944 149.56 119.133 139.096 126.786 130.853L126.787 130.852C135.296 121.655 146.741 116.601 159.007 116.601C171.273 116.601 182.754 121.655 191.332 130.885L191.332 130.886C199.108 139.227 203.382 149.787 203.399 160.559C203.399 171.268 199.21 181.731 191.54 189.974L191.539 189.975C183.013 199.173 171.584 204.227 159.319 204.227C147.053 204.227 135.572 199.172 127.011 189.974Z" fill="#CEB57E" stroke="#86766A"/>
<path d="M140.487 178.237L140.487 178.237C135.768 173.204 133.177 166.836 133.167 160.326C133.167 153.873 135.705 147.565 140.35 142.591L140.351 142.591C145.514 137.043 152.458 133.995 159.899 133.995C167.341 133.995 174.306 137.043 179.512 142.611L179.512 142.612C184.232 147.645 186.823 154.012 186.833 160.503C186.833 166.956 184.294 173.264 179.639 178.237L179.638 178.238C174.464 183.786 167.531 186.833 160.09 186.833C152.648 186.833 145.683 183.786 140.487 178.237Z" fill="#5B4334" stroke="#86766A"/>
</svg>
