<svg width="320" height="320" viewBox="0 0 320 320" fill="none" xmlns="http://www.w3.org/2000/svg">
<g clip-path="url(#clip0_2128_261)">
<rect width="320" height="320" fill="#EFE2C1"/>
<path d="M116.233 203.639V204.139H116.733H201.6H202.1V203.639V131.166C202.1 121.903 193.587 114.5 183.225 114.5H135.109C124.746 114.5 116.233 121.903 116.233 131.166V203.639Z" fill="#E9E9E9" stroke="#ABABAB"/>
<path d="M172.017 153.561C172.017 158.32 170.67 162.607 168.517 165.691C166.363 168.777 163.435 170.621 160.259 170.621C157.082 170.621 154.155 168.777 152 165.691C149.848 162.607 148.5 158.32 148.5 153.561C148.5 148.801 149.848 144.514 152 141.43C154.155 138.344 157.082 136.5 160.259 136.5C163.435 136.5 166.363 138.344 168.517 141.43C170.67 144.514 172.017 148.801 172.017 153.561Z" fill="#D1D1D1" stroke="#ABABAB"/>
<path d="M103.661 268.278V268.778H104.161H216.337H216.338H216.838V268.278V224.971C216.838 212.218 206.5 201.881 193.748 201.881H126.751C113.998 201.881 103.661 212.219 103.661 224.971V268.278Z" fill="#F3EAE6" stroke="#ABABAB"/>
<path d="M143.495 258.43C143.495 237.386 160.555 220.326 181.599 220.326H215.697C213.461 210.204 204.448 202.626 193.654 202.626H126.657C114.181 202.626 104.067 212.739 104.067 225.216V268.524H143.497V258.43H143.495Z" fill="#EFE2DD"/>
<path d="M-6.59613 611.5H326.771C352.676 611.5 373.675 590.5 373.675 564.596V296.262C373.675 270.358 352.676 249.358 326.771 249.358H-6.59613C-32.5004 249.358 -53.5 270.358 -53.5 296.262V564.596C-53.5 590.5 -32.5004 611.5 -6.59613 611.5Z" fill="#FDF6EC" stroke="#ABABAB"/>
<path d="M186.197 569.164C120.392 569.164 67.0468 515.819 67.0468 450.014V254.427C67.0468 252.884 67.1263 251.362 67.2734 249.858H-6.59614C-32.2243 249.858 -53 270.634 -53 296.262V564.596C-53 590.224 -32.2243 611 -6.59614 611H326.771C350.858 611 370.654 592.648 372.95 569.164H186.197Z" fill="#FEF1DA"/>
<path d="M313.074 308.657H6.01237C-0.798491 308.657 -6.07356 314.615 -5.25011 321.376L13.8286 477.949C19.1494 521.61 56.2154 554.434 100.2 554.434H218.887C262.87 554.434 299.937 521.61 305.258 477.949L324.337 321.376C325.16 314.615 319.884 308.657 313.074 308.657Z" fill="#E9E9E9"/>
<path d="M13.8286 477.949C19.1494 521.61 56.2165 554.434 100.2 554.434H128.776C91.9787 534.156 67.0466 495 67.0466 450.016V308.657H6.01237C-0.798491 308.657 -6.07356 314.615 -5.25011 321.376L13.8286 477.949Z" fill="#D1D1D1"/>
<path d="M193.213 249.858H125.874V321.065C125.874 330.807 133.772 338.705 143.514 338.705H175.574C185.316 338.705 193.214 330.807 193.214 321.065L193.213 249.858Z" fill="#F3EAE6"/>
<g style="mix-blend-mode:hue">
<rect width="320" height="320" fill="#00BF13"/>
</g>
</g>
<defs>
<clipPath id="clip0_2128_261">
<rect width="320" height="320" fill="white"/>
</clipPath>
</defs>
</svg>
