<svg width="99" height="40" viewBox="0 0 99 40" fill="none" xmlns="http://www.w3.org/2000/svg">
<path d="M62.6745 21.2137C58.176 21.3624 55.381 22.1808 55.381 25.1682C55.381 27.1021 56.9103 29.1988 60.7927 29.1988C65.9978 29.1988 68.7763 26.3382 68.7763 21.6466L68.7766 21.1306C66.9517 21.1306 64.7013 21.1467 62.6745 21.2137ZM73.7378 27.4123C73.7378 28.8679 73.7796 30.3047 73.9055 31.5986H69.2908C69.1677 30.5332 69.1227 29.4746 69.1227 28.4478C66.6277 31.54 63.6602 32.4289 59.5433 32.4289C53.4373 32.4289 50.168 29.175 50.168 25.4114C50.168 19.9604 54.6146 18.0385 62.3341 17.8602C64.4451 17.8116 66.8162 17.8044 68.7766 17.8044L68.7763 17.2718C68.7763 13.6225 66.4553 12.1221 62.4336 12.1221C59.4478 12.1221 57.2474 13.3678 57.0206 15.5204H51.8081C52.3597 10.1533 57.9527 8.7959 62.8703 8.7959C68.7617 8.7959 73.7378 10.9092 73.7378 17.1916L73.7378 27.4123Z" fill="black"/>
<path d="M19.764 18.552C19.5715 13.873 16.2218 12.1221 12.6418 12.1221C8.78137 12.1221 5.69926 14.0917 5.15935 18.552H19.764ZM5.05241 21.8782C5.32014 26.4181 8.42531 29.1031 12.695 29.1031C15.6531 29.1031 18.2845 27.8879 19.1656 25.2443H24.2823C23.2871 30.6082 17.6341 32.4289 12.7683 32.4289C3.92104 32.4289 0 27.5164 0 20.8916C0 13.5989 4.0556 8.7959 12.849 8.7959C19.8482 8.7959 24.9765 12.4889 24.9765 20.5494V21.8782H5.05241Z" fill="black"/>
<path d="M37.7026 29.0079C42.3132 29.0079 45.4682 25.662 45.4682 20.6128C45.4682 15.5641 42.3132 12.2177 37.7026 12.2177C33.1178 12.2177 29.9366 15.5641 29.9366 20.6128C29.9366 25.662 33.1178 29.0079 37.7026 29.0079ZM24.9765 0H29.9366L29.9361 12.5641C32.3673 9.64363 35.7167 8.79568 39.0134 8.79568C44.5411 8.79568 50.6807 12.5564 50.6807 20.6763C50.6807 27.4757 45.7979 32.4287 38.9214 32.4287C35.322 32.4287 31.9339 31.1268 29.8444 28.5477C29.8444 29.5778 29.7874 30.6161 29.6756 31.5983H24.8076C24.8923 30.0104 24.9765 28.0332 24.9765 26.4333L24.9765 0Z" fill="black"/>
<path d="M98.9995 9.62744L83.66 39.9998H78.1055L82.5156 31.5661L70.9717 9.62744H76.7757L85.2704 26.7683L93.7411 9.62744H98.9995Z" fill="black"/>
</svg>
