<svg width="182" height="45" viewBox="0 0 182 45" fill="none" xmlns="http://www.w3.org/2000/svg">
<path fill-rule="evenodd" clip-rule="evenodd" d="M16.7594 0.620483C14.9942 0.904346 12.4765 1.61691 11.2533 2.17902C7.25739 4.01474 4.1392 7.46489 2.89018 11.4314C2.37698 13.0616 2.26705 16.9204 2.6829 18.7093C3.83349 23.6599 6.90376 26.3303 13.2443 27.8951C18.1367 29.1025 18.5517 29.2338 19.0949 29.7438C20.1087 30.6957 19.6471 32.493 18.2067 33.202C17.0796 33.7569 14.7151 33.8551 13.0138 33.418C10.4553 32.7604 8.20647 31.4627 5.37992 29.0122L4.30025 28.0761L4.09852 28.6143C3.9873 28.9102 3.16436 31.5006 2.26939 34.3711C0.394259 40.3853 0.281777 39.5936 3.23167 41.1446C7.03627 43.1449 11.1757 44.261 15.5036 44.4536C18.7881 44.5997 21.0376 44.321 23.7896 43.4262C26.4318 42.567 28.1793 41.4796 30.1826 39.4491C32.0704 37.5354 33.2069 35.5555 33.8394 33.0783C34.277 31.3641 34.324 27.4331 33.9272 25.7389C33.4341 23.6334 32.2524 21.4265 30.8987 20.0832C29.2502 18.4472 27.3614 17.5667 23.2034 16.4964C19.6488 15.5814 18.7728 15.1974 18.0747 14.2482C17.4503 13.3996 17.7634 12.2143 18.7683 11.6218C20.345 10.6918 24.1253 11.3502 27.8487 13.203L29.8996 14.2236L30.1136 13.6671C30.4589 12.7691 33.4826 3.66071 33.4826 3.51845C33.4826 3.11005 28.6527 1.64821 25.2089 1.01465C23.3711 0.676608 17.9758 0.42491 16.7594 0.620483ZM115.182 0.822747C105.938 2.2604 99.2262 8.25021 97.0269 17.026C96.4481 19.3355 96.5104 26.5316 97.1288 28.7987C98.1883 32.683 99.9172 35.7947 102.436 38.3489C106.588 42.5609 111.796 44.5144 118.882 44.5178C126.093 44.5213 131.916 42.4496 136.137 38.3793C138.669 35.9374 140.528 32.6926 141.524 28.9768C141.964 27.3353 142.016 26.6641 142.02 22.6088C142.023 18.3317 141.991 17.9574 141.446 15.9812C139.148 7.65247 132.319 1.8766 123.383 0.705534C121.166 0.414765 117.464 0.467867 115.182 0.822747ZM35.048 2.37157C35.118 2.69796 37.7057 11.9991 40.7982 23.0406L46.4213 43.116H53.9412H61.461L63.3395 35.7766C64.3727 31.7399 65.5122 26.9314 65.8719 25.0913C66.2317 23.2511 66.5827 21.454 66.6523 21.0978C66.7496 20.5994 66.8928 21.0468 67.2745 23.0406C67.5472 24.4653 68.742 29.5896 69.93 34.4273L72.0895 43.2238L79.5751 43.2209L87.061 43.2181L92.4934 22.8018C95.4811 11.5728 97.9566 2.24875 97.9946 2.08167C98.0529 1.82501 96.8976 1.77795 90.537 1.77795H83.0108L80.9253 11.7617C79.7784 17.2528 78.7835 22.112 78.7143 22.5601C78.5838 23.406 78.2155 23.9002 78.226 23.2153C78.2292 23.0005 77.0592 18.0878 75.6258 12.2983L73.0196 1.7719L66.526 1.82889L60.0323 1.88588L59.5456 3.82865C58.0887 9.6423 55.4109 21.0943 55.1895 22.4568C55.0485 23.3231 54.8667 23.9546 54.7847 23.86C54.7028 23.7655 54.4681 22.8625 54.2632 21.8534C53.9227 20.1784 51.0504 7.07288 50.2064 3.34295L49.8522 1.77795H42.3864H34.9207L35.048 2.37157ZM144.9 22.4863V43.2238H152.356H159.812V37.0718V30.9196H163.655C171.97 30.9196 175.131 30.0733 178.151 27.0398C180.557 24.6236 181.691 21.6832 181.899 17.3202C182.211 10.7847 179.906 5.9126 175.371 3.52169C172.307 1.90639 172.573 1.93229 157.948 1.83515L144.9 1.74837V22.4863ZM159.812 16.3488V20.3423L161.676 20.341C164.037 20.3395 164.873 20.1001 165.761 19.1723C167.04 17.8346 167.283 15.3096 166.269 13.897C165.48 12.7998 164.221 12.3553 161.898 12.3553H159.812V16.3488ZM117.467 14.4045C115.918 14.8444 115.194 15.2569 114.193 16.2709C112.567 17.9188 111.749 20.5268 111.936 23.4722C112.242 28.3017 115.337 31.1471 119.986 30.8744C122.923 30.7022 125.134 29.1137 126.19 26.4181C126.592 25.3937 126.668 24.7858 126.668 22.6088C126.668 20.3911 126.595 19.8324 126.163 18.7248C125.5 17.0277 123.702 15.1682 122.236 14.6629C120.701 14.134 118.786 14.0302 117.467 14.4045Z" fill="#3C1F1B" fill-opacity="0.78"/>
</svg>
