<svg width="231" height="90" viewBox="0 0 231 90" fill="none" xmlns="http://www.w3.org/2000/svg">
<path fill-rule="evenodd" clip-rule="evenodd" d="M1.02277 1.66665C1.69687 2.14682 4.5124 7.35678 7.28004 13.2443C10.0483 19.1319 12.4567 23.9489 12.6333 23.9489C12.8099 23.9489 13.4559 22.5089 14.0695 20.7497C15.5811 16.4142 15.8176 15.3606 14.7879 17.5506L13.9282 19.3788L9.95247 10.8673C6.26887 2.98103 6.05397 2.29855 7.02618 1.57464C7.91701 0.911664 7.45005 0.793451 3.93708 0.793451C0.172668 0.793451 -0.0913442 0.872666 1.02277 1.66665ZM18.6003 1.38879C19.0198 1.65264 19.5329 2.13463 19.7413 2.46063C19.964 2.80919 20.5423 2.63795 21.1475 2.04323C22.112 1.09629 22.0408 1.02988 20.0065 0.971387C18.726 0.934216 18.1499 1.10544 18.6003 1.38879ZM25.3579 1.45155C26.29 2.00424 26.4056 3.20588 26.4056 12.3712C26.4056 21.5365 26.29 22.738 25.3579 23.2907C24.5743 23.7556 25.2902 23.8989 28.2016 23.8599C30.3418 23.8313 31.6217 23.6819 31.0453 23.529C30.0982 23.2768 29.9976 22.2335 29.9976 12.6612C29.9976 3.21989 30.1113 2.00545 31.0453 1.45155C31.8336 0.98418 31.1308 0.830624 28.2016 0.830624C25.2724 0.830624 24.5696 0.98418 25.3579 1.45155ZM35.1329 2.06029C35.7945 2.80796 35.9842 5.20943 35.9842 12.8458C35.9842 21.5589 35.8656 22.74 34.9365 23.2907C34.1506 23.7569 34.8611 23.9044 37.7802 23.8824C39.9205 23.866 41.2675 23.696 40.7736 23.5046C39.2553 22.9165 38.9961 21.9867 38.9865 17.0936C38.9781 12.5259 39.0243 12.3712 40.3994 12.3712C41.4932 12.3712 42.5331 13.4186 44.902 16.9072C48.6975 22.4948 50.4397 23.9555 53.2767 23.9276C55.2965 23.9067 55.3541 23.8562 54.1327 23.1652C53.4138 22.7581 51.4772 20.4719 49.8302 18.0844C47.2997 14.4167 46.6154 13.7873 45.4145 14.0207C44.6062 14.1779 43.6831 13.9165 43.2737 13.4144C42.6672 12.6703 42.9893 12.4814 45.3241 12.2139C50.1313 11.6619 52.3248 8.8954 51.2885 4.69148C50.8749 3.01455 48.1432 1.39915 45.7426 1.41194L44.0662 1.42048L45.5509 2.18521C47.523 3.201 48.634 5.55005 48.2079 7.801C47.6738 10.6217 45.9383 11.7618 42.1798 11.7618H38.9292L39.1033 6.73891L39.277 1.71601L41.073 1.35832C42.0607 1.1615 40.9364 1.02257 38.5752 1.04938C34.7043 1.09325 34.3648 1.19318 35.1329 2.06029ZM57.2284 1.65081C57.1202 2.01703 56.8843 3.41368 56.7054 4.75425L56.3796 7.19165L57.2746 5.17287C58.22 3.03891 61.0534 1.4028 63.8032 1.4028H65.3188V12.036C65.3188 21.5207 65.2057 22.7369 64.2713 23.2907C63.4828 23.7581 64.1856 23.9117 67.1148 23.9117C70.0442 23.9117 70.747 23.7581 69.9585 23.2907C69.024 22.7369 68.9108 21.5207 68.9108 12.036V1.4028H70.3184C73.1716 1.4028 75.5165 2.71899 76.6786 4.97299L77.8226 7.19165L77.4795 4.75425C77.2905 3.41368 76.8959 2.04993 76.602 1.72393C75.8327 0.870834 57.4811 0.801371 57.2284 1.65081ZM80.9722 2.10173C82.1115 3.26132 82.1869 3.8073 81.8116 8.18733C81.2242 15.0352 81.8773 19.4329 83.807 21.6242C86.7397 24.9568 93.5148 25.1627 96.2046 22.0014L97.3474 20.6584L95.6203 21.9989C93.5645 23.5949 89.5769 23.7983 87.6258 22.4078C85.7369 21.0605 85.082 17.8675 85.0785 9.98187C85.0755 4.80969 85.2939 2.77506 85.9279 2.06029C86.6954 1.19562 86.4249 1.08472 83.2507 0.96285L79.7204 0.827574L80.9722 2.10173ZM96.5969 1.6697C97.4445 2.30038 97.6414 3.76466 97.797 10.5967L97.9838 18.7693L98.115 10.6101C98.2257 3.6897 98.4023 2.33451 99.277 1.68311C100.171 1.0177 99.9937 0.915319 97.9462 0.915319C95.921 0.915319 95.7281 1.02318 96.5969 1.6697ZM108.953 1.94696C110.43 3.09376 110.848 5.46352 109.987 7.801C109.721 8.52003 109.905 8.39573 110.434 7.49632C111.29 6.03937 111.349 6.02597 111.771 7.19165C112.012 7.86193 112.84 9.88376 113.61 11.685C114.379 13.4862 115.008 15.2004 115.008 15.4935C115.008 15.7872 113.239 16.0273 111.077 16.0273C107.417 16.0273 107.171 15.9426 107.525 14.8086C108.106 12.9458 107.423 13.3583 106.767 15.2656L106.192 16.9413L110.873 16.7433L115.553 16.5458L116.478 18.798C117.685 21.7387 117.648 23.1853 116.355 23.529C115.779 23.6819 117.328 23.8355 119.797 23.869C123.725 23.9233 124.105 23.8368 122.832 23.178C121.72 22.6034 120.402 20.0466 117.26 12.3712C114.996 6.84128 112.957 2.14683 112.729 1.93904C112.501 1.73125 111.237 1.39854 109.919 1.19928L107.525 0.837328L108.953 1.94696ZM126.658 1.76475C127.424 2.33511 127.58 4.15768 127.58 12.5606C127.58 21.5456 127.463 22.7387 126.533 23.2907C125.784 23.735 127.824 23.9172 133.693 23.9306L141.902 23.9489L142.515 21.6308C142.853 20.3555 143.29 18.3678 143.487 17.2131C143.807 15.3357 143.686 15.4478 142.343 18.2727C140.515 22.1202 138.296 23.482 134.284 23.2195L131.471 23.0349L131.307 12.6789C131.174 4.36975 131.307 2.19984 131.979 1.70017C132.583 1.25047 131.832 1.07802 129.275 1.07802C126.502 1.07802 125.935 1.2267 126.658 1.76475ZM155.362 1.52894C156.178 1.99388 156.316 3.60438 156.316 12.6612C156.316 22.2335 156.215 23.2768 155.268 23.529C154.692 23.6819 155.972 23.8313 158.112 23.8599C161.023 23.8989 161.739 23.7556 160.956 23.2907C160.025 22.7387 159.908 21.5456 159.908 12.5606C159.908 4.18694 160.066 2.33389 160.825 1.76902C161.539 1.23706 160.935 1.07558 158.074 1.03597C155.633 1.00246 154.726 1.16698 155.362 1.52894ZM170.727 1.83422C169.598 2.43443 167.846 3.97975 166.835 5.26792C165.114 7.45977 164.997 7.93384 164.997 12.6874C164.997 18.3355 165.747 19.9916 169.481 22.5778C171.756 24.1542 177.203 24.4504 179.55 23.1244C181.278 22.1493 183.252 19.1661 183.238 17.5506C183.233 16.7835 182.813 17.2661 182.105 18.8546C179.608 24.4528 171.7 23.4601 169.256 17.2417C166.935 11.3371 168.743 3.99864 172.964 2.19435C174.883 1.37416 175.489 1.36014 177.568 2.08771C179.669 2.8232 180.088 3.30093 180.984 5.97294L182.007 9.01971L182.033 5.36359C182.058 1.80802 182.014 1.70383 180.412 1.56611C179.508 1.48872 177.42 1.27118 175.772 1.0835C173.553 0.830011 172.249 1.02378 170.727 1.83422ZM193.134 1.65691C192.146 2.106 190.611 3.26072 189.724 4.2229C183.121 11.3785 186.61 22.2378 196.127 24.1591C197.557 24.4479 197.4 24.2797 195.35 23.3339C191.861 21.7229 190.2 18.068 190.228 12.0665C190.261 5.28743 192.792 1.44241 197.235 1.41621C205.372 1.36868 207.611 19.0174 200 23.2255C198.528 24.0402 198.529 24.0415 200.318 23.6435C204.585 22.6955 208.445 17.4093 208.354 12.6356C208.195 4.22655 200.189 -1.54829 193.134 1.65691ZM212.142 1.76902L213.788 2.6605V12.9555C213.788 22.2476 213.686 23.2773 212.74 23.529C212.165 23.6819 212.754 23.8391 214.052 23.8781C216.085 23.9391 216.269 23.8428 215.382 23.1828C214.475 22.5077 214.373 21.3427 214.52 13.3699L214.686 4.32343L221.571 14.0731L228.455 23.8227L228.64 20.7442C228.741 19.0514 228.593 17.5031 228.311 17.3039C228.03 17.1046 225.424 13.5783 222.519 9.46818C219.616 5.35811 217 1.84519 216.708 1.66178C216.416 1.47776 214.898 1.22609 213.336 1.10239C210.535 0.88059 210.519 0.889727 212.142 1.76902ZM227.643 1.92623C228.281 2.9664 228.43 2.98041 229.444 2.09563C230.889 0.83732 230.866 0.793451 228.75 0.793451C227.143 0.793451 227.024 0.916536 227.643 1.92623ZM18.3925 6.65239C17.8626 8.23548 17.5328 9.63638 17.6591 9.76555C17.786 9.89412 18.3231 8.70467 18.8535 7.12157C19.3832 5.53848 19.7132 4.13758 19.5867 4.00839C19.46 3.87982 18.9229 5.06929 18.3925 6.65239ZM108.52 10.874C107.517 13.1146 107.709 13.5929 108.793 11.5558C109.299 10.604 109.602 9.71194 109.465 9.57239C109.328 9.43346 108.903 10.019 108.52 10.874ZM103.206 22.5778L101.88 23.9489L104.104 23.9397C105.327 23.9342 106.022 23.7289 105.649 23.4827C105.275 23.2366 104.871 22.6235 104.751 22.1209C104.576 21.392 104.263 21.484 103.206 22.5778ZM83.8776 37.2893C83.8776 37.6604 84.563 37.9639 85.4011 37.9639C87.0816 37.9639 89.8642 40.4166 89.8642 41.8974C89.8642 43.049 89.9043 43.0483 87.2624 41.9248C82.825 40.0376 74.6592 41.0918 68.2919 44.3737C65.0764 46.0313 60.9864 49.9218 59.6076 52.6354C57.4962 56.7912 58.7455 62.2875 62.0963 63.5842C69.955 66.6248 86.0783 57.3962 89.6809 47.794C90.594 45.3609 90.7251 45.2463 91.1758 46.4876C92.3349 49.6751 90.0982 53.6639 81.6434 63.4916C76.1642 69.8599 74.1024 74.6287 76.4343 75.539C78.3088 76.271 82.8436 72.6752 96.4494 59.6691C100.565 55.7351 106.269 50.5441 109.126 48.1347C111.982 45.7247 114.077 43.6639 113.78 43.5547C113.483 43.4456 111.82 44.127 110.083 45.0685C107.914 46.2445 103.18 50.608 94.9528 59.0128C84.0026 70.1999 77.7028 75.7553 76.8959 74.9345C76.1039 74.1284 77.7974 71.7343 83.7422 65.2538C87.2737 61.4046 90.8334 56.9111 91.6518 55.2689C93.5854 51.3905 93.6447 47.496 91.8099 44.8776C91.0688 43.8205 90.4628 42.4184 90.4628 41.7614C90.4628 40.4269 87.727 37.3546 86.5386 37.3546C86.1166 37.3546 85.3455 37.1882 84.8246 36.9848C84.3038 36.7811 83.8776 36.9184 83.8776 37.2893ZM74.7855 42.5158C65.4883 45.122 59.3322 51.1667 59.3322 57.6894C59.3322 59.9957 59.6208 60.6483 61.2594 62.0516C63.0272 63.5666 63.5001 63.6767 66.9999 63.3903C75.1034 62.7287 86.3194 54.6103 88.9769 47.4832C90.0599 44.5797 90.0594 44.4907 88.9548 43.6687C86.1573 41.5871 79.9119 41.0784 74.7855 42.5158ZM130.599 57.4322C129.088 59.2693 127.79 60.3198 127.279 60.1207C126.817 59.9402 126.093 60.0108 125.669 60.2778C125.118 60.6239 125.291 60.8574 126.271 61.0931C127.518 61.3935 127.077 62.0272 121.476 67.9849C115.847 73.9712 113.212 75.8083 113.212 73.7469C113.212 73.3192 114.303 71.4917 115.636 69.6862C119.362 64.639 118.161 61.9078 113.601 65.0577C112.321 65.9418 111.405 66.2775 111.461 65.8418C111.913 62.299 109.625 62.856 104.922 67.4329C95.2952 76.8028 91.2059 77.706 98.1903 68.9203C100.927 65.4781 101.505 64.4195 100.741 64.246C99.6494 63.9968 95.4437 68.5127 93.7023 71.8049C92.8132 73.4849 92.7653 73.9828 93.4179 74.7829C93.849 75.3112 94.6912 75.7437 95.2898 75.7437C96.4225 75.7437 103.83 69.9434 106.888 66.662C108.537 64.893 110.219 64.1801 110.219 65.2496C110.219 65.5103 108.577 67.7722 106.57 70.2766C103.628 73.9475 103.126 74.8719 103.979 75.0467C104.657 75.1862 105.797 74.3112 107.153 72.6093C110.39 68.5499 114.556 64.7755 115.801 64.7755C116.745 64.7755 116.583 65.2246 114.753 67.6698C111.376 72.1827 110.614 73.8457 111.452 74.8737C112.489 76.146 113.91 75.9443 116.239 74.1948L118.301 72.6453L118.624 74.0426C119.117 76.1752 121.483 76.1337 124.459 73.94C126.616 72.3498 126.981 72.2394 126.981 73.1809C126.981 75.7882 129.502 76.4726 131.934 74.5251C132.771 73.8548 133.584 73.3064 133.741 73.3064C133.898 73.3064 134.167 73.8548 134.339 74.5251C134.754 76.141 136.512 76.0741 139.021 74.3466C142.341 72.0602 142.775 71.8288 142.312 72.5905C141.61 73.7469 143.076 75.7437 144.628 75.7437C145.42 75.7437 146.234 75.4696 146.438 75.1344C146.642 74.7993 147.078 74.5251 147.407 74.5251C148.442 74.5251 147.328 75.7341 144.788 77.3658C137.357 82.1407 132.679 89.7589 137.179 89.7589C138.76 89.7589 144.004 84.4746 147.035 79.8278C148.626 77.3897 150.064 75.9741 151.77 75.1686C153.118 74.5317 155.366 73.2887 156.765 72.4057L159.309 70.8001V72.5404C159.309 76.1747 162.329 76.7706 166.526 73.9651C169.505 71.9744 173.079 68.8014 173.079 68.147C173.079 67.9117 171.799 68.8715 170.235 70.2804C168.671 71.6892 166.244 73.4137 164.841 74.1125C162.554 75.2521 162.196 75.2873 161.377 74.4532C159.963 73.0145 160.818 71.8957 164.644 70.1743C168.811 68.2999 170.805 65.8565 169.365 64.3898C168.571 63.5824 168.207 63.5756 166.429 64.3343C165.312 64.8108 162.843 66.5536 160.943 68.2061C159.042 69.8592 155.809 72.1479 153.759 73.2918L150.03 75.3715L151.785 72.9676C152.75 71.646 154.569 69.2926 155.826 67.7375C158.48 64.4567 158.596 64.0222 156.765 64.2362C156.024 64.3227 154.819 64.1892 154.087 63.9395C152.147 63.2771 148.167 65.2818 144.642 68.6967C135.984 77.0857 133.074 77.2001 139.504 68.8989L143.047 64.3257L139.67 64.2948C135.245 64.2538 133.371 65.1216 128.735 69.356C119.344 77.9321 117.348 76.6743 125.036 67.0251C128.849 62.2387 129.975 61.1949 131.357 61.1607C132.336 61.137 132.882 60.8604 132.663 60.5002C132.456 60.1596 132.036 60.0384 131.73 60.2316C130.533 60.9841 131.262 59.2291 132.968 57.2518C134.977 54.9234 135.147 54.4165 133.922 54.4165C133.458 54.4165 131.964 55.7735 130.599 57.4322ZM102.509 60.1157C101.781 61.0084 102.194 61.7287 103.434 61.7287C104.326 61.7287 104.527 60.1579 103.701 59.6386C103.41 59.4551 102.873 59.6696 102.509 60.1157ZM165.609 66.0643C164.424 67.1234 163.172 68.526 162.827 69.1823C162.268 70.2462 162.351 70.3279 163.598 69.9422C165.612 69.3181 168.888 66.6876 168.888 65.6944C168.888 64.0363 167.732 64.1668 165.609 66.0643ZM132.545 68.7058C128.952 72.4539 127.735 75.1344 129.627 75.1344C131.714 75.1344 139.625 66.2702 138.531 65.1575C137.561 64.1686 136.017 65.0831 132.545 68.7058ZM149.392 66.8772C146.491 69.3541 143.479 73.5958 144.006 74.463C144.858 75.8669 148.903 73.1175 152.167 68.9142C153.461 67.2481 154.52 65.6353 154.52 65.33C154.52 64.0748 151.667 64.9357 149.392 66.8772ZM141.069 81.3169C137.288 84.8342 135.502 87.7066 136.479 88.7011C137.463 89.7036 139.823 87.7468 142.538 83.6788C146.864 77.1946 146.364 76.3904 141.069 81.3169Z" fill="#3C1F1B" fill-opacity="0.78"/>
</svg>
