<svg width="161" height="20" viewBox="0 0 161 20" fill="none" xmlns="http://www.w3.org/2000/svg">
<g clip-path="url(#clip0_5112_707)">
<path d="M26.8531 8.58901C26.3325 7.45739 26.0627 6.87026 25.6983 5.98958C25.3623 6.87026 25.2487 7.14015 24.6145 8.6553L23.3746 11.7045H28.2539L26.8531 8.58901ZM21.9737 15.4782L20.2321 19.3229H15.1445L24.004 0.653409H28.2965L37.1513 19.3229H32.1394L30.2464 15.4782H21.9737ZM49.8253 8.74526C50.8618 8.74526 51.2925 8.67898 51.7184 8.4517C52.0514 8.25936 52.3287 7.98358 52.5229 7.6515C52.7171 7.31942 52.8215 6.94247 52.8258 6.55777C52.8196 6.17345 52.7144 5.79723 52.5204 5.46546C52.3264 5.13369 52.0502 4.85759 51.7184 4.66383C51.3114 4.43655 50.8807 4.3892 49.8253 4.3892H43.6114V8.70739L49.8253 8.74526ZM43.6114 19.3229H38.9355V0.653409H51.1126C53.2802 0.653409 54.4539 0.92803 55.5613 1.60038C56.2646 2.04667 56.8429 2.66452 57.242 3.39587C57.641 4.12721 57.8476 4.94805 57.8424 5.78125C57.8424 7.99716 56.6924 9.64489 54.5911 10.5161C56.4416 11.1742 57.0095 12.2112 57.0521 15.1278C57.142 17.4574 57.2793 18.1345 57.8424 19.3324H52.6933C52.3526 18.2907 52.2863 17.8646 52.3336 16.0748C52.3336 13.3665 51.5859 12.5284 49.1912 12.5284H43.6114V19.3229ZM79.7073 19.3229V0.653409H96.7827V4.44129H84.3831V7.94508H95.3392V11.733H84.3831V15.5777H96.7827V19.3655L79.7073 19.3229ZM110.337 19.3229H105.661V4.42708H99.2011V0.639205H116.773V4.42708H110.337V19.3229ZM139.679 12.0218C138.345 17.3343 134.71 20 128.681 20C121.814 20 117.474 16.179 117.474 10.1705C117.474 4.01515 121.946 0 128.79 0C132.069 0 134.644 0.857008 136.674 2.68939C138.054 3.83826 139.016 5.41136 139.41 7.16383H134.369C133.423 4.7964 131.572 3.63636 128.771 3.63636C125.018 3.63636 122.424 6.28314 122.424 10.0805C122.424 13.7831 124.999 16.3636 128.681 16.3636C131.662 16.3636 133.447 15.0284 134.53 12.0218H139.679ZM156.329 0.653409V7.93087H146.712V0.653409H142.036V19.3229H146.712V11.7045H156.315V19.3229H160.986V0.653409H156.329ZM0 19.3229V0.653409H16.375V4.44129H4.67586V7.94508H15.4048V11.733H4.67586V19.3229H0ZM60.9139 19.3229V0.653409H77.2936V4.44129H65.5898V7.94508H76.3424V11.733H65.5898V19.3229H60.9139Z" fill="black"/>
</g>
<defs>
<clipPath id="clip0_5112_707">
<rect width="161" height="20" fill="white"/>
</clipPath>
</defs>
</svg>
