<svg width="175" height="40" viewBox="0 0 175 40" fill="none" xmlns="http://www.w3.org/2000/svg">
<g clip-path="url(#clip0_5113_801)">
<path d="M49.8258 38.636V33.9044H37.88V29.5104H49.2738V24.8447H37.88V20.2366H49.8258V15.5049H32.7803V38.636H49.8258Z" fill="black"/>
<path fill-rule="evenodd" clip-rule="evenodd" d="M74.4445 13.5109C76.1145 14.8594 76.9592 16.7376 76.9592 19.0944C77.0072 22.1551 75.2843 24.966 72.5426 26.2998L77.6232 34.621H71.8289L67.3498 27.2829H63.6909V34.621H58.5908V11.4927H68.1286C70.6921 11.4927 72.8185 12.1714 74.4445 13.5109ZM67.2928 16.2217H63.6909V22.5848H67.2928C70.4007 22.5848 71.9038 21.4919 71.9038 19.3548C71.9038 17.2186 70.439 16.2217 67.2928 16.2217Z" fill="black"/>
<path d="M101.853 31.053C100.32 33.1374 98.2814 34.1974 95.7889 34.1974C93.9722 34.2433 92.2141 33.5501 90.9133 32.2751C89.6042 30.9926 88.9401 29.224 88.9401 27.0189C88.9401 24.8137 89.6042 23.1138 90.9133 21.8615C92.1317 20.6225 93.7958 19.9295 95.5293 19.9392C97.887 19.9014 100.11 21.0413 101.463 22.982L101.553 23.111L104.991 19.5877L104.917 19.4971C102.597 16.6081 99.5167 15.1416 95.7588 15.1416C92.329 15.1416 89.4375 16.2401 87.1609 18.437C84.8844 20.634 83.7119 23.5285 83.7119 27.1232C83.7119 30.6685 84.8734 33.5658 87.1637 35.7353C89.4539 37.9048 92.4274 38.9978 95.9092 38.9978C99.7627 38.9978 102.911 37.5339 105.264 34.6449L105.335 34.5544L101.935 30.9322L101.853 31.053Z" fill="black"/>
<path fill-rule="evenodd" clip-rule="evenodd" d="M118.968 11.4927H123.756L123.775 11.5749L132.739 34.621H127.462L125.787 30.477H116.88L115.24 34.621H109.96L110.028 34.4427L118.968 11.4927ZM118.594 25.9076H124.133L121.362 18.5809L118.594 25.9076Z" fill="black"/>
<path fill-rule="evenodd" clip-rule="evenodd" d="M155.245 17.5231C156.912 18.8716 157.759 20.7498 157.759 23.1066C157.803 26.1657 156.077 28.9733 153.335 30.3039L158.415 38.6364H152.621L148.142 31.2951H144.483V38.6364H139.383V15.5049H148.929C151.493 15.5049 153.578 16.1746 155.245 17.5231ZM148.085 20.2363H144.483V26.5962H148.085C151.187 26.5962 152.693 25.5032 152.693 23.367C152.693 21.2308 151.231 20.2363 148.085 20.2363Z" fill="black"/>
<path d="M166.04 13.4971H171.107V34.6207H166.04V13.4971Z" fill="black"/>
<path d="M165.53 6.59619L167.873 1.04413L173.452 3.39845L171.109 8.95052L165.53 6.59619Z" fill="black"/>
<path d="M12.0205 24.0125L18.5413 11.4927H23.7339V34.621H18.6096V21.4146H18.5496L13.6111 30.3425H10.296L5.35476 21.4284H5.29189V34.61H0.162109V11.4927H5.35476L11.9139 24.0125H12.0205Z" fill="black"/>
</g>
<defs>
<clipPath id="clip0_5113_801">
<rect width="175" height="40" fill="white"/>
</clipPath>
</defs>
</svg>
