<svg width="213" height="19" viewBox="0 0 213 19" fill="none" xmlns="http://www.w3.org/2000/svg">
<g clip-path="url(#clip0_5297_477)">
<path d="M206.527 6.68788C206.753 6.45988 207.054 6.30788 207.355 6.30788C208.409 6.30788 208.936 8.13188 208.936 9.95588C208.635 10.0319 207.656 10.1839 205.398 10.2599C205.474 8.96788 205.775 7.52388 206.527 6.68788ZM212.624 14.6679C211.871 15.3519 210.893 15.8839 209.538 15.8839C206.904 15.8839 205.398 14.0599 205.398 10.6399H212.473C212.548 10.4879 212.548 10.2599 212.548 9.80388C212.548 7.59988 210.817 5.77588 207.581 5.77588C204.194 5.77588 201.334 8.58788 201.334 12.6159C201.334 15.9599 203.517 18.6959 206.979 18.6959C209.764 18.6959 211.57 17.0999 212.699 14.7439L212.624 14.6679Z" fill="black"/>
<path d="M202.764 6.38411V6.30811H198.097V6.38411L198.699 6.76411C199.302 7.06811 199.678 7.44811 199.678 7.75211C199.678 8.20811 199.076 10.1841 198.699 11.3241L197.721 14.0601H197.646L195.388 7.90411C195.237 7.60011 195.237 7.22011 195.237 7.14411C195.237 6.91611 195.388 6.84011 195.99 6.68811L196.667 6.53611V6.30811H188.99V6.53611L189.442 6.68811C190.119 6.84011 190.27 6.91611 190.646 7.82811L195.312 18.4681H196.441L200.581 8.81611C201.108 7.60011 201.409 7.37211 202.086 6.84011L202.764 6.38411Z" fill="black"/>
<path d="M187.561 17.404V8.05602C187.561 7.82802 187.561 6.68802 187.636 5.70002L187.561 5.62402L182.142 7.44802V7.52402L182.894 8.43602C183.12 8.74002 183.12 8.96802 183.12 9.42402V17.48C183.12 17.86 183.045 17.936 182.443 18.088L182.066 18.164V18.392H188.69V18.164L188.313 18.088C187.561 17.86 187.561 17.784 187.561 17.404Z" fill="black"/>
<path d="M185.302 4.7882C186.732 4.7882 187.786 3.7242 187.786 2.5082C187.786 1.2922 186.807 0.304199 185.528 0.304199C184.023 0.304199 182.894 1.4442 182.894 2.5842C182.894 3.8002 184.023 4.7882 185.302 4.7882Z" fill="black"/>
<path d="M179.658 16.1882C179.131 16.1882 178.604 16.1122 178.303 15.8082C178.002 15.5042 177.851 15.0482 177.851 14.3642V8.28421H181.238L181.539 6.30821H177.851L177.926 3.11621H177.851C176.346 4.48421 174.163 6.30821 171.905 7.98021V8.28421H173.411V15.0482C173.411 16.3402 173.636 17.1762 174.314 17.8602C174.916 18.4682 175.819 18.7722 177.099 18.7722C179.432 18.7722 180.937 17.4042 181.84 15.6562L181.765 15.5802C181.088 15.9602 180.335 16.1882 179.658 16.1882Z" fill="black"/>
<path d="M166.26 6.38405C166.486 6.38405 166.561 6.46005 166.712 6.76405L168.368 9.80405C168.744 10.4881 168.97 10.5641 169.346 10.5641C170.249 10.5641 171.378 9.80405 171.378 8.51205C171.378 6.91605 169.572 5.85205 167.088 5.85205C162.949 5.85205 160.39 9.04405 160.39 12.6161C160.39 15.8841 162.497 18.696 166.11 18.696C168.443 18.696 170.249 17.4801 171.303 15.2761L171.228 15.2001C170.55 15.8841 169.723 16.2641 168.594 16.2641C166.035 16.2641 164.379 14.0601 164.379 10.8681C164.303 7.98005 165.432 6.38405 166.26 6.38405Z" fill="black"/>
<path d="M153.014 6.68788C153.239 6.45988 153.54 6.30788 153.842 6.30788C154.895 6.30788 155.422 8.13188 155.422 9.95588C155.121 10.0319 154.143 10.1839 151.885 10.2599C151.96 8.96788 152.261 7.52388 153.014 6.68788ZM159.11 14.6679C158.357 15.3519 157.379 15.8839 156.024 15.8839C153.39 15.8839 151.885 14.0599 151.885 10.6399H158.96C159.035 10.4879 159.035 10.2599 159.035 9.80388C159.035 7.59988 157.304 5.77588 154.067 5.77588C150.68 5.77588 147.82 8.58788 147.82 12.6159C147.82 15.9599 150.003 18.6959 153.465 18.6959C156.25 18.6959 158.056 17.0999 159.185 14.7439L159.11 14.6679Z" fill="black"/>
<path d="M146.316 17.404V2.356C146.316 2.128 146.316 0.988 146.391 0H146.316L140.897 1.748V1.824L141.649 2.736C141.875 3.04 141.875 3.268 141.875 3.724V17.404C141.875 17.784 141.8 17.86 141.198 18.012L140.821 18.088V18.316H147.445V18.088L147.068 18.012C146.391 17.86 146.316 17.784 146.316 17.404Z" fill="black"/>
<path d="M138.94 17.404V2.356C138.94 2.128 138.94 0.988 139.015 0L133.596 1.748V1.824L134.348 2.736C134.574 3.04 134.574 3.268 134.574 3.724V17.404C134.574 17.784 134.499 17.86 133.897 18.012L133.521 18.088V18.316H140.144V18.088L139.768 18.012C139.09 17.86 138.94 17.784 138.94 17.404Z" fill="black"/>
<path d="M127.951 17.404C127.8 17.784 127.499 18.2401 126.897 18.2401C125.542 18.2401 124.789 15.1241 124.789 11.8561C124.789 10.2601 124.865 8.36005 125.467 7.22005C125.617 6.84005 125.918 6.38405 126.521 6.38405C127.875 6.38405 128.628 9.50005 128.628 12.7681C128.628 14.3641 128.477 16.264 127.951 17.404ZM126.822 5.85205C124.789 5.85205 123.209 6.53605 121.929 7.82805C120.951 8.81605 120.123 10.4881 120.123 12.3881C120.123 15.656 122.456 18.696 126.521 18.696C128.553 18.696 130.133 18.012 131.413 16.72C132.391 15.732 133.219 14.0601 133.219 12.1601C133.219 8.96805 130.886 5.85205 126.822 5.85205Z" fill="black"/>
<path d="M115.005 16.7959C114.026 17.7839 113.198 18.2399 112.295 18.2399C109.585 18.2399 107.854 14.2879 107.854 9.27191C107.854 3.57191 109.811 1.06391 112.069 1.06391C113.048 1.06391 113.725 1.36791 114.703 2.35591C115.757 3.41991 116.736 5.01591 118.015 7.29591H118.241C118.166 5.54791 117.94 2.43191 117.789 0.68391H117.639L117.413 0.98791C117.262 1.21591 117.187 1.29191 116.961 1.29191C116.51 1.29191 114.101 0.60791 112.295 0.60791C106.123 0.60791 102.736 4.71191 102.736 9.87991C102.736 15.5799 106.575 18.7719 112.069 18.7719C113.499 18.7719 115.832 18.3159 118.09 17.2519C118.241 16.9479 118.768 13.2239 118.843 11.3999L118.693 11.3239C117.262 13.9079 116.058 15.7319 115.005 16.7959Z" fill="black"/>
<path d="M92.0488 6.68788C92.2746 6.45988 92.5756 6.30788 92.8767 6.30788C93.9304 6.30788 94.4572 8.13188 94.4572 9.95588C94.1562 10.0319 93.1777 10.1839 90.9198 10.2599C90.995 8.96788 91.2961 7.52388 92.0488 6.68788ZM98.1452 14.6679C97.3926 15.3519 96.4141 15.8839 95.0594 15.8839C92.4251 15.8839 90.9198 14.0599 90.9198 10.6399H97.9947C98.07 10.4879 98.07 10.2599 98.07 9.80388C98.07 7.59988 96.3389 5.77588 93.1025 5.77588C89.7155 5.77588 86.8555 8.58788 86.8555 12.6159C86.8555 15.9599 89.0382 18.6959 92.5004 18.6959C95.2852 18.6959 97.0915 17.0999 98.2205 14.7439L98.1452 14.6679Z" fill="black"/>
<path d="M82.9419 9.50017C83.4687 9.50017 84.5225 9.80417 85.6514 10.4122C86.3288 9.65217 86.7804 8.66417 86.7804 7.52417C86.7804 6.53617 86.2535 5.70017 85.1246 5.70017C83.7698 5.70017 82.3398 7.29617 81.6624 9.80417L81.5119 9.72817L81.5871 7.60017C81.5871 7.14417 81.6624 6.61217 81.7376 5.54817L81.6624 5.47217L76.168 7.29617V7.37217L76.9207 8.28417C77.1465 8.51217 77.1465 8.81617 77.1465 9.27217V17.3282C77.1465 17.7082 77.0712 17.7842 76.4691 17.9362L76.0928 18.0122V18.2402H83.243V18.0122L82.415 17.9362C81.7376 17.8602 81.6624 17.7842 81.6624 17.3282V10.6402C81.8882 10.0322 82.2645 9.50017 82.9419 9.50017Z" fill="black"/>
<path d="M74.5119 17.4042V8.0562C74.5119 7.8282 74.5119 6.6882 74.5872 5.7002H74.5119L69.0928 7.4482V7.5242L69.8455 8.4362C70.0713 8.7402 70.0713 8.9682 70.0713 9.4242V17.4802C70.0713 17.8602 69.996 17.9362 69.3939 18.0882L69.0176 18.1642V18.3922H75.6409V18.1642L75.2646 18.0882C74.5872 17.8602 74.5119 17.7842 74.5119 17.4042Z" fill="black"/>
<path d="M72.2542 4.7882C73.6842 4.7882 74.7379 3.7242 74.7379 2.5082C74.7379 1.2922 73.7595 0.304199 72.48 0.304199C70.9747 0.304199 69.8457 1.4442 69.8457 2.5842C69.8457 3.8002 70.9747 4.7882 72.2542 4.7882Z" fill="black"/>
<path d="M62.6962 16.5679C62.4704 16.7199 62.3199 16.7959 61.9436 16.7959C61.2662 16.7959 60.6641 16.1119 60.6641 14.8959C60.6641 14.2119 60.8146 13.7559 61.1909 13.3759C61.5672 12.9959 61.8683 12.8439 62.6209 12.3879V16.5679H62.6962ZM68.8679 16.7199C68.4916 16.9479 68.2658 17.0239 68.04 17.0239C67.8142 17.0239 67.5884 16.9479 67.3626 16.7959C67.1368 16.5679 66.9863 16.2639 66.9863 15.4279V9.49988C66.9863 8.28388 66.8358 7.37188 66.1584 6.68788C65.5563 6.07988 64.5778 5.77588 63.2983 5.77588C61.1909 5.77588 58.7824 7.37188 57.5782 8.58788C56.9008 9.27188 56.5997 9.80388 56.5997 10.2599C56.5997 10.8679 57.0513 11.2479 58.105 11.2479C58.933 11.2479 60.1372 10.9439 60.6641 10.6399L59.9114 7.97988C60.2125 7.67588 60.5135 7.59988 60.9651 7.59988C61.4167 7.59988 61.8683 7.67588 62.0941 7.97988C62.4704 8.28388 62.6209 9.11988 62.6209 10.7919V12.0839L60.5135 12.7679C58.3308 13.5279 57.5782 13.8319 57.0513 14.4399C56.675 14.8199 56.4492 15.3519 56.4492 15.8839C56.4492 17.2519 57.4277 18.5439 59.1588 18.5439C60.363 18.5439 61.1156 18.0879 62.2446 17.0999L62.6209 16.7959H62.6962C63.1478 17.9359 64.1263 18.6199 65.481 18.6199C67.2121 18.6199 68.4916 17.4039 68.9432 16.7199H68.8679Z" fill="black"/>
<path d="M54.718 17.404V8.05602C54.718 7.82802 54.718 6.68802 54.7932 5.70002L54.718 5.62402L49.2989 7.37202V7.44802L50.0515 8.36002C50.2773 8.66402 50.2773 8.89202 50.2773 9.34802V17.404C50.2773 17.784 50.2021 17.86 49.6 18.012L49.2236 18.088V18.316H55.9222V18.088L55.5459 18.012C54.718 17.86 54.718 17.784 54.718 17.404Z" fill="black"/>
<path d="M52.4593 4.7882C53.8893 4.7882 54.943 3.7242 54.943 2.5082C54.943 1.2922 53.9646 0.304199 52.6851 0.304199C51.1798 0.304199 50.0508 1.4442 50.0508 2.5842C50.0508 3.8002 51.1798 4.7882 52.4593 4.7882Z" fill="black"/>
<path d="M46.8147 16.188C46.2879 16.188 45.761 16.112 45.46 15.808C45.1589 15.504 45.0084 15.048 45.0084 14.364V8.28404H48.3953L48.6964 6.30804H45.0084L45.1589 3.04004H45.0836C43.5783 4.40804 41.3956 6.23204 39.1377 7.90404V8.20804H40.643V14.972C40.643 16.264 40.8688 17.1 41.5462 17.784C42.1483 18.392 43.0515 18.696 44.331 18.696C46.6642 18.696 48.1695 17.328 49.0727 15.58L48.9974 15.504C48.2448 15.96 47.4921 16.188 46.8147 16.188Z" fill="black"/>
<path d="M34.471 10.0321C33.2667 9.34805 32.5141 8.74005 32.5141 7.75205C32.5141 7.06805 32.9657 6.46005 33.8689 6.46005C34.772 6.46005 35.5247 6.91605 37.8579 10.1841L38.0084 10.1081C38.0084 9.34805 37.9332 7.14405 37.8579 6.61205C37.03 6.30805 35.6752 5.85205 34.0194 5.85205C31.1593 5.85205 29.2024 7.52405 29.2024 9.65205C29.2024 12.0081 31.0088 12.9201 32.8904 14.0601C34.471 15.0481 35.2989 15.732 35.2989 16.72C35.2989 17.48 34.8473 18.088 33.9441 18.088C32.7399 18.088 31.4604 16.7961 29.0519 13.6041L28.9014 13.6801C28.9014 14.8961 29.1272 16.8721 29.2777 17.8601C30.4067 18.3161 31.9872 18.6201 33.4173 18.6201C36.5031 18.6201 38.6106 17.1001 38.6106 14.5161C38.6106 12.3881 36.7289 11.2481 34.471 10.0321Z" fill="black"/>
<path d="M21.5253 6.68788C21.7511 6.45988 22.0522 6.30788 22.3532 6.30788C23.4069 6.30788 23.9338 8.13188 23.9338 9.95588C23.6327 10.0319 22.6543 10.1839 20.3963 10.2599C20.4716 8.96788 20.7727 7.52388 21.5253 6.68788ZM27.6218 14.6679C26.8691 15.3519 25.8907 15.8839 24.5359 15.8839C21.9016 15.8839 20.3963 14.0599 20.3963 10.6399H27.4713C27.5465 10.4879 27.5465 10.2599 27.5465 9.80388C27.5465 7.59988 25.8154 5.77588 22.579 5.77588C19.1921 5.77588 16.332 8.58788 16.332 12.6159C16.332 15.9599 18.5147 18.6959 21.9769 18.6959C24.7617 18.6959 26.5681 17.0999 27.6971 14.7439L27.6218 14.6679Z" fill="black"/>
<path d="M18.3647 1.51979L19.2678 1.13979V0.987793H12.494V1.13979L13.5477 1.59579C14.6014 2.05179 14.8272 2.20379 14.8272 2.65979C14.8272 3.41979 14.0746 5.92779 13.924 6.45979L11.6661 13.5278L8.05336 3.57179C7.82756 2.88779 7.7523 2.43179 7.7523 2.20379C7.7523 1.89979 7.90283 1.59579 8.80601 1.44379L9.70919 1.29179V0.987793H0V1.21579L0.30106 1.29179C1.80636 1.59579 2.03216 1.89979 3.61272 5.85179L8.80601 18.6958H10.1608L15.3541 5.85179C16.7088 2.73579 17.0099 2.20379 18.3647 1.51979Z" fill="black"/>
</g>
<defs>
<clipPath id="clip0_5297_477">
<rect width="213" height="19" fill="white"/>
</clipPath>
</defs>
</svg>
