<svg width="102" height="19" viewBox="0 0 102 19" fill="none" xmlns="http://www.w3.org/2000/svg">
<path d="M14.0502 18.4502L13.9252 16.1752C12.7502 18.0252 10.6252 18.7752 8.2002 18.7752C2.9752 18.7752 0.000195365 14.8752 0.000195365 9.35019C0.000195365 3.72519 3.3252 0.00019443 8.4252 0.00019443C12.1752 0.00019443 15.1752 2.10019 15.9252 5.6002H13.4502C12.8502 3.57519 11.2002 2.1502 8.3002 2.1502C5.1002 2.1502 2.6002 4.65019 2.6002 9.35019C2.6002 13.9252 4.9502 16.6252 8.3002 16.6252C10.7252 16.6252 13.6502 15.6252 13.6502 11.8752V11.4002H8.8502V9.2002H16.0502V18.4502H14.0502ZM19.1217 18.4502V0.325195H24.8717C29.2967 0.325195 32.4217 1.20019 32.4217 5.55019C32.4217 8.17519 31.2717 9.5502 28.8217 10.3752L33.0217 18.4502H30.1717L26.2467 10.8252H21.6717V18.4502H19.1217ZM21.6717 8.67519H25.0717C27.7217 8.67519 29.7967 8.4002 29.7967 5.6002C29.7967 2.80019 27.7217 2.47519 25.0717 2.47519H21.6717V8.67519ZM33.3906 18.4502L40.1156 0.325195H43.0656L49.8906 18.4502H47.1406L45.7406 14.5502H37.3656L35.9906 18.4502H33.3906ZM38.1656 12.3502H44.9406L41.5156 2.90019L38.1656 12.3502ZM51.484 18.4502V0.325195H54.034V18.4502H51.484ZM57.5943 18.4502V0.325195H60.1443V16.2502H69.7193V18.4502H57.5943ZM71.4439 18.4502V0.325195H83.7439V2.52519H73.9939V8.02519H83.1689V10.2252H73.9939V16.2502H83.7439V18.4502H71.4439ZM86.4898 18.4502V0.325195H91.4398C97.1898 0.325195 101.315 2.47519 101.315 9.3752C101.315 16.3002 97.1898 18.4502 91.4398 18.4502H86.4898ZM89.0398 16.3002H91.3648C95.1148 16.3002 98.7148 15.5502 98.7148 9.3752C98.7148 3.22519 95.1148 2.47519 91.3648 2.47519H89.0398V16.3002Z" fill="black"/>
</svg>
