<svg width="152" height="57" viewBox="0 0 152 57" fill="none" xmlns="http://www.w3.org/2000/svg">
<path fill-rule="evenodd" clip-rule="evenodd" d="M0.927002 19.0886V37.6594H3.26205H5.5971V25.5133V13.3665L16.6886 25.4542L27.7801 37.5411L31.7808 37.6003L35.7815 37.6594L37.5679 32.7324L39.3541 27.8055H46.9299H54.5064L56.1899 32.7324L57.8735 37.6594H62.0913H66.3084V29.3215V20.9836H71.6145H76.9205L78.3184 26.7564C81.0902 38.2073 80.7928 37.6594 84.2472 37.6594C85.9393 37.6594 87.3239 37.3819 87.3239 37.0439C87.3239 36.4488 83.3972 25.0153 82.2646 22.3101C81.7836 21.1616 82.1852 20.9836 85.2582 20.9836C92.0914 20.9836 94.7518 18.1775 94.2101 11.5405L93.929 8.09772H99.5776H105.226V22.8786V37.6594H107.561H109.896V22.8786V8.09772H115.714H121.532L121.084 10.2792C120.311 14.0449 123.107 18.6778 129.4 24.0565C132.544 26.7435 137.147 30.8496 139.63 33.1796C143.794 37.0885 144.143 37.6767 144.143 40.7717C144.143 42.6166 143.491 45.3142 142.694 46.7674C140.982 49.8849 136.678 52.6736 135.439 51.4676C134.872 50.9151 135.302 50.333 136.856 49.5499C140.238 47.8474 141.897 45.6728 142.356 42.3444C143.012 37.5767 140.151 33.8474 134.662 32.314C132.134 31.6083 131.699 32.6566 134.017 33.8649C136.422 35.1186 138.13 38.9683 137.57 41.8745C137.163 43.9877 132.829 48.8852 132.05 48.1127C131.537 47.6042 132.71 43.7233 133.377 43.7233C134.126 43.7233 136.36 39.1396 136.36 37.6024C136.36 37.1279 135.853 36.9287 135.232 37.1606C134.544 37.4175 133.911 36.9893 133.609 36.0615C132.921 33.9513 128.493 32.0191 125.834 32.6688C123.035 33.3531 119.236 37.1106 119.236 39.1957C119.236 40.7617 119.38 40.7254 121.988 38.4962C125.337 35.6325 127.79 35.5188 130.673 38.0936L132.857 40.0447L130.717 39.5953C129.54 39.3488 128.576 39.4391 128.576 39.7969C128.576 40.1553 129.54 40.8884 130.717 41.4273C131.951 41.9912 132.446 42.5514 131.884 42.7485C131.35 42.9372 130.912 43.5906 130.912 44.2C130.912 44.8094 130.009 46.1874 128.906 47.2616C126.606 49.5014 126.982 50.1729 131.398 51.7056L134.414 52.7525L131.846 52.7858C127.023 52.8487 123.984 50.5004 122.837 45.8275L122.33 43.7634L125.065 45.3339C128.281 47.1828 128.524 46.6764 125.885 43.6224C124.833 42.4044 124.169 40.9058 124.412 40.2918C124.668 39.6399 124.403 39.1754 123.773 39.1754C122.047 39.1754 119.324 41.3584 118.045 43.7694C116.881 45.96 117.374 46.7492 118.949 45.2157C119.501 44.6784 119.643 45.1559 119.404 46.7423C117.743 57.7635 134.011 60.1056 145.283 50.467C148.896 47.3775 150.37 44.1872 150.37 39.4558C150.37 34.4856 147.782 30.5744 140.732 24.8963C133.664 19.2023 131.69 16.6531 131.69 13.2187C131.69 9.61446 133.793 8.85571 143.791 8.85571H151.927V4.68677V0.517822H142.262C131.938 0.517822 127.441 1.62373 123.955 5.01877L122.35 6.58174V3.54978V0.517822H107.561H92.7724V2.53029C92.7724 4.37827 92.6611 4.44952 91.4102 3.39591C88.7265 1.13483 84.7266 0.517822 72.7656 0.517822H60.7743L61.0118 16.8153C61.1426 25.7793 61.2017 33.1129 61.1433 33.1121C61.085 33.1114 58.458 25.7801 55.3057 16.8199L49.5739 0.528434L47.2388 0.539804C44.914 0.551174 44.8782 0.618635 38.9167 16.2628L32.9289 31.9744L32.8845 16.2462L32.8393 0.517822H30.5238H28.2082L27.9942 12.8048L27.7801 25.0911L16.5174 12.8048C7.0752 2.50376 4.90515 0.517822 3.09081 0.517822H0.927002V19.0886ZM44.7739 14.0957L42.371 20.2256H46.9984C52.2554 20.2256 52.0966 20.8963 48.8602 12.3902L47.1766 7.96659L44.7739 14.0957ZM66.3084 13.0095V18.0972L77.2342 17.8349C89.1904 17.5475 89.6247 17.3762 89.6474 12.9276C89.6667 9.06189 88.2526 8.54645 76.7205 8.21824L66.3084 7.92187V13.0095ZM15.7157 39.9333C15.7157 40.3502 16.1539 40.6913 16.6886 40.6905C17.2894 40.6905 17.6615 41.7495 17.6615 43.4625C17.6615 45.0028 18.0943 46.3784 18.6344 46.5582C19.3085 46.7817 19.6074 45.9297 19.6074 43.7861C19.6074 39.6817 21.7378 39.4149 22.0903 43.4753C22.3932 46.9636 24.2775 47.8847 24.2775 44.5441C24.2775 43.2594 24.6277 42.2073 25.0558 42.2073C25.4839 42.2073 25.8342 43.2306 25.8342 44.4813C25.8342 45.732 26.1844 46.7553 26.6125 46.7553C27.0406 46.7553 27.3909 45.5295 27.3909 44.031C27.3909 41.945 27.0266 41.2143 25.8342 40.9111C24.978 40.6928 24.2775 40.213 24.2775 39.8446C24.2775 39.477 22.3512 39.1754 19.9966 39.1754C17.6421 39.1754 15.7157 39.5164 15.7157 39.9333ZM38.7003 42.6325C37.2846 46.2429 37.6971 48.0885 39.4102 45.8063C40.6135 44.2039 41.8628 44.0999 42.4357 45.5546C42.8 46.4778 45.3521 46.7059 48.6009 46.1049C49.8939 45.866 49.0726 43.6263 47.4334 42.9198L45.6821 42.1649L47.4334 42.4938C48.6103 42.7152 49.1847 42.4566 49.1847 41.707C49.1847 40.1607 44.9925 40.6829 44.6843 42.2671C44.5566 42.9259 45.254 43.824 46.2348 44.263C47.9954 45.052 47.9916 45.0604 45.9374 44.961C44.2609 44.88 43.6709 44.3091 42.8941 42.0178C42.3641 40.4548 41.5086 39.1754 40.9933 39.1754C40.4781 39.1754 39.446 40.7307 38.7003 42.6325ZM66.3084 40.2411C66.3084 40.9354 65.7636 41.1689 64.7479 40.9096C62.851 40.4267 60.86 41.892 60.86 43.771C60.86 45.5719 61.9863 46.1889 65.6453 46.3899L68.6435 46.5543V42.8652C68.6435 40.091 68.3539 39.1754 67.476 39.1754C66.8339 39.1754 66.3084 39.6551 66.3084 40.2411ZM75.4151 40.1902C74.6875 42.0382 76.0418 46.3566 77.4311 46.6165C78.2312 46.7665 78.762 46.3914 78.762 45.6735C78.762 45.0179 78.4118 44.4813 77.9837 44.4813C76.8637 44.4813 77.0225 42.3929 78.1713 42.02C78.8741 41.7919 78.7831 41.3614 77.8382 40.4412C76.2666 38.9107 75.9328 38.8759 75.4151 40.1902ZM79.6923 42.7167C80.0308 47.774 81.8754 48.0369 81.8754 43.0281C81.8754 40.0486 81.6015 39.1754 80.6652 39.1754C79.7094 39.1754 79.5046 39.9197 79.6923 42.7167ZM103.79 40.1705C102.942 41.165 103.422 46.7559 104.355 46.7544C104.62 46.7537 104.717 48.6297 104.57 50.9234C104.352 54.3412 104.527 55.0931 105.543 55.0931C106.51 55.0931 106.783 54.2685 106.783 51.3478C106.783 49.2876 106.432 47.392 106.004 47.1343C104.894 46.4664 105.04 43.1654 106.199 42.7067C106.931 42.418 106.883 42.1239 106.004 41.5182C105.213 40.9733 105.151 40.711 105.81 40.7026C106.345 40.6966 106.783 40.3502 106.783 39.9333C106.783 38.8418 104.788 39.0002 103.79 40.1705ZM29.1033 41.6009C26.9325 43.7149 29.0403 47.3101 31.9264 46.4179C32.918 46.111 33.4247 45.259 33.4278 43.8916C33.4356 40.949 31.0631 39.6923 29.1033 41.6009ZM50.5134 41.2165C49.879 42.252 50.1172 46.001 50.8457 46.4391C51.224 46.6665 52.2249 46.6392 53.0702 46.3784C55.3127 45.685 54.8878 41.165 52.5487 40.8375C51.6358 40.7095 50.7196 40.88 50.5134 41.2165ZM55.9635 41.1643C54.9516 42.1497 55.3953 45.829 56.579 46.2717C58.7989 47.1009 60.1781 45.9336 59.9291 43.4368C59.7578 41.7274 59.2512 41.0088 58.1039 40.849C57.2297 40.7269 56.267 40.8694 55.9635 41.1643ZM69.8748 41.3484C69.6149 41.7577 70.0205 42.2489 70.7746 42.4408C72.0473 42.7644 72.0442 42.7955 70.7295 42.8774C69.7254 42.9395 69.386 43.461 69.5619 44.6708C69.7496 45.9525 70.3527 46.3951 71.9919 46.4536C74.0321 46.5255 74.1573 46.355 73.9378 43.8006C73.7541 41.6707 73.3338 41.0188 72.0246 40.8375C71.1024 40.7095 70.1348 40.9391 69.8748 41.3484ZM83.6267 41.1931C82.2506 41.7343 82.418 44.8633 83.8867 46.0503C86.3129 48.0112 89.3538 44.2099 87.2928 41.7919C86.3369 40.6701 85.3625 40.5109 83.6267 41.1931ZM88.8806 43.6733C88.8806 45.3681 89.2309 46.7553 89.659 46.7553C90.087 46.7553 90.4373 45.923 90.4373 44.9049C90.4373 43.887 90.7876 42.844 91.2156 42.5863C91.6695 42.3126 91.994 43.0836 91.994 44.4365C91.994 45.7114 92.3654 46.7553 92.8191 46.7553C93.297 46.7553 93.5429 45.5583 93.4028 43.9128C93.1935 41.4448 92.8798 41.0385 91.0211 40.8308C88.9967 40.6034 88.8806 40.7572 88.8806 43.6733ZM97.887 41.8821C96.3995 43.3313 96.3739 43.8043 97.6884 45.5561C99.2149 47.5882 101.672 46.7992 101.98 44.1781C102.352 41.0119 100.087 39.7408 97.887 41.8821ZM56.9682 43.3443C56.9682 43.9696 57.3185 44.4813 57.7466 44.4813C58.1747 44.4813 58.5249 43.9696 58.5249 43.3443C58.5249 42.7189 58.1747 42.2073 57.7466 42.2073C57.3185 42.2073 56.9682 42.7189 56.9682 43.3443ZM63.195 43.3443C63.195 43.9756 63.8871 44.4813 64.7517 44.4813C66.6073 44.4813 66.8168 43.317 65.0771 42.6673C63.3375 42.017 63.195 42.0685 63.195 43.3443ZM84.5576 43.0312C84.2705 43.4844 84.4246 44.2349 84.901 44.6987C85.5368 45.3181 85.7672 45.099 85.7672 43.8749C85.7672 42.0443 85.3633 41.7623 84.5576 43.0312ZM98.9992 44.1023C98.9992 44.7275 99.3494 45.2393 99.7775 45.2393C100.206 45.2393 100.556 44.7275 100.556 44.1023C100.556 43.4769 100.206 42.9653 99.7775 42.9653C99.3494 42.9653 98.9992 43.4769 98.9992 44.1023ZM34.9153 47.2607C34.084 48.0696 34.3167 55.0931 35.1744 55.0931C35.6025 55.0931 35.9527 53.217 35.9527 50.9242C35.9527 46.7083 35.8509 46.349 34.9153 47.2607ZM63.9057 48.1006C62.8728 48.8055 61.3939 49.2778 60.6187 49.1505C59.8443 49.0232 58.7064 49.3264 58.089 49.8243C57.447 50.3443 56.9682 50.4079 56.9682 49.9744C56.9682 49.559 56.0927 49.2187 55.0223 49.2187C53.2813 49.2187 53.0765 49.528 53.0765 52.1558C53.0765 53.7712 53.4267 55.0931 53.8548 55.0931C54.2829 55.0931 54.6332 54.2403 54.6332 53.1982C54.6332 50.8081 56.7643 50.6444 57.1083 53.0087C57.3029 54.3427 57.8642 54.7142 59.6847 54.7142C61.6407 54.7142 62.0922 54.351 62.5116 52.4402L63.0106 50.1662L63.1032 52.6297C63.2262 55.9185 65.5301 56.0982 65.5301 52.8192C65.5301 51.5685 65.8694 50.5452 66.2844 50.5452C66.6985 50.5452 66.8346 51.0613 66.5864 51.692C65.6103 54.1676 67.6768 54.9498 75.2448 54.9665L82.555 54.9832L82.5121 51.9648C82.4725 49.1618 82.3231 48.9625 80.4277 49.1769C77.7402 49.481 77.2513 51.8277 79.6774 52.7744C80.6721 53.1633 81.0473 53.5029 80.5102 53.5293C79.974 53.5551 78.2227 52.8601 76.6185 51.983C74.8587 51.0204 74.397 50.5422 75.454 50.7748C76.6278 51.034 77.2053 50.8097 77.2053 50.095C77.2053 48.8495 73.6607 48.6266 72.9011 49.8243C72.5563 50.3678 72.0511 50.3397 71.3023 49.7348C70.7007 49.2482 69.5059 49.0292 68.6475 49.2475C67.6558 49.5007 67.0868 49.2733 67.0868 48.6236C67.0868 46.9387 65.8952 46.7423 63.9057 48.1006ZM10.2672 51.3032C10.2672 54.1669 10.5529 55.0931 11.4347 55.0931C12.0769 55.0931 12.6023 54.5284 12.6023 53.8386C12.6023 52.7055 12.7338 52.6964 13.9644 53.75C15.725 55.2575 27.3909 55.6586 27.3909 54.2124C27.3909 53.4823 27.5988 53.4763 28.3249 54.1836C28.8386 54.6838 30.2607 55.0931 31.485 55.0931C33.5819 55.0931 33.6979 54.9279 33.4698 52.2507C33.2745 49.9449 32.89 49.3612 31.4345 49.1603C30.4476 49.0247 29.1679 49.2945 28.5911 49.7606C27.8065 50.3943 27.4556 50.3618 27.1994 49.6296C26.927 48.854 26.3448 48.8337 24.4029 49.531C22.9699 50.0449 21.7665 50.1238 21.5105 49.7205C21.2692 49.34 20.4044 49.0292 19.5887 49.0292C17.9775 49.0292 16.1313 51.6352 16.8934 52.835C17.1525 53.2428 17.031 53.5772 16.6232 53.5772C15.4643 53.5772 14.9669 51.5776 15.8994 50.6695C17.1898 49.4128 15.1475 47.5132 12.5073 47.5132C10.338 47.5132 10.2672 47.633 10.2672 51.3032ZM46.8497 51.2554C46.8497 54.1615 47.133 55.0931 48.0172 55.0931C48.6594 55.0931 49.1847 54.6042 49.1847 54.0069C49.1847 53.4096 49.9055 52.6986 50.7866 52.4265C51.9705 52.0603 52.3261 51.4039 52.1487 49.9115C51.951 48.247 51.4646 47.8505 49.3793 47.6549L46.8497 47.4169V51.2554ZM83.4321 51.3032C83.4321 53.3877 83.7824 55.0931 84.2105 55.0931C84.6386 55.0931 84.9888 53.3877 84.9888 51.3032C84.9888 49.2187 84.6386 47.5132 84.2105 47.5132C83.7824 47.5132 83.4321 49.2187 83.4321 51.3032ZM12.6023 49.7872C12.6023 50.2041 12.9525 50.5452 13.3806 50.5452C13.8087 50.5452 14.159 50.2041 14.159 49.7872C14.159 49.3703 13.8087 49.0292 13.3806 49.0292C12.9525 49.0292 12.6023 49.3703 12.6023 49.7872ZM37.6651 49.9388C35.439 52.1067 37.4877 55.4152 40.7747 54.9619C44.0647 54.508 43.2615 49.0292 39.9052 49.0292C39.1869 49.0292 38.1788 49.4385 37.6651 49.9388ZM49.1847 50.2108C49.1847 50.8605 49.5405 51.178 49.9755 50.9166C50.4107 50.6544 50.5655 50.1229 50.3189 49.7348C49.6517 48.6836 49.1847 48.8791 49.1847 50.2108ZM86.7012 49.9388C84.7718 51.8178 86.1946 55.0931 88.9413 55.0931C91.1792 55.0931 92.352 53.0496 91.3464 50.9015C90.4108 48.901 88.2308 48.4493 86.7012 49.9388ZM92.7016 49.3582C92.3022 51.7822 92.6712 54.6815 93.409 54.921C93.9548 55.0977 94.3291 54.4413 94.3291 53.3058C94.3291 52.2537 94.6793 51.1819 95.1074 50.9242C95.5613 50.6505 95.8857 51.4214 95.8857 52.7744C95.8857 54.0493 96.2571 55.0931 96.7108 55.0931C97.1887 55.0931 97.4347 53.8962 97.2946 52.2507C97.0853 49.7827 96.7715 49.3764 94.9128 49.1687C93.7353 49.0368 92.7405 49.1217 92.7016 49.3582ZM98.7189 51.3403C98.0862 54.4238 98.5688 55.0931 101.427 55.0931C103.651 55.0931 103.752 54.9559 103.521 52.2507C103.315 49.8228 102.984 49.3749 101.245 49.1785C99.5122 48.9822 99.1377 49.3028 98.7189 51.3403ZM108.08 49.5347C106.917 50.6665 107.642 52.7289 109.312 53.042L111.064 53.371L109.312 53.4741C108.349 53.5308 107.561 53.941 107.561 54.3852C107.561 54.83 108.525 55.0856 109.701 54.9537C111.577 54.7436 111.862 54.3624 112.004 51.8717C112.146 49.368 111.952 49.0292 110.383 49.0292C109.401 49.0292 108.365 49.2566 108.08 49.5347ZM26.2607 51.6146C27.0866 52.2037 28.0938 52.4857 28.4986 52.2423C28.9024 51.999 28.5562 51.5412 27.7287 51.2259C25.2909 50.2957 24.648 50.4664 26.2607 51.6146ZM58.9219 51.2911C58.3483 52.1953 59.0769 53.5772 60.1276 53.5772C61.0748 53.5772 61.081 51.5252 60.1354 50.9567C59.7369 50.7165 59.1912 50.8673 58.9219 51.2911ZM88.1022 52.0612C88.1022 52.895 88.4525 53.5772 88.8806 53.5772C89.3087 53.5772 89.659 52.895 89.659 52.0612C89.659 51.2274 89.3087 50.5452 88.8806 50.5452C88.4525 50.5452 88.1022 51.2274 88.1022 52.0612ZM100.41 51.0628C100.971 51.282 101.643 51.2547 101.902 51.003C102.16 50.7514 101.701 50.5725 100.881 50.605C99.9736 50.6414 99.7893 50.8211 100.41 51.0628ZM20.7749 52.8692C18.8462 53.2861 19.0836 53.3747 22.137 53.3792C24.1709 53.3823 25.8342 53.2974 25.8342 53.1906C25.8342 52.6221 22.8088 52.4302 20.7749 52.8692ZM70.5894 52.8692C68.6606 53.2861 68.8981 53.3747 71.9515 53.3792C73.9845 53.3823 75.6486 53.2974 75.6486 53.1906C75.6486 52.6221 72.6233 52.4302 70.5894 52.8692ZM39.6499 53.321C40.1854 53.5317 41.0611 53.5317 41.5958 53.321C42.1313 53.1109 41.6932 52.9389 40.6228 52.9389C39.5527 52.9389 39.1153 53.1109 39.6499 53.321ZM100.41 53.3368C100.971 53.5559 101.643 53.5287 101.902 53.277C102.16 53.0253 101.701 52.8465 100.881 52.879C99.9736 52.9154 99.7893 53.0951 100.41 53.3368Z" fill="#3C1F1B" fill-opacity="0.78"/>
</svg>
