<svg width="172" height="30" viewBox="0 0 172 30" fill="none" xmlns="http://www.w3.org/2000/svg">
<g clip-path="url(#clip0_5298_576)">
<path d="M18.1276 -0.000386146C13.379 -0.000386146 9.51562 3.84729 9.51562 8.57674V22.0576H12.703L12.702 8.57674C12.702 5.59752 15.1361 3.17352 18.1276 3.17352C21.1188 3.17352 23.5533 5.59752 23.5533 8.57674C23.5533 11.4501 21.2892 13.8066 18.445 13.9707V17.1477C23.0468 16.9811 26.7392 13.2001 26.7392 8.57674C26.7392 3.84729 22.8762 -0.000386146 18.1276 -0.000386146Z" fill="black"/>
<path d="M14.0375 21.4234C14.0375 24.4025 11.6031 26.826 8.61118 26.826C5.62034 26.826 3.18605 24.4025 3.18605 21.4234C3.18605 18.5497 5.45008 16.1931 8.29405 16.0291V12.8518C3.69244 13.0186 0 16.7996 0 21.4234C0 26.1522 3.8631 30 8.61118 30C13.3599 30 17.2233 26.1522 17.2233 21.4234V7.95469L14.0368 7.95367L14.0375 21.4234Z" fill="black"/>
<path d="M42.9259 15.6762H38.965V8.95984H43.0174C45.6047 8.95984 47.3219 10.0937 47.3219 12.2961C47.3219 14.3241 45.5817 15.6762 42.9259 15.6762ZM43.1548 7.36765H37.1562V22.6323H38.965V17.2461H42.8573C46.2685 17.2461 49.1533 15.5452 49.1533 12.2305C49.1533 9.1996 46.7723 7.36765 43.1548 7.36765Z" fill="black"/>
<path d="M59.9358 21.3022C56.2724 21.3022 53.6165 18.4675 53.6165 14.9783C53.6165 11.4894 56.2265 8.69821 59.8899 8.69821C63.5533 8.69821 66.2092 11.5331 66.2092 15.0219C66.2092 18.5111 63.5992 21.3022 59.9358 21.3022ZM59.9358 7.10615C55.0589 7.10615 51.7393 10.7915 51.7393 15.0219C51.7393 19.2522 55.0134 22.894 59.8899 22.894C64.7668 22.894 68.0865 19.2087 68.0865 14.9783C68.0865 10.7478 64.8127 7.10615 59.9358 7.10615Z" fill="black"/>
<path d="M77.5429 14.1711C74.0169 13.4515 73.1927 12.6446 73.1927 11.1834C73.1927 9.78782 74.5207 8.69778 76.6043 8.69778C78.2526 8.69778 79.7409 9.19925 81.2293 10.355L82.2824 9.02462C80.657 7.78167 78.9853 7.14959 76.6502 7.14959C73.605 7.14959 71.384 8.89402 71.384 11.3364C71.384 13.8659 73.0783 14.9999 76.7646 15.7629C80.1302 16.439 80.9315 17.2457 80.9315 18.6849C80.9315 20.2331 79.512 21.3018 77.3599 21.3018C75.1389 21.3018 73.5365 20.5822 71.8648 19.1432L70.7432 20.4077C72.6664 22.043 74.7496 22.8501 77.291 22.8501C80.4736 22.8501 82.7632 21.1492 82.7632 18.5107C82.7632 16.1554 81.1148 14.9123 77.5429 14.1711Z" fill="black"/>
<path d="M97.507 14.1496H88.257V7.36765H86.4482V22.6323H88.257V15.7633H97.507V22.6323H99.3157V7.36765H97.507V14.1496Z" fill="black"/>
<path d="M111.517 15.6978L105.678 7.36765H103.847V22.6323H105.61V10.2899L111.448 18.4454H111.54L117.378 10.268V22.6323H119.187V7.36765H117.355L111.517 15.6978Z" fill="black"/>
<path d="M126.809 17.0498L130.472 9.26508L134.113 17.0498H126.809ZM129.648 7.25866L122.345 22.6323H124.199L126.099 18.5981H134.823L136.7 22.6323H138.646L131.342 7.25866H129.648Z" fill="black"/>
<path d="M143.612 15.1528V8.95984H148.558C151.145 8.95984 152.656 10.0937 152.656 11.9908C152.656 13.975 150.939 15.1528 148.535 15.1528H143.612ZM154.488 11.9253C154.488 9.17759 152.221 7.36765 148.695 7.36765H141.804V22.6323H143.612V16.701H148.192L152.839 22.6323H155.06L150.138 16.3958C152.656 15.9595 154.488 14.4767 154.488 11.9253Z" fill="black"/>
<path d="M164.835 14.0405L171.704 7.36765H169.368L160.164 16.4829V7.36765H158.355V22.6323H160.164V18.5326L163.576 15.2399L169.735 22.6323H172.001L164.835 14.0405Z" fill="black"/>
</g>
<defs>
<clipPath id="clip0_5298_576">
<rect width="172" height="30" fill="white"/>
</clipPath>
</defs>
</svg>
