<svg width="177" height="100" viewBox="0 0 177 100" fill="none" xmlns="http://www.w3.org/2000/svg">
<path fill-rule="evenodd" clip-rule="evenodd" d="M64.0876 0.78104C64.0704 0.798607 64.0565 15.5423 64.0565 33.5447V66.2765H88.4566H112.856L112.845 33.5247L112.833 0.773094L88.4759 0.76108C75.0795 0.754475 64.1048 0.763473 64.0876 0.78104ZM67.3688 16.5447V28.8939L68.9201 28.8937C70.0624 28.8935 70.5821 28.8749 70.8913 28.823C72.6521 28.5282 74.1321 27.7117 75.4779 26.293L75.8656 25.8841L77.2391 26.7254C77.9944 27.1879 78.6126 27.5867 78.6126 27.6115C78.6126 27.7109 78.0487 28.4223 77.5637 28.9349C76.5679 29.9877 75.7361 30.5773 74.3545 31.2101C73.1305 31.7705 72.2428 32.0572 71.2412 32.215C70.5387 32.3256 70.3237 32.3365 68.8035 32.3385L67.3688 32.3401V36.1486V39.9572L70.8563 39.9387C73.8537 39.9229 74.4224 39.9087 74.9035 39.8374C76.2139 39.6429 77.6889 39.2236 78.6824 38.763C79.2614 38.4945 80.0971 38.0449 80.3987 37.8394C80.5489 37.737 80.6816 37.6532 80.6936 37.6532C80.7054 37.6532 80.9086 37.5091 81.1452 37.3331C83.712 35.4218 85.485 32.7527 86.2866 29.5927C86.5836 28.4221 86.7191 27.4675 86.7699 26.1894C86.7867 25.7683 86.795 20.6474 86.7886 14.8095L86.7768 4.19546H77.0729H67.3688V16.5447ZM90.1308 4.24327C90.1281 4.25644 90.119 9.28592 90.1107 15.4198C90.1026 21.5537 90.0858 26.6694 90.0735 26.7878C90.0611 26.9062 90.0384 27.1303 90.0229 27.2858C90.0075 27.4414 89.9859 27.6243 89.9749 27.6926C89.9639 27.761 89.9419 27.9138 89.926 28.0322C89.9102 28.1508 89.8872 28.3124 89.8747 28.3912C89.7813 28.9824 89.7359 29.2305 89.6966 29.3644C89.6836 29.4083 89.663 29.4982 89.6504 29.5639C89.629 29.676 89.6099 29.7604 89.5528 29.9948C89.5401 30.0475 89.5206 30.1282 89.5096 30.1742C89.3299 30.927 88.6851 32.7583 88.4184 33.2735C88.3775 33.3525 88.3483 33.4333 88.3536 33.4531C88.3588 33.4729 88.341 33.4889 88.3138 33.4889C88.2866 33.4889 88.2773 33.5105 88.2932 33.5368C88.309 33.5632 88.2986 33.5847 88.2698 33.5847C88.2412 33.5847 88.2306 33.6061 88.2466 33.6325C88.2625 33.6588 88.2518 33.6804 88.2233 33.6804C88.1945 33.6804 88.1841 33.7019 88.1999 33.7283C88.2158 33.7546 88.2065 33.7762 88.1793 33.7762C88.1521 33.7762 88.1349 33.7922 88.1407 33.812C88.1515 33.8477 87.6264 34.8793 87.5741 34.9248C87.559 34.9381 87.4948 35.0511 87.4311 35.1763C87.3674 35.3012 87.2992 35.4036 87.2794 35.4036C87.2597 35.4036 87.2435 35.4265 87.2435 35.4548C87.2435 35.5154 86.9625 35.9469 86.9079 35.9698C86.8872 35.9787 86.8702 36.011 86.8702 36.0417C86.8702 36.09 86.8089 36.1779 86.5912 36.4427C86.5651 36.4743 86.5437 36.5181 86.5437 36.5397C86.5437 36.5613 86.507 36.6125 86.4621 36.6539C86.4171 36.6951 86.349 36.7773 86.3104 36.8365C86.272 36.8957 86.2089 36.9824 86.1705 37.0289C86.132 37.0757 86.0479 37.1846 85.9838 37.2709C85.9198 37.3574 85.8148 37.4877 85.7505 37.5606C84.7209 38.7311 84.3343 39.1196 83.4802 39.8413C83.4246 39.8883 83.3405 39.9597 83.2932 40.0001C82.7395 40.4728 81.5445 41.2648 80.7231 41.7033C79.993 42.0932 78.6635 42.668 78.4617 42.681C78.4429 42.6822 78.3538 42.7149 78.2635 42.7535C78.1732 42.7923 78.0992 42.8121 78.0992 42.7977C78.0992 42.7832 78.056 42.7953 78.0029 42.8244C77.9501 42.8533 77.8659 42.8864 77.8163 42.8979C77.7667 42.9091 77.6841 42.9291 77.6328 42.9422C77.5814 42.9555 77.4958 42.9761 77.4425 42.9881C77.389 43.0002 77.3068 43.0226 77.2595 43.038C77.1773 43.0648 77.0965 43.0832 76.8396 43.1337C76.7755 43.1463 76.6785 43.166 76.624 43.1772C76.4675 43.2095 76.174 43.2606 76.0466 43.2774C75.105 43.4022 75.1758 43.4002 71.1711 43.4174C69.1185 43.4261 67.4285 43.436 67.4155 43.4392C67.4028 43.4424 67.3922 44.861 67.392 46.5921L67.3918 49.7391H88.4562H109.521V27.0105C109.521 14.51 109.51 4.26729 109.498 4.24916C109.471 4.21197 90.1389 4.20603 90.1308 4.24327ZM76.4129 10.4476C74.5536 10.7273 73.0776 12.2203 72.7783 14.124C72.7077 14.5735 72.7444 15.5037 72.848 15.8936C73.2037 17.2303 74.0328 18.2559 75.2326 18.8434C76.0553 19.2463 77.1607 19.3496 78.0759 19.1093C78.9144 18.8891 79.5513 18.5026 80.1592 17.8448C80.9536 16.9856 81.3264 16.012 81.326 14.7976C81.3256 13.6015 80.9059 12.5632 80.072 11.6963C79.1207 10.7075 77.7638 10.2444 76.4129 10.4476ZM90.5459 52.3114C90.3491 52.3787 90.3251 52.5032 90.3118 53.5275C90.3006 54.3981 90.2906 54.5016 90.2105 54.5925C90.1235 54.6909 90.0874 54.6931 88.5722 54.6931C87.0754 54.6931 87.0186 54.6965 86.9 54.7923L86.777 54.8915V57.2958C86.777 59.1018 86.7909 59.7142 86.833 59.7574C86.8751 59.8005 87.5187 59.8148 89.443 59.8148H91.997L92.0696 59.7083C92.1336 59.6144 92.1421 59.1875 92.1421 56.052C92.1421 52.6652 92.1383 52.4969 92.0555 52.3923C91.9731 52.288 91.9372 52.2823 91.3154 52.2771C90.9558 52.2741 90.6096 52.2896 90.5459 52.3114ZM101.861 52.3676C101.73 52.4822 101.729 52.4872 101.719 53.1214C101.713 53.4724 101.72 53.8409 101.734 53.9403C101.781 54.2512 101.812 54.2625 102.635 54.2625C103.289 54.2625 103.38 54.2526 103.448 54.1749C103.514 54.1009 103.526 53.9651 103.526 53.2958C103.526 52.21 103.561 52.252 102.662 52.252C102.02 52.252 101.986 52.2571 101.861 52.3676ZM104.862 52.3783L104.739 52.5044V56.0803C104.739 59.4839 104.743 59.6601 104.824 59.7356C104.896 59.8023 105.027 59.8148 105.655 59.8148C106.172 59.8148 106.417 59.7971 106.456 59.7574C106.498 59.7136 106.512 58.8317 106.512 56.0807C106.512 52.5046 106.51 52.4603 106.416 52.3569C106.327 52.2585 106.28 52.252 105.653 52.252C104.993 52.252 104.983 52.2536 104.862 52.3783ZM107.813 52.3929L107.676 52.5337L107.689 56.1062C107.701 59.5798 107.704 59.6807 107.792 59.7469C107.861 59.7987 108.056 59.8148 108.614 59.8148C109.238 59.8148 109.355 59.8031 109.41 59.7356C109.463 59.6704 109.476 59.042 109.484 56.1577C109.49 53.8449 109.477 52.606 109.445 52.503C109.418 52.4173 109.358 52.3256 109.31 52.2995C109.263 52.2734 108.937 52.252 108.587 52.252H107.951L107.813 52.3929ZM67.4499 54.7264C67.2341 54.784 67.2289 54.8547 67.2289 57.7085V60.3935L67.3397 60.5072C67.4746 60.6456 67.7756 60.6996 68.2033 60.662C68.5935 60.6278 68.9699 60.4579 69.2788 60.1763C69.5353 59.9427 69.6965 59.9025 69.8721 60.0286C70.0207 60.1355 70.0305 60.2698 69.9082 60.5218C69.7841 60.7773 69.4803 61.0408 69.1169 61.2085C68.9203 61.2994 68.7738 61.3198 68.1518 61.3429C67.5336 61.3661 67.4055 61.3837 67.3354 61.4558C67.2636 61.5293 67.2501 61.6502 67.2374 62.3367C67.2208 63.2227 67.2345 63.3309 67.3727 63.4067C67.4945 63.4736 68.9548 63.4693 69.3749 63.401C70.2251 63.2626 71.2263 62.5963 71.7794 61.8013C72.281 61.0802 72.3099 60.8491 72.3047 57.613C72.3003 54.8978 72.2949 54.8335 72.0569 54.7408C71.9365 54.6937 67.6218 54.6802 67.4499 54.7264ZM73.8203 54.7509C73.7633 54.779 73.6958 54.8691 73.6701 54.9511C73.6414 55.0436 73.6275 55.9556 73.6337 57.3566C73.6433 59.5005 73.6483 59.6184 73.7327 59.714C73.821 59.814 73.8394 59.8148 76.3264 59.8148C78.8133 59.8148 78.832 59.814 78.9202 59.714C79.0046 59.6184 79.0098 59.4974 79.0221 57.2944L79.035 54.9757L78.8972 54.8345L78.7596 54.6931L76.3417 54.6965C74.7248 54.6987 73.8896 54.7167 73.8203 54.7509ZM80.4001 54.7414C80.3441 54.7646 80.2758 54.8264 80.2484 54.8788C80.2152 54.9424 80.1988 55.7455 80.1988 57.2986C80.1988 59.5596 80.2013 59.6259 80.292 59.7189C80.3831 59.8124 80.4475 59.8148 82.8725 59.8148C84.8162 59.8148 85.3773 59.8013 85.441 59.7536C85.4857 59.7199 85.5398 59.6134 85.561 59.517C85.6231 59.2346 85.6112 55.178 85.5477 54.9816C85.5176 54.8885 85.4427 54.7887 85.3773 54.7549C85.2879 54.7086 84.7072 54.6951 82.8813 54.6969C81.5727 54.6983 80.456 54.7183 80.4001 54.7414ZM99.6535 54.7293C98.983 54.7406 98.9244 54.7489 98.8487 54.8424C98.7752 54.9331 98.7671 55.0782 98.7671 56.3052C98.7671 57.9712 98.7746 57.9461 98.2727 57.9472C97.7965 57.9484 97.8131 58.0053 97.7969 56.306C97.7881 55.3655 97.7659 54.844 97.7328 54.8034C97.6954 54.7569 97.4905 54.741 96.9285 54.741H96.1745L96.0946 54.88C96.0239 55.0026 96.0145 55.18 96.0145 56.3771C96.0145 57.9985 96.0287 57.948 95.5698 57.948C95.1213 57.948 95.1281 57.973 95.1281 56.2959C95.1281 55.4433 95.1097 54.8913 95.0796 54.8337C95.0349 54.7478 94.9746 54.741 94.2411 54.741H93.4508L93.3798 54.8822C93.2715 55.0968 93.2729 59.5499 93.3811 59.7083L93.4537 59.8148H96.8947C100.293 59.8148 100.337 59.8136 100.438 59.7172L100.54 59.6195V57.2356C100.54 55.0228 100.534 54.8468 100.458 54.7844C100.394 54.7317 100.219 54.7198 99.6535 54.7293ZM101.934 54.765C101.867 54.8024 101.789 54.8931 101.762 54.9665C101.699 55.1295 101.695 59.3691 101.757 59.5902C101.779 59.6704 101.824 59.7536 101.857 59.7748C101.889 59.796 102.245 59.8136 102.648 59.814C103.251 59.8146 103.392 59.8015 103.452 59.7395C103.517 59.6732 103.526 59.3851 103.526 57.2962V54.9281L103.411 54.8107C103.301 54.6975 103.274 54.6933 102.676 54.6951C102.232 54.6965 102.021 54.7163 101.934 54.765ZM76.0858 56.385C75.7774 56.5256 75.6267 56.7765 75.6267 57.1487C75.6267 57.434 75.7338 57.6455 75.9682 57.8239C76.1541 57.9651 76.6381 57.9659 76.8216 57.8255C77.1067 57.6071 77.2225 57.3176 77.1625 56.9735C77.0781 56.4907 76.5214 56.1864 76.0858 56.385ZM82.5909 56.4209C82.2829 56.5773 82.1267 56.8963 82.18 57.2608C82.2348 57.6352 82.5924 57.948 82.9659 57.948C83.2029 57.948 83.5176 57.756 83.6388 57.5376C83.859 57.1404 83.7199 56.6434 83.3289 56.4319C83.0741 56.2939 82.8472 56.2906 82.5909 56.4209ZM89.1483 56.4177C88.8686 56.5692 88.7598 56.7701 88.7598 57.1343C88.7598 57.5029 88.8706 57.7027 89.1583 57.8534C89.4762 58.0197 89.8064 57.9649 90.0729 57.7011C90.7111 57.0697 89.9345 55.9916 89.1483 56.4177ZM69.6316 56.5121C69.1183 56.629 68.8452 57.1123 69.0229 57.5897C69.2144 58.1041 69.8429 58.2902 70.2461 57.952C70.6151 57.6425 70.6396 57.037 70.2965 56.7125C70.1473 56.5717 69.8128 56.4708 69.6316 56.5121ZM110.827 67.0746C110.337 67.2289 109.955 67.596 109.775 68.0878C109.636 68.4638 109.663 69.0204 109.835 69.3661C109.996 69.688 110.287 69.9779 110.61 70.1383C110.832 70.249 110.936 70.2698 111.27 70.2714C111.616 70.2731 111.702 70.2555 111.945 70.1333C112.274 69.9676 112.573 69.6673 112.723 69.3518C112.854 69.0784 112.898 68.4743 112.81 68.172C112.664 67.672 112.208 67.222 111.693 67.0695C111.382 66.9772 111.132 66.9788 110.827 67.0746ZM110.935 67.3942C110.704 67.4605 110.642 67.4992 110.391 67.734C110.124 67.9847 110.036 68.2112 110.035 68.6458C110.034 68.9776 110.051 69.0586 110.161 69.2511C110.411 69.6867 110.788 69.9118 111.27 69.9128C112.139 69.9144 112.727 69.0911 112.474 68.226C112.402 67.9789 112.022 67.5526 111.788 67.4566C111.521 67.3473 111.184 67.3225 110.935 67.3942ZM110.628 68.6571L110.64 69.5536L110.804 69.5546L110.967 69.5554L110.981 69.2083L110.995 68.8612H111.25C111.482 68.8612 111.51 68.8729 111.551 68.984C111.576 69.0515 111.597 69.2023 111.597 69.3192C111.597 69.4358 111.613 69.5336 111.632 69.5366C111.651 69.5393 111.744 69.5461 111.838 69.5516L112.01 69.5617L111.985 69.2233C111.97 69.0374 111.928 68.8341 111.89 68.7715C111.848 68.7036 111.838 68.6458 111.865 68.628C111.936 68.5802 112.017 68.3981 112.017 68.2852C112.017 68.1175 111.881 67.8736 111.756 67.815C111.691 67.7847 111.411 67.7603 111.127 67.7603H110.615L110.628 68.6571ZM110.99 68.3108V68.5262L111.235 68.5256C111.533 68.5246 111.608 68.481 111.608 68.3108C111.608 68.1405 111.533 68.0971 111.235 68.0961L110.99 68.0953V68.3108ZM146.437 76.285C146.43 77.5776 146.436 78.6545 146.45 78.6784C146.466 78.7042 148.04 78.717 150.299 78.7097L154.122 78.6976L154.134 76.3163L154.146 73.9349H150.298H146.449L146.437 76.285ZM13.1337 74.1034C11.6345 74.224 10.4603 74.4246 9.16809 74.7808C8.77181 74.8901 8.01994 75.1362 7.81512 75.2239C7.7638 75.2457 7.62734 75.3023 7.51187 75.3497C6.6589 75.6991 6.03566 76.0308 5.27248 76.5416C3.47482 77.7451 2.04226 79.5805 1.32962 81.5934C1.25973 81.7908 1.18504 81.9955 1.16362 82.0482C1.07148 82.2747 0.858599 83.1332 0.724562 83.8191C0.360381 85.6821 0.352449 88.3181 0.706041 89.9902C0.756519 90.2292 0.818056 90.5214 0.842784 90.64C0.904179 90.934 0.998094 91.276 1.03346 91.334C1.04951 91.3603 1.07806 91.4572 1.09686 91.5494C1.11566 91.6415 1.14673 91.7385 1.16591 91.7646C1.18504 91.791 1.21508 91.8741 1.23267 91.9496C1.29719 92.2262 1.80152 93.3166 2.11019 93.8468C2.67681 94.8204 3.74998 96.066 4.54935 96.6778C4.72896 96.8154 4.88642 96.9404 4.89926 96.9558C4.91209 96.9711 5.10103 97.1049 5.31914 97.253C6.04814 97.7484 6.88838 98.1848 7.83845 98.5616C7.95392 98.6073 8.09038 98.6616 8.1417 98.682C8.46333 98.8097 9.70545 99.1784 10.0049 99.2348C10.0578 99.2449 10.2481 99.2851 10.4277 99.3243C11.9476 99.6557 13.4254 99.7781 15.653 99.7565C18.0276 99.7335 19.1925 99.6078 20.5671 99.2263C21.3346 99.0132 21.4093 98.9901 21.4436 98.9548C21.462 98.936 21.5102 98.9204 21.5509 98.9204C21.5915 98.9202 21.6849 98.8877 21.7584 98.8485C21.8319 98.8091 21.9124 98.777 21.9375 98.777C21.9624 98.777 22.1189 98.7123 22.2853 98.6335C22.4516 98.5545 22.5938 98.4897 22.6018 98.4897C22.6095 98.4897 22.8127 98.379 23.0534 98.2434C23.5779 97.948 24.3024 97.4468 24.5745 97.1912C24.683 97.0893 24.792 97.0059 24.8169 97.0059C24.8416 97.0059 24.9815 97.2589 25.1278 97.5684C25.6755 98.7269 25.8536 99.0867 25.8918 99.111C25.9135 99.1247 26.7572 99.135 27.7669 99.1338L29.6025 99.1316L29.6142 92.1814L29.6262 85.2312H23.5221C20.1649 85.2312 17.4093 85.2401 17.3986 85.251C17.388 85.2619 17.3897 86.4521 17.4025 87.8955L17.4258 90.5202L19.1404 90.5442C20.0834 90.5572 20.8554 90.5844 20.8558 90.6042C20.8604 90.8129 20.5952 91.3683 20.2884 91.7924C20.0032 92.1872 19.4074 92.6845 18.8721 92.9748C17.7759 93.5696 16.2104 93.8256 14.7199 93.6542C12.2527 93.3704 10.6206 91.8652 9.92066 89.2279C9.55727 87.8587 9.55648 85.8486 9.91875 84.3456C10.206 83.1538 10.6476 82.304 11.3608 81.5704C12.3547 80.5481 13.6656 80.0617 15.4263 80.0617C17.2837 80.0617 18.4659 80.5527 19.2605 81.6544C19.4358 81.8971 19.6502 82.2521 19.7368 82.443L19.8945 82.7901H24.5969C29.2022 82.7901 29.2993 82.7881 29.2993 82.6982C29.2993 82.6091 29.2105 82.2009 29.1061 81.8088C28.9698 81.2982 28.6408 80.4012 28.4648 80.0617C27.8796 78.9319 27.3086 78.1864 26.416 77.3877C25.5506 76.6131 24.3028 75.8284 23.3975 75.4896C23.2693 75.4415 23.1433 75.3871 23.1176 75.3687C22.9791 75.2685 21.2088 74.7063 20.7383 74.6131C18.9737 74.2634 18.3353 74.1725 16.9826 74.0787C16.0805 74.0159 14.0595 74.029 13.1337 74.1034ZM100.711 74.4931C100.694 74.5109 100.68 76.1803 100.68 78.203C100.68 80.2256 100.669 81.8805 100.655 81.8805C100.641 81.8805 100.436 81.7326 100.2 81.5518C99.5919 81.0867 98.9028 80.6838 98.3004 80.4416C97.3257 80.0494 96.627 79.9084 95.2213 79.8195C93.2296 79.6938 91.2997 80.0007 89.9102 80.6642C89.7219 80.7541 89.559 80.8275 89.5482 80.8275C89.5179 80.8275 88.6897 81.3558 88.4798 81.509C88.1764 81.7304 87.5677 82.3088 87.2321 82.6943C86.5643 83.4615 85.8933 84.6901 85.5457 85.7817C85.3639 86.3523 85.3435 86.424 85.2655 86.7628C85.0511 87.6952 84.9693 88.4929 84.9685 89.6587C84.9679 90.66 84.9857 90.9033 85.1268 91.8126C85.2671 92.7162 85.4826 93.4855 85.8312 94.3256C87.0086 97.1631 89.2784 98.9277 92.4453 99.4674C93.5851 99.6617 95.1703 99.6623 96.3177 99.469C96.8771 99.375 97.8938 99.1023 98.1839 98.9687C98.2352 98.9451 98.3927 98.8774 98.5338 98.8182C99.236 98.5238 100.179 97.9312 100.637 97.4965C100.783 97.3583 100.915 97.2453 100.931 97.2453C100.947 97.2453 100.96 97.6761 100.96 98.2026V99.1599H104.622H108.285L108.273 86.8226L108.261 74.4854L104.502 74.4731C102.434 74.4664 100.728 74.4755 100.711 74.4931ZM157.644 86.9546V99.3997L161.482 99.3876L165.319 99.3754L165.331 86.9424L165.342 74.5093H161.493H157.644V86.9546ZM168.759 86.9424L168.771 99.3754H172.597H176.423L176.434 86.9424L176.446 74.5093H172.597H168.748L168.759 86.9424ZM43.2955 79.5857C42.9491 79.6051 42.5712 79.6342 42.4558 79.6502C42.3402 79.6661 42.0825 79.7017 41.883 79.7292C39.8213 80.0141 38.0344 80.6664 36.574 81.6674C35.6419 82.3064 34.9365 82.9877 34.2969 83.867C33.8934 84.4216 33.7442 84.6762 33.435 85.3372C32.9925 86.2832 32.7654 87.0855 32.6112 88.2466C32.4116 89.7502 32.5641 91.4954 33.0105 92.8178C33.1857 93.3366 33.2417 93.4765 33.4605 93.9426C34.1877 95.4918 35.3786 96.8267 36.883 97.7791C37.2591 98.0173 38.3511 98.585 38.4344 98.5857C38.4522 98.5859 38.5192 98.6137 38.5834 98.6475C38.7463 98.7333 39.0593 98.8463 39.4698 98.9677C39.6622 99.0247 39.8722 99.0895 39.9363 99.1116C40.0006 99.134 40.116 99.1681 40.193 99.1875C40.27 99.2069 40.3539 99.2281 40.3796 99.2348C41.5396 99.533 42.9589 99.6864 44.5551 99.6864C47.6017 99.6864 49.9625 99.13 51.9964 97.9327C52.2896 97.7601 52.4248 97.6763 52.5071 97.6161C53.0384 97.2279 53.2352 97.071 53.6216 96.7293C54.5516 95.9068 55.4114 94.66 55.8898 93.4399C55.9724 93.2294 56.0583 93.014 56.0805 92.9613C56.1822 92.7204 56.3877 91.8714 56.4691 91.3548C56.583 90.6345 56.6044 90.3297 56.5992 89.5152C56.5936 88.6515 56.5006 87.7643 56.3609 87.2415C55.8244 85.234 55.1659 84.0462 53.8798 82.7661C53.0162 81.9064 51.9881 81.2099 50.8767 80.7313C50.7483 80.676 50.6015 80.6115 50.5501 80.5879C50.3907 80.5147 49.3484 80.1636 49.1272 80.1088C48.287 79.9005 47.7049 79.7847 47.0821 79.7017C45.9782 79.555 44.5962 79.5126 43.2955 79.5857ZM69.3284 79.591C69.0334 79.6086 68.7184 79.6334 68.6285 79.6459C68.5387 79.6585 68.3394 79.6835 68.1854 79.7015C67.6863 79.7601 66.5897 79.9688 66.2724 80.0654C64.6286 80.5667 63.9788 80.8457 62.976 81.4803C62.2374 81.9476 61.8646 82.2537 61.2105 82.9303C60.0468 84.1343 59.4269 85.2637 58.9232 87.098C58.742 87.7577 58.6455 88.6309 58.6451 89.6108C58.6447 90.9827 58.8269 92.0268 59.2824 93.2621C60.2838 95.9785 62.6149 98.0688 65.6719 98.9922C65.9766 99.0843 66.2888 99.1791 66.3658 99.2031C66.7871 99.3342 67.8102 99.51 68.7549 99.6138C69.7521 99.7231 71.7516 99.7122 72.7588 99.5918C73.5756 99.4942 74.1711 99.3995 74.577 99.3029C74.7053 99.2724 74.8522 99.2389 74.9035 99.2289C75.1195 99.1857 76.2477 98.8227 76.4476 98.7319C76.5671 98.6778 76.6848 98.6335 76.7093 98.6335C76.7338 98.6335 77.0197 98.5008 77.3448 98.3388C79.956 97.038 81.6394 95.0338 82.3653 92.363C82.8095 90.7275 82.8443 88.8065 82.4579 87.2229C82.3396 86.7376 82.2255 86.3339 82.1588 86.1646C81.9557 85.6482 81.8899 85.495 81.7383 85.1833C81.3955 84.4798 81.0425 83.9322 80.5658 83.3645C80.1629 82.8845 80.2229 82.9469 79.7555 82.5228C78.9 81.7466 77.9076 81.1225 76.6763 80.5864C76.503 80.5107 75.4649 80.1624 75.2534 80.109C74.5484 79.9302 73.7269 79.7686 73.1772 79.7007C73.0234 79.6815 72.8449 79.6587 72.7808 79.6498C72.7166 79.6411 72.2862 79.6106 71.8244 79.5821C70.977 79.5298 70.3113 79.5324 69.3284 79.591ZM109.616 80.2652C109.633 80.3507 109.706 80.6038 109.777 80.8275C109.848 81.0513 109.952 81.396 110.009 81.5934C110.066 81.7908 110.151 82.0708 110.197 82.2157C110.244 82.3604 110.348 82.7052 110.43 82.9816C110.511 83.258 110.599 83.5486 110.625 83.6276C110.69 83.8266 110.892 84.4903 110.971 84.7646C111.007 84.8895 111.067 85.0942 111.103 85.2192C111.173 85.4627 111.313 85.9227 111.55 86.6911C111.631 86.9542 111.81 87.5467 111.948 88.0074C112.086 88.4679 112.265 89.0604 112.345 89.3237C112.426 89.5868 112.52 89.8993 112.553 90.0177C112.587 90.1361 112.671 90.4161 112.74 90.64C112.809 90.8637 112.887 91.1328 112.914 91.2382C112.941 91.3435 112.981 91.45 113.003 91.4752C113.025 91.5001 113.043 91.5518 113.043 91.5898C113.043 91.647 113.366 92.7457 113.509 93.1768C113.531 93.2425 113.615 93.5225 113.697 93.7991C113.778 94.0755 113.894 94.4523 113.953 94.6366C114.012 94.821 114.106 95.1332 114.162 95.3306C114.217 95.5282 114.281 95.7434 114.303 95.8094C114.325 95.8751 114.41 96.1551 114.492 96.4315C114.574 96.7081 114.701 97.1239 114.775 97.3558C114.849 97.5876 114.909 97.8086 114.909 97.847C114.909 97.8854 114.929 97.9541 114.954 97.9999C114.978 98.0456 115.065 98.3145 115.148 98.5974L115.299 99.112H119.554C122.911 99.112 123.819 99.0993 123.857 99.0518C123.884 99.019 123.921 98.9287 123.94 98.8517C123.959 98.7746 124.003 98.6562 124.037 98.5887C124.072 98.5212 124.1 98.4386 124.1 98.4054C124.1 98.3721 124.119 98.3075 124.142 98.2618C124.165 98.2161 124.22 98.0818 124.265 97.9632C124.309 97.8448 124.375 97.6801 124.41 97.5971C124.445 97.5142 124.473 97.4162 124.473 97.3793C124.473 97.3425 124.491 97.2918 124.512 97.2669C124.534 97.2419 124.619 97.0275 124.702 96.7907C124.944 96.0995 125.12 95.6254 125.178 95.5108C125.201 95.4651 125.22 95.4037 125.22 95.3746C125.22 95.3453 125.249 95.2534 125.285 95.1704C125.32 95.0875 125.742 93.9426 126.221 92.6263C126.701 91.31 127.113 90.1957 127.136 90.1499C127.16 90.1042 127.179 90.0397 127.18 90.0064C127.18 89.9731 127.207 89.892 127.241 89.8262C127.274 89.7603 127.341 89.5932 127.39 89.4544C127.483 89.1889 127.547 89.1574 127.604 89.3506C127.713 89.7205 128.078 90.9216 128.112 91.0227C128.134 91.0887 128.198 91.3041 128.253 91.5015C128.309 91.6989 128.392 91.9789 128.438 92.1238C128.484 92.2686 128.589 92.6131 128.672 92.8895C128.754 93.1661 128.901 93.6506 128.998 93.9666C129.095 94.2824 129.221 94.7024 129.278 94.9C129.439 95.4518 129.604 96.0046 129.673 96.2163C129.731 96.3965 129.872 96.8641 130.133 97.7478C130.196 97.9585 130.315 98.3515 130.397 98.6214L130.548 99.112H135.112H139.676L139.706 99.0043C139.722 98.9451 139.753 98.8536 139.775 98.801C139.796 98.7483 139.846 98.5974 139.884 98.466C139.967 98.1812 140.469 96.5584 140.684 95.8811C140.846 95.3736 140.982 94.9352 141.337 93.7751C141.458 93.3801 141.575 93.014 141.596 92.9613C141.617 92.9087 141.665 92.758 141.703 92.6263C141.783 92.3523 142.27 90.7861 142.53 89.9698C142.626 89.667 142.772 89.1932 142.853 88.9168C142.935 88.6404 143.019 88.3711 143.039 88.3185C143.059 88.2658 143.108 88.1151 143.149 87.9834C143.189 87.8518 143.336 87.378 143.475 86.9303C143.615 86.4828 143.86 85.6965 144.019 85.1833C144.178 84.6699 144.326 84.1961 144.348 84.1302C144.37 84.0644 144.486 83.6874 144.606 83.2926C144.725 82.8978 144.84 82.5315 144.861 82.4788C144.952 82.2468 145.468 80.5489 145.468 80.4794C145.468 80.4371 145.489 80.3891 145.514 80.3729C145.54 80.3565 145.561 80.2907 145.561 80.2264V80.1096H141.41H137.26L137.214 80.2892C137.188 80.3878 137.113 80.684 137.046 80.9473C136.979 81.2105 136.85 81.7167 136.759 82.072C136.669 82.4274 136.574 82.8152 136.549 82.9336C136.525 83.052 136.486 83.192 136.463 83.2447C136.441 83.2974 136.399 83.4482 136.37 83.5797C136.311 83.8518 136.211 84.2658 136.144 84.5131C136.027 84.9487 135.794 85.8565 135.74 86.0927C135.686 86.3313 135.611 86.6236 135.344 87.6484C135.076 88.6723 135.001 88.9653 134.947 89.2039C134.914 89.3486 134.841 89.6395 134.786 89.8502C134.73 90.0607 134.643 90.3947 134.591 90.5921C134.539 90.7895 134.471 91.0695 134.44 91.2142C134.407 91.3686 134.358 91.4775 134.323 91.4775C134.288 91.4775 134.198 91.2843 134.111 91.0227C133.902 90.3949 133.571 89.4391 133.524 89.3237C133.502 89.271 133.387 88.937 133.268 88.5818C133.148 88.2264 132.967 87.6985 132.865 87.409C132.762 87.1194 132.65 86.7964 132.616 86.6911C132.534 86.4402 132.265 85.6647 132.218 85.5423C132.198 85.4896 132.149 85.3496 132.11 85.2312C131.92 84.6541 131.743 84.1468 131.708 84.0809C131.687 84.0405 131.654 83.9335 131.635 83.8431C131.615 83.7526 131.582 83.6457 131.562 83.6053C131.541 83.5649 131.504 83.4673 131.479 83.3883C131.454 83.3094 131.346 82.997 131.239 82.6943C131.131 82.3915 130.992 81.9823 130.928 81.7849C130.865 81.5874 130.794 81.3827 130.771 81.33C130.747 81.2776 130.656 81.019 130.568 80.7558C130.479 80.4925 130.392 80.2395 130.374 80.1933C130.344 80.1149 130.162 80.1096 127.479 80.1096H124.617L124.56 80.3129C124.529 80.425 124.489 80.538 124.471 80.5644C124.452 80.5907 124.422 80.6875 124.403 80.7796C124.385 80.8719 124.357 80.9687 124.341 80.9948C124.311 81.0473 124.067 81.7587 123.751 82.7182C123.638 83.0604 123.458 83.5882 123.352 83.891C123.245 84.1937 123.138 84.5169 123.114 84.6089C123.089 84.701 123.051 84.8196 123.029 84.8721C123.006 84.9247 122.89 85.2588 122.771 85.614C122.651 85.9694 122.535 86.3034 122.512 86.3559C122.49 86.4085 122.451 86.5272 122.426 86.6192C122.402 86.7113 122.318 86.9699 122.24 87.1936C121.945 88.0466 121.57 89.1592 121.344 89.8502C121.214 90.245 121.09 90.6111 121.068 90.6638C121.045 90.7164 120.957 90.9695 120.872 91.2261C120.787 91.4825 120.697 91.6926 120.671 91.6926C120.645 91.6926 120.457 90.998 120.253 90.1492C120.049 89.3001 119.866 88.5517 119.845 88.486C119.825 88.4202 119.618 87.5694 119.387 86.5953C119.156 85.6213 118.946 84.7489 118.92 84.6568C118.895 84.5646 118.852 84.3923 118.825 84.2739C118.711 83.7751 118.323 82.1747 118.268 81.9763C118.242 81.8843 118.137 81.4641 118.034 81.0429C117.931 80.6218 117.835 80.2395 117.821 80.1933C117.797 80.1143 117.559 80.1096 113.689 80.1096H109.583L109.616 80.2652ZM146.447 80.1335C146.447 80.1466 146.447 84.4115 146.447 89.6108C146.447 94.8101 146.447 99.0857 146.447 99.112C146.447 99.1435 147.762 99.1599 150.296 99.1599H154.145V89.6348V80.1096H150.296C148.179 80.1096 146.447 80.1203 146.447 80.1335ZM43.7853 85.4928C43.1422 85.5847 42.9612 85.6393 42.4419 85.8991C41.3297 86.4553 40.7561 87.6175 40.7102 89.4088C40.6967 89.9333 40.7922 90.9873 40.8783 91.2621C41.0379 91.7722 41.1268 91.9888 41.3011 92.2911C41.9515 93.4209 43.0562 93.9339 44.7273 93.8823C45.1073 93.8704 45.4707 93.8472 45.5349 93.8308C45.599 93.8141 45.7144 93.7874 45.7914 93.7712C46.8374 93.5508 47.6549 92.8564 48.0685 91.8365C48.3555 91.1293 48.4041 90.8069 48.4041 89.6108C48.4041 88.7562 48.3881 88.4901 48.3192 88.1989C47.9311 86.5566 47.0024 85.7211 45.313 85.4938C44.6945 85.4106 44.3619 85.4104 43.7853 85.4928ZM69.8883 85.4972C69.3419 85.5769 69.3277 85.5801 68.9583 85.712C68.0514 86.0355 67.3694 86.761 67.0705 87.7201C66.8975 88.2753 66.8379 88.7493 66.836 89.5868C66.8339 90.5036 66.8777 90.834 67.0971 91.5583C67.3196 92.2931 67.8127 92.9671 68.4113 93.3546C68.6138 93.4859 69.1109 93.6906 69.3983 93.7611C69.501 93.7864 69.627 93.8187 69.6783 93.8329C69.7297 93.8472 70.0915 93.8692 70.4823 93.8819C71.9091 93.9282 72.8295 93.6142 73.5551 92.834C74.1304 92.2153 74.4182 91.438 74.5145 90.2412C74.577 89.4617 74.5133 88.4729 74.3659 87.9371C74.0262 86.7038 73.1932 85.8759 72.011 85.5973C71.2357 85.4148 70.6444 85.3869 69.8883 85.4972ZM95.8684 85.5185C95.2981 85.6114 94.7332 85.8569 94.3069 86.1975C93.3699 86.9455 92.9357 88.0389 92.9353 89.6518C92.9353 90.2713 93.0247 91.0515 93.1227 91.2861C93.1447 91.3387 93.1762 91.4356 93.1926 91.5015C93.2682 91.8031 93.5612 92.3903 93.7659 92.6503C94.2388 93.2508 94.8625 93.6741 95.5712 93.8755C95.9381 93.9799 97.0674 94.0205 97.4937 93.9446C98.4878 93.7682 99.2027 93.3203 99.8297 92.4812C100.145 92.0597 100.457 91.134 100.546 90.3596C100.609 89.8149 100.575 88.9408 100.47 88.438C100.169 86.9819 99.2704 85.9698 97.9534 85.6021C97.5756 85.4968 96.3132 85.4461 95.8684 85.5185Z" fill="#3C1F1B" fill-opacity="0.78"/>
</svg>
