<svg width="153" height="30" viewBox="0 0 153 30" fill="none" xmlns="http://www.w3.org/2000/svg">
<path d="M149.61 24.4332C148.984 24.4332 148.474 23.9512 148.474 23.3614V3.18017C148.474 2.56977 148.962 2.1084 149.61 2.1084H151.15C151.776 2.1084 152.287 2.58879 152.287 3.18017V23.3614C152.287 23.9433 151.767 24.4332 151.15 24.4332H149.61Z" fill="black"/>
<path d="M25.0629 2.4638V1.38886C25.0629 0.621499 24.4414 0 23.674 0H20.167C19.3996 0 18.7781 0.621499 18.7781 1.38886V2.15939H4.53757C2.7143 2.15939 0 3.36751 0 6.69697V25.4624C0 27.2873 1.20812 30 4.53757 30H23.3046C25.1294 30 27.8422 28.7919 27.8422 25.4624V6.69697C27.839 5.24152 27.0669 3.22165 25.0629 2.4638Z" fill="black"/>
<path d="M22.8312 15.249H20.5355C20.0757 15.249 19.7031 15.6216 19.7031 16.0814C19.7031 16.5412 20.0757 16.9138 20.5355 16.9138H22.8312C23.291 16.9138 23.6636 16.5412 23.6636 16.0814C23.6636 15.6216 23.291 15.249 22.8312 15.249Z" fill="white"/>
<path d="M19.2031 13.7284C19.3902 14.1485 19.8817 14.3372 20.3018 14.1501L22.3994 13.2163C22.8195 13.0292 23.0082 12.5377 22.8211 12.1175C22.634 11.6974 22.1426 11.5087 21.7224 11.6958L19.6249 12.6296C19.2047 12.8167 19.016 13.3082 19.2031 13.7284Z" fill="white"/>
<path d="M18.9643 11.7212L20.5006 10.0153C20.8082 9.6744 20.7812 9.14803 20.4388 8.84045C20.0979 8.53287 19.5715 8.55982 19.264 8.90228L17.7277 10.6082C17.4201 10.9491 17.447 11.4755 17.7895 11.7831C18.1304 12.089 18.6567 12.0621 18.9643 11.7212Z" fill="white"/>
<path d="M16.7538 22.1172C16.6111 21.6796 16.1418 21.4418 15.7058 21.5829H15.7042C15.1414 21.7652 14.5421 21.8651 13.9174 21.8651C10.7227 21.8651 8.1321 19.2745 8.1321 16.0798C8.1321 12.8851 10.7227 10.2945 13.9174 10.2945C14.5405 10.2945 15.1414 10.3943 15.7042 10.5767H15.7058C16.1434 10.7194 16.6127 10.48 16.7538 10.0424L17.4641 7.85919C17.6068 7.42161 17.3674 6.95231 16.9298 6.81121C15.9817 6.50363 14.9702 6.33398 13.919 6.33398C8.53639 6.33398 4.1748 10.6972 4.1748 16.0798C4.1748 21.4624 8.53797 25.824 13.919 25.824C14.9702 25.824 15.9817 25.6559 16.9298 25.3468C17.3674 25.2041 17.6052 24.7348 17.4641 24.2988L16.7538 22.1172Z" fill="white"/>
<path d="M18.9638 20.4418C18.6562 20.1009 18.1298 20.0724 17.7889 20.3799C17.4481 20.6875 17.4195 21.2139 17.7271 21.5548L19.2634 23.2607C19.571 23.6016 20.0974 23.6301 20.4382 23.3225C20.7791 23.015 20.8076 22.4886 20.5001 22.1477L18.9638 20.4418Z" fill="white"/>
<path d="M22.3994 18.946L20.3018 18.0122C19.8817 17.8251 19.3902 18.0138 19.2031 18.4339C19.016 18.8541 19.2047 19.3456 19.6249 19.5327L21.7224 20.4665C22.1426 20.6536 22.634 20.4649 22.8211 20.0448C23.0082 19.6246 22.818 19.1331 22.3994 18.946Z" fill="white"/>
<path d="M83.9996 24.4429C81.6246 24.4429 79.5762 23.6153 77.9098 21.9855C76.2768 20.3525 75.4492 18.3262 75.4492 15.9623C75.4492 13.5857 76.2768 11.5722 77.9098 9.97406C79.5762 8.34262 81.6246 7.5166 83.9996 7.5166C86.3857 7.5166 88.4246 8.34421 90.056 9.97564C91.7096 11.5595 92.5499 13.5746 92.5499 15.9623C92.5499 18.3722 91.7334 20.3414 90.0544 21.9855C88.4246 23.6153 86.3873 24.4429 83.9996 24.4429ZM83.9996 11.1901C82.6741 11.1901 81.5342 11.6562 80.613 12.5774C79.7157 13.4747 79.2606 14.6147 79.2606 15.9639C79.2606 17.3131 79.7157 18.4515 80.613 19.3504C81.5342 20.2716 82.6725 20.7377 83.9996 20.7377C85.3028 20.7377 86.4301 20.2716 87.3512 19.3504C88.2724 18.4293 88.7385 17.2909 88.7385 15.9639C88.7385 14.6369 88.2724 13.4985 87.3512 12.5774C86.4301 11.6562 85.3028 11.1901 83.9996 11.1901Z" fill="black"/>
<path d="M101.379 24.4435C99.4332 24.4435 97.8193 23.8157 96.581 22.579C95.3206 21.3186 94.6816 19.6808 94.6816 17.7117V9.17877C94.6816 8.53031 95.17 8.04199 95.8184 8.04199H97.3563C97.9826 8.04199 98.4931 8.55251 98.4931 9.17877V17.7814C98.4931 19.5286 99.652 20.7019 101.379 20.7019C103.126 20.7019 104.299 19.5286 104.299 17.7814V9.17877C104.299 8.53031 104.787 8.04199 105.436 8.04199H106.974C107.6 8.04199 108.11 8.55251 108.11 9.17877V17.7117C108.11 19.6808 107.472 21.3186 106.211 22.579C104.974 23.8157 103.348 24.4435 101.379 24.4435Z" fill="black"/>
<path d="M115.61 24.4429C113.572 24.4429 111.84 23.7453 110.462 22.3692C109.895 21.8016 109.869 21.2118 110.385 20.6172L110.737 20.2288C111.047 19.8768 111.384 19.6977 111.734 19.6977C112.027 19.6977 112.33 19.8245 112.631 20.0734C113.613 20.8852 114.602 21.2958 115.574 21.2958C116.706 21.2958 117.41 20.6727 117.41 19.6691C117.41 18.7274 116.761 18.1423 114.742 17.2608C111.802 16.0575 110.31 14.3372 110.31 12.1509C110.31 9.46671 112.598 7.5166 115.748 7.5166C117.255 7.5166 118.575 7.89077 119.785 8.65972C120.078 8.86107 120.267 9.15121 120.321 9.47781C120.379 9.83295 120.278 10.2071 120.035 10.5306L119.72 10.9507C119.431 11.336 119.1 11.5294 118.732 11.5294C118.505 11.5294 118.263 11.4549 118.011 11.3058C117.25 10.8556 116.535 10.6289 115.888 10.6289C114.677 10.6289 113.982 11.1457 113.982 12.0447C113.982 12.8485 114.784 13.5683 116.436 14.2421C119.693 15.6373 121.08 17.2069 121.08 19.4931C121.08 20.9185 120.557 22.1123 119.525 23.0366C118.51 23.9832 117.228 24.4429 115.61 24.4429Z" fill="black"/>
<path d="M142.604 24.4332C141.977 24.4332 141.467 23.9512 141.467 23.3614V3.18017C141.467 2.56977 141.955 2.1084 142.604 2.1084H144.143C144.769 2.1084 145.28 2.58879 145.28 3.18017V23.3614C145.28 23.9433 144.76 24.4332 144.143 24.4332H142.604Z" fill="black"/>
<path d="M75.3754 8.29971C75.339 8.28227 75.2993 8.26483 75.2597 8.24898C74.7 7.95091 74.0738 7.80029 73.3841 7.80029C71.9842 7.80029 70.8284 8.4535 69.9136 9.75833C69.9136 9.75833 69.6615 10.0707 69.6615 9.75833V9.08768C69.6615 8.82608 69.5632 8.59778 69.3682 8.40277C69.1731 8.20776 68.9433 8.10946 68.6832 8.10946H66.8933C66.6317 8.10946 66.4034 8.203 66.2083 8.3885C66.0118 8.57558 65.915 8.79913 65.915 9.06073V23.4456C65.915 23.7262 66.0133 23.9593 66.2083 24.1448C66.4034 24.3318 66.6317 24.4238 66.8933 24.4238H68.7578C69.0083 24.4238 69.2572 24.3398 69.4395 24.1685C69.644 23.9783 69.7455 23.7357 69.7455 23.444V16.1382C69.7455 14.6653 70.0626 13.4905 70.6968 12.6122C71.331 11.7354 72.0951 11.2978 72.9909 11.2978C73.2208 11.2978 73.457 11.3311 73.7012 11.3961C74.0151 11.4801 74.3417 11.3184 74.4939 11.033L75.5926 8.9545C75.7211 8.71352 75.6212 8.41862 75.3754 8.29971Z" fill="black"/>
<path d="M54.2179 24.4429C51.9571 24.4429 50.0355 23.6137 48.5071 21.9791C46.9756 20.3398 46.1956 18.3215 46.1924 15.9798C46.1924 13.5857 47.02 11.5706 48.653 9.97406C50.3193 8.34262 52.3677 7.5166 54.7427 7.5166C57.1288 7.5166 59.1677 8.34421 60.7992 9.97564C62.4528 11.5595 63.2931 13.5746 63.2931 15.9623V23.2966C63.2931 23.9181 62.7683 24.4429 62.1468 24.4429H60.8547C60.1951 24.4429 59.748 24.0022 59.748 23.284L59.71 21.9062C59.7068 21.8808 59.6893 21.7936 59.6212 21.7936C59.5736 21.7936 59.4959 21.8301 59.4166 21.9332C58.1752 23.5979 56.4265 24.4429 54.2179 24.4429ZM50.0197 15.9798C50.0228 17.3179 50.4763 18.4467 51.3673 19.3362C52.2853 20.2542 53.4205 20.7187 54.7411 20.7187C56.0396 20.7187 57.1621 20.2542 58.0801 19.3362C58.9933 18.423 59.4579 17.2941 59.4626 15.9798C59.4642 14.6416 58.9981 13.5065 58.0817 12.5885C57.1637 11.6705 56.0412 11.206 54.7427 11.206C53.4221 11.206 52.2869 11.6705 51.3689 12.5885C50.4747 13.4827 50.0213 14.6179 50.0213 15.9623L49.8548 15.9798H50.0197Z" fill="black"/>
<path d="M131.079 24.4429C128.704 24.4429 126.655 23.6153 124.989 21.9855C123.356 20.3525 122.528 18.3262 122.528 15.9623C122.528 13.5984 123.343 11.5849 124.952 9.97564C126.584 8.34421 128.61 7.5166 130.974 7.5166C133.338 7.5166 135.328 8.30933 136.891 9.871C138.476 11.4216 139.28 13.3289 139.28 15.5422C139.28 16.2319 138.755 16.7138 138.004 16.7138H126.603C126.557 16.7138 126.498 16.7202 126.47 16.7519C126.441 16.7852 126.432 16.8597 126.444 16.958C126.612 18.0313 127.11 18.9398 127.968 19.7294C128.838 20.4666 129.886 20.8424 131.079 20.8424C132.561 20.8424 133.769 20.2875 134.773 19.1475C135.065 18.8082 135.407 18.6354 135.791 18.6354C136.025 18.6354 136.276 18.702 136.534 18.8304L137.509 19.2823C137.885 19.4614 138.139 19.7595 138.205 20.102C138.264 20.4064 138.169 20.7219 137.944 20.966C136.281 23.2681 133.966 24.4429 131.079 24.4429ZM130.974 10.8397C128.962 10.8397 127.553 11.772 126.784 13.6111C126.747 13.6745 126.766 13.7189 126.777 13.7363C126.804 13.7839 126.857 13.8124 126.918 13.8124H134.996C135.098 13.8124 135.142 13.7887 135.15 13.776C135.16 13.7617 135.168 13.7094 135.128 13.6063C134.384 11.745 133.026 10.8397 130.974 10.8397Z" fill="black"/>
<path d="M45.4883 22.8609L44.8652 21.0154C44.7399 20.6429 44.3832 20.3908 43.9789 20.3908C43.8822 20.3908 43.7855 20.405 43.692 20.4352C43.6904 20.4352 43.6872 20.4367 43.6856 20.4367C43.2005 20.5874 42.6947 20.6651 42.1842 20.6651C40.881 20.6651 39.657 20.1767 38.7358 19.2905C37.8179 18.4058 37.3105 17.2294 37.3105 15.9784C37.3105 13.3942 39.4968 11.2918 42.1842 11.2918C42.6947 11.2918 43.2005 11.3679 43.6856 11.5201C43.6872 11.5201 43.6888 11.5217 43.6904 11.5217C43.7839 11.5519 43.8806 11.5661 43.9773 11.5661C44.3816 11.5661 44.7384 11.3156 44.8636 10.9415L45.4867 9.09598C45.5628 8.86926 45.5454 8.62669 45.436 8.41265C45.3234 8.19069 45.1284 8.02738 44.8858 7.95128C44.0122 7.677 43.1022 7.53906 42.1826 7.53906C37.3549 7.53906 33.4277 11.3251 33.4277 15.98C33.4277 20.6333 37.3549 24.4194 42.1826 24.4194C43.1022 24.4194 44.0122 24.2815 44.8858 24.0072C44.8906 24.0056 44.8953 24.004 44.9001 24.0024C45.1379 23.9232 45.325 23.7614 45.436 23.5458C45.5485 23.3302 45.566 23.0876 45.4883 22.8609ZM44.5782 20.8997C44.5703 20.8886 44.5624 20.8775 44.5529 20.8664C44.5624 20.8759 44.5687 20.887 44.5782 20.8997ZM44.4118 20.7332C44.4022 20.7269 44.3927 20.7221 44.3832 20.7158C44.3943 20.7205 44.4038 20.7253 44.4118 20.7332ZM44.2231 20.6365C44.2136 20.6333 44.2056 20.6286 44.1961 20.6254C44.2041 20.6286 44.2136 20.6333 44.2231 20.6365ZM43.9995 20.5969C43.9853 20.5969 43.9694 20.5969 43.9551 20.5969C43.9631 20.5969 43.971 20.5937 43.9789 20.5937C43.9869 20.5937 43.9932 20.5969 43.9995 20.5969ZM44.1946 11.3283C44.2041 11.3251 44.2136 11.3204 44.2215 11.3172C44.2136 11.322 44.2041 11.3267 44.1946 11.3283ZM40.8096 24.1071C40.835 24.1102 40.8588 24.1166 40.8825 24.1198C40.8588 24.1166 40.835 24.1118 40.8096 24.1071ZM41.133 24.1499C41.1917 24.1562 41.2504 24.1657 41.3106 24.1721C41.252 24.1657 41.1933 24.1578 41.133 24.1499ZM44.8287 23.8122C45.0206 23.7519 45.168 23.6235 45.2536 23.4634C45.168 23.6219 45.019 23.7519 44.8287 23.8122Z" fill="black"/>
</svg>
