<svg width="230" height="48" viewBox="0 0 230 48" fill="none" xmlns="http://www.w3.org/2000/svg">
<path fill-rule="evenodd" clip-rule="evenodd" d="M9.85791 0.0742119C7.14857 0.661006 5.64895 1.92088 4.75188 4.36344C4.40653 5.30377 4.36778 5.89039 4.25491 11.8777C4.18738 15.4495 4.05157 18.6145 3.95274 18.9107C3.42698 20.4885 2.43163 21.6968 0.727954 22.8253C0.323767 23.0931 -0.00683594 23.411 -0.00683594 23.5318C-0.00683594 23.6526 0.323767 23.9703 0.727954 24.2381C2.43163 25.3668 3.42698 26.575 3.95274 28.1528C4.05157 28.4491 4.18738 31.6139 4.25491 35.1857C4.36778 41.1731 4.40653 41.7598 4.75188 42.7C5.51723 44.784 6.75521 46.0315 8.71341 46.6918C9.6464 47.0063 13.3642 47.0178 114.993 47.0178C216.621 47.0178 220.34 47.0063 221.273 46.6918C223.231 46.0315 224.468 44.784 225.234 42.7C225.579 41.7598 225.618 41.1731 225.731 35.1857C225.798 31.6139 225.935 28.4491 226.034 28.1528C226.559 26.575 227.553 25.3668 229.257 24.2381C229.662 23.9703 229.993 23.6526 229.993 23.5318C229.993 23.411 229.662 23.0931 229.257 22.8253C227.553 21.6968 226.559 20.4885 226.034 18.9107C225.935 18.6145 225.798 15.4495 225.731 11.8777C225.618 5.89039 225.579 5.30377 225.234 4.36344C224.487 2.32941 223.297 1.10137 221.372 0.379175C220.507 0.0546402 217.667 0.0450324 115.348 0.0215463C57.5241 0.00820198 10.0534 0.0318658 9.85791 0.0742119ZM103.531 12.5844L101.401 14.7245L103.531 16.8648C105.629 18.9725 105.662 18.9967 105.718 18.4576C105.766 17.9864 105.828 17.9274 106.162 18.0305C108.43 18.7302 109.582 21.2321 108.616 23.3611C108.285 24.09 107.433 24.9329 106.68 25.2765C106.28 25.4585 106.326 25.5258 108.004 27.2117L109.743 28.9581L108.146 30.5704C106.749 31.9814 106.617 32.1672 107.083 32.0574C108.783 31.658 110.762 30.5341 112.069 29.2253C117.063 24.2269 115.743 15.8883 109.468 12.7858C108.645 12.3793 107.476 11.9551 106.87 11.8434C105.795 11.6453 105.767 11.6256 105.715 11.0424L105.661 10.4445L103.531 12.5844ZM20.1671 11.0591C17.9355 11.7654 16.244 13.3105 15.5235 15.3008C15.1161 16.4258 15.1662 18.5065 15.6305 19.7457C16.0611 20.8955 17.1032 22.075 18.3186 22.7878C18.755 23.0439 20.3298 23.656 21.8181 24.148C25.7391 25.4442 26.3935 25.9626 26.3694 27.7531C26.3422 29.7805 24.9415 31.1442 22.6431 31.3817C20.3279 31.6212 18.4891 30.5313 17.3446 28.2413C17.0049 27.5618 16.6356 26.5644 16.5238 26.0251L16.3203 25.0441H15.5331H14.7458V28.8695V32.695H15.5457C16.1235 32.695 16.3455 32.6238 16.3455 32.4385C16.3455 31.9731 16.6578 31.9731 18.4214 32.4387C21.7372 33.3143 23.7961 33.2123 26.0994 32.0588C27.609 31.3029 28.7954 30.0685 29.5546 28.4643C30.0673 27.381 30.1205 27.1088 30.1205 25.5779C30.1205 23.6271 29.7842 22.7184 28.6162 21.5134C27.6065 20.472 26.5993 19.9531 23.4966 18.8763C21.9586 18.3427 20.3553 17.7044 19.9337 17.4578C17.2698 15.8999 18.5486 12.7284 21.9511 12.4551C24.4293 12.256 25.7283 13.3947 26.8224 16.7262L27.2169 17.9272H27.9134H28.6098V14.5466V11.166H27.8933C27.4204 11.166 27.1421 11.2568 27.0745 11.4329C26.9358 11.7943 26.7006 11.7726 25.1607 11.255C23.6632 10.7518 21.416 10.6636 20.1671 11.0591ZM116.059 11.9585V12.7512L117.259 12.8036L118.459 12.8563L118.505 21.886L118.551 30.9156H117.305H116.059V31.8052V32.695H125.391H134.722V28.9584V25.2221H133.938C133.165 25.2221 133.152 25.232 133.037 25.9149C132.853 27.0055 131.976 28.6829 131.166 29.4936C129.924 30.7367 129.342 30.9073 126.324 30.9117L123.702 30.9156V26.4675V22.0194H124.743C126.471 22.0194 127.362 22.8735 127.974 25.1169L128.269 26.2006L129.007 26.2553L129.746 26.31V21.2289V16.1479H128.982H128.219L128.01 17.1464C127.745 18.4118 127.039 19.6262 126.366 19.9745C126.079 20.1231 125.361 20.2953 124.77 20.3571L123.695 20.4695L123.743 16.663L123.791 12.8563L126.191 12.8723C128.26 12.8862 128.691 12.9399 129.318 13.2621C130.499 13.8687 131.483 15.2126 132.122 17.0929C132.206 17.3421 132.382 17.4025 132.899 17.3598L133.567 17.3044L133.616 14.2352L133.664 11.166H124.862H116.059V11.9585ZM102.119 11.983C99.597 12.6451 96.7932 14.9233 95.6789 17.2154C93.642 21.4059 94.3796 26.1049 97.5759 29.3033C99.0764 30.8049 100.822 31.7273 103.129 32.2377C103.548 32.3303 103.617 32.4344 103.617 32.9652C103.617 33.3058 103.679 33.5845 103.754 33.5845C103.881 33.5845 105.964 31.4942 107.604 29.7219L108.297 28.973L106.2 26.9641C105.047 25.8591 104.034 24.9284 103.949 24.8959C103.864 24.8631 103.795 25.0919 103.795 25.4043C103.795 25.8487 103.734 25.9484 103.514 25.8637C103.359 25.8044 103.16 25.7559 103.07 25.7559C102.727 25.7559 101.414 24.3888 101.105 23.7096C100.692 22.8016 100.692 21.5931 101.105 20.6851C101.457 19.9106 102.63 18.7506 103.265 18.549C103.628 18.4335 103.508 18.2678 101.849 16.602L100.036 14.7811L101.588 13.3278C102.442 12.5284 103.107 11.8471 103.068 11.8137C103.028 11.7802 102.601 11.8566 102.119 11.983ZM214.422 13.0164C213.638 13.8004 213.585 14.7752 214.277 15.5992C215.132 16.6155 216.505 16.6222 217.417 15.6147C218.146 14.8094 218.102 13.8178 217.302 13.0164C216.786 12.5001 216.575 12.4115 215.862 12.4115C215.149 12.4115 214.939 12.5001 214.422 13.0164ZM215.151 12.9823C213.916 13.691 214.15 15.556 215.516 15.899C217.009 16.2742 217.968 14.4028 216.853 13.2874C216.308 12.7414 215.746 12.6407 215.151 12.9823ZM215.063 14.3687C215.063 15.199 215.121 15.4362 215.328 15.4362C215.494 15.4362 215.595 15.2688 215.595 14.9969C215.595 14.4791 216.05 14.5514 216.223 15.0967C216.282 15.2836 216.45 15.4362 216.597 15.4362C216.795 15.4362 216.83 15.3316 216.733 15.0359C216.66 14.8158 216.618 14.4016 216.637 14.1155C216.678 13.5063 216.434 13.3075 215.639 13.3038L215.063 13.3011V14.3687ZM157.28 15.6933C155.117 16.2906 152.699 18.261 151.695 20.2444C150.011 23.5711 150.538 27.3459 153.077 30.1307C155.32 32.5915 158.418 33.4296 161.914 32.521C163.065 32.2217 163.264 32.2102 163.389 32.4351C163.478 32.5945 163.806 32.695 164.237 32.695H164.939V29.7591V26.8233L164.183 26.8236L163.428 26.824L163.126 27.8514C162.754 29.1184 161.978 30.2187 160.998 30.8678C160.367 31.2859 160.075 31.3591 159.073 31.3507C157.088 31.3346 156.141 30.4172 155.688 28.0688C155.389 26.5201 155.455 21.066 155.788 19.8024C156.303 17.8431 157.286 17.0375 159.162 17.0375C161.059 17.0375 162.078 17.8776 162.925 20.1398C163.428 21.4817 163.428 21.4817 164.094 21.4836L164.761 21.4856V18.6388V15.7921H164.086C163.714 15.7921 163.32 15.8824 163.209 15.9929C163.06 16.142 162.648 16.0963 161.607 15.815C160.051 15.3949 158.517 15.3517 157.28 15.6933ZM172.767 15.5666C170.992 15.8995 168.685 17.4348 167.535 19.0481C166.19 20.9341 165.931 21.7716 165.923 24.2569L165.916 26.4055L166.66 27.9043C167.625 29.8514 168.983 31.2353 170.804 32.1295C172.115 32.7729 172.173 32.7839 174.27 32.7839C176.366 32.7839 176.427 32.7724 177.79 32.1206C181.315 30.4365 183.333 26.6269 182.744 22.7747C182.104 18.5951 178.42 15.3764 174.371 15.4604C173.729 15.4737 173.007 15.5216 172.767 15.5666ZM185.858 15.7495L182.337 15.7997L182.392 16.552L182.447 17.3044L183.379 17.3581L184.313 17.412V24.2528V31.0936H183.335H182.357V31.8943V32.695H186.445H190.534V31.8943V31.0936H189.552H188.57L188.62 27.7575L188.668 24.4214L189.446 24.4715C191.063 24.576 191.367 25.0965 191.599 28.1556C191.794 30.6863 192.089 31.4818 193.135 32.2798C193.664 32.6845 194.005 32.7876 195.001 32.8439C196.695 32.9397 197.293 32.7886 198.159 32.0462L198.91 31.4028L198.421 30.8924C197.827 30.2711 197.784 30.2688 197.183 30.8267C196.341 31.6072 196.323 31.5675 196.043 28.3357C195.821 25.7391 195.451 24.8696 194.226 24.0419L193.4 23.4844L194.119 22.9058C196.047 21.3549 195.955 18.4559 193.929 16.9057C192.535 15.838 191.369 15.6709 185.858 15.7495ZM29.8539 18.3822V20.9723L30.5859 20.9176C31.2969 20.8645 31.3279 20.8351 31.6773 19.8844C32.3312 18.1045 33.1021 17.3934 34.3775 17.3934H35.0086V24.2434V31.0936H34.0309H33.0534V31.8943V32.695H37.1416H41.2295V31.8943V31.0936H40.252H39.2744V24.2434V17.3934H39.9141C41.2796 17.3934 42.1156 18.1736 42.7263 20.0177C43.0294 20.933 43.0497 20.9518 43.7321 20.9518H44.429V18.3719V15.7921H37.1416H29.8539V18.3822ZM44.9622 16.5927V17.3934H45.9282H46.8941L49.2165 21.6009L51.5386 25.8083V28.451V31.0936H50.5611H49.5835V31.8943V32.695H53.6716H57.7596V31.8943V31.0936H56.7821H55.8044V28.0699V25.0462L57.7132 21.2197L59.6221 17.3934H60.6461H61.6699V16.5927V15.7921H59.0927H56.5155V16.5927C56.5155 17.3891 56.5188 17.3934 57.1375 17.3934C57.4797 17.3934 57.7596 17.4345 57.7596 17.4845C57.7596 17.8275 55.0382 22.9229 54.9214 22.7986C54.8405 22.7125 54.126 21.4811 53.333 20.0622L51.8914 17.4823L52.4261 17.4266C52.9315 17.3738 52.9606 17.3281 52.9606 16.5815V15.7921H48.9614H44.9622V16.5927ZM62.2375 16.5482L62.2922 17.3044L63.2253 17.3581L64.1584 17.412V24.2528V31.0936H63.1708H62.1828L62.2375 31.8496L62.2922 32.6059L69.624 32.6523L76.9559 32.6989V29.5831V26.4675H76.2519C75.5743 26.4675 75.54 26.496 75.345 27.2207C75.0568 28.2925 74.4063 29.502 73.8175 30.0611C72.9822 30.8543 72.1661 31.0936 70.2962 31.0936H68.602V24.2528V17.412L69.5352 17.3581L70.4683 17.3044L70.5228 16.5482L70.5776 15.7921H66.3801H62.1828L62.2375 16.5482ZM77.6669 16.5927V17.3934H78.6444H79.6221V24.2434V31.0936H78.6444H77.6669V31.8943V32.695H85.0432H92.4196V29.6702V26.6455H91.7155C91.0377 26.6455 91.0037 26.6736 90.8082 27.4006C90.5167 28.4847 90.0492 29.3199 89.3691 29.9725C88.4369 30.8669 87.6886 31.0936 85.667 31.0936H83.8801L83.9284 27.7575L83.9767 24.4214L84.7766 24.468C85.8588 24.5312 86.6079 25.3154 86.9202 26.7126L87.1438 27.713H87.8266H88.5093V23.6207V19.5284H87.8181C87.1592 19.5284 87.1212 19.5596 87.0067 20.1957C86.8395 21.1241 86.2779 22.2429 85.8441 22.5126C85.6439 22.6371 85.1216 22.788 84.6839 22.8482L83.8879 22.9575V20.1754V17.3934H85.683C86.9911 17.3934 87.6475 17.474 88.1031 17.6903C88.8327 18.037 89.6697 19.1186 89.9606 20.0909C90.1517 20.729 90.2102 20.774 90.848 20.774H91.5308V18.283V15.7921H84.5989H77.6669V16.5927ZM135.433 16.5927V17.3934H136.411H137.389V24.2434V31.0936H136.411H135.433V31.8943V32.695H138.188H140.943V31.8943V31.0936H139.966H138.988V25.5462V19.999L139.866 21.2743C140.349 21.9756 142.282 24.8323 144.163 27.6222L147.583 32.695H148.351H149.12V25.0533V17.412L150.053 17.3581L150.986 17.3044L151.041 16.5482L151.095 15.7921H148.33H145.565V16.5927V17.3934H146.542H147.52V21.0409C147.52 23.0469 147.493 24.6883 147.461 24.6883C147.428 24.6883 146.052 22.6867 144.402 20.2402L141.403 15.7921H138.418H135.433V16.5927ZM199.278 16.5482L199.332 17.3044L200.265 17.3581L201.199 17.412V24.2528V31.0936H200.221H199.244V31.8943V32.695H206.62H213.996V29.6702V26.6455H213.318C212.648 26.6455 212.639 26.6559 212.333 27.6686C211.938 28.9765 211.025 30.2284 210.15 30.6627C209.628 30.9211 208.984 31.0173 207.464 31.0635L205.465 31.1242V27.8278C205.465 25.964 205.537 24.4866 205.631 24.428C205.909 24.256 207.239 24.5397 207.627 24.8539C207.827 25.0159 208.177 25.7056 208.405 26.3864L208.823 27.624H209.498H210.174V23.6207V19.6175H209.475C208.794 19.6175 208.77 19.6396 208.571 20.4182C208.115 22.194 207.602 22.7302 206.298 22.7873L205.553 22.82L205.504 20.1066L205.456 17.3934H207.335C209.329 17.3934 209.856 17.5437 210.555 18.3106C211.011 18.8117 211.685 20.118 211.685 20.5C211.685 20.701 211.874 20.774 212.396 20.774H213.108V18.283V15.7921H206.165H199.223L199.278 16.5482ZM172.649 17.2932C171.122 17.9582 170.56 19.7763 170.555 24.0656C170.549 29.39 171.25 31.0302 173.676 31.3644C174.907 31.5337 176.148 31.1931 176.817 30.5024C177.824 29.4625 177.973 28.747 178.05 24.5484C178.116 21.1177 178.088 20.6482 177.758 19.562C177.375 18.2958 176.792 17.5631 175.903 17.2268C175.208 16.9639 173.316 17.0025 172.649 17.2932ZM188.666 17.4233C188.613 17.5626 188.591 18.8338 188.618 20.2483L188.668 22.82L189.373 22.7763C190.375 22.7141 190.849 22.178 190.992 20.9438C191.132 19.7439 190.815 18.0758 190.37 17.6725C189.913 17.2585 188.791 17.0946 188.666 17.4233Z" fill="#3C1F1B" fill-opacity="0.78"/>
</svg>
