<svg width="113" height="40" viewBox="0 0 113 40" fill="none" xmlns="http://www.w3.org/2000/svg">
<g clip-path="url(#clip0_5112_752)">
<path d="M1.27711 39.1514C2.08773 36.7326 2.49264 34.6154 2.49264 30.3818V11.0287C2.49264 7.24824 1.68281 5.13184 -0.0380859 3.01465V2.91387L10.6428 -0.00878906V18.7396C12.0098 16.5725 14.6417 13.9014 19.1476 13.9014C23.6025 13.9014 26.7413 16.6232 26.7413 20.9068V30.3826C26.7413 34.6162 27.1463 36.6826 27.9561 39.1521V39.2529H17.3757V39.1521C18.1855 36.7334 18.5904 34.4646 18.5904 30.4334V21.4107C18.5904 19.2436 17.5279 17.6811 15.1486 17.6811C13.2755 17.6811 11.6551 18.7896 10.6428 20.1506V30.3826C10.6428 34.5654 11.0477 36.6826 11.8575 39.1521V39.2529H1.27711V39.1514Z" fill="black"/>
<path d="M42.0648 40.0084C34.3698 40.0084 29.7627 34.4639 29.7627 27.4084C29.7627 19.5459 35.2306 13.9014 42.2672 13.9014C49.3038 13.9014 53.2526 19.5459 53.1003 24.6357L38.014 24.5857C38.2675 31.9943 41.8113 34.3131 46.2662 34.3131C49.759 34.3131 51.8346 32.9021 52.7959 31.8943L53.0493 32.0451C51.6831 36.8334 47.8866 40.0084 42.0648 40.0084ZM38.014 23.5779L45.2029 23.4771V21.5615C45.2029 16.774 43.9371 14.8076 41.9628 14.8076C39.3308 14.8084 38.014 18.992 38.014 23.5779Z" fill="black"/>
<path d="M92.5241 30.3828V24.7375C92.5241 21.0578 91.7645 18.9414 89.9424 16.7742V16.5727L100.624 13.65V30.3828C100.624 34.5156 101.03 36.7328 101.839 39.1523V39.2531H91.2584V39.1523C91.9167 36.682 92.5241 34.5656 92.5241 30.3828ZM95.8152 10.625C93.385 10.625 91.4616 8.65938 91.4616 6.24063C91.4616 3.87187 93.385 1.90625 95.8152 1.90625C98.2447 1.90625 100.27 3.87187 100.27 6.24063C100.27 8.65938 98.2447 10.625 95.8152 10.625Z" fill="black"/>
<path d="M104.495 35.2712C104.495 32.9024 106.368 31.0376 108.748 31.0376C111.127 31.0376 113 32.9024 113 35.2712C113 37.6399 111.127 39.5048 108.748 39.5048C106.368 39.5048 104.495 37.6399 104.495 35.2712Z" fill="black"/>
<path d="M82.3252 15.5268V15.7385C83.3374 16.7463 86.0957 18.9924 84.4761 22.7721L81.9446 29.2744L76.7866 13.6502L68.9205 15.8025L70.8808 21.5182L70.8776 21.526C70.8713 21.5221 70.8635 21.5166 70.8572 21.5119L70.869 21.5455L67.4405 30.0299L62.1507 13.6494L53.8633 15.9104L62.6318 39.6057H64.5559L71.4261 23.1088L77.084 39.6057H79.0081L89.1766 13.6494L82.3252 15.5268Z" fill="black"/>
<path d="M89.1445 13.6719L82.3174 15.5469Z" fill="black"/>
</g>
<defs>
<clipPath id="clip0_5112_752">
<rect width="113" height="40" fill="white"/>
</clipPath>
</defs>
</svg>
