<svg width="200" height="40" viewBox="0 0 200 40" fill="none" xmlns="http://www.w3.org/2000/svg">
<path d="M43.762 8.79833L45.132 4H36.167L25.707 15.43H19.3636L22.652 4H13.032L3.84863 36H13.472L16.7553 24.57H24.8436L28.117 36H35.9853L37.357 31.2017L33.8336 19.085L43.762 8.79833ZM73.2053 4H49.5503L40.367 36H49.9903L53.2403 24.57H58.052L64.4203 36H72.512L73.8836 31.2017L69.6053 24.57C72.797 24.0683 75.8553 22.375 77.3653 16.9383L78.6853 12.2267C78.8703 11.5883 79.0053 10.9933 79.057 10.3983C79.0996 9.94346 79.094 9.48536 79.0403 9.03167C78.6736 6.055 76.442 4 73.2053 4ZM67.747 16.8033H55.5053L56.6853 12.6867H68.932L67.747 16.8033ZM93.8003 12.6867H109.5L113.467 9.485L115.045 4H86.6203L77.437 36H105.862L108.345 27.3183H89.6003L90.527 24.1167H109.265L111.625 15.8883H92.8803L93.802 12.6883L93.8003 12.6867ZM130.329 4L111.362 31.2017L109.99 36H119.83L122.729 31.2017H135.849L136.009 36H144.975L146.347 31.2017L143.009 4H130.329ZM127.934 22.975L134.275 13.1417H134.715L135.367 22.97H127.934V22.975ZM185.439 4L173.612 18.9067H172.257L168.982 4H158.265L150.495 31.2017L149.089 36H158.784L163.782 18.5017H164.465L166.73 31.2017H172.085L181.632 18.5017H182.319L177.28 36H186.97L188.32 31.2017L196.154 4H185.439Z" fill="black"/>
</svg>
