<svg width="106" height="40" viewBox="0 0 106 40" fill="none" xmlns="http://www.w3.org/2000/svg">
<path d="M0.00355382 0.00797687C4.94056 0.00797687 9.87639 0.00442108 14.8134 0.013909C15.7918 0.015095 16.7595 0.138439 17.6988 0.437307C19.4424 0.989978 20.5061 2.15936 20.8911 3.94783C21.0237 4.56336 21.0782 5.18481 21.0782 5.81339C21.0759 8.51388 21.0782 11.2144 21.0711 13.9137C21.0688 14.5577 21.0534 15.204 21.0012 15.8457C20.9444 16.5371 20.7608 17.2048 20.4682 17.8369C19.915 19.0324 18.9959 19.8175 17.7604 20.2433C17.5697 20.3085 17.3755 20.3655 17.1267 20.4437C17.3423 20.5173 17.5093 20.5766 17.6775 20.6323C18.9023 21.0403 19.8475 21.7851 20.4469 22.9402C20.7631 23.5498 20.9467 24.2057 21.0605 24.8817C21.2488 26.0072 21.1777 27.1422 21.1848 28.2748C21.1848 28.3946 21.1789 28.5144 21.1789 28.6342C21.1813 32.2004 21.1848 35.7667 21.1872 39.3341C21.1872 39.4516 21.1872 39.569 21.1872 39.703H12.4965C12.4965 39.5583 12.4965 39.4326 12.4965 39.3057C12.4977 34.6614 12.5001 30.0158 12.4977 25.3715C12.4977 25.0133 12.4847 24.6516 12.4302 24.2982C12.307 23.4905 11.8 23.0387 10.9827 23.0138C10.2933 22.9924 9.60276 23.009 8.88259 23.009C8.84942 23.8108 8.8743 24.5982 8.86956 25.3869C8.86482 26.1792 8.86837 26.9726 8.86719 27.7648C8.86719 28.5571 8.86719 29.3505 8.86719 30.1427C8.86719 30.9445 8.86719 31.7462 8.86719 32.5479C8.86719 33.3402 8.86719 34.1336 8.86719 34.9258C8.86719 35.7181 8.86719 36.5115 8.86719 37.3037C8.86719 38.096 8.86719 38.887 8.86719 39.6733C8.63029 39.7362 0.781772 39.7599 0.0746238 39.7042C0.0521183 39.6413 0.0260591 39.5678 0 39.4943C0 26.3333 0 13.1713 0 0.0103512L0.00355382 0.00797687ZM8.86837 5.32357C8.8743 9.45556 8.86127 13.5603 8.87548 17.6733C8.95603 17.6839 9.00104 17.6946 9.04486 17.6946C9.63475 17.6946 10.2234 17.6958 10.8133 17.6887C10.9685 17.6863 11.126 17.6673 11.28 17.6365C11.8225 17.5298 12.1885 17.2202 12.3555 16.683C12.4586 16.3533 12.4977 16.0176 12.4977 15.6749C12.4989 12.9103 12.5012 10.1458 12.4965 7.38126C12.4965 7.08833 12.4704 6.78946 12.4089 6.50363C12.2537 5.779 11.8059 5.36746 11.0692 5.33069C10.3537 5.29392 9.63475 5.32239 8.86837 5.32239V5.32357Z" fill="black"/>
<path d="M40.1061 0.00655824C40.2115 0.00655824 40.3027 0.00655824 40.3939 0.00655824C45.0454 0.00655824 49.697 0.00537211 54.3497 0.0101161C55.3944 0.011302 56.4273 0.120411 57.4259 0.448929C58.4125 0.77389 59.2595 1.30166 59.8529 2.18047C60.2722 2.80193 60.5245 3.49455 60.6288 4.23105C60.7105 4.81337 60.7721 5.40399 60.7756 5.99105C60.7898 8.7461 60.7863 11.5023 60.778 14.2586C60.7756 15.2299 60.6667 16.1894 60.3291 17.1097C59.8197 18.4949 58.8662 19.4259 57.4803 19.9193C57.3844 19.9537 57.2896 19.9857 57.1937 20.0177C57.1072 20.0462 57.0208 20.0747 56.9272 20.1446C57.0551 20.1826 57.1842 20.2205 57.3121 20.2585C58.1377 20.4957 58.8899 20.8669 59.5189 21.4658C60.2225 22.1371 60.6216 22.9744 60.855 23.903C61.0386 24.6312 61.0966 25.3748 61.0966 26.1232C61.0978 28.6576 61.099 31.1921 61.0966 33.7266C61.0966 34.5401 61.0279 35.3442 60.8088 36.1329C60.367 37.7281 59.34 38.754 57.7836 39.2711C56.9284 39.5557 56.0447 39.6731 55.1492 39.7075C54.6162 39.7277 54.0808 39.7194 53.5466 39.7194C49.19 39.7194 44.8322 39.7194 40.4756 39.7205C40.3572 39.7205 40.2387 39.7205 40.1262 39.7205C40.0658 39.5023 40.0468 0.380143 40.1072 0.00537109L40.1061 0.00655824ZM48.8844 17.7134C49.62 17.692 50.3212 17.7003 51.0153 17.6446C51.6715 17.5924 52.0766 17.2235 52.2283 16.5772C52.3053 16.2487 52.3432 15.9035 52.3443 15.5655C52.3538 12.8555 52.3514 10.1468 52.3467 7.43677C52.3467 7.16162 52.3242 6.8841 52.2804 6.61251C52.1832 6.0124 51.8836 5.56291 51.2676 5.3945C51.0923 5.34587 50.9052 5.32334 50.7228 5.31978C50.1791 5.31029 49.6354 5.31504 49.0929 5.31741C49.023 5.31741 48.9543 5.33283 48.8844 5.34113V17.7134ZM48.8809 34.4275C49.6046 34.4132 50.3046 34.4346 50.9987 34.3741C51.6313 34.3195 52.0387 33.9282 52.1809 33.3032C52.2437 33.0268 52.2875 32.7398 52.2887 32.4576C52.297 29.9694 52.2981 27.4811 52.2887 24.9929C52.2887 24.7012 52.2508 24.4023 52.1821 24.1189C52.0174 23.4381 51.5685 23.074 50.8708 23.0135C50.7796 23.0052 50.6872 23.0029 50.5948 23.0017C50.0879 23.0017 49.5821 23.0017 49.0751 23.0017C49.0135 23.0017 48.9531 23.0147 48.8797 23.023V34.4275H48.8809Z" fill="black"/>
<path d="M106 17.7143V39.7014H98.3444V36.4909C98.2366 36.415 98.1774 36.4363 98.1383 36.517C98.1229 36.5502 98.1146 36.587 98.104 36.6214C97.6195 38.1762 96.5357 39.1096 95.0243 39.6089C94.2295 39.871 93.4086 39.9884 92.5794 39.9979C91.7053 40.0074 90.8299 39.9813 89.9569 39.9267C89.1752 39.8781 88.4064 39.7298 87.6709 39.4369C86.5172 38.9779 85.7638 38.1513 85.3931 36.97C85.0946 36.0189 85.0081 35.0393 85.0069 34.0501C85.0045 29.8944 85.0069 25.7376 85.0069 21.5818C85.0069 16.5224 85.0069 11.463 85.0069 6.40358C85.0069 5.54493 85.0863 4.69457 85.2722 3.85371C85.6762 2.03203 86.792 0.898225 88.5711 0.390623C89.508 0.123776 90.4687 0.0146632 91.4364 0.0111052C94.1074 -0.000754658 96.7785 -0.00312547 99.4496 0.0122924C100.549 0.0182223 101.633 0.161725 102.674 0.551915C104.318 1.16981 105.26 2.37359 105.618 4.06718C105.75 4.69101 105.803 5.32433 105.803 5.96121C105.806 8.56919 105.806 11.1772 105.807 13.7852C105.807 13.9773 105.807 14.1694 105.807 14.4007C103.084 14.422 100.382 14.4149 97.6527 14.4102C97.6527 14.2868 97.6527 14.1967 97.6527 14.1066C97.6527 11.8769 97.6538 9.64607 97.6467 7.41641C97.6467 7.13296 97.6183 6.84477 97.565 6.56606C97.4217 5.81889 97.0474 5.43581 96.3035 5.34449C95.8688 5.29112 95.4163 5.28994 94.9816 5.34449C94.1904 5.44412 93.7722 5.91377 93.6881 6.72735C93.6526 7.07485 93.6372 7.4259 93.6372 7.77577C93.6348 14.1066 93.6348 20.4374 93.6348 26.7694C93.6348 28.6397 93.6313 30.5112 93.6396 32.3815C93.6408 32.7301 93.6621 33.0836 93.7296 33.4251C93.88 34.1948 94.2709 34.5696 95.0503 34.6502C95.4767 34.6941 95.915 34.6728 96.3426 34.6277C97.0249 34.5566 97.411 34.1249 97.5472 33.4761C97.6136 33.163 97.6456 32.8369 97.6467 32.5167C97.6538 29.439 97.6503 26.3602 97.6491 23.2826C97.6491 23.2019 97.6385 23.1201 97.6313 23.005H95.5703V17.7132H105.997L106 17.7143Z" fill="black"/>
<path d="M75.3693 39.7028C75.1039 37.3712 74.841 35.0502 74.5768 32.7268H71.1003C70.8516 35.0573 70.6064 37.37 70.3576 39.7004H61.5615C63.0066 26.4743 64.4505 13.2648 65.8909 0.0789725C65.9146 0.0516948 65.9205 0.0445793 65.9276 0.0386493C65.9347 0.0327194 65.9406 0.0232334 65.9489 0.0220474C65.9845 0.0161175 66.0212 0.0078125 66.0579 0.0078125C70.7189 0.0078125 75.3799 0.00781366 80.041 0.00899965C80.067 0.00899965 80.0931 0.0208608 80.1511 0.0362787C81.595 13.2458 83.0389 26.4636 84.4852 39.7028H75.3681H75.3693ZM74.4643 27.4101C74.4537 27.193 74.4465 27.0104 74.4335 26.8277C74.3672 25.9003 74.2973 24.9729 74.2333 24.0442C74.1516 22.8772 74.0746 21.7102 73.9929 20.5432C73.891 19.101 73.7844 17.6589 73.6837 16.2167C73.6008 15.0402 73.525 13.8649 73.4433 12.6884C73.3177 10.8786 73.1898 9.06876 73.0607 7.25894C73.0512 7.13323 73.0346 7.00751 73.0204 6.87942H72.6923C72.2149 13.719 71.7388 20.5432 71.259 27.4077C72.3358 27.4148 73.3876 27.4053 74.4643 27.4101Z" fill="black"/>
<path d="M31.3099 33.8997H38.7355V39.6719C38.7355 39.6719 38.7272 39.6814 38.7201 39.6885C38.713 39.6945 38.7071 39.7051 38.7 39.7051C38.6265 39.7111 38.5531 39.7182 38.4797 39.7182C33.1932 39.7182 27.9056 39.7182 22.6192 39.717C22.5943 39.717 22.5682 39.7016 22.5244 39.6873V0.056374C22.7317 -0.00529735 38.238 -0.0242713 38.6337 0.0397721V5.83688C36.1924 5.83925 33.7582 5.84162 31.3087 5.844V17.3682H38.4074V23.1997C36.0467 23.2021 33.686 23.2045 31.3099 23.2069V33.8985V33.8997Z" fill="black"/>
</svg>
