<svg width="252" height="59" viewBox="0 0 252 59" fill="none" xmlns="http://www.w3.org/2000/svg">
<path fill-rule="evenodd" clip-rule="evenodd" d="M24.8676 0.621573C23.8489 0.955317 23.2436 1.35513 22.1284 2.43076C21.2553 3.27265 20.7319 3.57178 19.5968 3.87722C17.5329 4.43256 13.62 6.48266 11.4501 8.14577C5.89139 12.4058 2.19031 18.4006 0.789964 25.412C0.34351 27.6474 0.334486 32.7555 0.772354 35.3191C1.90126 41.928 5.14797 47.7053 10.1318 51.9743C13.5267 54.8823 17.3792 56.826 21.8755 57.8998C25.2134 58.6973 30.0283 58.7259 33.3558 57.9684C40.4627 56.3507 46.5757 52.1178 50.5037 46.0943C58.7089 33.5114 55.7285 16.8114 43.6678 7.79226C41.0576 5.84012 36.3487 3.68707 33.684 3.22747C33.0476 3.1178 32.3506 2.74248 31.5559 2.08173C30.3077 1.04386 30.1052 0.965656 28.1825 0.778443C27.5166 0.713717 26.6249 0.610334 26.2011 0.548755C25.7773 0.487399 25.1773 0.520213 24.8676 0.621573ZM24.55 1.61314C23.8948 1.91205 23.901 1.91564 25.312 2.06712C27.2233 2.27209 28.1742 2.93307 28.9865 4.62112C29.5964 5.88958 29.613 6.01902 29.5983 9.40838C29.5854 12.3721 29.4437 13.7808 28.6488 18.8476C28.1348 22.1232 27.6957 25.5618 27.6732 26.489C27.6353 28.0375 27.6678 28.1745 28.0715 28.1745C28.7328 28.1745 28.9506 27.2108 29.7008 20.9624C30.7172 12.4964 30.8838 10.5218 30.7879 8.08532C30.7089 6.07273 30.6243 5.70011 29.9366 4.32445C29.0006 2.45189 27.9174 1.58549 26.3098 1.42278C25.6358 1.35468 24.9548 1.42818 24.55 1.61314ZM29.408 1.93902C29.9603 2.32738 31.527 4.7218 32.1576 6.14174C32.5335 6.98789 33.3622 9.76326 33.9993 12.3089C35.0838 16.6418 35.195 16.9508 35.7385 17.1477C36.0579 17.2634 36.3678 17.3084 36.4272 17.2477C36.5653 17.1068 34.7734 10.0487 34.0472 7.87226C33.5228 6.30063 32.5686 4.47143 31.7206 3.41177C31.253 2.82744 29.763 1.76574 29.4174 1.77046C29.2471 1.77294 29.2442 1.82395 29.408 1.93902ZM23.1191 3.05983C22.217 3.51986 21.1445 5.0652 20.4658 6.88271C19.8028 8.65909 16.0359 23.9662 16.118 24.5504C16.2078 25.1897 16.8667 25.2793 17.1734 24.6943C17.3099 24.4341 18.1099 21.1666 18.9513 17.4329C21.2742 7.12388 21.7571 5.64416 23.4602 3.61292C24.3337 2.57123 24.2721 2.47167 23.1191 3.05983ZM25.5134 4.13768C24.9535 5.42952 24.7689 8.14914 24.983 11.9419C25.1431 14.7748 25.1498 14.8022 25.6791 14.8022C26.2085 14.8022 26.212 14.7881 26.0473 13.2852C25.9559 12.451 25.8789 10.2006 25.876 8.28468C25.8718 5.38413 25.9355 4.68066 26.2562 4.08196C26.7277 3.20141 26.7317 3.11555 26.2988 3.11555C26.1038 3.11555 25.7652 3.55627 25.5134 4.13768ZM27.12 4.1831C27.0113 4.39929 26.8574 4.85463 26.7777 5.19443C26.6361 5.799 26.6549 5.81249 27.6224 5.81249C28.5797 5.81249 28.6051 5.79473 28.408 5.26568C28.13 4.51886 27.6699 3.78979 27.4768 3.78979C27.389 3.78979 27.2285 3.96689 27.12 4.1831ZM23.3797 5.11263C22.7989 6.16758 22.791 6.26286 23.2841 6.25861C23.918 6.25275 24.1711 5.96913 24.3343 5.0816C24.5459 3.92958 24.0217 3.94665 23.3797 5.11263ZM108.386 5.19443C108.389 5.85991 107.544 8.53481 105.602 14.0156C104.068 18.342 102.605 22.3052 102.349 22.8224C101.857 23.8197 100.879 24.4663 99.8616 24.4663C99.3543 24.4663 99.2893 24.5558 99.2893 25.2529V26.0394H103.692H108.095V25.2797V24.5203L106.745 24.4205C104.571 24.2599 104.469 23.8174 105.773 20.1961L106.46 18.2858H110.044H113.628L114.493 20.4208C115.849 23.7709 115.66 24.4663 113.393 24.4663H112.278V25.2529V26.0394H117.782H123.285V25.2778C123.285 24.5893 123.213 24.5023 122.535 24.3724C121.209 24.1186 120.583 23.1651 118.931 18.8805C118.09 16.6993 116.478 12.5128 115.348 9.57695L113.295 4.23927H110.839H108.383L108.386 5.19443ZM155.261 4.52134L151.024 4.75395V5.47874C151.024 6.17365 151.065 6.20826 152.039 6.3204C152.665 6.39232 153.235 6.62156 153.525 6.91778C153.988 7.39065 153.996 7.52413 153.996 15.4747C153.996 24.6677 154.088 24.2228 152.141 24.4138C151.031 24.5226 151.024 24.5289 151.024 25.3095V26.0954L158.233 25.9749C165.966 25.8454 166.999 25.7203 169.805 24.5717C171.432 23.9053 173.286 22.355 174.339 20.7799C176.306 17.837 176.6 13.6205 175.069 10.3074C174.377 8.80923 172.467 6.82652 170.881 5.96036C168.32 4.56179 163.17 4.08734 155.261 4.52134ZM183.055 4.47458C181.844 4.56336 180.284 4.64786 179.587 4.66247L178.321 4.68876V5.44458V6.2004L179.765 6.31882C181.461 6.45773 181.73 6.71505 181.927 8.38648C182.155 10.3231 182.079 21.8193 181.832 22.7266C181.541 23.7965 180.923 24.2067 179.29 24.415C178.03 24.5755 177.991 24.6007 177.991 25.2537V25.927L184.816 25.9915C192.388 26.0631 193.797 25.9239 195.867 24.8999C198.9 23.3999 200.276 20.1422 199.045 17.3868C198.552 16.2896 197.029 14.8348 195.772 14.2624L194.839 13.8381L195.892 13.341C198.322 12.1909 199.058 9.64751 197.595 7.44885C195.811 4.77035 191.383 3.86439 183.055 4.47458ZM210.307 4.84968C210.39 5.2976 209.614 7.7745 207.571 13.5662C206.003 18.0161 204.563 22.0308 204.372 22.4873C203.86 23.707 203.157 24.2761 202.001 24.4091C201.029 24.5209 200.997 24.5496 200.997 25.2821V26.0394H205.509H210.023V25.2529V24.4663H208.861C208.142 24.4663 207.503 24.3263 207.185 24.0992C206.549 23.6451 206.617 23.036 207.621 20.1734L208.322 18.1734H211.9H215.479L216.383 20.4986C216.881 21.7775 217.286 23.0345 217.286 23.2919C217.286 24.1004 216.699 24.4663 215.4 24.4663H214.205V25.2529V26.0394H219.723H225.241L225.172 25.3428C225.114 24.7631 224.963 24.5977 224.276 24.3573C222.662 23.7937 222.608 23.6934 219.412 15.3641C218.132 12.0266 216.657 8.18354 216.134 6.82384L215.182 4.35165L212.685 4.28782L210.189 4.224L210.307 4.84968ZM236.55 4.46627C233.673 5.0025 231.495 6.16466 229.666 8.13903C227.649 10.3159 226.83 12.7503 227.048 15.926C227.122 16.9766 227.328 18.3226 227.51 18.9173C229.07 24.018 233.652 26.7445 240.1 26.4088C242.388 26.2895 243.721 25.9954 246.512 24.9935L248.107 24.4205L248.115 23.0388C248.134 19.2929 248.285 18.0786 248.779 17.6693C249.042 17.4522 249.544 17.2744 249.893 17.2744C250.474 17.2744 250.528 17.2056 250.528 16.484V15.6936L244.97 15.7536L239.411 15.8136V16.4878V17.1621L241.041 17.2913C243.358 17.4751 243.485 17.6725 243.485 21.1142V23.7805L242.778 24.1529C241.593 24.7791 239.577 24.8201 237.754 24.2548C236.418 23.8408 235.967 23.5637 234.97 22.5456C232.024 19.538 231.238 14.4955 233.084 10.4651C233.968 8.53751 234.901 7.52391 236.552 6.69371C237.783 6.07476 238.168 5.99227 239.822 5.99227C241.35 5.99227 241.919 6.09544 242.884 6.54739C244.705 7.39782 245.924 8.85304 246.644 11.0378C246.729 11.2967 247.001 11.4311 247.441 11.4311C247.92 11.4311 248.115 11.3203 248.132 11.0378C248.161 10.5867 248.159 8.32873 248.128 6.41929L248.107 5.116L246.843 5.25601C245.92 5.35805 245.068 5.26838 243.705 4.92496C241.558 4.38447 238.158 4.16646 236.55 4.46627ZM34.0673 5.6464C34.6042 6.65436 34.8153 6.83754 35.8416 7.18971C40.2061 8.68696 45.0441 12.4939 47.7481 16.5591C49.1583 18.6791 50.5711 21.8457 51.2254 24.3539C51.7492 26.3611 51.8139 27.0218 51.8299 30.5343C51.8454 33.8901 51.777 34.7517 51.3636 36.404C49.5885 43.5041 44.7794 49.5966 38.3613 52.8767C36.5769 53.7885 33.5514 54.7461 31.503 55.0467C28.5524 55.4801 23.6933 55.2083 21.2489 54.4731C10.5855 51.2667 3.53144 41.7272 3.52704 30.5077C3.52329 21.0371 8.77045 12.5265 17.2231 8.29298C19.2315 7.28724 19.4753 7.09668 19.8511 6.24018C20.0787 5.72101 20.216 5.24613 20.1563 5.18501C19.9646 4.98947 17.3427 6.05184 15.4627 7.087C6.26013 12.1539 0.923593 22.0422 1.75882 32.4792C2.43951 40.9854 6.71407 48.4423 13.4708 52.911C16.236 54.74 18.5024 55.7164 22.134 56.6444C24.994 57.3751 30.4649 57.3643 33.4328 56.622C42.5887 54.3319 49.5269 47.9237 52.5356 38.9783C53.7661 35.3197 54.159 30.1929 53.5095 26.2641C51.8056 15.9543 44.4036 7.59268 34.5077 4.79889L33.4581 4.50267L34.0673 5.6464ZM72.1381 4.83867C72.0574 4.92092 71.9914 5.26186 71.9914 5.59628C71.9914 6.15364 72.0804 6.21613 73.061 6.34894C75.0232 6.61459 74.9543 6.30242 75.0265 15.2529L75.0895 23.0735L74.579 23.6796C74.2023 24.1266 73.7957 24.3171 73.0297 24.4052C72.0207 24.5213 71.9914 24.5461 71.9914 25.2821V26.0394H77.3849H82.7785V25.2529C82.7785 24.5248 82.7281 24.4663 82.1035 24.4663C81.3475 24.4663 80.601 24.1215 80.1988 23.5868C80.0148 23.3423 79.9285 22.1179 79.9237 19.6904L79.9166 16.1507H85.2001H90.4836V19.5113C90.4836 21.4956 90.3834 23.0962 90.2392 23.4196C89.9536 24.0594 89.1889 24.4663 88.2718 24.4663C87.6755 24.4663 87.6217 24.5315 87.6217 25.2529V26.0394H93.0153H98.4089V25.2529C98.4089 24.5059 98.3706 24.4663 97.6487 24.4663C96.5957 24.4663 95.8409 24.0671 95.5532 23.3583C95.387 22.9487 95.33 20.3232 95.3733 15.0953C95.4461 6.32288 95.3804 6.61415 97.339 6.34894C98.3791 6.20803 98.4089 6.18286 98.4089 5.44638V4.68876H93.0153H87.6217V5.44975C87.6217 6.18128 87.6609 6.21703 88.6282 6.36512C90.3728 6.63213 90.4836 6.88744 90.4836 10.6445V13.9033H85.2001H79.9166V10.7872C79.9166 7.09015 80.1168 6.61841 81.794 6.36175C82.737 6.21725 82.7785 6.17882 82.7785 5.44975V4.68876H77.5317C74.6458 4.68876 72.2188 4.75618 72.1381 4.83867ZM124.386 5.45042C124.386 6.14645 124.454 6.22488 125.176 6.36333C125.611 6.44649 126.205 6.6256 126.497 6.76157L127.028 7.00835V14.8047C127.028 19.9909 126.945 22.8437 126.78 23.325C126.516 24.0989 125.882 24.4663 124.812 24.4663C124.22 24.4663 124.166 24.5321 124.166 25.2579V26.0493L128.294 25.9882L132.421 25.927V25.2555C132.421 24.6212 132.361 24.5755 131.32 24.4243C130.531 24.3096 130.08 24.0989 129.724 23.6784C129.234 23.0987 129.229 23.0224 129.229 16.2539V9.41514L131.722 12.0525C133.093 13.503 136.585 17.2423 139.482 20.3617L144.749 26.0337L145.795 26.0364L146.841 26.0394V16.635C146.841 5.88891 146.72 6.51885 148.82 6.31299C149.906 6.20645 149.923 6.19342 149.923 5.4421V4.67932L145.575 4.74023L141.227 4.80114L141.16 5.49896C141.094 6.19299 141.101 6.19746 142.353 6.32939C144.566 6.56245 144.518 6.41525 144.595 13.289L144.661 19.1807L144.162 18.6209C143.888 18.313 140.852 15.0524 137.416 11.3749L131.168 4.68876H127.777H124.386V5.45042ZM186.687 9.52075V13.229H188.565C191.355 13.229 192.652 12.5701 193.084 10.9337C193.463 9.50053 193.135 8.07767 192.209 7.12948C191.265 6.16263 190.2 5.8154 188.173 5.81383L186.687 5.81249V9.52075ZM159.994 6.20939L158.949 6.28669V14.8841C158.949 21.8362 159.007 23.5625 159.252 23.9053C159.91 24.8236 164.336 24.5429 166.575 23.4409C169.669 21.9182 171.415 17.9383 170.841 13.7208C170.103 8.30445 166.396 5.73697 159.994 6.20939ZM109.769 8.95891C109.7 9.14431 109.107 10.813 108.452 12.6672L107.259 16.0383L109.908 16.1017C111.365 16.1366 112.597 16.1249 112.645 16.0761C112.693 16.0271 112.093 14.3298 111.313 12.3044C110.513 10.2296 109.839 8.769 109.769 8.95891ZM210.397 12.3761C209.702 14.3656 209.171 16.0321 209.218 16.0792C209.264 16.1264 210.492 16.1366 211.948 16.1017L214.593 16.0383L213.243 12.5152C212.502 10.5777 211.842 8.93979 211.778 8.87551C211.714 8.81124 211.093 10.3865 210.397 12.3761ZM186.699 18.4543C186.718 23.813 187.001 24.3236 189.879 24.1846C192.698 24.0486 193.911 22.9505 194.113 20.3508C194.308 17.8338 193.457 16.0633 191.649 15.2248C190.995 14.9214 190.221 14.8108 188.723 14.8072L186.687 14.8022L186.699 18.4543ZM14.2893 18.6739C12.1629 25.5594 11.01 31.5252 11.0124 35.6319C11.0148 40.2483 11.3812 40.6289 18.8263 43.7541C23.6491 45.7784 30.8298 48.5874 30.9141 48.4827C30.9502 48.438 30.897 47.5924 30.796 46.6035C30.3635 42.3721 31.5731 31.7067 33.4788 22.9509C33.8348 21.3139 34.1264 19.9428 34.1264 19.9042C34.1264 19.7713 31.0524 18.315 30.9792 18.4128C30.9389 18.4665 30.6456 20.5645 30.3276 23.0749C29.6451 28.4573 29.4128 29.0735 28.0665 29.0735C27.0596 29.0735 26.65 28.505 26.6446 27.0998C26.6419 26.3544 27.5535 19.5205 27.8693 17.9179C27.9829 17.3434 27.9365 17.314 26.3784 16.9712C24.2827 16.5103 22.3659 16.193 21.1603 16.1073L20.192 16.0383L19.4761 19.1526C18.9348 21.5078 18.808 22.436 18.9555 22.9609C19.3634 24.4134 18.3463 26.4957 16.7789 27.4164L15.9644 27.8952V29.9451C15.9644 32.8901 15.7251 34.1302 15.1569 34.1302C14.8148 34.1302 14.7443 34.0356 14.8634 33.7369C14.9499 33.5207 15.0655 32.1806 15.1205 30.759L15.2205 28.1745L14.7573 28.7171C14.4669 29.0573 14.3802 29.314 14.5246 29.4051C14.8467 29.6081 14.6415 31.467 14.201 32.3365C13.8776 32.9749 13.76 33.0396 13.1509 32.9152C12.7738 32.8381 12.2413 32.6256 11.9676 32.4423C11.4875 32.1212 11.4815 32.0767 11.7968 31.1646C11.9764 30.6449 12.319 30.0336 12.5578 29.8064C12.7969 29.5791 12.9924 29.296 12.9924 29.1772C12.9924 29.0581 13.1029 28.9612 13.2383 28.9612C13.3803 28.9612 13.4406 29.1934 13.381 29.5117C13.3143 29.8677 13.3942 30.1079 13.6068 30.1911C14.0982 30.3837 14.201 30.1489 13.8875 29.5507C13.5668 28.9389 13.8019 28.2959 14.5396 27.7684C14.9473 27.4769 14.9627 27.3573 14.7329 26.2639C14.3835 24.6001 14.5708 23.0695 15.2339 22.1721C15.5769 21.7079 16.0029 20.5107 16.3769 18.96C16.7049 17.6003 17.0255 16.3107 17.0891 16.0945C17.1875 15.7603 17.0545 15.7012 16.2061 15.7012H15.2073L14.2893 18.6739ZM37.3185 19.443C37.0764 19.4944 36.4773 19.6416 35.9874 19.7702L35.0966 20.0042L34.3874 23.4151C32.5543 32.2336 31.6129 39.881 31.7444 44.8849C31.8614 49.3358 32.0682 49.6461 34.6114 49.1852C36.5684 48.8302 40.1917 47.7327 40.8414 47.2981C42.1525 46.4207 42.4174 44.1493 42.0747 36.7149C41.8247 31.2869 41.4785 27.7292 40.7052 22.6314C40.2895 19.8913 40.1888 19.5468 39.7696 19.432C39.2535 19.2906 38.0084 19.2962 37.3185 19.443ZM20.0298 21.6762C19.9109 21.9959 19.7895 22.5742 19.7601 22.9613C19.6976 23.7886 19.9576 23.9116 23.3417 24.6514C25.2277 25.0641 25.4564 25.0742 25.6968 24.757C25.9695 24.3969 26.3301 22.5001 26.1589 22.3255C26.076 22.2409 20.6813 21.0951 20.3656 21.0951C20.3 21.0951 20.149 21.3567 20.0298 21.6762ZM15.521 26.219C15.6029 26.5523 15.7022 26.8582 15.7416 26.8984C15.8697 27.0291 17.0884 26.3047 17.4114 25.9058C17.7024 25.5464 17.6894 25.5407 17.2348 25.8297C16.8423 26.0792 16.6072 26.0887 16.0581 25.8772C15.3812 25.6164 15.3739 25.6209 15.521 26.219ZM115.711 32.0846C115.498 32.3248 114.802 32.8001 114.166 33.1403C113.053 33.735 113.008 33.7949 113.018 34.675C113.027 35.5484 112.098 38.2362 108.157 48.7386C106.449 53.2902 106.361 53.4195 104.947 53.5029C103.881 53.566 103.797 53.6131 103.733 54.1886L103.663 54.8068H107.435H111.207L111.137 54.1886C111.071 53.6028 111.001 53.567 109.79 53.5029C108.973 53.4595 108.472 53.3261 108.399 53.1323C108.291 52.8453 109.026 50.3984 110.072 47.5587L110.549 46.2664H114.243H117.939L118.87 49.3971C119.382 51.1189 119.767 52.7119 119.725 52.9368C119.671 53.2262 119.391 53.3787 118.77 53.4582C118.008 53.5557 117.882 53.6525 117.822 54.1886L117.752 54.8068H122.074H126.396L126.327 54.1886C126.267 53.6608 126.145 53.5612 125.487 53.5063C124.12 53.3923 123.564 53.03 123.054 51.9241C122.791 51.3509 121.185 46.6322 119.487 41.4384C117.789 36.2446 116.332 31.917 116.249 31.8212C116.166 31.7256 115.924 31.8441 115.711 32.0846ZM77.652 32.6375C76.1782 33.0622 75.0868 34.0456 74.2247 35.7252C73.5481 37.0434 73.4968 37.2827 73.6116 38.5748C73.8993 41.8109 75.0298 43.0133 79.5864 44.9306C83.1025 46.4101 83.9893 47.4227 83.9893 49.9583C83.9893 51.2886 83.9028 51.6656 83.4587 52.2698C82.2281 53.9444 79.5096 54.3231 77.555 53.0923C76.2682 52.282 75.1744 50.5307 74.9597 48.9365C74.8276 47.9564 74.7489 47.823 74.3378 47.8833C73.9005 47.9474 73.8493 48.1569 73.6118 50.8737C73.4715 52.4807 73.4018 53.8711 73.4576 53.9639C73.6404 54.2693 74.0826 54.1396 74.3502 53.7022C74.6027 53.2892 74.6848 53.3088 76.3439 54.1741C80.3228 56.2492 84.3278 55.1681 85.8819 51.599C86.5582 50.0452 86.6182 46.8067 85.9933 45.5921C84.8817 43.4326 84.3004 43.0044 80.7972 41.7676C77.2042 40.4986 76.1367 39.559 76.0108 37.5544C75.9181 36.0796 76.3474 35.0063 77.3208 34.2778C78.0557 33.7279 80.0112 33.5296 81.0955 33.8946C82.2234 34.2748 83.7889 35.9842 84.2187 37.305C84.4801 38.1088 84.6873 38.4004 84.9976 38.4004C85.4969 38.4004 85.4965 38.408 85.1679 35.0988C85.0271 33.6808 84.8157 32.557 84.6898 32.557C84.5658 32.557 84.2988 32.7098 84.0965 32.8969C83.7682 33.2 83.6248 33.1982 82.7583 32.8807C81.4077 32.3855 78.9348 32.2679 77.652 32.6375ZM173.058 32.5762C170.572 33.0742 168.791 35.4461 168.817 38.2255C168.846 41.3259 170.185 43.0147 173.808 44.5216C176.941 45.8237 177.719 46.3159 178.487 47.48C179.104 48.4157 179.202 48.7573 179.202 49.9664C179.202 51.1601 179.106 51.5032 178.557 52.2777C177.321 54.0197 174.537 54.3633 172.573 53.0166C171.468 52.2595 170.452 50.7763 170.279 49.6679C170.019 48.0063 169.95 47.8395 169.531 47.8395C169.065 47.8395 168.962 48.2876 168.735 51.3231C168.661 52.312 168.552 53.2987 168.493 53.5155C168.32 54.1471 169.068 54.289 169.498 53.7065L169.865 53.2104L171.146 53.9978C172.66 54.9286 174.427 55.353 176.131 55.1953C177.713 55.049 178.928 54.407 180.019 53.1418C182.068 50.7647 182.189 46.5388 180.275 44.1684C179.489 43.1939 178.703 42.7523 176.076 41.807C173.54 40.8944 172.549 40.359 171.868 39.5329C170.677 38.0877 170.969 35.3794 172.43 34.3172C173.354 33.6451 175.167 33.5055 176.454 34.0074C177.648 34.4729 178.858 35.8494 179.373 37.3275C179.641 38.1003 179.863 38.4004 180.166 38.4004C180.56 38.4004 180.577 38.2712 180.435 36.3214C180.16 32.52 180.023 32.1358 179.211 32.8856C178.899 33.1746 178.689 33.1612 177.468 32.7733C176.012 32.3104 174.68 32.2509 173.058 32.5762ZM219.049 32.5732C217.144 32.9138 215.578 33.8197 213.857 35.5738C211.307 38.1745 210.073 41.3905 210.314 44.8056C210.683 50.0405 213.539 53.512 218.555 54.8214C222.592 55.8757 226.205 54.9245 228.96 52.0802C231.144 49.8278 232.258 47.046 232.258 43.8493C232.258 39.309 229.738 35.2472 225.701 33.281C224.318 32.6079 223.832 32.4898 222.177 32.4283C221.123 32.3889 219.715 32.4541 219.049 32.5732ZM88.8411 32.9925C88.76 33.1261 88.7566 33.4367 88.8332 33.6827C88.9527 34.0673 89.1676 34.1302 90.3597 34.1302H91.7467L91.8832 34.973C92.0601 36.0644 92.0244 48.9467 91.8377 51.4356L91.6944 53.3458L90.3734 53.4582C89.1406 53.5632 89.0526 53.6082 89.0526 54.1325V54.6942L93.4396 54.7555C95.9097 54.7898 97.9155 54.726 98.0296 54.6093C98.1411 54.4957 98.1663 54.19 98.0856 53.9304C97.959 53.523 97.7657 53.4582 96.6769 53.4582C95.9828 53.4582 95.2959 53.3369 95.1507 53.1885C94.9657 52.9997 94.8866 51.7616 94.8866 49.0595V45.2002L97.9134 45.0924C100.549 44.9982 101.097 44.9111 102.151 44.4167C105.004 43.0797 106.378 40.2293 105.563 37.3411C105.273 36.3149 104.952 35.7991 104.044 34.8957C102.177 33.04 101.705 32.9341 94.8541 32.8346C90.8045 32.776 88.9425 32.8247 88.8411 32.9925ZM141.447 33.2032C140.401 33.692 138.578 35.6221 138.132 36.7123C137.957 37.1385 137.815 37.7763 137.815 38.1297C137.815 38.9582 138.927 40.6695 139.908 41.3517C140.329 41.6444 140.672 41.9345 140.669 41.9962C140.667 42.0581 140.064 42.5132 139.33 43.0076C134.663 46.1519 133.64 51.1374 137.109 53.8348C138.335 54.789 139.522 55.1371 141.557 55.1409C143.813 55.145 145.301 54.3944 147.42 52.1833L148.99 50.5451L150.339 52.2099C152.964 55.4496 155.769 56.0973 158.766 54.1563C160.019 53.345 161.315 51.5283 161.003 51.0221C160.65 50.452 160.408 50.511 159.829 51.3075C158.871 52.6264 158.016 53.0787 156.694 52.9658C155.21 52.8392 154.211 52.1645 152.28 49.9867L150.785 48.3002L151.968 46.6652C152.619 45.7659 153.623 44.3414 154.199 43.4998C155.291 41.9059 155.823 41.5468 157.092 41.5468C157.752 41.5468 157.848 41.4751 157.848 40.9849V40.4231H154.546H151.244V40.9709C151.244 41.4203 151.368 41.5308 151.937 41.5888C153.045 41.7011 153.176 42.2008 152.465 43.5985C151.977 44.5563 151.115 45.9142 150.212 47.1465C150.174 47.1982 149.412 46.4397 148.519 45.461C147.625 44.4824 146.242 43.182 145.446 42.5714L143.998 41.4609L144.903 40.6697C146.112 39.6138 147.061 38.0491 147.061 37.113C147.061 35.5344 145.967 33.9804 144.309 33.2041C143.2 32.6848 142.557 32.6844 141.447 33.2032ZM184.086 33.3999C184.151 33.9772 184.238 34.0253 185.404 34.1315C186.091 34.194 186.735 34.3287 186.835 34.431C187.079 34.6791 187.194 49.0123 186.972 51.4356L186.797 53.3458L185.531 53.4132C184.291 53.4794 184.266 53.4942 184.266 54.1437V54.8068H188.573H192.88L192.811 54.1886C192.746 53.6143 192.656 53.5628 191.53 53.4582L190.319 53.3458L190.183 51.6603C190.108 50.7331 190.034 48.6347 190.018 46.9969L189.989 44.019H196.011H202.031L201.939 48.4577C201.887 50.8989 201.806 53.0229 201.757 53.1773C201.701 53.3612 201.211 53.4582 200.342 53.4582H199.016V54.1325V54.8068H203.433H207.851L207.781 54.1886C207.716 53.6149 207.625 53.5624 206.509 53.4582C205.457 53.36 205.289 53.2754 205.155 52.784C204.901 51.8448 204.931 35.0542 205.186 34.565C205.366 34.2248 205.652 34.1302 206.507 34.1302C207.575 34.1302 207.602 34.1146 207.602 33.4561V32.7817H203.418H199.236V33.4448C199.236 34.0943 199.261 34.1091 200.5 34.1751L201.767 34.2425L201.912 38.288C201.991 40.5128 202.01 42.4092 201.954 42.502C201.896 42.5947 199.182 42.6705 195.921 42.6705H189.989L190.015 39.9173C190.029 38.4033 190.104 36.5069 190.18 35.7035L190.319 34.2425L191.64 34.1302C192.886 34.0241 192.965 33.9825 193.031 33.3999L193.1 32.7817H188.558H184.016L184.086 33.3999ZM234.497 33.3837C234.567 34.0003 234.609 34.0196 236.024 34.0835L237.478 34.1493L237.617 35.6568C237.789 37.4974 237.76 46.1655 237.569 50.3119L237.43 53.3458L236.109 53.4582C234.864 53.5644 234.785 53.6058 234.719 54.1886L234.65 54.8068H239.177H243.705V54.1325C243.705 53.4607 243.699 53.4582 242.427 53.4582C241.726 53.4582 241.033 53.3369 240.886 53.1885C240.703 52.9997 240.624 51.761 240.624 49.0569V45.1949L243.539 45.0861C246.939 44.9594 248.057 44.6294 249.507 43.3253C250.847 42.1226 251.442 40.8047 251.449 39.0252C251.457 37.1359 250.944 35.9233 249.623 34.711C247.791 33.0293 247.312 32.9311 240.442 32.8344L234.426 32.7494L234.497 33.3837ZM218.615 34.0563C217.379 34.5201 215.543 36.3648 214.773 37.917C212.975 41.5393 213.201 46.5146 215.319 49.8832C218.041 54.2129 223.183 55.1998 226.4 52.009C227.601 50.8177 228.191 49.6691 228.749 47.4483C229.802 43.2439 228.734 38.8634 225.965 36.0331C225.349 35.4039 224.365 34.6586 223.778 34.3769C222.36 33.6965 219.968 33.5479 218.615 34.0563ZM95.0333 34.0555C94.9526 34.1377 94.8866 36.3581 94.8866 38.9895V43.7738L95.6782 43.9255C96.1134 44.0089 97.1087 44.0247 97.8895 43.9608C99.0333 43.867 99.536 43.6908 100.475 43.0541C101.952 42.053 102.436 41.0728 102.436 39.0829C102.436 36.6946 101.291 35.0156 99.1248 34.2262C98.2708 33.9149 95.2924 33.7907 95.0333 34.0555ZM240.788 34.0324C240.697 34.1276 240.624 36.351 240.624 38.9735C240.624 44.4347 240.436 44.0099 242.846 44.0158C244.298 44.0194 245.273 43.7172 246.389 42.9165C247.659 42.0053 248.107 40.9927 248.107 39.0319C248.107 37.5752 248.026 37.2337 247.464 36.3289C246.474 34.7333 245.167 34.061 242.84 33.95C241.801 33.9005 240.878 33.9376 240.788 34.0324ZM141.225 34.8741C140.809 35.2992 140.383 36.0447 140.234 36.6124C139.899 37.8818 140.268 38.656 141.825 39.949C143.076 40.9874 143.339 40.9539 144.327 39.6319C144.943 38.8084 145.243 37.2983 144.994 36.2828C144.916 35.9686 144.547 35.3558 144.173 34.921C143.244 33.841 142.252 33.8252 141.225 34.8741ZM14.3131 34.6119C14.3131 34.7794 14.0134 35.563 13.6475 36.3528C12.8222 38.1337 12.9187 38.5525 14.1986 38.7484C14.7289 38.8297 15.2687 38.8293 15.3984 38.7475C15.5375 38.6595 15.6341 37.7751 15.6341 36.5891C15.6341 35.0043 15.5681 34.5798 15.322 34.5798C15.1503 34.5798 14.8531 34.5185 14.6615 34.4434C14.4493 34.3602 14.3133 34.4262 14.3131 34.6119ZM113.484 37.9925C113.025 39.2674 112.279 41.3471 111.829 42.6144L111.009 44.918H114.175C116.337 44.918 117.341 44.8393 117.341 44.6698C117.341 44.2928 114.675 36.0668 114.485 35.8574C114.393 35.7567 113.943 36.7174 113.484 37.9925ZM140.512 43.5542C139.574 44.2484 138.752 45.2505 138.19 46.3867C136.979 48.8349 137.97 51.4713 140.565 52.7052C142.763 53.7501 144.672 53.221 146.909 50.9464L148.188 49.6461L147.496 48.6179C146.066 46.4968 142.406 42.8952 141.681 42.8952C141.528 42.8952 141.002 43.1917 140.512 43.5542Z" fill="#3C1F1B" fill-opacity="0.78"/>
</svg>
