<svg width="100" height="20" viewBox="0 0 100 20" fill="none" xmlns="http://www.w3.org/2000/svg">
<g clip-path="url(#clip0_5112_730)">
<path d="M92.7362 13.75L99.9998 20V15L94.1924 10.0028L99.9998 5V0L89.8506 8.74295V6.24995L82.5869 0V5L88.3944 9.9972L82.5869 15V20L92.7362 11.2572V13.75Z" fill="black"/>
<path d="M10.0995 8.4L6.84079 7.775C5.02482 7.425 4.22886 7 4.22886 6C4.22886 4.59997 5.79601 3.87497 7.76119 3.87497C9.82587 3.87497 11.6667 4.67497 12.0647 6.375H15.5474C15.1493 3.12501 12.2389 1 7.76119 1C3.63185 1 0.373137 2.82506 0.373137 6.12505C0.373137 9.00005 2.81095 10.4501 6.06965 11.0751L9.32835 11.7001C11.1443 12.0501 12.0647 12.625 12.0647 13.75C12.0647 15.275 10.3731 16.125 8.28358 16.125C5.72139 16.125 4.00498 14.875 3.60697 13H0C0.522383 16.75 3.45772 19 8.28358 19C12.5871 19 15.9204 17.2501 15.9204 13.625C15.9204 10.425 13.3582 9.025 10.0995 8.4Z" fill="black"/>
<path d="M24.2039 3.12501V1.25H20.597V2.62501C20.597 4.24999 19.8507 5 18.2338 5H17.2139V7.75H20.0746V14.5C20.0746 17.5 21.5422 18.75 25.0248 18.75H27.985V16H25.3482C24.1044 16 23.6815 15.625 23.6815 14.5V7.75H27.985V5H22.6368L24.2039 3.12501Z" fill="black"/>
<path d="M55.3978 16.2498C52.7859 16.2498 51.1192 14.3998 51.1192 11.8998C51.1192 9.39981 52.7859 7.54981 55.3978 7.54981C57.4127 7.54981 58.8555 8.67481 59.2286 10.0498H62.7859C62.1391 6.79981 59.3281 4.7998 55.3978 4.7998C50.6963 4.7998 47.4375 7.64981 47.4375 11.8998C47.4375 16.1498 50.6963 18.9998 55.3978 18.9998C59.3281 18.9998 62.4127 16.9998 62.9102 13.6248H59.353C58.9799 14.8748 57.6366 16.2498 55.3978 16.2498Z" fill="black"/>
<path d="M37.4875 4.7998C32.6368 4.7998 29.5273 7.64981 29.5273 11.8998C29.5273 16.1498 32.6368 18.9998 37.4875 18.9998C42.3383 18.9998 45.4478 16.1498 45.4478 11.8998C45.4478 7.64981 42.3383 4.7998 37.4875 4.7998ZM37.4875 16.2498C34.8756 16.2498 33.2089 14.3998 33.2089 11.8998C33.2089 9.39981 34.8756 7.54981 37.4875 7.54981C40.0995 7.54981 41.7662 9.39981 41.7662 11.8998C41.7662 14.3998 40.0995 16.2498 37.4875 16.2498Z" fill="black"/>
<path d="M72.2146 11.4501L79.7021 5.00005H74.8514L68.732 10.4001V1.25H65.125V18.75H68.732V14.4501L70.8947 12.5871L76.1449 18.75H80.722L74.5031 11.4501H72.2146Z" fill="black"/>
</g>
<defs>
<clipPath id="clip0_5112_730">
<rect width="100" height="20" fill="white"/>
</clipPath>
</defs>
</svg>
