<svg width="211" height="35" viewBox="0 0 211 35" fill="none" xmlns="http://www.w3.org/2000/svg">
<mask id="mask0_431_152" style="mask-type:luminance" maskUnits="userSpaceOnUse" x="0" y="0" width="211" height="35">
<path d="M210.931 0.22998H0.757812V34.2878H210.931V0.22998Z" fill="white"/>
</mask>
<g mask="url(#mask0_431_152)">
<mask id="mask1_431_152" style="mask-type:luminance" maskUnits="userSpaceOnUse" x="0" y="0" width="211" height="34">
<path d="M210.93 0.838379H0.757324V33.6798H210.93V0.838379Z" fill="white"/>
</mask>
<g mask="url(#mask1_431_152)">
<path fill-rule="evenodd" clip-rule="evenodd" d="M0.757324 1.35704H5.9773V33.1619H0.757324V1.35704ZM43.0494 21.6975L21.8436 0.86676V33.1612H26.8626V12.4702L48.0685 33.6528V1.35704H43.0494V21.6975ZM75.3103 15.4459L70.3426 13.5806C67.7825 12.6498 66.3261 11.716 66.3261 9.38594C66.3261 6.7962 68.6361 5.55242 71.747 5.55242C75.3603 5.55242 78.1719 6.95088 80.7306 8.97158V3.42812C78.2723 1.77139 75.1101 0.838379 71.6466 0.838379C65.9748 0.838379 61.2572 3.89428 61.2572 9.48882C61.2572 14.7201 64.3689 16.9998 68.4844 18.5537L72.9512 20.2118C75.7116 21.2995 77.2677 22.2842 77.2677 24.7697C77.2677 27.6184 74.8081 28.9141 71.2946 28.9141C67.682 28.9141 64.3182 27.568 61.5073 25.2358V30.8822C63.6663 32.4367 67.179 33.6798 71.2946 33.6798C77.5697 33.6798 82.3367 30.4671 82.3367 24.6661C82.3367 20.0564 80.1292 17.2587 75.3103 15.4459ZM94.0963 1.35704H99.3155V33.1619H94.0963V1.35704ZM127.262 1.35775H115.442V33.1619H127.262C136.347 33.1619 142.219 26.9458 142.219 17.2587C142.219 7.57313 136.347 1.35775 127.262 1.35775ZM127.062 28.3457H120.662V6.12287H127.062C133.534 6.12287 136.999 10.4218 136.999 17.2587C136.999 24.0439 133.535 28.3457 127.062 28.3457ZM154.066 33.1619H172.761V28.3457H159.185V18.4891H171.354V13.775H159.185V6.12216H172.761V1.35704H154.066V33.1619ZM199.851 20.0564C204.719 19.2795 207.015 16.2229 207.015 10.8873C207.015 4.6719 202.901 1.35704 196.526 1.35704H185.346V33.1619H190.565V20.2636H194.28L205.008 33.1619H210.93L199.851 20.0564ZM190.565 15.7567V6.01857H196.425C199.887 6.01857 201.846 7.93498 201.846 10.8873C201.846 13.8403 199.887 15.7567 196.425 15.7567H190.565Z" fill="#3C1F1B" fill-opacity="0.78"/>
</g>
</g>
</svg>
