<svg width="115" height="40" viewBox="0 0 115 40" fill="none" xmlns="http://www.w3.org/2000/svg">
<path d="M18.1177 10.4107C18.1177 3.75719 15.362 0.449978 9.86993 0.430176H0V39.5107H5.74604V27.1036L11.3356 24.4421C12.8993 23.7571 14.3066 22.7982 15.4986 21.6046C16.3977 20.6064 17.0818 19.4324 17.4922 18.1604C17.9418 16.5556 18.1568 14.8922 18.1177 13.2289V10.4107ZM11.7658 16.3599C11.2576 17.2992 10.4367 18.0233 9.45948 18.4342L5.74604 20.2542V6.1251H8.57999C9.9481 6.1251 10.9448 6.51645 11.5313 7.35778C12.1176 8.19937 12.4106 9.39323 12.4106 11.0175V12.9157C12.4694 14.0897 12.2347 15.264 11.7658 16.3599Z" fill="black"/>
<path d="M84.6082 0H83.6504C77.924 0 74.8359 3.09199 74.8359 8.82601V31.1547C74.8359 36.8885 77.924 39.9804 83.6504 39.9804L84.6082 40C90.3346 40 93.4227 36.9083 93.4227 31.1742V8.82601C93.4227 3.09199 90.3346 0 84.6082 0ZM87.8329 30.3915C87.8329 32.681 86.6018 34.3642 84.315 34.3642H83.9631C81.6961 34.3642 80.4452 32.681 80.4452 30.3915V9.53028C80.4452 7.2408 81.6766 5.55788 83.9631 5.55788H84.315C86.6018 5.55788 87.8329 7.2408 87.8329 9.53028V30.3915Z" fill="black"/>
<path d="M50.5421 0.430176H44.542V39.5107H50.5421V0.430176Z" fill="black"/>
<path d="M54.6465 5.98805H65.8651L54.6465 36.2035V39.5107H71.2006L72.3929 33.9137H61.1939L72.3929 3.6983V0.430176H55.8778L54.6465 5.98805Z" fill="black"/>
<path d="M109.273 0.430176V21.0567L101.866 0.430176H97.5469V39.5107H103.273V18.6299L110.681 39.5107H115V0.430176H109.273Z" fill="black"/>
<path d="M31.4656 0H30.4885C24.7619 0 21.6738 3.09199 21.6738 8.82601V31.1547C21.6738 36.8885 24.7619 39.9804 30.4885 39.9804L31.4656 40C37.192 40 40.2801 36.9083 40.2801 31.1742V8.82601C40.2801 3.09199 37.192 0 31.4656 0ZM34.671 29.6675V30.3915C34.671 32.681 33.4397 34.3642 31.1529 34.3642H30.801C28.5145 34.3642 27.2831 32.681 27.2831 30.3915V9.53028C27.2831 7.2408 28.5145 5.55788 30.801 5.55788H31.1529C33.4397 5.55788 34.671 7.2408 34.671 9.53028V29.687V29.6675Z" fill="black"/>
<path d="M27.2646 30.0192L34.6718 20.8608V9.90186L27.2646 19.0603V30.0192Z" fill="black"/>
</svg>
