<svg width="181" height="47" viewBox="0 0 181 47" fill="none" xmlns="http://www.w3.org/2000/svg">
<mask id="mask0_431_163" style="mask-type:luminance" maskUnits="userSpaceOnUse" x="0" y="0" width="181" height="47">
<path d="M180.45 0.790527H0.927002V46.2453H180.45V0.790527Z" fill="white"/>
</mask>
<g mask="url(#mask0_431_163)">
<mask id="mask1_431_163" style="mask-type:luminance" maskUnits="userSpaceOnUse" x="0" y="1" width="181" height="45">
<path d="M180.45 1.42114H0.927002V45.6133H180.45V1.42114Z" fill="white"/>
</mask>
<g mask="url(#mask1_431_163)">
<path d="M102.696 15.8259C102.696 10.6686 102.786 5.86704 103.058 1.42114L89.193 3.99975V5.24461L90.5524 5.42244C91.5492 5.51136 92.1836 5.86703 92.5461 6.40054C92.9085 7.02296 93.1804 7.91215 93.3617 9.2459C93.5429 11.8245 93.7241 17.6931 93.6334 26.9406C93.6334 36.0991 93.5429 41.8788 93.3617 44.1017C98.3459 45.1687 102.243 45.6133 105.142 45.6133C110.58 45.6133 114.839 44.1017 117.92 40.9895C121.001 37.9664 122.633 33.6983 122.633 28.4522C122.633 24.273 121.454 20.8052 119.098 18.0487C116.742 15.2923 113.752 13.9586 110.217 13.9586C107.861 13.9586 105.414 14.5809 102.696 15.8259ZM102.968 43.2125C102.786 40.3672 102.605 31.831 102.605 17.871C103.421 17.6042 104.508 17.4264 105.868 17.4264C108.042 17.4264 109.764 18.4933 111.033 20.7163C112.302 22.9393 112.936 25.6067 112.936 28.9857C112.936 33.1647 112.211 36.5437 110.761 39.389C109.311 42.1455 107.499 43.5682 105.233 43.5682C104.508 43.3903 103.783 43.3014 102.968 43.2125ZM37.1758 2.31033H0.927002V4.08868L2.83006 4.26651C4.28002 4.53327 5.27687 5.06677 5.91122 5.86704C6.54557 6.75621 6.90807 8.17889 6.99869 10.1351C7.72366 19.7381 7.72366 28.7189 6.99869 36.9882C6.81745 38.9444 6.45495 40.3672 5.91122 41.2563C5.27687 42.1455 4.28002 42.679 2.83006 42.8568L0.927002 43.1236V44.9019H24.3075V43.1236L21.8607 42.9457C20.4108 42.7679 19.4139 42.1455 18.7795 41.3452C18.1452 40.4561 17.7826 39.0333 17.6921 37.0771C17.4202 33.5204 17.239 29.4302 17.239 24.8954L22.1326 24.9844C24.7606 25.0733 26.573 27.0295 27.4792 30.9419H29.2917V16.4482H27.4792C26.573 20.2717 24.8512 22.2279 22.1326 22.3168L17.239 22.4057C17.239 14.4031 17.4202 8.7124 17.6921 5.24461H24.8512C29.9261 5.24461 33.3697 8.44565 35.3634 14.8477L37.5383 14.2252L37.1758 2.31033ZM32.9166 29.697C32.9166 34.3207 34.2759 38.1442 36.904 41.1674C39.532 44.1905 43.4288 45.6133 48.3224 45.6133C53.216 45.6133 57.2033 44.1017 60.1032 40.9895C63.0031 37.9664 64.3625 34.1429 64.3625 29.5191C64.3625 24.8954 63.0031 21.072 60.3751 18.0487C57.7471 15.0255 53.8503 13.6029 48.9567 13.6029C44.0631 13.6029 40.0757 15.1145 37.1758 18.2267C34.2759 21.2498 32.9166 25.0733 32.9166 29.697ZM53.1254 19.5604C54.2128 22.139 54.6659 25.5179 54.6659 29.608C54.6659 39.0333 52.6722 43.6571 48.7755 43.6571C46.7818 43.6571 45.2412 42.3234 44.1538 39.6558C43.0663 36.9882 42.6132 33.6094 42.6132 29.608C42.6132 20.2717 44.6068 15.648 48.5036 15.648C50.4973 15.5591 52.0379 16.8928 53.1254 19.5604ZM129.701 41.1674C132.692 44.1017 136.498 45.6133 141.03 45.6133C143.839 45.6133 146.286 45.0798 148.46 43.9239C150.636 42.8568 152.357 41.5231 153.535 39.9226L152.629 38.8555C150.636 40.3672 148.37 41.0785 145.742 41.0785C142.117 41.0785 139.307 39.9226 137.404 37.5217C135.411 35.1209 134.505 32.0978 134.685 28.1854H154.079C154.079 23.9173 152.992 20.4495 150.725 17.6931C148.46 15.0255 145.288 13.6918 141.211 13.6918C136.135 13.6918 132.239 15.2923 129.429 18.4044C126.621 21.5166 125.261 25.3401 125.261 29.8748C125.261 34.4986 126.71 38.2331 129.701 41.1674ZM136.407 18.849C137.404 16.715 138.674 15.648 140.395 15.648C143.113 15.648 144.473 19.0269 144.473 25.8735L134.867 26.0513C134.957 23.3839 135.411 20.9831 136.407 18.849ZM178.457 15.2923C176.009 14.2252 172.929 13.6029 169.212 13.6029C165.406 13.6029 162.417 14.5809 160.15 16.4482C157.885 18.3155 156.707 20.6274 156.707 23.3839C156.707 25.7846 157.432 27.6518 158.791 28.9857C160.15 30.3194 162.326 31.4753 165.134 32.4535C167.673 33.3426 169.484 34.2318 170.39 35.032C171.297 35.9212 171.84 36.8993 171.84 38.2331C171.84 39.4779 171.388 40.6338 170.39 41.5231C169.484 42.5011 168.216 42.9457 166.584 42.9457C162.597 42.9457 159.607 40.1004 157.522 34.4097L155.983 34.8543L156.344 43.746C159.607 44.9908 163.232 45.6133 167.219 45.6133C171.388 45.6133 174.559 44.7241 176.916 42.8568C179.272 41.0785 180.45 38.4999 180.45 35.2988C180.45 33.1647 179.906 31.3864 178.728 30.0527C177.55 28.7189 175.646 27.5629 172.929 26.496C169.938 25.429 167.853 24.4508 166.766 23.5617C165.678 22.6725 165.134 21.6055 165.134 20.2717C165.134 18.9379 165.497 17.871 166.313 16.9817C167.128 16.0926 168.125 15.7369 169.394 15.7369C173.018 15.7369 175.646 18.3155 177.278 23.3839L178.819 22.9393L178.457 15.2923ZM91.2773 14.492C90.0086 13.8697 88.6493 13.6029 87.1087 13.6029C85.5681 13.6029 84.0275 14.2252 82.3057 15.4702C80.5839 16.715 79.3151 18.4044 78.3183 20.7163L78.4089 13.6029L64.6344 16.2705V17.5153L65.9937 17.6042C67.7155 17.782 68.7123 19.1158 68.8936 21.5166C69.4374 27.0295 69.4374 32.8981 68.8936 39.1223C68.7123 41.5231 67.7155 42.7679 65.9937 43.0346L64.6344 43.2125V44.9019H83.8463V43.2125L81.3995 43.0346C79.6777 42.8568 78.6808 41.5231 78.4996 39.1223C77.9559 33.965 77.8652 28.4522 78.3183 22.7614C78.8621 21.8723 80.0402 21.3387 81.8526 21.1609C83.6651 20.9831 85.7494 21.5166 87.9242 22.7614L91.2773 14.492Z" fill="#3C1F1B" fill-opacity="0.78"/>
</g>
</g>
</svg>
