<svg width="897" height="745" viewBox="0 0 897 745" fill="none" xmlns="http://www.w3.org/2000/svg">
<g clip-path="url(#clip0_362_858)">
<rect x="1035" y="744.711" width="528.745" height="744.711" rx="17.8731" transform="rotate(-180 1035 744.711)" fill="white"/>
<circle cx="737.876" cy="372.354" r="376.242" transform="rotate(-180 737.876 372.354)" fill="url(#paint0_radial_362_858)"/>
</g>
<g clip-path="url(#clip1_362_858)">
<rect x="944.685" y="744.711" width="528.745" height="744.711" rx="17.8731" transform="rotate(-180 944.685 744.711)" fill="white"/>
<circle cx="647.562" cy="372.354" r="376.242" transform="rotate(-180 647.562 372.354)" fill="url(#paint1_radial_362_858)"/>
</g>
<g clip-path="url(#clip2_362_858)">
<rect x="854.372" y="744.711" width="528.745" height="744.711" rx="17.8731" transform="rotate(-180 854.372 744.711)" fill="white"/>
<circle cx="557.251" cy="372.354" r="376.242" transform="rotate(-180 557.251 372.354)" fill="url(#paint2_radial_362_858)"/>
</g>
<g clip-path="url(#clip3_362_858)">
<rect x="764.058" y="744.711" width="528.745" height="744.711" rx="17.8731" transform="rotate(-180 764.058 744.711)" fill="white"/>
<circle cx="466.926" cy="372.354" r="376.242" transform="rotate(-180 466.926 372.354)" fill="url(#paint3_radial_362_858)"/>
</g>
<g clip-path="url(#clip4_362_858)">
<rect x="674" y="745" width="674" height="745" rx="17.8731" transform="rotate(-180 674 745)" fill="white"/>
<circle cx="376.879" cy="372.643" r="376.242" transform="rotate(-180 376.879 372.643)" fill="url(#paint4_radial_362_858)"/>
</g>
<defs>
<radialGradient id="paint0_radial_362_858" cx="0" cy="0" r="1" gradientUnits="userSpaceOnUse" gradientTransform="translate(737.876 372.354) rotate(90) scale(376.242)">
<stop stop-color="#3C1F1B"/>
<stop offset="1" stop-color="white" stop-opacity="0"/>
</radialGradient>
<radialGradient id="paint1_radial_362_858" cx="0" cy="0" r="1" gradientUnits="userSpaceOnUse" gradientTransform="translate(647.562 372.354) rotate(90) scale(376.242)">
<stop stop-color="#3C1F1B"/>
<stop offset="1" stop-color="white" stop-opacity="0"/>
</radialGradient>
<radialGradient id="paint2_radial_362_858" cx="0" cy="0" r="1" gradientUnits="userSpaceOnUse" gradientTransform="translate(557.251 372.354) rotate(90) scale(376.242)">
<stop stop-color="#3C1F1B"/>
<stop offset="1" stop-color="white" stop-opacity="0"/>
</radialGradient>
<radialGradient id="paint3_radial_362_858" cx="0" cy="0" r="1" gradientUnits="userSpaceOnUse" gradientTransform="translate(466.926 372.354) rotate(90) scale(376.242)">
<stop stop-color="#3C1F1B"/>
<stop offset="1" stop-color="white" stop-opacity="0"/>
</radialGradient>
<radialGradient id="paint4_radial_362_858" cx="0" cy="0" r="1" gradientUnits="userSpaceOnUse" gradientTransform="translate(376.879 372.643) rotate(90) scale(376.242)">
<stop stop-color="#3C1F1B"/>
<stop offset="1" stop-color="white" stop-opacity="0"/>
</radialGradient>
<clipPath id="clip0_362_858">
<rect x="1035" y="744.711" width="528.745" height="744.711" rx="17.8731" transform="rotate(-180 1035 744.711)" fill="white"/>
</clipPath>
<clipPath id="clip1_362_858">
<rect x="944.685" y="744.711" width="528.745" height="744.711" rx="17.8731" transform="rotate(-180 944.685 744.711)" fill="white"/>
</clipPath>
<clipPath id="clip2_362_858">
<rect x="854.372" y="744.711" width="528.745" height="744.711" rx="17.8731" transform="rotate(-180 854.372 744.711)" fill="white"/>
</clipPath>
<clipPath id="clip3_362_858">
<rect x="764.058" y="744.711" width="528.745" height="744.711" rx="17.8731" transform="rotate(-180 764.058 744.711)" fill="white"/>
</clipPath>
<clipPath id="clip4_362_858">
<rect x="674" y="745" width="674" height="745" rx="17.8731" transform="rotate(-180 674 745)" fill="white"/>
</clipPath>
</defs>
</svg>
