<svg width="134" height="59" viewBox="0 0 134 59" fill="none" xmlns="http://www.w3.org/2000/svg">
<path fill-rule="evenodd" clip-rule="evenodd" d="M122.906 0.607412C120.283 0.93278 117.874 2.59998 116.766 4.85783C115.175 8.09633 116.642 11.9232 119.474 11.9232C120.485 11.9232 121.558 11.0573 121.815 10.0331C122.021 9.21437 121.288 7.80657 120.449 7.40841C119.86 7.12862 119.648 7.13429 118.763 7.4524C117.567 7.88252 117.382 7.81064 117.382 6.91435C117.382 5.42762 118.611 3.62507 120.189 2.79589C121.486 2.11408 123.934 2.09663 125.205 2.76029C127.413 3.91303 128.38 6.30647 128.212 10.2039C128.011 14.864 127.085 16.3682 120.306 23.0527L115.342 27.9467V29.4579V30.9691H123.958C128.697 30.9691 132.586 30.9436 132.599 30.9124C132.613 30.8814 132.795 28.9429 133.004 26.6045L133.383 22.3531H132.752C132.152 22.3531 132.12 22.4056 132.111 23.4301C132.097 24.9489 131.772 26.456 131.411 26.6793C130.829 27.0393 128.814 27.1375 123.41 27.0695L117.988 27.0012L121.823 23.2641C131.418 13.9149 132.501 12.5293 133.069 8.87677C133.368 6.95289 132.993 5.31426 131.913 3.82255C130.194 1.45042 126.563 0.154164 122.906 0.607412ZM68.3494 5.06621L55.255 5.1247V6.36995V7.6152H58.5294C60.3304 7.6152 61.8533 7.69524 61.9137 7.79318C61.9743 7.89136 62.0479 18.6811 62.0769 31.7707L62.1299 55.5703L58.8059 55.6331L55.4818 55.6957V56.9367V58.1777H68.871H82.2601L82.192 56.874L82.124 55.5703L78.6662 55.5076L75.2083 55.4451L75.2011 45.4178C75.1973 39.9029 75.1335 34.4578 75.0596 33.3176L74.9254 31.2442L75.6641 31.0821C76.0705 30.9928 77.379 30.9931 78.5721 31.0825C84.8774 31.5551 86.1542 33.3992 86.8818 43.0848C87.3647 49.5129 88.1193 52.1454 90.1118 54.3507C93.5498 58.1559 100.674 59.3672 107.095 57.2379C108.258 56.8525 109.299 56.4214 109.41 56.2803C109.716 55.89 109.454 53.1283 109.135 53.3908C108.995 53.5066 108.245 53.815 107.47 54.0757C104.769 54.9839 102.781 54.5186 102.233 52.8493C102.069 52.3505 101.841 50.1557 101.727 47.972C101.456 42.7879 101.03 40.3477 100.047 38.3338C99.3166 36.8376 97.7294 35.0069 96.0235 33.6932C94.9354 32.8551 91.9327 31.4826 89.5442 30.7309C88.2628 30.3278 87.2426 29.9724 87.2768 29.9414C87.311 29.9103 88.4883 29.6663 89.8929 29.3992C92.9021 28.8272 95.8465 27.84 97.8443 26.7332C99.9296 25.5783 102.264 23.2873 103.113 21.5623C105.121 17.484 104.256 13.5603 100.537 9.87418C98.6688 8.02265 96.5986 6.91934 93.5582 6.15523C89.2728 5.07823 87.0605 4.98255 68.3494 5.06621ZM0.383301 6.74248V8.13715L3.90143 7.98025C6.68403 7.85621 7.43931 7.88456 7.51413 8.11605C7.56605 8.27705 7.64836 19.0965 7.69689 32.1596L7.78508 55.9103H4.19756H0.610044V57.2141V58.5178L22.8876 58.4414C35.1401 58.3995 45.1928 58.3376 45.2269 58.304C45.2942 58.2374 45.6164 51.2842 45.8656 44.5168L46.0223 40.2654H44.7981H43.5737L43.0355 41.7958C42.1684 44.2608 40.1604 48.3477 39.0563 49.8948C37.048 52.7093 34.0621 54.8946 31.4895 55.4328C30.8271 55.5716 28.1486 55.7486 25.5375 55.8265L20.7901 55.968L20.79 41.9381C20.7897 34.2218 20.7221 23.3935 20.6396 17.875L20.4895 7.84193H24.4945H28.4993V6.59487V5.34782H14.4413H0.383301V6.74248ZM74.9817 18.0753V28.5354L79.1197 28.4097C83.2148 28.2853 84.7508 28.0416 86.2054 27.285C88.3996 26.1435 89.2571 23.5501 89.2607 18.0451C89.2647 12.3606 88.576 9.97372 86.5976 8.81442C85.0327 7.89726 83.2778 7.62517 78.893 7.61995L74.9817 7.6152V18.0753Z" fill="#3C1F1B" fill-opacity="0.78"/>
</svg>
