<svg width="188" height="30" viewBox="0 0 188 30" fill="none" xmlns="http://www.w3.org/2000/svg">
<path d="M17.8449 16.3025C18.1093 16.3025 18.4177 16.4049 18.7702 16.6244C18.7702 16.8147 18.6821 17.3415 18.4912 18.1903C18.1093 19.7854 17.8449 20.6196 17.6834 20.6781C16.8315 20.9708 15.9502 21.2488 15.0396 21.5122C14.1437 21.7757 13.0715 21.9074 11.8084 21.9074C10.5452 21.9074 9.38492 21.6879 8.29805 21.2342C7.19648 20.7952 6.2418 20.1805 5.40461 19.4049C3.61273 17.7366 2.7168 15.6586 2.7168 13.1561C2.7168 10.6391 3.61273 8.48786 5.4193 6.70249C7.1818 4.94639 9.34086 4.05371 11.8965 4.05371C14.0409 4.05371 15.8915 4.21469 17.4484 4.53664L18.3443 8.54639C18.3443 8.6342 18.2709 8.70737 18.124 8.80981C17.9771 8.89761 17.8155 8.95615 17.6393 8.95615C17.463 8.95615 17.3455 8.92688 17.3015 8.83908C17.0077 7.93176 16.6259 7.24395 16.1265 6.74639C15.1277 5.69273 13.8059 5.16591 12.1462 5.16591C10.369 5.16591 9.04711 5.89761 8.16586 7.37566C7.38742 8.66347 6.99086 10.3318 6.99086 12.3805C6.99086 14.6781 7.43148 16.5805 8.31273 18.0879C9.35555 19.8586 10.8243 20.7366 12.7043 20.7366C14.4962 20.7366 15.8327 20.0342 16.6846 18.644C17.1252 18.0001 17.4043 17.4586 17.5805 17.0196C17.7274 16.5952 17.8302 16.3464 17.8449 16.3025Z" fill="black"/>
<path d="M25.9091 9.87793C26.8197 9.87793 27.6569 10.0243 28.4353 10.317C29.1991 10.6096 29.86 11.034 30.4328 11.5609C31.5784 12.6877 32.1659 14.0779 32.1659 15.7755C32.1659 17.4291 31.5491 18.8779 30.3447 20.1072C29.1991 21.3072 27.7303 21.9218 25.9531 21.9218C24.1025 21.9218 22.6044 21.3511 21.4441 20.195C20.2984 19.0535 19.7109 17.634 19.7109 15.9804C19.7109 14.3413 20.2984 12.9218 21.4881 11.6926C22.6631 10.4926 24.1319 9.87793 25.9091 9.87793ZM25.5859 10.9609C24.3816 10.9609 23.7059 11.956 23.5738 13.9316C23.515 14.4731 23.4856 14.9999 23.4856 15.5267C23.4856 16.0682 23.5297 16.6535 23.6325 17.2682C23.7206 17.8974 23.8969 18.4535 24.1319 18.9804C24.6313 20.1804 25.3216 20.795 26.1881 20.795C27.4513 20.795 28.1563 19.8145 28.3178 17.8682C28.3472 17.3706 28.3472 16.8438 28.3472 16.3023C28.3472 15.7609 28.2884 15.1755 28.1856 14.5316C28.0828 13.8877 27.9066 13.317 27.6569 12.8048C27.1722 11.5755 26.4672 10.9609 25.5859 10.9609Z" fill="black"/>
<path d="M39.8321 21.834C38.4809 21.7022 37.2765 21.6291 36.1896 21.6291C35.1027 21.6291 33.8984 21.7022 32.5471 21.834C32.4884 21.7462 32.459 21.5852 32.459 21.351C32.459 21.1169 32.4884 20.9413 32.5471 20.8242C33.1052 20.8242 33.5312 20.7657 33.7955 20.6486C34.0599 20.5315 34.2068 20.4291 34.2362 20.3413C34.3684 20.0779 34.4418 19.7266 34.4565 19.3315C34.4712 18.9364 34.4859 18.4388 34.4859 17.8535V6.95103C34.4859 6.36567 34.4565 5.98518 34.3684 5.80957C34.2802 5.63396 34.1627 5.51689 34.0305 5.47298C33.8837 5.41445 33.7221 5.38518 33.5752 5.35591C33.1934 5.25347 32.9143 5.19493 32.738 5.19493C32.6793 5.19493 32.6499 5.06323 32.6352 4.81445C32.6205 4.55103 32.6646 4.40469 32.738 4.34615C34.5299 4.15591 36.1015 3.84859 37.4527 3.4242C37.7024 3.3364 37.8346 3.30713 37.8493 3.30713C38.0402 3.36567 38.1724 3.51201 38.2459 3.79006C38.1871 4.11201 38.143 4.41932 38.0843 4.71201C37.9962 5.10713 37.9668 5.70713 37.9668 6.48274V17.8535C37.9668 19.1852 37.9962 19.9608 38.0843 20.151C38.1724 20.3559 38.2899 20.4876 38.4221 20.5462C38.569 20.6193 38.7305 20.6779 38.8774 20.7218C39.1712 20.7803 39.4943 20.8096 39.8321 20.8096C39.8909 20.912 39.9202 21.0876 39.9202 21.3364C39.9055 21.5705 39.8909 21.7608 39.8321 21.834Z" fill="black"/>
<path d="M46.7208 21.834C45.3695 21.7022 44.1652 21.6291 43.0783 21.6291C41.9914 21.6291 40.787 21.7022 39.4358 21.834C39.377 21.7462 39.3477 21.5852 39.3477 21.351C39.3477 21.1169 39.377 20.9413 39.4358 20.8242C39.9939 20.8242 40.4198 20.7657 40.6842 20.6486C40.9486 20.5315 41.0955 20.4291 41.1248 20.3413C41.257 20.0779 41.3305 19.7266 41.3452 19.3315C41.3598 18.9364 41.3745 18.4388 41.3745 17.8535V6.95103C41.3745 6.36567 41.3452 5.98518 41.257 5.80957C41.1689 5.63396 41.0514 5.51689 40.9192 5.47298C40.7723 5.41445 40.6108 5.38518 40.4639 5.35591C40.082 5.25347 39.803 5.19493 39.6267 5.19493C39.568 5.19493 39.5386 5.06323 39.5239 4.81445C39.5092 4.55103 39.5533 4.40469 39.6267 4.34615C41.4186 4.15591 42.9902 3.84859 44.3414 3.4242C44.5911 3.3364 44.7233 3.30713 44.738 3.30713C44.9289 3.36567 45.0611 3.51201 45.1345 3.79006C45.0758 4.11201 45.0317 4.41932 44.973 4.71201C44.8848 5.10713 44.8555 5.70713 44.8555 6.48274V17.8535C44.8555 19.1852 44.8848 19.9608 44.973 20.151C45.0611 20.3559 45.1786 20.4876 45.3108 20.5462C45.4577 20.6193 45.6192 20.6779 45.7661 20.7218C46.0598 20.7803 46.383 20.8096 46.7208 20.8096C46.7795 20.912 46.8089 21.0876 46.8089 21.3364C46.7942 21.5705 46.7795 21.7608 46.7208 21.834Z" fill="black"/>
<path d="M56.5906 14.9706C54.9897 15.1023 52.86 15.2194 50.2309 15.2925C50.2309 16.9316 50.6862 18.1316 51.5969 18.9072C52.3019 19.4633 53.0509 19.7413 53.8734 19.7413C54.6959 19.7413 55.3275 19.595 55.7828 19.3023C56.2381 19.0096 56.62 18.7169 56.9138 18.4096C57.1194 18.4682 57.2369 18.6145 57.2369 18.8486C57.2369 19.0828 57.1928 19.2877 57.09 19.434C56.9872 19.5804 56.8256 19.7999 56.5466 20.0779C56.2822 20.356 55.9297 20.634 55.5331 20.8974C54.5197 21.5999 53.5209 21.9365 52.5956 21.9365C51.6556 21.9365 50.8478 21.8047 50.1869 21.556C49.5113 21.2925 48.9238 20.9413 48.4097 20.4584C47.3081 19.4194 46.75 18.0584 46.75 16.4047C46.75 14.6925 47.3375 13.1852 48.5272 11.9121C49.7903 10.5511 51.1562 9.86328 52.625 9.86328C54.2112 9.86328 55.4156 10.3316 56.2528 11.2682C56.9578 12.0145 57.2956 12.8925 57.2956 13.873C57.2956 14.1657 57.2222 14.4291 57.09 14.634C56.9725 14.8682 56.7962 14.9706 56.5906 14.9706ZM50.2163 14.2535C50.275 14.2535 50.4513 14.2389 50.7597 14.2243C51.0681 14.2096 51.4059 14.195 51.7878 14.1657C52.6397 14.1365 53.2713 14.0925 53.6384 14.0486C53.8881 14.0194 54.0056 13.873 54.0056 13.595C54.0056 13.3169 53.9763 13.0096 53.9175 12.7023C53.8588 12.3804 53.7706 12.0877 53.6384 11.8682C53.3447 11.2828 52.9628 10.9755 52.4928 10.9755C52.0228 10.9755 51.6556 11.1072 51.3913 11.356C51.1269 11.6194 50.8919 11.9121 50.7156 12.2486C50.3925 12.9365 50.2163 13.6096 50.2163 14.2535Z" fill="black"/>
<path d="M68.4293 18.4242C68.635 18.4828 68.7525 18.5852 68.7525 18.7462V19.1413C68.7525 19.3023 68.5762 19.5803 68.209 19.9462C67.8418 20.3267 67.4453 20.6486 67.0193 20.8974C66.0206 21.5998 65.0659 21.9364 64.1406 21.9364C63.2153 21.9364 62.4221 21.8047 61.7465 21.5559C61.0709 21.2925 60.4834 20.9413 59.9693 20.4584C58.8384 19.3901 58.2803 18.0437 58.2803 16.4047C58.2803 14.751 58.9853 13.2437 60.3806 11.912C61.8053 10.5218 63.4209 9.81934 65.2128 9.81934C66.4759 9.81934 67.3718 9.98031 67.9153 10.3023C68.2678 10.6535 68.444 11.0486 68.444 11.4876C68.444 11.9267 68.3118 12.3218 68.0475 12.6876C67.7831 13.0535 67.4306 13.2291 67.0047 13.2291C66.564 13.2291 66.2409 13.0828 65.9912 12.8047C65.7415 12.5267 65.5212 12.2632 65.3156 12.0291C64.8309 11.4876 64.2287 11.2242 63.4943 11.2242C62.9509 11.2242 62.4956 11.6193 62.1284 12.4242C61.8053 13.1267 61.6437 13.9315 61.6437 14.8681C61.6437 15.8047 61.7612 16.5803 62.0109 17.1949C62.2606 17.8096 62.569 18.3071 62.9362 18.673C63.6412 19.3754 64.4197 19.712 65.3156 19.712C66.2115 19.712 66.8725 19.5657 67.3278 19.273C67.7537 19.0096 68.1209 18.7169 68.4293 18.4242Z" fill="black"/>
<path d="M68.9141 11.283C69.1197 10.9903 69.4134 10.6976 69.7512 10.3903H70.9262V8.98539C71.4256 8.53174 71.925 8.04881 72.395 7.53661C72.865 7.03905 73.2909 6.58539 73.7022 6.17564C73.8637 6.0732 74.0106 6.0293 74.1428 6.0293C74.275 6.04393 74.3484 6.08783 74.3925 6.17564V10.3903H77.4034C77.5062 10.3903 77.565 10.522 77.565 10.7708C77.565 11.0342 77.3594 11.3122 76.9481 11.6342H74.3631V18.1756C74.3631 19.5073 74.8478 20.1805 75.8172 20.1805C76.1109 20.1805 76.4047 20.0927 76.7131 19.9171C77.0069 19.7415 77.1831 19.6244 77.2419 19.5805C77.3447 19.683 77.4034 19.7854 77.4034 19.8586C77.4034 20.1073 77.3594 20.283 77.2566 20.3854C77.1684 20.4878 77.0362 20.6342 76.86 20.7805C76.6837 20.9415 76.4781 21.1025 76.2431 21.2634C75.5381 21.7025 74.9653 21.9073 74.4953 21.9073C74.0253 21.9073 73.5847 21.8488 73.1734 21.7317C72.7475 21.6147 72.395 21.3952 72.0719 21.0586C71.3228 20.3854 70.9409 19.3756 70.9409 18.0147V11.6634H69.0462C68.9434 11.6049 68.9141 11.4732 68.9141 11.283Z" fill="black"/>
<path d="M84.4091 9.87793C85.3197 9.87793 86.1569 10.0243 86.9353 10.317C87.6991 10.6096 88.36 11.034 88.9328 11.5609C90.0784 12.6877 90.6659 14.0779 90.6659 15.7755C90.6659 17.4291 90.0491 18.8779 88.8447 20.1072C87.6991 21.3072 86.2303 21.9218 84.4531 21.9218C82.6025 21.9218 81.1044 21.3511 79.9441 20.195C78.7984 19.0535 78.2109 17.634 78.2109 15.9804C78.2109 14.3413 78.7984 12.9218 79.9881 11.6926C81.1631 10.4926 82.6466 9.87793 84.4091 9.87793ZM84.0859 10.9609C82.8816 10.9609 82.2059 11.956 82.0737 13.9316C82.015 14.4731 81.9856 14.9999 81.9856 15.5267C81.9856 16.0682 82.0297 16.6535 82.1325 17.2682C82.2206 17.8974 82.3969 18.4535 82.6319 18.9804C83.1312 20.1804 83.8216 20.795 84.6881 20.795C85.9512 20.795 86.6562 19.8145 86.8178 17.8682C86.8472 17.3706 86.8472 16.8438 86.8472 16.3023C86.8472 15.7609 86.7884 15.1755 86.6856 14.5316C86.5828 13.8877 86.4066 13.317 86.1569 12.8048C85.6722 11.5755 84.9672 10.9609 84.0859 10.9609Z" fill="black"/>
<path d="M95.0872 21.6292C93.9856 21.6292 92.7665 21.7023 91.4153 21.8341C91.3565 21.7463 91.3271 21.5853 91.3271 21.3511C91.3271 21.117 91.3565 20.9414 91.4153 20.8243C91.9734 20.8243 92.3993 20.7658 92.6637 20.6487C92.9281 20.5316 93.1043 20.4292 93.1484 20.3414C93.2806 20.0194 93.354 19.1999 93.354 17.8536V14.4145C93.354 14.2097 93.3247 13.8731 93.2659 13.4633C93.2072 13.0243 93.1631 12.7755 93.1043 12.6584C92.9134 12.3072 92.3553 12.1316 91.4153 12.1316C91.3565 12.1023 91.3418 11.9706 91.3565 11.7072C91.3712 11.4438 91.4006 11.3267 91.4593 11.3267C92.4728 11.2389 93.4715 11.0633 94.4409 10.7414C95.3956 10.4341 96.1446 10.156 96.6587 9.92186C96.7468 9.95113 96.835 10.0097 96.9378 10.1267C97.0406 10.2292 97.0847 10.317 97.0847 10.3755C97.07 10.4341 97.0553 10.5511 97.0259 10.7414C96.9965 10.9316 96.9672 11.1365 96.9378 11.356C96.9084 11.5755 96.879 11.795 96.8497 12.0292C96.8203 12.2341 96.8203 12.3804 96.8203 12.4536C96.8203 12.5267 96.8496 12.556 96.9084 12.5706C96.9671 12.5853 96.9965 12.5853 96.9965 12.5414C97.4812 11.7365 97.8925 11.1804 98.2009 10.8584C98.8912 10.2145 99.6109 9.90723 100.331 9.90723C101.138 9.90723 101.697 10.0536 101.99 10.3463C102.196 10.6682 102.313 11.0194 102.313 11.4145C102.313 11.795 102.284 12.1316 102.196 12.3658C102.108 12.6292 101.99 12.8633 101.829 13.0682C101.506 13.5219 101.124 13.7414 100.698 13.7414C100.448 13.7414 100.257 13.6536 100.081 13.4926C99.9047 13.3316 99.7431 13.1853 99.5962 13.0536C99.4493 12.9219 99.3025 12.7902 99.1556 12.6731C99.0087 12.556 98.8178 12.4975 98.5681 12.4975C98.3184 12.4975 98.0981 12.5853 97.8925 12.7609C97.6868 12.9365 97.4959 13.1414 97.3343 13.3755C97.0112 13.8584 96.8497 14.2828 96.8497 14.6633V17.8828C96.8497 19.2145 96.879 19.9902 96.9672 20.1804C97.0553 20.3706 97.1581 20.517 97.2903 20.5755C97.4225 20.6487 97.5693 20.7072 97.7309 20.7511C97.9953 20.8097 98.289 20.8389 98.5681 20.8389C98.6268 20.9414 98.6562 21.117 98.6562 21.3658C98.6562 21.6145 98.6268 21.7609 98.5681 21.8487C97.2021 21.7023 96.0418 21.6292 95.0872 21.6292Z" fill="black"/>
<path d="M115.297 20.8683C115.943 20.8683 116.516 20.6634 117.03 20.2829C117.529 19.9024 117.794 19.2293 117.794 18.2927C117.794 17.4878 117.294 16.639 116.31 15.7756C115.914 15.3951 115.473 15.0585 115.018 14.7659C114.563 14.4732 114.122 14.1805 113.725 13.9024C113.329 13.6244 112.888 13.3171 112.418 13.0098C111.948 12.7024 111.522 12.3366 111.155 11.9268C110.377 11.0341 109.98 9.98048 109.98 8.76585C109.98 7.46341 110.597 6.32195 111.801 5.35609C112.932 4.44878 114.21 3.99512 115.664 3.99512C116.443 3.99512 117.177 4.08292 117.853 4.2439C118.528 4.40487 119.277 4.56585 120.085 4.72682C120.173 5.42926 120.232 6.1317 120.261 6.84878C120.291 7.56585 120.349 8.32683 120.408 9.1317C120.305 9.23414 120.203 9.29268 120.129 9.29268C119.615 9.29268 119.351 9.21951 119.321 9.0878C119.189 8.19512 118.822 7.36097 118.234 6.57073C117.529 5.61951 116.722 5.12195 115.782 5.12195C115.238 5.12195 114.739 5.28292 114.254 5.60487C113.769 5.92682 113.534 6.52682 113.534 7.41951C113.534 8.56097 114.812 9.99512 117.353 11.678C117.794 11.9707 118.234 12.278 118.704 12.5707C119.174 12.8634 119.6 13.2439 119.968 13.639C120.819 14.5902 121.26 15.761 121.26 17.1366C121.26 18.5561 120.643 19.7268 119.439 20.6634C118.293 21.5707 116.971 22.0244 115.488 22.0244C113.931 22.0244 112.242 21.7756 110.406 21.3073C110.142 19.8878 109.965 18.8341 109.907 18.1463C109.833 17.4439 109.789 17.0195 109.76 16.8293C109.819 16.7415 109.936 16.6683 110.142 16.5805C110.347 16.4927 110.509 16.4634 110.641 16.4634C110.773 16.4634 110.847 16.5366 110.891 16.6683C111.023 17.5171 111.478 18.4244 112.257 19.361C113.182 20.3415 114.195 20.8683 115.297 20.8683Z" fill="black"/>
<path d="M135.506 27.4975C134.155 27.3658 132.951 27.2926 131.864 27.2926C130.777 27.2926 129.573 27.3658 128.221 27.4975C128.163 27.4097 128.133 27.2487 128.133 27.0146C128.133 26.7804 128.163 26.5902 128.221 26.4877C128.721 26.4877 129.132 26.4292 129.426 26.3268C129.72 26.2243 129.881 26.1219 129.911 26.0487C130.043 25.6682 130.116 24.8487 130.116 23.5609V21.278C130.116 21.1902 130.101 21.1024 130.087 20.9999C130.072 20.8975 130.028 20.8682 129.94 20.9414C129.852 21.0146 129.72 21.0877 129.499 21.2048C129.294 21.3073 129.029 21.4097 128.736 21.5268C127.384 22.0243 126.151 22.0243 125.034 21.4975C123.83 20.9414 122.978 20.0048 122.449 18.6877C122.185 18.0438 122.053 17.2829 122.053 16.4048C122.053 15.5121 122.258 14.678 122.699 13.8585C123.14 13.039 123.683 12.3365 124.359 11.7512C125.725 10.5512 127.34 9.93652 129.191 9.93652C129.69 9.93652 130.248 10.039 130.851 10.2438C131.438 10.4487 131.937 10.5512 132.334 10.5512C132.731 10.5512 133.054 10.478 133.259 10.3463C133.7 10.639 133.906 10.8731 133.906 11.0195C133.7 11.6634 133.582 12.6731 133.582 14.0341V23.5609C133.582 24.117 133.597 24.5999 133.612 25.0097C133.626 25.4048 133.671 25.7121 133.759 25.9024C133.847 26.0926 133.964 26.2097 134.096 26.2682C134.243 26.3268 134.405 26.356 134.552 26.3853C134.846 26.4731 135.169 26.5024 135.506 26.5024C135.565 26.6048 135.595 26.7804 135.595 27.0292C135.595 27.278 135.551 27.4097 135.506 27.4975ZM129.778 11.9268C129.558 11.7219 129.323 11.5463 129.073 11.4438C128.824 11.3414 128.501 11.2829 128.089 11.2829C127.663 11.2829 127.311 11.3999 127.017 11.6487C126.723 11.8975 126.488 12.2048 126.341 12.5707C126.018 13.2731 125.857 14.0341 125.857 14.8536C125.857 15.6877 125.901 16.3902 126.004 16.9755C126.092 17.5609 126.239 18.1024 126.43 18.5707C126.914 19.6682 127.619 20.2243 128.559 20.2243C129.044 20.2243 129.426 20.1365 129.705 19.9463C129.984 19.756 130.131 19.639 130.131 19.5804V12.6146C130.116 12.3658 129.999 12.1463 129.778 11.9268Z" fill="black"/>
<path d="M142.072 11.3268C143.82 11.195 145.524 10.7121 147.228 9.92188C147.33 9.95114 147.433 10.0097 147.551 10.1268C147.654 10.2292 147.712 10.317 147.712 10.3755C147.654 10.5072 147.595 10.8731 147.507 11.4438C147.419 12.0146 147.389 12.4975 147.389 12.8633V18.878C147.389 19.0828 147.404 19.2731 147.419 19.4341C147.433 19.595 147.507 19.7414 147.639 19.8731C147.8 20.0341 148.197 20.1219 148.843 20.1219C148.902 20.2243 148.931 20.3707 148.931 20.5463C148.931 20.7219 148.873 20.8682 148.77 20.9999C148.226 21.0292 147.36 21.1902 146.155 21.4829C144.951 21.7755 144.305 21.9219 144.217 21.9219C144.055 21.9219 143.967 21.717 143.967 21.278V20.8389C143.967 20.7365 143.938 20.6926 143.879 20.7219C142.674 21.4682 141.426 21.8487 140.134 21.8487C138.386 21.8487 137.299 20.8682 136.873 18.9219C136.77 18.3365 136.711 17.7365 136.711 17.1072V14.4146C136.711 14.2097 136.682 13.8731 136.623 13.4633C136.564 13.0243 136.52 12.7755 136.462 12.6585C136.315 12.395 135.874 12.2194 135.096 12.1755C134.934 12.1463 134.831 12.1316 134.787 12.117C134.758 12.1024 134.729 11.9707 134.729 11.7219C134.729 11.4585 134.758 11.3414 134.817 11.3414C135.83 11.2536 136.829 11.078 137.798 10.756C138.753 10.4487 139.502 10.1707 140.016 9.93651C140.119 9.96578 140.222 10.0243 140.324 10.1414C140.413 10.2438 140.471 10.3316 140.471 10.3902C140.413 10.4926 140.369 10.7268 140.31 11.0633C140.251 11.4146 140.222 11.7072 140.207 11.956C140.192 12.2048 140.178 12.5121 140.178 12.878V15.9219C140.178 17.3414 140.31 18.4243 140.574 19.1414C140.839 19.8731 141.397 20.2389 142.234 20.2389C142.616 20.2389 142.998 20.1365 143.379 19.917C143.761 19.7121 143.967 19.478 143.967 19.2731V14.4146C143.967 14.2097 143.938 13.8731 143.879 13.4633C143.82 13.0243 143.776 12.7755 143.717 12.6585C143.556 12.3072 142.998 12.1316 142.028 12.1316C141.969 12.1024 141.94 11.9707 141.94 11.7072C141.94 11.4585 141.984 11.3268 142.072 11.3268Z" fill="black"/>
<path d="M160.27 19.6681C160.402 19.7559 160.476 19.873 160.476 20.034C160.476 20.195 160.446 20.3559 160.358 20.5169C160.196 20.6779 159.917 20.8974 159.521 21.1608C158.801 21.6438 158.199 21.8779 157.7 21.8779C157.2 21.8779 156.789 21.7316 156.392 21.4535C156.011 21.1755 155.731 20.8681 155.614 20.5608C155.232 20.9413 154.718 21.2633 154.013 21.512C153.323 21.7755 152.794 21.9072 152.412 21.9072C152.03 21.9072 151.634 21.8194 151.208 21.6291C150.767 21.4389 150.415 21.1901 150.121 20.912C149.445 20.2389 149.107 19.5803 149.107 18.9072C149.107 18.234 149.254 17.7218 149.533 17.312C149.812 16.9316 150.106 16.6828 150.429 16.595C150.738 16.5072 151.105 16.3755 151.516 16.2145C151.927 16.0535 152.383 15.8779 152.867 15.6877C153.484 15.4828 154.351 15.1462 155.452 14.7364V13.4925C155.452 12.8194 155.306 12.2194 155.012 11.6633C154.718 11.1072 154.336 10.8438 153.837 10.8438C153.337 10.8438 153.014 11.0486 152.809 11.4877C152.603 11.9267 152.471 12.3511 152.383 12.8047C152.177 13.7413 151.648 14.2096 150.811 14.2096C150.459 14.2096 150.136 14.0925 149.856 13.873C149.577 13.6535 149.431 13.3901 149.431 13.1267C149.431 12.7462 149.548 12.3218 149.798 11.8389C150.091 11.5462 150.576 11.2242 151.252 10.8877C152.618 10.1852 153.851 9.84863 154.938 9.84863C156.025 9.84863 156.951 10.2291 157.714 10.9755C158.478 11.7218 158.86 12.7023 158.86 13.9023V18.834C158.86 19.2145 158.933 19.4925 159.066 19.6535C159.198 19.8291 159.359 19.9169 159.521 19.9169C159.697 19.9169 159.844 19.8877 159.976 19.7999L160.27 19.6681ZM154.307 20.0633C154.659 20.0633 154.924 19.9901 155.129 19.8438C155.335 19.6974 155.438 19.5803 155.438 19.5072V15.8194C155.144 15.9511 154.836 16.0828 154.542 16.1999C154.233 16.3169 153.925 16.4925 153.587 16.6974C153 17.0925 152.706 17.634 152.721 18.2925C152.735 18.9657 152.926 19.4194 153.264 19.6681C153.602 19.9462 153.954 20.0633 154.307 20.0633Z" fill="black"/>
<path d="M164.941 21.6292C163.839 21.6292 162.62 21.7023 161.269 21.8341C161.21 21.7463 161.181 21.5853 161.181 21.3511C161.181 21.117 161.21 20.9414 161.269 20.8243C161.827 20.8243 162.253 20.7658 162.517 20.6487C162.782 20.5316 162.958 20.4292 163.002 20.3414C163.134 20.0194 163.208 19.1999 163.208 17.8536V14.4145C163.208 14.2097 163.178 13.8731 163.119 13.4633C163.061 13.0243 163.017 12.7755 162.958 12.6584C162.767 12.3072 162.209 12.1316 161.269 12.1316C161.21 12.1023 161.195 11.9706 161.21 11.7072C161.225 11.4438 161.254 11.3267 161.313 11.3267C162.326 11.2389 163.325 11.0633 164.294 10.7414C165.249 10.4341 165.998 10.156 166.512 9.92186C166.6 9.95113 166.688 10.0097 166.791 10.1267C166.894 10.2292 166.938 10.317 166.938 10.3755C166.938 10.4341 166.909 10.5511 166.879 10.7414C166.85 10.9316 166.821 11.1365 166.791 11.356C166.762 11.5755 166.733 11.795 166.703 12.0292C166.674 12.2341 166.674 12.3804 166.674 12.4536C166.674 12.5267 166.703 12.556 166.762 12.5706C166.821 12.5853 166.85 12.5853 166.85 12.5414C167.335 11.7365 167.746 11.1804 168.054 10.8584C168.745 10.2145 169.464 9.90723 170.184 9.90723C170.992 9.90723 171.55 10.0536 171.844 10.3463C172.049 10.6682 172.167 11.0194 172.167 11.4145C172.167 11.795 172.138 12.1316 172.049 12.3658C171.961 12.6292 171.844 12.8633 171.682 13.0682C171.359 13.5219 170.977 13.7414 170.551 13.7414C170.302 13.7414 170.111 13.6536 169.934 13.4926C169.758 13.3316 169.597 13.1853 169.45 13.0536C169.303 12.9219 169.156 12.7902 169.009 12.6731C168.862 12.556 168.671 12.4975 168.422 12.4975C168.172 12.4975 167.952 12.5853 167.746 12.7609C167.54 12.9365 167.349 13.1414 167.188 13.3755C166.865 13.8584 166.703 14.2828 166.703 14.6633V17.8828C166.703 19.2145 166.733 19.9902 166.821 20.1804C166.909 20.3706 167.012 20.517 167.144 20.5755C167.276 20.6487 167.423 20.7072 167.584 20.7511C167.849 20.8097 168.143 20.8389 168.422 20.8389C168.48 20.9414 168.51 21.117 168.51 21.3658C168.51 21.6145 168.48 21.7609 168.422 21.8487C167.056 21.7023 165.91 21.6292 164.941 21.6292Z" fill="black"/>
<path d="M183.007 14.9706C181.406 15.1023 179.276 15.2194 176.647 15.2925C176.647 16.9316 177.102 18.1316 178.013 18.9072C178.718 19.4633 179.467 19.7413 180.289 19.7413C181.112 19.7413 181.744 19.595 182.199 19.3023C182.654 19.0096 183.036 18.7169 183.33 18.4096C183.535 18.4682 183.653 18.6145 183.653 18.8486C183.653 19.0828 183.609 19.2877 183.506 19.434C183.418 19.5804 183.242 19.7999 182.963 20.0779C182.698 20.356 182.346 20.634 181.949 20.8974C180.936 21.5999 179.937 21.9365 179.012 21.9365C178.086 21.9365 177.264 21.8047 176.603 21.556C175.927 21.2925 175.34 20.9413 174.826 20.4584C173.724 19.4194 173.166 18.0584 173.166 16.4047C173.166 14.6925 173.754 13.1852 174.943 11.9121C176.206 10.5511 177.572 9.86328 179.041 9.86328C180.627 9.86328 181.832 10.3316 182.669 11.2682C183.374 12.0145 183.712 12.8925 183.712 13.873C183.712 14.1657 183.638 14.4291 183.506 14.634C183.403 14.8682 183.227 14.9706 183.007 14.9706ZM176.662 14.2535C176.72 14.2535 176.897 14.2389 177.205 14.2243C177.514 14.2096 177.851 14.195 178.233 14.1657C179.085 14.1365 179.717 14.0925 180.084 14.0486C180.334 14.0194 180.451 13.873 180.451 13.595C180.451 13.3169 180.422 13.0096 180.363 12.7023C180.304 12.395 180.216 12.0877 180.084 11.8682C179.79 11.2828 179.408 10.9755 178.938 10.9755C178.468 10.9755 178.101 11.1072 177.837 11.356C177.572 11.6194 177.337 11.9121 177.161 12.2486C176.809 12.9365 176.662 13.6096 176.662 14.2535Z" fill="black"/>
</svg>
