<svg width="138" height="100" viewBox="0 0 138 100" fill="none" xmlns="http://www.w3.org/2000/svg">
<path fill-rule="evenodd" clip-rule="evenodd" d="M46.3459 1.0598C46.2936 1.22541 45.9693 2.76887 45.6249 4.48998C45.2808 6.21108 44.9412 7.86285 44.8698 8.16086C44.7697 8.57898 44.8436 8.70247 45.1936 8.70247C45.5733 8.70247 45.7331 8.31564 46.1777 6.31988C46.9317 2.934 47.731 1.91169 49.9033 1.55471C50.6305 1.43507 50.7509 1.49333 50.9666 2.06791C51.248 2.8175 51.3033 19.4946 51.026 19.9363C50.9287 20.0909 50.4756 20.2534 50.0193 20.2974C49.5629 20.3412 49.1894 20.4854 49.1894 20.6177C49.1894 20.7615 50.363 20.8858 52.1015 20.9262C54.5356 20.9824 55.0133 20.9355 55.0133 20.6397C55.0133 20.4045 54.7143 20.2608 54.1219 20.211L53.2304 20.1364L53.1683 11.1378C53.1217 4.42064 53.178 2.0513 53.3908 1.79181C53.7181 1.39223 54.9294 1.54099 56.0259 2.11509C57.0118 2.63142 57.5264 3.66553 58.1226 6.32806C58.5619 8.28988 58.7311 8.70247 59.0965 8.70247C59.4313 8.70247 59.5106 8.57054 59.4229 8.16086C59.3589 7.86285 59.0339 6.3194 58.7004 4.73069C58.367 3.14198 58.0407 1.59852 57.9753 1.30052L57.8569 0.758911H52.149C47.7914 0.758911 46.4184 0.830162 46.3459 1.0598ZM60.2429 1.10554C60.2429 1.33205 60.5513 1.47792 61.1343 1.52679L62.0257 1.60141V10.8689V20.1364L61.1343 20.211C60.5513 20.2598 60.2429 20.4057 60.2429 20.6322C60.2429 20.9153 60.7871 20.9789 63.2144 20.9789C65.6417 20.9789 66.1856 20.9153 66.1856 20.6322C66.1856 20.4057 65.8775 20.2598 65.2942 20.211L64.4028 20.1364L64.3385 15.2306L64.2741 10.3251L65.0253 9.13912C66.3913 6.98377 68.2836 6.0599 69.2232 7.08968C70.1066 8.05808 70.2546 9.25899 70.1793 14.8407L70.1079 20.1364L69.2165 20.211C68.6335 20.2598 68.3251 20.4057 68.3251 20.6322C68.3251 20.9153 68.8693 20.9789 71.2964 20.9789C73.7237 20.9789 74.2678 20.9153 74.2678 20.6322C74.2678 20.4057 73.9595 20.2598 73.3764 20.211L72.485 20.1364L72.3661 14.3592C72.2578 9.09049 72.2042 8.50798 71.759 7.74033C71.0267 6.47828 69.9044 5.81389 68.504 5.81389C66.9677 5.81389 65.8186 6.38848 64.9626 7.58532L64.2704 8.55298L64.3365 5.07731L64.4028 1.60141L65.2942 1.52679C65.8775 1.47792 66.1856 1.33205 66.1856 1.10554C66.1856 0.82246 65.6417 0.758911 63.2144 0.758911C60.7871 0.758911 60.2429 0.82246 60.2429 1.10554ZM80.1681 5.90368C78.7474 6.29774 77.6122 7.17898 76.6709 8.61773C75.6774 10.1366 75.3812 11.3067 75.3698 13.7574C75.3618 15.493 75.4598 16.0228 76.0151 17.2478C77.5523 20.6387 80.3556 22.1201 83.5384 21.2232C84.5505 20.9383 85.8828 19.8521 86.464 18.8392L86.8933 18.0903L86.1075 18.0997C85.4928 18.1069 85.2177 18.2725 84.846 18.8591C83.8546 20.4235 81.3927 21.0092 80.1081 19.9859C78.5806 18.7693 77.5124 15.8899 77.643 13.3429C77.7097 12.0505 77.7567 11.9495 78.3088 11.9158C78.6357 11.8955 80.9696 11.8686 83.495 11.8556L88.087 11.8317L87.9351 11.2901C87.8518 10.9921 87.4737 10.0926 87.0951 9.29077C85.7757 6.49681 82.9716 5.1257 80.1681 5.90368ZM80.1863 7.32655C79.4001 7.86141 77.8335 10.173 77.8335 10.7981C77.8335 11.0408 78.7265 11.1096 81.8745 11.1096C86.4514 11.1096 86.314 11.1842 85.4222 9.18389C84.6837 7.5273 83.6824 6.77795 82.2069 6.77724C81.3374 6.777 80.7655 6.93249 80.1863 7.32655ZM17.104 20.3169C16.8652 21.047 14.794 31.3618 14.8722 31.4321C14.92 31.4752 15.1772 31.578 15.4436 31.6608C15.8905 31.7994 15.9894 31.5566 16.728 28.5011C17.1682 26.6807 17.7121 24.7545 17.9368 24.2203C18.4438 23.0145 19.7701 21.8079 20.955 21.4747C22.3302 21.0882 23.7959 21.1491 23.9668 21.6004C24.0461 21.8099 24.1111 27.9083 24.1111 35.1525C24.1111 45.076 24.0407 48.3951 23.8258 48.6127C23.669 48.7717 23.0196 48.9016 22.383 48.9016C21.3359 48.9016 21.2327 48.9507 21.3013 49.4154C21.3736 49.9037 21.4998 49.9278 23.8733 49.9078C25.2461 49.8964 27.1985 49.8819 28.2115 49.8756C29.8917 49.8655 30.0538 49.8221 30.0538 49.3831C30.0538 48.9673 29.8952 48.9016 28.8943 48.9016C28.2056 48.9016 27.6259 48.7685 27.4661 48.5735C27.2716 48.3361 27.2143 44.5282 27.2589 34.7927L27.3201 21.34L28.3161 21.2666C30.5223 21.1042 32.565 22.2991 33.3825 24.2302C33.6108 24.7698 34.1448 26.6995 34.5689 28.5183C35.2947 31.6315 35.3696 31.816 35.8465 31.6677C36.1252 31.5814 36.3895 31.478 36.4337 31.4386C36.5178 31.3638 34.731 22.4951 34.3142 20.9187L34.0758 20.016H25.6391C19.1008 20.016 17.1803 20.0836 17.104 20.3169ZM98.2765 20.3771C98.2765 20.5757 98.2497 20.8195 98.217 20.9187C98.1846 21.0179 98.7459 21.1533 99.4651 21.2196L100.773 21.34L100.834 34.9248C100.882 45.6332 100.832 48.5504 100.596 48.7018C100.432 48.8078 99.8069 48.8959 99.2076 48.898C98.2462 48.9012 98.1228 48.9614 98.1552 49.4113C98.1914 49.9057 98.2946 49.9205 101.622 49.907C107.286 49.8843 106.834 49.935 106.834 49.3212C106.834 48.8279 106.739 48.7854 105.802 48.861C104.091 48.9988 103.982 48.7442 103.982 44.6018V41.0582L105.057 39.99C105.935 39.117 106.207 38.9679 106.542 39.1751C106.79 39.3279 107.474 41.0004 108.264 43.3829C109.734 47.8148 110.115 48.6395 111.021 49.362C111.765 49.9544 113.344 50.0336 114.516 49.5374C115.544 49.1024 117.064 47.5033 117.864 46.0148C118.477 44.8731 118.487 44.8095 118.04 44.8095C117.735 44.8095 117.169 45.3602 116.436 46.3722C115.237 48.0262 114.735 48.3559 114.014 47.9653C113.327 47.5926 112.194 45.2099 111.239 42.1239C110.264 38.978 109.459 37.79 107.957 37.28L107.059 36.9751L110.809 33.3499C112.872 31.3558 114.793 29.598 115.079 29.4438C115.365 29.2895 116.193 29.1632 116.921 29.1632C118.174 29.1632 118.244 29.1311 118.244 28.5613V27.9595H113.965H109.687V28.5613C109.687 29.1293 109.759 29.1632 110.98 29.1632C112.213 29.1632 112.823 29.4384 112.306 29.7617C112.174 29.8445 111.01 31.179 109.718 32.7272C108.428 34.2753 107.034 35.9211 106.623 36.3844C106.211 36.848 105.529 37.6841 105.106 38.2427C104.684 38.8012 104.272 39.2616 104.192 39.2655C103.992 39.2758 103.915 22.1576 104.112 21.6358C104.235 21.3125 104.556 21.2196 105.552 21.2196C106.761 21.2196 106.834 21.1854 106.834 20.6177V20.016H102.555C98.9106 20.016 98.2765 20.0694 98.2765 20.3771ZM86.4303 27.6829C85.0221 28.1906 83.279 29.7481 82.78 30.9444C82.4783 31.6677 82.4652 31.635 82.35 29.8853L82.2311 28.0799L79.3191 28.0122L76.4073 27.9447V28.5539C76.4073 29.121 76.4859 29.1632 77.5482 29.1632C78.1759 29.1632 78.8176 29.2931 78.9744 29.4521C79.1864 29.6665 79.2597 32.1069 79.2597 38.943C79.2597 49.3978 79.3303 49.0133 77.4391 48.861C76.4742 48.7832 76.4073 48.8173 76.4069 49.3814L76.4067 49.9849L80.8046 49.9144C83.2233 49.8756 85.2024 49.7492 85.2024 49.6332C85.2024 48.9527 84.8892 48.6884 84.2388 48.82C83.8632 48.8961 83.2846 48.8893 82.953 48.8052L82.35 48.6517V41.4233V34.195L83.2064 32.8224C86.0221 28.3098 89.172 27.3875 90.5814 30.663C90.9793 31.5875 91.0311 32.5329 91.0986 40.0926C91.1588 46.8179 91.1115 48.5361 90.8624 48.7026C90.6909 48.8175 90.0695 48.8856 89.4814 48.8543C88.5184 48.803 88.4116 48.8505 88.4116 49.3309C88.4116 49.6245 88.4916 49.8645 88.5899 49.8645C88.6881 49.8645 90.6401 49.8645 92.9282 49.8645H97.088V49.3111C97.088 48.82 96.9938 48.7687 96.2543 48.8561C95.7428 48.9167 95.1961 48.8058 94.8396 48.5696L94.2589 48.1841L94.1878 40.0575C94.1187 32.1653 94.1009 31.8966 93.5701 30.7306C93.2697 30.0704 92.7883 29.2747 92.5003 28.9622C91.1203 27.464 88.5442 26.921 86.4303 27.6829ZM45.868 27.8847C45.1662 28.269 44.4625 29.0238 43.9088 29.9857C43.6556 30.4252 43.6192 30.3314 43.6116 29.2234L43.6032 27.9595H40.6319H37.6604V28.5494C37.6604 29.0984 37.7547 29.1442 39.0274 29.2113L40.3941 29.2836L40.4565 38.087L40.5187 46.8909L39.8621 47.7591C39.4134 48.3531 38.9801 48.6521 38.4924 48.7046C37.8675 48.7719 37.7778 48.8769 37.7651 49.5538C37.7551 50.0932 37.3496 50.8927 36.422 52.2017C34.8401 54.4347 33.3762 56.6612 32.6418 57.953C31.2369 60.423 29.0755 64.3668 28.2359 65.9924C27.7233 66.9853 27.1322 68.0684 26.9222 68.3995C26.7124 68.7305 26.2282 69.5969 25.847 70.3252C24.6744 72.564 24.0935 73.4283 23.6778 73.5508C21.3414 74.2399 17.9018 74.3472 15.1627 73.8165C10.6612 72.9443 7.97765 70.388 7.24027 66.27C6.88538 64.288 7.2474 62.39 8.48254 59.7562C9.7405 57.0737 12.2985 54.3919 14.6706 53.2687C18.6192 51.3988 22.8994 52.3385 25.0846 55.5548C26.6424 57.8474 26.187 61.1748 24.1363 62.4858C23.6044 62.8257 22.9651 63.1037 22.715 63.1037C22.2436 63.1037 21.8701 62.5022 22.1038 62.1193C22.3656 61.6902 21.4876 61.9088 21.0113 62.3913C19.9451 63.4708 19.7527 65.1342 20.6459 65.5463C22.4543 66.3806 25.3577 63.9603 26.1747 60.9374C27.1752 57.2334 25.6802 54.1644 21.9788 52.3236C20.4558 51.5661 17.4998 51.3093 15.5998 51.769C12.6211 52.4902 9.03284 55.2653 7.06484 58.3704C5.77622 60.4036 5.24114 61.7615 4.85153 63.9872C4.29053 67.193 5.22188 69.908 7.6867 72.2509C9.44599 73.9231 11.0524 74.5622 14.4108 74.9267C16.8216 75.1881 19.1362 75.0635 22.3908 74.4975L23.1665 74.3624L22.671 75.5332C21.6826 77.8682 17.1754 83.2498 14.8292 84.8962C13.7918 85.6243 14.2713 85.6706 9.96896 84.4246C7.58686 83.7344 6.03033 83.6544 4.26224 84.1315C2.26501 84.6705 1.15942 85.3524 0.616247 86.3802C0.243519 87.0853 0.460547 87.5334 1.49031 88.1846C2.30065 88.6972 2.60636 88.7338 5.92621 88.716C8.65846 88.7012 9.76975 88.5992 10.6804 88.279C13.9396 87.133 13.7778 87.1532 14.8907 87.7516C15.4515 88.0529 16.0439 88.2543 16.2072 88.1988C16.3707 88.1432 16.5062 88.2422 16.5086 88.4188C16.5141 88.8138 19.6138 90.3234 21.8183 91.0043C24.0106 91.6819 27.2518 91.687 29.7609 91.0176C32.0034 90.4192 35.2032 88.8069 37.7664 86.9835C39.676 85.6254 40.3306 85.0859 42.438 83.1344C43.3846 82.2579 43.6014 82.1527 43.8796 82.4345C44.7429 83.3084 45.0059 83.3237 59.363 83.3237H73.4898L74.1437 82.6618L74.7977 81.9999L74.629 78.7501C74.5359 76.9629 74.227 72.1967 73.9423 68.1587L73.4245 60.817L69.3297 60.7511L65.2348 60.6854L65.2334 58.4642C65.2328 57.2429 65.1216 55.8399 64.9862 55.3467C64.6077 53.9664 63.3555 52.4925 61.9026 51.7174C60.7394 51.0964 60.4212 51.0331 58.9356 51.1265C57.0104 51.2477 56.0642 51.6778 54.7826 53.0153C53.538 54.3135 53.1116 55.7019 53.1116 58.4527V60.6967H49.6356H46.1595L48.159 58.4699C50.6766 55.6665 51.3612 54.7691 52.8018 52.3846C54.892 48.9248 55.7264 46.624 55.7264 44.3199C55.7264 39.996 51.1226 39.0351 45.8615 42.2611C45.2079 42.6618 44.459 43.1891 44.1976 43.4324C43.7238 43.8734 43.7219 43.8603 43.6526 39.7085C43.6147 37.417 43.7005 34.8499 43.8439 34.0041C44.4965 30.1469 46.9227 27.8996 49.2305 29.0141C50.4391 29.5976 51.1862 31.4148 51.4969 34.526C51.7313 36.8715 51.7691 36.9879 52.3083 37.021L52.874 37.0557V32.7579V28.4603L51.3039 27.9692C49.3877 27.3699 46.8787 27.3309 45.868 27.8847ZM54.3002 28.5557C54.3002 29.1232 54.3774 29.1632 55.4747 29.1632C56.1534 29.1632 56.7306 29.2903 56.8415 29.464C56.9473 29.6297 57.0873 33.4558 57.1528 37.9671L57.2716 46.1694L57.9879 47.5865C58.9862 49.5623 60.2175 50.4112 62.2778 50.544C65.0422 50.7222 66.9212 49.7807 68.3482 47.5023L69.0161 46.4353L69.0867 48.21C69.1254 49.1861 69.2372 49.9577 69.3354 49.9247C69.4336 49.8918 70.7438 49.8645 72.2472 49.8645C74.9778 49.8645 74.9809 49.8637 74.9809 49.2841C74.9809 48.744 74.9076 48.7101 73.9204 48.7945C72.0828 48.9519 72.1522 49.3156 72.1344 39.4424C72.1256 34.6436 72.1876 30.3678 72.2721 29.9403C72.4222 29.1802 72.4537 29.1632 73.7033 29.1632C74.9105 29.1632 74.9809 29.1297 74.9809 28.5557V27.9487L70.6427 28.0142C66.4848 28.0774 66.3045 28.0999 66.3045 28.5613C66.3045 28.9697 66.5026 29.061 67.612 29.1632L68.9193 29.2836L68.9823 36.4656L69.0454 43.6479L68.3881 44.881C67.3977 46.739 65.3048 48.7994 64.0631 49.1378C62.232 49.637 61.323 48.9303 60.6126 46.4551C60.2969 45.3554 60.2464 43.8694 60.299 37.2141L60.3618 29.2836L61.7436 29.2107C63.0134 29.1442 63.1191 29.0953 63.0511 28.609C62.9778 28.0888 62.9031 28.0787 58.6384 28.0142L54.3002 27.9487V28.5557ZM49.0706 42.2191C48.018 42.7329 46.9006 43.591 45.5643 44.9121C43.9094 46.5484 43.6032 46.9721 43.6032 47.6271C43.6032 48.5632 44.0848 48.8846 45.3981 48.8244C46.2442 48.7858 46.3369 48.839 46.3369 49.3635C46.3369 49.9298 46.2915 49.9439 44.6371 49.8896C41.79 49.7962 41.3364 49.9662 40.2997 51.5182C38.9161 53.5898 34.8886 60.4292 32.4856 64.7887C31.539 66.5058 29.8092 69.3914 29.0687 70.4889C28.2835 71.6528 28.2559 71.7694 28.7666 71.7694C29.8897 71.7694 38.667 66.3913 41.8186 63.7722C42.9569 62.8261 48.6918 57.0651 49.656 55.8995C51.317 53.891 53.5892 50.0829 54.4431 47.8764C55.6114 44.858 55.3271 42.2466 53.7701 41.6972C52.4196 41.2202 50.7341 41.4077 49.0706 42.2191ZM57.6555 52.3921C56.4524 52.7723 55.1015 53.9757 54.6304 55.0875C54.4509 55.5106 54.2337 56.9461 54.1477 58.2769L53.9909 60.6967H59.1736H64.3559L64.2121 58.3088C64.1332 56.9952 63.9169 55.5536 63.7317 55.1045C63.2726 53.9916 61.6247 52.6187 60.3616 52.2967C59.0942 51.9734 58.9677 51.9779 57.6555 52.3921ZM84.9648 52.8392C84.9648 53.4398 85.0292 53.4752 86.1243 53.4752C86.8188 53.4752 87.3925 53.6081 87.5554 53.8067C87.7449 54.0379 87.8076 55.6597 87.7629 59.1626C87.7007 64.0124 87.685 64.1577 87.3118 63.3445C86.155 60.8244 82.7935 59.7439 80.0917 61.0236C75.2328 63.3249 73.1635 72.3535 76.1021 78.4307C77.9121 82.1743 81.1819 83.8436 84.7425 82.8418C85.848 82.5307 87.4095 81.1635 87.9318 80.049L88.3457 79.1659L88.973 80.5828C89.7999 82.4509 89.8865 82.5693 90.3736 82.497C90.7627 82.4392 90.7924 81.4985 90.8501 67.474L90.9111 52.5123H89.399C88.5675 52.5123 87.2295 52.4428 86.426 52.3579C84.9662 52.2033 84.9648 52.2038 84.9648 52.8392ZM96.4498 55.8841C95.3895 56.3165 95.0798 57.9409 95.8994 58.7709C96.2441 59.12 96.6917 59.2523 97.5266 59.2523C98.9647 59.2523 99.4651 58.7675 99.4651 57.374C99.4651 56.5125 99.3693 56.326 98.7639 56.009C97.9884 55.6029 97.2382 55.5625 96.4498 55.8841ZM109.39 60.1876C105.401 61.5207 102.856 65.5112 102.614 70.8095C102.433 74.7776 103.403 77.7846 105.677 80.3034C109.541 84.5854 116.057 84.0747 119.062 79.255C119.396 78.7178 119.67 78.2406 119.67 78.1945C119.67 78.1486 119.184 78.1042 118.589 78.0961C117.669 78.0836 117.449 78.1761 117.119 78.7166C116.021 80.5147 114.925 81.2791 112.905 81.6575C111.369 81.9448 110.264 81.5771 109.011 80.3626C108.003 79.3855 106.771 76.9224 106.271 74.8834C105.888 73.3211 105.748 70.2395 106.028 69.5025C106.155 69.1661 107.062 69.1216 113.78 69.1216H121.387L121.229 68.2189C120.952 66.6341 119.507 63.8767 118.247 62.5282C115.968 60.0868 112.462 59.1606 109.39 60.1876ZM128.768 59.9874C126.395 60.4616 124.467 61.8769 123.924 63.5431C123.511 64.8099 123.821 67.2938 124.583 68.8188C125.443 70.5388 127.125 72.0563 131.084 74.6808C133.252 76.1183 134.312 77.1946 134.565 78.2161C134.946 79.751 132.715 81.6823 130.57 81.6755C127.627 81.6662 124.913 78.817 124.516 75.3199C124.367 74.0072 124.325 73.9359 123.702 73.9359H123.045L123.039 78.0789C123.035 80.3577 123.076 82.2927 123.129 82.3794C123.181 82.466 123.495 82.4848 123.825 82.4208C124.33 82.323 124.425 82.1717 124.425 81.4649V80.6248L125.078 81.333C126.486 82.8582 129.877 83.5902 132.726 82.9847C135.707 82.3517 137.041 81.0287 137.391 78.3579C137.748 75.6336 136.433 73.7932 131.969 70.7646C128.486 68.4014 127.325 67.3586 126.771 66.0951C125.338 62.8271 129.976 59.6981 132.749 62.0615C133.827 62.9796 134.887 65.4578 135.051 67.4409C135.189 69.0994 135.2 69.1216 135.875 69.1216H136.559L136.494 64.8489L136.429 60.5763L135.775 60.5002C135.252 60.4391 135.122 60.5214 135.122 60.9141C135.122 61.3908 135.099 61.3887 134.284 60.8283C132.894 59.8734 130.877 59.5661 128.768 59.9874ZM93.2054 60.6165C93.1182 60.7046 93.0468 60.9701 93.0468 61.2063C93.0468 61.5597 93.2875 61.6482 94.4138 61.7076L95.7805 61.7799L95.8429 71.3924C95.8916 78.9228 95.84 81.0469 95.6051 81.1978C95.4401 81.3039 94.7896 81.3922 94.1594 81.3944C93.1082 81.3977 93.0201 81.4425 93.0897 81.9397C93.1438 82.3246 93.3206 82.4761 93.7007 82.4642C93.995 82.4545 95.9469 82.4276 98.0389 82.404C101.67 82.3628 101.842 82.339 101.842 81.8795C101.842 81.4649 101.684 81.3979 100.701 81.3979C100.074 81.3979 99.4318 81.2681 99.2748 81.1091C98.8654 80.6945 98.8654 62.363 99.2748 61.9484C99.4318 61.7894 100.074 61.6595 100.701 61.6595C101.76 61.6595 101.842 61.616 101.842 61.0576V60.4559H97.6031C95.2714 60.4559 93.2924 60.5282 93.2054 60.6165ZM110.886 61.5576C109.06 62.3599 107.263 64.4596 106.48 66.7075L106.142 67.6773H112.193C116.874 67.6773 118.245 67.6092 118.247 67.3764C118.248 67.2111 118.009 66.384 117.716 65.5387C116.532 62.1254 113.55 60.3874 110.886 61.5576ZM43.722 62.8077C42.764 63.7007 39.3299 66.3743 37.4229 67.7118C35.2975 69.2025 32.0016 71.0194 28.9549 72.3794C27.6261 72.9729 27.3398 73.2465 25.6659 75.5253C23.7507 78.1329 23.3622 78.5939 20.9214 81.1574C19.4365 82.7168 17.2507 84.6863 16.5319 85.113C16.3237 85.2364 15.9595 85.5205 15.7225 85.7438C15.3115 86.1319 15.3381 86.169 16.3106 86.563C17.449 87.0241 19.7674 87.8145 22.4471 88.6543C25.0058 89.4562 29.4005 89.4542 31.9555 88.6499C35.4355 87.5548 39.6943 85.019 42.3408 82.4671C43.5607 81.2908 43.6032 81.2061 43.6032 79.9525C43.6032 79.239 43.7054 77.4579 43.8302 75.9947C43.9553 74.5313 44.1704 71.6552 44.3082 69.6031C44.4461 67.551 44.6225 65.0323 44.7001 64.0064C44.7777 62.9806 44.75 62.1415 44.6383 62.1421C44.5265 62.1427 44.1143 62.4422 43.722 62.8077ZM51.9179 62.3414C51.3473 62.5387 51.8383 65.9924 52.4368 65.9924C52.5463 65.9924 52.6362 68.1405 52.6362 70.7659V75.5395L53.2224 75.8573C53.6978 76.1147 53.8776 76.1169 54.1733 75.8684C54.4787 75.6118 54.5379 74.784 54.5379 70.7772C54.5379 67.5928 54.6216 65.9924 54.7878 65.9924C55.2475 65.9924 55.7674 64.3022 55.6057 63.3328L55.4534 62.4197L53.8018 62.3405C52.8933 62.2969 52.0457 62.2973 51.9179 62.3414ZM64.471 62.3323L62.8753 62.4032L62.7216 63.2332C62.5271 64.283 62.7392 65.1501 63.3391 65.7575C63.7743 66.1983 63.8086 66.5741 63.8086 70.9186C63.8086 75.3576 63.8336 75.6175 64.2841 75.8617C64.6218 76.0446 64.8971 76.0446 65.2348 75.8617C65.6858 75.6173 65.7103 75.3576 65.7103 70.7982C65.7103 68.1549 65.8 65.9924 65.9097 65.9924C66.5581 65.9924 66.9896 62.5282 66.3639 62.3472C66.2007 62.3001 65.3488 62.2933 64.471 62.3323ZM81.518 62.3706C80.3304 62.8679 79.029 65.1499 78.4076 67.8239C77.6737 70.9818 78.2238 76.2812 79.5538 78.8705C80.0962 79.9262 81.3026 81.1235 82.0033 81.3017C84.0983 81.8341 86.4647 80.1391 87.3835 77.448C87.7196 76.4632 87.8033 75.39 87.8094 71.9777C87.8188 66.9453 87.5654 65.8419 85.9951 64.0732C84.4848 62.3719 82.9278 61.7801 81.518 62.3706ZM52.9119 63.2914C52.7604 63.3427 52.6362 63.7528 52.6362 64.2024C52.6362 64.8741 52.7424 65.0473 53.2301 65.1713C54.1647 65.4089 54.5379 65.1378 54.5379 64.2218C54.5379 63.5021 54.4535 63.3867 53.8628 63.2988C53.4915 63.2435 53.0637 63.2402 52.9119 63.2914ZM64.0002 63.3659C63.3465 63.7362 63.9982 65.5108 64.788 65.5108C65.5021 65.5108 66.1148 63.3695 65.4131 63.3259C65.2498 63.3158 64.9471 63.2742 64.7409 63.233C64.5348 63.1921 64.2012 63.2518 64.0002 63.3659ZM57.5462 65.2291C57.0419 65.793 57.0505 66.0646 57.5874 66.5569C58.1664 67.0873 60.3031 67.1006 60.8203 66.5771C61.3887 66.0013 61.2808 65.2918 60.5841 65.0233C59.5617 64.6299 57.9863 64.7365 57.5462 65.2291ZM4.73767 84.5469C2.63679 85.0598 1.05316 86.0907 1.05316 86.9455C1.05316 88.3246 5.95355 88.7467 9.373 87.6621C10.3536 87.351 11.3246 86.952 11.5312 86.7748C11.7375 86.5978 12.0853 86.4531 12.3037 86.4531C12.9819 86.4531 12.7421 86.0628 11.8095 85.6492C9.64019 84.6871 6.29776 84.1662 4.73767 84.5469ZM40.7508 90.184V92.7115H42.3618C44.6823 92.7115 45.5999 91.9088 44.7017 90.6647C44.4944 90.3776 44.4191 89.871 44.4965 89.2853C44.6629 88.03 44.1669 87.6741 42.2364 87.6643L40.7508 87.6565V90.184ZM45.5061 89.5221C45.507 91.1235 45.5872 91.4886 46.0715 92.1018C46.5557 92.7144 46.784 92.8105 47.6751 92.7754C49.306 92.7115 49.7837 91.985 49.7837 89.5688C49.7837 88.0294 49.714 87.6565 49.4272 87.6565C49.1429 87.6565 49.0706 88.0115 49.0706 89.4082C49.0706 91.4797 48.6914 92.2301 47.6444 92.2301C46.5971 92.2301 46.218 91.4797 46.218 89.4082C46.218 88.0115 46.1458 87.6565 45.8615 87.6565C45.5751 87.6565 45.5051 88.0238 45.5061 89.5221ZM50.2592 87.9696C50.2592 88.1416 50.3564 88.3854 50.475 88.5111C51.0784 89.1506 51.9231 91.1009 51.9231 91.8551C51.9231 92.4558 52.0295 92.7115 52.2796 92.7115C52.5291 92.7115 52.6362 92.4568 52.6362 91.8646C52.6362 91.3005 52.9555 90.4857 53.5928 89.4235C54.1191 88.5461 54.4961 87.7745 54.4308 87.7084C54.2253 87.5003 53.6325 88.1377 52.9757 89.2724L52.3427 90.3664L51.8586 89.553C51.5925 89.1057 51.228 88.4962 51.0491 88.1983C50.6915 87.6031 50.2592 87.4779 50.2592 87.9696ZM57.5559 88.0858C57.334 88.3339 57.1528 88.8281 57.1528 89.1839C57.1528 89.8397 57.2726 89.9252 59.3515 90.7552C60.1864 91.0885 60.2394 91.9209 59.4385 92.1242C59.1272 92.2034 58.4861 92.1602 58.0143 92.0284C57.0407 91.7561 56.6366 92.0624 57.4138 92.4834C58.7453 93.2053 60.7184 92.6208 60.7184 91.5047C60.7184 90.7125 60.1889 90.2341 58.9006 89.8623C57.779 89.5387 57.4726 89.052 58.033 88.4846C58.3287 88.1852 58.6628 88.1321 59.4751 88.2555C60.2986 88.3806 60.5096 88.3452 60.4287 88.0965C60.3651 87.9018 59.8618 87.749 59.1419 87.7058C58.227 87.6508 57.8678 87.7367 57.5559 88.0858ZM61.3862 87.8371C61.3457 87.9365 61.3126 89.0467 61.3126 90.3044V92.5913L63.1549 92.6616C64.3185 92.7059 64.9972 92.6394 64.9972 92.481C64.9972 92.3349 64.4016 92.2301 63.5708 92.2301C62.4749 92.2301 62.1378 92.1466 62.1149 91.869C62.013 90.6313 61.9794 90.6681 63.2738 90.5929C64.1717 90.5404 64.5217 90.4222 64.5217 90.1715C64.5217 89.9137 64.2121 89.823 63.3332 89.823C62.171 89.823 62.1446 89.8068 62.1446 89.1007C62.1446 88.386 62.1579 88.3786 63.4521 88.3786C64.4556 88.3786 64.7594 88.2949 64.7594 88.0177C64.7594 87.7314 64.4176 87.6565 63.1096 87.6565C62.2019 87.6565 61.4264 87.7377 61.3862 87.8371ZM65.6831 88.6596C65.6684 89.2332 65.6479 90.3525 65.6379 91.1469L65.6198 92.5913L67.3289 92.662C68.4023 92.7063 69.0382 92.639 69.0382 92.4814C69.0382 92.1955 69.0834 92.2054 67.4931 92.1507L66.3045 92.1097V89.9638C66.3045 88.461 66.2153 87.7874 66.0075 87.7169C65.8026 87.6476 65.7019 87.9407 65.6831 88.6596ZM69.4345 87.8171C69.3473 87.9052 69.276 89.0425 69.276 90.3446V92.7115H71.4152C73.1197 92.7115 73.5547 92.641 73.5547 92.3648C73.5547 91.8991 73.1261 91.6567 72.7716 91.9214C72.614 92.0395 71.9502 92.1301 71.2964 92.123L70.1079 92.1097L70.0395 89.8832C69.9765 87.8264 69.8502 87.3958 69.4345 87.8171ZM76.4793 87.9446C75.7187 88.3169 75.1381 89.706 75.3039 90.7574C75.5407 92.259 77.417 93.2716 78.7668 92.6263C79.473 92.2885 79.8031 91.5672 79.1138 91.8674C77.9919 92.3563 77.1583 92.2905 76.5397 91.664C75.0126 90.1177 76.5987 87.5617 78.5718 88.3893C79.413 88.7422 79.8046 88.4792 79.1545 87.9979C78.6201 87.6021 77.2354 87.5748 76.4793 87.9446ZM80.8607 88.1994C79.576 89.2556 79.6326 91.3007 80.9741 92.3079C82.8023 93.6805 85.5248 92.0001 85.1091 89.7555C84.7599 87.87 82.3395 86.9835 80.8607 88.1994ZM85.9157 90.164C85.9157 91.7021 86.0097 92.7115 86.1533 92.7115C86.2886 92.7115 86.391 92.0028 86.391 91.0667C86.391 90.1618 86.4585 89.3534 86.541 89.2698C86.6235 89.1863 87.3286 89.9264 88.1076 90.9146C88.8866 91.903 89.6747 92.7115 89.8593 92.7115C90.1264 92.7115 90.1945 92.1988 90.1945 90.184C90.1945 88.0979 90.1321 87.6565 89.8378 87.6565C89.5549 87.6565 89.4814 88.0042 89.4814 89.3415C89.4814 90.536 89.3947 91.0227 89.1842 91.0132C89.0209 91.0061 88.3522 90.283 87.6985 89.4061C87.0447 88.5293 86.3764 87.768 86.2127 87.7141C85.9876 87.6401 85.9157 88.2343 85.9157 90.164ZM91.1625 88.2909C90.8915 88.6396 90.6698 89.0188 90.6698 89.1334C90.6698 89.5724 91.6367 90.2901 92.5713 90.5451C93.6483 90.8388 93.9772 91.3142 93.5028 91.8929C93.1864 92.279 91.9654 92.2735 91.0859 91.8822C90.8239 91.7658 90.6698 91.8005 90.6698 91.9759C90.6698 92.4091 92.3179 93.0083 93.0212 92.8307C93.8858 92.6121 94.4732 92.0157 94.4732 91.3558C94.4732 90.7328 93.8722 90.2681 92.4954 89.8256C90.7046 89.25 91.2998 87.9717 93.2252 88.2579C93.8116 88.3452 94.2355 88.3117 94.2355 88.1785C94.2355 87.8486 93.6219 87.6565 92.5694 87.6565C91.8649 87.6565 91.5422 87.8019 91.1625 88.2909ZM95.0837 90.1147C95.1206 92.0226 95.2063 92.5913 95.4561 92.5913C95.7086 92.5913 95.7805 92.0577 95.7805 90.1872C95.7805 88.1961 95.7166 87.771 95.408 87.7108C95.087 87.6482 95.0422 87.9797 95.0837 90.1147ZM97.2151 88.4038C96.5167 89.0245 96.3749 89.313 96.3749 90.1115C96.3749 92.0587 98.0162 93.2627 99.8438 92.6564C100.73 92.3626 100.773 92.3016 100.773 91.3265C100.773 90.0878 100.329 89.846 100.218 91.0243C100.175 91.4866 100.015 91.9454 99.8618 92.0438C99.2748 92.4218 98.2859 92.2177 97.6668 91.5908C97.1299 91.0471 97.0548 90.8061 97.1641 89.9795C97.3704 88.422 98.6071 87.7526 100.049 88.4176C100.383 88.5717 100.735 88.617 100.833 88.5186C101.164 88.1824 100.09 87.6565 99.0715 87.6565C98.2739 87.6565 97.8746 87.8173 97.2151 88.4038ZM101.842 90.184C101.842 92.2378 101.907 92.7115 102.189 92.7115C102.455 92.7115 102.551 92.2959 102.605 90.9105L102.674 89.1094L104.097 90.9105C104.88 91.9011 105.659 92.7115 105.829 92.7115C106.26 92.7115 106.139 87.8621 105.705 87.7163C105.485 87.6421 105.406 88.1034 105.4 89.5021L105.393 91.3876L104.865 90.7719C103.867 89.606 102.674 88.0808 102.595 87.8688C102.551 87.7522 102.364 87.6565 102.179 87.6565C101.91 87.6565 101.842 88.164 101.842 90.184ZM41.3847 88.2984C41.2975 88.3866 41.2261 88.7657 41.2261 89.1411C41.2261 89.7967 41.2709 89.823 42.3856 89.823C43.7877 89.823 44.2328 89.4308 43.7019 88.6632C43.4376 88.281 43.094 88.1381 42.4407 88.1381C41.947 88.1381 41.4717 88.2101 41.3847 88.2984ZM81.3397 88.6471C80.8018 89.0536 80.6861 89.3261 80.6861 90.1868C80.6861 91.0407 80.8057 91.3276 81.3397 91.7529C82.6232 92.7754 84.4981 91.8589 84.4817 90.2175C84.4735 89.3694 84.1428 88.8315 83.376 88.4178C82.6367 88.0193 82.089 88.0808 81.3397 88.6471ZM41.2705 91.3274C41.3366 92.0228 41.4346 92.1185 42.1504 92.1878C43.5531 92.3232 44.0787 92.0713 44.0787 91.2627C44.0787 90.5453 44.0781 90.5451 42.6375 90.5451H41.196L41.2705 91.3274ZM54.6944 91.9111C54.6083 91.9983 54.5379 92.2139 54.5379 92.3907C54.5379 92.7491 55.1507 92.8299 55.3533 92.498C55.5152 92.2329 54.9093 91.6935 54.6944 91.9111ZM106.834 92.2101C106.834 92.5057 106.988 92.7115 107.208 92.7115C107.43 92.7115 107.551 92.5479 107.505 92.3103C107.39 91.7064 106.834 91.6235 106.834 92.2101ZM40.7508 97.1647V99.6922H42.596C44.2817 99.6922 44.4615 99.6452 44.676 99.1506C44.8741 98.6938 45.1246 98.5978 46.2772 98.5368C47.5431 98.4699 47.6641 98.5099 47.9199 99.0783C48.1672 99.6284 48.859 99.963 48.8156 99.5118C48.752 98.8578 46.5142 94.7576 46.2207 94.7576C46.0056 94.7576 45.5387 95.5175 45.0321 96.6923C44.5732 97.7561 44.111 98.7582 44.0052 98.9188C43.8937 99.0881 43.2692 99.2108 42.5195 99.2108H41.2261V96.9241C41.2261 95.5599 41.1301 94.6372 40.9884 94.6372C40.845 94.6372 40.7508 95.6403 40.7508 97.1647ZM48.5952 94.7774C48.5952 94.8544 48.9577 95.5439 49.4008 96.3093C49.8439 97.075 50.2813 98.1493 50.3726 98.6968C50.5499 99.7589 50.9537 100.051 51.0002 99.1506C51.0161 98.8528 51.0141 98.5226 50.9965 98.417C50.9789 98.3113 51.4036 97.4635 51.9405 96.5329C53.2864 94.1992 52.96 93.9395 51.4689 96.1581L50.6895 97.3175L49.8617 95.9775C49.1484 94.8223 48.5952 94.2982 48.5952 94.7774ZM54.835 94.7966C54.6717 94.8635 54.5379 95.0241 54.5379 95.1534C54.5379 95.2829 54.1099 96.3093 53.5871 97.4344C52.5087 99.7539 52.5261 99.6922 52.9545 99.6922C53.1297 99.6922 53.3951 99.4215 53.5439 99.0904C53.7854 98.5538 53.9574 98.4887 55.1322 98.4887C56.3069 98.4887 56.479 98.5538 56.7206 99.0904C56.8694 99.4215 57.1346 99.6922 57.3098 99.6922C57.7339 99.6922 57.7493 99.7523 56.7683 97.6036C56.2956 96.5677 55.8167 95.4765 55.7047 95.1789C55.4982 94.6315 55.3736 94.5766 54.835 94.7966ZM57.6281 94.8291C57.6281 94.9566 57.9611 96.103 58.3684 97.3765C59.3069 100.312 59.6608 100.407 60.4924 97.947C60.8166 96.9873 61.1848 96.2212 61.3103 96.2446C61.4761 96.2755 62.5449 99.055 62.6129 99.6322C62.617 99.6652 62.8073 99.6914 63.036 99.6898C63.351 99.6882 63.6457 99.1003 64.2503 97.2684C64.689 95.9381 64.9816 94.7819 64.9 94.6994C64.6486 94.4448 64.3643 94.9338 63.8195 96.5572C63.0304 98.9097 63.0042 98.9176 62.3955 96.9916C61.4786 94.0909 61.1286 94.0503 60.254 96.7435C59.9422 97.7032 59.6213 98.4887 59.5408 98.4887C59.4602 98.4887 59.1307 97.6577 58.8083 96.6422C58.4861 95.6266 58.0888 94.7509 57.9253 94.6962C57.762 94.6418 57.6281 94.7016 57.6281 94.8291ZM66.5886 95.886C64.7661 99.9343 64.8468 99.6922 65.3155 99.6922C65.4907 99.6922 65.7559 99.4215 65.9046 99.0904C66.1463 98.5538 66.3184 98.4887 67.4931 98.4887C68.6679 98.4887 68.8399 98.5538 69.0814 99.0904C69.2302 99.4215 69.5069 99.6922 69.6962 99.6922C69.8852 99.6922 69.9816 99.5569 69.9105 99.3914C68.2694 95.5809 67.8482 94.7457 67.5352 94.6826C67.2862 94.6323 66.9752 95.0279 66.5886 95.886ZM69.7515 94.8178C69.7515 94.9172 70.1795 95.7024 70.7021 96.563C71.2991 97.5452 71.6528 98.4188 71.6528 98.9099C71.653 99.3403 71.76 99.6922 71.8908 99.6922C72.0214 99.6922 72.1285 99.3468 72.1285 98.9243C72.1285 98.4505 72.5047 97.526 73.1111 96.5095C73.6517 95.6034 74.0332 94.801 73.9591 94.7255C73.7325 94.4964 73.3486 94.859 72.959 95.6704C72.4322 96.7669 71.8558 97.4579 71.7355 97.1374C71.2719 95.902 69.7509 94.1236 69.7515 94.8178ZM78.1098 95.5243C77.3769 96.9801 76.3973 99.5215 76.5205 99.6468C76.702 99.8304 77.358 99.1829 77.358 98.8204C77.358 98.5752 77.7322 98.4887 78.7902 98.4887C80.0991 98.4887 80.2416 98.5404 80.4483 99.0904C80.5727 99.4215 80.8388 99.6922 81.04 99.6922C81.3606 99.6922 81.3655 99.5965 81.0799 98.9099C80.3062 97.0504 79.1072 94.7863 78.8506 94.6998C78.6975 94.6481 78.364 95.019 78.1098 95.5243ZM81.7218 95.0015C81.6457 95.2019 81.626 96.1232 81.6774 97.049C81.7963 99.1795 82.3027 99.8149 83.8335 99.7551C84.6041 99.725 84.976 99.5631 85.3903 99.0774C85.8695 98.5158 85.9266 98.2254 85.8656 96.6568C85.7747 94.3002 85.3539 94.2563 85.2024 96.5875C85.0696 98.633 84.7521 99.2108 83.7606 99.2108C82.7305 99.2108 82.35 98.4495 82.35 96.3889C82.35 94.7445 82.0608 94.1062 81.7218 95.0015ZM86.3118 94.7978C85.9566 95.1574 86.1988 95.3593 86.9852 95.3593H87.8172V97.5258C87.8172 99.291 87.8833 99.6922 88.1739 99.6922C88.4644 99.6922 88.5305 99.291 88.5305 97.5258V95.3593H89.3625C89.9434 95.3593 90.1945 95.2506 90.1945 94.9984C90.1945 94.7081 89.829 94.6372 88.3324 94.6372C87.3081 94.6372 86.3988 94.7095 86.3118 94.7978ZM90.6698 97.1647C90.6698 98.6893 90.7642 99.6922 90.9076 99.6922C91.0384 99.6922 91.1453 99.1997 91.1453 98.5974V97.5029L92.6309 97.5745L94.1166 97.6462L94.1895 98.6693C94.2402 99.3779 94.3708 99.6922 94.6138 99.6922C94.9053 99.6922 94.9536 99.272 94.8975 97.2249C94.8295 94.7473 94.423 93.7949 94.2814 95.7807L94.2081 96.8037H92.6769H91.1453V95.7205C91.1453 95.1247 91.0384 94.6372 90.9076 94.6372C90.7642 94.6372 90.6698 95.6403 90.6698 97.1647ZM96.0678 94.7879C95.9751 94.8815 95.8994 96.0232 95.8994 97.3253V99.6922H97.6823C98.7123 99.6922 99.4651 99.5906 99.4651 99.4516C99.4651 99.3177 98.8312 99.2108 98.0389 99.2108H96.6125V98.3683V97.5258H97.8011C98.6992 97.5258 98.9898 97.4375 98.9898 97.1647C98.9898 96.892 98.6992 96.8037 97.8011 96.8037C96.6389 96.8037 96.6125 96.7875 96.6125 96.0816V95.3593H98.0586C99.1094 95.3593 99.478 95.2771 99.4066 95.0586C99.2995 94.7305 96.3597 94.4921 96.0678 94.7879ZM100.178 97.1647C100.178 99.251 100.241 99.6922 100.535 99.6922C100.819 99.6922 100.891 99.3399 100.891 97.9654V96.2382L101.507 96.8219C101.846 97.1429 102.497 97.9201 102.954 98.5489C104.259 100.346 104.486 100.138 104.406 97.2249C104.326 94.3279 103.918 93.9155 103.744 96.5556L103.625 98.3541L102.796 97.2779C102.341 96.6861 101.859 96.0787 101.727 95.928C101.594 95.7771 101.3 95.4251 101.072 95.1457C100.321 94.2222 100.178 94.5442 100.178 97.1647ZM104.818 94.8703C104.652 95.1429 104.953 95.2952 105.883 95.4078C106.465 95.4783 106.478 95.5231 106.478 97.5258C106.478 99.1318 106.55 99.572 106.815 99.572C107.072 99.572 107.162 99.1447 107.195 97.7666C107.253 95.2999 107.217 95.3989 108.082 95.3144C108.507 95.273 108.855 95.1306 108.855 94.9984C108.855 94.6679 105.016 94.5459 104.818 94.8703ZM109.211 97.1447C109.211 99.2746 109.271 99.6922 109.576 99.6922C109.885 99.6922 109.931 99.3144 109.873 97.2445C109.826 95.5512 109.714 94.7661 109.508 94.697C109.283 94.6214 109.211 95.214 109.211 97.1447ZM112.074 94.8134C111.883 94.8893 111.468 95.1942 111.152 95.491C110.112 96.4673 110.44 98.7649 111.719 99.4577C112.51 99.8866 114.162 99.8365 114.623 99.3696C115.112 98.8754 114.868 98.6097 114.239 98.9506C112.692 99.789 110.865 98.4925 111.229 96.8144C111.485 95.6365 112.11 95.272 113.605 95.4282C114.992 95.5732 115.363 95.2787 114.307 94.8718C113.648 94.6184 112.63 94.5917 112.074 94.8134ZM117.115 94.8132C116.952 94.8707 116.818 95.0198 116.818 95.1439C116.818 95.2682 116.39 96.2988 115.867 97.4346C114.785 99.7844 114.811 99.6922 115.235 99.6922C115.41 99.6922 115.675 99.4215 115.824 99.0904C116.065 98.5538 116.237 98.4887 117.412 98.4887C118.587 98.4887 118.759 98.5538 119.001 99.0904C119.149 99.4215 119.415 99.6922 119.59 99.6922C119.995 99.6922 120.027 99.8311 119.18 97.8799C118.779 96.957 118.329 95.907 118.18 95.5464C117.889 94.8471 117.594 94.6439 117.115 94.8132ZM119.67 94.9887C119.67 95.2534 119.913 95.3593 120.52 95.3593C121.299 95.3593 121.367 95.4146 121.327 96.0214C121.304 96.3856 121.295 97.3605 121.309 98.1878C121.329 99.3534 121.415 99.6922 121.691 99.6922C121.981 99.6922 122.048 99.291 122.048 97.5258V95.3593H122.899C123.475 95.3593 123.719 95.2617 123.653 95.0586C123.587 94.8584 122.903 94.7342 121.612 94.6879C119.992 94.6293 119.67 94.6792 119.67 94.9887ZM124.118 94.7879C124.025 94.8815 123.949 96.0232 123.949 97.3253V99.6922H125.732C126.762 99.6922 127.515 99.5906 127.515 99.4516C127.515 99.3177 126.881 99.2108 126.089 99.2108H124.662V98.3683V97.5258H125.851C126.749 97.5258 127.039 97.4375 127.039 97.1647C127.039 96.892 126.749 96.8037 125.851 96.8037C124.693 96.8037 124.662 96.7851 124.662 96.0935C124.662 95.4017 124.696 95.3815 125.973 95.3112C126.693 95.2716 127.308 95.1306 127.34 94.9984C127.404 94.7229 124.377 94.5253 124.118 94.7879ZM45.6779 96.6455C45.4521 97.1987 45.2671 97.7306 45.2671 97.8274C45.2671 97.9244 45.6951 97.9868 46.218 97.966C47.2758 97.9242 47.3106 97.8535 46.8366 96.7049C46.3525 95.5318 46.1374 95.5207 45.6779 96.6455ZM54.5438 96.6691C54.2791 97.2948 54.0624 97.8517 54.0624 97.9068C54.0624 98.0618 55.867 98.0256 56.0232 97.8674C56.1565 97.7323 55.481 95.9935 55.175 95.6836C55.0927 95.6001 54.8086 96.0438 54.5438 96.6691ZM116.873 96.614C116.608 97.1815 116.44 97.7272 116.5 97.8268C116.627 98.0385 118.101 98.0717 118.303 97.8674C118.43 97.7387 117.767 95.9995 117.48 95.7086C117.411 95.6389 117.138 96.0464 116.873 96.614ZM66.8058 96.8085C66.5955 97.3407 66.4234 97.8282 66.4234 97.8917C66.4234 97.9553 66.8512 98.0072 67.3742 98.0072C68.0126 98.0072 68.3251 97.9008 68.3251 97.6832C68.3251 97.2261 67.6165 95.8409 67.3827 95.8409C67.2755 95.8409 67.016 96.2763 66.8058 96.8085ZM78.2339 96.6915C77.6681 97.8933 77.7156 98.0072 78.7843 98.0072C79.3072 98.0072 79.7352 97.9121 79.7352 97.7959C79.7352 97.39 79.0139 95.8409 78.8252 95.8409C78.7204 95.8409 78.4543 96.2236 78.2339 96.6915ZM74.1568 98.9574C73.9475 99.2999 74.2144 99.6922 74.6557 99.6922C74.864 99.6922 74.9833 99.5231 74.9389 99.291C74.8464 98.8073 74.3716 98.6051 74.1568 98.9574ZM128.149 98.8899C127.859 99.1831 127.985 99.6922 128.347 99.6922C128.545 99.6922 128.703 99.4783 128.703 99.2108C128.703 98.7313 128.45 98.5847 128.149 98.8899Z" fill="#3C1F1B" fill-opacity="0.78"/>
</svg>
