<svg width="218" height="30" viewBox="0 0 218 30" fill="none" xmlns="http://www.w3.org/2000/svg">
<path d="M-7.8097e-05 29.48V24.88L15.8399 5.55998H1.23992V0.47998H23.2399V5.07998L7.47992 24.36H23.5999V29.48H-7.8097e-05ZM39.3077 30C30.6277 30 24.8277 23.92 24.8277 15C24.8277 6.03998 30.6277 -2.14577e-05 39.3077 -2.14577e-05C48.0277 -2.14577e-05 53.8277 6.03998 53.8277 15C53.8277 23.92 48.0277 30 39.3077 30ZM39.3077 25.16C43.9477 25.16 47.7077 21.64 47.7077 15C47.7077 8.35998 43.9477 4.79998 39.3077 4.79998C34.7077 4.79998 30.9077 8.35998 30.9077 15C30.9077 21.64 34.7077 25.16 39.3077 25.16ZM54.6702 29.48V24.88L70.5102 5.55998H55.9102V0.47998H77.9102V5.07998L62.1502 24.36H78.2702V29.48H54.6702ZM93.978 30C85.298 30 79.498 23.92 79.498 15C79.498 6.03998 85.298 -2.14577e-05 93.978 -2.14577e-05C102.698 -2.14577e-05 108.498 6.03998 108.498 15C108.498 23.92 102.698 30 93.978 30ZM93.978 25.16C98.618 25.16 102.378 21.64 102.378 15C102.378 8.35998 98.618 4.79998 93.978 4.79998C89.378 4.79998 85.578 8.35998 85.578 15C85.578 21.64 89.378 25.16 93.978 25.16ZM136.046 0.47998V17.04C136.046 25.8 132.686 30 123.846 30C115.406 30 111.646 26.68 111.646 17.32V0.47998H117.486V17.92C117.486 22.68 118.846 25.16 123.846 25.16C128.926 25.16 130.206 22.32 130.206 17.52V0.47998H136.046ZM149.327 11.52L153.087 12.32C157.687 13.28 163.367 14.8 163.367 20.8C163.367 26.72 157.567 30 151.607 30C144.407 30 139.727 26.28 138.807 20.2H144.567C145.327 23.6 147.887 25.24 151.767 25.24C154.807 25.24 157.367 24 157.367 21.44C157.367 19.16 155.007 18.04 151.647 17.36L148.127 16.64C143.687 15.72 139.487 13.52 139.487 8.51998C139.487 2.67998 145.407 -2.14577e-05 150.967 -2.14577e-05C156.487 -2.14577e-05 161.607 2.39998 162.647 8.51998H156.927C156.127 5.91998 153.567 4.71998 150.647 4.71998C148.167 4.71998 145.487 5.71998 145.487 8.11998C145.487 9.91998 147.087 11.04 149.327 11.52ZM166.479 29.48V0.47998H187.759V5.59998H172.319V12H186.919V17.12H172.319V24.36H187.759V29.48H166.479ZM191.685 29.48V0.47998H200.645C210.005 0.47998 217.165 3.91998 217.165 14.96C217.165 26.04 210.005 29.48 200.645 29.48H191.685ZM197.525 24.56H200.685C206.045 24.56 211.045 23.44 211.045 14.96C211.045 6.51998 206.045 5.39998 200.685 5.39998H197.525V24.56Z" fill="black"/>
</svg>
