<svg width="130" height="30" viewBox="0 0 130 30" fill="none" xmlns="http://www.w3.org/2000/svg">
<g clip-path="url(#clip0_5298_593)">
<path d="M125.71 9.97805V20.478C125.71 22.8259 125.71 23.0867 123.89 23.3476V23.7389H129.74V23.3476C127.985 23.152 127.92 22.8259 127.92 20.478V10.9563C127.92 8.60848 127.92 7.23892 127.985 5.99979L123.89 7.36935V7.76066C125.71 7.76066 125.71 7.76066 125.71 9.97805ZM119.34 21.652C118.755 22.3041 118.04 22.7607 117.195 22.7607C115.83 22.7607 114.92 21.5215 114.855 20.4128C114.79 19.4346 115.31 18.9128 116.22 18.3259C116.61 18.1302 117.52 17.5433 119.405 16.8911L119.34 21.652ZM119.405 22.3041C119.47 23.4128 120.315 23.9998 121.225 23.9998C122.33 23.9998 122.915 23.152 123.5 22.3694L123.305 22.1737C122.98 22.4346 122.655 22.6302 122.33 22.6302C121.745 22.6302 121.485 22.4346 121.55 21.1954L121.68 15.3259C121.745 12.3259 119.86 11.478 117.78 11.478C114.855 11.478 112.905 13.6302 112.775 15.7172H114.985C114.855 13.7607 115.115 12.3259 117.26 12.3259C118.755 12.3259 119.6 13.1085 119.6 15.5215V16.0433C117.91 16.7607 116.675 17.3476 116.09 17.6085C113.75 18.7172 112.45 19.6302 112.45 21.065C112.45 22.8259 114.335 24.065 116.025 24.065C116.805 24.065 117.39 23.9346 117.91 23.6085C118.3 23.2824 118.885 22.7607 119.405 22.3041ZM106.21 12.1954C107.64 12.1954 108.355 13.2389 108.42 14.7389H103.22C103.74 12.7824 105.04 12.1954 106.21 12.1954ZM111.15 20.5433C110.37 21.3259 109.2 22.0433 107.51 22.0433C104.585 22.0433 103.09 19.6302 103.09 16.3694V15.652H111.15C110.825 13.0433 108.94 11.4128 106.6 11.4128C103.545 11.4128 101.075 14.2172 101.075 17.8041C101.075 21.3911 102.765 24.065 106.47 24.065C109.07 24.065 110.63 22.1737 111.41 20.8041L111.15 20.5433ZM90.0904 8.15196H91.7154C94.5104 8.15196 96.0054 8.93457 96.0054 11.478C96.0054 14.0215 94.5104 14.8694 91.7154 14.8694H90.0904V8.15196ZM91.7154 15.7172L98.7354 23.7389H101.725L94.5104 15.5215C97.6304 14.9346 98.6704 13.2389 98.6704 11.5433C98.6704 8.54327 95.6154 7.36935 91.7804 7.36935H85.2804V7.76066C87.2304 8.02153 87.4904 8.08674 87.4904 10.6302V20.4128C87.4904 22.9563 87.2304 23.0215 85.2804 23.2824V23.6737H92.3004V23.2824C90.3504 23.0215 90.0904 22.9563 90.0904 20.4128V15.7172H91.7154ZM79.5604 9.97805V20.478C79.5604 22.8259 79.5604 23.0867 77.7404 23.3476V23.7389H83.5904V23.3476C81.8354 23.152 81.7704 22.8259 81.7704 20.478V10.9563C81.7704 8.60848 81.7704 7.23892 81.8354 5.99979L77.7404 7.36935V7.76066C79.5604 7.76066 79.5604 7.76066 79.5604 9.97805ZM73.1904 21.652C72.6054 22.3041 71.8904 22.7607 71.0454 22.7607C69.6804 22.7607 68.7704 21.5215 68.7054 20.4128C68.6404 19.4346 69.1604 18.9128 70.0704 18.3259C70.4604 18.1302 71.3704 17.5433 73.2554 16.8911L73.1904 21.652ZM73.2554 22.3041C73.3204 23.4128 74.1654 23.9998 75.0754 23.9998C76.1804 23.9998 76.7654 23.152 77.3504 22.3694L77.1554 22.1737C76.8304 22.4346 76.5054 22.6302 76.1804 22.6302C75.5954 22.6302 75.3354 22.4346 75.4004 21.1954L75.5304 15.3259C75.5954 12.3259 73.7104 11.478 71.6304 11.478C68.7054 11.478 66.7554 13.6302 66.6254 15.7172H68.8354C68.7054 13.7607 68.9654 12.3259 71.1104 12.3259C72.6054 12.3259 73.4504 13.1085 73.4504 15.5215V16.0433C71.7604 16.7607 70.5254 17.3476 69.9404 17.6085C67.6004 18.7172 66.3004 19.6302 66.3004 21.065C66.3004 22.8259 68.1854 24.065 69.8754 24.065C70.6554 24.065 71.2404 23.9346 71.7604 23.6085C72.1504 23.2824 72.7354 22.7607 73.2554 22.3041ZM60.0604 12.1954C61.4904 12.1954 62.2054 13.2389 62.2704 14.7389H57.0704C57.5254 12.7824 58.8904 12.1954 60.0604 12.1954ZM65.0004 20.5433C64.2204 21.3259 63.0504 22.0433 61.3604 22.0433C58.4354 22.0433 56.9404 19.6302 56.9404 16.3694V15.652H65.0004C64.6754 13.0433 62.7904 11.4128 60.4504 11.4128C57.3954 11.4128 54.9254 14.2172 54.9254 17.8041C54.9254 21.3911 56.6154 24.065 60.3204 24.065C62.9204 24.065 64.4804 22.1737 65.2604 20.8041L65.0004 20.5433ZM43.9404 8.15196H45.5004C48.2954 8.15196 49.7904 8.93457 49.7904 11.478C49.7904 14.0215 48.2954 14.8694 45.5004 14.8694H43.8754V8.15196H43.9404ZM45.5654 15.7172L52.5854 23.7389H55.5754L48.3604 15.5215C51.4804 14.9346 52.5204 13.2389 52.5204 11.5433C52.5204 8.54327 49.4654 7.36935 45.6304 7.36935H39.1304V7.76066C41.0804 8.02153 41.3404 8.08674 41.3404 10.6302V20.4128C41.3404 22.9563 41.0804 23.0215 39.1304 23.2824V23.6737H46.1504V23.2824C44.2004 23.0215 43.9404 22.9563 43.9404 20.4128V15.7172H45.5654ZM31.3304 12.1954C32.7604 12.1954 33.4754 13.2389 33.5404 14.7389H28.3404C28.7954 12.7824 30.0954 12.1954 31.3304 12.1954ZM36.2054 20.5433C35.4254 21.3259 34.2554 22.0433 32.5654 22.0433C29.6404 22.0433 28.1454 19.6302 28.1454 16.3694V15.652H36.2054C35.8804 13.0433 33.9954 11.4128 31.6554 11.4128C28.6004 11.4128 26.1304 14.2172 26.1304 17.8041C26.1304 21.3911 27.8204 24.065 31.5254 24.065C34.1254 24.065 35.6854 22.1737 36.4654 20.8041L36.2054 20.5433ZM13.2604 23.7389H19.1104V23.3476C17.3554 23.152 17.2904 22.8259 17.2904 20.478V14.0215C17.8104 13.3041 18.8504 12.978 19.7604 12.978C21.3204 12.978 22.1004 14.0215 22.1004 16.1085V20.478C22.1004 22.8259 22.1004 23.0867 20.2804 23.3476V23.7389H26.1304V23.3476C24.3754 23.152 24.3104 22.8259 24.3104 20.478V15.652C24.3104 12.652 22.8154 11.3476 20.8654 11.3476C19.1754 11.3476 18.0704 12.3911 17.2904 13.3694V10.0433C17.2904 7.69544 17.2904 7.10848 17.3554 5.93457L13.7804 7.30414H5.65543C4.29043 7.30414 2.34043 7.30414 0.71543 7.23892L0.0654297 12.1954H0.52043C1.75543 8.47805 2.79543 8.02153 6.17543 8.02153H6.89043V20.4128C6.89043 22.7607 6.63043 23.0867 4.42043 23.2824V23.7389H11.8304V23.2824C9.62043 23.0867 9.36043 22.7607 9.36043 20.4128V8.02153H10.0754C15.0804 8.02153 15.0804 8.02153 15.0804 9.58674V20.478C15.0804 22.8259 15.0804 23.0867 13.2604 23.3476V23.7389Z" fill="black"/>
</g>
<defs>
<clipPath id="clip0_5298_593">
<rect width="130" height="30" fill="white"/>
</clipPath>
</defs>
</svg>
