<svg width="124" height="40" viewBox="0 0 124 40" fill="none" xmlns="http://www.w3.org/2000/svg">
<path d="M24.8627 0C24.437 0 23.92 0.358142 22.5277 1.56986C22.0332 1.74893 21.4938 1.61462 20.8649 2.58012C17.3167 7.6732 14.5543 26.7189 12.1953 32.2164C11.7232 29.8377 10.7357 14.357 10.3533 10.1175C10.3084 9.33259 10.3981 8.34471 10.3981 7.76273C10.3981 3.85898 9.54651 1.88323 5.63677 1.88323C3.66024 1.88323 1.70761 2.6025 0.673783 3.90375C0.180771 4.57527 0 5.0707 0 6.28092C0 14.3809 1.93171 27.6605 4.08752 36.3201C4.7613 39.036 7.18752 39.5508 9.47778 39.5508C10.5564 39.5508 11.6336 39.4165 13.1619 38.654C18.4611 36.0724 19.8773 29.0289 21.2473 22.1869C21.4938 20.9528 22.7293 14.9853 23.3135 11.8456C24.0993 7.55978 24.9972 2.71442 25.5365 0.941615C25.7158 0.404401 25.3782 0 24.8627 0ZM114.881 19.383C114.164 24.7446 111.422 33.9205 108.367 33.9205C107.492 33.9205 107.043 32.9103 107.043 31.6762C107.043 28.1545 109.423 21.111 114.881 19.383ZM88.2223 25.4176C88.9185 22.2764 91.9273 17.4758 94.6225 17.4758C95.1155 17.4758 95.3859 17.7892 95.3186 18.5533C95.1618 20.9304 93.3869 24.8804 88.2223 25.4176ZM124 2.42194C124 1.48181 123.417 0.650625 122.091 0.650625C121.014 0.650625 119.756 1.18784 118.968 1.86234C118.027 1.6385 116.768 2.35478 116.611 3.20836C115.803 6.99869 115.443 10.9472 114.994 14.2003C109.559 14.6928 105.425 17.6997 103.404 22.6137C103.07 23.4244 102.68 24.2112 102.237 24.9685C99.3613 29.8601 95.7683 32.6864 92.2426 32.6864C89.658 32.6864 88.1774 30.8689 87.9967 28.4007C88.9185 28.6245 89.7939 28.7379 90.6022 28.7379C96.4421 28.7379 99.4062 23.2195 99.4062 19.4949C99.4062 15.8836 96.9814 14.0436 93.3869 14.0436C86.8284 14.0884 81.3709 21.8959 81.3709 29.0289C81.3709 34.0996 83.6402 38.1153 88.8064 38.1153C92.8028 38.1153 98.329 35.9172 102.079 30.263C101.832 34.2787 102.887 38.2048 106.325 38.5868C108.256 38.7659 111.76 37.5542 114.095 32.7984C114.274 36.7469 115.532 38.654 116.544 38.654C118.363 38.654 119.508 38.0034 120.922 37.9362C121.372 37.9138 121.507 37.5094 121.507 37.1513C121.507 36.5678 120.834 34.413 120.834 31.3165C120.834 26.5846 121.775 19.1815 123.776 4.08282C123.866 3.72468 124 2.98153 124 2.42194ZM34.1613 12.0918C35.9137 12.0918 37.3509 10.6562 37.3509 9.08637C37.3509 7.02257 36.7219 5.04831 34.3853 5.04831C32.7913 5.04831 30.0289 6.84201 30.0289 8.39097C30.0289 10.207 32.0279 12.0918 34.1613 12.0918ZM81.9326 10.8353C80.9227 10.6338 79.8216 10.6115 78.6982 10.6115C78.743 9.82652 78.6758 8.32233 78.6982 7.00019C78.6982 6.79724 78.7878 6.4391 78.7878 5.98993C78.7878 5.54225 78.6982 5.04831 78.3844 4.59914C78.4965 4.28577 78.5637 4.01567 78.5637 3.81421C78.5637 2.7368 76.9696 2.33389 75.4652 2.33389C74.1625 2.33389 72.9493 2.80395 72.5221 4.21712C71.8259 6.7077 71.6242 7.78362 71.4449 10.3861C69.8718 10.4757 66.8181 10.4995 66.8853 11.4635C67.0646 13.9541 69.4684 14.7614 71.1969 14.8062C70.9952 21.6482 65.2673 32.7312 63.494 32.7312C63.1563 32.7312 63.0219 32.194 63.0219 31.0479C63.0219 28.8051 63.494 25.7982 63.494 22.6137C63.494 20.6394 63.2908 18.8442 62.6857 17.6997C61.9208 16.3313 59.4065 15.6583 57.4299 15.6583C56.665 15.6583 56.0375 15.7478 55.543 15.9269C52.2638 17.252 49.5014 24.6999 48.4676 26.3593C48.9621 21.8511 49.7031 18.3279 49.7031 16.4895C49.7031 15.4568 48.7828 14.5376 47.749 14.5376C47.3456 14.5376 46.987 14.6719 46.6494 14.9853C45.1659 15.524 43.1893 14.9853 42.8532 17.0938C42.7636 17.6549 42.6515 18.3279 42.6067 19.092C42.2466 24.5656 36.7653 34.7055 33.9596 34.7055C33.2634 34.7055 33.105 33.8086 33.105 32.6641C33.105 28.8498 35.0815 20.8185 35.1264 19.2039C35.2399 18.9562 35.3056 18.6652 35.3056 18.419C35.3056 16.8924 33.5099 15.412 31.6678 15.412C31.13 15.412 30.7475 15.3001 30.3202 15.3001C30.0513 15.3001 29.7585 15.3449 29.4448 15.5464C27.401 16.8476 25.6053 24.2955 25.6053 28.8722C25.6053 33.9205 28.5469 37.9586 33.2186 37.9586C36.5651 37.9586 39.3946 34.9069 41.797 30.6898C41.797 31.3404 41.6625 34.5025 41.797 36.2977C41.8866 37.5318 43.1669 36.9931 44.7177 37.6213C45.3003 38.1138 45.8397 38.3391 46.3118 38.3391C47.0976 38.3391 47.7041 37.6437 48.1538 36.432C49.9959 31.3852 54.4435 20.056 55.6999 20.056C56.6426 20.056 55.6775 27.3471 55.6775 30.9584C55.6775 33.0222 55.8792 34.795 56.5978 35.5575C57.9229 36.9483 59.3377 37.6213 60.8212 37.6213C64.1005 37.6213 67.5591 34.122 70.3887 27.6157C70.2094 30.3973 70.187 31.2509 70.187 32.2149C70.187 33.8295 70.2766 35.6247 70.5007 36.9259C70.6352 37.5542 70.7039 38.0034 71.2641 38.4063C72.0276 38.8331 72.7238 39.0793 73.1062 39.3494C73.9817 39.7747 73.9145 40 75.1276 40C75.5548 40 76.139 39.5971 76.2286 38.6316C77.3058 27.9754 78.4293 14.8301 78.4293 14.8301C79.1479 14.8062 81.1931 14.2899 83.1009 14.066C83.9092 13.9765 84.8758 13.4841 84.8758 12.8991C84.8758 12.3171 83.5954 11.1949 81.9326 10.8353Z" fill="black"/>
</svg>
