<svg width="101" height="101" viewBox="0 0 101 101" fill="none" xmlns="http://www.w3.org/2000/svg">
<path fill-rule="evenodd" clip-rule="evenodd" d="M27.8582 0.238604C27.8582 0.459213 28.0724 0.518173 28.8757 0.51907C30.2853 0.520324 31.1637 0.801865 31.5314 1.37014C31.8184 1.8137 31.8428 3.14182 31.8877 20.8736L31.9358 39.9009L30.6151 40.536C26.0712 42.7218 22.4144 46.9426 20.803 51.8621C17.952 60.5654 22.2229 70.3602 30.5725 74.2673C33.3228 75.5543 37.4021 76.2968 40.5099 76.076C46.6348 75.6411 52.5639 71.831 56.4386 65.8406C58.1026 63.2677 59.0749 60.9424 59.7171 58L59.942 56.9696H65.2222C68.1266 56.9696 70.5026 56.9287 70.5026 56.8788C70.5026 56.7524 71.0072 53.2444 71.1277 52.534C71.211 52.0423 71.1728 51.9517 70.8824 51.9517C70.6289 51.9517 70.4528 52.1921 70.2144 52.8636C69.7461 54.1822 68.9115 55.0842 67.7534 55.5229C66.5722 55.9704 64.3153 56.2493 61.8567 56.2514L60.0233 56.2527L60.1278 55.6704C60.3969 54.1703 60.5906 51.6649 60.5921 49.6668C60.5933 47.6346 60.6183 47.4714 60.9276 47.4714C61.6731 47.4714 64.5053 46.5075 66.1674 45.6881C70.2546 43.673 73.4463 40.4211 75.5874 36.09C78.704 29.7853 79.0955 21.3503 76.5981 14.3173C74.3518 7.99183 69.4267 3.12946 63.2751 1.16405C59.9114 0.0893216 60.2802 0.110289 43.3853 0.0316154C29.4083 -0.0336174 27.8582 -0.0130084 27.8582 0.238604ZM37.4874 0.710647C37.1875 0.798818 36.7894 1.04201 36.6028 1.25097C36.2716 1.6214 36.2619 2.29308 36.2159 28.1802C36.1825 46.9526 36.225 54.8671 36.3606 55.1989C36.7512 56.1547 36.7937 56.159 46.305 56.2142L55.1082 56.2654V52.1372V48.009H45.7298C40.5172 48.009 36.3517 47.9397 36.3517 47.8527C36.3517 47.767 37.2076 47.6599 38.2538 47.6147C40.2412 47.5294 40.9049 47.3213 41.572 46.575C41.9207 46.1846 41.9261 45.8856 41.9718 24.2399C42.0237 -0.354585 42.1237 1.51208 40.7195 0.866202C39.9286 0.502583 38.4387 0.430897 37.4874 0.710647ZM47.3224 24.0843V47.6505H51.2194H55.1168L55.0681 34.1649C55.0208 21.0446 55.0101 20.663 54.6658 20.0798C54.1979 19.2874 53.2277 18.8071 51.8272 18.6746C51.1986 18.6151 50.6845 18.4975 50.6845 18.4132C50.6845 18.3289 54.0335 18.2599 58.1266 18.2599C62.2611 18.2599 65.5271 18.3288 65.4745 18.4147C65.4225 18.4998 64.8405 18.6089 64.1811 18.6566C62.6241 18.7699 61.6341 19.2747 61.1982 20.1775C60.9124 20.7692 60.8528 21.5165 60.7436 25.8763C60.6116 31.1379 60.5351 46.5758 60.6404 46.6825C60.674 46.7167 61.1929 46.5092 61.7932 46.2215C67.1109 43.6745 70.9432 37.9418 72.4877 30.2232C72.8428 28.4483 72.8906 27.6897 72.8852 23.905C72.8799 20.119 72.8309 19.3787 72.4771 17.7223C70.5299 8.60705 65.6222 2.49345 58.9525 0.873908C57.6792 0.564768 56.8601 0.520324 52.4096 0.519249L47.3224 0.517994V24.0843ZM30.4004 41.0827C26.7057 43.0999 23.8487 46.1196 22.1021 49.8539C20.7631 52.7166 20.5284 53.8619 20.5338 57.5072C20.5393 61.1774 20.7953 62.4211 22.1178 65.2043C25.3575 72.0219 31.9588 75.8477 39.9791 75.556C41.7748 75.4907 42.8215 75.3593 43.7834 75.0789C47.8688 73.8869 51.8809 70.8043 53.3807 67.705C54.4037 65.5911 54.7922 63.5825 55.0412 59.1203L55.1613 56.9696H41.9521C30.8229 56.9696 28.7428 56.9305 28.7428 56.7216C28.7428 56.5434 29.0675 56.4527 29.8968 56.3993C30.7911 56.3417 31.1393 56.2349 31.445 55.9255C31.8387 55.5271 31.8397 55.5119 31.891 48.0042C31.9325 41.9492 31.8981 40.4828 31.714 40.4863C31.5884 40.4885 30.9972 40.7568 30.4004 41.0827Z" fill="#3C1F1B" fill-opacity="0.78"/>
<path fill-rule="evenodd" clip-rule="evenodd" d="M0.60952 84.3697C0.60952 84.5771 1.0556 84.7473 1.59937 84.7473H2.02953L1.98316 91.1518C1.93769 97.4004 1.92796 97.5573 1.58273 97.6103C-0.764835 97.9698 0.456813 98.1455 5.87372 98.2278L11.0494 98.3064V96.455C11.0494 94.9923 10.9978 94.6039 10.803 94.6039C10.525 94.6039 10.342 94.9824 10.341 95.5595C10.3406 95.7731 10.1856 96.2052 9.99624 96.5197C9.53707 97.2821 8.79602 97.4692 6.22762 97.4702L4.14848 97.4714L4.15095 91.5125C4.15219 88.2351 4.20014 85.3767 4.25747 85.1603C4.33604 84.8636 4.51724 84.7535 4.9934 84.7123C5.34093 84.6823 5.65783 84.557 5.69783 84.4337C5.75374 84.2613 5.17512 84.2097 3.18996 84.2097C1.77083 84.2097 0.60952 84.2818 0.60952 84.3697ZM36.0875 84.4066C39.2018 84.4719 42.0494 84.5845 42.4156 84.6564L43.0814 84.7872L43.0349 91.2579L42.9884 97.7289L42.2365 97.8795C40.5914 98.2089 41.5846 98.3673 45.2933 98.3673C48.6054 98.3673 49.2292 98.3223 50.0758 98.0209C52.8694 97.0264 54.4017 94.6329 54.4017 91.2641C54.4017 88.2567 53.1761 85.9834 50.9806 84.9185C50.1133 84.4977 50.0144 84.4051 50.3613 84.3382C50.5884 84.2943 46.1957 84.2652 40.5997 84.273C31.3987 84.2859 30.967 84.2988 36.0875 84.4066ZM69.2653 84.3855C69.2653 84.5612 69.6697 84.6922 70.5039 84.7869L70.9462 84.837L70.9932 91.9158C71.042 99.3249 70.9857 99.9803 70.2991 99.9803C70.0192 99.9803 69.9924 99.9203 70.1438 99.6337C70.4111 99.1279 70.3678 98.4345 70.049 98.1114C69.6398 97.6971 68.4409 97.7393 68.2098 98.1764C67.8875 98.786 67.9961 99.6072 68.461 100.078C68.8084 100.43 69.0755 100.518 69.7968 100.518C70.2928 100.518 70.9216 100.401 71.1942 100.258C71.9149 99.8808 72.7568 98.8384 72.9706 98.0586C73.0839 97.6456 73.1565 94.9197 73.1571 91.0645L73.1581 84.7473L73.5563 84.7448C74.1422 84.7413 74.7507 84.5493 74.7507 84.368C74.7507 84.2811 73.5164 84.2097 72.008 84.2097C70.333 84.2097 69.2653 84.2782 69.2653 84.3855ZM45.4579 84.9725C45.4109 85.0961 45.3936 88.0195 45.4192 91.4688L45.4659 97.7401L47.0583 97.7833C48.4276 97.8205 48.7626 97.7683 49.4472 97.4116C50.4293 96.8994 51.2944 95.7837 51.6651 94.5513C52.0589 93.2404 52.1919 90.6184 51.9388 89.1472C51.4108 86.0762 49.9335 84.7592 47.0087 84.7513C45.9929 84.7487 45.517 84.8163 45.4579 84.9725ZM31.9646 89.5273C31.6437 89.6874 31.1088 90.1406 30.7763 90.5341C28.968 92.6737 29.3395 96.1608 31.543 97.7292C32.1671 98.1735 32.5128 98.2792 33.5326 98.3377C34.2781 98.3804 34.9786 98.3194 35.3015 98.1839C35.9412 97.9157 37.0608 96.6433 37.0608 96.1846C37.0608 95.6498 36.7568 95.81 36.1908 96.6435C35.5726 97.5531 35.3839 97.6507 34.239 97.6507C32.6484 97.6507 31.7696 96.4158 31.6189 93.9692L31.5291 92.5108L33.4378 92.3925C34.4875 92.3274 35.7321 92.2743 36.2037 92.2743C36.9484 92.2743 37.0608 92.2264 37.0608 91.9087C37.0608 91.1935 36.3671 90.1471 35.5857 89.6834C34.6554 89.1312 32.9091 89.056 31.9646 89.5273ZM77.7308 89.5898C74.6816 91.2212 74.734 96.4826 77.8145 97.9929C78.6631 98.4091 80.3907 98.502 81.2421 98.1775C81.9507 97.9075 83.0525 96.7889 83.4383 95.948C83.8214 95.1131 83.888 93.1459 83.5696 92.0696C83.3061 91.179 82.334 90.03 81.4627 89.5799C80.5376 89.1018 78.6333 89.107 77.7308 89.5898ZM96.5152 89.4941C96.2719 89.6362 95.6151 89.7555 95.0555 89.759C93.9967 89.7655 93.6802 90.0408 94.5247 90.2207C95.5717 90.4438 95.5381 90.3184 95.5897 94.1995L95.6377 97.7885L95.0148 97.9068C93.7067 98.1554 94.4451 98.3673 96.6185 98.3673C98.3209 98.3673 98.8277 98.3147 98.772 98.1434C98.7319 98.0202 98.4266 97.879 98.0938 97.8297L97.4885 97.7401L97.5057 94.5854C97.5206 91.8719 97.5703 91.3331 97.8597 90.7323C98.1204 90.1914 98.3136 90.0205 98.7171 89.9741C99.1663 89.9223 99.2072 89.9515 99.014 90.1872C98.8907 90.3375 98.8158 90.6871 98.8471 90.9642C98.8964 91.4008 98.9895 91.475 99.5456 91.5221C100.686 91.6187 101.136 90.6538 100.395 89.6998C99.8889 89.0481 98.6448 89.0259 98.0212 89.6575C97.5985 90.0855 97.5965 90.0857 97.5426 89.7042C97.4758 89.2313 97.0977 89.1539 96.5152 89.4941ZM26.1343 89.5254C25.7536 89.6811 25.8928 89.9444 26.3554 89.9444C26.6062 89.9444 26.7977 90.0481 26.7977 90.1835C26.7977 90.3621 25.6819 92.1523 25.2933 92.5971C25.2422 92.6554 23.9667 90.3933 23.9667 90.2447C23.9667 90.1956 24.2851 90.1007 24.6745 90.0341C26.1139 89.7878 25.3173 89.5861 22.9049 89.5861C21.3713 89.5861 20.4276 89.6543 20.4276 89.7653C20.4276 89.8639 20.6703 89.9444 20.9671 89.9444C21.6855 89.9444 22.0958 90.4316 23.1346 92.5175L23.9835 94.2223L22.8692 95.9366C21.9233 97.3918 21.6545 97.6823 21.0913 97.8582C20.7264 97.9725 20.4276 98.1336 20.4276 98.2166C20.4276 98.2995 21.1889 98.3673 22.1192 98.3673C23.2016 98.3673 23.7713 98.3028 23.7012 98.1883C23.641 98.0896 23.4572 98.0078 23.2926 98.0063C23.128 98.0046 22.8792 97.9303 22.7396 97.841C22.5327 97.7083 22.6452 97.4116 23.35 96.2307C23.8252 95.4346 24.271 94.7832 24.3407 94.7832C24.4105 94.7832 24.8268 95.4485 25.2662 96.2617C26.1308 97.8619 26.1136 97.9673 24.9841 97.9964C24.7165 98.0033 24.4975 98.0896 24.4975 98.1883C24.4975 98.2995 25.4706 98.3673 27.0632 98.3673C29.5315 98.3673 30.4306 98.1651 28.891 97.9559C28.4853 97.9008 28.0878 97.7492 28.0076 97.6187C27.9275 97.4885 27.354 96.4863 26.7332 95.3918L25.6046 93.4021L26.5536 91.8972C27.6222 90.2029 27.8931 89.9444 28.6011 89.9444C29.2708 89.9444 29.2331 89.6583 28.5452 89.5189C27.9055 89.3892 26.4578 89.3933 26.1343 89.5254ZM11.0494 89.7424C11.0494 89.8283 11.368 89.9503 11.7572 90.0133L12.465 90.128V93.6385V97.1487L13.0666 97.758C13.6355 98.3343 13.7352 98.3673 14.8998 98.3673C15.9178 98.3673 16.2432 98.2906 16.7755 97.9247L17.4196 97.4821V97.9247C17.4196 98.3985 17.7347 98.497 18.2888 98.1965C18.4624 98.1025 19.1047 97.944 19.7164 97.8443C20.3281 97.7445 20.8754 97.6155 20.9325 97.5573C21.1101 97.3774 20.5436 97.1186 19.9656 97.1156C19.4343 97.113 19.4115 97.0805 19.3037 96.172C19.2423 95.6545 19.1913 93.9611 19.1907 92.4086L19.189 89.5861H17.5966C16.0335 89.5861 15.3632 89.8692 16.6675 89.9786L17.3311 90.0341L17.3835 92.8119C17.4446 96.0591 17.3665 96.6453 16.7965 97.2226C16.2386 97.7877 15.1431 97.8138 14.6601 97.2737C14.3562 96.9341 14.3173 96.5367 14.2656 93.2414L14.2085 89.5861H12.6289C11.7602 89.5861 11.0494 89.6563 11.0494 89.7424ZM55.2865 89.7424C55.2865 89.8283 55.6049 89.9503 55.9941 90.0133L56.7019 90.128V93.6385V97.1487L57.3035 97.758C57.8726 98.3343 57.9721 98.3673 59.1368 98.3673C60.1548 98.3673 60.4801 98.2906 61.0124 97.9247L61.6566 97.4821V97.9247C61.6566 98.3985 61.9717 98.497 62.5258 98.1965C62.6993 98.1025 63.3416 97.944 63.9533 97.8443C64.565 97.7445 65.1124 97.6155 65.1695 97.5573C65.3471 97.3774 64.7806 97.1186 64.2026 97.1156C63.6713 97.113 63.6485 97.0805 63.5406 96.172C63.4793 95.6545 63.4283 93.9611 63.4277 92.4086L63.426 89.5861H61.8334C60.2706 89.5861 59.6001 89.8692 60.9044 89.9786L61.5681 90.0341L61.6205 92.8119C61.6815 96.0591 61.6035 96.6453 61.0335 97.2226C60.4755 97.7877 59.3801 97.8138 58.897 97.2737C58.5933 96.9341 58.5542 96.5367 58.5026 93.2414L58.4454 89.5861H56.8659C55.9973 89.5861 55.2865 89.6563 55.2865 89.7424ZM84.4829 89.7424C84.4829 89.8283 84.8013 89.9503 85.1907 90.0133L85.8983 90.128V93.6385V97.1487L86.5001 97.758C87.0689 98.3343 87.1685 98.3673 88.3332 98.3673C89.3512 98.3673 89.6765 98.2906 90.2088 97.9247L90.853 97.4821V97.9247C90.853 98.3985 91.1681 98.497 91.7222 98.1965C91.8957 98.1025 92.538 97.944 93.1497 97.8443C93.7614 97.7445 94.3088 97.6155 94.3659 97.5573C94.5435 97.3774 93.977 97.1186 93.399 97.1156C92.8677 97.113 92.8449 97.0805 92.737 96.172C92.6757 95.6545 92.6247 93.9611 92.624 92.4086L92.6224 89.5861H91.0299C89.4669 89.5861 88.7965 89.8692 90.1008 89.9786L90.7645 90.0341L90.8169 92.8119C90.8779 96.0591 90.7999 96.6453 90.2298 97.2226C89.6719 97.7877 88.5765 97.8138 88.0934 97.2737C87.7897 96.9341 87.7506 96.5367 87.699 93.2414L87.6418 89.5861H86.0622C85.1936 89.5861 84.4829 89.6563 84.4829 89.7424ZM32.3948 90.3078C32.1388 90.6161 31.9294 90.9763 31.9294 91.1084C31.9294 91.2408 31.8809 91.4763 31.8219 91.6323C31.7282 91.8792 31.9443 91.9158 33.4985 91.9158H35.2825L35.1806 91.3334C35.0008 90.3075 34.5581 89.8615 33.6598 89.8014C32.9503 89.7536 32.8079 89.8106 32.3948 90.3078ZM78.5928 90.1257C77.8668 90.7042 77.4933 91.9509 77.4933 93.7975C77.4933 96.5017 78.2487 97.8297 79.7868 97.8297C81.1427 97.8297 81.8286 96.4753 81.8286 93.7975C81.8286 92.1248 81.4993 90.8121 80.924 90.1919C80.4092 89.637 79.2477 89.604 78.5928 90.1257Z" fill="#3C1F1B" fill-opacity="0.78"/>
</svg>
