<svg width="117" height="30" viewBox="0 0 117 30" fill="none" xmlns="http://www.w3.org/2000/svg">
<g clip-path="url(#clip0_5112_749)">
<path d="M0 15.1261C0 10.2162 3.51307 7.1982 9.13052 7.1982H14.9465V0H22.2255V22.6126H9.10341C3.51298 22.6126 0 19.7117 0 15.1261ZM7.67954 14.8829C7.67954 16.7658 8.8227 17.7477 11.0188 17.7477H14.9073V11.982H11.0549C8.85857 11.982 7.67954 12.973 7.67954 14.8829ZM69.2965 14.8739C69.2965 19.7838 65.7835 22.8018 60.166 22.8018H54.3501V30H47.071V7.38739H60.1931C65.7835 7.38739 69.2965 10.2883 69.2965 14.8739ZM61.617 15.1171C61.617 13.2342 60.4725 12.2523 58.2735 12.2523H54.3892V18.018H58.2464C60.4455 18.018 61.617 17.027 61.617 15.1171ZM117 14.8739C117 19.7838 113.487 22.8018 107.869 22.8018H102.054V30H94.7745V7.38739H107.897C113.487 7.38739 117 10.2883 117 14.8739ZM109.32 15.1171C109.32 13.2342 108.176 12.2523 105.977 12.2523H102.093V18.018H105.95C108.149 18.018 109.32 17.027 109.32 15.1171ZM71.4649 15.009C71.4649 9.51387 75.8738 6.57658 81.9452 6.57658C88.0165 6.57658 92.4255 9.51387 92.4255 15.009C92.4255 20.5039 88.0165 23.5135 81.9452 23.5135C75.8738 23.5045 71.4649 20.5039 71.4649 15.009ZM85.288 14.9234C85.288 12.2448 83.9419 10.9009 81.9 10.9009C79.8581 10.9009 78.512 12.2448 78.512 14.9234C78.512 17.5659 79.8581 19.009 81.9 19.009C83.9509 19 85.288 17.5659 85.288 14.9234ZM44.6317 15.3074C44.6317 9.81243 41.0873 6.48649 34.6842 6.48649C28.5335 6.48649 24.5745 9.81243 24.5745 15.0182C24.5745 20.2874 28.4976 23.4234 35.0359 23.4234C39.1485 23.4234 42.4672 21.887 44.2168 19.3925L39.0041 17.4946C38.1022 18.4797 36.7404 19.022 35.3065 19.022C33.1511 19.022 31.6541 18.1544 31.2662 16.6812C31.2391 16.5819 31.221 16.4914 31.2031 16.383H44.6317V15.3074ZM31.2602 12.973C31.4321 11.1879 32.6715 10.0901 34.8244 10.0901C36.9776 10.0901 38.217 11.2505 38.217 12.973H31.2602Z" fill="black"/>
</g>
<defs>
<clipPath id="clip0_5112_749">
<rect width="117" height="30" fill="white"/>
</clipPath>
</defs>
</svg>
