<svg width="169" height="40" viewBox="0 0 169 40" fill="none" xmlns="http://www.w3.org/2000/svg">
<g clip-path="url(#clip0_5112_739)">
<path d="M19.3799 23.9927H30.1261V29.5918C27.6462 32.4372 24.156 34.4106 19.4258 34.4106C11.2973 34.4106 5.46495 28.3526 5.46495 20C5.46495 11.5555 11.3432 5.58934 19.4258 5.58934C24.3856 5.58934 28.5647 8.0676 30.6772 11.1884L34.5807 7.70045C31.0905 3.38645 26.0389 0.724609 19.4258 0.724609C8.54185 0.724609 0 8.89369 0 20C0 31.1063 8.54185 39.2753 19.3799 39.2753C26.4981 39.2753 32.1927 35.7415 35.4992 30.9227V19.1739H19.3799V23.9927Z" fill="black"/>
<path d="M68.0596 0.724609C57.2215 0.724609 48.6797 8.89369 48.6797 20C48.6797 31.1063 57.2215 39.2753 68.0596 39.2753C78.9435 39.2753 87.4395 31.1063 87.4395 20C87.4395 8.89369 78.9435 0.724609 68.0596 0.724609ZM68.0596 34.4106C60.0229 34.4106 54.0987 28.3526 54.0987 20C54.0987 11.5555 59.977 5.58934 68.0596 5.58934C76.0963 5.58934 82.0664 11.5555 82.0664 20C82.0664 28.3526 76.1422 34.4106 68.0596 34.4106Z" fill="black"/>
<path d="M111.687 1.50488L95.6592 38.4493H101.078L105.579 28.215H123.122L127.622 38.4493H133.041L117.06 1.50488H111.687ZM107.691 23.3962L114.35 8.11358H114.396L121.009 23.3962H107.691Z" fill="black"/>
<path d="M137.817 1.50488V6.36962H150.492V38.4952H155.911V6.36962H168.54V1.50488H137.817Z" fill="black"/>
</g>
<defs>
<clipPath id="clip0_5112_739">
<rect width="169" height="40" fill="white"/>
</clipPath>
</defs>
</svg>
