<svg width="743" height="141" viewBox="0 0 743 141" fill="none" xmlns="http://www.w3.org/2000/svg">
<path d="M139.797 0.652344H0.0654297V140.358H139.797V0.652344Z" fill="#00B67A"/>
<path d="M289.718 0.652344H149.986V140.358H289.718V0.652344Z" fill="#00B67A"/>
<path d="M441.094 0.652344H301.362V140.358H441.094V0.652344Z" fill="#00B67A"/>
<path d="M591.014 0.652344H451.282V140.358H591.014V0.652344Z" fill="#00B67A"/>
<path d="M742.39 0.652344H602.658V140.358H742.39V0.652344Z" fill="#DCDCE6"/>
<path d="M603 0H674V140H603V0Z" fill="#00B67A"/>
<path d="M68.4761 93.7894L90.3092 87.9683L99.0424 115.618L68.4761 93.7894ZM117.964 58.863H80.1204L68.4761 23.9365L56.8318 58.863H20.4434L51.0097 80.692L39.3654 115.618L69.9317 93.7894L88.8537 80.692L117.964 58.863Z" fill="white"/>
<path d="M219.852 93.7894L241.685 87.9683L250.418 115.618L219.852 93.7894ZM267.885 58.863H230.041L218.396 23.9365L206.752 58.863H168.908L199.474 80.692L187.83 115.618L218.396 93.7894L237.318 80.692L267.885 58.863Z" fill="white"/>
<path d="M371.228 93.7894L393.061 87.9683L401.794 115.618L371.228 93.7894ZM419.261 58.863H381.417L369.772 23.9365L358.128 58.863H320.284L350.85 80.692L340.662 115.618L371.228 93.7894L390.15 80.692L419.261 58.863Z" fill="white"/>
<path d="M521.148 93.7894L542.982 87.9683L551.715 115.618L521.148 93.7894ZM570.637 58.863H532.793L521.148 23.9365L509.504 58.863H471.66L502.226 80.692L490.582 115.618L521.148 93.7894L540.07 80.692L570.637 58.863Z" fill="white"/>
<path d="M672.524 93.7894L694.357 87.9683L703.091 115.618L672.524 93.7894ZM720.557 58.863H682.713L671.069 23.9365L660.88 58.863H623.036L653.602 80.692L641.958 115.618L672.524 93.7894L691.446 80.692L720.557 58.863Z" fill="white"/>
</svg>
