<?xml version="1.0" standalone="no"?>
<!DOCTYPE svg PUBLIC "-//W3C//DTD SVG 20010904//EN"
 "http://www.w3.org/TR/2001/REC-SVG-20010904/DTD/svg10.dtd">
<svg version="1.0" xmlns="http://www.w3.org/2000/svg"
 width="400.000000pt" height="400.000000pt" viewBox="0 0 400.000000 400.000000"
 preserveAspectRatio="xMidYMid meet">
<metadata>
Created by potrace 1.14, written by Peter Selinger 2001-2017
</metadata>
<g transform="translate(0.000000,400.000000) scale(0.100000,-0.100000)"
fill="#000000" stroke="none">
<path d="M873 3335 c-13 -12 -23 -27 -23 -33 0 -6 -10 -20 -22 -32 -12 -11
-18 -20 -14 -20 4 0 1 -7 -7 -15 -8 -8 -25 -30 -37 -50 -12 -19 -26 -35 -31
-35 -4 0 -5 -7 -2 -17 4 -10 2 -14 -4 -10 -6 4 -16 -7 -23 -23 -7 -17 -16 -30
-21 -30 -5 0 -9 -6 -9 -14 0 -8 -7 -16 -15 -20 -8 -3 -15 -12 -15 -21 0 -8 -5
-15 -11 -15 -5 0 -7 -5 -4 -10 3 -6 -1 -13 -9 -16 -9 -3 -16 -10 -16 -16 0 -5
-7 -16 -15 -25 -8 -8 -12 -19 -9 -25 4 -6 3 -9 -2 -6 -5 3 -18 -6 -28 -20 -12
-15 -14 -22 -5 -17 8 5 2 -4 -13 -19 -15 -16 -30 -37 -33 -47 -4 -11 -11 -17
-16 -13 -5 3 -8 2 -7 -3 3 -11 -34 -73 -44 -73 -4 0 -8 -7 -8 -15 0 -9 -7 -18
-15 -21 -8 -4 -13 -10 -10 -14 3 -4 -2 -11 -11 -14 -8 -3 -13 -10 -9 -15 3 -6
-3 -15 -12 -21 -13 -8 -14 -13 -5 -16 6 -3 9 -11 6 -16 -5 -7 -2 -8 7 -2 21
12 136 15 118 2 -11 -7 -9 -8 6 -3 11 4 29 10 40 13 25 7 46 27 38 36 -4 3 -1
6 6 6 6 0 16 11 21 25 5 14 14 25 20 25 6 0 8 5 5 10 -3 6 1 13 9 16 9 3 16
12 16 20 0 8 5 14 11 14 5 0 7 5 4 10 -3 6 -2 10 2 10 5 0 17 16 27 35 10 19
22 33 26 30 3 -2 12 11 18 30 7 18 20 36 28 39 8 3 13 10 10 15 -3 5 1 11 9
15 8 3 15 12 15 21 0 8 5 15 10 15 6 0 10 6 10 14 0 8 3 16 8 18 11 5 62 75
62 86 0 6 7 12 15 16 13 5 20 -5 16 -26 0 -5 4 -8 9 -8 6 0 10 -6 10 -13 0 -7
9 -23 20 -34 11 -12 15 -23 9 -25 -5 -2 -2 -12 8 -23 10 -11 20 -29 21 -40 2
-11 7 -22 12 -25 4 -3 10 -15 14 -27 4 -13 11 -23 16 -23 5 0 7 -7 4 -15 -4
-8 -1 -15 5 -15 6 0 10 -3 9 -7 -3 -13 24 -63 34 -63 4 0 8 -5 8 -11 0 -5 -5
-7 -11 -4 -6 4 -5 -2 3 -14 7 -12 17 -21 21 -21 5 0 7 -6 4 -14 -3 -8 1 -17 9
-20 8 -3 14 -12 14 -21 0 -9 7 -26 15 -39 13 -20 22 -22 80 -21 37 1 65 -2 65
-8 0 -5 7 -4 15 3 8 6 19 9 25 5 14 -9 13 0 -7 43 -9 20 -17 41 -17 45 -1 4
-7 12 -15 16 -7 5 -10 14 -7 20 4 6 1 14 -8 17 -8 3 -12 12 -9 20 3 8 0 14 -7
14 -6 0 -8 5 -5 10 3 6 0 13 -9 16 -8 3 -13 14 -11 24 2 10 -2 21 -9 23 -7 3
-18 24 -25 46 -7 24 -16 39 -22 35 -6 -3 -9 0 -8 7 2 8 -2 24 -9 37 -7 12 -9
22 -5 22 4 0 -2 7 -13 16 -10 8 -13 12 -5 8 8 -4 1 10 -15 31 -16 22 -22 35
-14 30 8 -4 5 3 -8 17 -12 13 -19 28 -15 31 3 4 1 7 -5 7 -6 0 -9 7 -6 15 4 8
2 15 -4 15 -5 0 -13 8 -16 17 -4 10 -4 14 0 10 4 -4 13 1 20 11 7 9 14 13 14
7 0 -6 40 -10 100 -10 60 0 100 4 100 10 0 7 3 7 8 0 9 -13 305 -13 314 0 5 7
8 7 8 0 0 -6 36 -9 90 -8 89 1 91 1 84 -20 -3 -12 -15 -31 -25 -43 -11 -11
-19 -26 -19 -32 0 -7 -5 -12 -11 -12 -5 0 -7 -4 -4 -10 3 -5 1 -10 -4 -10 -6
0 -10 -3 -10 -7 3 -20 -2 -34 -10 -28 -5 3 -13 -5 -17 -17 -4 -13 -14 -29 -23
-36 -13 -11 -13 -12 -1 -7 10 4 9 2 -2 -8 -10 -8 -15 -17 -11 -20 3 -4 1 -7
-5 -7 -7 0 -12 -7 -12 -15 0 -8 -9 -20 -19 -27 -10 -6 -17 -17 -14 -25 3 -7
-2 -16 -11 -19 -9 -3 -13 -10 -10 -15 3 -5 0 -9 -5 -9 -6 0 -11 -7 -11 -15 0
-8 -5 -15 -11 -15 -5 0 -7 -4 -4 -10 3 -5 1 -10 -4 -10 -6 0 -11 -4 -11 -9 0
-11 -62 -109 -84 -133 -9 -10 -13 -18 -10 -18 4 0 1 -7 -6 -15 -11 -13 -10
-14 5 -9 11 5 16 3 12 -2 -3 -5 3 -10 14 -10 11 0 18 5 15 11 -2 7 2 12 10 12
7 0 11 -4 8 -9 -5 -8 12 -12 31 -8 32 7 41 6 54 -4 11 -8 13 -8 7 2 -4 6 -3
12 3 12 5 0 12 -6 14 -12 4 -10 6 -10 6 0 1 7 6 10 13 6 7 -4 8 -3 4 5 -4 6
-1 14 7 17 8 3 22 23 32 45 10 21 22 39 27 39 4 0 8 7 8 15 0 7 8 19 18 24 9
6 13 11 9 11 -4 0 -2 10 5 23 7 12 11 25 10 29 -1 5 1 7 6 5 4 -1 9 3 11 8 3
6 11 16 18 23 7 8 11 18 8 23 -4 5 1 9 10 9 9 0 14 4 11 9 -3 5 3 20 14 34 11
14 20 30 20 36 0 6 5 11 10 11 6 0 10 7 10 15 0 8 3 15 8 15 4 0 13 9 20 21
11 17 11 20 0 14 -7 -3 -5 0 5 8 9 8 17 19 17 26 0 6 5 11 11 11 5 0 8 3 6 8
-3 4 3 15 13 25 16 17 18 15 41 -28 13 -25 27 -45 31 -45 5 0 8 -9 8 -21 0
-11 5 -17 10 -14 6 3 11 1 11 -4 1 -6 2 -17 3 -23 1 -7 7 -12 14 -11 7 2 12 0
11 -5 -2 -15 14 -52 22 -52 5 0 9 -6 9 -13 0 -7 9 -23 20 -35 12 -12 18 -22
15 -22 -3 0 5 -15 19 -33 15 -19 26 -39 26 -45 0 -7 5 -12 12 -12 6 0 9 -3 5
-6 -3 -4 -1 -12 6 -20 31 -34 37 -44 37 -59 0 -8 8 -15 18 -16 9 0 12 -3 5 -6
-9 -3 -7 -10 7 -25 10 -11 24 -17 30 -13 7 4 16 1 21 -6 6 -10 9 -11 9 -1 0 6
5 12 11 12 5 0 7 -4 4 -10 -4 -6 4 -6 22 1 15 6 28 11 28 11 0 1 10 -4 23 -11
15 -8 22 -8 22 -1 0 6 5 8 10 5 6 -3 14 -3 20 0 10 6 -8 42 -44 84 -13 15 -15
21 -6 17 9 -5 8 -2 -2 7 -10 8 -18 19 -18 26 0 6 -4 11 -10 11 -5 0 -10 7 -10
15 0 8 -4 15 -10 15 -5 0 -10 6 -10 14 0 8 -7 22 -16 30 -8 9 -13 16 -9 16 4
0 -1 7 -9 16 -9 8 -13 20 -10 26 4 7 2 8 -4 4 -7 -4 -12 -1 -12 8 0 9 -5 16
-11 16 -5 0 -7 5 -4 10 3 6 2 10 -3 10 -5 0 -15 14 -22 30 -7 17 -17 30 -22
30 -5 0 -7 4 -4 9 3 5 -1 12 -10 15 -9 4 -14 9 -11 13 4 3 -1 12 -11 20 -11
10 -12 12 -2 8 10 -4 9 -2 -2 8 -10 8 -15 17 -11 20 3 4 2 7 -4 7 -6 0 -16 14
-23 30 -7 17 -17 30 -23 30 -6 0 -8 3 -4 6 3 4 -1 13 -9 21 -14 15 -10 38 6
28 5 -3 11 -1 15 5 4 6 11 7 17 4 17 -11 238 -10 242 1 3 7 5 7 5 0 1 -12 362
-12 381 0 9 5 11 4 6 -4 -6 -8 -1 -10 16 -6 12 3 29 1 37 -4 11 -7 10 -13 -4
-35 -10 -14 -14 -26 -11 -26 4 0 -3 -10 -14 -22 -11 -12 -18 -28 -16 -34 3 -7
-2 -15 -10 -18 -8 -3 -13 -9 -12 -13 4 -13 -35 -93 -45 -93 -4 0 -6 -4 -2 -9
3 -5 -2 -17 -11 -25 -8 -9 -13 -16 -9 -16 3 0 -2 -15 -12 -32 -9 -18 -16 -36
-15 -40 1 -5 -3 -8 -9 -8 -6 0 -8 -7 -5 -16 3 -8 2 -12 -4 -9 -6 3 -10 -3 -10
-15 0 -11 -6 -23 -13 -26 -7 -2 -14 -14 -14 -26 -1 -12 -7 -24 -13 -28 -7 -4
-12 -10 -12 -13 0 -21 -12 -46 -19 -41 -5 3 -6 -2 -3 -10 4 -10 1 -16 -7 -16
-8 0 -5 -6 7 -15 12 -8 33 -12 48 -9 20 3 25 1 20 -7 -5 -8 -3 -9 7 -4 20 13
59 15 59 4 0 -6 6 -7 13 -2 6 4 15 8 19 8 3 0 10 4 15 9 5 5 2 6 -7 2 -13 -7
-13 -6 0 6 8 7 21 24 28 37 11 19 11 22 0 16 -7 -3 -5 0 4 7 9 8 20 26 23 41
4 15 11 24 16 21 5 -3 6 2 3 10 -3 9 -2 16 3 16 6 0 15 18 22 40 7 25 16 38
23 34 7 -5 8 -2 3 6 -4 7 -2 15 4 20 7 4 13 17 14 28 1 12 5 22 9 22 4 0 8 5
8 11 0 6 10 25 22 42 12 17 16 27 7 22 -9 -5 -8 -1 4 12 9 11 14 23 10 26 -3
4 -1 7 5 7 7 0 12 9 12 20 0 11 4 20 9 20 5 0 12 10 15 23 7 21 7 21 19 3 7
-11 22 -30 33 -42 12 -13 19 -25 16 -28 -3 -3 0 -6 7 -6 7 0 9 -4 6 -10 -3 -5
-2 -10 3 -10 5 0 15 -12 23 -27 8 -15 21 -35 29 -44 32 -37 40 -49 40 -59 0
-5 5 -10 11 -10 5 0 7 -4 4 -10 -3 -5 1 -10 9 -10 9 0 15 -4 14 -9 -3 -10 14
-38 49 -81 12 -15 20 -30 16 -34 -3 -3 -1 -6 5 -6 7 0 12 -7 12 -16 0 -8 5
-12 10 -9 6 3 10 2 10 -4 0 -16 43 -78 64 -91 10 -6 15 -7 12 -2 -3 6 1 13 10
16 8 3 12 2 9 -4 -6 -10 10 -15 30 -10 6 2 33 4 60 6 88 4 82 3 65 14 -8 5
-10 10 -5 10 6 0 2 5 -7 11 -10 5 -18 17 -18 26 0 9 -3 13 -6 10 -4 -4 -16 10
-27 31 -11 20 -26 41 -33 45 -8 4 -14 15 -14 22 0 8 -5 15 -12 15 -6 0 -9 3
-5 6 3 3 -5 18 -19 32 -13 15 -24 32 -24 39 0 7 -5 13 -10 13 -6 0 -15 11 -22
25 -6 13 -15 22 -19 19 -5 -3 -6 1 -3 9 3 8 0 18 -5 22 -6 3 -8 11 -5 17 4 6
3 9 -2 6 -9 -6 -34 15 -35 29 0 5 -9 18 -19 31 -11 12 -20 27 -20 32 0 6 -4
10 -10 10 -5 0 -10 7 -10 15 0 8 -5 15 -11 15 -5 0 -8 4 -5 9 3 5 -1 11 -9 15
-8 3 -21 18 -27 33 -7 15 -17 33 -23 39 -32 37 -43 53 -38 58 4 3 0 6 -7 6 -7
0 -10 3 -7 6 4 4 -3 15 -15 25 -11 11 -17 19 -13 19 4 0 -2 8 -13 19 -12 10
-18 22 -14 26 4 5 2 5 -5 1 -6 -3 -14 -2 -18 4 -4 7 -365 10 -1088 9 l-1082
-1 -22 -23z"/>
<path d="M955 2501 c-11 -5 -28 -7 -37 -5 -10 1 -18 -2 -18 -7 0 -6 -4 -8 -9
-4 -6 3 -14 -3 -20 -12 -7 -12 -10 -14 -11 -4 0 8 -15 -6 -34 -30 -19 -23 -32
-47 -30 -51 3 -4 0 -8 -6 -8 -7 0 -10 -6 -7 -14 3 -8 3 -17 -1 -21 -9 -9 -10
-115 -1 -115 4 0 6 -9 4 -19 -2 -11 3 -25 11 -32 8 -6 14 -16 14 -22 0 -12 42
-50 61 -56 8 -3 24 -5 36 -5 12 -1 21 -3 21 -6 -1 -18 4 -21 19 -9 9 8 14 9
11 4 -4 -6 2 -11 12 -11 15 0 17 3 7 15 -10 12 -9 13 11 2 14 -7 22 -8 22 -1
0 5 5 10 11 10 5 0 7 -6 3 -12 -3 -7 5 0 19 15 25 28 25 28 32 7 4 -12 9 -19
12 -16 3 3 13 1 22 -4 24 -12 45 4 38 29 -3 12 0 21 6 21 8 0 8 3 2 8 -6 4
-10 40 -10 81 l0 74 -42 1 c-23 1 -39 -2 -37 -6 3 -5 0 -8 -5 -8 -6 0 -11 6
-11 13 0 8 -4 7 -10 -3 -5 -8 -10 -10 -10 -4 0 7 -11 11 -24 10 -13 0 -22 -5
-18 -10 3 -5 -2 -7 -11 -3 -19 7 -33 -8 -16 -19 8 -4 7 -9 -2 -15 -11 -7 -10
-9 4 -9 9 0 17 -6 17 -12 0 -10 3 -9 9 1 6 9 11 10 15 2 5 -7 13 -8 25 -1 20
10 41 -4 41 -28 0 -14 -28 -46 -42 -48 -4 -1 -13 -2 -19 -3 -5 0 -7 -5 -4 -11
3 -5 1 -10 -4 -10 -6 0 -11 8 -11 18 0 14 -2 15 -10 2 -8 -13 -13 -13 -31 -2
-11 8 -18 9 -15 4 3 -6 -5 -5 -18 1 -13 7 -22 15 -20 19 2 3 -3 13 -11 21 -8
9 -15 27 -15 42 0 14 -4 24 -8 21 -4 -2 -8 4 -8 14 0 10 4 16 8 14 5 -3 6 9 3
26 -4 23 -2 30 6 24 8 -5 10 -2 7 8 -8 20 37 72 56 65 9 -4 18 -2 21 2 2 5 14
11 25 14 11 3 18 1 15 -3 -3 -5 5 -10 17 -12 12 -2 28 -14 35 -28 7 -14 13
-21 13 -16 0 5 7 3 15 -4 11 -9 15 -9 15 -1 0 7 13 17 30 22 26 10 28 13 15
26 -8 8 -13 18 -10 22 2 5 -8 14 -23 22 -15 8 -30 17 -33 21 -3 5 -17 9 -32
10 -15 1 -27 6 -27 11 0 4 -10 3 -21 -4 -15 -8 -19 -8 -15 0 8 13 8 13 -19 2z"/>
<path d="M1967 2504 c-3 -4 -21 -8 -38 -10 -18 -2 -37 -8 -44 -14 -6 -5 -16
-6 -20 -2 -5 4 -5 2 -2 -4 4 -6 -5 -16 -18 -22 -23 -10 -27 -18 -24 -39 0 -3
-6 -10 -14 -15 -9 -5 -14 -17 -12 -29 3 -16 0 -19 -12 -15 -12 5 -13 4 -5 -7
7 -8 9 -16 6 -20 -8 -8 -11 -67 -3 -67 3 0 5 -11 4 -25 -2 -14 1 -25 5 -25 5
0 7 -9 5 -20 -2 -11 -1 -19 3 -17 4 1 8 -2 9 -6 1 -4 16 -21 34 -38 29 -27 42
-33 62 -30 4 0 7 -3 7 -9 0 -5 7 -6 17 -3 12 5 14 3 8 -8 -8 -12 -6 -12 9 0
15 13 19 13 27 0 5 -8 9 -9 9 -2 0 6 11 10 24 9 15 -2 27 3 31 13 5 13 7 14
15 1 8 -13 10 -13 10 1 0 9 7 20 16 23 8 3 13 2 10 -3 -8 -12 19 -32 47 -35
20 -3 23 1 21 23 -1 14 3 29 9 33 9 6 9 8 0 8 -16 0 -17 32 -2 47 8 8 8 13 0
17 -15 10 -14 43 2 49 9 4 9 6 -1 6 -7 1 -10 6 -7 11 3 6 -1 10 -9 10 -9 0
-16 5 -16 10 0 7 -6 7 -19 0 -14 -7 -21 -6 -24 3 -4 8 -6 8 -6 -2 -1 -11 -5
-10 -17 5 -8 10 -12 13 -8 5 5 -11 2 -13 -14 -9 -12 4 -25 2 -28 -4 -4 -6 -10
-5 -15 3 -6 11 -9 10 -15 -4 -3 -9 -11 -14 -16 -11 -6 4 -4 -4 3 -17 7 -13 12
-26 11 -29 -3 -8 21 -7 38 1 9 4 24 2 35 -4 22 -13 31 -37 15 -37 -5 0 -9 -6
-7 -12 1 -7 -6 -12 -15 -12 -9 1 -14 -4 -12 -10 3 -8 -11 -12 -41 -12 -26 -1
-45 4 -45 10 0 6 -4 5 -9 -2 -7 -11 -9 -10 -15 3 -3 9 -10 13 -16 10 -5 -3
-10 1 -10 9 0 9 -5 16 -11 16 -5 0 -7 5 -4 10 3 6 2 10 -3 10 -5 0 -8 16 -7
35 0 19 -4 35 -10 35 -6 0 -7 3 0 8 6 4 10 18 10 32 -1 14 5 31 12 38 7 8 10
19 6 25 -4 6 0 8 10 4 10 -4 16 -2 14 6 -1 7 4 11 11 10 6 -2 12 1 12 7 0 5 7
7 15 4 8 -4 15 -1 15 6 0 10 3 10 15 0 8 -6 18 -9 23 -6 5 3 23 -8 41 -24 32
-31 55 -38 66 -20 4 6 11 7 17 4 7 -4 8 -2 4 4 -4 7 -2 12 3 12 6 0 4 14 -6
35 -9 19 -20 32 -25 29 -4 -3 -17 4 -28 14 -13 12 -30 17 -45 14 -17 -3 -25 0
-25 9 0 11 -2 11 -10 -1 -6 -10 -10 -11 -10 -2 0 13 -13 16 -23 6z"/>
<path d="M3741 2501 c-1 -7 -7 -11 -16 -7 -8 3 -15 1 -15 -4 0 -6 -3 -9 -7 -8
-12 3 -68 -29 -68 -39 0 -4 -3 -7 -6 -6 -6 2 -9 -14 -10 -50 0 -11 -5 -15 -12
-10 -7 4 -7 1 1 -10 8 -9 11 -21 7 -27 -3 -5 -1 -10 4 -10 6 0 11 -6 11 -14 0
-8 10 -18 23 -22 12 -4 24 -10 27 -15 3 -5 20 -9 38 -11 21 -1 32 -8 32 -18 0
-12 2 -12 9 -1 6 9 11 10 15 3 4 -6 13 -9 21 -5 8 3 15 0 15 -7 0 -7 8 -9 21
-5 15 5 19 4 15 -4 -4 -6 -4 -11 1 -11 4 0 8 -13 8 -29 1 -24 -3 -28 -22 -26
-12 1 -20 -1 -18 -5 3 -4 -11 -10 -29 -12 -19 -2 -33 -1 -30 3 2 4 -3 10 -12
13 -8 3 -12 2 -9 -4 9 -15 -68 31 -82 49 -9 10 -13 11 -13 2 0 -7 -4 -10 -9
-7 -11 7 -32 -40 -25 -59 4 -8 12 -15 20 -15 8 0 14 -5 14 -11 0 -5 5 -7 10
-4 6 3 13 0 16 -9 3 -8 14 -13 25 -11 10 2 19 0 19 -4 0 -4 18 -6 40 -5 22 1
38 -1 36 -5 -3 -4 4 -7 14 -7 10 0 16 5 13 10 -4 5 3 7 15 4 12 -4 22 -2 22 4
0 5 4 7 9 3 5 -3 17 2 25 11 9 8 16 13 16 9 0 -4 7 0 15 9 8 8 15 23 15 33 0
15 2 16 10 3 7 -11 10 -3 10 30 0 26 -6 52 -12 59 -11 11 -10 12 2 6 8 -5 2 4
-13 19 -16 14 -33 24 -38 21 -5 -4 -9 -1 -9 4 0 6 -7 11 -15 11 -8 0 -15 4
-15 9 0 5 -13 7 -30 6 -22 -2 -30 2 -31 14 0 10 -2 11 -6 4 -2 -7 -9 -13 -14
-13 -6 0 -8 3 -6 8 3 4 -6 8 -20 8 -28 2 -28 2 -37 31 -6 18 -2 25 18 34 14 7
23 16 19 21 -3 6 4 5 16 -1 14 -8 21 -8 21 -1 0 5 5 10 11 10 5 0 7 -5 3 -12
-4 -6 -3 -8 3 -5 13 8 83 -20 83 -33 0 -13 38 -4 55 14 21 21 19 29 -16 55
-18 13 -29 17 -25 10 4 -8 1 -7 -6 3 -8 9 -27 18 -43 19 -17 2 -33 8 -37 14
-5 6 -8 4 -8 -5 0 -13 -2 -13 -9 -1 -8 12 -12 12 -24 2 -12 -9 -16 -9 -20 1
-4 10 -6 10 -6 -1z"/>
<path d="M52 2492 c-9 -3 -12 -54 -12 -192 0 -104 3 -195 6 -203 3 -9 13 -13
25 -10 12 3 19 0 20 -8 0 -8 4 -5 9 6 5 11 9 14 9 7 1 -7 6 -10 12 -6 6 3 15
0 20 -7 7 -11 9 -10 9 4 0 15 3 16 20 7 14 -8 20 -8 20 0 0 6 5 8 10 5 6 -4 7
-12 4 -18 -5 -8 -3 -8 7 1 7 6 24 12 37 12 15 0 21 -4 17 -12 -4 -7 1 -4 9 6
9 11 16 16 16 10 0 -5 13 -9 30 -9 17 0 25 4 20 9 -5 5 -5 17 1 28 6 12 6 18
-1 18 -5 0 -10 7 -10 16 0 14 -2 15 -17 3 -15 -12 -16 -12 -8 1 8 13 7 13 -8
1 -14 -11 -17 -11 -17 0 0 11 -3 11 -11 -1 -8 -11 -12 -12 -16 -2 -2 6 -9 12
-14 12 -6 0 -7 -6 -3 -12 6 -10 4 -10 -8 0 -12 10 -18 10 -23 1 -6 -8 -10 -7
-16 2 -5 8 -9 9 -9 3 0 -6 -10 -10 -22 -9 -15 1 -24 10 -29 28 -4 15 -3 25 1
22 8 -5 8 4 -2 45 -1 8 3 14 10 12 8 -1 11 2 7 8 -3 6 -9 8 -13 6 -4 -2 -7 11
-7 29 0 18 3 31 8 28 12 -7 8 12 -5 25 -7 7 -8 12 -2 12 10 0 11 70 1 87 -4 6
-1 14 5 16 10 4 10 6 0 6 -7 1 -11 4 -8 9 4 8 -51 11 -72 4z"/>
<path d="M418 2488 c-11 -6 -12 -133 -2 -150 3 -4 1 -8 -5 -8 -6 0 -6 -11 -1
-30 5 -16 5 -30 1 -30 -4 0 -5 -22 -1 -50 4 -27 4 -50 1 -50 -3 0 -6 -16 -6
-35 0 -22 5 -35 13 -35 7 0 11 -4 8 -8 -3 -5 1 -9 9 -9 8 0 15 4 15 9 0 5 9 4
20 -2 14 -8 20 -8 20 0 0 6 5 8 12 3 7 -4 26 -6 42 -4 21 2 26 -1 21 -11 -3
-7 1 -4 9 6 9 11 16 14 16 7 0 -7 5 -9 11 -5 6 3 15 0 20 -7 7 -11 9 -10 9 3
0 19 28 14 42 -6 5 -7 8 -3 8 9 0 17 2 17 10 5 7 -11 10 -11 10 -2 0 7 4 11 8
8 4 -2 14 -1 22 5 10 5 11 9 3 9 -7 0 -10 7 -7 15 3 8 -1 22 -10 30 -9 9 -16
13 -16 8 0 -5 -9 -9 -20 -10 -11 -1 -18 2 -15 8 4 5 -4 5 -19 -1 -14 -5 -28
-5 -31 -1 -6 10 -24 9 -42 -2 -8 -5 -13 -3 -13 5 0 8 -3 9 -8 3 -9 -13 -35
-18 -27 -5 3 5 2 10 -4 10 -5 0 -12 -6 -15 -12 -4 -7 -4 -3 -2 10 4 19 1 22
-12 17 -15 -5 -15 -4 0 12 12 13 14 23 7 36 -8 13 -6 17 6 17 9 0 13 5 10 10
-3 6 -1 10 4 10 6 0 11 -6 11 -12 0 -9 4 -8 10 2 9 13 10 13 10 0 0 -9 3 -11
8 -5 8 11 62 15 62 5 0 -4 10 -6 23 -5 18 1 22 8 22 36 0 27 -4 34 -20 34 -11
0 -26 4 -34 9 -9 6 -12 5 -8 -1 4 -6 0 -14 -9 -17 -8 -3 -12 -2 -9 4 3 5 -9 8
-29 6 -40 -4 -62 6 -51 24 5 9 4 11 -3 6 -16 -10 -15 7 1 23 10 11 9 12 -1 6
-11 -6 -12 -3 -3 12 6 11 8 23 5 25 -7 8 55 0 68 -8 7 -4 8 -2 4 4 -4 7 -3 12
3 12 5 0 13 -5 16 -10 4 -6 11 -8 16 -5 18 12 53 14 59 4 4 -5 14 -7 23 -3 9
3 14 10 11 15 -3 5 2 9 11 9 9 0 13 5 10 10 -4 6 -12 7 -18 3 -8 -4 -7 -1 1 9
10 13 10 18 1 24 -16 9 -277 12 -291 2z"/>
<path d="M1239 2490 c0 -3 -2 -16 -5 -29 -2 -14 1 -28 8 -33 7 -4 9 -8 3 -8
-13 0 -16 -83 -3 -91 6 -4 7 -12 2 -20 -5 -8 -9 -21 -9 -29 0 -8 -4 -21 -8
-27 -6 -9 -3 -11 10 -6 16 6 16 4 -2 -16 -12 -14 -14 -21 -6 -19 7 2 16 -3 19
-11 3 -9 0 -11 -7 -7 -8 5 -10 -3 -7 -28 3 -21 0 -37 -7 -40 -9 -3 -9 -5 0 -5
7 -1 10 -7 7 -14 -3 -8 1 -14 8 -14 7 0 18 -2 23 -3 6 -1 22 -2 36 -1 24 1 25
4 24 54 -1 28 3 58 9 66 8 11 8 13 0 8 -8 -4 -10 32 -9 123 1 71 -2 135 -6
142 -7 11 -78 19 -80 8z"/>
<path d="M1391 2487 c-11 -11 -2 -47 13 -47 6 0 5 -4 -3 -9 -9 -6 -2 -10 22
-13 20 -2 33 0 30 5 -7 12 30 4 39 -8 5 -6 8 -5 8 4 0 10 3 11 13 2 10 -8 13
-49 13 -170 l-1 -159 28 -5 c15 -2 27 1 27 7 0 6 5 4 10 -4 8 -13 11 -11 16 7
4 13 10 21 13 18 4 -2 8 2 8 10 0 8 -4 12 -8 10 -3 -3 -9 7 -12 21 -3 16 1 28
10 31 11 4 10 8 -4 20 -10 8 -12 12 -5 8 6 -3 12 -2 12 2 0 5 -6 15 -12 22
-10 11 -10 13 0 7 6 -4 12 -2 12 3 0 6 -6 11 -12 11 -9 0 -9 3 1 9 13 8 13 12
0 27 -12 16 -12 17 3 11 12 -4 15 -2 11 8 -3 8 -10 12 -17 8 -6 -3 -3 3 8 15
14 16 16 25 8 35 -6 7 -9 22 -7 32 2 11 4 22 4 25 1 3 6 -2 11 -10 5 -8 10
-10 10 -4 0 6 7 11 15 11 8 0 15 -5 15 -10 0 -5 7 -4 16 4 13 10 17 10 25 -2
7 -12 9 -12 9 1 0 12 2 12 9 2 7 -11 10 -10 15 3 8 23 8 65 -1 66 -44 6 -346
2 -352 -4z m229 -127 c0 -5 -5 -10 -11 -10 -5 0 -7 5 -4 10 3 6 8 10 11 10 2
0 4 -4 4 -10z"/>
<path d="M2247 2488 c-7 -4 -8 -8 -2 -8 5 0 4 -5 -3 -12 -7 -7 -8 -17 -3 -27
12 -22 11 -33 -2 -50 -7 -8 -7 -12 -2 -9 7 4 11 -8 11 -32 0 -23 -4 -36 -9
-33 -6 3 -7 1 -3 -6 13 -21 17 -61 6 -61 -7 0 -8 -5 -3 -12 12 -20 13 -41 1
-55 -6 -8 -6 -13 -1 -13 11 0 13 -31 3 -45 -4 -5 1 -19 11 -29 11 -11 19 -14
19 -8 0 6 7 9 15 6 8 -4 12 -11 9 -18 -3 -6 2 -2 10 8 9 11 16 16 17 10 0 -5
4 0 8 11 5 12 4 23 -3 27 -8 5 -7 11 1 19 8 8 9 18 3 30 -7 12 -5 19 6 23 13
5 14 9 4 21 -7 8 -9 15 -4 16 58 7 66 5 74 -15 5 -12 9 -16 9 -11 1 9 12 -9
48 -77 8 -16 19 -28 24 -28 6 0 8 -4 5 -9 -3 -5 1 -11 9 -15 8 -3 15 0 15 7 0
7 3 8 8 2 4 -5 18 -10 32 -10 19 1 24 5 22 20 -2 11 -9 23 -15 27 -7 4 -8 8
-4 8 5 0 1 7 -7 16 -9 8 -13 21 -9 27 3 7 3 9 -2 5 -4 -4 -16 2 -26 14 -22 25
-24 32 -6 22 6 -4 4 2 -6 13 -18 21 -18 22 5 34 32 16 60 47 53 58 -3 5 1 12
7 14 10 4 10 6 1 6 -7 1 -10 8 -7 16 4 8 11 12 18 9 6 -3 4 0 -4 8 -9 7 -15
20 -15 28 0 17 -38 60 -54 60 -6 0 -11 5 -11 11 0 6 -7 9 -15 5 -8 -3 -15 -2
-15 2 0 9 -209 9 -223 0z m97 -70 c-5 -7 -3 -8 7 -2 19 12 32 12 47 1 8 -6 12
-6 12 1 0 6 9 10 20 9 11 -1 20 -5 20 -10 0 -4 4 -5 10 -2 6 3 7 -1 4 -9 -4
-11 0 -16 10 -16 19 0 17 -37 -3 -49 -7 -5 -12 -11 -12 -15 1 -3 -1 -6 -4 -7
-2 0 -18 -4 -34 -9 -19 -5 -33 -4 -40 3 -8 8 -11 7 -11 -3 0 -13 -2 -13 -10 0
-7 11 -10 11 -10 2 0 -7 -5 -10 -10 -7 -6 4 -8 10 -5 15 3 4 -1 10 -7 13 -10
3 -10 7 1 20 11 14 11 17 0 17 -11 0 -11 2 1 10 11 7 11 10 2 10 -10 0 -10 5
-2 20 6 11 13 20 16 20 3 0 2 -5 -2 -12z"/>
<path d="M2765 2478 c-4 -10 -11 -18 -16 -18 -6 0 -7 -4 -4 -10 3 -5 0 -10 -7
-10 -11 0 -11 -2 0 -9 10 -6 10 -10 -2 -21 -9 -7 -13 -16 -10 -21 3 -5 1 -9
-5 -9 -5 0 -8 -11 -7 -25 2 -15 -1 -22 -7 -18 -6 4 -8 0 -4 -10 3 -9 2 -17 -3
-19 -4 -2 -10 -12 -12 -23 -1 -11 -6 -22 -10 -25 -4 -3 -9 -15 -12 -25 -8 -40
-18 -65 -25 -61 -3 2 -6 -6 -7 -17 0 -12 -4 -38 -8 -57 -4 -23 -3 -30 3 -21 5
8 16 11 25 8 9 -4 16 -2 16 2 0 5 9 7 20 4 19 -5 26 9 21 40 0 4 4 7 9 7 6 0
9 6 8 13 -2 6 2 11 9 10 7 -2 10 4 7 12 -7 18 7 20 25 3 10 -11 11 -9 5 7 -7
19 -7 19 13 2 18 -16 23 -16 34 -4 12 12 15 12 26 -2 12 -14 12 -14 6 4 -6 17
-4 18 9 8 8 -7 19 -9 23 -5 5 4 5 1 1 -5 -4 -8 -1 -13 9 -13 12 0 16 -8 14
-28 -4 -37 6 -51 37 -47 14 1 28 -3 31 -11 4 -11 8 -11 19 1 15 14 16 45 2 55
-3 3 -8 14 -10 25 -1 11 -9 26 -16 33 -7 8 -10 17 -7 22 3 5 1 11 -4 15 -6 3
-7 13 -4 22 4 11 3 14 -6 9 -8 -5 -11 -3 -10 5 3 21 -12 69 -22 69 -5 0 -6 6
-3 14 3 8 0 17 -5 21 -6 3 -9 11 -6 16 4 5 2 9 -3 9 -8 0 -12 13 -13 52 -1 26
-22 38 -73 42 -37 2 -47 0 -51 -16z m63 -80 c0 -7 3 -22 6 -33 2 -11 5 -26 5
-33 1 -7 6 -10 13 -6 7 4 8 3 4 -5 -4 -6 -1 -24 6 -39 l14 -27 -52 -3 c-57 -3
-76 14 -48 43 12 11 12 15 2 16 -10 0 -10 2 0 6 6 2 12 16 12 29 0 13 4 24 9
24 5 0 11 9 14 20 6 23 13 26 15 8z"/>
<path d="M3074 2470 c1 -14 -2 -33 -6 -42 -5 -10 -3 -20 4 -24 7 -5 8 -3 3 6
-5 9 -4 11 4 6 8 -5 9 -12 2 -20 -5 -6 -8 -21 -7 -31 2 -11 -1 -28 -6 -39 -7
-13 -7 -16 1 -12 15 10 14 -7 -1 -23 -7 -8 -8 -11 -2 -8 7 4 11 -5 11 -23 0
-16 -5 -27 -10 -23 -5 3 -4 -3 2 -14 7 -14 7 -23 0 -30 -8 -8 -7 -13 0 -17 15
-10 14 -29 -1 -20 -10 5 -10 4 -1 -6 8 -9 9 -19 3 -31 -7 -11 -7 -20 0 -24 5
-3 10 -4 10 0 0 3 9 1 20 -5 15 -8 20 -8 21 2 0 7 4 4 9 -7 8 -18 9 -18 9 -2
1 10 6 15 11 12 6 -3 11 -1 11 4 1 6 2 17 3 24 1 6 -2 18 -7 25 -6 8 -5 12 2
12 7 0 9 5 5 12 -10 16 -13 48 -4 48 4 0 5 12 3 28 -7 51 -8 92 -3 92 3 0 6 9
6 20 0 11 -4 20 -9 20 -5 0 -4 6 2 14 7 9 8 17 2 20 -10 6 -10 24 1 41 12 20
-10 37 -49 39 -37 2 -40 0 -39 -24z"/>
<path d="M3280 2489 c0 -6 -5 -7 -10 -4 -7 4 -9 -6 -7 -29 3 -22 0 -36 -7 -36
-7 0 -7 -3 -1 -8 12 -9 13 -62 1 -81 -6 -9 -5 -12 2 -7 7 4 10 -1 9 -14 -1
-11 -5 -20 -10 -20 -5 0 -3 -8 4 -17 12 -14 12 -16 0 -8 -11 6 -12 5 -5 -6 13
-21 14 -39 1 -39 -8 0 -7 -3 1 -9 8 -4 14 -12 14 -16 0 -4 -6 -12 -14 -16 -11
-7 -11 -9 1 -9 10 0 11 -3 2 -14 -9 -10 -9 -16 -1 -21 6 -4 8 -15 5 -24 -3
-11 2 -24 12 -32 17 -13 17 -13 3 5 -12 16 -12 18 -1 11 8 -4 36 -7 63 -6 38
1 48 -2 42 -11 -6 -10 -4 -10 9 0 9 8 37 13 69 12 103 -3 103 -3 103 31 1 25
-3 29 -18 25 -14 -3 -16 -2 -7 9 12 15 -5 16 -27 2 -6 -4 -15 -3 -18 3 -5 8
-11 7 -21 -1 -11 -9 -14 -8 -14 2 0 8 -6 6 -16 -7 -8 -10 -13 -14 -10 -7 8 15
-11 27 -20 12 -4 -8 -9 -7 -15 2 -6 10 -9 11 -9 2 0 -7 -5 -13 -11 -13 -5 0
-7 4 -4 10 3 5 0 7 -8 4 -8 -3 -17 2 -20 10 -4 9 -3 16 1 16 11 0 9 54 -3 62
-6 5 -4 8 5 8 13 0 13 1 0 10 -8 5 -10 10 -5 10 6 0 10 11 10 25 0 14 -4 25
-10 25 -5 0 -3 5 5 10 13 9 13 10 0 10 -9 0 -11 3 -5 8 6 4 10 16 10 27 0 11
-4 23 -10 27 -7 5 -7 8 0 8 6 0 10 11 10 25 0 14 -4 25 -10 25 -5 0 -3 5 5 10
12 8 10 10 -10 11 -14 0 -33 2 -42 4 -10 2 -18 -1 -18 -6z"/>
<path d="M630 1988 c0 -5 -6 -6 -12 -2 -9 5 -9 2 1 -9 7 -9 11 -17 8 -17 -3 0
14 -20 38 -44 25 -24 45 -47 45 -50 0 -4 10 -17 23 -30 12 -13 36 -41 52 -61
17 -21 41 -51 55 -67 14 -15 43 -49 65 -74 22 -25 50 -57 63 -70 12 -13 22
-26 22 -29 -1 -21 1 -25 9 -20 6 3 15 -4 21 -16 7 -11 26 -34 43 -51 18 -16
26 -26 18 -22 -9 5 -12 3 -7 -4 4 -7 14 -12 22 -12 8 0 14 -5 14 -11 0 -5 13
-24 30 -42 16 -18 30 -38 30 -45 0 -7 4 -11 9 -7 10 6 37 -34 33 -48 -1 -5 1
-6 5 -4 5 2 17 -5 28 -16 11 -11 14 -16 6 -12 -9 5 -12 4 -7 -3 4 -7 14 -12
22 -12 8 0 13 -4 10 -8 -3 -5 4 -15 15 -22 10 -8 19 -19 19 -25 1 -5 14 -21
30 -35 17 -13 30 -28 30 -33 0 -5 14 -22 31 -38 17 -16 27 -29 23 -29 -5 0 2
-7 14 -16 12 -8 20 -20 17 -25 -4 -5 1 -9 10 -9 8 0 19 -8 22 -17 4 -10 16
-28 28 -39 11 -12 36 -41 55 -65 19 -23 50 -58 68 -77 17 -18 32 -36 32 -38 0
-5 29 -40 68 -80 17 -19 32 -42 32 -52 0 -15 2 -15 10 -2 7 11 10 11 10 2 0
-14 11 -29 53 -73 15 -15 27 -31 27 -34 0 -13 28 -34 35 -27 5 4 5 2 2 -4 -8
-14 18 -38 32 -29 7 3 8 0 5 -9 -5 -13 3 -16 41 -16 38 0 46 3 41 16 -3 8 -2
13 3 10 8 -5 81 73 89 95 2 5 10 9 18 9 9 0 12 5 9 10 -3 6 -1 10 5 10 6 0 8
5 4 12 -5 8 -2 9 10 5 10 -4 15 -3 11 4 -4 5 11 26 32 46 21 20 31 32 23 28
-8 -5 -1 5 15 22 17 17 47 51 67 75 47 56 82 96 114 131 14 15 23 27 20 27 -3
0 7 13 22 28 52 55 92 104 92 113 0 5 7 9 15 9 8 0 15 4 15 10 0 10 21 38 58
76 12 13 22 25 22 28 0 3 16 21 35 41 20 19 33 35 30 35 -3 0 4 11 17 25 13
13 37 39 53 57 17 17 29 36 27 40 -1 4 3 8 9 8 5 0 7 5 3 12 -4 6 -3 8 3 5 6
-4 21 7 34 25 13 17 32 40 42 51 9 11 17 24 17 29 0 5 4 7 9 3 5 -3 12 4 16
15 3 11 15 25 26 30 10 6 19 15 19 20 0 10 30 46 90 107 19 20 28 32 20 28
-13 -8 -13 -6 -1 8 7 9 17 14 22 11 5 -3 9 1 9 8 0 7 13 27 30 44 16 18 26 35
23 38 -4 3 1 6 10 6 8 0 19 9 22 20 3 11 14 20 23 20 15 0 15 2 2 10 -14 9
-13 11 10 14 5 0 15 7 22 15 11 12 10 13 -2 7 -8 -5 3 9 25 29 22 21 33 34 25
29 -13 -7 -13 -5 -2 8 16 21 -2 29 -36 17 -14 -6 -21 -5 -17 0 3 6 -6 6 -24 1
-16 -4 -32 -6 -35 -3 -10 10 -66 9 -70 -1 -2 -6 -5 -5 -5 3 -1 17 -58 -43 -67
-71 -3 -10 -9 -16 -13 -14 -4 3 -14 -4 -22 -16 -8 -12 -26 -34 -41 -49 -15
-16 -25 -29 -21 -29 3 0 -6 -11 -21 -25 -14 -13 -26 -29 -26 -35 0 -6 -5 -8
-12 -4 -8 5 -9 2 -5 -10 4 -9 3 -15 -1 -12 -5 3 -15 -4 -23 -15 -8 -12 -23
-31 -34 -43 -62 -70 -75 -87 -75 -97 0 -5 -4 -8 -8 -5 -5 3 -16 -8 -26 -25
-10 -16 -22 -26 -28 -23 -7 4 -8 2 -4 -4 4 -7 2 -12 -5 -12 -7 0 -10 -3 -6 -6
3 -3 -10 -21 -30 -40 -19 -19 -32 -34 -29 -34 3 0 -9 -15 -27 -34 -39 -41 -61
-68 -67 -81 -3 -5 -8 -9 -12 -7 -5 1 -8 -2 -8 -8 0 -17 -33 -49 -43 -43 -6 3
-7 1 -4 -4 4 -6 -5 -22 -20 -37 -14 -14 -23 -26 -20 -26 3 0 -10 -15 -28 -34
-19 -18 -35 -36 -35 -40 0 -4 -16 -22 -35 -42 -19 -19 -34 -37 -34 -41 0 -4
-8 -10 -18 -14 -10 -4 -14 -8 -9 -8 4 -1 -6 -15 -22 -33 -17 -17 -28 -36 -25
-42 3 -6 3 -8 -2 -4 -4 4 -14 0 -21 -10 -11 -14 -15 -15 -26 -3 -7 8 -8 11 -2
8 10 -6 29 44 25 66 0 4 4 7 11 7 6 0 8 3 5 7 -4 3 -1 13 6 21 10 13 9 14 -1
8 -10 -6 -10 -2 0 21 7 15 15 30 18 33 5 5 10 21 14 45 1 6 5 16 9 23 5 6 5
17 2 22 -3 6 -2 10 4 10 6 0 8 7 5 15 -4 8 -2 15 3 15 5 0 10 6 11 13 0 6 3
21 6 32 2 11 5 24 5 28 1 5 5 6 10 3 5 -4 7 3 4 14 -3 12 2 29 13 42 11 12 13
18 7 14 -18 -10 -16 -1 3 18 10 10 11 16 3 16 -8 0 -9 4 0 13 6 8 12 24 15 38
2 13 8 23 13 22 5 -1 8 12 7 28 -1 16 5 36 13 44 11 12 11 15 1 15 -10 0 -9 3
2 10 8 5 11 12 8 15 -4 4 2 22 12 40 13 24 15 36 7 44 -8 8 -6 11 9 11 14 0
16 2 6 9 -11 6 -10 10 4 15 9 3 14 9 11 13 -4 3 -1 13 6 21 10 13 9 14 -1 8
-12 -7 -12 -4 -1 15 7 13 16 40 19 59 3 19 11 34 17 33 6 -1 9 11 8 27 -1 17
2 30 7 30 5 0 7 4 3 9 -3 6 2 14 11 19 12 7 13 11 5 17 -9 5 -9 10 -1 20 9 11
6 16 -11 25 -17 10 -20 9 -14 -1 6 -8 4 -10 -4 -4 -20 11 -71 12 -71 1 0 -6
-5 -4 -10 4 -9 13 -10 13 -10 0 0 -12 -2 -12 -9 -2 -4 8 -11 13 -15 13 -12 -1
-34 -26 -29 -33 2 -5 -1 -8 -8 -8 -8 0 -8 -4 1 -15 10 -12 9 -15 -6 -15 -15 0
-16 -2 -5 -9 9 -6 10 -10 2 -12 -6 -2 -14 -17 -17 -34 -3 -16 -10 -35 -16 -42
-6 -7 -7 -13 -2 -13 4 0 3 -5 -4 -12 -16 -16 -15 -31 1 -22 6 4 4 -2 -5 -13
-10 -11 -19 -32 -20 -46 -1 -15 -6 -27 -11 -27 -4 0 -5 -5 -2 -10 3 -6 1 -10
-4 -10 -6 0 -11 -5 -11 -11 0 -5 5 -7 11 -3 6 3 4 -5 -5 -18 -9 -14 -13 -28
-9 -31 3 -4 1 -7 -6 -7 -7 0 -11 -7 -8 -15 4 -8 2 -17 -4 -21 -6 -3 -8 -12 -5
-20 3 -8 1 -14 -3 -14 -5 0 -12 -18 -16 -40 -4 -22 -11 -40 -15 -40 -5 0 -7
-9 -5 -20 2 -11 -1 -20 -6 -20 -6 0 -7 -5 -3 -11 3 -6 2 -14 -4 -18 -6 -4 -13
-22 -14 -40 -1 -18 -8 -36 -15 -38 -7 -3 -10 -9 -7 -14 3 -5 2 -15 -3 -21 -4
-7 -8 -17 -8 -23 -2 -24 -26 -95 -35 -100 -6 -4 -7 -17 -4 -31 4 -15 2 -24 -6
-24 -6 0 -9 -4 -6 -9 4 -5 2 -11 -3 -13 -5 -1 -12 -18 -14 -37 -3 -19 -9 -37
-14 -40 -4 -3 -9 -19 -10 -36 -1 -16 -7 -31 -13 -33 -5 -2 -10 -14 -10 -26 0
-12 -6 -28 -12 -35 -10 -11 -10 -13 0 -7 6 4 12 2 12 -3 0 -6 -4 -11 -10 -11
-5 0 -10 -9 -10 -20 0 -11 -5 -20 -11 -20 -5 0 -7 -5 -3 -11 4 -7 1 -10 -7 -7
-8 3 -13 11 -11 18 1 7 -3 19 -10 28 -11 13 -11 14 2 7 13 -7 13 -5 -1 11 -8
10 -15 28 -15 39 1 11 -3 23 -7 26 -4 3 -9 16 -10 27 -1 12 -5 22 -10 22 -4 0
-6 4 -2 9 3 5 -2 17 -11 25 -8 9 -10 16 -4 16 6 0 5 11 -5 30 -9 17 -13 35
-10 40 3 5 1 11 -5 15 -5 3 -10 15 -10 26 0 10 -5 19 -11 19 -8 0 -7 5 1 16
11 12 11 15 0 12 -7 -2 -14 6 -15 17 -1 11 -10 39 -18 63 -9 23 -14 42 -10 42
3 0 0 7 -7 15 -7 8 -9 15 -5 15 5 0 0 10 -11 22 -18 20 -18 21 -1 15 17 -6 16
-4 -2 19 -11 15 -18 30 -15 35 3 5 0 9 -7 9 -6 0 -9 8 -6 20 3 11 1 20 -5 20
-5 0 -6 5 -3 10 3 6 2 10 -4 10 -6 0 -8 7 -5 15 4 8 1 15 -6 15 -10 0 -10 3
-1 14 8 9 8 15 1 18 -5 1 -12 14 -15 27 -2 12 -9 29 -15 37 -7 7 -9 18 -5 24
3 5 2 10 -3 10 -5 0 -8 13 -7 29 1 17 -3 29 -8 28 -9 -2 -15 15 -19 56 -1 9
-6 17 -11 17 -5 0 -7 7 -3 15 3 8 1 15 -4 15 -5 0 -7 6 -4 13 2 7 -2 26 -10
42 -8 16 -13 32 -10 37 3 4 0 8 -6 8 -6 0 -8 5 -5 10 3 6 2 10 -4 10 -6 0 -8
7 -5 15 4 8 1 15 -6 15 -6 0 -9 4 -5 9 3 5 0 13 -6 16 -16 10 -79 12 -79 2 0
-4 -9 -3 -20 3 -15 8 -20 8 -20 -1 0 -8 -4 -8 -12 -1 -9 6 -19 4 -32 -9 -12
-12 -15 -19 -7 -19 7 0 11 -6 9 -12 -3 -7 2 -19 9 -27 11 -10 12 -16 3 -21 -9
-6 -9 -9 -1 -11 6 -2 13 -15 16 -28 2 -12 9 -29 15 -35 5 -7 7 -16 3 -19 -3
-4 0 -13 6 -21 7 -8 10 -20 6 -26 -3 -5 -1 -10 5 -10 6 0 8 -4 5 -10 -3 -5 -2
-10 4 -10 5 0 8 -9 6 -20 -2 -11 1 -22 6 -25 5 -4 7 -11 4 -16 -4 -5 -2 -9 3
-9 5 0 12 -12 15 -27 3 -16 7 -37 10 -48 3 -11 7 -27 9 -35 1 -8 10 -20 18
-27 12 -10 12 -12 1 -13 -10 0 -11 -3 -2 -13 6 -8 8 -17 4 -20 -3 -4 -2 -7 4
-7 5 0 10 -6 11 -12 2 -25 8 -48 15 -54 4 -4 7 -18 7 -31 0 -12 5 -23 11 -23
5 0 8 -3 5 -8 -2 -4 4 -30 13 -57 10 -28 16 -56 13 -64 -3 -8 0 -11 7 -7 7 5
11 -2 12 -18 2 -45 5 -51 18 -48 9 2 11 -3 7 -13 -3 -9 -3 -22 1 -28 6 -10 10
-26 15 -64 1 -7 6 -13 11 -13 6 0 7 -3 4 -6 -3 -4 -1 -16 5 -28 7 -11 13 -30
15 -40 2 -11 10 -27 18 -35 12 -14 11 -16 -11 -17 -13 -1 -24 2 -24 8 0 5 5 6
12 2 7 -4 8 -3 4 4 -4 7 -14 12 -22 12 -8 0 -14 9 -14 21 0 11 -4 17 -10 14
-5 -3 -10 -1 -10 5 0 6 -5 8 -12 4 -6 -4 -8 -3 -5 3 3 5 -5 21 -19 36 -13 14
-24 32 -24 38 0 7 -3 10 -6 6 -9 -9 -56 51 -49 63 4 6 2 9 -2 8 -11 -4 -102
90 -95 97 3 3 0 5 -7 5 -7 0 -9 5 -6 10 3 6 -1 10 -9 10 -8 0 -18 5 -22 12 -5
7 -2 8 7 3 8 -4 -4 9 -26 30 -22 20 -33 34 -25 30 8 -5 2 5 -15 22 -16 17 -48
52 -70 78 -22 26 -48 56 -57 66 -10 10 -18 24 -18 30 0 5 -4 7 -10 4 -5 -3
-10 -1 -10 4 0 11 -34 53 -77 96 -13 12 -23 26 -23 30 0 4 -14 20 -31 36 -17
16 -28 29 -25 29 4 0 -7 13 -23 29 -16 16 -27 32 -24 35 4 3 -1 6 -11 6 -9 0
-15 4 -12 8 3 5 -4 15 -15 22 -10 8 -19 20 -19 28 0 7 -5 10 -10 7 -10 -6 -15
9 -10 30 1 6 -2 7 -6 3 -4 -4 -23 13 -42 37 -19 25 -39 45 -44 45 -5 0 -7 4
-4 9 3 5 -12 11 -34 13 -23 2 -40 -1 -40 -7 0 -5 -4 -4 -9 4 -7 11 -9 11 -14
0 -4 -10 -6 -10 -6 -1 -1 6 -6 12 -12 12 -5 0 -7 -5 -3 -11 4 -8 0 -8 -15 0
-16 9 -21 9 -21 -1 0 -8 -3 -9 -8 -3 -9 13 -42 16 -42 3z"/>
</g>
</svg>
