<svg width="645" height="645" viewBox="0 0 645 645" fill="none" xmlns="http://www.w3.org/2000/svg">
<rect width="645" height="645" fill="#EDDBCB"/>
<path d="M275.505 270.288C273.257 287.688 285.92 302.142 287.672 317.617C290.068 338.79 284.047 355.352 285.761 374.473" stroke="#B58863" stroke-width="2.4001" stroke-miterlimit="2.6131"/>
<path d="M369.579 270.288C371.627 292.214 355.775 304.478 352.419 321.879C348.368 342.892 361.095 355.591 365.648 374.473" stroke="#B58863" stroke-width="2.4001" stroke-miterlimit="2.6131"/>
<path d="M342.178 304.481H300.161V346.277H342.178V304.481Z" stroke="#B58863" stroke-width="1.44" stroke-miterlimit="2.6131"/>
<path d="M306.841 315.028V308.701H309.054C309.494 308.701 309.858 308.777 310.144 308.93C310.43 309.08 310.644 309.283 310.784 309.538C310.924 309.792 310.994 310.073 310.994 310.382C310.994 310.654 310.945 310.878 310.849 311.055C310.754 311.232 310.628 311.372 310.472 311.475C310.317 311.578 310.149 311.655 309.968 311.704V311.766C310.162 311.778 310.356 311.846 310.552 311.97C310.748 312.093 310.911 312.27 311.043 312.501C311.175 312.732 311.241 313.014 311.241 313.348C311.241 313.665 311.169 313.95 311.025 314.203C310.88 314.457 310.653 314.658 310.342 314.806C310.031 314.954 309.626 315.028 309.128 315.028H306.841ZM307.608 314.349H309.128C309.628 314.349 309.983 314.252 310.194 314.058C310.406 313.863 310.512 313.626 310.512 313.348C310.512 313.133 310.457 312.936 310.348 312.754C310.239 312.571 310.083 312.425 309.882 312.316C309.68 312.205 309.441 312.149 309.165 312.149H307.608V314.349ZM307.608 311.482H309.029C309.259 311.482 309.468 311.436 309.653 311.346C309.84 311.255 309.989 311.127 310.098 310.963C310.209 310.798 310.265 310.604 310.265 310.382C310.265 310.104 310.168 309.868 309.974 309.674C309.781 309.479 309.474 309.381 309.054 309.381H307.608V311.482ZM312.5 315.028V308.701H314.638C315.132 308.701 315.538 308.785 315.855 308.954C316.172 309.121 316.407 309.351 316.559 309.643C316.712 309.936 316.788 310.268 316.788 310.641C316.788 311.014 316.712 311.345 316.559 311.633C316.407 311.921 316.173 312.148 315.858 312.313C315.543 312.475 315.14 312.557 314.65 312.557H312.92V311.865H314.625C314.963 311.865 315.235 311.815 315.441 311.716C315.649 311.618 315.799 311.477 315.892 311.296C315.987 311.113 316.034 310.895 316.034 310.641C316.034 310.388 315.987 310.166 315.892 309.977C315.797 309.788 315.646 309.641 315.438 309.538C315.23 309.433 314.955 309.381 314.613 309.381H313.266V315.028H312.5ZM315.478 312.186L317.035 315.028H316.145L314.613 312.186H315.478ZM318.324 315.028H317.521L319.844 308.701H320.635L322.959 315.028H322.155L320.265 309.702H320.215L318.324 315.028ZM318.621 312.557H321.859V313.236H318.621V312.557ZM328.961 308.701V315.028H328.22L324.772 310.06H324.71V315.028H323.944V308.701H324.686L328.146 313.681H328.208V308.701H328.961ZM332.447 315.028H330.495V308.701H332.534C333.147 308.701 333.673 308.828 334.109 309.081C334.546 309.332 334.881 309.694 335.113 310.165C335.346 310.635 335.462 311.197 335.462 311.852C335.462 312.511 335.345 313.079 335.11 313.555C334.875 314.028 334.534 314.393 334.085 314.648C333.636 314.902 333.09 315.028 332.447 315.028ZM331.261 314.349H332.398C332.921 314.349 333.354 314.248 333.698 314.046C334.042 313.844 334.299 313.557 334.468 313.184C334.637 312.811 334.721 312.367 334.721 311.852C334.721 311.342 334.638 310.902 334.471 310.533C334.304 310.162 334.055 309.878 333.723 309.68C333.391 309.481 332.979 309.381 332.484 309.381H331.261V314.349Z" fill="#5E4435"/>
<path d="M316.577 335.794C316.539 335.481 316.389 335.238 316.125 335.065C315.862 334.892 315.538 334.806 315.155 334.806C314.875 334.806 314.63 334.851 314.42 334.942C314.212 335.032 314.049 335.157 313.932 335.315C313.817 335.474 313.759 335.654 313.759 335.856C313.759 336.025 313.799 336.17 313.879 336.292C313.962 336.411 314.067 336.511 314.195 336.591C314.322 336.67 314.456 336.735 314.596 336.786C314.736 336.835 314.865 336.876 314.982 336.907L315.625 337.08C315.79 337.123 315.973 337.183 316.175 337.259C316.379 337.335 316.573 337.439 316.759 337.571C316.946 337.701 317.101 337.867 317.222 338.071C317.344 338.275 317.404 338.525 317.404 338.822C317.404 339.164 317.315 339.473 317.136 339.749C316.959 340.025 316.699 340.244 316.357 340.407C316.017 340.57 315.604 340.651 315.118 340.651C314.665 340.651 314.273 340.578 313.941 340.432C313.612 340.285 313.352 340.082 313.163 339.82C312.975 339.558 312.869 339.255 312.844 338.909H313.635C313.656 339.147 313.736 339.345 313.876 339.502C314.018 339.656 314.198 339.772 314.414 339.848C314.632 339.922 314.867 339.959 315.118 339.959C315.411 339.959 315.673 339.912 315.906 339.817C316.139 339.72 316.323 339.586 316.459 339.415C316.595 339.242 316.663 339.04 316.663 338.81C316.663 338.6 316.604 338.429 316.487 338.297C316.37 338.165 316.215 338.058 316.023 337.976C315.832 337.893 315.625 337.821 315.403 337.759L314.624 337.537C314.13 337.395 313.738 337.192 313.45 336.928C313.162 336.665 313.017 336.32 313.017 335.893C313.017 335.539 313.113 335.23 313.305 334.966C313.498 334.701 313.758 334.495 314.083 334.348C314.411 334.2 314.776 334.126 315.18 334.126C315.588 334.126 315.95 334.199 316.268 334.345C316.585 334.49 316.836 334.687 317.021 334.939C317.209 335.19 317.308 335.475 317.318 335.794H316.577ZM319.43 334.213V340.54H318.664V334.213H319.43ZM320.757 340.54V339.984L324.167 334.892H320.72V334.213H325.082V334.769L321.671 339.86H325.119V340.54H320.757ZM326.404 340.54V334.213H330.223V334.892H327.17V337.03H330.025V337.71H327.17V339.86H330.272V340.54H326.404Z" fill="#5E4435"/>
</svg>
