<svg width="636" height="643" viewBox="0 0 636 643" fill="none" xmlns="http://www.w3.org/2000/svg">
<rect width="636" height="643" fill="#EDDBCB"/>
<path d="M468.952 243.051H167.048V289.23H468.952V243.051Z" fill="#5B4334" stroke="#231F20" stroke-width="0.5" stroke-miterlimit="2.6131"/>
<path d="M468.952 289.23H167.048V437H468.952V289.23Z" fill="#A38E79"/>
<path d="M184.127 347.317H310.852C311.88 347.317 312.866 347.726 313.592 348.455C314.319 349.184 314.728 350.173 314.728 351.204V418.53C314.728 419.561 314.319 420.55 313.592 421.279C312.865 422.008 311.88 422.417 310.852 422.417H184.127C183.099 422.417 182.113 422.008 181.387 421.279C180.66 420.55 180.251 419.561 180.251 418.53V351.205C180.251 350.174 180.66 349.185 181.387 348.456C182.114 347.726 183.099 347.317 184.127 347.317V347.317Z" fill="#E3D6CB"/>
<path d="M189.09 360.476V367.749H188.21V361.399H188.167L186.392 362.578V361.683L188.21 360.476H189.09ZM193.739 360.476V367.749H192.858V361.399H192.816L191.04 362.578V361.683L192.858 360.476H193.739ZM201.2 360.476V367.749H200.319V361.399H200.277L198.501 362.578V361.683L200.319 360.476H201.2ZM205.848 360.476V367.749H204.968V361.399H204.925L203.149 362.578V361.683L204.968 360.476H205.848ZM211.178 367.749H210.255L212.926 360.476H213.835L216.505 367.749H215.582L213.409 361.626H213.352L211.178 367.749ZM211.519 364.908H215.241V365.689H211.519V364.908ZM217.936 367.749H217.013L219.683 360.476H220.593L223.263 367.749H222.34L220.166 361.626H220.11L217.936 367.749ZM218.277 364.908H221.999V365.689H218.277V364.908ZM224.694 367.749H223.771L226.441 360.476H227.35L230.021 367.749H229.098L226.924 361.626H226.867L224.694 367.749ZM225.035 364.908H228.757V365.689H225.035V364.908ZM233.241 360.476V367.749H232.36V361.399H232.318L230.542 362.578V361.683L232.36 360.476H233.241Z" fill="#5D4D46"/>
<path d="M186.841 375.086L187.735 375.008C187.777 375.366 187.875 375.66 188.028 375.892C188.184 376.119 188.425 376.305 188.75 376.448C189.076 376.588 189.442 376.658 189.849 376.658C190.21 376.658 190.529 376.604 190.806 376.497C191.083 376.39 191.288 376.243 191.421 376.058C191.558 375.869 191.626 375.664 191.626 375.442C191.626 375.218 191.561 375.022 191.431 374.856C191.301 374.687 191.086 374.546 190.787 374.432C190.595 374.357 190.17 374.241 189.512 374.085C188.855 373.925 188.394 373.776 188.13 373.636C187.789 373.457 187.533 373.235 187.364 372.972C187.198 372.705 187.115 372.407 187.115 372.078C187.115 371.717 187.217 371.38 187.422 371.067C187.627 370.752 187.927 370.512 188.321 370.35C188.715 370.187 189.153 370.105 189.634 370.105C190.165 370.105 190.632 370.192 191.036 370.364C191.443 370.534 191.755 370.784 191.973 371.116C192.191 371.448 192.308 371.824 192.325 372.244L191.417 372.312C191.368 371.86 191.202 371.518 190.918 371.287C190.639 371.056 190.223 370.94 189.673 370.94C189.1 370.94 188.682 371.046 188.418 371.258C188.158 371.466 188.028 371.718 188.028 372.015C188.028 372.272 188.121 372.483 188.306 372.649C188.488 372.815 188.964 372.986 189.732 373.162C190.503 373.335 191.032 373.486 191.319 373.616C191.736 373.808 192.043 374.052 192.242 374.349C192.44 374.642 192.54 374.98 192.54 375.364C192.54 375.745 192.431 376.105 192.212 376.443C191.994 376.779 191.68 377.041 191.27 377.229C190.863 377.415 190.404 377.508 189.893 377.508C189.245 377.508 188.702 377.413 188.262 377.225C187.826 377.036 187.483 376.753 187.232 376.375C186.985 375.994 186.854 375.564 186.841 375.086ZM193.726 371.238V370.228H194.605V371.238H193.726ZM193.726 377.386V372.2H194.605V377.386H193.726ZM195.484 377.386V376.673L198.785 372.884C198.41 372.903 198.08 372.913 197.793 372.913H195.679V372.2H199.917V372.781L197.11 376.072L196.568 376.673C196.962 376.644 197.331 376.629 197.676 376.629H200.074V377.386H195.484ZM204.498 375.716L205.406 375.828C205.263 376.359 204.997 376.771 204.61 377.063C204.222 377.356 203.728 377.503 203.125 377.503C202.367 377.503 201.765 377.27 201.319 376.805C200.876 376.336 200.655 375.68 200.655 374.837C200.655 373.965 200.879 373.287 201.329 372.806C201.778 372.324 202.361 372.083 203.077 372.083C203.77 372.083 204.336 372.319 204.776 372.791C205.215 373.263 205.435 373.927 205.435 374.783C205.435 374.835 205.433 374.913 205.43 375.018H201.563C201.596 375.587 201.757 376.023 202.046 376.326C202.336 376.629 202.697 376.78 203.13 376.78C203.453 376.78 203.728 376.696 203.956 376.526C204.183 376.357 204.364 376.087 204.498 375.716ZM201.612 374.295H204.507C204.468 373.859 204.358 373.532 204.175 373.313C203.895 372.975 203.532 372.806 203.086 372.806C202.683 372.806 202.343 372.941 202.066 373.211C201.792 373.481 201.641 373.842 201.612 374.295Z" fill="#5D4D46"/>
<path d="M282.434 360.704L284.309 363.729H284.366L286.241 360.704H287.278L284.991 364.34L287.278 367.977H286.241L284.366 365.008H284.309L282.434 367.977H281.397L283.741 364.34L281.397 360.704H282.434ZM288.85 360.704L290.725 363.729H290.782L292.657 360.704H293.694L291.407 364.34L293.694 367.977H292.657L290.782 365.008H290.725L288.85 367.977H287.813L290.157 364.34L287.813 360.704H288.85ZM295.266 360.704L297.141 363.729H297.198L299.073 360.704H300.11L297.823 364.34L300.11 367.977H299.073L297.198 365.008H297.141L295.266 367.977H294.229L296.573 364.34L294.229 360.704H295.266ZM301.682 360.704L303.557 363.729H303.614L305.489 360.704H306.526L304.239 364.34L306.526 367.977H305.489L303.614 365.008H303.557L301.682 367.977H300.645L302.989 364.34L300.645 360.704H301.682Z" fill="#5D4D46"/>
<path d="M245.027 415.695V420.059H244.498V416.249H244.473L243.407 416.956V416.419L244.498 415.695H245.027ZM247.816 415.695V420.059H247.287V416.249H247.262L246.197 416.956V416.419L247.287 415.695H247.816ZM252.292 415.695V420.059H251.764V416.249H251.738L250.673 416.956V416.419L251.764 415.695H252.292ZM255.081 415.695V420.059H254.553V416.249H254.528L253.462 416.956V416.419L254.553 415.695H255.081ZM258.28 420.059H257.726L259.328 415.695H259.873L261.476 420.059H260.922L259.618 416.385H259.584L258.28 420.059ZM258.484 418.354H260.717V418.823H258.484V418.354ZM262.334 420.059H261.78L263.383 415.695H263.928L265.53 420.059H264.976L263.672 416.385H263.638L262.334 420.059ZM262.539 418.354H264.772V418.823H262.539V418.354ZM266.389 420.059H265.835L267.437 415.695H267.983L269.585 420.059H269.031L267.727 416.385H267.693L266.389 420.059ZM266.594 418.354H268.827V418.823H266.594V418.354ZM271.517 415.695V420.059H270.989V416.249H270.963L269.898 416.956V416.419L270.989 415.695H271.517Z" fill="#5D4D46"/>
<path d="M245.77 395.649H241.794V412.958H245.77V395.649Z" fill="#5E4435"/>
<path d="M205.985 395.649H202.569V412.958H205.985V395.649Z" fill="#5E4435"/>
<path d="M223.37 395.649H219.958V412.958H223.37V395.649Z" fill="#5E4435"/>
<path d="M195.216 395.649H191.814V412.958H195.216V395.649Z" fill="#5E4435"/>
<path d="M229.637 395.649H226.589V412.958H229.637V395.649Z" fill="#5E4435"/>
<path d="M216.731 395.649H214.215V412.958H216.731V395.649Z" fill="#5E4435"/>
<path d="M238.599 395.649H236.799V412.958H238.599V395.649Z" fill="#5E4435"/>
<path d="M210.994 395.649H209.203V412.958H210.994V395.649Z" fill="#5E4435"/>
<path d="M199.344 395.649H198.447V412.958H199.344V395.649Z" fill="#5E4435"/>
<path d="M233.58 395.649H232.857V412.958H233.58V395.649Z" fill="#5E4435"/>
<path d="M214.215 395.649H213.982V412.958H214.215V395.649Z" fill="#5E4435"/>
<path d="M191.815 395.649H191.635V412.958H191.815V395.649Z" fill="#5E4435"/>
<path d="M229.815 395.649H229.637V412.958H229.815V395.649Z" fill="#5E4435"/>
<path d="M209.203 395.649H209.031V412.958H209.203V395.649Z" fill="#5E4435"/>
<path d="M303.209 395.649H299.234V412.958H303.209V395.649Z" fill="#5E4435"/>
<path d="M263.425 395.649H260.009V412.958H263.425V395.649Z" fill="#5E4435"/>
<path d="M280.809 395.649H277.396V412.958H280.809V395.649Z" fill="#5E4435"/>
<path d="M252.654 395.649H249.254V412.958H252.654V395.649Z" fill="#5E4435"/>
<path d="M287.076 395.649H284.029V412.958H287.076V395.649Z" fill="#5E4435"/>
<path d="M274.17 395.649H271.654V412.958H274.17V395.649Z" fill="#5E4435"/>
<path d="M296.038 395.649H294.239V412.958H296.038V395.649Z" fill="#5E4435"/>
<path d="M268.434 395.649H266.641V412.958H268.434V395.649Z" fill="#5E4435"/>
<path d="M256.782 395.649H255.886V412.958H256.782V395.649Z" fill="#5E4435"/>
<path d="M291.02 395.649H290.295V412.958H291.02V395.649Z" fill="#5E4435"/>
<path d="M271.654 395.649H271.422V412.958H271.654V395.649Z" fill="#5E4435"/>
<path d="M249.254 395.649H249.075V412.958H249.254V395.649Z" fill="#5E4435"/>
<path d="M287.254 395.649H287.076V412.958H287.254V395.649Z" fill="#5E4435"/>
<path d="M266.641 395.649H266.47V412.958H266.641V395.649Z" fill="#5E4435"/>
</svg>
