<svg width="645" height="645" viewBox="0 0 645 645" fill="none" xmlns="http://www.w3.org/2000/svg">
<rect width="645" height="645" fill="#EDDBCB"/>
<path fill-rule="evenodd" clip-rule="evenodd" d="M116.287 360.35H518.053C521.142 360.359 524.103 361.59 526.288 363.774C528.473 365.958 529.704 368.917 529.713 372.005V385.062C529.704 388.15 528.473 391.109 526.288 393.293C524.103 395.477 521.142 396.708 518.053 396.717H116.287V360.35Z" stroke="#776450" stroke-width="2.88" stroke-miterlimit="2.6131"/>
<path fill-rule="evenodd" clip-rule="evenodd" d="M391.041 216.283H296.937C266.519 216.3 253.266 235.303 252.156 260.575V354.988C252.156 378.147 267.86 396.717 289.474 396.717H422.414C451.061 396.717 465.562 376.878 466.261 348.228V285.752C463.114 250.936 424.818 216.283 391.041 216.283Z" fill="#C8B89E" stroke="#776450" stroke-width="2.88" stroke-miterlimit="2.6131"/>
<path d="M309.193 264.26L316.143 275.476H316.354L323.304 264.26H327.148L318.671 277.74L327.148 291.22H323.304L316.354 280.215H316.143L309.193 291.22H305.349L314.037 277.74L305.349 264.26H309.193ZM332.977 264.26L339.927 275.476H340.138L347.089 264.26H350.932L342.455 277.74L350.932 291.22H347.089L340.138 280.215H339.927L332.977 291.22H329.133L337.821 277.74L329.133 264.26H332.977ZM356.761 264.26L363.711 275.476H363.922L370.873 264.26H374.717L366.239 277.74L374.717 291.22H370.873L363.922 280.215H363.711L356.761 291.22H352.917L361.605 277.74L352.917 264.26H356.761ZM380.545 264.26L387.496 275.476H387.706L394.657 264.26H398.501L390.023 277.74L398.501 291.22H394.657L387.706 280.215H387.496L380.545 291.22H376.701L385.389 277.74L376.701 264.26H380.545Z" fill="#776450"/>
</svg>
