<svg width="645" height="645" viewBox="0 0 645 645" fill="none" xmlns="http://www.w3.org/2000/svg">
<rect width="645" height="645" fill="#EDDBCB"/>
<path fill-rule="evenodd" clip-rule="evenodd" d="M281.072 298.338C274.936 266.586 284.846 239.27 307.374 215.44C321.566 202.5 339.341 201.786 349.694 219.453C365.005 245.576 366.931 273.023 357.108 301.63C348.706 326.099 333.911 333.103 348.499 364.725C358.931 390.82 362.022 442.246 318.332 434.892C296.334 431.19 290.75 408.905 289.031 380.009C287.077 347.029 299.761 345.15 283.958 306.216C282.733 303.694 281.766 301.054 281.072 298.338V298.338Z" stroke="#B58863" stroke-width="1.1999" stroke-miterlimit="2.6131"/>
<path d="M315.408 204.514L324.801 215.032" stroke="#B58863" stroke-width="1.1999" stroke-linecap="round" stroke-linejoin="round"/>
<path d="M333.305 202.74V214.526" stroke="#B58863" stroke-width="1.1999" stroke-linecap="round" stroke-linejoin="round"/>
<path d="M352.471 210.217L343.206 220.989" stroke="#B58863" stroke-width="1.1999" stroke-linecap="round" stroke-linejoin="round"/>
<path d="M360.341 221.623L349.044 229.733" stroke="#B58863" stroke-width="1.1999" stroke-linecap="round" stroke-linejoin="round"/>
<path d="M365.164 234.295L353.994 238.351" stroke="#B58863" stroke-width="1.1999" stroke-linecap="round" stroke-linejoin="round"/>
<path d="M367.83 250.137L353.994 252.544" stroke="#B58863" stroke-width="1.1999" stroke-linecap="round" stroke-linejoin="round"/>
<path d="M370.369 259.388L357.802 265.217" stroke="#B58863" stroke-width="1.1999" stroke-linecap="round" stroke-linejoin="round"/>
<path d="M371.257 269.399L357.676 277.637" stroke="#B58863" stroke-width="1.1999" stroke-linecap="round" stroke-linejoin="round"/>
<path d="M353.612 288.599L367.448 284.86" stroke="#B58863" stroke-width="1.1999" stroke-linecap="round" stroke-linejoin="round"/>
<path d="M350.312 298.293L363.259 297.914" stroke="#B58863" stroke-width="1.1999" stroke-linecap="round" stroke-linejoin="round"/>
<path d="M349.424 309.002L357.674 309.382" stroke="#B58863" stroke-width="1.1999" stroke-linecap="round" stroke-linejoin="round"/>
<path d="M342.282 326.016L350.025 326.238" stroke="#B58863" stroke-width="1.1999" stroke-linecap="round" stroke-linejoin="round"/>
<path d="M338.949 341.445L351.071 341.635" stroke="#B58863" stroke-width="1.1999" stroke-linecap="round" stroke-linejoin="round"/>
<path d="M341.868 354.719L351.388 353.072" stroke="#B58863" stroke-width="1.1999" stroke-linecap="round" stroke-linejoin="round"/>
<path d="M345.359 370.434L355.386 368.533" stroke="#B58863" stroke-width="1.1999" stroke-linecap="round" stroke-linejoin="round"/>
<path d="M350.975 385.451L360.811 382.79" stroke="#B58863" stroke-width="1.1999" stroke-linecap="round" stroke-linejoin="round"/>
<path d="M350.688 399.107L363.889 396.065" stroke="#B58863" stroke-width="1.1999" stroke-linecap="round" stroke-linejoin="round"/>
<path d="M350.56 410.988L361.349 411.336" stroke="#B58863" stroke-width="1.1999" stroke-linecap="round" stroke-linejoin="round"/>
<path d="M340.879 420.461L350.589 430.093" stroke="#B58863" stroke-width="1.1999" stroke-linecap="round" stroke-linejoin="round"/>
<path d="M331.931 426.735L335.866 438.521" stroke="#B58863" stroke-width="1.1999" stroke-linecap="round" stroke-linejoin="round"/>
<path d="M317.776 427.559L313.905 442.259" stroke="#B58863" stroke-width="1.1999" stroke-linecap="round" stroke-linejoin="round"/>
<path d="M309.652 423.06L297.531 432.629" stroke="#B58863" stroke-width="1.1999" stroke-linecap="round" stroke-linejoin="round"/>
<path d="M304.512 414.823L290.93 418.752" stroke="#B58863" stroke-width="1.1999" stroke-linecap="round" stroke-linejoin="round"/>
<path d="M301.529 407.282L287.757 407.726" stroke="#B58863" stroke-width="1.1999" stroke-linecap="round" stroke-linejoin="round"/>
<path d="M299.94 396.828H285.597" stroke="#B58863" stroke-width="1.1999" stroke-linecap="round" stroke-linejoin="round"/>
<path d="M296.703 383.933L282.137 387.07" stroke="#B58863" stroke-width="1.1999" stroke-linecap="round" stroke-linejoin="round"/>
<path d="M298.348 367.965L284.259 373.352" stroke="#B58863" stroke-width="1.1999" stroke-linecap="round" stroke-linejoin="round"/>
<path d="M295.81 358.461L285.084 362.073" stroke="#B58863" stroke-width="1.1999" stroke-linecap="round" stroke-linejoin="round"/>
<path d="M298.857 347.594L286.005 348.512" stroke="#B58863" stroke-width="1.1999" stroke-linecap="round" stroke-linejoin="round"/>
<path d="M284.321 336.633C288.732 334.229 293.753 333.171 298.76 333.591" stroke="#B58863" stroke-width="1.1999" stroke-linecap="round" stroke-linejoin="round"/>
<path d="M280.341 322.938C284.444 320.042 289.308 318.411 294.331 318.249" stroke="#B58863" stroke-width="1.1999" stroke-linecap="round" stroke-linejoin="round"/>
<path d="M277.882 311.077C281.249 307.353 285.636 304.697 290.501 303.439" stroke="#B58863" stroke-width="1.1999" stroke-linecap="round" stroke-linejoin="round"/>
<path d="M274.47 297.692C277.837 293.968 282.225 291.312 287.089 290.055" stroke="#B58863" stroke-width="1.1999" stroke-linecap="round" stroke-linejoin="round"/>
<path d="M272.743 280.339C277.764 280.547 282.735 279.279 287.04 276.692" stroke="#B58863" stroke-width="1.1999" stroke-linecap="round" stroke-linejoin="round"/>
<path d="M273.533 268.037C278.202 266.182 283.314 265.737 288.234 266.757" stroke="#B58863" stroke-width="1.1999" stroke-linecap="round" stroke-linejoin="round"/>
<path d="M276.605 251.321C280.588 254.38 285.383 256.203 290.394 256.566" stroke="#B58863" stroke-width="1.1999" stroke-linecap="round" stroke-linejoin="round"/>
<path d="M280.439 241.747H294.528" stroke="#B58863" stroke-width="1.1999" stroke-linecap="round" stroke-linejoin="round"/>
<path d="M290.466 227.489C294.835 230.236 299.983 231.482 305.127 231.038" stroke="#B58863" stroke-width="1.1999" stroke-linecap="round" stroke-linejoin="round"/>
<path d="M301.651 216.899C306.02 219.646 311.168 220.892 316.312 220.448" stroke="#B58863" stroke-width="1.1999" stroke-linecap="round" stroke-linejoin="round"/>
</svg>
