<svg width="645" height="645" viewBox="0 0 645 645" fill="none" xmlns="http://www.w3.org/2000/svg">
<rect width="645" height="645" fill="#EDDBCB"/>
<path fill-rule="evenodd" clip-rule="evenodd" d="M360.923 301.345C366.774 270.784 357.29 244.49 335.748 221.55C322.17 209.088 305.162 208.4 295.257 225.416C280.607 250.577 278.765 277.012 288.164 304.566C296.203 328.133 310.358 334.879 296.4 365.335C286.419 390.469 283.462 440 325.263 432.917C346.31 429.351 351.653 407.887 353.298 380.056C355.109 349.296 343.786 346.626 356.797 312.436C358.466 308.857 359.846 305.148 360.923 301.345V301.345Z" stroke="#B58863" stroke-width="2.4001" stroke-miterlimit="2.6131"/>
<path d="M305.257 233.453H326.875" stroke="#B58863" stroke-width="1.1999" stroke-miterlimit="2.6131"/>
<path d="M297.121 244.377H340.716" stroke="#B58863" stroke-width="1.1999" stroke-miterlimit="2.6131"/>
<path d="M294.84 255.302H342.505" stroke="#B58863" stroke-width="1.1999" stroke-miterlimit="2.6131"/>
<path d="M295.785 266.226H346.026" stroke="#B58863" stroke-width="1.1999" stroke-miterlimit="2.6131"/>
<path d="M295.698 277.15H348.394" stroke="#B58863" stroke-width="1.1999" stroke-miterlimit="2.6131"/>
<path d="M296.476 285.878H348.853" stroke="#B58863" stroke-width="1.1999" stroke-miterlimit="2.6131"/>
<path d="M296.756 296.741H345.479" stroke="#B58863" stroke-width="1.1999" stroke-miterlimit="2.6131"/>
<path d="M300.574 306.872H345.386" stroke="#B58863" stroke-width="1.1999" stroke-miterlimit="2.6131"/>
<path d="M305.257 318.345H344.415" stroke="#B58863" stroke-width="1.1999" stroke-miterlimit="2.6131"/>
<path d="M310.427 332.627H342.593" stroke="#B58863" stroke-width="1.1999" stroke-miterlimit="2.6131"/>
<path d="M313.463 344.588H340.043" stroke="#B58863" stroke-width="1.1999" stroke-miterlimit="2.6131"/>
<path d="M312.249 357.283H340.65" stroke="#B58863" stroke-width="1.1999" stroke-miterlimit="2.6131"/>
<path d="M305.257 369.001H342.837" stroke="#B58863" stroke-width="1.1999" stroke-miterlimit="2.6131"/>
<path d="M302.877 380.719H342.35" stroke="#B58863" stroke-width="1.1999" stroke-miterlimit="2.6131"/>
<path d="M300.812 392.436H342.65" stroke="#B58863" stroke-width="1.1999" stroke-miterlimit="2.6131"/>
<path d="M299.413 404.155H339.43" stroke="#B58863" stroke-width="1.1999" stroke-miterlimit="2.6131"/>
<path d="M305.257 415.872H334.812" stroke="#B58863" stroke-width="1.1999" stroke-miterlimit="2.6131"/>
</svg>
