<svg width="641" height="645" viewBox="0 0 641 645" fill="none" xmlns="http://www.w3.org/2000/svg">
<rect width="641" height="645" fill="#EDDBCB"/>
<g clip-path="url(#clip0_34_680)">
<path fill-rule="evenodd" clip-rule="evenodd" d="M366.624 302.189C358.674 318.981 348.837 334.819 337.301 349.397C331.817 356.15 324.857 361.564 316.952 365.224C309.048 368.885 300.408 370.695 291.695 370.516L283.373 369.144C264.864 365.502 261.645 372.923 247.836 378.858C241.341 381.65 219.698 389.149 218 396.89C219.246 398.414 218.046 397.961 221.006 399.203C222.662 399.742 224.378 400.076 226.117 400.198C229.372 400.573 232.82 400.709 236.167 400.888C243.144 401.262 249.97 401.605 257.003 401.76C271.909 402.089 286.015 400.983 300.638 401.063C332.385 401.237 335.879 391.087 353.45 364.513C363.095 349.928 381.64 315.923 397.879 321.666C404.746 324.094 404.269 329.511 404.257 337.57C404.24 349.136 403.459 399.481 404.766 403.829L412.371 404C412.361 380.361 411.57 355.698 412.385 332.591C412.989 315.448 428.151 296.514 422.894 272.963C420.963 264.313 416.62 253.426 411.94 248.356C399.519 234.902 386.448 265.331 378.834 279.099L369.506 296.509C367.6 299.718 367.148 299.038 366.624 302.189Z" fill="#776450"/>
<path fill-rule="evenodd" clip-rule="evenodd" d="M283.373 369.144L291.694 370.516C300.408 370.695 309.048 368.885 316.952 365.224C324.857 361.564 331.817 356.15 337.301 349.397C348.837 334.819 358.674 318.981 366.624 302.189C361.739 305.365 354.578 317.298 350.875 323.397C345.907 331.582 341.751 340.279 335.677 345.807C325.288 355.261 303.743 368.301 283.373 369.144Z" fill="#8D7864"/>
</g>
<defs>
<clipPath id="clip0_34_680">
<rect width="206" height="159" fill="white" transform="translate(218 245)"/>
</clipPath>
</defs>
</svg>
