<svg width="645" height="645" viewBox="0 0 645 645" fill="none" xmlns="http://www.w3.org/2000/svg">
<rect width="645" height="645" fill="#EDDBCB"/>
<path fill-rule="evenodd" clip-rule="evenodd" d="M283.517 304.153C276.781 272.461 286.318 245.283 308.592 221.636C322.334 209.062 339.548 208.368 349.574 225.536C364.401 250.924 366.265 277.598 356.752 305.4C348.617 329.179 334.289 335.987 348.416 366.718C358.518 392.077 361.511 442.054 319.203 434.908C297.901 431.311 292.493 409.653 290.829 381.572C288.846 347.982 302.43 347.589 283.517 304.153Z" stroke="#B58863" stroke-width="2.4001" stroke-miterlimit="2.6131"/>
<path d="M332.821 412.586H318.195V410.815H331.249V404.016H332.821V412.586ZM325.508 389.503C327.05 389.503 328.383 389.782 329.507 390.339C330.631 390.896 331.497 391.66 332.106 392.631C332.716 393.602 333.021 394.712 333.021 395.959C333.021 397.206 332.716 398.316 332.106 399.287C331.497 400.258 330.631 401.022 329.507 401.579C328.383 402.136 327.05 402.415 325.508 402.415C323.965 402.415 322.632 402.136 321.509 401.579C320.385 401.022 319.519 400.258 318.909 399.287C318.3 398.316 317.995 397.206 317.995 395.959C317.995 394.712 318.3 393.602 318.909 392.631C319.519 391.66 320.385 390.896 321.509 390.339C322.632 389.782 323.965 389.503 325.508 389.503ZM325.508 391.217C324.241 391.217 323.173 391.429 322.301 391.853C321.43 392.272 320.771 392.841 320.323 393.56C319.876 394.274 319.652 395.074 319.652 395.959C319.652 396.845 319.876 397.647 320.323 398.366C320.771 399.08 321.43 399.649 322.301 400.072C323.173 400.491 324.241 400.701 325.508 400.701C326.774 400.701 327.843 400.491 328.714 400.072C329.586 399.649 330.245 399.08 330.692 398.366C331.14 397.647 331.364 396.845 331.364 395.959C331.364 395.074 331.14 394.274 330.692 393.56C330.245 392.841 329.586 392.272 328.714 391.853C327.843 391.429 326.774 391.217 325.508 391.217ZM322.766 376.527C322.285 376.685 321.854 376.892 321.473 377.149C321.087 377.401 320.759 377.703 320.487 378.056C320.216 378.403 320.009 378.798 319.866 379.241C319.723 379.684 319.652 380.17 319.652 380.698C319.652 381.565 319.876 382.352 320.323 383.062C320.771 383.771 321.43 384.335 322.301 384.754C323.173 385.173 324.241 385.383 325.508 385.383C326.774 385.383 327.843 385.171 328.714 384.747C329.586 384.323 330.245 383.75 330.692 383.026C331.14 382.302 331.364 381.488 331.364 380.584C331.364 379.746 331.185 379.008 330.828 378.37C330.466 377.727 329.957 377.227 329.3 376.87C328.638 376.508 327.86 376.328 326.965 376.328L327.079 375.785V380.184H325.508V374.614H327.079C328.283 374.614 329.331 374.871 330.221 375.385C331.111 375.894 331.802 376.599 332.292 377.499C332.778 378.394 333.021 379.422 333.021 380.584C333.021 381.879 332.716 383.017 332.106 383.997C331.497 384.973 330.631 385.735 329.507 386.283C328.383 386.825 327.05 387.097 325.508 387.097C324.351 387.097 323.311 386.942 322.387 386.632C321.459 386.318 320.668 385.876 320.016 385.304C319.364 384.733 318.864 384.057 318.516 383.276C318.169 382.495 317.995 381.636 317.995 380.698C317.995 379.927 318.112 379.208 318.345 378.541C318.574 377.87 318.9 377.273 319.323 376.749C319.742 376.22 320.245 375.78 320.83 375.428C321.411 375.075 322.056 374.833 322.766 374.699V376.527ZM325.508 359.24C327.05 359.24 328.383 359.519 329.507 360.076C330.631 360.633 331.497 361.397 332.106 362.368C332.716 363.339 333.021 364.449 333.021 365.696C333.021 366.943 332.716 368.053 332.106 369.024C331.497 369.995 330.631 370.759 329.507 371.316C328.383 371.873 327.05 372.152 325.508 372.152C323.965 372.152 322.632 371.873 321.509 371.316C320.385 370.759 319.519 369.995 318.909 369.024C318.3 368.053 317.995 366.943 317.995 365.696C317.995 364.449 318.3 363.339 318.909 362.368C319.519 361.397 320.385 360.633 321.509 360.076C322.632 359.519 323.965 359.24 325.508 359.24ZM325.508 360.954C324.241 360.954 323.173 361.166 322.301 361.59C321.43 362.009 320.771 362.577 320.323 363.296C319.876 364.011 319.652 364.81 319.652 365.696C319.652 366.581 319.876 367.384 320.323 368.103C320.771 368.817 321.43 369.386 322.301 369.809C323.173 370.228 324.241 370.438 325.508 370.438C326.774 370.438 327.843 370.228 328.714 369.809C329.586 369.386 330.245 368.817 330.692 368.103C331.14 367.384 331.364 366.581 331.364 365.696C331.364 364.81 331.14 364.011 330.692 363.296C330.245 362.577 329.586 362.009 328.714 361.59C327.843 361.166 326.774 360.954 325.508 360.954Z" fill="#5E4435"/>
</svg>
