<svg width="643" height="643" viewBox="0 0 643 643" fill="none" xmlns="http://www.w3.org/2000/svg">
<rect width="643" height="643" fill="#EDDBCB"/>
<g clip-path="url(#clip0_34_697)">
<path fill-rule="evenodd" clip-rule="evenodd" d="M205.45 267.919C203.294 274.045 215.976 284.871 208.899 298.911C199.693 299.251 199.243 295.095 194.47 303.808C190.144 311.705 190.885 312.002 194.515 319.18C188.005 331.967 180.314 343.753 173.518 356.039C169.933 363.495 168.955 371.938 170.741 380.015C172.09 388.964 176.307 392.527 185.998 393.946C205.371 396.78 220.861 394.815 240.147 395.054C311.835 395.942 384.606 410.454 450.722 385.175C458.896 382.05 464.644 379.933 469.031 374.206C474.113 367.571 472.138 358.213 467.123 351.942C458.708 341.424 439.959 341.302 424.216 337.254C409.537 333.479 394.65 328.01 380.624 323.245C361.448 316.731 367.619 318.504 362.686 312.857C358.524 308.094 347.842 313.762 344.023 302.057C342.497 297.383 342.769 295.904 338.186 294.474C333.287 292.945 330.865 292.407 329.565 288.356C327.146 280.808 333.161 282.697 324.359 278.876C321.313 277.555 323.57 280.091 320.923 275.564C319.929 273.866 318.911 272.001 318.171 270.461C314.669 263.186 314.523 256.006 311.856 248.489C308.454 238.896 299.673 243.626 294.381 249.445C286.806 257.775 281.667 276.821 274.228 286.872C266.948 296.708 250.69 308.973 236.365 294.668C229.344 287.657 217.469 265.776 205.45 267.919Z" fill="#5E4E48"/>
<path fill-rule="evenodd" clip-rule="evenodd" d="M210.872 273.418C215.016 283.839 215.785 284.803 214.021 297.712C214.895 298.352 224.595 302.753 226.499 303.546C243.958 310.825 240.962 308.968 233.484 323.271C222.864 343.585 226.831 334.964 213.243 327.517C208.191 325.121 202.875 323.323 197.405 322.16C193.603 329.25 185.122 341.441 186.439 344.623C190.511 345.996 214.81 347.027 222.617 348.439C234.295 350.552 243.341 353.689 254.487 356.593C288.927 365.564 362.774 372.604 400.175 370.384C411.503 369.712 426.13 369.04 437.433 367.945C447.565 366.963 460.952 361.401 463.59 354.308C459.01 348.182 453.259 347.553 443.966 345.787C421.234 341.284 398.933 334.828 377.312 326.492C373.968 329.95 375.008 332.85 369.673 331.259L371.36 323.948L365.72 322.367C366.175 328.069 368.882 338.348 367.665 343.171C359.526 342.723 364.794 325.003 359.281 319.135C352.138 315.677 351.498 323.914 347.987 320.737C346.383 318.948 346.261 320.638 348.043 317.783C348.987 316.619 350.036 315.545 351.176 314.573C348.661 312.864 346.378 311.248 344.152 309.888C343.089 315.439 343.701 329.044 341.704 332.724C333.743 332.245 339.972 321.575 338.757 304.537C335.718 302.757 336.394 301.401 332.161 302.701C328.196 303.917 327.966 305.488 324.071 304.543C323.987 299.296 326.593 298.982 331.228 298.001L327.056 292.883C319.202 301.778 321.443 319.092 313.444 319.966C309.732 309.587 335.774 274.448 314.421 288.979C299.567 299.088 299.238 307.495 292.317 306.045C290.573 300.889 295.929 297.213 302.732 290.967C307.606 286.966 312.782 283.349 318.215 280.148C316.749 274.996 313.484 270.937 311.521 264.455C310.355 258.559 308.716 252.765 306.621 247.131C288.737 247.614 290.977 282.94 266.613 299.759C236.966 320.226 226.468 281.593 210.872 273.418Z" fill="#EAD9CA"/>
<path fill-rule="evenodd" clip-rule="evenodd" d="M238.137 390.751L267.772 391.823C265.412 374.622 271.083 373.149 275.278 365.221C256.64 361.912 244.824 353.1 237.335 373.964C235.658 378.73 235.538 383.904 236.993 388.743C238.165 391.624 237.325 389.589 238.137 390.751Z" fill="#9F8475"/>
<path fill-rule="evenodd" clip-rule="evenodd" d="M211.867 391.773C209.34 372.331 212.529 368.517 219.454 354.308C216.727 352.852 213.775 351.863 210.721 351.38C209.398 350.869 207.95 350.773 206.571 351.105C205.192 351.436 203.947 352.179 203.001 353.236C198.666 356.94 195.318 361.661 193.256 366.975C190.604 373.556 190.217 380.832 192.157 387.657C194.043 392.361 203.692 391.844 211.867 391.773Z" fill="#9F8475"/>
<path fill-rule="evenodd" clip-rule="evenodd" d="M272.268 391.389C277.659 393.685 293.795 392.972 300.891 393.382C300.688 389.043 300.891 384.696 301.496 380.395C302.159 376.696 304.535 372.813 303.97 369.67C293.329 368.218 282.659 364.983 278.811 368.49C275.589 371.243 273.251 374.882 272.087 378.955C270.924 383.027 270.987 387.352 272.268 391.389V391.389Z" fill="#9F8475"/>
<path fill-rule="evenodd" clip-rule="evenodd" d="M225.598 331.037C227.89 324.418 231.053 318.134 235.004 312.349C231.784 308.795 224.357 307.268 219.423 304.734C215.509 302.723 205.387 302.505 199.819 302.351C198.398 306.335 189.907 315.221 204.229 319.946C208.172 320.937 211.998 322.344 215.643 324.144C220.16 326.575 221.618 329.189 225.598 331.037Z" fill="#9F8475"/>
<path fill-rule="evenodd" clip-rule="evenodd" d="M216.711 391.7L232.898 390.888C232.818 383.205 230.285 381.224 233.637 372.214C236.272 365.127 239.068 363.668 241.816 359.187L223.957 355.155C218.375 362.958 210.741 380.264 216.711 391.7Z" fill="#9F8475"/>
<path fill-rule="evenodd" clip-rule="evenodd" d="M188.336 389.834C186.834 380.613 185.682 375.548 188.935 366.619C192.366 357.2 197.751 353.922 199.853 349.832C193.8 349.41 187.983 350.55 183.821 347.939C177.859 354.114 174.449 362.309 174.271 370.887C174.366 383.755 175.388 389.199 188.336 389.834Z" fill="#9F8475"/>
<path fill-rule="evenodd" clip-rule="evenodd" d="M357.906 396.26C365.333 396.527 377.369 397.163 384.177 394.845C388.092 385.659 385.001 380.959 379.788 375.775L354.317 374.808C358.34 383.251 360.607 384.7 357.906 396.26Z" fill="#9F8475"/>
<path fill-rule="evenodd" clip-rule="evenodd" d="M327.363 394.649C330.931 374.55 331.145 369.714 309.479 370.799C305.733 376.901 304.179 384.096 305.072 391.199C305.997 395.322 320.005 394.525 327.363 394.649Z" fill="#9F8475"/>
<path fill-rule="evenodd" clip-rule="evenodd" d="M331.908 394.981C338.331 395.232 348.343 397.453 353.608 395.291C354.682 392.305 354.995 389.099 354.519 385.962C354.044 382.825 352.794 379.856 350.883 377.322C347.928 372.707 343.14 373.426 332.078 372.949C332.606 380.286 332.549 387.653 331.908 394.981V394.981Z" fill="#9F8475"/>
<path fill-rule="evenodd" clip-rule="evenodd" d="M404.069 374.983C406.962 382.147 409.456 381.123 408.369 391.951L435.671 386.041C436.582 378.988 434.335 377.91 431.615 373.813C422.417 373.527 413.21 373.918 404.069 374.983V374.983Z" fill="#9F8475"/>
<path fill-rule="evenodd" clip-rule="evenodd" d="M437.121 373.425L440.804 384.157C447.143 382.373 453.301 379.998 459.196 377.063C466.191 373.555 468.7 369.432 467.093 359.617C465.377 360.027 466.314 359.902 464.87 361.244C461.295 365.024 456.996 368.05 452.23 370.143C447.464 372.235 442.326 373.351 437.121 373.425V373.425Z" fill="#9F8475"/>
<path fill-rule="evenodd" clip-rule="evenodd" d="M389.154 394.873C401.606 393.884 412.124 393.994 398.779 375.502L385.921 375.618C389.297 383.863 391.101 383.296 389.154 394.873Z" fill="#9F8475"/>
</g>
<defs>
<clipPath id="clip0_34_697">
<rect width="302" height="157" fill="white" transform="translate(170 243)"/>
</clipPath>
</defs>
</svg>
