<svg width="320" height="320" viewBox="0 0 320 320" fill="none" xmlns="http://www.w3.org/2000/svg">
<rect width="320" height="320" fill="#F2F2EA"/>
<g clip-path="url(#clip0_1496_508)">
<path fill-rule="evenodd" clip-rule="evenodd" d="M68.0627 320C67.2653 314.409 66.4844 308.817 65.6645 303.23C63.4171 287.906 60.9752 272.616 57.8537 257.44C56.232 249.556 54.4172 241.717 52.4631 233.909C52.337 233.401 52.23 233.043 51.5756 233.081C45.8306 233.412 43.5747 228.964 43.0538 224.805C42.7503 222.38 43.7763 220.389 45.0044 218.447C45.8821 217.078 46.922 215.82 48.1016 214.699C48.3391 214.494 48.5158 214.227 48.6125 213.928C48.7092 213.629 48.7222 213.31 48.6501 213.004C47.5489 205.782 46.0428 198.631 44.8592 191.426C43.4838 183.712 43.4383 175.82 44.7245 168.091C45.5185 163.607 47.3027 159.356 49.9475 155.648C50.5029 154.877 51.1753 154.198 51.9404 153.634C52.229 153.436 52.4443 153.149 52.553 152.816C52.6617 152.484 52.6578 152.125 52.5418 151.794C51.7058 147.577 50.4501 143.464 49.5284 139.269C48.5358 134.536 47.932 129.729 47.7229 124.897C47.6264 123.079 47.5628 121.255 47.6043 119.423C47.6956 115.399 49.5602 112.287 52.4186 109.711C57.5924 105.116 63.997 102.132 70.8452 101.126C77.188 100.081 83.6042 99.5988 90.0171 99.1378C96.2608 98.6955 102.465 97.8121 108.584 96.4944C110.732 96.0154 112.921 95.7485 115.12 95.6976C115.719 95.7383 116.315 95.5878 116.823 95.268C117.331 94.9481 117.724 94.4754 117.945 93.9179C118.22 93.4174 118.61 92.9884 119.081 92.6657C119.553 92.343 120.094 92.1355 120.66 92.0601C128.494 90.2572 136.451 91.3108 144.345 90.9705C154.053 90.554 163.769 90.3177 173.483 90.0358C181.074 89.7433 188.663 90.6861 195.952 92.8272C198.809 93.6902 201.792 93.9519 204.702 94.5636C207.147 94.9704 209.376 96.2093 211.011 98.0703C211.178 98.2147 211.375 98.3203 211.587 98.3795C211.8 98.4388 212.023 98.4501 212.24 98.4128C213.831 98.4203 215.427 98.4827 217.014 98.399C218.843 98.3166 220.672 98.5463 222.424 99.0783C227.301 100.503 232.345 100.752 237.354 101.297C241.518 101.749 245.719 102.035 249.787 103.146C251.384 103.594 252.924 104.224 254.377 105.024C254.856 105.278 255.265 105.646 255.568 106.096C255.871 106.545 256.059 107.062 256.116 107.601C256.79 111.844 257.202 116.125 257.348 120.419C257.576 125.794 258.182 131.143 258.539 136.508C258.98 143.091 259.116 149.688 259.146 156.289C259.174 162.108 259.313 167.927 259.375 173.747C259.383 174.394 259.545 174.673 260.233 174.612C260.875 174.52 261.53 174.6 262.13 174.846C262.527 175.034 262.682 174.753 262.912 174.584C263.36 174.217 263.919 174.01 264.498 173.996C265.078 173.982 265.646 174.161 266.112 174.506C267.766 175.584 269.075 177.113 269.885 178.913C271.949 183.053 272.618 187.513 273 192.055C273.482 197.789 273.702 203.534 273.93 209.281C273.952 209.718 274.086 210.142 274.317 210.514C275.102 211.744 275.675 213.096 276.013 214.515C276.319 216.045 276.212 217.494 274.8 218.525C274.653 218.636 274.539 218.785 274.47 218.955C274.402 219.126 274.381 219.312 274.41 219.494C274.759 230.858 275.008 242.226 274.901 253.597C274.867 257.217 274.728 260.836 274.624 264.454C274.4 272.279 275.132 280.076 275.277 287.889C275.357 292.151 275.393 296.415 275.611 300.676C275.873 305.778 276.192 310.874 276.729 315.956C276.872 317.298 276.913 318.651 277 320H275.78C275.615 319.912 275.477 319.779 275.383 319.617C275.289 319.455 275.242 319.27 275.248 319.082C275.025 315.743 274.681 312.412 274.383 309.079C273.974 304.496 274.013 299.894 273.627 295.312C273.579 294.738 273.588 294.163 273.594 293.587C273.653 287.735 273.484 281.89 273.005 276.057C272.988 275.854 272.985 275.651 272.985 275.447C272.981 269.458 272.815 263.462 273.03 257.481C273.267 250.815 273.192 244.153 273.151 237.492C273.117 232.05 272.791 226.612 272.771 221.168C272.767 220.332 272.62 220.239 271.885 220.669C269.714 221.937 267.327 222.793 264.844 223.192C260.171 224.052 255.343 223.297 251.156 221.05C249.948 220.398 249.928 220.394 249.497 221.715C247.642 227.409 245.542 233.021 243.732 238.731C243.107 240.702 242.627 242.708 242.032 244.684C241.991 244.779 241.973 244.884 241.982 244.988C241.99 245.092 242.023 245.192 242.08 245.28C243.594 244.746 245.077 244.127 246.522 243.428C247.981 242.71 249.492 242.103 251.043 241.611C253.876 240.737 254.912 241.412 256.39 242.98C258.596 245.32 258.96 248.05 258.831 251.061C258.675 254.708 256.375 256.68 253.528 258.291C249.494 260.573 245.128 262.038 240.738 263.442C239.128 263.957 239.021 264.054 238.976 265.714C238.848 270.481 238.482 275.233 238.112 279.985C238.031 281.027 238.057 281.028 239.084 280.704C241.128 279.979 243.262 279.543 245.426 279.408C247.68 279.339 249.128 280.431 250.164 282.267C251.458 284.737 252.139 287.481 252.15 290.268C252.184 291.079 252.143 291.893 252.158 292.704C252.233 296.443 250.348 298.902 247.052 300.367C244.432 301.532 241.59 301.925 238.817 302.543C236.998 302.949 235.198 303.406 233.419 303.969C232.979 304.08 232.582 304.32 232.279 304.658C231.976 304.996 231.78 305.416 231.717 305.866C230.791 310.063 229.891 314.264 229.171 318.501C229.159 319.047 228.968 319.573 228.627 320H227.205C226.851 319.619 226.981 319.18 227.05 318.748C227.716 314.606 228.553 310.498 229.492 306.411C229.761 305.238 229.749 305.229 228.576 305.569C225.846 306.364 223.237 307.517 220.494 308.274C213.602 310.176 207.02 312.984 200.223 315.163C199.712 315.354 199.188 315.505 198.654 315.617C200.477 315.964 202.363 316.404 204.25 316.834C208.245 317.745 212.31 318.283 216.315 319.138C216.889 319.26 217.637 319.19 217.856 320H131.679C131.486 319.919 131.279 319.877 131.069 319.877C130.86 319.877 130.653 319.919 130.46 320H129.85C129.249 319.77 128.605 319.677 127.963 319.729C124.354 319.48 120.796 318.792 117.198 318.461C114.788 318.116 112.346 318.057 109.922 318.284C108.81 318.388 107.692 318.406 106.578 318.338C103.436 318.301 100.292 318.501 97.1525 318.254C96.5953 318.211 96.4033 318.405 96.4853 318.939C96.5407 319.117 96.5541 319.305 96.5244 319.489C96.4947 319.674 96.4228 319.848 96.3143 320H94.8909C94.6821 319.822 94.5369 319.582 94.4774 319.314C94.318 318.057 93.4622 317.758 92.3621 317.566C88.8185 316.942 85.4347 315.7 81.9832 314.724C77.8754 313.562 75.9525 311.476 75.4866 306.24C75.3276 304.46 75.2067 302.665 75.1334 300.886C75.0136 297.938 76.2312 295.786 79.4028 295.776C80.2704 295.817 81.1361 295.663 81.9369 295.327C82.7376 294.991 83.4532 294.481 84.0315 293.833C85.3416 292.427 86.924 291.291 88.1757 289.809C88.4216 289.555 88.6022 289.246 88.702 288.907C88.8017 288.568 88.8177 288.21 88.7486 287.864C88.5248 286.666 88.3081 285.469 88.075 284.272C88.0673 284.105 88.024 283.941 87.9478 283.791C87.8716 283.642 87.7644 283.51 87.6333 283.405C87.5022 283.301 87.3502 283.225 87.1875 283.183C87.0248 283.142 86.8551 283.136 86.6898 283.165C84.3551 283.181 82.0215 283.057 79.7018 282.792C78.3846 282.662 77.0939 282.338 75.8716 281.831C72.785 280.59 69.9304 278.837 67.4284 276.646C66.3055 275.629 65.4089 274.389 64.7967 273.004C64.1846 271.619 63.8706 270.121 63.8751 268.607C63.9077 266.983 63.7895 265.36 63.5219 263.758C63.4934 263.627 63.5136 263.793 63.5092 263.658C63.3599 259.507 65.1279 257.95 68.8275 258.693C68.9291 258.703 69.0291 258.725 69.1257 258.758C71.9726 260.092 75.1195 260.076 78.113 260.748C79.5648 261.072 80.9565 261.621 82.693 261.988C82.0386 260.746 81.6015 259.629 81.0118 258.601C78.5796 254.367 76.8516 249.789 74.5997 245.47C71.3483 239.063 68.9346 232.265 67.4179 225.243C66.784 226.348 66.0666 227.404 65.272 228.4C63.3299 230.743 60.6112 232.313 57.6097 232.823C56.7749 232.966 55.9446 233.13 55.1 233.208C54.1327 233.297 54.0893 233.372 54.3269 234.366C55.027 237.296 55.7694 240.215 56.4598 243.146C59.8137 257.384 62.4689 271.756 64.7851 286.194C66.1831 294.914 67.4508 303.654 68.6991 312.397C69.0101 314.573 69.2997 316.753 69.6148 318.93C69.6754 319.106 69.6954 319.294 69.6732 319.479C69.651 319.665 69.5872 319.843 69.4865 320H68.0627Z" fill="#3C1F1B"/>
<path fill-rule="evenodd" clip-rule="evenodd" d="M228.627 320C229.187 315.841 230.049 311.74 230.973 307.65C231.033 307.387 231.096 307.124 231.155 306.86C231.779 304.037 231.763 303.976 234.615 303.233C238.084 302.331 241.595 301.594 245.063 300.691C247.184 300.139 249.134 299.259 250.428 297.306C251.426 295.929 251.937 294.259 251.878 292.56C251.723 289.347 251.653 286.15 250.271 283.13C249.684 282.034 248.908 281.05 247.979 280.223C247.532 279.762 246.597 279.794 245.855 279.773C243.302 279.698 240.916 280.464 238.534 281.243C238.253 281.334 237.973 281.426 237.598 281.547C237.752 279.7 237.927 277.958 238.036 276.211C238.245 272.835 238.445 269.459 238.595 266.079C238.698 263.758 238.662 263.769 240.86 263.034C244.805 261.714 248.781 260.478 252.47 258.488C253.76 257.815 254.976 257.008 256.098 256.081C256.781 255.548 257.34 254.873 257.736 254.102C258.131 253.331 258.355 252.484 258.39 251.618C258.426 250.706 258.449 249.793 258.478 248.882C258.564 246.093 257.099 244.087 255.241 242.277C254.208 241.271 252.939 241.408 251.707 241.772C248.845 242.62 246.21 244.041 243.45 245.149C242.799 245.41 242.139 245.648 241.282 245.972C242.004 243.452 242.595 241.105 243.351 238.812C245.322 232.839 247.379 226.893 249.363 220.925C249.636 220.108 249.832 219.857 250.715 220.355C257.55 224.213 264.451 224.087 271.356 220.524C273.141 219.602 273.105 219.567 273.147 221.55C273.377 232.139 273.689 242.729 273.513 253.322C273.406 259.717 273.177 266.113 273.338 272.506C273.528 280.08 273.922 287.647 274.048 295.227C274.142 300.902 274.416 306.586 275.01 312.241C275.282 314.826 275.331 317.433 275.78 320L228.627 320Z" fill="#CBBEB5"/>
<path fill-rule="evenodd" clip-rule="evenodd" d="M69.4853 320C68.9539 316.456 68.3724 312.92 67.8995 309.368C67.0115 302.699 65.9765 296.05 64.9509 289.402C63.5402 280.245 61.9459 271.119 60.168 262.025C58.3416 252.698 56.2858 243.422 53.9355 234.214C53.6204 232.979 53.6088 232.966 54.8287 232.894C60.4703 232.562 64.6654 230.008 67.193 224.879C67.2641 224.736 67.3606 224.606 67.575 224.258C67.9451 225.887 68.2112 227.326 68.6026 228.732C70.1949 234.573 72.3545 240.245 75.0506 245.666C77.7997 251.133 80.3169 256.718 83.1746 262.135C83.1954 262.212 83.2044 262.291 83.2011 262.371C82.4255 262.339 81.6605 262.178 80.9384 261.893C78.46 261.088 75.8979 260.567 73.3016 260.34C72.355 260.269 71.4309 260.017 70.5798 259.597C69.7525 259.201 68.8607 258.957 67.947 258.877C65.3984 258.585 63.8676 259.632 63.9121 262.193C63.8631 265.129 64.0758 268.064 64.5475 270.963C65.0346 273.491 66.4904 275.73 68.6048 277.202C71.7689 279.48 74.9956 281.686 78.9676 282.335C81.6462 282.749 84.3601 282.889 87.0672 282.754C87.8744 282.72 88.2171 282.956 88.3399 283.751C88.5681 285.219 88.8723 286.676 89.1619 288.135C89.22 288.427 89.206 288.729 89.1212 289.014C89.0364 289.3 88.8833 289.56 88.6751 289.773C86.8828 292.006 84.4389 293.555 82.571 295.7C82.4444 295.812 82.295 295.896 82.1329 295.945C81.9709 295.995 81.8 296.009 81.6321 295.986C80.7523 295.988 79.8732 296.036 78.9986 296.132C76.7104 296.484 75.4535 297.396 75.5437 299.643C75.6784 303.019 75.3622 306.48 76.5548 309.774C76.9337 310.87 77.5842 311.852 78.4455 312.628C79.3069 313.405 80.351 313.951 81.4806 314.215C85.5229 315.32 89.4549 316.848 93.6316 317.441C93.8686 317.438 94.0973 317.528 94.2682 317.692C94.4391 317.856 94.5386 318.081 94.545 318.318C94.6108 318.884 94.7721 319.439 94.8919 320L69.4853 320Z" fill="#CBBEB5"/>
<path fill-rule="evenodd" clip-rule="evenodd" d="M217.856 320C216.604 319.262 215.164 319.222 213.796 318.99C208.699 318.122 203.635 317.096 198.604 315.913C198.376 315.86 198.152 315.789 197.645 315.647C198.877 315.244 199.858 314.898 200.855 314.604C205.074 313.356 209.061 311.436 213.26 310.174C218.666 308.55 223.993 306.701 229.358 304.958C230.328 304.642 230.18 305.099 230.03 305.696C228.888 310.252 228.076 314.875 227.246 319.495C227.224 319.663 227.21 319.831 227.205 320H217.856Z" fill="#CBBEB5"/>
<path fill-rule="evenodd" clip-rule="evenodd" d="M96.3142 320C96.3101 319.271 95.5932 318.393 96.0789 317.916C96.5298 317.473 97.4866 317.928 98.2215 317.962C102.208 318.149 106.192 318.006 110.173 317.854C114.056 317.775 117.938 318.041 121.774 318.649C124.147 318.982 126.523 319.283 128.896 319.612C129.237 319.659 129.663 319.549 129.849 320L96.3142 320Z" fill="#E5E4E1"/>
<path fill-rule="evenodd" clip-rule="evenodd" d="M130.459 320C130.866 319.597 131.272 319.802 131.679 320H130.459Z" fill="#A79E8D"/>
<path fill-rule="evenodd" clip-rule="evenodd" d="M258.083 163.434C258.083 169.524 258.138 175.615 258.065 181.705C258.009 186.323 257.1 190.84 256.213 195.357C255.891 196.947 255.418 198.503 254.802 200.004C253.184 204.028 252.207 208.257 250.798 212.349C247.599 221.643 244.532 230.981 241.44 240.312C240.855 242.075 240.385 243.878 239.92 245.678C239.865 245.936 239.738 246.174 239.553 246.363C239.369 246.552 239.134 246.685 238.877 246.747C234.254 248.402 229.497 249.614 224.766 250.881C215.417 253.383 206.247 256.462 196.979 259.215C185.337 262.675 173.914 266.796 162.346 270.478C160.805 270.969 159.406 270.6 157.959 270.41C153.164 269.779 148.371 269.128 143.589 268.407C138.996 267.768 134.368 267.413 129.731 267.346C127.093 267.246 124.464 266.97 121.862 266.521C117.575 265.89 113.253 265.527 108.92 265.434C105.058 265.298 101.23 264.928 97.3949 264.506C93.5595 264.084 89.7473 263.543 85.9414 262.926C85.6923 262.903 85.4533 262.817 85.2472 262.675C85.041 262.533 84.8748 262.341 84.7642 262.117C82.0117 257.067 79.6113 251.842 77.0518 246.695C74.1584 241.033 71.8214 235.103 70.0736 228.99C69.4827 226.838 69.0161 224.654 68.5132 222.481C68.4601 222.217 68.4688 221.945 68.5387 221.685C69.0138 220.064 69.1243 218.359 68.8622 216.69C68.6001 215.022 67.972 213.432 67.0228 212.035C62.9318 206.284 61.5829 199.685 60.1509 193.037C58.3379 184.627 57.1903 176.12 56.0831 167.6C55.4084 162.403 54.7147 157.209 54.0018 152.017C53.5086 149.157 52.8315 146.331 51.9749 143.558C50.8356 139.346 50.0333 135.049 49.5756 130.71C49.1791 127.079 48.9752 123.431 48.9649 119.779C48.9585 115.998 50.6947 113.084 53.3878 110.675C58.339 106.246 64.2377 103.75 70.7056 102.511C74.834 101.722 79.0429 101.585 83.2027 101.059C87.171 100.558 91.1696 100.522 95.1386 100.058C100.113 99.4951 105.053 98.6683 109.94 97.5809C112.129 97.0847 114.383 97.1771 116.577 96.7606C117.118 96.6577 117.206 96.9617 117.192 97.4036C117.162 98.418 117.126 99.4335 117.135 100.449C117.207 108.061 117.587 115.67 117.425 123.285C117.321 128.12 117.017 132.948 116.756 137.778C116.468 143.113 115.934 148.439 116.046 153.793C116.113 155.383 116.325 156.963 116.681 158.514C116.754 159.202 117.095 159.835 117.63 160.275C118.166 160.714 118.853 160.926 119.543 160.864C125.841 160.884 132.142 160.836 138.431 160.44C143.667 160.11 148.903 159.773 154.131 159.355C157.267 159.105 160.391 158.715 163.515 158.351C167.796 157.93 172.1 157.793 176.399 157.94C184.155 158.062 191.909 158.207 199.664 157.935C201.56 157.869 203.456 157.94 205.351 158.021C206.187 158.087 207.019 157.853 207.699 157.363C208.378 156.872 208.861 156.155 209.06 155.342C209.844 152.887 210.272 150.334 210.331 147.758C210.61 137.272 211.546 126.816 211.744 116.33C211.839 111.293 212.116 106.247 211.55 101.216C211.373 99.6623 211.382 99.6784 212.982 99.7229C214.573 99.7663 216.163 99.7704 217.756 99.6982C219.887 99.6017 221.889 100.348 223.917 100.854C227.249 101.61 230.635 102.106 234.044 102.338C238.835 102.695 243.603 103.309 248.328 104.177C250.046 104.566 251.709 105.167 253.279 105.965C253.723 106.169 254.104 106.488 254.382 106.89C254.66 107.291 254.824 107.76 254.857 108.247C255.476 112.225 255.848 116.236 255.97 120.26C256.189 127.091 257.079 133.873 257.406 140.701C257.759 148.042 257.65 155.384 257.82 162.723C257.826 162.96 257.821 163.196 257.821 163.434H258.083Z" fill="#F6EFE4"/>
<path fill-rule="evenodd" clip-rule="evenodd" d="M210.513 109.686C210.514 116.148 210.267 122.606 209.872 129.051C209.618 133.169 209.456 137.285 209.263 141.404C209.067 145.576 209.197 149.795 208.068 153.892C207.373 156.413 206.695 156.845 204.084 156.61C202.429 156.487 200.769 156.469 199.112 156.556C191.869 156.83 184.627 156.761 177.385 156.559C171.566 156.368 165.741 156.648 159.967 157.397C155.509 157.997 151.015 158.25 146.528 158.56C140.723 158.961 134.916 159.318 129.099 159.463C125.951 159.542 122.801 159.522 119.653 159.522C119.258 159.558 118.865 159.438 118.559 159.187C118.252 158.937 118.056 158.576 118.013 158.183C117.662 156.564 117.467 154.916 117.43 153.26C117.365 147.334 117.894 141.435 118.276 135.533C118.908 125.763 118.772 115.988 118.592 106.216C118.539 103.341 118.522 100.468 118.482 97.5936C118.48 96.8496 118.565 96.1079 118.736 95.3839C118.842 94.8826 119.097 94.425 119.469 94.0713C119.84 93.7176 120.309 93.4842 120.815 93.4019C124.757 92.5839 128.781 92.2281 132.806 92.3419C139.273 92.3876 145.745 92.4373 152.204 92.0843C158.458 91.7433 164.723 91.8787 170.973 91.4951C176.614 91.1359 182.279 91.4171 187.857 92.3333C190.322 92.7655 192.76 93.3399 195.159 94.0536C197.975 94.7801 200.831 95.3456 203.711 95.7474C205.248 96.0102 206.729 96.5328 208.091 97.2927C208.578 97.6029 208.994 98.0131 209.311 98.496C209.628 98.9789 209.839 99.5235 209.93 100.094C210.313 101.776 210.504 103.495 210.501 105.22C210.556 106.707 210.513 108.197 210.513 109.686Z" fill="#8B735A"/>
<path fill-rule="evenodd" clip-rule="evenodd" d="M120.059 303.537C121.374 303.296 122.689 303.055 124.004 302.814C127.847 302.11 131.494 300.737 135.211 299.592C144.786 296.641 154.12 293 163.594 289.762C164.61 289.493 165.682 289.514 166.687 289.823C170.758 290.669 174.819 291.563 178.885 292.43C182.04 293.102 185.258 293.165 188.459 293.405C192.359 293.697 196.259 293.987 200.204 294.41C198.933 294.799 197.677 295.249 196.389 295.569C183.023 298.89 170.262 303.995 157.397 308.788C156.201 309.233 155.115 308.918 154.012 308.742C148.774 307.908 143.566 306.885 138.293 306.274C135.038 305.896 131.771 305.601 128.524 305.16C125.691 304.774 122.879 304.234 120.058 303.764C120.059 303.688 120.059 303.612 120.059 303.537Z" fill="#A39892"/>
<path fill-rule="evenodd" clip-rule="evenodd" d="M52.9762 154.522C53.2699 156.887 53.5278 159.155 53.8365 161.418C54.8389 168.749 55.6546 176.113 56.9317 183.396C58.1737 190.477 59.3501 197.596 61.5945 204.465C61.7303 204.881 61.724 205.111 61.2678 205.334C57.4979 207.165 53.7687 209.064 50.8209 212.158C50.7203 212.294 50.5937 212.408 50.4484 212.495C50.3031 212.581 50.1419 212.638 49.9745 212.661C49.6721 210.806 49.3933 208.948 49.0633 207.098C48.074 201.543 46.9495 196.008 46.0923 190.431C45.1103 184.143 44.9545 177.753 45.629 171.424C46.1635 166.225 47.9109 161.224 50.7307 156.822C51.2941 155.895 52.0621 155.108 52.9762 154.522Z" fill="#CBBEB5"/>
<path fill-rule="evenodd" clip-rule="evenodd" d="M237.33 264.34C237.045 270.043 236.897 275.685 236.199 281.292C236.112 281.992 235.983 282.356 235.145 282.089C228.049 279.826 220.658 279.095 213.347 277.957C209.149 277.303 204.948 276.66 200.527 275.978C212.758 271.569 224.853 267.46 237.33 264.34Z" fill="#CBBEB5"/>
<path fill-rule="evenodd" clip-rule="evenodd" d="M272.484 207.696C270.856 206.374 269.409 205.095 267.556 204.439C265.315 203.648 262.952 203.376 260.656 202.819C259.476 202.511 258.264 202.346 257.044 202.325C256.46 202.324 256.183 202.124 256.337 201.459C256.673 199.492 257.34 197.596 258.308 195.851C260.478 192.394 261.184 188.439 261.936 184.527C262.382 182.207 262.603 179.845 262.951 177.506C263.022 177.038 263.156 176.582 263.35 176.151C263.412 175.965 263.516 175.797 263.656 175.66C263.795 175.523 263.965 175.422 264.152 175.364C264.339 175.306 264.537 175.293 264.729 175.327C264.922 175.361 265.104 175.44 265.259 175.558C266.517 176.308 267.541 177.392 268.218 178.69C269.851 181.702 270.881 185.003 271.25 188.409C272.04 194.615 272.203 200.872 272.517 207.114C272.525 207.247 272.504 207.379 272.484 207.696Z" fill="#CBBEB5"/>
<path fill-rule="evenodd" clip-rule="evenodd" d="M119.352 282.396C117.209 282.956 115.03 283.408 112.931 284.101C109.288 285.303 105.488 285.344 101.752 285.877C98.1523 286.391 94.4927 286.662 91.0625 288.029C90.67 288.185 90.5121 288.081 90.4387 287.683C90.1798 286.254 89.916 284.825 89.6275 283.403C89.5137 282.848 89.7259 282.701 90.2509 282.676C94.5743 282.474 98.8988 282.284 103.218 282.021C107.75 281.746 112.277 281.903 116.807 282.038C117.647 282.064 118.487 282.152 119.327 282.21C119.335 282.273 119.344 282.334 119.352 282.396Z" fill="#CBBEB5"/>
<path fill-rule="evenodd" clip-rule="evenodd" d="M259.303 184.724C259.323 182.16 259.401 179.594 259.342 177.03C259.315 175.786 260.082 176.023 260.804 175.997C261.749 175.963 261.414 176.544 261.419 177.077C261.447 180.179 260.226 182.999 259.491 185.93C258.931 185.605 259.297 185.137 259.303 184.724Z" fill="#ADA19A"/>
<path fill-rule="evenodd" clip-rule="evenodd" d="M259.303 184.724C259.413 185.119 259.172 185.568 259.491 185.93C259.43 186.208 259.369 186.485 259.309 186.763C259.123 186.813 259.028 186.772 259.101 186.56C259.163 185.948 258.979 185.308 259.303 184.724Z" fill="#8E827C"/>
<path fill-rule="evenodd" clip-rule="evenodd" d="M259.101 186.56C259.17 186.627 259.238 186.695 259.309 186.763C259.329 187.142 259.212 187.516 258.98 187.817C258.904 187.611 258.875 187.392 258.896 187.174C258.917 186.957 258.987 186.746 259.101 186.56Z" fill="#766B64"/>
<path fill-rule="evenodd" clip-rule="evenodd" d="M176.097 123.468C177.079 123.469 178.061 123.467 179.043 123.47C179.429 123.47 179.836 123.472 179.819 124.018C179.759 125.971 180.025 127.938 179.501 129.874C179.039 131.533 178.018 132.983 176.61 133.978C175.202 134.973 173.494 135.452 171.774 135.335C167.609 134.889 164.966 132.164 164.774 128.248C164.654 125.777 164.748 123.314 164.764 120.847C164.792 116.779 168.703 113.074 173.648 113.953C176.711 114.499 178.577 116.425 179.488 119.362C179.707 120.065 179.458 120.204 178.844 120.142C178.642 120.121 178.438 120.121 178.235 120.142C177.704 120.276 177.142 120.215 176.653 119.97C176.163 119.725 175.778 119.312 175.568 118.806C174.785 117.278 172.898 116.762 171.121 117.21C170.31 117.414 169.582 117.864 169.037 118.498C168.492 119.133 168.158 119.92 168.079 120.752C167.765 123.307 167.767 125.89 168.086 128.444C168.153 129 168.331 129.537 168.609 130.023C168.887 130.509 169.259 130.935 169.705 131.275C170.15 131.616 170.658 131.863 171.201 132.004C171.743 132.145 172.308 132.176 172.863 132.096C174.014 131.906 175.046 131.278 175.743 130.343C176.441 129.408 176.748 128.24 176.602 127.084C176.534 126.557 176.245 126.505 175.842 126.506C174.928 126.507 174.013 126.475 173.101 126.515C172.465 126.542 172.282 126.287 172.295 125.684C172.358 123.036 171.944 123.522 174.472 123.47C175.013 123.458 175.555 123.468 176.097 123.468Z" fill="#3C1F1B"/>
<path fill-rule="evenodd" clip-rule="evenodd" d="M161.736 124.66C161.72 125.91 161.634 127.162 161.626 128.408C161.597 132.83 157.052 136.248 152.375 135.128C150.773 134.783 149.337 133.903 148.302 132.634C147.267 131.364 146.695 129.78 146.681 128.143C146.56 125.61 146.569 123.072 146.708 120.54C146.902 118.705 147.768 117.007 149.139 115.771C150.511 114.535 152.291 113.849 154.138 113.844C155.984 113.84 157.768 114.517 159.145 115.746C160.523 116.976 161.397 118.67 161.6 120.504C161.685 121.889 161.753 123.273 161.736 124.66Z" fill="#3C1F1B"/>
<path fill-rule="evenodd" clip-rule="evenodd" d="M197.956 124.515C197.956 125.699 197.925 126.885 197.962 128.066C198.108 132.801 193.337 136.296 188.64 135.107C185.154 134.225 183.185 131.809 182.972 127.883C182.795 125.351 182.827 122.809 183.066 120.282C183.424 117.071 185.558 114.778 188.924 113.996C190.403 113.67 191.946 113.796 193.354 114.356C194.761 114.917 195.968 115.886 196.817 117.139C197.561 118.239 197.956 119.536 197.952 120.862C197.943 122.08 197.95 123.298 197.95 124.515H197.956Z" fill="#3C1F1B"/>
<path fill-rule="evenodd" clip-rule="evenodd" d="M130.837 124.557C130.837 121.375 130.856 118.195 130.821 115.014C130.813 114.283 130.99 114.01 131.775 114.015C134.07 114.027 134.07 113.991 134.07 116.3C134.07 121.241 134.085 126.182 134.054 131.123C134.049 131.9 134.238 132.175 135.064 132.161C137.84 132.11 140.618 132.162 143.394 132.127C144.092 132.118 144.326 132.307 144.325 133.031C144.321 135.187 144.353 135.187 142.224 135.187C138.803 135.187 135.383 135.158 131.963 135.206C131.098 135.218 130.794 135.032 130.812 134.1C130.874 130.92 130.837 127.739 130.837 124.557Z" fill="#3C1F1B"/>
<path fill-rule="evenodd" clip-rule="evenodd" d="M158.503 124.528C158.521 125.778 158.468 127.027 158.343 128.27C158.262 129.308 157.798 130.279 157.041 130.993C156.284 131.708 155.287 132.116 154.246 132.137C153.204 132.158 152.192 131.791 151.406 131.108C150.621 130.424 150.118 129.473 149.995 128.439C149.676 125.889 149.675 123.309 149.991 120.759C150.086 119.701 150.594 118.723 151.406 118.037C152.217 117.352 153.266 117.013 154.326 117.095C156.559 117.155 158.093 118.669 158.349 120.989C158.464 122.165 158.516 123.347 158.503 124.528Z" fill="#8B735A"/>
<path fill-rule="evenodd" clip-rule="evenodd" d="M186.142 124.497C186.115 123.213 186.18 121.93 186.336 120.656C186.492 119.644 187.012 118.724 187.799 118.068C188.586 117.412 189.585 117.066 190.609 117.094C191.634 117.122 192.612 117.523 193.362 118.221C194.111 118.919 194.58 119.867 194.68 120.886C194.93 123.34 194.931 125.813 194.684 128.268C194.596 129.306 194.128 130.274 193.369 130.988C192.61 131.703 191.614 132.112 190.572 132.137C189.529 132.166 188.513 131.802 187.727 131.116C186.94 130.431 186.441 129.475 186.328 128.438C186.181 127.13 186.119 125.813 186.142 124.497Z" fill="#8B735A"/>
</g>
<defs>
<clipPath id="clip0_1496_508">
<rect width="234" height="230" fill="white" transform="translate(43 90)"/>
</clipPath>
</defs>
</svg>
