<svg width="320" height="320" viewBox="0 0 320 320" fill="none" xmlns="http://www.w3.org/2000/svg">
<rect width="320" height="320" fill="#F2F2EA"/>
<g clip-path="url(#clip0_1423_4077)">
<path fill-rule="evenodd" clip-rule="evenodd" d="M79.5334 123.142C78.0414 127.356 86.818 134.803 81.9202 144.461C75.5493 144.695 75.2374 141.836 71.9342 147.83C68.9404 153.262 69.4537 153.466 71.9656 158.404C67.4601 167.2 62.1378 175.308 57.4347 183.759C54.9537 188.888 54.277 194.696 55.5127 200.253C56.4461 206.408 59.3651 208.859 66.0717 209.835C79.4782 211.785 90.1986 210.433 103.546 210.598C153.157 211.209 203.519 221.192 249.274 203.802C254.931 201.653 258.909 200.196 261.945 196.257C265.462 191.692 264.095 185.255 260.625 180.941C254.801 173.706 241.826 173.622 230.931 170.837C220.772 168.24 210.469 164.478 200.763 161.201C187.492 156.72 191.763 157.939 188.349 154.055C185.468 150.778 178.076 154.677 175.433 146.625C174.377 143.41 174.565 142.393 171.393 141.409C168.003 140.357 166.327 139.987 165.428 137.2C163.753 132.008 167.916 133.308 161.825 130.679C159.717 129.77 161.278 131.515 159.447 128.401C158.759 127.233 158.054 125.95 157.542 124.89C155.119 119.886 155.018 114.947 153.172 109.776C150.817 103.177 144.741 106.431 141.078 110.434C135.836 116.164 132.279 129.265 127.131 136.18C122.093 142.946 110.842 151.383 100.928 141.542C96.0693 136.72 87.8512 121.668 79.5334 123.142Z" fill="#3C1F1B"/>
<path fill-rule="evenodd" clip-rule="evenodd" d="M83.2853 126.924C86.1535 134.093 86.6857 134.757 85.465 143.636C86.0697 144.076 92.7827 147.104 94.1003 147.65C106.183 152.657 104.109 151.379 98.9339 161.218C91.5843 175.192 94.3298 169.262 84.9265 164.139C81.4299 162.491 77.7514 161.254 73.9659 160.454C71.3348 165.331 65.4655 173.718 66.3769 175.906C69.1946 176.851 86.0111 177.56 91.414 178.531C99.4957 179.985 105.756 182.143 113.47 184.141C137.304 190.312 188.41 195.154 214.293 193.628C222.133 193.165 232.255 192.703 240.078 191.95C247.09 191.274 256.354 187.448 258.18 182.569C255.01 178.355 251.03 177.922 244.599 176.707C228.867 173.609 213.434 169.168 198.471 163.434C196.156 165.813 196.876 167.808 193.184 166.713L194.352 161.684L190.449 160.597C190.764 164.519 192.637 171.59 191.795 174.907C186.162 174.599 189.808 162.41 185.992 158.373C181.049 155.994 180.606 161.661 178.176 159.475C177.067 158.245 176.982 159.407 178.215 157.443C178.868 156.643 179.594 155.904 180.384 155.235C178.643 154.059 177.063 152.948 175.522 152.012C174.787 155.831 175.21 165.19 173.828 167.721C168.319 167.391 172.629 160.052 171.789 148.331C169.686 147.107 170.154 146.174 167.224 147.068C164.48 147.905 164.321 148.985 161.625 148.335C161.567 144.726 163.371 144.51 166.578 143.835L163.691 140.314C158.256 146.433 159.807 158.344 154.271 158.945C151.702 151.805 169.724 127.633 154.947 137.629C144.667 144.583 144.44 150.366 139.649 149.369C138.443 145.821 142.15 143.293 146.858 138.997C150.23 136.244 153.813 133.756 157.573 131.554C156.558 128.01 154.299 125.218 152.94 120.759C152.133 116.703 150.999 112.718 149.549 108.842C137.172 109.174 138.722 133.475 121.862 145.045C101.344 159.124 94.0788 132.548 83.2853 126.924Z" fill="#DCCDB3"/>
<path fill-rule="evenodd" clip-rule="evenodd" d="M102.154 207.638L122.664 208.375C121.03 196.542 124.955 195.529 127.858 190.075C114.959 187.8 106.782 181.738 101.6 196.09C100.439 199.368 100.356 202.928 101.363 206.256C102.174 208.238 101.592 206.838 102.154 207.638Z" fill="#5C3F3B"/>
<path fill-rule="evenodd" clip-rule="evenodd" d="M83.974 208.341C82.2256 194.967 84.4322 192.343 89.2247 182.569C87.3373 181.567 85.2946 180.886 83.181 180.555C82.2654 180.203 81.2637 180.137 80.3093 180.365C79.3549 180.593 78.493 181.104 77.8384 181.831C74.8385 184.379 72.5214 187.626 71.0947 191.282C69.2589 195.809 68.9913 200.815 70.3339 205.51C71.6393 208.746 78.3169 208.39 83.974 208.341Z" fill="#5C3F3B"/>
<path fill-rule="evenodd" clip-rule="evenodd" d="M125.775 208.076C129.506 209.656 140.673 209.165 145.584 209.447C145.443 206.463 145.583 203.472 146.003 200.514C146.461 197.969 148.106 195.298 147.715 193.136C140.35 192.138 132.966 189.912 130.303 192.325C128.074 194.218 126.455 196.722 125.65 199.523C124.845 202.324 124.888 205.299 125.775 208.076Z" fill="#5C3F3B"/>
<path fill-rule="evenodd" clip-rule="evenodd" d="M93.4767 166.56C95.0628 162.007 97.2518 157.684 99.986 153.705C97.7579 151.26 92.6181 150.209 89.2033 148.467C86.4947 147.084 79.4898 146.933 75.6363 146.827C74.6527 149.568 68.7768 155.68 78.6878 158.931C81.4166 159.612 84.0646 160.581 86.587 161.819C89.713 163.491 90.7222 165.289 93.4767 166.56Z" fill="#5C3F3B"/>
<path fill-rule="evenodd" clip-rule="evenodd" d="M87.3265 208.29L98.5287 207.732C98.4736 202.447 96.7208 201.084 99.0403 194.886C100.864 190.011 102.799 189.007 104.701 185.925L92.3412 183.151C88.4781 188.519 83.1952 200.424 87.3265 208.29Z" fill="#5C3F3B"/>
<path fill-rule="evenodd" clip-rule="evenodd" d="M67.6896 207.007C66.65 200.664 65.853 197.18 68.1043 191.037C70.4786 184.558 74.2053 182.303 75.6596 179.49C71.4706 179.2 67.4453 179.984 64.565 178.188C60.4392 182.435 58.0788 188.072 57.9556 193.973C58.0214 202.825 58.7285 206.57 67.6896 207.007Z" fill="#5C3F3B"/>
<path fill-rule="evenodd" clip-rule="evenodd" d="M185.041 211.428C190.18 211.611 198.51 212.048 203.222 210.454C205.931 204.135 203.792 200.902 200.184 197.336L182.557 196.67C185.341 202.479 186.91 203.475 185.041 211.428Z" fill="#5C3F3B"/>
<path fill-rule="evenodd" clip-rule="evenodd" d="M163.904 210.319C166.373 196.493 166.521 193.166 151.527 193.913C148.935 198.11 147.859 203.06 148.477 207.945C149.117 210.782 158.812 210.234 163.904 210.319Z" fill="#5C3F3B"/>
<path fill-rule="evenodd" clip-rule="evenodd" d="M167.049 210.548C171.494 210.72 178.423 212.248 182.067 210.761C182.81 208.707 183.026 206.501 182.697 204.343C182.368 202.185 181.503 200.143 180.181 198.4C178.135 195.225 174.822 195.72 167.167 195.391C167.532 200.439 167.492 205.507 167.049 210.548Z" fill="#5C3F3B"/>
<path fill-rule="evenodd" clip-rule="evenodd" d="M216.988 196.791C218.99 201.719 220.716 201.014 219.964 208.463L238.858 204.398C239.489 199.546 237.934 198.804 236.051 195.986C229.686 195.789 223.314 196.058 216.988 196.791Z" fill="#5C3F3B"/>
<path fill-rule="evenodd" clip-rule="evenodd" d="M239.862 195.719L242.411 203.102C246.798 201.874 251.059 200.241 255.139 198.222C259.98 195.809 261.716 192.972 260.604 186.22C259.416 186.503 260.065 186.416 259.066 187.34C256.591 189.94 253.617 192.022 250.318 193.461C247.02 194.9 243.464 195.668 239.862 195.719Z" fill="#5C3F3B"/>
<path fill-rule="evenodd" clip-rule="evenodd" d="M206.666 210.473C215.283 209.793 222.562 209.869 213.327 197.148L204.428 197.228C206.765 202.899 208.014 202.51 206.666 210.473Z" fill="#5C3F3B"/>
</g>
<defs>
<clipPath id="clip0_1423_4077">
<rect width="209" height="108" fill="white" transform="translate(55 106)"/>
</clipPath>
</defs>
</svg>
