<svg width="320" height="320" viewBox="0 0 320 320" fill="none" xmlns="http://www.w3.org/2000/svg">
<rect width="320" height="320" fill="#F2F2EA"/>
<g clip-path="url(#clip0_1425_10274)">
<path fill-rule="evenodd" clip-rule="evenodd" d="M226.079 157.677C227.563 158.739 228.674 160.248 229.248 161.986C229.597 163.219 230.554 163.275 231.524 163.385C234.562 163.729 237.598 164.085 240.639 164.401C241.891 164.531 243.156 164.521 244.412 164.568C248.434 164.721 251.73 166.434 254.685 169.022C255.679 169.894 256.501 170.945 257.109 172.121C257.474 172.729 257.694 173.414 257.751 174.123C257.808 174.831 257.7 175.542 257.436 176.201C257.366 176.309 257.322 176.432 257.308 176.56C257.293 176.688 257.308 176.817 257.352 176.938C257.396 177.059 257.468 177.168 257.561 177.257C257.654 177.345 257.767 177.41 257.889 177.447C261.439 179.259 263.104 182.567 264.54 186.026C265.753 188.95 264.52 193.831 261.398 196.155C259.064 197.767 256.566 199.127 253.947 200.212C250.951 201.668 247.815 202.814 244.587 203.629C240.157 204.647 235.681 205.486 231.201 206.259C229.196 206.574 227.175 206.782 225.147 206.883C222.193 207.073 219.241 206.907 216.293 207.043C213.695 207.163 211.098 207.045 208.498 207.132C206.793 207.188 205.066 207.05 203.348 207.022C198.875 206.951 194.418 207.384 189.947 207.411C188.667 207.418 187.373 207.538 186.087 207.523C182.597 207.595 179.117 207.901 175.668 208.438C172.775 208.794 169.896 209.252 166.985 209.452C163.021 209.725 159.06 210.037 155.093 210.29C150.432 210.584 145.764 210.775 141.091 210.642C137.477 210.539 133.865 210.748 130.26 210.882C126.187 211.034 122.117 211.012 118.048 210.966C115.391 210.862 112.743 210.609 110.115 210.208C107.79 209.917 105.458 209.689 103.129 209.425C99.8031 209.05 96.52 208.405 93.2227 207.841C86.8749 206.754 80.6029 205.298 74.2892 204.046C72.9708 203.766 71.6799 203.367 70.4319 202.856C68.2167 201.986 65.9115 201.392 63.6479 200.67C62.5013 200.305 61.3139 200.017 60.5143 198.904C60.0213 198.422 59.4563 198.02 58.8399 197.714C55.2122 195.171 54.4282 191.815 55.3588 187.951C56.1758 185.008 57.289 182.156 58.6812 179.44C59.8358 176.93 61.2011 174.524 62.7623 172.248C63.6865 170.824 64.8156 169.546 66.1127 168.455C66.3261 168.326 66.4811 168.118 66.5448 167.876C66.6085 167.634 66.5758 167.376 66.4538 167.158C65.8212 165.395 65.747 163.48 66.2413 161.673C66.3129 161.625 66.3936 161.592 66.4783 161.576C66.563 161.56 66.65 161.562 66.7341 161.581C69.9407 162.051 72.6978 161.031 75.2299 159.104C77.7519 157.186 80.0135 154.967 82.4388 152.938C85.1354 150.682 88.2976 149.757 91.6543 149.217C93.4523 148.928 95.2527 149.203 97.055 149.086C98.9154 148.965 100.764 148.74 102.624 148.62C105.02 148.391 107.433 148.391 109.829 148.622C110.967 148.766 112.112 148.848 113.258 148.867C116.586 148.926 119.896 149.242 123.211 149.51C125.323 149.681 127.442 149.836 129.561 149.903C132.75 150.005 135.06 148.548 136.512 145.718C137.623 143.553 138.218 141.194 138.977 138.896C139.856 135.992 140.194 132.95 139.973 129.923C139.929 128.923 139.568 128.604 138.576 128.597C137.886 128.628 137.211 128.807 136.595 129.121C135.456 129.601 134.353 130.161 133.292 130.796C131.763 131.742 130.068 132.301 128.472 133.085C128.142 133.246 127.787 133.422 127.423 133.133C126.128 133.203 125.466 132.252 124.845 131.383C124.01 130.14 123.367 128.777 122.938 127.34C122.369 125.625 123.081 124.171 123.878 122.76C125.487 120.097 127.509 117.71 129.866 115.688C131.749 113.969 133.641 112.26 135.656 110.69C136.801 109.691 138.242 109.101 139.756 109.011C141.27 108.921 142.77 109.337 144.024 110.194C148.209 112.743 152.423 115.244 156.613 117.784C157.199 118.138 157.721 118.598 158.276 119.004C159.375 119.876 160.587 120.593 161.879 121.136C163.3 121.683 164.626 122.452 165.808 123.414C165.897 123.649 165.745 123.803 165.605 123.936C164.733 124.886 164.001 125.956 163.43 127.113C163.227 127.559 162.868 127.914 162.421 128.11C160.742 128.797 160.482 130.103 161.81 131.339C162.358 132.002 163.105 132.47 163.938 132.674C164.299 132.763 164.653 132.878 164.998 133.016C165.832 133.248 166.124 133.054 166.264 132.172C166.323 131.84 166.401 131.511 166.497 131.187C166.739 130.799 167.083 130.486 167.491 130.282C168.02 129.952 168.546 129.615 169.077 129.291C169.956 128.721 170.624 127.877 170.978 126.888C172.981 128.187 174.984 129.487 176.986 130.787C177.238 130.968 177.481 131.161 177.714 131.367C177.798 131.484 177.847 131.623 177.855 131.768C177.864 131.912 177.832 132.056 177.764 132.183C177.455 133.078 177.251 134.003 176.997 134.914C176.939 135.341 176.746 135.739 176.446 136.049C176.146 136.358 175.756 136.564 175.332 136.635C174.176 137.368 173.971 138.361 174.875 139.366C175.918 140.494 177.345 141.188 178.872 141.312C179.041 141.309 179.209 141.316 179.377 141.334C180.323 141.365 180.465 141.135 180.054 140.245C179.95 140.071 179.903 139.87 179.919 139.668C179.936 139.466 180.015 139.275 180.145 139.121C181.074 137.966 181.906 136.734 182.631 135.44C182.803 135.175 182.917 134.79 183.364 134.853C185.049 136.067 186.808 137.174 188.63 138.166C189.092 138.388 189.525 138.664 189.922 138.989C190.066 139.336 190.075 139.725 189.947 140.079C189.737 141.007 189.709 141.967 189.866 142.905C189.949 143.214 189.913 143.544 189.765 143.829C189.054 144.699 188.998 145.251 189.642 146.134C190.022 146.741 190.542 147.247 191.157 147.611C191.773 147.974 192.466 148.184 193.179 148.222C193.689 148.162 194.275 148.369 194.635 147.793C194.7 147.664 194.819 147.516 194.778 147.394C194.428 146.355 194.998 145.65 195.594 144.926C195.966 144.415 196.307 143.882 196.613 143.329C196.794 143.044 196.928 142.701 197.321 142.629C198.752 143.157 200.049 143.964 201.428 144.602C202.519 145.108 203.616 145.604 204.71 146.105C204.791 146.255 204.839 146.421 204.852 146.591C204.864 146.762 204.842 146.933 204.784 147.094C204.6 148.159 204.519 149.238 204.541 150.319C204.568 150.69 204.487 151.062 204.308 151.388C203.36 152.517 203.396 153.038 204.527 154.028C204.794 154.326 205.128 154.555 205.501 154.698C206.388 155.347 207.2 156.122 208.325 156.372C208.597 156.45 208.874 156.511 209.153 156.555C209.429 156.581 209.772 156.665 209.895 156.329C210.007 156.021 209.637 155.938 209.489 155.747C209.077 155.313 209.419 154.807 209.353 154.337C209.384 154.137 209.479 153.952 209.622 153.81C210.556 152.835 211.359 151.743 212.011 150.559C212.053 150.452 212.116 150.354 212.197 150.272C212.277 150.19 212.374 150.125 212.48 150.081C214.743 150.971 216.956 151.986 219.109 153.121C219.167 153.151 219.178 153.27 219.211 153.349C219.198 154.742 218.929 156.121 218.418 157.416C217.638 158.33 217.617 158.937 218.395 159.824C219.105 160.634 219.889 161.338 221.083 161.234C221.573 161.357 222.09 161.304 222.545 161.085C223.501 160.317 224.34 159.413 225.035 158.401C225.299 158.061 225.493 157.57 226.079 157.677Z" fill="#DCCDB3"/>
<path fill-rule="evenodd" clip-rule="evenodd" d="M127.423 133.133C129.132 132.483 130.805 131.74 132.433 130.906C133.926 129.991 135.495 129.208 137.121 128.563C137.176 128.542 137.225 128.51 137.28 128.495C139.545 127.85 140.293 128.182 140.367 130.637C140.426 134.331 139.796 138.004 138.51 141.465C138.035 142.822 137.579 144.183 136.998 145.499C136.506 146.673 135.738 147.71 134.76 148.52C133.782 149.331 132.624 149.892 131.383 150.155C130.908 150.266 130.419 150.301 129.933 150.259C126.301 150.004 122.671 149.719 119.038 149.479C114.948 149.209 110.855 148.972 106.761 148.769C104.553 148.698 102.343 148.836 100.16 149.182C97.4498 149.56 94.7055 149.244 92.0047 149.541C88.4297 149.934 85.1003 150.988 82.2851 153.473C79.6829 155.769 77.2003 158.232 74.3036 160.168C72.19 161.65 69.6022 162.285 67.0467 161.95C66.7696 161.886 66.4998 161.793 66.2413 161.674C64.8394 159.912 65.0533 157.836 65.1462 155.799C65.4553 148.97 67.6732 142.579 69.7688 136.183C71.4985 130.902 73.3881 125.676 74.8902 120.321C75.1325 119.521 75.4547 118.748 75.8521 118.013C76.5803 116.603 77.4786 116.268 79.0594 116.534C81.482 116.94 83.0827 118.494 84.5073 120.315C86.3104 122.618 87.432 125.335 88.9568 127.806C90.7208 130.665 92.885 133.179 95.8955 134.737C99.2382 136.389 102.98 137.05 106.683 136.64C111.192 136.212 115.666 135.476 120.075 134.437C122.359 133.926 124.727 133.785 127.023 133.271C127.159 133.233 127.293 133.187 127.423 133.133Z" fill="#3C1F1B"/>
<path fill-rule="evenodd" clip-rule="evenodd" d="M212.479 150.081C211.89 151.532 211.006 152.843 209.883 153.931C209.746 154.074 209.566 154.173 209.546 154.396C209.407 154.596 209.211 154.749 208.983 154.832C208.755 154.915 208.507 154.926 208.272 154.862C207.961 154.826 207.649 154.84 207.341 154.817C207.031 154.759 206.743 154.615 206.509 154.402C206.275 154.189 206.105 153.915 206.018 153.61C205.943 153.319 205.756 153.069 205.499 152.915C205.241 152.76 204.934 152.715 204.643 152.787C204.044 152.522 204.061 151.967 204.015 151.44C204.219 151.089 204.289 150.675 204.21 150.276C204.142 148.867 204.311 147.457 204.71 146.105C205.242 145.14 205.717 144.958 206.814 145.132C208.199 145.294 209.562 145.617 210.872 146.096C211.796 146.51 212.523 147.269 212.896 148.213C213.203 148.883 212.72 149.478 212.479 150.081Z" fill="white"/>
<path fill-rule="evenodd" clip-rule="evenodd" d="M197.321 142.629C196.754 143.813 196.034 144.917 195.178 145.91C195.057 146.031 194.972 146.184 194.935 146.352C194.898 146.52 194.91 146.695 194.97 146.856C195.081 147.241 195.21 147.629 194.909 147.992C194.584 147.641 194.14 147.425 193.664 147.387C193.223 147.365 192.793 147.24 192.409 147.022C192.024 146.804 191.695 146.499 191.448 146.131C191.367 145.964 191.243 145.822 191.089 145.72C190.936 145.618 190.757 145.559 190.573 145.549C189.699 145.36 189.527 145.067 189.55 143.819C189.676 143.469 189.67 143.085 189.533 142.739C189.338 141.476 189.472 140.184 189.922 138.989C190.048 138.872 190.195 138.781 190.357 138.722C190.518 138.663 190.689 138.637 190.86 138.645C193.105 138.992 195.24 139.616 196.984 141.174C197.215 141.327 197.379 141.563 197.442 141.834C197.505 142.105 197.461 142.39 197.321 142.629Z" fill="white"/>
<path fill-rule="evenodd" clip-rule="evenodd" d="M170.978 126.889C171.028 127.321 170.948 127.757 170.749 128.143C170.55 128.529 170.241 128.846 169.862 129.054C168.812 129.79 167.735 130.489 166.67 131.203C166.304 132.142 165.537 132.055 164.764 131.956C164.044 131.759 163.431 131.287 163.054 130.64C162.728 130.489 162.471 130.221 162.332 129.889C162.193 129.557 162.183 129.184 162.304 128.845C162.363 128.537 162.378 128.222 162.351 127.91C163.313 127.316 163.53 126.194 164.124 125.341C164.573 124.608 165.143 123.956 165.808 123.414C168.422 123.234 169.791 124.924 170.978 126.889Z" fill="white"/>
<path fill-rule="evenodd" clip-rule="evenodd" d="M218.147 157.334C218.819 156.725 218.425 155.865 218.644 155.141C218.755 154.522 218.945 153.919 219.211 153.349C219.676 152.663 220.244 152.542 221.11 152.581C222.978 152.667 224.322 153.709 225.721 154.687C226.843 155.471 226.87 156.002 226.078 157.678C225.585 158.104 225.159 158.603 224.814 159.158C224.148 159.941 223.587 160.838 222.612 161.301C222.48 161.023 222.283 160.781 222.038 160.596C221.793 160.411 221.507 160.289 221.205 160.239C220.817 160.129 220.457 159.935 220.149 159.672C219.842 159.409 219.595 159.082 219.425 158.714C219.381 158.609 219.314 158.516 219.228 158.443C219.142 158.369 219.039 158.317 218.93 158.29C218.705 158.256 218.5 158.14 218.356 157.963C218.211 157.786 218.137 157.562 218.147 157.334Z" fill="white"/>
<path fill-rule="evenodd" clip-rule="evenodd" d="M175.098 136.393C176.547 136.303 176.66 135.099 176.904 134.092C177.128 133.165 177.438 132.273 177.714 131.367C178.241 130.864 178.901 131.018 179.512 131.039C180.514 131.069 181.469 131.478 182.183 132.186C182.898 132.893 183.319 133.846 183.364 134.853C182.378 136.178 181.753 137.748 180.645 138.98C180.291 139.375 180.044 139.696 180.257 140.22C179.311 140.83 178.506 140.361 177.736 139.851C177.355 139.505 176.91 139.239 176.427 139.067C176.158 138.966 175.934 138.772 175.797 138.519C175.659 138.266 175.617 137.972 175.679 137.691C175.717 137.441 175.682 137.186 175.579 136.956C175.476 136.725 175.309 136.53 175.098 136.393Z" fill="white"/>
<path fill-rule="evenodd" clip-rule="evenodd" d="M229.51 184.671C230.547 184.771 231.593 184.719 232.615 184.517C235.822 184.091 238.984 183.371 242.061 182.365C246.207 181.016 250.266 179.436 254.28 177.735C254.527 177.63 254.794 177.583 255.062 177.598C255.33 177.613 255.591 177.689 255.825 177.821C260.203 179.805 262.525 183.496 263.479 187.946C263.99 190.326 263.046 192.686 261.097 194.471C258.954 196.433 256.365 197.56 253.778 198.734C251.353 199.844 248.868 200.815 246.335 201.645C243.587 202.446 240.793 203.078 237.968 203.537C235.638 203.989 233.306 204.433 230.965 204.824C228.936 205.164 226.887 205.377 224.831 205.46C216.084 205.81 207.332 205.489 198.585 205.664C194.55 205.744 190.513 205.91 186.477 206.012C182.051 206.192 177.64 206.628 173.264 207.317C170.07 207.769 166.858 208.092 163.626 208.26C159.801 208.46 155.974 208.672 152.156 208.96C149.266 209.177 146.382 209.29 143.489 209.256C142.72 209.247 141.95 209.109 141.18 209.107C136.941 209.089 132.71 209.412 128.471 209.505C125.145 209.577 121.818 209.645 118.498 209.569C115.815 209.455 113.14 209.195 110.485 208.791C108.22 208.491 105.941 208.309 103.671 208.038C101.034 207.722 98.4063 207.334 95.7907 206.853C90.7281 205.922 85.672 204.961 80.6323 203.913C78.616 203.495 76.5875 203.125 74.5841 202.647C72.9684 202.255 71.3844 201.74 69.8457 201.108C68.089 200.395 66.2399 199.988 64.4419 199.413C63.5492 199.218 62.7187 198.804 62.0251 198.206C61.0887 197.278 59.8364 196.747 58.8329 195.875C58.1174 195.277 57.5348 194.534 57.1225 193.695C56.7103 192.856 56.4776 191.94 56.4396 191.005C56.3016 188.732 57.2042 186.719 57.9803 184.682C59.2169 181.423 60.734 178.279 62.5144 175.285C63.7074 173.146 65.215 171.2 66.986 169.513C67.5959 168.947 68.2412 168.421 68.9178 167.938C69.6983 167.396 70.5587 167.836 71.3291 167.985C76.8623 169.05 82.3711 170.24 87.9086 171.283C90.1911 171.669 92.4928 171.929 94.8036 172.063C97.8212 172.294 100.837 172.577 103.848 172.891C110.706 173.604 117.456 175.009 124.238 176.203C127.615 176.798 130.985 177.476 134.386 177.879C138.272 178.34 142.149 178.874 146.035 179.334C149.494 179.743 152.942 180.249 156.4 180.672C159.547 181.058 162.699 181.394 165.85 181.749C168.377 182.032 170.893 182.385 173.411 182.731C175.39 183.005 177.392 183.111 179.381 183.309C182.024 183.572 184.664 183.863 187.307 184.122C188.842 184.273 190.381 184.409 191.92 184.508C195.686 184.75 199.451 185.05 203.221 185.162C205.512 185.231 207.794 185.41 210.073 185.586C212.963 185.773 215.86 185.807 218.754 185.688C221.807 185.6 224.852 185.256 227.899 184.995C228.246 185.009 228.587 184.893 228.854 184.669C228.896 184.624 228.947 184.588 229.003 184.564C229.06 184.539 229.121 184.527 229.182 184.527C229.244 184.527 229.305 184.54 229.361 184.565C229.417 184.59 229.468 184.626 229.51 184.671Z" fill="#3C1F1B"/>
<path fill-rule="evenodd" clip-rule="evenodd" d="M131.005 130.156C129.883 130.497 128.794 130.937 127.75 131.47C127.671 131.53 127.581 131.573 127.485 131.596C127.389 131.62 127.289 131.625 127.192 131.609C127.094 131.594 127.001 131.559 126.917 131.507C126.833 131.454 126.76 131.386 126.703 131.305C125.391 129.879 124.515 128.103 124.178 126.191C123.949 125.105 124.749 124.167 125.273 123.257C127.035 120.194 129.628 117.864 132.203 115.533C133.414 114.438 134.64 113.353 135.921 112.343C139.062 109.866 140.691 109.781 144.086 111.921C147.99 114.385 152 116.672 155.938 119.081C156.974 119.715 157.927 120.489 159.12 121.343C157.794 121.315 156.718 121.482 155.651 121.479C152.493 121.469 149.726 122.654 147.062 124.16C145.24 125.191 143.501 126.364 141.86 127.666C141.568 127.897 141.306 127.989 141.041 127.68C139.982 126.446 138.668 126.607 137.322 126.99C135.475 127.611 133.706 128.445 132.049 129.476C131.846 129.629 131.658 129.642 131.497 129.414C131.621 128.944 131.622 128.45 131.5 127.98C131.378 127.51 131.138 127.079 130.802 126.729C130.931 126.348 131.153 126.006 131.448 125.733C131.743 125.461 132.102 125.268 132.491 125.172C133.739 125.153 134.27 124.822 134.539 123.891C134.896 123.386 135.404 123.008 135.988 122.811C136.681 123.065 137.045 122.583 137.433 122.157C137.631 121.874 137.81 121.579 137.969 121.272C138.426 120.757 138.981 120.339 139.601 120.042C140.021 120.216 140.297 119.987 140.537 119.69C140.988 119.22 141.3 118.634 141.44 117.997C141.44 117.832 141.498 117.673 141.604 117.546C142.732 117.218 142.973 116.875 142.747 115.915C142.729 115.703 142.775 115.49 142.878 115.305C142.981 115.119 143.137 114.968 143.325 114.872C143.604 114.9 143.9 114.962 143.973 114.557C144.036 114.198 143.786 114.215 143.556 114.206C142.908 114.132 142.834 114.719 142.66 115.083C141.853 116.867 140.685 118.462 139.231 119.768C137.403 121.334 135.468 122.769 133.439 124.06C132.697 124.494 131.989 124.984 131.32 125.525C130.179 126.536 130.055 127.253 130.66 128.66C130.86 129.127 131.359 129.551 131.005 130.156Z" fill="#3C1F1B"/>
<path fill-rule="evenodd" clip-rule="evenodd" d="M178.906 146.605C181.452 148.104 183.968 149.655 186.55 151.086C190.49 153.27 194.454 155.407 198.583 157.228C202.497 158.955 206.285 160.95 210.047 162.987C210.466 163.214 210.97 163.332 211.259 163.769C210.932 164.062 210.613 163.863 210.303 163.74C209.628 163.43 208.916 163.206 208.185 163.074C207.767 162.766 207.384 162.368 206.786 162.53C205.739 161.668 204.449 161.285 203.254 160.718C202.98 160.588 202.638 160.576 202.482 160.25C202.298 159.966 202.039 159.739 201.733 159.595C201.428 159.452 201.089 159.397 200.754 159.437C200.644 159.471 200.528 159.473 200.417 159.444C200.307 159.415 200.206 159.355 200.128 159.271C199.456 158.747 198.673 158.385 197.84 158.212C197.82 157.827 197.524 157.696 197.239 157.559C195.899 156.913 194.557 156.275 193.222 155.621C193.114 155.552 192.989 155.513 192.861 155.511C192.733 155.509 192.606 155.542 192.496 155.608C191.949 155.249 191.383 154.923 190.798 154.63C190.639 154.536 190.46 154.482 190.275 154.472C190.091 154.461 189.907 154.495 189.738 154.57C189.803 153.586 188.981 153.351 188.357 153.031C186.544 152.101 184.772 151.098 183.016 150.066C182.552 149.574 182.029 149.142 181.458 148.78C181.313 148.669 181.139 148.601 180.957 148.585C180.775 148.568 180.593 148.604 180.43 148.687C179.86 147.918 178.911 147.701 178.201 147.139C178.271 147.002 178.371 146.883 178.493 146.791C178.615 146.699 178.756 146.635 178.906 146.605Z" fill="#3C1F1B"/>
<path fill-rule="evenodd" clip-rule="evenodd" d="M173.18 142.578C173.946 143.56 174.978 144.3 176.151 144.71C176.523 145.172 176.95 145.586 177.423 145.943C177.741 146.192 178.155 146.419 178.038 146.953C176.569 146.316 175.198 145.473 173.966 144.448C170.453 141.834 166.795 139.422 163.01 137.225C161.5 136.36 160.09 135.319 158.635 134.355C157.515 133.613 157.141 133.726 156.608 134.989C156.509 135.223 156.432 135.466 156.345 135.705C156.025 135.48 155.658 135.615 155.316 135.563C155.64 134.704 156.141 133.924 156.786 133.273C156.991 133.045 157.278 132.908 157.584 132.892C157.89 132.876 158.189 132.982 158.417 133.187C159.327 133.787 160.223 134.408 161.142 134.991C161.341 135.117 161.54 135.502 161.863 135.15C162.004 135.122 162.149 135.13 162.285 135.174C162.422 135.219 162.544 135.298 162.641 135.404C163.548 136.184 164.545 136.853 165.61 137.396C165.589 137.441 165.578 137.49 165.576 137.54C165.575 137.59 165.584 137.639 165.602 137.685C165.62 137.732 165.648 137.774 165.683 137.809C165.718 137.844 165.76 137.871 165.807 137.889C166.558 138.396 167.36 138.823 168.199 139.162C169.332 139.875 170.349 140.744 171.428 141.531C171.975 141.938 172.562 142.289 173.18 142.578Z" fill="#3C1F1B"/>
<path fill-rule="evenodd" clip-rule="evenodd" d="M136 122.89C135.609 123.321 135.143 123.677 134.624 123.939C134.035 124.539 133.326 125.007 132.543 125.311C131.849 125.614 131.449 126.285 130.836 126.691C131.135 127.544 131.365 128.42 131.526 129.31C131.593 129.377 131.676 129.428 131.767 129.457C131.859 129.486 131.955 129.492 132.049 129.476C132.18 130.444 131.652 130.393 131.005 130.156C130.91 129.735 130.74 129.334 130.502 128.975C129.625 127.184 129.871 126.117 131.515 124.989C133.308 123.76 135.113 122.55 136.891 121.298C139.437 119.57 141.456 117.165 142.724 114.353C142.889 113.982 143.053 113.4 143.588 114.068C143.642 114.133 143.681 114.211 143.7 114.293C143.72 114.376 143.72 114.463 143.7 114.545C143.68 114.628 143.641 114.705 143.586 114.77C143.531 114.835 143.462 114.886 143.384 114.919C143.22 115.266 143.057 115.613 142.893 115.96C142.81 116.287 142.661 116.593 142.457 116.861C142.252 117.129 141.996 117.352 141.704 117.518L141.689 118.068C141.198 118.454 140.773 118.918 140.432 119.442C140.222 119.731 140.048 120.091 139.616 120.12C139.208 120.637 138.686 121.05 138.091 121.329C137.707 121.497 137.377 121.769 137.137 122.114C136.824 122.465 136.532 122.858 136 122.89Z" fill="#3C1F1B"/>
<path fill-rule="evenodd" clip-rule="evenodd" d="M204.73 152.669C205.34 152.113 205.722 152.398 206.022 153.017C206.218 153.639 206.601 154.185 207.117 154.58C207.931 154.917 208.885 154.903 209.563 155.575C209.995 155.686 210.465 155.828 210.335 156.396C210.201 156.982 209.694 156.956 209.221 156.881C207.764 156.69 206.42 155.991 205.424 154.906C204.877 154.259 204.119 153.679 204.73 152.669Z" fill="#3C1F1B"/>
<path fill-rule="evenodd" clip-rule="evenodd" d="M175.098 136.393C175.776 136.332 176.234 136.382 176.003 137.323C175.879 137.833 175.736 138.551 176.517 138.843C176.514 139.989 177.203 140.579 178.172 140.969C178.465 141.087 178.871 141.108 178.907 141.564C178.063 141.527 177.235 141.312 176.478 140.934C175.721 140.556 175.051 140.023 174.511 139.369C173.632 138.239 173.879 137.2 175.098 136.393Z" fill="#CFC5C2"/>
<path fill-rule="evenodd" clip-rule="evenodd" d="M155.304 136.935C154.511 138.221 153.54 139.386 152.418 140.395C151.017 141.738 149.488 142.938 147.853 143.978C147.391 144.313 146.869 144.556 146.316 144.692C146.309 144.038 146.815 143.718 147.201 143.32C148.088 142.892 148.901 142.323 149.608 141.634C150.287 141.368 150.907 140.968 151.429 140.458C151.714 140.138 152.032 139.793 151.535 139.384C153.046 139.012 153.746 137.797 154.432 136.567C154.654 136.853 155.043 136.738 155.304 136.935Z" fill="#3C1F1B"/>
<path fill-rule="evenodd" clip-rule="evenodd" d="M190.593 145.219C190.985 145.181 191.332 145.212 191.516 145.652C191.72 146.132 192.074 146.534 192.525 146.795C192.976 147.057 193.499 147.165 194.015 147.103C194.694 147.093 194.984 147.315 194.909 147.992C194.5 148.722 193.813 148.515 193.186 148.511C192.23 148.349 191.342 147.907 190.636 147.239C189.902 146.496 189.89 145.827 190.593 145.219Z" fill="#3C1F1B"/>
<path fill-rule="evenodd" clip-rule="evenodd" d="M219.704 158.558C219.847 158.968 220.105 159.328 220.447 159.593C220.789 159.858 221.2 160.018 221.631 160.052C222.611 160.109 222.732 160.531 222.612 161.301C222.411 161.485 222.156 161.598 221.886 161.625C221.616 161.652 221.344 161.591 221.111 161.451C220.232 161.31 219.425 160.877 218.819 160.22C218.543 159.965 218.356 159.629 218.283 159.259C218.212 158.851 218.184 158.414 218.621 158.203C218.714 158.146 218.817 158.109 218.925 158.096C219.033 158.084 219.142 158.094 219.245 158.128C219.348 158.162 219.442 158.218 219.522 158.292C219.601 158.366 219.664 158.457 219.704 158.558Z" fill="#3C1F1B"/>
<path fill-rule="evenodd" clip-rule="evenodd" d="M162.351 127.91C162.534 127.937 162.787 127.878 162.735 128.205C162.71 128.402 162.669 128.596 162.614 128.786C162.371 129.557 162.515 130.136 163.365 130.384C162.483 131.018 162.477 131.421 163.32 132.112C163.586 132.329 163.996 132.45 163.915 132.927C163.278 132.786 162.68 132.507 162.161 132.11C161.643 131.713 161.216 131.207 160.912 130.628C160.23 129.373 160.906 128.218 162.351 127.91Z" fill="#CFC5C2"/>
<path fill-rule="evenodd" clip-rule="evenodd" d="M178.907 141.563C178.057 141.186 177.118 140.974 176.526 140.139C176.202 139.684 176.098 139.279 176.517 138.843C176.67 138.804 176.83 138.809 176.98 138.855C177.13 138.902 177.265 138.989 177.369 139.108C177.714 139.528 178.161 139.852 178.667 140.047C179.173 140.242 179.721 140.302 180.257 140.22C180.549 140.462 180.839 140.711 180.642 141.15C180.55 141.345 180.394 141.502 180.2 141.594C180.007 141.687 179.787 141.71 179.579 141.66C179.353 141.64 179.13 141.596 178.907 141.563Z" fill="#3C1F1B"/>
<path fill-rule="evenodd" clip-rule="evenodd" d="M163.915 132.927C163.474 132.573 163.008 132.245 162.599 131.858C162.448 131.702 162.348 131.502 162.313 131.286C162.278 131.07 162.31 130.849 162.405 130.652C162.581 130.187 162.999 130.316 163.365 130.384C163.531 131.152 164.141 131.448 164.773 131.72C165.127 131.863 165.508 131.929 165.89 131.915C166.012 131.895 166.138 131.915 166.248 131.972C166.359 132.029 166.448 132.12 166.503 132.232C166.63 133.108 166.229 133.551 165.373 133.396C164.877 133.273 164.39 133.116 163.915 132.927Z" fill="#3C1F1B"/>
<path fill-rule="evenodd" clip-rule="evenodd" d="M228.656 169.115C229.161 170.727 229.515 172.383 229.711 174.061C230.089 176.214 230.135 178.412 229.847 180.579C229.812 180.687 229.76 180.788 229.693 180.878C229.292 180.533 229.402 180.055 229.362 179.614C229.307 179.001 229.495 178.365 229.185 177.778C229.207 176.662 229.083 175.548 228.817 174.465C228.485 172.931 228.329 171.364 228.35 169.794C228.339 169.664 228.362 169.533 228.415 169.414C228.469 169.295 228.551 169.192 228.656 169.115Z" fill="#3C1F1B"/>
<path fill-rule="evenodd" clip-rule="evenodd" d="M219.702 172.746C219.079 171.025 218.734 169.211 217.98 167.534C217.667 167.055 217.009 166.841 216.942 166.172C217.543 166.164 218.136 166.321 218.656 166.625C219.168 166.858 219.693 167.062 220.228 167.238C220.51 167.358 220.858 167.299 221.081 167.568C220.652 167.995 219.969 167.631 219.544 168.068C219.395 168.014 219.333 167.745 219.134 167.857C218.993 167.935 219.061 168.103 219.104 168.238C219.307 168.885 219.51 169.531 219.712 170.177C219.854 171.034 220.295 171.892 219.702 172.746Z" fill="#3C1F1B"/>
<path fill-rule="evenodd" clip-rule="evenodd" d="M126.867 170.15C125.403 167.435 124.946 164.407 124.205 161.467C124.172 161.299 124.148 161.129 124.134 160.958C124.499 160.846 124.728 161.085 124.969 161.288C125.285 161.965 125.266 162.755 125.674 163.401C125.293 164.264 125.808 164.995 126.026 165.767C126.094 166.008 126.281 166.208 126.345 166.461C126.632 167.307 126.531 168.322 127.402 168.914C127.152 169.294 127.289 169.844 126.867 170.15Z" fill="#3C1F1B"/>
<path fill-rule="evenodd" clip-rule="evenodd" d="M228.656 169.115C228.665 170.601 228.767 172.085 228.96 173.558C229.018 173.868 228.967 174.188 228.817 174.465C228.322 174.516 228.165 174.219 228.137 173.793C228.024 172.058 227.912 170.322 227.801 168.588C228.38 168.189 228.428 168.219 228.659 169.115L228.656 169.115Z" fill="#C5B8AB"/>
<path fill-rule="evenodd" clip-rule="evenodd" d="M173.179 142.578C173.061 142.658 172.921 142.698 172.779 142.694C172.636 142.69 172.499 142.641 172.385 142.555C171.108 141.608 169.828 140.666 168.545 139.728C168.451 139.663 168.372 139.579 168.312 139.482C168.253 139.385 168.214 139.276 168.199 139.162C168.464 138.729 168.77 138.896 169.067 139.112C170.297 140.003 171.524 140.898 172.749 141.795C172.892 141.867 173.009 141.98 173.086 142.12C173.162 142.259 173.195 142.419 173.179 142.578Z" fill="#C5B8AB"/>
<path fill-rule="evenodd" clip-rule="evenodd" d="M220.591 173.433C220.956 174.901 221.167 176.404 221.22 177.916C221.352 179.026 221.423 180.142 221.433 181.26C221.417 181.65 221.424 182.031 220.907 182.09C220.536 181.764 220.573 181.207 220.221 180.87C220.174 180.741 220.127 180.614 220.08 180.486C220.269 180.312 220.522 180.152 220.529 179.879C220.561 178.717 220.855 177.53 220.243 176.42L220.054 174.463C220.107 174.067 220.297 173.702 220.591 173.433Z" fill="#3C1F1B"/>
<path fill-rule="evenodd" clip-rule="evenodd" d="M190.593 145.219C189.981 145.913 190.396 146.489 190.801 147.068C191.385 147.902 192.363 148.079 193.186 148.511C191.59 148.493 189.475 147.044 188.983 145.562C188.758 144.888 188.697 144.181 189.551 143.82C189.679 143.93 189.779 144.069 189.842 144.227C189.905 144.384 189.928 144.554 189.911 144.723C189.888 145.248 190.147 145.358 190.593 145.219Z" fill="#D2C6C2"/>
<path fill-rule="evenodd" clip-rule="evenodd" d="M219.704 158.558C219.385 158.312 219.036 157.973 218.661 158.379C218.525 158.552 218.453 158.767 218.459 158.986C218.464 159.206 218.545 159.418 218.689 159.584C219.268 160.496 220.225 160.931 221.111 161.451C220.352 161.47 219.606 161.25 218.977 160.821C218.348 160.393 217.868 159.778 217.604 159.062C217.465 158.757 217.444 158.412 217.544 158.092C217.644 157.773 217.859 157.502 218.147 157.333C218.425 158.053 219.435 157.83 219.704 158.558Z" fill="#D2C6C2"/>
<path fill-rule="evenodd" clip-rule="evenodd" d="M202.482 160.25C203.96 160.451 205.164 161.34 206.511 161.873C206.803 161.989 206.817 162.259 206.785 162.53C206.673 162.595 206.546 162.631 206.416 162.633C206.286 162.635 206.158 162.603 206.044 162.541C204.868 162.012 203.688 161.486 202.515 160.949C202.083 160.751 202.133 160.5 202.482 160.25Z" fill="#C5B8AB"/>
<path fill-rule="evenodd" clip-rule="evenodd" d="M147.201 143.32C147.26 144.008 146.576 144.212 146.316 144.692C145.561 145.178 144.762 145.591 143.93 145.925C143.423 146.113 143.015 146.173 143.25 145.397C144.339 144.82 145.54 144.428 146.376 143.433C146.419 143.367 146.476 143.31 146.543 143.268C146.61 143.226 146.685 143.198 146.763 143.188C146.841 143.177 146.921 143.183 146.996 143.206C147.072 143.229 147.141 143.268 147.201 143.32Z" fill="#C5B8AB"/>
<path fill-rule="evenodd" clip-rule="evenodd" d="M204.73 152.669C204.575 153.536 205.243 154.145 205.424 154.906C203.972 154.206 203.137 153.312 203.36 152.336C203.453 151.931 203.54 151.551 204.015 151.441C204.073 151.448 204.128 151.467 204.177 151.497C204.227 151.526 204.27 151.566 204.304 151.613C204.338 151.66 204.362 151.713 204.375 151.77C204.387 151.826 204.388 151.885 204.378 151.942C204.353 152.085 204.373 152.232 204.436 152.363C204.499 152.494 204.602 152.601 204.73 152.669Z" fill="#D2C6C2"/>
<path fill-rule="evenodd" clip-rule="evenodd" d="M228.659 169.115C228.432 168.843 228.448 168.169 227.801 168.588C227.606 167.239 227.32 165.905 226.946 164.595C227.117 164.356 227.36 164.179 227.638 164.088C228.164 165.72 228.506 167.406 228.659 169.115Z" fill="#3C1F1B"/>
<path fill-rule="evenodd" clip-rule="evenodd" d="M220.243 176.42C220.708 176.357 220.869 176.65 220.877 177.031C220.899 178.003 220.896 178.977 220.887 179.95C220.882 180.508 220.558 180.625 220.08 180.487C220.116 179.131 219.857 177.763 220.243 176.42Z" fill="#C7B9AD"/>
<path fill-rule="evenodd" clip-rule="evenodd" d="M165.61 137.396C165.433 137.444 165.247 137.451 165.068 137.415C164.888 137.379 164.719 137.302 164.573 137.19C163.607 136.592 162.766 135.831 161.863 135.15C161.939 134.677 162.238 134.551 162.599 134.793C163.548 135.428 164.47 136.104 165.398 136.773C165.487 136.847 165.554 136.944 165.592 137.054C165.629 137.164 165.635 137.283 165.61 137.396Z" fill="#C5B8AD"/>
<path fill-rule="evenodd" clip-rule="evenodd" d="M208.185 163.074C208.284 162.952 208.423 162.87 208.577 162.844C208.731 162.817 208.889 162.847 209.023 162.928C209.757 163.238 210.513 163.492 211.259 163.769C211.369 163.823 211.478 163.876 211.587 163.929C211.662 163.967 211.735 164.008 211.808 164.049C212.113 164.217 212.442 164.409 212.236 164.816C212.064 165.154 211.74 165.096 211.443 164.941C210.678 164.446 209.854 164.051 208.99 163.765C208.637 163.613 208.305 163.479 208.185 163.074Z" fill="#C5B8AB"/>
<path fill-rule="evenodd" clip-rule="evenodd" d="M220.591 173.433C220.57 173.86 220.61 174.318 220.054 174.463C219.808 173.925 219.688 173.338 219.702 172.746C219.731 172.181 219.675 171.615 219.534 171.068C219.499 170.915 219.497 170.757 219.528 170.603C219.559 170.449 219.621 170.304 219.712 170.177C220.126 170.186 220.19 170.477 220.261 170.807C220.439 171.673 220.549 172.551 220.591 173.433Z" fill="#C5B8AD"/>
<path fill-rule="evenodd" clip-rule="evenodd" d="M126.867 170.15C127.014 169.724 126.475 169 127.402 168.914C127.856 170.053 127.765 171.342 128.359 172.444C128.385 172.48 128.402 172.52 128.409 172.563C128.416 172.606 128.414 172.65 128.401 172.691C128.389 172.733 128.367 172.771 128.337 172.803C128.308 172.835 128.271 172.859 128.231 172.874C128.153 172.912 128.065 172.925 127.98 172.91C127.894 172.896 127.815 172.855 127.754 172.793C127.479 172.5 127.297 172.132 127.232 171.734C127.111 171.207 126.989 170.679 126.867 170.15Z" fill="#C5B8AD"/>
<path fill-rule="evenodd" clip-rule="evenodd" d="M216.942 166.172C217.312 166.608 218.124 166.703 217.98 167.534C217.784 167.517 217.529 167.574 217.4 167.47C216.509 166.755 215.389 166.516 214.416 165.978C214.267 165.302 214.339 165.256 215.228 165.463C215.799 165.699 216.371 165.935 216.942 166.172Z" fill="#C5B8AD"/>
<path fill-rule="evenodd" clip-rule="evenodd" d="M219.544 168.068C219.518 167.568 219.778 167.407 220.236 167.47C220.517 167.509 220.799 167.536 221.08 167.568L222.962 168.079C223.472 168.266 223.728 168.508 223.15 168.936C221.948 168.646 220.746 168.357 219.544 168.068Z" fill="#C5B8AD"/>
<path fill-rule="evenodd" clip-rule="evenodd" d="M227.638 164.088C227.663 164.61 227.349 164.665 226.946 164.596C226.471 163.56 226.611 162.365 226.113 161.335C226.252 160.976 226.468 160.927 226.756 161.175C227.387 162.043 227.261 163.142 227.638 164.088Z" fill="#C7B9AD"/>
<path fill-rule="evenodd" clip-rule="evenodd" d="M151.535 139.384C151.901 139.305 152.256 139.26 152.181 139.823C152.074 140.622 150.44 141.765 149.608 141.634C149.312 141.293 149.529 141.179 149.827 141.014C150.56 140.675 151.16 140.102 151.535 139.384Z" fill="#C5B8AD"/>
<path fill-rule="evenodd" clip-rule="evenodd" d="M215.227 165.464C214.875 165.506 214.349 165.27 214.415 165.978C213.468 165.518 212.471 165.17 211.444 164.941C211.686 164.934 211.99 165.037 212.097 164.715C212.249 164.264 211.729 164.212 211.587 163.929C212.851 164.31 214.072 164.824 215.227 165.464Z" fill="#3C1F1B"/>
<path fill-rule="evenodd" clip-rule="evenodd" d="M178.037 146.953C177.642 146.423 177.146 145.977 176.577 145.643C176.238 145.394 176.038 145.14 176.151 144.71C177.369 144.902 178.08 145.837 178.906 146.605C178.867 147.045 178.559 147.126 178.201 147.139C178.146 147.077 178.092 147.014 178.037 146.953Z" fill="#C5B8AD"/>
<path fill-rule="evenodd" clip-rule="evenodd" d="M122.407 155.429C122.111 154.713 121.818 153.995 121.519 153.281C121.415 153.031 121.306 152.764 121.604 152.599C121.949 152.408 122.147 152.657 122.263 152.936C122.603 153.757 122.923 154.586 123.251 155.41C122.98 155.903 122.698 155.856 122.407 155.429Z" fill="#C7B9AD"/>
<path fill-rule="evenodd" clip-rule="evenodd" d="M122.406 155.429C122.526 155.529 122.677 155.582 122.832 155.579C122.987 155.576 123.136 155.516 123.251 155.411C123.598 156.462 123.945 157.513 124.291 158.564C123.928 158.653 123.878 159.06 123.608 159.244C123.207 157.971 122.807 156.7 122.406 155.429Z" fill="#3C1F1B"/>
<path fill-rule="evenodd" clip-rule="evenodd" d="M197.84 158.213C198.353 157.831 198.822 158.109 199.245 158.363C199.773 158.679 200.253 159.075 200.754 159.436C200.863 159.856 200.839 160.313 200.284 160.023C199.461 159.547 198.666 159.023 197.904 158.453C197.853 158.418 197.86 158.295 197.84 158.213Z" fill="#C5B8AD"/>
<path fill-rule="evenodd" clip-rule="evenodd" d="M123.608 159.243C123.65 158.932 123.431 158.545 123.802 158.333C124.002 158.218 124.13 158.476 124.291 158.564C124.464 159.486 125.035 160.307 124.969 161.287C124.814 161.349 124.642 161.349 124.487 161.288C124.332 161.227 124.206 161.109 124.134 160.958C124.033 160.366 123.857 159.789 123.608 159.243Z" fill="#C7BBAE"/>
<path fill-rule="evenodd" clip-rule="evenodd" d="M126.345 166.46C126.189 166.436 126.044 166.364 125.93 166.254C125.816 166.144 125.739 166.002 125.708 165.846C125.534 165.274 125.368 164.7 125.211 164.122C125.101 163.72 125.219 163.446 125.674 163.401C126.157 164.364 126.674 165.318 126.345 166.46Z" fill="#C5B8AD"/>
<path fill-rule="evenodd" clip-rule="evenodd" d="M180.43 148.687C180.437 148.412 180.478 148.17 180.838 148.17C181.425 148.168 182.901 149.448 183.016 150.066C182.915 150.144 182.788 150.183 182.661 150.174C182.533 150.165 182.413 150.109 182.323 150.018C181.706 149.556 181.063 149.129 180.43 148.687Z" fill="#C5B8AD"/>
<path fill-rule="evenodd" clip-rule="evenodd" d="M189.739 154.57C189.766 154.332 189.828 154.121 190.113 154.077C190.571 154.008 192.281 155.106 192.496 155.608C192.388 155.7 192.255 155.758 192.114 155.775C191.973 155.791 191.831 155.766 191.704 155.701C191.046 155.33 190.393 154.948 189.739 154.57Z" fill="#C7B9AD"/>
<path fill-rule="evenodd" clip-rule="evenodd" d="M220.221 180.87C221.185 180.859 220.801 181.614 220.907 182.09C220.9 182.404 220.877 182.717 220.836 183.028C220.834 183.094 220.817 183.158 220.787 183.216C220.757 183.274 220.714 183.325 220.662 183.364C220.61 183.404 220.55 183.431 220.486 183.444C220.422 183.457 220.356 183.456 220.293 183.44C219.993 183.383 219.797 183.136 219.902 182.882C220.173 182.229 219.881 181.5 220.221 180.87Z" fill="#C7BCB0"/>
<path fill-rule="evenodd" clip-rule="evenodd" d="M229.185 177.778C229.643 177.807 229.711 178.119 229.707 178.494C229.698 179.289 229.697 180.084 229.693 180.878C229.357 181.079 229.025 181.057 229.023 180.62C229.02 179.672 228.797 178.704 229.185 177.778Z" fill="#C3B7AB"/>
<path fill-rule="evenodd" clip-rule="evenodd" d="M229.51 184.672C229.291 184.671 229.072 184.67 228.854 184.669C228.969 183.968 229.017 183.258 228.996 182.547C228.99 182.297 228.966 181.971 229.32 181.954C229.747 181.932 229.72 182.298 229.701 182.57C229.651 183.271 229.886 184.001 229.51 184.672Z" fill="#C3B7A9"/>
<path fill-rule="evenodd" clip-rule="evenodd" d="M155.304 136.934C154.888 137.11 154.4 137.462 154.432 136.567C154.826 136.336 155.135 135.984 155.315 135.563C156.114 134.878 156.166 134.885 156.345 135.705C155.998 136.115 155.651 136.525 155.304 136.934Z" fill="#C5B8AD"/>
<path fill-rule="evenodd" clip-rule="evenodd" d="M223.15 168.936C223.443 168.571 223.299 168.304 222.962 168.079C223.614 168.134 224.259 168.251 224.889 168.429C225.145 168.548 225.468 168.673 225.332 169.05C225.215 169.378 224.909 169.28 224.663 169.235C224.157 169.145 223.655 169.037 223.15 168.936Z" fill="#3C1F1B"/>
<path fill-rule="evenodd" clip-rule="evenodd" d="M209.564 155.575C208.705 155.353 207.803 155.235 207.117 154.58C207.932 154.635 208.75 154.573 209.547 154.396C209.885 154.785 209.298 155.186 209.564 155.575Z" fill="#CFC5C0"/>
<path fill-rule="evenodd" clip-rule="evenodd" d="M143.25 145.398C143.205 145.926 143.56 145.935 143.93 145.925C143.436 146.39 142.83 146.719 142.172 146.878C141.933 146.966 141.692 146.945 141.612 146.678C141.531 146.415 141.747 146.243 141.955 146.163C142.443 146.019 142.887 145.756 143.25 145.398Z" fill="#3C1F1B"/>
<path fill-rule="evenodd" clip-rule="evenodd" d="M157.591 161.052C157.399 161.048 157.215 160.969 157.079 160.832C156.944 160.695 156.866 160.51 156.863 160.317C156.846 160.231 156.848 160.143 156.87 160.059C156.892 159.974 156.934 159.896 156.991 159.83C157.048 159.764 157.12 159.713 157.2 159.679C157.28 159.646 157.367 159.631 157.454 159.637C157.547 159.638 157.64 159.657 157.726 159.693C157.813 159.73 157.891 159.783 157.957 159.85C158.023 159.917 158.075 159.997 158.11 160.084C158.145 160.171 158.163 160.265 158.162 160.359C158.173 160.443 158.166 160.528 158.143 160.609C158.12 160.69 158.08 160.765 158.026 160.83C157.973 160.896 157.907 160.949 157.832 160.987C157.757 161.025 157.675 161.047 157.591 161.052Z" fill="#3C1F1B"/>
<path fill-rule="evenodd" clip-rule="evenodd" d="M193.856 168.43C193.795 168.801 193.606 169.085 193.204 169.105C193.117 169.118 193.028 169.11 192.945 169.083C192.861 169.056 192.785 169.01 192.722 168.948C192.659 168.886 192.611 168.811 192.582 168.728C192.553 168.644 192.544 168.555 192.555 168.468C192.55 168.373 192.566 168.277 192.601 168.189C192.637 168.1 192.691 168.021 192.76 167.955C192.828 167.89 192.911 167.84 193 167.809C193.09 167.778 193.186 167.768 193.28 167.777C193.361 167.782 193.44 167.802 193.512 167.838C193.585 167.873 193.65 167.922 193.703 167.983C193.757 168.044 193.798 168.115 193.824 168.191C193.85 168.268 193.861 168.349 193.856 168.43Z" fill="#3C1F1B"/>
<path fill-rule="evenodd" clip-rule="evenodd" d="M182.091 165.584C182.071 165.949 181.905 166.199 181.526 166.193C181.426 166.201 181.325 166.186 181.231 166.151C181.137 166.116 181.052 166.061 180.981 165.989C180.91 165.918 180.856 165.832 180.821 165.737C180.787 165.643 180.773 165.542 180.781 165.441C180.773 165.362 180.781 165.282 180.806 165.207C180.83 165.131 180.87 165.062 180.923 165.003C180.976 164.944 181.041 164.896 181.113 164.864C181.185 164.832 181.263 164.815 181.342 164.815C181.837 164.796 182.001 165.171 182.091 165.584Z" fill="#3C1F1B"/>
<path fill-rule="evenodd" clip-rule="evenodd" d="M205.17 171.372C204.998 171.363 204.837 171.287 204.719 171.161C204.601 171.035 204.536 170.868 204.536 170.695C204.527 170.615 204.536 170.534 204.562 170.459C204.589 170.383 204.633 170.314 204.69 170.258C204.748 170.202 204.818 170.16 204.894 170.136C204.97 170.111 205.051 170.105 205.13 170.117C205.217 170.11 205.304 170.123 205.386 170.153C205.467 170.184 205.541 170.232 205.602 170.294C205.663 170.357 205.709 170.432 205.738 170.514C205.767 170.597 205.777 170.685 205.769 170.772C205.776 170.852 205.765 170.934 205.738 171.01C205.71 171.086 205.666 171.155 205.609 171.213C205.552 171.27 205.483 171.314 205.407 171.342C205.332 171.369 205.251 171.38 205.17 171.372Z" fill="#3C1F1B"/>
<path fill-rule="evenodd" clip-rule="evenodd" d="M169.799 163.578C169.719 163.588 169.638 163.579 169.561 163.554C169.485 163.529 169.415 163.487 169.356 163.431C169.298 163.376 169.252 163.308 169.223 163.233C169.193 163.157 169.18 163.076 169.185 162.996C169.175 162.916 169.183 162.836 169.207 162.759C169.231 162.683 169.272 162.613 169.326 162.555C169.38 162.496 169.447 162.451 169.521 162.421C169.594 162.391 169.674 162.378 169.753 162.382C169.825 162.378 169.898 162.39 169.965 162.415C170.033 162.441 170.094 162.48 170.145 162.531C170.197 162.582 170.237 162.643 170.264 162.711C170.29 162.778 170.302 162.851 170.3 162.923C170.316 163 170.315 163.079 170.297 163.156C170.28 163.232 170.246 163.304 170.199 163.366C170.151 163.428 170.091 163.479 170.022 163.516C169.953 163.552 169.877 163.574 169.799 163.578Z" fill="#3C1F1B"/>
<path fill-rule="evenodd" clip-rule="evenodd" d="M226.757 161.175C226.644 161.15 226.528 161.151 226.416 161.179C226.304 161.207 226.201 161.26 226.113 161.335C225.877 160.962 225.565 160.606 225.702 160.119C225.732 160.052 225.788 160.001 225.856 159.975C225.924 159.95 226 159.952 226.066 159.983C226.537 160.194 226.61 160.666 226.751 161.09C226.756 161.118 226.758 161.146 226.757 161.175Z" fill="#3C1F1B"/>
<path fill-rule="evenodd" clip-rule="evenodd" d="M166.502 132.232C165.974 131.9 165.254 132.216 164.773 131.72C165.107 131.804 165.457 131.801 165.789 131.711C166.121 131.62 166.425 131.445 166.67 131.203C166.615 131.547 166.559 131.89 166.502 132.232Z" fill="#CBBEB7"/>
<path fill-rule="evenodd" clip-rule="evenodd" d="M83.7478 141.002C83.7662 140.599 83.7705 140.195 83.8079 139.793C83.8312 139.36 83.9936 138.945 84.2707 138.612C84.5479 138.279 84.925 138.045 85.3455 137.945C85.8012 137.797 86.2939 137.813 86.7391 137.991C87.1843 138.168 87.5541 138.496 87.7852 138.917C87.9119 139.14 88.2308 139.439 87.8819 139.64C87.745 139.724 87.5823 139.754 87.4244 139.726C87.2665 139.698 87.1244 139.612 87.025 139.486C86.9002 139.294 86.7446 139.125 86.5645 138.985C86.4013 138.877 86.2138 138.812 86.0191 138.795C85.8244 138.778 85.6286 138.811 85.4495 138.89C85.2704 138.968 85.1138 139.091 84.9939 139.246C84.8739 139.401 84.7944 139.584 84.7627 139.778C84.6095 140.572 84.6105 141.388 84.7654 142.182C84.8041 142.459 84.9452 142.71 85.1605 142.886C85.3757 143.062 85.6493 143.15 85.9264 143.133C86.1874 143.149 86.4463 143.075 86.6596 142.923C86.8728 142.771 87.0276 142.55 87.0979 142.296C87.2531 141.844 87.2289 141.499 86.5907 141.562C86.2539 141.596 85.8757 141.64 85.9115 141.077C85.9443 140.55 86.3326 140.673 86.6051 140.697C87.0987 140.74 87.8148 140.405 88.0371 140.893C88.1512 141.206 88.1996 141.54 88.1792 141.872C88.1589 142.205 88.0703 142.53 87.919 142.826C87.7147 143.278 87.3606 143.643 86.9174 143.86C86.4742 144.078 85.9695 144.133 85.4901 144.017C85.0312 143.954 84.6095 143.729 84.3008 143.382C83.992 143.035 83.8163 142.589 83.8051 142.123C83.772 141.751 83.7662 141.376 83.7478 141.002Z" fill="#DCCDB3"/>
<path fill-rule="evenodd" clip-rule="evenodd" d="M82.8173 140.953C82.8188 141.326 82.8402 141.701 82.8145 142.072C82.8132 142.346 82.7559 142.617 82.646 142.868C82.5361 143.119 82.3761 143.345 82.1757 143.531C81.9754 143.717 81.7391 143.86 81.4816 143.95C81.224 144.041 80.9507 144.077 80.6786 144.057C80.4064 144.071 80.1343 144.03 79.878 143.937C79.6218 143.844 79.3865 143.7 79.186 143.515C78.9854 143.329 78.8236 143.106 78.7099 142.857C78.5962 142.608 78.5329 142.339 78.5237 142.065C78.4761 141.32 78.4775 140.572 78.528 139.827C78.5435 139.554 78.6128 139.286 78.7321 139.039C78.8514 138.793 79.0181 138.573 79.2227 138.392C79.4273 138.21 79.6656 138.072 79.9239 137.984C80.1822 137.896 80.4553 137.861 80.7273 137.88C80.9924 137.868 81.2573 137.909 81.5064 138.001C81.7555 138.094 81.9838 138.235 82.178 138.417C82.3721 138.599 82.5282 138.818 82.6371 139.061C82.746 139.304 82.8055 139.567 82.8122 139.834C82.8402 140.205 82.8165 140.579 82.8173 140.953Z" fill="#DCCDB3"/>
<path fill-rule="evenodd" clip-rule="evenodd" d="M93.3221 140.985C93.3209 141.359 93.3436 141.734 93.3166 142.105C93.3123 142.372 93.2543 142.635 93.1463 142.879C93.0382 143.124 92.8822 143.343 92.6877 143.525C92.4931 143.708 92.264 143.848 92.014 143.939C91.764 144.03 91.4983 144.07 91.2329 144.055C90.9611 144.075 90.688 144.041 90.4294 143.955C90.1708 143.868 89.932 143.73 89.7268 143.55C89.5216 143.37 89.3541 143.15 89.2341 142.904C89.1141 142.659 89.044 142.391 89.0278 142.118C88.9791 141.372 88.9771 140.624 89.022 139.878C89.032 139.605 89.0956 139.335 89.2093 139.086C89.323 138.838 89.4846 138.614 89.6846 138.428C89.8847 138.242 90.1193 138.097 90.3751 138.002C90.6309 137.908 90.9028 137.865 91.1751 137.876C91.4475 137.858 91.7206 137.896 91.9779 137.988C92.2352 138.079 92.4713 138.223 92.6718 138.409C92.8723 138.595 93.033 138.82 93.1442 139.071C93.2554 139.321 93.3147 139.592 93.3186 139.866C93.3443 140.238 93.3229 140.612 93.3221 140.985Z" fill="#DCCDB3"/>
<path fill-rule="evenodd" clip-rule="evenodd" d="M73.9703 140.913C73.9696 140.193 73.9489 139.473 73.9789 138.755C73.9925 138.438 73.7609 137.941 74.4011 137.927C75.1106 137.911 74.8615 138.457 74.8681 138.796C74.8946 140.032 74.8953 141.269 74.8701 142.506C74.86 142.985 75.0011 143.182 75.4989 143.154C76.127 143.119 76.759 143.156 77.3886 143.144C77.7098 143.138 77.8534 143.252 77.8521 143.592C77.8506 143.944 77.6767 144.028 77.3707 144.026C76.3979 144.018 75.4237 144.008 74.451 144.029C73.9812 144.038 73.9653 143.76 73.9683 143.416C73.9754 142.581 73.9703 141.747 73.9703 140.913Z" fill="#DCCDB3"/>
<path fill-rule="evenodd" clip-rule="evenodd" d="M217.237 201.474C214.44 201.474 212.345 201.472 210.249 201.474C207.676 201.476 205.09 201.318 202.533 201.523C198.822 201.821 195.103 201.847 191.395 202.131C189.8 202.254 188.192 202.246 186.589 202.321C182.818 202.497 179.046 202.645 175.285 203.008C172.838 203.243 170.379 203.353 167.929 203.559C164.91 203.813 161.897 204.123 158.879 204.379C157.027 204.538 155.17 204.633 153.316 204.772C149.61 205.048 145.905 205.34 142.199 205.616C136.332 206.052 130.455 206.073 124.579 205.941C121.123 205.864 117.678 205.462 114.224 205.256C110.656 205.042 107.083 204.839 103.526 204.528C99.0829 204.101 94.6765 203.352 90.3412 202.285C85.5982 201.161 80.9956 199.543 76.3437 198.099C71.2806 196.514 66.3369 194.567 61.5507 192.271C61.1124 192.061 60.6968 191.8 60.279 191.548C60.0251 191.396 59.5924 191.287 59.8119 190.877C60.018 190.492 60.3721 190.699 60.636 190.87C61.6379 191.489 62.6927 192.017 63.788 192.448C68.2295 194.387 72.7699 196.089 77.3901 197.546C80.1632 198.371 82.9278 199.228 85.684 200.117C89.3501 201.254 93.0956 202.114 96.8893 202.689C99.06 203.046 101.216 203.506 103.415 203.674C104.469 203.754 105.525 203.87 106.581 203.886C109.96 203.934 113.31 204.434 116.681 204.549C118.829 204.622 120.957 204.903 123.104 204.996C125.101 205.084 127.124 205.248 129.101 205.19C131.875 205.108 134.658 205.308 137.428 204.986C138.706 204.838 139.999 204.899 141.286 204.793C145.589 204.441 149.901 204.198 154.207 203.882C157.798 203.618 161.394 203.379 164.975 203.006C169.243 202.563 173.523 202.33 177.795 201.972C180.647 201.733 183.504 201.628 186.359 201.466C189.619 201.28 192.892 201.302 196.143 201.081C201.322 200.73 206.497 200.538 211.684 200.622C213.832 200.658 215.977 200.852 218.128 200.773C222.82 200.6 227.513 200.428 232.202 200.215C236.375 200.04 240.523 199.476 244.592 198.528C245.322 198.374 246.035 198.151 246.723 197.863C249.392 196.665 252.229 195.874 254.814 194.477C254.838 194.461 254.864 194.448 254.891 194.439C255.348 194.337 255.927 193.71 256.23 194.396C256.52 195.049 255.679 194.979 255.344 195.144C251.856 196.957 248.185 198.391 244.395 199.424C241.394 200.166 238.332 200.629 235.248 200.81C231.59 201.042 227.93 201.186 224.271 201.357C221.689 201.479 219.112 201.391 217.237 201.474Z" fill="#C3B5A8"/>
<path fill-rule="evenodd" clip-rule="evenodd" d="M217.444 189.359C213.387 189.13 209.5 189.032 205.635 188.542C203.681 188.294 201.7 188.227 199.729 188.167C195.698 188.066 191.676 187.73 187.684 187.16C187.173 187.076 186.65 187.101 186.149 187.233C185.846 187.316 185.44 187.379 185.337 186.989C185.203 186.482 185.712 186.567 185.966 186.512C187.331 186.326 188.718 186.379 190.065 186.666C191.714 186.882 193.368 186.957 195.018 187.092C199.234 187.436 203.468 187.448 207.682 187.915C210.175 188.19 212.699 188.3 215.219 188.378C219.012 188.497 222.741 188.007 226.489 187.64C232.047 187.172 237.556 186.239 242.959 184.851C247.134 183.718 251.289 182.51 255.456 181.348C255.932 181.215 256.666 180.943 256.787 181.565C256.917 182.233 256.112 182.013 255.692 182.134C253.106 182.88 250.515 183.611 247.933 184.375C243.805 185.666 239.593 186.671 235.328 187.381C231.745 187.919 228.152 188.455 224.524 188.71C222.105 188.88 219.691 189.187 217.444 189.359Z" fill="#C3B5A8"/>
<path fill-rule="evenodd" clip-rule="evenodd" d="M97.4226 178.354C94.8943 177.862 92.3829 177.293 89.8652 176.759C85.3421 175.8 80.999 174.247 76.573 172.968C74.4618 172.358 72.3418 171.741 70.173 171.334C69.7565 171.23 69.3522 171.082 68.9672 170.892C68.9109 170.876 68.8588 170.848 68.8148 170.809C68.7708 170.77 68.7361 170.722 68.7132 170.668C68.6903 170.614 68.6798 170.556 68.6826 170.497C68.6853 170.438 68.7011 170.381 68.729 170.329C68.8397 170.097 69.055 170.144 69.2553 170.199C73.6735 171.392 78.1172 172.473 82.4754 173.904C87.3149 175.411 92.2498 176.589 97.2467 177.43C97.5957 177.494 98.0635 177.506 98.0186 178.03C97.9949 178.303 97.7246 178.436 97.4226 178.354Z" fill="#C3B5AA"/>
<path fill-rule="evenodd" clip-rule="evenodd" d="M139.616 120.12C140 119.582 140.413 119.063 140.76 118.501C140.841 118.332 140.978 118.197 141.147 118.118C141.317 118.039 141.508 118.021 141.689 118.068C141.617 119.02 140.968 119.642 140.387 120.283C140.132 120.564 139.778 120.624 139.616 120.12Z" fill="#C5B8AB"/>
<path fill-rule="evenodd" clip-rule="evenodd" d="M131.526 129.31C130.797 128.569 130.784 127.639 130.836 126.691C131.396 126.652 131.608 127.017 131.672 127.479C131.696 127.931 131.826 128.372 132.052 128.765C132.371 129.256 131.864 129.275 131.526 129.31Z" fill="#C5B8AD"/>
<path fill-rule="evenodd" clip-rule="evenodd" d="M136 122.89C136.509 122.398 136.987 121.875 137.431 121.323C137.605 121.062 137.872 121.111 138.091 121.329C138.045 122.201 137.409 122.673 136.809 123.132C136.749 123.196 136.673 123.242 136.588 123.264C136.504 123.287 136.414 123.286 136.331 123.26C136.247 123.235 136.172 123.187 136.113 123.122C136.055 123.057 136.016 122.976 136 122.89Z" fill="#C5B8AD"/>
<path fill-rule="evenodd" clip-rule="evenodd" d="M132.543 125.311C133.009 124.503 133.863 124.293 134.624 123.939C134.698 124.027 134.746 124.134 134.761 124.248C134.777 124.362 134.76 124.478 134.712 124.582C134.445 124.883 134.105 125.109 133.724 125.236C133.344 125.364 132.936 125.39 132.543 125.311Z" fill="#C5B8AB"/>
<path fill-rule="evenodd" clip-rule="evenodd" d="M141.704 117.518C141.972 116.911 142.379 116.377 142.893 115.96C143.697 116.593 142.928 117.001 142.65 117.439C142.416 117.807 142.061 118.002 141.704 117.518Z" fill="#C7BBAE"/>
<path fill-rule="evenodd" clip-rule="evenodd" d="M143.384 114.919C143.452 114.635 143.52 114.352 143.588 114.068C143.837 113.97 144.16 113.486 144.323 113.982C144.393 114.215 144.392 114.464 144.323 114.698C144.253 114.932 144.116 115.139 143.93 115.296C143.571 115.576 143.471 115.193 143.384 114.919Z" fill="#C7BBAE"/>
<path fill-rule="evenodd" clip-rule="evenodd" d="M81.9562 141.069C81.9509 141.453 81.9139 141.836 81.8455 142.214C81.7793 142.487 81.6206 142.728 81.3967 142.895C81.1729 143.063 80.8979 143.146 80.6192 143.132C80.3404 143.117 80.0755 143.006 79.87 142.816C79.6645 142.626 79.5314 142.37 79.4935 142.092C79.4 141.378 79.3953 140.654 79.4794 139.939C79.5007 139.644 79.6281 139.368 79.8377 139.161C80.0473 138.955 80.3247 138.832 80.6179 138.817C80.911 138.801 81.1998 138.894 81.4298 139.077C81.6599 139.26 81.8155 139.522 81.8674 139.812C81.929 140.228 81.9587 140.648 81.9562 141.069Z" fill="#3C1F1B"/>
<path fill-rule="evenodd" clip-rule="evenodd" d="M92.4152 140.959C92.4659 141.417 92.4322 141.881 92.3158 142.327C92.2284 142.578 92.0608 142.793 91.8391 142.938C91.6174 143.084 91.3541 143.151 91.0902 143.131C90.8263 143.11 90.5766 143.002 90.38 142.824C90.1835 142.646 90.0511 142.407 90.0035 142.145C89.8905 141.433 89.8787 140.709 89.9684 139.993C89.9654 139.833 89.9953 139.675 90.0564 139.527C90.1174 139.38 90.2083 139.247 90.3231 139.136C90.438 139.026 90.5744 138.94 90.7237 138.886C90.873 138.831 91.032 138.808 91.1907 138.818C91.9681 138.81 92.3072 139.315 92.4074 140.011C92.4322 140.327 92.4348 140.644 92.4152 140.959Z" fill="#3C1F1B"/>
</g>
<defs>
<clipPath id="clip0_1425_10274">
<rect width="210" height="102" fill="white" transform="translate(55 109)"/>
</clipPath>
</defs>
</svg>
