<svg width="320" height="320" viewBox="0 0 320 320" fill="none" xmlns="http://www.w3.org/2000/svg">
<g clip-path="url(#clip0_1426_19127)">
<rect width="320" height="320" fill="#DCFFE0"/>
<path d="M77.0348 77.5122C76.7819 74.8566 78.7297 72.4991 81.385 72.2461L209.605 60.0356C212.26 59.7829 214.618 61.7305 214.871 64.3861L230.744 231.071C230.997 233.727 229.049 236.085 226.394 236.338L98.1744 248.548C95.5189 248.801 93.1611 246.853 92.9082 244.198L77.0348 77.5122Z" fill="#DCCDB3"/>
<path fill-rule="evenodd" clip-rule="evenodd" d="M75.0313 77.702C74.6729 73.94 77.4323 70.6 81.1942 70.2418L209.414 58.0313C213.176 57.6731 216.516 60.4322 216.874 64.1942L232.748 230.88C233.106 234.642 230.347 237.982 226.585 238.34L98.3651 250.551C94.6031 250.909 91.2629 248.149 90.9047 244.387L75.0313 77.702ZM81.5757 74.2486C80.0268 74.396 78.8907 75.7713 79.0381 77.3205L94.9115 244.006C95.0592 245.555 96.4344 246.691 97.9834 246.543L226.203 234.333C227.752 234.186 228.888 232.81 228.741 231.261L212.867 64.5759C212.72 63.0267 211.344 61.8906 209.795 62.0381L81.5757 74.2486Z" fill="#3C1F1B"/>
<path d="M104.316 87.7182C104.316 85.0506 106.479 82.8881 109.146 82.8881H237.946C240.614 82.8881 242.776 85.0506 242.776 87.7182V255.158C242.776 257.825 240.614 259.988 237.946 259.988H109.146C106.479 259.988 104.316 257.825 104.316 255.158V87.7182Z" fill="white"/>
<path fill-rule="evenodd" clip-rule="evenodd" d="M102.305 87.7181C102.305 83.9392 105.368 80.8756 109.147 80.8756H237.947C241.726 80.8756 244.789 83.9392 244.789 87.7181V255.158C244.789 258.936 241.726 262 237.947 262H109.147C105.368 262 102.305 258.936 102.305 255.158V87.7181ZM109.147 84.9006C107.591 84.9006 106.33 86.162 106.33 87.7181V255.158C106.33 256.714 107.591 257.975 109.147 257.975H237.947C239.503 257.975 240.764 256.714 240.764 255.158V87.7181C240.764 86.162 239.503 84.9006 237.947 84.9006H109.147Z" fill="#3C1F1B"/>
<path d="M226.452 187.494H171.35C169.219 187.494 167.491 189.221 167.491 191.352V227.608C167.491 229.739 169.219 231.466 171.35 231.466H226.452C228.583 231.466 230.311 229.739 230.311 227.608V191.352C230.311 189.221 228.583 187.494 226.452 187.494Z" fill="white"/>
<g clip-path="url(#clip1_1426_19127)">
<path d="M181.706 141.437C179.072 143.37 175.961 144.549 172.707 144.847C172.122 142.446 171.042 140.193 169.535 138.234C167.261 135.161 163.309 133.615 158.417 133.933C157.298 134.002 156.242 134.476 155.448 135.267C154.654 136.058 154.176 137.112 154.103 138.23L152.553 157.845L138.792 190.982L128.904 199.441C126.77 201.283 125.407 203.86 125.088 206.661C124.769 209.462 125.516 212.28 127.181 214.555L129.227 217.313C129.769 218.041 130.458 218.647 131.249 219.091C132.041 219.535 132.917 219.807 133.82 219.889C134.581 219.958 135.465 220.003 136.455 220.003C144.063 219.923 151.439 217.379 157.479 212.753L212.328 172.196C214.886 170.303 221.026 165.231 222.795 159.036V159.026C223.118 157.93 223.076 156.758 222.674 155.688C222.273 154.618 221.534 153.707 220.57 153.094C218.216 151.506 216.356 149.289 215.201 146.696C210.444 137.478 203.647 129.467 195.327 123.272C194.205 122.469 192.86 122.035 191.48 122.032C190.1 122.028 188.753 122.456 187.627 123.254C186.725 123.926 186.015 124.822 185.569 125.854C185.122 126.886 184.954 128.017 185.083 129.134C185.457 132.515 185.512 138.624 181.706 141.437ZM157.36 138.497C157.372 138.164 157.507 137.847 157.739 137.608C157.971 137.369 158.284 137.224 158.616 137.201C161.27 137.048 164.867 137.424 166.907 140.184C168.004 141.615 168.84 143.229 169.375 144.952C168.467 144.911 167.563 144.822 166.665 144.684C166.091 144.587 165.51 144.537 164.927 144.535C162.732 144.527 160.593 145.225 158.827 146.528C157.942 147.197 157.17 148.004 156.54 148.917L157.36 138.497ZM146.363 181.274L155.289 178.724C155.69 178.593 156.025 178.312 156.224 177.94C156.423 177.567 156.47 177.133 156.355 176.726C156.24 176.32 155.972 175.974 155.608 175.761C155.243 175.548 154.811 175.484 154.4 175.583L147.965 177.417L149.641 173.383L157.562 171.124C157.979 171.005 158.332 170.726 158.542 170.347C158.753 169.968 158.804 169.521 158.685 169.105C158.566 168.688 158.287 168.335 157.908 168.125C157.529 167.914 157.082 167.863 156.666 167.982L151.241 169.528L152.916 165.499L159.834 163.524C160.251 163.405 160.604 163.126 160.814 162.747C161.025 162.368 161.076 161.921 160.957 161.505C160.838 161.088 160.559 160.736 160.18 160.525C159.801 160.314 159.354 160.263 158.938 160.382L154.516 161.644L156.197 157.607L162.111 155.923C162.528 155.804 162.881 155.525 163.092 155.147C163.302 154.768 163.354 154.321 163.236 153.905C163.117 153.488 162.838 153.135 162.46 152.925C162.081 152.714 161.635 152.662 161.218 152.78L157.798 153.76L158.5 152.068C158.977 150.906 159.762 149.895 160.77 149.146C161.976 148.263 163.433 147.79 164.927 147.797C165.336 147.8 165.743 147.835 166.146 147.903C167.466 148.11 168.8 148.219 170.136 148.23L159.607 178.404C159.176 179.638 158.495 180.771 157.605 181.729C156.716 182.688 155.638 183.453 154.44 183.975L143.215 188.854L146.363 181.274ZM176.579 194.571L155.534 210.127C149.44 214.861 141.812 217.179 134.114 216.634C133.668 216.596 133.236 216.464 132.845 216.246C132.454 216.027 132.115 215.728 131.849 215.368L130.993 214.213C131.681 214.283 132.371 214.317 133.062 214.318C137.521 214.318 143.901 212.926 151.49 207.314C155.926 204.034 159.923 200.198 163.384 195.9C167.71 190.473 172.977 185.868 178.931 182.303C177.584 186.264 176.79 190.392 176.574 194.571H176.579ZM180.009 192.032C180.775 185.029 183.274 178.326 187.281 172.531C191.288 166.735 196.676 162.03 202.958 158.84C202.958 158.856 202.966 158.874 202.972 158.891L208.088 171.271L180.009 192.032ZM218.883 155.888C219.237 156.131 219.503 156.483 219.642 156.889C219.78 157.296 219.783 157.737 219.65 158.146C218.643 161.667 215.337 165.791 210.785 169.252L205.989 157.643C205.588 156.67 205.523 155.592 205.804 154.579C206.085 153.566 206.696 152.675 207.541 152.048L212.411 148.447C213.834 151.482 216.075 154.059 218.883 155.888ZM188.33 128.767C188.261 128.223 188.338 127.67 188.553 127.166C188.767 126.661 189.112 126.222 189.551 125.894C190.11 125.499 190.777 125.288 191.461 125.288C192.146 125.288 192.813 125.499 193.372 125.894C200.464 131.198 206.42 137.872 210.886 145.52L205.599 149.43C204.652 150.134 203.874 151.04 203.321 152.081C202.767 153.123 202.453 154.275 202.401 155.454C192.953 160.08 185.372 167.797 180.914 177.324C169.264 183.979 165.002 188.967 160.898 193.78C157.594 197.885 153.779 201.551 149.546 204.689C139.032 212.462 131.294 211.223 128.719 210.455C128.213 208.964 128.162 207.356 128.573 205.836C128.985 204.317 129.84 202.954 131.029 201.922L141.04 193.36L155.74 186.971C157.351 186.267 158.801 185.238 159.996 183.949C161.192 182.659 162.109 181.137 162.69 179.477L173.674 148.019C177.283 147.578 180.719 146.217 183.652 144.066C188.767 140.277 188.779 132.855 188.33 128.767Z" fill="#3C1F1B"/>
<path d="M192.661 171.047C192.449 171.084 192.247 171.162 192.066 171.277C191.884 171.392 191.727 171.542 191.604 171.717C191.48 171.893 191.393 172.091 191.346 172.301C191.299 172.511 191.294 172.727 191.331 172.939L191.942 176.432C192.008 176.811 192.206 177.154 192.5 177.402C192.794 177.649 193.166 177.785 193.551 177.785C193.646 177.784 193.74 177.777 193.833 177.762C194.045 177.725 194.247 177.647 194.428 177.532C194.609 177.417 194.766 177.267 194.889 177.092C195.013 176.916 195.1 176.718 195.147 176.508C195.194 176.299 195.198 176.082 195.161 175.871L194.55 172.377C194.474 171.951 194.233 171.573 193.879 171.324C193.525 171.075 193.087 170.976 192.661 171.047ZM199.039 166.332C198.612 166.406 198.233 166.647 197.984 167.002C197.735 167.356 197.637 167.795 197.711 168.222L198.32 171.715C198.386 172.094 198.583 172.438 198.877 172.685C199.171 172.933 199.543 173.069 199.927 173.069C200.022 173.069 200.117 173.061 200.21 173.045C200.635 172.97 201.013 172.731 201.262 172.378C201.511 172.025 201.61 171.589 201.538 171.163L200.929 167.668C200.894 167.455 200.817 167.252 200.703 167.069C200.589 166.887 200.44 166.728 200.264 166.604C200.088 166.48 199.889 166.392 199.679 166.345C199.468 166.298 199.251 166.294 199.039 166.332Z" fill="#3C1F1B"/>
</g>
<g style="mix-blend-mode:hue">
<rect width="320" height="320" fill="#00BF13"/>
</g>
</g>
<defs>
<clipPath id="clip0_1426_19127">
<rect width="320" height="320" fill="white"/>
</clipPath>
<clipPath id="clip1_1426_19127">
<rect width="98" height="98" fill="white" transform="translate(125 122)"/>
</clipPath>
</defs>
</svg>
