<svg width="320" height="320" viewBox="0 0 320 320" fill="none" xmlns="http://www.w3.org/2000/svg">
<rect width="320" height="320" fill="#F2F2EA"/>
<g clip-path="url(#clip0_1423_7125)">
<path d="M320 153.852H72.6787V320H320V153.852Z" fill="#8B735A"/>
<path fill-rule="evenodd" clip-rule="evenodd" d="M320.001 139H72.6779H56V153.854V320H72.6779V153.854H320.001V139Z" fill="#3C1F1B"/>
<path d="M91.8301 166.541V190.541H87.4824V170.772H87.3418L81.7285 174.358V170.373L87.6934 166.541H91.8301ZM101.24 190.541H96.5996L105.049 166.541H110.416L118.877 190.541H114.236L107.826 171.463H107.639L101.24 190.541ZM101.393 181.131H114.049V184.623H101.393V181.131ZM125.12 190.541H120.479L128.929 166.541H134.296L142.757 190.541H138.116L131.706 171.463H131.519L125.12 190.541ZM125.272 181.131H137.929V184.623H125.272V181.131ZM154.317 166.541V190.541H149.97V170.772H149.829L144.216 174.358V170.373L150.181 166.541H154.317ZM170.173 166.541V190.541H165.825V170.772H165.685L160.071 174.358V170.373L166.036 166.541H170.173ZM186.028 166.541V190.541H181.681V170.772H181.54L175.927 174.358V170.373L181.892 166.541H186.028ZM201.884 166.541V190.541H197.536V170.772H197.396L191.782 174.358V170.373L197.747 166.541H201.884Z" fill="#3C1F1B"/>
</g>
<defs>
<clipPath id="clip0_1423_7125">
<rect width="264" height="181" fill="white" transform="translate(56 139)"/>
</clipPath>
</defs>
</svg>
