<svg width="320" height="320" viewBox="0 0 320 320" fill="none" xmlns="http://www.w3.org/2000/svg">
<rect width="320" height="320" fill="#F2F2EA"/>
<g clip-path="url(#clip0_1423_5205)">
<path fill-rule="evenodd" clip-rule="evenodd" d="M191.798 142.145C196.64 116.945 188.792 95.2639 170.964 76.3484C159.727 66.0727 145.652 65.5051 137.454 79.5359C125.33 100.283 123.805 122.081 131.584 144.8C138.237 164.232 149.952 169.795 138.4 194.908C130.14 215.632 127.692 256.474 162.287 250.634C179.705 247.693 184.127 229.995 185.488 207.047C186.987 181.683 177.616 179.481 188.384 151.29C189.765 148.338 190.907 145.28 191.798 142.145Z" fill="#DCCDB3" stroke="#3C1F1B" stroke-width="6.4" stroke-miterlimit="2.6131"/>
<path d="M145.73 86.1631H163.62" stroke="#3C1F1B" stroke-width="3.2" stroke-miterlimit="2.6131"/>
<path d="M138.996 95.1708H175.075" stroke="#3C1F1B" stroke-width="3.2" stroke-miterlimit="2.6131"/>
<path d="M137.109 104.179H176.556" stroke="#3C1F1B" stroke-width="3.2" stroke-miterlimit="2.6131"/>
<path d="M137.891 113.187H179.47" stroke="#3C1F1B" stroke-width="3.2" stroke-miterlimit="2.6131"/>
<path d="M137.819 122.194H181.43" stroke="#3C1F1B" stroke-width="3.2" stroke-miterlimit="2.6131"/>
<path d="M138.463 129.39H181.809" stroke="#3C1F1B" stroke-width="3.2" stroke-miterlimit="2.6131"/>
<path d="M138.695 138.348H179.017" stroke="#3C1F1B" stroke-width="3.2" stroke-miterlimit="2.6131"/>
<path d="M141.854 146.702H178.94" stroke="#3C1F1B" stroke-width="3.2" stroke-miterlimit="2.6131"/>
<path d="M145.73 156.162H178.136" stroke="#3C1F1B" stroke-width="3.2" stroke-miterlimit="2.6131"/>
<path d="M150.009 167.938H176.629" stroke="#3C1F1B" stroke-width="3.2" stroke-miterlimit="2.6131"/>
<path d="M152.521 177.801H174.518" stroke="#3C1F1B" stroke-width="3.2" stroke-miterlimit="2.6131"/>
<path d="M151.517 188.269H175.021" stroke="#3C1F1B" stroke-width="3.2" stroke-miterlimit="2.6131"/>
<path d="M145.73 197.931H176.831" stroke="#3C1F1B" stroke-width="3.2" stroke-miterlimit="2.6131"/>
<path d="M143.76 207.593H176.427" stroke="#3C1F1B" stroke-width="3.2" stroke-miterlimit="2.6131"/>
<path d="M142.052 217.254H176.676" stroke="#3C1F1B" stroke-width="3.2" stroke-miterlimit="2.6131"/>
<path d="M140.894 226.917H174.011" stroke="#3C1F1B" stroke-width="3.2" stroke-miterlimit="2.6131"/>
<path d="M145.73 236.579H170.189" stroke="#3C1F1B" stroke-width="3.2" stroke-miterlimit="2.6131"/>
</g>
<defs>
<clipPath id="clip0_1423_5205">
<rect width="72" height="188" fill="white" transform="translate(124 66)"/>
</clipPath>
</defs>
</svg>
