<svg width="645" height="645" viewBox="0 0 645 645" fill="none" xmlns="http://www.w3.org/2000/svg">
<rect width="645" height="645" fill="#EDDBCA"/>
<g clip-path="url(#clip0_34_783)">
<path fill-rule="evenodd" clip-rule="evenodd" d="M181 462L181.954 190C277.154 197.645 371.984 191.568 467 192.352V459.706C371.538 456.911 276.215 457.998 181 462V462ZM203.227 214.504V433.64H442.189C440.147 360.594 445.906 287.549 442.189 214.504H203.227Z" fill="#B4A899"/>
<path d="M293.082 281V266.135H298.105C299.272 266.135 300.225 266.345 300.965 266.766C301.71 267.182 302.262 267.746 302.62 268.457C302.978 269.169 303.157 269.962 303.157 270.838C303.157 271.714 302.978 272.51 302.62 273.226C302.267 273.942 301.72 274.513 300.98 274.939C300.239 275.36 299.291 275.571 298.134 275.571H294.534V273.974H298.076C298.875 273.974 299.516 273.836 300 273.56C300.484 273.284 300.835 272.912 301.052 272.442C301.275 271.968 301.386 271.433 301.386 270.838C301.386 270.243 301.275 269.711 301.052 269.241C300.835 268.772 300.481 268.404 299.993 268.138C299.504 267.867 298.855 267.731 298.047 267.731H294.883V281H293.082ZM323.768 270.78H321.968C321.861 270.262 321.675 269.807 321.409 269.415C321.147 269.023 320.828 268.694 320.451 268.428C320.078 268.157 319.664 267.954 319.209 267.819C318.755 267.683 318.28 267.615 317.787 267.615C316.887 267.615 316.071 267.843 315.341 268.298C314.615 268.752 314.037 269.423 313.606 270.308C313.18 271.194 312.967 272.28 312.967 273.567C312.967 274.854 313.18 275.941 313.606 276.826C314.037 277.712 314.615 278.382 315.341 278.837C316.071 279.292 316.887 279.519 317.787 279.519C318.28 279.519 318.755 279.452 319.209 279.316C319.664 279.181 320.078 278.98 320.451 278.714C320.828 278.443 321.147 278.111 321.409 277.719C321.675 277.322 321.861 276.867 321.968 276.355H323.768C323.632 277.114 323.386 277.794 323.027 278.394C322.669 278.994 322.224 279.505 321.692 279.926C321.16 280.342 320.562 280.659 319.899 280.877C319.241 281.094 318.537 281.203 317.787 281.203C316.519 281.203 315.391 280.894 314.404 280.274C313.417 279.655 312.641 278.774 312.074 277.632C311.508 276.49 311.225 275.135 311.225 273.567C311.225 271.999 311.508 270.645 312.074 269.502C312.641 268.36 313.417 267.48 314.404 266.86C315.391 266.241 316.519 265.931 317.787 265.931C318.537 265.931 319.241 266.04 319.899 266.258C320.562 266.476 321.16 266.795 321.692 267.216C322.224 267.632 322.669 268.14 323.027 268.74C323.386 269.336 323.632 270.015 323.768 270.78ZM326.677 281V266.135H328.477V272.754H336.403V266.135H338.203V281H336.403V274.351H328.477V281H326.677ZM353.595 266.135V281H351.853L343.752 269.328H343.607V281H341.807V266.135H343.549L351.679 277.835H351.824V266.135H353.595Z" fill="#5E4435"/>
<path d="M231 304.123H417.563" stroke="#5E4435" stroke-width="0.5" stroke-miterlimit="2.6131"/>
<path d="M246.286 342L252.934 328.848V328.731H245.269V327.135H254.793V328.819L248.173 342H246.286ZM285.894 338.951V337.471L292.426 327.135H293.501V329.428H292.775L287.839 337.238V337.355H296.636V338.951H285.894ZM292.891 342V338.501V337.812V327.135H294.604V342H292.891ZM304.383 327.135V342H302.583V329.022H302.496L298.866 331.432V329.602L302.583 327.135H304.383ZM342.163 342.203C341.167 342.203 340.286 342.027 339.521 341.673C338.762 341.315 338.169 340.824 337.743 340.2C337.317 339.571 337.107 338.855 337.112 338.051C337.107 337.422 337.23 336.842 337.482 336.309C337.733 335.772 338.077 335.325 338.512 334.966C338.953 334.604 339.444 334.374 339.986 334.277V334.19C339.275 334.006 338.708 333.607 338.287 332.992C337.866 332.373 337.658 331.669 337.663 330.88C337.658 330.125 337.85 329.45 338.237 328.855C338.624 328.26 339.156 327.79 339.834 327.447C340.516 327.103 341.292 326.931 342.163 326.931C343.025 326.931 343.794 327.103 344.472 327.447C345.149 327.79 345.681 328.26 346.069 328.855C346.461 329.45 346.659 330.125 346.664 330.88C346.659 331.669 346.444 332.373 346.018 332.992C345.597 333.607 345.038 334.006 344.341 334.19V334.277C344.878 334.374 345.362 334.604 345.793 334.966C346.223 335.325 346.567 335.772 346.823 336.309C347.08 336.842 347.211 337.422 347.215 338.051C347.211 338.855 346.993 339.571 346.562 340.2C346.136 340.824 345.544 341.315 344.784 341.673C344.029 342.027 343.155 342.203 342.163 342.203ZM342.163 340.606C342.836 340.606 343.417 340.497 343.906 340.28C344.394 340.062 344.772 339.755 345.038 339.358C345.304 338.961 345.44 338.497 345.444 337.964C345.44 337.403 345.294 336.907 345.009 336.476C344.723 336.046 344.334 335.707 343.84 335.46C343.351 335.213 342.793 335.09 342.163 335.09C341.53 335.09 340.963 335.213 340.465 335.46C339.971 335.707 339.582 336.046 339.296 336.476C339.016 336.907 338.878 337.403 338.883 337.964C338.878 338.497 339.006 338.961 339.267 339.358C339.533 339.755 339.913 340.062 340.407 340.28C340.901 340.497 341.486 340.606 342.163 340.606ZM342.163 333.551C342.696 333.551 343.168 333.445 343.579 333.232C343.995 333.019 344.322 332.721 344.559 332.339C344.796 331.957 344.917 331.509 344.922 330.996C344.917 330.493 344.798 330.055 344.566 329.682C344.334 329.305 344.012 329.015 343.601 328.811C343.189 328.603 342.71 328.499 342.163 328.499C341.607 328.499 341.121 328.603 340.705 328.811C340.288 329.015 339.967 329.305 339.739 329.682C339.512 330.055 339.4 330.493 339.405 330.996C339.4 331.509 339.514 331.957 339.746 332.339C339.984 332.721 340.31 333.019 340.726 333.232C341.142 333.445 341.622 333.551 342.163 333.551ZM378.741 342V340.693L383.648 335.322C384.224 334.693 384.698 334.146 385.07 333.682C385.443 333.212 385.719 332.772 385.898 332.361C386.082 331.945 386.174 331.509 386.174 331.054C386.174 330.532 386.048 330.079 385.796 329.697C385.549 329.315 385.211 329.019 384.78 328.811C384.349 328.603 383.866 328.499 383.328 328.499C382.757 328.499 382.259 328.618 381.833 328.855C381.412 329.087 381.086 329.414 380.853 329.835C380.626 330.256 380.512 330.749 380.512 331.315H378.799C378.799 330.444 379 329.68 379.402 329.022C379.803 328.364 380.35 327.851 381.042 327.483C381.739 327.115 382.52 326.931 383.386 326.931C384.257 326.931 385.029 327.115 385.702 327.483C386.375 327.851 386.902 328.347 387.284 328.971C387.667 329.595 387.858 330.29 387.858 331.054C387.858 331.601 387.759 332.136 387.56 332.658C387.367 333.176 387.028 333.754 386.544 334.393C386.065 335.027 385.399 335.801 384.548 336.716L381.209 340.287V340.403H388.119V342H378.741ZM391.581 342L398.23 328.848V328.731H390.565V327.135H400.088V328.819L393.469 342H391.581Z" fill="#5E4435"/>
<path d="M263.85 385V373.851H265.505V375.593H265.65C265.883 374.998 266.258 374.536 266.775 374.207C267.293 373.873 267.915 373.706 268.641 373.706C269.376 373.706 269.988 373.873 270.477 374.207C270.971 374.536 271.355 374.998 271.631 375.593H271.747C272.033 375.017 272.461 374.56 273.032 374.221C273.603 373.878 274.288 373.706 275.086 373.706C276.083 373.706 276.899 374.018 277.532 374.642C278.166 375.261 278.483 376.227 278.483 377.538V385H276.77V377.538C276.77 376.716 276.545 376.128 276.095 375.774C275.645 375.421 275.115 375.245 274.506 375.245C273.722 375.245 273.114 375.482 272.684 375.956C272.253 376.425 272.038 377.02 272.038 377.741V385H270.296V377.364C270.296 376.73 270.09 376.22 269.679 375.832C269.267 375.441 268.738 375.245 268.089 375.245C267.644 375.245 267.228 375.363 266.841 375.6C266.458 375.837 266.149 376.166 265.912 376.587C265.679 377.004 265.563 377.485 265.563 378.032V385H263.85ZM284.896 385.261C284.19 385.261 283.549 385.128 282.973 384.862C282.397 384.591 281.94 384.202 281.601 383.693C281.262 383.181 281.093 382.561 281.093 381.835C281.093 381.197 281.219 380.679 281.47 380.282C281.722 379.88 282.058 379.566 282.479 379.338C282.9 379.111 283.365 378.942 283.873 378.83C284.386 378.714 284.901 378.622 285.419 378.554C286.096 378.467 286.646 378.402 287.067 378.358C287.492 378.31 287.802 378.23 287.996 378.119C288.194 378.008 288.293 377.814 288.293 377.538V377.48C288.293 376.764 288.097 376.208 287.705 375.811C287.318 375.414 286.73 375.216 285.941 375.216C285.124 375.216 284.482 375.395 284.018 375.753C283.553 376.111 283.227 376.493 283.038 376.899L281.412 376.319C281.702 375.641 282.09 375.114 282.574 374.736C283.062 374.354 283.595 374.088 284.17 373.938C284.751 373.783 285.322 373.706 285.883 373.706C286.241 373.706 286.653 373.749 287.117 373.836C287.587 373.919 288.039 374.09 288.475 374.352C288.915 374.613 289.28 375.007 289.571 375.535C289.861 376.062 290.006 376.769 290.006 377.654V385H288.293V383.49H288.206C288.09 383.732 287.896 383.991 287.625 384.267C287.354 384.543 286.994 384.777 286.544 384.971C286.094 385.165 285.545 385.261 284.896 385.261ZM285.158 383.722C285.835 383.722 286.406 383.589 286.871 383.323C287.34 383.057 287.693 382.714 287.93 382.293C288.172 381.872 288.293 381.429 288.293 380.964V379.396C288.221 379.484 288.061 379.563 287.814 379.636C287.572 379.704 287.292 379.764 286.972 379.817C286.658 379.866 286.35 379.909 286.05 379.948C285.755 379.982 285.516 380.011 285.332 380.035C284.887 380.093 284.47 380.188 284.083 380.318C283.701 380.444 283.391 380.635 283.154 380.892C282.922 381.143 282.806 381.487 282.806 381.922C282.806 382.518 283.026 382.968 283.466 383.272C283.911 383.572 284.475 383.722 285.158 383.722ZM297.343 385.232C296.414 385.232 295.593 384.998 294.882 384.528C294.171 384.054 293.614 383.386 293.213 382.525C292.811 381.659 292.61 380.635 292.61 379.454C292.61 378.283 292.811 377.267 293.213 376.406C293.614 375.545 294.173 374.879 294.889 374.41C295.606 373.94 296.433 373.706 297.372 373.706C298.098 373.706 298.671 373.827 299.092 374.069C299.518 374.306 299.842 374.577 300.065 374.882C300.292 375.182 300.469 375.428 300.595 375.622H300.74V370.135H302.453V385H300.798V383.287H300.595C300.469 383.49 300.29 383.747 300.057 384.056C299.825 384.361 299.494 384.635 299.063 384.877C298.632 385.114 298.059 385.232 297.343 385.232ZM297.575 383.693C298.262 383.693 298.843 383.514 299.317 383.156C299.791 382.793 300.152 382.293 300.399 381.654C300.645 381.01 300.769 380.267 300.769 379.425C300.769 378.593 300.648 377.865 300.406 377.241C300.164 376.612 299.806 376.123 299.332 375.774C298.857 375.421 298.272 375.245 297.575 375.245C296.849 375.245 296.244 375.431 295.76 375.803C295.281 376.171 294.921 376.672 294.679 377.306C294.442 377.935 294.323 378.642 294.323 379.425C294.323 380.219 294.444 380.94 294.686 381.588C294.933 382.232 295.296 382.745 295.775 383.127C296.259 383.505 296.859 383.693 297.575 383.693ZM310.502 385.232C309.428 385.232 308.502 384.995 307.722 384.521C306.948 384.042 306.351 383.374 305.93 382.518C305.513 381.656 305.305 380.655 305.305 379.513C305.305 378.371 305.513 377.364 305.93 376.493C306.351 375.617 306.936 374.935 307.686 374.446C308.441 373.953 309.322 373.706 310.328 373.706C310.909 373.706 311.482 373.803 312.049 373.996C312.615 374.19 313.13 374.504 313.595 374.94C314.059 375.37 314.429 375.941 314.705 376.653C314.981 377.364 315.119 378.24 315.119 379.28V380.006H306.525V378.525H313.377C313.377 377.896 313.251 377.335 312.999 376.841C312.753 376.348 312.399 375.958 311.94 375.673C311.485 375.387 310.948 375.245 310.328 375.245C309.646 375.245 309.056 375.414 308.557 375.753C308.064 376.087 307.684 376.522 307.418 377.059C307.151 377.596 307.018 378.172 307.018 378.787V379.774C307.018 380.616 307.164 381.33 307.454 381.915C307.749 382.496 308.158 382.939 308.681 383.243C309.203 383.543 309.811 383.693 310.502 383.693C310.953 383.693 311.359 383.631 311.722 383.505C312.09 383.374 312.407 383.181 312.673 382.924C312.939 382.663 313.145 382.339 313.29 381.951L314.945 382.416C314.77 382.977 314.478 383.471 314.066 383.897C313.655 384.318 313.147 384.647 312.542 384.884C311.937 385.116 311.257 385.232 310.502 385.232ZM323.473 385V373.851H325.186V385H323.473ZM324.344 371.993C324.011 371.993 323.723 371.879 323.481 371.652C323.244 371.424 323.125 371.151 323.125 370.831C323.125 370.512 323.244 370.239 323.481 370.011C323.723 369.784 324.011 369.67 324.344 369.67C324.678 369.67 324.964 369.784 325.201 370.011C325.443 370.239 325.564 370.512 325.564 370.831C325.564 371.151 325.443 371.424 325.201 371.652C324.964 371.879 324.678 371.993 324.344 371.993ZM330.037 378.293V385H328.324V373.851H329.979V375.593H330.124C330.385 375.027 330.782 374.572 331.314 374.228C331.847 373.88 332.534 373.706 333.376 373.706C334.131 373.706 334.791 373.861 335.357 374.17C335.924 374.475 336.364 374.94 336.679 375.564C336.993 376.183 337.15 376.967 337.15 377.916V385H335.437V378.032C335.437 377.156 335.21 376.474 334.755 375.985C334.3 375.491 333.676 375.245 332.882 375.245C332.336 375.245 331.847 375.363 331.416 375.6C330.99 375.837 330.654 376.183 330.407 376.638C330.16 377.093 330.037 377.645 330.037 378.293ZM348.062 370.135V385H346.262V370.135H348.062ZM356.287 373.851V375.303H350.51V373.851H356.287ZM352.194 371.18H353.907V381.806C353.907 382.29 353.977 382.653 354.117 382.895C354.262 383.132 354.446 383.292 354.669 383.374C354.896 383.452 355.136 383.49 355.387 383.49C355.576 383.49 355.731 383.481 355.852 383.461C355.973 383.437 356.07 383.418 356.142 383.403L356.491 384.942C356.375 384.985 356.212 385.029 356.004 385.073C355.796 385.121 355.533 385.145 355.213 385.145C354.729 385.145 354.255 385.041 353.79 384.833C353.331 384.625 352.949 384.308 352.644 383.882C352.344 383.456 352.194 382.919 352.194 382.271V371.18ZM362.145 385.261C361.439 385.261 360.797 385.128 360.222 384.862C359.646 384.591 359.188 384.202 358.85 383.693C358.511 383.181 358.342 382.561 358.342 381.835C358.342 381.197 358.467 380.679 358.719 380.282C358.971 379.88 359.307 379.566 359.728 379.338C360.149 379.111 360.614 378.942 361.122 378.83C361.635 378.714 362.15 378.622 362.668 378.554C363.345 378.467 363.894 378.402 364.315 378.358C364.741 378.31 365.051 378.23 365.244 378.119C365.443 378.008 365.542 377.814 365.542 377.538V377.48C365.542 376.764 365.346 376.208 364.954 375.811C364.567 375.414 363.979 375.216 363.19 375.216C362.372 375.216 361.731 375.395 361.267 375.753C360.802 376.111 360.476 376.493 360.287 376.899L358.661 376.319C358.951 375.641 359.338 375.114 359.822 374.736C360.311 374.354 360.843 374.088 361.419 373.938C362 373.783 362.571 373.706 363.132 373.706C363.49 373.706 363.902 373.749 364.366 373.836C364.836 373.919 365.288 374.09 365.724 374.352C366.164 374.613 366.529 375.007 366.82 375.535C367.11 376.062 367.255 376.769 367.255 377.654V385H365.542V383.49H365.455C365.339 383.732 365.145 383.991 364.874 384.267C364.603 384.543 364.243 384.777 363.793 384.971C363.343 385.165 362.793 385.261 362.145 385.261ZM362.406 383.722C363.084 383.722 363.655 383.589 364.119 383.323C364.589 383.057 364.942 382.714 365.179 382.293C365.421 381.872 365.542 381.429 365.542 380.964V379.396C365.469 379.484 365.31 379.563 365.063 379.636C364.821 379.704 364.54 379.764 364.221 379.817C363.906 379.866 363.599 379.909 363.299 379.948C363.004 379.982 362.764 380.011 362.581 380.035C362.135 380.093 361.719 380.188 361.332 380.318C360.95 380.444 360.64 380.635 360.403 380.892C360.171 381.143 360.055 381.487 360.055 381.922C360.055 382.518 360.275 382.968 360.715 383.272C361.16 383.572 361.724 383.722 362.406 383.722ZM372.095 370.135V385H370.382V370.135H372.095ZM376.335 389.181C376.045 389.181 375.786 389.157 375.559 389.108C375.331 389.065 375.174 389.021 375.087 388.978L375.523 387.468C375.939 387.574 376.306 387.613 376.626 387.584C376.945 387.555 377.228 387.412 377.475 387.156C377.727 386.904 377.957 386.495 378.165 385.929L378.484 385.058L374.361 373.851H376.219L379.297 382.735H379.413L382.491 373.851H384.349L379.616 386.626C379.403 387.202 379.14 387.678 378.825 388.056C378.511 388.438 378.145 388.721 377.729 388.905C377.318 389.089 376.853 389.181 376.335 389.181Z" fill="#5E4435"/>
</g>
<defs>
<clipPath id="clip0_34_783">
<rect width="286" height="272" fill="white" transform="translate(181 190)"/>
</clipPath>
</defs>
</svg>
