<svg width="320" height="320" viewBox="0 0 320 320" fill="none" xmlns="http://www.w3.org/2000/svg">
<g clip-path="url(#clip0_1426_18522)">
<rect width="320" height="320" fill="#DCFFE0"/>
<g clip-path="url(#clip1_1426_18522)">
<path fill-rule="evenodd" clip-rule="evenodd" d="M128.514 144.363C123.003 118.596 130.805 96.4996 149.03 77.2738C160.273 67.0501 174.358 66.486 182.56 80.4446C194.691 101.086 196.217 122.773 188.434 145.378C181.777 164.711 170.055 170.246 181.613 195.231C189.878 215.85 192.327 256.483 157.712 250.673C140.282 247.748 135.858 230.139 134.496 207.308C132.874 179.998 143.988 179.679 128.514 144.363Z" fill="#DCCDB3" stroke="#3C1F1B" stroke-width="6.4" stroke-miterlimit="2.6131"/>
<path d="M167.308 233.072H157.046V230.903H165.519V226.503H167.308V233.072ZM162.177 216.036C163.296 216.036 164.248 216.248 165.033 216.672C165.818 217.093 166.417 217.668 166.832 218.396C167.242 219.121 167.448 219.936 167.448 220.841C167.448 221.753 167.241 222.572 166.827 223.297C166.412 224.021 165.813 224.594 165.028 225.015C164.243 225.436 163.292 225.647 162.177 225.647C161.058 225.647 160.106 225.436 159.321 225.015C158.536 224.594 157.938 224.021 157.527 223.297C157.113 222.572 156.906 221.753 156.906 220.841C156.906 219.936 157.113 219.121 157.527 218.396C157.938 217.668 158.536 217.093 159.321 216.672C160.106 216.248 161.058 216.036 162.177 216.036ZM162.177 218.236C161.452 218.236 160.841 218.344 160.343 218.561C159.845 218.775 159.468 219.078 159.21 219.468C158.953 219.859 158.825 220.317 158.825 220.841C158.825 221.366 158.953 221.823 159.21 222.214C159.468 222.605 159.845 222.909 160.343 223.126C160.841 223.34 161.452 223.447 162.177 223.447C162.902 223.447 163.513 223.34 164.011 223.126C164.508 222.909 164.886 222.605 165.143 222.214C165.4 221.823 165.529 221.366 165.529 220.841C165.529 220.317 165.4 219.859 165.143 219.468C164.886 219.078 164.508 218.775 164.011 218.561C163.513 218.344 162.902 218.236 162.177 218.236ZM160.363 207.624C160.119 207.695 159.904 207.793 159.716 207.92C159.526 208.047 159.366 208.202 159.235 208.386C159.102 208.566 159 208.774 158.93 209.007C158.86 209.238 158.825 209.493 158.825 209.774C158.825 210.299 158.955 210.759 159.215 211.157C159.476 211.551 159.855 211.858 160.353 212.079C160.847 212.299 161.452 212.41 162.167 212.41C162.882 212.41 163.489 212.301 163.991 212.084C164.492 211.867 164.874 211.56 165.138 211.162C165.399 210.764 165.529 210.295 165.529 209.754C165.529 209.263 165.442 208.844 165.268 208.496C165.091 208.146 164.842 207.878 164.522 207.695C164.201 207.508 163.822 207.414 163.384 207.414L163.449 206.973V209.619H161.816V205.325H163.109C164.011 205.325 164.786 205.515 165.434 205.896C166.078 206.277 166.576 206.801 166.927 207.469C167.274 208.137 167.448 208.902 167.448 209.764C167.448 210.726 167.236 211.571 166.812 212.299C166.384 213.028 165.778 213.596 164.993 214.003C164.204 214.407 163.269 214.609 162.187 214.609C161.355 214.609 160.613 214.489 159.962 214.249C159.307 214.005 158.753 213.664 158.298 213.226C157.844 212.789 157.498 212.279 157.261 211.698C157.024 211.117 156.906 210.487 156.906 209.809C156.906 209.228 156.991 208.687 157.161 208.186C157.328 207.685 157.565 207.24 157.873 206.853C158.18 206.462 158.546 206.143 158.97 205.896C159.391 205.649 159.855 205.49 160.363 205.42V207.624ZM162.177 194.265C163.296 194.265 164.248 194.477 165.033 194.901C165.818 195.322 166.417 195.897 166.832 196.625C167.242 197.35 167.448 198.165 167.448 199.07C167.448 199.982 167.241 200.8 166.827 201.525C166.412 202.25 165.813 202.823 165.028 203.244C164.243 203.665 163.292 203.875 162.177 203.875C161.058 203.875 160.106 203.665 159.321 203.244C158.536 202.823 157.938 202.25 157.527 201.525C157.113 200.8 156.906 199.982 156.906 199.07C156.906 198.165 157.113 197.35 157.527 196.625C157.938 195.897 158.536 195.322 159.321 194.901C160.106 194.477 161.058 194.265 162.177 194.265ZM162.177 196.465C161.452 196.465 160.841 196.573 160.343 196.79C159.845 197.004 159.468 197.306 159.21 197.697C158.953 198.088 158.825 198.546 158.825 199.07C158.825 199.594 158.953 200.052 159.21 200.443C159.468 200.834 159.845 201.138 160.343 201.355C160.841 201.569 161.452 201.676 162.177 201.676C162.902 201.676 163.513 201.569 164.011 201.355C164.508 201.138 164.886 200.834 165.143 200.443C165.4 200.052 165.529 199.594 165.529 199.07C165.529 198.546 165.4 198.088 165.143 197.697C164.886 197.306 164.508 197.004 164.011 196.79C163.513 196.573 162.902 196.465 162.177 196.465Z" fill="#3C1F1B"/>
</g>
<g style="mix-blend-mode:hue">
<rect width="320" height="320" fill="#00BF13"/>
</g>
</g>
<defs>
<clipPath id="clip0_1426_18522">
<rect width="320" height="320" fill="white"/>
</clipPath>
<clipPath id="clip1_1426_18522">
<rect width="72" height="187" fill="white" transform="translate(124 67)"/>
</clipPath>
</defs>
</svg>
