<svg width="320" height="320" viewBox="0 0 320 320" fill="none" xmlns="http://www.w3.org/2000/svg">
<rect width="320" height="320" fill="#F2F2EA"/>
<g clip-path="url(#clip0_1423_5154)">
<path fill-rule="evenodd" clip-rule="evenodd" d="M55 254.488L55.7003 66C125.603 71.2979 195.233 67.0866 265 67.6299V252.898C194.906 250.962 124.913 251.714 55 254.488ZM71.3204 82.9803V234.835H246.782C245.282 184.217 249.511 133.598 246.782 82.9803H71.3204Z" fill="#3C1F1B"/>
<rect x="67" y="80" width="187" height="159" fill="#DCCDB3"/>
<path d="M110.662 113.545H112.661V119.685C112.661 120.375 112.496 120.978 112.167 121.495C111.84 122.012 111.383 122.415 110.795 122.705C110.208 122.991 109.523 123.134 108.741 123.134C107.956 123.134 107.27 122.991 106.682 122.705C106.094 122.415 105.637 122.012 105.311 121.495C104.985 120.978 104.822 120.375 104.822 119.685V113.545H106.821V119.515C106.821 119.875 106.899 120.195 107.056 120.475C107.216 120.755 107.441 120.975 107.73 121.135C108.019 121.295 108.356 121.375 108.741 121.375C109.129 121.375 109.466 121.295 109.752 121.135C110.041 120.975 110.265 120.755 110.422 120.475C110.582 120.195 110.662 119.875 110.662 119.515V113.545ZM114.305 123V113.545H116.304V117.714H116.429L119.831 113.545H122.227L118.718 117.779L122.269 123H119.877L117.287 119.113L116.304 120.313V123H114.305ZM132.117 113.545H134.116V119.685C134.116 120.375 133.951 120.978 133.622 121.495C133.295 122.012 132.838 122.415 132.251 122.705C131.663 122.991 130.978 123.134 130.196 123.134C129.411 123.134 128.725 122.991 128.137 122.705C127.549 122.415 127.092 122.012 126.766 121.495C126.44 120.978 126.277 120.375 126.277 119.685V113.545H128.276V119.515C128.276 119.875 128.354 120.195 128.511 120.475C128.671 120.755 128.896 120.975 129.185 121.135C129.474 121.295 129.811 121.375 130.196 121.375C130.584 121.375 130.921 121.295 131.207 121.135C131.497 120.975 131.72 120.755 131.877 120.475C132.037 120.195 132.117 119.875 132.117 119.515V113.545ZM140.889 116.265C140.852 115.892 140.694 115.603 140.414 115.397C140.134 115.19 139.753 115.087 139.273 115.087C138.947 115.087 138.672 115.134 138.447 115.226C138.222 115.315 138.05 115.44 137.93 115.6C137.813 115.76 137.755 115.941 137.755 116.145C137.748 116.314 137.784 116.462 137.861 116.588C137.941 116.714 138.05 116.823 138.188 116.915C138.327 117.005 138.487 117.083 138.669 117.151C138.85 117.216 139.044 117.271 139.25 117.317L140.1 117.52C140.512 117.613 140.891 117.736 141.235 117.89C141.58 118.043 141.879 118.233 142.131 118.457C142.383 118.682 142.579 118.947 142.717 119.251C142.859 119.556 142.931 119.905 142.934 120.299C142.931 120.878 142.783 121.38 142.491 121.804C142.202 122.226 141.783 122.554 141.235 122.788C140.691 123.018 140.034 123.134 139.264 123.134C138.501 123.134 137.836 123.017 137.27 122.783C136.707 122.549 136.266 122.203 135.949 121.744C135.636 121.283 135.471 120.712 135.456 120.032H137.39C137.411 120.349 137.502 120.613 137.662 120.826C137.825 121.035 138.042 121.193 138.313 121.301C138.587 121.406 138.896 121.458 139.241 121.458C139.58 121.458 139.873 121.409 140.123 121.31C140.375 121.212 140.571 121.075 140.709 120.9C140.848 120.724 140.917 120.522 140.917 120.295C140.917 120.082 140.854 119.904 140.728 119.759C140.604 119.615 140.423 119.491 140.183 119.39C139.946 119.288 139.655 119.196 139.31 119.113L138.281 118.854C137.484 118.661 136.854 118.357 136.393 117.945C135.931 117.533 135.702 116.977 135.705 116.278C135.702 115.706 135.854 115.206 136.162 114.778C136.473 114.35 136.899 114.016 137.441 113.776C137.982 113.536 138.598 113.416 139.287 113.416C139.989 113.416 140.601 113.536 141.125 113.776C141.651 114.016 142.06 114.35 142.353 114.778C142.645 115.206 142.796 115.701 142.805 116.265H140.889ZM147.288 123V113.545H153.547V115.194H149.286V117.446H153.132V119.094H149.286V123H147.288ZM154.892 123V113.545H158.622C159.336 113.545 159.946 113.673 160.45 113.929C160.958 114.181 161.344 114.54 161.609 115.004C161.877 115.466 162.011 116.009 162.011 116.634C162.011 117.262 161.875 117.802 161.604 118.254C161.334 118.704 160.941 119.048 160.427 119.288C159.916 119.528 159.298 119.648 158.571 119.648H156.074V118.042H158.248C158.63 118.042 158.947 117.99 159.199 117.885C159.452 117.78 159.639 117.623 159.762 117.414C159.889 117.205 159.952 116.945 159.952 116.634C159.952 116.32 159.889 116.055 159.762 115.84C159.639 115.624 159.45 115.461 159.195 115.35C158.942 115.237 158.624 115.18 158.239 115.18H156.891V123H154.892ZM159.998 118.697L162.348 123H160.141L157.842 118.697H159.998ZM170.218 113.545H172.193V120.138C172.193 120.747 172.056 121.277 171.783 121.726C171.512 122.175 171.135 122.521 170.652 122.765C170.168 123.008 169.607 123.129 168.967 123.129C168.397 123.129 167.88 123.029 167.415 122.829C166.954 122.626 166.588 122.318 166.317 121.906C166.046 121.49 165.912 120.969 165.915 120.341H167.905C167.911 120.59 167.962 120.804 168.057 120.983C168.156 121.158 168.289 121.293 168.459 121.389C168.631 121.481 168.834 121.527 169.068 121.527C169.314 121.527 169.522 121.475 169.691 121.37C169.864 121.263 169.994 121.106 170.084 120.9C170.173 120.693 170.218 120.439 170.218 120.138V113.545ZM173.846 123V113.545H177.576C178.293 113.545 178.904 113.682 179.409 113.956C179.914 114.227 180.298 114.604 180.563 115.087C180.831 115.567 180.965 116.121 180.965 116.749C180.965 117.377 180.829 117.931 180.559 118.411C180.288 118.891 179.895 119.265 179.381 119.533C178.87 119.801 178.252 119.935 177.525 119.935H175.148V118.333H177.202C177.587 118.333 177.904 118.267 178.153 118.134C178.406 117.999 178.593 117.813 178.717 117.576C178.843 117.336 178.906 117.06 178.906 116.749C178.906 116.435 178.843 116.161 178.717 115.928C178.593 115.691 178.406 115.507 178.153 115.378C177.901 115.246 177.581 115.18 177.193 115.18H175.845V123H173.846ZM193.614 116.855H191.592C191.555 116.594 191.48 116.362 191.366 116.158C191.252 115.952 191.106 115.777 190.927 115.632C190.749 115.487 190.542 115.377 190.309 115.3C190.078 115.223 189.827 115.184 189.556 115.184C189.067 115.184 188.64 115.306 188.277 115.549C187.914 115.789 187.632 116.14 187.432 116.602C187.232 117.06 187.132 117.617 187.132 118.273C187.132 118.947 187.232 119.513 187.432 119.972C187.636 120.43 187.919 120.776 188.282 121.01C188.645 121.244 189.065 121.361 189.542 121.361C189.81 121.361 190.058 121.326 190.285 121.255C190.516 121.184 190.721 121.081 190.899 120.946C191.078 120.807 191.226 120.639 191.343 120.442C191.463 120.246 191.546 120.021 191.592 119.768L193.614 119.778C193.562 120.212 193.431 120.63 193.222 121.033C193.015 121.433 192.737 121.792 192.386 122.109C192.038 122.423 191.623 122.672 191.139 122.857C190.659 123.038 190.116 123.129 189.51 123.129C188.667 123.129 187.913 122.938 187.248 122.557C186.586 122.175 186.063 121.623 185.678 120.9C185.297 120.176 185.106 119.301 185.106 118.273C185.106 117.242 185.3 116.365 185.687 115.641C186.075 114.918 186.601 114.367 187.266 113.989C187.931 113.607 188.679 113.416 189.51 113.416C190.058 113.416 190.565 113.493 191.033 113.647C191.504 113.801 191.921 114.026 192.284 114.321C192.648 114.613 192.943 114.972 193.171 115.397C193.402 115.821 193.549 116.308 193.614 116.855ZM195.047 123V113.545H197.046V117.446H201.104V113.545H203.098V123H201.104V119.094H197.046V123H195.047ZM212.655 113.545V123H210.928L206.815 117.049H206.745V123H204.747V113.545H206.501L210.582 119.491H210.665V113.545H212.655Z" fill="#3C1F1B"/>
<path d="M91.5059 136.075H228.493" stroke="#3C1F1B" stroke-width="0.5" stroke-miterlimit="2.6131"/>
<path d="M111.267 160L115.62 151.385V151.313H110.549V149.498H117.917V151.339L113.559 160H111.267ZM135.618 158.154V156.405L140.002 149.498H141.51V151.919H140.618L137.854 156.293V156.375H144.084V158.154H135.618ZM140.659 160V157.621L140.7 156.846V149.498H142.782V160H140.659ZM156.49 149.498V160H154.269V151.606H154.208L151.803 153.113V151.144L154.402 149.498H156.49ZM179.241 160.144C178.452 160.144 177.749 160.015 177.134 159.759C176.522 159.499 176.041 159.145 175.693 158.698C175.344 158.25 175.17 157.742 175.17 157.175C175.17 156.737 175.269 156.335 175.467 155.97C175.669 155.6 175.942 155.294 176.288 155.052C176.633 154.805 177.019 154.648 177.446 154.58V154.508C176.886 154.395 176.431 154.123 176.082 153.693C175.734 153.259 175.559 152.754 175.559 152.18C175.559 151.636 175.718 151.153 176.036 150.729C176.354 150.302 176.79 149.967 177.344 149.724C177.901 149.478 178.534 149.355 179.241 149.355C179.949 149.355 180.58 149.478 181.133 149.724C181.691 149.97 182.128 150.307 182.446 150.734C182.764 151.158 182.925 151.64 182.928 152.18C182.925 152.758 182.747 153.262 182.395 153.693C182.043 154.123 181.591 154.395 181.041 154.508V154.58C181.462 154.648 181.843 154.805 182.185 155.052C182.53 155.294 182.803 155.6 183.005 155.97C183.21 156.335 183.314 156.737 183.318 157.175C183.314 157.742 183.138 158.25 182.79 158.698C182.441 159.145 181.959 159.499 181.344 159.759C180.732 160.015 180.031 160.144 179.241 160.144ZM179.241 158.513C179.593 158.513 179.901 158.45 180.164 158.323C180.427 158.193 180.633 158.016 180.78 157.79C180.93 157.561 181.005 157.298 181.005 157C181.005 156.696 180.928 156.428 180.774 156.195C180.621 155.959 180.412 155.775 180.149 155.641C179.886 155.505 179.583 155.436 179.241 155.436C178.903 155.436 178.6 155.505 178.334 155.641C178.067 155.775 177.857 155.959 177.703 156.195C177.552 156.428 177.477 156.696 177.477 157C177.477 157.298 177.551 157.561 177.698 157.79C177.845 158.016 178.052 158.193 178.318 158.323C178.585 158.45 178.893 158.513 179.241 158.513ZM179.241 153.821C179.535 153.821 179.797 153.761 180.026 153.641C180.255 153.522 180.434 153.356 180.564 153.144C180.694 152.932 180.759 152.688 180.759 152.411C180.759 152.137 180.694 151.898 180.564 151.693C180.434 151.484 180.257 151.322 180.031 151.206C179.805 151.086 179.542 151.026 179.241 151.026C178.944 151.026 178.681 151.086 178.452 151.206C178.223 151.322 178.043 151.484 177.913 151.693C177.787 151.898 177.723 152.137 177.723 152.411C177.723 152.688 177.788 152.932 177.918 153.144C178.048 153.356 178.228 153.522 178.457 153.641C178.686 153.761 178.947 153.821 179.241 153.821ZM201.624 160L205.977 151.385V151.313H200.906V149.498H208.275V151.339L203.916 160H201.624Z" fill="#3C1F1B"/>
<path d="M114.811 188V180.669H116.749V181.963H116.835C116.988 181.533 117.242 181.194 117.599 180.946C117.955 180.698 118.381 180.574 118.878 180.574C119.38 180.574 119.808 180.699 120.162 180.951C120.515 181.199 120.75 181.536 120.868 181.963H120.944C121.094 181.543 121.364 181.207 121.756 180.955C122.15 180.701 122.616 180.574 123.154 180.574C123.838 180.574 124.393 180.792 124.82 181.228C125.249 181.66 125.464 182.274 125.464 183.07V188H123.436V183.471C123.436 183.063 123.327 182.758 123.111 182.554C122.895 182.351 122.624 182.249 122.3 182.249C121.931 182.249 121.643 182.367 121.436 182.602C121.229 182.834 121.126 183.141 121.126 183.523V188H119.155V183.428C119.155 183.068 119.051 182.782 118.844 182.569C118.641 182.355 118.372 182.249 118.038 182.249C117.812 182.249 117.608 182.306 117.427 182.421C117.249 182.532 117.107 182.69 117.002 182.893C116.897 183.094 116.845 183.329 116.845 183.6V188H114.811ZM129.161 188.138C128.693 188.138 128.276 188.057 127.91 187.895C127.544 187.73 127.255 187.486 127.041 187.165C126.831 186.84 126.726 186.436 126.726 185.953C126.726 185.545 126.801 185.203 126.951 184.926C127.1 184.65 127.304 184.427 127.562 184.258C127.819 184.09 128.112 183.962 128.44 183.876C128.771 183.79 129.118 183.73 129.48 183.695C129.907 183.65 130.25 183.609 130.511 183.571C130.772 183.53 130.961 183.469 131.079 183.39C131.197 183.31 131.256 183.192 131.256 183.036V183.008C131.256 182.705 131.16 182.472 130.969 182.306C130.782 182.141 130.514 182.058 130.168 182.058C129.802 182.058 129.511 182.139 129.294 182.301C129.078 182.46 128.935 182.661 128.865 182.903L126.984 182.75C127.08 182.305 127.267 181.92 127.547 181.595C127.827 181.267 128.189 181.016 128.631 180.841C129.076 180.663 129.592 180.574 130.177 180.574C130.584 180.574 130.974 180.621 131.346 180.717C131.722 180.812 132.054 180.96 132.344 181.161C132.637 181.361 132.867 181.619 133.036 181.934C133.205 182.246 133.289 182.62 133.289 183.055V188H131.361V186.983H131.304C131.186 187.213 131.028 187.415 130.831 187.59C130.634 187.761 130.397 187.897 130.12 187.995C129.843 188.091 129.523 188.138 129.161 188.138ZM129.743 186.735C130.042 186.735 130.306 186.676 130.535 186.559C130.764 186.438 130.944 186.275 131.074 186.072C131.205 185.868 131.27 185.638 131.27 185.38V184.602C131.206 184.643 131.119 184.681 131.008 184.716C130.899 184.748 130.777 184.778 130.64 184.807C130.503 184.832 130.366 184.856 130.23 184.879C130.093 184.898 129.969 184.915 129.857 184.931C129.619 184.966 129.41 185.022 129.232 185.098C129.054 185.175 128.916 185.278 128.817 185.408C128.718 185.536 128.669 185.695 128.669 185.886C128.669 186.163 128.769 186.374 128.97 186.52C129.173 186.664 129.431 186.735 129.743 186.735ZM137.568 188.119C137.011 188.119 136.507 187.976 136.055 187.69C135.606 187.4 135.25 186.975 134.986 186.415C134.725 185.852 134.594 185.162 134.594 184.344C134.594 183.504 134.73 182.806 135 182.249C135.27 181.689 135.63 181.27 136.079 180.994C136.53 180.714 137.025 180.574 137.563 180.574C137.973 180.574 138.315 180.644 138.589 180.784C138.866 180.92 139.089 181.092 139.257 181.299C139.429 181.503 139.56 181.703 139.649 181.9H139.711V178.225H141.739V188H139.735V186.826H139.649C139.553 187.03 139.418 187.232 139.243 187.432C139.071 187.629 138.847 187.793 138.57 187.924C138.296 188.054 137.962 188.119 137.568 188.119ZM138.212 186.501C138.54 186.501 138.817 186.412 139.043 186.234C139.272 186.053 139.447 185.8 139.568 185.475C139.692 185.151 139.754 184.77 139.754 184.335C139.754 183.899 139.693 183.52 139.572 183.199C139.451 182.877 139.276 182.629 139.047 182.454C138.818 182.279 138.54 182.192 138.212 182.192C137.878 182.192 137.596 182.282 137.367 182.464C137.138 182.645 136.965 182.896 136.847 183.218C136.729 183.539 136.67 183.911 136.67 184.335C136.67 184.761 136.729 185.138 136.847 185.466C136.968 185.79 137.141 186.045 137.367 186.229C137.596 186.411 137.878 186.501 138.212 186.501ZM146.752 188.143C145.998 188.143 145.348 187.99 144.804 187.685C144.263 187.376 143.847 186.94 143.554 186.377C143.261 185.811 143.115 185.141 143.115 184.368C143.115 183.614 143.261 182.952 143.554 182.383C143.847 181.813 144.259 181.369 144.79 181.051C145.325 180.733 145.951 180.574 146.671 180.574C147.154 180.574 147.604 180.652 148.021 180.808C148.441 180.96 148.807 181.191 149.119 181.5C149.434 181.808 149.679 182.196 149.854 182.664C150.029 183.129 150.116 183.673 150.116 184.296V184.855H143.926V183.595H148.203C148.203 183.302 148.139 183.043 148.012 182.817C147.884 182.591 147.708 182.414 147.482 182.287C147.259 182.157 147 182.091 146.704 182.091C146.395 182.091 146.122 182.163 145.883 182.306C145.648 182.446 145.463 182.635 145.329 182.874C145.196 183.11 145.127 183.372 145.124 183.662V184.86C145.124 185.222 145.191 185.536 145.325 185.8C145.461 186.064 145.654 186.268 145.902 186.411C146.15 186.554 146.445 186.625 146.785 186.625C147.011 186.625 147.218 186.594 147.406 186.53C147.593 186.466 147.754 186.371 147.888 186.244C148.021 186.116 148.123 185.96 148.193 185.776L150.073 185.9C149.978 186.352 149.782 186.746 149.486 187.084C149.194 187.418 148.815 187.679 148.351 187.866C147.889 188.051 147.356 188.143 146.752 188.143ZM154.554 188V180.669H156.587V188H154.554ZM155.575 179.724C155.273 179.724 155.014 179.624 154.797 179.423C154.584 179.22 154.478 178.976 154.478 178.693C154.478 178.413 154.584 178.173 154.797 177.973C155.014 177.769 155.273 177.667 155.575 177.667C155.878 177.667 156.135 177.769 156.348 177.973C156.565 178.173 156.673 178.413 156.673 178.693C156.673 178.976 156.565 179.22 156.348 179.423C156.135 179.624 155.878 179.724 155.575 179.724ZM160.249 183.762V188H158.216V180.669H160.153V181.963H160.239C160.402 181.536 160.674 181.199 161.056 180.951C161.437 180.699 161.9 180.574 162.444 180.574C162.953 180.574 163.397 180.685 163.776 180.908C164.155 181.13 164.449 181.449 164.659 181.862C164.869 182.273 164.974 182.763 164.974 183.332V188H162.941V183.695C162.944 183.246 162.829 182.896 162.597 182.645C162.365 182.39 162.045 182.263 161.638 182.263C161.364 182.263 161.122 182.322 160.912 182.44C160.706 182.558 160.543 182.729 160.426 182.955C160.311 183.178 160.252 183.447 160.249 183.762ZM171.792 178.225V188H169.725V178.225H171.792ZM177.353 180.669V182.196H172.938V180.669H177.353ZM173.941 178.913H175.974V185.747C175.974 185.935 176.002 186.081 176.06 186.186C176.117 186.288 176.197 186.36 176.298 186.401C176.403 186.443 176.524 186.463 176.661 186.463C176.757 186.463 176.852 186.455 176.947 186.439C177.043 186.42 177.116 186.406 177.167 186.396L177.487 187.909C177.385 187.941 177.242 187.978 177.057 188.019C176.873 188.064 176.648 188.091 176.384 188.1C175.894 188.119 175.465 188.054 175.096 187.905C174.73 187.755 174.445 187.523 174.241 187.208C174.038 186.893 173.937 186.495 173.941 186.015V178.913ZM180.768 188.138C180.3 188.138 179.884 188.057 179.518 187.895C179.152 187.73 178.862 187.486 178.649 187.165C178.439 186.84 178.334 186.436 178.334 185.953C178.334 185.545 178.409 185.203 178.558 184.926C178.708 184.65 178.911 184.427 179.169 184.258C179.427 184.09 179.72 183.962 180.047 183.876C180.378 183.79 180.725 183.73 181.088 183.695C181.514 183.65 181.858 183.609 182.119 183.571C182.38 183.53 182.569 183.469 182.687 183.39C182.804 183.31 182.863 183.192 182.863 183.036V183.008C182.863 182.705 182.768 182.472 182.577 182.306C182.389 182.141 182.122 182.058 181.775 182.058C181.409 182.058 181.118 182.139 180.902 182.301C180.685 182.46 180.542 182.661 180.472 182.903L178.592 182.75C178.687 182.305 178.875 181.92 179.155 181.595C179.435 181.267 179.796 181.016 180.238 180.841C180.684 180.663 181.199 180.574 181.785 180.574C182.192 180.574 182.582 180.621 182.954 180.717C183.329 180.812 183.662 180.96 183.951 181.161C184.244 181.361 184.475 181.619 184.644 181.934C184.812 182.246 184.896 182.62 184.896 183.055V188H182.968V186.983H182.911C182.793 187.213 182.636 187.415 182.439 187.59C182.241 187.761 182.004 187.897 181.727 187.995C181.451 188.091 181.131 188.138 180.768 188.138ZM181.35 186.735C181.649 186.735 181.914 186.676 182.143 186.559C182.372 186.438 182.551 186.275 182.682 186.072C182.812 185.868 182.878 185.638 182.878 185.38V184.602C182.814 184.643 182.726 184.681 182.615 184.716C182.507 184.748 182.384 184.778 182.248 184.807C182.111 184.832 181.974 184.856 181.837 184.879C181.7 184.898 181.576 184.915 181.465 184.931C181.226 184.966 181.018 185.022 180.84 185.098C180.661 185.175 180.523 185.278 180.424 185.408C180.326 185.536 180.276 185.695 180.276 185.886C180.276 186.163 180.377 186.374 180.577 186.52C180.781 186.664 181.039 186.735 181.35 186.735ZM188.507 178.225V188H186.474V178.225H188.507ZM191.391 190.749C191.133 190.749 190.891 190.728 190.666 190.687C190.443 190.649 190.258 190.6 190.112 190.539L190.57 189.021C190.809 189.095 191.023 189.134 191.214 189.141C191.408 189.147 191.576 189.102 191.716 189.007C191.859 188.912 191.975 188.749 192.064 188.52L192.183 188.21L189.553 180.669H191.692L193.209 186.053H193.286L194.818 180.669H196.97L194.121 188.792C193.984 189.187 193.798 189.53 193.563 189.823C193.33 190.119 193.036 190.347 192.68 190.506C192.323 190.668 191.894 190.749 191.391 190.749Z" fill="#3C1F1B"/>
</g>
<defs>
<clipPath id="clip0_1423_5154">
<rect width="210" height="188.488" fill="white" transform="translate(55 66)"/>
</clipPath>
</defs>
</svg>
