<svg width="320" height="320" viewBox="0 0 320 320" fill="none" xmlns="http://www.w3.org/2000/svg">
<g clip-path="url(#clip0_2133_208)">
<rect width="320" height="320" fill="#EFE2C1"/>
<path d="M252.718 474.008L252.72 473.985V473.963V-31.8153C252.72 -44.0613 241.271 -53.8779 227.316 -53.8779H91.8751C77.9194 -53.8779 66.4698 -44.0614 66.5001 -31.7889V473.162C66.5001 481.444 71.8322 488.964 80.2117 492.751C114.794 509.339 157.074 513.261 191.094 508.784C208.105 506.546 223.083 502.202 234.017 496.267C244.93 490.341 251.928 482.762 252.718 474.008Z" fill="#BCA573" stroke="#86766A"/>
<path d="M166.589 -10.6168C166.589 -10.6168 67 -32.6445 67 150.86V-12.3251C67 -31.5057 74.2826 -47.0599 83.3035 -47.0599C135.181 -46.97 121.455 -55.2117 166.589 -10.6168Z" fill="#BCA573"/>
<path opacity="0.33" d="M205.915 50.8086V405.814H121.022C121.022 405.814 193.681 309.882 205.915 50.8086Z" fill="#DED0BE"/>
<path d="M105.743 175V145.909H111.894V169.929H124.365V175H105.743ZM154.039 160.455C154.039 163.627 153.437 166.326 152.235 168.551C151.042 170.777 149.413 172.476 147.348 173.651C145.293 174.815 142.983 175.398 140.417 175.398C137.831 175.398 135.511 174.811 133.456 173.636C131.401 172.462 129.777 170.762 128.584 168.537C127.391 166.312 126.794 163.617 126.794 160.455C126.794 157.282 127.391 154.583 128.584 152.358C129.777 150.133 131.401 148.437 133.456 147.273C135.511 146.098 137.831 145.511 140.417 145.511C142.983 145.511 145.293 146.098 147.348 147.273C149.413 148.437 151.042 150.133 152.235 152.358C153.437 154.583 154.039 157.282 154.039 160.455ZM147.803 160.455C147.803 158.4 147.495 156.667 146.88 155.256C146.274 153.845 145.417 152.775 144.309 152.045C143.201 151.316 141.903 150.952 140.417 150.952C138.93 150.952 137.632 151.316 136.525 152.045C135.417 152.775 134.555 153.845 133.939 155.256C133.333 156.667 133.03 158.4 133.03 160.455C133.03 162.509 133.333 164.242 133.939 165.653C134.555 167.064 135.417 168.134 136.525 168.864C137.632 169.593 138.93 169.957 140.417 169.957C141.903 169.957 143.201 169.593 144.309 168.864C145.417 168.134 146.274 167.064 146.88 165.653C147.495 164.242 147.803 162.509 147.803 160.455ZM177.885 155.312C177.686 154.621 177.406 154.01 177.047 153.48C176.687 152.94 176.246 152.486 175.725 152.116C175.214 151.738 174.627 151.449 173.964 151.25C173.311 151.051 172.586 150.952 171.791 150.952C170.304 150.952 168.997 151.321 167.87 152.06C166.753 152.798 165.882 153.873 165.257 155.284C164.632 156.686 164.319 158.4 164.319 160.426C164.319 162.453 164.627 164.176 165.243 165.597C165.858 167.017 166.729 168.101 167.856 168.849C168.983 169.588 170.314 169.957 171.848 169.957C173.24 169.957 174.428 169.711 175.413 169.219C176.407 168.717 177.165 168.011 177.686 167.102C178.216 166.193 178.481 165.118 178.481 163.878L179.731 164.062H172.231V159.432H184.404V163.097C184.404 165.653 183.865 167.85 182.785 169.688C181.706 171.515 180.219 172.926 178.325 173.92C176.431 174.905 174.262 175.398 171.819 175.398C169.092 175.398 166.696 174.796 164.632 173.594C162.567 172.382 160.958 170.663 159.802 168.438C158.656 166.203 158.083 163.551 158.083 160.483C158.083 158.125 158.424 156.023 159.106 154.176C159.797 152.32 160.763 150.748 162.004 149.46C163.244 148.172 164.689 147.192 166.336 146.52C167.984 145.848 169.769 145.511 171.691 145.511C173.339 145.511 174.873 145.753 176.294 146.236C177.714 146.709 178.974 147.382 180.072 148.253C181.18 149.124 182.084 150.161 182.785 151.364C183.486 152.557 183.936 153.873 184.135 155.312H177.885ZM215.757 160.455C215.757 163.627 215.156 166.326 213.953 168.551C212.76 170.777 211.132 172.476 209.067 173.651C207.012 174.815 204.702 175.398 202.135 175.398C199.55 175.398 197.23 174.811 195.175 173.636C193.12 172.462 191.496 170.762 190.303 168.537C189.11 166.312 188.513 163.617 188.513 160.455C188.513 157.282 189.11 154.583 190.303 152.358C191.496 150.133 193.12 148.437 195.175 147.273C197.23 146.098 199.55 145.511 202.135 145.511C204.702 145.511 207.012 146.098 209.067 147.273C211.132 148.437 212.76 150.133 213.953 152.358C215.156 154.583 215.757 157.282 215.757 160.455ZM209.522 160.455C209.522 158.4 209.214 156.667 208.598 155.256C207.992 153.845 207.135 152.775 206.027 152.045C204.919 151.316 203.622 150.952 202.135 150.952C200.649 150.952 199.351 151.316 198.243 152.045C197.135 152.775 196.274 153.845 195.658 155.256C195.052 156.667 194.749 158.4 194.749 160.455C194.749 162.509 195.052 164.242 195.658 165.653C196.274 167.064 197.135 168.134 198.243 168.864C199.351 169.593 200.649 169.957 202.135 169.957C203.622 169.957 204.919 169.593 206.027 168.864C207.135 168.134 207.992 167.064 208.598 165.653C209.214 164.242 209.522 162.509 209.522 160.455Z" fill="#5E4435"/>
</g>
<defs>
<clipPath id="clip0_2133_208">
<rect width="320" height="320" fill="white"/>
</clipPath>
</defs>
</svg>
