<svg width="320" height="320" viewBox="0 0 320 320" fill="none" xmlns="http://www.w3.org/2000/svg">
<g clip-path="url(#clip0_2133_202)">
<rect width="320" height="320" fill="#EFE2C1"/>
<path d="M224.142 553.404L224.144 553.382V553.359V207.534C224.144 199.053 216.223 192.291 206.615 192.291H114.008C104.401 192.291 96.4792 199.053 96.5 207.553V552.812C96.5 558.546 100.19 563.738 105.966 566.349C129.645 577.706 158.585 580.39 181.869 577.325C193.513 575.793 203.775 572.819 211.273 568.748C218.751 564.688 223.594 559.47 224.142 553.404Z" fill="#BCA573" stroke="#86766A"/>
<path d="M165.094 222.029C165.094 222.029 97 206.968 97 332.439V220.861C97 207.747 101.979 197.111 108.147 197.111C143.619 197.173 134.233 191.538 165.094 222.029Z" fill="#BCA573"/>
<path d="M101.536 197.219L101.536 197.219L101.537 197.213C101.776 194.843 103.504 192.586 106.559 190.506C109.603 188.433 113.882 186.595 119.034 185.043C129.334 181.941 143.02 180.013 157.027 179.589C171.034 179.165 185.327 180.244 196.842 183.136C202.599 184.582 207.643 186.476 211.605 188.847C215.539 191.203 218.375 194.011 219.811 197.289C220.039 199.865 218.53 202.197 215.461 204.28C212.365 206.381 207.782 208.153 202.169 209.576C190.952 212.421 175.776 213.84 160.586 213.83C145.396 213.82 130.234 212.38 119.045 209.53C113.446 208.104 108.88 206.334 105.805 204.24C102.728 202.144 101.246 199.801 101.536 197.219Z" fill="#BCA573" stroke="#86766A"/>
<path opacity="0.33" d="M183.139 196.625C184.143 204.145 137.012 204.145 138.016 196.625C137.012 189.125 184.143 189.125 183.139 196.625Z" fill="#CEB57E"/>
<path d="M126.023 264.028H191.983V506.763H126.023V264.028Z" fill="#F6EFE5"/>
<path opacity="0.33" d="M191.983 264.028V506.763H133.938C133.938 506.763 183.618 441.169 191.983 264.028Z" fill="#DED0BE"/>
<path d="M186.5 188.449V164.653C186.5 161.333 185.233 158.361 183.275 157.117C182.668 156.727 181.997 156.5 181.269 156.5H137.733C136.188 156.5 134.869 157.512 133.962 158.981C133.05 160.458 132.502 162.465 132.502 164.653V188.136C132.414 192.186 134.954 195.365 138.819 197.667C142.685 199.97 147.959 201.45 153.566 202.107C159.178 202.765 165.164 202.601 170.477 201.584C175.759 200.573 180.437 198.707 183.4 195.907C185.339 194.572 186.5 191.603 186.5 188.449Z" fill="#DBC189" stroke="#86766A"/>
<path d="M183.123 159.717C182.545 159.577 181.927 159.5 181.269 159.5H137.733C136.349 159.5 135.073 159.842 134.126 160.421C133.188 160.995 132.502 161.854 132.502 162.891V171.751C132.45 172.78 133.278 173.56 134.349 174.141C135.465 174.747 137.057 175.259 138.965 175.689C142.791 176.549 148.022 177.106 153.602 177.352C159.185 177.6 165.139 177.538 170.419 177.156C175.672 176.776 180.302 176.077 183.232 175.029C184.167 174.788 184.966 174.381 185.543 173.853C186.126 173.319 186.5 172.638 186.5 171.881V162.891C186.5 162.1 186.097 161.406 185.492 160.873C184.889 160.341 184.062 159.943 183.123 159.717ZM183.123 159.717C183.123 159.717 183.123 159.717 183.124 159.717L183.006 160.203L183.122 159.717C183.123 159.717 183.123 159.717 183.123 159.717Z" fill="#DBC189" stroke="#86766A"/>
<path d="M186.5 174.676V163.572C186.5 161.765 185.031 160.33 183.149 159.772C182.564 159.597 181.937 159.5 181.269 159.5H137.733C136.327 159.5 135.036 159.93 134.086 160.648C133.135 161.366 132.502 162.395 132.502 163.572V174.522C132.453 175.664 133.202 176.599 134.309 177.341C135.429 178.092 137.028 178.727 138.941 179.259C142.775 180.325 148.013 181.012 153.596 181.318C159.184 181.623 165.143 181.547 170.427 181.075C175.682 180.606 180.321 179.741 183.263 178.443C185.148 177.839 186.5 176.397 186.5 174.676Z" stroke="#86766A"/>
<path d="M186.5 179.665V163.272C186.5 160.867 185.162 158.769 183.207 157.913C182.608 157.648 181.961 157.5 181.269 157.5H137.733C134.792 157.5 132.502 160.141 132.502 163.272V179.445C132.457 180.924 133.111 182.227 134.235 183.341C135.355 184.449 136.96 185.392 138.885 186.182C142.737 187.762 147.991 188.779 153.583 189.23C159.182 189.682 165.152 189.569 170.448 188.871C175.711 188.177 180.37 186.897 183.33 184.971C185.273 184.05 186.5 181.95 186.5 179.665Z" stroke="#86766A"/>
<path d="M186.5 182.461V163.953C186.5 161.293 185.19 158.94 183.228 157.971C182.626 157.67 181.971 157.5 181.269 157.5H137.733C134.741 157.5 132.502 160.507 132.502 163.953V182.214C132.412 185.487 135.044 187.98 138.865 189.749C142.721 191.536 147.982 192.685 153.578 193.195C159.181 193.706 165.155 193.578 170.456 192.789C175.724 192.005 180.39 190.558 183.353 188.381C185.3 187.339 186.5 184.986 186.5 182.461Z" stroke="#86766A"/>
<path d="M136.212 156.95C134.983 157.866 134.257 159.021 134.573 160.38C134.694 161.909 135.695 163.15 137.186 164.135C138.693 165.13 140.768 165.913 143.183 166.511C148.018 167.71 154.346 168.201 160.563 168.084C166.779 167.967 172.926 167.241 177.401 165.983C179.633 165.356 181.491 164.584 182.734 163.66C183.966 162.744 184.696 161.587 184.384 160.225C184.256 158.693 183.249 157.449 181.752 156.463C180.241 155.466 178.162 154.683 175.745 154.084C170.904 152.886 164.575 152.398 158.361 152.518C152.146 152.638 146.004 153.367 141.535 154.627C139.306 155.255 137.451 156.026 136.212 156.95Z" fill="#BCA573" stroke="#86766A"/>
<path d="M146.497 160.988C145.812 161.515 145.355 162.222 145.541 163.076C145.617 163.997 146.205 164.727 147.026 165.286C147.858 165.853 148.99 166.29 150.286 166.622C152.883 167.286 156.267 167.555 159.581 167.491C162.895 167.426 166.183 167.027 168.587 166.33C169.783 165.983 170.803 165.55 171.497 165.018C172.185 164.49 172.644 163.782 172.46 162.926C172.38 162.003 171.789 161.273 170.965 160.712C170.13 160.145 168.996 159.707 167.699 159.376C165.1 158.712 161.715 158.444 158.402 158.51C155.089 158.576 151.804 158.977 149.403 159.675C148.209 160.022 147.19 160.455 146.497 160.988Z" fill="#927944" stroke="#86766A"/>
<g style="mix-blend-mode:hue">
<rect width="320" height="320" fill="#00BF13"/>
</g>
</g>
<defs>
<clipPath id="clip0_2133_202">
<rect width="320" height="320" fill="white"/>
</clipPath>
</defs>
</svg>
