<svg width="320" height="320" viewBox="0 0 320 320" fill="none" xmlns="http://www.w3.org/2000/svg">
<g clip-path="url(#clip0_2147_178)">
<path d="M320 0H0V320H320V0Z" fill="#EFE2C1"/>
<path d="M182 85.5H138C132.753 85.5 128.5 89.7533 128.5 95V260C128.5 262.435 129.71 264.5 131.658 266.204C133.6 267.904 136.304 269.274 139.386 270.347C145.552 272.495 153.36 273.5 160 273.5C166.646 273.5 174.455 272.369 180.619 270.158C183.699 269.053 186.4 267.669 188.339 265.996C190.282 264.32 191.5 262.319 191.5 260V95C191.5 89.7533 187.247 85.5 182 85.5Z" fill="#BCA573" stroke="#86766A"/>
<path opacity="0.33" d="M188.63 92.1145C188.63 96.8548 175.827 100.712 159.99 100.742C166.416 98.253 200.272 95.3177 173.616 84.5381C182.571 86.0058 188.63 88.842 188.63 92.1145Z" fill="#FFD3C0"/>
<path d="M185 54C185 54.7724 184.651 55.5192 184 56.2258C180.927 59.5611 171.121 62 159.5 62C151.098 62 143.646 60.7253 139 58.7587C135.858 57.4288 134 55.7825 134 54C134 53.6953 134.054 53.3945 134.16 53.0986C134.322 52.6446 134.606 52.202 135 51.7742C138.073 48.4389 147.879 46 159.5 46C171.121 46 180.927 48.4389 184 51.7742C184.651 52.4808 185 53.2276 185 54Z" fill="#BCA573"/>
<path d="M133 58.5V84.5C133 87.7471 135.25 90.7265 139 93.0555V58.7587C135.858 57.4288 134 55.7825 134 54C134 53.6953 134.054 53.3945 134.16 53.0986C133.576 54.2932 133 56.1339 133 58.5Z" fill="#BCA573"/>
<path d="M186 84.5002V58.5002C186 54.5002 184.667 52.3496 184 51.7744C184.651 52.481 185 53.2278 185 54.0002C185 54.7726 184.651 55.5194 184 56.226C183 69.0002 174 86.8638 166 97.5911C177.493 96.1147 186 90.8136 186 84.5002Z" fill="#BCA573"/>
<path d="M159.5 61.9998C151.098 61.9998 143.646 60.7251 139 58.7585V93.0553C143.86 96.0739 151.238 97.9998 159.5 97.9998C161.743 97.9998 163.92 97.8579 166 97.5907C174 86.8634 183 68.9998 184 56.2256C180.927 59.5609 171.121 61.9998 159.5 61.9998Z" fill="#DBC189"/>
<path d="M184 51.7742C180.927 48.4389 171.121 46 159.5 46C147.879 46 138.073 48.4389 135 51.7742M184 51.7742C184.651 52.4808 185 53.2276 185 54C185 58.4183 173.583 62 159.5 62C145.417 62 134 58.4183 134 54C134 53.2276 134.349 52.4808 135 51.7742M184 51.7742C184.667 52.3494 186 54.5 186 58.5V84.5C186 91.9558 174.136 98 159.5 98C144.864 98 133 91.9558 133 84.5V58.5C133 54.9 134.333 52.5161 135 51.7742" stroke="#86766A"/>
<g style="mix-blend-mode:hue">
<rect width="320" height="320" fill="#00BF13"/>
</g>
</g>
<defs>
<clipPath id="clip0_2147_178">
<rect width="320" height="320" fill="white"/>
</clipPath>
</defs>
</svg>
