<svg width="320" height="320" viewBox="0 0 320 320" fill="none" xmlns="http://www.w3.org/2000/svg">
<g clip-path="url(#clip0_2133_206)">
<rect width="320" height="320" fill="#EFE2C1"/>
<path d="M252.718 474.008L252.72 473.985V473.963V-31.8153C252.72 -44.0613 241.271 -53.8779 227.316 -53.8779H91.8751C77.9194 -53.8779 66.4698 -44.0614 66.5001 -31.7889V473.162C66.5001 481.444 71.8322 488.964 80.2117 492.751C114.794 509.339 157.074 513.261 191.094 508.784C208.105 506.546 223.083 502.202 234.017 496.267C244.93 490.341 251.928 482.762 252.718 474.008Z" fill="#BCA573" stroke="#86766A"/>
<path d="M166.589 -10.6168C166.589 -10.6168 67 -32.6445 67 150.86V-12.3251C67 -31.5057 74.2826 -47.0599 83.3035 -47.0599C135.181 -46.97 121.455 -55.2117 166.589 -10.6168Z" fill="#BCA573"/>
<path opacity="0.33" d="M205.915 50.8086V405.814H121.022C121.022 405.814 193.681 309.882 205.915 50.8086Z" fill="#DED0BE"/>
<path d="M121.17 129V108.636H125.476V125.45H134.206V129H121.17ZM154.977 118.818C154.977 121.039 154.556 122.928 153.714 124.486C152.879 126.044 151.739 127.233 150.294 128.055C148.855 128.871 147.238 129.278 145.442 129.278C143.632 129.278 142.008 128.867 140.569 128.045C139.131 127.223 137.994 126.034 137.159 124.476C136.324 122.918 135.906 121.032 135.906 118.818C135.906 116.598 136.324 114.708 137.159 113.151C137.994 111.593 139.131 110.406 140.569 109.591C142.008 108.769 143.632 108.358 145.442 108.358C147.238 108.358 148.855 108.769 150.294 109.591C151.739 110.406 152.879 111.593 153.714 113.151C154.556 114.708 154.977 116.598 154.977 118.818ZM150.612 118.818C150.612 117.38 150.397 116.167 149.966 115.179C149.541 114.191 148.942 113.442 148.166 112.932C147.39 112.421 146.482 112.166 145.442 112.166C144.401 112.166 143.493 112.421 142.717 112.932C141.942 113.442 141.338 114.191 140.907 115.179C140.483 116.167 140.271 117.38 140.271 118.818C140.271 120.257 140.483 121.47 140.907 122.457C141.338 123.445 141.942 124.194 142.717 124.705C143.493 125.215 144.401 125.47 145.442 125.47C146.482 125.47 147.39 125.215 148.166 124.705C148.942 124.194 149.541 123.445 149.966 122.457C150.397 121.47 150.612 120.257 150.612 118.818ZM171.669 115.219C171.53 114.735 171.334 114.307 171.083 113.936C170.831 113.558 170.522 113.24 170.158 112.982C169.8 112.716 169.389 112.514 168.925 112.375C168.468 112.236 167.96 112.166 167.404 112.166C166.363 112.166 165.448 112.425 164.659 112.942C163.877 113.459 163.267 114.211 162.83 115.199C162.392 116.18 162.173 117.38 162.173 118.798C162.173 120.217 162.389 121.423 162.82 122.418C163.251 123.412 163.86 124.171 164.649 124.695C165.438 125.212 166.369 125.47 167.443 125.47C168.418 125.47 169.25 125.298 169.939 124.953C170.635 124.602 171.165 124.108 171.53 123.472C171.901 122.835 172.087 122.083 172.087 121.214L172.962 121.344H167.712V118.102H176.233V120.668C176.233 122.457 175.855 123.995 175.1 125.281C174.344 126.561 173.303 127.548 171.977 128.244C170.652 128.934 169.134 129.278 167.423 129.278C165.514 129.278 163.837 128.857 162.392 128.016C160.947 127.167 159.82 125.964 159.012 124.406C158.209 122.842 157.808 120.986 157.808 118.838C157.808 117.187 158.047 115.716 158.524 114.423C159.008 113.124 159.684 112.024 160.553 111.122C161.421 110.221 162.432 109.535 163.585 109.064C164.739 108.593 165.988 108.358 167.334 108.358C168.487 108.358 169.561 108.527 170.556 108.865C171.55 109.196 172.432 109.667 173.2 110.277C173.976 110.887 174.609 111.613 175.1 112.455C175.59 113.29 175.905 114.211 176.044 115.219H171.669ZM198.18 118.818C198.18 121.039 197.759 122.928 196.917 124.486C196.082 126.044 194.942 127.233 193.497 128.055C192.059 128.871 190.441 129.278 188.645 129.278C186.835 129.278 185.211 128.867 183.773 128.045C182.334 127.223 181.197 126.034 180.362 124.476C179.527 122.918 179.109 121.032 179.109 118.818C179.109 116.598 179.527 114.708 180.362 113.151C181.197 111.593 182.334 110.406 183.773 109.591C185.211 108.769 186.835 108.358 188.645 108.358C190.441 108.358 192.059 108.769 193.497 109.591C194.942 110.406 196.082 111.593 196.917 113.151C197.759 114.708 198.18 116.598 198.18 118.818ZM193.815 118.818C193.815 117.38 193.6 116.167 193.169 115.179C192.745 114.191 192.145 113.442 191.369 112.932C190.594 112.421 189.685 112.166 188.645 112.166C187.604 112.166 186.696 112.421 185.92 112.932C185.145 113.442 184.541 114.191 184.111 115.179C183.686 116.167 183.474 117.38 183.474 118.818C183.474 120.257 183.686 121.47 184.111 122.457C184.541 123.445 185.145 124.194 185.92 124.705C186.696 125.215 187.604 125.47 188.645 125.47C189.685 125.47 190.594 125.215 191.369 124.705C192.145 124.194 192.745 123.445 193.169 122.457C193.6 121.47 193.815 120.257 193.815 118.818Z" fill="#5E4435"/>
<path d="M118.198 162.909L120.838 167.371H120.94L123.593 162.909H126.718L122.723 169.455L126.808 176H123.625L120.94 171.532H120.838L118.153 176H114.983L119.08 169.455L115.059 162.909H118.198ZM131.065 162.909L133.705 167.371H133.807L136.46 162.909H139.586L135.591 169.455L139.675 176H136.492L133.807 171.532H133.705L131.02 176H127.85L131.947 169.455L127.926 162.909H131.065ZM143.932 162.909L146.572 167.371H146.674L149.327 162.909H152.453L148.458 169.455L152.542 176H149.359L146.674 171.532H146.572L143.887 176H140.717L144.814 169.455L140.794 162.909H143.932ZM156.799 162.909L159.439 167.371H159.542L162.194 162.909H165.32L161.325 169.455L165.409 176H162.226L159.542 171.532H159.439L156.755 176H153.584L157.681 169.455L153.661 162.909H156.799ZM169.667 162.909L172.306 167.371H172.409L175.061 162.909H178.187L174.192 169.455L178.277 176H175.093L172.409 171.532H172.306L169.622 176H166.451L170.549 169.455L166.528 162.909H169.667ZM182.534 162.909L185.174 167.371H185.276L187.929 162.909H191.054L187.059 169.455L191.144 176H187.961L185.276 171.532H185.174L182.489 176H179.319L183.416 169.455L179.395 162.909H182.534ZM195.401 162.909L198.041 167.371H198.143L200.796 162.909H203.922L199.926 169.455L204.011 176H200.828L198.143 171.532H198.041L195.356 176H192.186L196.283 169.455L192.262 162.909H195.401Z" fill="#5E4435"/>
<path d="M131.065 180.909L133.705 185.371H133.807L136.46 180.909H139.586L135.591 187.455L139.675 194H136.492L133.807 189.532H133.705L131.02 194H127.85L131.947 187.455L127.926 180.909H131.065ZM143.932 180.909L146.572 185.371H146.674L149.327 180.909H152.453L148.458 187.455L152.542 194H149.359L146.674 189.532H146.572L143.887 194H140.717L144.814 187.455L140.794 180.909H143.932ZM156.799 180.909L159.439 185.371H159.542L162.194 180.909H165.32L161.325 187.455L165.409 194H162.226L159.542 189.532H159.439L156.755 194H153.584L157.681 187.455L153.661 180.909H156.799ZM169.667 180.909L172.306 185.371H172.409L175.061 180.909H178.187L174.192 187.455L178.277 194H175.093L172.409 189.532H172.306L169.622 194H166.451L170.549 187.455L166.528 180.909H169.667ZM182.534 180.909L185.174 185.371H185.276L187.929 180.909H191.054L187.059 187.455L191.144 194H187.961L185.276 189.532H185.174L182.489 194H179.319L183.416 187.455L179.395 180.909H182.534Z" fill="#5E4435"/>
<path d="M127.836 204.545L130.273 208.479H130.347L132.784 204.545H134.132L131.159 209.273L134.132 214H132.784L130.347 210.141H130.273L127.836 214H126.488L129.534 209.273L126.488 204.545H127.836ZM136.176 204.545L138.614 208.479H138.688L141.125 204.545H142.473L139.5 209.273L142.473 214H141.125L138.688 210.141H138.614L136.176 214H134.828L137.875 209.273L134.828 204.545H136.176ZM144.517 204.545L146.955 208.479H147.029L149.466 204.545H150.814L147.841 209.273L150.814 214H149.466L147.029 210.141H146.955L144.517 214H143.169L146.216 209.273L143.169 204.545H144.517ZM152.858 204.545L155.296 208.479H155.369L157.807 204.545H159.155L156.182 209.273L159.155 214H157.807L155.369 210.141H155.296L152.858 214H151.51L154.557 209.273L151.51 204.545H152.858ZM161.199 204.545L163.636 208.479H163.71L166.148 204.545H167.496L164.523 209.273L167.496 214H166.148L163.71 210.141H163.636L161.199 214H159.851L162.898 209.273L159.851 204.545H161.199ZM169.54 204.545L171.977 208.479H172.051L174.489 204.545H175.837L172.864 209.273L175.837 214H174.489L172.051 210.141H171.977L169.54 214H168.192L171.239 209.273L168.192 204.545H169.54ZM177.881 204.545L180.318 208.479H180.392L182.829 204.545H184.177L181.204 209.273L184.177 214H182.829L180.392 210.141H180.318L177.881 214H176.532L179.579 209.273L176.532 204.545H177.881ZM186.221 204.545L188.659 208.479H188.733L191.17 204.545H192.518L189.545 209.273L192.518 214H191.17L188.733 210.141H188.659L186.221 214H184.873L187.92 209.273L184.873 204.545H186.221Z" fill="#5E4435"/>
<g style="mix-blend-mode:hue">
<rect width="320" height="320" fill="#00BF13"/>
</g>
</g>
<defs>
<clipPath id="clip0_2133_206">
<rect width="320" height="320" fill="white"/>
</clipPath>
</defs>
</svg>
