<svg width="320" height="320" viewBox="0 0 320 320" fill="none" xmlns="http://www.w3.org/2000/svg">
<g clip-path="url(#clip0_2246_188)">
<path d="M320 0H0V320H320V0Z" fill="#EFE2C1"/>
<path d="M185.143 74H134.857C128.861 74 124 78.9094 124 84.9654V275.418C124 278.228 125.383 280.612 127.609 282.579C129.829 284.541 132.919 286.122 136.441 287.361C143.488 289.84 152.411 291 160 291C167.595 291 176.52 289.695 183.565 287.142C187.085 285.867 190.171 284.27 192.387 282.338C194.608 280.404 196 278.094 196 275.418V84.9654C196 78.9094 191.139 74 185.143 74Z" fill="#BCA573" stroke="#86766A"/>
<path opacity="0.33" d="M194 81.8838C194 87.4421 178.801 91.9648 160 92C167.629 89.0816 207.821 85.6398 176.176 73C186.807 74.721 194 78.0466 194 81.8838Z" fill="#FFD3C0"/>
<path fill-rule="evenodd" clip-rule="evenodd" d="M177 115H140V251H144.047C144.047 251 172.32 213.803 177 115Z" fill="#F6EFE5"/>
<path d="M177 251V115C172.455 213.803 145 251 145 251H177Z" fill="#EEE5D8"/>
<path d="M188 37.5C188 38.4172 187.603 39.304 186.863 40.1431C183.368 44.1038 172.216 47 159 47C149.445 47 140.97 45.4863 135.686 43.151C132.113 41.5717 130 39.6167 130 37.5C130 37.1382 130.061 36.781 130.182 36.4296C130.366 35.8905 130.689 35.3649 131.137 34.8569C134.632 30.8962 145.784 28 159 28C172.216 28 183.368 30.8962 186.863 34.8569C187.603 35.696 188 36.5828 188 37.5Z" fill="#BCA573"/>
<path d="M129 43.0831V72.3647C129 76.0216 131.625 79.377 136 82V43.3745C132.334 41.8767 130.167 40.0226 130.167 38.0152C130.167 37.672 130.23 37.3332 130.353 37C129.672 38.3454 129 40.4184 129 43.0831Z" fill="#BCA573"/>
<path d="M190 72.8567V42.7803C190 38.1532 188.467 35.6654 187.7 35C188.449 35.8174 188.85 36.6813 188.85 37.5748C188.85 38.4683 188.449 39.3322 187.7 40.1495C186.55 54.9265 176.2 75.5908 167 88C180.217 86.2921 190 80.1599 190 72.8567Z" fill="#BCA573"/>
<path d="M159.689 46.6348C149.98 46.6348 141.369 45.1701 136 42.9104V82.3186C141.616 85.7871 150.142 88 159.689 88C162.281 88 164.796 87.8369 167.2 87.5299C176.444 75.2039 186.844 54.678 188 40C184.449 43.8324 173.118 46.6348 159.689 46.6348Z" fill="#DBC189"/>
<path d="M187.698 34.6625C184.161 30.8141 172.875 28 159.5 28C146.125 28 134.839 30.8141 131.302 34.6625M187.698 34.6625C188.447 35.4778 188.849 36.3395 188.849 37.2308C188.849 42.3288 175.709 46.4615 159.5 46.4615C143.291 46.4615 130.151 42.3288 130.151 37.2308C130.151 36.3395 130.553 35.4778 131.302 34.6625M187.698 34.6625C188.466 35.3262 190 37.8077 190 42.4231V72.4231C190 81.0259 176.345 88 159.5 88C142.655 88 129 81.0259 129 72.4231V42.4231C129 38.2692 130.534 35.5186 131.302 34.6625" stroke="#86766A"/>
<g style="mix-blend-mode:hue">
<rect width="320" height="320" fill="#00BF13"/>
</g>
</g>
<defs>
<clipPath id="clip0_2246_188">
<rect width="320" height="320" fill="white"/>
</clipPath>
</defs>
</svg>
