<svg width="320" height="320" viewBox="0 0 320 320" fill="none" xmlns="http://www.w3.org/2000/svg">
<rect width="320" height="320" fill="#EFE2C1"/>
<g clip-path="url(#clip0_2133_212)">
<mask id="path-1-inside-1_2133_212" fill="white">
<path d="M71.002 114.252L91.4678 71H228.533L248.998 114.252L166.926 138.225"/>
</mask>
<path d="M71.002 114.252L91.4678 71H228.533L248.998 114.252L166.926 138.225" fill="#CEB57E"/>
<path d="M91.4678 71V70H90.8347L90.5639 70.5723L91.4678 71ZM228.533 71L229.437 70.5723L229.166 70H228.533V71ZM248.998 114.252L249.279 115.211L250.404 114.883L249.902 113.824L248.998 114.252ZM71.9059 114.679L92.3717 71.4277L90.5639 70.5723L70.098 113.824L71.9059 114.679ZM91.4678 72H228.533V70H91.4678V72ZM227.629 71.4277L248.095 114.679L249.902 113.824L229.437 70.5723L227.629 71.4277ZM248.718 113.292L166.646 137.266L167.207 139.185L249.279 115.211L248.718 113.292Z" fill="#86766A" mask="url(#path-1-inside-1_2133_212)"/>
<path d="M71.502 114.753H248.498V248.5H71.502V114.753Z" fill="#BD9C52" stroke="#86766A"/>
<path d="M129.083 203H126V227.667H129.083V203ZM130.625 203H132.167V227.667H130.625V203ZM133.708 203H136.792V227.667H133.708V203ZM138.333 203H141.417V227.667H138.333V203ZM144.5 203H142.958V227.667H144.5V203ZM161.459 203H163V227.667H161.459V203ZM149.125 203H146.042V227.667H149.125V203ZM150.667 203H155.292V227.667H150.667V203ZM159.917 203H156.834V227.667H159.917V203Z" fill="#7C512E"/>
<path d="M160.083 203H157V227.667H160.083V203ZM161.625 203H163.167V227.667H161.625V203ZM164.708 203H167.792V227.667H164.708V203ZM169.333 203H172.417V227.667H169.333V203ZM175.5 203H173.958V227.667H175.5V203ZM192.459 203H194V227.667H192.459V203ZM180.125 203H177.042V227.667H180.125V203ZM181.667 203H186.292V227.667H181.667V203ZM190.917 203H187.834V227.667H190.917V203Z" fill="#7C512E"/>
</g>
<path d="M118.873 169.545L120.78 172.768H120.854L122.77 169.545H125.027L122.142 174.273L125.092 179H122.793L120.854 175.773H120.78L118.841 179H116.551L119.51 174.273L116.607 169.545H118.873ZM128.166 169.545L130.073 172.768H130.147L132.063 169.545H134.32L131.435 174.273L134.385 179H132.086L130.147 175.773H130.073L128.134 179H125.844L128.803 174.273L125.9 169.545H128.166ZM137.459 169.545L139.366 172.768H139.44L141.356 169.545H143.613L140.728 174.273L143.678 179H141.379L139.44 175.773H139.366L137.427 179H135.137L138.096 174.273L135.193 169.545H137.459ZM146.752 169.545L148.659 172.768H148.733L150.648 169.545H152.906L150.021 174.273L152.971 179H150.672L148.733 175.773H148.659L146.72 179H144.43L147.389 174.273L144.485 169.545H146.752ZM156.045 169.545L157.952 172.768H158.026L159.941 169.545H162.199L159.314 174.273L162.264 179H159.965L158.026 175.773H157.952L156.013 179H153.723L156.682 174.273L153.778 169.545H156.045ZM165.338 169.545L167.245 172.768H167.319L169.234 169.545H171.492L168.607 174.273L171.557 179H169.258L167.319 175.773H167.245L165.306 179H163.016L165.975 174.273L163.071 169.545H165.338ZM177.64 169.545L179.546 172.768H179.62L181.536 169.545H183.794L180.908 174.273L183.858 179H181.559L179.62 175.773H179.546L177.608 179H175.318L178.277 174.273L175.373 169.545H177.64ZM186.933 169.545L188.839 172.768H188.913L190.829 169.545H193.087L190.201 174.273L193.151 179H190.852L188.913 175.773H188.839L186.901 179H184.611L187.57 174.273L184.666 169.545H186.933ZM196.226 169.545L198.132 172.768H198.206L200.122 169.545H202.38L199.494 174.273L202.444 179H200.145L198.206 175.773H198.132L196.193 179H193.904L196.863 174.273L193.959 169.545H196.226Z" fill="#5E4435"/>
<path d="M139.973 142L143.199 147.453H143.324L146.566 142H150.387L145.504 150L150.496 158H146.605L143.324 152.539H143.199L139.918 158H136.043L141.051 150L136.137 142H139.973ZM155.699 142L158.926 147.453H159.051L162.293 142H166.113L161.23 150L166.223 158H162.332L159.051 152.539H158.926L155.645 158H151.77L156.777 150L151.863 142H155.699ZM171.426 142L174.652 147.453H174.777L178.02 142H181.84L176.957 150L181.949 158H178.059L174.777 152.539H174.652L171.371 158H167.496L172.504 150L167.59 142H171.426Z" fill="#5E4435"/>
<defs>
<clipPath id="clip0_2133_212">
<rect width="178" height="178" fill="white" transform="translate(71 71)"/>
</clipPath>
</defs>
</svg>
