<svg width="131" height="32" viewBox="0 0 131 32" fill="none" xmlns="http://www.w3.org/2000/svg">
<path d="M34.26 11.3402H47.4468V13.7951H42.2546V27.6336H39.4087V13.7951H34.2383L34.26 11.3402ZM46.8819 15.8372H49.3151V18.1182H49.3585C49.4454 17.7924 49.5975 17.4882 49.8147 17.1841C50.032 16.8799 50.2927 16.5975 50.6185 16.3586C50.9227 16.0979 51.2703 15.9023 51.6613 15.7503C52.0306 15.5982 52.4217 15.5113 52.8127 15.5113C53.1168 15.5113 53.3341 15.533 53.4427 15.533C53.5513 15.5548 53.6817 15.5765 53.7903 15.5765V18.0748C53.6165 18.0313 53.421 18.0096 53.2255 17.9879C53.0299 17.9662 52.8561 17.9444 52.6606 17.9444C52.2261 17.9444 51.8134 18.0313 51.4223 18.2051C51.0313 18.3789 50.7054 18.6396 50.4013 18.9655C50.1189 19.3131 49.8799 19.7259 49.7061 20.2255C49.5323 20.7252 49.4454 21.3117 49.4454 21.9635V27.5684H46.8385L46.8819 15.8372ZM65.7388 27.6336H63.1753V25.9825H63.1318C62.806 26.5908 62.328 27.047 61.698 27.4163C61.068 27.7856 60.4163 27.9594 59.7645 27.9594C58.2221 27.9594 57.0924 27.5901 56.3972 26.808C55.7021 26.0477 55.3545 24.8746 55.3545 23.3321V15.8372H57.9614V23.0714C57.9614 24.1142 58.1569 24.8528 58.5697 25.2656C58.9607 25.7001 59.5256 25.9173 60.2425 25.9173C60.7856 25.9173 61.2418 25.8304 61.6111 25.6566C61.9804 25.4828 62.2846 25.2656 62.5018 24.9832C62.7408 24.7008 62.8929 24.3532 63.0015 23.9621C63.1101 23.5711 63.1536 23.1366 63.1536 22.6804V15.8372H65.7605V27.6336H65.7388ZM70.1706 23.8535C70.2574 24.6139 70.5399 25.1352 71.0395 25.4611C71.5392 25.7653 72.1475 25.9173 72.8427 25.9173C73.0816 25.9173 73.364 25.8956 73.6682 25.8522C73.9723 25.8087 74.2765 25.7435 74.5372 25.6349C74.8196 25.5263 75.0368 25.3742 75.2106 25.157C75.3844 24.9397 75.4713 24.679 75.4496 24.3532C75.4279 24.0273 75.3193 23.7449 75.0803 23.5276C74.8413 23.3104 74.5589 23.1583 74.2113 23.0062C73.8637 22.8759 73.4509 22.7673 72.9947 22.6804C72.5385 22.5935 72.0823 22.4849 71.6044 22.3762C71.1264 22.2676 70.6485 22.1373 70.1923 21.9852C69.7361 21.8331 69.345 21.6376 68.9757 21.3552C68.6281 21.0945 68.324 20.7686 68.1285 20.3559C67.9112 19.9431 67.8026 19.4652 67.8026 18.8569C67.8026 18.2051 67.9547 17.6838 68.2805 17.2493C68.5847 16.8148 68.9974 16.4672 69.4754 16.2065C69.9533 15.9458 70.4964 15.7503 71.083 15.6417C71.6695 15.533 72.2344 15.4896 72.7558 15.4896C73.364 15.4896 73.9506 15.5548 74.4937 15.6851C75.0368 15.8155 75.5582 16.011 75.9927 16.3151C76.4489 16.5975 76.8182 16.9886 77.1007 17.4448C77.4048 17.901 77.5786 18.4658 77.6655 19.1176H74.9499C74.8196 18.4876 74.5372 18.0748 74.1027 17.8576C73.6465 17.6403 73.1468 17.5317 72.5602 17.5317C72.3864 17.5317 72.1475 17.5534 71.9085 17.5751C71.6478 17.6186 71.4306 17.662 71.1916 17.7489C70.9744 17.8358 70.7788 17.9662 70.6268 18.1182C70.4747 18.2703 70.3878 18.4876 70.3878 18.7482C70.3878 19.0741 70.4964 19.3131 70.7137 19.5086C70.9309 19.7041 71.2133 19.8562 71.5826 20.0083C71.9302 20.1386 72.343 20.2472 72.7992 20.3341C73.2554 20.421 73.7334 20.5297 74.2113 20.6383C74.6892 20.7469 75.1455 20.8772 75.6017 21.0293C76.0579 21.1814 76.4706 21.3769 76.8182 21.6593C77.1658 21.92 77.47 22.2459 77.6872 22.6369C77.9045 23.028 78.0131 23.5276 78.0131 24.0925C78.0131 24.7877 77.861 25.3742 77.5351 25.8739C77.2093 26.3518 76.7965 26.7646 76.2969 27.0687C75.7972 27.3729 75.2106 27.5901 74.6023 27.7422C73.9723 27.8725 73.364 27.9594 72.7558 27.9594C72.0171 27.9594 71.3219 27.8725 70.6919 27.6987C70.0619 27.5249 69.4971 27.2642 69.0409 26.9384C68.5847 26.5908 68.2153 26.178 67.9547 25.6566C67.694 25.157 67.5419 24.5487 67.5202 23.8318H70.1488V23.8535H70.1706ZM78.7517 15.8372H80.7286V12.2744H83.3356V15.8154H85.6818V17.7489H83.3356V24.049C83.3356 24.3314 83.3573 24.5487 83.379 24.7659C83.4007 24.9614 83.4659 25.1352 83.5311 25.2656C83.618 25.3959 83.7483 25.5046 83.9004 25.5697C84.0742 25.6349 84.2915 25.6784 84.5956 25.6784C84.7694 25.6784 84.9649 25.6784 85.1387 25.6566C85.3125 25.6349 85.508 25.6132 85.6818 25.5697V27.5901C85.3994 27.6336 85.117 27.6553 84.8346 27.677C84.5521 27.7205 84.2915 27.7205 83.9873 27.7205C83.2921 27.7205 82.749 27.6553 82.3363 27.5249C81.9235 27.3946 81.5976 27.1991 81.3587 26.9601C81.1197 26.6994 80.9676 26.3953 80.8807 26.0259C80.7938 25.6566 80.7504 25.2004 80.7286 24.7225V17.7706H78.7517V15.7937V15.8372ZM87.5067 15.8372H89.9615V17.4448H90.005C90.3743 16.7496 90.874 16.2717 91.5257 15.9675C92.1774 15.6634 92.8726 15.5113 93.6547 15.5113C94.5889 15.5113 95.3927 15.6634 96.0878 16.011C96.783 16.3368 97.3479 16.7713 97.8041 17.3579C98.2603 17.9227 98.6079 18.5962 98.8251 19.3565C99.0424 20.1169 99.1727 20.9424 99.1727 21.7897C99.1727 22.5935 99.0641 23.3538 98.8686 24.0925C98.6513 24.8311 98.3472 25.5046 97.9344 26.0694C97.5217 26.6342 97.0003 27.0904 96.3485 27.438C95.6968 27.7856 94.9582 27.9594 94.0892 27.9594C93.7199 27.9594 93.3288 27.916 92.9595 27.8508C92.5902 27.7856 92.2209 27.677 91.8733 27.5249C91.5257 27.3729 91.1998 27.1773 90.9174 26.9384C90.6133 26.6994 90.3743 26.417 90.1788 26.1128H90.1353V32.0002H87.5284V15.8372H87.5067ZM96.6092 21.7462C96.6092 21.2248 96.5441 20.7035 96.392 20.2038C96.2616 19.7041 96.0444 19.2696 95.762 18.8786C95.4796 18.4876 95.132 18.1834 94.7409 17.9444C94.3282 17.7055 93.8502 17.5969 93.3288 17.5969C92.2426 17.5969 91.4171 17.9662 90.8522 18.7265C90.3091 19.4869 90.0267 20.5079 90.0267 21.768C90.0267 22.3762 90.0919 22.9193 90.244 23.419C90.396 23.9187 90.5915 24.3532 90.8957 24.7225C91.1781 25.0918 91.5257 25.3742 91.9385 25.5915C92.3512 25.8087 92.8074 25.9173 93.3506 25.9173C93.9588 25.9173 94.4368 25.787 94.8495 25.548C95.2623 25.309 95.5882 24.9832 95.8706 24.6139C96.1313 24.2228 96.3268 23.7883 96.4354 23.2887C96.5441 22.7673 96.6092 22.2676 96.6092 21.7462ZM101.193 11.3402H103.8V13.7951H101.193V11.3402ZM101.193 15.8372H103.8V27.6336H101.193V15.8372ZM106.125 11.3402H108.731V27.6336H106.125V11.3402ZM116.683 27.9594C115.748 27.9594 114.901 27.8074 114.163 27.4815C113.424 27.1556 112.816 26.7429 112.294 26.1997C111.795 25.6566 111.404 24.9832 111.143 24.2228C110.882 23.4625 110.73 22.6152 110.73 21.7245C110.73 20.8338 110.86 20.0083 111.143 19.2479C111.404 18.4876 111.795 17.8358 112.294 17.271C112.794 16.7279 113.424 16.2934 114.163 15.9892C114.901 15.6851 115.748 15.5113 116.683 15.5113C117.617 15.5113 118.464 15.6634 119.203 15.9892C119.941 16.2934 120.55 16.7279 121.071 17.271C121.571 17.8141 121.962 18.4876 122.222 19.2479C122.483 20.0083 122.635 20.8338 122.635 21.7245C122.635 22.6369 122.505 23.4625 122.222 24.2228C121.94 24.9832 121.571 25.6349 121.071 26.1997C120.571 26.7429 119.941 27.1773 119.203 27.4815C118.464 27.7856 117.639 27.9594 116.683 27.9594ZM116.683 25.8956C117.247 25.8956 117.769 25.7653 118.182 25.5263C118.616 25.2873 118.942 24.9615 119.224 24.5704C119.507 24.1794 119.702 23.7232 119.833 23.2452C119.963 22.7456 120.028 22.2459 120.028 21.7245C120.028 21.2248 119.963 20.7252 119.833 20.2255C119.702 19.7259 119.507 19.2914 119.224 18.9003C118.942 18.5093 118.594 18.2051 118.182 17.9662C117.747 17.7272 117.247 17.5969 116.683 17.5969C116.118 17.5969 115.596 17.7272 115.184 17.9662C114.749 18.2051 114.423 18.531 114.141 18.9003C113.858 19.2914 113.663 19.7259 113.533 20.2255C113.402 20.7252 113.337 21.2248 113.337 21.7245C113.337 22.2459 113.402 22.7456 113.533 23.2452C113.663 23.7449 113.858 24.1794 114.141 24.5704C114.423 24.9615 114.771 25.2873 115.184 25.5263C115.618 25.787 116.118 25.8956 116.683 25.8956ZM123.417 15.8372H125.394V12.2744H128.001V15.8154H130.347V17.7489H128.001V24.049C128.001 24.3314 128.023 24.5487 128.045 24.7659C128.066 24.9614 128.131 25.1352 128.197 25.2656C128.283 25.3959 128.414 25.5046 128.566 25.5697C128.74 25.6349 128.957 25.6784 129.261 25.6784C129.435 25.6784 129.63 25.6784 129.804 25.6566C129.978 25.6349 130.174 25.6132 130.347 25.5697V27.5901C130.065 27.6336 129.782 27.6553 129.5 27.677C129.218 27.7205 128.957 27.7205 128.653 27.7205C127.958 27.7205 127.415 27.6553 127.002 27.5249C126.589 27.3946 126.263 27.1991 126.024 26.9601C125.785 26.6994 125.633 26.3953 125.546 26.0259C125.459 25.6566 125.416 25.2004 125.394 24.7225V17.7706H123.417V15.7937V15.8372Z" fill="black"/>
<path d="M31.2181 11.3402H19.2913L15.6199 0L11.9267 11.3402L0 11.3185L9.64566 18.3355L5.9525 29.6756L15.5982 22.6586L25.2438 29.6756L21.5724 18.3355L31.2181 11.3402Z" fill="#00B67A"/>
<path d="M22.3972 20.899L21.5716 18.3355L15.6191 22.6587L22.3972 20.899Z" fill="#005128"/>
</svg>
