<svg width="320" height="320" viewBox="0 0 320 320" fill="none" xmlns="http://www.w3.org/2000/svg">
<rect width="320" height="320" fill="#F2F2EA"/>
<g clip-path="url(#clip0_1423_4668)">
<path fill-rule="evenodd" clip-rule="evenodd" d="M55.1156 114.792C56.3673 141.25 66.2981 183.568 57.7518 205.334C58.0408 218.807 66.8163 220.224 77.8249 218.641C126.28 211.675 176.746 212.445 228.936 219.855C243.594 221.935 263.77 229.135 264.107 205.644L261.161 105.49C260.751 97.7456 256.546 97.1458 249.987 97.4869C201.225 99.948 152.361 99.566 103.643 96.3428C73.4266 94.7017 53.2817 98.6505 55.1156 114.792Z" fill="#6A443F"/>
<path fill-rule="evenodd" clip-rule="evenodd" d="M61.097 186.333C61.0264 192.807 59.8964 199.226 57.752 205.334C58.0409 218.807 66.8165 220.224 77.8251 218.641C126.28 211.675 176.746 212.445 228.936 219.855C243.594 221.935 263.77 229.135 264.107 205.644L263.421 182.313C226.642 189.302 193.255 183.503 156.689 180.672C126.087 178.301 91.9937 187.784 61.097 186.333Z" fill="#331815" stroke="#3C1F1B" stroke-width="0.72" stroke-miterlimit="2.6131"/>
<path d="M57.8481 112.736H64.5929" stroke="#3C1F1B" stroke-width="1.5" stroke-linecap="round" stroke-linejoin="round"/>
<path d="M68.7778 112.736H75.5225" stroke="#3C1F1B" stroke-width="1.5" stroke-linecap="round" stroke-linejoin="round"/>
<path d="M79.708 112.736H86.4527" stroke="#3C1F1B" stroke-width="1.5" stroke-linecap="round" stroke-linejoin="round"/>
<path d="M90.6377 112.736H97.3824" stroke="#3C1F1B" stroke-width="1.5" stroke-linecap="round" stroke-linejoin="round"/>
<path d="M101.568 112.736H108.313" stroke="#3C1F1B" stroke-width="1.5" stroke-linecap="round" stroke-linejoin="round"/>
<path d="M112.498 112.736H119.242" stroke="#3C1F1B" stroke-width="1.5" stroke-linecap="round" stroke-linejoin="round"/>
<path d="M123.427 112.736H130.172" stroke="#3C1F1B" stroke-width="1.5" stroke-linecap="round" stroke-linejoin="round"/>
<path d="M134.357 112.736H141.102" stroke="#3C1F1B" stroke-width="1.5" stroke-linecap="round" stroke-linejoin="round"/>
<path d="M145.287 112.736H152.032" stroke="#3C1F1B" stroke-width="1.5" stroke-linecap="round" stroke-linejoin="round"/>
<path d="M156.217 112.736H162.962" stroke="#3C1F1B" stroke-width="1.5" stroke-linecap="round" stroke-linejoin="round"/>
<path d="M167.147 112.736H173.892" stroke="#3C1F1B" stroke-width="1.5" stroke-linecap="round" stroke-linejoin="round"/>
<path d="M178.077 112.736H184.822" stroke="#3C1F1B" stroke-width="1.5" stroke-linecap="round" stroke-linejoin="round"/>
<path d="M189.007 112.736H195.752" stroke="#3C1F1B" stroke-width="1.5" stroke-linecap="round" stroke-linejoin="round"/>
<path d="M199.937 112.736H206.681" stroke="#3C1F1B" stroke-width="1.5" stroke-linecap="round" stroke-linejoin="round"/>
<path d="M210.867 112.736H217.611" stroke="#3C1F1B" stroke-width="1.5" stroke-linecap="round" stroke-linejoin="round"/>
<path d="M221.796 112.736H228.541" stroke="#3C1F1B" stroke-width="1.5" stroke-linecap="round" stroke-linejoin="round"/>
<path d="M232.726 112.736H239.471" stroke="#3C1F1B" stroke-width="1.5" stroke-linecap="round" stroke-linejoin="round"/>
<path d="M243.656 112.736H250.401" stroke="#3C1F1B" stroke-width="1.5" stroke-linecap="round" stroke-linejoin="round"/>
<path d="M253.773 112.736H260.518" stroke="#3C1F1B" stroke-width="1.5" stroke-linecap="round" stroke-linejoin="round"/>
<path opacity="0.38" d="M82.2209 192.926L73.229 202.539" stroke="#3C1F1B" stroke-width="1.72" stroke-linecap="round" stroke-linejoin="round"/>
<path opacity="0.38" d="M105.787 189.36L83.6162 212.306" stroke="#3C1F1B" stroke-width="1.72" stroke-linecap="round" stroke-linejoin="round"/>
<path opacity="0.38" d="M132.298 186.57L111.678 207.965" stroke="#3C1F1B" stroke-width="1.72" stroke-linecap="round" stroke-linejoin="round"/>
<path opacity="0.38" d="M154.003 188.119L138.035 204.089" stroke="#3C1F1B" stroke-width="1.72" stroke-linecap="round" stroke-linejoin="round"/>
<path opacity="0.38" d="M182.685 186.57L164.546 206.414" stroke="#3C1F1B" stroke-width="1.72" stroke-linecap="round" stroke-linejoin="round"/>
<path opacity="0.38" d="M199.895 191.841L184.391 208.119" stroke="#3C1F1B" stroke-width="1.72" stroke-linecap="round" stroke-linejoin="round"/>
<path opacity="0.38" d="M228.266 192.771L214.313 207.809" stroke="#3C1F1B" stroke-width="1.72" stroke-linecap="round" stroke-linejoin="round"/>
<path opacity="0.38" d="M255.553 190.29L238.654 210.91" stroke="#3C1F1B" stroke-width="1.72" stroke-linecap="round" stroke-linejoin="round"/>
<path d="M117.375 156.241H114.871L119.431 143.289H122.327L126.894 156.241H124.389L120.93 145.945H120.828L117.375 156.241ZM117.457 151.163H124.288V153.047H117.457V151.163ZM133.133 143.289V156.241H130.786V145.572H130.711L127.681 147.507V145.357L130.9 143.289H133.133ZM138.212 156.241H135.707L140.267 143.289H143.164L147.73 156.241H145.225L141.766 145.945H141.665L138.212 156.241ZM138.294 151.163H145.124V153.047H138.294V151.163ZM151.099 156.241H148.595L153.155 143.289H156.052L160.618 156.241H158.113L154.654 145.945H154.553L151.099 156.241ZM151.182 151.163H158.012V153.047H151.182V151.163ZM163.987 156.241H161.483L166.043 143.289H168.939L173.506 156.241H171.001L167.542 145.945H167.441L163.987 156.241ZM164.07 151.163H170.9V153.047H164.07V151.163ZM179.745 143.289V156.241H177.399V145.572H177.323L174.293 147.507V145.357L177.512 143.289H179.745ZM188.302 143.289V156.241H185.956V145.572H185.88L182.85 147.507V145.357L186.07 143.289H188.302ZM193.381 156.241H190.876L195.436 143.289H198.333L202.899 156.241H200.395L196.935 145.945H196.834L193.381 156.241ZM193.463 151.163H200.294V153.047H193.463V151.163Z" fill="white"/>
</g>
<defs>
<clipPath id="clip0_1423_4668">
<rect width="210" height="127.425" fill="white" transform="translate(55 96)"/>
</clipPath>
</defs>
</svg>
