<svg width="320" height="320" viewBox="0 0 320 320" fill="none" xmlns="http://www.w3.org/2000/svg">
<rect width="320" height="320" fill="#F2F2EA"/>
<g clip-path="url(#clip0_1423_4977)">
<rect x="63" y="135" width="194" height="49" fill="#DCCDB3"/>
<path fill-rule="evenodd" clip-rule="evenodd" d="M73.0669 128H246.933C251.721 128.011 256.31 129.918 259.696 133.304C263.082 136.69 264.989 141.279 265 146.067V173.443C265 175.815 264.531 178.163 263.621 180.353C262.711 182.544 261.377 184.533 259.696 186.206H259.679C258.008 187.886 256.022 189.219 253.835 190.129C251.648 191.039 249.302 191.508 246.933 191.51H73.0669C70.6979 191.508 68.3524 191.039 66.1652 190.129C63.9779 189.219 61.9919 187.886 60.3209 186.206L60.304 186.189C58.6245 184.518 57.2915 182.532 56.3813 180.345C55.4711 178.157 55.0017 175.812 55 173.443V146.067C55.0017 143.698 55.4712 141.352 56.3813 139.165C57.2915 136.978 58.6245 134.992 60.304 133.321V133.304C61.9775 131.623 63.9664 130.29 66.1566 129.379C68.3468 128.469 70.6951 128 73.0669 128ZM246.933 136.761H73.0669C71.8456 136.762 70.6366 137.004 69.5092 137.474C68.3818 137.943 67.3581 138.631 66.4969 139.497L66.4889 139.489C65.6242 140.352 64.9382 141.378 64.47 142.506C64.0019 143.635 63.7608 144.845 63.7605 146.067V173.443C63.7629 175.91 64.7441 178.276 66.4889 180.021C68.2337 181.766 70.5994 182.747 73.0669 182.75H246.933C248.155 182.749 249.365 182.508 250.494 182.04C251.622 181.572 252.648 180.886 253.511 180.021L253.503 180.013C254.369 179.152 255.057 178.128 255.526 177.001C255.996 175.873 256.238 174.664 256.239 173.443V146.067C256.23 143.602 255.246 141.24 253.503 139.497C251.76 137.754 249.398 136.77 246.933 136.761Z" fill="#3C1F1B"/>
<path d="M82.8399 152.081H85.8588L91.1077 164.897H91.3009L96.5498 152.081H99.5687V168.568H97.2018V156.637H97.0489L92.1864 168.544H90.2221L85.3597 156.629H85.2067V168.568H82.8399V152.081ZM104.578 168.568H101.938L107.871 152.081H110.745L116.678 168.568H114.037L109.376 155.075H109.247L104.578 168.568ZM105.021 162.112H113.586V164.205H105.021V162.112ZM124.396 168.568H119.059V152.081H124.565C126.181 152.081 127.568 152.411 128.727 153.071C129.887 153.726 130.775 154.668 131.392 155.897C132.015 157.12 132.326 158.588 132.326 160.3C132.326 162.018 132.012 163.494 131.384 164.728C130.761 165.962 129.86 166.912 128.679 167.578C127.498 168.238 126.071 168.568 124.396 168.568ZM121.546 166.394H124.259C125.515 166.394 126.559 166.158 127.391 165.686C128.223 165.208 128.845 164.519 129.259 163.617C129.672 162.71 129.879 161.604 129.879 160.3C129.879 159.007 129.672 157.909 129.259 157.008C128.851 156.106 128.242 155.422 127.431 154.955C126.621 154.488 125.614 154.254 124.412 154.254H121.546V166.394ZM135.419 168.568V152.081H145.756V154.222H137.907V159.246H145.217V161.379H137.907V166.427H145.853V168.568H135.419ZM157.566 152.081V168.568H155.078V152.081H157.566ZM174.496 152.081V168.568H172.21L163.829 156.476H163.676V168.568H161.189V152.081H163.491L171.88 164.189H172.033V152.081H174.496ZM186.612 152.081V168.568H184.124V152.081H186.612ZM189.421 154.222V152.081H202.181V154.222H197.037V168.568H194.558V154.222H189.421ZM204.446 168.568H201.805L207.738 152.081H210.612L216.545 168.568H213.905L209.244 155.075H209.115L204.446 168.568ZM204.888 162.112H213.454V164.205H204.888V162.112ZM218.926 168.568V152.081H221.414V166.427H228.885V168.568H218.926ZM229.233 152.081H232.059L236.366 159.576H236.543L240.85 152.081H243.675L237.694 162.095V168.568H235.214V162.095L229.233 152.081Z" fill="#3C1F1B"/>
</g>
<defs>
<clipPath id="clip0_1423_4977">
<rect width="210" height="63.5101" fill="white" transform="translate(55 128)"/>
</clipPath>
</defs>
</svg>
