<svg width="320" height="320" viewBox="0 0 320 320" fill="none" xmlns="http://www.w3.org/2000/svg">
<rect width="320" height="320" fill="#F2F2EA"/>
<path d="M77.0348 77.5121C76.7819 74.8565 78.7297 72.499 81.385 72.2461L209.605 60.0356C212.26 59.7829 214.618 61.7305 214.871 64.3861L230.744 231.071C230.997 233.727 229.049 236.085 226.394 236.337L98.1744 248.548C95.5189 248.801 93.1611 246.853 92.9082 244.198L77.0348 77.5121Z" fill="#DCCDB3"/>
<path fill-rule="evenodd" clip-rule="evenodd" d="M75.0313 77.702C74.6729 73.94 77.4323 70.6 81.1942 70.2418L209.414 58.0313C213.176 57.6731 216.516 60.4322 216.874 64.1942L232.748 230.88C233.106 234.642 230.347 237.982 226.585 238.34L98.3651 250.551C94.6031 250.909 91.2629 248.149 90.9047 244.387L75.0313 77.702ZM81.5757 74.2486C80.0268 74.396 78.8907 75.7713 79.0381 77.3205L94.9115 244.006C95.0592 245.555 96.4344 246.691 97.9834 246.543L226.203 234.333C227.752 234.186 228.888 232.81 228.741 231.261L212.867 64.5759C212.72 63.0267 211.344 61.8906 209.795 62.0381L81.5757 74.2486Z" fill="#3C1F1B"/>
<path d="M104.316 87.7181C104.316 85.0505 106.479 82.888 109.146 82.888H237.946C240.614 82.888 242.776 85.0505 242.776 87.7181V255.158C242.776 257.825 240.614 259.987 237.946 259.987H109.146C106.479 259.987 104.316 257.825 104.316 255.158V87.7181Z" fill="white"/>
<path fill-rule="evenodd" clip-rule="evenodd" d="M102.305 87.718C102.305 83.9391 105.368 80.8756 109.147 80.8756H237.947C241.726 80.8756 244.789 83.9391 244.789 87.718V255.158C244.789 258.936 241.726 262 237.947 262H109.147C105.368 262 102.305 258.936 102.305 255.158V87.718ZM109.147 84.9005C107.591 84.9005 106.33 86.162 106.33 87.718V255.158C106.33 256.714 107.591 257.975 109.147 257.975H237.947C239.503 257.975 240.764 256.714 240.764 255.158V87.718C240.764 86.162 239.503 84.9005 237.947 84.9005H109.147Z" fill="#3C1F1B"/>
<path d="M226.452 187.494H171.35C169.219 187.494 167.491 189.221 167.491 191.352V227.608C167.491 229.739 169.219 231.466 171.35 231.466H226.452C228.583 231.466 230.311 229.739 230.311 227.608V191.352C230.311 189.221 228.583 187.494 226.452 187.494Z" fill="white"/>
<path d="M216.17 142.722H131.834C130.566 142.723 129.351 143.228 128.454 144.124C127.558 145.02 127.054 146.236 127.053 147.503V168.106L127.048 168.128C127.048 168.16 127.053 168.19 127.053 168.221V191.309C127.055 193.422 127.896 195.447 129.389 196.941C130.883 198.435 132.909 199.275 135.021 199.278H212.986C215.099 199.275 217.124 198.435 218.618 196.941C220.112 195.447 220.952 193.422 220.955 191.309V147.503C220.954 146.236 220.449 145.02 219.553 144.124C218.657 143.228 217.441 142.723 216.174 142.722H216.17ZM131.832 145.91H216.172C216.594 145.91 217 146.078 217.298 146.377C217.597 146.676 217.765 147.081 217.766 147.503V168.114L217.763 168.13C217.759 171.087 216.583 173.923 214.491 176.015C212.4 178.106 209.564 179.283 206.606 179.286H182.375C182.002 177.317 180.953 175.539 179.409 174.261C177.865 172.982 175.924 172.283 173.919 172.283C171.915 172.283 169.973 172.982 168.43 174.261C166.886 175.539 165.837 177.317 165.464 179.286H141.39C138.448 179.282 135.627 178.118 133.539 176.046C131.451 173.974 130.265 171.162 130.239 168.221V147.502C130.239 147.079 130.407 146.674 130.706 146.375C131.005 146.076 131.41 145.91 131.832 145.91ZM168.498 180.865C168.522 179.444 169.104 178.088 170.118 177.092C171.132 176.095 172.497 175.536 173.919 175.536C175.341 175.536 176.706 176.095 177.72 177.092C178.734 178.088 179.316 179.444 179.34 180.865L179.339 180.878L179.342 180.896C179.342 182.334 178.771 183.713 177.754 184.73C176.737 185.747 175.357 186.318 173.919 186.318C172.481 186.318 171.102 185.747 170.085 184.73C169.068 183.713 168.497 182.334 168.497 180.896L168.5 180.88L168.498 180.865ZM212.984 196.09H135.02C133.752 196.089 132.537 195.585 131.64 194.689C130.744 193.792 130.24 192.577 130.239 191.309V177.13C131.58 178.797 133.278 180.142 135.208 181.067C137.138 181.991 139.25 182.471 141.39 182.472H165.46C165.829 184.446 166.876 186.23 168.421 187.513C169.966 188.796 171.911 189.499 173.919 189.499C175.928 189.499 177.873 188.796 179.418 187.513C180.963 186.23 182.01 184.446 182.378 182.472H206.606C208.748 182.471 210.863 181.99 212.794 181.064C214.726 180.138 216.424 178.79 217.766 177.12V191.309C217.764 192.577 217.26 193.792 216.364 194.689C215.468 195.585 214.252 196.089 212.984 196.09Z" fill="#3C1F1B"/>
</svg>
