<svg width="320" height="320" viewBox="0 0 320 320" fill="none" xmlns="http://www.w3.org/2000/svg">
<g clip-path="url(#clip0_1444_1533)">
<rect width="320" height="320" fill="#DCFFE0"/>
<path d="M77.0348 77.5122C76.7819 74.8566 78.7297 72.4991 81.385 72.2461L209.605 60.0356C212.26 59.7829 214.618 61.7305 214.871 64.3861L230.744 231.071C230.997 233.727 229.049 236.085 226.394 236.338L98.1744 248.548C95.5189 248.801 93.1611 246.853 92.9082 244.198L77.0348 77.5122Z" fill="#DCCDB3"/>
<path fill-rule="evenodd" clip-rule="evenodd" d="M75.0313 77.702C74.6729 73.94 77.4323 70.6 81.1942 70.2418L209.414 58.0313C213.176 57.6731 216.516 60.4322 216.874 64.1942L232.748 230.88C233.106 234.642 230.347 237.982 226.585 238.34L98.3651 250.551C94.6031 250.909 91.2629 248.149 90.9047 244.387L75.0313 77.702ZM81.5757 74.2486C80.0268 74.396 78.8907 75.7713 79.0381 77.3205L94.9115 244.006C95.0592 245.555 96.4344 246.691 97.9834 246.543L226.203 234.333C227.752 234.186 228.888 232.81 228.741 231.261L212.867 64.5759C212.72 63.0267 211.344 61.8906 209.795 62.0381L81.5757 74.2486Z" fill="#3C1F1B"/>
<path d="M104.316 87.7182C104.316 85.0506 106.479 82.8881 109.146 82.8881H237.946C240.614 82.8881 242.776 85.0506 242.776 87.7182V255.158C242.776 257.825 240.614 259.988 237.946 259.988H109.146C106.479 259.988 104.316 257.825 104.316 255.158V87.7182Z" fill="white"/>
<path fill-rule="evenodd" clip-rule="evenodd" d="M102.305 87.7181C102.305 83.9392 105.368 80.8756 109.147 80.8756H237.947C241.726 80.8756 244.789 83.9392 244.789 87.7181V255.158C244.789 258.936 241.726 262 237.947 262H109.147C105.368 262 102.305 258.936 102.305 255.158V87.7181ZM109.147 84.9006C107.591 84.9006 106.33 86.162 106.33 87.7181V255.158C106.33 256.714 107.591 257.975 109.147 257.975H237.947C239.503 257.975 240.764 256.714 240.764 255.158V87.7181C240.764 86.162 239.503 84.9006 237.947 84.9006H109.147Z" fill="#3C1F1B"/>
<path d="M226.452 187.494H171.35C169.219 187.494 167.491 189.221 167.491 191.352V227.608C167.491 229.739 169.219 231.466 171.35 231.466H226.452C228.583 231.466 230.311 229.739 230.311 227.608V191.352C230.311 189.221 228.583 187.494 226.452 187.494Z" fill="white"/>
<g clip-path="url(#clip1_1444_1533)">
<path d="M171.095 190.953C182.373 190.953 191.548 181.778 191.548 170.5C191.548 159.222 182.373 150.047 171.095 150.047C159.817 150.047 150.642 159.222 150.642 170.5C150.642 181.778 159.817 190.953 171.095 190.953ZM169.892 152.494V154.859C169.892 155.178 170.018 155.484 170.244 155.71C170.47 155.936 170.776 156.062 171.095 156.062C171.414 156.062 171.72 155.936 171.945 155.71C172.171 155.484 172.298 155.178 172.298 154.859V152.494C181.292 153.089 188.505 160.302 189.101 169.297H186.735C186.416 169.297 186.11 169.424 185.885 169.649C185.659 169.875 185.532 170.181 185.532 170.5C185.532 170.819 185.659 171.125 185.885 171.351C186.11 171.576 186.416 171.703 186.735 171.703H189.101C188.505 180.698 181.292 187.911 172.298 188.506V186.141C172.298 185.822 172.171 185.516 171.945 185.29C171.72 185.064 171.414 184.938 171.095 184.938C170.776 184.938 170.47 185.064 170.244 185.29C170.018 185.516 169.892 185.822 169.892 186.141V188.506C160.897 187.911 153.684 180.698 153.089 171.703H155.454C155.773 171.703 156.079 171.576 156.305 171.351C156.53 171.125 156.657 170.819 156.657 170.5C156.657 170.181 156.53 169.875 156.305 169.649C156.079 169.424 155.773 169.297 155.454 169.297H153.089C153.684 160.302 160.897 153.089 169.892 152.494Z" fill="#3C1F1B"/>
<path d="M199.067 164.484H196.873C196.649 163.526 196.371 162.581 196.041 161.653L197.725 160.681C199.305 159.771 199.849 157.744 198.938 156.162L197.434 153.557C196.519 151.973 194.498 151.431 192.913 152.347L191.218 153.326C190.851 152.896 190.47 152.479 190.076 152.074L188.233 141.936C187.97 140.486 186.787 139.404 185.352 139.242L184.648 135.016C184.509 134.172 184.075 133.405 183.423 132.853C182.77 132.3 181.942 131.998 181.087 132H161.102C160.247 131.998 159.419 132.3 158.766 132.853C158.114 133.405 157.68 134.172 157.542 135.016L156.837 139.242C155.402 139.404 154.219 140.486 153.956 141.936L152.113 152.074C142.121 162.363 142.137 178.653 152.113 188.926L153.956 199.064C154.219 200.514 155.402 201.596 156.837 201.758L157.542 205.984C157.68 206.828 158.114 207.595 158.766 208.147C159.419 208.7 160.247 209.002 161.102 209H181.087C181.942 209.002 182.77 208.7 183.423 208.147C184.075 207.595 184.509 206.828 184.648 205.984L185.352 201.758C186.787 201.596 187.97 200.514 188.233 199.064L190.077 188.926C190.47 188.521 190.851 188.104 191.218 187.674C192.911 188.652 193.458 189.099 194.564 189.099C195.705 189.099 196.817 188.51 197.434 187.443L198.938 184.837C199.849 183.256 199.305 181.229 197.726 180.319L196.041 179.347C196.371 178.42 196.649 177.474 196.873 176.516H199.067C200.892 176.516 202.376 175.031 202.376 173.207V167.793C202.376 165.969 200.892 164.484 199.067 164.484ZM194.117 154.43C194.219 154.371 194.332 154.332 194.45 154.317C194.568 154.301 194.687 154.309 194.802 154.339C194.916 154.37 195.023 154.423 195.118 154.495C195.212 154.567 195.291 154.657 195.35 154.76L196.853 157.364C197.102 157.795 196.954 158.348 196.523 158.597L195.122 159.405C194.443 157.94 193.635 156.548 192.711 155.242L194.117 154.43ZM159.915 135.412C159.961 135.13 160.106 134.875 160.323 134.691C160.541 134.506 160.817 134.406 161.102 134.406H181.087C181.372 134.406 181.648 134.506 181.866 134.691C182.083 134.875 182.228 135.13 182.274 135.412L182.909 139.219H159.281L159.915 135.412ZM157.211 141.625H184.979C185.19 141.625 185.395 141.699 185.557 141.835C185.719 141.97 185.828 142.159 185.866 142.367L187.159 149.479C177.669 142.209 164.513 142.215 155.03 149.479L156.323 142.366C156.401 141.937 156.775 141.625 157.211 141.625ZM171.095 146.438C184.363 146.438 195.157 157.232 195.157 170.5C195.157 183.768 184.363 194.563 171.095 194.563C157.827 194.563 147.032 183.768 147.032 170.5C147.032 157.232 157.827 146.438 171.095 146.438ZM182.274 205.588C182.228 205.87 182.083 206.125 181.866 206.309C181.648 206.494 181.372 206.594 181.087 206.594H161.102C160.817 206.595 160.541 206.494 160.323 206.31C160.106 206.125 159.961 205.87 159.915 205.588L159.281 201.781H182.909L182.274 205.588ZM184.979 199.375H157.211C156.999 199.375 156.795 199.301 156.632 199.165C156.47 199.03 156.361 198.841 156.323 198.633L155.03 191.521C164.52 198.791 177.676 198.785 187.159 191.521L185.866 198.634C185.828 198.842 185.719 199.03 185.557 199.165C185.395 199.301 185.19 199.375 184.979 199.375ZM196.524 182.404C196.954 182.652 197.102 183.204 196.854 183.635L195.35 186.24C195.291 186.342 195.212 186.432 195.118 186.505C195.024 186.577 194.916 186.63 194.802 186.66C194.687 186.691 194.568 186.699 194.45 186.683C194.333 186.668 194.219 186.629 194.117 186.569L192.711 185.758C193.64 184.446 194.447 183.053 195.122 181.595L196.524 182.404ZM199.97 173.207C199.97 173.705 199.565 174.109 199.067 174.109H197.316C197.646 171.714 197.646 169.286 197.316 166.891H199.067C199.565 166.891 199.97 167.295 199.97 167.793V173.207Z" fill="#3C1F1B"/>
<path d="M170.244 171.351C170.47 171.576 170.776 171.703 171.095 171.703C171.414 171.703 171.72 171.576 171.945 171.351L181.57 161.726C181.682 161.614 181.771 161.481 181.831 161.335C181.892 161.189 181.923 161.033 181.923 160.875C181.923 160.717 181.892 160.561 181.831 160.415C181.771 160.269 181.682 160.136 181.57 160.024C181.345 159.799 181.039 159.672 180.72 159.672C180.401 159.672 180.095 159.799 179.869 160.024L171.095 168.799L165.93 163.634C165.704 163.408 165.398 163.281 165.079 163.281C164.76 163.281 164.454 163.408 164.228 163.634C164.117 163.745 164.028 163.878 163.968 164.024C163.907 164.17 163.876 164.326 163.876 164.484C163.876 164.642 163.907 164.799 163.968 164.945C164.028 165.091 164.117 165.223 164.228 165.335L170.244 171.351Z" fill="#3C1F1B"/>
</g>
<g style="mix-blend-mode:hue">
<rect width="320" height="320" fill="#00BF13"/>
</g>
</g>
<defs>
<clipPath id="clip0_1444_1533">
<rect width="320" height="320" fill="white"/>
</clipPath>
<clipPath id="clip1_1444_1533">
<rect width="77" height="77" fill="white" transform="translate(135 132)"/>
</clipPath>
</defs>
</svg>
