<svg width="320" height="320" viewBox="0 0 320 320" fill="none" xmlns="http://www.w3.org/2000/svg">
<g clip-path="url(#clip0_1444_355)">
<rect width="320" height="320" fill="#DCFFE0"/>
<g clip-path="url(#clip1_1444_355)">
<path d="M253.673 320H62.8364C60.6114 319.311 58.8235 317.829 56.8707 316.659C50.0861 312.523 43.5892 307.932 37.4247 302.918C33.6465 299.894 30.0123 296.699 26.5221 293.332C24.7566 291.63 22.9517 289.967 21.243 288.207C16.0692 282.928 11.2226 277.337 6.73043 271.466C4.64372 268.714 2.53686 265.978 0.63755 263.089C0.40672 262.738 0.26213 262.341 0 262.012V58.5697C0.9303 56.9096 1.98867 55.3246 3.16547 53.8291C6.8154 48.739 10.725 43.8401 14.8786 39.152C18.6189 34.8716 22.5972 30.8078 26.7352 26.9191C33.9348 20.1506 41.655 13.9582 49.8245 8.399C53.9093 5.6193 58.1218 3.04255 62.3778 0.53475C62.7748 0.30075 63.2359 0.25675 63.6121 0H252.897C253.97 0.43782 255.004 0.968046 255.985 1.5847C261.48 4.78961 266.801 8.28366 271.925 12.0521C276.685 15.5507 281.295 19.2418 285.719 23.168C290.072 27.0306 294.172 31.1502 298.192 35.3417C303.678 41.1322 308.761 47.2923 313.404 53.7785C315.471 56.6289 317.352 59.6033 319.334 62.5102C319.646 63.0314 319.871 63.6002 320 64.1939V256.388C319.142 258.37 318.045 260.24 316.735 261.957C313.317 267.023 309.658 271.91 305.76 276.62C302.808 280.174 299.757 283.637 296.539 286.956C290.55 293.169 284.152 298.974 277.388 304.333C270.289 309.897 262.817 314.968 255.025 319.511C254.594 319.763 254.099 319.773 253.673 320Z" fill="#3C1F1B"/>
<path d="M286.643 0C286.615 0.484489 286.705 0.968478 286.903 1.41127C288.958 8.97927 290.9 16.576 292.729 24.2014C292.917 24.9859 293.142 25.7642 293.276 26.558C293.445 27.4479 293.902 28.2575 294.577 28.8625C299.096 33.3379 303.387 38.0369 307.436 42.9418C311.679 48.1033 315.652 53.4809 319.339 59.0531C319.571 59.4019 319.781 59.7648 320 60.1212V64.1939C318.694 62.0858 317.318 60.0235 315.947 57.9566C313.912 54.8898 311.717 51.9433 309.483 49.0257C307.68 46.671 305.781 44.391 303.875 42.1157C299.255 36.7214 294.347 31.5811 289.171 26.7173C286.359 24.0153 283.389 21.482 280.382 18.9913C277.797 16.8506 275.13 14.8211 272.453 12.8042C269.44 10.5336 266.301 8.43719 263.149 6.36085C260.022 4.30124 256.801 2.40235 253.564 0.52746C253.316 0.38385 253.02 0.30155 252.897 0H257.164C259.718 1.29463 262.18 2.76132 264.535 4.38994C266.38 5.51272 268.164 6.73294 269.879 8.04543C270.322 8.39997 270.821 8.67793 271.355 8.86777C270.736 6.8489 270.368 4.92389 269.792 3.05121C269.593 2.40364 269.409 1.75295 269.258 1.09321C269.173 0.71821 269.055 0.33168 269.382 2e-05H271.322C271.64 0.279454 271.849 0.662643 271.911 1.08152C272.7 4.07904 273.589 7.05044 274.29 10.0703C274.464 10.9278 274.954 11.689 275.661 12.2044C280.209 15.6155 284.57 19.2553 288.822 23.028C289.246 23.4591 289.695 23.8659 290.165 24.2467C290.242 24.004 290.227 23.7414 290.123 23.5088C288.404 16.0838 286.404 8.73083 284.448 1.36634C284.325 0.90042 284.103 0.43847 284.51 2e-05L286.643 0Z" fill="#5E4F47"/>
<path d="M320 260.461C317.44 264.375 314.757 268.205 311.917 271.921C309.801 274.69 307.613 277.401 305.353 280.055C301.283 284.821 296.987 289.373 292.466 293.71C292.05 294.115 291.765 294.635 291.648 295.203C289.681 303.393 287.539 311.538 285.224 319.637C285.189 319.76 285.136 319.879 285.091 320H282.958C282.557 319.552 282.799 319.081 282.928 318.628C284.51 313.074 285.961 307.485 287.455 301.908C287.788 300.666 288.045 299.406 288.362 297.942C286.878 299.058 285.67 300.207 284.411 301.288C281.226 304.02 277.963 306.653 274.585 309.142C273.87 309.638 273.353 310.37 273.124 311.21C272.438 313.599 271.868 316.017 271.202 318.41C271.125 318.988 270.899 319.536 270.546 320H268.218C267.916 319.628 268.149 319.259 268.237 318.898C268.74 316.84 269.285 314.793 269.89 312.74C269.5 312.686 269.323 312.958 269.097 313.107C266.056 315.11 263.032 317.14 259.931 319.052C259.308 319.447 258.639 319.765 257.94 320H253.673C255.493 318.898 257.317 317.802 259.133 316.692C263.264 314.165 267.287 311.477 271.202 308.627C273.369 307.054 275.519 305.459 277.601 303.775C279.733 302.051 281.845 300.303 283.938 298.53C288.646 294.533 293.021 290.18 297.306 285.741C299.771 283.186 302.108 280.513 304.395 277.794C307.615 273.964 310.686 270.019 313.606 265.959C315.802 262.889 317.915 259.76 319.867 256.526C319.906 256.475 319.95 256.429 320 256.388V260.461Z" fill="#5E4E47"/>
<path d="M0 54.6909C0.30928 54.6048 0.44636 54.3425 0.61429 54.1049C4.58267 48.4885 8.85335 43.0918 13.4074 37.9389C16.0806 34.9151 18.8347 31.9622 21.7364 29.1541C22.3621 28.549 22.7795 27.7608 22.9285 26.9032C24.0886 21.2754 25.4258 15.6874 26.8342 10.1171C27.6886 6.73786 28.5955 3.37194 29.4788 5e-05H31.8061C31.8838 0.195828 31.9197 0.405711 31.9114 0.616198C31.9032 0.826684 31.851 1.03311 31.7581 1.2222C31.2833 2.83264 30.8598 4.4592 30.4447 6.08309C28.8861 12.1813 27.2971 18.2738 26.0265 24.5367C27.0114 23.8558 27.928 23.0811 28.7633 22.2233C32.6198 18.7326 36.6103 15.4068 40.7791 12.2973C41.6698 11.6494 42.2723 10.6792 42.4582 9.59358C43.0156 6.70853 43.7177 3.85334 44.562 1.03884C44.6884 0.63855 44.7552 0.21169 45.1879 0H47.1273C47.5583 0.46545 47.3386 0.982 47.2041 1.46351C46.5301 3.87651 46.1093 6.3522 45.2646 8.93596C50.0034 5.77468 54.4539 2.53567 59.3455 0H63.6121C62.9226 0.623576 62.1391 1.13452 61.2905 1.514C56.0696 4.59876 50.9538 7.84058 46.0491 11.4141C43.5736 13.2178 41.0882 15.0099 38.7112 16.9387C36.3597 18.8466 34.0392 20.7936 31.7495 22.7795C27.492 26.4548 23.5027 30.4044 19.6015 34.4434C17.0483 37.0867 14.6307 39.8576 12.2502 42.6621C8.11259 47.5629 4.22584 52.6702 0.60487 57.9642C0.465478 58.2199 0.255512 58.43 0 58.5697L0 54.6909Z" fill="#5E4F47"/>
<path d="M31.8061 320C31.8302 319.515 31.7378 319.032 31.5368 318.59C29.3881 310.945 27.3226 303.278 25.3403 295.588C25.18 294.963 24.841 294.398 24.3646 293.962C19.1595 288.985 14.2415 283.716 9.63459 278.18C6.53541 274.458 3.60233 270.607 0.78645 266.666C0.57553 266.371 0.48339 265.922 0 265.891V262.012C0.42771 262.059 0.54478 262.449 0.72961 262.727C2.87555 265.947 5.19612 269.04 7.56612 272.095C9.52212 274.617 11.5551 277.075 13.6435 279.492C17.2115 283.621 20.9067 287.627 24.8571 291.388C27.4243 293.832 30.0259 296.24 32.707 298.566C37.8763 303.036 43.2819 307.225 48.9005 311.115C52.3979 313.546 55.9763 315.849 59.6358 318.023C60.7137 318.664 61.7701 319.34 62.8364 320H58.5697C56.7072 319.121 54.9248 318.082 53.2429 316.894C51.1341 315.529 49.0235 314.167 46.8756 312.769C47.1726 314.055 47.4383 315.329 47.8207 316.573C48.0576 317.344 48.2856 318.118 48.4973 318.895C48.5952 319.255 48.7831 319.636 48.4849 320H46.3515C45.8895 319.773 45.7906 319.326 45.6654 318.889C44.9459 316.375 44.2865 313.845 43.5541 311.335C43.3286 310.492 42.8194 309.753 42.1124 309.241C39.0821 306.986 36.1587 304.594 33.2175 302.225C31.7374 301.033 30.3525 299.725 28.7989 298.393C28.9095 299.333 29.1047 300.26 29.3821 301.164C30.9688 306.987 32.4775 312.831 34.1619 318.627C34.2933 319.079 34.535 319.551 34.1333 320H31.8061Z" fill="#5E4F47"/>
<path d="M45.188 0C44.5768 1.86689 44.1002 3.76986 43.659 5.68264C43.2974 7.24994 42.8294 8.79422 42.5889 10.3873C42.5288 10.752 42.3943 11.1005 42.1937 11.4111C41.9932 11.7217 41.7309 11.9877 41.4232 12.1926C40.2632 13.0654 39.0956 13.9297 37.9666 14.8416C35.5856 16.7649 33.181 18.6601 30.9198 20.7284C29.3021 22.208 27.6522 23.6523 26.0158 25.1113C25.9707 25.1697 25.9088 25.213 25.8385 25.2354C25.7681 25.2577 25.6926 25.2581 25.6221 25.2364C25.662 24.4525 25.7987 23.6765 26.029 22.926C27.2757 17.3359 28.6438 11.7746 30.088 6.23235C30.6312 4.14721 31.2317 2.077 31.8062 0H45.188Z" fill="#DCCDB3"/>
<path d="M284.509 0C284.51 0.54808 284.622 1.09026 284.84 1.59326C286.685 8.59902 288.56 15.5972 290.253 22.6418C290.497 23.3624 290.64 24.1131 290.68 24.8729C290.357 25.0479 290.229 24.8049 290.078 24.6642C286.026 20.8725 281.78 17.3105 277.398 13.908C276.635 13.3156 275.86 12.7388 275.096 12.1487C274.641 11.8416 274.31 11.3823 274.163 10.8534C273.24 7.22959 272.273 3.61659 271.321 0L284.509 0Z" fill="#DCCDB3"/>
<path d="M270.546 320C270.553 319.42 270.676 318.846 270.908 318.314C271.586 315.764 272.298 313.223 272.952 310.667C273.073 310.133 273.383 309.66 273.826 309.337C275.45 308.115 277.085 306.908 278.672 305.641C280.485 304.194 282.262 302.702 284.035 301.205C285.439 300.019 286.812 298.796 288.201 297.591C288.32 297.489 288.429 297.357 288.646 297.386C288.871 297.537 288.776 297.762 288.722 297.97C287.427 302.987 286.146 308.008 284.826 313.018C284.277 315.104 283.65 317.169 283.048 319.241C282.962 319.484 282.932 319.743 282.958 320H270.546Z" fill="#DCCDB3"/>
<path d="M34.1331 320C33.951 318.856 33.6648 317.731 33.2781 316.639C31.9611 311.723 30.6078 306.817 29.2753 301.905C28.9633 300.754 28.685 299.595 28.3815 298.442C28.3332 298.341 28.3087 298.23 28.3096 298.117C28.3105 298.005 28.3369 297.894 28.3868 297.794C28.6614 297.715 28.7998 297.929 28.9587 298.074C33.3179 302.057 37.9394 305.718 42.6591 309.259C43.2096 309.655 43.6005 310.235 43.7615 310.894C44.4787 313.636 45.2642 316.36 46.0305 319.089C46.1173 319.398 46.2434 319.697 46.3512 320H34.1331Z" fill="#DCCDB3"/>
<path d="M269.382 0C269.461 0.834899 269.643 1.65668 269.926 2.44611C270.493 4.59426 271.084 6.73591 271.67 8.8789C271.708 8.97472 271.721 9.07863 271.708 9.18094C271.695 9.28325 271.657 9.38062 271.596 9.464C270.906 9.12821 270.257 8.71351 269.663 8.22823C266.371 5.83916 262.926 3.68733 259.471 1.54689C258.633 1.14276 257.856 0.621957 257.164 0L269.382 0Z" fill="#E5E4E1"/>
<path d="M59.3451 0C59.0324 0.64069 58.3458 0.80231 57.8114 1.12145C53.7373 3.55447 49.7827 6.167 45.9053 8.89952C45.6214 9.09952 45.3212 9.2764 45.0229 9.46767C44.7432 9.11767 44.9865 8.83931 45.0576 8.60785C45.834 6.0839 46.3307 3.48866 47.0417 0.94906C47.1552 0.646207 47.1847 0.318249 47.1269 0H59.3451Z" fill="#E5E4E1"/>
<path d="M257.939 320C258.724 319.384 259.563 318.839 260.446 318.373C263.542 316.452 266.598 314.473 269.578 312.376C269.832 312.225 270.094 312.087 270.363 311.962C270.029 313.485 269.63 314.78 269.261 316.083C268.893 317.383 268.564 318.694 268.218 320H257.939Z" fill="#E5E4E1"/>
<path d="M48.4849 320C47.7897 317.404 46.9876 314.836 46.377 312.235C46.6954 312.088 46.8231 312.271 46.9731 312.374C50.6283 314.905 54.3586 317.32 58.1641 319.618C58.3251 319.715 58.5233 319.779 58.5697 320H48.4849Z" fill="#E5E4E1"/>
<path d="M157.084 9.3292C159.023 9.3292 160.966 9.25072 162.901 9.34865C165.443 9.47738 167.992 9.52401 170.526 9.83342C172.668 10.0949 174.823 10.2505 176.967 10.4952C178.247 10.6413 179.519 10.8611 180.792 11.0616C182.925 11.3974 185.069 11.6819 187.185 12.1026C189.65 12.5925 192.088 13.2187 194.542 13.7622C198.484 14.6351 202.352 15.7847 206.183 17.0335C210.886 18.5452 215.505 20.3057 220.02 22.3075C222.585 23.4568 225.151 24.5996 227.659 25.87C232.212 28.1764 236.666 30.6548 240.996 33.3637C245.105 35.9349 249.059 38.7264 252.905 41.6669C255.312 43.5072 257.656 45.4297 259.937 47.4345C263.134 50.2582 266.272 53.1395 269.235 56.207C271.635 58.6908 273.942 61.2572 276.193 63.8791C279.505 67.7554 282.611 71.8022 285.501 76.0028C287.556 78.9759 289.502 82.0241 291.307 85.16C293.065 88.2116 294.767 91.2909 296.321 94.4518C298.501 98.8869 300.451 103.42 302.214 108.038C303.124 110.423 303.904 112.849 304.704 115.27C305.929 118.977 306.934 122.749 307.806 126.549C308.489 129.53 309.045 132.542 309.585 135.557C310.028 138.035 310.355 140.526 310.623 143.021C310.823 144.877 310.957 146.747 311.125 148.609C311.513 154.119 311.614 159.646 311.426 165.167C311.393 167.451 311.207 169.738 310.952 172.016C310.757 173.746 310.654 175.485 310.471 177.217C310.285 178.979 309.991 180.728 309.699 182.476C309.096 186.102 308.389 189.708 307.552 193.285C307.054 195.419 306.413 197.52 305.85 199.64C305.022 202.761 303.97 205.812 302.88 208.845C301.898 211.575 300.849 214.287 299.672 216.944C298.43 219.749 297.171 222.546 295.769 225.276C294.367 228.005 292.917 230.708 291.343 233.343C290.822 234.199 290.369 235.094 289.987 236.02C289.856 236.386 289.652 236.72 289.386 237.003C288.406 238.077 287.551 239.259 286.836 240.525C285.136 243.157 283.272 245.667 281.383 248.162C278.946 251.38 276.354 254.467 273.653 257.467C271.513 259.843 269.37 262.22 267.033 264.402C264.675 266.603 262.328 268.816 259.878 270.922C256.693 273.66 253.383 276.228 250.016 278.727C248.333 279.976 246.588 281.144 244.844 282.308C241.97 284.225 239.029 286.033 236.019 287.732C233.432 289.189 230.819 290.6 228.155 291.92C224.362 293.798 220.506 295.54 216.575 297.095C212.525 298.698 208.412 300.134 204.237 301.404C201.611 302.2 198.963 302.903 196.307 303.575C192.307 304.588 188.259 305.379 184.187 306.056C181.198 306.553 178.198 306.972 175.193 307.333C173.21 307.572 171.208 307.648 169.213 307.783C164.446 308.138 159.664 308.251 154.885 308.123C151.954 308.024 149.016 307.97 146.095 307.628C145.136 307.515 144.166 307.521 143.201 307.416C141.246 307.204 139.297 306.96 137.347 306.712C133.953 306.281 130.599 305.638 127.238 305.033C124.413 304.525 121.646 303.751 118.857 303.08C114.868 302.122 110.965 300.864 107.086 299.556C102.87 298.134 98.7288 296.479 94.6634 294.664C90.1516 292.651 85.7411 290.429 81.4319 288C77.8917 285.995 74.4278 283.866 71.0402 281.614C67.497 279.247 64.0648 276.724 60.7305 274.076C58.6869 272.453 56.711 270.741 54.7504 269.011C51.7664 266.379 48.9442 263.587 46.1546 260.758C43.7066 258.275 41.4088 255.657 39.1521 252.999C35.2588 248.386 31.6523 243.538 28.353 238.484C25.7634 234.542 23.3987 230.47 21.1962 226.297C18.6243 221.41 16.3245 216.384 14.3074 211.243C12.9119 207.699 11.7174 204.084 10.5777 200.447C9.43779 196.81 8.5571 193.109 7.67032 189.41C7.07703 186.936 6.65971 184.416 6.2407 181.904C5.81157 179.331 5.46453 176.744 5.10728 174.159C5.00152 173.394 4.96046 172.617 4.90422 171.848C4.7018 169.081 4.52203 166.313 4.4064 163.54C4.2879 160.697 4.21615 157.854 4.30911 155.016C4.40935 151.957 4.53273 148.896 4.79318 145.839C5.00694 143.331 5.28153 140.831 5.61696 138.341C5.95341 135.818 6.42276 133.315 6.8556 130.807C7.66825 126.397 8.70778 122.032 9.97004 117.73C11.0694 113.818 12.3797 109.964 13.8456 106.166C15.6026 101.614 17.5516 97.1479 19.7416 92.7888C22.2448 87.7954 25.0262 82.9463 28.0727 78.2644C29.6233 75.8856 31.2337 73.547 32.9281 71.2708C35.143 68.2952 37.4561 65.3961 39.8674 62.5733C43.2803 58.5949 46.9257 54.8447 50.7101 51.2304C53.7665 48.3114 56.9717 45.5567 60.2826 42.9214C63.3154 40.5074 66.4314 38.2103 69.6306 36.03C73.5848 33.3462 77.6609 30.8574 81.859 28.5636C83.9882 27.4056 86.1244 26.2655 88.3001 25.1989C91.4311 23.6639 94.6268 22.2764 97.8407 20.923C101.355 19.4431 104.953 18.197 108.55 16.9546C110.804 16.1763 113.123 15.5834 115.417 14.9245C119.636 13.713 123.926 12.7965 128.227 11.9419C130.469 11.4963 132.741 11.1965 135.005 10.8657C136.916 10.5864 138.83 10.2995 140.752 10.1255C142.133 10.0005 143.511 9.84347 144.893 9.72861C148.947 9.38742 153.016 9.25411 157.084 9.3292Z" fill="#5E4F48"/>
<path d="M158.601 305.793C155.468 305.891 152.332 305.829 149.205 305.608C146.666 305.414 144.13 305.192 141.596 304.921C138.484 304.587 135.382 304.2 132.303 303.657C126.837 302.709 121.422 301.478 116.083 299.971C109.839 298.202 103.712 296.041 97.7391 293.503C85.2184 288.167 73.4629 281.19 62.7818 272.755C59.2127 269.926 55.7845 266.941 52.4601 263.824C49.8633 261.39 47.3944 258.838 44.9871 256.227C42.3615 253.379 39.8979 250.391 37.504 247.34C34.9717 244.113 32.5989 240.778 30.3369 237.363C27.5159 233.109 24.9391 228.699 22.6191 224.152C19.9242 218.889 17.5444 213.47 15.4921 207.925C13.3573 202.141 11.5884 196.227 10.1956 190.221C9.31728 186.42 8.55191 182.588 8.02871 178.72C7.75271 176.679 7.54304 174.626 7.32171 172.576C6.71799 166.892 6.46844 161.177 6.57452 155.462C6.62779 152.267 6.82285 149.079 7.10142 145.892C7.3035 143.58 7.53202 141.272 7.82284 138.973C8.1345 136.509 8.50514 134.049 9.02635 131.616C9.49858 129.412 9.92347 127.198 10.418 124.998C11.0198 122.322 11.783 119.687 12.5661 117.059C16.0828 105.284 21.0955 94.0091 27.4817 83.5099C29.6389 79.9483 31.9165 76.4667 34.4002 73.1244C36.8647 69.808 39.4061 66.554 42.1335 63.4435C44.8177 60.3824 47.5638 57.3809 50.4963 54.5601C54.1556 51.0052 57.995 47.6405 61.9994 44.4795C65.5101 41.7358 69.091 39.1002 72.8153 36.6555C77.3803 33.6658 82.1019 30.9224 86.9599 28.4369C92.3956 25.6589 97.9908 23.2047 103.716 21.0873C108.803 19.2135 113.983 17.6041 119.236 16.2657C124.33 14.9508 129.497 14.0018 134.692 13.1932C137.561 12.7465 140.444 12.4212 143.34 12.1964C145.366 12.0392 147.394 11.9266 149.42 11.7851C153.942 11.4692 158.465 11.5856 162.984 11.6705C165.62 11.72 168.263 11.9254 170.899 12.1651C173.341 12.3873 175.774 12.6652 178.207 12.9665C180.706 13.276 183.181 13.7244 185.654 14.1788C188.19 14.6448 190.722 15.1545 193.229 15.7554C198.377 16.9763 203.459 18.463 208.453 20.2094C212.474 21.6259 216.435 23.1971 220.336 24.9231C224.208 26.6422 228.001 28.5155 231.717 30.5429C235.428 32.5725 239.038 34.7752 242.573 37.1026C247.709 40.5133 252.644 44.2168 257.354 48.1949C261.849 52.0362 266.12 56.1311 270.148 60.4596C273.191 63.7129 276.067 67.1185 278.765 70.6634C283.015 76.1499 286.868 81.9329 290.294 87.9682C293.646 93.8678 296.587 99.9917 299.096 106.296C300.798 110.589 302.276 114.957 303.575 119.391C304.901 123.914 305.958 128.497 306.85 133.12C307.247 135.175 307.541 137.248 307.828 139.323C308.23 142.231 308.549 145.147 308.859 148.065C308.985 149.253 309.031 150.451 309.081 151.641C309.241 155.385 309.43 159.133 309.275 162.88C309.104 167.009 308.896 171.137 308.385 175.242C307.872 179.368 307.307 183.485 306.471 187.563C304.826 195.625 302.512 203.537 299.553 211.215C298.097 214.985 296.496 218.693 294.708 222.311C292.604 226.566 290.34 230.739 287.828 234.776C285.268 238.89 282.547 242.891 279.614 246.744C277.445 249.593 275.161 252.351 272.789 255.035C270.348 257.797 267.803 260.458 265.153 263.019C262.785 265.31 260.347 267.524 257.839 269.662C253.523 273.354 248.994 276.789 244.274 279.948C240.6 282.411 236.828 284.722 232.939 286.842C229.931 288.483 226.884 290.042 223.782 291.494C218.513 293.95 213.105 296.1 207.587 297.931C201.773 299.875 195.848 301.47 189.844 302.707C186.619 303.37 183.38 303.972 180.119 304.403C177.982 304.685 175.833 304.907 173.686 305.124C170.826 305.414 167.961 305.613 165.095 305.77C162.937 305.887 160.766 305.793 158.601 305.793Z" fill="#E5E4E1"/>
<path d="M300.177 159.909C300.177 162.042 300.269 164.18 300.153 166.306C300.019 168.753 299.879 171.203 299.548 173.639C299.305 175.426 299.15 177.224 298.894 179.012C298.378 182.617 297.723 186.194 296.889 189.74C296.336 192.092 295.772 194.441 295.093 196.759C292.655 205.13 289.425 213.25 285.446 221.008C281.867 227.958 277.692 234.584 272.967 240.811C270.262 244.392 267.373 247.83 264.312 251.113C262.414 253.145 260.486 255.147 258.474 257.062C255.528 259.867 252.444 262.515 249.274 265.071C241.035 271.681 232.067 277.328 222.545 281.902C218.44 283.88 214.259 285.67 209.986 287.241C204.961 289.085 199.84 290.652 194.644 291.936C191.392 292.742 188.115 293.421 184.813 293.972C182.05 294.438 179.286 294.905 176.49 295.169C173.923 295.411 171.36 295.658 168.783 295.802C165.623 295.978 162.461 296.135 159.3 296.084C157.074 296.049 154.838 296.071 152.618 295.902C149.856 295.691 147.093 295.49 144.334 295.193C138.507 294.547 132.725 293.55 127.018 292.208C121.992 291.049 117.038 289.595 112.183 287.854C107.257 286.092 102.426 284.074 97.7105 281.809C91.1057 278.624 84.7533 274.94 78.7088 270.789C75.597 268.652 72.603 266.357 69.6685 263.978C65.3266 260.458 61.2022 256.677 57.3179 252.657C55.0066 250.266 52.8104 247.77 50.6791 245.212C48.385 242.459 46.1701 239.648 44.1069 236.723C41.9687 233.691 39.9133 230.601 38.0379 227.394C36.9455 225.527 35.887 223.64 34.8626 221.736C33.53 219.26 32.3026 216.733 31.1355 214.175C29.607 210.826 28.2203 207.419 26.9755 203.954C25.356 199.399 23.9698 194.765 22.8222 190.069C21.8975 186.311 21.1745 182.519 20.5844 178.702C20.1609 175.964 19.7928 173.215 19.5886 170.443C19.4107 168.029 19.2711 165.614 19.1696 163.198C19.0933 161.422 19.0132 159.648 19.0377 157.872C19.0746 155.193 19.1965 152.518 19.3833 149.845C19.4979 148.203 19.6383 146.566 19.7847 144.928C19.9659 142.901 20.2655 140.891 20.5661 138.882C20.9423 136.368 21.3844 133.865 21.9143 131.377C22.9981 126.269 24.3702 121.228 26.0241 116.276C28.336 109.385 31.207 102.695 34.6086 96.2728C36.3431 92.9896 38.2158 89.7845 40.2268 86.6575C42.6297 82.9041 45.2072 79.2772 47.9592 75.7768C49.4907 73.8234 51.1019 71.9319 52.7431 70.0645C55.2411 67.2222 57.8646 64.5044 60.5823 61.878C63.599 58.9627 66.7469 56.1939 70.026 53.5717C73.2004 51.0254 76.4778 48.6234 79.8582 46.3655C83.1611 44.1612 86.5576 42.105 90.0479 40.197C93.5667 38.2794 97.1411 36.474 100.804 34.8532C104.907 33.0372 109.088 31.4145 113.346 29.985C118.541 28.2448 123.831 26.7998 129.19 25.6567C132.399 24.9681 135.628 24.3304 138.889 23.9315C140.965 23.6775 143.042 23.4145 145.129 23.2271C148.988 22.8805 152.849 22.708 156.722 22.611C159.89 22.5317 163.05 22.6554 166.21 22.729C168.818 22.7898 171.426 23.025 174.022 23.3016C177.351 23.6563 180.674 24.0794 183.97 24.6857C190.535 25.853 197.015 27.4628 203.364 29.5041C207.413 30.8318 211.42 32.2684 215.337 33.9471C220.682 36.2351 225.891 38.8296 230.938 41.7177C234.61 43.821 238.166 46.1034 241.634 48.5166C244.519 50.5238 247.291 52.6873 250.017 54.9136C253.876 58.0542 257.559 61.4048 261.05 64.9503C264.33 68.2926 267.419 71.8067 270.363 75.4571C273.141 78.9026 275.729 82.4809 278.17 86.1621C280.311 89.3899 282.28 92.7296 284.107 96.1501C286.83 101.213 289.239 106.439 291.318 111.799C292.487 114.839 293.53 117.923 294.485 121.039C295.346 123.846 296.083 126.682 296.769 129.532C297.629 133.034 298.313 136.577 298.818 140.148C299.083 142.091 299.296 144.047 299.53 145.996C299.807 148.307 299.935 150.625 300.143 152.938C300.267 154.319 300.21 155.715 300.239 157.105C300.317 158.039 300.296 158.979 300.177 159.909Z" fill="#5E4F48"/>
<path d="M273.07 236.996C271.101 239.789 268.977 242.458 266.791 245.085C263.329 249.178 259.627 253.062 255.704 256.717C253.084 259.197 250.318 261.516 247.491 263.767C238.982 270.54 229.691 276.269 219.818 280.831C216.272 282.463 212.675 283.964 209.013 285.309C204.905 286.816 200.735 288.128 196.503 289.244C192.59 290.281 188.64 291.14 184.651 291.821C182.245 292.237 179.83 292.576 177.409 292.893C174.918 293.22 172.416 293.435 169.917 293.627C166.83 293.865 163.732 293.956 160.624 293.9C159.17 293.873 157.715 293.859 156.261 293.883C154.417 293.914 152.586 293.697 150.747 293.629C148.499 293.546 146.252 293.297 144.017 293.022C140.575 292.598 137.146 292.084 133.736 291.423C129.477 290.598 125.261 289.617 121.088 288.427C116.355 287.069 111.694 285.468 107.126 283.629C103.2 282.057 99.3558 280.309 95.5923 278.384C89.5071 275.267 83.6576 271.711 78.0907 267.742C75.4196 265.836 72.8425 263.804 70.2922 261.733C65.6365 257.885 61.2351 253.739 57.1158 249.322C54.6758 246.751 52.4162 244.017 50.1991 241.245C47.7003 238.122 45.3832 234.872 43.1568 231.557C41.6478 229.31 40.2518 226.988 38.901 224.64C37.1609 221.616 35.5642 218.516 34.0544 215.372C31.663 210.371 29.5927 205.223 27.856 199.958C26.3437 195.416 25.0899 190.792 24.1004 186.109C23.4665 183.094 22.9094 180.061 22.506 177.001C22.1781 174.513 21.9193 172.022 21.6772 169.525C21.2148 164.758 21.2876 159.983 21.2784 155.206C21.2745 153.168 21.4072 151.137 21.5576 149.113C21.7362 146.712 21.9827 144.313 22.2972 141.917C23.8148 130.199 26.9095 118.741 31.4971 107.853C34.9399 99.7039 39.1728 91.9121 44.1351 84.5889C46.0078 81.8136 47.9975 79.1215 50.1041 76.5126C51.3608 74.9619 52.6524 73.4359 53.9563 71.9212C56.785 68.6352 59.8452 65.5778 62.9574 62.5702C64.6728 60.9124 66.4889 59.3624 68.2911 57.797C72.3068 54.3669 76.5196 51.1744 80.9078 48.2358C82.9312 46.856 85.0344 45.5894 87.1361 44.3292C90.4577 42.3377 93.8535 40.4752 97.3494 38.8066C104.433 35.3895 111.787 32.5642 119.336 30.3596C124.065 28.9983 128.846 27.8712 133.679 26.9785C135.953 26.5618 138.238 26.2369 140.528 25.917C143.753 25.4664 146.993 25.2026 150.233 24.9353C154.067 24.619 157.914 24.6751 161.758 24.6916C164.211 24.7021 166.655 24.8721 169.099 25.0661C170.45 25.1733 171.813 25.1857 173.153 25.3706C175.157 25.6472 177.172 25.8287 179.176 26.1228C181.497 26.4635 183.816 26.8168 186.116 27.2582C188.669 27.7481 191.203 28.3508 193.729 28.9668C199.008 30.2699 204.204 31.8907 209.287 33.8205C213.21 35.2965 217.053 36.9705 220.834 38.7942C227.754 42.1338 234.389 46.035 240.671 50.4586C243.697 52.5876 246.607 54.8756 249.469 57.2286C253.82 60.8358 257.942 64.7105 261.811 68.83C264.337 71.4964 266.7 74.313 269.003 77.1829C272.651 81.7307 275.993 86.5161 279.006 91.5073C281.954 96.3635 284.573 101.412 286.846 106.618C288.271 109.902 289.601 113.219 290.782 116.597C292.215 120.698 293.445 124.859 294.47 129.079C295.258 132.323 295.915 135.593 296.421 138.895C296.835 141.598 297.245 144.297 297.495 147.022C297.663 148.851 297.78 150.682 297.913 152.513C298.233 156.902 298.136 161.296 298.028 165.683C297.97 168.024 297.777 170.374 297.515 172.713C297.29 174.728 297.086 176.745 296.78 178.748C296.437 180.999 296.035 183.242 295.608 185.481C294.867 189.368 293.895 193.197 292.783 196.988C291.372 201.774 289.684 206.474 287.729 211.064C286.19 214.694 284.497 218.247 282.652 221.724C280.58 225.665 278.282 229.483 275.77 233.16C275.697 233.265 275.644 233.384 275.582 233.496C275.373 233.857 275.09 234.169 274.751 234.412C274.324 234.621 273.961 234.941 273.699 235.338C273.437 235.735 273.285 236.195 273.26 236.67C273.262 236.779 273.148 236.894 273.07 236.996Z" fill="#E9E9E9"/>
<path d="M273.071 236.996C273.049 236.719 273.338 236.441 273.111 236.175C272.784 235.793 272.995 235.507 273.28 235.29C273.677 234.988 273.968 234.557 274.503 234.41C274.974 234.28 275.171 233.744 275.583 233.496C275.581 233.608 275.554 233.717 275.504 233.817C275.454 233.916 275.382 234.003 275.294 234.071C274.474 234.868 273.797 235.8 273.292 236.825C273.258 236.9 273.147 236.94 273.071 236.996Z" fill="#918478"/>
<path d="M164.566 145.752C165.026 145.652 165.446 145.417 165.774 145.079C168.584 143.091 171.373 141.072 174.172 139.067C178.385 136.049 182.6 133.034 186.817 130.02C190.25 127.569 193.688 125.124 197.13 122.685C201.616 119.495 206.102 116.305 210.588 113.114C215.514 109.604 220.437 106.091 225.358 102.573C230.123 99.1643 234.874 95.7368 239.65 92.3435C240.067 92.0146 240.552 91.7817 241.069 91.6613C241.587 91.5408 242.124 91.5358 242.644 91.6466C244.305 91.9954 246.014 92.1128 247.7 92.3421C248.338 92.4145 248.971 92.5229 249.596 92.6669C249.808 92.6866 250.013 92.7552 250.194 92.8673C250.375 92.9795 250.527 93.1321 250.639 93.3132C250.751 93.4943 250.82 93.6989 250.839 93.9109C250.859 94.1229 250.829 94.3366 250.752 94.5352C250.51 95.6336 250.162 96.7086 249.92 97.8069C249.806 98.3249 249.468 98.8207 249.66 99.3942C249.99 99.3752 250.304 99.249 250.554 99.0351C254.009 97.0211 257.458 94.9995 260.904 92.9704C263.321 91.5507 265.735 90.1236 268.156 88.7104C268.295 88.6238 268.45 88.5677 268.612 88.5459C268.774 88.5241 268.938 88.5371 269.095 88.584C269.251 88.6309 269.396 88.7107 269.519 88.8179C269.642 88.9252 269.741 89.0575 269.809 89.206C270.429 90.1861 271.023 91.1837 271.61 92.1841C272.231 93.2405 272.853 94.2973 273.435 95.3752C274.078 96.5672 273.937 97.1789 272.797 97.8764C270.652 99.1891 268.483 100.463 266.317 101.741C262.597 103.937 258.874 106.128 255.148 108.314C250.896 110.816 246.644 113.318 242.391 115.821C240.642 116.852 238.906 117.906 237.151 118.927C236.739 119.242 236.249 119.438 235.734 119.496C235.532 119.522 235.328 119.482 235.15 119.384C234.973 119.286 234.831 119.134 234.745 118.95C234.66 118.766 234.635 118.559 234.674 118.36C234.713 118.161 234.815 117.979 234.964 117.842C235.316 117.51 235.712 117.228 236.14 117.002C243.468 112.674 250.798 108.351 258.132 104.033C262.3 101.578 266.471 99.1291 270.645 96.6853C271.425 96.2275 271.445 96.2194 270.999 95.438C270.28 94.1783 269.541 92.9303 268.798 91.6847C268.471 91.136 268.333 91.1122 267.701 91.4828C265.172 92.9684 262.649 94.4658 260.118 95.9494C257.475 97.4989 254.824 99.034 252.18 100.582C250.26 101.706 248.395 102.936 246.42 103.952C242.644 105.895 239.467 108.691 235.998 111.069C233.715 112.634 231.46 114.24 229.212 115.855C226.992 117.449 224.803 119.085 222.59 120.688C220.557 122.162 218.509 123.615 216.47 125.08C212.497 127.933 208.524 130.787 204.552 133.641C200.628 136.455 196.702 139.265 192.774 142.072C188.799 144.923 184.826 147.777 180.855 150.633C177.454 153.071 174.051 155.504 170.645 157.934C170.377 158.097 170.15 158.32 169.983 158.586C169.817 158.852 169.714 159.153 169.684 159.465C169.398 161.966 168.306 164.306 166.571 166.131C164.836 167.955 162.554 169.164 160.071 169.575C159.85 169.584 159.641 169.674 159.484 169.828C159.326 169.982 159.232 170.189 159.218 170.409C158.197 175.18 157.157 179.946 156.096 184.709C155.419 187.779 154.714 190.844 154.043 193.916C153.104 198.212 152.192 202.514 151.254 206.81C150.364 210.886 149.447 214.956 148.556 219.031C147.48 223.955 146.423 228.883 145.349 233.807C144.37 238.29 143.386 242.771 142.396 247.251C142.324 247.727 142.225 248.198 142.099 248.662C141.921 249.179 142.096 249.364 142.583 249.463C142.995 249.564 143.361 249.803 143.62 250.139C143.774 250.301 143.885 250.498 143.943 250.712C144.002 250.927 144.006 251.153 143.956 251.37C143.549 253.517 142.985 255.628 142.534 257.765C142.361 258.58 142.173 259.393 141.976 260.203C141.898 260.716 141.674 261.196 141.33 261.585C140.986 261.973 140.537 262.254 140.037 262.394C139.387 262.575 138.768 262.863 138.118 263.041C137.899 263.073 137.697 263.178 137.545 263.339C137.392 263.5 137.299 263.708 137.279 263.928C136.928 265.821 136.494 267.699 136.106 269.585C135.769 271.22 135.452 272.858 135.122 274.494C134.531 277.42 133.937 280.345 133.341 283.269C133.238 283.773 133.134 284.28 132.984 284.771C132.771 285.469 132.247 285.866 131.75 285.761C131.592 285.722 131.443 285.651 131.313 285.553C131.184 285.454 131.076 285.33 130.996 285.188C130.916 285.046 130.867 284.89 130.85 284.728C130.833 284.566 130.85 284.402 130.899 284.247C131.116 283.144 131.41 282.056 131.595 280.949C132.145 277.652 132.977 274.413 133.602 271.131C134.094 268.548 134.628 265.973 135.179 263.401C135.254 263.173 135.259 262.928 135.194 262.697C135.129 262.466 134.997 262.26 134.815 262.104C134.196 261.536 133.61 260.933 133.018 260.336C132.709 260.076 132.477 259.735 132.349 259.352C132.221 258.968 132.201 258.557 132.293 258.163C132.661 256.569 132.952 254.956 133.279 253.352C133.517 252.188 133.785 251.03 133.995 249.861C134.245 248.471 134.481 248.137 135.832 247.888C136.034 247.88 136.224 247.798 136.368 247.656C136.511 247.515 136.597 247.326 136.608 247.125C137.122 244.675 137.695 242.237 138.213 239.788C138.898 236.555 139.556 233.317 140.288 230.094C140.9 227.403 141.419 224.692 141.996 221.994C142.888 217.821 143.803 213.653 144.691 209.479C145.638 205.021 146.549 200.555 147.504 196.099C148.52 191.36 149.585 186.632 150.601 181.894C151.497 177.719 152.341 173.533 153.253 169.362C153.29 169.275 153.309 169.183 153.31 169.089C153.31 168.995 153.291 168.902 153.255 168.815C153.219 168.729 153.165 168.65 153.098 168.585C153.03 168.519 152.95 168.468 152.863 168.434C151.86 167.915 150.939 167.25 150.129 166.462C148.369 164.776 147.208 162.561 146.824 160.153C146.77 160.002 146.726 159.848 146.693 159.691C146.687 159.206 146.498 158.975 145.984 159.058C145.594 159.085 145.207 158.967 144.898 158.726C142.472 157.256 140.039 155.797 137.615 154.324C132.463 151.193 127.312 148.059 122.165 144.922C116.798 141.65 111.433 138.375 106.071 135.096C103.071 133.267 100.08 131.423 97.0496 129.646C96.5275 129.363 96.0692 128.975 95.7027 128.507C95.3362 128.039 95.0694 127.501 94.9187 126.926C94.359 124.946 93.69 122.996 93.0862 121.028C92.9911 120.847 92.9388 120.646 92.9331 120.442C92.9275 120.238 92.9686 120.035 93.0535 119.849C93.1383 119.663 93.2646 119.498 93.4227 119.369C93.5807 119.239 93.7664 119.147 93.9654 119.1C94.9354 118.762 95.9272 118.49 96.9339 118.286C98.2618 117.907 99.6158 117.62 100.953 117.273C101.261 117.178 101.585 117.149 101.905 117.187C102.225 117.225 102.533 117.33 102.81 117.494C105 118.795 107.203 120.075 109.394 121.375C112.138 123.001 114.879 124.634 117.616 126.272C121.688 128.696 125.761 131.12 129.834 133.543C132.94 135.387 136.049 137.226 139.161 139.06C142.824 141.226 146.488 143.392 150.151 145.558C150.983 146.05 151.817 146.538 152.634 147.053C152.873 147.218 153.152 147.315 153.441 147.336C153.731 147.357 154.02 147.301 154.28 147.172C155.323 146.736 156.437 146.5 157.567 146.475C157.67 146.485 157.774 146.474 157.872 146.443C157.971 146.412 158.062 146.361 158.141 146.293C158.219 146.225 158.282 146.142 158.327 146.049C158.372 145.956 158.398 145.854 158.403 145.751C158.691 144.206 158.975 142.659 159.265 141.114C159.649 139.063 160.036 137.012 160.424 134.961C160.879 132.565 161.336 130.17 161.795 127.775C162.074 126.325 162.386 124.88 162.646 123.427C162.836 122.369 163.104 122.025 164.386 121.84C165.447 121.757 166.515 121.875 167.532 122.189C168.299 122.372 168.473 122.71 168.507 123.524C168.495 124.168 168.411 124.809 168.254 125.434C167.566 129.159 166.821 132.873 166.167 136.605C165.68 139.387 165.089 142.15 164.547 144.922C164.48 145.195 164.486 145.482 164.566 145.752Z" fill="#5D4E47"/>
<path d="M164.834 75.7877C165.103 76.0237 165.374 75.9462 165.622 75.9583C168.463 76.0973 171.306 76.1057 174.15 76.101C174.537 76.1003 174.927 76.0958 175.312 76.1274C175.508 76.1135 175.705 76.1434 175.887 76.215C176.07 76.2866 176.235 76.398 176.369 76.5412C176.504 76.6843 176.605 76.8556 176.664 77.0426C176.724 77.2296 176.742 77.4276 176.716 77.6223C176.74 78.7206 176.727 79.8199 176.728 80.9188C176.73 82.4055 176.737 83.8923 176.728 85.3789C176.722 86.4899 176.219 86.9153 175.162 86.7022C174.779 86.6433 174.391 86.623 174.004 86.6413C167.831 86.6338 161.658 86.6285 155.484 86.6253C155.194 86.6376 154.903 86.6316 154.613 86.6071C154.443 86.605 154.275 86.5679 154.119 86.4982C153.964 86.4285 153.825 86.3276 153.71 86.2019C153.595 86.0762 153.507 85.9283 153.452 85.7673C153.397 85.6063 153.375 85.4356 153.388 85.2659C153.405 82.9387 153.147 80.62 153.196 78.2915C153.186 77.7751 153.303 77.2639 153.536 76.803C155.479 73.2321 157.424 69.6618 159.37 66.0923C161.333 62.4953 163.28 58.8895 165.281 55.3134C165.77 54.4382 166.016 53.448 165.993 52.4457C165.957 49.535 166.231 46.6359 166.262 43.7286C166.266 43.3756 166.339 43.0239 166.36 42.6704C166.393 42.4727 166.38 42.2703 166.324 42.078C166.268 41.8857 166.17 41.7084 166.037 41.5589C165.903 41.4094 165.738 41.2915 165.554 41.2139C165.369 41.1362 165.169 41.1008 164.969 41.1102C164.774 41.1119 164.585 41.1781 164.43 41.2984C164.276 41.4188 164.166 41.5865 164.117 41.7757C163.977 42.1707 163.899 42.5851 163.885 43.0041C163.932 45.4585 163.812 47.9156 164.016 50.3675C164.028 50.8515 163.951 51.3337 163.789 51.7899C163.719 52.0763 163.548 52.3282 163.309 52.5C163.069 52.6717 162.775 52.752 162.482 52.7264C159.8 52.716 157.127 52.9883 154.443 52.9339C152.902 52.9027 152.346 52.4182 152.319 50.8717C152.293 49.3532 152.314 47.8337 152.327 46.3147C152.342 44.5696 152.442 42.822 152.38 41.08C152.224 36.7174 154.521 33.87 158.035 31.7762C159.826 30.8121 161.813 30.2697 163.845 30.1905C165.867 30.0042 167.905 30.2271 169.839 30.8459C171.205 31.2522 172.445 32.0011 173.441 33.0216C174.436 34.0421 175.154 35.3001 175.526 36.6762C175.809 37.629 175.934 38.6218 175.896 39.615C175.829 44.4304 176.107 49.2403 176.13 54.0552C176.124 55.7326 175.637 57.3731 174.728 58.783C172.883 61.85 171.086 64.946 169.27 68.0307C167.945 70.2809 166.621 72.5316 165.298 74.7829C165.08 75.0848 164.923 75.426 164.834 75.7877Z" fill="#5E4F47"/>
<path d="M146.58 267.547C146.58 263.541 146.665 259.532 146.558 255.529C146.428 250.651 146.396 245.774 146.463 240.897C146.479 239.601 146.783 238.324 147.351 237.159C147.92 235.994 148.74 234.97 149.753 234.16C151.409 232.756 153.462 231.903 155.626 231.719C157 231.574 158.385 231.572 159.759 231.712C161.134 231.852 162.508 231.988 163.878 232.173C165.468 232.468 166.941 233.211 168.124 234.313C169.308 235.415 170.152 236.832 170.559 238.397C170.604 238.586 170.629 238.778 170.635 238.971C170.694 242.459 170.883 245.945 170.827 249.435C170.805 250.746 170.23 251.325 168.95 251.327C166.656 251.329 164.362 251.331 162.067 251.333C160.58 251.331 160.163 250.87 160.132 249.349C160.094 247.441 160.34 245.545 160.336 243.64C160.336 243.446 160.345 243.252 160.336 243.059C160.352 242.864 160.326 242.668 160.258 242.484C160.19 242.3 160.083 242.134 159.944 241.996C159.805 241.859 159.637 241.754 159.452 241.689C159.268 241.623 159.071 241.599 158.877 241.618C158.43 241.526 157.966 241.578 157.552 241.766C157.288 241.925 157.071 242.153 156.925 242.425C156.779 242.696 156.709 243.002 156.723 243.311C156.755 245.443 156.752 247.575 156.781 249.707C156.797 250.935 156.853 252.161 156.884 253.388C156.907 254.311 156.902 254.296 157.876 254.308C159.616 254.289 161.346 254.576 162.988 255.156C164.072 255.534 165.069 256.126 165.921 256.897C166.773 257.667 167.461 258.601 167.945 259.642C168.333 260.594 168.587 261.595 168.699 262.617C169.144 265.383 169.38 268.178 169.406 270.979C169.433 272.497 169.421 274.015 169.321 275.518C169.257 278.268 168.455 280.95 166.997 283.282C166.432 284.186 165.69 284.967 164.817 285.579C163.944 286.191 162.956 286.622 161.913 286.845C159.018 287.547 155.99 287.489 153.123 286.679C151.697 286.306 150.381 285.594 149.289 284.604C148.197 283.613 147.36 282.373 146.85 280.99C146.718 280.66 146.648 280.309 146.644 279.954C146.652 275.818 146.654 271.683 146.649 267.547L146.58 267.547Z" fill="#5D4E47"/>
<path d="M140.563 58.8764C140.475 50.3043 140.39 42.1619 140.308 34.0196C140.302 33.3735 140.292 32.7259 140.325 32.0812C140.319 31.8373 140.364 31.5948 140.455 31.3686C140.547 31.1424 140.683 30.9374 140.857 30.7661C141.031 30.5948 141.238 30.4609 141.465 30.3726C141.693 30.2843 141.936 30.2435 142.179 30.2528C144.926 30.2169 147.673 30.2051 150.42 30.2173C151.376 30.2209 151.669 30.584 151.669 31.5248C151.668 36.3721 151.568 41.2223 151.702 46.066C151.911 53.6586 151.766 61.252 151.905 68.8428C152.002 74.1736 152.075 79.5036 152.084 84.8348C152.084 85.0611 152.087 85.2874 152.081 85.5135C152.056 86.4313 151.702 86.8302 150.801 86.8365C148.733 86.8507 146.664 86.8751 144.599 86.7329C143.857 86.6818 143.117 86.6512 142.374 86.6378C141.377 86.6198 141.159 86.4145 140.911 85.4756C140.82 85.1001 140.777 84.7143 140.784 84.3279C140.771 82.0334 140.736 79.7387 140.757 77.4445C140.816 71.1102 140.448 64.7811 140.563 58.8764Z" fill="#5D4E47"/>
<path d="M220.008 274.484C219.831 274.506 219.652 274.484 219.486 274.422C219.319 274.36 219.169 274.259 219.05 274.128C218.624 273.687 218.263 273.188 217.978 272.645C215.493 268.346 213.006 264.047 210.519 259.748C208.566 256.371 206.614 252.994 204.663 249.617C202.511 245.907 200.355 242.2 198.194 238.495C197.773 237.77 197.372 237.033 196.967 236.299C196.849 236.123 196.784 235.917 196.778 235.706C196.772 235.494 196.826 235.285 196.934 235.104C197.033 234.954 197.169 234.832 197.328 234.749C197.487 234.666 197.665 234.625 197.844 234.63C198.024 234.635 198.199 234.686 198.353 234.778C198.508 234.869 198.636 234.999 198.726 235.154C199.188 235.813 199.571 236.526 199.976 237.223C202.228 241.096 204.476 244.97 206.723 248.845C208.111 251.245 209.482 253.655 210.87 256.055C213.048 259.822 215.23 263.587 217.416 267.35C218.192 268.689 218.96 270.032 219.747 271.364C220.209 272.146 220.258 272.164 221.023 271.755C222.502 270.964 223.964 270.14 225.446 269.354C225.861 269.133 225.912 268.928 225.664 268.523C224.587 266.766 223.536 264.992 222.48 263.223C220.414 259.762 218.349 256.301 216.286 252.839C213.972 248.965 211.658 245.092 209.342 241.219C207.591 238.288 205.841 235.356 204.092 232.423C203.953 232.205 203.841 231.972 203.758 231.727C203.689 231.509 203.697 231.273 203.782 231.061C203.867 230.848 204.023 230.671 204.223 230.561C204.397 230.439 204.608 230.38 204.82 230.394C205.032 230.409 205.232 230.495 205.388 230.64C205.634 230.85 205.842 231.1 206.004 231.379C210.22 238.473 214.44 245.563 218.666 252.651C221.573 257.521 224.49 262.385 227.418 267.242C227.766 267.823 227.971 268.476 228.37 269.034C228.476 269.182 228.524 269.363 228.507 269.543C228.49 269.724 228.408 269.893 228.277 270.018C228.026 270.312 227.725 270.56 227.388 270.749C225.285 271.876 223.196 273.03 221.101 274.175C220.782 274.399 220.397 274.508 220.008 274.484Z" fill="#5D4F47"/>
<path d="M50.3257 163.698C43.2504 163.698 36.1751 163.698 29.0997 163.697C27.895 163.697 27.5003 163.324 27.4735 162.078C27.42 159.592 27.3807 157.105 27.3557 154.618C27.3449 153.597 27.7121 153.191 28.7129 152.932C29.0586 152.854 29.413 152.82 29.7673 152.831C43.6272 152.813 57.4871 152.795 71.347 152.779C71.573 152.771 71.7993 152.775 72.025 152.79C72.3019 152.793 72.5672 152.902 72.7664 153.094C72.9657 153.287 73.0839 153.548 73.0968 153.825C73.0595 154.081 72.9417 154.319 72.7604 154.503C72.5791 154.688 72.3436 154.81 72.0882 154.852C71.7668 154.885 71.4435 154.895 71.1207 154.882C66.0161 154.887 60.9115 154.871 55.807 154.898C47.3433 154.941 38.8796 154.999 30.4161 155.071C29.5201 155.078 29.5095 155.087 29.5126 155.99C29.4768 157.604 29.5228 159.219 29.6505 160.828C29.7033 161.331 29.8842 161.527 30.3634 161.491C30.4597 161.483 30.5571 161.49 30.6541 161.491C37.5347 161.513 44.4154 161.535 51.2961 161.557C58.0803 161.575 64.8646 161.591 71.6489 161.603C71.8427 161.596 72.0367 161.6 72.2299 161.616C72.471 161.646 72.6957 161.754 72.8705 161.922C73.0452 162.091 73.1606 162.312 73.1991 162.552C73.2167 162.777 73.1574 163.002 73.0307 163.19C72.904 163.377 72.7176 163.516 72.5018 163.584C72.1343 163.709 71.7432 163.75 71.3579 163.702C65.0257 163.706 58.6934 163.706 52.3611 163.703C51.6827 163.703 51.0042 163.703 50.3257 163.703L50.3257 163.698Z" fill="#5E4F48"/>
<path d="M197.839 81.789C197.658 81.8122 197.473 81.7829 197.308 81.7045C197.143 81.6262 197.003 81.5021 196.906 81.3469C196.809 81.1918 196.758 81.012 196.76 80.829C196.762 80.6459 196.816 80.4672 196.916 80.314C197.294 79.5301 197.713 78.7663 198.171 78.0259C200.626 73.8623 203.085 69.7019 205.55 65.5445C207.702 61.9125 209.857 58.2823 212.015 54.6538C213.722 51.7681 215.422 48.878 217.115 45.9836C217.511 45.3579 217.864 44.7058 218.171 44.0318C218.492 43.2602 218.942 43.1041 219.729 43.3908C220.123 43.5331 220.509 43.6963 220.886 43.8798C222.741 44.7899 224.572 45.7501 226.448 46.6126C226.712 46.697 226.953 46.8417 227.151 47.0352C227.349 47.2287 227.5 47.4657 227.59 47.7274C227.681 47.9891 227.709 48.2684 227.673 48.543C227.637 48.8176 227.538 49.0801 227.383 49.3096C227.086 49.9514 226.703 50.5539 226.344 51.1657C224.012 55.1419 221.678 59.1167 219.341 63.0902C216.613 67.7308 213.884 72.3709 211.153 77.0103C209.454 79.9006 207.759 82.7933 206.068 85.6883C205.928 85.9426 205.749 86.1732 205.537 86.3714C205.378 86.5488 205.161 86.6632 204.925 86.6939C204.689 86.7246 204.45 86.6695 204.251 86.5386C204.052 86.4077 203.907 86.2098 203.842 85.9808C203.777 85.7519 203.796 85.5072 203.896 85.2912C204.271 84.4691 204.708 83.677 205.205 82.9218C208.627 77.0825 212.056 71.2473 215.493 65.416C218.577 60.1623 221.659 54.9064 224.736 49.6481C225.423 48.4768 225.418 48.4723 224.213 47.9071C222.927 47.3036 221.653 46.6747 220.369 46.0662C219.757 45.7761 219.747 45.7829 219.4 46.3723C217.04 50.3707 214.682 54.3695 212.324 58.3689C209.978 62.3355 207.616 66.2927 205.271 70.2601C203.269 73.6463 201.275 77.0366 199.287 80.4312C199.108 80.7365 198.924 81.0415 198.716 81.328C198.627 81.4781 198.497 81.6006 198.343 81.6819C198.188 81.7633 198.014 81.8003 197.839 81.789Z" fill="#5E4F47"/>
<path d="M43.2568 219.417C43.3328 219.085 43.482 218.774 43.6935 218.507C43.9051 218.24 44.1735 218.024 44.4794 217.874C46.7359 216.558 49.0043 215.264 51.2663 213.958C54.7857 211.926 58.3046 209.894 61.8231 207.861C64.8698 206.108 67.9273 204.375 70.9754 202.625C73.9684 200.906 76.9587 199.183 79.9463 197.456C80.389 197.131 80.8935 196.899 81.4288 196.776C81.8609 196.723 82.3251 196.729 82.5162 197.185C82.619 197.388 82.6547 197.619 82.618 197.844C82.5814 198.069 82.4744 198.277 82.3123 198.438C81.9326 198.788 81.5058 199.084 81.0443 199.316C77.1284 201.563 73.2113 203.808 69.293 206.051C64.2053 208.978 59.1207 211.91 54.0392 214.847C51.4415 216.346 48.8449 217.846 46.2492 219.348C45.6097 219.718 45.6045 219.73 46.0029 220.366C46.8242 221.677 47.6479 222.987 48.4866 224.288C48.8992 224.927 48.924 224.926 49.5416 224.564C53.2953 222.36 57.048 220.154 60.7997 217.947C64.3345 215.879 67.8833 213.836 71.4178 211.767C75.6485 209.292 79.875 206.809 84.0975 204.32C84.373 204.151 84.6613 204.004 84.9597 203.88C85.1907 203.755 85.4614 203.726 85.7139 203.797C85.9665 203.869 86.181 204.037 86.3117 204.265C86.4444 204.492 86.4853 204.761 86.426 205.017C86.3667 205.273 86.2116 205.497 85.9926 205.642C85.3697 206.097 84.6973 206.488 84.0306 206.879C78.8031 209.949 73.5733 213.015 68.3412 216.077C63.9999 218.617 59.6564 221.154 55.3104 223.686C53.4729 224.76 51.6377 225.838 49.8048 226.92C49.6934 226.985 49.5821 227.051 49.4683 227.112C48.4682 227.648 48.0547 227.572 47.4447 226.635C46.144 224.636 44.869 222.62 43.5895 220.607C43.3375 220.264 43.2192 219.841 43.2568 219.417Z" fill="#5D4E47"/>
<path d="M118.73 82.4586C118.245 82.4841 117.918 82.1027 117.662 81.6937C117.133 80.8479 116.651 79.9725 116.15 79.1088C114.42 76.1233 112.691 73.1375 110.962 70.1514C109.543 67.6946 108.139 65.2299 106.721 62.7727C104.691 59.254 102.657 55.7372 100.621 52.2222C99.5723 50.4079 98.5397 48.5844 97.4788 46.7775C97.0661 46.0747 97.0247 46.0647 96.378 46.4368C94.9536 47.2565 93.5391 48.0931 92.1344 48.9468C91.444 49.3677 91.4514 49.4002 91.8423 50.0676C93.4218 52.7649 95.0048 55.4601 96.5913 58.1532C98.3743 61.1805 100.16 64.2062 101.948 67.2304C104.376 71.3349 106.805 75.4386 109.236 79.5414C110.138 81.0684 111.024 82.6046 111.911 84.1404C112.093 84.4085 112.216 84.7117 112.274 85.0304C112.313 85.2395 112.283 85.4558 112.188 85.646C112.093 85.8363 111.938 85.9899 111.746 86.0834C111.574 86.1774 111.376 86.2151 111.181 86.1913C110.986 86.1674 110.803 86.0831 110.659 85.9503C110.392 85.7163 110.167 85.4391 109.992 85.1303C107.2 80.3775 104.405 75.6268 101.606 70.8781C98.6905 65.9361 95.7718 60.9962 92.8495 56.0585C91.8338 54.3381 90.8301 52.6107 89.8155 50.8897C89.6242 50.5547 89.4142 50.2308 89.1863 49.9195C88.5681 49.0993 88.6304 48.5961 89.5125 48.0139C90.265 47.5172 91.0457 47.0621 91.8226 46.6032C93.2664 45.7503 94.7446 44.9518 96.1546 44.0466C97.1565 43.4034 97.8557 43.5652 98.7157 44.647C99.2354 45.3844 99.7006 46.1587 100.108 46.9638C102.448 51.0105 104.785 55.0583 107.121 59.1074C109.101 62.5442 111.067 65.9894 113.049 69.4247C114.999 72.8025 116.966 76.1698 118.914 79.5484C119.231 80.0728 119.501 80.624 119.721 81.1957C119.777 81.3467 119.793 81.5095 119.768 81.6685C119.743 81.8275 119.677 81.9774 119.578 82.1041C119.479 82.2307 119.348 82.3297 119.2 82.3918C119.051 82.4539 118.89 82.4769 118.73 82.4586Z" fill="#5D4F47"/>
<path d="M81.0428 119.272C80.6835 119.248 80.3385 119.122 80.0478 118.909C77.7998 117.643 75.5547 116.372 73.3126 115.095C70.4235 113.455 67.5348 111.815 64.6466 110.174C61.1415 108.183 57.6365 106.191 54.1315 104.2C50.9338 102.387 47.7339 100.577 44.5317 98.7717C44.3083 98.6457 44.0596 98.5649 43.8257 98.4567C43.0305 98.0888 42.8398 97.644 43.2069 96.8274C43.5371 96.0927 43.9183 95.3797 44.3007 94.67C45.0658 93.2501 45.8459 91.8383 46.6229 90.4249C46.7393 90.1941 46.8736 89.9728 47.0245 89.763C47.1904 89.5216 47.4342 89.3446 47.7151 89.2618C47.996 89.1789 48.2969 89.1951 48.5672 89.3078C49.3209 89.5958 50.0379 89.972 50.7033 90.4284C55.5618 93.1723 60.404 95.945 65.2541 98.7038C69.0381 100.856 72.824 103.005 76.6118 105.151C79.3314 106.696 82.0492 108.245 84.7651 109.797C85.0857 109.95 85.3782 110.157 85.6303 110.408C85.7863 110.569 85.8922 110.773 85.9353 110.993C85.9784 111.213 85.9568 111.441 85.8731 111.65C85.7654 111.831 85.6033 111.975 85.4098 112.059C85.2162 112.144 85.001 112.165 84.7945 112.121C84.4417 112.073 84.1055 111.941 83.814 111.736C81.5669 110.469 79.3225 109.197 77.0805 107.92C74.2771 106.324 71.4752 104.725 68.6749 103.123C65.3394 101.225 62.0021 99.3301 58.663 97.4382C55.4964 95.6365 52.3312 93.8322 49.1675 92.0253C48.4911 91.6407 48.4162 91.6628 48.0497 92.3277C47.3331 93.6277 46.6236 94.9315 45.9212 96.2393C45.6212 96.7953 45.6322 96.8844 46.2183 97.2243C48.1158 98.3245 50.0232 99.4075 51.9296 100.492C55.4895 102.518 59.0506 104.541 62.6129 106.563C66.4856 108.756 70.3607 110.946 74.2381 113.131C76.4833 114.4 78.728 115.67 80.9721 116.941C81.2903 117.101 81.5773 117.317 81.8193 117.578C81.9646 117.708 82.0645 117.882 82.1045 118.072C82.1446 118.263 82.1226 118.462 82.0417 118.64C81.952 118.829 81.8105 118.988 81.6337 119.1C81.4569 119.212 81.2521 119.272 81.0428 119.272Z" fill="#5D4F47"/>
<path d="M236.598 198.05C236.925 198.029 237.249 198.121 237.515 198.312C240.799 200.172 244.083 202.031 247.367 203.889C250.26 205.522 253.155 207.151 256.052 208.777C259.62 210.788 263.186 212.801 266.752 214.817C268.55 215.831 270.351 216.838 272.145 217.86C272.648 218.147 273.139 218.459 273.617 218.786C273.847 218.908 274.021 219.114 274.104 219.361C274.187 219.607 274.173 219.877 274.064 220.113C273.953 220.484 273.796 220.84 273.596 221.171C272.598 223.053 271.584 224.926 270.593 226.811C269.463 228.96 268.751 228.543 267.404 227.751C263.485 225.449 259.564 223.15 255.642 220.853C251.689 218.544 247.724 216.253 243.771 213.945C240.124 211.814 236.487 209.666 232.837 207.54C232.53 207.363 232.256 207.133 232.031 206.859C231.889 206.699 231.811 206.493 231.813 206.279C231.814 206.065 231.894 205.86 232.038 205.701C232.149 205.519 232.321 205.383 232.524 205.316C232.727 205.249 232.947 205.257 233.144 205.337C233.678 205.567 234.197 205.828 234.699 206.119C239.241 208.766 243.778 211.419 248.313 214.077C253.069 216.864 257.824 219.654 262.576 222.447C264.301 223.458 266.03 224.461 267.764 225.457C268.567 225.92 268.61 225.915 269.026 225.146C269.81 223.699 270.581 222.245 271.34 220.785C271.687 220.113 271.645 220.04 270.972 219.66C265.828 216.763 260.684 213.866 255.54 210.969C249.839 207.75 244.142 204.524 238.448 201.293C237.803 200.928 237.161 200.558 236.508 200.208C236.28 200.088 236.07 199.937 235.882 199.761C235.713 199.631 235.593 199.448 235.54 199.242C235.486 199.036 235.503 198.818 235.588 198.622C235.661 198.422 235.803 198.255 235.988 198.15C236.173 198.045 236.389 198.01 236.598 198.05Z" fill="#5D4E47"/>
<path d="M96.9385 273.021C96.6102 273.033 96.2871 272.936 96.0198 272.745C93.9702 271.583 91.9223 270.419 89.8761 269.252C88.8466 268.664 88.729 268.212 89.2403 267.126C90.4789 264.496 92.0412 262.044 93.44 259.503C95.0886 256.508 96.8034 253.549 98.4885 250.574C100.476 247.066 102.462 243.557 104.447 240.048C105.829 237.605 107.208 235.161 108.585 232.716C108.781 232.346 108.998 231.987 109.235 231.641C109.305 231.522 109.398 231.418 109.51 231.336C109.621 231.254 109.748 231.195 109.882 231.163C110.017 231.131 110.157 231.126 110.293 231.149C110.43 231.172 110.56 231.223 110.677 231.297C110.793 231.357 110.896 231.44 110.979 231.541C111.062 231.642 111.124 231.759 111.159 231.884C111.195 232.01 111.205 232.142 111.187 232.272C111.17 232.401 111.126 232.526 111.058 232.638C110.624 233.537 110.125 234.406 109.634 235.276C107.951 238.253 106.263 241.228 104.571 244.2C102.903 247.148 101.237 250.098 99.5746 253.051C98.256 255.382 96.9274 257.707 95.6095 260.038C94.324 262.313 93.0499 264.593 91.7633 266.867C91.3292 267.634 91.3723 267.628 92.0909 268.025C93.4174 268.758 94.7234 269.528 96.0419 270.277C96.7139 270.658 96.7448 270.645 97.1407 269.943C99.3129 266.094 101.484 262.244 103.655 258.394C106.4 253.533 109.147 248.674 111.895 243.816C113.262 241.402 114.644 238.998 116.01 236.584C116.171 236.268 116.393 235.986 116.663 235.754C116.802 235.641 116.971 235.571 117.15 235.551C117.328 235.531 117.509 235.562 117.67 235.642C117.836 235.711 117.976 235.83 118.072 235.982C118.169 236.134 118.217 236.312 118.209 236.491C118.205 236.88 118.096 237.26 117.893 237.591C116.72 239.671 115.549 241.753 114.38 243.835C112.716 246.784 111.05 249.732 109.381 252.678C107.395 256.188 105.408 259.698 103.421 263.207C102.057 265.622 100.689 268.036 99.3411 270.46C98.9271 271.264 98.4035 272.007 97.7851 272.668C97.6851 272.793 97.5551 272.891 97.4071 272.953C97.2591 273.014 97.098 273.038 96.9385 273.021Z" fill="#5D4E47"/>
<path d="M281.182 164.316C279.017 164.316 276.851 164.316 274.685 164.318C274.477 164.341 274.266 164.318 274.066 164.253C273.867 164.188 273.683 164.081 273.528 163.939C273.401 163.826 273.307 163.681 273.253 163.519C273.2 163.358 273.19 163.185 273.224 163.018C273.259 162.852 273.336 162.697 273.449 162.57C273.562 162.442 273.707 162.347 273.868 162.293C274.33 162.141 274.817 162.087 275.301 162.134C279.046 162.389 282.797 162.205 286.544 162.279C287.276 162.294 287.252 162.261 287.403 161.575C287.513 161.038 287.564 160.49 287.555 159.941C287.553 158.65 287.822 157.376 287.799 156.08C287.781 155.1 287.817 155.1 286.881 155.088C283.713 155.05 280.547 155.144 277.382 155.243C276.703 155.264 276.024 155.269 275.346 155.272C275.12 155.283 274.894 155.267 274.672 155.225C274.418 155.173 274.186 155.044 274.009 154.854C273.831 154.664 273.718 154.423 273.684 154.166C273.673 153.688 274.032 153.331 274.658 153.135C274.938 153.057 275.228 153.021 275.518 153.03C279.623 153.014 283.728 153 287.833 152.987C288.123 152.975 288.413 153.006 288.694 153.08C289.845 153.424 290.121 153.728 290.052 154.943C289.955 156.648 289.869 158.355 289.653 160.052C289.527 161.042 289.617 162.043 289.447 163.042C289.287 163.986 289.003 164.45 287.771 164.489C286.738 164.521 285.701 164.504 284.67 164.444C283.507 164.377 282.346 164.32 281.182 164.316Z" fill="#5E4F48"/>
<path d="M78.1736 68.3854C78.1956 68.5661 78.1589 68.7492 78.069 68.9075C77.979 69.0658 77.8406 69.191 77.6741 69.2647C77.4892 69.3689 77.2775 69.4155 77.066 69.3986C76.8544 69.3816 76.6528 69.302 76.4868 69.1697C76.2151 68.9414 75.9642 68.6893 75.7374 68.4163C74.4904 66.9852 73.2531 65.5456 72.0081 64.1128C71.4382 63.4569 70.8505 62.8163 70.2878 62.1543C70.1249 61.955 69.9913 61.7335 69.8911 61.4964C69.8006 61.3036 69.7796 61.0855 69.8317 60.879C69.8837 60.6725 70.0056 60.4904 70.1766 60.3635C70.3302 60.2159 70.5286 60.1237 70.7405 60.1014C70.9523 60.079 71.1656 60.1278 71.3466 60.2401C71.5915 60.3958 71.811 60.5883 71.9974 60.8106C73.1833 62.1673 74.3548 63.5366 75.537 64.8964C76.2129 65.6739 76.8925 66.4484 77.5858 67.2104C77.9084 67.5247 78.1155 67.9387 78.1736 68.3854Z" fill="#5E4F48"/>
<path d="M200.099 34.3325C200.093 34.5439 200.039 34.7512 199.943 34.9394C198.976 37.6021 198.01 40.2655 197.047 42.9297C196.962 43.2435 196.778 43.5215 196.522 43.7225C196.393 43.8464 196.23 43.9288 196.054 43.9591C195.878 43.9893 195.697 43.966 195.535 43.8922C195.354 43.8209 195.197 43.6992 195.083 43.5416C194.969 43.384 194.902 43.197 194.891 43.0028C194.879 42.745 194.916 42.4873 195.002 42.2438C195.96 39.6141 196.905 36.9798 197.865 34.3512C197.957 34.0396 198.131 33.7587 198.369 33.5385C198.496 33.3908 198.668 33.2887 198.858 33.2478C199.049 33.207 199.247 33.2297 199.424 33.3124C199.626 33.3942 199.799 33.5355 199.92 33.7176C200.041 33.8997 200.103 34.1141 200.099 34.3325Z" fill="#5E4F48"/>
<path d="M36.5231 146.642C34.7378 146.343 32.9188 146.546 31.1297 146.261C30.519 146.198 29.9043 146.184 29.2915 146.22C28.9353 146.233 28.5817 146.156 28.2635 145.996C28.0836 145.922 27.9296 145.796 27.8206 145.635C27.7115 145.474 27.6524 145.285 27.6505 145.09C27.6478 144.88 27.7106 144.673 27.8302 144.5C27.9497 144.327 28.1202 144.195 28.3179 144.122C28.6996 143.935 29.1367 143.893 29.5469 144.006C30.0225 144.092 30.5051 144.134 30.9885 144.133C33.1751 144.265 35.3613 144.406 37.547 144.553C37.8399 144.559 38.1203 144.673 38.3335 144.874C38.5467 145.075 38.6775 145.348 38.7003 145.64C38.6639 145.929 38.5187 146.194 38.2942 146.379C38.0696 146.565 37.7827 146.658 37.4919 146.64C37.1694 146.652 36.8461 146.642 36.5231 146.642Z" fill="#5E4F48"/>
<path d="M230.479 256.388C230.71 256.378 230.938 256.433 231.139 256.546C231.34 256.659 231.505 256.826 231.615 257.028C232.528 258.35 233.458 259.659 234.374 260.978C235.051 261.954 235.721 262.936 236.384 263.923C236.626 264.227 236.763 264.601 236.775 264.989C236.789 265.158 236.757 265.328 236.681 265.48C236.606 265.632 236.491 265.76 236.347 265.851C236.204 265.942 236.039 265.993 235.87 265.997C235.7 266.001 235.533 265.958 235.385 265.874C235.097 265.729 234.855 265.506 234.687 265.231C233.122 262.956 231.554 260.683 229.982 258.413C229.716 258.086 229.576 257.675 229.588 257.254C229.633 256.638 229.891 256.391 230.479 256.388Z" fill="#5E4F48"/>
<path d="M61.0958 86.8077C61.0822 87.3696 60.4422 87.7809 59.6941 87.4742C59.0299 87.1486 58.404 86.75 57.8281 86.2857C56.1195 85.0895 54.42 83.8802 52.7297 82.6578C52.2628 82.3216 51.7659 81.9922 51.8417 81.2812C51.8508 81.1375 51.8919 80.9976 51.962 80.8718C52.0321 80.7461 52.1295 80.6376 52.247 80.5543C52.3645 80.471 52.4991 80.4151 52.641 80.3906C52.7829 80.366 52.9285 80.3736 53.0671 80.4126C53.4048 80.5225 53.7213 80.6894 54.0028 80.906C56.0711 82.3724 58.1446 83.8315 60.2086 85.3039C60.487 85.4407 60.7193 85.656 60.8769 85.9232C61.0346 86.1904 61.1107 86.4978 61.0958 86.8077Z" fill="#5E4F48"/>
<path d="M200.322 282.875C200.358 283.102 200.312 283.334 200.193 283.53C200.073 283.726 199.888 283.873 199.67 283.945C199.426 284.032 199.158 284.024 198.918 283.924C198.679 283.823 198.486 283.637 198.377 283.401C197.94 282.507 197.567 281.582 197.26 280.635C196.626 279.056 196.061 277.449 195.468 275.853C195.36 275.586 195.265 275.314 195.183 275.037C195.112 274.79 195.124 274.527 195.218 274.287C195.312 274.048 195.482 273.846 195.701 273.713C195.959 273.611 196.246 273.608 196.506 273.704C196.766 273.801 196.981 273.99 197.11 274.235C197.312 274.638 197.485 275.053 197.628 275.479C198.442 277.608 199.259 279.735 200.053 281.871C200.218 282.181 200.31 282.524 200.322 282.875Z" fill="#5E4F48"/>
<path d="M42.8086 121.586C42.5839 121.583 42.3616 121.539 42.1522 121.458C39.6778 120.646 37.1985 119.85 34.722 119.045C34.5058 118.981 34.2978 118.892 34.1025 118.78C33.8876 118.663 33.7192 118.475 33.6255 118.249C33.5318 118.023 33.5184 117.772 33.5875 117.537C33.688 117.281 33.8797 117.071 34.1257 116.947C34.3716 116.823 34.6546 116.795 34.9203 116.867C35.971 117.17 37.013 117.504 38.0533 117.841C39.5207 118.317 40.9854 118.802 42.4472 119.296C42.7539 119.392 43.0518 119.515 43.3379 119.662C43.5578 119.764 43.7367 119.937 43.8455 120.154C43.9543 120.371 43.9865 120.618 43.937 120.855C43.855 121.084 43.7001 121.279 43.4963 121.411C43.2924 121.543 43.0508 121.605 42.8086 121.586Z" fill="#5E4F48"/>
<path d="M30.2209 173.184C29.8018 173.184 29.3824 173.195 28.9637 173.182C28.6577 173.204 28.3546 173.11 28.1147 172.919C27.8749 172.727 27.7159 172.453 27.6693 172.149C27.6552 171.58 28.0714 171.205 28.8075 171.078C29.5064 170.961 30.2139 170.902 30.9225 170.903C32.823 170.899 34.7224 170.868 36.6169 170.697C37.0358 170.64 37.4616 170.729 37.8234 170.947C37.9862 171.022 38.1227 171.144 38.2152 171.297C38.3077 171.451 38.3518 171.629 38.3418 171.807C38.3373 172.019 38.2662 172.224 38.1385 172.393C38.0108 172.561 37.8331 172.686 37.6308 172.748C37.3202 172.829 37.0052 172.894 36.6874 172.94C36.5593 172.955 36.4301 172.96 36.3012 172.955C34.2724 172.971 32.2432 172.974 30.2209 173.184Z" fill="#5F5049"/>
<path d="M53.1385 235.959C52.9259 235.995 52.7074 235.954 52.5218 235.844C52.3363 235.735 52.1957 235.563 52.125 235.359C52.0398 235.163 52.0212 234.944 52.0719 234.736C52.1227 234.529 52.24 234.343 52.406 234.208C52.9623 233.725 53.557 233.283 54.1537 232.848C55.789 231.657 57.4333 230.479 59.0754 229.298C59.4191 229.002 59.85 228.827 60.3026 228.798C60.4963 228.777 60.6918 228.818 60.8603 228.916C61.0288 229.014 61.1612 229.164 61.2381 229.343C61.3249 229.519 61.3534 229.717 61.3196 229.911C61.2858 230.104 61.1913 230.281 61.0499 230.417C60.8295 230.652 60.5926 230.871 60.3409 231.072C58.3132 232.545 56.2789 234.008 54.2381 235.463C53.9097 235.695 53.6035 236.044 53.1385 235.959Z" fill="#5E4F48"/>
<path d="M39.2155 183.112C39.5266 183.08 39.8393 183.155 40.1022 183.324C40.365 183.494 40.5623 183.748 40.6616 184.044C40.7317 184.533 40.3504 184.974 39.7072 185.203C38.9625 185.403 38.1988 185.525 37.4288 185.566C35.4256 185.838 33.4193 186.087 31.4203 186.39C31.1334 186.448 30.836 186.42 30.5651 186.309C30.3953 186.255 30.2442 186.153 30.1288 186.017C30.0134 185.881 29.9383 185.715 29.912 185.539C29.875 185.346 29.8971 185.147 29.9755 184.968C30.0539 184.788 30.1849 184.637 30.3511 184.533C30.5937 184.374 30.8664 184.267 31.1523 184.217C32.9329 183.967 34.7179 183.748 36.5003 183.511C37.2316 183.413 37.9601 183.294 38.69 183.186C38.9123 183.153 39.1351 183.123 39.2155 183.112Z" fill="#5E4F48"/>
<path d="M133.993 38.5112C133.979 38.8898 134.058 39.2844 133.674 39.5645C133.531 39.673 133.364 39.7437 133.187 39.77C133.01 39.7963 132.829 39.7773 132.661 39.7148C132.493 39.6522 132.344 39.5483 132.227 39.4125C132.11 39.2768 132.03 39.1137 131.993 38.9384C131.829 38.3873 131.695 37.8275 131.592 37.2617C131.114 35.0729 130.639 32.8835 130.166 30.6935C130.13 30.5705 130.106 30.4441 130.095 30.3163C130.068 30.0691 130.13 29.8203 130.271 29.6155C130.412 29.4108 130.622 29.2637 130.863 29.2015C131.104 29.1392 131.359 29.1659 131.582 29.2766C131.804 29.3874 131.98 29.5747 132.075 29.8043C132.264 30.2127 132.388 30.6481 132.443 31.0948C132.954 33.2749 133.418 35.4659 133.913 37.6499C133.966 37.9339 133.993 38.2222 133.993 38.5112Z" fill="#5E4F48"/>
<path d="M81.0152 53.2354C81.0059 53.0647 81.0393 52.8944 81.1125 52.7399C81.1857 52.5854 81.2963 52.4516 81.4342 52.3507C81.5722 52.2497 81.7332 52.1848 81.9026 52.1619C82.072 52.1389 82.2444 52.1586 82.4043 52.2192C82.7042 52.3445 82.9598 52.5567 83.1379 52.8286C84.6111 54.9367 86.0833 57.0456 87.5544 59.1552C87.6963 59.3706 87.8154 59.6003 87.9096 59.8405C88.0196 60.0392 88.0575 60.2698 88.0166 60.4932C87.9758 60.7166 87.8588 60.9189 87.6856 61.0658C87.4979 61.2228 87.2612 61.3091 87.0165 61.3096C86.7718 61.3101 86.5346 61.2249 86.3463 61.0687C86.0732 60.8419 85.843 60.5678 85.6667 60.2596C84.4659 58.5504 83.2891 56.8243 82.1011 55.1061C81.8634 54.7623 81.6236 54.4187 81.3632 54.0923C81.1938 53.8313 81.0757 53.5405 81.0152 53.2354Z" fill="#5E4F48"/>
<path d="M183.074 38.4985C183.164 37.5416 183.324 36.5925 183.552 35.6587C183.835 33.9834 184.218 32.3249 184.562 30.6601C184.596 30.4712 184.649 30.2861 184.72 30.1076C184.998 29.4574 185.446 29.2031 186.001 29.3606C186.257 29.4641 186.469 29.6523 186.603 29.8937C186.737 30.1351 186.783 30.415 186.735 30.6867C186.575 31.6339 186.386 32.5765 186.198 33.5188C185.865 35.1842 185.518 36.8468 185.194 38.5138C185.155 38.768 185.072 39.0136 184.949 39.2395C184.853 39.4459 184.69 39.6129 184.485 39.7119C184.28 39.811 184.048 39.8362 183.827 39.783C183.606 39.7299 183.41 39.6017 183.273 39.4205C183.136 39.2392 183.066 39.016 183.075 38.7889C183.068 38.6926 183.074 38.5953 183.074 38.4985Z" fill="#5E4F48"/>
<path d="M249.715 238.921C249.856 238.911 249.998 238.935 250.128 238.989C250.259 239.044 250.374 239.129 250.466 239.237C250.851 239.626 251.247 240.005 251.632 240.394C253.11 241.881 254.586 243.37 256.061 244.861C256.25 245.036 256.426 245.226 256.587 245.427C256.72 245.645 256.793 245.896 256.796 246.152C256.799 246.408 256.734 246.66 256.605 246.882C256.4 247.037 256.153 247.129 255.895 247.145C255.638 247.161 255.382 247.101 255.158 246.973C254.922 246.804 254.706 246.609 254.513 246.392C252.738 244.564 250.965 242.734 249.194 240.902C249.005 240.727 248.856 240.513 248.756 240.276C248.676 240.124 248.639 239.952 248.65 239.781C248.662 239.609 248.72 239.444 248.819 239.304C248.919 239.164 249.055 239.054 249.213 238.986C249.371 238.919 249.545 238.896 249.715 238.921Z" fill="#5E4F48"/>
<path d="M121.785 42.1282C121.832 42.3483 121.797 42.5779 121.686 42.7737C121.575 42.9695 121.396 43.1179 121.183 43.1911C120.987 43.2707 120.769 43.2832 120.564 43.2265C120.36 43.1699 120.179 43.0474 120.051 42.8779C119.886 42.6813 119.75 42.4617 119.648 42.2261C118.665 39.9208 117.676 37.618 116.681 35.3174C116.578 35.0822 116.524 34.8283 116.523 34.5713C116.516 33.9009 116.681 33.6283 117.215 33.4593C117.45 33.3998 117.699 33.424 117.919 33.5276C118.139 33.6312 118.315 33.8079 118.419 34.0275C118.681 34.5081 118.917 35.0023 119.127 35.5081C119.931 37.3665 120.724 39.2294 121.522 41.0905C121.707 41.4041 121.798 41.7642 121.785 42.1282Z" fill="#5E4F48"/>
<path d="M69.088 76.73C69.1209 77.588 68.7782 77.9518 68.1779 77.9832C67.9847 77.9901 67.7922 77.9561 67.613 77.8836C67.4337 77.8111 67.2718 77.7017 67.1377 77.5624C65.2917 75.8632 63.4448 74.165 61.5972 72.4677C61.3542 72.2576 61.1405 72.016 60.9617 71.7491C60.827 71.5639 60.7692 71.3337 60.8002 71.1068C60.8312 70.8799 60.9487 70.6737 61.1282 70.5314C61.2785 70.3595 61.4863 70.2482 61.7127 70.2184C61.9391 70.1885 62.1687 70.2422 62.3584 70.3693C62.7324 70.6207 63.0849 70.9026 63.4123 71.2123C64.6933 72.3857 65.9604 73.5744 67.2387 74.7509C67.6167 75.0988 68.0206 75.4186 68.4017 75.7632C68.7283 76.0035 68.9689 76.3425 69.088 76.73Z" fill="#5E4F48"/>
<path d="M46.8668 109.584C46.6293 109.632 46.3726 109.464 46.1151 109.347C44.4142 108.574 42.7205 107.785 41.0237 107.003C40.5562 106.787 40.0874 106.575 39.6171 106.365C39.2534 106.23 38.9237 106.016 38.6511 105.74C38.4703 105.587 38.3504 105.374 38.3131 105.14C38.2758 104.906 38.3237 104.666 38.4479 104.465C38.5721 104.263 38.7646 104.112 38.9903 104.04C39.216 103.968 39.4601 103.979 39.6783 104.072C40.7079 104.441 41.7118 104.878 42.6835 105.38C44.0772 105.969 45.4313 106.652 46.7995 107.3C47.1338 107.423 47.436 107.619 47.6831 107.875C47.8293 108.003 47.9316 108.174 47.9756 108.364C48.0196 108.553 48.0032 108.751 47.9285 108.931C47.8387 109.135 47.689 109.306 47.4994 109.423C47.3097 109.539 47.0891 109.596 46.8668 109.584Z" fill="#5E4F48"/>
<path d="M240.703 68.5294C240.553 68.5201 240.409 68.468 240.288 68.3792C240.168 68.2904 240.075 68.1687 240.021 68.0287C239.917 67.8263 239.874 67.5981 239.897 67.3716C239.919 67.1451 240.007 66.9301 240.15 66.7526C240.624 66.1458 241.091 65.5334 241.581 64.9399C242.768 63.5033 243.961 62.0722 245.161 60.6469C245.3 60.4713 245.46 60.3131 245.637 60.1755C245.806 60.0217 246.026 59.9353 246.254 59.9326C246.483 59.9299 246.704 60.0111 246.877 60.1608C247.058 60.298 247.186 60.4939 247.238 60.7149C247.29 60.9358 247.264 61.1681 247.163 61.3717C246.994 61.7551 246.764 62.1084 246.481 62.4175C244.986 64.265 243.465 66.0917 241.958 67.9292C241.81 68.1194 241.619 68.2726 241.401 68.3767C241.183 68.4808 240.944 68.5331 240.703 68.5294Z" fill="#5E4F48"/>
<path d="M265.386 235.414C265.395 235.534 265.379 235.656 265.34 235.77C265.301 235.885 265.24 235.99 265.159 236.08C265.079 236.171 264.981 236.244 264.871 236.296C264.762 236.347 264.643 236.376 264.522 236.381C264.101 236.42 263.681 236.299 263.345 236.043C261.274 234.64 259.203 233.235 257.134 231.828C256.97 231.728 256.817 231.61 256.679 231.476C256.517 231.297 256.414 231.073 256.382 230.833C256.351 230.594 256.393 230.35 256.503 230.135C256.654 229.926 256.875 229.777 257.126 229.718C257.378 229.659 257.642 229.693 257.87 229.814C258.593 230.225 259.279 230.7 259.973 231.16C261.468 232.152 262.966 233.142 264.446 234.156C264.889 234.459 265.359 234.783 265.386 235.414Z" fill="#5E4F48"/>
<path d="M282.641 200.141C281.909 199.979 281.188 199.771 280.483 199.516C278.633 198.974 276.792 198.402 274.945 197.851C274.796 197.828 274.655 197.774 274.528 197.693C274.402 197.612 274.294 197.505 274.212 197.379C274.129 197.254 274.074 197.113 274.05 196.964C274.025 196.816 274.032 196.665 274.069 196.519C274.107 196.374 274.175 196.238 274.268 196.121C274.361 196.003 274.478 195.906 274.611 195.836C274.744 195.767 274.89 195.726 275.04 195.716C275.19 195.706 275.34 195.728 275.481 195.779C275.981 195.889 276.47 196.056 276.962 196.202C278.871 196.767 280.778 197.334 282.686 197.902C282.902 197.966 283.113 198.047 283.317 198.143C283.559 198.236 283.764 198.405 283.9 198.625C284.037 198.845 284.099 199.103 284.076 199.361C283.962 199.881 283.49 200.171 282.641 200.141Z" fill="#5E4F48"/>
<path d="M42.2964 195.726C43.0813 195.736 43.4796 195.977 43.6005 196.414C43.638 196.539 43.6504 196.67 43.6369 196.8C43.6234 196.93 43.5842 197.056 43.5217 197.171C43.4591 197.286 43.3745 197.387 43.2726 197.469C43.1707 197.551 43.0536 197.611 42.9281 197.648C42.2703 197.902 41.6001 198.123 40.9201 198.31C39.0187 198.889 37.1113 199.448 35.2133 200.038C34.9918 200.135 34.746 200.164 34.508 200.12C34.2699 200.076 34.0506 199.962 33.8784 199.792C33.7857 199.713 33.7104 199.616 33.6571 199.507C33.6039 199.398 33.5739 199.279 33.5691 199.158C33.5642 199.036 33.5847 198.915 33.6291 198.802C33.6735 198.689 33.741 198.587 33.8271 198.501C34.0808 198.205 34.4193 197.995 34.7969 197.898C37.0962 197.194 39.3979 196.499 41.702 195.811C41.8968 195.763 42.0959 195.734 42.2964 195.726Z" fill="#5E4F48"/>
<path d="M249.762 77.7719C248.67 77.7905 248.217 77.0798 248.591 76.3245C248.677 76.1523 248.792 75.9961 248.931 75.8629C250.775 74.1047 252.623 72.3511 254.475 70.6019C254.622 70.4757 254.78 70.3638 254.948 70.2679C255.144 70.0957 255.399 70.0067 255.66 70.0201C255.921 70.0335 256.166 70.1481 256.343 70.3396C256.517 70.5535 256.605 70.8239 256.592 71.0992C256.579 71.3744 256.465 71.6351 256.271 71.8314C255.505 72.6613 254.695 73.4499 253.846 74.1939C252.777 75.0861 251.846 76.1144 250.821 77.0462C250.534 77.3731 250.17 77.6227 249.762 77.7719Z" fill="#5E4F48"/>
<path d="M39.0472 134.208C38.1346 134.058 37.1831 133.91 36.2352 133.743C34.8142 133.492 33.3948 133.232 31.9768 132.964C31.6272 132.91 31.2841 132.82 30.9526 132.697C30.7218 132.615 30.5259 132.457 30.3978 132.249C30.2698 132.04 30.2174 131.794 30.2494 131.551C30.3257 131.306 30.4766 131.09 30.681 130.934C30.8854 130.778 31.1332 130.69 31.3902 130.681C31.8085 130.699 32.2229 130.77 32.6234 130.892C34.7457 131.232 36.862 131.61 38.9796 131.98C39.1369 132.016 39.2913 132.063 39.4415 132.122C39.5879 132.137 39.7296 132.183 39.8575 132.256C39.9854 132.329 40.0968 132.427 40.1847 132.546C40.2726 132.664 40.3351 132.799 40.3681 132.942C40.4012 133.086 40.4041 133.235 40.3768 133.379C40.3494 133.524 40.2924 133.661 40.2093 133.783C40.1261 133.904 40.0187 134.007 39.8938 134.085C39.7688 134.163 39.6291 134.214 39.4834 134.236C39.3377 134.257 39.1892 134.248 39.0472 134.208Z" fill="#5E4F48"/>
<path d="M109.756 47.0536C109.789 47.2699 109.743 47.491 109.626 47.6759C109.509 47.8608 109.329 47.9972 109.119 48.0597C108.923 48.1421 108.706 48.16 108.499 48.1111C108.293 48.0621 108.107 47.9487 107.969 47.7872C107.727 47.4841 107.529 47.1479 107.382 46.7889C106.435 44.7759 105.488 42.7629 104.54 40.7501C104.374 40.4362 104.271 40.0925 104.238 39.7388C104.225 39.5119 104.284 39.2867 104.405 39.0947C104.527 38.9026 104.705 38.7533 104.916 38.6676C105.118 38.6005 105.336 38.6004 105.537 38.6673C105.739 38.7343 105.914 38.8647 106.036 39.0391C106.172 39.2191 106.289 39.4123 106.386 39.6158C107.416 41.7688 108.44 43.9242 109.46 46.0818C109.649 46.3712 109.751 46.7082 109.756 47.0536Z" fill="#5E4F48"/>
<path d="M207.1 46.8364C207.075 46.5138 207.154 46.1916 207.326 45.9172C208.119 44.1905 208.923 42.4684 209.721 40.7436C209.991 40.1594 210.21 39.5473 210.529 38.9914C211.014 38.1448 211.937 38.0707 212.4 38.8114C212.511 39.009 212.568 39.232 212.566 39.4585C212.565 39.685 212.504 39.9072 212.39 40.1031C212.003 40.953 211.613 41.8019 211.222 42.6498C210.598 43.994 209.972 45.3369 209.344 46.6787C209.202 47.0035 209.004 47.3007 208.759 47.5565C208.621 47.7175 208.433 47.8279 208.226 47.8702C208.018 47.9126 207.803 47.8845 207.613 47.7903C207.43 47.715 207.28 47.5788 207.186 47.405C207.093 47.2311 207.062 47.0302 207.1 46.8364Z" fill="#5E4F48"/>
<path d="M236.562 52.0671C236.572 52.378 236.465 52.6814 236.262 52.9168C235.162 54.419 234.082 55.9365 232.977 57.4349C232.535 58.1426 232.019 58.802 231.439 59.4023C231.259 59.5634 231.032 59.6608 230.791 59.6794C230.551 59.6979 230.311 59.6365 230.109 59.5047C229.932 59.3644 229.808 59.169 229.755 58.9495C229.702 58.7301 229.724 58.4993 229.817 58.2938C229.946 57.9645 230.123 57.6564 230.343 57.3798C230.846 56.7147 231.318 56.0264 231.813 55.3549C232.708 54.1397 233.613 52.9313 234.509 51.7165C234.666 51.4714 234.884 51.272 235.142 51.1383C235.295 51.0588 235.467 51.0216 235.64 51.0303C235.812 51.039 235.979 51.0934 236.123 51.1879C236.268 51.2824 236.385 51.4136 236.462 51.5681C236.539 51.7226 236.574 51.8948 236.562 52.0671Z" fill="#5E4F48"/>
<path d="M286.008 130.474C286.756 130.485 287.2 130.781 287.286 131.258C287.314 131.401 287.311 131.549 287.28 131.691C287.248 131.833 287.188 131.968 287.102 132.086C287.016 132.204 286.907 132.303 286.782 132.377C286.656 132.451 286.517 132.499 286.372 132.517C285.163 132.822 283.942 133.082 282.721 133.333C281.404 133.604 280.083 133.849 278.761 134.092C278.616 134.141 278.462 134.159 278.31 134.146C278.157 134.133 278.009 134.088 277.874 134.015C277.74 133.941 277.622 133.841 277.528 133.72C277.434 133.599 277.366 133.46 277.328 133.312C277.185 132.758 277.493 132.252 278.227 132.059C279.337 131.767 280.466 131.546 281.59 131.315C282.904 131.045 284.222 130.796 285.539 130.541C285.727 130.505 285.919 130.486 286.008 130.474Z" fill="#5E4F48"/>
<path d="M287.385 143.689C287.706 143.672 288.028 143.673 288.349 143.693C288.544 143.706 288.728 143.782 288.877 143.907C289.025 144.033 289.13 144.203 289.176 144.392C289.244 144.594 289.241 144.813 289.167 145.012C289.094 145.212 288.954 145.38 288.771 145.49C288.566 145.646 288.324 145.745 288.068 145.777C287.353 145.771 286.667 145.966 285.962 146.022C284.267 146.157 282.573 146.317 280.882 146.501C280.011 146.595 279.392 146.29 279.307 145.648C279.224 145.014 279.758 144.443 280.582 144.362C281.126 144.309 281.667 144.245 282.209 144.182C283.929 143.98 285.659 143.848 287.385 143.689Z" fill="#5E4F48"/>
<path d="M277.54 212.563C276.991 212.549 276.456 212.391 275.987 212.105C274.152 211.414 272.338 210.668 270.52 209.934C270.219 209.82 269.931 209.673 269.662 209.496C269.469 209.374 269.324 209.189 269.25 208.973C269.177 208.756 269.18 208.521 269.258 208.307C269.354 208.083 269.523 207.899 269.738 207.785C269.952 207.67 270.199 207.632 270.438 207.676C270.905 207.792 271.362 207.942 271.806 208.125C273.665 208.845 275.522 209.573 277.375 210.308C277.681 210.411 277.966 210.566 278.219 210.766C278.409 210.892 278.552 211.078 278.625 211.294C278.699 211.51 278.699 211.744 278.626 211.961C278.553 212.179 278.402 212.362 278.201 212.474C278 212.585 277.764 212.617 277.54 212.563Z" fill="#5E4F48"/>
<path d="M82.199 265C82.0446 265.002 81.8919 264.968 81.7529 264.9C81.6139 264.833 81.4924 264.734 81.3979 264.612C81.3033 264.49 81.2383 264.348 81.208 264.197C81.1776 264.045 81.1828 263.889 81.223 263.74C81.2938 263.491 81.4073 263.258 81.5586 263.048C82.9063 261.085 84.2598 259.126 85.619 257.17C85.7928 256.896 86.0352 256.671 86.3222 256.519C86.4911 256.419 86.6883 256.379 86.8827 256.404C87.0772 256.429 87.2578 256.518 87.3961 256.657C87.5537 256.77 87.6717 256.929 87.7336 257.113C87.7955 257.297 87.7981 257.496 87.741 257.681C87.579 258.137 87.3444 258.564 87.0463 258.945C85.8444 260.695 84.6204 262.429 83.4085 264.172C83.1079 264.604 82.8048 265.021 82.199 265Z" fill="#5E4F48"/>
<path d="M257.909 87.479C257.731 87.4984 257.552 87.4671 257.391 87.3886C257.231 87.3101 257.095 87.1877 257.001 87.0356C256.908 86.8834 256.859 86.7078 256.86 86.529C256.862 86.3502 256.915 86.1756 257.012 86.0253C257.23 85.6682 257.524 85.3632 257.873 85.1317C259.411 83.9223 260.941 82.7034 262.48 81.4969C262.827 81.2123 263.196 80.9564 263.584 80.7319C263.689 80.6553 263.809 80.6018 263.937 80.575C264.064 80.5483 264.196 80.5487 264.323 80.5764C264.45 80.6041 264.57 80.6584 264.675 80.7358C264.78 80.8131 264.867 80.9118 264.931 81.0252C265.077 81.202 265.148 81.4286 265.13 81.657C265.111 81.8854 265.005 82.0977 264.833 82.2491C264.172 82.9514 263.442 83.5853 262.654 84.1409C261.496 85.1026 260.283 85.9974 259.105 86.9348C258.777 87.2429 258.357 87.4342 257.909 87.479Z" fill="#5E4F48"/>
<path d="M62.3483 246.28C62.1922 246.291 62.0356 246.264 61.8922 246.201C61.7488 246.138 61.6229 246.041 61.5255 245.919C61.428 245.796 61.3619 245.652 61.333 245.498C61.304 245.344 61.3131 245.185 61.3593 245.036C61.4633 244.694 61.6656 244.391 61.9409 244.163C63.6312 242.676 65.3223 241.19 67.0143 239.705C67.2083 239.536 67.4213 239.389 67.6491 239.269C67.8587 239.147 68.1023 239.096 68.3432 239.125C68.5841 239.153 68.8092 239.259 68.9847 239.426C69.1607 239.621 69.2545 239.876 69.2466 240.138C69.2386 240.401 69.1294 240.65 68.942 240.833C68.5765 241.241 68.1835 241.624 67.7657 241.979C66.8276 242.81 65.8746 243.625 64.9296 244.449C64.3479 244.956 63.7665 245.463 63.1914 245.977C63.0798 246.084 62.9471 246.166 62.8019 246.218C62.6567 246.27 62.5022 246.291 62.3483 246.28Z" fill="#5E4F48"/>
<path d="M278.938 105.047C278.903 105.312 278.793 105.562 278.622 105.768C278.45 105.973 278.225 106.126 277.97 106.209C276.778 106.779 275.584 107.35 274.369 107.868C273.36 108.297 272.429 108.89 271.377 109.228C271.218 109.303 271.042 109.336 270.866 109.322C270.691 109.309 270.522 109.25 270.377 109.151C270.23 109.076 270.106 108.964 270.016 108.827C269.925 108.69 269.872 108.532 269.861 108.368C269.849 108.204 269.881 108.04 269.952 107.892C270.023 107.743 270.131 107.616 270.265 107.522C270.567 107.279 270.901 107.079 271.257 106.928C273.066 106.075 274.879 105.232 276.696 104.399C277.043 104.228 277.408 104.097 277.784 104.01C277.932 103.982 278.084 103.989 278.228 104.029C278.373 104.069 278.506 104.143 278.618 104.243C278.73 104.344 278.817 104.468 278.872 104.608C278.928 104.747 278.95 104.898 278.938 105.047Z" fill="#5E4F48"/>
<path d="M246.626 257.01C246.455 257.024 246.283 256.992 246.128 256.919C245.972 256.845 245.839 256.732 245.741 256.591C245.014 255.774 244.276 254.967 243.558 254.142C242.82 253.293 242.097 252.43 241.374 251.568C241.164 251.325 240.968 251.07 240.788 250.803C240.613 250.591 240.525 250.32 240.54 250.046C240.555 249.771 240.672 249.512 240.869 249.32C240.969 249.223 241.089 249.15 241.22 249.103C241.351 249.057 241.491 249.04 241.629 249.052C241.768 249.064 241.902 249.106 242.023 249.174C242.144 249.242 242.249 249.336 242.331 249.448C243.134 250.282 243.895 251.157 244.657 252.03C245.354 252.828 246.02 253.653 246.717 254.452C247.08 254.818 247.374 255.248 247.584 255.72C247.655 255.869 247.684 256.035 247.668 256.199C247.652 256.364 247.592 256.52 247.493 256.653C247.395 256.786 247.262 256.889 247.109 256.952C246.956 257.015 246.789 257.035 246.626 257.01Z" fill="#5E4F48"/>
<path d="M284.386 170.703C285.514 170.703 286.642 170.708 287.77 170.7C288.125 170.687 288.478 170.758 288.801 170.907C288.979 170.981 289.133 171.105 289.242 171.264C289.351 171.423 289.413 171.61 289.418 171.804C289.424 171.997 289.373 172.187 289.273 172.352C289.173 172.517 289.027 172.65 288.853 172.734C288.57 172.889 288.249 172.966 287.926 172.955C285.609 172.887 283.295 172.703 280.974 172.768C280.814 172.767 280.655 172.735 280.507 172.673C280.358 172.611 280.224 172.52 280.111 172.405C279.952 172.281 279.835 172.11 279.778 171.916C279.721 171.722 279.725 171.515 279.792 171.324C279.858 171.133 279.983 170.968 280.148 170.851C280.313 170.735 280.51 170.673 280.712 170.674C281.937 170.672 283.162 170.672 284.386 170.674L284.386 170.703Z" fill="#5E4F48"/>
<path d="M274.052 119.976C274.09 119.291 274.619 119.082 275.142 118.919C276.059 118.633 276.99 118.392 277.915 118.134C279.151 117.79 280.387 117.446 281.623 117.104C281.805 117.044 281.992 117 282.182 116.974C282.884 116.91 283.366 117.177 283.495 117.681C283.548 117.97 283.49 118.269 283.332 118.517C283.175 118.765 282.93 118.944 282.646 119.019C281.826 119.296 280.984 119.504 280.152 119.742C278.578 120.191 277.011 120.663 275.43 121.082C275.263 121.149 275.081 121.171 274.903 121.144C274.725 121.118 274.558 121.045 274.417 120.932C274.277 120.819 274.169 120.672 274.105 120.503C274.041 120.335 274.022 120.153 274.052 119.976Z" fill="#5E5048"/>
<path d="M187.06 285.927C187.059 286.575 186.8 286.978 186.383 287.109C186.155 287.194 185.903 287.191 185.677 287.1C185.452 287.008 185.268 286.836 185.163 286.616C185.026 286.398 184.917 286.163 184.839 285.918C184.213 283.666 183.596 281.411 182.987 279.155C182.872 278.887 182.866 278.585 182.971 278.313C183.075 278.041 183.281 277.82 183.545 277.697C183.698 277.638 183.862 277.614 184.025 277.627C184.189 277.64 184.347 277.689 184.489 277.771C184.631 277.852 184.753 277.965 184.846 278.099C184.94 278.234 185.002 278.388 185.028 278.549C185.45 279.892 185.806 281.256 186.183 282.612C186.441 283.538 186.69 284.466 186.939 285.394C186.996 285.61 187.038 285.83 187.06 285.927Z" fill="#5E4F48"/>
<path d="M285.81 186.433C284.815 186.219 283.658 185.97 282.501 185.723C281.345 185.476 280.189 185.23 279.033 184.984C278.875 184.957 278.719 184.918 278.566 184.87C277.861 184.617 277.548 184.156 277.678 183.578C277.77 183.283 277.971 183.034 278.24 182.882C278.509 182.73 278.826 182.687 279.126 182.76C280.065 182.95 281 183.166 281.936 183.372C283.155 183.64 284.374 183.909 285.593 184.179C285.843 184.232 286.091 184.3 286.334 184.381C286.976 184.603 287.34 185.068 287.273 185.558C287.194 186.132 286.719 186.455 285.81 186.433Z" fill="#5E4F48"/>
<path d="M76.2855 248.189C76.4416 248.166 76.6008 248.183 76.7485 248.239C76.8963 248.294 77.0276 248.386 77.1306 248.505C77.2335 248.625 77.3046 248.768 77.3373 248.922C77.3701 249.077 77.3634 249.237 77.3178 249.388C77.2314 249.698 77.0732 249.984 76.8561 250.223C75.45 251.932 74.0485 253.646 72.6514 255.362C72.5939 255.44 72.5314 255.513 72.4642 255.582C72.3765 255.702 72.2648 255.803 72.1361 255.879C72.0074 255.954 71.8644 256.002 71.7163 256.019C71.5682 256.036 71.4182 256.022 71.2756 255.978C71.1331 255.935 71.0012 255.862 70.8883 255.764C70.7754 255.667 70.684 255.547 70.6198 255.412C70.5555 255.278 70.5199 255.131 70.5152 254.982C70.5105 254.833 70.5367 254.685 70.5923 254.547C70.6478 254.408 70.7315 254.283 70.838 254.179C71.384 253.466 71.9595 252.775 72.5263 252.079C73.3961 251.009 74.2643 249.939 75.1439 248.878C75.4513 248.507 75.7595 248.108 76.2855 248.189Z" fill="#5E4F48"/>
<path d="M212.775 277.497C212.757 278.188 212.543 278.49 212.063 278.624C211.825 278.674 211.577 278.641 211.361 278.531C211.145 278.42 210.973 278.239 210.874 278.017C210.42 277.167 210.005 276.296 209.589 275.426C209.061 274.325 208.542 273.219 208.031 272.109C207.862 271.763 207.724 271.403 207.617 271.032C207.565 270.812 207.588 270.581 207.683 270.376C207.778 270.171 207.94 270.004 208.141 269.901C208.319 269.787 208.532 269.74 208.742 269.768C208.951 269.796 209.144 269.898 209.286 270.055C209.563 270.324 209.782 270.647 209.931 271.004C210.807 272.9 211.679 274.798 212.565 276.689C212.7 276.937 212.772 277.215 212.775 277.497Z" fill="#5E5049"/>
<path d="M40.0867 212.562C39.8692 212.607 39.6428 212.569 39.4513 212.457C39.2599 212.344 39.1171 212.165 39.0505 211.953C38.974 211.754 38.9616 211.537 39.0152 211.331C39.0687 211.125 39.1854 210.941 39.349 210.805C39.5513 210.647 39.7748 210.517 40.0131 210.42C41.9784 209.538 43.942 208.651 45.9175 207.793C46.788 207.414 47.1277 207.484 47.5684 208.002C47.6486 208.071 47.7136 208.156 47.7592 208.252C47.8048 208.348 47.83 208.452 47.8333 208.558C47.8366 208.663 47.8178 208.769 47.7782 208.867C47.7386 208.965 47.679 209.054 47.6032 209.129C47.3893 209.414 47.1081 209.641 46.7846 209.791C44.8103 210.651 42.8361 211.511 40.8618 212.371C40.6317 212.519 40.3591 212.586 40.0867 212.562Z" fill="#5E4F48"/>
<path d="M117.902 282.926C117.03 282.931 116.808 282.743 116.703 282.165C116.65 281.814 116.69 281.456 116.819 281.125C117.5 279.19 118.194 277.26 118.887 275.33C118.942 275.178 119.015 275.034 119.105 274.9C119.219 274.705 119.395 274.553 119.604 274.467C119.813 274.381 120.045 274.366 120.263 274.425C120.5 274.487 120.706 274.632 120.845 274.833C120.983 275.035 121.045 275.28 121.017 275.523C121.006 275.748 120.962 275.971 120.886 276.183C120.21 278.087 119.528 279.989 118.841 281.889C118.633 282.468 118.3 282.903 117.902 282.926Z" fill="#5E4F48"/>
<path d="M108.992 270.857C108.957 271.112 108.89 271.361 108.793 271.599C107.956 273.309 107.136 275.026 106.309 276.74C106.242 276.887 106.163 277.028 106.073 277.162C105.918 277.39 105.689 277.557 105.425 277.635C105.16 277.713 104.877 277.697 104.624 277.589C104.396 277.459 104.226 277.248 104.148 276.997C104.071 276.746 104.092 276.476 104.208 276.24C104.363 275.816 104.541 275.401 104.741 274.997C105.445 273.545 106.155 272.097 106.872 270.652C106.951 270.476 107.052 270.309 107.171 270.156C107.313 269.98 107.509 269.855 107.729 269.8C107.949 269.745 108.18 269.762 108.389 269.85C108.584 269.931 108.748 270.073 108.856 270.254C108.965 270.436 109.012 270.647 108.992 270.857Z" fill="#5F5049"/>
<path d="M233.835 65.6636C233.849 65.8732 233.779 66.0798 233.641 66.2382C233.503 66.3965 233.308 66.4937 233.098 66.5083C232.892 66.4967 232.695 66.4164 232.539 66.2801C232.383 66.1439 232.278 65.9595 232.238 65.7563C232.235 65.5473 232.313 65.3454 232.458 65.1944C232.602 65.0435 232.801 64.9558 233.01 64.9505C233.113 64.9312 233.219 64.9354 233.32 64.9627C233.421 64.99 233.515 65.0398 233.594 65.1083C233.673 65.1768 233.736 65.2623 233.778 65.3584C233.82 65.4545 233.839 65.5589 233.835 65.6636Z" fill="#786A61"/>
<path d="M241.822 93.7067C242.652 93.818 243.483 93.9223 244.311 94.0425C245.457 94.2086 246.599 94.3998 247.746 94.5545C248.411 94.6442 248.529 94.7954 248.361 95.4596C247.973 96.9891 247.52 98.502 247.129 100.031C246.988 100.463 246.687 100.825 246.289 101.044C243.643 102.943 240.995 104.839 238.346 106.733C235.488 108.783 232.633 110.835 229.779 112.89C226.188 115.466 222.596 118.039 219.003 120.61C216.621 122.324 214.264 124.073 211.878 125.782C207.105 129.199 202.312 132.59 197.542 136.011C191.855 140.089 186.175 144.177 180.503 148.277C177.257 150.613 174.009 152.947 170.759 155.278C169.863 155.792 169.019 156.391 168.238 157.067C167.929 157.347 167.737 157.733 167.702 158.149C167.623 159.733 167.192 161.28 166.439 162.677C165.23 164.884 163.201 166.526 160.79 167.249C160.085 167.476 159.954 167.298 160.034 166.554C160.049 166.225 160.172 165.911 160.383 165.658C160.594 165.406 160.883 165.23 161.204 165.157C162.289 164.806 163.261 164.172 164.019 163.319C164.776 162.466 165.291 161.425 165.511 160.306C165.793 159.219 165.791 158.078 165.505 156.992C165.218 155.906 164.657 154.912 163.875 154.106C163.55 153.871 163.313 153.535 163.199 153.15C163.085 152.766 163.101 152.354 163.246 151.98C163.375 151.549 163.455 151.104 163.485 150.654C163.541 150.174 163.702 149.712 163.956 149.3C164.21 148.889 164.551 148.538 164.955 148.273C167.179 146.727 169.362 145.121 171.566 143.546C176.943 139.701 182.323 135.859 187.704 132.019C191.013 129.659 194.333 127.313 197.643 124.953C201.319 122.332 204.991 119.706 208.66 117.075C211.284 115.201 213.909 113.328 216.536 111.458C221.39 107.989 226.244 104.519 231.097 101.047C234.431 98.6673 237.776 96.3022 241.11 93.9227C241.208 93.84 241.321 93.7782 241.444 93.7411C241.566 93.7039 241.695 93.6922 241.822 93.7067Z" fill="#DCCDB3"/>
<path d="M157.755 149.176C157.6 149.716 157.618 150.27 157.484 150.808C157.455 151.03 157.353 151.236 157.195 151.395C157.036 151.553 156.83 151.655 156.608 151.684C154.883 152.046 153.367 153.065 152.38 154.526C151.546 155.804 151.151 157.32 151.258 158.842C151.364 160.365 151.965 161.811 152.97 162.961C153.086 163.117 153.224 163.255 153.38 163.37C154.561 164.059 154.241 165.068 153.977 166.07C153.902 166.353 153.712 166.44 153.467 166.313C153.147 166.158 152.843 165.973 152.56 165.759C150.64 164.343 149.342 162.239 148.939 159.887C148.883 159.406 148.639 158.967 148.262 158.665C146.172 157.044 143.971 155.573 141.673 154.263C138.01 152.025 134.334 149.807 130.665 147.579C125.976 144.73 121.287 141.881 116.6 139.03C111.8 136.117 106.999 133.207 102.196 130.3C100.789 129.446 99.3977 128.564 97.9848 127.719C97.7501 127.585 97.5452 127.404 97.3824 127.189C97.2196 126.973 97.1024 126.726 97.0378 126.463C96.5861 124.917 96.0436 123.397 95.5545 121.86C95.2885 121.025 95.312 121.005 96.1545 120.722C97.8073 120.168 99.5172 119.838 101.207 119.427C101.376 119.382 101.553 119.374 101.726 119.402C101.899 119.43 102.064 119.495 102.21 119.592C105.431 121.502 108.661 123.396 111.883 125.305C115.936 127.707 119.986 130.114 124.032 132.527C128.913 135.433 133.793 138.34 138.673 141.248C142.641 143.606 146.612 145.959 150.588 148.305C151.333 148.817 152.133 149.244 152.972 149.578C153.151 149.646 153.341 149.676 153.532 149.666C153.722 149.657 153.908 149.608 154.079 149.524C155.075 149.058 156.143 148.768 157.238 148.668C157.732 148.622 157.805 148.7 157.755 149.176Z" fill="#DCCDB3"/>
<path d="M156.959 165.418C157.034 165.432 157.195 165.452 157.351 165.491C158.027 165.659 157.995 165.685 157.917 166.417C157.852 167.042 157.523 167.569 157.412 168.175C156.743 171.849 155.96 175.501 155.125 179.14C154.218 183.095 153.47 187.084 152.548 191.033C151.729 194.545 151.094 198.096 150.239 201.595C149.192 205.883 148.413 210.228 147.379 214.518C146.677 217.428 146.104 220.368 145.469 223.294C144.786 226.44 144.1 229.586 143.411 232.731C142.398 237.388 141.386 242.045 140.374 246.702C140.203 247.488 139.996 248.266 139.81 249.048C139.723 249.275 139.687 249.517 139.702 249.76C139.717 250.002 139.784 250.238 139.898 250.452C140.012 250.667 140.171 250.854 140.363 251.002C140.556 251.15 140.778 251.255 141.014 251.309C141.729 251.563 141.744 251.566 141.578 252.306C141.058 254.632 140.512 256.952 140.008 259.28C139.962 259.597 139.821 259.892 139.604 260.127C139.387 260.362 139.103 260.526 138.791 260.596C136.614 261.25 137.185 261.355 135.631 259.872C135.548 259.773 135.454 259.683 135.351 259.604C134.971 259.398 134.681 259.057 134.539 258.648C134.397 258.239 134.414 257.791 134.585 257.394C135.119 255.205 135.516 252.983 135.991 250.779C136.059 250.459 136.073 250.025 136.583 250.027C136.806 250.062 137.034 250.043 137.248 249.97C137.462 249.898 137.655 249.774 137.811 249.61C138.224 249.156 138.514 248.603 138.652 248.005C138.951 246.457 139.282 244.915 139.612 243.373C140.164 240.79 140.732 238.21 141.279 235.625C141.786 233.232 142.234 230.825 142.781 228.441C143.703 224.422 144.435 220.363 145.361 216.347C146.172 212.832 146.837 209.289 147.615 205.768C148.594 201.334 149.557 196.897 150.505 192.456C151.162 189.403 151.794 186.345 152.443 183.29C153.192 179.762 153.973 176.241 154.688 172.707C155.008 171.128 155.492 169.591 155.805 168.013C155.937 167.351 156.007 166.676 156.152 166.018C156.267 165.5 156.415 165.412 156.959 165.418Z" fill="#BC9C52"/>
<path d="M153.384 158.316C153.378 157.094 153.85 155.917 154.7 155.039C155.55 154.161 156.71 153.65 157.932 153.616C159.016 153.587 158.938 153.463 159.187 152.629C159.471 151.678 159.611 150.683 159.801 149.704C160.3 147.146 160.841 144.595 161.275 142.026C161.871 138.503 162.635 135.012 163.275 131.498C163.684 129.252 164.089 127.006 164.505 124.761C164.522 124.587 164.589 124.422 164.697 124.285C164.805 124.148 164.949 124.044 165.114 123.986C165.278 123.928 165.456 123.917 165.626 123.956C165.796 123.994 165.952 124.081 166.075 124.204C166.15 124.29 166.2 124.395 166.22 124.507C166.239 124.619 166.228 124.734 166.187 124.841C165.915 126.327 165.639 127.813 165.358 129.298C164.672 132.935 163.977 136.57 163.301 140.208C162.836 142.708 162.341 145.201 161.855 147.696C161.414 149.674 161.091 151.675 160.886 153.691C160.85 153.846 160.865 154.009 160.928 154.155C160.991 154.301 161.099 154.422 161.237 154.502C161.59 154.73 161.909 155.007 162.186 155.324C162.795 155.935 163.228 156.701 163.438 157.539C163.647 158.376 163.626 159.255 163.377 160.082C163.156 160.897 162.713 161.634 162.097 162.212C161.482 162.79 160.718 163.185 159.89 163.354C158.558 163.65 157.163 163.434 155.983 162.749C154.802 162.064 153.923 160.96 153.519 159.656C153.42 159.216 153.375 158.766 153.384 158.316Z" fill="#DCCDB3"/>
<path d="M165.143 84.5373C162.299 84.5373 159.456 84.5419 156.612 84.5349C155.554 84.5323 155.518 84.4896 155.51 83.4461C155.497 81.8647 155.307 80.2899 155.353 78.7054C155.359 78.2257 155.485 77.7552 155.718 77.336C157.729 73.6529 159.7 69.9473 161.704 66.2607C163.601 62.7733 165.522 59.2995 167.437 55.8224C167.892 54.9983 168.124 54.0696 168.11 53.1283C168.082 50.5434 168.416 47.9712 168.349 45.3856C168.345 44.9661 168.382 44.5472 168.461 44.1351C168.633 42.9791 168.477 41.7982 168.013 40.7259C167.795 40.3049 167.489 39.9357 167.116 39.6435C166.743 39.3512 166.311 39.1427 165.85 39.0322C165.39 38.9216 164.91 38.9116 164.445 39.0028C163.98 39.0941 163.54 39.2844 163.155 39.5608C162.68 39.9757 162.308 40.4958 162.07 41.0798C161.831 41.6637 161.732 42.2953 161.781 42.9242C161.741 45.0884 161.773 47.2539 161.774 49.4189C161.774 49.6772 161.77 49.9358 161.759 50.1939C161.762 50.2506 161.753 50.3073 161.733 50.3602C161.712 50.4131 161.68 50.461 161.639 50.5005C161.598 50.5401 161.55 50.5705 161.496 50.5896C161.443 50.6088 161.386 50.6163 161.329 50.6116C161.103 50.621 160.877 50.633 160.651 50.6258C158.906 50.5702 157.168 50.7449 155.427 50.7982C154.448 50.8282 154.355 50.7646 154.405 49.7601C154.582 46.2751 154.53 42.7872 154.596 39.3011C154.727 38.202 155.198 37.1711 155.942 36.3521C157.442 34.3333 159.665 32.9731 162.145 32.5566C164.331 32.0908 166.596 32.1553 168.752 32.7445C170.014 33.0602 171.157 33.7338 172.045 34.6844C172.932 35.6349 173.526 36.8218 173.755 38.1021C173.799 38.3897 173.809 38.6816 173.784 38.9715C173.79 41.6858 173.74 44.4015 173.813 47.114C173.884 49.728 173.951 52.3416 173.984 54.9564C174.004 55.4696 173.873 55.9773 173.609 56.4175C171.219 60.4407 168.845 64.4739 166.489 68.5169C165.101 70.8829 163.748 73.2693 162.327 75.6151C161.476 77.0204 162.347 77.8685 163.49 78.0906C163.81 78.1374 164.133 78.1545 164.456 78.1417C167.428 78.1566 170.401 78.169 173.374 78.1791C174.476 78.1838 174.457 78.1879 174.604 79.2614C174.717 80.6453 174.746 82.0348 174.689 83.4221C174.67 83.6472 174.635 83.8706 174.585 84.0908C174.583 84.1557 174.568 84.2194 174.54 84.2779C174.512 84.3364 174.472 84.3884 174.422 84.4305C174.373 84.4726 174.315 84.5039 174.253 84.5224C174.191 84.5408 174.126 84.546 174.061 84.5377C173.835 84.5381 173.609 84.5433 173.383 84.5434C170.636 84.5438 167.89 84.5439 165.143 84.5436L165.143 84.5373Z" fill="#DCCDB3"/>
<path d="M148.541 245.061C148.541 243.833 148.527 242.605 148.544 241.378C148.551 239.652 149.154 237.982 150.248 236.649C151.343 235.315 152.864 234.4 154.555 234.056C156.744 233.647 158.989 233.627 161.185 233.996C162.178 234.088 163.165 234.235 164.142 234.437C164.902 234.594 165.61 234.941 166.201 235.444C166.943 235.99 167.544 236.705 167.954 237.53C168.365 238.355 168.573 239.266 168.561 240.187C168.484 242.025 168.543 243.87 168.568 245.711C168.579 246.581 168.68 247.449 168.69 248.319C168.7 249.145 168.62 249.216 167.814 249.223C166.263 249.236 164.712 249.236 163.162 249.222C162.336 249.216 162.318 249.193 162.322 248.322C162.329 246.836 162.351 245.35 162.361 243.864C162.355 243.221 162.302 242.579 162.204 241.944C162.151 241.509 161.989 241.094 161.731 240.739C161.473 240.385 161.129 240.102 160.732 239.917C160.149 239.598 159.502 239.415 158.839 239.379C158.176 239.343 157.513 239.457 156.9 239.711C156.22 239.947 155.633 240.394 155.223 240.986C154.813 241.578 154.602 242.284 154.62 243.004C154.598 245.164 154.538 247.324 154.712 249.489C154.848 251.191 154.753 252.911 154.758 254.624C154.763 255.923 155.222 256.429 156.527 256.545C156.785 256.566 157.044 256.565 157.302 256.543C159.167 256.333 161.054 256.621 162.773 257.376C163.759 257.785 164.62 258.448 165.268 259.297C165.916 260.145 166.328 261.15 166.463 262.209C166.827 264.571 167.147 266.934 167.279 269.313C167.596 272.727 167.312 276.171 166.44 279.487C166.069 280.692 165.478 281.818 164.697 282.808C164.006 283.719 163.024 284.366 161.914 284.642C159.22 285.374 156.38 285.373 153.687 284.637C152.714 284.379 151.807 283.918 151.025 283.284C150.243 282.65 149.605 281.857 149.152 280.957C148.993 280.641 148.917 280.289 148.931 279.935C148.999 275.478 148.718 271.026 148.737 266.569C148.755 262.304 148.705 258.039 148.735 253.775C148.756 250.867 148.451 247.968 148.541 245.061Z" fill="#DCCDB3"/>
<path d="M149.548 42.609C149.548 42.7706 149.548 42.9321 149.548 43.0937C149.562 52.3661 149.767 61.6367 149.795 70.9095C149.806 74.5882 149.853 78.2694 149.935 81.953C149.948 82.5345 149.948 83.1164 149.946 83.6981C149.941 84.7397 149.937 84.7755 148.941 84.7293C147.168 84.6472 145.396 84.5185 143.619 84.5552C143.12 84.5655 142.932 84.3612 142.933 83.867C142.936 82.2513 142.955 80.6338 142.892 79.0199C142.648 72.7868 142.905 66.5479 142.696 60.3172C142.481 53.9211 142.694 47.5239 142.506 41.1309C142.432 38.6453 142.384 36.1612 142.375 33.6754C142.374 33.4492 142.378 33.223 142.381 32.9968C142.373 32.9156 142.383 32.8336 142.41 32.7569C142.438 32.6801 142.483 32.6106 142.541 32.5536C142.599 32.4965 142.67 32.4533 142.747 32.4273C142.824 32.4012 142.907 32.3929 142.988 32.4031C143.117 32.4003 143.246 32.3955 143.375 32.3944C145.023 32.3802 146.672 32.3614 148.32 32.3547C149.404 32.3503 149.486 32.4202 149.497 33.4957C149.521 35.887 149.526 38.2785 149.537 40.67C149.54 41.3163 149.538 41.9627 149.538 42.609L149.548 42.609Z" fill="#DCCDB3"/>
<path d="M162.716 270.768C162.716 272.512 162.722 274.255 162.714 275.999C162.731 277.011 162.353 277.989 161.659 278.726C160.237 280.259 158.498 280.101 156.723 279.655C156.103 279.524 155.53 279.225 155.069 278.789C154.608 278.353 154.276 277.799 154.11 277.187C154.028 276.876 153.992 276.554 154.006 276.232C154.01 273.681 153.966 271.128 154.042 268.58C154.079 267.324 154.16 266.067 154.17 264.811C154.179 264.011 154.47 263.24 154.993 262.635C155.516 262.03 156.236 261.629 157.026 261.504C158.075 261.286 159.162 261.337 160.185 261.655C160.561 261.759 160.911 261.939 161.214 262.183C161.517 262.427 161.767 262.731 161.948 263.076C162.446 263.872 162.707 264.793 162.699 265.732C162.631 266.566 162.689 267.41 162.69 268.249C162.691 269.089 162.69 269.928 162.69 270.768H162.716Z" fill="#5E4F47"/>
<path d="M160.543 270.744C160.543 272.069 160.548 273.395 160.539 274.72C160.54 275.172 160.516 275.623 160.469 276.073C160.331 277.305 159.817 277.745 158.557 277.734C158.331 277.734 158.105 277.72 157.88 277.692C156.635 277.527 156.262 277.112 156.265 275.865C156.273 272.407 156.286 268.949 156.304 265.49C156.312 264.075 156.831 263.564 158.243 263.572C158.565 263.578 158.886 263.611 159.203 263.67C159.461 263.705 159.703 263.819 159.894 263.996C160.086 264.173 160.218 264.404 160.273 264.659C160.431 265.219 160.51 265.799 160.509 266.381C160.504 267.836 160.507 269.29 160.507 270.744H160.543Z" fill="#F5EAD0"/>
</g>
<g style="mix-blend-mode:hue">
<rect width="320" height="320" fill="#00BF13"/>
</g>
</g>
<defs>
<clipPath id="clip0_1444_355">
<rect width="320" height="320" fill="white"/>
</clipPath>
<clipPath id="clip1_1444_355">
<rect width="320" height="320" fill="white"/>
</clipPath>
</defs>
</svg>
