<svg width="320" height="320" viewBox="0 0 320 320" fill="none" xmlns="http://www.w3.org/2000/svg">
<g clip-path="url(#clip0_1444_444)">
<rect width="320" height="320" fill="#DCFFE0"/>
<g clip-path="url(#clip1_1444_444)">
<rect x="63" y="135" width="194" height="49" fill="#DCCDB3"/>
<path fill-rule="evenodd" clip-rule="evenodd" d="M73.0669 128H246.933C251.721 128.011 256.31 129.918 259.696 133.304C263.082 136.69 264.989 141.279 265 146.067V173.443C265 175.815 264.531 178.163 263.621 180.353C262.711 182.544 261.377 184.533 259.696 186.206H259.679C258.008 187.886 256.022 189.219 253.835 190.129C251.648 191.039 249.302 191.508 246.933 191.51H73.0669C70.6979 191.508 68.3524 191.039 66.1652 190.129C63.9779 189.219 61.9919 187.886 60.3209 186.206L60.304 186.189C58.6245 184.518 57.2915 182.532 56.3813 180.345C55.4711 178.157 55.0017 175.812 55 173.443V146.067C55.0017 143.698 55.4712 141.352 56.3813 139.165C57.2915 136.978 58.6245 134.992 60.304 133.321V133.304C61.9775 131.623 63.9664 130.29 66.1566 129.379C68.3468 128.469 70.6951 128 73.0669 128ZM246.933 136.761H73.0669C71.8456 136.762 70.6366 137.004 69.5092 137.474C68.3818 137.943 67.3581 138.631 66.4969 139.497L66.4889 139.489C65.6242 140.352 64.9382 141.378 64.47 142.506C64.0019 143.635 63.7608 144.845 63.7605 146.067V173.443C63.7629 175.91 64.7441 178.276 66.4889 180.021C68.2337 181.766 70.5994 182.747 73.0669 182.75H246.933C248.155 182.749 249.365 182.508 250.494 182.04C251.622 181.572 252.648 180.886 253.511 180.021L253.503 180.013C254.369 179.152 255.057 178.128 255.526 177.001C255.996 175.873 256.238 174.664 256.239 173.443V146.067C256.23 143.602 255.246 141.24 253.503 139.497C251.76 137.754 249.398 136.77 246.933 136.761Z" fill="#3C1F1B"/>
<path d="M78.5859 169V167.197L84.1649 161.416C84.7606 160.789 85.2517 160.238 85.6381 159.766C86.0299 159.289 86.3224 158.835 86.5156 158.406C86.7088 157.976 86.8054 157.52 86.8054 157.037C86.8054 156.49 86.6766 156.017 86.419 155.62C86.1614 155.218 85.8098 154.909 85.3644 154.694C84.9189 154.474 84.4171 154.364 83.859 154.364C83.2686 154.364 82.7534 154.485 82.3133 154.727C81.8732 154.968 81.5351 155.309 81.2989 155.749C81.0628 156.189 80.9447 156.704 80.9447 157.295H78.5698C78.5698 156.291 78.8006 155.414 79.2622 154.662C79.7237 153.911 80.357 153.329 81.1621 152.915C81.9671 152.497 82.8822 152.287 83.9073 152.287C84.9431 152.287 85.8555 152.494 86.6444 152.907C87.4387 153.315 88.0586 153.873 88.5041 154.582C88.9495 155.285 89.1722 156.079 89.1722 156.965C89.1722 157.576 89.0569 158.175 88.8261 158.76C88.6007 159.345 88.2062 159.997 87.6427 160.716C87.0791 161.43 86.2956 162.297 85.2919 163.316L82.0154 166.746V166.867H89.4379V169H78.5859ZM98.229 169.274C96.957 169.268 95.8702 168.933 94.9686 168.267C94.0669 167.602 93.3773 166.633 92.8996 165.361C92.4219 164.089 92.1831 162.557 92.1831 160.764C92.1831 158.977 92.4219 157.45 92.8996 156.184C93.3826 154.917 94.075 153.951 94.9766 153.286C95.8836 152.62 96.9677 152.287 98.229 152.287C99.4902 152.287 100.572 152.623 101.473 153.294C102.375 153.959 103.065 154.925 103.542 156.192C104.025 157.453 104.267 158.977 104.267 160.764C104.267 162.562 104.028 164.097 103.55 165.369C103.073 166.636 102.383 167.605 101.481 168.275C100.58 168.941 99.4956 169.274 98.229 169.274ZM98.229 167.124C99.3453 167.124 100.217 166.58 100.845 165.49C101.479 164.401 101.795 162.825 101.795 160.764C101.795 159.396 101.65 158.239 101.361 157.295C101.076 156.345 100.666 155.626 100.129 155.137C99.5975 154.643 98.9642 154.397 98.229 154.397C97.118 154.397 96.2459 154.944 95.6126 156.039C94.9793 157.134 94.66 158.709 94.6546 160.764C94.6546 162.138 94.7968 163.3 95.0813 164.25C95.3711 165.195 95.7816 165.911 96.313 166.4C96.8443 166.883 97.483 167.124 98.229 167.124ZM113.378 152.513V169H110.882V155.008H110.786L106.841 157.584V155.202L110.955 152.513H113.378ZM123.32 152.287C124.055 152.293 124.78 152.427 125.494 152.69C126.208 152.953 126.852 153.382 127.426 153.978C128.005 154.574 128.467 155.379 128.811 156.393C129.159 157.402 129.336 158.658 129.342 160.161C129.342 161.604 129.197 162.89 128.907 164.017C128.617 165.138 128.201 166.086 127.659 166.859C127.123 167.631 126.471 168.219 125.703 168.622C124.936 169.024 124.072 169.225 123.111 169.225C122.129 169.225 121.257 169.032 120.494 168.646C119.732 168.259 119.112 167.725 118.635 167.044C118.157 166.357 117.859 165.568 117.741 164.677H120.197C120.358 165.385 120.685 165.96 121.179 166.4C121.678 166.834 122.322 167.052 123.111 167.052C124.318 167.052 125.26 166.526 125.937 165.474C126.613 164.417 126.954 162.941 126.959 161.046H126.83C126.551 161.508 126.202 161.905 125.784 162.238C125.37 162.57 124.906 162.828 124.391 163.01C123.876 163.193 123.326 163.284 122.741 163.284C121.791 163.284 120.926 163.051 120.148 162.584C119.37 162.117 118.75 161.476 118.289 160.66C117.827 159.844 117.596 158.913 117.596 157.866C117.596 156.825 117.832 155.88 118.305 155.033C118.782 154.185 119.448 153.514 120.301 153.02C121.16 152.521 122.166 152.277 123.32 152.287ZM123.328 154.38C122.7 154.38 122.134 154.536 121.63 154.847C121.13 155.153 120.736 155.569 120.446 156.095C120.156 156.616 120.011 157.195 120.011 157.834C120.011 158.473 120.151 159.052 120.43 159.573C120.714 160.088 121.101 160.499 121.589 160.805C122.083 161.105 122.647 161.255 123.28 161.255C123.752 161.255 124.192 161.164 124.6 160.982C125.008 160.799 125.365 160.547 125.671 160.225C125.977 159.898 126.216 159.527 126.387 159.114C126.559 158.701 126.645 158.266 126.645 157.81C126.645 157.203 126.5 156.64 126.21 156.119C125.926 155.599 125.534 155.18 125.035 154.863C124.536 154.541 123.967 154.38 123.328 154.38ZM132.25 169V167.197L137.829 161.416C138.425 160.789 138.916 160.238 139.302 159.766C139.694 159.289 139.987 158.835 140.18 158.406C140.373 157.976 140.47 157.52 140.47 157.037C140.47 156.49 140.341 156.017 140.083 155.62C139.826 155.218 139.474 154.909 139.029 154.694C138.583 154.474 138.081 154.364 137.523 154.364C136.933 154.364 136.418 154.485 135.977 154.727C135.537 154.968 135.199 155.309 134.963 155.749C134.727 156.189 134.609 156.704 134.609 157.295H132.234C132.234 156.291 132.465 155.414 132.926 154.662C133.388 153.911 134.021 153.329 134.826 152.915C135.631 152.497 136.546 152.287 137.571 152.287C138.607 152.287 139.52 152.494 140.309 152.907C141.103 153.315 141.723 153.873 142.168 154.582C142.614 155.285 142.836 156.079 142.836 156.965C142.836 157.576 142.721 158.175 142.49 158.76C142.265 159.345 141.87 159.997 141.307 160.716C140.743 161.43 139.96 162.297 138.956 163.316L135.68 166.746V166.867H143.102V169H132.25ZM184.107 152.513L188.052 158.961H188.18L192.125 152.513H195.007L189.871 160.756L195.039 169H192.141L188.18 162.64H188.052L184.091 169H181.193L186.45 160.756L181.225 152.513H184.107ZM199.205 152.513L203.15 158.961H203.279L207.224 152.513H210.106L204.97 160.756L210.138 169H207.24L203.279 162.64H203.15L199.189 169H196.291L201.548 160.756L196.323 152.513H199.205ZM214.304 152.513L218.249 158.961H218.378L222.322 152.513H225.204L220.068 160.756L225.237 169H222.338L218.378 162.64H218.249L214.288 169H211.39L216.647 160.756L211.422 152.513H214.304ZM226.4 152.513H229.226L233.532 160.008H233.71L238.017 152.513H240.842L234.861 162.527V169H232.381V162.527L226.4 152.513Z" fill="#3C1F1B"/>
</g>
<g style="mix-blend-mode:hue">
<rect width="320" height="320" fill="#00BF13"/>
</g>
</g>
<defs>
<clipPath id="clip0_1444_444">
<rect width="320" height="320" fill="white"/>
</clipPath>
<clipPath id="clip1_1444_444">
<rect width="210" height="63.5101" fill="white" transform="translate(55 128)"/>
</clipPath>
</defs>
</svg>
