<svg width="320" height="320" viewBox="0 0 320 320" fill="none" xmlns="http://www.w3.org/2000/svg">
<g clip-path="url(#clip0_1425_10450)">
<rect width="320" height="320" fill="#F2F2EA"/>
<g clip-path="url(#clip1_1425_10450)">
<ellipse cx="43" cy="272.5" rx="341" ry="225.5" fill="#DCCDB3"/>
<path d="M0 173.124V144.054C0.329467 143.738 0.764068 143.554 1.22055 143.538C5.72504 142.854 10.2457 142.297 14.7754 141.811C19.2372 141.331 23.7115 140.988 28.1881 140.702C29.8602 140.595 31.5408 140.527 33.2155 140.434C37.09 140.22 40.9673 140.346 44.8404 140.235C48.8757 140.12 52.9128 140.184 56.938 140.311C62.8693 140.5 68.7969 140.87 74.716 141.38C86.2195 142.372 97.6413 143.938 108.981 146.078C119.6 148.063 130.102 150.54 140.487 153.508C156.37 158.048 171.929 163.653 187.058 170.285C194.699 173.633 202.197 177.276 209.592 181.122C219.286 186.163 228.716 191.664 237.883 197.623C248.386 204.412 258.516 211.762 268.229 219.642C272.869 223.408 277.383 227.32 281.833 231.312C287.295 236.212 292.564 241.308 297.639 246.6C305.289 254.526 312.498 262.864 319.236 271.579C319.565 272.054 319.822 272.574 320 273.124V294.635C319.36 294.638 319.165 294.088 318.89 293.687C314.743 287.633 310.308 281.795 305.662 276.117C301.878 271.492 297.946 266.996 293.866 262.628C291.439 260.033 289.018 257.429 286.492 254.938C277.192 245.734 267.334 237.11 256.974 229.117C244.259 219.351 230.854 210.515 216.865 202.68C204.43 195.714 191.572 189.53 178.367 184.165C170.941 181.142 163.433 178.342 155.816 175.843C140.062 170.658 123.961 166.593 107.634 163.677C99.1666 162.171 90.6561 160.981 82.1026 160.107C77.6722 159.65 73.2246 159.369 68.7806 159.049C59.1001 158.353 49.409 158.447 39.7218 158.555C35.438 158.603 31.1489 158.923 26.8657 159.229C18.9981 159.791 11.1713 160.673 3.36975 161.81C2.72674 161.876 2.09017 161.994 1.46634 162.164C1.35017 162.201 1.21768 162.249 1.20916 162.434C1.46184 162.729 1.79733 162.583 2.08927 162.539C7.42527 161.735 12.7746 161.028 18.1444 160.5C21.87 160.133 25.6078 159.893 29.3412 159.609C38.8583 158.885 48.3882 159.022 57.9142 159.096C61.4887 159.124 65.0705 159.354 68.6466 159.584C71.771 159.786 74.8966 159.987 78.0133 160.264C82.2589 160.641 86.5004 161.083 90.729 161.631C99.482 162.766 108.187 164.194 116.829 165.988C128.728 168.461 140.493 171.542 152.077 175.221C163.115 178.724 173.949 182.768 184.578 187.353C191.406 190.29 198.152 193.411 204.763 196.81C215.69 202.415 226.317 208.587 236.598 215.303C248.006 222.779 258.929 230.97 269.302 239.825C273.062 243.029 276.706 246.365 280.312 249.747C283.754 252.976 287.108 256.291 290.373 259.692C299.073 268.718 307.141 278.333 314.518 288.469C316.034 290.562 317.536 292.664 318.997 294.796C319.43 295.398 319.768 296.063 320 296.767V320.41H319.224C318.823 320.199 318.495 319.87 318.285 319.469C313.736 312.063 308.808 304.897 303.52 297.999C299.201 292.354 294.675 286.878 289.943 281.571C286.026 277.188 282.033 272.875 277.842 268.755C270.446 261.485 262.744 254.551 254.674 248.028C246.702 241.585 238.452 235.521 229.924 229.838C221.388 224.169 212.61 218.898 203.589 214.027C191.424 207.443 178.885 201.574 166.035 196.452C155.427 192.24 144.641 188.541 133.678 185.355C123.709 182.458 113.635 179.999 103.455 177.978C94.1641 176.135 84.812 174.676 75.3985 173.602C70.4576 173.044 65.5098 172.573 60.5477 172.241C56.8767 171.996 53.2032 171.822 49.5295 171.636C46.7171 171.493 43.91 171.584 41.1033 171.481C39.5232 171.423 37.9478 171.215 36.363 171.299C31.4936 171.559 26.611 171.41 21.7456 171.71C14.8525 172.135 7.95314 172.508 1.09233 173.35C0.905591 173.403 0.708635 173.411 0.518373 173.371C0.328111 173.332 0.150229 173.247 0 173.124Z" fill="#3C1F1B"/>
<path d="M320 121.38V145.605C319.432 145.659 319.133 145.217 318.792 144.905C312.041 138.786 304.976 133.021 297.627 127.635C290.192 122.137 282.528 116.979 274.634 112.163C267 107.484 259.189 103.125 251.248 98.9877C240.521 93.3992 229.528 88.3975 218.361 83.7631C206.892 79.0031 195.218 74.8017 183.393 71.025C169.717 66.6572 155.864 62.9394 141.834 59.8715C129.864 57.2441 117.811 55.0848 105.676 53.3937C99.0829 52.4875 92.4758 51.7019 85.8444 51.1179C80.6025 50.6563 75.3594 50.2493 70.1043 49.9574C64.0413 49.6206 57.98 49.3341 51.9069 49.4195C50.6414 49.4373 49.3992 49.1261 48.1361 49.2187C44.3292 49.498 40.5111 49.2697 36.7065 49.4403C30.518 49.7178 24.3277 49.9749 18.1514 50.5217C12.4552 51.026 6.77197 51.6206 1.10271 52.3598C0.71859 52.4099 0.32994 52.4998 0 52.1941V41.729C0.150106 41.4445 0.316447 41.1688 0.4982 40.9033C5.67887 35.2883 8.01356 28.4291 9.16695 21.0576C9.35376 19.8636 9.44714 19.7866 10.6128 19.7146C12.7707 19.5814 14.9292 19.4459 17.0881 19.347C18.9466 19.2618 19.0003 19.3664 19.4567 21.141C20.5547 25.8119 22.6271 30.1982 25.5381 34.0125C28.4208 37.6629 31.9323 40.3869 36.6562 41.2241C40.4058 41.8261 44.2422 40.9376 47.3453 38.7484C51.1248 36.3167 53.6545 32.7931 55.727 28.8972C57.0493 26.4138 58.0582 23.7759 58.7303 21.0439C59.0709 19.6631 59.298 19.4565 60.7507 19.5399C63.0704 19.673 65.3898 19.8142 67.7088 19.9633C69.0265 20.0503 69.1057 20.2278 69.2971 21.5331C70.2298 27.8928 72.3033 33.7963 76.7871 38.5567C81.6986 43.771 88.4203 45.2745 95.0264 41.4971C100.243 38.514 103.473 33.8173 105.925 28.4971C106.385 27.5002 106.803 26.4837 107.164 25.4455C107.204 25.28 107.276 25.124 107.376 24.9867C107.477 24.8495 107.604 24.7339 107.75 24.6467C107.896 24.5594 108.059 24.5024 108.227 24.4789C108.396 24.4555 108.567 24.466 108.731 24.51C112.059 24.988 115.371 25.5568 118.686 26.1115C119.608 26.2658 119.748 26.8911 119.775 27.6668C119.817 29.8292 120.021 31.9856 120.383 34.1178C121.075 38.4133 122.87 42.4554 125.594 45.8482C127.491 48.2235 130.185 49.8303 133.177 50.3704C136.168 50.9105 139.254 50.3473 141.862 48.7853C145.731 46.4561 148.905 43.1337 151.056 39.1631C151.899 37.6735 152.644 36.1301 153.285 34.5428C153.707 33.5455 153.953 33.4134 154.999 33.6348C158.668 34.4117 162.281 35.419 165.905 36.3757C167.239 36.7279 167.378 37.0024 167.205 38.3883C166.477 43.3702 167.128 48.4562 169.085 53.0947C171.078 57.6681 174.35 60.7847 179.449 61.6357C181.865 61.9712 184.328 61.6448 186.573 60.6912C190.755 58.9863 194.41 56.2019 197.165 52.6225C198.243 51.2917 199.232 49.8917 200.127 48.4317C201.02 46.9922 201.149 46.9339 202.789 47.4883C205.605 48.4404 208.405 49.4393 211.209 50.4267C212.479 50.8739 212.595 51.113 212.376 52.4341C211.516 56.9558 211.683 61.6129 212.863 66.0618C213.689 69.4166 215.553 72.4249 218.19 74.6575C222.326 77.9959 226.945 78.1751 231.739 76.4263C235.848 74.8007 239.479 72.1637 242.297 68.7599C243.28 67.6451 244.202 66.4784 245.061 65.2649C245.675 64.4013 245.957 64.3397 246.949 64.7783C250.553 66.3728 254.136 68.0168 257.695 69.7102C257.844 69.7504 257.981 69.8229 258.098 69.9227C258.215 70.0224 258.309 70.1469 258.372 70.2871C258.435 70.4273 258.467 70.5798 258.464 70.7336C258.461 70.8873 258.424 71.0385 258.356 71.1764C257.351 73.9787 256.757 76.9119 256.593 79.8845C256.302 84.7836 257.053 89.4445 260.368 93.332C262.36 95.6796 265.197 97.1479 268.265 97.4191C272.354 97.7847 276.453 96.8256 279.956 94.6834C283.362 92.8087 286.405 90.3403 288.943 87.3947C289.037 87.2449 289.162 87.1162 289.308 87.0168C289.455 86.9173 289.621 86.8492 289.795 86.8167C289.969 86.7842 290.148 86.788 290.321 86.8279C290.493 86.8678 290.656 86.9429 290.798 87.0486C293.555 88.6087 296.243 90.2831 298.976 91.8818C299.728 92.3214 299.776 92.8304 299.468 93.5742C298.023 96.8994 297.105 100.429 296.745 104.036C296.311 109.169 296.79 114.127 300.073 118.405C301.234 119.929 302.726 121.17 304.436 122.034C306.146 122.899 308.03 123.364 309.945 123.395C312.962 123.497 315.962 122.913 318.72 121.687C319.124 121.52 319.51 121.212 320 121.38Z" fill="#4A2B26"/>
<path d="M0 187.853V174.481C0.88294 173.782 1.97257 173.931 2.97528 173.82C7.14536 173.355 11.3238 172.975 15.5106 172.68C18.277 172.482 21.051 172.358 23.8234 172.234C30.9279 171.916 38.0371 171.999 45.1423 172.078C48.9768 172.12 52.8149 172.338 56.6489 172.573C59.774 172.765 62.8973 172.982 66.0147 173.249C70.5182 173.635 75.0116 174.136 79.4983 174.699C88.1926 175.791 96.8302 177.218 105.411 178.983C117.475 181.454 129.403 184.546 141.148 188.247C154.098 192.318 166.803 197.13 179.201 202.66C191.359 208.084 203.197 214.2 214.655 220.978C228.933 229.41 242.554 238.909 255.4 249.393C260.301 253.401 265.075 257.556 269.721 261.857C273.366 265.243 276.991 268.649 280.441 272.231C284.516 276.463 288.516 280.766 292.356 285.218C298.014 291.779 303.364 298.58 308.404 305.622C311.572 310.069 314.589 314.616 317.456 319.264C317.669 319.607 317.978 319.958 317.673 320.41H299.636C299.235 320.199 298.907 319.871 298.697 319.469C292.516 309.421 285.588 299.854 277.97 290.848C274.994 287.317 271.886 283.903 268.735 280.525C266.066 277.665 263.305 274.9 260.505 272.175C254.578 266.406 248.364 260.957 241.935 255.747C231.342 247.205 220.171 239.405 208.504 232.402C202.916 229.028 197.204 225.874 191.414 222.852C181.835 217.877 172.01 213.39 161.978 209.408C149.815 204.563 137.375 200.447 124.723 197.082C113.879 194.187 102.919 191.835 91.8431 190.026C84.6988 188.854 77.523 187.926 70.3155 187.24C66.6543 186.888 62.9837 186.623 59.3111 186.384C54.2831 186.055 49.2539 185.908 44.2183 185.781C41.4419 185.711 38.6589 185.55 35.891 185.673C31.2481 185.879 26.6001 185.862 21.9578 186.163C17.9641 186.421 13.9709 186.681 9.98319 187.012C7.28019 187.237 4.58788 187.581 1.89111 187.874C1.27533 188.074 0.61101 188.067 0 187.853Z" fill="#3C1F1B"/>
<path d="M0 95.0234V63.0467C0.137316 62.8881 0.307556 62.7612 0.498872 62.6751C0.690187 62.5889 0.897984 62.5454 1.1078 62.5477C5.7898 62.0035 10.48 61.5431 15.1783 61.1664C20.583 60.7321 25.9936 60.4443 31.4093 60.1809C38.7697 59.8229 46.1304 59.722 53.4915 59.8781C58.5837 59.9915 63.6804 60.1821 68.7683 60.564C73.3732 60.9096 77.9708 61.3223 82.5609 61.802C82.7861 61.8257 83.0088 61.865 83.2311 61.9072C85.5602 62.3501 86.4442 64.3913 85.1671 66.4337C84.5676 67.3925 83.8385 68.2624 83.159 69.1655C72.1092 83.8516 61.0915 98.5616 50.1057 113.296C45.5734 119.344 41.0425 125.393 36.5131 131.444C36.249 131.85 35.8907 132.187 35.4686 132.425C35.0466 132.663 34.5732 132.796 34.0888 132.812C33.6045 132.827 33.1234 132.726 32.6867 132.516C32.2499 132.306 31.8703 131.994 31.5802 131.606C27.448 126.855 23.3222 122.098 19.2026 117.337C14.3492 111.759 9.50601 106.172 4.673 100.576C3.088 98.7501 1.402 97.0047 0 95.0234Z" fill="white"/>
<path d="M320 121.38C318.121 122.393 316.087 123.089 313.981 123.44C311.626 123.907 309.197 123.842 306.871 123.251C305.158 122.817 303.552 122.038 302.151 120.962C300.749 119.885 299.582 118.534 298.721 116.992C297.555 114.971 296.813 112.735 296.54 110.418C295.891 104.581 296.825 98.6773 299.244 93.3256C299.543 92.6086 299.56 92.6001 298.933 92.2273C296.157 90.5763 293.378 88.9305 290.596 87.2896C289.862 86.8569 289.843 86.8614 289.267 87.5183C287.045 90.045 284.475 92.2434 281.635 94.0477C278.856 95.899 275.711 97.1289 272.413 97.6532C270.486 98.0239 268.501 97.9616 266.601 97.4708C264.701 96.9801 262.934 96.0731 261.428 94.8156C259.223 92.8854 257.67 90.3209 256.98 87.4734C256.076 83.9288 255.967 80.2284 256.661 76.6368C256.974 74.6609 257.474 72.7191 258.154 70.8375C258.303 70.4403 258.198 70.257 257.839 70.0929C254.049 68.3632 250.259 66.6344 246.483 64.8751C245.96 64.6315 245.711 64.8363 245.453 65.213C244.578 66.493 243.625 67.7186 242.602 68.8829C239.755 72.3003 236.116 74.969 232.001 76.656C228.876 77.9796 225.386 78.1652 222.138 77.1805C218.753 76.0517 215.95 73.6333 214.337 70.4502C212.91 67.8361 212.033 64.9577 211.759 61.992C211.393 58.6846 211.52 55.3412 212.136 52.0713C212.313 51.1503 212.305 51.1398 211.441 50.8373C208.302 49.7387 205.161 48.6441 202.019 47.5536C201.195 47.2676 201.179 47.2736 200.737 48.019C199.036 50.9591 196.921 53.6397 194.457 55.9784C192.157 58.2156 189.421 59.9558 186.419 61.0909C184.604 61.8379 182.646 62.1714 180.686 62.067C178.726 61.9626 176.814 61.4231 175.088 60.4875C172.203 58.8282 169.97 56.2352 168.756 53.1362C167.598 50.363 166.915 47.415 166.736 44.4153C166.608 42.2914 166.68 40.1602 166.95 38.0496C166.968 37.8893 166.959 37.7253 166.986 37.5667C167.057 37.1347 166.886 36.9379 166.452 36.8282C164.324 36.2904 162.208 35.7064 160.081 35.1646C158.393 34.7344 156.695 34.3406 155.001 33.9326C153.967 33.6836 153.954 33.6803 153.543 34.7022C152.583 37.1377 151.352 39.4576 149.874 41.618C147.917 44.6026 145.304 47.1 142.233 48.9188C140.555 49.9693 138.657 50.6188 136.687 50.8168C134.717 51.0149 132.728 50.7562 130.874 50.0608C128.271 49.0287 126.036 47.2405 124.458 44.9267C122.166 41.664 120.658 37.9165 120.052 33.9758C119.683 31.7807 119.496 29.5588 119.493 27.3329C119.489 26.5459 119.476 26.5469 118.7 26.4188C115.358 25.8665 112.016 25.318 108.669 24.7953C107.659 24.6375 107.696 24.8758 107.445 25.5663C106.835 27.2683 106.113 28.9283 105.285 30.5357C103.778 33.546 101.778 36.2831 99.3679 38.6341C97.0532 40.9612 94.1605 42.6297 90.9871 43.468C89.1647 43.9302 87.2669 44.0145 85.4107 43.7155C83.5545 43.4165 81.7791 42.7407 80.194 41.7296C77.0204 39.6961 74.4548 36.8433 72.7681 33.4725C70.7963 29.6866 69.4951 25.5877 68.9225 21.3576C68.876 21.0562 69 20.7875 68.963 20.4526C68.5622 20.3894 68.1546 20.2912 67.7425 20.2657C65.2615 20.1125 62.7801 19.9639 60.2976 19.84C59.3648 19.7934 59.3448 19.821 59.1335 20.708C58.1267 24.9264 56.3611 28.9265 53.9228 32.513C52.2026 35.1849 49.9305 37.4578 47.2593 39.179C44.6266 40.9231 41.5188 41.81 38.3622 41.7183C35.1456 41.5414 32.0608 40.3817 29.5242 38.396C26.7034 36.2147 24.3804 33.4567 22.7105 30.3062C21.0467 27.2739 19.8026 24.0297 19.0123 20.6625C18.9541 20.478 18.9085 20.2897 18.8758 20.099C18.832 19.6725 18.5785 19.597 18.2048 19.6161C17.5273 19.6508 16.847 19.6333 16.1699 19.6717C14.2364 19.7813 12.3043 19.9123 10.371 20.0259C9.59288 20.0716 9.61925 20.0649 9.51004 20.823C8.5098 27.7698 6.31243 34.2428 1.89973 39.8226C1.39257 40.5723 0.747961 41.2192 0 41.729L0 39.9848C1.75727 37.7128 3.28853 35.2746 4.572 32.705C6.22006 29.1564 7.33973 25.3856 7.89537 21.5126C8.02412 20.6362 7.87237 20.4615 6.97092 20.564C5.07814 20.7793 3.17073 20.8143 1.28067 21.0556C1.06219 21.118 0.831962 21.1272 0.609183 21.0826C0.386405 21.0379 0.177536 20.9406 0 20.7988L0 19.636C11.5597 18.5525 23.1466 18.0511 34.7551 18.0037C42.3841 17.9725 50.0091 18.1327 57.63 18.4842C62.3692 18.6988 67.1011 19.0253 71.8318 19.3782C75.8275 19.6763 79.8181 20.029 83.8037 20.4364C88.0459 20.8668 92.2821 21.3527 96.5123 21.8942C100.773 22.4411 105.028 23.0354 109.275 23.677C114.833 24.5136 120.375 25.444 125.9 26.4682C137.494 28.6092 149.007 31.1249 160.438 34.0154C182.676 39.622 204.539 46.6267 225.894 54.9876C248.024 63.6085 269.491 73.8438 290.121 85.611C299.992 91.2695 309.612 97.3271 318.98 103.784C319.325 104.022 319.66 104.274 320 104.52V105.876C319.364 106.074 318.963 105.607 318.534 105.31C315.269 103.045 311.97 100.83 308.638 98.6644C306.366 97.1797 304.066 95.7387 301.761 94.3063C300.805 93.7126 300.702 93.7529 300.299 94.7658C298.439 99.1212 297.593 103.842 297.824 108.572C297.899 111.994 299.084 115.299 301.2 117.989C302.259 119.281 303.585 120.33 305.087 121.063C306.588 121.797 308.23 122.198 309.9 122.239C312.951 122.348 315.982 121.722 318.741 120.416C319.133 120.24 319.52 119.895 320 120.217V121.38Z" fill="#5D4E47"/>
<path d="M320 120.217C318.735 120.698 317.524 121.312 316.223 121.704C313.394 122.656 310.36 122.825 307.442 122.193C305.493 121.754 303.686 120.832 302.187 119.512C300.688 118.192 299.544 116.517 298.861 114.639C297.551 111.186 297.134 107.457 297.651 103.8C298.076 100.439 298.954 97.1503 300.261 94.0245C300.568 93.2462 300.595 93.2461 301.352 93.7097C307.41 97.4209 313.334 101.337 319.174 105.381C319.421 105.589 319.7 105.756 320 105.876V120.217Z" fill="#3C1F1B"/>
<path d="M317.673 320.41C317.394 319.619 316.982 318.882 316.454 318.231C312.163 311.392 307.567 304.764 302.666 298.347C299.552 294.269 296.324 290.284 292.981 286.391C290.546 283.549 288.05 280.758 285.493 278.021C282.128 274.401 278.709 270.835 275.154 267.402C271.95 264.308 268.687 261.275 265.367 258.304C260.219 253.695 254.899 249.294 249.465 245.031C244.64 241.246 239.682 237.637 234.64 234.143C228.453 229.857 222.13 225.784 215.671 221.922C211.626 219.502 207.52 217.187 203.379 214.931C199.947 213.061 196.483 211.254 192.987 209.509C185.555 205.814 178.017 202.347 170.338 199.188C164.187 196.658 157.974 194.288 151.701 192.081C142.986 189.025 134.165 186.315 125.239 183.952C117.257 181.83 109.211 179.99 101.101 178.434C97.1783 177.678 93.2448 176.967 89.2877 176.4C86.864 176.052 84.4493 175.64 82.0231 175.313C79.6606 174.994 77.2891 174.741 74.9204 174.469C72.7439 174.22 70.5675 173.968 68.3878 173.749C66.7205 173.582 65.0489 173.453 63.3777 173.327C60.806 173.132 58.2331 172.955 55.6606 172.77C55.5639 172.763 55.467 172.755 55.3702 172.755C52.8831 172.76 50.4003 172.59 47.9185 172.486C41.8452 172.231 35.7729 172.325 29.7008 172.373C26.6053 172.397 23.5108 172.595 20.4165 172.728C17.6787 172.846 14.944 173.003 12.216 173.283C10.3246 173.477 8.42172 173.559 6.52926 173.745C4.3498 173.96 2.17616 174.233 0 174.481V173.124C1.53919 172.972 3.07838 172.82 4.61757 172.668C6.67146 172.466 8.72476 172.264 10.7856 172.133C13.133 171.984 15.4759 171.766 17.8229 171.609C19.0775 171.525 20.3373 171.468 21.5911 171.426C25.0111 171.311 28.4304 171.069 31.8551 171.171C33.0542 171.206 34.2389 171.008 35.4333 171.024C39.5994 171.081 43.7662 171.114 47.9311 171.219C50.7036 171.288 53.4749 171.438 56.2439 171.6C58.9787 171.76 61.7132 171.944 64.4419 172.184C67.4579 172.449 70.4656 172.809 73.4801 173.093C77.3307 173.457 81.1643 173.963 84.9897 174.516C89.517 175.17 94.0293 175.922 98.5321 176.74C106.912 178.262 115.223 180.092 123.463 182.231C128.713 183.583 133.927 185.06 139.107 186.662C143.765 188.099 148.398 189.611 152.993 191.238C159.385 193.501 165.708 195.94 171.965 198.553C181.156 202.377 190.138 206.644 198.973 211.219C204.078 213.863 209.092 216.671 214.052 219.577C220.073 223.103 225.977 226.813 231.764 230.707C238.643 235.347 245.339 240.239 251.85 245.385C255.391 248.192 258.877 251.064 262.31 253.999C264.414 255.807 266.488 257.651 268.532 259.532C270.815 261.628 273.051 263.774 275.307 265.898C277.26 267.737 279.168 269.619 281.031 271.545C284.444 275.07 287.814 278.637 291.054 282.322C296.659 288.698 302.006 295.286 307.012 302.143C311.22 307.906 315.222 313.809 318.909 319.922C319.009 320.088 319.119 320.248 319.224 320.41L317.673 320.41Z" fill="#5D4E47"/>
<path d="M320 273.124C317.026 269.184 313.922 265.35 310.727 261.587C307.803 258.143 304.811 254.759 301.751 251.436C297.715 247.026 293.501 242.792 289.22 238.626C285.566 235.069 281.793 231.638 277.962 228.27C272.338 223.326 266.553 218.577 260.61 214.024C255.825 210.342 250.934 206.809 245.968 203.378C238.872 198.476 231.582 193.881 224.143 189.52C220.718 187.511 217.247 185.583 213.759 183.683C208.594 180.871 203.337 178.243 198.049 175.676C192.268 172.871 186.39 170.281 180.459 167.806C170.95 163.838 161.288 160.287 151.474 157.152C145.144 155.123 138.761 153.275 132.325 151.608C125.084 149.721 117.786 148.085 110.442 146.653C106.553 145.895 102.65 145.199 98.7291 144.618C95.3197 144.112 91.9139 143.578 88.4972 143.126C85.9426 142.788 83.3695 142.593 80.8114 142.278C77.644 141.888 74.4592 141.695 71.2859 141.372C69.9718 141.239 68.6464 141.218 67.3265 141.139C64.3639 140.962 61.3981 140.846 58.4348 140.698C55.3663 140.545 52.3007 140.603 49.2346 140.532C45.2007 140.439 41.1673 140.534 37.1349 140.594C34.1687 140.638 31.2031 140.815 28.2404 140.986C25.6664 141.134 23.0916 141.305 20.5266 141.56C17.6422 141.848 14.7556 142.114 11.8747 142.447C8.64143 142.821 5.41987 143.275 2.19225 143.687C1.45781 143.78 0.73056 143.93 0 144.054V142.892C1.57744 142.558 3.17129 142.306 4.775 142.139C8.45346 141.662 12.1351 141.204 15.8231 140.809C18.4848 140.523 21.1575 140.336 23.8274 140.134C27.5608 139.85 31.2988 139.655 35.0412 139.513C37.5273 139.419 40.0125 139.369 42.4992 139.337C44.2756 139.314 46.0522 139.236 47.8281 139.253C50.9615 139.282 54.0962 139.318 57.2272 139.436C61.0973 139.582 64.9687 139.75 68.8312 140.026C73.2065 140.338 77.5765 140.723 81.9412 141.181C87.1703 141.729 92.3827 142.421 97.5803 143.226C106.32 144.579 114.996 146.254 123.61 148.251C133.703 150.596 143.676 153.372 153.529 156.579C167.645 161.17 181.468 166.617 194.922 172.889C209.499 179.678 223.605 187.434 237.147 196.105C249.392 203.936 261.129 212.535 272.287 221.849C278.807 227.297 285.109 232.986 291.194 238.915C301.22 248.665 310.572 259.086 319.184 270.106C319.462 270.461 319.728 270.826 320 271.186L320 273.124Z" fill="#5D4E47"/>
<path d="M320 296.767C318.634 294.812 317.285 292.846 315.899 290.906C312.88 286.677 309.744 282.536 306.491 278.484C303.564 274.831 300.526 271.275 297.429 267.768C295.699 265.808 293.876 263.931 292.113 262C289.432 259.064 286.593 256.285 283.766 253.493C279.837 249.613 275.754 245.9 271.609 242.251C264.796 236.255 257.698 230.616 250.398 225.23C247.333 222.969 244.207 220.791 241.06 218.644C234.708 214.311 228.199 210.23 221.566 206.345C217.945 204.224 214.279 202.181 210.568 200.214C207.284 198.478 204.003 196.736 200.664 195.108C194.075 191.895 187.417 188.833 180.643 186.024C173.991 183.265 167.266 180.701 160.466 178.332C152.537 175.572 144.509 173.142 136.404 170.956C128.18 168.738 119.884 166.834 111.517 165.242C107.118 164.401 102.702 163.655 98.2677 163.002C94.665 162.473 91.0576 161.983 87.4454 161.532C84.6638 161.189 81.8678 160.96 79.0762 160.702C76.2843 160.444 73.4917 160.191 70.6962 159.977C69.1205 159.856 67.5372 159.839 65.9596 159.739C59.0565 159.299 52.1451 159.315 45.2334 159.34C43.3912 159.347 41.5478 159.329 39.7072 159.39C36.7405 159.487 33.7741 159.612 30.8106 159.78C28.1394 159.932 25.4683 160.112 22.8046 160.36C19.0829 160.705 15.3626 161.079 11.652 161.526C8.32571 161.926 5.01329 162.442 1.69469 162.907C1.50962 162.956 1.31845 162.977 1.12721 162.97C0.996691 162.956 0.874936 162.897 0.781729 162.805C0.688523 162.712 0.629344 162.591 0.61381 162.461C0.602333 162.396 0.604288 162.33 0.619552 162.266C0.634816 162.202 0.663062 162.143 0.702523 162.09C0.741984 162.038 0.791812 161.994 0.84889 161.962C0.905969 161.93 0.969071 161.91 1.03425 161.903C1.72825 161.76 2.42371 161.614 3.12525 161.518C6.44319 161.06 9.75992 160.591 13.0839 160.182C15.226 159.918 17.3791 159.741 19.5287 159.542C22.2551 159.289 24.9801 159.009 27.7115 158.828C28.9653 158.746 30.2211 158.659 31.4774 158.599C34.0222 158.478 36.5664 158.337 39.112 158.238C40.4356 158.186 41.7619 158.195 43.0869 158.196C48.1934 158.199 53.3005 158.166 58.4062 158.235C61.4692 158.276 64.5324 158.442 67.5909 158.628C69.4886 158.743 71.3861 158.869 73.2832 159.007C75.8528 159.195 78.416 159.472 80.9811 159.719C83.0658 159.921 85.1524 160.109 87.2326 160.351C89.4719 160.611 91.7067 160.913 93.9397 161.224C96.3007 161.553 98.6592 161.899 101.015 162.264C102.989 162.569 104.96 162.899 106.928 163.239C111.247 163.987 115.546 164.844 119.834 165.757C127.471 167.382 135.036 169.302 142.545 171.437C146.176 172.47 149.781 173.595 153.379 174.739C161.198 177.225 168.895 180.047 176.517 183.071C180.747 184.75 184.927 186.554 189.085 188.408C194.81 190.961 200.46 193.667 206.035 196.528C211.294 199.224 216.478 202.059 221.586 205.033C228.545 209.067 235.348 213.349 241.993 217.878C247.837 221.859 253.541 226.03 259.108 230.391C262.812 233.301 266.466 236.273 270.036 239.348C272.36 241.348 274.645 243.39 276.921 245.444C279.511 247.781 281.982 250.242 284.528 252.623C287.458 255.362 290.188 258.291 292.951 261.185C296.07 264.45 299.062 267.836 302.002 271.268C307.655 277.865 312.956 284.731 317.981 291.814C318.594 292.796 319.269 293.738 320 294.635V296.767Z" fill="#5D4E47"/>
<path d="M0 187.853C0.848359 187.659 1.71124 187.535 2.57988 187.483C4.84939 187.205 7.12251 186.956 9.39925 186.737C11.1632 186.565 12.9317 186.438 14.6997 186.311C17.4321 186.116 20.1656 185.935 22.899 185.754C23.2854 185.728 23.6748 185.748 24.0618 185.728C27.1902 185.567 30.3256 185.603 33.4516 185.465C36.3274 185.339 39.2016 185.299 42.07 185.39C44.814 185.478 47.5585 185.462 50.3007 185.557C52.8787 185.646 55.4558 185.778 58.0305 185.936C60.6995 186.101 63.3679 186.289 66.0315 186.525C69.3042 186.814 72.5784 187.107 75.8398 187.5C80.7957 188.096 85.743 188.756 90.6749 189.543C97.7745 190.677 104.83 192.029 111.843 193.6C119.495 195.312 127.066 197.324 134.582 199.557C144.676 202.556 154.587 206.076 164.347 210.022C168.506 211.703 172.625 213.482 176.703 215.359C181.05 217.347 185.373 219.384 189.623 221.572C195.508 224.601 201.31 227.782 207.005 231.16C212.783 234.588 218.444 238.199 223.986 241.992C229.801 245.957 235.454 250.142 240.945 254.545C244.496 257.385 247.991 260.298 251.383 263.332C253.692 265.398 255.98 267.487 258.245 269.599C261.484 272.617 264.617 275.742 267.673 278.939C270.593 281.993 273.436 285.12 276.202 288.32C280.081 292.817 283.798 297.443 287.351 302.197C291.63 307.949 295.668 313.864 299.373 320.003C299.456 320.141 299.548 320.275 299.636 320.41H298.279C291.047 308.628 282.803 297.499 273.639 287.148C269.079 281.992 264.322 277.026 259.368 272.248C248.326 261.64 236.435 251.951 223.815 243.278C210.806 234.324 197.128 226.385 182.901 219.53C168.541 212.596 153.693 206.723 138.476 201.958C128.155 198.721 117.704 195.981 107.124 193.738C100.46 192.331 93.7576 191.132 87.0175 190.14C81.4599 189.315 75.8861 188.629 70.2961 188.083C64.1249 187.482 57.9377 187.1 51.7401 186.863C46.4753 186.66 41.2098 186.581 35.9434 186.623C31.3559 186.655 26.7723 186.812 22.1895 187.048C16.317 187.35 10.4625 187.851 4.61542 188.452C3.07396 188.611 1.53832 188.826 1e-05 189.015L0 187.853Z" fill="#5D4E47"/>
<path d="M0 52.1941C2.33335 51.8874 4.66393 51.5574 7.00086 51.2808C9.0823 51.0345 11.1696 50.835 13.2564 50.6371C15.9209 50.3843 18.5865 50.1447 21.2535 49.9182C22.314 49.828 23.3786 49.7942 24.441 49.7128C26.3392 49.5674 28.2474 49.559 30.148 49.4392C35.147 49.1242 40.1528 49.1278 45.1576 49.0286C49.9724 48.9331 54.7812 49.1066 59.5925 49.1405C62.6895 49.1622 65.7866 49.3523 68.881 49.5145C71.9093 49.6733 74.9388 49.8399 77.9597 50.098C81.9111 50.4356 85.8637 50.7631 89.8098 51.1698C93.4993 51.5501 97.1865 51.9498 100.864 52.4216C106.781 53.1807 112.681 54.0538 118.566 55.041C127.86 56.5907 137.098 58.4229 146.278 60.5377C156.347 62.8454 166.326 65.491 176.217 68.4747C190.047 72.6319 203.652 77.4279 217.032 82.8627C222.834 85.2254 228.58 87.7186 234.271 90.3422C239.287 92.6566 244.271 95.036 249.188 97.5533C259.112 102.635 268.819 108.097 278.256 114.038C286.708 119.36 294.896 125.059 302.82 131.136C307.097 134.422 311.266 137.84 315.328 141.391C316.906 142.773 318.495 144.143 320 145.605V147.155C316.222 143.634 312.312 140.264 308.313 136.995C294.11 125.48 278.943 115.206 262.981 106.287C243.47 95.3404 223.105 85.9903 202.086 78.3283C185.213 72.1347 167.995 66.925 150.518 62.7253C141.073 60.4486 131.565 58.4741 121.992 56.8019C114.965 55.5705 107.915 54.4982 100.841 53.5851C95.5265 52.8966 90.2002 52.3149 84.8615 51.8399C79.8454 51.3914 74.8222 51.0302 69.7921 50.7562C62.5003 50.3487 55.2035 50.1492 47.9016 50.1576C43.1851 50.1629 38.4694 50.2394 33.7543 50.4211C28.9452 50.6065 24.1424 50.8817 19.3457 51.2469C15.13 51.5724 10.9197 51.9778 6.72307 52.506C4.48186 52.7882 2.24084 53.0718 0 53.3569V52.1941Z" fill="#5D4E47"/>
<path d="M0 95.0234C0.34206 95.0152 0.502 95.2743 0.69076 95.4921C3.52205 98.7596 6.35324 102.027 9.18433 105.295C13.1094 109.834 17.0323 114.376 20.9532 118.919C23.2765 121.602 25.6186 124.269 27.9482 126.947C29.2822 128.481 30.625 130.007 31.9287 131.567C32.1354 131.834 32.4024 132.05 32.708 132.195C33.0137 132.34 33.3492 132.412 33.6875 132.403C35.7684 132.402 35.1681 132.723 36.3727 131.116C46.4974 117.614 56.6177 104.108 66.7337 90.5991C72.6922 82.6446 78.6517 74.6907 84.6121 66.7375C85.1793 66.0268 85.4488 65.1237 85.3639 64.2183C85.2718 63.0958 84.8793 62.5408 83.7872 62.3296C82.7763 62.1342 81.7498 62.0056 80.7249 61.8991C78.1279 61.6291 75.5303 61.3607 72.9285 61.1438C70.7755 60.9642 68.6169 60.8496 66.4598 60.723C62.6574 60.5 58.8503 60.4025 55.0443 60.2662C49.7136 60.0753 44.3855 60.1356 39.0577 60.2074C37.156 60.2331 35.2466 60.2403 33.3474 60.3598C30.1923 60.5585 27.0304 60.605 23.8769 60.8528C22.4961 60.9614 21.1069 61.0157 19.7234 61.1157C17.6016 61.269 15.4822 61.4556 13.3624 61.6349C11.6917 61.7763 10.0202 61.9111 8.3521 62.0792C6.17174 62.299 3.99372 62.5427 1.81621 62.7894C1.20228 62.797 0.591864 62.8835 0 63.0468L0 61.6902C1.00017 61.7099 1.99971 61.6265 2.98281 61.4415C7.08886 61.0041 11.1966 60.5927 15.3133 60.2643C19.2379 59.9512 23.1643 59.6827 27.0967 59.4859C30.6119 59.31 34.1283 59.2029 37.6455 59.0866C43.1383 58.905 48.6301 58.9723 54.1214 59.0218C57.5419 59.0526 60.9637 59.2076 64.38 59.396C70.533 59.7354 76.6748 60.2308 82.797 60.944C83.372 61.0257 83.9404 61.1481 84.4981 61.3101C85.0217 61.4355 85.4934 61.7202 85.8482 62.1251C86.203 62.53 86.4234 63.0351 86.4788 63.5706C86.6157 64.2306 86.6068 64.9125 86.4526 65.5687C86.2984 66.2248 86.0028 66.8394 85.5863 67.3694C75.693 80.5286 65.8223 93.7047 55.974 106.898C49.5905 115.427 43.2116 123.96 36.8374 132.496C36.6016 132.881 36.2586 133.19 35.8502 133.384C35.4419 133.578 34.9859 133.649 34.538 133.587C34.4737 133.58 34.4089 133.578 34.3443 133.582C33.5896 133.621 32.8373 133.468 32.1579 133.137C31.4785 132.806 30.8942 132.308 30.4597 131.69C24.9333 125.202 19.3246 118.784 13.7429 112.343C9.43002 107.367 5.11502 102.392 0.79792 97.4188C0.57206 97.1587 0.411 96.8065 0 96.7676V95.0234Z" fill="#5D4E47"/>
<path d="M320 220.992V231.263C319.474 232.151 318.818 232.955 318.053 233.648C316.01 235.843 313.918 237.991 311.904 240.212C311.084 241.116 310.744 241.131 309.928 240.273C308.814 239.102 307.53 238.115 306.404 236.96C305.584 236.119 305.564 235.82 306.372 234.929C307.369 233.832 308.402 232.765 309.428 231.698C312.155 228.862 314.782 225.933 317.557 223.144C318.081 222.617 318.469 221.969 319.033 221.481C319.31 221.241 319.523 220.848 320 220.992Z" fill="#4A2B26"/>
<path d="M0 20.7988C1.35228 20.7703 2.69235 20.5931 4.03739 20.4743C5.1908 20.3725 6.34625 20.2828 7.50273 20.23C8.34399 20.1915 8.44663 20.329 8.29854 21.1817C8.02914 22.7328 7.76419 24.2855 7.36714 25.8111C6.32196 30.0756 4.5092 34.1142 2.01751 37.7294C1.53538 38.4122 1.00084 39.0581 0.49223 39.7224C0.436466 39.8016 0.36287 39.8666 0.277372 39.9122C0.191873 39.9578 0.096864 39.9826 0 39.9848L0 20.7988Z" fill="#3C1F1B"/>
<path d="M320 220.992C318.777 222.132 317.616 223.338 316.522 224.602C313.178 228.091 309.878 231.623 306.561 235.139C306.517 235.185 306.47 235.23 306.428 235.278C305.805 235.982 305.797 235.991 306.485 236.647C307.767 237.87 309.056 239.087 310.35 240.298C310.91 240.822 310.926 240.821 311.491 240.225C312.733 238.916 313.97 237.601 315.201 236.282C316.722 234.659 318.241 233.036 319.76 231.412C319.833 231.352 319.914 231.302 320 231.263V233.008C318.069 235.04 316.138 237.073 314.208 239.105C313.452 239.902 312.712 240.712 311.951 241.503C311.072 242.416 310.872 242.434 309.973 241.601C308.244 240 306.525 238.387 304.816 236.764C304.218 236.198 304.197 235.909 304.766 235.297C306.7 233.216 308.655 231.155 310.598 229.084C313.734 225.742 316.868 222.399 320 219.054L320 220.992Z" fill="#5D4E47"/>
<path d="M226.655 176.412C226.367 176.369 226.093 176.259 225.855 176.091C222.38 174.24 218.906 172.387 215.433 170.532C212.957 169.208 210.482 167.882 208.009 166.554C207.071 166.05 207.024 165.916 207.523 164.982C211.219 158.066 214.917 151.152 218.618 144.239C221.983 137.951 225.348 131.664 228.715 125.377C231.014 121.081 233.314 116.785 235.614 112.49C236.104 111.575 236.274 111.534 237.194 112.025C243.088 115.171 248.983 118.316 254.878 121.459C255.049 121.551 255.217 121.645 255.385 121.741C255.483 121.782 255.571 121.844 255.642 121.923C255.713 122.002 255.766 122.096 255.797 122.198C255.827 122.299 255.835 122.406 255.819 122.511C255.803 122.616 255.764 122.717 255.704 122.805C255.351 123.494 254.991 124.179 254.625 124.862C249.906 133.682 245.187 142.501 240.466 151.32C236.125 159.427 231.781 167.533 227.435 175.637C227.256 175.97 227.133 176.371 226.655 176.412Z" fill="#5D4E47"/>
<path d="M150.652 146.976C150.567 146.959 150.375 146.931 150.188 146.881C147.975 146.288 145.773 145.651 143.546 145.117C142.665 144.906 142.385 144.514 142.658 143.501C144.792 135.592 146.908 127.679 149.008 119.761C149.432 118.171 149.856 116.582 150.292 114.996C150.564 114.007 150.776 113.876 151.732 114.128C153.948 114.711 156.161 115.304 158.371 115.906C159.456 116.201 159.544 116.367 159.244 117.493C156.815 126.591 154.385 135.689 151.952 144.787C151.81 145.316 151.675 145.847 151.52 146.373C151.483 146.567 151.371 146.738 151.209 146.851C151.046 146.964 150.846 147.008 150.652 146.976Z" fill="#5D4E47"/>
<path d="M269.548 168.068C269.495 168.385 269.355 168.68 269.145 168.923C267.315 171.774 265.482 174.624 263.647 177.472C260.188 182.845 256.729 188.217 253.269 193.589C253.199 193.698 253.138 193.812 253.065 193.918C252.501 194.747 252.249 194.806 251.416 194.274C249.486 193.039 247.558 191.8 245.631 190.558C244.69 189.951 244.647 189.732 245.261 188.779C250.256 181.018 255.252 173.257 260.248 165.497C260.65 164.873 261.031 164.235 261.452 163.624C261.893 162.983 262.167 162.915 262.819 163.328C264.891 164.642 266.948 165.978 269.013 167.303C269.16 167.374 269.287 167.482 269.38 167.616C269.474 167.75 269.532 167.905 269.548 168.068Z" fill="#5D4E47"/>
<path d="M178.209 156.045C178.221 155.759 178.286 155.478 178.403 155.216C181.714 146.055 185.023 136.892 188.328 127.729C188.372 127.608 188.41 127.484 188.46 127.365C188.777 126.603 188.98 126.5 189.803 126.774C190.752 127.09 191.691 127.437 192.632 127.776C193.877 128.223 195.122 128.67 196.364 129.126C197.372 129.497 197.472 129.7 197.111 130.703C195.288 135.772 193.461 140.839 191.631 145.905C190.153 150 188.673 154.095 187.191 158.189C187.126 158.371 187.07 158.558 186.989 158.733C186.691 159.378 186.417 159.532 185.768 159.302C183.456 158.484 181.152 157.643 178.847 156.805C178.461 156.665 178.139 156.455 178.209 156.045Z" fill="#5D4E47"/>
<path d="M282.738 217.787C282.461 217.783 282.194 217.683 281.984 217.503C280.088 216.05 278.184 214.607 276.3 213.139C275.611 212.602 275.618 212.344 276.245 211.524C278.674 208.344 281.105 205.165 283.539 201.989C287.011 197.453 290.483 192.917 293.955 188.381C294.033 188.278 294.109 188.173 294.192 188.075C294.643 187.543 294.971 187.454 295.513 187.859C297.504 189.347 299.481 190.853 301.446 192.376C301.905 192.731 301.914 193.111 301.518 193.648C300.791 194.635 300.037 195.602 299.291 196.576C294.094 203.367 288.895 210.157 283.696 216.947C283.425 217.3 283.196 217.712 282.738 217.787Z" fill="#5D4E47"/>
<path d="M113.312 138.041C111.639 137.756 109.953 137.469 108.267 137.182C107.599 137.069 106.927 136.975 106.262 136.84C105.485 136.683 105.308 136.412 105.444 135.613C106.529 129.257 107.616 122.901 108.706 116.546C109.245 113.401 109.787 110.255 110.332 107.111C110.51 106.088 110.733 105.932 111.772 106.111C113.902 106.479 116.03 106.855 118.159 107.224C119.272 107.416 119.423 107.581 119.245 108.69C118.918 110.727 118.555 112.758 118.207 114.792C117.335 119.876 116.464 124.96 115.593 130.044C115.19 132.395 114.796 134.747 114.384 137.097C114.24 137.923 114.039 138.082 113.312 138.041Z" fill="#5D4E47"/>
<path d="M78.3808 104.488C78.0485 108.671 77.7255 112.653 77.418 116.637C77.2469 118.854 77.1116 121.074 76.9422 123.291C76.7189 126.214 76.4905 129.137 76.2367 132.058C76.161 132.928 75.9987 133.055 75.1238 132.994C72.9018 132.838 70.6811 132.663 68.4617 132.47C67.6228 132.398 67.4381 132.188 67.492 131.367C67.6294 129.276 67.7881 127.187 67.9466 125.099C68.1293 122.689 68.3168 120.279 68.5091 117.87C68.8046 114.112 69.1006 110.354 69.397 106.596C69.4817 105.504 69.5388 104.409 69.6158 103.316C69.6784 102.427 69.8613 102.263 70.7659 102.324C72.9862 102.473 75.2059 102.63 77.4251 102.794C78.1955 102.85 78.3738 103.054 78.3804 103.816C78.383 104.106 78.3808 104.397 78.3808 104.488Z" fill="#5D4E47"/>
<path d="M72.7158 209.571C73.6318 209.605 74.598 209.502 75.5699 209.563C77.3642 209.676 78.1592 210.529 78.0793 212.506C78.0323 213.346 77.8511 214.172 77.5426 214.954C71.6917 230.437 65.8424 245.921 59.9946 261.405C55.3454 273.718 50.6975 286.032 46.0508 298.346C45.8338 298.954 45.5744 299.546 45.2745 300.117C45.0502 300.653 44.6839 301.118 44.2152 301.461C43.7465 301.804 43.193 302.013 42.6144 302.065C42.0359 302.116 41.4541 302.01 40.9318 301.755C40.4094 301.501 39.9663 301.109 39.6501 300.622C39.2598 300.148 38.9387 299.621 38.6966 299.056C35.2728 290.94 31.8483 282.825 28.4231 274.709C22.2414 260.087 16.0563 245.466 9.86783 230.846C7.90634 226.21 5.94181 221.576 3.97423 216.943C3.56877 216.028 3.24015 215.081 2.99176 214.112C2.85098 213.753 2.80542 213.365 2.85951 212.983C2.91361 212.602 3.06551 212.241 3.30043 211.936C3.53536 211.631 3.8453 211.391 4.20009 211.242C4.55488 211.092 4.94243 211.036 5.32502 211.081C8.87818 210.999 12.4333 210.98 15.9848 210.856C19.2789 210.741 22.5754 210.757 25.8673 210.636C27.9666 210.558 30.0657 210.551 32.1644 210.496C35.6202 210.406 39.0792 210.407 42.5325 210.265C45.5038 210.143 48.4756 210.159 51.4462 210.074C57.1624 209.91 62.8793 209.779 68.5969 209.681C69.9509 209.657 71.3069 209.587 72.7158 209.571Z" fill="#5D4E47"/>
<path d="M163.401 293.327C156.374 293.363 149.591 290.751 144.404 286.009C139.576 281.756 136.462 275.892 135.643 269.51C135.074 265.824 135.325 262.057 136.378 258.478C137.432 254.9 139.262 251.598 141.738 248.808C143.961 246.189 146.683 244.039 149.745 242.482C152.807 240.925 156.147 239.992 159.573 239.738C166.414 239.122 173.241 241.065 178.733 245.19C184.225 249.315 187.992 255.331 189.307 262.073C190.137 266.012 190.015 270.092 188.951 273.975C187.887 277.857 185.911 281.43 183.189 284.395C180.726 287.219 177.684 289.479 174.269 291.02C170.854 292.561 167.147 293.348 163.401 293.327Z" fill="#5D4E47"/>
<path d="M245.698 287.496C245.577 287.498 245.457 287.468 245.352 287.408C245.246 287.348 245.158 287.261 245.098 287.156C245.037 287.051 245.005 286.931 245.006 286.81C245.007 286.688 245.041 286.569 245.103 286.465C245.219 286.272 245.361 286.097 245.526 285.943C248.136 283.265 250.748 280.588 253.361 277.913C254.014 277.243 254.645 276.553 255.307 275.893C255.849 275.352 256.31 275.273 256.647 275.61C256.994 275.957 256.94 276.359 256.381 276.947C255.092 278.302 253.784 279.639 252.478 280.977C250.542 282.962 248.602 284.943 246.659 286.921C246.391 287.194 246.145 287.517 245.698 287.496Z" fill="#5E4E47"/>
<path d="M264.4 308.699C264.279 308.692 264.161 308.654 264.059 308.589C263.956 308.523 263.873 308.433 263.815 308.326C263.758 308.219 263.729 308.099 263.732 307.977C263.735 307.856 263.768 307.737 263.83 307.633C263.992 307.39 264.203 307.185 264.449 307.029C267.954 304.293 271.459 301.556 274.965 298.82C275.141 298.679 275.326 298.551 275.52 298.435C275.654 298.342 275.819 298.301 275.982 298.322C276.145 298.342 276.295 298.423 276.402 298.547C276.529 298.674 276.602 298.846 276.605 299.026C276.607 299.206 276.539 299.38 276.415 299.51C276.248 299.706 276.059 299.883 275.852 300.037C272.349 302.776 268.843 305.512 265.335 308.245C265.088 308.503 264.756 308.664 264.4 308.699Z" fill="#5E4E47"/>
<path d="M40.6863 202.356C40.6863 202.807 40.7167 203.261 40.6785 203.708C40.6326 204.245 40.3171 204.553 39.8997 204.514C39.7043 204.499 39.5218 204.41 39.3886 204.267C39.2554 204.123 39.1814 203.934 39.1814 203.738C39.167 203.61 39.1599 203.481 39.1603 203.352C39.0905 199.842 39.0216 196.332 38.9534 192.821C38.9703 192.048 38.9405 191.275 38.8641 190.506C38.8035 190.155 38.8265 189.794 38.9313 189.454C38.9696 189.295 39.0635 189.156 39.196 189.06C39.3285 188.965 39.4909 188.92 39.6535 188.934C39.8172 188.932 39.9763 188.989 40.1005 189.096C40.2246 189.203 40.3053 189.352 40.3271 189.514C40.3541 189.673 40.3671 189.833 40.3662 189.994C40.4313 192.699 40.5124 195.403 40.5506 198.108C40.5706 199.525 40.5901 200.941 40.6863 202.356Z" fill="#5E4F48"/>
<path d="M202.351 250.639C202.242 250.641 202.134 250.618 202.035 250.572C201.937 250.526 201.85 250.459 201.781 250.374C201.713 250.29 201.664 250.191 201.639 250.085C201.615 249.979 201.614 249.869 201.638 249.762C201.699 249.511 201.813 249.276 201.972 249.073C204.317 245.449 206.662 241.826 209.009 238.204C209.125 238.011 209.259 237.829 209.409 237.662C209.518 237.539 209.665 237.458 209.827 237.432C209.988 237.406 210.154 237.438 210.295 237.521C210.442 237.595 210.556 237.721 210.614 237.875C210.673 238.028 210.672 238.198 210.611 238.351C210.527 238.594 210.41 238.823 210.262 239.033C207.939 242.632 205.613 246.23 203.283 249.825C203.042 250.198 202.837 250.63 202.351 250.639Z" fill="#5E4F48"/>
<path d="M68.2802 202.795C68.4188 200.123 68.5313 197.45 68.7082 194.781C68.7849 193.622 68.8506 192.465 68.8953 191.305C68.9153 191.048 68.9516 190.793 69.0042 190.541C69.0775 190.106 69.3179 189.798 69.7757 189.841C69.8737 189.848 69.969 189.876 70.0558 189.922C70.1425 189.968 70.2188 190.031 70.2798 190.108C70.3408 190.185 70.3852 190.274 70.4102 190.369C70.4352 190.464 70.4403 190.563 70.4251 190.66C70.4053 191.531 70.3916 192.403 70.345 193.273C70.2314 195.397 70.0985 197.519 69.9774 199.642C69.9003 200.994 69.8359 202.347 69.7531 203.698C69.7358 203.988 69.6876 204.275 69.6095 204.555C69.5735 204.716 69.479 204.857 69.3443 204.952C69.2097 205.047 69.0446 205.088 68.8812 205.068C68.7159 205.065 68.5583 204.997 68.4419 204.88C68.3255 204.763 68.2595 204.605 68.2579 204.439C68.2307 203.892 68.2508 203.343 68.2508 202.794L68.2802 202.795Z" fill="#5E4F48"/>
<path d="M152.327 224.057C152.216 224.063 152.106 224.045 152.004 224.003C151.901 223.962 151.809 223.899 151.734 223.818C151.658 223.737 151.602 223.64 151.568 223.535C151.533 223.43 151.523 223.319 151.537 223.209C151.59 222.957 151.67 222.71 151.775 222.474C153.252 218.552 154.732 214.631 156.214 210.711C156.3 210.469 156.413 210.237 156.551 210.02C156.637 209.88 156.771 209.776 156.929 209.729C157.086 209.681 157.256 209.693 157.405 209.763C157.544 209.812 157.661 209.908 157.739 210.034C157.816 210.159 157.849 210.307 157.831 210.454C157.81 210.678 157.756 210.897 157.67 211.105C156.161 215.118 154.647 219.13 153.13 223.14C153.049 223.351 152.948 223.553 152.829 223.745C152.709 223.911 152.528 224.023 152.327 224.057Z" fill="#5E4F48"/>
<path d="M178.044 235.751C177.939 235.758 177.833 235.74 177.736 235.7C177.638 235.66 177.551 235.598 177.481 235.52C177.411 235.441 177.36 235.347 177.332 235.246C177.303 235.144 177.299 235.038 177.317 234.934C177.378 234.684 177.476 234.444 177.609 234.224C179.598 230.461 181.591 226.7 183.588 222.941C183.705 222.713 183.851 222.5 184.024 222.31C184.133 222.187 184.283 222.108 184.446 222.09C184.609 222.071 184.774 222.113 184.907 222.208C185.035 222.282 185.134 222.397 185.188 222.534C185.243 222.671 185.249 222.823 185.206 222.964C185.16 223.151 185.089 223.331 184.996 223.5C182.992 227.291 180.984 231.081 178.972 234.868C178.766 235.256 178.604 235.721 178.044 235.751Z" fill="#5E4E47"/>
<path d="M225.35 267.54C225.241 267.531 225.136 267.495 225.043 267.436C224.951 267.377 224.875 267.296 224.821 267.201C224.767 267.105 224.737 266.998 224.734 266.888C224.73 266.779 224.754 266.67 224.802 266.572C224.943 266.283 225.124 266.015 225.34 265.777C227.933 262.522 230.529 259.271 233.128 256.022C233.286 255.818 233.465 255.631 233.661 255.463C233.784 255.359 233.94 255.299 234.102 255.296C234.264 255.293 234.422 255.345 234.549 255.445C234.677 255.544 234.767 255.685 234.803 255.843C234.839 256 234.819 256.166 234.748 256.311C234.643 256.511 234.516 256.698 234.37 256.87C231.695 260.224 229.019 263.578 226.342 266.93C226.242 267.108 226.098 267.257 225.925 267.363C225.751 267.47 225.554 267.531 225.35 267.54Z" fill="#5E4E47"/>
<path d="M96.7536 207.028C96.9606 205.872 97.1954 204.542 97.4374 203.214C97.9273 200.525 98.4195 197.837 98.914 195.149C98.9604 194.896 99.0048 194.642 99.0676 194.393C99.2189 193.792 99.5412 193.47 99.9203 193.524C100.374 193.589 100.612 194.015 100.512 194.651C100.356 195.635 100.189 196.618 100.01 197.599C99.4577 200.635 98.9013 203.67 98.3406 206.705C98.2941 206.958 98.2493 207.212 98.1785 207.459C98.0011 208.078 97.7084 208.308 97.2543 208.209C96.8414 208.118 96.7251 207.888 96.7536 207.028Z" fill="#5E4F48"/>
<path d="M129.608 201.054C129.568 201.227 129.528 201.449 129.465 201.665C128.327 205.528 127.185 209.39 126.041 213.252C125.97 213.498 125.865 213.734 125.728 213.951C125.649 214.076 125.53 214.17 125.39 214.218C125.251 214.265 125.099 214.264 124.961 214.214C124.818 214.18 124.692 214.096 124.604 213.978C124.517 213.86 124.474 213.715 124.483 213.569C124.479 213.311 124.518 213.054 124.6 212.809C125.753 208.917 126.903 205.023 128.049 201.129C128.096 200.974 128.15 200.822 128.212 200.673C128.271 200.503 128.392 200.361 128.55 200.275C128.709 200.189 128.894 200.166 129.069 200.21C129.52 200.28 129.594 200.624 129.608 201.054Z" fill="#5E4F48"/>
<path d="M8.90029 193.735C8.90029 193.376 8.88546 193.213 8.90339 193.054C8.92409 192.911 8.9899 192.779 9.09121 192.676C9.19252 192.573 9.32403 192.505 9.46657 192.483C9.60911 192.46 9.75522 192.483 9.88358 192.549C10.0119 192.615 10.1159 192.721 10.1802 192.85C10.3018 193.147 10.3832 193.458 10.4223 193.777C10.9132 197.666 11.3982 201.557 11.8774 205.448C11.8893 205.543 11.9348 205.636 11.9376 205.731C11.9536 205.834 11.9491 205.94 11.9243 206.042C11.8994 206.144 11.8548 206.24 11.7928 206.324C11.7309 206.409 11.6528 206.48 11.5632 206.535C11.4736 206.589 11.3741 206.626 11.2704 206.642C11.1731 206.652 11.0746 206.643 10.981 206.614C10.8874 206.585 10.8007 206.538 10.726 206.474C10.6514 206.411 10.5905 206.333 10.5469 206.245C10.5034 206.158 10.4782 206.062 10.4728 205.964C10.356 205.301 10.2846 204.629 10.1984 203.96C9.77564 200.678 9.35404 197.396 8.9336 194.114C8.9091 193.923 8.89979 193.73 8.90029 193.735Z" fill="#5E4F48"/>
<path d="M31.7452 62.6342C35.2768 62.6187 38.7727 63.3419 42.0082 64.7575C45.2438 66.1731 48.1475 68.2497 50.533 70.854C54.0001 74.4797 56.2446 79.1003 56.9511 84.0669C57.5071 87.4265 57.3265 90.8669 56.4218 94.1498C55.517 97.4327 53.9097 100.48 51.7111 103.08C48.5286 106.963 44.196 109.735 39.3372 110.997C37.0018 111.656 34.5779 111.946 32.153 111.857C26.0868 111.687 20.2796 109.362 15.7716 105.299C11.7544 101.781 8.99104 97.0506 7.89879 91.8231C6.73953 86.7754 7.30241 81.485 9.49779 76.7943C13.1466 68.9702 19.3918 64.5209 27.7787 62.9061C27.9366 62.8757 28.1007 62.8784 28.2604 62.8558C29.4141 62.6878 30.5795 62.6137 31.7452 62.6342Z" fill="#5D4E47"/>
<path d="M36.9462 19.2589C39.6587 19.2589 42.665 19.1973 45.6674 19.2785C48.0546 19.343 50.4447 19.3671 52.8281 19.4878C54.3434 19.5645 55.8578 19.6034 57.373 19.6552C58.1026 19.6802 58.1603 19.7482 57.9763 20.4694C57.5356 22.1201 56.9991 23.7438 56.3696 25.3321C55.2999 28.1749 53.814 30.8431 51.9606 33.2494C49.7127 36.3612 46.5547 38.6989 42.9221 39.94C39.7559 40.9715 36.314 40.7439 33.3112 39.3044C30.0937 37.7545 27.3551 35.3638 25.385 32.385C22.8531 28.7068 21.0652 24.5689 20.122 20.2043C19.9641 19.5239 19.9863 19.5064 20.6725 19.4617C20.737 19.4575 20.8017 19.457 20.8663 19.4559C26.1287 19.3677 31.389 19.131 36.9462 19.2589Z" fill="#3C1F1B"/>
<path d="M70.0156 20.4718C70.9471 20.5245 71.7465 20.5475 72.5415 20.6189C75.0744 20.8463 77.6056 21.0924 80.1377 21.3297C81.709 21.477 83.2822 21.6056 84.8516 21.7711C86.932 21.9905 89.01 22.2333 91.0881 22.4745C92.8789 22.6824 94.6689 22.897 96.4581 23.1182C98.1513 23.3279 99.8435 23.5452 101.535 23.7702C102.747 23.932 103.957 24.1144 105.168 24.2857C105.263 24.2992 105.362 24.2924 105.458 24.3047C106.514 24.4397 106.59 24.5329 106.235 25.4961C104.549 30.4701 101.643 34.9418 97.7815 38.5021C95.3865 40.7501 92.3525 42.1987 89.0986 42.6479C86.3507 42.9885 83.5676 42.4023 81.1906 40.982C78.306 39.2351 75.9273 36.7656 74.2896 33.8176C72.605 30.9112 71.3957 27.7542 70.7076 24.4661C70.423 23.1834 70.2549 21.8748 70.0156 20.4718Z" fill="#3C1F1B"/>
<path d="M212.76 58.5646C212.758 56.4276 212.95 54.2947 213.333 52.1922C213.433 51.5793 213.454 51.5667 214.091 51.8028C216.117 52.554 218.144 53.3043 220.165 54.0684C224.329 55.6425 228.469 57.2775 232.585 58.9735C236.4 60.5539 240.192 62.1862 243.992 63.8029C244.659 64.0871 244.683 64.185 244.308 64.7869C243.711 65.7075 243.055 66.5874 242.341 67.4206C239.938 70.4309 236.942 72.9146 233.538 74.7173C231.203 75.9902 228.582 76.6474 225.923 76.6272C224.043 76.6097 222.196 76.1377 220.538 75.2517C218.88 74.3656 217.461 73.0917 216.403 71.5386C214.671 69.0359 213.556 66.1591 213.148 63.1432C212.861 61.6345 212.731 60.1001 212.76 58.5646Z" fill="#3C1F1B"/>
<path d="M120.801 29.0419C120.801 28.4933 120.784 27.9441 120.806 27.3964C120.828 26.8412 120.876 26.8087 121.457 26.9125C123.803 27.3313 126.151 27.7411 128.492 28.1855C134.093 29.2488 139.676 30.4036 145.24 31.6501C147.472 32.1494 149.701 32.6623 151.927 33.1888C152.699 33.3701 152.774 33.5209 152.474 34.2571C150.945 38.2819 148.585 41.9393 145.548 44.9908C143.619 46.9592 141.228 48.4146 138.593 49.2247C136.72 49.8192 134.722 49.903 132.805 49.4675C130.889 49.032 129.123 48.093 127.69 46.7474C124.99 44.2634 123.062 41.0546 122.136 37.5042C121.308 34.7573 120.859 31.9103 120.801 29.0419Z" fill="#3C1F1B"/>
<path d="M257.355 81.76C257.415 78.3424 258.019 74.956 259.143 71.728C259.44 70.879 259.434 70.8826 260.284 71.2827C264.9 73.4573 269.438 75.7867 273.965 78.1393C278.577 80.5362 283.129 83.0427 287.665 85.5775C287.947 85.7348 288.218 85.912 288.494 86.0785C288.7 86.2024 288.748 86.3551 288.585 86.5485C288.522 86.6224 288.458 86.6952 288.393 86.7668C285.661 89.8823 282.381 92.4699 278.715 94.4009C276.306 95.6601 273.666 96.4159 270.956 96.6222C268.108 96.9081 265.252 96.158 262.912 94.5094C260.589 92.7713 258.923 90.2975 258.187 87.4913C257.667 85.624 257.388 83.698 257.355 81.76Z" fill="#3C1F1B"/>
<path d="M199.991 46.9011C199.264 48.3136 198.407 49.6549 197.431 50.9074C195.483 53.5681 193.102 55.883 190.387 57.7558C187.607 59.7941 184.251 60.8948 180.803 60.8988C178.331 60.8386 175.95 59.9563 174.036 58.3912C171.584 56.3109 169.819 53.5364 168.975 50.4334C167.993 46.8506 167.656 43.1219 167.979 39.4211C167.997 38.9729 168.098 38.5288 168.144 38.0811C168.219 37.3488 168.258 37.3069 168.976 37.5023C171.121 38.086 173.269 38.6628 175.407 39.2738C183.313 41.5329 191.181 43.9169 198.975 46.5399C199.278 46.6417 199.577 46.7536 199.991 46.9011Z" fill="#3C1F1B"/>
<path d="M254.438 122.795C254.346 122.98 254.253 123.184 254.147 123.383C251.779 127.825 249.409 132.268 247.039 136.709C244.786 140.921 242.53 145.131 240.268 149.338C236.839 155.739 233.411 162.141 229.985 168.543C228.934 170.506 227.883 172.469 226.832 174.433C226.453 175.138 226.439 175.151 225.748 174.784C222.299 172.951 218.852 171.113 215.408 169.27C213.329 168.16 211.256 167.04 209.175 165.934C208.409 165.527 208.49 165.527 208.848 164.858C211.362 160.164 213.874 155.469 216.385 150.773C220.816 142.493 225.247 134.213 229.678 125.933C231.795 121.978 233.91 118.022 236.024 114.066C236.054 114.009 236.081 113.949 236.115 113.895C236.647 113.051 236.458 112.877 237.544 113.466C240.979 115.327 244.434 117.15 247.882 118.988C249.848 120.036 251.813 121.085 253.778 122.134C254.048 122.28 254.396 122.367 254.438 122.795Z" fill="#4A2B26"/>
<path d="M143.977 143.319C144.256 142.267 144.575 141.051 144.9 139.836C147.02 131.925 149.141 124.015 151.263 116.104C151.467 115.345 151.48 115.328 152.256 115.531C153.973 115.98 155.688 116.439 157.4 116.907C158.055 117.085 158.074 117.104 157.904 117.759C157.23 120.349 156.548 122.937 155.857 125.523C154.142 131.941 152.424 138.358 150.703 144.774C150.459 145.684 150.456 145.695 149.518 145.448C147.833 145.006 146.153 144.545 144.468 144.102C144.131 144.014 143.821 143.941 143.977 143.319Z" fill="#4A2B26"/>
<path d="M262.547 164.617C262.637 164.666 262.783 164.734 262.917 164.819C264.468 165.809 266.022 166.796 267.566 167.798C268.131 168.165 268.142 168.257 267.74 168.884C265.964 171.656 264.183 174.426 262.399 177.193C259.129 182.268 255.859 187.342 252.588 192.415C252.5 192.551 252.419 192.69 252.333 192.827C252.302 192.893 252.255 192.952 252.197 192.997C252.139 193.042 252.072 193.073 251.999 193.087C251.927 193.102 251.853 193.099 251.782 193.079C251.711 193.06 251.646 193.023 251.592 192.974C249.937 191.906 248.282 190.84 246.625 189.774C246.222 189.515 246.392 189.258 246.581 188.966C247.774 187.124 248.963 185.279 250.147 183.432C253.899 177.593 257.651 171.754 261.402 165.915C261.629 165.562 261.86 165.212 262.093 164.863C262.139 164.784 262.205 164.72 262.285 164.676C262.366 164.633 262.456 164.612 262.547 164.617Z" fill="#4A2B26"/>
<path d="M195.858 130.641C195.761 130.922 195.661 131.229 195.552 131.532C193.349 137.629 191.146 143.726 188.942 149.822C188.044 152.309 187.147 154.797 186.251 157.286C185.962 158.087 185.951 158.097 185.149 157.814C183.506 157.233 181.867 156.644 180.23 156.047C179.52 155.788 179.502 155.755 179.778 154.984C180.722 152.342 181.673 149.702 182.629 147.064C184.833 140.968 187.037 134.872 189.243 128.776C189.539 127.959 189.546 127.944 190.324 128.22C191.966 128.802 193.604 129.396 195.239 130.001C195.525 130.106 195.899 130.163 195.858 130.641Z" fill="#4A2B26"/>
<path d="M300.32 193.218C300.178 193.428 300.046 193.649 299.891 193.853C298.641 195.498 297.388 197.141 296.133 198.782C293.681 201.986 291.226 205.188 288.77 208.389C286.884 210.848 284.996 213.305 283.106 215.76C282.577 216.447 282.56 216.451 281.905 215.956C280.539 214.925 279.178 213.888 277.823 212.843C277.175 212.343 277.172 212.274 277.683 211.607C280.82 207.503 283.959 203.401 287.1 199.3C289.553 196.096 292.005 192.891 294.457 189.687C295.005 188.971 295.052 188.966 295.747 189.5C297.078 190.522 298.41 191.544 299.742 192.565C299.968 192.738 300.23 192.885 300.32 193.218Z" fill="#4A2B26"/>
<path d="M112.477 136.703C111.204 136.486 109.805 136.25 108.406 136.01C107.993 135.94 107.582 135.852 107.168 135.79C106.675 135.717 106.659 135.424 106.734 135.016C107 133.558 107.242 132.095 107.492 130.634C108.193 126.535 108.893 122.437 109.593 118.339C110.175 114.94 110.759 111.541 111.345 108.142C111.47 107.418 111.565 107.32 112.313 107.435C114.035 107.7 115.749 108.013 117.468 108.294C117.972 108.376 118.054 108.613 117.964 109.1C117.575 111.224 117.236 113.357 116.874 115.486C116.184 119.553 115.491 123.62 114.797 127.686C114.332 130.419 113.872 133.151 113.4 135.882C113.264 136.669 113.192 136.726 112.477 136.703Z" fill="#4A2B26"/>
<path d="M72.0576 103.542C73.6166 103.676 75.0941 103.827 76.5752 103.916C77.1161 103.949 77.2208 104.19 77.1846 104.652C77.1016 105.713 77.1038 106.784 76.9515 107.834C76.7795 109.019 76.7698 110.213 76.6625 111.4C76.3897 114.417 76.226 117.444 76.005 120.466C75.7535 123.906 75.4937 127.345 75.2257 130.784C75.2135 130.944 75.1693 131.102 75.154 131.262C75.16 131.351 75.1436 131.441 75.1065 131.523C75.0693 131.605 75.0125 131.676 74.9411 131.73C74.8697 131.785 74.786 131.82 74.6973 131.835C74.6087 131.849 74.5179 131.841 74.4332 131.811C73.6655 131.707 72.8929 131.645 72.1185 131.624C71.1844 131.573 70.2513 131.501 69.3192 131.42C68.7394 131.37 68.6439 131.257 68.6896 130.692C68.9808 127.095 69.2854 123.498 69.5704 119.9C69.7308 117.875 69.8576 115.848 70.0082 113.822C70.1923 111.347 70.3921 108.873 70.5706 106.398C70.6217 105.69 70.6409 104.982 70.7459 104.278C70.8548 103.548 70.8368 103.545 71.5555 103.542C71.7494 103.541 71.9432 103.542 72.0576 103.542Z" fill="#4A2B26"/>
<path d="M73.1448 210.948C73.8875 210.948 74.633 210.908 75.3723 210.958C76.4731 211.032 76.6411 211.256 76.6466 212.335C76.6095 213.208 76.4114 214.066 76.0623 214.867C72.1518 225.256 68.2318 235.642 64.3022 246.024C61.4194 253.661 58.5397 261.299 55.6634 268.939C52.4051 277.572 49.144 286.204 45.8802 294.835C45.4356 296.012 45.007 297.196 44.5483 298.367C44.3428 299.016 43.9976 299.612 43.5371 300.113C43.3884 300.285 43.2052 300.424 42.9994 300.521C42.7936 300.617 42.5698 300.669 42.3425 300.674C42.1152 300.678 41.8895 300.635 41.6801 300.546C41.4707 300.458 41.2822 300.327 41.1268 300.161C40.6332 299.693 40.2495 299.122 40.0034 298.489C37.5617 292.689 35.1138 286.892 32.6599 281.097C30.1322 275.123 27.6019 269.151 25.0689 263.179C20.2888 251.887 15.51 240.594 10.7324 229.3C8.79577 224.723 6.85884 220.147 4.92156 215.57C4.68702 215.003 4.50269 214.417 4.37069 213.818C4.15843 212.896 4.39739 212.532 5.3424 212.494C6.69786 212.438 8.05709 212.473 9.41247 212.416C12.0916 212.304 14.7755 212.346 17.4515 212.226C20.6161 212.083 23.7831 212.169 26.9441 212.021C30.2053 211.868 33.4704 211.962 36.7284 211.815C38.9892 211.713 41.2525 211.78 43.5079 211.651C46.6715 211.471 49.8395 211.592 53 211.439C56.1644 211.286 59.3325 211.384 62.4936 211.236C64.9157 211.122 67.3383 211.163 69.7582 211.067C70.8868 211.023 72.0139 210.936 73.1448 210.948Z" fill="#4A2B26"/>
<path d="M163.21 291.958C156.883 291.988 150.758 289.73 145.964 285.6C141.383 281.821 138.284 276.546 137.212 270.705C136.569 267.435 136.59 264.069 137.273 260.808C137.956 257.546 139.288 254.455 141.188 251.718C143.089 248.981 145.52 246.653 148.337 244.873C151.154 243.094 154.3 241.898 157.588 241.357C161.226 240.691 164.964 240.818 168.548 241.73C172.132 242.642 175.477 244.316 178.354 246.64C181.008 248.639 183.239 251.142 184.921 254.007C186.603 256.872 187.701 260.041 188.154 263.332C188.724 266.785 188.536 270.321 187.603 273.695C186.669 277.068 185.013 280.198 182.748 282.868C178.817 287.673 173.222 290.822 167.075 291.69C165.798 291.906 164.504 291.995 163.21 291.958Z" fill="#4A2B26"/>
<path d="M31.7696 63.7789C41.5354 64.2605 48.9329 68.5909 53.5571 77.3344C54.8627 79.8668 55.6568 82.6316 55.8941 85.4709C56.2214 88.3999 55.9641 91.3646 55.1371 94.1934C54.3101 97.0221 52.9299 99.6586 51.0764 101.95C47.7615 106.155 43.0664 109.051 37.8216 110.128C36.1512 110.507 34.4421 110.688 32.7293 110.669C28.9989 110.653 25.3232 109.772 21.9917 108.093C19.1315 106.708 16.5782 104.763 14.4829 102.374C12.3876 99.9848 10.7928 97.1995 9.79303 94.183C7.82762 88.7372 8.08596 82.7364 10.5121 77.4796C13.8349 70.1534 19.5782 65.8335 27.4119 64.2144C28.8447 63.9135 30.3056 63.7675 31.7696 63.7789Z" fill="#4A2B26"/>
<path d="M68.847 216.004C69.3515 216.04 69.8537 216.102 70.3517 216.19C71.2632 216.393 71.7422 217.3 71.6531 218.498C71.4968 219.682 71.1698 220.838 70.6822 221.928C65.3412 236.085 59.9987 250.241 54.6548 264.397C51.4763 272.818 48.2955 281.238 45.1123 289.657C44.8902 290.264 44.6112 290.848 44.279 291.402C44.0843 291.759 43.8067 292.064 43.4694 292.292C43.1322 292.52 42.7453 292.663 42.3411 292.71C41.937 292.757 41.5274 292.707 41.1469 292.563C40.7663 292.419 40.4259 292.185 40.1542 291.882C39.6688 291.405 39.2822 290.837 39.0165 290.211C35.7139 282.395 32.4131 274.577 29.1141 266.76C26.0519 259.506 22.9891 252.253 19.9258 245.001C16.7945 237.602 13.6584 230.205 10.5173 222.81C10.0677 221.844 9.70859 220.839 9.44451 219.806C9.32801 219.51 9.29101 219.188 9.33716 218.872C9.3833 218.557 9.511 218.259 9.70762 218.008C9.90424 217.757 10.163 217.561 10.4582 217.441C10.7535 217.321 11.075 217.28 11.3911 217.322C11.5848 217.316 11.7788 217.316 11.9726 217.314C16.0739 217.262 20.1744 217.146 24.2741 217.046C27.2119 216.975 30.154 217.022 33.0865 216.864C35.9281 216.71 38.7725 216.826 41.6085 216.674C44.5465 216.516 47.4886 216.633 50.421 216.475C53.1982 216.325 55.9775 216.435 58.7495 216.289C61.7841 216.13 64.8193 216.166 67.8539 216.105C68.1753 216.098 68.4955 216.041 68.847 216.004Z" fill="#5D4E47"/>
<path d="M163.055 289.799C158.163 289.78 153.392 288.274 149.376 285.48C145.36 282.685 142.289 278.736 140.571 274.155C139.143 270.396 138.742 266.324 139.41 262.359C140.079 258.394 141.793 254.679 144.375 251.596C147.833 247.377 152.724 244.581 158.113 243.741C164.166 242.648 170.406 243.984 175.483 247.458C178.129 249.157 180.401 251.379 182.158 253.987C183.915 256.596 185.121 259.536 185.701 262.627C186.437 266.003 186.364 269.505 185.487 272.847C184.61 276.189 182.955 279.276 180.657 281.856C176.963 286.224 171.733 289.005 166.048 289.627C165.054 289.747 164.055 289.804 163.055 289.799Z" fill="#5D4E47"/>
<path d="M53.5482 87.9609C53.5284 92.9493 51.6894 97.7592 48.3761 101.488C45.0627 105.217 40.5027 107.61 35.5513 108.216C32.5658 108.643 29.5236 108.427 26.6281 107.584C23.7326 106.74 21.0505 105.288 18.7612 103.325C14.5864 99.958 11.883 95.1007 11.2214 89.7782C10.8241 87.1688 10.9509 84.5063 11.5942 81.9464C12.2375 79.3864 13.3845 76.9804 14.9682 74.8687C16.5486 72.6718 18.5571 70.8171 20.8727 69.4163C23.1883 68.0154 25.7633 67.0973 28.4428 66.7172C32.8707 65.9584 37.4253 66.6465 41.4315 68.6795C44.4168 70.107 47.0288 72.2101 49.0604 74.8221C51.092 77.4341 52.4875 80.4833 53.1363 83.7281C53.4515 85.1161 53.5899 86.5383 53.5482 87.9609Z" fill="#5D4E47"/>
<path d="M40.335 217.836C44.2117 217.748 48.0884 217.661 51.9651 217.575C56.3587 217.48 60.7523 217.388 65.1459 217.299C66.3409 217.274 67.5354 217.221 68.7305 217.194C70.3686 217.158 70.769 217.63 70.3437 219.224C70.0868 220.187 69.725 221.124 69.3724 222.059C62.9721 239.018 56.5685 255.976 50.1613 272.932C48.1215 278.333 46.0821 283.734 44.0432 289.135C43.866 289.688 43.6265 290.22 43.3293 290.719C43.2219 290.95 43.0547 291.149 42.8451 291.294C42.6354 291.438 42.3909 291.525 42.1368 291.543C41.8826 291.562 41.6281 291.513 41.3994 291.4C41.1708 291.288 40.9764 291.116 40.8363 290.903C40.5174 290.538 40.2644 290.121 40.0885 289.669C35.3054 278.347 30.519 267.027 25.7294 255.708C20.8524 244.181 15.9729 232.655 11.0908 221.131C10.8952 220.653 10.7373 220.161 10.6188 219.659C10.3929 218.754 10.5844 218.507 11.5524 218.479C12.6505 218.447 13.749 218.428 14.8472 218.402C21.8569 218.236 28.8666 218.072 35.8764 217.908C37.3618 217.876 38.8486 217.904 40.3348 217.904L40.335 217.836Z" fill="#E9E9E9"/>
<path d="M162.143 244.542C167.422 244.549 172.536 246.378 176.623 249.719C180.71 253.06 183.518 257.709 184.573 262.881C185.679 268.359 184.602 274.053 181.571 278.748C178.54 283.443 173.794 286.769 168.346 288.015C162.496 289.404 156.333 288.426 151.201 285.292C146.069 282.159 142.382 277.124 140.944 271.285C140.184 268.216 140.109 265.017 140.725 261.915C141.342 258.814 142.634 255.886 144.51 253.341C146.387 250.796 148.801 248.695 151.581 247.189C154.362 245.683 157.44 244.808 160.597 244.627C161.112 244.591 161.628 244.57 162.143 244.542Z" fill="#E9E9E9"/>
<path d="M31.6827 67.4948C36.434 67.4665 41.0511 69.0693 44.7628 72.0355C48.4745 75.0018 51.0559 79.1518 52.076 83.7923C52.6293 86.3714 52.6517 89.0361 52.1419 91.6241C51.6321 94.2121 50.6007 96.6692 49.1106 98.8457C47.6205 101.022 45.7029 102.873 43.4745 104.284C41.2462 105.695 38.7539 106.638 36.1493 107.056C32.8585 107.651 29.4713 107.42 26.2916 106.384C23.1119 105.348 20.2391 103.539 17.9311 101.119C15.3533 98.574 13.5285 95.3668 12.6579 91.8508C11.7874 88.3348 11.9049 84.6467 12.9975 81.1933C14.0902 77.7399 16.1155 74.6553 18.85 72.28C21.5846 69.9047 24.9221 68.3308 28.4944 67.732C29.5447 67.5317 30.6144 67.4522 31.6827 67.4948Z" fill="#E9E9E9"/>
</g>
</g>
<defs>
<clipPath id="clip0_1425_10450">
<rect width="320" height="320" fill="white"/>
</clipPath>
<clipPath id="clip1_1425_10450">
<rect width="320" height="302.41" fill="white" transform="translate(0 18)"/>
</clipPath>
</defs>
</svg>
