<svg width="320" height="320" viewBox="0 0 320 320" fill="none" xmlns="http://www.w3.org/2000/svg">
<g clip-path="url(#clip0_1423_4931)">
<rect width="320" height="320" fill="#DCFFE0"/>
<g clip-path="url(#clip1_1423_4931)">
<path d="M62.5552 154.438L97.502 109.811C103.213 102.519 108.973 101.714 117.766 101.714H205.369C214.162 101.714 219.921 102.519 225.633 109.811L259.967 155.777" stroke="#3C1F1B" stroke-width="0.5" stroke-miterlimit="2.6131"/>
<path d="M255.248 154.438H64.7528C59.7607 154.438 55.7139 158.485 55.7139 163.477V193.571C55.7139 198.563 59.7607 202.61 64.7528 202.61H255.248C260.24 202.61 264.287 198.563 264.287 193.571V163.477C264.287 158.485 260.24 154.438 255.248 154.438Z" fill="#3C1F1B" stroke="#3C1F1B" stroke-width="0.5" stroke-miterlimit="2.6131"/>
<path fill-rule="evenodd" clip-rule="evenodd" d="M221.542 138.37L204.753 115.953C200.894 111.026 197.002 110.482 191.062 110.482H135.985C130.044 110.482 126.153 111.026 122.294 115.953L102.14 141.69H219.056C221.893 141.69 223.994 141.647 221.542 138.37Z" fill="#DCCDB3" stroke="#3C1F1B" stroke-width="0.5" stroke-miterlimit="2.6131"/>
<path d="M195.19 123.637H158.657" stroke="#3C1F1B" stroke-opacity="0.61" stroke-width="0.72" stroke-miterlimit="2.6131"/>
<path d="M162.583 123.637V138.402" stroke="#3C1F1B" stroke-opacity="0.61" stroke-width="0.72" stroke-miterlimit="2.6131"/>
<path d="M187.912 169.756L188.03 170.027L188.323 170.055L195.877 170.78L197.531 181.63L190.525 184.57L190.254 184.684L190.222 184.977C189.932 187.641 189.286 190.255 188.302 192.748L188.193 193.023L188.382 193.251L193.23 199.105L186.719 207.954L179.701 205.067L179.425 204.953L179.195 205.141C177.116 206.833 174.811 208.224 172.345 209.274L172.071 209.391L172.044 209.688L171.335 217.254L160.464 218.91L157.531 211.897L157.417 211.625L157.123 211.593C154.458 211.306 151.844 210.66 149.352 209.673L149.077 209.564L148.849 209.753L143.002 214.601L134.147 208.097L137.028 201.08L137.14 200.807L136.955 200.577C135.271 198.484 133.876 196.174 132.808 193.709L132.69 193.438L132.396 193.41L124.838 192.7L123.175 181.838L130.181 178.913L130.454 178.799L130.486 178.505C130.773 175.836 131.415 173.218 132.396 170.72L132.504 170.445L132.316 170.218L127.484 164.376L133.996 155.527L141.02 158.399L141.293 158.511L141.523 158.326C143.609 156.646 145.912 155.255 148.37 154.19L148.641 154.072L148.669 153.778L149.386 146.219L160.257 144.562L163.182 151.569L163.295 151.841L163.589 151.873C166.255 152.165 168.871 152.808 171.369 153.785L171.642 153.892L171.869 153.705L177.72 148.879L186.562 155.392L183.689 162.409L183.576 162.683L183.763 162.913C185.451 164.995 186.847 167.297 187.912 169.756ZM163.575 202.858L163.575 202.858C169.174 202 174.203 198.955 177.558 194.392C180.914 189.829 182.321 184.12 181.47 178.521L181.47 178.52C180.833 174.344 178.972 170.45 176.122 167.332C173.272 164.213 169.561 162.01 165.459 161C161.357 159.99 157.047 160.22 153.075 161.659C149.104 163.099 145.648 165.684 143.145 169.087C140.642 172.491 139.205 176.56 139.015 180.781C138.825 185.001 139.891 189.183 142.078 192.798C144.264 196.413 147.474 199.298 151.3 201.088C155.127 202.879 159.398 203.495 163.575 202.858Z" fill="#DCCDB3" stroke="#3C1F1B"/>
</g>
<g style="mix-blend-mode:hue">
<rect width="320" height="320" fill="#00BF13"/>
</g>
</g>
<defs>
<clipPath id="clip0_1423_4931">
<rect width="320" height="320" fill="white"/>
</clipPath>
<clipPath id="clip1_1423_4931">
<rect width="210" height="118.464" fill="white" transform="translate(55 101)"/>
</clipPath>
</defs>
</svg>
