<svg width="320" height="320" viewBox="0 0 320 320" fill="none" xmlns="http://www.w3.org/2000/svg">
<g clip-path="url(#clip0_1444_451)">
<rect width="320" height="320" fill="#DCFFE0"/>
<g clip-path="url(#clip1_1444_451)">
<path d="M30.4381 116.881C30.9467 115.645 31.8472 114.61 33.0011 113.937C35.3337 112.477 37.9063 111.443 40.5997 110.882C44.169 110.108 47.8024 109.668 51.4529 109.566C55.0686 109.375 58.6929 109.421 62.3027 109.702C63.948 109.838 65.5532 110.282 67.0348 111.011C67.575 111.237 68.035 111.62 68.3552 112.111C68.6755 112.601 68.8412 113.177 68.831 113.763C68.8441 114.472 68.9639 115.178 69.0089 115.887C69.0334 116.273 69.2036 116.354 69.5698 116.333C71.4328 116.227 71.471 116.199 71.3502 114.319C71.3005 113.545 71.2631 112.768 71.1587 112.001C71.0981 111.486 71.1566 110.963 71.3295 110.474C71.5025 109.985 71.7853 109.542 72.1563 109.179C72.9829 108.309 73.9816 107.621 75.0887 107.158C78.1349 105.735 81.3474 104.7 84.651 104.076C89.074 103.278 93.5706 102.963 98.0617 103.136C100.131 103.182 102.19 103.441 104.206 103.907C105.316 104.141 106.358 104.625 107.253 105.323C107.552 105.54 107.795 105.826 107.962 106.157C108.128 106.488 108.213 106.853 108.209 107.223C108.22 108.451 108.317 109.677 108.346 110.904C108.357 111.375 108.539 111.508 108.996 111.477C110.644 111.365 110.375 111.502 110.338 110.098C110.271 107.546 110.172 104.995 110.081 102.444C110.006 101.925 110.137 101.398 110.446 100.976C110.755 100.553 111.217 100.268 111.733 100.182C112.781 99.9817 113.845 99.8865 114.912 99.8976C118.39 99.6255 121.872 99.4019 125.353 99.177C128.158 98.9959 130.964 98.8143 133.771 98.6773C147.075 98.0284 160.387 97.8792 173.702 98.0883C181.877 98.2166 190.048 98.4958 198.21 98.9852C202.692 99.2539 207.176 99.5203 211.654 99.8527C216.422 100.207 221.184 100.636 225.942 101.107C230.346 101.542 234.746 102.014 239.138 102.557C243.593 103.108 248.042 103.705 252.486 104.348C258.624 105.227 264.741 106.239 270.836 107.385C274.676 108.104 278.514 108.834 282.327 109.691C283.884 110.035 285.297 110.853 286.371 112.033C287.807 113.494 288.807 115.327 289.26 117.325C289.501 118.824 289.514 120.351 289.297 121.854C288.897 125.937 288.522 130.023 288.111 134.105C288.062 134.59 288.201 134.726 288.658 134.756C289.269 134.796 289.877 134.894 290.482 134.994C291.599 135.159 292.655 135.606 293.551 136.292C293.745 135.959 293.821 135.57 293.766 135.189C293.903 132.058 294.052 128.926 294.142 125.794C294.137 125.456 294.218 125.123 294.376 124.824C294.534 124.526 294.766 124.273 295.048 124.089C295.635 123.685 296.284 123.381 296.97 123.189C301.359 121.917 305.955 121.521 310.496 122.022C313.487 122.305 316.458 122.754 319.421 123.248C319.613 123.27 319.807 123.281 320 123.281V124.445C319.612 124.614 319.176 124.641 318.77 124.52C315.802 124.074 312.836 123.59 309.845 123.337C305.624 122.924 301.362 123.331 297.295 124.535C297.08 124.594 296.878 124.691 296.697 124.821C297.262 125.183 297.909 125.398 298.579 125.447C301.819 126.034 305.08 126.496 308.331 127.019C311.773 127.571 315.217 128.112 318.659 128.664C319.157 128.743 319.714 128.742 320 129.293V130.263C319.802 130.373 319.582 130.438 319.356 130.455C319.13 130.471 318.903 130.439 318.691 130.359C312.119 129.308 305.546 128.264 298.972 127.228C298.077 127.091 297.195 126.875 296.339 126.581C295.835 126.406 295.532 126.49 295.502 127.096C295.475 127.644 295.335 128.183 295.335 128.734C295.336 132.739 294.943 136.73 294.921 140.735C294.915 141.797 294.72 142.853 294.736 143.924C294.765 145.86 294.743 145.869 296.6 146.232C303.893 147.659 311.193 149.052 318.481 150.503C319.036 150.613 319.667 150.602 320 151.209V152.179C319.115 152.521 318.291 152.078 317.447 151.962C315.053 151.634 315.384 151.215 315.163 153.823C314.995 155.806 315.012 157.809 314.946 159.802C314.886 161.603 314.809 163.403 314.714 165.202C314.682 165.367 314.686 165.538 314.727 165.701C314.768 165.865 314.844 166.017 314.95 166.148C315.057 166.279 315.19 166.385 315.342 166.458C315.494 166.531 315.66 166.57 315.828 166.572C316.813 166.734 317.767 167.046 318.748 167.238C318.989 167.259 319.224 167.327 319.439 167.439C319.654 167.55 319.844 167.703 320 167.889V168.859C319.548 169.224 319.071 169.006 318.61 168.901C310.764 167.109 302.926 165.282 295.075 163.517C293.04 163.059 293.2 162.876 293.041 164.997C292.798 168.215 292.662 171.442 292.426 174.662C292.287 176.56 292.599 176.877 294.444 177.318C302.617 179.271 310.792 181.217 318.968 183.155C319.178 183.173 319.381 183.24 319.56 183.35C319.739 183.461 319.89 183.613 320 183.793V184.762C319.571 185.08 319.126 184.887 318.699 184.778C317.291 184.419 315.868 184.129 314.456 183.788C313.561 183.572 313.38 183.695 313.376 184.592C313.36 188.11 312.995 191.612 312.971 195.128C312.973 195.742 312.924 196.354 312.825 196.96C312.776 197.114 312.763 197.278 312.786 197.439C312.809 197.599 312.867 197.753 312.957 197.888C313.047 198.022 313.166 198.135 313.305 198.218C313.445 198.301 313.601 198.352 313.762 198.366C315.454 198.785 317.136 199.24 318.81 199.73C319.051 199.758 319.282 199.839 319.488 199.967C319.694 200.095 319.869 200.268 320 200.472V201.442C319.772 201.524 319.529 201.561 319.287 201.549C319.044 201.537 318.807 201.478 318.587 201.374C310.145 199.065 301.693 196.794 293.252 194.48C292.501 194.274 292.262 194.408 292.236 195.156C292.194 196.351 292.214 197.545 292.212 198.74C292.21 200.228 292.011 201.701 291.913 203.183C291.784 203.879 291.734 204.586 291.762 205.293C291.739 205.592 291.792 206.055 291.372 206.033C290.992 206.014 291.026 205.57 291.009 205.256C290.836 202.111 291.01 198.966 291.013 195.82C290.959 194.956 290.981 194.088 291.079 193.227C291.014 192.943 291.017 192.647 291.087 192.363C291.157 192.08 291.293 191.817 291.483 191.596C291.919 191.111 291.663 190.549 291.661 190.019C291.66 189.802 291.43 189.706 291.247 189.665C290.153 189.371 289.023 189.238 287.891 189.272C287.183 189.321 287.054 189.516 287.088 190.306C287.302 195.246 287.52 200.186 287.741 205.125C287.776 205.933 287.815 206.74 287.821 207.548C287.859 208.28 287.687 209.008 287.326 209.645C286.965 210.283 286.429 210.804 285.782 211.147C284.729 211.723 283.558 212.048 282.358 212.099C280.355 212.197 278.347 212.045 276.381 211.648C273.936 211.203 271.495 210.73 269.048 210.29C267.103 209.941 265.237 209.299 263.335 208.794C254.621 206.48 245.806 204.642 236.917 203.149C230.578 202.084 224.216 201.179 217.833 200.432C211.865 199.728 205.886 199.144 199.895 198.678C194.709 198.274 189.517 197.965 184.321 197.7C172.113 197.077 159.898 197.02 147.68 197.221C142.316 197.31 136.956 197.506 131.597 197.812C126.791 198.084 121.986 198.389 117.188 198.774C111.167 199.258 105.158 199.869 99.1615 200.606C92.4279 201.428 85.7171 202.398 79.0378 203.579C67.4113 205.534 55.9393 208.317 44.7092 211.908C42.9919 212.473 41.29 213.085 39.5879 213.695C38.755 214.072 37.821 214.164 36.9308 213.955C36.0407 213.747 35.2443 213.25 34.6653 212.542C34.224 212.886 33.7691 213.23 33.3271 213.589C32.1374 214.588 30.8246 215.43 29.4209 216.094C26.525 217.385 23.2497 217.538 20.2466 216.521C19.1032 216.175 18.8907 215.813 18.8591 214.618C18.7909 212.033 18.7326 209.448 18.6616 206.864C18.6387 206.029 18.6246 206.006 17.7773 206.073C13.9769 206.371 10.1781 206.689 6.37781 206.988C4.25281 207.156 2.12601 207.3 2e-05 207.454V206.484C0.500095 206.117 1.1137 205.939 1.73233 205.981C6.14045 205.676 10.539 205.251 14.9463 204.938C15.7506 204.881 16.5481 204.737 17.3574 204.743C17.9567 204.748 18.2365 204.461 18.2411 203.855C18.3029 202.436 18.2902 201.014 18.2031 199.596C18.0807 198.441 18.0354 197.279 18.0675 196.117C18.1727 193.177 17.7758 190.251 17.8629 187.313C17.8832 186.628 17.6751 186.357 16.9057 186.401C12.2696 186.669 7.6409 187.055 3.00234 187.282C2.42234 187.31 1.85374 187.46 1.26876 187.445C1.04428 187.473 0.816588 187.456 0.598828 187.394C0.381068 187.333 0.177545 187.23 0 187.09L0 186.12C1.04166 185.693 2.1673 185.51 3.29044 185.586C4.83098 185.465 6.37892 185.411 7.91629 185.257C8.91087 185.157 9.00215 184.985 8.87073 183.999C8.76969 183.263 8.73256 182.52 8.75973 181.779C8.87973 178.809 8.48443 175.853 8.55773 172.885C8.57373 172.237 8.36097 171.969 7.64394 172.039C5.49499 172.246 3.3436 172.436 1.18894 172.583C0.985779 172.633 0.774013 172.639 0.568582 172.598C0.363151 172.558 0.16906 172.473 0 172.35L0 171.38C0.423345 171.021 0.966188 170.835 1.52057 170.858C6.37463 170.501 11.2156 169.99 16.0698 169.634C17.4128 169.536 17.5127 169.409 17.3578 168.11C17.2705 167.276 17.2493 166.435 17.2946 165.597C17.404 162.82 17.0823 160.056 17.0835 157.283C17.084 156.323 16.9114 156.159 15.9117 156.262C13.4425 156.517 10.9658 156.679 8.49532 156.914C6.0567 157.147 3.61219 157.311 1.17373 157.546C0.96635 157.585 0.752849 157.576 0.549463 157.519C0.346076 157.463 0.158159 157.361 0 157.222L0 156.252C0.702257 155.848 1.50937 155.664 2.31714 155.724C3.85845 155.59 5.39982 155.45 6.94295 155.343C7.48957 155.305 7.62965 155.135 7.62307 154.587C7.58087 151.072 7.28598 147.563 7.38513 144.046C7.3723 143.594 7.32609 143.144 7.2469 142.699C7.10146 141.484 7.055 141.388 5.80125 141.523C4.48502 141.665 3.16013 141.631 1.84713 141.808C1.53701 141.903 1.20942 141.925 0.889325 141.874C0.569226 141.823 0.265061 141.699 0 141.512L0 140.542C0.941057 140.115 1.97641 139.939 3.00568 140.03C7.18979 139.76 11.3692 139.417 15.5563 139.192C16.5507 139.139 16.7968 138.901 16.6761 137.926C16.3022 134.903 16.6431 131.864 16.4004 128.833C16.2929 127.854 16.5109 126.867 17.0207 126.024C17.5305 125.182 18.3036 124.531 19.2203 124.172C20.299 123.648 21.474 123.351 22.6722 123.301C23.8703 123.25 25.066 123.447 26.1849 123.88C26.8032 124.158 27.4423 124.388 28.0964 124.568C28.8426 124.723 29.0332 124.546 29.003 123.789C28.9541 122.563 28.8104 121.344 28.7433 120.12C28.7137 119.581 28.5483 119.382 27.9688 119.495C24.6977 120.134 21.3649 120.208 18.0583 120.518C13.8829 120.908 9.70313 121.256 5.52433 121.61C4.01343 121.739 2.50143 121.854 0.99224 122.002C0.81702 122.035 0.636611 122.028 0.464692 121.98C0.292774 121.933 0.13386 121.847 0 121.729L0 120.76C0.428682 120.406 0.972752 120.223 1.52779 120.247C9.41585 119.627 17.2915 118.86 25.1797 118.241C25.8898 118.205 26.5951 118.105 27.287 117.94C27.5623 117.867 27.9051 117.804 27.9695 117.477C28.0438 117.098 27.7145 116.901 27.4507 116.733C26.7483 116.33 25.9821 116.049 25.1853 115.904C22.6248 115.356 20.0224 115.028 17.4063 114.921C15.2472 114.795 13.0879 114.672 10.9199 114.696C7.65457 114.674 4.39731 115.023 1.21044 115.735C0.8118 115.831 0.39872 116.011 0 115.717V114.553C0.64227 114.502 1.27582 114.372 1.88651 114.166C4.69962 113.583 7.56845 113.313 10.4409 113.36C14.3447 113.304 18.2479 113.509 22.1245 113.973C23.3379 114.129 24.5393 114.381 25.7432 114.605C26.057 114.679 26.3668 114.768 26.6714 114.874C28.736 115.485 30.0319 116.73 30.0758 119.006C30.4046 120.555 30.5246 122.142 30.4325 123.723C30.5552 121.647 30.1043 119.741 30.3515 117.826C30.392 117.513 30.2766 117.184 30.4381 116.881Z" fill="#5D4E47"/>
<path d="M291.675 202.996C291.927 199.95 291.772 196.884 292.054 193.819C295.867 194.854 299.59 195.868 303.314 196.877C308.756 198.351 314.198 199.824 319.641 201.297C319.763 201.338 319.883 201.386 320 201.442V220.836C319.619 221.16 319.201 221.018 318.801 220.909C310.549 218.656 302.298 216.397 294.048 214.133C293.452 213.981 292.882 213.741 292.356 213.422C292.037 213.263 291.763 213.024 291.562 212.728C291.362 212.432 291.24 212.09 291.21 211.734C290.891 208.795 291.564 205.91 291.675 202.996Z" fill="#DCCDB3"/>
<path d="M320 151.209C318.506 150.814 316.993 150.494 315.467 150.252C310.344 149.238 305.215 148.255 300.089 147.26C298.538 146.96 296.988 146.659 295.437 146.359C294.383 146.155 294.387 146.153 294.38 145.132C294.362 142.612 294.579 140.099 294.654 137.582C294.698 136.134 294.685 134.675 294.82 133.232C295.038 130.883 294.903 128.521 295.172 126.177C295.197 126.071 295.233 125.968 295.279 125.869C296.37 126.263 297.487 126.578 298.624 126.809C301.331 127.221 304.032 127.681 306.736 128.117C309.472 128.557 312.207 129.008 314.946 129.425C316.635 129.682 318.327 129.91 320 130.263L320 151.209Z" fill="#DCCDB3"/>
<path d="M320 183.792C318.251 183.354 316.506 182.901 314.753 182.482C310.774 181.53 306.792 180.587 302.808 179.653C299.83 178.95 296.851 178.248 293.873 177.546C293.621 177.49 293.373 177.418 293.13 177.329C292.819 177.231 292.548 177.036 292.355 176.773C292.163 176.509 292.06 176.191 292.062 175.864C292.058 175.735 292.061 175.606 292.07 175.477C292.252 172.714 292.445 169.952 292.613 167.188C292.686 165.966 292.656 164.738 292.828 163.522C292.806 163.242 292.866 162.963 292.999 162.716C294.256 162.994 295.542 163.27 296.823 163.564C304.485 165.321 312.147 167.08 319.807 168.841C319.871 168.852 319.936 168.857 320 168.859V183.792Z" fill="#DCCDB3"/>
<path d="M5e-05 121.729C1.95734 121.55 3.91414 121.365 5.87205 121.193C7.57372 121.043 9.27705 120.912 10.9789 120.765C13.0336 120.587 15.0871 120.396 17.1417 120.219C18.8437 120.072 20.5469 119.941 22.2489 119.795C23.8548 119.657 25.4614 119.525 27.0641 119.356C27.5455 119.297 28.0157 119.168 28.4599 118.973C28.9513 118.767 29.0488 118.824 29.0665 119.326C29.0995 120.261 29.1675 121.192 29.2657 122.123C29.3366 122.795 29.2956 123.473 29.4255 124.147C29.5557 124.824 29.3521 125.007 28.65 125.037C28.0985 125.023 27.5588 124.875 27.0771 124.606C25.6552 123.894 24.0729 123.564 22.4854 123.649C21.2587 123.739 20.0642 124.083 18.9777 124.66C18.2046 125.05 17.573 125.673 17.1714 126.441C16.7697 127.209 16.6182 128.083 16.7381 128.941C16.8571 130.556 16.8389 132.167 16.8709 133.78C16.9023 135.361 16.9268 136.941 17.0385 138.52C17.0968 139.344 17.0421 139.351 16.2105 139.497C16.0193 139.527 15.8265 139.545 15.6331 139.551C12.8643 139.685 10.1024 139.924 7.33701 140.102C5.92201 140.193 4.50806 140.332 3.08778 140.365C2.05766 140.39 1.03678 140.609 0 140.542L5e-05 121.729Z" fill="#DCCDB3"/>
<path d="M0 187.089C1.8395 187.113 3.66388 186.893 5.49293 186.748C6.55225 186.664 7.61619 186.618 8.67486 186.561C10.09 186.485 11.5006 186.337 12.9187 186.29C14.3966 186.24 15.8714 186.086 17.3461 185.961C18.0947 185.897 18.1901 185.961 18.2198 186.697C18.2263 186.858 18.2241 187.02 18.2254 187.181C18.2556 190.922 18.4177 194.659 18.4897 198.399C18.5256 200.265 18.5721 202.133 18.6293 204.004C18.6576 204.965 18.561 205.038 17.6112 205.106C14.7541 205.311 11.8948 205.49 9.04149 205.738C6.63709 205.948 4.23526 206.178 1.82558 206.326C1.21824 206.363 0.61478 206.497 0 206.484L0 187.089Z" fill="#DCCDB3"/>
<path d="M3e-05 157.222C1.42189 157.226 2.82673 157.016 4.2384 156.89C5.26555 156.798 6.29421 156.724 7.32227 156.643C9.18591 156.496 11.0501 156.357 12.9131 156.201C14.1326 156.1 15.3486 155.95 16.5694 155.87C17.4229 155.814 17.4458 155.851 17.4524 156.701C17.4791 160.091 17.742 163.476 17.6635 166.867C17.6462 167.616 17.8097 168.344 17.8184 169.086C17.8262 169.748 17.8168 169.77 17.1298 169.842C15.7847 169.983 14.4367 170.097 13.09 170.223C11.2306 170.398 9.3714 170.574 7.51224 170.75C6.71047 170.827 5.9067 170.84 5.10273 170.938C3.409 171.144 1.70173 171.239 0 171.38L3e-05 157.222Z" fill="#DCCDB3"/>
<path d="M0 115.717C2.32521 115.049 4.71629 114.637 7.13083 114.488C9.29445 114.35 11.4571 114.311 13.6149 114.388C17.4863 114.418 21.3471 114.797 25.1506 115.52C25.8112 115.67 26.4596 115.869 27.0902 116.116C27.5133 116.28 27.9 116.525 28.2282 116.838C28.8426 117.418 28.781 117.76 27.9857 118.111C27.0994 118.414 26.1699 118.572 25.2332 118.578C21.5451 118.935 17.852 119.241 14.1595 119.552C11.4617 119.778 8.76109 119.972 6.06339 120.199C4.04091 120.37 2.02105 120.572 2e-05 120.76L0 115.717Z" fill="#E5E4E1"/>
<path d="M0 172.35C2.69211 172.104 5.38419 171.857 8.07622 171.611C8.82813 171.541 8.88751 171.582 8.90681 172.374C8.9892 175.756 9.06081 179.139 9.14875 182.52C9.16798 183.26 9.25685 183.998 9.27956 184.738C9.30256 185.485 9.28436 185.49 8.57133 185.56C6.7134 185.743 4.85068 185.854 2.98613 185.947C1.99057 185.996 1.00175 186.168 0 186.12L0 172.35Z" fill="#E5E4E1"/>
<path d="M0 141.512C1.74405 141.502 3.47619 141.303 5.21346 141.185C5.76079 141.148 6.30927 141.119 6.85766 141.108C7.54256 141.094 7.5393 141.114 7.5962 141.794C7.7632 143.791 7.74982 145.794 7.77678 147.794C7.81155 150.374 8.02664 152.948 7.96057 155.621L0 156.252V141.512Z" fill="#E5E4E1"/>
<path d="M320 200.472C318.245 199.822 316.41 199.451 314.618 198.931C314.123 198.787 313.628 198.641 313.124 198.534C312.635 198.43 312.399 198.187 312.454 197.666C312.634 195.965 312.588 194.253 312.702 192.549C312.743 191.939 312.781 191.329 312.803 190.717C312.88 188.559 312.96 186.401 313.044 184.243C313.046 184.114 313.056 183.986 313.074 183.858C313.174 183.224 313.277 183.135 313.896 183.282C315.933 183.767 317.966 184.267 320 184.762V200.472Z" fill="#E5E4E1"/>
<path d="M320 129.293C319.038 129.031 318.056 128.847 317.064 128.744C313.06 128.08 309.05 127.456 305.041 126.821C302.877 126.479 300.71 126.159 298.549 125.801C297.605 125.648 296.688 125.365 295.822 124.958C296.136 124.583 296.572 124.33 297.053 124.244C298.838 123.681 300.673 123.294 302.533 123.09C306.128 122.703 309.759 122.806 313.327 123.395C315.302 123.697 317.281 123.969 319.26 124.246C319.517 124.263 319.769 124.33 320 124.445V129.293Z" fill="#E5E4E1"/>
<path d="M320 167.889C318.372 167.508 316.743 167.132 315.116 166.744C314.378 166.568 314.355 166.556 314.385 165.776C314.484 163.173 314.612 160.57 314.712 157.966C314.756 156.807 314.748 155.647 314.787 154.488C314.818 153.556 314.895 152.626 314.931 151.694C314.945 151.314 315.11 151.152 315.473 151.237C316.974 151.587 318.519 151.728 320 152.179V167.889Z" fill="#E5E4E1"/>
<path d="M291.479 211.911C291.593 212.284 291.8 212.621 292.08 212.891C292.36 213.161 292.705 213.356 293.081 213.456C294.958 214.145 296.912 214.574 298.836 215.105C304.983 216.802 311.134 218.485 317.289 220.155C318.171 220.46 319.079 220.688 320 220.836V222C317.983 221.311 315.907 220.829 313.855 220.264C307.197 218.429 300.535 216.605 293.871 214.79C293.467 214.677 293.07 214.541 292.681 214.382C291.92 214.177 291.268 213.683 290.864 213.006C290.459 212.329 290.332 211.522 290.511 210.753C290.632 210.397 290.713 210.028 290.751 209.654C290.811 209.426 290.943 209.187 291.177 209.203C291.5 209.225 291.374 209.54 291.389 209.737C291.355 210.463 291.385 211.191 291.479 211.911Z" fill="#5E4F47"/>
<path d="M291.479 211.911C291.151 211.516 291.334 211.047 291.302 210.611C291.274 210.229 291.296 209.843 291.296 209.377C290.731 209.727 290.925 210.417 290.511 210.753C290.533 209.501 290.544 208.248 290.58 206.996C290.697 202.819 290.82 198.642 290.949 194.465C290.909 194.048 290.954 193.627 291.079 193.228C291.087 195.961 291.08 198.694 291.109 201.427C291.125 202.895 291.425 204.35 291.351 205.829C291.481 205.231 291.528 204.618 291.491 204.007C291.515 203.664 291.391 203.292 291.675 202.996C291.808 205.173 291.464 207.336 291.498 209.511C291.511 210.311 291.487 211.111 291.479 211.911Z" fill="#685A51"/>
<path d="M30.4379 116.881C30.3639 119.274 30.6505 121.653 30.7344 124.04C30.7388 124.166 30.7886 124.293 30.6759 124.398C30.2891 123.951 29.9959 121.319 30.0757 119.006C30.3644 118.668 30.202 118.264 30.2371 117.889C30.2693 117.546 30.1421 117.172 30.4379 116.881Z" fill="#DBCEB8"/>
<path d="M288.255 120.492C288.387 120.772 288.416 121.089 288.335 121.388C288.162 123.151 287.986 124.914 287.808 126.677C287.632 128.44 287.451 130.202 287.284 131.966C287.186 132.993 287.078 134.021 287.029 135.05C287.055 135.683 286.886 136.308 286.545 136.841C286.205 137.374 285.709 137.79 285.125 138.033C283.161 138.891 281.001 139.199 278.876 138.927C277.018 138.729 275.17 138.449 273.317 138.212C272.294 138.082 271.273 137.902 270.246 137.856C268.425 137.776 267.691 138.49 267.67 140.305C267.637 143.246 267.708 146.19 267.603 149.128C267.44 153.715 267.551 158.305 267.383 162.888C267.253 166.409 267.353 169.931 267.22 173.448C267.056 177.776 267.098 182.105 267.015 186.432C266.984 188.037 267.695 188.436 268.812 188.779C270.011 189.035 271.23 189.179 272.455 189.21C274.344 189.425 276.238 189.615 278.134 189.74C279.478 189.92 280.833 190.006 282.188 189.998C282.836 189.95 283.482 190.106 284.036 190.445C284.502 190.739 285.013 190.955 285.548 191.086C285.92 191.166 286.051 191.372 286.126 191.737C286.246 192.699 286.291 193.669 286.26 194.637C286.399 197.602 286.557 200.567 286.63 203.534C286.662 204.859 286.846 206.171 286.835 207.497C286.869 208.098 286.721 208.695 286.409 209.21C286.098 209.725 285.638 210.133 285.09 210.382C284.157 210.83 283.143 211.084 282.109 211.127C279.526 211.15 276.951 210.862 274.437 210.27C271.993 209.835 269.55 209.387 267.139 208.8C264.851 208.243 262.592 207.571 260.31 206.988C254.872 205.596 249.388 204.411 243.871 203.385C240.291 202.719 236.704 202.082 233.109 201.504C230.183 201.033 227.241 200.658 224.304 200.262C221.462 199.878 218.62 199.497 215.773 199.16C213.661 198.91 211.541 198.73 209.424 198.524C206.891 198.278 204.357 198.036 201.823 197.798C200.957 197.718 200.087 197.693 199.219 197.6C197.842 197.452 196.451 197.437 195.067 197.345C192.559 197.177 190.052 196.99 187.544 196.82C187.093 196.789 186.639 196.803 186.187 196.786C182.221 196.633 178.254 196.483 174.287 196.337C170.054 196.175 165.825 196.209 161.594 196.187C156.461 196.16 151.327 196.155 146.195 196.249C143.97 196.289 141.74 196.336 139.516 196.439C136.745 196.567 133.974 196.699 131.202 196.819C128.079 196.954 124.959 197.18 121.839 197.396C119.428 197.562 117.015 197.727 114.612 197.979C111.664 198.288 108.711 198.535 105.764 198.861C103.747 199.084 101.73 199.324 99.7098 199.524C98.0749 199.685 96.4459 199.911 94.8178 200.135C92.7114 200.424 90.607 200.728 88.5046 201.046C85.8605 201.448 83.2145 201.843 80.5788 202.296C75.7496 203.127 70.9406 204.064 66.1519 205.108C61.4552 206.136 56.7919 207.297 52.1622 208.592C47.8714 209.798 43.6312 211.161 39.4415 212.68C38.6511 213.07 37.7455 213.157 36.8952 212.925C35.8686 212.554 35.7044 212.319 35.6615 211.25C35.5057 207.376 35.5676 203.497 35.4257 199.625C35.3465 197.462 35.3587 195.299 35.2821 193.137C35.2439 192.06 34.6976 191.543 33.6197 191.651C33.1021 191.692 32.6001 191.848 32.1495 192.106C31.8358 192.273 31.5307 192.455 31.2354 192.653C28.9651 194.34 26.3726 194.547 23.6725 194.382C22.6155 194.318 21.5483 194.42 20.4857 194.447C20.2596 194.452 20.0334 194.461 19.8074 194.459C19.7508 194.463 19.6939 194.455 19.6407 194.435C19.5875 194.415 19.5393 194.384 19.4994 194.344C19.4595 194.303 19.429 194.254 19.4099 194.201C19.3908 194.147 19.3836 194.09 19.3888 194.034C19.3838 193.937 19.3783 193.84 19.3767 193.743C19.3322 191.128 19.221 188.515 19.1611 185.9C19.088 182.704 19.0938 179.503 18.945 176.312C18.829 173.825 18.9286 171.335 18.7678 168.856C18.5941 166.176 18.7316 163.491 18.564 160.819C18.4181 158.493 18.4539 156.17 18.4076 153.846C18.3543 153.508 18.3781 153.163 18.4771 152.835C18.576 152.508 18.7476 152.207 18.9791 151.955C19.2105 151.703 19.4958 151.507 19.8137 151.381C20.1315 151.256 20.4736 151.203 20.8146 151.228C22.4578 151.131 24.1067 151.215 25.7316 151.478C28.1409 151.884 30.6168 151.483 32.7742 150.335C33.0298 150.197 33.2657 150.025 33.4756 149.824C34.6473 148.749 34.486 147.635 33.0607 146.912C32.9181 146.836 32.7671 146.777 32.6109 146.737C32.5139 146.727 32.42 146.697 32.3354 146.648C32.2509 146.599 32.1777 146.533 32.1207 146.454C32.0636 146.375 32.024 146.284 32.0045 146.189C31.985 146.093 31.986 145.994 32.0075 145.899C32.0093 145.867 32.0091 145.835 32.0069 145.802C32.0049 142.475 31.7914 139.154 31.7601 135.826C31.7404 133.73 31.6045 131.633 31.5946 129.534C31.59 128.553 31.5885 128.535 32.5125 128.256C37.5178 126.742 42.5795 125.442 47.6698 124.246C53.542 122.867 59.4534 121.675 65.3908 120.625C69.6427 119.873 73.9027 119.156 78.1863 118.592C81.7641 118.12 85.3324 117.577 88.9113 117.115C91.4041 116.793 93.9078 116.556 96.4064 116.279C98.5844 116.037 100.76 115.774 102.94 115.557C104.672 115.384 106.411 115.273 108.145 115.122C110.071 114.954 111.997 114.769 113.923 114.597C114.886 114.511 115.855 114.472 116.819 114.412C118.106 114.333 119.391 114.211 120.68 114.146C123.449 114.006 126.214 113.781 128.982 113.62C130.335 113.541 131.692 113.47 133.043 113.435C135.754 113.365 138.464 113.222 141.174 113.13C143.368 113.055 145.565 113.07 147.757 112.966C154.41 112.65 161.067 112.825 167.722 112.784C171.181 112.763 174.641 112.742 178.097 112.838C180.809 112.914 183.523 112.926 186.231 113.052C187.909 113.13 189.588 113.123 191.263 113.22C194.098 113.383 196.936 113.474 199.771 113.621C201.929 113.734 204.089 113.841 206.242 114.007C209.328 114.245 212.421 114.383 215.501 114.703C217.457 114.906 219.426 114.975 221.385 115.152C223.695 115.361 226.001 115.624 228.309 115.859C229.784 116.009 231.262 116.137 232.736 116.3C234.786 116.526 236.834 116.765 238.88 117.018C241.056 117.284 243.231 117.555 245.403 117.848C247.894 118.184 250.381 118.544 252.87 118.901C254.88 119.19 256.875 119.562 258.874 119.923C260.359 120.191 261.887 120.218 263.396 120.358C265.353 120.539 267.31 120.731 269.267 120.908C270.969 121.061 272.674 121.191 274.375 121.348C276.14 121.511 277.899 121.738 279.667 121.853C281.018 121.942 282.359 122.166 283.721 122.133C285.388 122.192 287.012 121.604 288.255 120.492Z" fill="#DCCDB3"/>
<path d="M162.839 99.0821C167.105 99.0821 171.371 99.0322 175.636 99.0962C179.867 99.1596 184.096 99.3097 188.324 99.4739C192.164 99.623 196.002 99.811 199.839 100.038C203.771 100.267 207.703 100.511 211.628 100.832C215.714 101.165 219.798 101.511 223.879 101.902C227.863 102.285 231.844 102.691 235.818 103.154C241.426 103.807 247.022 104.558 252.609 105.373C260.37 106.506 268.094 107.844 275.792 109.337C278.008 109.767 280.209 110.281 282.411 110.779C283.932 111.159 285.267 112.072 286.173 113.352C287.199 114.565 287.912 116.01 288.251 117.563C288.326 117.942 288.308 118.335 288.198 118.706C288.089 119.077 287.891 119.416 287.621 119.694C287.132 120.191 286.543 120.578 285.893 120.83C285.243 121.082 284.547 121.192 283.851 121.153C282.495 121.138 281.142 121.046 279.796 120.877C278.061 120.745 276.33 120.546 274.597 120.381C271.997 120.133 269.396 119.887 266.796 119.643C265.286 119.501 263.779 119.32 262.266 119.238C260.208 119.086 258.161 118.811 256.136 118.415C253.628 117.977 251.104 117.63 248.581 117.282C245.228 116.819 241.872 116.37 238.512 115.957C235.951 115.642 233.384 115.384 230.818 115.116C227.803 114.802 224.788 114.491 221.771 114.203C220.005 114.035 218.235 113.912 216.466 113.777C213.186 113.528 209.905 113.274 206.624 113.044C205.529 112.967 204.433 112.923 203.338 112.845C201.407 112.706 199.468 112.685 197.534 112.574C194.375 112.391 191.213 112.303 188.053 112.163C185.964 112.07 183.885 111.733 181.8 111.522C180.196 111.36 178.591 111.193 176.983 111.083C173.538 110.848 170.098 110.568 166.646 110.422C163.97 110.309 161.295 110.171 158.617 110.083C152.642 109.885 146.664 109.849 140.688 109.941C137.944 109.983 135.198 110.058 132.454 110.13C129.454 110.21 126.455 110.357 123.458 110.517C122.524 110.567 121.593 110.679 120.656 110.688C117.712 110.733 114.871 109.607 112.756 107.557C112.241 107.088 111.831 106.515 111.551 105.877C111.271 105.239 111.129 104.549 111.133 103.852C111.123 103.335 111.096 102.818 111.105 102.301C111.084 102.173 111.09 102.041 111.122 101.914C111.153 101.788 111.21 101.669 111.289 101.565C111.368 101.462 111.467 101.375 111.581 101.311C111.694 101.246 111.82 101.206 111.949 101.191C112.258 101.096 112.578 101.04 112.902 101.025C116.133 100.964 119.337 100.517 122.562 100.35C126.301 100.156 130.035 99.8621 133.774 99.6595C136.257 99.525 138.746 99.4911 141.23 99.3828C148.43 99.0692 155.634 98.9938 162.839 99.0821Z" fill="#E5E4E1"/>
<path d="M273.796 139.383C274.866 140.972 276.548 141.29 278.304 141.549C279.557 141.652 280.818 141.622 282.064 141.458C282.782 141.412 282.791 141.38 282.793 142.123C282.797 143.48 282.791 144.837 282.783 146.194C282.775 147.647 282.77 149.101 282.746 150.554C282.629 157.594 282.633 164.636 282.512 171.675C282.426 176.649 282.414 181.622 282.356 186.595C282.39 186.892 282.358 187.192 282.263 187.475C282.168 187.759 282.011 188.017 281.804 188.233C281.597 188.448 281.345 188.616 281.067 188.722C280.788 188.829 280.489 188.873 280.191 188.851C279.674 188.869 279.157 188.853 278.642 188.802C276.813 188.635 274.987 188.427 273.156 188.282C272.648 188.242 272.497 188.058 272.498 187.576C272.504 185.67 272.675 183.772 272.673 181.865C272.669 177.764 272.838 173.665 272.927 169.566C272.99 166.661 272.972 163.752 273.114 160.851C273.249 158.107 273.164 155.36 273.303 152.621C273.448 149.748 273.383 146.873 273.5 144.003C273.558 142.583 273.609 141.165 273.631 139.745C273.632 139.629 273.59 139.486 273.796 139.383Z" fill="#E5E4E1"/>
<path d="M282.515 188.969C282.824 188.664 283.059 188.292 283.2 187.881C283.342 187.47 283.387 187.032 283.331 186.601C283.322 183.272 283.283 179.941 283.387 176.614C283.564 170.927 283.44 165.238 283.587 159.553C283.735 153.833 283.698 148.114 283.765 142.395C283.781 141.07 283.793 141.085 285.118 140.858C285.623 140.744 286.148 140.752 286.649 140.881C286.973 140.93 287.268 141.095 287.479 141.345C287.691 141.595 287.805 141.913 287.801 142.24C287.914 143.338 287.953 143.363 289.096 143.467C290.35 143.582 291.6 143.733 292.854 143.837C293.262 143.871 293.436 144.024 293.416 144.432C293.518 145.428 293.361 146.434 292.961 147.352C292.724 147.887 292.63 148.474 292.689 149.057C292.68 151.707 292.656 154.358 292.638 157.008C292.637 157.202 292.631 157.396 292.636 157.59C292.647 157.989 292.528 158.18 292.064 158.102C291.11 157.943 290.145 157.851 289.189 157.706C288.9 157.628 288.597 157.619 288.304 157.68C288.011 157.742 287.736 157.872 287.504 158.061C287.271 158.249 287.086 158.49 286.964 158.764C286.842 159.037 286.787 159.336 286.803 159.635C286.628 161.765 286.736 163.902 286.595 166.026C286.452 168.19 286.492 170.354 286.413 172.516C286.341 174.462 286.779 175.252 289.113 175.642C289.304 175.678 289.496 175.702 289.69 175.713C290.548 175.738 291.271 175.931 291.354 176.976C291.358 177.008 291.374 177.038 291.398 177.061C292.258 177.844 292.113 178.878 292.031 179.855C291.832 182.211 291.918 184.57 291.856 186.927C291.846 187.314 291.829 187.701 291.804 188.088C291.775 188.545 291.54 188.689 291.089 188.599C290.115 188.367 289.116 188.256 288.115 188.267C287.858 188.273 287.602 188.305 287.352 188.362C286.645 188.541 286.09 188.887 286.063 189.716C286.05 190.139 285.835 190.215 285.491 190.066C285.165 189.925 284.842 189.777 284.529 189.611C283.919 189.238 283.228 189.018 282.515 188.969Z" fill="#E5E4E1"/>
<path d="M23.1452 195.434C24.4352 195.36 25.7218 195.402 27.0144 195.267C28.4652 195.134 29.8647 194.662 31.1009 193.891C31.5926 193.581 32.0883 193.277 32.5906 192.985C32.8655 192.813 33.1762 192.706 33.4989 192.672C34.1491 192.622 34.2867 192.731 34.3068 193.405C34.328 194.115 34.3247 194.826 34.3351 195.537C34.3957 199.67 34.578 203.802 34.5597 207.937C34.5554 208.906 34.735 209.865 34.7038 210.838C34.7117 211.007 34.6699 211.174 34.5837 211.32C34.4975 211.465 34.3705 211.582 34.2186 211.656C33.46 212.14 32.7851 212.754 32.0652 213.301C30.5838 214.51 28.86 215.387 27.0106 215.871C24.9869 216.334 22.8781 216.266 20.8883 215.674C19.9968 215.417 20.0341 215.396 19.9183 214.494C19.8275 213.562 19.7874 212.626 19.7981 211.689C19.7175 207.589 19.6521 203.488 19.5348 199.388C19.5043 198.325 19.3864 197.262 19.4144 196.196C19.4313 195.552 19.4897 195.464 20.142 195.443C21.142 195.409 22.144 195.434 23.1452 195.434Z" fill="#E5E4E1"/>
<path d="M17.9114 129.006C19.2904 129.305 20.6207 129.676 21.9822 129.934C24.5315 130.409 27.1636 130.137 29.5618 129.15C29.7121 129.091 29.8579 129.017 30.0124 128.973C30.4623 128.846 30.5919 128.928 30.6141 129.413C30.6436 130.058 30.6305 130.704 30.6449 131.35C30.7199 134.705 30.748 138.062 30.8958 141.413C30.9697 143.09 30.9567 144.768 31.061 146.441C31.094 146.729 31.0464 147.021 30.9237 147.283C30.801 147.546 30.6078 147.769 30.3659 147.928C29.3518 148.679 28.2095 149.24 26.9947 149.582C25.286 150.068 23.514 150.294 21.738 150.253C20.8978 150.24 20.0663 150.08 19.2813 149.78C18.9565 149.681 18.6745 149.476 18.4809 149.197C18.2873 148.918 18.1935 148.582 18.2147 148.243C18.1744 144.888 18.1307 141.531 17.9907 138.179C17.8735 135.373 17.8411 132.567 17.8062 129.76C17.7655 129.504 17.8021 129.242 17.9114 129.006Z" fill="#E5E4E1"/>
<path d="M171.196 111.809C170.714 111.809 170.232 111.808 169.75 111.809C163.384 111.823 157.017 111.801 150.652 111.87C147.909 111.899 145.166 111.971 142.423 112.086C140.713 112.16 139.001 112.154 137.295 112.256C134.525 112.421 131.751 112.5 128.981 112.652C126.792 112.772 124.604 112.913 122.414 113.033C119.646 113.186 116.88 113.394 114.116 113.611C111.096 113.847 108.073 114.072 105.061 114.392C101.087 114.814 97.1077 115.176 93.1396 115.658C90.2604 116.008 87.3766 116.328 84.501 116.707C81.5618 117.094 78.631 117.546 75.6971 117.973C72.0285 118.507 68.3731 119.12 64.7232 119.77C60.596 120.505 56.4861 121.325 52.3856 122.195C46.4194 123.461 40.5039 124.931 34.6393 126.604C32.5603 127.196 30.4872 127.818 28.4418 128.516C26.5819 129.173 24.5889 129.363 22.6386 129.067C21.3967 128.868 20.1664 128.602 18.9529 128.27C18.7347 128.211 18.522 128.133 18.3172 128.037C18.2236 128.009 18.1377 127.96 18.0664 127.893C17.9951 127.826 17.9403 127.744 17.9064 127.652C17.8724 127.56 17.8603 127.462 17.8709 127.365C17.8815 127.268 17.9146 127.174 17.9675 127.092C18.1855 126.55 18.5626 126.086 19.0492 125.762C19.8923 125.216 20.8384 124.85 21.8288 124.685C22.8192 124.521 23.8328 124.562 24.8069 124.805C25.6154 125.033 26.4022 125.332 27.1579 125.699C28.136 126.152 29.2528 126.202 30.2675 125.839C33.3575 124.802 36.5091 123.961 39.704 123.318C44.9726 122.054 50.269 120.914 55.5931 119.896C59.7407 119.097 63.8887 118.3 68.0609 117.636C71.5629 117.079 75.0589 116.483 78.5669 115.966C81.6921 115.507 84.8287 115.122 87.9628 114.725C91.0006 114.34 94.0391 113.957 97.0823 113.619C99.3575 113.366 101.641 113.186 103.921 112.974C106.521 112.733 109.12 112.481 111.722 112.261C112.621 112.184 113.524 112.134 114.425 112.069C117.063 111.877 119.708 111.774 122.348 111.608C125.408 111.415 128.473 111.33 131.535 111.186C133.667 111.086 135.797 111.127 137.925 111.023C142.963 110.778 148.004 110.842 153.041 110.921C155.559 110.96 158.078 111.01 160.595 111.095C163.272 111.185 165.947 111.312 168.621 111.476C169.479 111.528 170.335 111.673 171.196 111.809Z" fill="#C9C0AB"/>
<path d="M307.614 187.091C307.614 188.575 307.582 190.061 307.628 191.544C307.662 191.817 307.605 192.094 307.466 192.331C307.326 192.568 307.113 192.753 306.858 192.856C304.609 193.868 302.334 194.704 299.776 194.329C298.172 194.163 296.606 193.734 295.141 193.058C294.683 192.824 294.264 192.515 293.815 192.262C293.426 192.059 293.109 191.741 292.907 191.352C292.704 190.962 292.626 190.52 292.682 190.085C292.93 186.382 292.788 182.668 293.019 178.965C293.057 178.359 293.065 178.34 293.738 178.498C297.188 179.311 300.637 180.13 304.085 180.953C305.025 181.177 305.957 181.442 306.906 181.62C307.473 181.726 307.641 181.995 307.631 182.54C307.605 184.057 307.622 185.574 307.622 187.091L307.614 187.091Z" fill="#E5E4E1"/>
<path d="M293.617 154.315C293.686 152.348 293.558 150.377 293.769 148.414C293.776 148.221 293.794 148.028 293.823 147.837C293.955 147.263 294.214 147.098 294.793 147.211C297.48 147.738 300.167 148.266 302.854 148.796C304.277 149.076 305.696 149.374 307.126 149.612C307.612 149.694 307.813 149.888 307.759 150.363C307.499 152.642 307.675 154.939 307.473 157.223C307.388 158.317 307.361 159.415 307.394 160.512C307.407 160.852 307.33 161.189 307.172 161.489C307.013 161.79 306.778 162.043 306.49 162.223C305.469 162.914 304.283 163.322 303.053 163.405C301.864 163.541 300.661 163.469 299.498 163.192C298.53 162.946 297.555 162.728 296.584 162.496C295.793 162.274 295.088 161.817 294.561 161.187C294.034 160.556 293.711 159.78 293.634 158.962C293.595 158.189 293.619 157.413 293.617 156.639C293.615 155.864 293.617 155.09 293.617 154.315Z" fill="#E5E4E1"/>
<path d="M267.993 181.8C268.147 176.373 268.152 171.01 268.273 165.651C268.363 161.646 268.315 157.64 268.456 153.638C268.599 149.569 268.582 145.5 268.636 141.431C268.644 140.884 268.693 140.335 268.752 139.79C268.824 139.129 269.017 138.905 269.615 138.826C270.518 138.808 271.421 138.886 272.307 139.061C272.619 139.087 272.661 139.389 272.659 139.664C272.653 140.31 272.704 140.962 272.636 141.601C272.491 142.955 272.518 144.31 272.507 145.666C272.471 149.832 272.328 153.997 272.234 158.161C272.17 161.034 272.195 163.911 272.05 166.78C271.91 169.557 271.999 172.336 271.861 175.108C271.717 177.981 271.769 180.856 271.664 183.727C271.619 184.953 271.551 186.177 271.534 187.404C271.526 188.052 271.498 188.058 270.877 188.071C270.198 188.063 269.524 187.961 268.873 187.767C268.19 187.59 268 187.307 267.996 186.58C267.987 184.964 267.993 183.349 267.993 181.8Z" fill="#E5E4E1"/>
<path d="M33.1571 117.675C32.5519 117.677 31.9231 117.652 31.6726 117.096C31.4172 116.53 31.9714 116.137 32.3158 115.798C33.5543 114.655 35.0073 113.77 36.5905 113.195C39.6086 112.047 42.7689 111.318 45.9841 111.026C50.0903 110.566 54.2236 110.394 58.3536 110.513C60.712 110.416 63.0699 110.713 65.3312 111.39C66.0086 111.605 66.6448 111.932 67.213 112.36C67.757 112.809 67.7195 113.145 67.0576 113.4C66.3119 113.604 65.5448 113.721 64.7721 113.747C61.8029 114.148 58.8285 114.511 55.8551 114.88C53.5525 115.166 51.2479 115.435 48.9454 115.722C46.1 116.076 43.2561 116.443 40.411 116.8C38.1086 117.09 35.8058 117.376 33.5025 117.658C33.3747 117.674 33.2446 117.671 33.1571 117.675Z" fill="#E5E4E1"/>
<path d="M74.0739 111.455C73.9128 111.464 73.7512 111.463 73.5902 111.452C73.3792 111.444 73.1738 111.381 72.9939 111.271C72.8141 111.16 72.6658 111.005 72.5634 110.82C72.36 110.394 72.7062 110.086 72.9532 109.802C73.5056 109.208 74.1703 108.73 74.9086 108.396C78.0932 106.813 81.4845 105.686 84.9828 105.049C87.2733 104.626 89.5846 104.446 91.8993 104.246C93.6039 104.085 95.3174 104.038 97.0283 104.106C99.5473 104.137 102.055 104.452 104.504 105.044C105.101 105.192 105.665 105.45 106.168 105.805C106.637 106.154 106.61 106.476 106.105 106.779C105.563 107.072 104.968 107.253 104.355 107.311C101.898 107.666 99.4367 107.991 96.9775 108.333C94.327 108.701 91.6783 109.081 89.0274 109.446C85.9927 109.864 82.956 110.267 79.9213 110.685C78.3244 110.904 76.73 111.142 75.1339 111.367C74.7826 111.417 74.4286 111.447 74.0759 111.486L74.0739 111.455Z" fill="#E5E4E1"/>
<path d="M67.7823 114.244C67.9627 114.911 67.8472 115.505 68.0142 116.07C68.1297 116.46 67.9433 116.655 67.5348 116.72C66.549 116.877 65.5701 117.078 64.5859 117.245C58.7717 118.235 52.9873 119.378 47.2227 120.622C42.3699 121.669 37.5344 122.79 32.7263 124.028C32.5702 124.068 32.4052 124.08 32.2544 124.133C31.9237 124.25 31.7706 124.1 31.7001 123.799C31.6901 123.768 31.6828 123.737 31.6784 123.705C31.5911 121.942 31.5047 120.178 31.4131 118.309C32.9205 118.971 34.3244 118.505 35.718 118.358C38.1524 118.102 40.5781 117.763 43.0068 117.454C45.3399 117.156 47.6712 116.845 50.005 116.553C52.307 116.265 54.6117 115.999 56.914 115.713C59.2482 115.423 61.5815 115.125 63.914 114.821C65.2152 114.718 66.5077 114.526 67.7823 114.244Z" fill="#C9C0AB"/>
<path d="M72.2227 112.118C73.7909 112.824 75.2605 112.298 76.7101 112.124C79.2698 111.816 81.8189 111.42 84.3725 111.061C86.99 110.694 89.6076 110.327 92.2253 109.961C94.7478 109.612 97.271 109.266 99.7947 108.925C101.36 108.712 102.928 108.519 104.491 108.287C105.372 108.177 106.219 107.879 106.975 107.411C107.314 107.592 107.221 107.846 107.227 108.053C107.254 109.022 107.218 109.995 107.3 110.959C107.348 111.532 107.126 111.638 106.635 111.722C105.709 111.881 104.772 111.895 103.844 111.985C99.6091 112.396 95.3793 112.849 91.1543 113.343C86.543 113.877 81.9486 114.529 77.3507 115.159C75.9461 115.351 74.543 115.565 73.1492 115.822C72.6583 115.913 72.4979 115.732 72.4365 115.315C72.4318 115.283 72.4177 115.253 72.4138 115.221C72.291 114.203 72.3856 113.173 72.2227 112.118Z" fill="#C9C0AB"/>
<path d="M15.2764 140.546C15.731 140.504 16.1501 140.478 16.5658 140.424C16.9013 140.381 17.0501 140.518 17.0545 140.844C17.0558 140.94 17.0608 141.037 17.0631 141.134C17.1375 144.298 17.2285 147.462 17.2773 150.626C17.2948 151.757 17.3785 152.883 17.4235 154.012C17.4542 154.782 17.3949 154.815 16.6141 154.875C15.4884 154.962 14.3611 155.03 13.2366 155.131C12.886 155.163 12.7683 155.034 12.7746 154.709C12.7952 153.642 12.632 152.586 12.6022 151.52C12.5123 148.294 12.3558 145.07 12.2257 141.845C12.2192 141.684 12.2291 141.521 12.21 141.361C12.1562 140.91 12.347 140.713 12.802 140.699C13.6234 140.603 14.4494 140.552 15.2764 140.546Z" fill="#E5E4E1"/>
<path d="M287.567 166.337C287.64 164.178 287.713 162.018 287.787 159.858C287.822 158.863 288.127 158.595 289.102 158.716C290.062 158.835 291.015 159.009 291.977 159.095C292.49 159.14 292.565 159.454 292.699 159.838C292.839 160.238 292.813 160.486 292.426 160.716C292.252 160.834 292.112 160.995 292.019 161.184C291.926 161.373 291.883 161.582 291.894 161.792C291.707 164.979 291.504 168.165 291.305 171.352C291.245 172.317 291.188 173.283 291.118 174.248C291.072 174.873 291.06 174.888 290.412 174.785C289.738 174.721 289.069 174.611 288.41 174.453C288.123 174.397 287.866 174.241 287.685 174.011C287.504 173.782 287.411 173.495 287.424 173.204C287.378 171.59 287.459 169.979 287.507 168.368C287.527 167.691 287.568 167.015 287.599 166.338L287.567 166.337Z" fill="#F6EBD1"/>
<path d="M15.6268 185.139C13.716 185.192 14.0117 185.313 13.9792 183.679C13.9034 179.871 13.8327 176.063 13.7672 172.254C13.7636 172.06 13.7632 171.867 13.7566 171.673C13.7465 171.378 13.8365 171.178 14.173 171.144C15.2313 171.04 16.2881 170.92 17.3465 170.816C17.6619 170.785 17.8268 170.948 17.8241 171.272C17.8231 171.401 17.8318 171.53 17.8327 171.659C17.8586 175.371 18.0989 179.079 18.0753 182.792C18.0722 183.275 18.1393 183.757 18.1735 184.239C18.2186 184.874 18.195 184.92 17.5957 184.968C16.944 185.069 16.2862 185.126 15.6268 185.139Z" fill="#E5E4E1"/>
<path d="M313.763 155.532C313.71 156.823 313.66 158.115 313.604 159.406C313.57 160.179 313.549 160.203 312.835 160.081C311.594 159.869 310.359 159.622 309.114 159.433C308.614 159.357 308.403 159.197 308.429 158.642C308.555 155.996 308.635 153.348 308.738 150.7C308.766 149.985 308.8 149.96 309.558 150.105C310.795 150.341 312.03 150.584 313.264 150.832C313.928 150.964 313.939 150.975 313.913 151.658C313.862 152.949 313.801 154.24 313.744 155.531L313.763 155.532Z" fill="#F6EBD1"/>
<path d="M275.355 139.487C277.194 139.57 278.99 140.028 280.837 139.974C282.583 139.938 284.3 139.513 285.863 138.731C286.353 138.517 286.785 138.189 287.122 137.774C287.459 137.358 287.692 136.868 287.801 136.344C287.912 135.795 288.138 135.67 288.669 135.789C289.327 135.936 290.007 135.979 290.675 136.084C291.188 136.162 291.681 136.334 292.13 136.593C292.622 136.805 293.034 137.168 293.306 137.629C293.579 138.091 293.697 138.627 293.643 139.161C293.546 140.185 293.571 141.221 293.474 142.251C293.424 142.776 293.218 142.918 292.746 142.865C291.593 142.737 290.44 142.616 289.286 142.502C288.992 142.473 288.809 142.382 288.776 142.052C288.598 140.265 286.957 139.644 285.405 139.813C284.731 139.881 284.064 140.006 283.411 140.186C282.224 140.497 281.004 140.66 279.778 140.671C278.451 140.734 277.127 140.495 275.907 139.97C275.679 139.868 275.413 139.803 275.355 139.487Z" fill="#C9C0AB"/>
<path d="M12.9892 178.364C12.9892 180.427 12.9925 182.49 12.9874 184.552C12.9857 185.254 12.9767 185.262 12.3134 185.313C11.8314 185.35 11.3449 185.338 10.8649 185.39C10.3773 185.442 10.2618 185.216 10.2561 184.779C10.2431 183.78 10.1852 182.782 10.1578 181.783C10.072 178.656 9.98989 175.53 9.91151 172.403C9.88909 171.494 9.89896 171.475 10.7799 171.42C11.3867 171.382 12.1493 171.075 12.5638 171.402C13.0528 171.788 12.7514 172.61 12.7642 173.237C12.7991 174.946 12.7762 176.655 12.7762 178.364L12.9892 178.364Z" fill="#F6EBD1"/>
<path d="M8.96551 155.474C8.96551 155.037 8.97159 154.75 8.96459 154.463C8.86139 150.232 8.75703 146 8.65152 141.769C8.63207 140.988 8.62927 140.971 9.42729 140.943C9.97162 140.923 10.6506 140.643 11.027 140.956C11.4609 141.316 11.2144 142.048 11.2395 142.617C11.4147 146.587 11.5707 150.557 11.735 154.528C11.7639 155.226 11.769 155.228 11.1022 155.289C10.4301 155.351 9.75742 155.406 8.96551 155.474Z" fill="#F6EBD1"/>
<path d="M311.417 198.06L302.14 195.548C302.289 195.282 302.525 195.282 302.744 195.247C304.041 194.995 305.309 194.613 306.528 194.106C306.739 194.027 306.933 193.907 307.139 193.817C307.641 193.674 308.069 193.347 308.337 192.9C308.606 192.453 308.694 191.92 308.584 191.411C308.549 191.09 308.547 190.766 308.58 190.445C308.608 189.825 308.689 189.745 309.262 189.842C309.928 189.954 310.588 190.1 311.252 190.228C311.34 190.232 311.427 190.255 311.507 190.295C311.586 190.335 311.656 190.392 311.711 190.462C311.767 190.531 311.807 190.612 311.829 190.698C311.851 190.785 311.854 190.875 311.838 190.962C311.779 191.7 311.703 192.437 311.69 193.176C311.661 194.752 311.607 196.325 311.417 198.06Z" fill="#C9C0AB"/>
<path d="M304.885 164.023C305.385 163.896 305.868 163.709 306.323 163.468C306.933 163.218 307.458 162.798 307.836 162.258C308.213 161.717 308.428 161.08 308.454 160.421C309.718 160.549 310.974 160.745 312.216 161.007C313.701 161.271 313.754 161.341 313.534 162.809C313.453 163.545 313.416 164.286 313.424 165.026C313.376 166.658 313.425 166.351 312.129 166.068C309.647 165.526 307.173 164.945 304.696 164.379C304.564 164.157 304.769 164.113 304.885 164.023Z" fill="#C9C0AB"/>
<path d="M308.679 182.082C309.773 182.342 310.71 182.573 311.651 182.785C311.946 182.851 312.103 182.979 312.094 183.301C312.041 185.265 311.961 187.227 311.804 189.227C310.859 189.143 309.921 188.985 309.001 188.753C308.619 188.687 308.644 188.344 308.646 188.054C308.653 186.989 308.671 185.923 308.677 184.857C308.683 183.99 308.679 183.122 308.679 182.082Z" fill="#F6EBD1"/>
<path d="M111.362 107.504C112.652 108.954 114.259 110.085 116.059 110.809L115.985 111.011C114.624 111.097 113.263 111.185 111.901 111.267C111.625 111.283 111.357 111.228 111.355 110.88C111.3 109.755 111.302 108.628 111.362 107.504Z" fill="#C9C0AB"/>
<path d="M27.4131 150.574C28.3022 150.166 29.1811 149.782 30.0202 149.311C30.6816 148.973 31.2686 148.506 31.7465 147.938C32.0529 147.547 32.5252 147.597 32.9742 148.015C33.3379 148.354 33.3337 148.563 32.9426 148.997C32.6527 149.303 32.2993 149.541 31.9075 149.694C30.5071 150.361 28.9613 150.664 27.4131 150.574Z" fill="#C9C0AB"/>
<path d="M18.2861 150.785C18.3014 150.673 18.2961 150.532 18.4696 150.534C18.5308 150.528 18.5923 150.542 18.6449 150.574C18.6975 150.606 18.7384 150.654 18.7613 150.711C18.8189 150.907 18.6594 150.993 18.5161 151.018C18.3881 151.04 18.2985 150.934 18.2861 150.785Z" fill="#D5C6B0"/>
<path d="M292.65 192.526C292.761 192.568 292.862 192.634 292.942 192.722C293.023 192.809 293.083 192.914 293.116 193.028C292.989 193.036 292.861 193.013 292.745 192.962C292.628 192.911 292.526 192.832 292.445 192.734C292.456 192.608 292.567 192.581 292.65 192.526Z" fill="#8E7F72"/>
<path d="M293.59 161.636C293.584 161.658 293.573 161.677 293.559 161.694C293.544 161.71 293.525 161.723 293.505 161.731C293.484 161.739 293.462 161.742 293.44 161.74C293.417 161.739 293.396 161.732 293.377 161.72C293.278 161.68 293.106 161.67 293.204 161.489C293.215 161.469 293.23 161.451 293.249 161.437C293.267 161.423 293.289 161.412 293.311 161.407C293.334 161.401 293.358 161.4 293.381 161.405C293.404 161.409 293.425 161.417 293.445 161.43C293.528 161.473 293.598 161.528 293.59 161.636Z" fill="#D6D0B9"/>
<path d="M304.884 164.023L304.695 164.379C304.577 164.384 304.409 164.385 304.44 164.235C304.485 164.018 304.699 164.021 304.884 164.023Z" fill="#8A7D5F"/>
<path d="M292.649 192.526L292.445 192.734C292.347 192.654 292.229 192.545 292.336 192.435C292.442 192.325 292.545 192.484 292.649 192.526Z" fill="#B5AB99"/>
<path d="M175.306 159.722C175.306 161.208 175.287 162.694 175.316 164.18C175.327 164.419 175.283 164.659 175.19 164.88C175.096 165.101 174.955 165.298 174.775 165.458C173.071 167.007 170.968 168.05 168.705 168.471C167.663 168.684 166.603 168.796 165.54 168.806C162.942 169.001 160.353 168.338 158.168 166.918C155.836 165.346 154.207 162.927 153.628 160.174C153.084 157.816 152.923 155.387 153.149 152.979C153.237 151.565 153.46 150.162 153.816 148.791C154.483 146.301 156.025 144.135 158.159 142.69C159.864 141.56 161.861 140.948 163.906 140.929C165.325 140.866 166.745 140.993 168.13 141.306C169.787 141.647 171.309 142.462 172.511 143.651C173.714 144.84 174.546 146.353 174.907 148.006C175.039 148.405 175.117 148.82 175.138 149.24C175.137 149.634 175.008 149.851 174.587 149.849C173.198 149.845 171.809 149.846 170.42 149.851C170.332 149.861 170.244 149.852 170.16 149.827C170.075 149.802 169.997 149.76 169.929 149.705C169.861 149.649 169.805 149.58 169.763 149.502C169.722 149.425 169.696 149.34 169.688 149.252C169.529 148.427 169.194 147.646 168.706 146.962C168.133 146.211 167.315 145.685 166.394 145.474C165.614 145.285 164.808 145.233 164.01 145.319C162.959 145.424 161.964 145.846 161.158 146.53C160.352 147.213 159.772 148.125 159.496 149.146C159.049 150.393 158.823 151.709 158.828 153.034C158.831 154.326 158.814 155.619 158.836 156.91C158.85 158.497 159.24 160.058 159.975 161.465C160.406 162.357 161.083 163.108 161.926 163.628C162.769 164.148 163.743 164.416 164.734 164.401C165.83 164.495 166.934 164.371 167.982 164.036C168.411 163.892 168.817 163.689 169.19 163.432C169.352 163.326 169.484 163.18 169.573 163.008C169.662 162.835 169.705 162.643 169.698 162.449C169.68 161.254 169.677 160.058 169.698 158.863C169.706 158.348 169.478 158.188 168.996 158.195C167.801 158.211 166.606 158.211 165.411 158.195C164.683 158.185 164.653 158.15 164.64 157.414C164.625 156.607 164.651 155.798 164.632 154.991C164.621 154.502 164.805 154.281 165.311 154.297C165.989 154.319 166.668 154.301 167.346 154.301C169.704 154.3 172.062 154.295 174.42 154.303C175.276 154.305 175.297 154.327 175.302 155.167C175.312 156.685 175.305 158.203 175.306 159.722Z" fill="#3C1F1B"/>
<path d="M202.091 154.933C202.229 157.129 201.914 159.33 201.166 161.4C200.653 163.025 199.751 164.501 198.538 165.697C197.325 166.894 195.838 167.775 194.206 168.264C192.081 168.972 189.795 169.038 187.633 168.456C185.47 167.873 183.527 166.667 182.044 164.987C180.708 163.357 179.797 161.42 179.395 159.35C178.978 157.258 178.86 155.119 179.045 152.995C179.137 150.303 179.98 147.691 181.48 145.454C182.29 144.285 183.332 143.296 184.541 142.547C185.75 141.798 187.1 141.307 188.507 141.103C190.74 140.696 193.042 140.939 195.142 141.802C197.372 142.715 199.207 144.387 200.325 146.522C201.505 148.685 202.113 151.113 202.091 153.576C202.091 154.028 202.091 154.48 202.091 154.933Z" fill="#3C1F1B"/>
<path d="M149.707 154.861C149.795 157.641 149.221 160.403 148.032 162.918C147.237 164.532 146.037 165.913 144.551 166.926C143.065 167.94 141.341 168.551 139.549 168.7C136.812 169.078 134.03 168.451 131.719 166.934C129.523 165.413 127.937 163.161 127.244 160.579C126.755 159.039 126.544 157.424 126.621 155.809C126.566 154.166 126.636 152.52 126.83 150.887C127.25 148.189 128.526 145.698 130.47 143.783C131.814 142.513 133.48 141.636 135.286 141.245C137.78 140.628 140.407 140.839 142.771 141.847C144.109 142.425 145.314 143.273 146.31 144.339C147.307 145.404 148.072 146.664 148.56 148.039C149.15 149.507 149.49 151.065 149.566 152.646C149.592 153.38 149.753 154.114 149.707 154.861Z" fill="#3C1F1B"/>
<path d="M107.835 154.846C107.834 150.777 107.834 146.709 107.834 142.64C107.834 142.381 107.84 142.123 107.837 141.865C107.834 141.515 107.985 141.319 108.353 141.32C109.87 141.32 111.388 141.32 112.906 141.318C113.261 141.317 113.445 141.48 113.443 141.842C113.442 142.1 113.448 142.359 113.448 142.617C113.448 149.269 113.449 155.921 113.449 162.573C113.449 162.735 113.448 162.896 113.45 163.058C113.462 164.014 113.462 164.023 114.427 164.024C117.591 164.029 120.756 164.029 123.92 164.026C124.179 164.026 124.437 164.025 124.695 164.035C124.776 164.029 124.858 164.041 124.934 164.071C125.01 164.1 125.079 164.147 125.135 164.206C125.191 164.265 125.233 164.336 125.258 164.414C125.283 164.491 125.291 164.574 125.28 164.655C125.282 165.752 125.28 166.85 125.282 167.948C125.282 168.317 125.082 168.466 124.734 168.461C124.54 168.459 124.346 168.464 124.152 168.464C119.083 168.464 114.013 168.465 108.943 168.465C108.782 168.465 108.62 168.455 108.459 168.464C108.003 168.491 107.826 168.274 107.832 167.827C107.846 166.859 107.835 165.89 107.835 164.921C107.835 161.563 107.835 158.204 107.835 154.846Z" fill="#3C1F1B"/>
<path d="M266.727 110.288C268.014 110.227 269.302 110.356 270.551 110.67C270.929 110.755 271.289 110.905 271.616 111.113C271.821 111.24 271.995 111.413 272.122 111.619C272.249 111.824 272.327 112.057 272.349 112.297C272.371 112.538 272.337 112.781 272.248 113.006C272.16 113.231 272.021 113.433 271.842 113.595C271.537 113.884 271.176 114.109 270.783 114.255C269.667 114.726 268.461 114.945 267.251 114.896C266.041 114.847 264.857 114.531 263.783 113.971C263.392 113.814 263.062 113.534 262.841 113.175C262.62 112.816 262.52 112.395 262.556 111.974C262.547 111.717 262.616 111.464 262.755 111.247C262.893 111.031 263.094 110.861 263.331 110.761C263.844 110.49 264.41 110.33 264.989 110.292C265.568 110.276 266.148 110.288 266.727 110.288Z" fill="#5E4E47"/>
<path d="M249.566 110.486C248.586 110.554 247.604 110.406 246.687 110.054C246.112 109.834 245.525 109.565 245.496 108.813C245.474 108.24 245.88 107.815 246.783 107.573C248.597 107.071 250.522 107.145 252.292 107.785C252.412 107.833 252.528 107.888 252.641 107.951C252.86 108.027 253.048 108.171 253.178 108.362C253.309 108.554 253.375 108.782 253.367 109.013C253.358 109.244 253.276 109.467 253.132 109.648C252.988 109.829 252.79 109.96 252.567 110.02C251.946 110.296 251.279 110.453 250.601 110.483C250.279 110.497 249.956 110.486 249.566 110.486Z" fill="#5E4F48"/>
<path d="M231.531 107.962C230.626 108.016 229.719 107.895 228.859 107.606C228.517 107.509 228.197 107.348 227.914 107.132C227.763 107.035 227.64 106.899 227.559 106.739C227.477 106.579 227.44 106.4 227.45 106.221C227.46 106.041 227.518 105.868 227.617 105.718C227.716 105.568 227.853 105.447 228.014 105.368C228.315 105.177 228.648 105.043 228.998 104.975C230.669 104.583 232.415 104.658 234.046 105.193C234.107 105.213 234.169 105.23 234.23 105.254C234.796 105.476 235.331 105.783 235.322 106.461C235.314 107.139 234.774 107.425 234.198 107.632C233.34 107.921 232.433 108.033 231.531 107.962Z" fill="#5E4F48"/>
<path d="M212.518 106.604C211.611 106.658 210.702 106.536 209.842 106.245C209.5 106.147 209.179 105.985 208.898 105.767C208.748 105.668 208.627 105.531 208.548 105.37C208.468 105.209 208.433 105.03 208.445 104.851C208.457 104.671 208.516 104.498 208.617 104.35C208.718 104.201 208.856 104.082 209.018 104.004C209.319 103.814 209.653 103.681 210.003 103.614C211.674 103.225 213.42 103.303 215.051 103.839C215.142 103.87 215.236 103.896 215.325 103.934C215.855 104.162 216.335 104.484 216.319 105.115C216.303 105.744 215.815 106.043 215.272 106.246C214.389 106.557 213.451 106.679 212.518 106.604Z" fill="#5E4F48"/>
<path d="M195.081 105.79C194.019 105.813 192.962 105.627 191.972 105.242C191.437 105.009 190.853 104.737 190.872 104.044C190.891 103.312 191.489 103.034 192.091 102.855C193.893 102.325 195.816 102.374 197.588 102.998C198.173 103.193 198.776 103.502 198.766 104.238C198.756 104.978 198.143 105.237 197.55 105.43C196.755 105.697 195.919 105.819 195.081 105.79Z" fill="#5E4F48"/>
<path d="M121.567 105.404C120.505 105.427 119.448 105.238 118.459 104.849C117.924 104.616 117.341 104.34 117.368 103.646C117.397 102.916 117.995 102.641 118.598 102.463C120.402 101.945 122.322 101.995 124.097 102.606C124.157 102.63 124.215 102.657 124.272 102.687C124.792 102.921 125.275 103.221 125.266 103.861C125.257 104.511 124.741 104.79 124.218 104.982C123.369 105.291 122.47 105.434 121.567 105.404Z" fill="#5E4F48"/>
<path d="M172.004 105.249C171.023 105.317 170.039 105.171 169.12 104.82C168.545 104.601 167.958 104.334 167.92 103.586C167.891 103.013 168.301 102.58 169.199 102.34C171.012 101.832 172.938 101.904 174.708 102.545C174.827 102.594 174.944 102.648 175.058 102.71C175.277 102.784 175.466 102.927 175.598 103.117C175.73 103.307 175.798 103.534 175.791 103.766C175.785 103.997 175.705 104.22 175.562 104.403C175.42 104.585 175.223 104.717 175 104.779C174.381 105.058 173.714 105.216 173.035 105.246C172.713 105.261 172.39 105.249 172.004 105.249Z" fill="#5E4F48"/>
<path d="M145.871 101.96C146.804 101.908 147.738 102.03 148.625 102.321C148.932 102.416 149.226 102.549 149.499 102.717C149.68 102.795 149.835 102.925 149.943 103.09C150.051 103.255 150.108 103.448 150.108 103.646C150.107 103.843 150.048 104.036 149.939 104.2C149.829 104.365 149.674 104.493 149.492 104.57C148.954 104.862 148.363 105.043 147.754 105.103C146.48 105.296 145.18 105.223 143.935 104.89C143.559 104.801 143.199 104.652 142.87 104.449C141.91 103.852 141.941 102.978 142.956 102.452C143.567 102.161 144.23 101.995 144.907 101.964C145.226 101.939 145.55 101.96 145.871 101.96Z" fill="#5E4F48"/>
<path d="M196.455 154.758C196.585 156.703 196.335 158.655 195.721 160.505C195.448 161.477 194.901 162.349 194.145 163.018C193.389 163.686 192.456 164.122 191.459 164.274C190.52 164.471 189.544 164.392 188.649 164.046C187.754 163.7 186.979 163.102 186.416 162.325C185.534 161.08 184.991 159.627 184.84 158.109C184.64 156.67 184.576 155.215 184.65 153.764C184.677 152.054 184.998 150.362 185.598 148.76C185.902 147.982 186.384 147.287 187.004 146.728C187.624 146.168 188.365 145.762 189.17 145.539C189.974 145.317 190.819 145.285 191.638 145.447C192.457 145.608 193.227 145.958 193.887 146.469C194.862 147.286 195.554 148.389 195.865 149.622C196.375 151.283 196.575 153.025 196.455 154.758Z" fill="#DCCDB3"/>
<path d="M144.081 154.919C144.085 156.95 143.759 158.968 143.117 160.894C142.818 161.71 142.325 162.441 141.68 163.023C141.036 163.605 140.259 164.022 139.417 164.235C138.575 164.449 137.694 164.455 136.85 164.251C136.006 164.047 135.224 163.64 134.572 163.066C133.745 162.283 133.149 161.287 132.85 160.187C132.475 159.12 132.278 157.998 132.267 156.867C132.254 155.477 132.201 154.084 132.282 152.699C132.316 150.916 132.818 149.173 133.738 147.646C134.229 146.945 134.882 146.372 135.641 145.978C136.401 145.583 137.244 145.377 138.1 145.378C138.955 145.379 139.798 145.586 140.557 145.982C141.315 146.378 141.968 146.951 142.458 147.652C143.249 148.915 143.729 150.347 143.861 151.832C144.043 152.85 144.116 153.885 144.081 154.919Z" fill="#DCCDB3"/>
<path d="M264.661 111.5C266.852 110.996 269.147 111.212 271.205 112.116C269.006 112.443 266.761 112.232 264.661 111.5Z" fill="#BB9A53"/>
<path d="M263.643 112.399C265.81 113.038 268.065 113.333 270.324 113.273C268.967 113.968 267.4 114.132 265.928 113.733C265.469 113.708 265.022 113.573 264.625 113.341C264.227 113.109 263.891 112.786 263.643 112.399Z" fill="#DCCDB3"/>
<path d="M252.26 108.992C250.74 109.826 247.794 109.716 246.606 108.818C247.818 107.993 250.841 108.057 252.26 108.992Z" fill="#DCCDB3"/>
<path d="M228.367 106.383C229.987 105.455 232.993 105.567 234.276 106.558C232.354 107.239 230.246 107.177 228.367 106.383Z" fill="#DCCDB3"/>
<path d="M209.513 104.947C210.4 104.539 211.369 104.341 212.345 104.367C213.321 104.392 214.279 104.641 215.144 105.094C213.961 105.927 211.021 105.873 209.513 104.947Z" fill="#DCCDB3"/>
<path d="M191.961 104.167C192.113 103.983 192.304 103.835 192.521 103.735C192.738 103.636 192.975 103.586 193.214 103.591C194.577 103.348 195.981 103.467 197.284 103.936C197.402 103.982 197.498 104.071 197.553 104.185C197.599 104.314 197.486 104.417 197.354 104.459C195.583 105.042 193.658 104.937 191.961 104.167Z" fill="#DCCDB3"/>
<path d="M118.58 103.692C119.717 102.809 122.877 102.887 124.063 103.828C122.889 104.715 119.805 104.638 118.58 103.692Z" fill="#DCCDB3"/>
<path d="M174.621 103.792C173.733 104.18 172.77 104.362 171.802 104.326C170.834 104.29 169.887 104.036 169.03 103.583C170.3 102.713 173.606 102.836 174.621 103.792Z" fill="#DCCDB3"/>
<path d="M143.285 103.589C143.434 103.403 143.624 103.254 143.84 103.154C144.056 103.054 144.292 103.005 144.53 103.011C145.893 102.767 147.296 102.884 148.6 103.352C148.718 103.398 148.815 103.486 148.871 103.599C148.921 103.729 148.811 103.833 148.678 103.876C146.908 104.459 144.984 104.357 143.285 103.589Z" fill="#DCCDB3"/>
</g>
<g style="mix-blend-mode:hue">
<rect width="320" height="320" fill="#00BF13"/>
</g>
</g>
<defs>
<clipPath id="clip0_1444_451">
<rect width="320" height="320" fill="white"/>
</clipPath>
<clipPath id="clip1_1444_451">
<rect width="320" height="124" fill="white" transform="translate(0 98)"/>
</clipPath>
</defs>
</svg>
