<svg width="320" height="320" viewBox="0 0 320 320" fill="none" xmlns="http://www.w3.org/2000/svg">
<g clip-path="url(#clip0_1425_10636)">
<rect width="320" height="320" fill="#F2F2EA"/>
<g clip-path="url(#clip1_1425_10636)">
<path d="M273.645 320.099H161.761C161.337 319.396 161.159 318.57 161.256 317.754C161.336 314.656 161.097 311.566 161.002 308.475C160.822 302.586 160.606 296.697 160.42 290.807C160.302 287.097 160.172 283.389 160.028 279.68C159.909 276.525 159.843 273.367 159.682 270.214C159.655 269.684 159.482 268.96 160.06 268.701C160.59 268.464 160.956 269.093 161.344 269.413C162.807 270.677 164.547 271.578 166.423 272.043C168.299 272.508 170.259 272.523 172.142 272.087C175.208 271.448 178.202 270.529 181.221 269.713C189.122 267.576 196.939 265.16 204.698 262.563C217.41 258.309 229.918 253.518 242.151 248.028C254.174 242.725 265.809 236.582 276.969 229.644C283.927 225.332 290.523 220.461 296.691 215.08C300.144 212.092 303.322 208.802 306.189 205.248C308.334 202.495 310.195 199.532 311.742 196.403C311.921 196.046 312.027 195.437 312.512 195.562C312.97 195.68 312.859 196.262 312.831 196.679C312.559 200.805 312.353 204.935 312.091 209.06C311.854 212.796 311.646 216.534 311.398 220.269C311.216 222.996 311.081 225.729 310.926 228.459C310.773 231.156 310.614 233.853 310.427 236.549C310.251 239.081 310.123 241.618 309.975 244.152C309.802 247.109 309.624 250.066 309.44 253.022C309.283 255.621 309.14 258.222 308.988 260.822C308.817 263.746 308.645 266.67 308.471 269.595C308.353 271.577 308.151 273.556 308.181 275.545C307.464 278.386 306.491 281.157 305.275 283.823C302.389 290.531 298.547 296.786 293.868 302.393C288.561 308.7 282.442 314.276 275.67 318.976C275.069 319.47 274.383 319.851 273.645 320.099Z" fill="#6A443F"/>
<path d="M150.026 320.099H127.532C127.135 319.069 126.968 317.964 127.043 316.863C126.695 312.973 126.396 309.078 126.103 305.184C125.827 301.516 125.56 297.847 125.234 294.184C124.762 288.875 124.692 283.524 123.186 278.33C120.719 269.825 116.424 262.555 109.35 257.078C106.147 254.597 102.568 252.646 98.7487 251.297C90.9162 248.519 83.0385 245.871 75.1766 243.178C63.029 239.017 50.8826 234.853 38.7374 230.684C30.2854 227.804 21.8481 224.88 13.4016 221.983C9.30164 220.576 5.20178 219.17 1.102 217.763C0.877035 217.723 0.66282 217.637 0.473062 217.51C0.283304 217.383 0.12218 217.217 0 217.024L0 207.832C0.182687 207.519 0.479743 207.291 0.82823 207.194C5.00694 205.465 8.6854 202.716 11.527 199.198C13.8069 196.596 15.7453 193.714 17.295 190.621C17.6105 190.09 17.7988 189.493 17.8453 188.878C17.8917 188.262 17.7949 187.644 17.5626 187.072C17.3804 186.617 17.2516 186.143 17.1788 185.658C17.0457 184.889 17.2539 184.671 18.0166 184.885C19.1766 185.212 20.3283 185.572 21.473 185.95C26.3017 187.542 31.1206 189.162 35.9454 190.766C36.0081 190.784 36.0698 190.805 36.1302 190.829C36.5015 191 37.1026 191.004 37.1248 191.478C37.1481 191.971 36.5436 191.999 36.1785 192.167C35.6752 192.399 35.1758 192.639 34.6804 192.886C30.8605 194.786 30.0013 198.554 31.9316 201.963C33.5758 205.053 36.3423 207.393 39.6611 208.504C51.0568 212.241 62.4494 215.987 73.8388 219.744C77.2735 220.878 80.6641 222.188 84.1548 223.1C88.063 224.286 92.2611 224.083 96.0368 222.526C97.0202 222.16 97.9002 221.56 98.6013 220.779C99.3025 219.998 99.804 219.059 100.063 218.042C100.365 216.493 100.126 214.887 99.3855 213.494C99.2929 213.286 99.1616 213.096 99.0614 212.891C98.9182 212.598 98.7223 212.276 98.9531 211.976C99.2159 211.634 99.6081 211.754 99.9508 211.855C100.982 212.16 101.995 212.524 103.014 212.868C111.259 215.649 119.519 218.391 127.812 221.02C136.324 223.9 143.465 229.836 147.85 237.679C147.994 237.857 148.099 238.063 148.159 238.283C148.219 238.504 148.232 238.734 148.199 238.96C148.17 239.035 148.116 239.098 148.047 239.138C147.978 239.178 147.897 239.194 147.818 239.183C147.399 238.994 147.055 238.67 146.841 238.264C143.082 233.088 137.9 229.117 131.925 226.832C128.456 225.445 124.411 228.246 124.132 232.033C123.835 236.077 125.809 238.932 128.683 241.379C130.822 243.201 133.282 244.575 135.544 246.226C137.36 247.553 139.318 248.669 141.115 250.022C142.946 251.541 144.602 253.259 146.052 255.144C146.492 255.678 146.753 256.337 146.799 257.026C146.996 259.231 147.083 261.443 147.212 263.652C147.401 266.899 147.583 270.147 147.756 273.396C147.903 276.223 148.055 279.049 148.214 281.876C148.379 284.864 148.538 287.853 148.721 290.84C148.887 293.535 149.025 296.233 149.173 298.929C149.35 302.145 149.544 305.36 149.711 308.576C149.857 311.402 150.056 314.227 150.155 317.056C150.158 317.642 150.197 318.228 150.271 318.809C150.34 319.028 150.354 319.26 150.311 319.485C150.268 319.71 150.17 319.921 150.026 320.099Z" fill="#E5E4E1"/>
<path d="M0 169.105V101.627C0.478137 101.087 1.09372 100.687 1.78118 100.47C5.78506 98.6389 9.86226 96.9882 14.0128 95.5176C26.3023 91.2307 38.9977 88.211 51.9011 86.5055C52.837 86.376 53.7753 86.2599 54.7158 86.1643C55.9385 86.0399 56.3616 86.3383 56.4407 87.5426C56.5625 89.395 56.7157 91.2446 56.8681 93.0943C57.1837 96.9234 57.4698 100.755 57.7726 104.585C58.0702 108.35 58.3492 112.117 58.6466 115.882C58.9414 119.615 59.2146 123.349 59.5364 127.08C59.7771 129.869 59.9591 132.664 60.1891 135.455C60.5075 139.316 60.7814 143.181 61.1024 147.042C61.4046 150.676 61.6515 154.314 61.9496 157.949C62.2024 161.031 62.3868 164.119 62.6835 167.198C62.8423 168.845 62.5206 169.313 61.0473 169.432C54.7774 169.965 48.5516 170.928 42.4139 172.315C34.9265 173.953 27.5984 176.25 20.515 179.177C19.4915 179.603 18.4903 180.079 17.4655 180.501C16.1116 181.059 15.7288 180.89 15.3149 179.525C15.1337 179.036 14.9831 178.536 14.8641 178.029C14.6849 177.198 14.3142 176.42 13.7815 175.758C13.2488 175.095 12.5689 174.567 11.7958 174.213C8.47436 172.332 4.95011 170.834 1.29074 169.748C0.806214 169.666 0.356861 169.443 0 169.105Z" fill="#55322D"/>
<path d="M1e-05 169.105C2.44422 169.668 4.82748 170.468 7.11567 171.496C9.28976 172.379 11.3631 173.493 13.3004 174.818C14.1665 175.415 14.7819 176.31 15.0285 177.332C15.251 178.148 15.4869 178.961 15.7241 179.773C16.0056 180.737 16.0345 180.745 17.0068 180.332C18.6555 179.633 20.299 178.921 21.9569 178.244C28.2112 175.728 34.6583 173.72 41.2353 172.24C45.5457 171.246 49.8876 170.422 54.2775 169.852C56.5983 169.551 58.9164 169.238 61.2531 169.086C61.4151 169.075 61.5762 169.051 61.7376 169.032C61.843 169.036 61.9481 169.016 62.044 168.971C62.1399 168.927 62.2241 168.861 62.2895 168.778C62.3549 168.695 62.3998 168.598 62.4205 168.495C62.4412 168.391 62.4371 168.284 62.4085 168.183C62.278 166.89 62.1987 165.592 62.0774 164.297C61.9833 163.294 61.9495 162.287 61.8508 161.283C61.6443 159.18 61.5752 157.065 61.3911 154.959C61.0965 151.592 60.8645 148.219 60.5979 144.849C60.4031 142.387 60.2049 139.925 60.0221 137.462C59.8129 134.643 59.5288 131.83 59.3029 129.012C59.134 126.905 59.0219 124.794 58.8557 122.687C58.6284 119.804 58.3568 116.924 58.1406 114.041C58.0701 113.1 57.9939 112.161 57.9244 111.221C57.7472 108.822 57.5876 106.423 57.3516 104.028C57.2687 103.188 57.2335 102.343 57.158 101.5C56.9636 99.3311 56.8826 97.1517 56.6956 94.9816C56.478 92.4554 56.2314 89.932 56.1101 87.3984C56.1024 87.2375 56.0438 87.0796 56.028 86.9185C55.982 86.4508 55.7095 86.3308 55.2843 86.3964C52.7799 86.7833 50.2629 87.0787 47.7579 87.468C44.0933 88.0375 40.4537 88.7267 36.8251 89.4839C32.1086 90.4681 27.4451 91.6616 22.8218 93.0144C17.5069 94.5647 12.2778 96.3954 7.15653 98.4987C4.98809 99.3912 2.83561 100.322 0.72743 101.352C0.49552 101.465 0.24298 101.536 1e-05 101.627V100.258C0.562538 99.76 1.22021 99.3813 1.93326 99.1447C12.4422 94.4533 23.4094 90.8643 34.6587 88.4353C41.1732 86.9622 47.7601 85.8302 54.3926 85.044C55.1615 84.955 55.5927 84.7236 55.4533 83.8271C55.3638 83.1164 55.3238 82.4004 55.3335 81.6841C55.3226 80.9459 54.9738 80.8234 54.3445 80.8846C50.618 81.2471 46.8894 81.5783 43.1773 82.0839C32.2277 83.5565 21.4134 85.9017 10.8375 89.0972C7.68932 90.0532 4.562 91.0732 1.47128 92.2036C0.99268 92.3786 0.5001 92.6576 0 92.2389V91.0653C0.544995 90.5949 1.19995 90.2697 1.90412 90.1199C9.68208 87.3905 17.6152 85.1252 25.6617 83.336C33.712 81.567 41.8576 80.263 50.0579 79.4306C51.5466 79.2758 53.0425 79.1965 54.5317 79.0367C55.2417 78.9605 55.6052 78.6541 55.5397 77.9073C55.5217 77.3859 55.5635 76.8642 55.6643 76.3523C55.8178 75.2724 55.7487 75.2028 54.6275 75.1701C53.0647 75.1745 51.5032 75.2608 49.9495 75.4286C44.1036 75.8708 38.2834 76.5466 32.4955 77.501C23.655 78.9594 14.916 80.9777 6.33136 83.5437C4.61477 84.0564 2.90957 84.6053 1.21013 85.1726C0.81766 85.3036 0.40913 85.5003 1e-05 85.1977V83.8286C0.325922 83.8603 0.654017 83.7965 0.94437 83.6452C9.91612 80.6862 19.0821 78.3523 28.3764 76.6602C33.6318 75.697 38.9176 74.9334 44.2366 74.4039C47.8042 74.0487 51.3748 73.7494 54.9582 73.6157C55.1521 73.5917 55.3471 73.5781 55.5424 73.5751C56.0816 73.6144 56.2684 73.3711 56.2982 72.8415C56.3824 71.3455 56.4953 69.8512 56.6368 68.3585C56.736 67.2962 56.8151 67.2337 57.8549 67.0783C58.1786 67.0418 58.5042 67.0247 58.8299 67.0271C64.5642 66.8679 70.2985 66.7091 76.0328 66.5508C82.2555 66.3731 88.478 66.191 94.7005 66.0045C96.2359 65.9604 96.428 66.2269 96.3509 67.7481C96.2983 68.7841 96.4166 69.8285 96.4502 70.8694C96.4606 71.1918 96.5925 71.3348 96.9291 71.3188C97.5475 71.2894 98.1681 71.3045 98.786 71.27C105.885 70.8732 112.99 70.8282 120.096 70.9479C126.385 71.0539 132.667 71.3615 138.942 71.8307C143.491 72.1709 148.033 72.5927 152.566 73.0961C158.392 73.7515 164.199 74.557 169.985 75.5124C171.945 75.8371 173.905 76.1658 175.863 76.4988C176.247 76.5643 176.625 76.6688 177.005 76.7553C177.089 76.7852 177.164 76.8336 177.227 76.897C177.289 76.9604 177.336 77.0371 177.364 77.1212C177.392 77.2054 177.4 77.2948 177.389 77.3828C177.377 77.4708 177.346 77.555 177.297 77.629C177.231 77.7759 177.124 77.9006 176.989 77.988C176.854 78.0754 176.696 78.1218 176.535 78.1215C176.154 78.0903 175.779 78.0145 175.416 77.8957C173.213 77.6818 171.023 77.3483 168.857 76.8968C161.941 75.7991 155.004 74.8701 148.034 74.187C143.014 73.695 137.989 73.2746 132.949 73.0136C129.861 72.8537 126.77 72.7758 123.685 72.6165C118.376 72.3423 113.068 72.461 107.762 72.4908C104.48 72.5093 101.192 72.6578 97.9105 72.8627C97.2801 72.9021 96.9382 73.1149 96.979 73.8045C97.0212 74.5193 96.9701 75.2382 97.0203 75.9536C97.0683 76.6377 97.33 77.0683 98.1338 76.9171C98.8752 76.8002 99.6274 76.767 100.376 76.8181C103.57 76.9414 106.754 76.5606 109.944 76.624C115.216 76.7287 120.492 76.7717 125.757 77.0451C140.329 77.753 154.843 79.3639 169.215 81.8686C169.831 81.9439 170.429 82.1244 170.984 82.4022C171.414 82.7034 171.719 83.0784 171.437 83.6169C171.178 84.1103 170.714 84.0745 170.253 83.9504C166.112 83.2481 161.972 82.534 157.81 81.9655C151.519 81.1064 145.216 80.3511 138.884 79.8546C136.101 79.6363 133.331 79.2665 130.542 79.1197C129.89 78.9124 129.203 78.8388 128.522 78.9034C127.57 78.861 126.636 78.6095 125.814 78.6379C125.91 78.6323 126.007 78.6362 126.102 78.6494C127.22 78.8157 128.348 78.9126 129.478 78.9395C136.831 79.6108 144.108 80.7958 151.365 82.1219C156.808 83.1166 162.224 84.2398 167.614 85.4915C168.032 85.5587 168.438 85.6876 168.819 85.874C169.081 85.9777 169.31 86.1488 169.484 86.37C169.659 86.5912 169.771 86.8545 169.811 87.1333C169.818 87.3625 169.756 87.5887 169.633 87.782C168.165 90.1714 167.202 92.8359 166.802 95.6115C166.77 95.7713 166.726 95.9286 166.67 96.0819C166.17 97.2449 165.899 97.3485 165.108 96.6835C164.893 95.9585 164.919 95.1835 165.18 94.4741C165.362 93.6659 165.059 93.3638 164.307 93.2006C160.326 92.3367 156.325 91.5744 152.314 90.8614C144.579 89.4864 136.8 88.4218 128.992 87.5785C124.881 87.1345 120.761 86.7792 116.631 86.5125C112.342 86.2326 108.055 85.9764 103.754 85.9014C102.065 85.872 100.372 85.7746 98.6791 85.748C97.9083 85.7359 97.5083 85.9851 97.5882 86.8164C97.8626 89.6688 97.8474 92.5387 98.097 95.3929C98.2219 96.8204 98.2497 98.2557 98.3105 99.684C98.4976 104.075 98.7465 108.463 98.9836 112.851C99.2786 118.311 99.5609 123.772 99.8655 129.232C100.041 132.383 100.17 135.54 100.339 138.693C100.568 142.982 100.783 147.273 101.033 151.562C101.206 154.519 101.387 157.477 101.478 160.438C101.528 162.033 101.752 163.618 101.71 165.218C101.69 166.019 102.124 166.338 102.928 166.398C119.766 167.661 136.521 169.617 153.168 172.464C158.179 173.321 163.165 174.317 168.142 175.353C168.624 175.436 169.093 175.581 169.538 175.785C169.685 175.852 169.843 175.891 170.003 175.903C170.411 175.934 170.784 176.048 170.912 176.491C170.944 176.592 170.956 176.698 170.947 176.803C170.938 176.909 170.908 177.011 170.859 177.105C170.81 177.199 170.743 177.283 170.662 177.35C170.58 177.418 170.486 177.469 170.385 177.5C169.782 177.657 169.146 177.631 168.557 177.427C162.383 176.052 156.176 174.853 149.934 173.831C139.899 172.18 129.819 170.86 119.704 169.798C114.326 169.233 108.938 168.791 103.554 168.301C103.327 168.278 103.099 168.267 102.871 168.269C101.959 168.287 101.863 168.394 101.956 169.305C101.98 169.532 102.014 169.757 102.027 169.985C102.147 172.068 101.597 172.646 99.5403 172.775C95.2836 173.041 91.0217 173.18 86.7623 173.378C82.5029 173.576 78.2415 173.75 73.9842 173.976C70.767 174.147 67.5433 174.204 64.3306 174.471C63.185 174.566 62.6638 174.12 62.4633 172.96C62.4079 172.639 62.36 172.317 62.3196 171.993C62.1359 170.512 62.1353 170.498 60.6703 170.637C54.2761 171.238 47.9287 172.262 41.6699 173.703C34.0367 175.437 26.5772 177.862 19.3841 180.949C18.7554 181.221 18.1341 181.509 17.5265 181.823C17.3763 181.867 17.2434 181.956 17.1458 182.078C17.0482 182.201 16.9907 182.35 16.9811 182.506C16.9715 182.662 17.0103 182.818 17.0922 182.951C17.1741 183.084 17.2951 183.189 17.4387 183.251C17.8927 183.51 18.3814 183.702 18.8898 183.822C33.581 188.706 48.2959 193.518 62.9909 198.391C71.9936 201.376 80.9996 204.351 90.0088 207.317C102.979 211.593 115.932 215.919 128.923 220.129C132.942 221.495 136.668 223.603 139.91 226.343C146.751 231.87 151.398 239.656 153.014 248.302C153.02 248.471 153.065 248.637 153.143 248.787C153.222 248.936 153.334 249.067 153.469 249.168C153.605 249.269 153.762 249.338 153.928 249.37C154.094 249.403 154.265 249.397 154.429 249.355C158.333 249.045 162.249 249.291 166.152 249.134C170.375 248.963 173.687 251.418 175.536 255.522C175.802 256.161 176.082 256.795 176.305 257.452C177.363 260.295 178.026 263.27 178.278 266.294C178.445 268.001 177.736 268.817 176.047 269.212C174.086 269.703 172.094 270.062 170.086 270.288C168.528 270.318 166.998 269.878 165.694 269.025C164.391 268.172 163.375 266.946 162.78 265.506C162.71 265.286 162.594 265.083 162.439 264.912C162.285 264.74 162.095 264.603 161.884 264.51C161.673 264.418 161.444 264.371 161.213 264.373C160.982 264.376 160.754 264.427 160.545 264.524C160.435 264.555 160.338 264.62 160.268 264.709C160.198 264.799 160.158 264.908 160.154 265.022C160.079 265.357 160.077 265.705 160.147 266.041C160.217 266.378 160.358 266.695 160.56 266.973C161.681 268.405 163.138 269.537 164.803 270.27C166.467 271.002 168.287 271.312 170.1 271.172C173.38 270.958 176.462 269.799 179.603 268.952C188.323 266.601 196.959 263.974 205.512 261.072C217.4 257.035 229.121 252.562 240.595 247.459C253.415 241.863 265.794 235.309 277.629 227.853C284.069 223.82 290.168 219.267 295.864 214.238C300.008 210.603 303.752 206.536 307.033 202.107C308.405 200.241 309.57 198.231 310.505 196.112C310.647 195.677 310.855 195.267 311.122 194.895C312.67 193.152 312.527 191.002 312.653 188.904C312.821 186.111 313.017 183.318 313.157 180.524C313.313 177.404 313.65 174.293 313.63 171.163C313.55 170.353 313.387 169.553 313.145 168.776C312.941 168.258 312.892 167.692 313.005 167.146C313.321 166.703 313.653 166.351 314.148 166.95C314.657 168.152 314.828 169.454 315.239 170.685C315.367 171.069 315.174 171.457 315.153 171.846C314.944 175.585 314.73 179.324 314.51 183.062C314.217 187.971 313.909 192.878 313.615 197.787C313.388 201.59 313.178 205.395 312.952 209.198C312.655 214.172 312.355 219.145 312.049 224.118C311.826 227.856 311.616 231.595 311.393 235.334C311.095 240.34 310.794 245.346 310.489 250.351C310.263 254.155 310.066 257.96 309.82 261.762C309.553 265.888 309.408 270.022 309.032 274.142C308.936 274.585 308.909 275.041 308.952 275.493C308.93 275.809 309.018 276.174 308.553 276.254C308.119 276.327 307.997 276.026 307.89 275.705C307.84 274.111 307.901 272.515 308.074 270.93C308.256 267.224 308.486 263.521 308.702 259.818C308.893 256.537 309.089 253.256 309.288 249.976C309.483 246.695 309.678 243.414 309.873 240.134C310.07 236.82 310.267 233.507 310.464 230.194C310.657 226.946 310.844 223.697 311.047 220.45C311.274 216.813 311.53 213.178 311.749 209.54C311.923 206.649 312.052 203.755 312.218 200.863C312.301 199.435 312.427 198.008 312.525 196.581C312.545 196.29 312.527 195.996 312.527 195.687C312.194 195.78 312.223 196.086 312.12 196.304C311.539 197.544 310.897 198.751 310.206 199.933C307.889 203.83 305.092 207.421 301.881 210.623C296.358 216.12 290.331 221.086 283.88 225.457C273.507 232.517 262.601 238.761 251.261 244.132C234.865 251.976 217.952 258.689 200.64 264.226C192.495 266.865 184.283 269.277 176.004 271.462C174.225 271.983 172.411 272.376 170.576 272.639C168.331 272.885 166.062 272.495 164.028 271.512C162.679 270.925 161.456 270.082 160.427 269.03C160.316 268.929 160.199 268.834 160.076 268.747C159.964 269.027 159.931 269.333 159.981 269.63C160.06 272.332 160.116 275.035 160.233 277.735C160.403 281.64 160.502 285.546 160.636 289.451C160.765 293.193 160.894 296.935 161.022 300.678C161.158 304.583 161.259 308.49 161.431 312.393C161.545 314.961 161.473 317.539 161.762 320.099H160.588C160.383 319.935 160.224 319.72 160.126 319.476C160.029 319.232 159.996 318.967 160.031 318.706C160.127 316.065 159.885 313.432 159.797 310.797C159.634 305.95 159.561 301.099 159.27 296.256C159.148 294.241 159.146 292.219 159.097 290.204C159.023 287.209 158.914 284.212 158.807 281.22C158.622 276.015 158.51 270.807 158.252 265.604C158.221 264.98 157.952 264.718 157.346 264.74C157.053 264.75 156.759 264.744 156.466 264.745C156.36 264.73 156.252 264.74 156.151 264.775C156.049 264.81 155.958 264.868 155.883 264.945C155.808 265.021 155.752 265.114 155.72 265.217C155.688 265.319 155.68 265.427 155.697 265.533C155.647 266.672 155.671 267.814 155.769 268.95C155.835 269.336 155.868 269.727 155.868 270.118C155.771 273.02 156.004 275.916 156.122 278.809C156.294 283.004 156.329 287.205 156.626 291.395C156.762 293.31 156.745 295.236 156.799 297.154C156.878 299.921 156.975 302.687 157.089 305.453C157.264 309.778 157.295 314.109 157.599 318.429C157.668 318.715 157.673 319.013 157.615 319.301C157.557 319.59 157.437 319.862 157.263 320.099H156.089C155.659 319.325 155.48 318.437 155.576 317.557C155.57 312.832 155.258 308.118 155.126 303.399C154.972 297.932 154.742 292.467 154.547 287.001C154.418 283.389 154.288 279.778 154.157 276.166C154.03 272.751 153.847 269.336 153.795 265.918C153.787 265.349 153.668 264.913 153.062 264.695C152.527 264.486 152.046 264.159 151.654 263.739C151.263 263.319 150.971 262.816 150.801 262.267C149.708 259.353 149.388 256.205 149.874 253.13C149.994 252.187 150.339 251.286 150.88 250.504C151.048 250.285 151.155 250.024 151.189 249.75C151.224 249.476 151.185 249.197 151.077 248.943C149.339 243.794 146.478 239.095 142.701 235.188C139.577 232.015 135.792 229.569 131.616 228.024C130.937 227.76 130.206 227.661 129.481 227.735C128.757 227.808 128.06 228.052 127.448 228.447C126.836 228.841 126.326 229.375 125.959 230.004C125.593 230.633 125.381 231.341 125.34 232.068C125.215 233.304 125.37 234.553 125.793 235.722C126.217 236.891 126.899 237.949 127.788 238.818C129.323 240.372 131.014 241.765 132.834 242.974C136.145 245.233 139.55 247.358 142.729 249.805C144.365 251.251 145.836 252.875 147.114 254.646C147.701 255.438 148.021 256.397 148.026 257.383C148.403 262.709 148.64 268.043 148.946 273.373C149.182 277.5 149.386 281.631 149.613 285.759C149.833 289.788 150.064 293.818 150.304 297.848C150.479 300.706 150.616 303.569 150.771 306.429C150.93 309.387 151.042 312.348 151.288 315.3C151.394 316.566 151.295 317.842 151.498 319.104C151.533 319.282 151.523 319.465 151.471 319.638C151.419 319.812 151.326 319.97 151.199 320.099H150.026C149.801 316.267 149.579 312.435 149.394 308.6C149.285 306.326 149.136 304.053 149.009 301.78C148.811 298.207 148.604 294.635 148.42 291.061C148.301 288.755 148.164 286.449 148.033 284.143C147.829 280.57 147.621 276.998 147.439 273.424C147.324 271.15 147.163 268.879 147.058 266.604C146.913 263.452 146.682 260.305 146.516 257.154C146.413 256.205 145.972 255.325 145.274 254.675C144.616 253.953 143.966 253.223 143.325 252.487C141.906 251.002 140.3 249.708 138.548 248.636C135.183 246.346 131.709 244.21 128.528 241.658C126.662 240.265 125.212 238.388 124.337 236.23C123.56 234.305 123.515 232.162 124.212 230.207C124.622 229.079 125.347 228.093 126.3 227.366C127.254 226.638 128.396 226.199 129.592 226.102C130.342 226.025 131.1 226.144 131.791 226.448C136.797 228.296 141.281 231.326 144.864 235.281C145.937 236.506 146.942 237.789 147.876 239.124C148.263 239.464 148.559 239.896 148.736 240.38C148.752 240.425 148.753 240.51 148.782 240.522C148.851 240.549 148.841 240.532 148.776 240.471C148.682 240.383 148.817 240.508 148.744 240.393C148.554 239.88 148.129 239.474 148.102 238.897C147.091 236.779 145.831 234.789 144.348 232.97C141.097 228.958 137.071 225.641 132.511 223.218C131.626 222.736 130.698 222.338 129.74 222.027C119.815 218.752 109.89 215.474 99.9659 212.194C99.6744 212.098 99.3848 211.871 99.0306 212.034C99.0203 212.43 99.3128 212.679 99.4744 212.986C100.336 214.424 100.682 216.114 100.453 217.775C100.267 218.773 99.851 219.715 99.239 220.525C98.6271 221.335 97.8353 221.992 96.9262 222.444C95.1701 223.39 93.2249 223.932 91.2327 224.029C89.0527 224.138 86.8673 224.012 84.7144 223.653C84.1461 223.515 83.5909 223.327 83.0553 223.092C77.8906 221.392 72.7253 219.692 67.5594 217.995C58.095 214.881 48.6293 211.771 39.1621 208.666C37.8351 208.21 36.6062 207.508 35.54 206.596C33.521 205.134 31.9646 203.123 31.0559 200.802C30.4823 199.326 30.4807 197.688 31.0515 196.211C31.6223 194.734 32.7243 193.523 34.1415 192.816C35.1057 192.242 36.1422 191.8 37.2235 191.501L17.3825 184.944C17.3506 185.472 17.4678 185.999 17.7209 186.465C18.6578 188.325 18.0423 189.961 17.1579 191.615C16.0708 193.583 14.8414 195.47 13.4794 197.259C11.5195 199.95 9.17847 202.342 6.52981 204.359C4.54057 205.839 2.33912 207.009 1e-05 207.831V206.462C0.863839 205.885 1.78989 205.406 2.7607 205.036C6.03433 203.199 8.90731 200.726 11.2104 197.761C13.1235 195.455 14.7861 192.952 16.1704 190.295C16.4183 189.822 16.5664 189.303 16.6055 188.771C16.6446 188.238 16.574 187.703 16.3979 187.199C15.4637 184.253 14.6158 181.279 13.7909 178.301C13.5045 177.156 12.78 176.169 11.7732 175.553C8.37971 173.49 4.72577 171.89 0.90844 170.796C0.559871 170.72 0.242801 170.54 1e-05 170.279V169.105Z" fill="#5D4E47"/>
<path d="M151.199 320.099C151.062 317.403 150.885 314.71 150.761 312.013C150.655 309.708 150.497 307.405 150.377 305.099C150.254 302.729 150.103 300.361 149.983 297.99C149.865 295.652 149.712 293.316 149.592 290.978C149.471 288.608 149.329 286.239 149.201 283.869C149.078 281.564 148.928 279.261 148.811 276.955C148.689 274.552 148.547 272.15 148.415 269.748C148.291 267.476 148.167 265.203 148.031 262.931C147.909 260.887 147.827 258.84 147.668 256.799C147.525 255.721 147.008 254.726 146.208 253.989C145.442 253.186 144.756 252.318 144.029 251.485C142.962 250.339 141.753 249.335 140.43 248.498C137.225 246.319 134.008 244.158 130.821 241.953C129.107 240.812 127.615 239.369 126.419 237.693C125.665 236.662 125.176 235.462 124.993 234.198C124.81 232.934 124.939 231.644 125.369 230.442C125.864 229.268 126.787 228.327 127.95 227.807C129.113 227.288 130.429 227.23 131.634 227.644C135.007 228.961 138.149 230.805 140.943 233.108C143.82 235.569 146.254 238.505 148.138 241.789C149.471 244.141 150.603 246.603 151.522 249.146C151.647 249.369 151.69 249.629 151.643 249.88C151.596 250.132 151.462 250.358 151.265 250.521C150.824 251.007 150.529 251.608 150.411 252.253C149.873 254.542 149.837 256.92 150.307 259.224C150.443 260.059 150.649 260.882 150.921 261.683C151.404 263.066 152.098 264.238 153.699 264.522C153.814 264.529 153.921 264.582 153.998 264.668C154.074 264.754 154.113 264.867 154.107 264.982C154.111 265.079 154.113 265.177 154.116 265.275C154.193 268.204 154.176 271.139 154.378 274.06C154.54 276.399 154.375 278.748 154.686 281.078C154.721 281.501 154.727 281.925 154.705 282.348C154.697 285.149 154.892 287.945 154.979 290.742C155.033 292.498 155.043 294.257 155.14 296.011C155.343 299.716 155.408 303.425 155.561 307.131C155.634 308.92 155.578 310.717 155.744 312.496C155.98 315.028 155.77 317.575 156.089 320.099L151.199 320.099Z" fill="#DCCDB3"/>
<path d="M0 92.2388C0.325357 92.2575 0.650344 92.1963 0.94656 92.0604C6.01369 90.1823 11.17 88.584 16.3812 87.1587C21.5866 85.735 26.8409 84.5243 32.1442 83.5267C34.6947 83.0455 37.2512 82.5891 39.8262 82.2442C41.9479 81.9601 44.0609 81.6103 46.1842 81.3396C47.6965 81.1467 49.2194 81.0378 50.7374 80.8896C51.8993 80.7761 53.0606 80.6575 54.2226 80.5461C54.4494 80.5249 54.6772 80.5152 54.905 80.5171C55.725 80.5215 55.6554 80.5241 55.6549 81.3185C55.6543 82.3509 55.7559 83.3854 55.8564 84.4149C55.9221 85.0878 55.9601 85.1099 55.2748 85.2176C53.9935 85.4188 52.7094 85.6056 51.4224 85.7656C48.7805 86.0939 46.1525 86.5141 43.5341 86.9861C38.1616 87.9544 32.8232 89.0886 27.5463 90.492C21.8512 91.9925 16.2362 93.7819 10.723 95.853C7.37272 97.1201 4.07309 98.5006 0.83677 100.034C0.585443 100.188 0.294736 100.266 0 100.258L0 92.2388Z" fill="#331815"/>
<path d="M0 85.1976C2.01593 84.5558 4.02652 83.8966 6.04885 83.2758C10.7467 81.8334 15.5089 80.6331 20.2958 79.5269C24.1595 78.634 28.0528 77.8823 31.962 77.233C34.9704 76.7334 37.991 76.2949 41.028 75.966C43.7074 75.6759 46.3832 75.3785 49.0727 75.1858C51.1145 75.0396 53.15 74.8094 55.2006 74.8208C56.1156 74.826 56.2362 74.9408 56.1097 75.8368C55.9489 76.6597 55.8791 77.4977 55.9014 78.3357C55.959 79.0954 55.6909 79.2593 54.9482 79.3447C52.4977 79.6265 50.0363 79.7881 47.5838 80.0613C44.8078 80.3705 42.0365 80.7163 39.2777 81.1323C35.8747 81.6454 32.4873 82.2658 29.1125 82.9519C23.8194 84.028 18.5774 85.3101 13.3865 86.7981C9.254 87.9774 5.16186 89.2919 1.12634 90.7759C0.776231 90.9527 0.391952 91.0514 0 91.0653L0 85.1976Z" fill="#331815"/>
<path d="M0 170.279C4.10494 171.333 8.03951 172.965 11.6861 175.125C12.3069 175.475 12.8472 175.952 13.2719 176.524C13.6966 177.097 13.9962 177.752 14.1514 178.448C14.9148 181.441 15.8331 184.397 16.7654 187.343C16.9212 187.803 16.984 188.289 16.9501 188.774C16.9161 189.258 16.7861 189.731 16.5677 190.164C15.4714 192.348 14.1693 194.423 12.6792 196.359C10.6423 199.235 8.14479 201.755 5.28736 203.817C3.82548 204.856 2.24106 205.71 0.57 206.36C0.383849 206.413 0.19291 206.447 0 206.462L0 190.815C0.42295 190.455 0.931651 190.211 1.47689 190.105C4.03674 189.314 6.37823 187.939 8.31737 186.09C9.71466 184.69 10.5076 182.798 10.5262 180.819C10.5449 178.841 9.78766 176.934 8.41698 175.508C6.50273 173.53 4.05883 172.146 1.37808 171.521C0.855262 171.474 0.366622 171.241 0 170.865L0 170.279Z" fill="#DCCDB3"/>
<path d="M0 217.024C3.60159 218.264 7.20324 219.503 10.8049 220.742C24.141 225.318 37.4773 229.893 50.814 234.467C59.6533 237.501 68.4918 240.537 77.3294 243.575C84.565 246.065 91.8294 248.476 99.0226 251.083C107.904 254.164 115.289 260.494 119.691 268.799C121.98 273.086 123.59 277.702 124.465 282.483C124.73 284.085 124.91 285.701 125.005 287.322C125.247 290.173 125.485 293.024 125.719 295.876C125.869 297.723 125.996 299.573 126.144 301.421C126.391 304.5 126.653 307.578 126.895 310.658C127.059 312.733 127.203 314.81 127.347 316.887C127.489 317.952 127.551 319.025 127.531 320.099H126.358C126.346 318.668 126.26 317.238 126.1 315.816C125.98 313.706 125.757 311.603 125.587 309.496C125.321 306.189 125.065 302.881 124.8 299.575C124.49 295.717 124.177 291.86 123.862 288.003C123.778 286.965 123.738 285.924 123.635 284.889C123.351 282.465 122.838 280.074 122.102 277.747C120.657 272.655 118.225 267.898 114.944 263.745C110.648 258.407 104.938 254.384 98.466 252.136C89.4261 248.896 80.3148 245.862 71.2352 242.736C54.7371 237.057 38.2344 231.391 21.7272 225.738C14.8613 223.381 7.99468 221.027 1.1274 218.674C0.776825 218.499 0.391876 218.403 0 218.393L0 217.024Z" fill="#5D4E47"/>
<path d="M157.263 320.099C157.057 314.404 156.852 308.708 156.647 303.013C156.38 295.592 156.113 288.172 155.845 280.751C155.662 275.707 155.478 270.662 155.291 265.618C155.284 265.423 155.296 265.226 155.275 265.032C155.227 264.581 155.397 264.375 155.873 264.378C156.589 264.381 157.307 264.359 158.021 264.309C158.519 264.274 158.62 264.516 158.631 264.946C158.663 266.281 158.728 267.614 158.771 268.949C158.934 273.994 159.084 279.04 159.256 284.085C159.483 290.725 159.734 297.364 159.961 304.004C160.13 308.918 160.276 313.834 160.438 318.749C160.407 319.204 160.458 319.662 160.588 320.099L157.263 320.099Z" fill="#F6EBD1"/>
<path d="M0 189.642V172.039C0.0865405 171.963 0.19119 171.911 0.303796 171.888C0.416402 171.864 0.533142 171.87 0.64269 171.905C3.70569 172.667 6.54194 173.869 8.49224 176.485C9.63222 177.962 10.1441 179.828 9.91675 181.68C9.68944 183.531 8.74129 185.218 7.278 186.375C5.38981 187.827 3.27238 188.954 1.01307 189.708C0.856553 189.799 0.676771 189.84 0.496451 189.829C0.31613 189.817 0.143367 189.752 0 189.642Z" fill="#DCCDB3"/>
<path d="M307.89 275.705C308.102 275.886 308.267 276.191 308.619 276.031C308.921 275.893 308.823 275.595 308.852 275.35C308.901 274.946 308.721 274.507 309.032 274.142C309.106 275.374 308.939 276.609 308.542 277.778C304.91 288.832 298.823 298.919 290.738 307.285C286.454 311.752 281.753 315.801 276.7 319.376C276.355 319.555 276.047 319.801 275.797 320.099H273.645C274.087 319.771 274.52 319.429 274.973 319.115C280.318 315.442 285.277 311.237 289.775 306.565C297.644 298.441 303.604 288.665 307.219 277.948C307.466 277.208 307.667 276.453 307.89 275.705Z" fill="#5D4E53"/>
<path d="M0 189.642C1.73358 189.195 3.39508 188.505 4.93494 187.591C6.25079 186.875 7.41916 185.915 8.37846 184.764C10.1828 182.567 9.92127 178.951 8.37946 176.814C7.04692 175.069 5.23805 173.747 3.171 173.007C2.14011 172.605 1.08005 172.281 0 172.039L0 170.865C1.95245 171.233 3.8342 171.908 5.575 172.866C7.52392 173.879 9.0972 175.49 10.0646 177.463C10.7725 178.902 11.0113 180.527 10.7473 182.109C10.4833 183.691 9.72987 185.15 8.593 186.282C6.70096 188.08 4.43387 189.436 1.9549 190.253C1.34152 190.554 0.679703 190.744 0 190.815L0 189.642Z" fill="#5D4E47"/>
<path d="M169.584 87.1483C169.525 86.6508 169.154 86.4059 168.783 86.1623C169.017 85.1875 169.553 84.3117 170.315 83.6599C170.637 83.7327 170.988 83.9782 171.245 83.5623C171.486 83.1721 171.24 82.9175 170.954 82.689C172.277 80.7859 173.848 79.0682 175.626 77.5814C175.773 77.6453 175.924 77.7003 176.077 77.7461C176.373 77.817 176.66 78.0281 176.968 77.7166C177.291 77.3883 177.176 77.0822 177.005 76.7552C181.022 73.4899 185.83 71.3442 190.943 70.5356C199.724 69.1205 207.779 71.1924 215.183 75.9181C223.442 81.1898 229.17 88.5925 232.951 97.5655C233.674 99.2406 234.274 100.966 234.746 102.729C234.802 103.01 234.938 103.269 235.139 103.475C235.339 103.68 235.594 103.823 235.874 103.887C242.813 106.145 249.624 108.78 256.276 111.779C266.392 116.246 275.947 121.887 284.744 128.588C293.699 135.382 301.365 143.726 307.377 153.225C309.966 157.373 312.17 161.749 313.961 166.299C314.074 166.498 314.138 166.721 314.148 166.95C313.723 166.607 313.45 167.012 313.123 167.156C312.534 167.086 312.491 166.553 312.328 166.161C310.451 161.611 308.175 157.236 305.524 153.088C302.884 149.012 299.919 145.157 296.656 141.56C290.65 135.03 283.847 129.28 276.407 124.446C269.53 119.952 262.292 116.036 254.767 112.739C248.036 109.747 241.15 107.117 234.139 104.858C227.816 102.802 221.411 101.023 214.961 99.4066C214.507 99.2926 213.947 99.2844 213.89 98.6167C214.243 98.2768 214.823 98.2598 215.086 97.7847C216.607 97.9498 218.104 98.2802 219.553 98.77C224.067 99.9203 228.534 101.239 232.974 102.623C233.213 102.33 233.014 102.092 232.938 101.866C230.862 95.4592 227.475 89.5545 222.992 84.5282C218.664 79.5195 213.107 75.7229 206.867 73.511C195.948 69.8122 185.872 71.3281 176.883 78.7993C174.383 80.9476 172.233 83.4731 170.512 86.2845C170.287 86.6377 170.18 87.172 169.584 87.1483Z" fill="#5D4E53"/>
<path d="M148.666 240.482C148.403 240.029 148.139 239.577 147.876 239.124L148.102 238.897C148.456 239.382 148.722 239.926 148.887 240.503C148.874 240.521 148.856 240.535 148.836 240.544C148.815 240.552 148.793 240.556 148.771 240.554C148.749 240.552 148.728 240.544 148.709 240.532C148.691 240.519 148.676 240.502 148.666 240.482Z" fill="#DCCDB3"/>
<path d="M169.592 176.163C168.239 175.698 166.844 175.366 165.426 175.174C161.516 174.332 157.584 173.6 153.644 172.913C150.571 172.377 147.484 171.915 144.401 171.434C141.961 171.054 139.521 170.67 137.075 170.333C134.789 170.018 132.495 169.762 130.205 169.479C127.722 169.173 125.241 168.845 122.755 168.566C120.591 168.322 118.421 168.133 116.254 167.92C113.796 167.679 111.34 167.432 108.881 167.199C107.91 167.106 106.937 167.04 105.964 166.972C104.764 166.888 103.562 166.821 102.361 166.734C101.647 166.682 101.533 166.571 101.397 165.881C101.366 165.755 101.349 165.625 101.347 165.495C101.393 163.538 101.167 161.593 101.09 159.642C100.974 156.686 100.75 153.735 100.576 150.782C100.553 150.392 100.559 150 100.548 149.609C100.46 146.551 100.215 143.502 100.095 140.445C100.001 138.042 99.8468 135.638 99.7192 133.235C99.5812 130.636 99.4528 128.037 99.3192 125.438C99.1956 123.035 99.0501 120.633 98.9342 118.229C98.8104 115.662 98.6658 113.097 98.535 110.53C98.4142 108.16 98.2759 105.789 98.1554 103.418C98.0233 100.819 97.8891 98.2205 97.7529 95.6218C97.6314 93.2509 97.4393 90.8838 97.3826 88.5088C97.3633 87.6971 97.1965 86.8955 97.2108 86.0764C97.2193 85.5921 97.3438 85.3433 97.8697 85.374C99.6571 85.4785 101.451 85.3029 103.239 85.5347C103.921 85.5987 104.606 85.611 105.29 85.5715C107.54 85.5194 109.784 85.6977 112.023 85.8343C115.103 86.0223 118.186 86.2094 121.261 86.5089C123.039 86.682 124.824 86.8168 126.604 86.9809C128.674 87.1716 130.734 87.4739 132.803 87.6735C135.134 87.8983 137.452 88.2215 139.77 88.5392C142.539 88.9187 145.3 89.3551 148.062 89.7817C152.304 90.4367 156.518 91.2471 160.731 92.063C162.263 92.3598 163.782 92.725 165.312 93.0314C165.795 93.128 165.742 93.4031 165.675 93.7503C165.411 94.7244 165.282 95.7301 165.292 96.7392C165.557 97.1529 165.687 97.6389 165.663 98.1297C165.541 103.106 165.842 108.077 165.906 113.051C165.959 117.114 165.943 121.181 166.093 125.24C166.209 128.357 166.241 131.471 166.248 134.588C166.393 136.239 166.452 137.896 166.427 139.553C166.267 141.658 166.291 143.773 166.498 145.874C166.666 148.409 166.627 150.937 166.629 153.467C166.631 156.519 166.958 159.562 166.847 162.617C166.71 163.352 166.726 164.108 166.896 164.837C167.056 165.676 166.935 166.54 167.113 167.379C167.675 169.94 168.522 172.43 169.639 174.803C169.832 175.222 170.345 175.74 169.592 176.163Z" fill="#55322D"/>
<path d="M213.994 98.499C214.045 98.91 214.368 98.9887 214.691 99.0657C220.608 100.476 226.449 102.153 232.258 103.954C238.573 105.911 244.766 108.198 250.876 110.712C255.847 112.756 260.693 115.08 265.443 117.595C269.531 119.751 273.502 122.124 277.337 124.703C280.82 127.042 284.177 129.564 287.392 132.258C290.318 134.696 293.098 137.303 295.72 140.065C298.64 143.168 301.338 146.472 303.794 149.954C306.049 153.182 308.082 156.561 309.877 160.067C310.953 162.146 311.885 164.3 312.763 166.473C312.834 166.723 312.957 166.956 313.123 167.156C313.209 167.933 313.385 168.697 313.647 169.434C314.008 170.989 314.074 172.598 313.842 174.177C313.827 174.436 313.762 174.693 313.76 174.951C313.737 177.065 313.561 179.169 313.381 181.274C313.29 182.341 313.252 183.418 313.213 184.484C313.151 186.207 312.94 187.921 312.938 189.648C312.937 190.652 312.713 191.65 312.755 192.662C312.747 192.958 312.629 193.24 312.424 193.455C311.643 194.535 310.99 195.701 310.476 196.931C309.345 199.28 307.965 201.5 306.358 203.553C303.512 207.243 300.338 210.667 296.875 213.785C293.359 216.98 289.652 219.958 285.773 222.701C280.372 226.577 274.762 230.123 269.005 233.445C265.394 235.529 261.718 237.491 258.033 239.44C254.632 241.238 251.171 242.909 247.695 244.545C241.833 247.304 235.898 249.899 229.89 252.331C224.035 254.7 218.134 256.946 212.187 259.069C208.506 260.377 204.82 261.674 201.099 262.867C194.437 265.002 187.754 267.069 180.996 268.887C178.578 269.538 176.166 270.211 173.754 270.888C172.347 271.293 170.895 271.517 169.431 271.556C166.902 271.565 164.44 270.744 162.423 269.218C161.508 268.589 160.717 267.796 160.089 266.881C159.575 266.11 159.841 265.245 159.866 264.417C159.873 264.195 160.14 264.172 160.335 264.164C160.986 264.137 161.638 264.13 162.287 264.091C162.701 264.065 162.797 264.377 162.849 264.644C163.175 266.019 163.951 267.245 165.055 268.127C165.788 268.821 166.669 269.341 167.631 269.647C168.593 269.953 169.612 270.038 170.611 269.896C172.493 269.679 174.322 269.249 176.162 268.855C177.555 268.557 178.003 267.951 178.002 266.514C177.927 265.216 177.725 263.928 177.399 262.67C177.123 260.901 176.658 259.168 176.012 257.499C176.185 256.821 176.774 256.869 177.263 256.829C186.715 256.02 196.085 254.443 205.28 252.112C216.102 249.419 226.68 245.832 236.907 241.386C247.48 236.838 257.615 231.33 267.182 224.931C268.614 223.965 270.001 222.935 271.44 221.982C276.005 218.637 280.373 215.031 284.52 211.181C288.937 207.046 292.958 202.508 296.532 197.626C299.968 193.349 301.5 188.286 302.451 183.019C303.161 178.862 303.05 174.606 302.124 170.491C301.82 169.123 301.362 167.794 300.759 166.529C297.469 159.417 293.159 152.824 287.964 146.957C280.623 138.809 272.113 131.796 262.713 126.146C252.22 119.797 241.12 114.511 229.577 110.365C225.695 108.928 221.785 107.592 217.796 106.467C215.186 105.636 212.638 104.622 210.169 103.435C203.343 100.4 196.857 96.6513 190.819 92.2523C190.433 91.9726 189.968 91.7427 189.845 91.2063C189.947 90.6169 190.452 90.4753 190.897 90.3068C193.199 89.4248 195.657 89.0247 198.12 89.1312C200.582 89.2378 202.996 89.8487 205.213 90.9262C208.17 92.3122 210.807 94.2966 212.957 96.754C213.03 96.82 213.102 96.8885 213.175 96.9543C213.246 97.02 213.313 97.0899 213.376 97.1638C213.65 97.5761 214.186 97.8703 213.994 98.499Z" fill="#331815"/>
<path d="M169.584 87.1482C170.593 85.6331 171.547 84.0824 172.701 82.6655C177.191 76.9378 183.628 73.059 190.79 71.7658C196.89 70.686 203.174 71.4387 208.847 73.9285C213.024 75.6978 216.862 78.1796 220.189 81.263C226.466 87.0641 231.065 94.4482 233.503 102.64C233.521 102.731 233.53 102.825 233.528 102.918C233.364 103.162 233.16 103.02 232.999 102.968C227.202 101.116 221.341 99.4902 215.433 98.0346C215.276 97.9958 215.123 97.9353 214.969 97.8849C214.322 97.6194 214.02 96.9949 213.56 96.534C209.769 92.4044 205.275 89.4705 199.62 88.7479C197.082 88.3435 194.485 88.5274 192.029 89.2856C189.573 90.0438 187.324 91.356 185.456 93.1209C184.372 93.9579 183.544 95.0811 183.065 96.3639C183.109 98.6357 182.963 100.907 183.189 103.173C183.3 104.794 183.323 106.421 183.258 108.045C183.21 113.568 183.601 119.085 183.465 124.609C183.455 125.031 183.464 125.454 183.426 125.874C183.404 126.02 183.345 126.157 183.253 126.273C183.161 126.389 183.04 126.478 182.903 126.532C181.031 127.398 179.446 128.726 177.68 129.764C177.012 130.172 176.219 130.327 175.446 130.203C173.451 129.927 171.467 129.578 169.446 129.469C168.959 129.529 168.464 129.467 168.007 129.289C167.55 129.11 167.144 128.821 166.827 128.447C166.582 127.138 166.471 125.807 166.495 124.475C166.561 118.623 166.244 112.778 166.228 106.926C166.221 104.235 166.108 101.537 166.059 98.841C166.087 97.8718 166.213 96.9078 166.434 95.9637C166.682 94.3604 167.073 92.7823 167.601 91.2482C167.989 90.0764 168.529 88.9603 169.206 87.928C169.4 87.7074 169.531 87.4378 169.584 87.1482Z" fill="#E5E4E1"/>
<path d="M96.2238 130.172C96.7451 130.172 97.2665 130.18 97.7876 130.17C98.1891 130.161 98.4176 130.329 98.389 130.743C98.3188 131.756 98.5712 132.745 98.5912 133.756C98.6336 135.898 98.7243 138.041 98.9535 140.174C98.9607 140.239 98.9632 140.304 98.9608 140.369C98.8772 142.357 99.1372 144.332 99.2093 146.314C99.3049 148.942 99.4685 151.57 99.616 154.197C99.6797 155.332 99.6902 156.47 99.7761 157.603C99.9704 160.163 100.015 162.733 100.21 165.289C100.199 166.881 100.303 168.472 100.52 170.05C100.537 170.245 100.54 170.44 100.528 170.635C100.557 171.1 100.329 171.266 99.8837 171.27C98.2907 171.283 96.6937 171.375 95.1139 171.506C93.201 171.666 91.273 171.48 89.3752 171.822C89.3429 171.827 89.3102 171.829 89.2776 171.827C87.0295 171.742 84.7889 171.97 82.5515 172.092C80.602 172.086 78.6538 172.191 76.7162 172.406C76.6518 172.416 76.5864 172.42 76.5212 172.417C74.2735 172.34 72.0343 172.572 69.7947 172.676C68.044 172.757 66.2842 172.727 64.5399 172.928C64.1731 172.971 63.9707 172.917 63.95 172.52C63.928 172.098 63.789 171.697 63.7662 171.268C63.6388 168.87 63.4218 166.478 63.2289 164.085C63.1403 162.986 63.0457 161.884 62.9732 160.782C62.8283 158.581 62.6152 156.385 62.433 154.186C62.358 153.28 62.3368 152.373 62.2429 151.465C62.0259 149.367 61.9939 147.25 61.7801 145.151C61.5796 143.182 61.54 141.2 61.2595 139.238C61.1403 138.404 61.142 137.552 61.0922 136.713C61.0112 135.351 60.7871 133.997 60.8178 132.628C60.8365 131.795 60.8299 131.759 61.6087 131.763C63.5297 131.773 65.4421 131.587 67.3584 131.51C70.4097 131.387 73.4607 131.229 76.5118 131.085C76.9707 131.063 77.1132 131.216 77.1576 131.566C77.2719 132.466 77.3586 133.371 77.4504 134.274C77.4734 134.5 77.4526 134.733 77.4892 134.956C77.604 135.656 77.9333 135.924 78.6388 135.822C79.1212 135.752 79.5997 135.679 80.0874 135.642C80.9438 135.578 81.211 135.189 81.0936 134.346C80.9729 133.479 80.8621 132.609 80.7989 131.737C80.7483 131.039 80.8291 130.977 81.5166 130.834C81.6432 130.803 81.773 130.788 81.9033 130.788C84.1516 130.872 86.3906 130.637 88.6302 130.529C90.6392 130.433 92.6595 130.495 94.6616 130.216C95.1815 130.177 95.7034 130.173 96.2238 130.205L96.2238 130.172Z" fill="#331815"/>
<path d="M57.6898 91.8893C58.536 91.8267 59.3548 91.6489 60.2024 91.6551C61.9618 91.6681 63.7287 91.7422 65.4793 91.6131C68.0172 91.4259 70.5618 91.594 73.0889 91.408C75.499 91.2307 77.9099 91.3984 80.3089 91.2247C82.9445 91.034 85.5865 91.2025 88.2115 91.0138C90.589 90.843 92.9613 90.9184 95.3352 90.8595C96.2742 90.8361 96.4298 90.9678 96.4089 91.927C96.3649 93.9478 96.5962 95.9551 96.6695 97.9696C96.7616 100.5 96.9285 103.03 97.0563 105.561C97.1791 107.993 97.3185 110.426 97.4414 112.859C97.5691 115.389 97.702 117.92 97.84 120.45C97.9824 123.078 98.1546 125.703 98.2394 128.335C98.2547 128.808 98.1582 129.012 97.6866 128.997C96.2207 128.95 94.7651 129.173 93.3039 129.184C91.058 129.2 88.8201 129.392 86.5767 129.462C85.2816 129.503 83.9806 129.579 82.6814 129.601C82.2194 129.608 81.7803 129.722 81.3291 129.772C80.8789 129.823 80.6038 129.712 80.5625 129.164C80.4771 128.033 80.317 126.908 80.1961 125.779C80.1981 125.518 80.1475 125.26 80.0474 125.02C79.9942 124.88 79.8978 124.762 79.7722 124.681C79.6466 124.601 79.4986 124.563 79.3498 124.573C78.6756 124.716 77.9827 124.634 77.3179 124.789C76.6432 124.947 76.5072 125.213 76.5823 125.913C76.7001 127.01 76.8123 128.109 76.8727 129.21C76.9111 129.911 76.8448 129.982 76.1883 129.967C74.0052 129.917 71.829 130.118 69.6577 130.242C67.8444 130.346 66.0206 130.27 64.2097 130.525C63.2354 130.601 62.2576 130.622 61.2809 130.589C60.8397 130.6 60.6939 130.425 60.6039 129.979C60.4358 128.822 60.3335 127.656 60.2975 126.488C60.1888 125.23 60.11 123.959 60.0069 122.699C59.8455 120.728 59.773 118.748 59.5075 116.784C59.3818 115.853 59.3556 114.904 59.3085 113.968C59.2023 111.858 59.0037 109.755 58.8312 107.653C58.6668 105.65 58.5418 103.642 58.3406 101.64C58.2242 100.482 58.1456 99.3099 58.0776 98.1422C57.9626 96.1653 57.7166 94.1969 57.6621 92.2153C57.6658 92.1062 57.6751 91.9974 57.6898 91.8893Z" fill="#331815"/>
<path d="M90.0735 222.903C88.4818 222.877 86.8932 222.756 85.3163 222.539C84.7093 222.421 84.1151 222.245 83.542 222.014C76.3336 219.646 69.1273 217.272 61.923 214.891C54.5922 212.479 47.2687 210.045 39.9187 207.692C38.2283 207.097 36.6804 206.156 35.374 204.929C33.9781 203.788 32.9003 202.306 32.2448 200.627C30.9864 197.148 32.6209 194.598 35.7323 193.37C36.956 192.924 38.2223 192.605 39.5112 192.417C39.9346 192.384 40.3595 192.46 40.745 192.639C46.3092 194.482 51.8723 196.329 57.4344 198.179C63.9884 200.348 70.5442 202.511 77.1019 204.669C83.2871 206.708 89.4735 208.744 95.6612 210.776C96.4118 210.963 97.0648 211.426 97.4914 212.071C98.2757 213.152 98.8621 214.363 99.2235 215.648C99.445 216.539 99.4067 217.475 99.1131 218.346C98.8195 219.216 98.2829 219.984 97.5667 220.559C96.15 221.728 94.4259 222.463 92.6016 222.676C91.7712 222.854 90.9223 222.93 90.0735 222.903Z" fill="#DCCDB3"/>
<path d="M85.6515 89.8788C82.2039 89.9655 78.7543 90.0354 75.3093 90.1479C72.8375 90.2287 70.3595 90.1426 67.8975 90.3259C65.3917 90.5126 62.8888 90.4255 60.3857 90.5006C59.6402 90.5229 58.908 90.7113 58.1522 90.6716C57.7185 90.6488 57.5162 90.5236 57.483 90.0539C57.387 88.6956 57.2393 87.341 57.1205 85.9841C57.0045 84.6598 56.878 83.3341 56.7915 82.0101C56.7736 80.9079 56.8374 79.8058 56.9824 78.713C57.0127 78.3545 57.2494 78.1931 57.6382 78.1276C58.9964 77.9789 60.3629 77.9194 61.7288 77.9495C64.036 77.865 66.3472 77.824 68.6497 77.7064C70.4384 77.6151 72.2312 77.6914 74.0097 77.5354C75.96 77.3641 77.9185 77.4987 79.8566 77.3244C81.5824 77.1691 83.3075 77.2943 85.0221 77.1487C87.0692 76.9749 89.1219 77.0736 91.1625 76.9325C92.3646 76.8494 93.5637 76.8121 94.765 76.7866C95.6098 76.7688 95.6403 76.7886 95.6339 77.663C95.6205 79.4859 95.7709 81.3067 95.9111 83.1144C96.0391 84.7651 96.0164 86.4207 96.18 88.0729C96.3654 89.9473 96.3909 89.6647 94.7252 89.6839C93.1943 89.7016 91.6551 89.6095 90.1346 89.7405C88.6382 89.8695 87.1462 89.8555 85.6515 89.8788Z" fill="#331815"/>
<path d="M168.229 87.2356C167.393 88.5285 166.763 89.9436 166.362 91.43C166.215 91.9477 165.891 91.9401 165.459 91.8502C163.392 91.4202 161.325 90.9837 159.25 90.5998C155.738 89.9502 152.223 89.314 148.701 88.7186C145.885 88.2425 143.061 87.8145 140.234 87.4053C138.468 87.1495 136.691 86.9684 134.918 86.7534C132.889 86.5074 130.863 86.2386 128.83 86.0216C127.152 85.8423 125.466 85.7298 123.784 85.577C121.878 85.4038 119.975 85.1801 118.066 85.0532C116.899 84.9756 115.732 84.8717 114.565 84.83C112.744 84.765 110.922 84.6693 109.11 84.5424C107.426 84.4246 105.737 84.4237 104.051 84.2684C102.241 84.1016 100.404 84.2134 98.5791 84.212C97.0109 84.2108 97.0332 84.3241 97.0181 82.6699C97.059 81.7587 97.0068 80.8457 96.8626 79.945C96.8075 79.4666 96.8017 78.9839 96.8453 78.5043C99.3663 78.2709 101.806 78.4122 104.237 78.312C105.307 78.2679 106.379 78.2045 107.45 78.1543C109.236 78.1074 111.022 78.278 112.766 78.6623C113.535 78.7912 114.311 78.8683 115.09 78.8932C116.971 79.0064 118.85 79.1687 120.721 79.3633C123.399 79.6419 126.079 79.9071 128.752 80.2398C130.587 80.4681 132.426 80.6894 134.261 80.921C136.707 81.2298 139.137 81.6658 141.579 82.0085C144.377 82.4013 147.159 82.8907 149.935 83.4115C152.809 83.9504 155.689 84.454 158.552 85.04C161.481 85.6394 164.393 86.3189 167.312 86.9676C167.563 87.0236 167.808 87.1116 168.229 87.2356Z" fill="#331815"/>
<path d="M175.626 77.5815C175.678 77.9348 175.408 78.1016 175.204 78.3039C173.837 79.56 172.58 80.9314 171.448 82.4028C171.327 82.5587 171.149 82.6613 170.954 82.6888C169.302 82.2041 167.61 81.8684 165.898 81.6858C163.565 81.2725 161.221 80.9151 158.877 80.57C157.175 80.3195 155.464 80.1281 153.757 79.9098C151.858 79.667 149.962 79.4057 148.06 79.1862C146.544 79.0112 145.022 78.8883 143.503 78.7394C141.695 78.5621 139.887 78.3786 138.078 78.2041C137.141 78.1137 136.196 78.0668 135.26 78.0121C133.8 77.9267 132.341 77.8047 130.88 77.7286C128.055 77.5815 125.23 77.4541 122.406 77.318C120.714 77.2366 119.024 77.183 117.334 77.1798C114.403 77.1742 111.478 76.8576 108.546 77.0052C105.325 77.1674 102.101 77.1713 98.8779 77.2024C98.3938 77.2071 97.9109 77.31 97.4267 77.3601C97.0363 77.4005 96.8406 77.2354 96.7712 76.8286C96.6912 76.4471 96.6455 76.0591 96.6348 75.6694C96.6433 74.6941 96.6376 73.7188 96.6376 72.6583C97.0065 72.5778 97.3813 72.5269 97.7584 72.506C99.4201 72.5196 101.071 72.3291 102.729 72.2654C108.591 72.0403 114.455 72.0647 120.318 72.1203C122.725 72.1431 125.134 72.2307 127.539 72.3292C130.006 72.4302 132.472 72.5769 134.939 72.7063C137.565 72.844 140.187 73.0738 142.808 73.2915C144.846 73.4608 146.883 73.6475 148.915 73.8733C151.463 74.1563 154.006 74.4792 156.55 74.7997C159.191 75.1325 161.836 75.4388 164.468 75.8372C167.71 76.3282 170.942 76.8909 174.172 77.453C174.652 77.5373 175.139 77.5803 175.626 77.5815Z" fill="#331815"/>
<path d="M163.758 250.695C164.886 250.763 166.38 250.601 167.878 250.771C168.83 250.917 169.743 251.252 170.563 251.757C171.383 252.262 172.094 252.926 172.652 253.711C174.222 255.761 175.296 258.147 175.79 260.682C176.179 262.292 176.452 263.93 176.776 265.556C176.789 265.619 176.794 265.684 176.803 265.749C177.004 267.306 176.815 267.576 175.298 267.864C173.734 268.161 172.189 268.526 170.603 268.735C169.602 268.883 168.579 268.769 167.634 268.406C166.689 268.042 165.854 267.441 165.209 266.661C164.591 265.986 164.15 265.168 163.927 264.281C163.595 263.017 163.312 262.88 161.986 262.945C159.711 263.057 157.435 263.123 155.159 263.206C154.931 263.215 154.703 263.207 154.475 263.219C153.979 263.323 153.461 263.228 153.034 262.954C152.606 262.681 152.304 262.25 152.191 261.755C151.875 260.935 151.641 260.085 151.495 259.218C151.079 257.206 151.046 255.134 151.396 253.109C151.408 253.045 151.411 252.979 151.428 252.917C151.982 250.959 152.294 250.786 154.018 250.834C157.144 250.922 160.266 250.644 163.758 250.695Z" fill="#E5E4E1"/>
<path d="M67.2416 68.0167C70.2113 67.8891 73.2715 67.8564 76.3245 67.7328C78.569 67.6419 80.8184 67.7283 83.0527 67.5553C85.3301 67.3788 87.6109 67.5178 89.8783 67.3526C91.4073 67.2412 92.932 67.239 94.4587 67.2002C95.1393 67.1829 95.0331 67.2215 95.1153 67.876C95.3104 69.4288 95.1474 70.9959 95.3719 72.5415C95.4443 73.3843 95.4732 74.2303 95.4588 75.076C95.4742 75.4396 95.2812 75.6115 94.9233 75.6106C94.8582 75.6104 94.7931 75.6179 94.728 75.6171C92.6127 75.5935 90.5056 75.7985 88.3917 75.851C86.1167 75.9076 83.8351 75.9076 81.5675 76.0585C79.8428 76.1732 78.1159 76.0834 76.4025 76.2344C74.4195 76.4091 72.4291 76.2775 70.457 76.4446C68.6992 76.5935 66.9395 76.4696 65.1942 76.6275C63.2108 76.8069 61.2288 76.7602 59.246 76.8072C58.7578 76.8187 58.2928 77.0121 57.7951 76.9761C57.2021 76.9332 57.0868 76.8324 57.1495 76.2829C57.4183 73.9285 57.5911 71.5667 57.7145 69.2008C57.7602 68.325 57.8841 68.2074 58.765 68.1938C59.3839 68.1843 60.0037 68.1605 60.6217 68.1832C62.8043 68.2634 64.9715 67.8629 67.2416 68.0167Z" fill="#331815"/>
<path d="M271.684 222.093C269.92 223.483 268.051 224.725 266.182 225.967C263.416 227.804 260.6 229.561 257.733 231.237C254.133 233.341 250.452 235.292 246.721 237.155C240.195 240.409 233.495 243.304 226.653 245.827C220.33 248.166 213.906 250.167 207.388 251.886C203.645 252.873 199.873 253.718 196.084 254.489C193.223 255.072 190.343 255.573 187.445 255.956C184.583 256.335 181.722 256.72 178.858 257.084C178.371 257.127 177.882 257.142 177.394 257.128C176.904 257.09 176.417 257.221 176.012 257.499C175.767 256.9 175.522 256.301 175.276 255.703C175.556 256.087 175.956 256.013 176.343 255.98C179.458 255.718 182.569 255.443 185.669 255.017C192.476 254.086 199.223 252.763 205.878 251.055C226.799 245.803 246.715 237.147 264.828 225.433C266.492 224.348 268.117 223.202 269.75 222.07C269.991 221.903 270.392 221.803 270.243 221.35C270.833 221.239 271.16 221.858 271.705 221.874C271.719 221.89 271.73 221.907 271.737 221.927C271.744 221.947 271.747 221.968 271.745 221.989C271.743 222.01 271.736 222.03 271.726 222.048C271.715 222.066 271.701 222.081 271.684 222.093Z" fill="#5D4E53"/>
<path d="M169.592 176.163C169.97 175.855 169.667 175.564 169.538 175.305C169.038 174.289 168.593 173.247 168.204 172.184C167.618 170.679 167.165 169.125 166.851 167.54C167.139 167.217 167.523 166.995 167.946 166.906C168.372 167.158 168.365 167.62 168.466 168.018C169.974 174.167 173.177 179.771 177.71 184.191C182.243 188.612 187.925 191.673 194.11 193.027C197.638 193.851 201.264 194.178 204.882 194.001C208.694 193.819 212.468 193.155 216.114 192.027C216.538 192.047 216.953 192.16 217.329 192.359C217.705 192.559 218.032 192.838 218.286 193.179C217.868 193.109 217.438 193.163 217.05 193.335C211.837 195.027 206.358 195.755 200.884 195.483C190.215 194.872 181.162 190.847 174.165 182.6C172.973 181.177 171.901 179.658 170.961 178.058C170.797 177.783 170.699 177.452 170.372 177.303C170.628 177.062 170.895 176.819 170.666 176.422C170.452 176.051 170.138 176.205 169.834 176.271C169.765 176.286 169.673 176.202 169.592 176.163Z" fill="#5D4E53"/>
<path d="M170.314 83.66C169.918 84.5587 169.403 85.4003 168.783 86.1624C166.591 85.5542 164.362 85.1014 162.141 84.6222C158.394 83.8141 154.639 83.0473 150.862 82.3887C147.568 81.8143 144.274 81.2385 140.97 80.7223C137.828 80.2313 134.675 79.803 131.523 79.3793C130.848 79.2886 130.164 79.2578 129.493 79.1273C129.734 78.6124 130.134 78.878 130.489 78.9242C132.41 78.9114 134.317 79.1094 136.226 79.2841C138.005 79.4468 139.79 79.5505 141.568 79.7216C143.862 79.9424 146.15 80.2222 148.444 80.443C150.19 80.6112 151.929 80.8335 153.667 81.0707C156.176 81.4133 158.692 81.7162 161.195 82.0966C163.892 82.5064 166.578 82.9844 169.267 83.4376C169.619 83.4967 169.965 83.5851 170.314 83.66Z" fill="#55322D"/>
<path d="M166.433 95.9636C166.449 98.6942 166.376 101.429 166.502 104.154C166.662 107.631 166.543 111.111 166.698 114.582C166.85 117.962 166.8 121.34 166.877 124.719C166.907 126.016 167.014 127.311 167.086 128.607C166.749 128.858 166.533 129.124 166.934 129.505C167.124 129.674 167.256 129.897 167.313 130.144C167.374 130.331 167.403 130.526 167.398 130.723C167.301 133.904 167.646 137.076 167.609 140.256C167.645 140.711 167.586 141.168 167.435 141.598C167.327 141.816 167.144 141.986 166.919 142.079C166.695 142.171 166.444 142.179 166.214 142.101C166.05 141.267 166.301 140.408 166.076 139.576C166.063 137.104 165.86 134.639 165.871 132.164C165.892 127.022 165.708 121.882 165.611 116.742C165.547 113.294 165.608 109.841 165.429 106.399C165.28 103.535 165.341 100.674 165.268 97.8123C165.259 97.455 165.283 97.0968 165.292 96.7391C166.047 96.9657 166.044 96.9649 166.27 96.2867C166.316 96.175 166.371 96.067 166.433 95.9636Z" fill="#5D4E53"/>
<path d="M79.8312 133.644C79.8214 133.745 79.8223 133.846 79.8341 133.947C79.908 134.568 79.428 134.484 79.0698 134.559C78.597 134.659 78.6357 134.315 78.6054 134.028C78.4149 132.225 78.2243 130.422 78.0336 128.618C77.9597 127.91 77.8961 127.2 77.8289 126.49C77.792 126.102 77.9325 125.879 78.3586 125.857C78.7704 125.837 79.0186 125.91 79.0653 126.408C79.2194 128.052 79.4209 129.692 79.5995 131.333C79.6766 132.042 79.7422 132.751 79.8312 133.644Z" fill="#DCCDB3"/>
<path d="M130.49 78.924C130.159 78.9978 129.777 78.8204 129.493 79.1272C128.144 78.9851 126.794 78.8431 125.423 78.6988C125.456 78.642 125.507 78.5981 125.568 78.5744C125.629 78.5508 125.697 78.5489 125.759 78.5689C127.214 78.7157 128.676 78.7258 130.135 78.7795C130.26 78.8074 130.38 78.8563 130.49 78.924Z" fill="#A18A82"/>
<path d="M148.666 240.482L148.887 240.503C148.982 240.582 149.057 240.682 149.105 240.795C149.153 240.908 149.174 241.032 149.166 241.154C148.824 241.01 148.785 240.718 148.666 240.482Z" fill="#817061"/>
<path d="M213.85 96.5197C214.335 96.8706 214.72 97.3409 214.969 97.885C215.131 98.705 214.951 98.8185 213.994 98.499C213.782 98.0833 213.513 97.6992 213.195 97.3579C213.148 97.2687 213.08 97.192 212.997 97.1343L212.997 97.1409C212.852 96.3438 213.26 96.3071 213.85 96.5197Z" fill="#5E4F48"/>
<path d="M218.287 193.179L216.184 192.177C215.929 192.217 215.669 192.205 215.418 192.14C215.168 192.075 214.934 191.959 214.731 191.799C206.687 187.717 198.982 182.996 191.692 177.682C189.592 176.142 187.482 174.611 185.497 172.924C184.619 172.179 183.593 171.487 183.583 170.126C183.721 168.896 184.066 168.687 184.934 169.302C185.331 170.34 186.03 171.234 186.942 171.869C194.533 177.885 202.621 183.247 211.118 187.897C219.955 192.745 229.234 196.738 238.83 199.822C244.874 201.901 250.628 204.742 255.953 208.275C261.259 211.662 266.237 215.536 270.824 219.846C271.064 220.068 271.293 220.299 271.512 220.541C271.811 220.967 272.395 221.359 271.688 221.913C271.61 221.979 271.519 222.027 271.421 222.053C271.322 222.079 271.219 222.083 271.119 222.065C271.018 222.047 270.923 222.007 270.841 221.947C270.758 221.888 270.689 221.811 270.639 221.722C270.532 221.573 270.449 221.396 270.243 221.35C269.827 221.095 269.459 220.769 269.156 220.386C261.205 212.98 252.084 206.94 242.161 202.512C241.19 202.14 240.199 201.819 239.194 201.55C232.412 199.355 225.771 196.742 219.311 193.726C218.942 193.602 218.596 193.417 218.287 193.179Z" fill="#5D4E47"/>
<path d="M166.076 139.576C166.412 140.003 166.218 140.5 166.254 140.965C166.284 141.346 166.262 141.732 166.263 142.116C166.717 142.404 167.249 142.599 167.483 143.15C167.665 144.766 167.714 146.39 167.8 148.011C167.858 149.083 167.841 150.16 167.807 151.234C167.69 154.88 168.127 158.515 168.008 162.161C168.036 162.681 167.995 163.202 167.886 163.711C167.532 164.211 166.923 164.475 166.631 165.039C166.483 164.784 166.427 164.485 166.474 164.194C166.466 163.672 166.464 163.151 166.461 162.63C166.435 157.646 166.266 152.664 166.202 147.681C166.168 144.981 166.083 142.279 166.076 139.576Z" fill="#5E4F53"/>
<path d="M166.631 165.039C166.638 164.877 166.635 164.713 166.655 164.552C166.741 163.848 166.837 163.797 167.616 164.02C167.951 164.423 168.152 164.92 168.191 165.443C168.23 165.965 168.105 166.487 167.832 166.935C167.771 167.568 167.306 167.547 166.851 167.54C166.625 166.727 166.55 165.879 166.631 165.039Z" fill="#605149"/>
<path d="M189.923 91.2607C192.426 93.0769 194.968 94.8383 197.607 96.4501C201.123 98.6291 204.764 100.597 208.512 102.345C211.118 103.538 213.749 104.664 216.424 105.69C217.796 106.196 219.198 106.618 220.622 106.952C222.647 107.455 224.585 108.236 226.547 108.929C229.768 110.066 232.972 111.256 236.13 112.564C239.589 113.996 243.028 115.471 246.424 117.048C249.468 118.462 252.464 119.97 255.412 121.571C260.568 124.357 265.552 127.45 270.337 130.835C273.261 132.904 276.048 135.142 278.797 137.431C279.672 138.159 280.489 138.956 281.329 139.725C283.201 141.441 284.977 143.254 286.71 145.109C289.121 147.709 291.368 150.456 293.44 153.334C296.232 157.263 298.68 161.427 300.755 165.779C302.03 168.487 302.798 171.407 303.021 174.392C303.149 175.784 303.2 177.182 303.174 178.58C303.122 181.508 302.677 184.415 301.85 187.224C301.08 189.884 300.057 192.464 298.796 194.93C298.2 195.974 297.498 196.954 296.702 197.855C296.13 198.19 295.754 198.039 295.574 197.402C295.593 197.041 295.744 196.699 295.999 196.442C298.482 193.261 299.725 189.529 300.734 185.704C301.542 182.608 301.865 179.407 301.691 176.212C301.601 172.849 300.848 169.536 299.477 166.463C296.267 159.678 292.114 153.382 287.141 147.761C281.351 141.256 274.764 135.507 267.536 130.649C262.574 127.284 257.413 124.221 252.081 121.479C243.456 117.091 234.551 113.277 225.423 110.064C221.318 108.581 217.052 107.623 213.006 105.935C204.66 102.48 196.757 98.0391 189.465 92.7071C189.105 92.4817 188.785 92.1978 188.518 91.8671C188.229 91.2882 188.247 90.7729 188.937 90.5401C189.543 90.3352 189.831 90.6947 189.923 91.2607Z" fill="#5D4E47"/>
<path d="M295.752 197.287C295.818 197.896 296.27 197.857 296.701 197.855C295.093 200.099 293.372 202.26 291.546 204.331C289.868 206.234 288.179 208.128 286.339 209.874C283.393 212.669 280.399 215.411 277.201 217.924C275.387 219.349 273.592 220.795 271.684 222.093C271.687 222.033 271.688 221.973 271.688 221.913C272.03 221.367 271.635 221.073 271.294 220.762C271.959 220.096 272.696 219.506 273.49 219.001C279.018 214.824 284.18 210.183 288.919 205.128C291.046 202.843 293.043 200.44 294.901 197.932C295.116 197.648 295.24 197.198 295.752 197.287Z" fill="#5D4E53"/>
<path d="M189.923 91.2607C189.871 91.2221 189.825 91.177 189.785 91.1266C189.557 90.7462 189.236 90.5224 188.827 90.7867C188.402 91.0607 188.555 91.4537 188.756 91.813C188.064 92.7108 187.103 93.364 186.014 93.6771C185.704 93.5063 185.427 93.2804 185.198 93.0103C185.723 92.3899 186.346 91.8588 187.041 91.4376C190.058 89.2942 193.688 88.1854 197.388 88.2771C202.439 88.4086 207.28 90.3292 211.048 93.6967C212.113 94.498 213.057 95.4489 213.85 96.5198C213.423 96.5306 213.048 96.6127 212.997 97.1408C212.461 96.7164 211.968 96.2407 211.525 95.7204C208.656 92.7483 204.966 90.6983 200.927 89.8318C197.476 89.0348 193.861 89.3537 190.602 90.7425C190.336 90.8597 190.049 90.9566 189.923 91.2607Z" fill="#5D4E53"/>
<path d="M167.067 129.805C166.842 129.787 166.633 129.683 166.484 129.513C166.377 129.415 166.306 129.284 166.28 129.141C166.254 128.999 166.276 128.851 166.342 128.722C166.527 128.347 166.819 128.528 167.086 128.607C168.358 129.001 169.678 129.22 171.009 129.259C172.595 129.392 174.173 129.61 175.736 129.912C176.003 129.975 176.28 129.981 176.55 129.931C176.819 129.88 177.075 129.774 177.302 129.62C178.317 128.915 179.386 128.287 180.41 127.594C181.285 126.971 182.234 126.458 183.235 126.067C183.332 125.899 183.479 125.766 183.656 125.687C183.833 125.608 184.031 125.586 184.221 125.626C186.656 126.009 189.042 126.656 191.338 127.554C192.706 128.158 193.94 129.029 194.967 130.116C195.365 130.46 195.619 130.942 195.678 131.465C195.716 131.639 195.713 131.819 195.671 131.992C195.628 132.165 195.546 132.325 195.432 132.461C195.317 132.598 195.173 132.706 195.01 132.777C194.847 132.849 194.669 132.882 194.492 132.874C192.504 133.405 190.425 133.504 188.396 133.164C182.778 132.49 177.181 131.648 171.581 130.838C170.444 130.82 169.31 130.703 168.193 130.489C167.761 130.349 167.296 130.275 167.067 129.805Z" fill="#5D4E47"/>
<path d="M184.273 125.875C183.916 125.853 183.56 125.919 183.235 126.067C183.131 125.69 183.09 125.299 183.113 124.91C183.096 122.115 183.15 119.318 183.042 116.527C182.878 112.272 182.977 108.015 182.828 103.764C182.749 101.523 182.765 99.2829 182.697 97.0433C182.686 96.6676 182.571 96.2577 182.875 95.9249C183.232 96.325 183.925 96.2871 184.131 96.8899C184.21 97.1399 184.245 97.4018 184.235 97.6638C184.124 100.627 184.494 103.58 184.442 106.542C184.34 112.433 184.787 118.319 184.633 124.211C184.618 124.783 184.745 125.397 184.273 125.875Z" fill="#5E4E53"/>
<path d="M174.682 100.284C174.684 100.898 174.503 101.498 174.163 102.01C173.823 102.521 173.339 102.92 172.772 103.156C172.205 103.392 171.581 103.455 170.979 103.336C170.376 103.217 169.823 102.923 169.388 102.489C168.953 102.056 168.656 101.503 168.535 100.902C168.414 100.3 168.475 99.6753 168.709 99.1076C168.943 98.54 169.34 98.0545 169.85 97.7126C170.36 97.3707 170.96 97.1877 171.574 97.1868C171.981 97.186 172.385 97.2655 172.762 97.4207C173.138 97.5759 173.481 97.8038 173.77 98.0914C174.058 98.379 174.287 98.7206 174.444 99.0968C174.601 99.473 174.682 99.8763 174.682 100.284Z" fill="#5E4F48"/>
<path d="M171.802 113.937C172.414 113.942 173.011 114.128 173.518 114.471C174.024 114.815 174.418 115.301 174.649 115.868C174.88 116.435 174.937 117.057 174.815 117.657C174.692 118.257 174.395 118.807 173.96 119.238C173.526 119.669 172.973 119.961 172.372 120.079C171.772 120.196 171.15 120.133 170.585 119.897C170.02 119.661 169.537 119.264 169.198 118.754C168.859 118.245 168.678 117.646 168.679 117.034C168.68 116.625 168.761 116.221 168.919 115.844C169.076 115.466 169.307 115.124 169.597 114.836C169.887 114.549 170.231 114.321 170.61 114.167C170.988 114.013 171.393 113.934 171.802 113.937Z" fill="#5E4F47"/>
<path d="M183.85 96.5414C183.072 96.7954 183.032 96.7702 182.875 95.9251C183.386 94.7696 184.186 93.7655 185.198 93.0103C185.663 92.9891 186.066 93.0479 186.043 93.6607C186.098 93.7446 186.155 93.8712 186.101 93.9308C185.421 94.8588 184.668 95.7318 183.85 96.5414Z" fill="#5E4F48"/>
<path d="M167.832 166.934C167.859 165.958 167.786 164.982 167.616 164.02C167.612 161.481 167.646 158.944 167.5 156.405C167.402 154.716 167.459 153.018 167.427 151.325C167.381 148.884 167.314 146.443 167.263 144.003C167.256 143.646 167.289 143.288 167.304 142.93C167.349 142.869 167.41 142.82 167.48 142.789C167.551 142.758 167.628 142.746 167.704 142.755C167.965 142.799 168.231 142.798 168.495 142.821C173.028 143.455 177.582 143.899 182.12 144.48C182.635 144.546 183.168 144.585 183.47 145.115C183.614 145.445 183.675 145.806 183.649 146.165C183.53 149.747 183.928 153.321 183.842 156.9C183.756 160.483 184.063 164.055 184.078 167.635C184.082 168.549 183.53 169.394 183.849 170.317C183.929 170.733 184.095 171.129 184.335 171.479C184.575 171.829 184.884 172.125 185.245 172.35C187.406 174.131 189.643 175.814 191.904 177.468C199.482 182.999 207.515 187.88 215.916 192.059C216.003 192.103 216.095 192.138 216.184 192.177C216.02 192.382 215.781 192.515 215.52 192.545C212.575 193.371 209.559 193.922 206.512 194.189C204.599 194.36 202.675 194.394 200.756 194.292C196.195 194.058 191.713 193.007 187.523 191.19C182.609 189.034 178.277 185.743 174.881 181.587C171.486 177.431 169.124 172.529 167.99 167.284C167.95 167.162 167.897 167.045 167.832 166.934Z" fill="#E5E4E1"/>
<path d="M167.067 129.805C168.168 130.203 169.33 130.406 170.5 130.404C171.73 130.466 172.954 130.614 174.164 130.848C176.83 131.188 179.49 131.585 182.153 131.957C184.206 132.244 186.252 132.607 188.315 132.793C190.339 133.106 192.404 133.021 194.396 132.542C194.601 132.644 194.769 132.808 194.875 133.012C194.981 133.216 195.019 133.448 194.984 133.675C195.018 136.979 195.018 140.283 194.983 143.587C194.99 143.88 194.911 144.17 194.758 144.42C194.297 144.909 193.684 144.791 193.111 144.821C188.962 145.04 184.885 144.326 180.793 143.845C176.698 143.363 172.592 142.958 168.516 142.321C168.038 142.246 167.531 142.217 167.252 141.719C167.277 138.136 166.984 134.559 167.042 130.976C167.048 130.586 167.059 130.195 167.067 129.805Z" fill="#DCCDB3"/>
<path d="M167.252 141.719C168.999 142.079 170.765 142.343 172.541 142.509C174.473 142.742 176.403 142.99 178.335 143.219C180.235 143.444 182.138 143.651 184.039 143.873C185.456 144.039 186.871 144.218 188.288 144.388C188.545 144.426 188.804 144.448 189.064 144.455C190.919 144.462 192.773 144.461 194.628 144.463C195.568 144.172 195.809 144.381 195.794 145.469C195.735 145.64 195.62 145.787 195.468 145.887C195.316 145.986 195.136 146.032 194.955 146.018C192.133 145.909 189.295 146.211 186.491 145.671C186.332 145.64 186.172 145.606 186.018 145.561C185.681 145.419 185.319 145.344 184.954 145.342C184.805 145.361 184.656 145.365 184.506 145.354C184.29 145.408 184.063 145.409 183.846 145.357C183.629 145.304 183.428 145.2 183.26 145.054C182.585 144.816 181.874 144.699 181.159 144.707C177.516 144.249 173.864 143.87 170.217 143.443C169.541 143.364 168.876 143.194 168.206 143.065C168.013 142.936 167.767 143.037 167.572 142.918C167.483 142.922 167.393 142.926 167.304 142.93C166.77 142.897 166.342 142.729 166.263 142.116C166.568 141.923 166.844 141.656 167.252 141.719Z" fill="#5D4E47"/>
<path d="M184.493 145.06L184.815 145.06C185.124 145.26 185.501 145.038 185.811 145.223C188.252 145.607 190.725 145.752 193.194 145.654C193.81 145.606 194.43 145.63 195.041 145.727C195.151 145.76 195.269 145.753 195.375 145.707C195.48 145.66 195.565 145.578 195.616 145.475C195.913 144.684 195.378 143.978 195.399 143.194C195.498 139.503 195.319 135.808 195.499 132.117C195.556 131.862 195.522 131.595 195.404 131.361C194.937 130.394 194.196 129.586 193.273 129.038C191.845 128.014 190.226 127.286 188.512 126.897C187.268 126.534 186.001 126.251 184.721 126.051C184.565 126.01 184.415 125.951 184.273 125.876C184.258 122.397 184.347 118.915 184.199 115.442C184.032 111.51 184.19 107.576 184.003 103.652C183.891 101.28 183.945 98.9101 183.851 96.5414C184.283 95.5663 184.95 94.7134 185.792 94.0584C185.91 93.9729 185.96 93.7951 186.043 93.6603C186.636 93.2127 187.221 92.7512 187.828 92.3227C188.093 92.0825 188.411 91.9079 188.757 91.8131C194.677 96.2558 201.029 100.092 207.717 103.264C210.89 104.785 214.145 106.128 217.467 107.289C219.339 107.935 221.297 108.313 223.175 108.964C230.287 111.431 237.3 114.144 244.151 117.273C252.478 121.013 260.461 125.475 268.008 130.609C272.172 133.467 276.14 136.6 279.885 139.986C285.841 145.318 291.03 151.447 295.306 158.201C297.514 161.588 299.352 165.203 300.789 168.983C301.219 170.313 301.516 171.683 301.673 173.072C301.953 174.973 302.064 176.894 302.005 178.814C301.884 182.496 301.166 186.134 299.88 189.586C299.43 190.809 298.898 191.997 298.378 193.192C297.674 194.659 296.792 196.034 295.753 197.286C294.67 198.663 293.595 200.046 292.504 201.415C289.971 204.508 287.239 207.432 284.323 210.167C280.878 213.472 277.229 216.559 273.398 219.409C272.808 220.013 272.089 220.475 271.294 220.761C269.653 219.085 267.859 217.575 266.073 216.063C259.904 210.885 253.128 206.478 245.892 202.941C244.661 202.346 243.418 201.774 242.177 201.199C241.292 200.872 240.388 200.598 239.471 200.378C235.011 198.922 230.615 197.294 226.283 195.495C215.482 190.989 205.19 185.346 195.582 178.663C192.319 176.396 189.155 173.993 186.044 171.522C185.705 171.294 185.42 170.994 185.21 170.643C185 170.292 184.871 169.899 184.831 169.492C184.554 168.832 184.425 168.119 184.451 167.403C184.383 162.751 184.283 158.099 184.212 153.446C184.177 151.173 184.097 148.895 184.071 146.618C184.033 146.344 184.051 146.064 184.123 145.796C184.195 145.528 184.321 145.278 184.493 145.06Z" fill="#55322D"/>
<path d="M184.492 145.06C184.444 147.59 184.382 150.12 184.581 152.648C184.609 153.003 184.619 153.361 184.621 153.718C184.64 156.543 184.563 159.374 184.7 162.193C184.819 164.628 184.804 167.059 184.831 169.492C184.632 169.355 184.521 169.028 184.189 169.174C183.904 169.298 183.872 169.559 183.866 169.828C183.862 169.991 183.855 170.154 183.85 170.316C183.682 170.035 183.622 169.701 183.683 169.379C183.656 164.167 183.491 158.957 183.414 153.747C183.371 150.85 183.325 147.951 183.26 145.054C183.671 144.976 184.081 145.228 184.492 145.06Z" fill="#5E4F53"/>
<path d="M178.709 130.107C180.046 129.253 181.372 128.381 182.725 127.553C183.393 127.188 184.172 127.087 184.911 127.269C187.328 127.615 189.669 128.362 191.84 129.479C192.517 129.869 193.138 130.348 193.687 130.905C193.77 130.967 193.838 131.048 193.886 131.14C193.933 131.233 193.959 131.336 193.961 131.44C193.481 131.625 192.973 131.725 192.458 131.735C189.602 131.804 186.746 131.571 183.938 131.037C182.22 130.759 180.489 130.556 178.764 130.319L178.709 130.107Z" fill="#DCCDB3"/>
<path d="M195.404 131.361C195.682 131.875 195.804 132.459 195.756 133.042C195.783 136.911 195.801 140.78 195.808 144.649C195.809 144.937 195.859 145.242 195.615 145.475C195.523 144.542 195.523 144.542 194.628 144.463C194.616 140.833 194.604 137.203 194.592 133.573C194.639 133.217 194.57 132.855 194.396 132.542C195.376 132.448 195.376 132.448 195.404 131.361Z" fill="#5E4F54"/>
<path d="M173.504 100.297C173.512 100.549 173.468 100.799 173.376 101.034C173.284 101.268 173.145 101.481 172.968 101.661C172.792 101.84 172.58 101.982 172.347 102.077C172.114 102.173 171.865 102.22 171.613 102.217C171.105 102.212 170.619 102.011 170.255 101.657C169.892 101.303 169.678 100.823 169.659 100.316C169.681 99.8095 169.89 99.3293 170.244 98.9668C170.599 98.6044 171.074 98.3852 171.58 98.351C172.085 98.379 172.561 98.5936 172.917 98.9532C173.272 99.3128 173.482 99.7918 173.504 100.297Z" fill="#55322D"/>
<path d="M171.767 115.115C172.019 115.106 172.27 115.149 172.504 115.239C172.739 115.33 172.953 115.467 173.134 115.643C173.314 115.818 173.458 116.028 173.555 116.26C173.653 116.492 173.702 116.741 173.701 116.993C173.698 117.5 173.5 117.987 173.149 118.353C172.798 118.719 172.321 118.936 171.814 118.961C171.308 118.947 170.826 118.743 170.463 118.39C170.1 118.037 169.883 117.561 169.855 117.055C169.864 116.548 170.067 116.064 170.423 115.703C170.779 115.342 171.261 115.131 171.767 115.115Z" fill="#55322D"/>
<path d="M176.246 170.632C176.212 171.454 175.854 172.228 175.25 172.786C174.647 173.344 173.846 173.64 173.025 173.609C172.203 173.579 171.428 173.223 170.868 172.622C170.307 172.02 170.009 171.221 170.036 170.399C170.074 169.593 170.421 168.831 171.005 168.273C171.589 167.716 172.366 167.404 173.174 167.404C173.589 167.407 174 167.495 174.381 167.66C174.763 167.826 175.107 168.066 175.394 168.367C175.68 168.669 175.903 169.024 176.05 169.413C176.196 169.802 176.263 170.217 176.246 170.632Z" fill="#5E4F47"/>
<path d="M172.915 159.529C172.093 159.539 171.301 159.223 170.712 158.65C170.123 158.077 169.785 157.293 169.773 156.471C169.761 155.649 170.075 154.856 170.647 154.266C171.219 153.675 172.001 153.336 172.823 153.322C173.232 153.314 173.638 153.387 174.018 153.537C174.398 153.687 174.745 153.91 175.038 154.194C175.332 154.478 175.567 154.817 175.729 155.192C175.891 155.567 175.978 155.971 175.984 156.379C175.99 156.788 175.915 157.193 175.764 157.573C175.613 157.952 175.389 158.298 175.103 158.591C174.818 158.884 174.478 159.117 174.103 159.278C173.727 159.439 173.324 159.524 172.915 159.529Z" fill="#5E4F47"/>
<path d="M167.572 142.918C167.799 142.9 168.03 142.866 168.206 143.065C168.096 143.089 167.982 143.087 167.873 143.062C167.763 143.036 167.661 142.987 167.572 142.918Z" fill="#5E4F53"/>
<path d="M185.811 145.223C185.471 145.22 185.117 145.304 184.815 145.06C185.153 145.077 185.516 144.942 185.811 145.223Z" fill="#5E4F53"/>
<path d="M242.324 163.996C242.423 164.767 242.346 165.549 242.101 166.286C241.901 166.805 241.581 167.269 241.167 167.64C240.753 168.011 240.257 168.279 239.72 168.421C239.183 168.564 238.619 168.576 238.076 168.459C237.533 168.341 237.025 168.097 236.595 167.745C236.022 167.298 235.646 166.646 235.547 165.926C235.442 165.385 235.372 164.837 235.338 164.287C235.245 162.666 235.218 161.04 235.094 159.421C234.953 157.577 234.978 155.723 234.765 153.882C234.697 153.131 234.877 152.379 235.277 151.74C235.677 151.101 236.276 150.611 236.982 150.345C237.758 150.076 238.604 150.088 239.372 150.379C240.14 150.671 240.781 151.223 241.183 151.939C241.653 152.688 241.904 153.554 241.91 154.438C241.89 156.878 242.172 159.306 242.181 161.745C242.268 162.492 242.316 163.244 242.324 163.996Z" fill="#5D4E47"/>
<path d="M208.303 142.554C208.303 142.362 208.287 142.003 208.306 141.646C208.308 141.037 208.493 140.442 208.837 139.939C209.182 139.437 209.669 139.049 210.236 138.827C210.783 138.56 211.394 138.453 211.999 138.516C212.605 138.58 213.18 138.812 213.66 139.186C214.184 139.579 214.611 140.088 214.905 140.674C215.2 141.259 215.355 141.905 215.358 142.56C215.43 145.813 215.73 149.055 215.792 152.309C215.87 153.047 215.818 153.794 215.638 154.514C215.416 155.273 214.923 155.925 214.253 156.346C213.583 156.767 212.782 156.929 212.002 156.8C211.277 156.803 210.576 156.54 210.031 156.062C209.486 155.583 209.136 154.922 209.045 154.203C208.861 153.212 208.767 152.205 208.766 151.197C208.644 148.37 208.446 145.547 208.303 142.554Z" fill="#5D4E47"/>
<path d="M260.346 168.86C260.39 168.048 260.385 167.234 260.33 166.422C260.295 165.906 260.403 165.389 260.642 164.93C260.882 164.471 261.243 164.086 261.686 163.818C262.129 163.55 262.637 163.41 263.155 163.412C263.673 163.414 264.18 163.558 264.622 163.829C265.109 164.064 265.517 164.436 265.794 164.9C266.072 165.364 266.208 165.899 266.184 166.44C266.227 167.479 266.24 168.522 266.214 169.562C266.146 172.328 266.384 175.086 266.393 177.85C266.394 178.434 266.334 179.017 266.215 179.589C266.099 180.055 265.871 180.484 265.55 180.84C265.229 181.196 264.826 181.467 264.375 181.63C263.924 181.792 263.44 181.841 262.966 181.772C262.492 181.703 262.042 181.518 261.657 181.234C261.313 180.908 261.039 180.516 260.851 180.083C260.662 179.649 260.563 179.181 260.558 178.708C260.525 178.319 260.518 177.928 260.537 177.538C260.621 174.643 260.334 171.755 260.346 168.86Z" fill="#5D4E47"/>
<path d="M280.866 184.444C280.866 183.831 280.856 182.755 280.868 181.68C280.824 181.121 280.993 180.565 281.342 180.126C281.691 179.686 282.193 179.395 282.748 179.31C283.285 179.238 283.831 179.359 284.289 179.651C284.746 179.942 285.085 180.386 285.247 180.904C285.456 181.453 285.56 182.035 285.554 182.622C285.559 186.075 285.574 189.529 285.598 192.983C285.58 193.634 285.605 194.285 285.671 194.933C285.752 195.485 285.625 196.048 285.313 196.512C285.001 196.975 284.528 197.306 283.985 197.439C283.443 197.583 282.867 197.515 282.374 197.248C281.881 196.982 281.507 196.538 281.33 196.006C281.161 195.548 281.078 195.062 281.084 194.573C281.089 192.879 281.147 191.178 281.023 189.492C280.91 187.962 280.945 186.434 280.866 184.444Z" fill="#5D4E47"/>
<path d="M175.07 170.555C175.071 170.807 175.022 171.057 174.925 171.289C174.827 171.521 174.684 171.731 174.503 171.907C174.322 172.082 174.108 172.219 173.873 172.309C173.638 172.4 173.387 172.441 173.135 172.432C172.628 172.417 172.146 172.206 171.79 171.844C171.434 171.482 171.231 170.997 171.224 170.489C171.224 170.234 171.274 169.981 171.373 169.745C171.471 169.509 171.616 169.295 171.798 169.116C171.98 168.936 172.196 168.795 172.434 168.7C172.671 168.605 172.925 168.559 173.181 168.563C173.436 168.568 173.688 168.623 173.922 168.726C174.156 168.829 174.367 168.977 174.543 169.163C174.719 169.348 174.856 169.567 174.947 169.806C175.037 170.045 175.079 170.3 175.07 170.555Z" fill="#55322D"/>
<path d="M172.864 154.484C173.387 154.521 173.876 154.752 174.237 155.132C174.598 155.511 174.804 156.012 174.814 156.536C174.758 157.039 174.517 157.504 174.137 157.839C173.757 158.174 173.266 158.356 172.76 158.349C172.268 158.334 171.802 158.126 171.463 157.769C171.124 157.412 170.94 156.935 170.952 156.443C170.97 155.937 171.176 155.456 171.53 155.094C171.883 154.732 172.359 154.514 172.864 154.484Z" fill="#55322D"/>
<path d="M241.167 163.892C241.287 164.685 241.182 165.495 240.862 166.231C240.611 166.653 240.231 166.983 239.778 167.172C239.325 167.362 238.824 167.402 238.347 167.285C237.871 167.229 237.433 166.996 237.121 166.633C236.809 166.269 236.646 165.801 236.663 165.322C236.466 163.056 236.387 160.782 236.223 158.517C236.113 156.997 236.185 155.467 235.934 153.948C235.876 153.658 235.876 153.359 235.935 153.069C235.995 152.78 236.111 152.505 236.279 152.261C236.446 152.017 236.661 151.809 236.91 151.65C237.159 151.49 237.438 151.383 237.729 151.333C238.35 151.257 238.978 151.409 239.495 151.762C240.012 152.114 240.383 152.643 240.539 153.249C240.717 153.809 240.798 154.395 240.776 154.982C240.69 157.23 241.021 159.463 241.023 161.711C241.024 162.48 241.194 163.259 241.167 163.892Z" fill="#331815"/>
<path d="M212.295 155.628C210.829 155.698 210.23 154.992 210.112 153.58C209.987 152.092 209.927 150.594 209.827 149.105C209.721 147.519 209.764 145.925 209.542 144.341C209.441 143.401 209.424 142.454 209.491 141.511C209.527 141.053 209.726 140.623 210.052 140.3C210.377 139.976 210.808 139.779 211.266 139.745C211.624 139.693 211.988 139.717 212.335 139.819C212.682 139.92 213.003 140.095 213.277 140.331C213.55 140.568 213.768 140.861 213.918 141.19C214.067 141.519 214.144 141.877 214.142 142.238C214.22 143.534 214.382 144.829 214.368 146.13C214.346 148.148 214.666 150.153 214.598 152.174C214.61 152.368 214.641 152.561 214.692 152.75C214.792 153.104 214.805 153.478 214.728 153.839C214.652 154.2 214.489 154.537 214.253 154.821C214.016 155.104 213.715 155.326 213.374 155.466C213.033 155.607 212.663 155.662 212.295 155.628Z" fill="#331815"/>
<path d="M265.028 170.008C264.884 172.416 265.29 174.81 265.23 177.217C265.232 177.866 265.176 178.513 265.064 179.152C265.019 179.541 264.842 179.903 264.562 180.176C264.281 180.449 263.915 180.616 263.525 180.65C263.131 180.683 262.74 180.567 262.428 180.326C262.116 180.084 261.905 179.735 261.837 179.346C261.749 179.067 261.71 178.775 261.719 178.483C261.791 174.809 261.443 171.142 261.521 167.468C261.53 167.013 261.505 166.557 261.518 166.102C261.518 165.759 261.636 165.427 261.852 165.161C262.069 164.896 262.371 164.713 262.707 164.645C262.976 164.59 263.254 164.593 263.522 164.653C263.79 164.714 264.042 164.831 264.261 164.997C264.48 165.163 264.661 165.374 264.792 165.615C264.923 165.857 265.001 166.123 265.021 166.397C265.053 167.6 265.028 168.805 265.028 170.008Z" fill="#331815"/>
<path d="M284.419 188.275C284.419 189.871 284.419 191.467 284.42 193.062C284.417 193.647 284.459 194.231 284.544 194.81C284.599 195 284.606 195.2 284.563 195.393C284.519 195.586 284.428 195.765 284.297 195.913C284.166 196.061 284 196.174 283.814 196.24C283.627 196.307 283.427 196.325 283.232 196.293C282.941 196.235 282.683 196.071 282.505 195.833C282.328 195.595 282.244 195.3 282.271 195.005C282.235 194.257 282.248 193.507 282.241 192.758C282.209 189.245 281.962 185.736 282.042 182.221C282.047 181.994 282.029 181.764 282.048 181.538C282.103 180.879 282.408 180.534 282.973 180.467C283.234 180.437 283.498 180.501 283.717 180.649C283.935 180.796 284.094 181.016 284.164 181.27C284.324 181.766 284.404 182.284 284.402 182.804C284.381 184.628 284.394 186.452 284.394 188.275L284.419 188.275Z" fill="#331815"/>
</g>
</g>
<defs>
<clipPath id="clip0_1425_10636">
<rect width="320" height="320" fill="white"/>
</clipPath>
<clipPath id="clip1_1425_10636">
<rect width="320" height="254.099" fill="white" transform="translate(0 66)"/>
</clipPath>
</defs>
</svg>
