<svg width="320" height="320" viewBox="0 0 320 320" fill="none" xmlns="http://www.w3.org/2000/svg">
<g clip-path="url(#clip0_1425_10572)">
<rect width="320" height="320" fill="#F2F2EA"/>
<g clip-path="url(#clip1_1425_10572)">
<path d="M320.104 99.0206V108.041C319.962 108.268 319.776 108.464 319.556 108.617C319.336 108.77 319.087 108.876 318.825 108.929C312.694 111.222 306.557 113.5 300.415 115.764C299.6 116.065 298.792 116.383 297.97 116.665C296.771 117.078 296.425 116.934 295.98 115.774C295.262 113.905 294.543 112.035 293.885 110.143C293.449 108.891 293.592 108.541 294.81 108.094C298.415 106.77 302.016 105.433 305.611 104.082C309.927 102.464 314.257 100.886 318.57 99.2601C319.057 99.0764 319.542 98.773 320.104 99.0206Z" fill="#DCCDB3"/>
<path d="M320.103 191.427V200.848C319.554 201.241 318.884 201.426 318.211 201.37C314.513 201.524 310.825 201.848 307.13 202.044C303.968 202.211 300.813 202.519 297.647 202.621C296.181 202.668 295.843 202.407 295.734 200.961C295.562 198.67 295.458 196.373 295.301 194.08C295.234 193.095 295.573 192.769 296.576 192.677C299.698 192.392 302.831 192.275 305.956 192.051C309.613 191.788 313.275 191.591 316.932 191.327C317.985 191.144 319.064 191.178 320.103 191.427Z" fill="#DCCDB3"/>
<path d="M320.103 191.427C319.898 191.542 319.666 191.602 319.431 191.601C317.992 191.55 316.566 191.76 315.134 191.839C312.404 191.988 309.678 192.199 306.951 192.387C305.852 192.463 304.753 192.467 303.653 192.581C302.029 192.749 300.39 192.771 298.757 192.845C297.929 192.951 297.097 193.014 296.263 193.033C295.782 193.004 295.594 193.255 295.642 193.709C295.777 195.003 295.74 196.314 295.897 197.598C296.06 198.927 295.912 200.269 296.189 201.585C296.341 202.307 296.309 202.32 297.043 202.282C299.841 202.135 302.641 202.02 305.435 201.822C307.631 201.667 309.827 201.529 312.024 201.411C314.719 201.264 317.41 201.039 320.103 200.848V202.251C317.304 202.41 314.504 202.559 311.705 202.732C308.006 202.96 304.309 203.21 300.61 203.446C299.144 203.539 297.678 203.631 296.21 203.701C295.157 203.751 294.927 203.533 294.856 202.456C294.654 199.394 294.458 196.33 294.268 193.267C294.188 191.983 294.374 191.774 295.713 191.686C299.112 191.464 302.511 191.256 305.91 191.043C310.309 190.767 314.707 190.493 319.106 190.22C319.437 190.199 319.771 190.222 320.103 190.224L320.103 191.427Z" fill="#5D4E47"/>
<path d="M320.103 99.0207C315.977 100.56 311.85 102.1 307.723 103.638C303.374 105.253 299.024 106.863 294.672 108.467C293.751 108.808 293.732 108.868 294.062 109.753C294.819 111.784 295.573 113.817 296.323 115.851C296.667 116.78 296.72 116.803 297.611 116.473C304.494 113.92 311.376 111.367 318.259 108.813C318.883 108.581 319.489 108.299 320.103 108.041V109.444C312.621 112.218 305.139 114.991 297.656 117.765C295.949 118.397 295.943 118.397 295.297 116.665C294.398 114.257 293.503 111.848 292.612 109.437C292.547 109.283 292.49 109.126 292.441 108.967C292.272 108.316 292.392 108.053 292.999 107.77C293.24 107.657 293.495 107.572 293.745 107.479C302.229 104.329 310.713 101.18 319.197 98.0305C319.518 97.9406 319.824 97.8013 320.103 97.6176L320.103 99.0207Z" fill="#5D4E47"/>
<path d="M140.573 0H152.809L152.85 0.1855C152.777 0.28939 152.677 0.371955 152.562 0.42477C152.441 0.482299 152.31 0.516617 152.177 0.52594C148.443 0.5731 144.71 0.65027 140.976 0.49C140.855 0.457731 140.742 0.402685 140.641 0.32781C140.591 0.291594 140.556 0.237877 140.543 0.177218C140.531 0.116559 140.541 0.0533444 140.573 0Z" fill="#E9DEC5"/>
<path d="M140.572 0C140.576 0.0607867 140.577 0.12162 140.577 0.1825C140.377 0.39255 140.102 0.515353 139.812 0.52439C139.522 0.533427 139.239 0.427973 139.026 0.2308C138.981 0.230499 138.937 0.217868 138.898 0.19427C138.921 0.129523 138.944 0.0647667 138.968 0H140.572Z" fill="#BBA580"/>
<path d="M152.807 0.18422C152.807 0.1228 152.807 0.0613933 152.809 0H154.413C154.44 0.06484 154.466 0.129697 154.493 0.19457C154.454 0.216682 154.41 0.227382 154.365 0.22544C154.153 0.425407 153.87 0.53327 153.578 0.52555C153.286 0.51783 153.009 0.395152 152.807 0.18422Z" fill="#BBA580"/>
<path d="M154.364 178.114C156.886 177.648 159.408 177.182 161.929 176.716C167.867 175.61 173.804 174.503 179.741 173.394C186.76 172.083 193.778 170.771 200.797 169.459C207.423 168.225 214.05 166.995 220.678 165.77C226.878 164.618 233.078 163.463 239.278 162.306C245.608 161.125 251.938 159.943 258.268 158.759C259.875 158.459 261.488 158.183 263.088 157.853C263.273 157.783 263.476 157.782 263.661 157.851C263.846 157.92 263.999 158.053 264.094 158.226C264.591 158.941 264.916 159.761 265.042 160.623C265.168 161.485 265.092 162.364 264.82 163.191C264.68 163.657 264.31 163.781 263.94 163.918C262.279 164.527 260.614 165.125 258.951 165.727C249.221 169.246 239.492 172.766 229.763 176.286C220.473 179.649 211.185 183.014 201.897 186.381C191.071 190.302 180.244 194.222 169.417 198.142C161.508 201.004 153.597 203.859 145.683 206.708C145.37 206.799 145.081 206.959 144.839 207.176C144.596 207.394 144.405 207.663 144.281 207.965C143.486 209.855 142.193 211.493 140.539 212.705C140.267 212.898 139.99 213.087 139.702 213.255C138.303 214.071 137.846 214.045 136.566 213.049C136.197 212.761 135.847 212.449 135.518 212.116C135.462 212.038 135.392 211.97 135.31 211.919C135.229 211.867 135.138 211.832 135.043 211.816C134.948 211.799 134.85 211.802 134.756 211.823C134.662 211.844 134.573 211.884 134.494 211.94C130.197 214.094 125.878 216.207 121.563 218.326C121.235 218.487 120.879 218.588 120.551 218.748C120.18 218.908 119.765 218.928 119.38 218.806C113.688 217.494 107.985 216.222 102.309 214.841C101.497 214.62 100.632 214.703 99.8765 215.075C94.8235 217.349 89.7531 219.585 84.6886 221.833C84.5359 221.901 84.3894 221.986 84.2324 222.04C83.6289 222.25 83.4135 222.162 83.1042 221.594C82.0239 219.611 82.0253 219.612 83.3658 217.817C84.5047 216.292 85.6406 214.765 86.7734 213.235C86.9795 213.045 87.122 212.796 87.1818 212.522C86.607 212.276 85.9941 212.131 85.3701 212.095C83.6351 211.747 81.8957 211.411 80.1464 211.148C79.8475 211.132 79.5656 211.004 79.3562 210.79C79.1467 210.576 79.0248 210.292 79.0143 209.993C78.9181 209.401 78.7912 208.814 78.6696 208.226C78.4892 207.355 78.528 207.257 79.3435 206.8C83.0145 204.744 86.6864 202.69 90.3592 200.637C93.5068 198.878 96.6558 197.12 99.806 195.365C100.103 195.214 100.361 194.994 100.556 194.723C100.783 194.393 101.035 194.08 101.271 193.756C101.506 193.432 101.867 193.126 101.928 192.77C101.99 192.401 101.545 192.114 101.345 191.775C100.627 190.562 100.228 189.185 100.187 187.775C100.146 186.366 100.464 184.968 101.111 183.715C101.579 182.672 101.598 182.68 100.682 182.021C81.1875 167.996 61.6925 153.971 42.1974 139.947C34.2255 134.212 26.2529 128.479 18.2796 122.746C18.1712 122.668 18.0592 122.595 17.9529 122.515C16.7783 121.625 16.7189 121.234 17.6133 120.071C19.0793 118.165 20.5499 116.262 22.0249 114.363C22.1597 114.172 22.306 113.989 22.4633 113.816C22.5297 113.729 22.6129 113.656 22.708 113.602C22.8031 113.548 22.9081 113.514 23.0168 113.501C23.1255 113.488 23.2356 113.497 23.3407 113.528C23.4458 113.558 23.5436 113.61 23.6284 113.679C23.9534 113.913 24.2874 114.136 24.6023 114.383C43.3335 129.087 62.0636 143.792 80.7927 158.498C89.0148 164.954 97.2324 171.416 105.445 177.884C105.597 178.052 105.807 178.157 106.032 178.178C106.258 178.2 106.483 178.136 106.664 177.999C108.814 176.753 111.249 176.082 113.734 176.052C115.175 175.986 116.613 176.227 117.955 176.758C118.19 176.87 118.454 176.907 118.711 176.865C118.968 176.823 119.207 176.703 119.394 176.522C127.965 170.079 136.543 163.645 145.129 157.222C159.991 146.084 174.853 134.947 189.714 123.809C201.636 114.876 213.559 105.944 225.482 97.0122C239.169 86.7584 252.857 76.5048 266.544 66.2516C273.335 61.1643 280.126 56.0769 286.917 50.9892C287.024 50.9091 287.132 50.8304 287.241 50.753C288.092 50.1482 288.199 50.1615 288.873 50.9724C289.178 51.4109 289.522 51.8212 289.9 52.1983C291.179 53.2617 291.076 54.8142 291.404 56.2136C291.502 56.6326 291.188 56.8897 290.912 57.136C289.565 58.336 288.218 59.5345 286.869 60.7314C282.291 64.7809 277.713 68.8291 273.133 72.8761C267.553 77.809 261.973 82.742 256.394 87.6749C250.339 93.0286 244.285 98.3827 238.232 103.737C232.05 109.199 225.865 114.658 219.679 120.115C213.098 125.933 206.522 131.755 199.95 137.582C193.77 143.046 187.587 148.506 181.4 153.961C174.819 159.779 168.242 165.601 161.667 171.427C159.516 173.33 157.363 175.23 155.206 177.128C154.89 177.407 154.586 177.701 154.276 177.988L154.364 178.114Z" fill="#5D4E47"/>
<path d="M304.238 309.78C304.171 310.108 304.023 310.415 303.808 310.672C301.948 313.484 300.086 316.296 298.223 319.107C297.501 320.194 297.24 320.241 296.126 319.505C289.358 315.026 282.591 310.546 275.824 306.065C271.452 303.17 267.08 300.276 262.707 297.381C262.479 297.242 262.259 297.09 262.048 296.927C261.943 296.87 261.852 296.792 261.781 296.697C261.71 296.602 261.66 296.493 261.636 296.376C261.611 296.26 261.612 296.14 261.638 296.024C261.665 295.909 261.716 295.8 261.788 295.706C261.885 295.531 261.992 295.361 262.109 295.198C263.952 292.414 265.796 289.63 267.641 286.847C267.765 286.649 267.901 286.459 268.047 286.278C268.16 286.129 268.322 286.025 268.504 285.984C268.686 285.942 268.877 285.966 269.043 286.051C269.313 286.181 269.572 286.334 269.817 286.508C280.958 293.881 292.098 301.255 303.238 308.631C303.46 308.778 303.683 308.927 303.894 309.09C304.003 309.168 304.092 309.272 304.152 309.392C304.212 309.512 304.242 309.646 304.238 309.78Z" fill="#5D4E47"/>
<path d="M272.775 15.2424C272.685 15.6306 272.486 15.9849 272.201 16.2629C269.599 19.7779 266.995 23.2901 264.386 26.7996C259.871 32.885 255.356 38.9704 250.842 45.0559C249.936 46.2763 249.844 46.2896 248.634 45.3948C246.379 43.7273 244.125 42.0586 241.872 40.3886C240.528 39.3921 240.521 39.3494 241.493 38.0396C248.473 28.6297 255.455 19.2202 262.436 9.81121C262.675 9.48954 262.902 9.15741 263.161 8.85273C263.615 8.31833 263.869 8.28549 264.448 8.6466C264.561 8.71712 264.665 8.8024 264.772 8.88178C267.188 10.6681 269.603 12.4555 272.018 14.2439C272.358 14.4964 272.775 14.707 272.775 15.2424Z" fill="#5D4E47"/>
<path d="M152.807 0.184215L154.365 0.225425C154.304 3.02825 154.256 5.8315 154.173 8.63369C154.146 9.54486 153.788 9.85193 152.82 9.83304C150.214 9.78223 147.61 9.70477 145.005 9.63566C143.402 9.59315 141.798 9.56344 140.196 9.49613C139.032 9.44721 138.772 9.17776 138.799 8.0382C138.86 5.43539 138.949 2.8332 139.026 0.230795L140.577 0.182495L140.594 0.229855C140.726 0.381662 140.824 0.559501 140.882 0.751748C140.94 0.943995 140.956 1.14632 140.931 1.3455C141.005 3.07609 140.961 4.80977 140.797 6.53423C140.684 7.28871 140.969 7.66149 141.77 7.64293C144.803 7.57272 147.831 7.75031 150.861 7.839C152.208 7.87843 152.256 7.81667 152.23 6.4225C152.197 4.68758 152.319 2.9626 152.45 1.23642C152.431 0.866568 152.558 0.504024 152.803 0.226675L152.807 0.184215Z" fill="#5D4E47"/>
<path d="M152.803 0.226685C152.786 2.62736 152.545 5.02114 152.594 7.42469C152.609 8.1868 152.559 8.22715 151.792 8.21149C149.424 8.16313 147.057 8.08162 144.69 8.02598C143.588 8.0001 142.485 8.01413 141.383 7.99172C140.443 7.97259 140.319 7.88657 140.414 6.92802C140.637 4.69739 140.522 2.46177 140.594 0.229735C144.664 0.228801 148.734 0.227785 152.803 0.226685Z" fill="#DCCDB3"/>
<path d="M119.906 177.561C121.308 176.503 122.66 175.476 124.019 174.458C133.776 167.15 143.533 159.843 153.292 152.536C163.101 145.187 172.909 137.836 182.716 130.483C193.565 122.35 204.415 114.217 215.266 106.084C223.633 99.8179 232.003 93.5563 240.378 87.2998C248.158 81.4767 255.936 75.6504 263.711 69.8209C271.568 63.9326 279.424 58.0432 287.28 52.1528C287.923 51.6706 287.926 51.6748 288.473 52.2801C288.563 52.3793 288.654 52.477 288.739 52.58C289.358 53.3302 289.375 53.3502 288.629 54.0142C285.836 56.5017 283.037 58.9818 280.23 61.4544C278.206 63.2484 276.182 65.0442 274.161 66.8418C270.885 69.741 267.607 72.6382 264.328 75.5334C261.952 77.6346 259.575 79.7366 257.2 81.8393C253.123 85.446 249.046 89.0529 244.969 92.66C241.769 95.4948 238.572 98.3328 235.378 101.174C231.576 104.537 227.771 107.896 223.961 111.25C220.759 114.083 217.571 116.931 214.37 119.764C209.944 123.681 205.514 127.595 201.081 131.505C197.879 134.337 194.681 137.174 191.487 140.014C187.734 143.332 183.978 146.647 180.219 149.957C177.017 152.789 173.819 155.627 170.626 158.469C166.825 161.833 163.019 165.192 159.21 168.547C156.609 170.848 154.02 173.164 151.419 175.465C148.217 178.297 145.012 181.125 141.803 183.949C139.225 186.227 136.652 188.51 134.082 190.796C132.983 191.771 131.867 192.728 130.786 193.722C130.723 193.799 130.646 193.862 130.558 193.908C130.471 193.954 130.375 193.981 130.276 193.99C130.177 193.998 130.078 193.986 129.984 193.955C129.89 193.924 129.803 193.874 129.729 193.809C127.473 192.317 125.209 190.836 122.94 189.364C122.588 189.137 122.55 188.919 122.732 188.545C123.279 187.471 123.611 186.301 123.709 185.1C123.818 183.778 123.589 182.449 123.042 181.24C122.495 180.031 121.649 178.982 120.584 178.191C120.402 178.044 120.215 177.906 120.032 177.761C119.984 177.698 119.942 177.631 119.906 177.561Z" fill="#DCCDB3"/>
<path d="M133.592 196.282C134.703 195.1 135.885 194.169 137 193.169C139.685 190.76 142.406 188.391 145.11 186.003C147.438 183.947 149.764 181.888 152.087 179.826C152.338 179.624 152.647 179.508 152.969 179.496C154.453 179.29 155.925 178.992 157.399 178.719C162.318 177.806 167.237 176.892 172.156 175.976C177.27 175.022 182.384 174.067 187.497 173.109C192.416 172.192 197.334 171.278 202.254 170.365C206.975 169.488 211.697 168.611 216.419 167.734C221.731 166.744 227.042 165.751 232.353 164.754C237.205 163.844 242.054 162.922 246.906 162.017C252.054 161.056 257.204 160.107 262.356 159.17C262.727 159.102 263.191 158.804 263.478 159.416C263.902 160.323 263.846 160.478 262.89 160.824C258.309 162.485 253.729 164.15 249.152 165.818C245.639 167.091 242.12 168.346 238.606 169.616C233.899 171.317 229.192 173.021 224.487 174.728C220.878 176.03 217.26 177.309 213.65 178.612C209.538 180.097 205.434 181.604 201.322 183.089C196.74 184.743 192.151 186.378 187.569 188.029C182.042 190.021 176.517 192.018 170.993 194.018C165.843 195.877 160.692 197.732 155.54 199.584C152.369 200.73 149.201 201.881 146.034 203.039C145.938 203.068 145.844 203.102 145.752 203.142C145.414 203.314 145.033 203.384 144.656 203.341C144.279 203.297 143.923 203.144 143.634 202.899C140.53 200.811 137.377 198.795 134.244 196.751C134.05 196.624 133.866 196.48 133.592 196.282Z" fill="#DCCDB3"/>
<path d="M122.161 184.663C122.147 186.057 121.74 187.419 120.986 188.591C120.534 189.36 120.538 189.336 121.277 189.875C127.191 194.183 133.472 197.94 139.537 202.02C140.729 202.821 141.933 203.602 143.151 204.364C143.35 204.45 143.508 204.611 143.59 204.813C143.672 205.014 143.671 205.239 143.589 205.44C142.912 208.126 141.226 210.448 138.88 211.921C138.103 212.373 138.089 212.364 137.422 211.763C133.699 208.411 129.978 205.056 126.257 201.701C123.799 199.489 121.349 197.269 118.862 195.09C118.087 194.411 117.196 193.866 116.373 193.239C116.023 192.972 115.725 193.174 115.441 193.302C114.383 193.804 113.257 194.148 112.1 194.324C109.547 194.819 106.9 194.34 104.682 192.981C103.386 192.156 102.431 190.892 101.99 189.42C101.55 187.948 101.655 186.367 102.285 184.966C102.558 184.283 102.903 183.631 103.315 183.022C103.702 182.44 103.693 182.431 103.166 181.994C101.828 180.884 100.393 179.903 98.9835 178.889C89.1687 171.828 79.3515 164.772 69.5318 157.718C59.7718 150.697 50.015 143.67 40.2616 136.64C33.3766 131.684 26.4887 126.733 19.5981 121.785C19.4626 121.687 19.326 121.591 19.1849 121.502C18.8131 121.268 18.824 121.028 19.0948 120.692C19.766 119.861 20.4025 119.003 21.0556 118.157C21.6271 117.417 22.1984 116.677 22.7768 115.942C23.2576 115.331 23.2638 115.332 23.8708 115.808C28.1286 119.146 32.386 122.484 36.6428 125.824C41.6869 129.782 46.7299 133.743 51.7718 137.704C57.7077 142.366 63.6434 147.029 69.579 151.691C78.9559 159.054 88.3329 166.417 97.7101 173.78C99.7586 175.389 101.794 177.016 103.848 178.617C104.4 179.047 105.011 179.401 105.578 179.814C105.724 179.948 105.913 180.024 106.112 180.028C106.31 180.032 106.502 179.964 106.654 179.835C108.468 178.624 110.558 177.888 112.731 177.694C115.176 177.351 117.658 177.97 119.655 179.421C120.481 180.013 121.144 180.803 121.583 181.72C122.021 182.637 122.22 183.649 122.161 184.663Z" fill="#DCCDB3"/>
<path d="M123.258 201.187C110.403 206.833 97.6399 212.439 84.7646 218.094C84.8102 217.782 84.957 217.494 85.1823 217.274C90.8402 209.67 96.5017 202.069 102.167 194.471C102.278 194.347 102.38 194.214 102.473 194.076C102.742 193.579 103.036 193.674 103.432 193.954C104.873 194.963 106.524 195.632 108.26 195.911C109.997 196.19 111.775 196.071 113.459 195.563C114.204 195.381 114.934 195.145 115.645 194.857C115.807 194.776 115.991 194.753 116.167 194.791C116.344 194.83 116.501 194.927 116.615 195.068C118.239 196.556 119.884 198.022 121.507 199.512C122.153 200.001 122.741 200.563 123.258 201.187Z" fill="#DCCDB3"/>
<path d="M131.42 194.711C132.282 193.799 133.207 192.948 134.186 192.163C135.655 190.804 137.188 189.512 138.691 188.189C141.396 185.808 144.101 183.424 146.804 181.039C148.18 179.824 149.543 178.593 150.918 177.376C153.692 174.921 156.468 172.467 159.246 170.016C161.096 168.38 162.945 166.742 164.792 165.103C167.569 162.651 170.347 160.199 173.126 157.749C174.451 156.577 175.766 155.393 177.091 154.22C179.915 151.72 182.74 149.222 185.567 146.726C187.566 144.954 189.55 143.167 191.551 141.398C194.226 139.033 196.916 136.684 199.591 134.317C201.641 132.503 203.67 130.666 205.721 128.853C208.272 126.599 210.839 124.363 213.393 122.112C214.77 120.899 216.133 119.669 217.508 118.452C219.682 116.527 221.859 114.605 224.037 112.685C225.962 110.982 227.878 109.269 229.803 107.566C231.953 105.665 234.113 103.774 236.261 101.872C238.261 100.101 240.247 98.3161 242.247 96.5466C244.922 94.1804 247.6 91.8186 250.283 89.4614C252.16 87.8044 254.034 86.1446 255.905 84.482C258.131 82.514 260.357 80.5472 262.584 78.5816C263.835 77.4761 265.083 76.3689 266.331 75.2599C269.156 72.7615 271.982 70.2636 274.808 67.7662C276.856 65.95 278.889 64.1168 280.938 62.3013C283.786 59.7778 286.638 57.2596 289.496 54.7468C289.545 54.6858 289.614 54.6433 289.69 54.6261C289.767 54.6089 289.847 54.6182 289.918 54.6523C290.002 55.0188 290.109 55.4274 290.189 55.8413C290.273 56.2785 289.944 56.51 289.675 56.7508C288.281 57.9963 286.882 59.2371 285.48 60.4734C284.078 61.7095 282.669 62.9365 281.266 64.1712C279.086 66.0895 276.908 68.0097 274.731 69.9316C272.905 71.5445 271.081 73.1595 269.258 74.7764C266.556 77.1614 263.852 79.5447 261.146 81.9264C259.646 83.2534 258.167 84.604 256.666 85.9306C254.015 88.2735 251.361 90.6113 248.701 92.944C246.848 94.5777 244.999 96.2149 243.152 97.8555C240.376 100.309 237.599 102.761 234.821 105.212C232.822 106.983 230.838 108.77 228.836 110.537C226.234 112.835 223.619 115.117 221.015 117.413C219.588 118.671 218.178 119.95 216.752 121.21C214.101 123.552 211.447 125.891 208.789 128.226C206.912 129.883 205.038 131.542 203.167 133.205C200.415 135.636 197.662 138.064 194.907 140.491C192.882 142.283 190.874 144.094 188.848 145.885C186.198 148.228 183.543 150.566 180.883 152.898C179.531 154.091 178.193 155.299 176.842 156.492C174.116 158.901 171.388 161.308 168.658 163.712C166.781 165.37 164.908 167.029 163.036 168.692C160.284 171.122 157.531 173.55 154.776 175.977C152.751 177.769 150.742 179.58 148.717 181.371C146.067 183.715 143.412 186.054 140.753 188.387C138.876 190.043 137.003 191.704 135.133 193.369C134.459 193.967 133.785 194.566 133.112 195.166C132.567 195.652 132.567 195.654 131.935 195.232C131.706 195.126 131.524 194.941 131.42 194.711Z" fill="#DCCDB3"/>
<path d="M106.138 212.303C106.846 211.974 107.526 211.646 108.216 211.34C112.699 209.351 117.184 207.363 121.67 205.379C122.89 204.838 124.129 204.335 125.323 203.741C125.501 203.625 125.715 203.579 125.924 203.611C126.134 203.643 126.324 203.752 126.459 203.916C128.032 205.361 129.624 206.786 131.21 208.218C131.627 208.595 132.046 208.97 132.447 209.33C132.339 209.645 132.089 209.701 131.885 209.794C128.125 211.52 124.358 213.23 120.603 214.969C120.062 215.222 119.45 215.279 118.871 215.13C114.858 214.277 110.836 213.468 106.818 212.642C106.555 212.623 106.311 212.501 106.138 212.303Z" fill="#DCCDB3"/>
<path d="M145.286 205.641C145.177 204.513 145.177 204.511 146.021 204.204C150.847 202.448 155.673 200.693 160.5 198.939C165.298 197.201 170.097 195.469 174.899 193.742C179.73 191.998 184.561 190.254 189.392 188.509C193.251 187.116 197.109 185.724 200.968 184.331C205.017 182.877 209.072 181.443 213.119 179.984C216.289 178.842 219.447 177.668 222.615 176.523C226.443 175.14 230.277 173.776 234.106 172.398C238.942 170.658 243.777 168.914 248.611 167.166C253.383 165.444 258.155 163.723 262.928 162.002C263.197 161.905 263.459 161.708 263.821 161.832C263.873 162.106 263.815 162.39 263.659 162.621C263.503 162.853 263.261 163.012 262.987 163.065C260.248 164.022 257.53 165.039 254.803 166.029C250.163 167.714 245.521 169.397 240.879 171.078C237.365 172.347 233.844 173.597 230.331 174.871C225.784 176.519 221.244 178.188 216.698 179.839C213.752 180.909 210.798 181.957 207.851 183.025C203.71 184.526 199.574 186.041 195.432 187.541C191.951 188.802 188.463 190.047 184.981 191.307C181.72 192.487 178.463 193.68 175.203 194.863C172.318 195.909 169.432 196.952 166.544 197.992C164.378 198.773 162.212 199.554 160.045 200.334C156.878 201.479 153.712 202.627 150.547 203.778C149.293 204.233 148.042 204.698 146.786 205.149C146.319 205.317 145.842 205.46 145.286 205.641Z" fill="#DCCDB3"/>
<path d="M80.9395 207.223C86.7126 203.99 92.4858 200.758 98.3341 197.483C98.3989 197.847 98.1834 197.983 98.0597 198.15C95.6157 201.442 93.1566 204.724 90.7344 208.032C90.5649 208.326 90.3003 208.555 89.9841 208.679C89.6678 208.803 89.3186 208.816 88.9939 208.716C86.3454 208.217 83.6719 207.851 81.008 207.433L80.9395 207.223Z" fill="#DCCDB3"/>
<path d="M84.2468 220.83C83.8383 220.744 83.7765 220.42 83.6767 220.151C83.5452 219.798 83.8375 219.683 84.0793 219.576C85.1777 219.09 86.281 218.615 87.3806 218.132C90.6493 216.695 93.9178 215.258 97.186 213.82C101.159 212.081 105.14 210.358 109.112 208.617C112.657 207.063 116.199 205.501 119.737 203.931C121.02 203.365 122.303 202.8 123.586 202.237C123.762 202.144 123.954 202.086 124.152 202.066C124.305 202.063 124.455 202.111 124.577 202.203C124.7 202.294 124.788 202.424 124.828 202.572C124.909 202.866 124.568 202.919 124.372 203.007C121.845 204.141 119.315 205.269 116.782 206.39C113.639 207.78 110.49 209.155 107.346 210.544C103.257 212.351 99.1705 214.163 95.0857 215.979C91.6707 217.499 88.2585 219.024 84.849 220.556C84.6372 220.65 84.4269 220.748 84.2468 220.83Z" fill="#DCCDB3"/>
<path d="M102.934 213.818C103.19 213.588 103.497 213.423 103.829 213.336C104.162 213.249 104.511 213.243 104.846 213.318C109.535 214.303 114.223 215.287 118.912 216.27C119.071 216.303 119.281 216.314 119.371 216.419C119.502 216.549 119.597 216.711 119.645 216.89C119.692 217.068 119.692 217.256 119.643 217.434C119.489 217.85 119.135 217.574 118.877 217.515C113.848 216.371 108.82 215.223 103.793 214.069C103.537 214.01 103.288 213.922 102.934 213.818Z" fill="#D1C9B7"/>
<path d="M121.165 217.256C120.822 217.286 120.751 217.107 120.72 216.895C120.673 216.584 120.481 216.254 120.937 216.046C121.785 215.66 122.614 215.229 123.461 214.838C126.574 213.404 129.69 211.973 132.808 210.548C133.14 210.395 133.46 210.158 133.777 210.572C133.921 210.759 133.965 210.927 133.73 211.064C133.529 211.182 133.321 211.288 133.112 211.391C129.319 213.258 125.526 215.125 121.732 216.99C121.524 217.093 121.312 217.187 121.165 217.256Z" fill="#D1C9B7"/>
<path d="M89.1739 210.033C88.207 211.514 88.2107 211.495 86.6343 211.192C84.9011 210.86 83.1601 210.567 81.4231 210.254C81.1938 210.213 80.9655 210.161 80.7409 210.099C80.6008 210.056 80.4708 209.985 80.3585 209.891C80.2463 209.797 80.154 209.681 80.0872 209.551C80.0205 209.42 79.9805 209.278 79.9698 209.131C79.959 208.985 79.9776 208.838 80.0246 208.699C80.1657 208.358 80.4744 208.455 80.7162 208.486C81.6404 208.608 82.5614 208.755 83.4823 208.901C85.1268 209.16 86.7707 209.423 88.4142 209.69C88.7026 209.7 88.9755 209.823 89.1739 210.033Z" fill="#D1C9B7"/>
<path d="M268.972 287.684C269.258 287.781 269.524 287.928 269.758 288.119C272.679 290.057 275.601 291.994 278.523 293.929C283.477 297.21 288.432 300.489 293.387 303.768C296.226 305.646 299.064 307.525 301.903 309.405C302.678 309.919 302.678 309.929 302.171 310.694C300.642 313.003 299.11 315.311 297.577 317.618C297.503 317.729 297.412 317.83 297.347 317.946C297.145 318.308 296.883 318.399 296.528 318.153C296.336 318.02 296.136 317.898 295.942 317.769C291.993 315.147 288.044 312.525 284.095 309.903C278.752 306.363 273.407 302.826 268.061 299.293C266.641 298.353 265.212 297.428 263.798 296.48C263.223 296.095 263.217 296.05 263.606 295.455C265.195 293.026 266.791 290.601 268.393 288.18C268.536 287.964 268.66 287.707 268.972 287.684Z" fill="#DCCDB3"/>
<path d="M271.251 15.353C271.187 15.5794 271.072 15.7879 270.914 15.9623C269.203 18.2663 267.493 20.5712 265.784 22.8769C261.409 28.7727 257.033 34.6682 252.658 40.5634C251.782 41.7425 250.892 42.9103 250.03 44.0993C249.762 44.4699 249.547 44.5635 249.143 44.2593C247.064 42.6927 244.963 41.1554 242.877 39.597C242.261 39.1366 242.267 39.1159 242.754 38.4588C247.325 32.2928 251.898 26.1278 256.472 19.9636C258.818 16.8004 261.162 13.6361 263.505 10.4707C263.954 9.86498 263.964 9.85861 264.56 10.2977C266.655 11.8431 268.748 13.392 270.838 14.9444C270.997 15.0615 271.192 15.1395 271.251 15.353Z" fill="#DCCDB3"/>
<path d="M115.101 184.996C115.098 186.069 114.722 187.107 114.037 187.932C113.351 188.757 112.399 189.317 111.345 189.516C110.875 189.638 110.375 189.576 109.949 189.343C109.523 189.109 109.202 188.721 109.053 188.258C108.817 187.744 108.534 187.252 108.268 186.752C107.916 186.137 107.796 185.416 107.929 184.72C108.063 184.024 108.44 183.398 108.994 182.956C109.444 182.472 110.058 182.173 110.716 182.118C111.375 182.064 112.03 182.257 112.553 182.661C113.002 182.949 113.482 183.187 113.983 183.371C114.819 183.669 115.273 184.181 115.101 184.996Z" fill="#5E4E47"/>
<path d="M112.071 184.283C112.026 184.816 111.799 185.318 111.428 185.705C111.058 186.091 110.566 186.339 110.035 186.407C109.876 186.407 109.72 186.373 109.576 186.307C109.432 186.24 109.304 186.144 109.201 186.023C109.098 185.903 109.022 185.761 108.979 185.609C108.936 185.457 108.926 185.297 108.951 185.14C109.034 184.696 109.24 184.283 109.544 183.949C109.849 183.615 110.241 183.373 110.675 183.249C110.837 183.205 111.006 183.198 111.17 183.229C111.335 183.26 111.49 183.328 111.624 183.427C111.759 183.527 111.869 183.655 111.946 183.804C112.024 183.952 112.066 184.116 112.071 184.283Z" fill="#D1C9B7"/>
<path d="M113.276 184.468C113.401 184.5 113.512 184.573 113.59 184.676C113.667 184.78 113.706 184.906 113.701 185.035C113.701 185.738 113.46 186.42 113.017 186.966C112.575 187.513 111.958 187.89 111.27 188.036C110.975 188.101 110.667 188.074 110.388 187.956C110.325 187.933 110.271 187.89 110.235 187.834C110.199 187.778 110.183 187.711 110.189 187.644C110.196 187.595 110.219 187.55 110.256 187.517C110.292 187.483 110.338 187.463 110.388 187.459C111.095 187.326 111.743 186.977 112.244 186.461C112.745 185.944 113.073 185.285 113.183 184.574C113.19 184.546 113.225 184.525 113.276 184.468Z" fill="#D1C9B7"/>
</g>
</g>
<defs>
<clipPath id="clip0_1425_10572">
<rect width="320" height="320" fill="white"/>
</clipPath>
<clipPath id="clip1_1425_10572">
<rect width="303.103" height="320" fill="white" transform="translate(17)"/>
</clipPath>
</defs>
</svg>
