<svg width="320" height="320" viewBox="0 0 320 320" fill="none" xmlns="http://www.w3.org/2000/svg">
<rect width="320" height="320" fill="#F2F2EA"/>
<g clip-path="url(#clip0_1423_4908)">
<path d="M160 263.981C217.427 263.981 263.981 217.427 263.981 160C263.981 102.573 217.427 56.0187 160 56.0187C102.573 56.0187 56.019 102.573 56.019 160C56.019 217.427 102.573 263.981 160 263.981Z" fill="#3C1F1B" stroke="#3C1F1B" stroke-width="0.72" stroke-miterlimit="2.6131"/>
<path d="M160 241.891C205.227 241.891 241.891 205.227 241.891 160C241.891 114.772 205.227 78.1083 160 78.1083C114.772 78.1083 78.1084 114.772 78.1084 160C78.1084 205.227 114.772 241.891 160 241.891Z" fill="#DCCDB3"/>
<path d="M112.519 113.963L158.508 163.631H200.332" stroke="#3C1F1B" stroke-width="0.72" stroke-linecap="round" stroke-linejoin="round"/>
<path fill-rule="evenodd" clip-rule="evenodd" d="M182.503 106.274C215.729 114.48 221.196 143.939 204.294 189.808C200.745 206.205 203.579 210.465 212.797 202.589C247.075 168.762 235.728 96.2758 184.961 91.301C171.322 89.9647 171.586 103.578 182.503 106.274Z" fill="#BBA580"/>
<path d="M139.678 129.565V116.475H142.446V127.283H148.058V129.565H139.678ZM161.411 123.02C161.411 124.448 161.14 125.662 160.599 126.663C160.062 127.665 159.329 128.43 158.4 128.958C157.475 129.482 156.436 129.744 155.281 129.744C154.117 129.744 153.073 129.48 152.149 128.952C151.224 128.423 150.493 127.658 149.956 126.657C149.419 125.656 149.151 124.443 149.151 123.02C149.151 121.592 149.419 120.378 149.956 119.377C150.493 118.375 151.224 117.612 152.149 117.088C153.073 116.56 154.117 116.296 155.281 116.296C156.436 116.296 157.475 116.56 158.4 117.088C159.329 117.612 160.062 118.375 160.599 119.377C161.14 120.378 161.411 121.592 161.411 123.02ZM158.605 123.02C158.605 122.095 158.466 121.315 158.189 120.68C157.916 120.046 157.531 119.564 157.032 119.236C156.534 118.908 155.95 118.744 155.281 118.744C154.612 118.744 154.028 118.908 153.529 119.236C153.031 119.564 152.643 120.046 152.366 120.68C152.093 121.315 151.957 122.095 151.957 123.02C151.957 123.945 152.093 124.725 152.366 125.359C152.643 125.994 153.031 126.476 153.529 126.804C154.028 127.132 154.612 127.296 155.281 127.296C155.95 127.296 156.534 127.132 157.032 126.804C157.531 126.476 157.916 125.994 158.189 125.359C158.466 124.725 158.605 123.945 158.605 123.02ZM172.141 120.706C172.052 120.395 171.926 120.12 171.764 119.881C171.602 119.639 171.404 119.434 171.17 119.268C170.94 119.097 170.676 118.967 170.377 118.878C170.083 118.788 169.757 118.744 169.399 118.744C168.73 118.744 168.142 118.91 167.635 119.242C167.132 119.575 166.74 120.058 166.459 120.693C166.178 121.324 166.037 122.095 166.037 123.007C166.037 123.919 166.176 124.695 166.453 125.334C166.729 125.973 167.122 126.461 167.629 126.798C168.136 127.13 168.734 127.296 169.425 127.296C170.051 127.296 170.586 127.185 171.029 126.964C171.477 126.738 171.818 126.421 172.052 126.011C172.291 125.602 172.41 125.119 172.41 124.56L172.972 124.644H169.597V122.56H175.075V124.209C175.075 125.359 174.832 126.348 174.347 127.175C173.861 127.997 173.192 128.632 172.34 129.08C171.487 129.523 170.511 129.744 169.412 129.744C168.185 129.744 167.107 129.474 166.178 128.933C165.249 128.387 164.524 127.614 164.004 126.612C163.489 125.607 163.231 124.413 163.231 123.033C163.231 121.972 163.384 121.026 163.691 120.195C164.002 119.359 164.437 118.652 164.995 118.073C165.553 117.493 166.203 117.052 166.945 116.749C167.686 116.447 168.489 116.296 169.354 116.296C170.096 116.296 170.786 116.404 171.426 116.622C172.065 116.835 172.631 117.137 173.126 117.529C173.624 117.921 174.031 118.388 174.347 118.929C174.662 119.466 174.864 120.058 174.954 120.706H172.141ZM189.184 123.02C189.184 124.448 188.914 125.662 188.372 126.663C187.835 127.665 187.103 128.43 186.174 128.958C185.249 129.482 184.209 129.744 183.054 129.744C181.891 129.744 180.847 129.48 179.922 128.952C178.997 128.423 178.267 127.658 177.73 126.657C177.193 125.656 176.924 124.443 176.924 123.02C176.924 121.592 177.193 120.378 177.73 119.377C178.267 118.375 178.997 117.612 179.922 117.088C180.847 116.56 181.891 116.296 183.054 116.296C184.209 116.296 185.249 116.56 186.174 117.088C187.103 117.612 187.835 118.375 188.372 119.377C188.914 120.378 189.184 121.592 189.184 123.02ZM186.378 123.02C186.378 122.095 186.24 121.315 185.963 120.68C185.69 120.046 185.304 119.564 184.806 119.236C184.307 118.908 183.723 118.744 183.054 118.744C182.385 118.744 181.801 118.908 181.303 119.236C180.804 119.564 180.416 120.046 180.139 120.68C179.867 121.315 179.73 122.095 179.73 123.02C179.73 123.945 179.867 124.725 180.139 125.359C180.416 125.994 180.804 126.476 181.303 126.804C181.801 127.132 182.385 127.296 183.054 127.296C183.723 127.296 184.307 127.132 184.806 126.804C185.304 126.476 185.69 125.994 185.963 125.359C186.24 124.725 186.378 123.945 186.378 123.02Z" fill="#3C1F1B"/>
</g>
<defs>
<clipPath id="clip0_1423_4908">
<rect width="210" height="210" fill="white" transform="translate(55 55)"/>
</clipPath>
</defs>
</svg>
