<svg width="320" height="320" viewBox="0 0 320 320" fill="none" xmlns="http://www.w3.org/2000/svg">
<rect width="320" height="320" fill="#F2F2EA"/>
<g clip-path="url(#clip0_1423_4817)">
<path fill-rule="evenodd" clip-rule="evenodd" d="M183.435 121.99C189.466 125.892 194.42 131.237 197.846 137.538C201.273 143.839 203.062 150.896 203.051 158.063C203.04 165.23 201.229 172.281 197.783 178.571C194.337 184.862 189.366 190.192 183.324 194.076H183.593V246.125C183.587 248.263 182.731 250.312 181.215 251.824C179.698 253.336 177.643 254.189 175.498 254.196H144.501C142.356 254.189 140.301 253.337 138.784 251.824C137.268 250.312 136.413 248.263 136.406 246.125V194.076H136.675C130.633 190.192 125.662 184.862 122.217 178.571C118.771 172.281 116.96 165.23 116.949 158.063C116.938 150.896 118.727 143.84 122.153 137.538C125.58 131.237 130.534 125.892 136.564 121.99H136.406V72.875C136.412 70.7365 137.267 68.6874 138.784 67.1752C140.301 65.6631 142.356 64.8108 144.501 64.8046H175.498C177.643 64.8108 179.699 65.6631 181.216 67.1753C182.732 68.6874 183.587 70.7365 183.593 72.875V121.99H183.435Z" fill="#55322D" stroke="#3C1F1B" stroke-width="0.72" stroke-miterlimit="2.6131"/>
<path fill-rule="evenodd" clip-rule="evenodd" d="M159.999 191.91C166.727 191.91 173.304 189.921 178.899 186.195C184.493 182.468 188.853 177.171 191.428 170.974C194.002 164.777 194.676 157.958 193.364 151.38C192.051 144.801 188.811 138.758 184.054 134.015C179.296 129.272 173.235 126.042 166.636 124.733C160.038 123.425 153.198 124.096 146.982 126.663C140.766 129.23 135.453 133.577 131.716 139.154C127.978 144.731 125.983 151.288 125.983 157.996C126 166.985 129.59 175.601 135.965 181.957C142.341 188.314 150.983 191.893 159.999 191.91Z" fill="#DCCDB3"/>
<path d="M159.381 133.07V159.501H176.753" stroke="#3C1F1B" stroke-width="0.72" stroke-linecap="round" stroke-linejoin="round"/>
<path fill-rule="evenodd" clip-rule="evenodd" d="M169.348 135.747C183.15 139.145 185.421 151.345 178.4 170.341C176.926 177.131 178.103 178.896 181.931 175.634C196.171 161.625 191.457 131.606 170.369 129.546C164.703 128.992 164.813 134.63 169.348 135.747Z" fill="#BBA580"/>
<path fill-rule="evenodd" clip-rule="evenodd" d="M159.999 201.058C168.542 201.058 176.893 198.533 183.996 193.801C191.1 189.069 196.636 182.344 199.905 174.475C203.174 166.607 204.03 157.948 202.363 149.595C200.696 141.242 196.583 133.569 190.542 127.546C184.501 121.524 176.805 117.423 168.427 115.761C160.048 114.099 151.363 114.952 143.471 118.211C135.578 121.471 128.832 126.99 124.086 134.072C119.34 141.153 116.807 149.479 116.807 157.996C116.829 169.41 121.387 180.35 129.482 188.421C137.577 196.492 148.551 201.036 159.999 201.058Z" stroke="#3C1F1B" stroke-width="0.72" stroke-miterlimit="2.6131"/>
</g>
<defs>
<clipPath id="clip0_1423_4817">
<rect width="88" height="191" fill="white" transform="translate(116 64)"/>
</clipPath>
</defs>
</svg>
