<svg width="320" height="320" viewBox="0 0 320 320" fill="none" xmlns="http://www.w3.org/2000/svg">
<rect width="320" height="320" fill="#F2F2EA"/>
<g clip-path="url(#clip0_1423_4893)">
<path fill-rule="evenodd" clip-rule="evenodd" d="M183.848 121.671C189.912 125.606 194.893 130.997 198.338 137.352C201.783 143.706 203.582 150.822 203.571 158.051C203.56 165.279 201.739 172.389 198.274 178.733C194.81 185.077 189.812 190.453 183.737 194.369H184.007V246.861C184.001 249.017 183.141 251.083 181.616 252.608C180.091 254.133 178.025 254.993 175.868 255H144.702C142.546 254.993 140.479 254.134 138.954 252.609C137.43 251.084 136.57 249.017 136.563 246.861V194.369H136.834C130.759 190.453 125.761 185.077 122.297 178.733C118.832 172.389 117.011 165.279 117 158.051C116.989 150.822 118.788 143.706 122.233 137.352C125.678 130.997 130.659 125.606 136.722 121.671H136.563V72.139C136.57 69.9823 137.429 67.9158 138.954 66.3909C140.479 64.8659 142.546 64.0063 144.702 64H175.869C178.025 64.0063 180.092 64.8659 181.617 66.3909C183.142 67.9158 184.001 69.9823 184.008 72.139V121.671H183.848Z" fill="#3C1F1B"/>
<path fill-rule="evenodd" clip-rule="evenodd" d="M160.203 192.405C166.967 192.405 173.58 190.399 179.204 186.64C184.829 182.882 189.213 177.54 191.801 171.291C194.39 165.041 195.067 158.164 193.747 151.529C192.428 144.895 189.17 138.801 184.387 134.017C179.603 129.234 173.509 125.977 166.875 124.657C160.24 123.337 153.363 124.015 147.113 126.604C140.864 129.192 135.522 133.576 131.764 139.201C128.006 144.825 126 151.438 126 158.203C126.017 167.268 129.627 175.958 136.037 182.368C142.448 188.779 151.137 192.387 160.203 192.405Z" fill="#DCCDB3" stroke="#3C1F1B" stroke-width="0.72" stroke-miterlimit="2.6131"/>
<path fill-rule="evenodd" clip-rule="evenodd" d="M160.286 172.241C163.106 172.241 165.863 171.405 168.208 169.838C170.552 168.271 172.38 166.044 173.459 163.439C174.538 160.834 174.82 157.967 174.27 155.201C173.72 152.435 172.362 149.895 170.368 147.901C168.374 145.907 165.833 144.549 163.067 143.999C160.301 143.448 157.434 143.731 154.829 144.81C152.224 145.889 149.997 147.717 148.43 150.062C146.863 152.406 146.027 155.163 146.027 157.983C146.035 161.763 147.539 165.385 150.212 168.058C152.884 170.73 156.507 172.234 160.286 172.241Z" fill="#BBA580"/>
<path d="M147.465 136.255V133.154H147.841V135.922H149.283V136.255H147.465ZM152.36 134.704C152.36 135.031 152.301 135.314 152.183 135.552C152.065 135.79 151.903 135.974 151.697 136.103C151.491 136.233 151.255 136.297 150.991 136.297C150.727 136.297 150.491 136.233 150.285 136.103C150.079 135.974 149.917 135.79 149.799 135.552C149.681 135.314 149.622 135.031 149.622 134.704C149.622 134.377 149.681 134.094 149.799 133.856C149.917 133.618 150.079 133.434 150.285 133.305C150.491 133.176 150.727 133.111 150.991 133.111C151.255 133.111 151.491 133.176 151.697 133.305C151.903 133.434 152.065 133.618 152.183 133.856C152.301 134.094 152.36 134.377 152.36 134.704ZM151.996 134.704C151.996 134.436 151.952 134.209 151.862 134.024C151.773 133.839 151.652 133.7 151.5 133.605C151.348 133.51 151.179 133.462 150.991 133.462C150.803 133.462 150.633 133.51 150.481 133.605C150.329 133.7 150.209 133.839 150.119 134.024C150.03 134.209 149.986 134.436 149.986 134.704C149.986 134.973 150.03 135.199 150.119 135.384C150.209 135.569 150.329 135.709 150.481 135.804C150.633 135.898 150.803 135.946 150.991 135.946C151.179 135.946 151.348 135.898 151.5 135.804C151.652 135.709 151.773 135.569 151.862 135.384C151.952 135.199 151.996 134.973 151.996 134.704ZM155.111 134.123C155.078 134.021 155.034 133.929 154.98 133.849C154.926 133.767 154.862 133.697 154.787 133.64C154.714 133.582 154.63 133.538 154.536 133.508C154.442 133.478 154.339 133.462 154.227 133.462C154.043 133.462 153.876 133.51 153.726 133.605C153.575 133.7 153.456 133.839 153.367 134.024C153.278 134.209 153.234 134.436 153.234 134.704C153.234 134.973 153.279 135.199 153.368 135.384C153.458 135.569 153.58 135.709 153.733 135.804C153.887 135.898 154.059 135.946 154.251 135.946C154.429 135.946 154.585 135.908 154.721 135.832C154.857 135.756 154.963 135.648 155.039 135.508C155.115 135.368 155.154 135.203 155.154 135.013L155.269 135.037H154.336V134.704H155.517V135.037C155.517 135.293 155.463 135.515 155.354 135.704C155.246 135.892 155.096 136.039 154.905 136.143C154.716 136.246 154.498 136.297 154.251 136.297C153.977 136.297 153.735 136.233 153.527 136.103C153.32 135.974 153.159 135.79 153.043 135.552C152.928 135.314 152.87 135.031 152.87 134.704C152.87 134.459 152.903 134.238 152.969 134.042C153.035 133.846 153.129 133.678 153.25 133.54C153.371 133.401 153.515 133.295 153.68 133.222C153.846 133.148 154.028 133.111 154.227 133.111C154.391 133.111 154.543 133.136 154.684 133.185C154.827 133.234 154.953 133.303 155.064 133.393C155.176 133.482 155.27 133.588 155.345 133.712C155.419 133.835 155.471 133.972 155.499 134.123H155.111ZM158.777 134.704C158.777 135.031 158.718 135.314 158.6 135.552C158.482 135.79 158.32 135.974 158.114 136.103C157.908 136.233 157.673 136.297 157.408 136.297C157.144 136.297 156.908 136.233 156.702 136.103C156.497 135.974 156.334 135.79 156.216 135.552C156.098 135.314 156.039 135.031 156.039 134.704C156.039 134.377 156.098 134.094 156.216 133.856C156.334 133.618 156.497 133.434 156.702 133.305C156.908 133.176 157.144 133.111 157.408 133.111C157.673 133.111 157.908 133.176 158.114 133.305C158.32 133.434 158.482 133.618 158.6 133.856C158.718 134.094 158.777 134.377 158.777 134.704ZM158.414 134.704C158.414 134.436 158.369 134.209 158.279 134.024C158.19 133.839 158.069 133.7 157.917 133.605C157.765 133.51 157.596 133.462 157.408 133.462C157.22 133.462 157.05 133.51 156.898 133.605C156.746 133.7 156.626 133.839 156.536 134.024C156.447 134.209 156.403 134.436 156.403 134.704C156.403 134.973 156.447 135.199 156.536 135.384C156.626 135.569 156.746 135.709 156.898 135.804C157.05 135.898 157.22 135.946 157.408 135.946C157.596 135.946 157.765 135.898 157.917 135.804C158.069 135.709 158.19 135.569 158.279 135.384C158.369 135.199 158.414 134.973 158.414 134.704Z" fill="#3C1F1B"/>
<path d="M144.231 179.027V175.925H145.315C145.531 175.925 145.709 175.963 145.85 176.037C145.99 176.111 146.095 176.211 146.163 176.336C146.232 176.46 146.266 176.598 146.266 176.749C146.266 176.882 146.242 176.992 146.195 177.079C146.149 177.166 146.087 177.235 146.01 177.285C145.935 177.336 145.852 177.373 145.763 177.397V177.428C145.858 177.434 145.954 177.467 146.05 177.527C146.146 177.588 146.226 177.675 146.29 177.788C146.355 177.901 146.387 178.039 146.387 178.203C146.387 178.358 146.352 178.498 146.281 178.622C146.211 178.746 146.099 178.845 145.947 178.918C145.794 178.99 145.596 179.027 145.352 179.027H144.231ZM144.607 178.693H145.352C145.597 178.693 145.771 178.646 145.874 178.551C145.978 178.455 146.03 178.339 146.03 178.203C146.03 178.098 146.003 178.001 145.95 177.912C145.896 177.822 145.82 177.751 145.721 177.697C145.622 177.643 145.505 177.615 145.37 177.615H144.607V178.693ZM144.607 177.288H145.303C145.416 177.288 145.518 177.266 145.609 177.222C145.701 177.177 145.774 177.115 145.827 177.034C145.882 176.953 145.909 176.858 145.909 176.749C145.909 176.613 145.861 176.497 145.766 176.402C145.672 176.306 145.521 176.259 145.315 176.259H144.607V177.288ZM147.004 179.027V175.925H148.052C148.295 175.925 148.493 175.967 148.649 176.05C148.804 176.131 148.919 176.244 148.994 176.387C149.069 176.531 149.106 176.694 149.106 176.876C149.106 177.059 149.069 177.221 148.994 177.362C148.919 177.504 148.805 177.615 148.65 177.696C148.496 177.775 148.299 177.815 148.058 177.815H147.21V177.476H148.046C148.212 177.476 148.345 177.452 148.446 177.403C148.548 177.355 148.622 177.286 148.667 177.197C148.714 177.108 148.737 177.001 148.737 176.876C148.737 176.752 148.714 176.644 148.667 176.551C148.621 176.458 148.546 176.386 148.444 176.336C148.343 176.284 148.208 176.259 148.04 176.259H147.38V179.027H147.004ZM148.464 177.633L149.227 179.027H148.791L148.04 177.633H148.464ZM149.859 179.027H149.465L150.604 175.925H150.992L152.131 179.027H151.737L150.81 176.416H150.786L149.859 179.027ZM150.005 177.815H151.592V178.148H150.005V177.815ZM155.073 175.925V179.027H154.709L153.019 176.592H152.989V179.027H152.614V175.925H152.977L154.673 178.366H154.703V175.925H155.073ZM156.781 179.027H155.824V175.925H156.824C157.125 175.925 157.382 175.987 157.596 176.112C157.81 176.235 157.974 176.412 158.088 176.643C158.202 176.873 158.259 177.149 158.259 177.47C158.259 177.793 158.202 178.071 158.087 178.304C157.972 178.536 157.804 178.715 157.584 178.84C157.364 178.965 157.096 179.027 156.781 179.027ZM156.2 178.693H156.757C157.014 178.693 157.226 178.644 157.395 178.545C157.563 178.446 157.689 178.305 157.772 178.123C157.854 177.94 157.896 177.722 157.896 177.47C157.896 177.22 157.855 177.004 157.773 176.823C157.691 176.642 157.569 176.502 157.407 176.405C157.244 176.307 157.042 176.259 156.799 176.259H156.2V178.693Z" fill="#3C1F1B"/>
</g>
<defs>
<clipPath id="clip0_1423_4893">
<rect width="86.5708" height="191" fill="white" transform="translate(117 64)"/>
</clipPath>
</defs>
</svg>
