<svg width="320" height="320" viewBox="0 0 320 320" fill="none" xmlns="http://www.w3.org/2000/svg">
<g clip-path="url(#clip0_1425_10782)">
<rect width="320" height="320" fill="#F2F2EA"/>
<g clip-path="url(#clip1_1425_10782)">
<ellipse cx="40.5" cy="160.5" rx="221.5" ry="236.5" fill="#DCCDB3"/>
<path d="M254.06 319.97H189.091C188.785 319.378 189.286 319.075 189.571 318.729C193.281 314.248 196.844 309.655 200.2 304.903C205.417 297.512 210.17 289.804 214.433 281.825C218.954 273.399 222.971 264.711 226.461 255.809C231.696 242.381 235.815 228.545 238.775 214.44C240.511 206.217 241.86 197.933 242.821 189.588C243.363 184.942 243.719 180.277 244.084 175.612C244.8 166.488 244.664 157.353 244.591 148.222C244.564 144.811 244.316 141.393 244.095 137.981C243.732 132.374 243.188 126.788 242.517 121.213C241.338 111.529 239.656 101.913 237.479 92.4041C235.262 82.6049 232.522 72.9315 229.269 63.4259C226.077 54.1047 222.391 44.9602 218.226 36.031C212.646 24.0864 206.183 12.5743 198.892 1.59037C198.649 1.28686 198.471 0.936532 198.369 0.561234C198.322 0.305954 198.379 0.109024 198.694 0.0975342C218.612 0.0990608 238.529 0.0993142 258.443 0.0982942C259.263 0.202374 259.491 0.918424 259.786 1.49636C261.003 3.88396 262.308 6.2281 263.476 8.63924C266.406 14.6833 269.253 20.7658 271.839 26.9674C276.156 37.3182 279.954 47.8555 283.231 58.5791C286.544 69.4298 289.311 80.4164 291.532 91.5389C293.706 102.405 295.358 113.352 296.488 124.379C296.976 129.161 297.377 133.949 297.66 138.749C297.948 143.645 298.118 148.541 298.263 153.443C298.359 156.703 298.472 159.964 298.379 163.217C298.236 168.213 298.154 173.211 297.877 178.205C297.603 183.134 297.277 188.058 296.807 192.969C296.056 200.812 295.015 208.618 293.683 216.388C290.87 233.083 286.647 249.511 281.062 265.494C277.941 274.359 274.353 283.053 270.313 291.539C265.952 300.732 261.016 309.641 255.535 318.213C255.216 318.924 254.705 319.532 254.06 319.97Z" fill="#E5E4E1"/>
<path d="M0 153.105V123.259C1.51235 122.212 3.10343 121.283 4.759 120.482C10.0659 117.53 15.3793 114.591 20.6992 111.663C27.2136 108.091 33.6995 104.468 40.2114 100.892C45.1662 98.1709 50.1132 95.4354 55.0524 92.6856C60.8718 89.4585 66.6947 86.2376 72.5211 83.0231C78.9652 79.457 85.411 75.8941 91.8586 72.3344C98.3089 68.7798 104.757 65.2204 111.202 61.6564C116.292 58.8476 121.379 56.0323 126.463 53.2105C131.549 50.3933 136.645 47.5945 141.728 44.7704C143.062 44.1881 144.471 43.7941 145.914 43.5998C153.9 41.7104 161.895 39.853 169.885 37.9771C176.459 36.4335 183.04 34.9175 189.61 33.3567C190.077 33.2457 190.768 32.8837 191.008 33.4401C191.217 33.9233 190.553 34.2873 190.173 34.6256C187.255 37.2223 184.362 39.8466 181.447 42.4468C177.834 45.6701 174.231 48.905 170.639 52.1514C167.757 54.7397 164.879 57.3326 162.005 59.9302C159.368 62.3088 156.764 64.7247 154.063 67.0294C152.732 68.0025 151.309 68.8433 149.815 69.5397C142.572 73.5971 135.332 77.6605 128.095 81.7298C119.356 86.619 110.621 91.5169 101.891 96.4236C94.396 100.626 86.9048 104.835 79.4174 109.052C72.29 113.051 65.162 117.049 58.0334 121.046C49.3297 125.934 40.6255 130.82 31.9207 135.706C21.8385 141.371 11.7503 147.026 1.656 152.67C1.16649 152.943 0.701 153.541 0 153.105Z" fill="#E5E4E1"/>
<path d="M0 153.105C0.663911 152.971 1.28692 152.683 1.81833 152.263C5.99668 149.945 10.1653 147.609 14.3243 145.256C18.7141 142.787 23.1024 140.315 27.4892 137.841C31.4874 135.597 35.4974 133.374 39.4957 131.13C43.888 128.666 48.2698 126.182 52.6618 123.717C56.6598 121.473 60.6689 119.248 64.6668 117.004C68.4957 114.854 72.3136 112.686 76.1415 110.534C79.5191 108.636 82.9062 106.755 86.2849 104.859C91.2965 102.046 96.3062 99.2296 101.314 96.4102C104.692 94.5133 108.073 92.6199 111.455 90.7302C116.494 87.9007 121.532 85.069 126.569 82.235C130.568 79.9922 134.577 77.7667 138.575 75.523C142.967 73.0582 147.326 70.5321 151.755 68.1357C153.314 67.2255 154.759 66.133 156.06 64.8813C159.064 62.19 162.068 59.4988 165.073 56.8077C166.514 55.5145 167.945 54.2104 169.384 52.9143C172.045 50.5167 174.707 48.1205 177.371 45.7258C180.325 43.0756 183.283 40.4288 186.243 37.7855C187.637 36.5363 189.026 35.2819 190.411 34.0223C190.649 33.8492 190.836 33.6144 190.95 33.3432C188.992 33.8028 187.116 34.2441 185.24 34.683C178.332 36.299 171.424 37.9149 164.516 39.5308C158.582 40.9222 152.649 42.3171 146.716 43.7155C145.649 43.9658 144.583 44.2275 143.504 44.42C142.169 44.8059 140.906 45.4065 139.764 46.1983C136.439 47.9908 133.153 49.8564 129.849 51.6868C125.047 54.3463 120.244 57.0028 115.438 59.6562C112.273 61.4053 109.107 63.1526 105.939 64.8981C101.87 67.1482 97.8026 69.4004 93.7359 71.6546C90.344 73.5278 86.9434 75.3854 83.5521 77.2598C79.0025 79.7745 74.4555 82.2938 69.911 84.8178C66.6901 86.5997 63.4667 88.3772 60.241 90.1505C56.2286 92.3693 52.2179 94.5914 48.209 96.8166C45.5813 98.2704 42.9518 99.7207 40.3203 101.168C36.1378 103.479 31.9562 105.792 27.7755 108.107C24.6102 109.856 21.444 111.604 18.2768 113.35C13.5009 115.989 8.72558 118.63 3.95084 121.271C2.84865 121.88 1.74115 122.48 0.64084 123.092C0.451936 123.218 0.226252 123.277 0 123.259L0 121.515C1.1518 121.014 2.2652 120.43 3.33119 119.766C14.7777 113.453 26.2197 107.133 37.657 100.804C45.9339 96.2292 54.2107 91.6546 62.4873 87.0798C74.8323 80.2574 87.1774 73.4352 99.5226 66.6132C111.584 59.9462 123.646 53.2783 135.707 46.6093C136.893 45.9536 138.071 45.2826 139.272 44.6556C139.377 44.6221 139.474 44.567 139.557 44.4938C139.639 44.4206 139.705 44.3309 139.751 44.2306C139.797 44.1302 139.821 44.0214 139.822 43.9111C139.823 43.8008 139.801 43.6916 139.757 43.5903C139.329 41.9342 139.109 40.2311 139.103 38.5205C139.084 32.2549 141.496 26.2262 145.831 21.7025C150.167 17.1787 156.087 14.5124 162.348 14.2643C165.58 14.0842 168.816 14.5457 171.869 15.6223C174.922 16.6989 177.732 18.3693 180.136 20.537C183.509 23.4904 185.977 27.3379 187.256 31.6349C187.522 32.5 187.519 32.4981 188.441 32.282C189.791 31.9654 191.143 31.6543 192.493 31.338C192.7 31.2439 192.93 31.2114 193.155 31.2443C193.614 31.4038 194.109 31.5652 194.256 32.0944C194.389 32.5732 194.034 32.8716 193.721 33.1545C192.067 34.6471 190.42 36.1476 188.745 37.6167C188.587 37.7477 188.462 37.9139 188.381 38.102C188.299 38.2902 188.262 38.4949 188.274 38.6997C188.194 44.289 186.169 49.6758 182.549 53.935C178.929 58.1942 173.939 61.0599 168.436 62.04C166.271 62.4129 164.069 62.5289 161.877 62.3856C161.672 62.3636 161.466 62.387 161.271 62.4539C161.077 62.5208 160.9 62.6297 160.752 62.7729C159.322 64.0799 157.846 65.337 156.438 66.6663C155.237 67.7908 153.9 68.7606 152.458 69.5534C142.369 75.184 132.288 80.8309 122.217 86.4939C121.978 86.6114 121.779 86.7958 121.643 87.0246C122.277 87.0246 122.911 87.0298 123.545 87.0237C125.71 87.0027 127.875 86.9793 130.04 86.9535C138.117 86.8478 146.196 86.8349 154.273 86.733C161.058 86.6474 167.844 86.6697 174.628 86.5471C181.574 86.4215 188.522 86.491 195.467 86.3411C199.537 86.2532 203.609 86.3615 207.676 86.1913C208.094 86.1704 208.511 86.2365 208.902 86.3853C209.293 86.534 209.649 86.7623 209.947 87.0555C216.454 92.9809 221.945 99.934 226.2 107.638C228.629 112.049 230.632 116.681 232.18 121.473C232.489 122.423 232.356 122.303 233.303 122.247C235.074 122.141 236.845 122.046 238.617 121.947C238.713 121.937 238.81 121.934 238.907 121.937C239.435 121.98 239.752 122.261 239.759 122.685C239.765 123.113 239.475 123.405 238.935 123.449C238.195 123.509 237.451 123.522 236.711 123.58C235.474 123.592 234.239 123.677 233.013 123.835C232.88 124.17 233.074 124.466 233.152 124.755C234.423 129.421 235.252 134.197 235.629 139.02C235.924 142.493 235.946 145.984 235.697 149.461C235.663 149.897 235.893 149.947 236.216 149.947C237.477 149.947 238.738 149.943 239.998 149.95C240.288 149.939 240.578 149.964 240.862 150.023C241.024 150.054 241.169 150.144 241.267 150.276C241.365 150.408 241.411 150.572 241.394 150.736C241.391 150.883 241.337 151.026 241.241 151.138C241.144 151.25 241.012 151.325 240.866 151.35C240.549 151.408 240.228 151.439 239.906 151.441C238.71 151.459 237.514 151.456 236.318 151.474C235.627 151.484 235.535 151.549 235.484 152.237C235.338 154.233 235.035 156.206 234.692 158.175C233.566 164.63 231.612 170.913 228.881 176.87C225.629 183.988 221.339 190.584 216.151 196.442C213.705 199.194 211.091 201.792 208.325 204.222C207.922 204.6 207.394 204.817 206.841 204.83C206.486 204.838 206.13 204.846 205.775 204.848C196.144 204.891 186.512 204.897 176.882 204.991C171.226 205.046 165.57 204.983 159.915 205.063C154.13 205.144 148.345 205.121 142.56 205.186C138.262 205.234 133.964 205.213 129.666 205.246C126.176 205.273 122.686 205.337 119.197 205.331C117.876 205.276 116.554 205.304 115.237 205.416C115.029 205.438 114.818 205.414 114.621 205.343C114.423 205.273 114.244 205.159 114.097 205.01C109.531 201.049 105.411 196.602 101.81 191.747C94.7959 182.307 90.0133 171.4 87.8222 159.845C87.246 156.741 86.8509 153.606 86.6391 150.456C86.4294 147.525 86.4021 144.585 86.5574 141.651C86.8691 135.592 87.9014 129.593 89.6324 123.779C92.4007 114.476 96.8757 105.768 102.829 98.1021C103.081 97.7994 103.282 97.4588 103.427 97.0928C103.097 97.2617 102.76 97.4195 102.437 97.601C86.113 106.764 69.7901 115.928 53.4677 125.093C35.9334 134.934 18.3971 144.771 0.859 154.606C0.579 154.763 0.28658 154.898 0 155.043V153.105Z" fill="#5D4E47"/>
<path d="M198.389 0.224477C199.841 2.4756 201.311 4.71525 202.741 6.98025C205.533 11.4026 208.187 15.9065 210.704 20.4918C213.133 24.9073 215.404 29.403 217.589 33.941C219.62 38.1568 221.496 42.4427 223.292 46.7651C226.166 53.6818 228.756 60.702 231.061 67.826C233.459 75.2218 235.529 82.7104 237.321 90.2746C238.331 94.538 239.238 98.8241 240.041 103.133C240.809 107.247 241.487 111.376 242.074 115.522C242.543 118.869 242.971 122.221 243.357 125.578C243.629 127.911 243.777 130.259 243.994 132.6C244.271 135.583 244.456 138.572 244.611 141.564C244.684 142.982 244.693 144.4 244.774 145.815C245.142 152.268 244.956 158.726 244.906 165.181C244.888 167.432 244.787 169.685 244.601 171.939C244.493 173.254 244.477 174.578 244.385 175.897C244.229 178.145 244.021 180.389 243.839 182.635C243.711 184.209 243.527 185.776 243.381 187.347C243.21 189.173 242.999 190.997 242.76 192.816C242.487 194.89 242.162 196.957 241.862 199.027C241.369 202.438 240.766 205.829 240.138 209.217C238.98 215.463 237.565 221.651 235.942 227.788C234.045 234.963 231.86 242.051 229.337 249.033C227.307 254.649 225.092 260.19 222.69 265.656C220.667 270.237 218.478 274.735 216.186 279.184C213.287 284.812 210.116 290.284 206.753 295.648C203.063 301.533 199.061 307.199 194.823 312.697C193.091 314.945 191.252 317.112 189.459 319.313C189.297 319.512 189.086 319.679 189.091 319.97H186.958C187.39 319.215 187.928 318.526 188.554 317.923C197.708 306.967 205.753 295.129 212.572 282.585C219.636 269.6 225.499 255.998 230.089 241.947C233.57 231.315 236.374 220.473 238.484 209.486C239.542 204.014 240.417 198.511 241.108 192.977C241.554 189.397 241.962 185.814 242.279 182.219C242.608 178.494 242.857 174.765 243.066 171.031C243.398 165.098 243.468 159.162 243.416 153.223C243.388 149.997 243.301 146.772 243.156 143.547C243.02 140.456 242.833 137.365 242.575 134.282C242.102 128.633 241.487 122.999 240.732 117.379C239.225 106.331 237.068 95.3805 234.274 84.5854C230.804 71.0889 226.321 57.8734 220.863 45.0514C218.359 39.1722 215.652 33.3885 212.742 27.7003C208.89 20.171 204.663 12.8395 200.078 5.73315C198.886 3.89188 197.68 2.0601 196.48 0.223957C197.062 0.0714077 197.668 0.034014 198.265 0.113877L198.389 0.224477Z" fill="#5D4E47"/>
<path d="M260.603 0.219965C261.191 1.36685 261.78 2.5137 262.368 3.66053C268.846 16.2564 274.495 29.2617 279.278 42.5937C283.524 54.4298 287.109 66.4929 290.016 78.727C291.897 86.629 293.529 94.5818 294.832 102.602C295.716 108.041 296.522 113.489 297.158 118.963C297.512 122.003 297.842 125.045 298.121 128.093C298.433 131.495 298.705 134.899 298.908 138.309C299.052 140.723 299.168 143.138 299.292 145.553C299.615 151.842 299.652 158.134 299.597 164.428C299.569 167.558 299.509 170.689 299.383 173.816C299.243 177.295 299.065 180.774 298.807 184.246C298.426 189.386 297.96 194.518 297.356 199.639C296.779 204.535 296.115 209.418 295.323 214.282C294.22 221.058 292.894 227.792 291.344 234.483C289.15 243.975 286.503 253.338 283.402 262.572C279.011 275.633 273.61 288.331 267.249 300.554C263.937 306.911 260.336 313.101 256.446 319.125C256.229 319.365 256.076 319.655 256 319.97H254.061C255.072 318.357 256.083 316.744 257.095 315.131C259.479 311.328 261.718 307.442 263.873 303.505C265.704 300.162 267.45 296.775 269.11 293.346C271.494 288.403 273.732 283.396 275.826 278.323C278.738 271.279 281.293 264.108 283.603 256.849C286.156 248.826 288.345 240.704 290.169 232.482C291.035 228.615 291.853 224.738 292.573 220.841C293.181 217.549 293.75 214.248 294.225 210.933C294.581 208.447 294.978 205.968 295.313 203.48C295.566 201.597 295.753 199.706 295.96 197.818C296.205 195.578 296.445 193.338 296.678 191.098C296.762 190.297 296.834 189.49 296.874 188.691C296.992 186.374 297.239 184.066 297.351 181.748C297.483 179.044 297.619 176.341 297.758 173.637C297.861 171.701 297.814 169.766 297.919 167.835C298.094 164.641 298.064 161.446 298.069 158.251C298.074 154.894 297.901 151.541 297.841 148.185C297.793 145.481 297.608 142.775 297.472 140.071C297.334 137.338 297.128 134.606 296.892 131.879C296.604 128.544 296.308 125.207 295.916 121.883C295.387 117.407 294.836 112.933 294.163 108.478C293.402 103.448 292.547 98.433 291.564 93.4389C290.193 86.4803 288.654 79.5626 286.873 72.6982C285.447 67.2035 283.89 61.7463 282.201 56.3266C279.236 46.7995 275.841 37.4291 272.015 28.2154C270.261 23.9817 268.444 19.7732 266.457 15.6407C265.338 13.313 264.271 10.9597 263.11 8.653C261.688 5.82666 260.193 3.037 258.73 0.231455L258.829 0.115965C259.333 0.0787952 259.839 0.105605 260.344 0.0997952C260.394 0.0936532 260.445 0.101655 260.491 0.122893C260.537 0.144132 260.576 0.177759 260.603 0.219965Z" fill="#5D4E47"/>
<path d="M264.921 319.97C264.969 319.715 265.069 319.473 265.217 319.261C271.657 307.505 278.096 295.749 284.535 283.993C285.288 282.619 285.211 282.893 286.292 283.555C287.173 284.095 288.033 284.673 288.934 285.178C289.202 285.321 289.432 285.526 289.606 285.775C289.78 286.024 289.893 286.31 289.936 286.611C290.682 290.247 291.458 293.878 292.225 297.51C293.765 304.805 295.306 312.101 296.846 319.397C296.886 319.585 296.897 319.779 296.921 319.97H290.133C289.948 319.812 289.798 319.617 289.692 319.398C289.587 319.179 289.528 318.94 289.52 318.697C288.472 313.097 287.273 307.527 286.172 301.937C285.861 300.359 285.559 298.778 285.213 297.207C285.175 297.038 285.238 296.792 284.937 296.807C283.281 299.549 281.841 302.402 280.292 305.195C277.741 309.795 275.252 314.429 272.707 319.033C272.546 319.423 272.264 319.751 271.903 319.97H264.921Z" fill="#5D4E47"/>
<path d="M320 143.027V161.632C319.81 161.784 319.591 161.895 319.356 161.958C319.121 162.021 318.876 162.035 318.636 161.998C314.763 161.945 310.887 162.162 307.018 161.813C305.775 161.7 305.512 161.481 305.479 160.209C305.337 154.82 305.756 149.438 305.689 144.048C305.674 142.857 306.131 142.46 307.305 142.525C311.016 142.73 314.729 142.625 318.442 142.658C318.713 142.613 318.99 142.622 319.258 142.686C319.526 142.749 319.778 142.865 320 143.027Z" fill="#E5E4E1"/>
<path d="M271.903 319.97C274.423 315.352 276.942 310.735 279.462 306.117C281.208 302.916 282.954 299.715 284.699 296.514C284.826 296.367 284.962 296.183 285.144 296.427C285.266 296.619 285.342 296.836 285.368 297.061C286.53 303.282 287.897 309.461 289.084 315.677C289.305 316.832 289.506 317.997 289.813 319.137C289.874 319.27 289.899 319.416 289.888 319.562C289.876 319.708 289.827 319.848 289.746 319.97H271.903Z" fill="#E9E9E9"/>
<path d="M320 75.3896V84.3046C319.55 84.6274 319.007 84.7924 318.453 84.7737C312.595 85.5182 306.745 86.325 300.882 87.0315C299.431 87.2063 299.192 87.0404 298.991 85.5708C298.711 83.526 298.43 81.4809 298.194 79.4304C298.052 78.1912 298.36 77.7776 299.611 77.6139C306.011 76.7771 312.408 75.9224 318.814 75.1407C319.017 75.0864 319.231 75.0806 319.437 75.1239C319.642 75.1671 319.835 75.2581 320 75.3896Z" fill="#E5E4E1"/>
<path d="M320 220.355V229.657C319.575 229.826 319.102 229.825 318.677 229.656C312.414 228.225 306.136 226.861 299.878 225.408C298.533 225.096 298.37 224.856 298.657 223.541C299.127 221.398 299.596 219.255 300.091 217.118C300.37 215.914 300.647 215.75 301.864 216.024C307.407 217.272 312.951 218.514 318.497 219.75C319.048 219.794 319.572 220.005 320 220.355Z" fill="#E5E4E1"/>
<path d="M320 183.338V192.253C319.823 192.367 319.623 192.442 319.415 192.472C319.206 192.502 318.994 192.487 318.791 192.428C314.162 191.976 309.537 191.493 304.914 190.979C303.559 190.828 303.357 190.491 303.483 189.126C303.678 187.005 303.914 184.888 304.133 182.769C304.26 181.545 304.506 181.295 305.731 181.415C310.103 181.842 314.473 182.283 318.838 182.775C319.289 182.826 319.752 182.864 320 183.338Z" fill="#E5E4E1"/>
<path d="M320 112.018V120.546C319.164 120.977 318.218 121.149 317.284 121.042C313.16 121.284 309.05 121.714 304.924 121.925C303.861 121.98 303.453 121.696 303.389 120.67C303.26 118.578 303.024 116.492 302.962 114.397C302.926 113.161 303.104 112.923 304.348 112.76C306.492 112.48 308.66 112.458 310.813 112.257C313.222 112.032 315.641 111.932 318.052 111.713C318.38 111.623 318.723 111.603 319.059 111.656C319.395 111.709 319.716 111.832 320 112.018Z" fill="#E5E4E1"/>
<path d="M320 220.355C318.364 220.159 316.782 219.697 315.179 219.345C310.581 218.337 305.992 217.287 301.399 216.258C300.677 216.096 300.639 216.109 300.479 216.81C299.936 219.198 299.402 221.587 298.878 223.979C298.697 224.813 298.742 224.837 299.539 225.015C303.314 225.859 307.088 226.706 310.862 227.557C313.756 228.206 316.65 228.852 319.544 229.496C319.699 229.541 319.851 229.594 320 229.657V231.208C316.727 230.486 313.452 229.771 310.181 229.041C306.217 228.155 302.255 227.262 298.295 226.361C298.073 226.32 297.855 226.262 297.643 226.186C297.043 225.944 296.883 225.608 297.046 224.856C297.386 223.282 297.747 221.712 298.098 220.14C298.435 218.631 298.765 217.12 299.107 215.613C299.379 214.412 299.666 214.228 300.857 214.494C307.085 215.881 313.311 217.271 319.538 218.663C319.694 218.698 319.846 218.756 320 218.804V220.355Z" fill="#5D4E47"/>
<path d="M320 75.3896C318.582 75.4473 317.185 75.6921 315.78 75.8647C313.992 76.0845 312.206 76.3246 310.419 76.5552C308.728 76.7736 307.036 76.9916 305.344 77.2091C303.525 77.4439 301.705 77.6712 299.888 77.9168C298.241 78.1393 298.367 78.0737 298.559 79.6214C298.781 81.4084 299.017 83.1935 299.25 84.9791C299.308 85.4257 299.397 85.8694 299.433 86.3175C299.467 86.752 299.711 86.8594 300.086 86.816C300.661 86.7492 301.236 86.6828 301.81 86.6063C305.541 86.1088 309.272 85.6103 313.003 85.1107C315.012 84.8442 317.022 84.5859 319.033 84.3357C319.352 84.296 319.678 84.3135 320 84.3045V85.8549C318.11 86.0803 316.219 86.2926 314.331 86.5335C309.338 87.171 304.345 87.8142 299.354 88.4633C298.425 88.5822 298.096 88.3194 297.957 87.3201C297.735 85.7239 297.546 84.1231 297.338 82.5248C297.159 81.1508 296.974 79.7778 296.793 78.4041C296.771 78.2442 296.756 78.0833 296.744 77.9224C296.681 77.0314 296.949 76.6972 297.86 76.5772C299.426 76.3708 300.995 76.182 302.562 75.9781C306.878 75.4162 311.194 74.8525 315.51 74.2871C316.725 74.1291 317.942 73.9859 319.158 73.8331C319.45 73.8386 319.738 73.7743 320 73.6454V75.3896Z" fill="#5D4E47"/>
<path d="M320 143.027C316.483 143.017 312.964 143.043 309.448 142.969C308.624 142.952 307.789 142.971 306.957 142.876C306.154 142.784 306.056 142.935 306.049 143.819C306.031 146.302 306.125 148.792 305.98 151.268C305.811 154.169 305.915 157.068 305.83 159.966C305.822 160.224 305.819 160.483 305.829 160.74C305.854 161.415 305.866 161.415 306.553 161.461C308.903 161.619 311.257 161.624 313.611 161.628C315.741 161.631 317.87 161.632 320 161.632V163.183C315.129 163.217 310.26 163.074 305.39 162.987C304.531 162.972 304.271 162.728 304.278 161.892C304.307 158.766 304.358 155.639 304.401 152.512C304.442 149.58 304.483 146.647 304.525 143.715C304.531 143.296 304.514 142.875 304.544 142.458C304.6 141.645 304.876 141.352 305.683 141.318C306.326 141.291 306.972 141.332 307.617 141.351C311.744 141.47 315.871 141.521 320 141.477L320 143.027Z" fill="#5D4E47"/>
<path d="M320 183.338C319.327 183.112 318.62 183.002 317.91 183.014C315.704 182.737 313.484 182.577 311.271 182.351C309.284 182.149 307.299 181.922 305.313 181.701C304.674 181.629 304.567 181.693 304.506 182.312C304.294 184.46 304.093 186.608 303.881 188.756C303.843 189.14 303.767 189.52 303.721 189.904C303.675 190.289 303.821 190.498 304.242 190.541C305.171 190.636 306.095 190.781 307.024 190.883C309.394 191.143 311.764 191.396 314.136 191.642C315.675 191.799 317.217 191.928 318.756 192.079C319.173 192.12 319.586 192.194 320 192.253V193.804C317.946 193.598 315.892 193.401 313.839 193.184C310.342 192.815 306.849 192.404 303.348 192.075C302.295 191.976 301.926 191.476 302.038 190.505C302.369 187.625 302.679 184.742 302.968 181.857C303.157 179.988 303.225 179.881 305.092 180.066C308.46 180.401 311.822 180.788 315.187 181.14C316.79 181.307 318.396 181.444 320 181.594L320 183.338Z" fill="#5D4E47"/>
<path d="M320 112.019C318.224 112.006 316.461 112.205 314.696 112.365C313.733 112.452 312.767 112.464 311.802 112.558C309.654 112.768 307.493 112.854 305.339 113.009C304.7 112.948 304.055 113.047 303.462 113.296C302.949 113.673 303.318 114.496 303.345 115.11C303.429 117.04 303.588 118.967 303.739 120.894C303.795 121.608 303.962 121.728 304.668 121.609C305.657 121.442 306.66 121.48 307.655 121.377C309.866 121.149 312.093 121.086 314.311 120.917C316.206 120.772 318.096 120.553 320 120.546V121.902C318.344 122.19 316.664 122.2 314.995 122.33C311.234 122.624 307.47 122.882 303.707 123.151C302.713 123.223 302.414 122.966 302.341 122.007C302.114 119.021 301.885 116.035 301.655 113.05C301.584 112.118 301.891 111.738 302.837 111.668C305.055 111.506 307.275 111.371 309.493 111.207C312.481 110.985 315.467 110.741 318.455 110.516C318.968 110.477 319.485 110.483 320 110.468L320 112.019Z" fill="#5D4E47"/>
<path d="M320 315.125C319.762 315.005 319.785 314.708 319.609 314.546C319.282 313.985 318.896 313.462 318.456 312.985C317.835 312.286 317.117 311.68 316.324 311.185C315.78 310.89 315.996 310.51 316.206 310.126C317.165 308.373 318.11 306.613 319.084 304.869C319.321 304.31 319.629 303.783 320 303.302V315.125Z" fill="#5E4F47"/>
<path d="M289.746 319.97C289.599 318.656 289.364 317.353 289.041 316.071C287.79 309.806 286.527 303.545 285.251 297.285C285.208 297.031 285.139 296.782 285.045 296.542C284.986 296.406 284.82 296.492 284.699 296.514C284.699 296.261 284.801 296.041 285.062 296.032C285.307 296.023 285.322 296.289 285.359 296.465C285.664 297.91 285.961 299.356 286.252 300.804C287.187 305.431 288.121 310.058 289.054 314.685C289.41 316.447 289.77 318.209 290.134 319.97L289.746 319.97Z" fill="#8E857D"/>
<path d="M198.4 0C198.398 0.06274 198.394 0.125427 198.39 0.18806C197.753 0.199987 197.117 0.211937 196.48 0.22391L196.461 0H198.4Z" fill="#CAC5C2"/>
<path d="M260.46 0C260.465 0.058 260.468 0.116063 260.469 0.17419C259.887 0.180243 259.304 0.1863 258.721 0.19236C258.716 0.1283 258.714 0.06418 258.715 0H260.46Z" fill="#C9C4C1"/>
<path d="M167.383 289.427C164.08 289.418 160.811 288.755 157.764 287.476C154.718 286.197 151.956 284.328 149.636 281.976C147.316 279.625 145.484 276.837 144.247 273.774C143.01 270.71 142.391 267.433 142.427 264.129C142.424 260.795 143.077 257.492 144.351 254.41C145.624 251.329 147.492 248.528 149.848 246.168C152.204 243.809 155.002 241.937 158.082 240.659C161.162 239.381 164.463 238.723 167.798 238.721C171.092 238.735 174.352 239.398 177.39 240.672C180.428 241.947 183.185 243.808 185.503 246.149C187.821 248.49 189.654 251.266 190.898 254.316C192.143 257.367 192.773 260.633 192.753 263.927C192.774 267.271 192.134 270.586 190.868 273.68C189.602 276.775 187.736 279.589 185.377 281.959C183.019 284.33 180.215 286.21 177.127 287.491C174.038 288.773 170.727 289.431 167.383 289.427Z" fill="#5D4E47"/>
<path d="M192.92 311.264C192.921 311.374 192.897 311.484 192.848 311.584C192.799 311.684 192.728 311.771 192.64 311.838C192.552 311.905 192.449 311.951 192.34 311.972C192.231 311.993 192.119 311.988 192.012 311.957C191.742 311.851 191.489 311.705 191.261 311.525C187.734 309.02 184.21 306.51 180.689 303.997C180.452 303.83 180.229 303.644 180.023 303.44C179.902 303.329 179.828 303.176 179.815 303.012C179.803 302.848 179.853 302.686 179.956 302.557C180.04 302.437 180.161 302.348 180.3 302.303C180.439 302.258 180.59 302.259 180.728 302.307C180.978 302.376 181.209 302.5 181.406 302.669C185.035 305.252 188.664 307.835 192.293 310.419C192.456 310.502 192.597 310.621 192.706 310.768C192.815 310.914 192.888 311.084 192.92 311.264Z" fill="#5E4F48"/>
<path d="M229.788 235.14C229.638 235.099 229.419 235.047 229.204 234.98C225.058 233.683 220.912 232.384 216.767 231.082C216.519 231.016 216.281 230.914 216.062 230.779C215.916 230.705 215.804 230.577 215.749 230.422C215.695 230.267 215.702 230.098 215.768 229.948C215.823 229.794 215.93 229.663 216.069 229.578C216.209 229.493 216.374 229.459 216.536 229.481C216.726 229.51 216.914 229.556 217.095 229.62C221.304 230.934 225.513 232.249 229.72 233.566C229.906 233.62 230.086 233.691 230.258 233.779C230.408 233.844 230.53 233.96 230.602 234.106C230.674 234.252 230.692 234.419 230.653 234.578C230.56 234.978 230.261 235.145 229.788 235.14Z" fill="#5E4F48"/>
<path d="M208.085 286.841C208.092 286.955 208.071 287.069 208.024 287.173C207.978 287.278 207.907 287.369 207.817 287.44C207.728 287.512 207.623 287.56 207.511 287.583C207.399 287.605 207.283 287.6 207.173 287.568C206.929 287.486 206.696 287.374 206.48 287.234C202.703 285.083 198.927 282.93 195.153 280.775C194.921 280.662 194.704 280.522 194.505 280.357C194.374 280.26 194.281 280.121 194.242 279.962C194.204 279.804 194.222 279.637 194.294 279.491C194.368 279.328 194.501 279.198 194.666 279.128C194.831 279.058 195.017 279.052 195.186 279.113C195.34 279.159 195.486 279.227 195.62 279.316C199.564 281.565 203.508 283.814 207.451 286.064C207.611 286.135 207.751 286.242 207.861 286.377C207.971 286.512 208.048 286.671 208.085 286.841Z" fill="#5E4E47"/>
<path d="M207.362 255.305C207.549 255.372 207.797 255.445 208.032 255.545C211.887 257.187 215.74 258.832 219.592 260.481C219.83 260.578 220.055 260.705 220.26 260.859C220.373 260.952 220.453 261.078 220.489 261.22C220.524 261.362 220.513 261.511 220.458 261.646C220.402 261.781 220.305 261.895 220.18 261.971C220.055 262.046 219.909 262.08 219.764 262.067C219.476 262.03 219.196 261.95 218.933 261.83C215.106 260.202 211.283 258.568 207.462 256.928C207.224 256.83 207.001 256.699 206.798 256.541C206.676 256.457 206.59 256.331 206.554 256.188C206.518 256.044 206.536 255.892 206.604 255.761C206.674 255.621 206.782 255.504 206.917 255.423C207.051 255.342 207.205 255.301 207.362 255.305Z" fill="#5E4E47"/>
<path d="M235.428 207.563C234.997 207.465 234.402 207.326 233.806 207.194C230.284 206.418 226.763 205.642 223.241 204.866C223.02 204.826 222.804 204.765 222.595 204.683C222.439 204.634 222.306 204.529 222.22 204.39C222.134 204.25 222.102 204.084 222.13 203.922C222.152 203.742 222.243 203.579 222.384 203.465C222.524 203.352 222.704 203.298 222.884 203.315C223.076 203.322 223.267 203.348 223.455 203.392C227.481 204.272 231.506 205.154 235.531 206.038C235.657 206.066 235.779 206.109 235.903 206.145C236.097 206.175 236.273 206.278 236.393 206.433C236.514 206.588 236.57 206.784 236.551 206.979C236.519 207.391 236.181 207.586 235.428 207.563Z" fill="#5E4F48"/>
<path d="M213.816 72.334C213.406 72.3387 213.1 72.2587 212.972 71.8949C212.907 71.7261 212.909 71.5389 212.978 71.3717C213.047 71.2045 213.177 71.0699 213.342 70.9956C213.541 70.889 213.751 70.8045 213.968 70.7434C217.734 69.4985 221.502 68.2561 225.27 67.0162C225.511 66.9263 225.762 66.8681 226.018 66.8431C226.165 66.8255 226.314 66.8602 226.437 66.9413C226.561 67.0224 226.652 67.1445 226.695 67.2862C226.757 67.4381 226.763 67.6075 226.711 67.7633C226.658 67.9191 226.552 68.0508 226.41 68.1344C226.186 68.2609 225.948 68.3593 225.699 68.4274C221.935 69.6737 218.17 70.9175 214.405 72.1589C214.191 72.2294 213.973 72.2875 213.816 72.334Z" fill="#5E4F48"/>
<path d="M221.494 98.1542C221.006 98.1482 220.675 97.9215 220.632 97.533C220.615 97.4368 220.618 97.3381 220.641 97.2433C220.665 97.1484 220.708 97.0595 220.767 96.9821C220.827 96.9047 220.902 96.8405 220.987 96.7937C221.073 96.7468 221.168 96.7183 221.265 96.71C222.56 96.4465 223.857 96.1951 225.156 95.9559C227.881 95.4575 230.609 94.9752 233.334 94.4747C233.614 94.3978 233.906 94.3785 234.194 94.418C234.339 94.4436 234.472 94.514 234.574 94.6193C234.677 94.7247 234.744 94.8596 234.765 95.005C234.795 95.1488 234.774 95.2985 234.707 95.4291C234.64 95.5596 234.53 95.6631 234.395 95.7224C234.193 95.8213 233.977 95.8903 233.755 95.9272C229.857 96.6437 225.958 97.3564 222.059 98.0652C221.868 98.0999 221.676 98.1257 221.494 98.1542Z" fill="#5E4F48"/>
<path d="M216.205 41.2361C216.202 41.4111 216.146 41.5811 216.046 41.7244C215.945 41.8677 215.804 41.9778 215.641 42.0406C214.971 42.3613 214.302 42.6813 213.634 43.0061C210.762 44.4038 207.89 45.8017 205.017 47.1997C204.73 47.3454 204.431 47.4667 204.123 47.5622C203.969 47.6218 203.798 47.6205 203.646 47.5585C203.493 47.4965 203.37 47.3785 203.301 47.2287C203.214 47.0697 203.191 46.8835 203.237 46.7083C203.283 46.5331 203.395 46.3822 203.549 46.2866C203.681 46.1947 203.821 46.1143 203.968 46.0465C207.594 44.2813 211.222 42.5179 214.851 40.7564C215.022 40.6644 215.205 40.5977 215.395 40.5584C215.493 40.5482 215.592 40.5578 215.686 40.5866C215.781 40.6154 215.868 40.6628 215.944 40.726C216.019 40.7892 216.081 40.8669 216.126 40.9545C216.171 41.0421 216.198 41.1379 216.205 41.2361Z" fill="#5E4F48"/>
<path d="M202.117 15.6318C202.245 15.636 202.368 15.6765 202.474 15.7486C202.579 15.8206 202.661 15.9212 202.711 16.0385C202.781 16.1674 202.803 16.3168 202.774 16.4605C202.744 16.6041 202.665 16.7327 202.55 16.8235C202.387 16.979 202.205 17.1125 202.007 17.2208C198.818 19.1612 195.626 21.0988 192.433 23.0335C192.214 23.167 191.982 23.2803 191.742 23.3717C191.588 23.4283 191.419 23.4245 191.268 23.3609C191.117 23.2974 190.996 23.1788 190.929 23.0293C190.849 22.9059 190.815 22.7586 190.831 22.6126C190.848 22.4666 190.915 22.331 191.021 22.2288C191.221 22.0187 191.455 21.8437 191.713 21.711C194.823 19.8259 197.934 17.9415 201.045 16.058C201.353 15.8146 201.726 15.6665 202.117 15.6318Z" fill="#5E4F48"/>
<path d="M240.341 179.656C238.501 179.491 236.834 179.346 235.167 179.189C233.469 179.03 231.772 178.861 230.074 178.692C229.883 178.683 229.693 178.651 229.509 178.596C229.352 178.552 229.216 178.452 229.126 178.316C229.036 178.179 228.999 178.015 229.021 177.853C229.032 177.691 229.098 177.537 229.21 177.418C229.321 177.298 229.47 177.222 229.632 177.2C229.789 177.171 229.951 177.168 230.109 177.191C233.44 177.497 236.771 177.806 240.102 178.116C240.166 178.122 240.232 178.117 240.295 178.127C240.927 178.227 241.28 178.575 241.214 179.027C241.173 179.222 241.061 179.395 240.9 179.511C240.738 179.628 240.538 179.68 240.341 179.656Z" fill="#5E4F48"/>
<path d="M293.396 248.099C293.608 248.169 293.886 248.251 294.158 248.35C302.218 251.307 310.278 254.265 318.336 257.224C318.427 257.258 318.514 257.302 318.604 257.337C319.769 257.783 319.896 258.041 319.464 259.224C318.415 262.104 317.361 264.982 316.3 267.858C316.255 267.979 316.212 268.101 316.159 268.218C315.826 268.961 315.486 269.131 314.702 268.856C313.24 268.343 311.789 267.8 310.335 267.266C303.607 264.799 296.88 262.331 290.153 259.863C288.598 259.292 288.512 259.107 289.092 257.517C290.121 254.698 291.155 251.882 292.195 249.067C292.488 248.277 292.778 248.046 293.396 248.099Z" fill="#5D4E47"/>
<path d="M315.876 46.1597C315.908 46.4034 315.847 46.6501 315.703 46.8499C315.56 47.0497 315.346 47.1875 315.105 47.2354C314.274 47.4967 313.439 47.7477 312.604 47.9976C305.339 50.1721 298.074 52.3459 290.809 54.5189C290.592 54.5837 290.377 54.6514 290.158 54.71C289.267 54.9494 288.922 54.7764 288.631 53.8903C288.389 53.1552 288.19 52.4064 287.968 51.6649C287.311 49.4711 286.645 47.2799 285.997 45.0836C285.656 43.9289 285.807 43.6441 286.929 43.3075C295.057 40.8692 303.187 38.4346 311.318 36.0037C312.503 35.6494 312.795 35.804 313.152 36.9837C314.012 39.8233 314.864 42.6652 315.709 45.5095C315.783 45.7557 315.837 46.0075 315.876 46.1597Z" fill="#5D4E47"/>
<path d="M276.924 22.2952C276.745 22.3055 276.567 22.2579 276.417 22.1595C276.266 22.0611 276.152 21.917 276.089 21.7486C275.923 21.3994 275.773 21.0426 275.622 20.6866C274.539 18.1344 273.449 15.5851 272.379 13.0273C271.946 11.9914 272.083 11.7011 273.136 11.2546C280.854 7.98273 288.574 4.71245 296.294 1.44378C296.498 1.34825 296.709 1.26796 296.926 1.20355C297.127 1.13537 297.347 1.14105 297.545 1.21957C297.743 1.29809 297.906 1.44435 298.006 1.63225C298.102 1.80007 298.186 1.97442 298.258 2.15401C299.417 4.88419 300.573 7.61526 301.728 10.3472C302.206 11.4866 302.084 11.7561 300.913 12.2524C293.253 15.4992 285.593 18.7436 277.931 21.9855C277.624 22.1653 277.279 22.2713 276.924 22.2952Z" fill="#5D4E47"/>
<path d="M318.456 312.985C318.749 313.146 319.004 313.37 319.203 313.639C319.402 313.909 319.54 314.218 319.609 314.546C319.093 314.137 318.695 313.598 318.456 312.985Z" fill="#A5A39C"/>
<path d="M165.235 203.52C160.323 203.52 155.408 203.435 150.498 203.537C139.092 203.775 127.685 203.623 116.279 203.731C115.866 203.747 115.453 203.676 115.068 203.525C114.683 203.373 114.333 203.144 114.04 202.851C112.545 201.47 111.065 200.075 109.657 198.606C105.632 194.41 102.08 189.784 99.0653 184.812C95.6999 179.256 93.0554 173.294 91.1953 167.07C90.096 163.462 89.2955 159.769 88.802 156.029C88.526 153.889 88.3466 151.742 88.1855 149.59C88.0178 147.337 87.986 145.076 88.09 142.819C88.7809 126.211 94.859 110.279 105.406 97.431C105.924 96.7994 106.624 96.2658 106.734 95.3401C106.767 95.0676 107.148 94.9534 107.397 94.8132C110.184 93.2467 112.973 91.6848 115.765 90.1275C116.498 89.7179 117.246 89.334 117.964 88.9004C118.32 88.6825 118.731 88.5717 119.148 88.5812C125.289 88.5763 131.433 88.6654 137.57 88.5056C144.42 88.3273 151.271 88.5183 158.116 88.3179C164.901 88.1193 171.688 88.3246 178.469 88.1254C185.383 87.9223 192.298 88.1058 199.209 87.9269C202.018 87.8541 204.827 87.8415 207.636 87.7961C207.858 87.7805 208.081 87.8108 208.291 87.8851C208.501 87.9594 208.694 88.0761 208.857 88.228C213.887 92.786 218.299 97.9832 221.979 103.687C227.05 111.466 230.643 120.115 232.575 129.198C233.188 132.129 233.64 135.092 233.931 138.072C234.261 141.249 234.363 144.445 234.237 147.636C234.135 150.178 233.905 152.713 233.547 155.231C233.041 158.805 232.293 162.34 231.306 165.812C229.863 170.808 227.905 175.641 225.464 180.233C223.088 184.713 220.285 188.952 217.092 192.892C214.733 195.76 212.194 198.475 209.489 201.02C208.931 201.556 208.315 202.032 207.767 202.578C207.533 202.819 207.249 203.008 206.936 203.132C206.623 203.255 206.287 203.311 205.95 203.295C199.26 203.285 192.568 203.223 185.879 203.345C178.998 203.472 172.117 203.44 165.235 203.52Z" fill="#E5E4E1"/>
<path d="M144.312 38.3045C144.309 33.7885 145.898 29.416 148.798 25.9546C151.699 22.4931 155.726 20.164 160.172 19.3761C163.131 18.7846 166.186 18.8848 169.1 19.6686C172.014 20.4524 174.707 21.8988 176.969 23.8949C179.725 26.224 181.757 29.2923 182.827 32.7381C183.082 33.5264 183.074 33.5359 182.329 33.7102C170.146 36.5619 157.962 39.4128 145.777 42.2628C145.62 42.2995 145.464 42.3396 145.31 42.3873C144.892 42.5168 144.737 42.3395 144.674 41.9308C144.446 40.7351 144.325 39.5216 144.312 38.3045Z" fill="#E9E9E9"/>
<path d="M140.756 38.203C140.713 35.029 141.371 31.8846 142.682 28.9939C143.994 26.1032 145.927 23.5372 148.343 21.479C151.692 18.4892 155.877 16.5966 160.333 16.0557C164.935 15.4001 169.627 16.1395 173.804 18.1785C176.628 19.5503 179.142 21.4858 181.19 23.8657C183.239 26.2455 184.778 29.0195 185.714 32.0166C185.959 32.8204 185.964 32.8191 185.473 32.9756C184.49 33.289 184.345 33.2379 184.107 32.4149C183.554 30.5222 182.703 28.7302 181.584 27.1067C180.01 24.7303 177.968 22.7001 175.583 21.1404C173.197 19.5807 170.519 18.5243 167.711 18.0358C162.31 17.0079 156.721 18.1499 152.157 21.2143C147.592 24.2786 144.419 29.0184 143.325 34.4063C142.814 36.9078 142.811 39.4863 143.316 41.9889C143.479 42.83 143.46 42.8334 142.684 43.028C141.236 43.3907 141.255 43.3875 141.002 41.8735C140.816 40.6591 140.734 39.4312 140.756 38.203Z" fill="#E5E4E1"/>
<path d="M186.502 39.7465C186.374 51.8315 174.769 61.6495 163.164 60.748C163.655 60.1454 164.216 59.6031 164.835 59.1327C165.084 58.9781 165.374 58.9042 165.666 58.9212C170.215 58.6574 174.544 56.8807 177.967 53.8736C181.531 50.8734 183.913 46.7055 184.689 42.1127C184.796 41.6083 185.015 41.134 185.328 40.7247C185.642 40.3153 186.043 39.9811 186.502 39.7465Z" fill="#E5E4E1"/>
<path d="M183.076 42.8451C181.77 50.2135 174.43 56.708 167.052 57.3258C167.396 56.7675 181.883 43.6562 183.076 42.8451Z" fill="#E9E9E9"/>
<path d="M191.044 263.964C191.03 270.233 188.546 276.243 184.131 280.693C180.604 284.348 175.958 286.723 170.929 287.441C167.9 287.892 164.812 287.741 161.842 286.997C158.872 286.253 156.077 284.931 153.619 283.106C151.16 281.281 149.086 278.989 147.514 276.361C145.942 273.733 144.904 270.821 144.458 267.792C143.925 264.565 144.081 261.263 144.916 258.101C145.75 254.939 147.245 251.989 149.3 249.446C152.779 244.908 157.841 241.849 163.476 240.88C166.383 240.3 169.376 240.3 172.283 240.882C175.19 241.463 177.953 242.613 180.414 244.267C183.103 245.986 185.403 248.251 187.163 250.914C188.923 253.577 190.106 256.58 190.634 259.729C190.922 261.122 191.059 262.542 191.044 263.964Z" fill="#E5E4E1"/>
<path d="M317.835 259.079C317.774 259.238 317.702 259.417 317.635 259.598C316.822 261.806 316.01 264.015 315.198 266.223C314.843 267.193 314.841 267.215 313.9 266.872C309.687 265.338 305.477 263.798 301.27 262.25C297.94 261.027 294.611 259.799 291.284 258.567C290.53 258.288 290.534 258.277 290.797 257.557C291.615 255.316 292.434 253.075 293.254 250.835C293.592 249.914 293.639 249.884 294.588 250.232C299.343 251.974 304.096 253.72 308.848 255.472C311.602 256.485 314.357 257.498 317.112 258.511C317.401 258.618 317.767 258.635 317.835 259.079Z" fill="#E5E4E1"/>
<path d="M290.303 53.0556C289.92 53.0304 289.914 52.7181 289.844 52.4917C289.417 51.1065 289.007 49.7162 288.593 48.3269C288.308 47.3699 288.021 46.4132 287.746 45.4535C287.564 44.8193 287.595 44.7607 288.23 44.5705C294.097 42.813 299.965 41.0572 305.834 39.303C307.532 38.7942 309.227 38.2712 310.926 37.7617C311.641 37.5471 311.66 37.5614 311.872 38.257C312.565 40.5381 313.256 42.8198 313.945 45.1021C314.181 45.8853 314.163 45.9029 313.434 46.1216C307.105 48.02 300.776 49.9188 294.447 51.8179C293.212 52.1884 291.977 52.5576 290.741 52.9255C290.587 52.9716 290.433 53.017 290.303 53.0556Z" fill="#E5E4E1"/>
<path d="M300.115 10.6615C300.098 11.0168 299.798 11.0521 299.577 11.1466C297.827 11.8925 296.072 12.6258 294.32 13.3678C289.778 15.2919 285.236 17.2172 280.695 19.1436C279.745 19.5461 278.79 19.9357 277.843 20.3457C277.451 20.5156 277.228 20.4883 277.039 20.0291C276.106 17.7646 275.128 15.5187 274.179 13.2611C273.944 12.7041 273.999 12.5917 274.622 12.328C276.73 11.4358 278.847 10.5636 280.955 9.67179C285.439 7.77496 289.921 5.87402 294.402 3.96897C294.996 3.71697 295.583 3.44987 296.18 3.20581C296.854 2.93007 296.879 2.93801 297.172 3.62681C297.942 5.43581 298.7 7.24961 299.466 9.06028C299.629 9.44628 299.809 9.82504 299.972 10.2112C300.035 10.3589 300.07 10.5178 300.115 10.6615Z" fill="#E5E4E1"/>
<path d="M155.669 198.483C151.229 198.483 146.637 198.389 142.05 198.507C136.073 198.661 130.097 198.574 124.121 198.647C122.829 198.662 121.536 198.639 120.244 198.67C120.003 198.68 119.763 198.643 119.537 198.56C119.31 198.477 119.103 198.35 118.926 198.186C113.306 193.309 108.471 187.597 104.589 181.249C100.647 174.826 97.7804 167.802 96.1025 160.455C95.5144 157.912 95.0799 155.336 94.8013 152.742C94.605 150.816 94.5142 148.889 94.3983 146.959C94.2721 144.857 94.4224 142.769 94.4974 140.68C94.6079 138.751 94.8173 136.83 95.1248 134.922C95.6391 131.315 96.4626 127.758 97.586 124.292C98.7866 120.506 100.312 116.83 102.144 113.306C104.507 108.745 107.367 104.46 110.671 100.527C112.924 97.7753 115.584 95.382 118.557 93.4297C119.385 92.8744 120.363 92.5856 121.36 92.6022C125.723 92.6481 130.089 92.7157 134.449 92.5831C141.169 92.3787 147.891 92.5872 154.607 92.3919C161.134 92.2021 167.662 92.3933 174.184 92.1999C180.969 91.9986 187.754 92.1658 194.537 92.0122C197.216 91.9515 199.897 91.9505 202.575 91.8549C203.104 91.8313 203.633 91.9218 204.124 92.1204C204.616 92.3189 205.059 92.6207 205.424 93.0055C207.534 95.0031 209.539 97.11 211.429 99.3175C213.33 101.556 215.096 103.907 216.716 106.356C219.695 110.893 222.144 115.757 224.015 120.851C225.604 125.183 226.753 129.662 227.447 134.223C227.821 136.481 228.044 138.761 228.113 141.048C228.133 142.141 228.265 143.234 228.249 144.332C228.216 148.006 227.918 151.673 227.356 155.304C225.579 166.445 221.121 176.988 214.365 186.025C211.525 189.791 208.352 193.294 204.883 196.49C204.438 196.91 203.964 197.301 203.496 197.696C202.909 198.109 202.193 198.297 201.479 198.225C199.378 198.244 197.277 198.241 195.176 198.246C187.872 198.262 180.565 198.173 173.263 198.326C167.447 198.447 161.632 198.337 155.669 198.483Z" fill="#5D4E47"/>
<path d="M167.644 242.615C170.452 242.609 173.234 243.161 175.826 244.241C178.419 245.321 180.77 246.906 182.743 248.904C184.717 250.902 186.272 253.274 187.32 255.879C188.367 258.485 188.885 261.273 188.843 264.081C188.853 266.916 188.302 269.725 187.222 272.346C186.141 274.966 184.552 277.347 182.547 279.351C180.542 281.355 178.16 282.942 175.538 284.021C172.917 285.1 170.108 285.65 167.273 285.638C161.591 285.554 156.173 283.225 152.202 279.16C148.231 275.096 146.03 269.625 146.079 263.942C146.128 258.26 148.423 252.828 152.464 248.832C156.504 244.836 161.961 242.601 167.644 242.615Z" fill="#5D4E47"/>
<path d="M145.898 125.357C148.224 125.306 150.549 125.239 152.875 125.207C160.209 125.108 167.542 125.001 174.874 124.828C178.266 124.747 181.659 124.734 185.051 124.683C187.506 124.645 189.961 124.592 192.416 124.55C193.581 124.53 193.777 124.709 193.774 125.885C193.76 130.212 193.819 134.542 193.686 138.865C193.575 142.449 193.617 146.032 193.556 149.615C193.46 155.264 193.437 160.914 193.391 166.564C193.362 170.019 193.395 173.476 193.307 176.929C193.26 178.768 193.246 180.607 193.19 182.445C193.218 182.769 193.17 183.094 193.049 183.396C192.928 183.697 192.737 183.965 192.493 184.179C192.006 184.505 191.426 184.663 190.841 184.63C188.999 184.658 187.158 184.688 185.316 184.7C182.828 184.716 180.338 184.673 177.851 184.73C170.776 184.892 163.699 184.817 156.624 184.935C149.968 185.045 143.312 185.014 136.657 185.123C129.516 185.24 122.376 185.238 115.236 185.322C113.46 185.343 111.684 185.376 109.907 185.421C109.657 185.448 109.405 185.403 109.179 185.292C108.953 185.18 108.764 185.008 108.632 184.793C106.293 181.504 104.233 178.024 102.475 174.391C98.7741 166.733 96.5605 158.441 95.9513 149.957C95.7654 147.479 95.722 144.991 95.8215 142.507C96.0321 137.187 96.8629 131.909 98.2972 126.781C98.4409 126.262 98.7041 126.153 99.1867 126.145C101.609 126.107 104.031 126.013 106.454 125.984C113.949 125.894 121.444 125.766 128.938 125.601C132.297 125.523 135.657 125.494 139.018 125.464C141.311 125.444 143.605 125.46 145.898 125.46L145.898 125.357Z" fill="#E9E9E9"/>
<path d="M99.1238 124.549C99.0714 124.227 99.1321 123.896 99.2956 123.614C101.975 115.569 106.149 108.102 111.598 101.606C113.906 98.7679 116.674 96.3386 119.788 94.4199C120.143 94.2013 120.552 94.0864 120.969 94.0884C128.657 94.0093 136.344 93.919 144.031 93.8175C144.224 93.8152 144.418 93.8104 144.612 93.8088C150.686 93.7605 156.76 93.7122 162.833 93.6639C173.721 93.5753 184.609 93.4852 195.496 93.3937C197.693 93.3747 199.89 93.3292 202.086 93.2967C202.28 93.2938 202.474 93.3039 202.668 93.2945C203.068 93.2751 203.185 93.4371 203.058 93.8223C202.717 94.8637 202.394 95.9114 202.059 96.9549C199.345 105.394 196.629 113.832 193.91 122.27C193.62 123.168 193.857 123.06 192.791 123.073C187.398 123.144 182.003 123.173 176.611 123.304C173.026 123.392 169.44 123.39 165.857 123.487C161.788 123.597 157.718 123.579 153.65 123.691C149.937 123.793 146.222 123.77 142.51 123.879C138.57 123.993 134.628 123.964 130.69 124.078C126.912 124.186 123.132 124.159 119.355 124.269C115.48 124.381 111.603 124.348 107.729 124.47C105.211 124.549 102.692 124.518 100.175 124.618C99.8236 124.671 99.4652 124.647 99.1238 124.549Z" fill="#E9E9E9"/>
<path d="M204.545 94.1448C205.243 94.8052 205.863 95.3597 206.448 95.9495C212.792 102.287 217.865 109.78 221.392 118.025C223.725 123.524 225.331 129.304 226.169 135.219C226.804 139.76 226.971 144.355 226.667 148.93C226.218 156.025 224.628 163.001 221.957 169.589C218.927 177.122 214.601 184.066 209.175 190.106C207.72 191.751 206.176 193.316 204.551 194.792C204 195.288 203.973 195.272 203.492 194.725C200.53 191.356 197.569 187.987 194.609 184.617C194.513 184.534 194.445 184.423 194.415 184.3C194.385 184.177 194.394 184.047 194.441 183.929C194.696 183.028 194.798 182.09 194.743 181.155C194.811 173.117 194.886 165.078 194.969 157.04C195.041 150.842 195.034 144.642 195.157 138.446C195.231 134.701 195.223 130.957 195.289 127.213C195.413 126.217 195.317 125.206 195.008 124.252C194.858 123.907 195.067 123.617 195.159 123.326C196.162 120.161 197.187 117.002 198.203 113.841C200.206 107.61 202.209 101.38 204.211 95.1495C204.3 94.8736 204.394 94.5995 204.545 94.1448Z" fill="#E9E9E9"/>
<path d="M110.444 186.835C111.198 186.835 111.904 186.839 112.61 186.834C118.557 186.791 124.503 186.747 130.45 186.702C137.559 186.641 144.669 186.574 151.778 186.502C158.726 186.437 165.674 186.372 172.622 186.308C178.31 186.258 183.998 186.225 189.685 186.161C190.848 186.276 192.021 186.084 193.087 185.604C193.528 185.351 193.658 185.782 193.843 185.989C195.174 187.484 196.486 188.996 197.804 190.503C199.356 192.277 200.908 194.052 202.459 195.827C202.595 195.983 202.862 196.112 202.701 196.383C202.65 196.485 202.572 196.571 202.475 196.632C202.378 196.692 202.267 196.724 202.152 196.725C201.991 196.723 201.829 196.729 201.668 196.73C194.753 196.777 187.837 196.824 180.922 196.87C175.202 196.905 169.481 196.885 163.762 196.976C158.591 197.058 153.42 197.02 148.25 197.062C142.594 197.107 136.937 197.066 131.282 197.149C127.792 197.2 124.302 197.21 120.812 197.249C120.573 197.262 120.333 197.227 120.107 197.146C119.881 197.066 119.673 196.941 119.496 196.78C116.321 193.98 113.401 190.904 110.77 187.588C110.663 187.495 110.578 187.379 110.521 187.248C110.465 187.118 110.438 186.977 110.444 186.835Z" fill="#E9E9E9"/>
<path d="M167.269 284.125C164.663 284.106 162.087 283.575 159.687 282.56C157.287 281.545 155.11 280.068 153.282 278.212C151.453 276.355 150.008 274.157 149.03 271.742C148.051 269.327 147.558 266.743 147.579 264.138C147.573 258.825 149.672 253.726 153.415 249.956C157.158 246.186 162.242 244.051 167.555 244.019C170.17 244.024 172.758 244.546 175.17 245.556C177.582 246.566 179.771 248.042 181.61 249.901C183.449 251.76 184.902 253.965 185.886 256.388C186.869 258.811 187.363 261.404 187.34 264.019C187.34 269.346 185.226 274.454 181.463 278.223C177.7 281.992 172.595 284.115 167.269 284.125Z" fill="#E9E9E9"/>
<path d="M155.5 154.697C155.169 154.441 154.801 154.239 154.407 154.099C152.525 153.209 150.937 151.8 149.829 150.037C148.983 148.52 148.618 146.78 148.783 145.05C148.948 143.321 149.635 141.682 150.754 140.352C152.133 138.796 153.905 137.638 155.884 137C158.528 136.12 161.318 135.759 164.099 135.939C166.168 135.999 168.217 136.37 170.177 137.037C172.439 137.761 174.438 139.134 175.924 140.987C176.627 141.866 177.144 142.879 177.444 143.963C177.744 145.048 177.822 146.182 177.672 147.298C177.522 148.413 177.148 149.487 176.571 150.454C175.995 151.421 175.229 152.261 174.32 152.924C173.548 153.511 172.717 154.016 171.839 154.43C171.587 154.548 171.345 154.686 171.063 154.832C171.31 155.07 171.614 155.239 171.946 155.323C173.797 156.099 175.483 157.22 176.916 158.626C177.827 159.567 178.532 160.688 178.986 161.918C179.439 163.147 179.631 164.457 179.549 165.765C179.468 167.072 179.114 168.349 178.511 169.512C177.909 170.675 177.07 171.7 176.049 172.521C173.815 174.253 171.165 175.365 168.364 175.744C164.336 176.447 160.199 176.189 156.289 174.993C154.054 174.318 152.008 173.129 150.316 171.522C149.331 170.57 148.565 169.417 148.069 168.14C147.574 166.864 147.362 165.495 147.447 164.129C147.533 162.762 147.914 161.43 148.564 160.225C149.214 159.021 150.118 157.971 151.214 157.15C152.243 156.366 153.367 155.716 154.559 155.216C154.917 155.139 155.244 154.958 155.5 154.697Z" fill="#5D4E47"/>
<path d="M115.628 170.719C116.057 170.738 116.399 170.763 116.741 170.766C124.368 170.844 131.996 170.921 139.623 170.996C139.752 170.997 139.881 170.994 140.01 171C140.682 171.034 140.739 171.076 140.73 171.724C140.717 172.693 140.66 173.661 140.658 174.629C140.658 175.119 140.484 175.342 139.978 175.319C139.268 175.286 138.557 175.277 137.846 175.27C128.086 175.175 118.326 175.082 108.566 174.99C107.351 174.978 107.339 174.976 107.422 173.795C107.345 172.958 107.43 172.114 107.674 171.309C108.047 170.564 108.872 170.157 109.512 169.619C114.826 165.147 120.164 160.702 125.473 156.223C127.469 154.629 129.293 152.831 130.916 150.857C131.712 149.876 132.284 148.732 132.589 147.506C132.884 146.322 132.813 145.076 132.384 143.933C131.955 142.79 131.189 141.805 130.188 141.107C129.323 140.476 128.334 140.034 127.287 139.81C124.875 139.278 122.367 139.377 120.004 140.097C118.566 140.462 117.272 141.255 116.294 142.37C115.315 143.485 114.697 144.871 114.522 146.344C114.412 147.05 114.398 147.063 113.66 147.064C112.141 147.064 110.622 147.054 109.103 147.034C108.278 147.024 108.26 147.01 108.357 146.218C108.647 143.956 109.677 141.853 111.286 140.238C112.937 138.531 115.011 137.292 117.297 136.647C121.942 135.262 126.889 135.254 131.539 136.623C133.069 137.054 134.496 137.79 135.734 138.786C137.215 139.936 138.27 141.547 138.733 143.364C139.195 145.181 139.04 147.1 138.29 148.819C137.368 150.889 136.091 152.782 134.516 154.411C132.39 156.626 130.112 158.691 127.7 160.589C123.884 163.731 120.069 166.875 116.256 170.02C115.988 170.192 115.771 170.434 115.628 170.719Z" fill="#5D4E47"/>
<path d="M163.785 171.81C161.76 171.869 159.747 171.472 157.896 170.649C156.693 170.147 155.666 169.3 154.944 168.215C154.222 167.13 153.837 165.855 153.839 164.552C153.771 163.235 154.089 161.926 154.753 160.787C155.418 159.647 156.4 158.727 157.58 158.137C158.594 157.56 159.714 157.192 160.873 157.055C164.086 156.673 167.205 156.859 169.974 158.796C171.299 159.687 172.287 160.998 172.778 162.517C173.269 164.036 173.235 165.677 172.682 167.175C172.108 168.706 170.953 169.95 169.469 170.637C168.196 171.277 166.804 171.647 165.381 171.724C164.865 171.759 164.349 171.78 163.785 171.81Z" fill="#E9E9E9"/>
<path d="M163.392 152.849C161.914 152.831 160.452 152.545 159.076 152.004C157.632 151.482 156.433 150.441 155.713 149.085C154.992 147.728 154.803 146.152 155.18 144.663C155.357 143.855 155.714 143.097 156.224 142.446C156.734 141.794 157.384 141.266 158.126 140.899C159.919 139.982 161.939 139.605 163.943 139.814C165.761 139.885 167.516 140.499 168.983 141.575C169.833 142.174 170.511 142.984 170.95 143.927C171.388 144.869 171.572 145.91 171.483 146.945C171.394 147.981 171.034 148.975 170.441 149.828C169.847 150.681 169.04 151.364 168.101 151.808C166.632 152.512 165.021 152.868 163.392 152.849Z" fill="#E9E9E9"/>
</g>
</g>
<defs>
<clipPath id="clip0_1425_10782">
<rect width="320" height="320" fill="white"/>
</clipPath>
<clipPath id="clip1_1425_10782">
<rect width="320" height="319.97" fill="white"/>
</clipPath>
</defs>
</svg>
